<?xml version="1.0" encoding="utf-8" standalone="no"?>
<!DOCTYPE svg PUBLIC "-//W3C//DTD SVG 1.1//EN"
  "http://www.w3.org/Graphics/SVG/1.1/DTD/svg11.dtd">
<svg xmlns:xlink="http://www.w3.org/1999/xlink" width="450.737567pt" height="198.611875pt" viewBox="0 0 450.737567 198.611875" xmlns="http://www.w3.org/2000/svg" version="1.1">
 <metadata>
  <rdf:RDF xmlns:dc="http://purl.org/dc/elements/1.1/" xmlns:cc="http://creativecommons.org/ns#" xmlns:rdf="http://www.w3.org/1999/02/22-rdf-syntax-ns#">
   <cc:Work>
    <dc:type rdf:resource="http://purl.org/dc/dcmitype/StillImage"/>
    <dc:date>2024-09-18T15:47:54.821755</dc:date>
    <dc:format>image/svg+xml</dc:format>
    <dc:creator>
     <cc:Agent>
      <dc:title>Matplotlib v3.7.5, https://matplotlib.org/</dc:title>
     </cc:Agent>
    </dc:creator>
   </cc:Work>
  </rdf:RDF>
 </metadata>
 <defs>
  <style type="text/css">*{stroke-linejoin: round; stroke-linecap: butt}</style>
 </defs>
 <g id="figure_1">
  <g id="patch_1">
   <path d="M 0 198.611875 
L 450.737567 198.611875 
L 450.737567 0 
L 0 0 
z
" style="fill: #ffffff"/>
  </g>
  <g id="axes_1">
   <g id="patch_2">
    <path d="M 51.241875 166.32 
L 441.841875 166.32 
L 441.841875 -0 
L 51.241875 -0 
z
" style="fill: #e5e5e5"/>
   </g>
   <g id="matplotlib.axis_1">
    <g id="xtick_1">
     <g id="line2d_1">
      <path d="M 78.78239 166.32 
L 78.78239 -0 
" clip-path="url(#p7281e00d1d)" style="fill: none; stroke: #ffffff; stroke-width: 0.8; stroke-linecap: square"/>
     </g>
     <g id="line2d_2">
      <defs>
       <path id="m48b6e0f9cf" d="M 0 0 
L 0 3.5 
" style="stroke: #555555; stroke-width: 0.8"/>
      </defs>
      <g>
       <use xlink:href="#m48b6e0f9cf" x="78.78239" y="166.32" style="fill: #555555; stroke: #555555; stroke-width: 0.8"/>
      </g>
     </g>
     <g id="text_1">
      <!-- 08/16/20 -->
      <g style="fill: #555555" transform="translate(56.32614 180.918437) scale(0.1 -0.1)">
       <defs>
        <path id="DejaVuSans-30" d="M 2034 4250 
Q 1547 4250 1301 3770 
Q 1056 3291 1056 2328 
Q 1056 1369 1301 889 
Q 1547 409 2034 409 
Q 2525 409 2770 889 
Q 3016 1369 3016 2328 
Q 3016 3291 2770 3770 
Q 2525 4250 2034 4250 
z
M 2034 4750 
Q 2819 4750 3233 4129 
Q 3647 3509 3647 2328 
Q 3647 1150 3233 529 
Q 2819 -91 2034 -91 
Q 1250 -91 836 529 
Q 422 1150 422 2328 
Q 422 3509 836 4129 
Q 1250 4750 2034 4750 
z
" transform="scale(0.015625)"/>
        <path id="DejaVuSans-38" d="M 2034 2216 
Q 1584 2216 1326 1975 
Q 1069 1734 1069 1313 
Q 1069 891 1326 650 
Q 1584 409 2034 409 
Q 2484 409 2743 651 
Q 3003 894 3003 1313 
Q 3003 1734 2745 1975 
Q 2488 2216 2034 2216 
z
M 1403 2484 
Q 997 2584 770 2862 
Q 544 3141 544 3541 
Q 544 4100 942 4425 
Q 1341 4750 2034 4750 
Q 2731 4750 3128 4425 
Q 3525 4100 3525 3541 
Q 3525 3141 3298 2862 
Q 3072 2584 2669 2484 
Q 3125 2378 3379 2068 
Q 3634 1759 3634 1313 
Q 3634 634 3220 271 
Q 2806 -91 2034 -91 
Q 1263 -91 848 271 
Q 434 634 434 1313 
Q 434 1759 690 2068 
Q 947 2378 1403 2484 
z
M 1172 3481 
Q 1172 3119 1398 2916 
Q 1625 2713 2034 2713 
Q 2441 2713 2670 2916 
Q 2900 3119 2900 3481 
Q 2900 3844 2670 4047 
Q 2441 4250 2034 4250 
Q 1625 4250 1398 4047 
Q 1172 3844 1172 3481 
z
" transform="scale(0.015625)"/>
        <path id="DejaVuSans-2f" d="M 1625 4666 
L 2156 4666 
L 531 -594 
L 0 -594 
L 1625 4666 
z
" transform="scale(0.015625)"/>
        <path id="DejaVuSans-31" d="M 794 531 
L 1825 531 
L 1825 4091 
L 703 3866 
L 703 4441 
L 1819 4666 
L 2450 4666 
L 2450 531 
L 3481 531 
L 3481 0 
L 794 0 
L 794 531 
z
" transform="scale(0.015625)"/>
        <path id="DejaVuSans-36" d="M 2113 2584 
Q 1688 2584 1439 2293 
Q 1191 2003 1191 1497 
Q 1191 994 1439 701 
Q 1688 409 2113 409 
Q 2538 409 2786 701 
Q 3034 994 3034 1497 
Q 3034 2003 2786 2293 
Q 2538 2584 2113 2584 
z
M 3366 4563 
L 3366 3988 
Q 3128 4100 2886 4159 
Q 2644 4219 2406 4219 
Q 1781 4219 1451 3797 
Q 1122 3375 1075 2522 
Q 1259 2794 1537 2939 
Q 1816 3084 2150 3084 
Q 2853 3084 3261 2657 
Q 3669 2231 3669 1497 
Q 3669 778 3244 343 
Q 2819 -91 2113 -91 
Q 1303 -91 875 529 
Q 447 1150 447 2328 
Q 447 3434 972 4092 
Q 1497 4750 2381 4750 
Q 2619 4750 2861 4703 
Q 3103 4656 3366 4563 
z
" transform="scale(0.015625)"/>
        <path id="DejaVuSans-32" d="M 1228 531 
L 3431 531 
L 3431 0 
L 469 0 
L 469 531 
Q 828 903 1448 1529 
Q 2069 2156 2228 2338 
Q 2531 2678 2651 2914 
Q 2772 3150 2772 3378 
Q 2772 3750 2511 3984 
Q 2250 4219 1831 4219 
Q 1534 4219 1204 4116 
Q 875 4013 500 3803 
L 500 4441 
Q 881 4594 1212 4672 
Q 1544 4750 1819 4750 
Q 2544 4750 2975 4387 
Q 3406 4025 3406 3419 
Q 3406 3131 3298 2873 
Q 3191 2616 2906 2266 
Q 2828 2175 2409 1742 
Q 1991 1309 1228 531 
z
" transform="scale(0.015625)"/>
       </defs>
       <use xlink:href="#DejaVuSans-30"/>
       <use xlink:href="#DejaVuSans-38" x="63.623047"/>
       <use xlink:href="#DejaVuSans-2f" x="127.246094"/>
       <use xlink:href="#DejaVuSans-31" x="160.9375"/>
       <use xlink:href="#DejaVuSans-36" x="224.560547"/>
       <use xlink:href="#DejaVuSans-2f" x="288.183594"/>
       <use xlink:href="#DejaVuSans-32" x="321.875"/>
       <use xlink:href="#DejaVuSans-30" x="385.498047"/>
      </g>
     </g>
    </g>
    <g id="xtick_2">
     <g id="line2d_3">
      <path d="M 148.682176 166.32 
L 148.682176 -0 
" clip-path="url(#p7281e00d1d)" style="fill: none; stroke: #ffffff; stroke-width: 0.8; stroke-linecap: square"/>
     </g>
     <g id="line2d_4">
      <g>
       <use xlink:href="#m48b6e0f9cf" x="148.682176" y="166.32" style="fill: #555555; stroke: #555555; stroke-width: 0.8"/>
      </g>
     </g>
     <g id="text_2">
      <!-- 10/05/20 -->
      <g style="fill: #555555" transform="translate(126.225926 180.918437) scale(0.1 -0.1)">
       <defs>
        <path id="DejaVuSans-35" d="M 691 4666 
L 3169 4666 
L 3169 4134 
L 1269 4134 
L 1269 2991 
Q 1406 3038 1543 3061 
Q 1681 3084 1819 3084 
Q 2600 3084 3056 2656 
Q 3513 2228 3513 1497 
Q 3513 744 3044 326 
Q 2575 -91 1722 -91 
Q 1428 -91 1123 -41 
Q 819 9 494 109 
L 494 744 
Q 775 591 1075 516 
Q 1375 441 1709 441 
Q 2250 441 2565 725 
Q 2881 1009 2881 1497 
Q 2881 1984 2565 2268 
Q 2250 2553 1709 2553 
Q 1456 2553 1204 2497 
Q 953 2441 691 2322 
L 691 4666 
z
" transform="scale(0.015625)"/>
       </defs>
       <use xlink:href="#DejaVuSans-31"/>
       <use xlink:href="#DejaVuSans-30" x="63.623047"/>
       <use xlink:href="#DejaVuSans-2f" x="127.246094"/>
       <use xlink:href="#DejaVuSans-30" x="160.9375"/>
       <use xlink:href="#DejaVuSans-35" x="224.560547"/>
       <use xlink:href="#DejaVuSans-2f" x="288.183594"/>
       <use xlink:href="#DejaVuSans-32" x="321.875"/>
       <use xlink:href="#DejaVuSans-30" x="385.498047"/>
      </g>
     </g>
    </g>
    <g id="xtick_3">
     <g id="line2d_5">
      <path d="M 218.581961 166.32 
L 218.581961 -0 
" clip-path="url(#p7281e00d1d)" style="fill: none; stroke: #ffffff; stroke-width: 0.8; stroke-linecap: square"/>
     </g>
     <g id="line2d_6">
      <g>
       <use xlink:href="#m48b6e0f9cf" x="218.581961" y="166.32" style="fill: #555555; stroke: #555555; stroke-width: 0.8"/>
      </g>
     </g>
     <g id="text_3">
      <!-- 11/24/20 -->
      <g style="fill: #555555" transform="translate(196.125711 180.918437) scale(0.1 -0.1)">
       <defs>
        <path id="DejaVuSans-34" d="M 2419 4116 
L 825 1625 
L 2419 1625 
L 2419 4116 
z
M 2253 4666 
L 3047 4666 
L 3047 1625 
L 3713 1625 
L 3713 1100 
L 3047 1100 
L 3047 0 
L 2419 0 
L 2419 1100 
L 313 1100 
L 313 1709 
L 2253 4666 
z
" transform="scale(0.015625)"/>
       </defs>
       <use xlink:href="#DejaVuSans-31"/>
       <use xlink:href="#DejaVuSans-31" x="63.623047"/>
       <use xlink:href="#DejaVuSans-2f" x="127.246094"/>
       <use xlink:href="#DejaVuSans-32" x="160.9375"/>
       <use xlink:href="#DejaVuSans-34" x="224.560547"/>
       <use xlink:href="#DejaVuSans-2f" x="288.183594"/>
       <use xlink:href="#DejaVuSans-32" x="321.875"/>
       <use xlink:href="#DejaVuSans-30" x="385.498047"/>
      </g>
     </g>
    </g>
    <g id="xtick_4">
     <g id="line2d_7">
      <path d="M 288.481746 166.32 
L 288.481746 -0 
" clip-path="url(#p7281e00d1d)" style="fill: none; stroke: #ffffff; stroke-width: 0.8; stroke-linecap: square"/>
     </g>
     <g id="line2d_8">
      <g>
       <use xlink:href="#m48b6e0f9cf" x="288.481746" y="166.32" style="fill: #555555; stroke: #555555; stroke-width: 0.8"/>
      </g>
     </g>
     <g id="text_4">
      <!-- 01/13/21 -->
      <g style="fill: #555555" transform="translate(266.025496 180.918437) scale(0.1 -0.1)">
       <defs>
        <path id="DejaVuSans-33" d="M 2597 2516 
Q 3050 2419 3304 2112 
Q 3559 1806 3559 1356 
Q 3559 666 3084 287 
Q 2609 -91 1734 -91 
Q 1441 -91 1130 -33 
Q 819 25 488 141 
L 488 750 
Q 750 597 1062 519 
Q 1375 441 1716 441 
Q 2309 441 2620 675 
Q 2931 909 2931 1356 
Q 2931 1769 2642 2001 
Q 2353 2234 1838 2234 
L 1294 2234 
L 1294 2753 
L 1863 2753 
Q 2328 2753 2575 2939 
Q 2822 3125 2822 3475 
Q 2822 3834 2567 4026 
Q 2313 4219 1838 4219 
Q 1578 4219 1281 4162 
Q 984 4106 628 3988 
L 628 4550 
Q 988 4650 1302 4700 
Q 1616 4750 1894 4750 
Q 2613 4750 3031 4423 
Q 3450 4097 3450 3541 
Q 3450 3153 3228 2886 
Q 3006 2619 2597 2516 
z
" transform="scale(0.015625)"/>
       </defs>
       <use xlink:href="#DejaVuSans-30"/>
       <use xlink:href="#DejaVuSans-31" x="63.623047"/>
       <use xlink:href="#DejaVuSans-2f" x="127.246094"/>
       <use xlink:href="#DejaVuSans-31" x="160.9375"/>
       <use xlink:href="#DejaVuSans-33" x="224.560547"/>
       <use xlink:href="#DejaVuSans-2f" x="288.183594"/>
       <use xlink:href="#DejaVuSans-32" x="321.875"/>
       <use xlink:href="#DejaVuSans-31" x="385.498047"/>
      </g>
     </g>
    </g>
    <g id="xtick_5">
     <g id="line2d_9">
      <path d="M 358.381531 166.32 
L 358.381531 -0 
" clip-path="url(#p7281e00d1d)" style="fill: none; stroke: #ffffff; stroke-width: 0.8; stroke-linecap: square"/>
     </g>
     <g id="line2d_10">
      <g>
       <use xlink:href="#m48b6e0f9cf" x="358.381531" y="166.32" style="fill: #555555; stroke: #555555; stroke-width: 0.8"/>
      </g>
     </g>
     <g id="text_5">
      <!-- 03/04/21 -->
      <g style="fill: #555555" transform="translate(335.925281 180.918437) scale(0.1 -0.1)">
       <use xlink:href="#DejaVuSans-30"/>
       <use xlink:href="#DejaVuSans-33" x="63.623047"/>
       <use xlink:href="#DejaVuSans-2f" x="127.246094"/>
       <use xlink:href="#DejaVuSans-30" x="160.9375"/>
       <use xlink:href="#DejaVuSans-34" x="224.560547"/>
       <use xlink:href="#DejaVuSans-2f" x="288.183594"/>
       <use xlink:href="#DejaVuSans-32" x="321.875"/>
       <use xlink:href="#DejaVuSans-31" x="385.498047"/>
      </g>
     </g>
    </g>
    <g id="xtick_6">
     <g id="line2d_11">
      <path d="M 428.281317 166.32 
L 428.281317 -0 
" clip-path="url(#p7281e00d1d)" style="fill: none; stroke: #ffffff; stroke-width: 0.8; stroke-linecap: square"/>
     </g>
     <g id="line2d_12">
      <g>
       <use xlink:href="#m48b6e0f9cf" x="428.281317" y="166.32" style="fill: #555555; stroke: #555555; stroke-width: 0.8"/>
      </g>
     </g>
     <g id="text_6">
      <!-- 04/23/21 -->
      <g style="fill: #555555" transform="translate(405.825067 180.918437) scale(0.1 -0.1)">
       <use xlink:href="#DejaVuSans-30"/>
       <use xlink:href="#DejaVuSans-34" x="63.623047"/>
       <use xlink:href="#DejaVuSans-2f" x="127.246094"/>
       <use xlink:href="#DejaVuSans-32" x="160.9375"/>
       <use xlink:href="#DejaVuSans-33" x="224.560547"/>
       <use xlink:href="#DejaVuSans-2f" x="288.183594"/>
       <use xlink:href="#DejaVuSans-32" x="321.875"/>
       <use xlink:href="#DejaVuSans-31" x="385.498047"/>
      </g>
     </g>
    </g>
    <g id="text_7">
     <!-- Date -->
     <g style="fill: #555555" transform="translate(232.200938 196.11625) scale(0.12 -0.12)">
      <defs>
       <path id="DejaVuSans-44" d="M 1259 4147 
L 1259 519 
L 2022 519 
Q 2988 519 3436 956 
Q 3884 1394 3884 2338 
Q 3884 3275 3436 3711 
Q 2988 4147 2022 4147 
L 1259 4147 
z
M 628 4666 
L 1925 4666 
Q 3281 4666 3915 4102 
Q 4550 3538 4550 2338 
Q 4550 1131 3912 565 
Q 3275 0 1925 0 
L 628 0 
L 628 4666 
z
" transform="scale(0.015625)"/>
       <path id="DejaVuSans-61" d="M 2194 1759 
Q 1497 1759 1228 1600 
Q 959 1441 959 1056 
Q 959 750 1161 570 
Q 1363 391 1709 391 
Q 2188 391 2477 730 
Q 2766 1069 2766 1631 
L 2766 1759 
L 2194 1759 
z
M 3341 1997 
L 3341 0 
L 2766 0 
L 2766 531 
Q 2569 213 2275 61 
Q 1981 -91 1556 -91 
Q 1019 -91 701 211 
Q 384 513 384 1019 
Q 384 1609 779 1909 
Q 1175 2209 1959 2209 
L 2766 2209 
L 2766 2266 
Q 2766 2663 2505 2880 
Q 2244 3097 1772 3097 
Q 1472 3097 1187 3025 
Q 903 2953 641 2809 
L 641 3341 
Q 956 3463 1253 3523 
Q 1550 3584 1831 3584 
Q 2591 3584 2966 3190 
Q 3341 2797 3341 1997 
z
" transform="scale(0.015625)"/>
       <path id="DejaVuSans-74" d="M 1172 4494 
L 1172 3500 
L 2356 3500 
L 2356 3053 
L 1172 3053 
L 1172 1153 
Q 1172 725 1289 603 
Q 1406 481 1766 481 
L 2356 481 
L 2356 0 
L 1766 0 
Q 1100 0 847 248 
Q 594 497 594 1153 
L 594 3053 
L 172 3053 
L 172 3500 
L 594 3500 
L 594 4494 
L 1172 4494 
z
" transform="scale(0.015625)"/>
       <path id="DejaVuSans-65" d="M 3597 1894 
L 3597 1613 
L 953 1613 
Q 991 1019 1311 708 
Q 1631 397 2203 397 
Q 2534 397 2845 478 
Q 3156 559 3463 722 
L 3463 178 
Q 3153 47 2828 -22 
Q 2503 -91 2169 -91 
Q 1331 -91 842 396 
Q 353 884 353 1716 
Q 353 2575 817 3079 
Q 1281 3584 2069 3584 
Q 2775 3584 3186 3129 
Q 3597 2675 3597 1894 
z
M 3022 2063 
Q 3016 2534 2758 2815 
Q 2500 3097 2075 3097 
Q 1594 3097 1305 2825 
Q 1016 2553 972 2059 
L 3022 2063 
z
" transform="scale(0.015625)"/>
      </defs>
      <use xlink:href="#DejaVuSans-44"/>
      <use xlink:href="#DejaVuSans-61" x="77.001953"/>
      <use xlink:href="#DejaVuSans-74" x="138.28125"/>
      <use xlink:href="#DejaVuSans-65" x="177.490234"/>
     </g>
    </g>
   </g>
   <g id="matplotlib.axis_2">
    <g id="ytick_1">
     <g id="line2d_13">
      <path d="M 51.241875 161.26677 
L 441.841875 161.26677 
" clip-path="url(#p7281e00d1d)" style="fill: none; stroke: #ffffff; stroke-width: 0.8; stroke-linecap: square"/>
     </g>
     <g id="line2d_14">
      <defs>
       <path id="ma96280d65e" d="M 0 0 
L -3.5 0 
" style="stroke: #555555; stroke-width: 0.8"/>
      </defs>
      <g>
       <use xlink:href="#ma96280d65e" x="51.241875" y="161.26677" style="fill: #555555; stroke: #555555; stroke-width: 0.8"/>
      </g>
     </g>
     <g id="text_8">
      <!-- 0.000 -->
      <g style="fill: #555555" transform="translate(15.61375 165.065988) scale(0.1 -0.1)">
       <defs>
        <path id="DejaVuSans-2e" d="M 684 794 
L 1344 794 
L 1344 0 
L 684 0 
L 684 794 
z
" transform="scale(0.015625)"/>
       </defs>
       <use xlink:href="#DejaVuSans-30"/>
       <use xlink:href="#DejaVuSans-2e" x="63.623047"/>
       <use xlink:href="#DejaVuSans-30" x="95.410156"/>
       <use xlink:href="#DejaVuSans-30" x="159.033203"/>
       <use xlink:href="#DejaVuSans-30" x="222.65625"/>
      </g>
     </g>
    </g>
    <g id="ytick_2">
     <g id="line2d_15">
      <path d="M 51.241875 128.251717 
L 441.841875 128.251717 
" clip-path="url(#p7281e00d1d)" style="fill: none; stroke: #ffffff; stroke-width: 0.8; stroke-linecap: square"/>
     </g>
     <g id="line2d_16">
      <g>
       <use xlink:href="#ma96280d65e" x="51.241875" y="128.251717" style="fill: #555555; stroke: #555555; stroke-width: 0.8"/>
      </g>
     </g>
     <g id="text_9">
      <!-- 0.005 -->
      <g style="fill: #555555" transform="translate(15.61375 132.050935) scale(0.1 -0.1)">
       <use xlink:href="#DejaVuSans-30"/>
       <use xlink:href="#DejaVuSans-2e" x="63.623047"/>
       <use xlink:href="#DejaVuSans-30" x="95.410156"/>
       <use xlink:href="#DejaVuSans-30" x="159.033203"/>
       <use xlink:href="#DejaVuSans-35" x="222.65625"/>
      </g>
     </g>
    </g>
    <g id="ytick_3">
     <g id="line2d_17">
      <path d="M 51.241875 95.236664 
L 441.841875 95.236664 
" clip-path="url(#p7281e00d1d)" style="fill: none; stroke: #ffffff; stroke-width: 0.8; stroke-linecap: square"/>
     </g>
     <g id="line2d_18">
      <g>
       <use xlink:href="#ma96280d65e" x="51.241875" y="95.236664" style="fill: #555555; stroke: #555555; stroke-width: 0.8"/>
      </g>
     </g>
     <g id="text_10">
      <!-- 0.010 -->
      <g style="fill: #555555" transform="translate(15.61375 99.035882) scale(0.1 -0.1)">
       <use xlink:href="#DejaVuSans-30"/>
       <use xlink:href="#DejaVuSans-2e" x="63.623047"/>
       <use xlink:href="#DejaVuSans-30" x="95.410156"/>
       <use xlink:href="#DejaVuSans-31" x="159.033203"/>
       <use xlink:href="#DejaVuSans-30" x="222.65625"/>
      </g>
     </g>
    </g>
    <g id="ytick_4">
     <g id="line2d_19">
      <path d="M 51.241875 62.221611 
L 441.841875 62.221611 
" clip-path="url(#p7281e00d1d)" style="fill: none; stroke: #ffffff; stroke-width: 0.8; stroke-linecap: square"/>
     </g>
     <g id="line2d_20">
      <g>
       <use xlink:href="#ma96280d65e" x="51.241875" y="62.221611" style="fill: #555555; stroke: #555555; stroke-width: 0.8"/>
      </g>
     </g>
     <g id="text_11">
      <!-- 0.015 -->
      <g style="fill: #555555" transform="translate(15.61375 66.02083) scale(0.1 -0.1)">
       <use xlink:href="#DejaVuSans-30"/>
       <use xlink:href="#DejaVuSans-2e" x="63.623047"/>
       <use xlink:href="#DejaVuSans-30" x="95.410156"/>
       <use xlink:href="#DejaVuSans-31" x="159.033203"/>
       <use xlink:href="#DejaVuSans-35" x="222.65625"/>
      </g>
     </g>
    </g>
    <g id="ytick_5">
     <g id="line2d_21">
      <path d="M 51.241875 29.206558 
L 441.841875 29.206558 
" clip-path="url(#p7281e00d1d)" style="fill: none; stroke: #ffffff; stroke-width: 0.8; stroke-linecap: square"/>
     </g>
     <g id="line2d_22">
      <g>
       <use xlink:href="#ma96280d65e" x="51.241875" y="29.206558" style="fill: #555555; stroke: #555555; stroke-width: 0.8"/>
      </g>
     </g>
     <g id="text_12">
      <!-- 0.020 -->
      <g style="fill: #555555" transform="translate(15.61375 33.005777) scale(0.1 -0.1)">
       <use xlink:href="#DejaVuSans-30"/>
       <use xlink:href="#DejaVuSans-2e" x="63.623047"/>
       <use xlink:href="#DejaVuSans-30" x="95.410156"/>
       <use xlink:href="#DejaVuSans-32" x="159.033203"/>
       <use xlink:href="#DejaVuSans-30" x="222.65625"/>
      </g>
     </g>
    </g>
    <g id="text_13">
     <!-- Value -->
     <g style="fill: #555555" transform="translate(9.118125 99.6375) rotate(-90) scale(0.12 -0.12)">
      <defs>
       <path id="DejaVuSans-56" d="M 1831 0 
L 50 4666 
L 709 4666 
L 2188 738 
L 3669 4666 
L 4325 4666 
L 2547 0 
L 1831 0 
z
" transform="scale(0.015625)"/>
       <path id="DejaVuSans-6c" d="M 603 4863 
L 1178 4863 
L 1178 0 
L 603 0 
L 603 4863 
z
" transform="scale(0.015625)"/>
       <path id="DejaVuSans-75" d="M 544 1381 
L 544 3500 
L 1119 3500 
L 1119 1403 
Q 1119 906 1312 657 
Q 1506 409 1894 409 
Q 2359 409 2629 706 
Q 2900 1003 2900 1516 
L 2900 3500 
L 3475 3500 
L 3475 0 
L 2900 0 
L 2900 538 
Q 2691 219 2414 64 
Q 2138 -91 1772 -91 
Q 1169 -91 856 284 
Q 544 659 544 1381 
z
M 1991 3584 
L 1991 3584 
z
" transform="scale(0.015625)"/>
      </defs>
      <use xlink:href="#DejaVuSans-56"/>
      <use xlink:href="#DejaVuSans-61" x="60.658203"/>
      <use xlink:href="#DejaVuSans-6c" x="121.9375"/>
      <use xlink:href="#DejaVuSans-75" x="149.720703"/>
      <use xlink:href="#DejaVuSans-65" x="213.099609"/>
     </g>
    </g>
   </g>
   <g id="PolyCollection_1">
    <defs>
     <path id="m8a098ab027" d="M 68.99642 -60.715533 
L 68.99642 -75.17041 
L 70.394416 -75.847186 
L 71.792412 -70.320322 
L 73.190408 -76.779608 
L 74.588403 -78.121321 
L 75.986399 -76.733011 
L 77.384395 -75.501234 
L 78.78239 -76.949896 
L 80.180386 -82.536381 
L 81.578382 -82.000502 
L 82.976378 -85.675354 
L 84.374373 -87.232106 
L 85.772369 -81.924054 
L 87.170365 -79.949114 
L 88.56836 -74.3195 
L 89.966356 -73.664516 
L 91.364352 -74.319194 
L 92.762347 -71.460825 
L 94.160343 -71.945174 
L 95.558339 -73.150501 
L 96.956335 -48.490757 
L 98.35433 -49.431228 
L 99.752326 -48.512393 
L 101.150322 -49.840813 
L 102.548317 -44.225128 
L 103.946313 -44.331803 
L 105.344309 -43.581133 
L 106.742304 -44.225412 
L 108.1403 -46.980795 
L 109.538296 -46.582744 
L 110.936292 -46.386419 
L 112.334287 -46.406293 
L 113.732283 -63.958124 
L 115.130279 -62.840877 
L 116.528274 -63.092342 
L 117.92627 -60.862957 
L 119.324266 -61.908981 
L 120.722262 -59.667776 
L 122.120257 -58.199318 
L 123.518253 -59.799262 
L 124.916249 -59.833554 
L 126.314244 -60.030361 
L 127.71224 -59.545812 
L 129.110236 -60.508923 
L 130.508231 -59.762102 
L 131.906227 -71.61067 
L 133.304223 -61.618375 
L 134.702219 -66.589506 
L 136.100214 -65.065953 
L 137.49821 -70.059357 
L 138.896206 -70.18235 
L 140.294201 -70.997739 
L 141.692197 -71.826934 
L 143.090193 -73.399784 
L 144.488189 -69.144012 
L 145.886184 -72.273429 
L 147.28418 -100.471874 
L 148.682176 -103.855798 
L 150.080171 -103.805445 
L 151.478167 -76.353066 
L 152.876163 -76.152023 
L 154.274158 -77.898482 
L 155.672154 -76.577972 
L 157.07015 -75.82932 
L 158.468146 -76.093914 
L 159.866141 -74.895236 
L 161.264137 -72.709693 
L 162.662133 -74.502298 
L 164.060128 -76.933903 
L 165.458124 -110.524765 
L 166.85612 -110.02549 
L 168.254116 -79.411073 
L 169.652111 -78.161028 
L 171.050107 -89.552564 
L 172.448103 -106.908396 
L 173.846098 -105.163755 
L 175.244094 -87.838314 
L 176.64209 -106.281132 
L 178.040085 -108.819687 
L 179.438081 -107.747026 
L 180.836077 -108.231642 
L 182.234073 -107.664794 
L 183.632068 -104.75729 
L 185.030064 -103.818723 
L 186.42806 -103.987897 
L 187.826055 -105.431318 
L 189.224051 -106.760086 
L 190.622047 -90.86747 
L 192.020043 -88.387596 
L 193.418038 -87.106222 
L 194.816034 -89.233641 
L 196.21403 -86.96354 
L 197.612025 -78.510457 
L 199.010021 -78.059361 
L 200.408017 -91.879688 
L 201.806012 -79.923333 
L 203.204008 -94.250602 
L 204.602004 -114.893715 
L 206 -113.769238 
L 207.397995 -119.88713 
L 208.795991 -98.360462 
L 210.193987 -119.975457 
L 211.591982 -122.199477 
L 212.989978 -121.848287 
L 214.387974 -124.83416 
L 215.785969 -127.241806 
L 217.183965 -123.725811 
L 218.581961 -123.19919 
L 219.979957 -122.302368 
L 221.377952 -136.832377 
L 222.775948 -124.51812 
L 224.173944 -122.101565 
L 225.571939 -125.372847 
L 226.969935 -119.111598 
L 228.367931 -122.598885 
L 229.765927 -123.235219 
L 231.163922 -118.747438 
L 232.561918 -119.070831 
L 233.959914 -121.363968 
L 235.357909 -120.758438 
L 236.755905 -119.790604 
L 238.153901 -120.131961 
L 239.551896 -118.128073 
L 240.949892 -82.538758 
L 242.347888 -111.446093 
L 243.745884 -109.130335 
L 245.143879 -108.410609 
L 246.541875 -114.806503 
L 247.939871 -112.931854 
L 249.337866 -106.671721 
L 250.735862 -105.33741 
L 252.133858 -91.249981 
L 253.531854 -91.912602 
L 254.929849 -91.689313 
L 256.327845 -90.676127 
L 257.725841 -90.432202 
L 259.123836 -89.616312 
L 260.521832 -88.407969 
L 261.919828 -87.8474 
L 263.317823 -88.592715 
L 264.715819 -88.397271 
L 266.113815 -88.835433 
L 267.511811 -87.987052 
L 268.909806 -87.640532 
L 270.307802 -86.948653 
L 271.705798 -87.588237 
L 273.103793 -87.727944 
L 274.501789 -87.963837 
L 275.899785 -75.653862 
L 277.297781 -76.018767 
L 278.695776 -56.064129 
L 280.093772 -55.403303 
L 281.491768 -56.717932 
L 282.889763 -56.377675 
L 284.287759 -54.504663 
L 285.685755 -55.100518 
L 287.08375 -54.548764 
L 288.481746 -44.883322 
L 289.879742 -42.071791 
L 291.277738 -42.095816 
L 292.675733 -43.210385 
L 294.073729 -44.830021 
L 295.471725 -53.3765 
L 296.86972 -53.632419 
L 298.267716 -52.70324 
L 299.665712 -54.292157 
L 301.063707 -53.961332 
L 302.461703 -56.217562 
L 303.859699 -56.057268 
L 305.257695 -56.209881 
L 306.65569 -56.447918 
L 308.053686 -68.433731 
L 309.451682 -72.052394 
L 310.849677 -72.39251 
L 312.247673 -84.732151 
L 313.645669 -86.007096 
L 315.043665 -85.729728 
L 316.44166 -86.071728 
L 317.839656 -85.365319 
L 319.237652 -88.197187 
L 320.635647 -85.378467 
L 322.033643 -84.136725 
L 323.431639 -84.035891 
L 324.829634 -84.732784 
L 326.22763 -85.99488 
L 327.625626 -84.546319 
L 329.023622 -84.288234 
L 330.421617 -84.303686 
L 331.819613 -69.621373 
L 333.217609 -69.981141 
L 334.615604 -68.904209 
L 336.0136 -69.675704 
L 337.411596 -44.473905 
L 338.809592 -56.213151 
L 340.207587 -54.002135 
L 341.605583 -53.75312 
L 343.003579 -54.452414 
L 344.401574 -54.451635 
L 345.79957 -44.893023 
L 347.197566 -55.003967 
L 348.595561 -57.618468 
L 349.993557 -59.51528 
L 351.391553 -59.183206 
L 352.789549 -60.16637 
L 354.187544 -93.656994 
L 355.58554 -75.313783 
L 356.983536 -91.7011 
L 358.381531 -170.191755 
L 359.779527 -172.220606 
L 361.177523 -176.887616 
L 362.575519 -181.637643 
L 363.973514 -178.837421 
L 365.37151 -181.184727 
L 366.769506 -185.155594 
L 368.167501 -183.971724 
L 369.565497 -187.669116 
L 370.963493 -183.954342 
L 372.361488 -188.455093 
L 373.759484 -189.324779 
L 375.15748 -191.051875 
L 376.555476 -188.616835 
L 377.953471 -181.914016 
L 379.351467 -180.558032 
L 380.749463 -186.673051 
L 382.147458 -182.956503 
L 383.545454 -143.503851 
L 384.94345 -143.54452 
L 386.341446 -147.230241 
L 387.739441 -143.962685 
L 389.137437 -145.522352 
L 390.535433 -136.988562 
L 391.933428 -136.009079 
L 393.331424 -97.693177 
L 394.72942 -101.269042 
L 396.127415 -97.978254 
L 397.525411 -92.485839 
L 398.923407 -76.850833 
L 400.321403 -77.003068 
L 401.719398 -77.523892 
L 403.117394 -72.442768 
L 404.51539 -67.536398 
L 405.913385 -67.213227 
L 407.311381 -65.538279 
L 408.709377 -65.087708 
L 410.107372 -64.014702 
L 411.505368 -65.249228 
L 412.903364 -63.418203 
L 414.30136 -49.021245 
L 415.699355 -63.549962 
L 417.097351 -47.666481 
L 418.495347 -47.691284 
L 419.893342 -47.677563 
L 421.291338 -47.415097 
L 422.689334 -49.008613 
L 424.08733 -48.632807 
L 424.08733 -46.080558 
L 424.08733 -46.080558 
L 422.689334 -46.198744 
L 421.291338 -45.11552 
L 419.893342 -45.248087 
L 418.495347 -45.227034 
L 417.097351 -45.419837 
L 415.699355 -51.675517 
L 414.30136 -46.350951 
L 412.903364 -53.110497 
L 411.505368 -54.099208 
L 410.107372 -53.485697 
L 408.709377 -53.731032 
L 407.311381 -54.176 
L 405.913385 -56.51027 
L 404.51539 -55.61192 
L 403.117394 -59.832467 
L 401.719398 -64.494364 
L 400.321403 -64.578237 
L 398.923407 -65.377751 
L 397.525411 -77.234387 
L 396.127415 -81.182845 
L 394.72942 -82.474529 
L 393.331424 -84.115941 
L 391.933428 -115.129609 
L 390.535433 -114.654913 
L 389.137437 -121.710907 
L 387.739441 -121.713137 
L 386.341446 -121.100494 
L 384.94345 -117.535181 
L 383.545454 -116.92902 
L 382.147458 -144.477909 
L 380.749463 -145.589235 
L 379.351467 -142.775938 
L 377.953471 -146.043524 
L 376.555476 -155.699149 
L 375.15748 -153.207131 
L 373.759484 -152.203292 
L 372.361488 -150.567196 
L 370.963493 -146.676482 
L 369.565497 -152.758012 
L 368.167501 -149.13228 
L 366.769506 -150.138927 
L 365.37151 -149.770855 
L 363.973514 -145.577332 
L 362.575519 -146.450641 
L 361.177523 -141.016402 
L 359.779527 -139.473137 
L 358.381531 -134.595044 
L 356.983536 -79.441673 
L 355.58554 -65.167494 
L 354.187544 -81.723519 
L 352.789549 -52.048789 
L 351.391553 -51.63677 
L 349.993557 -51.686115 
L 348.595561 -49.917907 
L 347.197566 -47.447185 
L 345.79957 -43.009812 
L 344.401574 -47.817605 
L 343.003579 -47.555271 
L 341.605583 -47.347742 
L 340.207587 -47.593558 
L 338.809592 -49.515099 
L 337.411596 -42.792597 
L 336.0136 -60.731549 
L 334.615604 -60.166011 
L 333.217609 -61.949491 
L 331.819613 -60.958585 
L 330.421617 -73.713396 
L 329.023622 -75.245517 
L 327.625626 -75.122321 
L 326.22763 -76.801744 
L 324.829634 -74.701827 
L 323.431639 -75.265222 
L 322.033643 -74.321108 
L 320.635647 -76.108412 
L 319.237652 -77.898912 
L 317.839656 -74.950838 
L 316.44166 -75.65886 
L 315.043665 -75.400228 
L 313.645669 -75.848119 
L 312.247673 -73.725904 
L 310.849677 -62.494356 
L 309.451682 -62.048241 
L 308.053686 -59.947915 
L 306.65569 -49.355825 
L 305.257695 -49.372619 
L 303.859699 -49.495343 
L 302.461703 -49.732875 
L 301.063707 -48.221358 
L 299.665712 -48.074884 
L 298.267716 -47.043534 
L 296.86972 -46.856884 
L 295.471725 -46.91206 
L 294.073729 -43.104108 
L 292.675733 -41.826014 
L 291.277738 -40.826595 
L 289.879742 -40.730099 
L 288.481746 -43.109369 
L 287.08375 -48.556431 
L 285.685755 -48.868365 
L 284.287759 -48.019551 
L 282.889763 -50.543863 
L 281.491768 -50.003676 
L 280.093772 -49.325332 
L 278.695776 -50.248353 
L 277.297781 -66.712499 
L 275.899785 -64.8978 
L 274.501789 -76.665097 
L 273.103793 -77.401427 
L 271.705798 -77.283395 
L 270.307802 -76.032226 
L 268.909806 -77.381438 
L 267.511811 -76.76523 
L 266.113815 -77.73625 
L 264.715819 -77.814268 
L 263.317823 -77.879614 
L 261.919828 -77.34414 
L 260.521832 -78.437288 
L 259.123836 -77.75541 
L 257.725841 -78.778809 
L 256.327845 -79.876691 
L 254.929849 -79.929091 
L 253.531854 -79.101926 
L 252.133858 -80.118225 
L 250.735862 -88.932104 
L 249.337866 -91.130926 
L 247.939871 -93.927725 
L 246.541875 -96.153916 
L 245.143879 -91.355567 
L 243.745884 -91.634567 
L 242.347888 -94.025333 
L 240.949892 -70.607342 
L 239.551896 -101.542943 
L 238.153901 -98.861832 
L 236.755905 -101.134255 
L 235.357909 -100.089115 
L 233.959914 -102.552963 
L 232.561918 -102.57648 
L 231.163922 -102.851914 
L 229.765927 -104.63187 
L 228.367931 -104.306229 
L 226.969935 -102.083743 
L 225.571939 -104.849764 
L 224.173944 -103.585121 
L 222.775948 -104.449662 
L 221.377952 -113.597986 
L 219.979957 -104.775193 
L 218.581961 -104.625961 
L 217.183965 -107.008791 
L 215.785969 -108.024469 
L 214.387974 -104.929511 
L 212.989978 -101.27951 
L 211.591982 -102.52395 
L 210.193987 -102.843458 
L 208.795991 -81.741494 
L 207.397995 -100.802387 
L 206 -96.030627 
L 204.602004 -97.485454 
L 203.204008 -79.11678 
L 201.806012 -67.716657 
L 200.408017 -77.705642 
L 199.010021 -67.951407 
L 197.612025 -66.521317 
L 196.21403 -72.908529 
L 194.816034 -74.703215 
L 193.418038 -74.113562 
L 192.020043 -73.211453 
L 190.622047 -75.931476 
L 189.224051 -90.265928 
L 187.826055 -91.383704 
L 186.42806 -88.269547 
L 185.030064 -87.949917 
L 183.632068 -90.71143 
L 182.234073 -91.544396 
L 180.836077 -92.787025 
L 179.438081 -92.045235 
L 178.040085 -92.237629 
L 176.64209 -92.24996 
L 175.244094 -73.75875 
L 173.846098 -91.716602 
L 172.448103 -90.974435 
L 171.050107 -75.13819 
L 169.652111 -66.233859 
L 168.254116 -67.365959 
L 166.85612 -93.18844 
L 165.458124 -91.798398 
L 164.060128 -65.001259 
L 162.662133 -63.592497 
L 161.264137 -60.983205 
L 159.866141 -64.04304 
L 158.468146 -65.371295 
L 157.07015 -63.902642 
L 155.672154 -65.399455 
L 154.274158 -66.11035 
L 152.876163 -65.644359 
L 151.478167 -66.794925 
L 150.080171 -88.750096 
L 148.682176 -89.128835 
L 147.28418 -86.475148 
L 145.886184 -63.125572 
L 144.488189 -59.188291 
L 143.090193 -62.797958 
L 141.692197 -62.092894 
L 140.294201 -62.314587 
L 138.896206 -61.124552 
L 137.49821 -61.170924 
L 136.100214 -56.535273 
L 134.702219 -58.541227 
L 133.304223 -54.677754 
L 131.906227 -63.681705 
L 130.508231 -52.6843 
L 129.110236 -52.490888 
L 127.71224 -52.248816 
L 126.314244 -52.862288 
L 124.916249 -52.68899 
L 123.518253 -52.536116 
L 122.120257 -49.904731 
L 120.722262 -51.844525 
L 119.324266 -52.143309 
L 117.92627 -52.615331 
L 116.528274 -53.166145 
L 115.130279 -53.6826 
L 113.732283 -54.591446 
L 112.334287 -44.245082 
L 110.936292 -44.476006 
L 109.538296 -44.454598 
L 108.1403 -44.727083 
L 106.742304 -42.336299 
L 105.344309 -41.817495 
L 103.946313 -42.315677 
L 102.548317 -42.31454 
L 101.150322 -47.268198 
L 99.752326 -46.291829 
L 98.35433 -46.906677 
L 96.956335 -45.865259 
L 95.558339 -58.743064 
L 94.160343 -58.846287 
L 92.762347 -58.383853 
L 91.364352 -60.167486 
L 89.966356 -59.549963 
L 88.56836 -59.219279 
L 87.170365 -63.790127 
L 85.772369 -64.983747 
L 84.374373 -71.209972 
L 82.976378 -68.145285 
L 81.578382 -65.125832 
L 80.180386 -66.315229 
L 78.78239 -60.914479 
L 77.384395 -59.546805 
L 75.986399 -61.01032 
L 74.588403 -61.658006 
L 73.190408 -61.403798 
L 71.792412 -55.916331 
L 70.394416 -61.850773 
L 68.99642 -60.715533 
z
" style="stroke: #134a8e; stroke-opacity: 0.5; stroke-width: 0.5"/>
    </defs>
    <g clip-path="url(#p7281e00d1d)">
     <use xlink:href="#m8a098ab027" x="0" y="198.611875" style="fill: #134a8e; fill-opacity: 0.5; stroke: #134a8e; stroke-opacity: 0.5; stroke-width: 0.5"/>
    </g>
   </g>
   <g id="line2d_23">
    <path d="M 68.99642 130.668904 
L 70.394416 129.762896 
L 71.792412 135.493549 
L 73.190408 129.520172 
L 74.588403 128.722212 
L 75.986399 129.74021 
L 77.384395 131.087855 
L 78.78239 129.679687 
L 80.180386 124.18607 
L 81.578382 125.048708 
L 82.976378 121.701555 
L 84.374373 119.390836 
L 85.772369 125.157974 
L 87.170365 126.742255 
L 88.56836 131.842486 
L 89.966356 132.004636 
L 91.364352 131.368535 
L 92.762347 133.689536 
L 95.558339 132.665092 
L 96.956335 151.433867 
L 98.35433 150.442923 
L 99.752326 151.209764 
L 101.150322 150.05737 
L 102.548317 155.342041 
L 103.946313 155.288135 
L 105.344309 155.912561 
L 106.742304 155.33102 
L 108.1403 152.757936 
L 109.538296 153.093204 
L 112.334287 153.286188 
L 113.732283 139.33709 
L 115.130279 140.350136 
L 116.528274 140.482632 
L 117.92627 141.872731 
L 119.324266 141.58573 
L 120.722262 142.855724 
L 122.120257 144.559851 
L 123.518253 142.444186 
L 126.314244 142.16555 
L 127.71224 142.714561 
L 129.110236 142.11197 
L 130.508231 142.388674 
L 131.906227 130.965688 
L 133.304223 140.463811 
L 134.702219 136.046508 
L 136.100214 137.811262 
L 137.49821 132.996734 
L 138.896206 132.958424 
L 140.294201 131.955712 
L 141.692197 131.651961 
L 143.090193 130.513004 
L 144.488189 134.445724 
L 145.886184 130.912374 
L 147.28418 105.138364 
L 148.682176 102.119559 
L 150.080171 102.334104 
L 151.478167 127.037879 
L 152.876163 127.713684 
L 154.274158 126.607459 
L 157.07015 128.745894 
L 158.468146 127.87927 
L 159.866141 129.142737 
L 161.264137 131.765426 
L 162.662133 129.564478 
L 164.060128 127.644294 
L 165.458124 97.450293 
L 166.85612 97.00491 
L 168.254116 125.223359 
L 169.652111 126.414432 
L 171.050107 116.266498 
L 172.448103 99.670459 
L 173.846098 100.171696 
L 175.244094 117.813343 
L 176.64209 99.346329 
L 178.040085 98.083217 
L 179.438081 98.715744 
L 180.836077 98.102541 
L 182.234073 99.00728 
L 185.030064 102.727555 
L 186.42806 102.483153 
L 187.826055 100.204364 
L 189.224051 100.098868 
L 190.622047 115.212402 
L 192.020043 117.812351 
L 193.418038 118.001983 
L 194.816034 116.643447 
L 196.21403 118.675841 
L 197.612025 126.095988 
L 199.010021 125.606491 
L 200.408017 113.81921 
L 201.806012 124.79188 
L 203.204008 111.928184 
L 204.602004 92.42229 
L 206 93.711943 
L 207.397995 88.267117 
L 208.795991 108.560897 
L 210.193987 87.202418 
L 211.591982 86.250161 
L 212.989978 87.047977 
L 214.387974 83.73004 
L 215.785969 80.978738 
L 217.183965 83.244574 
L 218.581961 84.699299 
L 219.979957 85.073094 
L 221.377952 73.396693 
L 222.775948 84.127984 
L 224.173944 85.768532 
L 225.571939 83.50057 
L 226.969935 88.014204 
L 228.367931 85.159318 
L 229.765927 84.67833 
L 231.163922 87.812199 
L 232.561918 87.78822 
L 233.959914 86.653409 
L 235.357909 88.188098 
L 236.755905 88.149445 
L 238.153901 89.114978 
L 239.551896 88.776367 
L 240.949892 122.038825 
L 242.347888 95.876162 
L 243.745884 98.229424 
L 245.143879 98.728787 
L 246.541875 93.131666 
L 247.939871 95.182086 
L 249.337866 99.710552 
L 250.735862 101.477118 
L 252.133858 112.927772 
L 253.531854 113.104611 
L 254.929849 112.802673 
L 256.327845 113.335466 
L 257.725841 114.00637 
L 259.123836 114.926014 
L 260.521832 115.189247 
L 261.919828 116.016105 
L 263.317823 115.37571 
L 264.715819 115.506105 
L 266.113815 115.326034 
L 267.511811 116.235734 
L 268.909806 116.10089 
L 270.307802 117.121435 
L 271.705798 116.176059 
L 273.103793 116.047189 
L 274.501789 116.297408 
L 275.899785 128.336044 
L 277.297781 127.246242 
L 278.695776 145.455634 
L 280.093772 146.247558 
L 281.491768 145.251071 
L 282.889763 145.151106 
L 284.287759 147.349768 
L 285.685755 146.627434 
L 287.08375 147.059277 
L 288.481746 154.615529 
L 289.879742 157.21093 
L 291.277738 157.15067 
L 292.675733 156.093675 
L 294.073729 154.64481 
L 295.471725 148.467595 
L 296.86972 148.367224 
L 298.267716 148.738488 
L 299.665712 147.428354 
L 301.063707 147.52053 
L 302.461703 145.636657 
L 303.859699 145.835569 
L 306.65569 145.710004 
L 308.053686 134.421052 
L 309.451682 131.561558 
L 310.849677 131.168442 
L 312.247673 119.382847 
L 313.645669 117.684267 
L 315.043665 118.046897 
L 316.44166 117.746581 
L 317.839656 118.453796 
L 319.237652 115.563825 
L 320.635647 117.868435 
L 322.033643 119.382959 
L 323.431639 118.961318 
L 324.829634 118.89457 
L 326.22763 117.213563 
L 327.625626 118.777555 
L 329.023622 118.845 
L 330.421617 119.603334 
L 331.819613 133.321896 
L 333.217609 132.646559 
L 334.615604 134.076765 
L 336.0136 133.408249 
L 337.411596 154.978624 
L 338.809592 145.74775 
L 340.207587 147.814028 
L 341.605583 148.061444 
L 343.003579 147.608032 
L 344.401574 147.477255 
L 345.79957 154.660458 
L 347.197566 147.386299 
L 348.595561 144.843687 
L 349.993557 143.011177 
L 351.391553 143.201887 
L 352.789549 142.504295 
L 354.187544 110.921618 
L 355.58554 128.371236 
L 356.983536 113.040488 
L 358.381531 46.218476 
L 359.779527 42.765004 
L 361.177523 39.659866 
L 362.575519 34.567733 
L 363.973514 36.404499 
L 365.37151 33.134084 
L 366.769506 30.964614 
L 368.167501 32.059873 
L 369.565497 28.398311 
L 370.963493 33.296463 
L 372.361488 29.100731 
L 375.15748 26.482372 
L 376.555476 26.453883 
L 377.953471 34.633105 
L 379.351467 36.94489 
L 380.749463 32.480732 
L 382.147458 34.894669 
L 383.545454 68.395439 
L 384.94345 68.072025 
L 386.341446 64.446507 
L 387.739441 65.773964 
L 389.137437 64.995245 
L 390.535433 72.790138 
L 391.933428 73.042531 
L 393.331424 107.707316 
L 394.72942 106.74009 
L 396.127415 109.031326 
L 397.525411 113.751762 
L 398.923407 127.497583 
L 400.321403 127.821223 
L 401.719398 127.602747 
L 404.51539 137.037716 
L 405.913385 136.750127 
L 407.311381 138.754736 
L 408.709377 139.202505 
L 410.107372 139.861675 
L 411.505368 138.937657 
L 412.903364 140.347525 
L 414.30136 150.925777 
L 415.699355 140.999136 
L 417.097351 152.068716 
L 421.291338 152.346566 
L 422.689334 151.008196 
L 424.08733 151.255192 
L 424.08733 151.255192 
" clip-path="url(#p7281e00d1d)" style="fill: none; stroke: #134a8e; stroke-width: 3; stroke-linecap: square"/>
    <defs>
     <path id="mebad872958" d="M 0 1.5 
C 0.397805 1.5 0.77937 1.341951 1.06066 1.06066 
C 1.341951 0.77937 1.5 0.397805 1.5 0 
C 1.5 -0.397805 1.341951 -0.77937 1.06066 -1.06066 
C 0.77937 -1.341951 0.397805 -1.5 0 -1.5 
C -0.397805 -1.5 -0.77937 -1.341951 -1.06066 -1.06066 
C -1.341951 -0.77937 -1.5 -0.397805 -1.5 0 
C -1.5 0.397805 -1.341951 0.77937 -1.06066 1.06066 
C -0.77937 1.341951 -0.397805 1.5 0 1.5 
z
" style="stroke: #134a8e"/>
    </defs>
    <g clip-path="url(#p7281e00d1d)">
     <use xlink:href="#mebad872958" x="68.99642" y="130.668904" style="fill: #134a8e; stroke: #134a8e"/>
     <use xlink:href="#mebad872958" x="70.394416" y="129.762896" style="fill: #134a8e; stroke: #134a8e"/>
     <use xlink:href="#mebad872958" x="71.792412" y="135.493549" style="fill: #134a8e; stroke: #134a8e"/>
     <use xlink:href="#mebad872958" x="73.190408" y="129.520172" style="fill: #134a8e; stroke: #134a8e"/>
     <use xlink:href="#mebad872958" x="74.588403" y="128.722212" style="fill: #134a8e; stroke: #134a8e"/>
     <use xlink:href="#mebad872958" x="75.986399" y="129.74021" style="fill: #134a8e; stroke: #134a8e"/>
     <use xlink:href="#mebad872958" x="77.384395" y="131.087855" style="fill: #134a8e; stroke: #134a8e"/>
     <use xlink:href="#mebad872958" x="78.78239" y="129.679687" style="fill: #134a8e; stroke: #134a8e"/>
     <use xlink:href="#mebad872958" x="80.180386" y="124.18607" style="fill: #134a8e; stroke: #134a8e"/>
     <use xlink:href="#mebad872958" x="81.578382" y="125.048708" style="fill: #134a8e; stroke: #134a8e"/>
     <use xlink:href="#mebad872958" x="82.976378" y="121.701555" style="fill: #134a8e; stroke: #134a8e"/>
     <use xlink:href="#mebad872958" x="84.374373" y="119.390836" style="fill: #134a8e; stroke: #134a8e"/>
     <use xlink:href="#mebad872958" x="85.772369" y="125.157974" style="fill: #134a8e; stroke: #134a8e"/>
     <use xlink:href="#mebad872958" x="87.170365" y="126.742255" style="fill: #134a8e; stroke: #134a8e"/>
     <use xlink:href="#mebad872958" x="88.56836" y="131.842486" style="fill: #134a8e; stroke: #134a8e"/>
     <use xlink:href="#mebad872958" x="89.966356" y="132.004636" style="fill: #134a8e; stroke: #134a8e"/>
     <use xlink:href="#mebad872958" x="91.364352" y="131.368535" style="fill: #134a8e; stroke: #134a8e"/>
     <use xlink:href="#mebad872958" x="92.762347" y="133.689536" style="fill: #134a8e; stroke: #134a8e"/>
     <use xlink:href="#mebad872958" x="94.160343" y="133.216145" style="fill: #134a8e; stroke: #134a8e"/>
     <use xlink:href="#mebad872958" x="95.558339" y="132.665092" style="fill: #134a8e; stroke: #134a8e"/>
     <use xlink:href="#mebad872958" x="96.956335" y="151.433867" style="fill: #134a8e; stroke: #134a8e"/>
     <use xlink:href="#mebad872958" x="98.35433" y="150.442923" style="fill: #134a8e; stroke: #134a8e"/>
     <use xlink:href="#mebad872958" x="99.752326" y="151.209764" style="fill: #134a8e; stroke: #134a8e"/>
     <use xlink:href="#mebad872958" x="101.150322" y="150.05737" style="fill: #134a8e; stroke: #134a8e"/>
     <use xlink:href="#mebad872958" x="102.548317" y="155.342041" style="fill: #134a8e; stroke: #134a8e"/>
     <use xlink:href="#mebad872958" x="103.946313" y="155.288135" style="fill: #134a8e; stroke: #134a8e"/>
     <use xlink:href="#mebad872958" x="105.344309" y="155.912561" style="fill: #134a8e; stroke: #134a8e"/>
     <use xlink:href="#mebad872958" x="106.742304" y="155.33102" style="fill: #134a8e; stroke: #134a8e"/>
     <use xlink:href="#mebad872958" x="108.1403" y="152.757936" style="fill: #134a8e; stroke: #134a8e"/>
     <use xlink:href="#mebad872958" x="109.538296" y="153.093204" style="fill: #134a8e; stroke: #134a8e"/>
     <use xlink:href="#mebad872958" x="110.936292" y="153.180663" style="fill: #134a8e; stroke: #134a8e"/>
     <use xlink:href="#mebad872958" x="112.334287" y="153.286188" style="fill: #134a8e; stroke: #134a8e"/>
     <use xlink:href="#mebad872958" x="113.732283" y="139.33709" style="fill: #134a8e; stroke: #134a8e"/>
     <use xlink:href="#mebad872958" x="115.130279" y="140.350136" style="fill: #134a8e; stroke: #134a8e"/>
     <use xlink:href="#mebad872958" x="116.528274" y="140.482632" style="fill: #134a8e; stroke: #134a8e"/>
     <use xlink:href="#mebad872958" x="117.92627" y="141.872731" style="fill: #134a8e; stroke: #134a8e"/>
     <use xlink:href="#mebad872958" x="119.324266" y="141.58573" style="fill: #134a8e; stroke: #134a8e"/>
     <use xlink:href="#mebad872958" x="120.722262" y="142.855724" style="fill: #134a8e; stroke: #134a8e"/>
     <use xlink:href="#mebad872958" x="122.120257" y="144.559851" style="fill: #134a8e; stroke: #134a8e"/>
     <use xlink:href="#mebad872958" x="123.518253" y="142.444186" style="fill: #134a8e; stroke: #134a8e"/>
     <use xlink:href="#mebad872958" x="124.916249" y="142.350603" style="fill: #134a8e; stroke: #134a8e"/>
     <use xlink:href="#mebad872958" x="126.314244" y="142.16555" style="fill: #134a8e; stroke: #134a8e"/>
     <use xlink:href="#mebad872958" x="127.71224" y="142.714561" style="fill: #134a8e; stroke: #134a8e"/>
     <use xlink:href="#mebad872958" x="129.110236" y="142.11197" style="fill: #134a8e; stroke: #134a8e"/>
     <use xlink:href="#mebad872958" x="130.508231" y="142.388674" style="fill: #134a8e; stroke: #134a8e"/>
     <use xlink:href="#mebad872958" x="131.906227" y="130.965688" style="fill: #134a8e; stroke: #134a8e"/>
     <use xlink:href="#mebad872958" x="133.304223" y="140.463811" style="fill: #134a8e; stroke: #134a8e"/>
     <use xlink:href="#mebad872958" x="134.702219" y="136.046508" style="fill: #134a8e; stroke: #134a8e"/>
     <use xlink:href="#mebad872958" x="136.100214" y="137.811262" style="fill: #134a8e; stroke: #134a8e"/>
     <use xlink:href="#mebad872958" x="137.49821" y="132.996734" style="fill: #134a8e; stroke: #134a8e"/>
     <use xlink:href="#mebad872958" x="138.896206" y="132.958424" style="fill: #134a8e; stroke: #134a8e"/>
     <use xlink:href="#mebad872958" x="140.294201" y="131.955712" style="fill: #134a8e; stroke: #134a8e"/>
     <use xlink:href="#mebad872958" x="141.692197" y="131.651961" style="fill: #134a8e; stroke: #134a8e"/>
     <use xlink:href="#mebad872958" x="143.090193" y="130.513004" style="fill: #134a8e; stroke: #134a8e"/>
     <use xlink:href="#mebad872958" x="144.488189" y="134.445724" style="fill: #134a8e; stroke: #134a8e"/>
     <use xlink:href="#mebad872958" x="145.886184" y="130.912374" style="fill: #134a8e; stroke: #134a8e"/>
     <use xlink:href="#mebad872958" x="147.28418" y="105.138364" style="fill: #134a8e; stroke: #134a8e"/>
     <use xlink:href="#mebad872958" x="148.682176" y="102.119559" style="fill: #134a8e; stroke: #134a8e"/>
     <use xlink:href="#mebad872958" x="150.080171" y="102.334104" style="fill: #134a8e; stroke: #134a8e"/>
     <use xlink:href="#mebad872958" x="151.478167" y="127.037879" style="fill: #134a8e; stroke: #134a8e"/>
     <use xlink:href="#mebad872958" x="152.876163" y="127.713684" style="fill: #134a8e; stroke: #134a8e"/>
     <use xlink:href="#mebad872958" x="154.274158" y="126.607459" style="fill: #134a8e; stroke: #134a8e"/>
     <use xlink:href="#mebad872958" x="155.672154" y="127.623161" style="fill: #134a8e; stroke: #134a8e"/>
     <use xlink:href="#mebad872958" x="157.07015" y="128.745894" style="fill: #134a8e; stroke: #134a8e"/>
     <use xlink:href="#mebad872958" x="158.468146" y="127.87927" style="fill: #134a8e; stroke: #134a8e"/>
     <use xlink:href="#mebad872958" x="159.866141" y="129.142737" style="fill: #134a8e; stroke: #134a8e"/>
     <use xlink:href="#mebad872958" x="161.264137" y="131.765426" style="fill: #134a8e; stroke: #134a8e"/>
     <use xlink:href="#mebad872958" x="162.662133" y="129.564478" style="fill: #134a8e; stroke: #134a8e"/>
     <use xlink:href="#mebad872958" x="164.060128" y="127.644294" style="fill: #134a8e; stroke: #134a8e"/>
     <use xlink:href="#mebad872958" x="165.458124" y="97.450293" style="fill: #134a8e; stroke: #134a8e"/>
     <use xlink:href="#mebad872958" x="166.85612" y="97.00491" style="fill: #134a8e; stroke: #134a8e"/>
     <use xlink:href="#mebad872958" x="168.254116" y="125.223359" style="fill: #134a8e; stroke: #134a8e"/>
     <use xlink:href="#mebad872958" x="169.652111" y="126.414432" style="fill: #134a8e; stroke: #134a8e"/>
     <use xlink:href="#mebad872958" x="171.050107" y="116.266498" style="fill: #134a8e; stroke: #134a8e"/>
     <use xlink:href="#mebad872958" x="172.448103" y="99.670459" style="fill: #134a8e; stroke: #134a8e"/>
     <use xlink:href="#mebad872958" x="173.846098" y="100.171696" style="fill: #134a8e; stroke: #134a8e"/>
     <use xlink:href="#mebad872958" x="175.244094" y="117.813343" style="fill: #134a8e; stroke: #134a8e"/>
     <use xlink:href="#mebad872958" x="176.64209" y="99.346329" style="fill: #134a8e; stroke: #134a8e"/>
     <use xlink:href="#mebad872958" x="178.040085" y="98.083217" style="fill: #134a8e; stroke: #134a8e"/>
     <use xlink:href="#mebad872958" x="179.438081" y="98.715744" style="fill: #134a8e; stroke: #134a8e"/>
     <use xlink:href="#mebad872958" x="180.836077" y="98.102541" style="fill: #134a8e; stroke: #134a8e"/>
     <use xlink:href="#mebad872958" x="182.234073" y="99.00728" style="fill: #134a8e; stroke: #134a8e"/>
     <use xlink:href="#mebad872958" x="183.632068" y="100.877515" style="fill: #134a8e; stroke: #134a8e"/>
     <use xlink:href="#mebad872958" x="185.030064" y="102.727555" style="fill: #134a8e; stroke: #134a8e"/>
     <use xlink:href="#mebad872958" x="186.42806" y="102.483153" style="fill: #134a8e; stroke: #134a8e"/>
     <use xlink:href="#mebad872958" x="187.826055" y="100.204364" style="fill: #134a8e; stroke: #134a8e"/>
     <use xlink:href="#mebad872958" x="189.224051" y="100.098868" style="fill: #134a8e; stroke: #134a8e"/>
     <use xlink:href="#mebad872958" x="190.622047" y="115.212402" style="fill: #134a8e; stroke: #134a8e"/>
     <use xlink:href="#mebad872958" x="192.020043" y="117.812351" style="fill: #134a8e; stroke: #134a8e"/>
     <use xlink:href="#mebad872958" x="193.418038" y="118.001983" style="fill: #134a8e; stroke: #134a8e"/>
     <use xlink:href="#mebad872958" x="194.816034" y="116.643447" style="fill: #134a8e; stroke: #134a8e"/>
     <use xlink:href="#mebad872958" x="196.21403" y="118.675841" style="fill: #134a8e; stroke: #134a8e"/>
     <use xlink:href="#mebad872958" x="197.612025" y="126.095988" style="fill: #134a8e; stroke: #134a8e"/>
     <use xlink:href="#mebad872958" x="199.010021" y="125.606491" style="fill: #134a8e; stroke: #134a8e"/>
     <use xlink:href="#mebad872958" x="200.408017" y="113.81921" style="fill: #134a8e; stroke: #134a8e"/>
     <use xlink:href="#mebad872958" x="201.806012" y="124.79188" style="fill: #134a8e; stroke: #134a8e"/>
     <use xlink:href="#mebad872958" x="203.204008" y="111.928184" style="fill: #134a8e; stroke: #134a8e"/>
     <use xlink:href="#mebad872958" x="204.602004" y="92.42229" style="fill: #134a8e; stroke: #134a8e"/>
     <use xlink:href="#mebad872958" x="206" y="93.711943" style="fill: #134a8e; stroke: #134a8e"/>
     <use xlink:href="#mebad872958" x="207.397995" y="88.267117" style="fill: #134a8e; stroke: #134a8e"/>
     <use xlink:href="#mebad872958" x="208.795991" y="108.560897" style="fill: #134a8e; stroke: #134a8e"/>
     <use xlink:href="#mebad872958" x="210.193987" y="87.202418" style="fill: #134a8e; stroke: #134a8e"/>
     <use xlink:href="#mebad872958" x="211.591982" y="86.250161" style="fill: #134a8e; stroke: #134a8e"/>
     <use xlink:href="#mebad872958" x="212.989978" y="87.047977" style="fill: #134a8e; stroke: #134a8e"/>
     <use xlink:href="#mebad872958" x="214.387974" y="83.73004" style="fill: #134a8e; stroke: #134a8e"/>
     <use xlink:href="#mebad872958" x="215.785969" y="80.978738" style="fill: #134a8e; stroke: #134a8e"/>
     <use xlink:href="#mebad872958" x="217.183965" y="83.244574" style="fill: #134a8e; stroke: #134a8e"/>
     <use xlink:href="#mebad872958" x="218.581961" y="84.699299" style="fill: #134a8e; stroke: #134a8e"/>
     <use xlink:href="#mebad872958" x="219.979957" y="85.073094" style="fill: #134a8e; stroke: #134a8e"/>
     <use xlink:href="#mebad872958" x="221.377952" y="73.396693" style="fill: #134a8e; stroke: #134a8e"/>
     <use xlink:href="#mebad872958" x="222.775948" y="84.127984" style="fill: #134a8e; stroke: #134a8e"/>
     <use xlink:href="#mebad872958" x="224.173944" y="85.768532" style="fill: #134a8e; stroke: #134a8e"/>
     <use xlink:href="#mebad872958" x="225.571939" y="83.50057" style="fill: #134a8e; stroke: #134a8e"/>
     <use xlink:href="#mebad872958" x="226.969935" y="88.014204" style="fill: #134a8e; stroke: #134a8e"/>
     <use xlink:href="#mebad872958" x="228.367931" y="85.159318" style="fill: #134a8e; stroke: #134a8e"/>
     <use xlink:href="#mebad872958" x="229.765927" y="84.67833" style="fill: #134a8e; stroke: #134a8e"/>
     <use xlink:href="#mebad872958" x="231.163922" y="87.812199" style="fill: #134a8e; stroke: #134a8e"/>
     <use xlink:href="#mebad872958" x="232.561918" y="87.78822" style="fill: #134a8e; stroke: #134a8e"/>
     <use xlink:href="#mebad872958" x="233.959914" y="86.653409" style="fill: #134a8e; stroke: #134a8e"/>
     <use xlink:href="#mebad872958" x="235.357909" y="88.188098" style="fill: #134a8e; stroke: #134a8e"/>
     <use xlink:href="#mebad872958" x="236.755905" y="88.149445" style="fill: #134a8e; stroke: #134a8e"/>
     <use xlink:href="#mebad872958" x="238.153901" y="89.114978" style="fill: #134a8e; stroke: #134a8e"/>
     <use xlink:href="#mebad872958" x="239.551896" y="88.776367" style="fill: #134a8e; stroke: #134a8e"/>
     <use xlink:href="#mebad872958" x="240.949892" y="122.038825" style="fill: #134a8e; stroke: #134a8e"/>
     <use xlink:href="#mebad872958" x="242.347888" y="95.876162" style="fill: #134a8e; stroke: #134a8e"/>
     <use xlink:href="#mebad872958" x="243.745884" y="98.229424" style="fill: #134a8e; stroke: #134a8e"/>
     <use xlink:href="#mebad872958" x="245.143879" y="98.728787" style="fill: #134a8e; stroke: #134a8e"/>
     <use xlink:href="#mebad872958" x="246.541875" y="93.131666" style="fill: #134a8e; stroke: #134a8e"/>
     <use xlink:href="#mebad872958" x="247.939871" y="95.182086" style="fill: #134a8e; stroke: #134a8e"/>
     <use xlink:href="#mebad872958" x="249.337866" y="99.710552" style="fill: #134a8e; stroke: #134a8e"/>
     <use xlink:href="#mebad872958" x="250.735862" y="101.477118" style="fill: #134a8e; stroke: #134a8e"/>
     <use xlink:href="#mebad872958" x="252.133858" y="112.927772" style="fill: #134a8e; stroke: #134a8e"/>
     <use xlink:href="#mebad872958" x="253.531854" y="113.104611" style="fill: #134a8e; stroke: #134a8e"/>
     <use xlink:href="#mebad872958" x="254.929849" y="112.802673" style="fill: #134a8e; stroke: #134a8e"/>
     <use xlink:href="#mebad872958" x="256.327845" y="113.335466" style="fill: #134a8e; stroke: #134a8e"/>
     <use xlink:href="#mebad872958" x="257.725841" y="114.00637" style="fill: #134a8e; stroke: #134a8e"/>
     <use xlink:href="#mebad872958" x="259.123836" y="114.926014" style="fill: #134a8e; stroke: #134a8e"/>
     <use xlink:href="#mebad872958" x="260.521832" y="115.189247" style="fill: #134a8e; stroke: #134a8e"/>
     <use xlink:href="#mebad872958" x="261.919828" y="116.016105" style="fill: #134a8e; stroke: #134a8e"/>
     <use xlink:href="#mebad872958" x="263.317823" y="115.37571" style="fill: #134a8e; stroke: #134a8e"/>
     <use xlink:href="#mebad872958" x="264.715819" y="115.506105" style="fill: #134a8e; stroke: #134a8e"/>
     <use xlink:href="#mebad872958" x="266.113815" y="115.326034" style="fill: #134a8e; stroke: #134a8e"/>
     <use xlink:href="#mebad872958" x="267.511811" y="116.235734" style="fill: #134a8e; stroke: #134a8e"/>
     <use xlink:href="#mebad872958" x="268.909806" y="116.10089" style="fill: #134a8e; stroke: #134a8e"/>
     <use xlink:href="#mebad872958" x="270.307802" y="117.121435" style="fill: #134a8e; stroke: #134a8e"/>
     <use xlink:href="#mebad872958" x="271.705798" y="116.176059" style="fill: #134a8e; stroke: #134a8e"/>
     <use xlink:href="#mebad872958" x="273.103793" y="116.047189" style="fill: #134a8e; stroke: #134a8e"/>
     <use xlink:href="#mebad872958" x="274.501789" y="116.297408" style="fill: #134a8e; stroke: #134a8e"/>
     <use xlink:href="#mebad872958" x="275.899785" y="128.336044" style="fill: #134a8e; stroke: #134a8e"/>
     <use xlink:href="#mebad872958" x="277.297781" y="127.246242" style="fill: #134a8e; stroke: #134a8e"/>
     <use xlink:href="#mebad872958" x="278.695776" y="145.455634" style="fill: #134a8e; stroke: #134a8e"/>
     <use xlink:href="#mebad872958" x="280.093772" y="146.247558" style="fill: #134a8e; stroke: #134a8e"/>
     <use xlink:href="#mebad872958" x="281.491768" y="145.251071" style="fill: #134a8e; stroke: #134a8e"/>
     <use xlink:href="#mebad872958" x="282.889763" y="145.151106" style="fill: #134a8e; stroke: #134a8e"/>
     <use xlink:href="#mebad872958" x="284.287759" y="147.349768" style="fill: #134a8e; stroke: #134a8e"/>
     <use xlink:href="#mebad872958" x="285.685755" y="146.627434" style="fill: #134a8e; stroke: #134a8e"/>
     <use xlink:href="#mebad872958" x="287.08375" y="147.059277" style="fill: #134a8e; stroke: #134a8e"/>
     <use xlink:href="#mebad872958" x="288.481746" y="154.615529" style="fill: #134a8e; stroke: #134a8e"/>
     <use xlink:href="#mebad872958" x="289.879742" y="157.21093" style="fill: #134a8e; stroke: #134a8e"/>
     <use xlink:href="#mebad872958" x="291.277738" y="157.15067" style="fill: #134a8e; stroke: #134a8e"/>
     <use xlink:href="#mebad872958" x="292.675733" y="156.093675" style="fill: #134a8e; stroke: #134a8e"/>
     <use xlink:href="#mebad872958" x="294.073729" y="154.64481" style="fill: #134a8e; stroke: #134a8e"/>
     <use xlink:href="#mebad872958" x="295.471725" y="148.467595" style="fill: #134a8e; stroke: #134a8e"/>
     <use xlink:href="#mebad872958" x="296.86972" y="148.367224" style="fill: #134a8e; stroke: #134a8e"/>
     <use xlink:href="#mebad872958" x="298.267716" y="148.738488" style="fill: #134a8e; stroke: #134a8e"/>
     <use xlink:href="#mebad872958" x="299.665712" y="147.428354" style="fill: #134a8e; stroke: #134a8e"/>
     <use xlink:href="#mebad872958" x="301.063707" y="147.52053" style="fill: #134a8e; stroke: #134a8e"/>
     <use xlink:href="#mebad872958" x="302.461703" y="145.636657" style="fill: #134a8e; stroke: #134a8e"/>
     <use xlink:href="#mebad872958" x="303.859699" y="145.835569" style="fill: #134a8e; stroke: #134a8e"/>
     <use xlink:href="#mebad872958" x="305.257695" y="145.820625" style="fill: #134a8e; stroke: #134a8e"/>
     <use xlink:href="#mebad872958" x="306.65569" y="145.710004" style="fill: #134a8e; stroke: #134a8e"/>
     <use xlink:href="#mebad872958" x="308.053686" y="134.421052" style="fill: #134a8e; stroke: #134a8e"/>
     <use xlink:href="#mebad872958" x="309.451682" y="131.561558" style="fill: #134a8e; stroke: #134a8e"/>
     <use xlink:href="#mebad872958" x="310.849677" y="131.168442" style="fill: #134a8e; stroke: #134a8e"/>
     <use xlink:href="#mebad872958" x="312.247673" y="119.382847" style="fill: #134a8e; stroke: #134a8e"/>
     <use xlink:href="#mebad872958" x="313.645669" y="117.684267" style="fill: #134a8e; stroke: #134a8e"/>
     <use xlink:href="#mebad872958" x="315.043665" y="118.046897" style="fill: #134a8e; stroke: #134a8e"/>
     <use xlink:href="#mebad872958" x="316.44166" y="117.746581" style="fill: #134a8e; stroke: #134a8e"/>
     <use xlink:href="#mebad872958" x="317.839656" y="118.453796" style="fill: #134a8e; stroke: #134a8e"/>
     <use xlink:href="#mebad872958" x="319.237652" y="115.563825" style="fill: #134a8e; stroke: #134a8e"/>
     <use xlink:href="#mebad872958" x="320.635647" y="117.868435" style="fill: #134a8e; stroke: #134a8e"/>
     <use xlink:href="#mebad872958" x="322.033643" y="119.382959" style="fill: #134a8e; stroke: #134a8e"/>
     <use xlink:href="#mebad872958" x="323.431639" y="118.961318" style="fill: #134a8e; stroke: #134a8e"/>
     <use xlink:href="#mebad872958" x="324.829634" y="118.89457" style="fill: #134a8e; stroke: #134a8e"/>
     <use xlink:href="#mebad872958" x="326.22763" y="117.213563" style="fill: #134a8e; stroke: #134a8e"/>
     <use xlink:href="#mebad872958" x="327.625626" y="118.777555" style="fill: #134a8e; stroke: #134a8e"/>
     <use xlink:href="#mebad872958" x="329.023622" y="118.845" style="fill: #134a8e; stroke: #134a8e"/>
     <use xlink:href="#mebad872958" x="330.421617" y="119.603334" style="fill: #134a8e; stroke: #134a8e"/>
     <use xlink:href="#mebad872958" x="331.819613" y="133.321896" style="fill: #134a8e; stroke: #134a8e"/>
     <use xlink:href="#mebad872958" x="333.217609" y="132.646559" style="fill: #134a8e; stroke: #134a8e"/>
     <use xlink:href="#mebad872958" x="334.615604" y="134.076765" style="fill: #134a8e; stroke: #134a8e"/>
     <use xlink:href="#mebad872958" x="336.0136" y="133.408249" style="fill: #134a8e; stroke: #134a8e"/>
     <use xlink:href="#mebad872958" x="337.411596" y="154.978624" style="fill: #134a8e; stroke: #134a8e"/>
     <use xlink:href="#mebad872958" x="338.809592" y="145.74775" style="fill: #134a8e; stroke: #134a8e"/>
     <use xlink:href="#mebad872958" x="340.207587" y="147.814028" style="fill: #134a8e; stroke: #134a8e"/>
     <use xlink:href="#mebad872958" x="341.605583" y="148.061444" style="fill: #134a8e; stroke: #134a8e"/>
     <use xlink:href="#mebad872958" x="343.003579" y="147.608032" style="fill: #134a8e; stroke: #134a8e"/>
     <use xlink:href="#mebad872958" x="344.401574" y="147.477255" style="fill: #134a8e; stroke: #134a8e"/>
     <use xlink:href="#mebad872958" x="345.79957" y="154.660458" style="fill: #134a8e; stroke: #134a8e"/>
     <use xlink:href="#mebad872958" x="347.197566" y="147.386299" style="fill: #134a8e; stroke: #134a8e"/>
     <use xlink:href="#mebad872958" x="348.595561" y="144.843687" style="fill: #134a8e; stroke: #134a8e"/>
     <use xlink:href="#mebad872958" x="349.993557" y="143.011177" style="fill: #134a8e; stroke: #134a8e"/>
     <use xlink:href="#mebad872958" x="351.391553" y="143.201887" style="fill: #134a8e; stroke: #134a8e"/>
     <use xlink:href="#mebad872958" x="352.789549" y="142.504295" style="fill: #134a8e; stroke: #134a8e"/>
     <use xlink:href="#mebad872958" x="354.187544" y="110.921618" style="fill: #134a8e; stroke: #134a8e"/>
     <use xlink:href="#mebad872958" x="355.58554" y="128.371236" style="fill: #134a8e; stroke: #134a8e"/>
     <use xlink:href="#mebad872958" x="356.983536" y="113.040488" style="fill: #134a8e; stroke: #134a8e"/>
     <use xlink:href="#mebad872958" x="358.381531" y="46.218476" style="fill: #134a8e; stroke: #134a8e"/>
     <use xlink:href="#mebad872958" x="359.779527" y="42.765004" style="fill: #134a8e; stroke: #134a8e"/>
     <use xlink:href="#mebad872958" x="361.177523" y="39.659866" style="fill: #134a8e; stroke: #134a8e"/>
     <use xlink:href="#mebad872958" x="362.575519" y="34.567733" style="fill: #134a8e; stroke: #134a8e"/>
     <use xlink:href="#mebad872958" x="363.973514" y="36.404499" style="fill: #134a8e; stroke: #134a8e"/>
     <use xlink:href="#mebad872958" x="365.37151" y="33.134084" style="fill: #134a8e; stroke: #134a8e"/>
     <use xlink:href="#mebad872958" x="366.769506" y="30.964614" style="fill: #134a8e; stroke: #134a8e"/>
     <use xlink:href="#mebad872958" x="368.167501" y="32.059873" style="fill: #134a8e; stroke: #134a8e"/>
     <use xlink:href="#mebad872958" x="369.565497" y="28.398311" style="fill: #134a8e; stroke: #134a8e"/>
     <use xlink:href="#mebad872958" x="370.963493" y="33.296463" style="fill: #134a8e; stroke: #134a8e"/>
     <use xlink:href="#mebad872958" x="372.361488" y="29.100731" style="fill: #134a8e; stroke: #134a8e"/>
     <use xlink:href="#mebad872958" x="373.759484" y="27.84784" style="fill: #134a8e; stroke: #134a8e"/>
     <use xlink:href="#mebad872958" x="375.15748" y="26.482372" style="fill: #134a8e; stroke: #134a8e"/>
     <use xlink:href="#mebad872958" x="376.555476" y="26.453883" style="fill: #134a8e; stroke: #134a8e"/>
     <use xlink:href="#mebad872958" x="377.953471" y="34.633105" style="fill: #134a8e; stroke: #134a8e"/>
     <use xlink:href="#mebad872958" x="379.351467" y="36.94489" style="fill: #134a8e; stroke: #134a8e"/>
     <use xlink:href="#mebad872958" x="380.749463" y="32.480732" style="fill: #134a8e; stroke: #134a8e"/>
     <use xlink:href="#mebad872958" x="382.147458" y="34.894669" style="fill: #134a8e; stroke: #134a8e"/>
     <use xlink:href="#mebad872958" x="383.545454" y="68.395439" style="fill: #134a8e; stroke: #134a8e"/>
     <use xlink:href="#mebad872958" x="384.94345" y="68.072025" style="fill: #134a8e; stroke: #134a8e"/>
     <use xlink:href="#mebad872958" x="386.341446" y="64.446507" style="fill: #134a8e; stroke: #134a8e"/>
     <use xlink:href="#mebad872958" x="387.739441" y="65.773964" style="fill: #134a8e; stroke: #134a8e"/>
     <use xlink:href="#mebad872958" x="389.137437" y="64.995245" style="fill: #134a8e; stroke: #134a8e"/>
     <use xlink:href="#mebad872958" x="390.535433" y="72.790138" style="fill: #134a8e; stroke: #134a8e"/>
     <use xlink:href="#mebad872958" x="391.933428" y="73.042531" style="fill: #134a8e; stroke: #134a8e"/>
     <use xlink:href="#mebad872958" x="393.331424" y="107.707316" style="fill: #134a8e; stroke: #134a8e"/>
     <use xlink:href="#mebad872958" x="394.72942" y="106.74009" style="fill: #134a8e; stroke: #134a8e"/>
     <use xlink:href="#mebad872958" x="396.127415" y="109.031326" style="fill: #134a8e; stroke: #134a8e"/>
     <use xlink:href="#mebad872958" x="397.525411" y="113.751762" style="fill: #134a8e; stroke: #134a8e"/>
     <use xlink:href="#mebad872958" x="398.923407" y="127.497583" style="fill: #134a8e; stroke: #134a8e"/>
     <use xlink:href="#mebad872958" x="400.321403" y="127.821223" style="fill: #134a8e; stroke: #134a8e"/>
     <use xlink:href="#mebad872958" x="401.719398" y="127.602747" style="fill: #134a8e; stroke: #134a8e"/>
     <use xlink:href="#mebad872958" x="403.117394" y="132.474257" style="fill: #134a8e; stroke: #134a8e"/>
     <use xlink:href="#mebad872958" x="404.51539" y="137.037716" style="fill: #134a8e; stroke: #134a8e"/>
     <use xlink:href="#mebad872958" x="405.913385" y="136.750127" style="fill: #134a8e; stroke: #134a8e"/>
     <use xlink:href="#mebad872958" x="407.311381" y="138.754736" style="fill: #134a8e; stroke: #134a8e"/>
     <use xlink:href="#mebad872958" x="408.709377" y="139.202505" style="fill: #134a8e; stroke: #134a8e"/>
     <use xlink:href="#mebad872958" x="410.107372" y="139.861675" style="fill: #134a8e; stroke: #134a8e"/>
     <use xlink:href="#mebad872958" x="411.505368" y="138.937657" style="fill: #134a8e; stroke: #134a8e"/>
     <use xlink:href="#mebad872958" x="412.903364" y="140.347525" style="fill: #134a8e; stroke: #134a8e"/>
     <use xlink:href="#mebad872958" x="414.30136" y="150.925777" style="fill: #134a8e; stroke: #134a8e"/>
     <use xlink:href="#mebad872958" x="415.699355" y="140.999136" style="fill: #134a8e; stroke: #134a8e"/>
     <use xlink:href="#mebad872958" x="417.097351" y="152.068716" style="fill: #134a8e; stroke: #134a8e"/>
     <use xlink:href="#mebad872958" x="418.495347" y="152.152716" style="fill: #134a8e; stroke: #134a8e"/>
     <use xlink:href="#mebad872958" x="419.893342" y="152.14905" style="fill: #134a8e; stroke: #134a8e"/>
     <use xlink:href="#mebad872958" x="421.291338" y="152.346566" style="fill: #134a8e; stroke: #134a8e"/>
     <use xlink:href="#mebad872958" x="422.689334" y="151.008196" style="fill: #134a8e; stroke: #134a8e"/>
     <use xlink:href="#mebad872958" x="424.08733" y="151.255192" style="fill: #134a8e; stroke: #134a8e"/>
    </g>
   </g>
   <g id="line2d_24">
    <path d="M 68.99642 142.361648 
L 70.394416 142.433698 
L 71.792412 146.912504 
L 73.190408 146.024092 
L 74.588403 146.236218 
L 75.986399 146.190874 
L 77.384395 141.284819 
L 78.78239 141.325508 
L 81.578382 140.723039 
L 82.976378 135.664102 
L 84.374373 135.277761 
L 85.772369 138.956812 
L 87.170365 140.533959 
L 88.56836 145.919619 
L 89.966356 146.30123 
L 91.364352 146.378865 
L 92.762347 147.04107 
L 95.558339 146.511202 
L 96.956335 150.68163 
L 98.35433 151.411041 
L 99.752326 151.379383 
L 101.150322 151.490245 
L 102.548317 156.354685 
L 103.946313 156.436437 
L 105.344309 156.788201 
L 108.1403 156.228576 
L 109.538296 156.340522 
L 112.334287 156.157439 
L 113.732283 151.090811 
L 115.130279 146.627532 
L 116.528274 147.487265 
L 117.92627 145.921641 
L 119.324266 147.009513 
L 120.722262 146.835587 
L 122.120257 151.728021 
L 123.518253 147.188349 
L 124.916249 142.234056 
L 126.314244 141.889146 
L 127.71224 141.799159 
L 130.508231 142.290001 
L 131.906227 132.259452 
L 133.304223 137.0832 
L 134.702219 136.655731 
L 136.100214 136.941415 
L 137.49821 132.496052 
L 138.896206 132.394154 
L 140.294201 133.872137 
L 141.692197 129.949341 
L 144.488189 139.361292 
L 145.886184 136.20424 
L 147.28418 119.75256 
L 148.682176 115.701921 
L 150.080171 117.214504 
L 151.478167 126.301761 
L 152.876163 127.189694 
L 154.274158 131.488833 
L 155.672154 132.732305 
L 157.07015 136.125953 
L 158.468146 136.886739 
L 159.866141 137.050063 
L 161.264137 141.202641 
L 162.662133 136.540644 
L 164.060128 134.931267 
L 165.458124 118.854291 
L 166.85612 118.962666 
L 168.254116 124.161602 
L 169.652111 125.344969 
L 171.050107 121.998853 
L 172.448103 121.015343 
L 173.846098 122.113724 
L 175.244094 125.008361 
L 176.64209 114.557459 
L 178.040085 112.045429 
L 179.438081 112.503762 
L 180.836077 108.182347 
L 182.234073 105.907054 
L 183.632068 106.118817 
L 185.030064 116.56382 
L 186.42806 118.352147 
L 187.826055 122.659151 
L 189.224051 121.847032 
L 190.622047 123.645398 
L 192.020043 126.4767 
L 193.418038 126.032278 
L 194.816034 123.798126 
L 196.21403 125.148366 
L 197.612025 127.144433 
L 199.010021 127.572766 
L 200.408017 121.806489 
L 201.806012 125.920081 
L 203.204008 119.554857 
L 204.602004 115.814136 
L 206 114.778431 
L 207.397995 112.799576 
L 208.795991 116.856951 
L 210.193987 113.592962 
L 211.591982 103.865685 
L 212.989978 100.337848 
L 214.387974 95.189043 
L 215.785969 89.058885 
L 217.183965 93.997051 
L 218.581961 92.841503 
L 219.979957 92.450297 
L 221.377952 80.523395 
L 222.775948 91.772578 
L 224.173944 96.250547 
L 225.571939 96.58648 
L 226.969935 99.719104 
L 228.367931 97.286439 
L 229.765927 98.114345 
L 231.163922 104.638845 
L 232.561918 106.462119 
L 233.959914 107.979159 
L 235.357909 115.134726 
L 236.755905 111.362557 
L 238.153901 112.728049 
L 239.551896 115.839742 
L 240.949892 123.042688 
L 242.347888 119.664147 
L 243.745884 120.520417 
L 245.143879 122.184757 
L 246.541875 116.112767 
L 247.939871 116.326897 
L 249.337866 118.938344 
L 250.735862 122.496632 
L 253.531854 127.560183 
L 254.929849 128.209313 
L 257.725841 129.747983 
L 259.123836 124.822497 
L 260.521832 123.615966 
L 261.919828 124.571396 
L 263.317823 125.350553 
L 264.715819 124.392492 
L 266.113815 130.035257 
L 267.511811 129.749774 
L 268.909806 130.368617 
L 270.307802 124.268355 
L 271.705798 123.244393 
L 273.103793 134.279056 
L 274.501789 134.208074 
L 275.899785 136.340565 
L 277.297781 136.258307 
L 278.695776 147.847618 
L 280.093772 150.872626 
L 281.491768 148.993497 
L 282.889763 147.890827 
L 284.287759 149.825359 
L 285.685755 150.360464 
L 287.08375 152.991132 
L 288.481746 156.574526 
L 289.879742 158.592387 
L 291.277738 158.76 
L 292.675733 157.51362 
L 294.073729 156.568057 
L 295.471725 154.456186 
L 296.86972 155.179561 
L 298.267716 153.959092 
L 299.665712 152.528587 
L 301.063707 152.289794 
L 302.461703 150.839949 
L 303.859699 150.800078 
L 305.257695 150.08885 
L 306.65569 148.519692 
L 308.053686 141.691942 
L 309.451682 138.523567 
L 310.849677 137.796951 
L 312.247673 130.37184 
L 313.645669 128.818538 
L 315.043665 129.188806 
L 316.44166 128.897517 
L 317.839656 120.575113 
L 319.237652 120.793198 
L 322.033643 125.238887 
L 323.431639 124.971954 
L 324.829634 123.417939 
L 326.22763 120.075575 
L 327.625626 123.918407 
L 329.023622 126.238642 
L 330.421617 125.17622 
L 331.819613 134.831708 
L 333.217609 139.143047 
L 334.615604 139.992207 
L 336.0136 139.755745 
L 337.411596 156.358834 
L 338.809592 150.97167 
L 340.207587 153.452603 
L 341.605583 153.299867 
L 344.401574 153.160482 
L 345.79957 155.906892 
L 347.197566 153.506741 
L 349.993557 143.197778 
L 351.391553 143.686739 
L 352.789549 143.683836 
L 354.187544 122.280877 
L 355.58554 130.883391 
L 356.983536 125.095188 
L 358.381531 68.946171 
L 359.779527 61.376577 
L 361.177523 65.953549 
L 362.575519 65.678578 
L 363.973514 57.986762 
L 365.37151 56.188815 
L 366.769506 49.852546 
L 368.167501 53.894684 
L 369.565497 52.293293 
L 370.963493 55.355667 
L 372.361488 55.181721 
L 373.759484 40.95729 
L 375.15748 37.505754 
L 376.555476 37.892363 
L 377.953471 68.744885 
L 379.351467 63.702705 
L 380.749463 67.625323 
L 382.147458 67.723144 
L 383.545454 70.948947 
L 384.94345 74.789618 
L 386.341446 82.934556 
L 387.739441 84.898569 
L 389.137437 90.235704 
L 390.535433 94.209052 
L 391.933428 94.355392 
L 393.331424 116.698416 
L 394.72942 114.264209 
L 396.127415 122.218099 
L 397.525411 124.831611 
L 398.923407 132.113528 
L 400.321403 134.201084 
L 401.719398 134.207507 
L 403.117394 139.336861 
L 404.51539 141.748722 
L 405.913385 143.186344 
L 407.311381 145.996067 
L 408.709377 148.237104 
L 410.107372 148.506893 
L 411.505368 148.533433 
L 412.903364 148.291822 
L 414.30136 152.448741 
L 415.699355 151.309034 
L 417.097351 154.238492 
L 418.495347 154.450715 
L 419.893342 154.231781 
L 421.291338 155.247297 
L 422.689334 152.801863 
L 424.08733 152.788057 
L 424.08733 152.788057 
" clip-path="url(#p7281e00d1d)" style="fill: none; stroke-dasharray: 5.55,2.4; stroke-dashoffset: 0; stroke: #000000; stroke-width: 1.5"/>
   </g>
   <g id="patch_3">
    <path d="M 51.241875 166.32 
L 51.241875 0 
" style="fill: none; stroke: #ffffff; stroke-linejoin: miter; stroke-linecap: square"/>
   </g>
   <g id="patch_4">
    <path d="M 441.841875 166.32 
L 441.841875 0 
" style="fill: none; stroke: #ffffff; stroke-linejoin: miter; stroke-linecap: square"/>
   </g>
   <g id="patch_5">
    <path d="M 51.241875 166.32 
L 441.841875 166.32 
" style="fill: none; stroke: #ffffff; stroke-linejoin: miter; stroke-linecap: square"/>
   </g>
   <g id="patch_6">
    <path d="M 51.241875 -0 
L 441.841875 -0 
" style="fill: none; stroke: #ffffff; stroke-linejoin: miter; stroke-linecap: square"/>
   </g>
   <g id="legend_1">
    <g id="patch_7">
     <path d="M 58.241875 60.378125 
L 210.28875 60.378125 
Q 212.28875 60.378125 212.28875 58.378125 
L 212.28875 7 
Q 212.28875 5 210.28875 5 
L 58.241875 5 
Q 56.241875 5 56.241875 7 
L 56.241875 58.378125 
Q 56.241875 60.378125 58.241875 60.378125 
z
" style="fill: #e5e5e5; opacity: 0.8; stroke: #cccccc; stroke-width: 0.5; stroke-linejoin: miter"/>
    </g>
    <g id="line2d_25">
     <path d="M 60.241875 15.5 
L 70.241875 15.5 
L 80.241875 15.5 
" style="fill: none; stroke: #134a8e; stroke-width: 3; stroke-linecap: square"/>
     <g>
      <use xlink:href="#mebad872958" x="70.241875" y="15.5" style="fill: #134a8e; stroke: #134a8e"/>
     </g>
    </g>
    <g id="text_14">
     <!-- Private Value $\tilde{R}_{\chi_1,\chi_3}^t$ -->
     <g transform="translate(88.241875 19) scale(0.1 -0.1)">
      <defs>
       <path id="DejaVuSans-50" d="M 1259 4147 
L 1259 2394 
L 2053 2394 
Q 2494 2394 2734 2622 
Q 2975 2850 2975 3272 
Q 2975 3691 2734 3919 
Q 2494 4147 2053 4147 
L 1259 4147 
z
M 628 4666 
L 2053 4666 
Q 2838 4666 3239 4311 
Q 3641 3956 3641 3272 
Q 3641 2581 3239 2228 
Q 2838 1875 2053 1875 
L 1259 1875 
L 1259 0 
L 628 0 
L 628 4666 
z
" transform="scale(0.015625)"/>
       <path id="DejaVuSans-72" d="M 2631 2963 
Q 2534 3019 2420 3045 
Q 2306 3072 2169 3072 
Q 1681 3072 1420 2755 
Q 1159 2438 1159 1844 
L 1159 0 
L 581 0 
L 581 3500 
L 1159 3500 
L 1159 2956 
Q 1341 3275 1631 3429 
Q 1922 3584 2338 3584 
Q 2397 3584 2469 3576 
Q 2541 3569 2628 3553 
L 2631 2963 
z
" transform="scale(0.015625)"/>
       <path id="DejaVuSans-69" d="M 603 3500 
L 1178 3500 
L 1178 0 
L 603 0 
L 603 3500 
z
M 603 4863 
L 1178 4863 
L 1178 4134 
L 603 4134 
L 603 4863 
z
" transform="scale(0.015625)"/>
       <path id="DejaVuSans-76" d="M 191 3500 
L 800 3500 
L 1894 563 
L 2988 3500 
L 3597 3500 
L 2284 0 
L 1503 0 
L 191 3500 
z
" transform="scale(0.015625)"/>
       <path id="DejaVuSans-20" transform="scale(0.015625)"/>
       <path id="DejaVuSans-303" d="M -1621 4281 
L -1799 4453 
Q -1867 4516 -1919 4545 
Q -1971 4575 -2011 4575 
Q -2130 4575 -2186 4461 
Q -2242 4347 -2249 4091 
L -2639 4091 
Q -2633 4513 -2473 4742 
Q -2314 4972 -2030 4972 
Q -1911 4972 -1811 4928 
Q -1711 4884 -1596 4781 
L -1417 4609 
Q -1349 4547 -1297 4517 
Q -1246 4488 -1205 4488 
Q -1086 4488 -1030 4602 
Q -974 4716 -967 4972 
L -577 4972 
Q -583 4550 -742 4320 
Q -902 4091 -1186 4091 
Q -1305 4091 -1405 4134 
Q -1505 4178 -1621 4281 
z
" transform="scale(0.015625)"/>
       <path id="DejaVuSans-Oblique-52" d="M 1613 4147 
L 1294 2491 
L 2106 2491 
Q 2584 2491 2879 2755 
Q 3175 3019 3175 3444 
Q 3175 3784 2976 3965 
Q 2778 4147 2406 4147 
L 1613 4147 
z
M 2772 2241 
Q 2972 2194 3105 2009 
Q 3238 1825 3413 1275 
L 3809 0 
L 3144 0 
L 2778 1197 
Q 2638 1659 2453 1815 
Q 2269 1972 1888 1972 
L 1191 1972 
L 806 0 
L 172 0 
L 1081 4666 
L 2503 4666 
Q 3150 4666 3495 4373 
Q 3841 4081 3841 3531 
Q 3841 3044 3547 2687 
Q 3253 2331 2772 2241 
z
" transform="scale(0.015625)"/>
       <path id="DejaVuSans-Oblique-74" d="M 2706 3500 
L 2619 3053 
L 1472 3053 
L 1100 1153 
Q 1081 1047 1072 975 
Q 1063 903 1063 863 
Q 1063 663 1183 572 
Q 1303 481 1569 481 
L 2150 481 
L 2053 0 
L 1503 0 
Q 991 0 739 200 
Q 488 400 488 806 
Q 488 878 497 964 
Q 506 1050 525 1153 
L 897 3053 
L 409 3053 
L 500 3500 
L 978 3500 
L 1172 4494 
L 1747 4494 
L 1556 3500 
L 2706 3500 
z
" transform="scale(0.015625)"/>
       <path id="DejaVuSans-Oblique-3c7" d="M 1922 -781 
L 1691 416 
L 394 -1334 
L -284 -1334 
L 1553 1141 
L 1269 2613 
Q 1194 3006 713 3006 
L 559 3006 
L 653 3500 
L 872 3494 
Q 1675 3472 1775 2950 
L 2006 1753 
L 3303 3503 
L 3981 3503 
L 2144 1028 
L 2428 -444 
Q 2503 -838 2984 -838 
L 3138 -838 
L 3044 -1331 
L 2825 -1325 
Q 2022 -1303 1922 -781 
z
" transform="scale(0.015625)"/>
       <path id="DejaVuSans-2c" d="M 750 794 
L 1409 794 
L 1409 256 
L 897 -744 
L 494 -744 
L 750 256 
L 750 794 
z
" transform="scale(0.015625)"/>
      </defs>
      <use xlink:href="#DejaVuSans-50" transform="translate(0 0.828125)"/>
      <use xlink:href="#DejaVuSans-72" transform="translate(60.302734 0.828125)"/>
      <use xlink:href="#DejaVuSans-69" transform="translate(101.416016 0.828125)"/>
      <use xlink:href="#DejaVuSans-76" transform="translate(129.199219 0.828125)"/>
      <use xlink:href="#DejaVuSans-61" transform="translate(188.378906 0.828125)"/>
      <use xlink:href="#DejaVuSans-74" transform="translate(249.658203 0.828125)"/>
      <use xlink:href="#DejaVuSans-65" transform="translate(288.867188 0.828125)"/>
      <use xlink:href="#DejaVuSans-20" transform="translate(350.390625 0.828125)"/>
      <use xlink:href="#DejaVuSans-56" transform="translate(382.177734 0.828125)"/>
      <use xlink:href="#DejaVuSans-61" transform="translate(450.585938 0.828125)"/>
      <use xlink:href="#DejaVuSans-6c" transform="translate(511.865234 0.828125)"/>
      <use xlink:href="#DejaVuSans-75" transform="translate(539.648438 0.828125)"/>
      <use xlink:href="#DejaVuSans-65" transform="translate(603.027344 0.828125)"/>
      <use xlink:href="#DejaVuSans-20" transform="translate(664.550781 0.828125)"/>
      <use xlink:href="#DejaVuSans-303" transform="translate(764.942871 22.3125)"/>
      <use xlink:href="#DejaVuSans-Oblique-52" transform="translate(696.337891 0.828125)"/>
      <use xlink:href="#DejaVuSans-Oblique-74" transform="translate(766.777344 39.109375) scale(0.7)"/>
      <use xlink:href="#DejaVuSans-Oblique-3c7" transform="translate(766.777344 -26.515625) scale(0.7)"/>
      <use xlink:href="#DejaVuSans-31" transform="translate(808.203125 -38) scale(0.49)"/>
      <use xlink:href="#DejaVuSans-2c" transform="translate(841.29248 -26.515625) scale(0.7)"/>
      <use xlink:href="#DejaVuSans-Oblique-3c7" transform="translate(877.181152 -26.515625) scale(0.7)"/>
      <use xlink:href="#DejaVuSans-33" transform="translate(918.606934 -38) scale(0.49)"/>
     </g>
    </g>
    <g id="line2d_26">
     <path d="M 60.241875 34 
L 70.241875 34 
L 80.241875 34 
" style="fill: none; stroke-dasharray: 5.55,2.4; stroke-dashoffset: 0; stroke: #000000; stroke-width: 1.5"/>
    </g>
    <g id="text_15">
     <!-- Original Value $\bar{R}_{\chi_1,\chi_3}^t$ -->
     <g transform="translate(88.241875 37.5) scale(0.1 -0.1)">
      <defs>
       <path id="DejaVuSans-4f" d="M 2522 4238 
Q 1834 4238 1429 3725 
Q 1025 3213 1025 2328 
Q 1025 1447 1429 934 
Q 1834 422 2522 422 
Q 3209 422 3611 934 
Q 4013 1447 4013 2328 
Q 4013 3213 3611 3725 
Q 3209 4238 2522 4238 
z
M 2522 4750 
Q 3503 4750 4090 4092 
Q 4678 3434 4678 2328 
Q 4678 1225 4090 567 
Q 3503 -91 2522 -91 
Q 1538 -91 948 565 
Q 359 1222 359 2328 
Q 359 3434 948 4092 
Q 1538 4750 2522 4750 
z
" transform="scale(0.015625)"/>
       <path id="DejaVuSans-67" d="M 2906 1791 
Q 2906 2416 2648 2759 
Q 2391 3103 1925 3103 
Q 1463 3103 1205 2759 
Q 947 2416 947 1791 
Q 947 1169 1205 825 
Q 1463 481 1925 481 
Q 2391 481 2648 825 
Q 2906 1169 2906 1791 
z
M 3481 434 
Q 3481 -459 3084 -895 
Q 2688 -1331 1869 -1331 
Q 1566 -1331 1297 -1286 
Q 1028 -1241 775 -1147 
L 775 -588 
Q 1028 -725 1275 -790 
Q 1522 -856 1778 -856 
Q 2344 -856 2625 -561 
Q 2906 -266 2906 331 
L 2906 616 
Q 2728 306 2450 153 
Q 2172 0 1784 0 
Q 1141 0 747 490 
Q 353 981 353 1791 
Q 353 2603 747 3093 
Q 1141 3584 1784 3584 
Q 2172 3584 2450 3431 
Q 2728 3278 2906 2969 
L 2906 3500 
L 3481 3500 
L 3481 434 
z
" transform="scale(0.015625)"/>
       <path id="DejaVuSans-6e" d="M 3513 2113 
L 3513 0 
L 2938 0 
L 2938 2094 
Q 2938 2591 2744 2837 
Q 2550 3084 2163 3084 
Q 1697 3084 1428 2787 
Q 1159 2491 1159 1978 
L 1159 0 
L 581 0 
L 581 3500 
L 1159 3500 
L 1159 2956 
Q 1366 3272 1645 3428 
Q 1925 3584 2291 3584 
Q 2894 3584 3203 3211 
Q 3513 2838 3513 2113 
z
" transform="scale(0.015625)"/>
       <path id="DejaVuSans-304" d="M -2518 4769 
L -650 4769 
L -650 4306 
L -2518 4306 
L -2518 4769 
z
" transform="scale(0.015625)"/>
      </defs>
      <use xlink:href="#DejaVuSans-4f" transform="translate(0 0.359375)"/>
      <use xlink:href="#DejaVuSans-72" transform="translate(78.710938 0.359375)"/>
      <use xlink:href="#DejaVuSans-69" transform="translate(119.824219 0.359375)"/>
      <use xlink:href="#DejaVuSans-67" transform="translate(147.607422 0.359375)"/>
      <use xlink:href="#DejaVuSans-69" transform="translate(211.083984 0.359375)"/>
      <use xlink:href="#DejaVuSans-6e" transform="translate(238.867188 0.359375)"/>
      <use xlink:href="#DejaVuSans-61" transform="translate(302.246094 0.359375)"/>
      <use xlink:href="#DejaVuSans-6c" transform="translate(363.525391 0.359375)"/>
      <use xlink:href="#DejaVuSans-20" transform="translate(391.308594 0.359375)"/>
      <use xlink:href="#DejaVuSans-56" transform="translate(423.095703 0.359375)"/>
      <use xlink:href="#DejaVuSans-61" transform="translate(491.503906 0.359375)"/>
      <use xlink:href="#DejaVuSans-6c" transform="translate(552.783203 0.359375)"/>
      <use xlink:href="#DejaVuSans-75" transform="translate(580.566406 0.359375)"/>
      <use xlink:href="#DejaVuSans-65" transform="translate(643.945312 0.359375)"/>
      <use xlink:href="#DejaVuSans-20" transform="translate(705.46875 0.359375)"/>
      <use xlink:href="#DejaVuSans-304" transform="translate(804.970215 18.484375)"/>
      <use xlink:href="#DejaVuSans-Oblique-52" transform="translate(737.255859 0.359375)"/>
      <use xlink:href="#DejaVuSans-Oblique-74" transform="translate(807.695312 38.640625) scale(0.7)"/>
      <use xlink:href="#DejaVuSans-Oblique-3c7" transform="translate(807.695312 -26.984375) scale(0.7)"/>
      <use xlink:href="#DejaVuSans-31" transform="translate(849.121094 -38.46875) scale(0.49)"/>
      <use xlink:href="#DejaVuSans-2c" transform="translate(882.210449 -26.984375) scale(0.7)"/>
      <use xlink:href="#DejaVuSans-Oblique-3c7" transform="translate(918.099121 -26.984375) scale(0.7)"/>
      <use xlink:href="#DejaVuSans-33" transform="translate(959.524902 -38.46875) scale(0.49)"/>
     </g>
    </g>
    <g id="patch_8">
     <path d="M 60.241875 54.298437 
L 80.241875 54.298437 
L 80.241875 47.298437 
L 60.241875 47.298437 
z
" style="fill: #134a8e; fill-opacity: 0.5; stroke: #134a8e; stroke-opacity: 0.5; stroke-width: 0.5; stroke-linejoin: miter"/>
    </g>
    <g id="text_16">
     <!-- One Standard Deviation -->
     <g transform="translate(88.241875 54.298437) scale(0.1 -0.1)">
      <defs>
       <path id="DejaVuSans-53" d="M 3425 4513 
L 3425 3897 
Q 3066 4069 2747 4153 
Q 2428 4238 2131 4238 
Q 1616 4238 1336 4038 
Q 1056 3838 1056 3469 
Q 1056 3159 1242 3001 
Q 1428 2844 1947 2747 
L 2328 2669 
Q 3034 2534 3370 2195 
Q 3706 1856 3706 1288 
Q 3706 609 3251 259 
Q 2797 -91 1919 -91 
Q 1588 -91 1214 -16 
Q 841 59 441 206 
L 441 856 
Q 825 641 1194 531 
Q 1563 422 1919 422 
Q 2459 422 2753 634 
Q 3047 847 3047 1241 
Q 3047 1584 2836 1778 
Q 2625 1972 2144 2069 
L 1759 2144 
Q 1053 2284 737 2584 
Q 422 2884 422 3419 
Q 422 4038 858 4394 
Q 1294 4750 2059 4750 
Q 2388 4750 2728 4690 
Q 3069 4631 3425 4513 
z
" transform="scale(0.015625)"/>
       <path id="DejaVuSans-64" d="M 2906 2969 
L 2906 4863 
L 3481 4863 
L 3481 0 
L 2906 0 
L 2906 525 
Q 2725 213 2448 61 
Q 2172 -91 1784 -91 
Q 1150 -91 751 415 
Q 353 922 353 1747 
Q 353 2572 751 3078 
Q 1150 3584 1784 3584 
Q 2172 3584 2448 3432 
Q 2725 3281 2906 2969 
z
M 947 1747 
Q 947 1113 1208 752 
Q 1469 391 1925 391 
Q 2381 391 2643 752 
Q 2906 1113 2906 1747 
Q 2906 2381 2643 2742 
Q 2381 3103 1925 3103 
Q 1469 3103 1208 2742 
Q 947 2381 947 1747 
z
" transform="scale(0.015625)"/>
       <path id="DejaVuSans-6f" d="M 1959 3097 
Q 1497 3097 1228 2736 
Q 959 2375 959 1747 
Q 959 1119 1226 758 
Q 1494 397 1959 397 
Q 2419 397 2687 759 
Q 2956 1122 2956 1747 
Q 2956 2369 2687 2733 
Q 2419 3097 1959 3097 
z
M 1959 3584 
Q 2709 3584 3137 3096 
Q 3566 2609 3566 1747 
Q 3566 888 3137 398 
Q 2709 -91 1959 -91 
Q 1206 -91 779 398 
Q 353 888 353 1747 
Q 353 2609 779 3096 
Q 1206 3584 1959 3584 
z
" transform="scale(0.015625)"/>
      </defs>
      <use xlink:href="#DejaVuSans-4f"/>
      <use xlink:href="#DejaVuSans-6e" x="78.710938"/>
      <use xlink:href="#DejaVuSans-65" x="142.089844"/>
      <use xlink:href="#DejaVuSans-20" x="203.613281"/>
      <use xlink:href="#DejaVuSans-53" x="235.400391"/>
      <use xlink:href="#DejaVuSans-74" x="298.876953"/>
      <use xlink:href="#DejaVuSans-61" x="338.085938"/>
      <use xlink:href="#DejaVuSans-6e" x="399.365234"/>
      <use xlink:href="#DejaVuSans-64" x="462.744141"/>
      <use xlink:href="#DejaVuSans-61" x="526.220703"/>
      <use xlink:href="#DejaVuSans-72" x="587.5"/>
      <use xlink:href="#DejaVuSans-64" x="626.863281"/>
      <use xlink:href="#DejaVuSans-20" x="690.339844"/>
      <use xlink:href="#DejaVuSans-44" x="722.126953"/>
      <use xlink:href="#DejaVuSans-65" x="799.128906"/>
      <use xlink:href="#DejaVuSans-76" x="860.652344"/>
      <use xlink:href="#DejaVuSans-69" x="919.832031"/>
      <use xlink:href="#DejaVuSans-61" x="947.615234"/>
      <use xlink:href="#DejaVuSans-74" x="1008.894531"/>
      <use xlink:href="#DejaVuSans-69" x="1048.103516"/>
      <use xlink:href="#DejaVuSans-6f" x="1075.886719"/>
      <use xlink:href="#DejaVuSans-6e" x="1137.068359"/>
     </g>
    </g>
   </g>
  </g>
 </g>
 <defs>
  <clipPath id="p7281e00d1d">
   <rect x="51.241875" y="-0" width="390.6" height="166.32"/>
  </clipPath>
 </defs>
</svg>
