<?xml version="1.0" encoding="utf-8" standalone="no"?>
<!DOCTYPE svg PUBLIC "-//W3C//DTD SVG 1.1//EN"
  "http://www.w3.org/Graphics/SVG/1.1/DTD/svg11.dtd">
<svg xmlns:xlink="http://www.w3.org/1999/xlink" width="450.737567pt" height="198.611875pt" viewBox="0 0 450.737567 198.611875" xmlns="http://www.w3.org/2000/svg" version="1.1">
 <metadata>
  <rdf:RDF xmlns:dc="http://purl.org/dc/elements/1.1/" xmlns:cc="http://creativecommons.org/ns#" xmlns:rdf="http://www.w3.org/1999/02/22-rdf-syntax-ns#">
   <cc:Work>
    <dc:type rdf:resource="http://purl.org/dc/dcmitype/StillImage"/>
    <dc:date>2024-09-18T15:47:46.968267</dc:date>
    <dc:format>image/svg+xml</dc:format>
    <dc:creator>
     <cc:Agent>
      <dc:title>Matplotlib v3.7.5, https://matplotlib.org/</dc:title>
     </cc:Agent>
    </dc:creator>
   </cc:Work>
  </rdf:RDF>
 </metadata>
 <defs>
  <style type="text/css">*{stroke-linejoin: round; stroke-linecap: butt}</style>
 </defs>
 <g id="figure_1">
  <g id="patch_1">
   <path d="M 0 198.611875 
L 450.737567 198.611875 
L 450.737567 0 
L 0 0 
z
" style="fill: #ffffff"/>
  </g>
  <g id="axes_1">
   <g id="patch_2">
    <path d="M 51.241875 166.32 
L 441.841875 166.32 
L 441.841875 0 
L 51.241875 0 
z
" style="fill: #e5e5e5"/>
   </g>
   <g id="matplotlib.axis_1">
    <g id="xtick_1">
     <g id="line2d_1">
      <path d="M 78.78239 166.32 
L 78.78239 0 
" clip-path="url(#p8f4cd60892)" style="fill: none; stroke: #ffffff; stroke-width: 0.8; stroke-linecap: square"/>
     </g>
     <g id="line2d_2">
      <defs>
       <path id="m0d5a664415" d="M 0 0 
L 0 3.5 
" style="stroke: #555555; stroke-width: 0.8"/>
      </defs>
      <g>
       <use xlink:href="#m0d5a664415" x="78.78239" y="166.32" style="fill: #555555; stroke: #555555; stroke-width: 0.8"/>
      </g>
     </g>
     <g id="text_1">
      <!-- 08/16/20 -->
      <g style="fill: #555555" transform="translate(56.32614 180.918438) scale(0.1 -0.1)">
       <defs>
        <path id="DejaVuSans-30" d="M 2034 4250 
Q 1547 4250 1301 3770 
Q 1056 3291 1056 2328 
Q 1056 1369 1301 889 
Q 1547 409 2034 409 
Q 2525 409 2770 889 
Q 3016 1369 3016 2328 
Q 3016 3291 2770 3770 
Q 2525 4250 2034 4250 
z
M 2034 4750 
Q 2819 4750 3233 4129 
Q 3647 3509 3647 2328 
Q 3647 1150 3233 529 
Q 2819 -91 2034 -91 
Q 1250 -91 836 529 
Q 422 1150 422 2328 
Q 422 3509 836 4129 
Q 1250 4750 2034 4750 
z
" transform="scale(0.015625)"/>
        <path id="DejaVuSans-38" d="M 2034 2216 
Q 1584 2216 1326 1975 
Q 1069 1734 1069 1313 
Q 1069 891 1326 650 
Q 1584 409 2034 409 
Q 2484 409 2743 651 
Q 3003 894 3003 1313 
Q 3003 1734 2745 1975 
Q 2488 2216 2034 2216 
z
M 1403 2484 
Q 997 2584 770 2862 
Q 544 3141 544 3541 
Q 544 4100 942 4425 
Q 1341 4750 2034 4750 
Q 2731 4750 3128 4425 
Q 3525 4100 3525 3541 
Q 3525 3141 3298 2862 
Q 3072 2584 2669 2484 
Q 3125 2378 3379 2068 
Q 3634 1759 3634 1313 
Q 3634 634 3220 271 
Q 2806 -91 2034 -91 
Q 1263 -91 848 271 
Q 434 634 434 1313 
Q 434 1759 690 2068 
Q 947 2378 1403 2484 
z
M 1172 3481 
Q 1172 3119 1398 2916 
Q 1625 2713 2034 2713 
Q 2441 2713 2670 2916 
Q 2900 3119 2900 3481 
Q 2900 3844 2670 4047 
Q 2441 4250 2034 4250 
Q 1625 4250 1398 4047 
Q 1172 3844 1172 3481 
z
" transform="scale(0.015625)"/>
        <path id="DejaVuSans-2f" d="M 1625 4666 
L 2156 4666 
L 531 -594 
L 0 -594 
L 1625 4666 
z
" transform="scale(0.015625)"/>
        <path id="DejaVuSans-31" d="M 794 531 
L 1825 531 
L 1825 4091 
L 703 3866 
L 703 4441 
L 1819 4666 
L 2450 4666 
L 2450 531 
L 3481 531 
L 3481 0 
L 794 0 
L 794 531 
z
" transform="scale(0.015625)"/>
        <path id="DejaVuSans-36" d="M 2113 2584 
Q 1688 2584 1439 2293 
Q 1191 2003 1191 1497 
Q 1191 994 1439 701 
Q 1688 409 2113 409 
Q 2538 409 2786 701 
Q 3034 994 3034 1497 
Q 3034 2003 2786 2293 
Q 2538 2584 2113 2584 
z
M 3366 4563 
L 3366 3988 
Q 3128 4100 2886 4159 
Q 2644 4219 2406 4219 
Q 1781 4219 1451 3797 
Q 1122 3375 1075 2522 
Q 1259 2794 1537 2939 
Q 1816 3084 2150 3084 
Q 2853 3084 3261 2657 
Q 3669 2231 3669 1497 
Q 3669 778 3244 343 
Q 2819 -91 2113 -91 
Q 1303 -91 875 529 
Q 447 1150 447 2328 
Q 447 3434 972 4092 
Q 1497 4750 2381 4750 
Q 2619 4750 2861 4703 
Q 3103 4656 3366 4563 
z
" transform="scale(0.015625)"/>
        <path id="DejaVuSans-32" d="M 1228 531 
L 3431 531 
L 3431 0 
L 469 0 
L 469 531 
Q 828 903 1448 1529 
Q 2069 2156 2228 2338 
Q 2531 2678 2651 2914 
Q 2772 3150 2772 3378 
Q 2772 3750 2511 3984 
Q 2250 4219 1831 4219 
Q 1534 4219 1204 4116 
Q 875 4013 500 3803 
L 500 4441 
Q 881 4594 1212 4672 
Q 1544 4750 1819 4750 
Q 2544 4750 2975 4387 
Q 3406 4025 3406 3419 
Q 3406 3131 3298 2873 
Q 3191 2616 2906 2266 
Q 2828 2175 2409 1742 
Q 1991 1309 1228 531 
z
" transform="scale(0.015625)"/>
       </defs>
       <use xlink:href="#DejaVuSans-30"/>
       <use xlink:href="#DejaVuSans-38" x="63.623047"/>
       <use xlink:href="#DejaVuSans-2f" x="127.246094"/>
       <use xlink:href="#DejaVuSans-31" x="160.9375"/>
       <use xlink:href="#DejaVuSans-36" x="224.560547"/>
       <use xlink:href="#DejaVuSans-2f" x="288.183594"/>
       <use xlink:href="#DejaVuSans-32" x="321.875"/>
       <use xlink:href="#DejaVuSans-30" x="385.498047"/>
      </g>
     </g>
    </g>
    <g id="xtick_2">
     <g id="line2d_3">
      <path d="M 148.682176 166.32 
L 148.682176 0 
" clip-path="url(#p8f4cd60892)" style="fill: none; stroke: #ffffff; stroke-width: 0.8; stroke-linecap: square"/>
     </g>
     <g id="line2d_4">
      <g>
       <use xlink:href="#m0d5a664415" x="148.682176" y="166.32" style="fill: #555555; stroke: #555555; stroke-width: 0.8"/>
      </g>
     </g>
     <g id="text_2">
      <!-- 10/05/20 -->
      <g style="fill: #555555" transform="translate(126.225926 180.918438) scale(0.1 -0.1)">
       <defs>
        <path id="DejaVuSans-35" d="M 691 4666 
L 3169 4666 
L 3169 4134 
L 1269 4134 
L 1269 2991 
Q 1406 3038 1543 3061 
Q 1681 3084 1819 3084 
Q 2600 3084 3056 2656 
Q 3513 2228 3513 1497 
Q 3513 744 3044 326 
Q 2575 -91 1722 -91 
Q 1428 -91 1123 -41 
Q 819 9 494 109 
L 494 744 
Q 775 591 1075 516 
Q 1375 441 1709 441 
Q 2250 441 2565 725 
Q 2881 1009 2881 1497 
Q 2881 1984 2565 2268 
Q 2250 2553 1709 2553 
Q 1456 2553 1204 2497 
Q 953 2441 691 2322 
L 691 4666 
z
" transform="scale(0.015625)"/>
       </defs>
       <use xlink:href="#DejaVuSans-31"/>
       <use xlink:href="#DejaVuSans-30" x="63.623047"/>
       <use xlink:href="#DejaVuSans-2f" x="127.246094"/>
       <use xlink:href="#DejaVuSans-30" x="160.9375"/>
       <use xlink:href="#DejaVuSans-35" x="224.560547"/>
       <use xlink:href="#DejaVuSans-2f" x="288.183594"/>
       <use xlink:href="#DejaVuSans-32" x="321.875"/>
       <use xlink:href="#DejaVuSans-30" x="385.498047"/>
      </g>
     </g>
    </g>
    <g id="xtick_3">
     <g id="line2d_5">
      <path d="M 218.581961 166.32 
L 218.581961 0 
" clip-path="url(#p8f4cd60892)" style="fill: none; stroke: #ffffff; stroke-width: 0.8; stroke-linecap: square"/>
     </g>
     <g id="line2d_6">
      <g>
       <use xlink:href="#m0d5a664415" x="218.581961" y="166.32" style="fill: #555555; stroke: #555555; stroke-width: 0.8"/>
      </g>
     </g>
     <g id="text_3">
      <!-- 11/24/20 -->
      <g style="fill: #555555" transform="translate(196.125711 180.918438) scale(0.1 -0.1)">
       <defs>
        <path id="DejaVuSans-34" d="M 2419 4116 
L 825 1625 
L 2419 1625 
L 2419 4116 
z
M 2253 4666 
L 3047 4666 
L 3047 1625 
L 3713 1625 
L 3713 1100 
L 3047 1100 
L 3047 0 
L 2419 0 
L 2419 1100 
L 313 1100 
L 313 1709 
L 2253 4666 
z
" transform="scale(0.015625)"/>
       </defs>
       <use xlink:href="#DejaVuSans-31"/>
       <use xlink:href="#DejaVuSans-31" x="63.623047"/>
       <use xlink:href="#DejaVuSans-2f" x="127.246094"/>
       <use xlink:href="#DejaVuSans-32" x="160.9375"/>
       <use xlink:href="#DejaVuSans-34" x="224.560547"/>
       <use xlink:href="#DejaVuSans-2f" x="288.183594"/>
       <use xlink:href="#DejaVuSans-32" x="321.875"/>
       <use xlink:href="#DejaVuSans-30" x="385.498047"/>
      </g>
     </g>
    </g>
    <g id="xtick_4">
     <g id="line2d_7">
      <path d="M 288.481746 166.32 
L 288.481746 0 
" clip-path="url(#p8f4cd60892)" style="fill: none; stroke: #ffffff; stroke-width: 0.8; stroke-linecap: square"/>
     </g>
     <g id="line2d_8">
      <g>
       <use xlink:href="#m0d5a664415" x="288.481746" y="166.32" style="fill: #555555; stroke: #555555; stroke-width: 0.8"/>
      </g>
     </g>
     <g id="text_4">
      <!-- 01/13/21 -->
      <g style="fill: #555555" transform="translate(266.025496 180.918438) scale(0.1 -0.1)">
       <defs>
        <path id="DejaVuSans-33" d="M 2597 2516 
Q 3050 2419 3304 2112 
Q 3559 1806 3559 1356 
Q 3559 666 3084 287 
Q 2609 -91 1734 -91 
Q 1441 -91 1130 -33 
Q 819 25 488 141 
L 488 750 
Q 750 597 1062 519 
Q 1375 441 1716 441 
Q 2309 441 2620 675 
Q 2931 909 2931 1356 
Q 2931 1769 2642 2001 
Q 2353 2234 1838 2234 
L 1294 2234 
L 1294 2753 
L 1863 2753 
Q 2328 2753 2575 2939 
Q 2822 3125 2822 3475 
Q 2822 3834 2567 4026 
Q 2313 4219 1838 4219 
Q 1578 4219 1281 4162 
Q 984 4106 628 3988 
L 628 4550 
Q 988 4650 1302 4700 
Q 1616 4750 1894 4750 
Q 2613 4750 3031 4423 
Q 3450 4097 3450 3541 
Q 3450 3153 3228 2886 
Q 3006 2619 2597 2516 
z
" transform="scale(0.015625)"/>
       </defs>
       <use xlink:href="#DejaVuSans-30"/>
       <use xlink:href="#DejaVuSans-31" x="63.623047"/>
       <use xlink:href="#DejaVuSans-2f" x="127.246094"/>
       <use xlink:href="#DejaVuSans-31" x="160.9375"/>
       <use xlink:href="#DejaVuSans-33" x="224.560547"/>
       <use xlink:href="#DejaVuSans-2f" x="288.183594"/>
       <use xlink:href="#DejaVuSans-32" x="321.875"/>
       <use xlink:href="#DejaVuSans-31" x="385.498047"/>
      </g>
     </g>
    </g>
    <g id="xtick_5">
     <g id="line2d_9">
      <path d="M 358.381531 166.32 
L 358.381531 0 
" clip-path="url(#p8f4cd60892)" style="fill: none; stroke: #ffffff; stroke-width: 0.8; stroke-linecap: square"/>
     </g>
     <g id="line2d_10">
      <g>
       <use xlink:href="#m0d5a664415" x="358.381531" y="166.32" style="fill: #555555; stroke: #555555; stroke-width: 0.8"/>
      </g>
     </g>
     <g id="text_5">
      <!-- 03/04/21 -->
      <g style="fill: #555555" transform="translate(335.925281 180.918438) scale(0.1 -0.1)">
       <use xlink:href="#DejaVuSans-30"/>
       <use xlink:href="#DejaVuSans-33" x="63.623047"/>
       <use xlink:href="#DejaVuSans-2f" x="127.246094"/>
       <use xlink:href="#DejaVuSans-30" x="160.9375"/>
       <use xlink:href="#DejaVuSans-34" x="224.560547"/>
       <use xlink:href="#DejaVuSans-2f" x="288.183594"/>
       <use xlink:href="#DejaVuSans-32" x="321.875"/>
       <use xlink:href="#DejaVuSans-31" x="385.498047"/>
      </g>
     </g>
    </g>
    <g id="xtick_6">
     <g id="line2d_11">
      <path d="M 428.281317 166.32 
L 428.281317 0 
" clip-path="url(#p8f4cd60892)" style="fill: none; stroke: #ffffff; stroke-width: 0.8; stroke-linecap: square"/>
     </g>
     <g id="line2d_12">
      <g>
       <use xlink:href="#m0d5a664415" x="428.281317" y="166.32" style="fill: #555555; stroke: #555555; stroke-width: 0.8"/>
      </g>
     </g>
     <g id="text_6">
      <!-- 04/23/21 -->
      <g style="fill: #555555" transform="translate(405.825067 180.918438) scale(0.1 -0.1)">
       <use xlink:href="#DejaVuSans-30"/>
       <use xlink:href="#DejaVuSans-34" x="63.623047"/>
       <use xlink:href="#DejaVuSans-2f" x="127.246094"/>
       <use xlink:href="#DejaVuSans-32" x="160.9375"/>
       <use xlink:href="#DejaVuSans-33" x="224.560547"/>
       <use xlink:href="#DejaVuSans-2f" x="288.183594"/>
       <use xlink:href="#DejaVuSans-32" x="321.875"/>
       <use xlink:href="#DejaVuSans-31" x="385.498047"/>
      </g>
     </g>
    </g>
    <g id="text_7">
     <!-- Date -->
     <g style="fill: #555555" transform="translate(232.200938 196.11625) scale(0.12 -0.12)">
      <defs>
       <path id="DejaVuSans-44" d="M 1259 4147 
L 1259 519 
L 2022 519 
Q 2988 519 3436 956 
Q 3884 1394 3884 2338 
Q 3884 3275 3436 3711 
Q 2988 4147 2022 4147 
L 1259 4147 
z
M 628 4666 
L 1925 4666 
Q 3281 4666 3915 4102 
Q 4550 3538 4550 2338 
Q 4550 1131 3912 565 
Q 3275 0 1925 0 
L 628 0 
L 628 4666 
z
" transform="scale(0.015625)"/>
       <path id="DejaVuSans-61" d="M 2194 1759 
Q 1497 1759 1228 1600 
Q 959 1441 959 1056 
Q 959 750 1161 570 
Q 1363 391 1709 391 
Q 2188 391 2477 730 
Q 2766 1069 2766 1631 
L 2766 1759 
L 2194 1759 
z
M 3341 1997 
L 3341 0 
L 2766 0 
L 2766 531 
Q 2569 213 2275 61 
Q 1981 -91 1556 -91 
Q 1019 -91 701 211 
Q 384 513 384 1019 
Q 384 1609 779 1909 
Q 1175 2209 1959 2209 
L 2766 2209 
L 2766 2266 
Q 2766 2663 2505 2880 
Q 2244 3097 1772 3097 
Q 1472 3097 1187 3025 
Q 903 2953 641 2809 
L 641 3341 
Q 956 3463 1253 3523 
Q 1550 3584 1831 3584 
Q 2591 3584 2966 3190 
Q 3341 2797 3341 1997 
z
" transform="scale(0.015625)"/>
       <path id="DejaVuSans-74" d="M 1172 4494 
L 1172 3500 
L 2356 3500 
L 2356 3053 
L 1172 3053 
L 1172 1153 
Q 1172 725 1289 603 
Q 1406 481 1766 481 
L 2356 481 
L 2356 0 
L 1766 0 
Q 1100 0 847 248 
Q 594 497 594 1153 
L 594 3053 
L 172 3053 
L 172 3500 
L 594 3500 
L 594 4494 
L 1172 4494 
z
" transform="scale(0.015625)"/>
       <path id="DejaVuSans-65" d="M 3597 1894 
L 3597 1613 
L 953 1613 
Q 991 1019 1311 708 
Q 1631 397 2203 397 
Q 2534 397 2845 478 
Q 3156 559 3463 722 
L 3463 178 
Q 3153 47 2828 -22 
Q 2503 -91 2169 -91 
Q 1331 -91 842 396 
Q 353 884 353 1716 
Q 353 2575 817 3079 
Q 1281 3584 2069 3584 
Q 2775 3584 3186 3129 
Q 3597 2675 3597 1894 
z
M 3022 2063 
Q 3016 2534 2758 2815 
Q 2500 3097 2075 3097 
Q 1594 3097 1305 2825 
Q 1016 2553 972 2059 
L 3022 2063 
z
" transform="scale(0.015625)"/>
      </defs>
      <use xlink:href="#DejaVuSans-44"/>
      <use xlink:href="#DejaVuSans-61" x="77.001953"/>
      <use xlink:href="#DejaVuSans-74" x="138.28125"/>
      <use xlink:href="#DejaVuSans-65" x="177.490234"/>
     </g>
    </g>
   </g>
   <g id="matplotlib.axis_2">
    <g id="ytick_1">
     <g id="line2d_13">
      <path d="M 51.241875 161.244757 
L 441.841875 161.244757 
" clip-path="url(#p8f4cd60892)" style="fill: none; stroke: #ffffff; stroke-width: 0.8; stroke-linecap: square"/>
     </g>
     <g id="line2d_14">
      <defs>
       <path id="m66a7879162" d="M 0 0 
L -3.5 0 
" style="stroke: #555555; stroke-width: 0.8"/>
      </defs>
      <g>
       <use xlink:href="#m66a7879162" x="51.241875" y="161.244757" style="fill: #555555; stroke: #555555; stroke-width: 0.8"/>
      </g>
     </g>
     <g id="text_8">
      <!-- 0.000 -->
      <g style="fill: #555555" transform="translate(15.61375 165.043975) scale(0.1 -0.1)">
       <defs>
        <path id="DejaVuSans-2e" d="M 684 794 
L 1344 794 
L 1344 0 
L 684 0 
L 684 794 
z
" transform="scale(0.015625)"/>
       </defs>
       <use xlink:href="#DejaVuSans-30"/>
       <use xlink:href="#DejaVuSans-2e" x="63.623047"/>
       <use xlink:href="#DejaVuSans-30" x="95.410156"/>
       <use xlink:href="#DejaVuSans-30" x="159.033203"/>
       <use xlink:href="#DejaVuSans-30" x="222.65625"/>
      </g>
     </g>
    </g>
    <g id="ytick_2">
     <g id="line2d_15">
      <path d="M 51.241875 128.519622 
L 441.841875 128.519622 
" clip-path="url(#p8f4cd60892)" style="fill: none; stroke: #ffffff; stroke-width: 0.8; stroke-linecap: square"/>
     </g>
     <g id="line2d_16">
      <g>
       <use xlink:href="#m66a7879162" x="51.241875" y="128.519622" style="fill: #555555; stroke: #555555; stroke-width: 0.8"/>
      </g>
     </g>
     <g id="text_9">
      <!-- 0.005 -->
      <g style="fill: #555555" transform="translate(15.61375 132.318841) scale(0.1 -0.1)">
       <use xlink:href="#DejaVuSans-30"/>
       <use xlink:href="#DejaVuSans-2e" x="63.623047"/>
       <use xlink:href="#DejaVuSans-30" x="95.410156"/>
       <use xlink:href="#DejaVuSans-30" x="159.033203"/>
       <use xlink:href="#DejaVuSans-35" x="222.65625"/>
      </g>
     </g>
    </g>
    <g id="ytick_3">
     <g id="line2d_17">
      <path d="M 51.241875 95.794488 
L 441.841875 95.794488 
" clip-path="url(#p8f4cd60892)" style="fill: none; stroke: #ffffff; stroke-width: 0.8; stroke-linecap: square"/>
     </g>
     <g id="line2d_18">
      <g>
       <use xlink:href="#m66a7879162" x="51.241875" y="95.794488" style="fill: #555555; stroke: #555555; stroke-width: 0.8"/>
      </g>
     </g>
     <g id="text_10">
      <!-- 0.010 -->
      <g style="fill: #555555" transform="translate(15.61375 99.593707) scale(0.1 -0.1)">
       <use xlink:href="#DejaVuSans-30"/>
       <use xlink:href="#DejaVuSans-2e" x="63.623047"/>
       <use xlink:href="#DejaVuSans-30" x="95.410156"/>
       <use xlink:href="#DejaVuSans-31" x="159.033203"/>
       <use xlink:href="#DejaVuSans-30" x="222.65625"/>
      </g>
     </g>
    </g>
    <g id="ytick_4">
     <g id="line2d_19">
      <path d="M 51.241875 63.069354 
L 441.841875 63.069354 
" clip-path="url(#p8f4cd60892)" style="fill: none; stroke: #ffffff; stroke-width: 0.8; stroke-linecap: square"/>
     </g>
     <g id="line2d_20">
      <g>
       <use xlink:href="#m66a7879162" x="51.241875" y="63.069354" style="fill: #555555; stroke: #555555; stroke-width: 0.8"/>
      </g>
     </g>
     <g id="text_11">
      <!-- 0.015 -->
      <g style="fill: #555555" transform="translate(15.61375 66.868573) scale(0.1 -0.1)">
       <use xlink:href="#DejaVuSans-30"/>
       <use xlink:href="#DejaVuSans-2e" x="63.623047"/>
       <use xlink:href="#DejaVuSans-30" x="95.410156"/>
       <use xlink:href="#DejaVuSans-31" x="159.033203"/>
       <use xlink:href="#DejaVuSans-35" x="222.65625"/>
      </g>
     </g>
    </g>
    <g id="ytick_5">
     <g id="line2d_21">
      <path d="M 51.241875 30.34422 
L 441.841875 30.34422 
" clip-path="url(#p8f4cd60892)" style="fill: none; stroke: #ffffff; stroke-width: 0.8; stroke-linecap: square"/>
     </g>
     <g id="line2d_22">
      <g>
       <use xlink:href="#m66a7879162" x="51.241875" y="30.34422" style="fill: #555555; stroke: #555555; stroke-width: 0.8"/>
      </g>
     </g>
     <g id="text_12">
      <!-- 0.020 -->
      <g style="fill: #555555" transform="translate(15.61375 34.143439) scale(0.1 -0.1)">
       <use xlink:href="#DejaVuSans-30"/>
       <use xlink:href="#DejaVuSans-2e" x="63.623047"/>
       <use xlink:href="#DejaVuSans-30" x="95.410156"/>
       <use xlink:href="#DejaVuSans-32" x="159.033203"/>
       <use xlink:href="#DejaVuSans-30" x="222.65625"/>
      </g>
     </g>
    </g>
    <g id="text_13">
     <!-- Value -->
     <g style="fill: #555555" transform="translate(9.118125 99.6375) rotate(-90) scale(0.12 -0.12)">
      <defs>
       <path id="DejaVuSans-56" d="M 1831 0 
L 50 4666 
L 709 4666 
L 2188 738 
L 3669 4666 
L 4325 4666 
L 2547 0 
L 1831 0 
z
" transform="scale(0.015625)"/>
       <path id="DejaVuSans-6c" d="M 603 4863 
L 1178 4863 
L 1178 0 
L 603 0 
L 603 4863 
z
" transform="scale(0.015625)"/>
       <path id="DejaVuSans-75" d="M 544 1381 
L 544 3500 
L 1119 3500 
L 1119 1403 
Q 1119 906 1312 657 
Q 1506 409 1894 409 
Q 2359 409 2629 706 
Q 2900 1003 2900 1516 
L 2900 3500 
L 3475 3500 
L 3475 0 
L 2900 0 
L 2900 538 
Q 2691 219 2414 64 
Q 2138 -91 1772 -91 
Q 1169 -91 856 284 
Q 544 659 544 1381 
z
M 1991 3584 
L 1991 3584 
z
" transform="scale(0.015625)"/>
      </defs>
      <use xlink:href="#DejaVuSans-56"/>
      <use xlink:href="#DejaVuSans-61" x="60.658203"/>
      <use xlink:href="#DejaVuSans-6c" x="121.9375"/>
      <use xlink:href="#DejaVuSans-75" x="149.720703"/>
      <use xlink:href="#DejaVuSans-65" x="213.099609"/>
     </g>
    </g>
   </g>
   <g id="PolyCollection_1">
    <defs>
     <path id="mba59bfe5e2" d="M 68.99642 -62.050794 
L 68.99642 -75.660122 
L 70.394416 -74.173934 
L 71.792412 -70.973984 
L 73.190408 -76.56587 
L 74.588403 -76.353711 
L 75.986399 -75.849755 
L 77.384395 -75.780646 
L 78.78239 -76.380576 
L 80.180386 -81.569129 
L 81.578382 -81.878985 
L 82.976378 -85.287608 
L 84.374373 -85.023605 
L 85.772369 -80.309904 
L 87.170365 -81.10078 
L 88.56836 -74.550061 
L 89.966356 -74.849222 
L 91.364352 -74.033022 
L 92.762347 -71.085836 
L 94.160343 -73.144475 
L 95.558339 -72.033273 
L 96.956335 -48.193578 
L 98.35433 -49.495301 
L 99.752326 -48.613834 
L 101.150322 -49.686325 
L 102.548317 -44.183492 
L 103.946313 -44.143535 
L 105.344309 -43.608975 
L 106.742304 -44.032612 
L 108.1403 -46.564934 
L 109.538296 -46.699118 
L 110.936292 -46.409943 
L 112.334287 -46.379094 
L 113.732283 -63.642195 
L 115.130279 -62.47412 
L 116.528274 -62.69405 
L 117.92627 -61.514393 
L 119.324266 -61.065795 
L 120.722262 -59.592219 
L 122.120257 -57.431767 
L 123.518253 -59.701393 
L 124.916249 -59.948374 
L 126.314244 -59.159745 
L 127.71224 -59.664249 
L 129.110236 -60.484805 
L 130.508231 -59.427547 
L 131.906227 -70.318074 
L 133.304223 -61.345557 
L 134.702219 -65.662093 
L 136.100214 -65.305355 
L 137.49821 -69.773288 
L 138.896206 -70.072855 
L 140.294201 -71.040563 
L 141.692197 -71.654519 
L 143.090193 -72.706366 
L 144.488189 -68.818976 
L 145.886184 -72.534531 
L 147.28418 -103.105206 
L 148.682176 -100.107692 
L 150.080171 -102.558355 
L 151.478167 -75.346356 
L 152.876163 -76.903709 
L 154.274158 -76.888179 
L 155.672154 -76.445543 
L 157.07015 -75.332934 
L 158.468146 -75.389657 
L 159.866141 -74.614794 
L 161.264137 -72.604848 
L 162.662133 -74.464739 
L 164.060128 -75.567185 
L 165.458124 -106.358837 
L 166.85612 -107.253998 
L 168.254116 -77.343495 
L 169.652111 -76.241508 
L 171.050107 -90.062291 
L 172.448103 -105.425231 
L 173.846098 -108.114548 
L 175.244094 -87.417909 
L 176.64209 -107.743158 
L 178.040085 -106.053069 
L 179.438081 -107.376185 
L 180.836077 -107.485891 
L 182.234073 -106.31838 
L 183.632068 -106.00819 
L 185.030064 -103.142891 
L 186.42806 -104.829245 
L 187.826055 -106.969124 
L 189.224051 -107.098016 
L 190.622047 -88.767265 
L 192.020043 -88.851427 
L 193.418038 -86.378401 
L 194.816034 -88.332784 
L 196.21403 -87.430557 
L 197.612025 -78.725652 
L 199.010021 -79.054157 
L 200.408017 -90.692678 
L 201.806012 -81.46342 
L 203.204008 -94.802886 
L 204.602004 -115.61235 
L 206 -113.411328 
L 207.397995 -119.837013 
L 208.795991 -98.023123 
L 210.193987 -119.897072 
L 211.591982 -121.80897 
L 212.989978 -120.484489 
L 214.387974 -121.424096 
L 215.785969 -126.158581 
L 217.183965 -123.019939 
L 218.581961 -123.045591 
L 219.979957 -121.398396 
L 221.377952 -136.327932 
L 222.775948 -124.693711 
L 224.173944 -121.984756 
L 225.571939 -121.513818 
L 226.969935 -121.221282 
L 228.367931 -121.659194 
L 229.765927 -124.051551 
L 231.163922 -119.890963 
L 232.561918 -120.976 
L 233.959914 -119.662694 
L 235.357909 -117.924825 
L 236.755905 -119.788699 
L 238.153901 -115.859322 
L 239.551896 -118.824733 
L 240.949892 -83.081217 
L 242.347888 -110.794172 
L 243.745884 -108.283443 
L 245.143879 -108.257328 
L 246.541875 -114.482894 
L 247.939871 -113.514099 
L 249.337866 -106.800276 
L 250.735862 -103.782371 
L 252.133858 -92.461809 
L 253.531854 -92.601086 
L 254.929849 -91.89494 
L 256.327845 -90.331557 
L 257.725841 -89.723236 
L 259.123836 -88.344466 
L 260.521832 -87.582859 
L 261.919828 -88.245584 
L 263.317823 -88.35719 
L 264.715819 -89.471535 
L 266.113815 -87.136604 
L 267.511811 -87.659892 
L 268.909806 -87.88028 
L 270.307802 -86.378295 
L 271.705798 -87.298848 
L 273.103793 -88.278335 
L 274.501789 -87.834633 
L 275.899785 -75.632954 
L 277.297781 -75.65715 
L 278.695776 -56.446744 
L 280.093772 -54.496452 
L 281.491768 -55.604493 
L 282.889763 -55.241751 
L 284.287759 -54.425076 
L 285.685755 -54.315268 
L 287.08375 -53.946933 
L 288.481746 -44.912786 
L 289.879742 -42.113817 
L 291.277738 -41.981366 
L 292.675733 -43.306428 
L 294.073729 -44.741076 
L 295.471725 -52.593625 
L 296.86972 -53.31923 
L 298.267716 -52.471927 
L 299.665712 -54.260819 
L 301.063707 -54.312373 
L 302.461703 -55.864441 
L 303.859699 -56.0919 
L 305.257695 -55.153016 
L 306.65569 -56.109373 
L 308.053686 -67.616031 
L 309.451682 -72.228159 
L 310.849677 -72.000124 
L 312.247673 -84.687026 
L 313.645669 -85.662538 
L 315.043665 -85.565409 
L 316.44166 -85.38333 
L 317.839656 -84.789411 
L 319.237652 -88.289701 
L 320.635647 -84.729416 
L 322.033643 -84.190389 
L 323.431639 -84.71509 
L 324.829634 -83.829606 
L 326.22763 -85.304144 
L 327.625626 -84.102079 
L 329.023622 -84.626101 
L 330.421617 -83.199763 
L 331.819613 -69.50988 
L 333.217609 -68.622144 
L 334.615604 -68.788349 
L 336.0136 -69.495807 
L 337.411596 -44.423196 
L 338.809592 -56.304331 
L 340.207587 -53.977749 
L 341.605583 -54.083209 
L 343.003579 -53.48221 
L 344.401574 -54.143247 
L 345.79957 -44.997804 
L 347.197566 -55.141382 
L 348.595561 -57.021788 
L 349.993557 -59.365303 
L 351.391553 -59.262518 
L 352.789549 -59.53807 
L 354.187544 -93.564486 
L 355.58554 -74.983662 
L 356.983536 -92.602376 
L 358.381531 -170.765527 
L 359.779527 -169.606273 
L 361.177523 -178.580975 
L 362.575519 -180.964876 
L 363.973514 -178.95039 
L 365.37151 -183.383992 
L 366.769506 -185.982037 
L 368.167501 -182.794209 
L 369.565497 -188.325745 
L 370.963493 -187.949614 
L 372.361488 -182.525562 
L 373.759484 -188.476515 
L 375.15748 -186.042545 
L 376.555476 -191.051875 
L 377.953471 -182.34741 
L 379.351467 -184.595183 
L 380.749463 -182.706515 
L 382.147458 -185.476588 
L 383.545454 -142.259656 
L 384.94345 -140.260594 
L 386.341446 -141.701153 
L 387.739441 -146.135132 
L 389.137437 -145.089519 
L 390.535433 -136.628334 
L 391.933428 -135.526704 
L 393.331424 -97.856809 
L 394.72942 -98.858665 
L 396.127415 -98.317525 
L 397.525411 -89.869368 
L 398.923407 -76.777593 
L 400.321403 -77.900276 
L 401.719398 -76.787869 
L 403.117394 -70.98154 
L 404.51539 -68.123635 
L 405.913385 -68.31026 
L 407.311381 -64.293178 
L 408.709377 -63.952458 
L 410.107372 -63.268332 
L 411.505368 -64.120656 
L 412.903364 -63.558781 
L 414.30136 -48.96348 
L 415.699355 -61.554303 
L 417.097351 -47.508429 
L 418.495347 -47.469277 
L 419.893342 -47.508152 
L 421.291338 -47.492323 
L 422.689334 -48.962088 
L 424.08733 -48.681583 
L 424.08733 -46.236384 
L 424.08733 -46.236384 
L 422.689334 -46.149281 
L 421.291338 -45.291039 
L 419.893342 -45.167129 
L 418.495347 -44.879347 
L 417.097351 -45.241503 
L 415.699355 -51.622813 
L 414.30136 -46.309423 
L 412.903364 -52.561079 
L 411.505368 -53.908001 
L 410.107372 -52.30123 
L 408.709377 -52.626221 
L 407.311381 -53.17314 
L 405.913385 -56.805211 
L 404.51539 -55.880193 
L 403.117394 -58.919198 
L 401.719398 -64.117374 
L 400.321403 -64.99055 
L 398.923407 -64.095391 
L 397.525411 -74.819952 
L 396.127415 -80.938347 
L 394.72942 -83.454302 
L 393.331424 -82.489238 
L 391.933428 -113.53171 
L 390.535433 -114.888971 
L 389.137437 -118.871175 
L 387.739441 -123.959622 
L 386.341446 -119.403443 
L 384.94345 -119.183779 
L 383.545454 -120.001721 
L 382.147458 -148.426291 
L 380.749463 -146.35329 
L 379.351467 -145.07197 
L 377.953471 -143.772297 
L 376.555476 -151.974218 
L 375.15748 -149.596922 
L 373.759484 -151.666796 
L 372.361488 -147.118168 
L 370.963493 -152.129955 
L 369.565497 -152.089716 
L 368.167501 -149.197775 
L 366.769506 -148.195824 
L 365.37151 -148.379112 
L 363.973514 -142.406739 
L 362.575519 -140.850539 
L 361.177523 -143.41306 
L 359.779527 -136.507028 
L 358.381531 -135.895007 
L 356.983536 -80.293067 
L 355.58554 -64.07295 
L 354.187544 -81.288811 
L 352.789549 -51.621739 
L 351.391553 -51.815048 
L 349.993557 -51.342377 
L 348.595561 -50.444122 
L 347.197566 -48.065414 
L 345.79957 -43.295361 
L 344.401574 -47.502887 
L 343.003579 -46.972716 
L 341.605583 -47.513092 
L 340.207587 -47.684857 
L 338.809592 -49.748941 
L 337.411596 -42.788006 
L 336.0136 -60.388089 
L 334.615604 -60.612231 
L 333.217609 -60.915133 
L 331.819613 -60.212445 
L 330.421617 -74.470998 
L 329.023622 -75.264991 
L 327.625626 -73.94005 
L 326.22763 -75.138356 
L 324.829634 -74.459287 
L 323.431639 -74.542128 
L 322.033643 -74.371968 
L 320.635647 -75.09725 
L 319.237652 -77.205694 
L 317.839656 -74.8809 
L 316.44166 -75.391135 
L 315.043665 -75.012907 
L 313.645669 -75.130663 
L 312.247673 -74.432576 
L 310.849677 -62.372592 
L 309.451682 -62.99441 
L 308.053686 -58.695557 
L 306.65569 -49.135567 
L 305.257695 -49.202853 
L 303.859699 -49.750455 
L 302.461703 -49.195463 
L 301.063707 -48.123926 
L 299.665712 -48.204503 
L 298.267716 -46.745823 
L 296.86972 -46.701324 
L 295.471725 -46.665297 
L 294.073729 -42.938013 
L 292.675733 -41.630343 
L 291.277738 -40.702249 
L 289.879742 -40.745628 
L 288.481746 -43.171315 
L 287.08375 -48.297882 
L 285.685755 -47.942572 
L 284.287759 -48.039283 
L 282.889763 -48.893243 
L 281.491768 -49.664438 
L 280.093772 -48.124187 
L 278.695776 -50.354444 
L 277.297781 -65.704989 
L 275.899785 -65.305696 
L 274.501789 -76.902168 
L 273.103793 -76.7577 
L 271.705798 -76.629922 
L 270.307802 -75.467937 
L 268.909806 -76.167854 
L 267.511811 -77.253156 
L 266.113815 -76.712439 
L 264.715819 -78.561156 
L 263.317823 -78.570628 
L 261.919828 -77.04009 
L 260.521832 -78.104682 
L 259.123836 -78.516714 
L 257.725841 -78.929433 
L 256.327845 -79.332687 
L 254.929849 -79.373276 
L 253.531854 -80.026338 
L 252.133858 -80.731905 
L 250.735862 -88.985041 
L 249.337866 -90.087203 
L 247.939871 -95.80948 
L 246.541875 -97.150987 
L 245.143879 -92.076691 
L 243.745884 -90.703491 
L 242.347888 -93.492959 
L 240.949892 -70.899453 
L 239.551896 -101.315703 
L 238.153901 -99.33209 
L 236.755905 -102.273551 
L 235.357909 -100.02358 
L 233.959914 -99.869335 
L 232.561918 -102.423933 
L 231.163922 -103.371526 
L 229.765927 -105.027919 
L 228.367931 -105.403637 
L 226.969935 -102.378005 
L 225.571939 -104.420189 
L 224.173944 -104.124554 
L 222.775948 -104.504228 
L 221.377952 -115.282622 
L 219.979957 -103.383126 
L 218.581961 -103.27486 
L 217.183965 -105.341235 
L 215.785969 -107.082224 
L 214.387974 -103.067398 
L 212.989978 -103.657785 
L 211.591982 -102.457273 
L 210.193987 -101.680284 
L 208.795991 -79.933744 
L 207.397995 -100.344765 
L 206 -96.456552 
L 204.602004 -97.191756 
L 203.204008 -77.829012 
L 201.806012 -67.642685 
L 200.408017 -74.548158 
L 199.010021 -66.861957 
L 197.612025 -66.08151 
L 196.21403 -73.635121 
L 194.816034 -74.977842 
L 193.418038 -73.255499 
L 192.020043 -74.291489 
L 190.622047 -75.215561 
L 189.224051 -91.261916 
L 187.826055 -90.683161 
L 186.42806 -89.470067 
L 185.030064 -89.111893 
L 183.632068 -90.182875 
L 182.234073 -92.682726 
L 180.836077 -91.805164 
L 179.438081 -93.522455 
L 178.040085 -91.466094 
L 176.64209 -91.597923 
L 175.244094 -73.666746 
L 173.846098 -91.373505 
L 172.448103 -91.390745 
L 171.050107 -74.997623 
L 169.652111 -65.977681 
L 168.254116 -66.803349 
L 166.85612 -91.796938 
L 165.458124 -91.588455 
L 164.060128 -65.528628 
L 162.662133 -63.283778 
L 161.264137 -61.194832 
L 159.866141 -63.89692 
L 158.468146 -64.665396 
L 157.07015 -64.313031 
L 155.672154 -65.640942 
L 154.274158 -66.336355 
L 152.876163 -65.540574 
L 151.478167 -66.379172 
L 150.080171 -87.479773 
L 148.682176 -86.936791 
L 147.28418 -88.891163 
L 145.886184 -62.295301 
L 144.488189 -59.844548 
L 143.090193 -63.504545 
L 141.692197 -61.859403 
L 140.294201 -62.140665 
L 138.896206 -61.278835 
L 137.49821 -60.790596 
L 136.100214 -56.728496 
L 134.702219 -57.58745 
L 133.304223 -54.43239 
L 131.906227 -62.056401 
L 130.508231 -52.612223 
L 129.110236 -52.24263 
L 127.71224 -52.50901 
L 126.314244 -52.111981 
L 124.916249 -51.955443 
L 123.518253 -51.892214 
L 122.120257 -49.837067 
L 120.722262 -50.711789 
L 119.324266 -51.961798 
L 117.92627 -52.433804 
L 116.528274 -53.922023 
L 115.130279 -52.84945 
L 113.732283 -53.683248 
L 112.334287 -44.365222 
L 110.936292 -44.539712 
L 109.538296 -44.450382 
L 108.1403 -44.673654 
L 106.742304 -42.098409 
L 105.344309 -41.727126 
L 103.946313 -42.184073 
L 102.548317 -42.277688 
L 101.150322 -47.187066 
L 99.752326 -46.281153 
L 98.35433 -47.009017 
L 96.956335 -45.808472 
L 95.558339 -58.937438 
L 94.160343 -59.833525 
L 92.762347 -58.270863 
L 91.364352 -60.185654 
L 89.966356 -61.315767 
L 88.56836 -60.399374 
L 87.170365 -64.626657 
L 85.772369 -64.91247 
L 84.374373 -68.33565 
L 82.976378 -67.556115 
L 81.578382 -64.589403 
L 80.180386 -66.208074 
L 78.78239 -61.577228 
L 77.384395 -60.542218 
L 75.986399 -60.535752 
L 74.588403 -60.886493 
L 73.190408 -62.721509 
L 71.792412 -57.206406 
L 70.394416 -60.589556 
L 68.99642 -62.050794 
z
" style="stroke: #134a8e; stroke-opacity: 0.5; stroke-width: 0.5"/>
    </defs>
    <g clip-path="url(#p8f4cd60892)">
     <use xlink:href="#mba59bfe5e2" x="0" y="198.611875" style="fill: #134a8e; fill-opacity: 0.5; stroke: #134a8e; stroke-opacity: 0.5; stroke-width: 0.5"/>
    </g>
   </g>
   <g id="line2d_23">
    <path d="M 68.99642 129.756417 
L 70.394416 131.23013 
L 71.792412 134.52168 
L 73.190408 128.968185 
L 74.588403 129.991773 
L 75.986399 130.419122 
L 77.384395 130.450443 
L 78.78239 129.632973 
L 80.180386 124.723273 
L 81.578382 125.377681 
L 82.976378 122.190013 
L 84.374373 121.932247 
L 85.772369 126.000688 
L 87.170365 125.748156 
L 88.56836 131.137158 
L 89.966356 130.52938 
L 91.364352 131.502537 
L 92.762347 133.933525 
L 94.160343 132.122875 
L 95.558339 133.12652 
L 96.956335 151.61085 
L 98.35433 150.359716 
L 99.752326 151.164381 
L 101.150322 150.17518 
L 102.548317 155.381285 
L 103.946313 155.448071 
L 105.344309 155.943824 
L 106.742304 155.546365 
L 108.1403 152.992581 
L 110.936292 153.137047 
L 112.334287 153.239717 
L 113.732283 139.949154 
L 115.130279 140.95009 
L 116.528274 140.303838 
L 117.92627 141.637777 
L 119.324266 142.098079 
L 120.722262 143.459871 
L 122.120257 144.977458 
L 123.518253 142.815071 
L 124.916249 142.659967 
L 126.314244 142.976012 
L 127.71224 142.525246 
L 129.110236 142.248157 
L 130.508231 142.59199 
L 131.906227 132.424637 
L 133.304223 140.722902 
L 134.702219 136.987103 
L 136.100214 137.59495 
L 137.49821 133.329933 
L 138.896206 132.93603 
L 140.294201 132.021261 
L 141.692197 131.854914 
L 143.090193 130.50642 
L 144.488189 134.280113 
L 145.886184 131.196959 
L 147.28418 102.61369 
L 148.682176 105.089633 
L 150.080171 103.592811 
L 151.478167 127.749111 
L 154.274158 126.999608 
L 155.672154 127.568633 
L 157.07015 128.788892 
L 158.468146 128.584348 
L 159.866141 129.356018 
L 161.264137 131.712035 
L 162.662133 129.737616 
L 164.060128 128.063968 
L 165.458124 99.638229 
L 166.85612 99.086407 
L 168.254116 126.538453 
L 169.652111 127.50228 
L 171.050107 116.081918 
L 172.448103 100.203887 
L 173.846098 98.867848 
L 175.244094 118.069548 
L 176.64209 98.941335 
L 178.040085 99.852293 
L 179.438081 98.162555 
L 180.836077 98.966348 
L 182.234073 99.111322 
L 183.632068 100.516342 
L 185.030064 102.484483 
L 186.42806 101.462219 
L 187.826055 99.785733 
L 189.224051 99.431909 
L 190.622047 116.620462 
L 192.020043 117.040417 
L 193.418038 118.794925 
L 194.816034 116.956562 
L 196.21403 118.079036 
L 197.612025 126.208294 
L 199.010021 125.653818 
L 200.408017 115.991457 
L 201.806012 124.058823 
L 203.204008 112.295926 
L 204.602004 92.209822 
L 206 93.677935 
L 207.397995 88.520986 
L 208.795991 109.633441 
L 210.193987 87.823197 
L 211.591982 86.478753 
L 212.989978 86.540738 
L 214.387974 86.366128 
L 215.785969 81.991473 
L 217.183965 84.431288 
L 218.581961 85.451649 
L 219.979957 86.221114 
L 221.377952 72.806598 
L 222.775948 84.012906 
L 224.173944 85.55722 
L 225.571939 85.644871 
L 226.969935 86.812232 
L 228.367931 85.080459 
L 229.765927 84.07214 
L 231.163922 86.98063 
L 232.561918 86.911909 
L 233.959914 88.84586 
L 235.357909 89.637673 
L 236.755905 87.58075 
L 238.153901 91.016169 
L 239.551896 88.541657 
L 240.949892 121.62154 
L 242.347888 96.46831 
L 243.745884 99.118408 
L 245.143879 98.444865 
L 246.541875 92.794934 
L 247.939871 93.950085 
L 249.337866 100.168136 
L 250.735862 102.228169 
L 252.133858 112.015018 
L 253.531854 112.298163 
L 257.725841 114.285541 
L 259.123836 115.181285 
L 260.521832 115.768104 
L 261.919828 115.969038 
L 263.317823 115.147966 
L 264.715819 114.595529 
L 266.113815 116.687353 
L 267.511811 116.155351 
L 268.909806 116.587808 
L 270.307802 117.688759 
L 271.705798 116.64749 
L 273.103793 116.093857 
L 274.501789 116.243474 
L 275.899785 128.14255 
L 277.297781 127.930805 
L 278.695776 145.211281 
L 280.093772 147.301555 
L 281.491768 145.977409 
L 282.889763 146.544378 
L 284.287759 147.379696 
L 287.08375 147.489467 
L 288.481746 154.569825 
L 289.879742 157.182153 
L 291.277738 157.270068 
L 292.675733 156.143489 
L 294.073729 154.772331 
L 295.471725 148.982414 
L 296.86972 148.601598 
L 298.267716 149.003 
L 299.665712 147.379214 
L 301.063707 147.393725 
L 302.461703 146.081923 
L 303.859699 145.690697 
L 305.257695 146.433941 
L 306.65569 145.989405 
L 308.053686 135.456081 
L 309.451682 131.00059 
L 310.849677 131.425517 
L 312.247673 119.052074 
L 313.645669 118.215275 
L 315.043665 118.322717 
L 316.44166 118.224642 
L 317.839656 118.77672 
L 319.237652 115.864177 
L 320.635647 118.698542 
L 322.033643 119.330697 
L 323.431639 118.983266 
L 324.829634 119.467428 
L 326.22763 118.390625 
L 327.625626 119.590811 
L 329.023622 118.666329 
L 330.421617 119.776495 
L 331.819613 133.750713 
L 334.615604 133.911585 
L 336.0136 133.669927 
L 337.411596 155.006274 
L 338.809592 145.585239 
L 340.207587 147.780572 
L 341.605583 147.813725 
L 343.003579 148.384412 
L 344.401574 147.788808 
L 345.79957 154.465292 
L 347.197566 147.008477 
L 348.595561 144.87892 
L 349.993557 143.258035 
L 351.391553 143.073092 
L 352.789549 143.031971 
L 354.187544 111.185226 
L 355.58554 129.083569 
L 356.983536 112.164153 
L 358.381531 45.281608 
L 359.779527 45.555224 
L 361.177523 37.614858 
L 362.575519 37.704167 
L 363.973514 37.933311 
L 365.37151 32.730323 
L 366.769506 31.522944 
L 368.167501 32.615883 
L 369.565497 28.404144 
L 370.963493 28.57209 
L 372.361488 33.79001 
L 373.759484 28.54022 
L 375.15748 30.792141 
L 376.555476 27.098828 
L 377.953471 35.552021 
L 379.351467 33.778298 
L 380.749463 34.081973 
L 382.147458 31.660435 
L 383.545454 67.481187 
L 384.94345 68.889688 
L 386.341446 68.059577 
L 387.739441 63.564498 
L 389.137437 66.631528 
L 390.535433 72.853223 
L 391.933428 74.082668 
L 393.331424 108.438852 
L 394.72942 107.455392 
L 396.127415 108.983939 
L 397.525411 116.267215 
L 398.923407 128.175383 
L 400.321403 127.166462 
L 401.719398 128.159254 
L 403.117394 133.661506 
L 404.51539 136.609961 
L 405.913385 136.054139 
L 407.311381 139.878716 
L 410.107372 140.827094 
L 411.505368 139.597547 
L 412.903364 140.551945 
L 414.30136 150.975424 
L 415.699355 142.023317 
L 417.097351 152.236909 
L 418.495347 152.437563 
L 421.291338 152.220194 
L 422.689334 151.056191 
L 424.08733 151.152891 
L 424.08733 151.152891 
" clip-path="url(#p8f4cd60892)" style="fill: none; stroke: #134a8e; stroke-width: 3; stroke-linecap: square"/>
    <defs>
     <path id="mefdc19c91a" d="M 0 1.5 
C 0.397805 1.5 0.77937 1.341951 1.06066 1.06066 
C 1.341951 0.77937 1.5 0.397805 1.5 0 
C 1.5 -0.397805 1.341951 -0.77937 1.06066 -1.06066 
C 0.77937 -1.341951 0.397805 -1.5 0 -1.5 
C -0.397805 -1.5 -0.77937 -1.341951 -1.06066 -1.06066 
C -1.341951 -0.77937 -1.5 -0.397805 -1.5 0 
C -1.5 0.397805 -1.341951 0.77937 -1.06066 1.06066 
C -0.77937 1.341951 -0.397805 1.5 0 1.5 
z
" style="stroke: #134a8e"/>
    </defs>
    <g clip-path="url(#p8f4cd60892)">
     <use xlink:href="#mefdc19c91a" x="68.99642" y="129.756417" style="fill: #134a8e; stroke: #134a8e"/>
     <use xlink:href="#mefdc19c91a" x="70.394416" y="131.23013" style="fill: #134a8e; stroke: #134a8e"/>
     <use xlink:href="#mefdc19c91a" x="71.792412" y="134.52168" style="fill: #134a8e; stroke: #134a8e"/>
     <use xlink:href="#mefdc19c91a" x="73.190408" y="128.968185" style="fill: #134a8e; stroke: #134a8e"/>
     <use xlink:href="#mefdc19c91a" x="74.588403" y="129.991773" style="fill: #134a8e; stroke: #134a8e"/>
     <use xlink:href="#mefdc19c91a" x="75.986399" y="130.419122" style="fill: #134a8e; stroke: #134a8e"/>
     <use xlink:href="#mefdc19c91a" x="77.384395" y="130.450443" style="fill: #134a8e; stroke: #134a8e"/>
     <use xlink:href="#mefdc19c91a" x="78.78239" y="129.632973" style="fill: #134a8e; stroke: #134a8e"/>
     <use xlink:href="#mefdc19c91a" x="80.180386" y="124.723273" style="fill: #134a8e; stroke: #134a8e"/>
     <use xlink:href="#mefdc19c91a" x="81.578382" y="125.377681" style="fill: #134a8e; stroke: #134a8e"/>
     <use xlink:href="#mefdc19c91a" x="82.976378" y="122.190013" style="fill: #134a8e; stroke: #134a8e"/>
     <use xlink:href="#mefdc19c91a" x="84.374373" y="121.932247" style="fill: #134a8e; stroke: #134a8e"/>
     <use xlink:href="#mefdc19c91a" x="85.772369" y="126.000688" style="fill: #134a8e; stroke: #134a8e"/>
     <use xlink:href="#mefdc19c91a" x="87.170365" y="125.748156" style="fill: #134a8e; stroke: #134a8e"/>
     <use xlink:href="#mefdc19c91a" x="88.56836" y="131.137158" style="fill: #134a8e; stroke: #134a8e"/>
     <use xlink:href="#mefdc19c91a" x="89.966356" y="130.52938" style="fill: #134a8e; stroke: #134a8e"/>
     <use xlink:href="#mefdc19c91a" x="91.364352" y="131.502537" style="fill: #134a8e; stroke: #134a8e"/>
     <use xlink:href="#mefdc19c91a" x="92.762347" y="133.933525" style="fill: #134a8e; stroke: #134a8e"/>
     <use xlink:href="#mefdc19c91a" x="94.160343" y="132.122875" style="fill: #134a8e; stroke: #134a8e"/>
     <use xlink:href="#mefdc19c91a" x="95.558339" y="133.12652" style="fill: #134a8e; stroke: #134a8e"/>
     <use xlink:href="#mefdc19c91a" x="96.956335" y="151.61085" style="fill: #134a8e; stroke: #134a8e"/>
     <use xlink:href="#mefdc19c91a" x="98.35433" y="150.359716" style="fill: #134a8e; stroke: #134a8e"/>
     <use xlink:href="#mefdc19c91a" x="99.752326" y="151.164381" style="fill: #134a8e; stroke: #134a8e"/>
     <use xlink:href="#mefdc19c91a" x="101.150322" y="150.17518" style="fill: #134a8e; stroke: #134a8e"/>
     <use xlink:href="#mefdc19c91a" x="102.548317" y="155.381285" style="fill: #134a8e; stroke: #134a8e"/>
     <use xlink:href="#mefdc19c91a" x="103.946313" y="155.448071" style="fill: #134a8e; stroke: #134a8e"/>
     <use xlink:href="#mefdc19c91a" x="105.344309" y="155.943824" style="fill: #134a8e; stroke: #134a8e"/>
     <use xlink:href="#mefdc19c91a" x="106.742304" y="155.546365" style="fill: #134a8e; stroke: #134a8e"/>
     <use xlink:href="#mefdc19c91a" x="108.1403" y="152.992581" style="fill: #134a8e; stroke: #134a8e"/>
     <use xlink:href="#mefdc19c91a" x="109.538296" y="153.037125" style="fill: #134a8e; stroke: #134a8e"/>
     <use xlink:href="#mefdc19c91a" x="110.936292" y="153.137047" style="fill: #134a8e; stroke: #134a8e"/>
     <use xlink:href="#mefdc19c91a" x="112.334287" y="153.239717" style="fill: #134a8e; stroke: #134a8e"/>
     <use xlink:href="#mefdc19c91a" x="113.732283" y="139.949154" style="fill: #134a8e; stroke: #134a8e"/>
     <use xlink:href="#mefdc19c91a" x="115.130279" y="140.95009" style="fill: #134a8e; stroke: #134a8e"/>
     <use xlink:href="#mefdc19c91a" x="116.528274" y="140.303838" style="fill: #134a8e; stroke: #134a8e"/>
     <use xlink:href="#mefdc19c91a" x="117.92627" y="141.637777" style="fill: #134a8e; stroke: #134a8e"/>
     <use xlink:href="#mefdc19c91a" x="119.324266" y="142.098079" style="fill: #134a8e; stroke: #134a8e"/>
     <use xlink:href="#mefdc19c91a" x="120.722262" y="143.459871" style="fill: #134a8e; stroke: #134a8e"/>
     <use xlink:href="#mefdc19c91a" x="122.120257" y="144.977458" style="fill: #134a8e; stroke: #134a8e"/>
     <use xlink:href="#mefdc19c91a" x="123.518253" y="142.815071" style="fill: #134a8e; stroke: #134a8e"/>
     <use xlink:href="#mefdc19c91a" x="124.916249" y="142.659967" style="fill: #134a8e; stroke: #134a8e"/>
     <use xlink:href="#mefdc19c91a" x="126.314244" y="142.976012" style="fill: #134a8e; stroke: #134a8e"/>
     <use xlink:href="#mefdc19c91a" x="127.71224" y="142.525246" style="fill: #134a8e; stroke: #134a8e"/>
     <use xlink:href="#mefdc19c91a" x="129.110236" y="142.248157" style="fill: #134a8e; stroke: #134a8e"/>
     <use xlink:href="#mefdc19c91a" x="130.508231" y="142.59199" style="fill: #134a8e; stroke: #134a8e"/>
     <use xlink:href="#mefdc19c91a" x="131.906227" y="132.424637" style="fill: #134a8e; stroke: #134a8e"/>
     <use xlink:href="#mefdc19c91a" x="133.304223" y="140.722902" style="fill: #134a8e; stroke: #134a8e"/>
     <use xlink:href="#mefdc19c91a" x="134.702219" y="136.987103" style="fill: #134a8e; stroke: #134a8e"/>
     <use xlink:href="#mefdc19c91a" x="136.100214" y="137.59495" style="fill: #134a8e; stroke: #134a8e"/>
     <use xlink:href="#mefdc19c91a" x="137.49821" y="133.329933" style="fill: #134a8e; stroke: #134a8e"/>
     <use xlink:href="#mefdc19c91a" x="138.896206" y="132.93603" style="fill: #134a8e; stroke: #134a8e"/>
     <use xlink:href="#mefdc19c91a" x="140.294201" y="132.021261" style="fill: #134a8e; stroke: #134a8e"/>
     <use xlink:href="#mefdc19c91a" x="141.692197" y="131.854914" style="fill: #134a8e; stroke: #134a8e"/>
     <use xlink:href="#mefdc19c91a" x="143.090193" y="130.50642" style="fill: #134a8e; stroke: #134a8e"/>
     <use xlink:href="#mefdc19c91a" x="144.488189" y="134.280113" style="fill: #134a8e; stroke: #134a8e"/>
     <use xlink:href="#mefdc19c91a" x="145.886184" y="131.196959" style="fill: #134a8e; stroke: #134a8e"/>
     <use xlink:href="#mefdc19c91a" x="147.28418" y="102.61369" style="fill: #134a8e; stroke: #134a8e"/>
     <use xlink:href="#mefdc19c91a" x="148.682176" y="105.089633" style="fill: #134a8e; stroke: #134a8e"/>
     <use xlink:href="#mefdc19c91a" x="150.080171" y="103.592811" style="fill: #134a8e; stroke: #134a8e"/>
     <use xlink:href="#mefdc19c91a" x="151.478167" y="127.749111" style="fill: #134a8e; stroke: #134a8e"/>
     <use xlink:href="#mefdc19c91a" x="152.876163" y="127.389733" style="fill: #134a8e; stroke: #134a8e"/>
     <use xlink:href="#mefdc19c91a" x="154.274158" y="126.999608" style="fill: #134a8e; stroke: #134a8e"/>
     <use xlink:href="#mefdc19c91a" x="155.672154" y="127.568633" style="fill: #134a8e; stroke: #134a8e"/>
     <use xlink:href="#mefdc19c91a" x="157.07015" y="128.788892" style="fill: #134a8e; stroke: #134a8e"/>
     <use xlink:href="#mefdc19c91a" x="158.468146" y="128.584348" style="fill: #134a8e; stroke: #134a8e"/>
     <use xlink:href="#mefdc19c91a" x="159.866141" y="129.356018" style="fill: #134a8e; stroke: #134a8e"/>
     <use xlink:href="#mefdc19c91a" x="161.264137" y="131.712035" style="fill: #134a8e; stroke: #134a8e"/>
     <use xlink:href="#mefdc19c91a" x="162.662133" y="129.737616" style="fill: #134a8e; stroke: #134a8e"/>
     <use xlink:href="#mefdc19c91a" x="164.060128" y="128.063968" style="fill: #134a8e; stroke: #134a8e"/>
     <use xlink:href="#mefdc19c91a" x="165.458124" y="99.638229" style="fill: #134a8e; stroke: #134a8e"/>
     <use xlink:href="#mefdc19c91a" x="166.85612" y="99.086407" style="fill: #134a8e; stroke: #134a8e"/>
     <use xlink:href="#mefdc19c91a" x="168.254116" y="126.538453" style="fill: #134a8e; stroke: #134a8e"/>
     <use xlink:href="#mefdc19c91a" x="169.652111" y="127.50228" style="fill: #134a8e; stroke: #134a8e"/>
     <use xlink:href="#mefdc19c91a" x="171.050107" y="116.081918" style="fill: #134a8e; stroke: #134a8e"/>
     <use xlink:href="#mefdc19c91a" x="172.448103" y="100.203887" style="fill: #134a8e; stroke: #134a8e"/>
     <use xlink:href="#mefdc19c91a" x="173.846098" y="98.867848" style="fill: #134a8e; stroke: #134a8e"/>
     <use xlink:href="#mefdc19c91a" x="175.244094" y="118.069548" style="fill: #134a8e; stroke: #134a8e"/>
     <use xlink:href="#mefdc19c91a" x="176.64209" y="98.941335" style="fill: #134a8e; stroke: #134a8e"/>
     <use xlink:href="#mefdc19c91a" x="178.040085" y="99.852293" style="fill: #134a8e; stroke: #134a8e"/>
     <use xlink:href="#mefdc19c91a" x="179.438081" y="98.162555" style="fill: #134a8e; stroke: #134a8e"/>
     <use xlink:href="#mefdc19c91a" x="180.836077" y="98.966348" style="fill: #134a8e; stroke: #134a8e"/>
     <use xlink:href="#mefdc19c91a" x="182.234073" y="99.111322" style="fill: #134a8e; stroke: #134a8e"/>
     <use xlink:href="#mefdc19c91a" x="183.632068" y="100.516342" style="fill: #134a8e; stroke: #134a8e"/>
     <use xlink:href="#mefdc19c91a" x="185.030064" y="102.484483" style="fill: #134a8e; stroke: #134a8e"/>
     <use xlink:href="#mefdc19c91a" x="186.42806" y="101.462219" style="fill: #134a8e; stroke: #134a8e"/>
     <use xlink:href="#mefdc19c91a" x="187.826055" y="99.785733" style="fill: #134a8e; stroke: #134a8e"/>
     <use xlink:href="#mefdc19c91a" x="189.224051" y="99.431909" style="fill: #134a8e; stroke: #134a8e"/>
     <use xlink:href="#mefdc19c91a" x="190.622047" y="116.620462" style="fill: #134a8e; stroke: #134a8e"/>
     <use xlink:href="#mefdc19c91a" x="192.020043" y="117.040417" style="fill: #134a8e; stroke: #134a8e"/>
     <use xlink:href="#mefdc19c91a" x="193.418038" y="118.794925" style="fill: #134a8e; stroke: #134a8e"/>
     <use xlink:href="#mefdc19c91a" x="194.816034" y="116.956562" style="fill: #134a8e; stroke: #134a8e"/>
     <use xlink:href="#mefdc19c91a" x="196.21403" y="118.079036" style="fill: #134a8e; stroke: #134a8e"/>
     <use xlink:href="#mefdc19c91a" x="197.612025" y="126.208294" style="fill: #134a8e; stroke: #134a8e"/>
     <use xlink:href="#mefdc19c91a" x="199.010021" y="125.653818" style="fill: #134a8e; stroke: #134a8e"/>
     <use xlink:href="#mefdc19c91a" x="200.408017" y="115.991457" style="fill: #134a8e; stroke: #134a8e"/>
     <use xlink:href="#mefdc19c91a" x="201.806012" y="124.058823" style="fill: #134a8e; stroke: #134a8e"/>
     <use xlink:href="#mefdc19c91a" x="203.204008" y="112.295926" style="fill: #134a8e; stroke: #134a8e"/>
     <use xlink:href="#mefdc19c91a" x="204.602004" y="92.209822" style="fill: #134a8e; stroke: #134a8e"/>
     <use xlink:href="#mefdc19c91a" x="206" y="93.677935" style="fill: #134a8e; stroke: #134a8e"/>
     <use xlink:href="#mefdc19c91a" x="207.397995" y="88.520986" style="fill: #134a8e; stroke: #134a8e"/>
     <use xlink:href="#mefdc19c91a" x="208.795991" y="109.633441" style="fill: #134a8e; stroke: #134a8e"/>
     <use xlink:href="#mefdc19c91a" x="210.193987" y="87.823197" style="fill: #134a8e; stroke: #134a8e"/>
     <use xlink:href="#mefdc19c91a" x="211.591982" y="86.478753" style="fill: #134a8e; stroke: #134a8e"/>
     <use xlink:href="#mefdc19c91a" x="212.989978" y="86.540738" style="fill: #134a8e; stroke: #134a8e"/>
     <use xlink:href="#mefdc19c91a" x="214.387974" y="86.366128" style="fill: #134a8e; stroke: #134a8e"/>
     <use xlink:href="#mefdc19c91a" x="215.785969" y="81.991473" style="fill: #134a8e; stroke: #134a8e"/>
     <use xlink:href="#mefdc19c91a" x="217.183965" y="84.431288" style="fill: #134a8e; stroke: #134a8e"/>
     <use xlink:href="#mefdc19c91a" x="218.581961" y="85.451649" style="fill: #134a8e; stroke: #134a8e"/>
     <use xlink:href="#mefdc19c91a" x="219.979957" y="86.221114" style="fill: #134a8e; stroke: #134a8e"/>
     <use xlink:href="#mefdc19c91a" x="221.377952" y="72.806598" style="fill: #134a8e; stroke: #134a8e"/>
     <use xlink:href="#mefdc19c91a" x="222.775948" y="84.012906" style="fill: #134a8e; stroke: #134a8e"/>
     <use xlink:href="#mefdc19c91a" x="224.173944" y="85.55722" style="fill: #134a8e; stroke: #134a8e"/>
     <use xlink:href="#mefdc19c91a" x="225.571939" y="85.644871" style="fill: #134a8e; stroke: #134a8e"/>
     <use xlink:href="#mefdc19c91a" x="226.969935" y="86.812232" style="fill: #134a8e; stroke: #134a8e"/>
     <use xlink:href="#mefdc19c91a" x="228.367931" y="85.080459" style="fill: #134a8e; stroke: #134a8e"/>
     <use xlink:href="#mefdc19c91a" x="229.765927" y="84.07214" style="fill: #134a8e; stroke: #134a8e"/>
     <use xlink:href="#mefdc19c91a" x="231.163922" y="86.98063" style="fill: #134a8e; stroke: #134a8e"/>
     <use xlink:href="#mefdc19c91a" x="232.561918" y="86.911909" style="fill: #134a8e; stroke: #134a8e"/>
     <use xlink:href="#mefdc19c91a" x="233.959914" y="88.84586" style="fill: #134a8e; stroke: #134a8e"/>
     <use xlink:href="#mefdc19c91a" x="235.357909" y="89.637673" style="fill: #134a8e; stroke: #134a8e"/>
     <use xlink:href="#mefdc19c91a" x="236.755905" y="87.58075" style="fill: #134a8e; stroke: #134a8e"/>
     <use xlink:href="#mefdc19c91a" x="238.153901" y="91.016169" style="fill: #134a8e; stroke: #134a8e"/>
     <use xlink:href="#mefdc19c91a" x="239.551896" y="88.541657" style="fill: #134a8e; stroke: #134a8e"/>
     <use xlink:href="#mefdc19c91a" x="240.949892" y="121.62154" style="fill: #134a8e; stroke: #134a8e"/>
     <use xlink:href="#mefdc19c91a" x="242.347888" y="96.46831" style="fill: #134a8e; stroke: #134a8e"/>
     <use xlink:href="#mefdc19c91a" x="243.745884" y="99.118408" style="fill: #134a8e; stroke: #134a8e"/>
     <use xlink:href="#mefdc19c91a" x="245.143879" y="98.444865" style="fill: #134a8e; stroke: #134a8e"/>
     <use xlink:href="#mefdc19c91a" x="246.541875" y="92.794934" style="fill: #134a8e; stroke: #134a8e"/>
     <use xlink:href="#mefdc19c91a" x="247.939871" y="93.950085" style="fill: #134a8e; stroke: #134a8e"/>
     <use xlink:href="#mefdc19c91a" x="249.337866" y="100.168136" style="fill: #134a8e; stroke: #134a8e"/>
     <use xlink:href="#mefdc19c91a" x="250.735862" y="102.228169" style="fill: #134a8e; stroke: #134a8e"/>
     <use xlink:href="#mefdc19c91a" x="252.133858" y="112.015018" style="fill: #134a8e; stroke: #134a8e"/>
     <use xlink:href="#mefdc19c91a" x="253.531854" y="112.298163" style="fill: #134a8e; stroke: #134a8e"/>
     <use xlink:href="#mefdc19c91a" x="254.929849" y="112.977767" style="fill: #134a8e; stroke: #134a8e"/>
     <use xlink:href="#mefdc19c91a" x="256.327845" y="113.779753" style="fill: #134a8e; stroke: #134a8e"/>
     <use xlink:href="#mefdc19c91a" x="257.725841" y="114.285541" style="fill: #134a8e; stroke: #134a8e"/>
     <use xlink:href="#mefdc19c91a" x="259.123836" y="115.181285" style="fill: #134a8e; stroke: #134a8e"/>
     <use xlink:href="#mefdc19c91a" x="260.521832" y="115.768104" style="fill: #134a8e; stroke: #134a8e"/>
     <use xlink:href="#mefdc19c91a" x="261.919828" y="115.969038" style="fill: #134a8e; stroke: #134a8e"/>
     <use xlink:href="#mefdc19c91a" x="263.317823" y="115.147966" style="fill: #134a8e; stroke: #134a8e"/>
     <use xlink:href="#mefdc19c91a" x="264.715819" y="114.595529" style="fill: #134a8e; stroke: #134a8e"/>
     <use xlink:href="#mefdc19c91a" x="266.113815" y="116.687353" style="fill: #134a8e; stroke: #134a8e"/>
     <use xlink:href="#mefdc19c91a" x="267.511811" y="116.155351" style="fill: #134a8e; stroke: #134a8e"/>
     <use xlink:href="#mefdc19c91a" x="268.909806" y="116.587808" style="fill: #134a8e; stroke: #134a8e"/>
     <use xlink:href="#mefdc19c91a" x="270.307802" y="117.688759" style="fill: #134a8e; stroke: #134a8e"/>
     <use xlink:href="#mefdc19c91a" x="271.705798" y="116.64749" style="fill: #134a8e; stroke: #134a8e"/>
     <use xlink:href="#mefdc19c91a" x="273.103793" y="116.093857" style="fill: #134a8e; stroke: #134a8e"/>
     <use xlink:href="#mefdc19c91a" x="274.501789" y="116.243474" style="fill: #134a8e; stroke: #134a8e"/>
     <use xlink:href="#mefdc19c91a" x="275.899785" y="128.14255" style="fill: #134a8e; stroke: #134a8e"/>
     <use xlink:href="#mefdc19c91a" x="277.297781" y="127.930805" style="fill: #134a8e; stroke: #134a8e"/>
     <use xlink:href="#mefdc19c91a" x="278.695776" y="145.211281" style="fill: #134a8e; stroke: #134a8e"/>
     <use xlink:href="#mefdc19c91a" x="280.093772" y="147.301555" style="fill: #134a8e; stroke: #134a8e"/>
     <use xlink:href="#mefdc19c91a" x="281.491768" y="145.977409" style="fill: #134a8e; stroke: #134a8e"/>
     <use xlink:href="#mefdc19c91a" x="282.889763" y="146.544378" style="fill: #134a8e; stroke: #134a8e"/>
     <use xlink:href="#mefdc19c91a" x="284.287759" y="147.379696" style="fill: #134a8e; stroke: #134a8e"/>
     <use xlink:href="#mefdc19c91a" x="285.685755" y="147.482955" style="fill: #134a8e; stroke: #134a8e"/>
     <use xlink:href="#mefdc19c91a" x="287.08375" y="147.489467" style="fill: #134a8e; stroke: #134a8e"/>
     <use xlink:href="#mefdc19c91a" x="288.481746" y="154.569825" style="fill: #134a8e; stroke: #134a8e"/>
     <use xlink:href="#mefdc19c91a" x="289.879742" y="157.182153" style="fill: #134a8e; stroke: #134a8e"/>
     <use xlink:href="#mefdc19c91a" x="291.277738" y="157.270068" style="fill: #134a8e; stroke: #134a8e"/>
     <use xlink:href="#mefdc19c91a" x="292.675733" y="156.143489" style="fill: #134a8e; stroke: #134a8e"/>
     <use xlink:href="#mefdc19c91a" x="294.073729" y="154.772331" style="fill: #134a8e; stroke: #134a8e"/>
     <use xlink:href="#mefdc19c91a" x="295.471725" y="148.982414" style="fill: #134a8e; stroke: #134a8e"/>
     <use xlink:href="#mefdc19c91a" x="296.86972" y="148.601598" style="fill: #134a8e; stroke: #134a8e"/>
     <use xlink:href="#mefdc19c91a" x="298.267716" y="149.003" style="fill: #134a8e; stroke: #134a8e"/>
     <use xlink:href="#mefdc19c91a" x="299.665712" y="147.379214" style="fill: #134a8e; stroke: #134a8e"/>
     <use xlink:href="#mefdc19c91a" x="301.063707" y="147.393725" style="fill: #134a8e; stroke: #134a8e"/>
     <use xlink:href="#mefdc19c91a" x="302.461703" y="146.081923" style="fill: #134a8e; stroke: #134a8e"/>
     <use xlink:href="#mefdc19c91a" x="303.859699" y="145.690697" style="fill: #134a8e; stroke: #134a8e"/>
     <use xlink:href="#mefdc19c91a" x="305.257695" y="146.433941" style="fill: #134a8e; stroke: #134a8e"/>
     <use xlink:href="#mefdc19c91a" x="306.65569" y="145.989405" style="fill: #134a8e; stroke: #134a8e"/>
     <use xlink:href="#mefdc19c91a" x="308.053686" y="135.456081" style="fill: #134a8e; stroke: #134a8e"/>
     <use xlink:href="#mefdc19c91a" x="309.451682" y="131.00059" style="fill: #134a8e; stroke: #134a8e"/>
     <use xlink:href="#mefdc19c91a" x="310.849677" y="131.425517" style="fill: #134a8e; stroke: #134a8e"/>
     <use xlink:href="#mefdc19c91a" x="312.247673" y="119.052074" style="fill: #134a8e; stroke: #134a8e"/>
     <use xlink:href="#mefdc19c91a" x="313.645669" y="118.215275" style="fill: #134a8e; stroke: #134a8e"/>
     <use xlink:href="#mefdc19c91a" x="315.043665" y="118.322717" style="fill: #134a8e; stroke: #134a8e"/>
     <use xlink:href="#mefdc19c91a" x="316.44166" y="118.224642" style="fill: #134a8e; stroke: #134a8e"/>
     <use xlink:href="#mefdc19c91a" x="317.839656" y="118.77672" style="fill: #134a8e; stroke: #134a8e"/>
     <use xlink:href="#mefdc19c91a" x="319.237652" y="115.864177" style="fill: #134a8e; stroke: #134a8e"/>
     <use xlink:href="#mefdc19c91a" x="320.635647" y="118.698542" style="fill: #134a8e; stroke: #134a8e"/>
     <use xlink:href="#mefdc19c91a" x="322.033643" y="119.330697" style="fill: #134a8e; stroke: #134a8e"/>
     <use xlink:href="#mefdc19c91a" x="323.431639" y="118.983266" style="fill: #134a8e; stroke: #134a8e"/>
     <use xlink:href="#mefdc19c91a" x="324.829634" y="119.467428" style="fill: #134a8e; stroke: #134a8e"/>
     <use xlink:href="#mefdc19c91a" x="326.22763" y="118.390625" style="fill: #134a8e; stroke: #134a8e"/>
     <use xlink:href="#mefdc19c91a" x="327.625626" y="119.590811" style="fill: #134a8e; stroke: #134a8e"/>
     <use xlink:href="#mefdc19c91a" x="329.023622" y="118.666329" style="fill: #134a8e; stroke: #134a8e"/>
     <use xlink:href="#mefdc19c91a" x="330.421617" y="119.776495" style="fill: #134a8e; stroke: #134a8e"/>
     <use xlink:href="#mefdc19c91a" x="331.819613" y="133.750713" style="fill: #134a8e; stroke: #134a8e"/>
     <use xlink:href="#mefdc19c91a" x="333.217609" y="133.843236" style="fill: #134a8e; stroke: #134a8e"/>
     <use xlink:href="#mefdc19c91a" x="334.615604" y="133.911585" style="fill: #134a8e; stroke: #134a8e"/>
     <use xlink:href="#mefdc19c91a" x="336.0136" y="133.669927" style="fill: #134a8e; stroke: #134a8e"/>
     <use xlink:href="#mefdc19c91a" x="337.411596" y="155.006274" style="fill: #134a8e; stroke: #134a8e"/>
     <use xlink:href="#mefdc19c91a" x="338.809592" y="145.585239" style="fill: #134a8e; stroke: #134a8e"/>
     <use xlink:href="#mefdc19c91a" x="340.207587" y="147.780572" style="fill: #134a8e; stroke: #134a8e"/>
     <use xlink:href="#mefdc19c91a" x="341.605583" y="147.813725" style="fill: #134a8e; stroke: #134a8e"/>
     <use xlink:href="#mefdc19c91a" x="343.003579" y="148.384412" style="fill: #134a8e; stroke: #134a8e"/>
     <use xlink:href="#mefdc19c91a" x="344.401574" y="147.788808" style="fill: #134a8e; stroke: #134a8e"/>
     <use xlink:href="#mefdc19c91a" x="345.79957" y="154.465292" style="fill: #134a8e; stroke: #134a8e"/>
     <use xlink:href="#mefdc19c91a" x="347.197566" y="147.008477" style="fill: #134a8e; stroke: #134a8e"/>
     <use xlink:href="#mefdc19c91a" x="348.595561" y="144.87892" style="fill: #134a8e; stroke: #134a8e"/>
     <use xlink:href="#mefdc19c91a" x="349.993557" y="143.258035" style="fill: #134a8e; stroke: #134a8e"/>
     <use xlink:href="#mefdc19c91a" x="351.391553" y="143.073092" style="fill: #134a8e; stroke: #134a8e"/>
     <use xlink:href="#mefdc19c91a" x="352.789549" y="143.031971" style="fill: #134a8e; stroke: #134a8e"/>
     <use xlink:href="#mefdc19c91a" x="354.187544" y="111.185226" style="fill: #134a8e; stroke: #134a8e"/>
     <use xlink:href="#mefdc19c91a" x="355.58554" y="129.083569" style="fill: #134a8e; stroke: #134a8e"/>
     <use xlink:href="#mefdc19c91a" x="356.983536" y="112.164153" style="fill: #134a8e; stroke: #134a8e"/>
     <use xlink:href="#mefdc19c91a" x="358.381531" y="45.281608" style="fill: #134a8e; stroke: #134a8e"/>
     <use xlink:href="#mefdc19c91a" x="359.779527" y="45.555224" style="fill: #134a8e; stroke: #134a8e"/>
     <use xlink:href="#mefdc19c91a" x="361.177523" y="37.614858" style="fill: #134a8e; stroke: #134a8e"/>
     <use xlink:href="#mefdc19c91a" x="362.575519" y="37.704167" style="fill: #134a8e; stroke: #134a8e"/>
     <use xlink:href="#mefdc19c91a" x="363.973514" y="37.933311" style="fill: #134a8e; stroke: #134a8e"/>
     <use xlink:href="#mefdc19c91a" x="365.37151" y="32.730323" style="fill: #134a8e; stroke: #134a8e"/>
     <use xlink:href="#mefdc19c91a" x="366.769506" y="31.522944" style="fill: #134a8e; stroke: #134a8e"/>
     <use xlink:href="#mefdc19c91a" x="368.167501" y="32.615883" style="fill: #134a8e; stroke: #134a8e"/>
     <use xlink:href="#mefdc19c91a" x="369.565497" y="28.404144" style="fill: #134a8e; stroke: #134a8e"/>
     <use xlink:href="#mefdc19c91a" x="370.963493" y="28.57209" style="fill: #134a8e; stroke: #134a8e"/>
     <use xlink:href="#mefdc19c91a" x="372.361488" y="33.79001" style="fill: #134a8e; stroke: #134a8e"/>
     <use xlink:href="#mefdc19c91a" x="373.759484" y="28.54022" style="fill: #134a8e; stroke: #134a8e"/>
     <use xlink:href="#mefdc19c91a" x="375.15748" y="30.792141" style="fill: #134a8e; stroke: #134a8e"/>
     <use xlink:href="#mefdc19c91a" x="376.555476" y="27.098828" style="fill: #134a8e; stroke: #134a8e"/>
     <use xlink:href="#mefdc19c91a" x="377.953471" y="35.552021" style="fill: #134a8e; stroke: #134a8e"/>
     <use xlink:href="#mefdc19c91a" x="379.351467" y="33.778298" style="fill: #134a8e; stroke: #134a8e"/>
     <use xlink:href="#mefdc19c91a" x="380.749463" y="34.081973" style="fill: #134a8e; stroke: #134a8e"/>
     <use xlink:href="#mefdc19c91a" x="382.147458" y="31.660435" style="fill: #134a8e; stroke: #134a8e"/>
     <use xlink:href="#mefdc19c91a" x="383.545454" y="67.481187" style="fill: #134a8e; stroke: #134a8e"/>
     <use xlink:href="#mefdc19c91a" x="384.94345" y="68.889688" style="fill: #134a8e; stroke: #134a8e"/>
     <use xlink:href="#mefdc19c91a" x="386.341446" y="68.059577" style="fill: #134a8e; stroke: #134a8e"/>
     <use xlink:href="#mefdc19c91a" x="387.739441" y="63.564498" style="fill: #134a8e; stroke: #134a8e"/>
     <use xlink:href="#mefdc19c91a" x="389.137437" y="66.631528" style="fill: #134a8e; stroke: #134a8e"/>
     <use xlink:href="#mefdc19c91a" x="390.535433" y="72.853223" style="fill: #134a8e; stroke: #134a8e"/>
     <use xlink:href="#mefdc19c91a" x="391.933428" y="74.082668" style="fill: #134a8e; stroke: #134a8e"/>
     <use xlink:href="#mefdc19c91a" x="393.331424" y="108.438852" style="fill: #134a8e; stroke: #134a8e"/>
     <use xlink:href="#mefdc19c91a" x="394.72942" y="107.455392" style="fill: #134a8e; stroke: #134a8e"/>
     <use xlink:href="#mefdc19c91a" x="396.127415" y="108.983939" style="fill: #134a8e; stroke: #134a8e"/>
     <use xlink:href="#mefdc19c91a" x="397.525411" y="116.267215" style="fill: #134a8e; stroke: #134a8e"/>
     <use xlink:href="#mefdc19c91a" x="398.923407" y="128.175383" style="fill: #134a8e; stroke: #134a8e"/>
     <use xlink:href="#mefdc19c91a" x="400.321403" y="127.166462" style="fill: #134a8e; stroke: #134a8e"/>
     <use xlink:href="#mefdc19c91a" x="401.719398" y="128.159254" style="fill: #134a8e; stroke: #134a8e"/>
     <use xlink:href="#mefdc19c91a" x="403.117394" y="133.661506" style="fill: #134a8e; stroke: #134a8e"/>
     <use xlink:href="#mefdc19c91a" x="404.51539" y="136.609961" style="fill: #134a8e; stroke: #134a8e"/>
     <use xlink:href="#mefdc19c91a" x="405.913385" y="136.054139" style="fill: #134a8e; stroke: #134a8e"/>
     <use xlink:href="#mefdc19c91a" x="407.311381" y="139.878716" style="fill: #134a8e; stroke: #134a8e"/>
     <use xlink:href="#mefdc19c91a" x="408.709377" y="140.322536" style="fill: #134a8e; stroke: #134a8e"/>
     <use xlink:href="#mefdc19c91a" x="410.107372" y="140.827094" style="fill: #134a8e; stroke: #134a8e"/>
     <use xlink:href="#mefdc19c91a" x="411.505368" y="139.597547" style="fill: #134a8e; stroke: #134a8e"/>
     <use xlink:href="#mefdc19c91a" x="412.903364" y="140.551945" style="fill: #134a8e; stroke: #134a8e"/>
     <use xlink:href="#mefdc19c91a" x="414.30136" y="150.975424" style="fill: #134a8e; stroke: #134a8e"/>
     <use xlink:href="#mefdc19c91a" x="415.699355" y="142.023317" style="fill: #134a8e; stroke: #134a8e"/>
     <use xlink:href="#mefdc19c91a" x="417.097351" y="152.236909" style="fill: #134a8e; stroke: #134a8e"/>
     <use xlink:href="#mefdc19c91a" x="418.495347" y="152.437563" style="fill: #134a8e; stroke: #134a8e"/>
     <use xlink:href="#mefdc19c91a" x="419.893342" y="152.274235" style="fill: #134a8e; stroke: #134a8e"/>
     <use xlink:href="#mefdc19c91a" x="421.291338" y="152.220194" style="fill: #134a8e; stroke: #134a8e"/>
     <use xlink:href="#mefdc19c91a" x="422.689334" y="151.056191" style="fill: #134a8e; stroke: #134a8e"/>
     <use xlink:href="#mefdc19c91a" x="424.08733" y="151.152891" style="fill: #134a8e; stroke: #134a8e"/>
    </g>
   </g>
   <g id="line2d_24">
    <path d="M 68.99642 142.505649 
L 70.394416 142.577066 
L 71.792412 147.016542 
L 73.190408 146.135932 
L 74.588403 146.346195 
L 75.986399 146.301249 
L 77.384395 141.438275 
L 78.78239 141.478607 
L 81.578382 140.881429 
L 82.976378 135.866917 
L 84.374373 135.483969 
L 85.772369 139.130712 
L 87.170365 140.694009 
L 88.56836 146.032376 
L 89.966356 146.410636 
L 91.364352 146.487589 
L 92.762347 147.143979 
L 95.558339 146.618764 
L 96.956335 150.75257 
L 98.35433 151.475576 
L 99.752326 151.444196 
L 101.150322 151.554084 
L 102.548317 156.375807 
L 103.946313 156.456841 
L 105.344309 156.805516 
L 108.1403 156.250805 
L 109.538296 156.361769 
L 112.334287 156.180293 
L 113.732283 151.158158 
L 115.130279 146.734072 
L 116.528274 147.586255 
L 117.92627 146.03438 
L 119.324266 147.112699 
L 120.722262 146.9403 
L 122.120257 151.789771 
L 123.518253 147.289964 
L 124.916249 142.379177 
L 126.314244 142.037296 
L 127.71224 141.948099 
L 130.508231 142.434631 
L 131.906227 132.492164 
L 133.304223 137.273553 
L 134.702219 136.849838 
L 136.100214 137.133013 
L 137.49821 132.726686 
L 138.896206 132.625683 
L 140.294201 134.090688 
L 141.692197 130.202339 
L 144.488189 139.53164 
L 145.886184 136.402312 
L 147.28418 120.095101 
L 148.682176 116.080032 
L 150.080171 117.579333 
L 151.478167 126.58679 
L 152.876163 127.466926 
L 154.274158 131.728313 
L 155.672154 132.960865 
L 157.07015 136.324712 
L 158.468146 137.078817 
L 159.866141 137.240707 
L 161.264137 141.356819 
L 162.662133 136.735761 
L 164.060128 135.140517 
L 165.458124 119.204719 
L 166.85612 119.312143 
L 168.254116 124.465425 
L 169.652111 125.6384 
L 171.050107 122.321668 
L 172.448103 121.346795 
L 173.846098 122.43553 
L 175.244094 125.304748 
L 176.64209 114.94562 
L 178.040085 112.455649 
L 179.438081 112.909957 
L 180.836077 108.626491 
L 182.234073 106.371178 
L 183.632068 106.581081 
L 185.030064 116.934362 
L 186.42806 118.706985 
L 187.826055 122.976167 
L 189.224051 122.17118 
L 190.622047 123.953754 
L 192.020043 126.760193 
L 193.418038 126.319674 
L 194.816034 124.105141 
L 196.21403 125.443524 
L 197.612025 127.422062 
L 199.010021 127.846634 
L 200.408017 122.130993 
L 201.806012 126.208462 
L 203.204008 119.899134 
L 204.602004 116.191261 
L 206 115.164652 
L 207.397995 113.203174 
L 208.795991 117.224919 
L 210.193987 113.989592 
L 211.591982 104.347735 
L 212.989978 100.850877 
L 214.387974 95.747286 
L 215.785969 89.670959 
L 217.183965 94.565762 
L 218.581961 93.42036 
L 219.979957 93.03259 
L 221.377952 81.210424 
L 222.775948 92.360822 
L 224.173944 96.799469 
L 225.571939 97.132452 
L 226.969935 100.237566 
L 228.367931 97.826264 
L 229.765927 98.646899 
L 231.163922 105.114105 
L 232.561918 106.921369 
L 233.959914 108.425087 
L 235.357909 115.517817 
L 236.755905 111.778774 
L 238.153901 113.132274 
L 239.551896 116.216643 
L 240.949892 123.356337 
L 242.347888 120.007464 
L 243.745884 120.856215 
L 245.143879 122.50594 
L 246.541875 116.48727 
L 247.939871 116.69952 
L 249.337866 119.288034 
L 250.735862 122.815075 
L 253.531854 127.834161 
L 254.929849 128.477591 
L 257.725841 130.002749 
L 259.123836 125.120516 
L 260.521832 123.924581 
L 261.919828 124.871621 
L 263.317823 125.643935 
L 264.715819 124.694287 
L 266.113815 130.287501 
L 267.511811 130.004525 
L 268.909806 130.617934 
L 270.307802 124.57124 
L 271.705798 123.556271 
L 273.103793 134.494034 
L 274.501789 134.423674 
L 275.899785 136.537439 
L 277.297781 136.455903 
L 278.695776 147.943444 
L 280.093772 150.941888 
L 281.491768 149.079261 
L 282.889763 147.986274 
L 284.287759 149.903817 
L 285.685755 150.434224 
L 287.08375 153.041791 
L 288.481746 156.593718 
L 289.879742 158.593858 
L 291.277738 158.76 
L 292.675733 157.524565 
L 294.073729 156.587305 
L 295.471725 154.49398 
L 296.86972 155.211002 
L 298.267716 154.001251 
L 299.665712 152.583308 
L 301.063707 152.346611 
L 302.461703 150.909498 
L 303.859699 150.869977 
L 305.257695 150.164995 
L 306.65569 148.609616 
L 308.053686 141.841824 
L 309.451682 138.701271 
L 310.849677 137.981037 
L 312.247673 130.621129 
L 313.645669 129.081467 
L 315.043665 129.448483 
L 316.44166 129.159752 
L 317.839656 120.910431 
L 319.237652 121.126601 
L 322.033643 125.53325 
L 323.431639 125.26866 
L 324.829634 123.728292 
L 326.22763 120.415279 
L 327.625626 124.224366 
L 329.023622 126.524226 
L 330.421617 125.471133 
L 331.819613 135.041832 
L 333.217609 139.315312 
L 334.615604 140.157015 
L 336.0136 139.922629 
L 337.411596 156.37992 
L 338.809592 151.040063 
L 340.207587 153.49921 
L 341.605583 153.347815 
L 344.401574 153.209653 
L 345.79957 155.931946 
L 347.197566 153.552872 
L 349.993557 143.334436 
L 351.391553 143.819104 
L 352.789549 143.816226 
L 354.187544 122.601216 
L 355.58554 131.128187 
L 356.983536 125.390812 
L 358.381531 69.734864 
L 359.779527 62.231741 
L 361.177523 66.768521 
L 362.575519 66.495964 
L 363.973514 58.871694 
L 365.37151 57.089535 
L 366.769506 50.808908 
L 368.167501 54.815549 
L 369.565497 53.228222 
L 370.963493 56.263703 
L 372.361488 56.091285 
L 373.759484 41.991764 
L 375.15748 38.570538 
L 376.555476 38.953752 
L 377.953471 69.535345 
L 379.351467 64.537443 
L 380.749463 68.425615 
L 382.147458 68.522576 
L 383.545454 71.720052 
L 384.94345 75.526997 
L 386.341446 83.60041 
L 387.739441 85.547177 
L 389.137437 90.837444 
L 390.535433 94.775901 
L 391.933428 94.920955 
L 393.331424 117.067776 
L 394.72942 114.654945 
L 396.127415 122.538988 
L 397.525411 125.129551 
L 398.923407 132.347522 
L 400.321403 134.416746 
L 401.719398 134.423113 
L 403.117394 139.507423 
L 404.51539 141.898105 
L 405.913385 143.323103 
L 407.311381 146.108152 
L 408.709377 148.32951 
L 410.107372 148.596929 
L 411.505368 148.623237 
L 412.903364 148.383747 
L 414.30136 152.504163 
L 415.699355 151.374464 
L 417.097351 154.278197 
L 418.495347 154.488556 
L 419.893342 154.271545 
L 421.291338 155.278144 
L 422.689334 152.854184 
L 424.08733 152.840499 
L 424.08733 152.840499 
" clip-path="url(#p8f4cd60892)" style="fill: none; stroke-dasharray: 5.55,2.4; stroke-dashoffset: 0; stroke: #000000; stroke-width: 1.5"/>
   </g>
   <g id="patch_3">
    <path d="M 51.241875 166.32 
L 51.241875 -0 
" style="fill: none; stroke: #ffffff; stroke-linejoin: miter; stroke-linecap: square"/>
   </g>
   <g id="patch_4">
    <path d="M 441.841875 166.32 
L 441.841875 -0 
" style="fill: none; stroke: #ffffff; stroke-linejoin: miter; stroke-linecap: square"/>
   </g>
   <g id="patch_5">
    <path d="M 51.241875 166.32 
L 441.841875 166.32 
" style="fill: none; stroke: #ffffff; stroke-linejoin: miter; stroke-linecap: square"/>
   </g>
   <g id="patch_6">
    <path d="M 51.241875 0 
L 441.841875 0 
" style="fill: none; stroke: #ffffff; stroke-linejoin: miter; stroke-linecap: square"/>
   </g>
   <g id="legend_1">
    <g id="patch_7">
     <path d="M 58.241875 60.378125 
L 210.28875 60.378125 
Q 212.28875 60.378125 212.28875 58.378125 
L 212.28875 7 
Q 212.28875 5 210.28875 5 
L 58.241875 5 
Q 56.241875 5 56.241875 7 
L 56.241875 58.378125 
Q 56.241875 60.378125 58.241875 60.378125 
z
" style="fill: #e5e5e5; opacity: 0.8; stroke: #cccccc; stroke-width: 0.5; stroke-linejoin: miter"/>
    </g>
    <g id="line2d_25">
     <path d="M 60.241875 15.5 
L 70.241875 15.5 
L 80.241875 15.5 
" style="fill: none; stroke: #134a8e; stroke-width: 3; stroke-linecap: square"/>
     <g>
      <use xlink:href="#mefdc19c91a" x="70.241875" y="15.5" style="fill: #134a8e; stroke: #134a8e"/>
     </g>
    </g>
    <g id="text_14">
     <!-- Private Value $\tilde{R}_{\chi_1,\chi_3}^t$ -->
     <g transform="translate(88.241875 19) scale(0.1 -0.1)">
      <defs>
       <path id="DejaVuSans-50" d="M 1259 4147 
L 1259 2394 
L 2053 2394 
Q 2494 2394 2734 2622 
Q 2975 2850 2975 3272 
Q 2975 3691 2734 3919 
Q 2494 4147 2053 4147 
L 1259 4147 
z
M 628 4666 
L 2053 4666 
Q 2838 4666 3239 4311 
Q 3641 3956 3641 3272 
Q 3641 2581 3239 2228 
Q 2838 1875 2053 1875 
L 1259 1875 
L 1259 0 
L 628 0 
L 628 4666 
z
" transform="scale(0.015625)"/>
       <path id="DejaVuSans-72" d="M 2631 2963 
Q 2534 3019 2420 3045 
Q 2306 3072 2169 3072 
Q 1681 3072 1420 2755 
Q 1159 2438 1159 1844 
L 1159 0 
L 581 0 
L 581 3500 
L 1159 3500 
L 1159 2956 
Q 1341 3275 1631 3429 
Q 1922 3584 2338 3584 
Q 2397 3584 2469 3576 
Q 2541 3569 2628 3553 
L 2631 2963 
z
" transform="scale(0.015625)"/>
       <path id="DejaVuSans-69" d="M 603 3500 
L 1178 3500 
L 1178 0 
L 603 0 
L 603 3500 
z
M 603 4863 
L 1178 4863 
L 1178 4134 
L 603 4134 
L 603 4863 
z
" transform="scale(0.015625)"/>
       <path id="DejaVuSans-76" d="M 191 3500 
L 800 3500 
L 1894 563 
L 2988 3500 
L 3597 3500 
L 2284 0 
L 1503 0 
L 191 3500 
z
" transform="scale(0.015625)"/>
       <path id="DejaVuSans-20" transform="scale(0.015625)"/>
       <path id="DejaVuSans-303" d="M -1621 4281 
L -1799 4453 
Q -1867 4516 -1919 4545 
Q -1971 4575 -2011 4575 
Q -2130 4575 -2186 4461 
Q -2242 4347 -2249 4091 
L -2639 4091 
Q -2633 4513 -2473 4742 
Q -2314 4972 -2030 4972 
Q -1911 4972 -1811 4928 
Q -1711 4884 -1596 4781 
L -1417 4609 
Q -1349 4547 -1297 4517 
Q -1246 4488 -1205 4488 
Q -1086 4488 -1030 4602 
Q -974 4716 -967 4972 
L -577 4972 
Q -583 4550 -742 4320 
Q -902 4091 -1186 4091 
Q -1305 4091 -1405 4134 
Q -1505 4178 -1621 4281 
z
" transform="scale(0.015625)"/>
       <path id="DejaVuSans-Oblique-52" d="M 1613 4147 
L 1294 2491 
L 2106 2491 
Q 2584 2491 2879 2755 
Q 3175 3019 3175 3444 
Q 3175 3784 2976 3965 
Q 2778 4147 2406 4147 
L 1613 4147 
z
M 2772 2241 
Q 2972 2194 3105 2009 
Q 3238 1825 3413 1275 
L 3809 0 
L 3144 0 
L 2778 1197 
Q 2638 1659 2453 1815 
Q 2269 1972 1888 1972 
L 1191 1972 
L 806 0 
L 172 0 
L 1081 4666 
L 2503 4666 
Q 3150 4666 3495 4373 
Q 3841 4081 3841 3531 
Q 3841 3044 3547 2687 
Q 3253 2331 2772 2241 
z
" transform="scale(0.015625)"/>
       <path id="DejaVuSans-Oblique-74" d="M 2706 3500 
L 2619 3053 
L 1472 3053 
L 1100 1153 
Q 1081 1047 1072 975 
Q 1063 903 1063 863 
Q 1063 663 1183 572 
Q 1303 481 1569 481 
L 2150 481 
L 2053 0 
L 1503 0 
Q 991 0 739 200 
Q 488 400 488 806 
Q 488 878 497 964 
Q 506 1050 525 1153 
L 897 3053 
L 409 3053 
L 500 3500 
L 978 3500 
L 1172 4494 
L 1747 4494 
L 1556 3500 
L 2706 3500 
z
" transform="scale(0.015625)"/>
       <path id="DejaVuSans-Oblique-3c7" d="M 1922 -781 
L 1691 416 
L 394 -1334 
L -284 -1334 
L 1553 1141 
L 1269 2613 
Q 1194 3006 713 3006 
L 559 3006 
L 653 3500 
L 872 3494 
Q 1675 3472 1775 2950 
L 2006 1753 
L 3303 3503 
L 3981 3503 
L 2144 1028 
L 2428 -444 
Q 2503 -838 2984 -838 
L 3138 -838 
L 3044 -1331 
L 2825 -1325 
Q 2022 -1303 1922 -781 
z
" transform="scale(0.015625)"/>
       <path id="DejaVuSans-2c" d="M 750 794 
L 1409 794 
L 1409 256 
L 897 -744 
L 494 -744 
L 750 256 
L 750 794 
z
" transform="scale(0.015625)"/>
      </defs>
      <use xlink:href="#DejaVuSans-50" transform="translate(0 0.828125)"/>
      <use xlink:href="#DejaVuSans-72" transform="translate(60.302734 0.828125)"/>
      <use xlink:href="#DejaVuSans-69" transform="translate(101.416016 0.828125)"/>
      <use xlink:href="#DejaVuSans-76" transform="translate(129.199219 0.828125)"/>
      <use xlink:href="#DejaVuSans-61" transform="translate(188.378906 0.828125)"/>
      <use xlink:href="#DejaVuSans-74" transform="translate(249.658203 0.828125)"/>
      <use xlink:href="#DejaVuSans-65" transform="translate(288.867188 0.828125)"/>
      <use xlink:href="#DejaVuSans-20" transform="translate(350.390625 0.828125)"/>
      <use xlink:href="#DejaVuSans-56" transform="translate(382.177734 0.828125)"/>
      <use xlink:href="#DejaVuSans-61" transform="translate(450.585938 0.828125)"/>
      <use xlink:href="#DejaVuSans-6c" transform="translate(511.865234 0.828125)"/>
      <use xlink:href="#DejaVuSans-75" transform="translate(539.648438 0.828125)"/>
      <use xlink:href="#DejaVuSans-65" transform="translate(603.027344 0.828125)"/>
      <use xlink:href="#DejaVuSans-20" transform="translate(664.550781 0.828125)"/>
      <use xlink:href="#DejaVuSans-303" transform="translate(764.942871 22.3125)"/>
      <use xlink:href="#DejaVuSans-Oblique-52" transform="translate(696.337891 0.828125)"/>
      <use xlink:href="#DejaVuSans-Oblique-74" transform="translate(766.777344 39.109375) scale(0.7)"/>
      <use xlink:href="#DejaVuSans-Oblique-3c7" transform="translate(766.777344 -26.515625) scale(0.7)"/>
      <use xlink:href="#DejaVuSans-31" transform="translate(808.203125 -38) scale(0.49)"/>
      <use xlink:href="#DejaVuSans-2c" transform="translate(841.29248 -26.515625) scale(0.7)"/>
      <use xlink:href="#DejaVuSans-Oblique-3c7" transform="translate(877.181152 -26.515625) scale(0.7)"/>
      <use xlink:href="#DejaVuSans-33" transform="translate(918.606934 -38) scale(0.49)"/>
     </g>
    </g>
    <g id="line2d_26">
     <path d="M 60.241875 34 
L 70.241875 34 
L 80.241875 34 
" style="fill: none; stroke-dasharray: 5.55,2.4; stroke-dashoffset: 0; stroke: #000000; stroke-width: 1.5"/>
    </g>
    <g id="text_15">
     <!-- Original Value $\bar{R}_{\chi_1,\chi_3}^t$ -->
     <g transform="translate(88.241875 37.5) scale(0.1 -0.1)">
      <defs>
       <path id="DejaVuSans-4f" d="M 2522 4238 
Q 1834 4238 1429 3725 
Q 1025 3213 1025 2328 
Q 1025 1447 1429 934 
Q 1834 422 2522 422 
Q 3209 422 3611 934 
Q 4013 1447 4013 2328 
Q 4013 3213 3611 3725 
Q 3209 4238 2522 4238 
z
M 2522 4750 
Q 3503 4750 4090 4092 
Q 4678 3434 4678 2328 
Q 4678 1225 4090 567 
Q 3503 -91 2522 -91 
Q 1538 -91 948 565 
Q 359 1222 359 2328 
Q 359 3434 948 4092 
Q 1538 4750 2522 4750 
z
" transform="scale(0.015625)"/>
       <path id="DejaVuSans-67" d="M 2906 1791 
Q 2906 2416 2648 2759 
Q 2391 3103 1925 3103 
Q 1463 3103 1205 2759 
Q 947 2416 947 1791 
Q 947 1169 1205 825 
Q 1463 481 1925 481 
Q 2391 481 2648 825 
Q 2906 1169 2906 1791 
z
M 3481 434 
Q 3481 -459 3084 -895 
Q 2688 -1331 1869 -1331 
Q 1566 -1331 1297 -1286 
Q 1028 -1241 775 -1147 
L 775 -588 
Q 1028 -725 1275 -790 
Q 1522 -856 1778 -856 
Q 2344 -856 2625 -561 
Q 2906 -266 2906 331 
L 2906 616 
Q 2728 306 2450 153 
Q 2172 0 1784 0 
Q 1141 0 747 490 
Q 353 981 353 1791 
Q 353 2603 747 3093 
Q 1141 3584 1784 3584 
Q 2172 3584 2450 3431 
Q 2728 3278 2906 2969 
L 2906 3500 
L 3481 3500 
L 3481 434 
z
" transform="scale(0.015625)"/>
       <path id="DejaVuSans-6e" d="M 3513 2113 
L 3513 0 
L 2938 0 
L 2938 2094 
Q 2938 2591 2744 2837 
Q 2550 3084 2163 3084 
Q 1697 3084 1428 2787 
Q 1159 2491 1159 1978 
L 1159 0 
L 581 0 
L 581 3500 
L 1159 3500 
L 1159 2956 
Q 1366 3272 1645 3428 
Q 1925 3584 2291 3584 
Q 2894 3584 3203 3211 
Q 3513 2838 3513 2113 
z
" transform="scale(0.015625)"/>
       <path id="DejaVuSans-304" d="M -2518 4769 
L -650 4769 
L -650 4306 
L -2518 4306 
L -2518 4769 
z
" transform="scale(0.015625)"/>
      </defs>
      <use xlink:href="#DejaVuSans-4f" transform="translate(0 0.359375)"/>
      <use xlink:href="#DejaVuSans-72" transform="translate(78.710938 0.359375)"/>
      <use xlink:href="#DejaVuSans-69" transform="translate(119.824219 0.359375)"/>
      <use xlink:href="#DejaVuSans-67" transform="translate(147.607422 0.359375)"/>
      <use xlink:href="#DejaVuSans-69" transform="translate(211.083984 0.359375)"/>
      <use xlink:href="#DejaVuSans-6e" transform="translate(238.867188 0.359375)"/>
      <use xlink:href="#DejaVuSans-61" transform="translate(302.246094 0.359375)"/>
      <use xlink:href="#DejaVuSans-6c" transform="translate(363.525391 0.359375)"/>
      <use xlink:href="#DejaVuSans-20" transform="translate(391.308594 0.359375)"/>
      <use xlink:href="#DejaVuSans-56" transform="translate(423.095703 0.359375)"/>
      <use xlink:href="#DejaVuSans-61" transform="translate(491.503906 0.359375)"/>
      <use xlink:href="#DejaVuSans-6c" transform="translate(552.783203 0.359375)"/>
      <use xlink:href="#DejaVuSans-75" transform="translate(580.566406 0.359375)"/>
      <use xlink:href="#DejaVuSans-65" transform="translate(643.945312 0.359375)"/>
      <use xlink:href="#DejaVuSans-20" transform="translate(705.46875 0.359375)"/>
      <use xlink:href="#DejaVuSans-304" transform="translate(804.970215 18.484375)"/>
      <use xlink:href="#DejaVuSans-Oblique-52" transform="translate(737.255859 0.359375)"/>
      <use xlink:href="#DejaVuSans-Oblique-74" transform="translate(807.695312 38.640625) scale(0.7)"/>
      <use xlink:href="#DejaVuSans-Oblique-3c7" transform="translate(807.695312 -26.984375) scale(0.7)"/>
      <use xlink:href="#DejaVuSans-31" transform="translate(849.121094 -38.46875) scale(0.49)"/>
      <use xlink:href="#DejaVuSans-2c" transform="translate(882.210449 -26.984375) scale(0.7)"/>
      <use xlink:href="#DejaVuSans-Oblique-3c7" transform="translate(918.099121 -26.984375) scale(0.7)"/>
      <use xlink:href="#DejaVuSans-33" transform="translate(959.524902 -38.46875) scale(0.49)"/>
     </g>
    </g>
    <g id="patch_8">
     <path d="M 60.241875 54.298438 
L 80.241875 54.298438 
L 80.241875 47.298438 
L 60.241875 47.298438 
z
" style="fill: #134a8e; fill-opacity: 0.5; stroke: #134a8e; stroke-opacity: 0.5; stroke-width: 0.5; stroke-linejoin: miter"/>
    </g>
    <g id="text_16">
     <!-- One Standard Deviation -->
     <g transform="translate(88.241875 54.298438) scale(0.1 -0.1)">
      <defs>
       <path id="DejaVuSans-53" d="M 3425 4513 
L 3425 3897 
Q 3066 4069 2747 4153 
Q 2428 4238 2131 4238 
Q 1616 4238 1336 4038 
Q 1056 3838 1056 3469 
Q 1056 3159 1242 3001 
Q 1428 2844 1947 2747 
L 2328 2669 
Q 3034 2534 3370 2195 
Q 3706 1856 3706 1288 
Q 3706 609 3251 259 
Q 2797 -91 1919 -91 
Q 1588 -91 1214 -16 
Q 841 59 441 206 
L 441 856 
Q 825 641 1194 531 
Q 1563 422 1919 422 
Q 2459 422 2753 634 
Q 3047 847 3047 1241 
Q 3047 1584 2836 1778 
Q 2625 1972 2144 2069 
L 1759 2144 
Q 1053 2284 737 2584 
Q 422 2884 422 3419 
Q 422 4038 858 4394 
Q 1294 4750 2059 4750 
Q 2388 4750 2728 4690 
Q 3069 4631 3425 4513 
z
" transform="scale(0.015625)"/>
       <path id="DejaVuSans-64" d="M 2906 2969 
L 2906 4863 
L 3481 4863 
L 3481 0 
L 2906 0 
L 2906 525 
Q 2725 213 2448 61 
Q 2172 -91 1784 -91 
Q 1150 -91 751 415 
Q 353 922 353 1747 
Q 353 2572 751 3078 
Q 1150 3584 1784 3584 
Q 2172 3584 2448 3432 
Q 2725 3281 2906 2969 
z
M 947 1747 
Q 947 1113 1208 752 
Q 1469 391 1925 391 
Q 2381 391 2643 752 
Q 2906 1113 2906 1747 
Q 2906 2381 2643 2742 
Q 2381 3103 1925 3103 
Q 1469 3103 1208 2742 
Q 947 2381 947 1747 
z
" transform="scale(0.015625)"/>
       <path id="DejaVuSans-6f" d="M 1959 3097 
Q 1497 3097 1228 2736 
Q 959 2375 959 1747 
Q 959 1119 1226 758 
Q 1494 397 1959 397 
Q 2419 397 2687 759 
Q 2956 1122 2956 1747 
Q 2956 2369 2687 2733 
Q 2419 3097 1959 3097 
z
M 1959 3584 
Q 2709 3584 3137 3096 
Q 3566 2609 3566 1747 
Q 3566 888 3137 398 
Q 2709 -91 1959 -91 
Q 1206 -91 779 398 
Q 353 888 353 1747 
Q 353 2609 779 3096 
Q 1206 3584 1959 3584 
z
" transform="scale(0.015625)"/>
      </defs>
      <use xlink:href="#DejaVuSans-4f"/>
      <use xlink:href="#DejaVuSans-6e" x="78.710938"/>
      <use xlink:href="#DejaVuSans-65" x="142.089844"/>
      <use xlink:href="#DejaVuSans-20" x="203.613281"/>
      <use xlink:href="#DejaVuSans-53" x="235.400391"/>
      <use xlink:href="#DejaVuSans-74" x="298.876953"/>
      <use xlink:href="#DejaVuSans-61" x="338.085938"/>
      <use xlink:href="#DejaVuSans-6e" x="399.365234"/>
      <use xlink:href="#DejaVuSans-64" x="462.744141"/>
      <use xlink:href="#DejaVuSans-61" x="526.220703"/>
      <use xlink:href="#DejaVuSans-72" x="587.5"/>
      <use xlink:href="#DejaVuSans-64" x="626.863281"/>
      <use xlink:href="#DejaVuSans-20" x="690.339844"/>
      <use xlink:href="#DejaVuSans-44" x="722.126953"/>
      <use xlink:href="#DejaVuSans-65" x="799.128906"/>
      <use xlink:href="#DejaVuSans-76" x="860.652344"/>
      <use xlink:href="#DejaVuSans-69" x="919.832031"/>
      <use xlink:href="#DejaVuSans-61" x="947.615234"/>
      <use xlink:href="#DejaVuSans-74" x="1008.894531"/>
      <use xlink:href="#DejaVuSans-69" x="1048.103516"/>
      <use xlink:href="#DejaVuSans-6f" x="1075.886719"/>
      <use xlink:href="#DejaVuSans-6e" x="1137.068359"/>
     </g>
    </g>
   </g>
  </g>
 </g>
 <defs>
  <clipPath id="p8f4cd60892">
   <rect x="51.241875" y="0" width="390.6" height="166.32"/>
  </clipPath>
 </defs>
</svg>
