<?xml version="1.0" encoding="utf-8" standalone="no"?>
<!DOCTYPE svg PUBLIC "-//W3C//DTD SVG 1.1//EN"
  "http://www.w3.org/Graphics/SVG/1.1/DTD/svg11.dtd">
<svg xmlns:xlink="http://www.w3.org/1999/xlink" width="450.737567pt" height="201.899173pt" viewBox="0 0 450.737567 201.899173" xmlns="http://www.w3.org/2000/svg" version="1.1">
 <metadata>
  <rdf:RDF xmlns:dc="http://purl.org/dc/elements/1.1/" xmlns:cc="http://creativecommons.org/ns#" xmlns:rdf="http://www.w3.org/1999/02/22-rdf-syntax-ns#">
   <cc:Work>
    <dc:type rdf:resource="http://purl.org/dc/dcmitype/StillImage"/>
    <dc:date>2024-09-18T15:47:41.140266</dc:date>
    <dc:format>image/svg+xml</dc:format>
    <dc:creator>
     <cc:Agent>
      <dc:title>Matplotlib v3.7.5, https://matplotlib.org/</dc:title>
     </cc:Agent>
    </dc:creator>
   </cc:Work>
  </rdf:RDF>
 </metadata>
 <defs>
  <style type="text/css">*{stroke-linejoin: round; stroke-linecap: butt}</style>
 </defs>
 <g id="figure_1">
  <g id="patch_1">
   <path d="M 0 201.899173 
L 450.737567 201.899173 
L 450.737567 0 
L 0 0 
z
" style="fill: #ffffff"/>
  </g>
  <g id="axes_1">
   <g id="patch_2">
    <path d="M 51.241875 169.607298 
L 441.841875 169.607298 
L 441.841875 3.287298 
L 51.241875 3.287298 
z
" style="fill: #e5e5e5"/>
   </g>
   <g id="matplotlib.axis_1">
    <g id="xtick_1">
     <g id="line2d_1">
      <path d="M 78.78239 169.607298 
L 78.78239 3.287298 
" clip-path="url(#p5b2a4ffdc2)" style="fill: none; stroke: #ffffff; stroke-width: 0.8; stroke-linecap: square"/>
     </g>
     <g id="line2d_2">
      <defs>
       <path id="m1eae83489f" d="M 0 0 
L 0 3.5 
" style="stroke: #555555; stroke-width: 0.8"/>
      </defs>
      <g>
       <use xlink:href="#m1eae83489f" x="78.78239" y="169.607298" style="fill: #555555; stroke: #555555; stroke-width: 0.8"/>
      </g>
     </g>
     <g id="text_1">
      <!-- 08/16/20 -->
      <g style="fill: #555555" transform="translate(56.32614 184.205736) scale(0.1 -0.1)">
       <defs>
        <path id="DejaVuSans-30" d="M 2034 4250 
Q 1547 4250 1301 3770 
Q 1056 3291 1056 2328 
Q 1056 1369 1301 889 
Q 1547 409 2034 409 
Q 2525 409 2770 889 
Q 3016 1369 3016 2328 
Q 3016 3291 2770 3770 
Q 2525 4250 2034 4250 
z
M 2034 4750 
Q 2819 4750 3233 4129 
Q 3647 3509 3647 2328 
Q 3647 1150 3233 529 
Q 2819 -91 2034 -91 
Q 1250 -91 836 529 
Q 422 1150 422 2328 
Q 422 3509 836 4129 
Q 1250 4750 2034 4750 
z
" transform="scale(0.015625)"/>
        <path id="DejaVuSans-38" d="M 2034 2216 
Q 1584 2216 1326 1975 
Q 1069 1734 1069 1313 
Q 1069 891 1326 650 
Q 1584 409 2034 409 
Q 2484 409 2743 651 
Q 3003 894 3003 1313 
Q 3003 1734 2745 1975 
Q 2488 2216 2034 2216 
z
M 1403 2484 
Q 997 2584 770 2862 
Q 544 3141 544 3541 
Q 544 4100 942 4425 
Q 1341 4750 2034 4750 
Q 2731 4750 3128 4425 
Q 3525 4100 3525 3541 
Q 3525 3141 3298 2862 
Q 3072 2584 2669 2484 
Q 3125 2378 3379 2068 
Q 3634 1759 3634 1313 
Q 3634 634 3220 271 
Q 2806 -91 2034 -91 
Q 1263 -91 848 271 
Q 434 634 434 1313 
Q 434 1759 690 2068 
Q 947 2378 1403 2484 
z
M 1172 3481 
Q 1172 3119 1398 2916 
Q 1625 2713 2034 2713 
Q 2441 2713 2670 2916 
Q 2900 3119 2900 3481 
Q 2900 3844 2670 4047 
Q 2441 4250 2034 4250 
Q 1625 4250 1398 4047 
Q 1172 3844 1172 3481 
z
" transform="scale(0.015625)"/>
        <path id="DejaVuSans-2f" d="M 1625 4666 
L 2156 4666 
L 531 -594 
L 0 -594 
L 1625 4666 
z
" transform="scale(0.015625)"/>
        <path id="DejaVuSans-31" d="M 794 531 
L 1825 531 
L 1825 4091 
L 703 3866 
L 703 4441 
L 1819 4666 
L 2450 4666 
L 2450 531 
L 3481 531 
L 3481 0 
L 794 0 
L 794 531 
z
" transform="scale(0.015625)"/>
        <path id="DejaVuSans-36" d="M 2113 2584 
Q 1688 2584 1439 2293 
Q 1191 2003 1191 1497 
Q 1191 994 1439 701 
Q 1688 409 2113 409 
Q 2538 409 2786 701 
Q 3034 994 3034 1497 
Q 3034 2003 2786 2293 
Q 2538 2584 2113 2584 
z
M 3366 4563 
L 3366 3988 
Q 3128 4100 2886 4159 
Q 2644 4219 2406 4219 
Q 1781 4219 1451 3797 
Q 1122 3375 1075 2522 
Q 1259 2794 1537 2939 
Q 1816 3084 2150 3084 
Q 2853 3084 3261 2657 
Q 3669 2231 3669 1497 
Q 3669 778 3244 343 
Q 2819 -91 2113 -91 
Q 1303 -91 875 529 
Q 447 1150 447 2328 
Q 447 3434 972 4092 
Q 1497 4750 2381 4750 
Q 2619 4750 2861 4703 
Q 3103 4656 3366 4563 
z
" transform="scale(0.015625)"/>
        <path id="DejaVuSans-32" d="M 1228 531 
L 3431 531 
L 3431 0 
L 469 0 
L 469 531 
Q 828 903 1448 1529 
Q 2069 2156 2228 2338 
Q 2531 2678 2651 2914 
Q 2772 3150 2772 3378 
Q 2772 3750 2511 3984 
Q 2250 4219 1831 4219 
Q 1534 4219 1204 4116 
Q 875 4013 500 3803 
L 500 4441 
Q 881 4594 1212 4672 
Q 1544 4750 1819 4750 
Q 2544 4750 2975 4387 
Q 3406 4025 3406 3419 
Q 3406 3131 3298 2873 
Q 3191 2616 2906 2266 
Q 2828 2175 2409 1742 
Q 1991 1309 1228 531 
z
" transform="scale(0.015625)"/>
       </defs>
       <use xlink:href="#DejaVuSans-30"/>
       <use xlink:href="#DejaVuSans-38" x="63.623047"/>
       <use xlink:href="#DejaVuSans-2f" x="127.246094"/>
       <use xlink:href="#DejaVuSans-31" x="160.9375"/>
       <use xlink:href="#DejaVuSans-36" x="224.560547"/>
       <use xlink:href="#DejaVuSans-2f" x="288.183594"/>
       <use xlink:href="#DejaVuSans-32" x="321.875"/>
       <use xlink:href="#DejaVuSans-30" x="385.498047"/>
      </g>
     </g>
    </g>
    <g id="xtick_2">
     <g id="line2d_3">
      <path d="M 148.682176 169.607298 
L 148.682176 3.287298 
" clip-path="url(#p5b2a4ffdc2)" style="fill: none; stroke: #ffffff; stroke-width: 0.8; stroke-linecap: square"/>
     </g>
     <g id="line2d_4">
      <g>
       <use xlink:href="#m1eae83489f" x="148.682176" y="169.607298" style="fill: #555555; stroke: #555555; stroke-width: 0.8"/>
      </g>
     </g>
     <g id="text_2">
      <!-- 10/05/20 -->
      <g style="fill: #555555" transform="translate(126.225926 184.205736) scale(0.1 -0.1)">
       <defs>
        <path id="DejaVuSans-35" d="M 691 4666 
L 3169 4666 
L 3169 4134 
L 1269 4134 
L 1269 2991 
Q 1406 3038 1543 3061 
Q 1681 3084 1819 3084 
Q 2600 3084 3056 2656 
Q 3513 2228 3513 1497 
Q 3513 744 3044 326 
Q 2575 -91 1722 -91 
Q 1428 -91 1123 -41 
Q 819 9 494 109 
L 494 744 
Q 775 591 1075 516 
Q 1375 441 1709 441 
Q 2250 441 2565 725 
Q 2881 1009 2881 1497 
Q 2881 1984 2565 2268 
Q 2250 2553 1709 2553 
Q 1456 2553 1204 2497 
Q 953 2441 691 2322 
L 691 4666 
z
" transform="scale(0.015625)"/>
       </defs>
       <use xlink:href="#DejaVuSans-31"/>
       <use xlink:href="#DejaVuSans-30" x="63.623047"/>
       <use xlink:href="#DejaVuSans-2f" x="127.246094"/>
       <use xlink:href="#DejaVuSans-30" x="160.9375"/>
       <use xlink:href="#DejaVuSans-35" x="224.560547"/>
       <use xlink:href="#DejaVuSans-2f" x="288.183594"/>
       <use xlink:href="#DejaVuSans-32" x="321.875"/>
       <use xlink:href="#DejaVuSans-30" x="385.498047"/>
      </g>
     </g>
    </g>
    <g id="xtick_3">
     <g id="line2d_5">
      <path d="M 218.581961 169.607298 
L 218.581961 3.287298 
" clip-path="url(#p5b2a4ffdc2)" style="fill: none; stroke: #ffffff; stroke-width: 0.8; stroke-linecap: square"/>
     </g>
     <g id="line2d_6">
      <g>
       <use xlink:href="#m1eae83489f" x="218.581961" y="169.607298" style="fill: #555555; stroke: #555555; stroke-width: 0.8"/>
      </g>
     </g>
     <g id="text_3">
      <!-- 11/24/20 -->
      <g style="fill: #555555" transform="translate(196.125711 184.205736) scale(0.1 -0.1)">
       <defs>
        <path id="DejaVuSans-34" d="M 2419 4116 
L 825 1625 
L 2419 1625 
L 2419 4116 
z
M 2253 4666 
L 3047 4666 
L 3047 1625 
L 3713 1625 
L 3713 1100 
L 3047 1100 
L 3047 0 
L 2419 0 
L 2419 1100 
L 313 1100 
L 313 1709 
L 2253 4666 
z
" transform="scale(0.015625)"/>
       </defs>
       <use xlink:href="#DejaVuSans-31"/>
       <use xlink:href="#DejaVuSans-31" x="63.623047"/>
       <use xlink:href="#DejaVuSans-2f" x="127.246094"/>
       <use xlink:href="#DejaVuSans-32" x="160.9375"/>
       <use xlink:href="#DejaVuSans-34" x="224.560547"/>
       <use xlink:href="#DejaVuSans-2f" x="288.183594"/>
       <use xlink:href="#DejaVuSans-32" x="321.875"/>
       <use xlink:href="#DejaVuSans-30" x="385.498047"/>
      </g>
     </g>
    </g>
    <g id="xtick_4">
     <g id="line2d_7">
      <path d="M 288.481746 169.607298 
L 288.481746 3.287298 
" clip-path="url(#p5b2a4ffdc2)" style="fill: none; stroke: #ffffff; stroke-width: 0.8; stroke-linecap: square"/>
     </g>
     <g id="line2d_8">
      <g>
       <use xlink:href="#m1eae83489f" x="288.481746" y="169.607298" style="fill: #555555; stroke: #555555; stroke-width: 0.8"/>
      </g>
     </g>
     <g id="text_4">
      <!-- 01/13/21 -->
      <g style="fill: #555555" transform="translate(266.025496 184.205736) scale(0.1 -0.1)">
       <defs>
        <path id="DejaVuSans-33" d="M 2597 2516 
Q 3050 2419 3304 2112 
Q 3559 1806 3559 1356 
Q 3559 666 3084 287 
Q 2609 -91 1734 -91 
Q 1441 -91 1130 -33 
Q 819 25 488 141 
L 488 750 
Q 750 597 1062 519 
Q 1375 441 1716 441 
Q 2309 441 2620 675 
Q 2931 909 2931 1356 
Q 2931 1769 2642 2001 
Q 2353 2234 1838 2234 
L 1294 2234 
L 1294 2753 
L 1863 2753 
Q 2328 2753 2575 2939 
Q 2822 3125 2822 3475 
Q 2822 3834 2567 4026 
Q 2313 4219 1838 4219 
Q 1578 4219 1281 4162 
Q 984 4106 628 3988 
L 628 4550 
Q 988 4650 1302 4700 
Q 1616 4750 1894 4750 
Q 2613 4750 3031 4423 
Q 3450 4097 3450 3541 
Q 3450 3153 3228 2886 
Q 3006 2619 2597 2516 
z
" transform="scale(0.015625)"/>
       </defs>
       <use xlink:href="#DejaVuSans-30"/>
       <use xlink:href="#DejaVuSans-31" x="63.623047"/>
       <use xlink:href="#DejaVuSans-2f" x="127.246094"/>
       <use xlink:href="#DejaVuSans-31" x="160.9375"/>
       <use xlink:href="#DejaVuSans-33" x="224.560547"/>
       <use xlink:href="#DejaVuSans-2f" x="288.183594"/>
       <use xlink:href="#DejaVuSans-32" x="321.875"/>
       <use xlink:href="#DejaVuSans-31" x="385.498047"/>
      </g>
     </g>
    </g>
    <g id="xtick_5">
     <g id="line2d_9">
      <path d="M 358.381531 169.607298 
L 358.381531 3.287298 
" clip-path="url(#p5b2a4ffdc2)" style="fill: none; stroke: #ffffff; stroke-width: 0.8; stroke-linecap: square"/>
     </g>
     <g id="line2d_10">
      <g>
       <use xlink:href="#m1eae83489f" x="358.381531" y="169.607298" style="fill: #555555; stroke: #555555; stroke-width: 0.8"/>
      </g>
     </g>
     <g id="text_5">
      <!-- 03/04/21 -->
      <g style="fill: #555555" transform="translate(335.925281 184.205736) scale(0.1 -0.1)">
       <use xlink:href="#DejaVuSans-30"/>
       <use xlink:href="#DejaVuSans-33" x="63.623047"/>
       <use xlink:href="#DejaVuSans-2f" x="127.246094"/>
       <use xlink:href="#DejaVuSans-30" x="160.9375"/>
       <use xlink:href="#DejaVuSans-34" x="224.560547"/>
       <use xlink:href="#DejaVuSans-2f" x="288.183594"/>
       <use xlink:href="#DejaVuSans-32" x="321.875"/>
       <use xlink:href="#DejaVuSans-31" x="385.498047"/>
      </g>
     </g>
    </g>
    <g id="xtick_6">
     <g id="line2d_11">
      <path d="M 428.281317 169.607298 
L 428.281317 3.287298 
" clip-path="url(#p5b2a4ffdc2)" style="fill: none; stroke: #ffffff; stroke-width: 0.8; stroke-linecap: square"/>
     </g>
     <g id="line2d_12">
      <g>
       <use xlink:href="#m1eae83489f" x="428.281317" y="169.607298" style="fill: #555555; stroke: #555555; stroke-width: 0.8"/>
      </g>
     </g>
     <g id="text_6">
      <!-- 04/23/21 -->
      <g style="fill: #555555" transform="translate(405.825067 184.205736) scale(0.1 -0.1)">
       <use xlink:href="#DejaVuSans-30"/>
       <use xlink:href="#DejaVuSans-34" x="63.623047"/>
       <use xlink:href="#DejaVuSans-2f" x="127.246094"/>
       <use xlink:href="#DejaVuSans-32" x="160.9375"/>
       <use xlink:href="#DejaVuSans-33" x="224.560547"/>
       <use xlink:href="#DejaVuSans-2f" x="288.183594"/>
       <use xlink:href="#DejaVuSans-32" x="321.875"/>
       <use xlink:href="#DejaVuSans-31" x="385.498047"/>
      </g>
     </g>
    </g>
    <g id="text_7">
     <!-- Date -->
     <g style="fill: #555555" transform="translate(232.200938 199.403548) scale(0.12 -0.12)">
      <defs>
       <path id="DejaVuSans-44" d="M 1259 4147 
L 1259 519 
L 2022 519 
Q 2988 519 3436 956 
Q 3884 1394 3884 2338 
Q 3884 3275 3436 3711 
Q 2988 4147 2022 4147 
L 1259 4147 
z
M 628 4666 
L 1925 4666 
Q 3281 4666 3915 4102 
Q 4550 3538 4550 2338 
Q 4550 1131 3912 565 
Q 3275 0 1925 0 
L 628 0 
L 628 4666 
z
" transform="scale(0.015625)"/>
       <path id="DejaVuSans-61" d="M 2194 1759 
Q 1497 1759 1228 1600 
Q 959 1441 959 1056 
Q 959 750 1161 570 
Q 1363 391 1709 391 
Q 2188 391 2477 730 
Q 2766 1069 2766 1631 
L 2766 1759 
L 2194 1759 
z
M 3341 1997 
L 3341 0 
L 2766 0 
L 2766 531 
Q 2569 213 2275 61 
Q 1981 -91 1556 -91 
Q 1019 -91 701 211 
Q 384 513 384 1019 
Q 384 1609 779 1909 
Q 1175 2209 1959 2209 
L 2766 2209 
L 2766 2266 
Q 2766 2663 2505 2880 
Q 2244 3097 1772 3097 
Q 1472 3097 1187 3025 
Q 903 2953 641 2809 
L 641 3341 
Q 956 3463 1253 3523 
Q 1550 3584 1831 3584 
Q 2591 3584 2966 3190 
Q 3341 2797 3341 1997 
z
" transform="scale(0.015625)"/>
       <path id="DejaVuSans-74" d="M 1172 4494 
L 1172 3500 
L 2356 3500 
L 2356 3053 
L 1172 3053 
L 1172 1153 
Q 1172 725 1289 603 
Q 1406 481 1766 481 
L 2356 481 
L 2356 0 
L 1766 0 
Q 1100 0 847 248 
Q 594 497 594 1153 
L 594 3053 
L 172 3053 
L 172 3500 
L 594 3500 
L 594 4494 
L 1172 4494 
z
" transform="scale(0.015625)"/>
       <path id="DejaVuSans-65" d="M 3597 1894 
L 3597 1613 
L 953 1613 
Q 991 1019 1311 708 
Q 1631 397 2203 397 
Q 2534 397 2845 478 
Q 3156 559 3463 722 
L 3463 178 
Q 3153 47 2828 -22 
Q 2503 -91 2169 -91 
Q 1331 -91 842 396 
Q 353 884 353 1716 
Q 353 2575 817 3079 
Q 1281 3584 2069 3584 
Q 2775 3584 3186 3129 
Q 3597 2675 3597 1894 
z
M 3022 2063 
Q 3016 2534 2758 2815 
Q 2500 3097 2075 3097 
Q 1594 3097 1305 2825 
Q 1016 2553 972 2059 
L 3022 2063 
z
" transform="scale(0.015625)"/>
      </defs>
      <use xlink:href="#DejaVuSans-44"/>
      <use xlink:href="#DejaVuSans-61" x="77.001953"/>
      <use xlink:href="#DejaVuSans-74" x="138.28125"/>
      <use xlink:href="#DejaVuSans-65" x="177.490234"/>
     </g>
    </g>
   </g>
   <g id="matplotlib.axis_2">
    <g id="ytick_1">
     <g id="line2d_13">
      <path d="M 51.241875 164.487448 
L 441.841875 164.487448 
" clip-path="url(#p5b2a4ffdc2)" style="fill: none; stroke: #ffffff; stroke-width: 0.8; stroke-linecap: square"/>
     </g>
     <g id="line2d_14">
      <defs>
       <path id="m725485df40" d="M 0 0 
L -3.5 0 
" style="stroke: #555555; stroke-width: 0.8"/>
      </defs>
      <g>
       <use xlink:href="#m725485df40" x="51.241875" y="164.487448" style="fill: #555555; stroke: #555555; stroke-width: 0.8"/>
      </g>
     </g>
     <g id="text_8">
      <!-- 0.000 -->
      <g style="fill: #555555" transform="translate(15.61375 168.286666) scale(0.1 -0.1)">
       <defs>
        <path id="DejaVuSans-2e" d="M 684 794 
L 1344 794 
L 1344 0 
L 684 0 
L 684 794 
z
" transform="scale(0.015625)"/>
       </defs>
       <use xlink:href="#DejaVuSans-30"/>
       <use xlink:href="#DejaVuSans-2e" x="63.623047"/>
       <use xlink:href="#DejaVuSans-30" x="95.410156"/>
       <use xlink:href="#DejaVuSans-30" x="159.033203"/>
       <use xlink:href="#DejaVuSans-30" x="222.65625"/>
      </g>
     </g>
    </g>
    <g id="ytick_2">
     <g id="line2d_15">
      <path d="M 51.241875 132.349802 
L 441.841875 132.349802 
" clip-path="url(#p5b2a4ffdc2)" style="fill: none; stroke: #ffffff; stroke-width: 0.8; stroke-linecap: square"/>
     </g>
     <g id="line2d_16">
      <g>
       <use xlink:href="#m725485df40" x="51.241875" y="132.349802" style="fill: #555555; stroke: #555555; stroke-width: 0.8"/>
      </g>
     </g>
     <g id="text_9">
      <!-- 0.005 -->
      <g style="fill: #555555" transform="translate(15.61375 136.149021) scale(0.1 -0.1)">
       <use xlink:href="#DejaVuSans-30"/>
       <use xlink:href="#DejaVuSans-2e" x="63.623047"/>
       <use xlink:href="#DejaVuSans-30" x="95.410156"/>
       <use xlink:href="#DejaVuSans-30" x="159.033203"/>
       <use xlink:href="#DejaVuSans-35" x="222.65625"/>
      </g>
     </g>
    </g>
    <g id="ytick_3">
     <g id="line2d_17">
      <path d="M 51.241875 100.212156 
L 441.841875 100.212156 
" clip-path="url(#p5b2a4ffdc2)" style="fill: none; stroke: #ffffff; stroke-width: 0.8; stroke-linecap: square"/>
     </g>
     <g id="line2d_18">
      <g>
       <use xlink:href="#m725485df40" x="51.241875" y="100.212156" style="fill: #555555; stroke: #555555; stroke-width: 0.8"/>
      </g>
     </g>
     <g id="text_10">
      <!-- 0.010 -->
      <g style="fill: #555555" transform="translate(15.61375 104.011375) scale(0.1 -0.1)">
       <use xlink:href="#DejaVuSans-30"/>
       <use xlink:href="#DejaVuSans-2e" x="63.623047"/>
       <use xlink:href="#DejaVuSans-30" x="95.410156"/>
       <use xlink:href="#DejaVuSans-31" x="159.033203"/>
       <use xlink:href="#DejaVuSans-30" x="222.65625"/>
      </g>
     </g>
    </g>
    <g id="ytick_4">
     <g id="line2d_19">
      <path d="M 51.241875 68.07451 
L 441.841875 68.07451 
" clip-path="url(#p5b2a4ffdc2)" style="fill: none; stroke: #ffffff; stroke-width: 0.8; stroke-linecap: square"/>
     </g>
     <g id="line2d_20">
      <g>
       <use xlink:href="#m725485df40" x="51.241875" y="68.07451" style="fill: #555555; stroke: #555555; stroke-width: 0.8"/>
      </g>
     </g>
     <g id="text_11">
      <!-- 0.015 -->
      <g style="fill: #555555" transform="translate(15.61375 71.873729) scale(0.1 -0.1)">
       <use xlink:href="#DejaVuSans-30"/>
       <use xlink:href="#DejaVuSans-2e" x="63.623047"/>
       <use xlink:href="#DejaVuSans-30" x="95.410156"/>
       <use xlink:href="#DejaVuSans-31" x="159.033203"/>
       <use xlink:href="#DejaVuSans-35" x="222.65625"/>
      </g>
     </g>
    </g>
    <g id="ytick_5">
     <g id="line2d_21">
      <path d="M 51.241875 35.936865 
L 441.841875 35.936865 
" clip-path="url(#p5b2a4ffdc2)" style="fill: none; stroke: #ffffff; stroke-width: 0.8; stroke-linecap: square"/>
     </g>
     <g id="line2d_22">
      <g>
       <use xlink:href="#m725485df40" x="51.241875" y="35.936865" style="fill: #555555; stroke: #555555; stroke-width: 0.8"/>
      </g>
     </g>
     <g id="text_12">
      <!-- 0.020 -->
      <g style="fill: #555555" transform="translate(15.61375 39.736083) scale(0.1 -0.1)">
       <use xlink:href="#DejaVuSans-30"/>
       <use xlink:href="#DejaVuSans-2e" x="63.623047"/>
       <use xlink:href="#DejaVuSans-30" x="95.410156"/>
       <use xlink:href="#DejaVuSans-32" x="159.033203"/>
       <use xlink:href="#DejaVuSans-30" x="222.65625"/>
      </g>
     </g>
    </g>
    <g id="ytick_6">
     <g id="line2d_23">
      <path d="M 51.241875 3.799219 
L 441.841875 3.799219 
" clip-path="url(#p5b2a4ffdc2)" style="fill: none; stroke: #ffffff; stroke-width: 0.8; stroke-linecap: square"/>
     </g>
     <g id="line2d_24">
      <g>
       <use xlink:href="#m725485df40" x="51.241875" y="3.799219" style="fill: #555555; stroke: #555555; stroke-width: 0.8"/>
      </g>
     </g>
     <g id="text_13">
      <!-- 0.025 -->
      <g style="fill: #555555" transform="translate(15.61375 7.598437) scale(0.1 -0.1)">
       <use xlink:href="#DejaVuSans-30"/>
       <use xlink:href="#DejaVuSans-2e" x="63.623047"/>
       <use xlink:href="#DejaVuSans-30" x="95.410156"/>
       <use xlink:href="#DejaVuSans-32" x="159.033203"/>
       <use xlink:href="#DejaVuSans-35" x="222.65625"/>
      </g>
     </g>
    </g>
    <g id="text_14">
     <!-- Value -->
     <g style="fill: #555555" transform="translate(9.118125 102.924798) rotate(-90) scale(0.12 -0.12)">
      <defs>
       <path id="DejaVuSans-56" d="M 1831 0 
L 50 4666 
L 709 4666 
L 2188 738 
L 3669 4666 
L 4325 4666 
L 2547 0 
L 1831 0 
z
" transform="scale(0.015625)"/>
       <path id="DejaVuSans-6c" d="M 603 4863 
L 1178 4863 
L 1178 0 
L 603 0 
L 603 4863 
z
" transform="scale(0.015625)"/>
       <path id="DejaVuSans-75" d="M 544 1381 
L 544 3500 
L 1119 3500 
L 1119 1403 
Q 1119 906 1312 657 
Q 1506 409 1894 409 
Q 2359 409 2629 706 
Q 2900 1003 2900 1516 
L 2900 3500 
L 3475 3500 
L 3475 0 
L 2900 0 
L 2900 538 
Q 2691 219 2414 64 
Q 2138 -91 1772 -91 
Q 1169 -91 856 284 
Q 544 659 544 1381 
z
M 1991 3584 
L 1991 3584 
z
" transform="scale(0.015625)"/>
      </defs>
      <use xlink:href="#DejaVuSans-56"/>
      <use xlink:href="#DejaVuSans-61" x="60.658203"/>
      <use xlink:href="#DejaVuSans-6c" x="121.9375"/>
      <use xlink:href="#DejaVuSans-75" x="149.720703"/>
      <use xlink:href="#DejaVuSans-65" x="213.099609"/>
     </g>
    </g>
   </g>
   <g id="PolyCollection_1">
    <defs>
     <path id="m01305d3197" d="M 68.99642 -61.288017 
L 68.99642 -75.734277 
L 70.394416 -74.31296 
L 71.792412 -71.845038 
L 73.190408 -73.963159 
L 74.588403 -75.733426 
L 75.986399 -73.613406 
L 77.384395 -74.866637 
L 78.78239 -75.817184 
L 80.180386 -81.877303 
L 81.578382 -81.253396 
L 82.976378 -84.123965 
L 84.374373 -84.039257 
L 85.772369 -80.117247 
L 87.170365 -79.470107 
L 88.56836 -74.103551 
L 89.966356 -72.734889 
L 91.364352 -72.847133 
L 92.762347 -71.621059 
L 94.160343 -71.262996 
L 95.558339 -73.701158 
L 96.956335 -48.166611 
L 98.35433 -49.326112 
L 99.752326 -48.133762 
L 101.150322 -49.735956 
L 102.548317 -44.223279 
L 103.946313 -44.330819 
L 105.344309 -43.437697 
L 106.742304 -44.015504 
L 108.1403 -46.854691 
L 109.538296 -46.343802 
L 110.936292 -46.308765 
L 112.334287 -46.106945 
L 113.732283 -63.808722 
L 115.130279 -61.897045 
L 116.528274 -61.945952 
L 117.92627 -60.842122 
L 119.324266 -60.57482 
L 120.722262 -59.717765 
L 122.120257 -57.428593 
L 123.518253 -58.926631 
L 124.916249 -58.881761 
L 126.314244 -59.384081 
L 127.71224 -59.161011 
L 129.110236 -59.476694 
L 130.508231 -58.452775 
L 131.906227 -68.979211 
L 133.304223 -61.459197 
L 134.702219 -65.114253 
L 136.100214 -64.591854 
L 137.49821 -67.626968 
L 138.896206 -70.093055 
L 140.294201 -70.264612 
L 141.692197 -71.306407 
L 143.090193 -71.960166 
L 144.488189 -68.487449 
L 145.886184 -71.825582 
L 147.28418 -100.943145 
L 148.682176 -101.113261 
L 150.080171 -102.275382 
L 151.478167 -75.413918 
L 152.876163 -74.586646 
L 154.274158 -76.783424 
L 155.672154 -76.307407 
L 157.07015 -73.584904 
L 158.468146 -73.930839 
L 159.866141 -73.260131 
L 161.264137 -71.873708 
L 162.662133 -73.410104 
L 164.060128 -74.649115 
L 165.458124 -109.929958 
L 166.85612 -107.936841 
L 168.254116 -77.056997 
L 169.652111 -77.096251 
L 171.050107 -88.871806 
L 172.448103 -108.251991 
L 173.846098 -106.361194 
L 175.244094 -84.743605 
L 176.64209 -105.703577 
L 178.040085 -106.218705 
L 179.438081 -104.704284 
L 180.836077 -105.413475 
L 182.234073 -106.555126 
L 183.632068 -103.775409 
L 185.030064 -102.045654 
L 186.42806 -103.819506 
L 187.826055 -104.949675 
L 189.224051 -104.701014 
L 190.622047 -87.076796 
L 192.020043 -87.497784 
L 193.418038 -88.121659 
L 194.816034 -87.251765 
L 196.21403 -86.014983 
L 197.612025 -77.159885 
L 199.010021 -78.513836 
L 200.408017 -91.664702 
L 201.806012 -78.687243 
L 203.204008 -91.736146 
L 204.602004 -112.82026 
L 206 -111.477561 
L 207.397995 -118.147668 
L 208.795991 -94.681678 
L 210.193987 -119.133462 
L 211.591982 -116.301059 
L 212.989978 -119.742344 
L 214.387974 -120.879036 
L 215.785969 -124.35823 
L 217.183965 -121.715685 
L 218.581961 -122.053182 
L 219.979957 -121.576933 
L 221.377952 -135.084319 
L 222.775948 -121.874066 
L 224.173944 -121.82386 
L 225.571939 -120.635197 
L 226.969935 -118.910913 
L 228.367931 -120.047208 
L 229.765927 -121.887129 
L 231.163922 -116.967367 
L 232.561918 -117.680945 
L 233.959914 -116.753611 
L 235.357909 -116.552342 
L 236.755905 -117.624491 
L 238.153901 -116.064434 
L 239.551896 -117.711097 
L 240.949892 -82.925207 
L 242.347888 -109.794822 
L 243.745884 -107.723824 
L 245.143879 -105.332708 
L 246.541875 -111.291938 
L 247.939871 -111.936368 
L 249.337866 -103.390508 
L 250.735862 -103.96336 
L 252.133858 -92.024218 
L 253.531854 -90.66653 
L 254.929849 -89.384886 
L 256.327845 -89.538688 
L 257.725841 -88.56695 
L 259.123836 -89.051652 
L 260.521832 -88.247972 
L 261.919828 -86.839308 
L 263.317823 -87.870998 
L 264.715819 -87.676189 
L 266.113815 -87.339516 
L 267.511811 -86.438007 
L 268.909806 -87.083922 
L 270.307802 -86.409701 
L 271.705798 -87.127453 
L 273.103793 -86.76854 
L 274.501789 -86.496314 
L 275.899785 -76.404838 
L 277.297781 -75.553189 
L 278.695776 -56.107532 
L 280.093772 -55.030321 
L 281.491768 -56.088426 
L 282.889763 -55.642529 
L 284.287759 -54.984788 
L 285.685755 -53.268573 
L 287.08375 -53.661011 
L 288.481746 -44.502388 
L 289.879742 -42.067288 
L 291.277738 -42.037037 
L 292.675733 -43.043706 
L 294.073729 -44.591793 
L 295.471725 -52.413386 
L 296.86972 -52.965349 
L 298.267716 -52.705232 
L 299.665712 -54.01893 
L 301.063707 -53.339662 
L 302.461703 -55.651978 
L 303.859699 -55.75452 
L 305.257695 -55.138503 
L 306.65569 -56.099372 
L 308.053686 -66.929693 
L 309.451682 -71.606917 
L 310.849677 -71.823943 
L 312.247673 -84.760001 
L 313.645669 -83.909462 
L 315.043665 -84.611044 
L 316.44166 -84.145177 
L 317.839656 -84.901426 
L 319.237652 -87.311164 
L 320.635647 -83.359716 
L 322.033643 -82.714713 
L 323.431639 -82.7784 
L 324.829634 -83.430079 
L 326.22763 -85.087559 
L 327.625626 -83.575393 
L 329.023622 -83.910601 
L 330.421617 -82.248834 
L 331.819613 -68.702339 
L 333.217609 -68.842461 
L 334.615604 -68.37381 
L 336.0136 -68.43094 
L 337.411596 -44.417037 
L 338.809592 -55.517656 
L 340.207587 -53.689174 
L 341.605583 -53.917936 
L 343.003579 -54.242382 
L 344.401574 -54.005395 
L 345.79957 -44.83694 
L 347.197566 -54.580005 
L 348.595561 -57.44724 
L 349.993557 -58.023871 
L 351.391553 -59.618878 
L 352.789549 -58.614975 
L 354.187544 -91.215897 
L 355.58554 -73.909432 
L 356.983536 -90.226223 
L 358.381531 -168.221222 
L 359.779527 -168.175337 
L 361.177523 -179.966254 
L 362.575519 -179.493283 
L 363.973514 -175.226213 
L 365.37151 -182.74151 
L 366.769506 -186.370134 
L 368.167501 -184.061454 
L 369.565497 -184.964267 
L 370.963493 -179.813947 
L 372.361488 -185.646776 
L 373.759484 -191.051875 
L 375.15748 -186.530441 
L 376.555476 -188.993871 
L 377.953471 -181.946231 
L 379.351467 -181.632945 
L 380.749463 -177.315038 
L 382.147458 -183.002556 
L 383.545454 -141.064345 
L 384.94345 -142.094592 
L 386.341446 -142.877333 
L 387.739441 -141.061918 
L 389.137437 -141.114261 
L 390.535433 -132.68786 
L 391.933428 -133.259606 
L 393.331424 -97.956374 
L 394.72942 -97.885513 
L 396.127415 -95.786306 
L 397.525411 -90.327839 
L 398.923407 -76.156519 
L 400.321403 -77.183116 
L 401.719398 -75.551774 
L 403.117394 -69.76395 
L 404.51539 -66.658705 
L 405.913385 -67.43726 
L 407.311381 -63.989396 
L 408.709377 -64.3034 
L 410.107372 -64.260473 
L 411.505368 -63.803676 
L 412.903364 -63.192432 
L 414.30136 -48.836591 
L 415.699355 -62.606717 
L 417.097351 -47.694265 
L 418.495347 -47.224091 
L 419.893342 -47.392234 
L 421.291338 -47.205351 
L 422.689334 -48.78451 
L 424.08733 -48.581935 
L 424.08733 -46.118736 
L 424.08733 -46.118736 
L 422.689334 -46.051997 
L 421.291338 -45.062858 
L 419.893342 -45.093181 
L 418.495347 -45.05267 
L 417.097351 -45.172206 
L 415.699355 -52.441041 
L 414.30136 -46.215001 
L 412.903364 -53.139728 
L 411.505368 -54.007289 
L 410.107372 -52.603678 
L 408.709377 -52.952919 
L 407.311381 -53.929595 
L 405.913385 -55.936388 
L 404.51539 -54.778109 
L 403.117394 -57.705542 
L 401.719398 -62.77038 
L 400.321403 -63.972846 
L 398.923407 -64.193641 
L 397.525411 -76.151599 
L 396.127415 -80.973729 
L 394.72942 -82.703364 
L 393.331424 -80.608435 
L 391.933428 -111.18455 
L 390.535433 -110.166178 
L 389.137437 -117.964293 
L 387.739441 -118.644368 
L 386.341446 -117.680161 
L 384.94345 -118.443542 
L 383.545454 -115.028571 
L 382.147458 -142.031334 
L 380.749463 -143.216777 
L 379.351467 -143.154653 
L 377.953471 -143.823318 
L 376.555476 -150.333112 
L 375.15748 -148.917455 
L 373.759484 -152.369268 
L 372.361488 -149.820668 
L 370.963493 -145.279691 
L 369.565497 -146.329341 
L 368.167501 -146.0347 
L 366.769506 -148.446132 
L 365.37151 -146.839932 
L 363.973514 -140.215208 
L 362.575519 -144.965595 
L 361.177523 -145.489431 
L 359.779527 -133.057452 
L 358.381531 -134.805979 
L 356.983536 -79.396808 
L 355.58554 -64.645677 
L 354.187544 -80.812499 
L 352.789549 -51.059626 
L 351.391553 -51.735505 
L 349.993557 -51.715453 
L 348.595561 -50.309052 
L 347.197566 -47.426012 
L 345.79957 -43.27463 
L 344.401574 -47.572985 
L 343.003579 -47.229194 
L 341.605583 -47.374092 
L 340.207587 -47.378519 
L 338.809592 -49.025865 
L 337.411596 -42.874669 
L 336.0136 -60.926505 
L 334.615604 -59.701531 
L 333.217609 -60.410884 
L 331.819613 -60.839636 
L 330.421617 -72.736684 
L 329.023622 -73.676252 
L 327.625626 -73.666539 
L 326.22763 -75.547214 
L 324.829634 -73.790433 
L 323.431639 -73.084208 
L 322.033643 -72.866648 
L 320.635647 -74.649417 
L 319.237652 -76.860475 
L 317.839656 -74.872816 
L 316.44166 -74.456371 
L 315.043665 -74.891374 
L 313.645669 -73.258833 
L 312.247673 -74.722905 
L 310.849677 -62.531983 
L 309.451682 -62.830412 
L 308.053686 -58.99692 
L 306.65569 -49.64008 
L 305.257695 -49.123147 
L 303.859699 -48.717243 
L 302.461703 -49.196072 
L 301.063707 -47.216384 
L 299.665712 -48.405205 
L 298.267716 -46.854169 
L 296.86972 -46.905687 
L 295.471725 -46.291419 
L 294.073729 -42.884426 
L 292.675733 -41.838205 
L 291.277738 -40.567564 
L 289.879742 -40.723184 
L 288.481746 -42.793722 
L 287.08375 -48.15331 
L 285.685755 -47.361277 
L 284.287759 -47.93598 
L 282.889763 -49.358832 
L 281.491768 -49.255556 
L 280.093772 -48.900176 
L 278.695776 -49.726423 
L 277.297781 -64.808247 
L 275.899785 -66.026866 
L 274.501789 -76.551397 
L 273.103793 -76.450809 
L 271.705798 -76.160008 
L 270.307802 -75.846066 
L 268.909806 -75.902768 
L 267.511811 -76.714455 
L 266.113815 -76.843181 
L 264.715819 -78.411087 
L 263.317823 -77.081384 
L 261.919828 -76.269688 
L 260.521832 -78.120261 
L 259.123836 -78.621568 
L 257.725841 -78.390162 
L 256.327845 -77.792756 
L 254.929849 -79.033823 
L 253.531854 -78.726057 
L 252.133858 -79.204363 
L 250.735862 -88.195368 
L 249.337866 -87.583277 
L 247.939871 -96.076967 
L 246.541875 -96.414355 
L 245.143879 -89.034663 
L 243.745884 -91.354325 
L 242.347888 -93.873179 
L 240.949892 -70.401833 
L 239.551896 -100.916909 
L 238.153901 -99.617177 
L 236.755905 -98.506055 
L 235.357909 -98.835884 
L 233.959914 -100.087596 
L 232.561918 -100.119566 
L 231.163922 -100.260398 
L 229.765927 -103.480145 
L 228.367931 -102.80646 
L 226.969935 -101.82495 
L 225.571939 -100.961334 
L 224.173944 -102.964658 
L 222.775948 -104.025712 
L 221.377952 -115.882076 
L 219.979957 -101.181427 
L 218.581961 -104.157643 
L 217.183965 -104.506737 
L 215.785969 -105.81322 
L 214.387974 -101.388138 
L 212.989978 -102.451351 
L 211.591982 -99.097194 
L 210.193987 -101.034254 
L 208.795991 -78.408616 
L 207.397995 -99.879065 
L 206 -95.183976 
L 204.602004 -95.970791 
L 203.204008 -75.045539 
L 201.806012 -67.323368 
L 200.408017 -75.883368 
L 199.010021 -66.318663 
L 197.612025 -65.757736 
L 196.21403 -72.105693 
L 194.816034 -74.044624 
L 193.418038 -73.857859 
L 192.020043 -73.694868 
L 190.622047 -75.111942 
L 189.224051 -88.850623 
L 187.826055 -89.039837 
L 186.42806 -87.454276 
L 185.030064 -88.152287 
L 183.632068 -89.943894 
L 182.234073 -91.724673 
L 180.836077 -91.233779 
L 179.438081 -90.958128 
L 178.040085 -88.869539 
L 176.64209 -91.609938 
L 175.244094 -71.245631 
L 173.846098 -91.498718 
L 172.448103 -90.797594 
L 171.050107 -74.337002 
L 169.652111 -66.352812 
L 168.254116 -66.892157 
L 166.85612 -90.913024 
L 165.458124 -93.336755 
L 164.060128 -63.209856 
L 162.662133 -63.571305 
L 161.264137 -61.181017 
L 159.866141 -63.425356 
L 158.468146 -62.665769 
L 157.07015 -63.496842 
L 155.672154 -65.085346 
L 154.274158 -66.128074 
L 152.876163 -64.851574 
L 151.478167 -65.448806 
L 150.080171 -86.717802 
L 148.682176 -89.781431 
L 147.28418 -86.000699 
L 145.886184 -62.287659 
L 144.488189 -59.146651 
L 143.090193 -63.064972 
L 141.692197 -61.329115 
L 140.294201 -61.253325 
L 138.896206 -61.142279 
L 137.49821 -59.97753 
L 136.100214 -56.464793 
L 134.702219 -57.761084 
L 133.304223 -54.36765 
L 131.906227 -60.842654 
L 130.508231 -51.381719 
L 129.110236 -52.543187 
L 127.71224 -51.998374 
L 126.314244 -52.245282 
L 124.916249 -51.566487 
L 123.518253 -51.769454 
L 122.120257 -49.725592 
L 120.722262 -51.644244 
L 119.324266 -52.426396 
L 117.92627 -52.343637 
L 116.528274 -52.52127 
L 115.130279 -53.961332 
L 113.732283 -54.26217 
L 112.334287 -44.201482 
L 110.936292 -44.349548 
L 109.538296 -44.415203 
L 108.1403 -44.776265 
L 106.742304 -42.06427 
L 105.344309 -41.791057 
L 103.946313 -42.266763 
L 102.548317 -42.217277 
L 101.150322 -47.201463 
L 99.752326 -45.949624 
L 98.35433 -46.746062 
L 96.956335 -46.032672 
L 95.558339 -59.450954 
L 94.160343 -58.664793 
L 92.762347 -57.742343 
L 91.364352 -57.794193 
L 89.966356 -58.807388 
L 88.56836 -61.140538 
L 87.170365 -63.442315 
L 85.772369 -64.853799 
L 84.374373 -68.408194 
L 82.976378 -67.98899 
L 81.578382 -64.766744 
L 80.180386 -64.563115 
L 78.78239 -61.300916 
L 77.384395 -61.348394 
L 75.986399 -59.454097 
L 74.588403 -60.312289 
L 73.190408 -60.145531 
L 71.792412 -58.362632 
L 70.394416 -59.925141 
L 68.99642 -61.288017 
z
" style="stroke: #134a8e; stroke-opacity: 0.5; stroke-width: 0.5"/>
    </defs>
    <g clip-path="url(#p5b2a4ffdc2)">
     <use xlink:href="#m01305d3197" x="0" y="201.899173" style="fill: #134a8e; fill-opacity: 0.5; stroke: #134a8e; stroke-opacity: 0.5; stroke-width: 0.5"/>
    </g>
   </g>
   <g id="line2d_25">
    <path d="M 68.99642 133.388026 
L 70.394416 134.780123 
L 71.792412 136.795338 
L 73.190408 134.844828 
L 74.588403 133.876316 
L 75.986399 135.365422 
L 77.384395 133.791658 
L 78.78239 133.340123 
L 80.180386 128.678964 
L 81.578382 128.889103 
L 82.976378 125.842695 
L 84.374373 125.675447 
L 85.772369 129.41365 
L 87.170365 130.442962 
L 88.56836 134.277128 
L 89.966356 136.128035 
L 91.364352 136.57851 
L 92.762347 137.217472 
L 94.160343 136.935279 
L 95.558339 135.323117 
L 96.956335 154.799531 
L 98.35433 153.863086 
L 99.752326 154.85748 
L 101.150322 153.430464 
L 102.548317 158.678895 
L 103.946313 158.600382 
L 105.344309 159.284796 
L 106.742304 158.859286 
L 108.1403 156.083695 
L 109.538296 156.51967 
L 110.936292 156.570016 
L 112.334287 156.74496 
L 113.732283 142.863727 
L 115.130279 143.969984 
L 117.92627 145.306294 
L 119.324266 145.398565 
L 120.722262 146.218168 
L 122.120257 148.322081 
L 123.518253 146.551131 
L 124.916249 146.675049 
L 126.314244 146.084491 
L 127.71224 146.319481 
L 129.110236 145.889232 
L 130.508231 146.981926 
L 131.906227 136.98824 
L 133.304223 143.985749 
L 134.702219 140.461504 
L 136.100214 141.370849 
L 137.49821 138.096924 
L 138.896206 136.281506 
L 140.294201 136.140205 
L 141.692197 135.581412 
L 143.090193 134.386604 
L 144.488189 138.082123 
L 145.886184 134.842552 
L 147.28418 108.427251 
L 148.682176 106.451827 
L 150.080171 107.402581 
L 151.478167 131.467811 
L 152.876163 132.180063 
L 154.274158 130.443424 
L 155.672154 131.202797 
L 157.07015 133.3583 
L 158.468146 133.600869 
L 159.866141 133.556429 
L 161.264137 135.371811 
L 162.662133 133.408469 
L 164.060128 132.969688 
L 165.458124 100.265816 
L 166.85612 102.474241 
L 168.254116 129.924596 
L 169.652111 130.174642 
L 171.050107 120.294769 
L 172.448103 102.37438 
L 173.846098 102.969217 
L 175.244094 123.904555 
L 176.64209 103.242416 
L 178.040085 104.355051 
L 179.438081 104.067967 
L 180.836077 103.575546 
L 182.234073 102.759274 
L 183.632068 105.039522 
L 185.030064 106.800203 
L 186.42806 106.262282 
L 187.826055 104.904417 
L 189.224051 105.123355 
L 190.622047 120.804804 
L 192.020043 121.302847 
L 193.418038 120.909414 
L 194.816034 121.250979 
L 196.21403 122.838835 
L 197.612025 130.440363 
L 199.010021 129.482924 
L 200.408017 118.125138 
L 201.806012 128.893868 
L 203.204008 118.508331 
L 204.602004 97.503648 
L 206 98.568405 
L 207.397995 92.885807 
L 208.795991 115.354026 
L 210.193987 91.815315 
L 211.591982 94.200047 
L 212.989978 90.802326 
L 214.387974 90.765586 
L 215.785969 86.813448 
L 217.183965 88.787962 
L 218.581961 88.79376 
L 219.979957 90.519993 
L 221.377952 76.415975 
L 222.775948 88.949284 
L 224.173944 89.504914 
L 225.571939 91.100908 
L 226.969935 91.531241 
L 228.367931 90.472339 
L 229.765927 89.215536 
L 231.163922 93.28529 
L 232.561918 92.998918 
L 233.959914 93.478569 
L 235.357909 94.20506 
L 236.755905 93.8339 
L 238.153901 94.058368 
L 239.551896 92.58517 
L 240.949892 125.235653 
L 242.347888 100.065173 
L 245.143879 104.715488 
L 246.541875 98.046027 
L 247.939871 97.892506 
L 249.337866 106.412281 
L 250.735862 105.819809 
L 252.133858 116.284883 
L 253.531854 117.20288 
L 256.327845 118.233451 
L 257.725841 118.420617 
L 259.123836 118.062563 
L 260.521832 118.715057 
L 261.919828 120.344675 
L 263.317823 119.422982 
L 264.715819 118.855535 
L 266.113815 119.807825 
L 267.511811 120.322942 
L 268.909806 120.405828 
L 270.307802 120.77129 
L 271.705798 120.255442 
L 274.501789 120.375318 
L 275.899785 130.683321 
L 277.297781 131.718455 
L 278.695776 148.982196 
L 280.093772 149.933925 
L 281.491768 149.227182 
L 282.889763 149.398493 
L 285.685755 151.584248 
L 287.08375 150.992013 
L 288.481746 158.251118 
L 289.879742 160.503937 
L 291.277738 160.596872 
L 292.675733 159.458218 
L 294.073729 158.161064 
L 295.471725 152.54677 
L 296.86972 151.963655 
L 298.267716 152.119472 
L 299.665712 150.687105 
L 301.063707 151.621151 
L 302.461703 149.475148 
L 305.257695 149.768348 
L 306.65569 149.029447 
L 308.053686 138.935867 
L 309.451682 134.680509 
L 310.849677 134.72121 
L 312.247673 122.15772 
L 313.645669 123.315026 
L 315.043665 122.147964 
L 316.44166 122.598399 
L 317.839656 122.012052 
L 319.237652 119.813354 
L 320.635647 122.894606 
L 322.033643 124.108492 
L 323.431639 123.967869 
L 324.829634 123.288917 
L 326.22763 121.581787 
L 327.625626 123.278207 
L 329.023622 123.105746 
L 330.421617 124.406414 
L 331.819613 137.128185 
L 333.217609 137.272501 
L 334.615604 137.861502 
L 336.0136 137.22045 
L 337.411596 158.25332 
L 338.809592 149.627412 
L 340.207587 151.365326 
L 344.401574 151.109983 
L 345.79957 157.843389 
L 347.197566 150.896164 
L 348.595561 148.021027 
L 349.993557 147.029511 
L 351.391553 146.221981 
L 352.789549 147.061873 
L 354.187544 115.884975 
L 355.58554 132.621619 
L 356.983536 117.087658 
L 358.381531 50.385572 
L 359.779527 51.282779 
L 361.177523 39.171331 
L 362.575519 39.669734 
L 363.973514 44.178463 
L 365.37151 37.108452 
L 366.769506 34.49104 
L 368.167501 36.851096 
L 369.565497 36.252369 
L 370.963493 39.352354 
L 372.361488 34.165451 
L 373.759484 30.188602 
L 375.15748 34.175225 
L 376.555476 32.235682 
L 377.953471 39.014398 
L 379.351467 39.505374 
L 380.749463 41.633266 
L 382.147458 39.382228 
L 383.545454 73.852715 
L 384.94345 71.630106 
L 386.341446 71.620426 
L 389.137437 72.359896 
L 390.535433 80.472154 
L 391.933428 79.677095 
L 393.331424 112.616768 
L 394.72942 111.604735 
L 396.127415 113.519155 
L 397.525411 118.659454 
L 398.923407 131.724093 
L 400.321403 131.321192 
L 401.719398 132.738096 
L 403.117394 138.164427 
L 404.51539 141.180766 
L 405.913385 140.212349 
L 407.311381 142.939678 
L 408.709377 143.271013 
L 410.107372 143.467098 
L 411.505368 142.993691 
L 412.903364 143.733093 
L 414.30136 154.373377 
L 415.699355 144.375294 
L 417.097351 155.465937 
L 418.495347 155.760793 
L 419.893342 155.656466 
L 421.291338 155.765069 
L 422.689334 154.480919 
L 424.08733 154.548837 
L 424.08733 154.548837 
" clip-path="url(#p5b2a4ffdc2)" style="fill: none; stroke: #134a8e; stroke-width: 3; stroke-linecap: square"/>
    <defs>
     <path id="m4618e86702" d="M 0 1.5 
C 0.397805 1.5 0.77937 1.341951 1.06066 1.06066 
C 1.341951 0.77937 1.5 0.397805 1.5 0 
C 1.5 -0.397805 1.341951 -0.77937 1.06066 -1.06066 
C 0.77937 -1.341951 0.397805 -1.5 0 -1.5 
C -0.397805 -1.5 -0.77937 -1.341951 -1.06066 -1.06066 
C -1.341951 -0.77937 -1.5 -0.397805 -1.5 0 
C -1.5 0.397805 -1.341951 0.77937 -1.06066 1.06066 
C -0.77937 1.341951 -0.397805 1.5 0 1.5 
z
" style="stroke: #134a8e"/>
    </defs>
    <g clip-path="url(#p5b2a4ffdc2)">
     <use xlink:href="#m4618e86702" x="68.99642" y="133.388026" style="fill: #134a8e; stroke: #134a8e"/>
     <use xlink:href="#m4618e86702" x="70.394416" y="134.780123" style="fill: #134a8e; stroke: #134a8e"/>
     <use xlink:href="#m4618e86702" x="71.792412" y="136.795338" style="fill: #134a8e; stroke: #134a8e"/>
     <use xlink:href="#m4618e86702" x="73.190408" y="134.844828" style="fill: #134a8e; stroke: #134a8e"/>
     <use xlink:href="#m4618e86702" x="74.588403" y="133.876316" style="fill: #134a8e; stroke: #134a8e"/>
     <use xlink:href="#m4618e86702" x="75.986399" y="135.365422" style="fill: #134a8e; stroke: #134a8e"/>
     <use xlink:href="#m4618e86702" x="77.384395" y="133.791658" style="fill: #134a8e; stroke: #134a8e"/>
     <use xlink:href="#m4618e86702" x="78.78239" y="133.340123" style="fill: #134a8e; stroke: #134a8e"/>
     <use xlink:href="#m4618e86702" x="80.180386" y="128.678964" style="fill: #134a8e; stroke: #134a8e"/>
     <use xlink:href="#m4618e86702" x="81.578382" y="128.889103" style="fill: #134a8e; stroke: #134a8e"/>
     <use xlink:href="#m4618e86702" x="82.976378" y="125.842695" style="fill: #134a8e; stroke: #134a8e"/>
     <use xlink:href="#m4618e86702" x="84.374373" y="125.675447" style="fill: #134a8e; stroke: #134a8e"/>
     <use xlink:href="#m4618e86702" x="85.772369" y="129.41365" style="fill: #134a8e; stroke: #134a8e"/>
     <use xlink:href="#m4618e86702" x="87.170365" y="130.442962" style="fill: #134a8e; stroke: #134a8e"/>
     <use xlink:href="#m4618e86702" x="88.56836" y="134.277128" style="fill: #134a8e; stroke: #134a8e"/>
     <use xlink:href="#m4618e86702" x="89.966356" y="136.128035" style="fill: #134a8e; stroke: #134a8e"/>
     <use xlink:href="#m4618e86702" x="91.364352" y="136.57851" style="fill: #134a8e; stroke: #134a8e"/>
     <use xlink:href="#m4618e86702" x="92.762347" y="137.217472" style="fill: #134a8e; stroke: #134a8e"/>
     <use xlink:href="#m4618e86702" x="94.160343" y="136.935279" style="fill: #134a8e; stroke: #134a8e"/>
     <use xlink:href="#m4618e86702" x="95.558339" y="135.323117" style="fill: #134a8e; stroke: #134a8e"/>
     <use xlink:href="#m4618e86702" x="96.956335" y="154.799531" style="fill: #134a8e; stroke: #134a8e"/>
     <use xlink:href="#m4618e86702" x="98.35433" y="153.863086" style="fill: #134a8e; stroke: #134a8e"/>
     <use xlink:href="#m4618e86702" x="99.752326" y="154.85748" style="fill: #134a8e; stroke: #134a8e"/>
     <use xlink:href="#m4618e86702" x="101.150322" y="153.430464" style="fill: #134a8e; stroke: #134a8e"/>
     <use xlink:href="#m4618e86702" x="102.548317" y="158.678895" style="fill: #134a8e; stroke: #134a8e"/>
     <use xlink:href="#m4618e86702" x="103.946313" y="158.600382" style="fill: #134a8e; stroke: #134a8e"/>
     <use xlink:href="#m4618e86702" x="105.344309" y="159.284796" style="fill: #134a8e; stroke: #134a8e"/>
     <use xlink:href="#m4618e86702" x="106.742304" y="158.859286" style="fill: #134a8e; stroke: #134a8e"/>
     <use xlink:href="#m4618e86702" x="108.1403" y="156.083695" style="fill: #134a8e; stroke: #134a8e"/>
     <use xlink:href="#m4618e86702" x="109.538296" y="156.51967" style="fill: #134a8e; stroke: #134a8e"/>
     <use xlink:href="#m4618e86702" x="110.936292" y="156.570016" style="fill: #134a8e; stroke: #134a8e"/>
     <use xlink:href="#m4618e86702" x="112.334287" y="156.74496" style="fill: #134a8e; stroke: #134a8e"/>
     <use xlink:href="#m4618e86702" x="113.732283" y="142.863727" style="fill: #134a8e; stroke: #134a8e"/>
     <use xlink:href="#m4618e86702" x="115.130279" y="143.969984" style="fill: #134a8e; stroke: #134a8e"/>
     <use xlink:href="#m4618e86702" x="116.528274" y="144.665562" style="fill: #134a8e; stroke: #134a8e"/>
     <use xlink:href="#m4618e86702" x="117.92627" y="145.306294" style="fill: #134a8e; stroke: #134a8e"/>
     <use xlink:href="#m4618e86702" x="119.324266" y="145.398565" style="fill: #134a8e; stroke: #134a8e"/>
     <use xlink:href="#m4618e86702" x="120.722262" y="146.218168" style="fill: #134a8e; stroke: #134a8e"/>
     <use xlink:href="#m4618e86702" x="122.120257" y="148.322081" style="fill: #134a8e; stroke: #134a8e"/>
     <use xlink:href="#m4618e86702" x="123.518253" y="146.551131" style="fill: #134a8e; stroke: #134a8e"/>
     <use xlink:href="#m4618e86702" x="124.916249" y="146.675049" style="fill: #134a8e; stroke: #134a8e"/>
     <use xlink:href="#m4618e86702" x="126.314244" y="146.084491" style="fill: #134a8e; stroke: #134a8e"/>
     <use xlink:href="#m4618e86702" x="127.71224" y="146.319481" style="fill: #134a8e; stroke: #134a8e"/>
     <use xlink:href="#m4618e86702" x="129.110236" y="145.889232" style="fill: #134a8e; stroke: #134a8e"/>
     <use xlink:href="#m4618e86702" x="130.508231" y="146.981926" style="fill: #134a8e; stroke: #134a8e"/>
     <use xlink:href="#m4618e86702" x="131.906227" y="136.98824" style="fill: #134a8e; stroke: #134a8e"/>
     <use xlink:href="#m4618e86702" x="133.304223" y="143.985749" style="fill: #134a8e; stroke: #134a8e"/>
     <use xlink:href="#m4618e86702" x="134.702219" y="140.461504" style="fill: #134a8e; stroke: #134a8e"/>
     <use xlink:href="#m4618e86702" x="136.100214" y="141.370849" style="fill: #134a8e; stroke: #134a8e"/>
     <use xlink:href="#m4618e86702" x="137.49821" y="138.096924" style="fill: #134a8e; stroke: #134a8e"/>
     <use xlink:href="#m4618e86702" x="138.896206" y="136.281506" style="fill: #134a8e; stroke: #134a8e"/>
     <use xlink:href="#m4618e86702" x="140.294201" y="136.140205" style="fill: #134a8e; stroke: #134a8e"/>
     <use xlink:href="#m4618e86702" x="141.692197" y="135.581412" style="fill: #134a8e; stroke: #134a8e"/>
     <use xlink:href="#m4618e86702" x="143.090193" y="134.386604" style="fill: #134a8e; stroke: #134a8e"/>
     <use xlink:href="#m4618e86702" x="144.488189" y="138.082123" style="fill: #134a8e; stroke: #134a8e"/>
     <use xlink:href="#m4618e86702" x="145.886184" y="134.842552" style="fill: #134a8e; stroke: #134a8e"/>
     <use xlink:href="#m4618e86702" x="147.28418" y="108.427251" style="fill: #134a8e; stroke: #134a8e"/>
     <use xlink:href="#m4618e86702" x="148.682176" y="106.451827" style="fill: #134a8e; stroke: #134a8e"/>
     <use xlink:href="#m4618e86702" x="150.080171" y="107.402581" style="fill: #134a8e; stroke: #134a8e"/>
     <use xlink:href="#m4618e86702" x="151.478167" y="131.467811" style="fill: #134a8e; stroke: #134a8e"/>
     <use xlink:href="#m4618e86702" x="152.876163" y="132.180063" style="fill: #134a8e; stroke: #134a8e"/>
     <use xlink:href="#m4618e86702" x="154.274158" y="130.443424" style="fill: #134a8e; stroke: #134a8e"/>
     <use xlink:href="#m4618e86702" x="155.672154" y="131.202797" style="fill: #134a8e; stroke: #134a8e"/>
     <use xlink:href="#m4618e86702" x="157.07015" y="133.3583" style="fill: #134a8e; stroke: #134a8e"/>
     <use xlink:href="#m4618e86702" x="158.468146" y="133.600869" style="fill: #134a8e; stroke: #134a8e"/>
     <use xlink:href="#m4618e86702" x="159.866141" y="133.556429" style="fill: #134a8e; stroke: #134a8e"/>
     <use xlink:href="#m4618e86702" x="161.264137" y="135.371811" style="fill: #134a8e; stroke: #134a8e"/>
     <use xlink:href="#m4618e86702" x="162.662133" y="133.408469" style="fill: #134a8e; stroke: #134a8e"/>
     <use xlink:href="#m4618e86702" x="164.060128" y="132.969688" style="fill: #134a8e; stroke: #134a8e"/>
     <use xlink:href="#m4618e86702" x="165.458124" y="100.265816" style="fill: #134a8e; stroke: #134a8e"/>
     <use xlink:href="#m4618e86702" x="166.85612" y="102.474241" style="fill: #134a8e; stroke: #134a8e"/>
     <use xlink:href="#m4618e86702" x="168.254116" y="129.924596" style="fill: #134a8e; stroke: #134a8e"/>
     <use xlink:href="#m4618e86702" x="169.652111" y="130.174642" style="fill: #134a8e; stroke: #134a8e"/>
     <use xlink:href="#m4618e86702" x="171.050107" y="120.294769" style="fill: #134a8e; stroke: #134a8e"/>
     <use xlink:href="#m4618e86702" x="172.448103" y="102.37438" style="fill: #134a8e; stroke: #134a8e"/>
     <use xlink:href="#m4618e86702" x="173.846098" y="102.969217" style="fill: #134a8e; stroke: #134a8e"/>
     <use xlink:href="#m4618e86702" x="175.244094" y="123.904555" style="fill: #134a8e; stroke: #134a8e"/>
     <use xlink:href="#m4618e86702" x="176.64209" y="103.242416" style="fill: #134a8e; stroke: #134a8e"/>
     <use xlink:href="#m4618e86702" x="178.040085" y="104.355051" style="fill: #134a8e; stroke: #134a8e"/>
     <use xlink:href="#m4618e86702" x="179.438081" y="104.067967" style="fill: #134a8e; stroke: #134a8e"/>
     <use xlink:href="#m4618e86702" x="180.836077" y="103.575546" style="fill: #134a8e; stroke: #134a8e"/>
     <use xlink:href="#m4618e86702" x="182.234073" y="102.759274" style="fill: #134a8e; stroke: #134a8e"/>
     <use xlink:href="#m4618e86702" x="183.632068" y="105.039522" style="fill: #134a8e; stroke: #134a8e"/>
     <use xlink:href="#m4618e86702" x="185.030064" y="106.800203" style="fill: #134a8e; stroke: #134a8e"/>
     <use xlink:href="#m4618e86702" x="186.42806" y="106.262282" style="fill: #134a8e; stroke: #134a8e"/>
     <use xlink:href="#m4618e86702" x="187.826055" y="104.904417" style="fill: #134a8e; stroke: #134a8e"/>
     <use xlink:href="#m4618e86702" x="189.224051" y="105.123355" style="fill: #134a8e; stroke: #134a8e"/>
     <use xlink:href="#m4618e86702" x="190.622047" y="120.804804" style="fill: #134a8e; stroke: #134a8e"/>
     <use xlink:href="#m4618e86702" x="192.020043" y="121.302847" style="fill: #134a8e; stroke: #134a8e"/>
     <use xlink:href="#m4618e86702" x="193.418038" y="120.909414" style="fill: #134a8e; stroke: #134a8e"/>
     <use xlink:href="#m4618e86702" x="194.816034" y="121.250979" style="fill: #134a8e; stroke: #134a8e"/>
     <use xlink:href="#m4618e86702" x="196.21403" y="122.838835" style="fill: #134a8e; stroke: #134a8e"/>
     <use xlink:href="#m4618e86702" x="197.612025" y="130.440363" style="fill: #134a8e; stroke: #134a8e"/>
     <use xlink:href="#m4618e86702" x="199.010021" y="129.482924" style="fill: #134a8e; stroke: #134a8e"/>
     <use xlink:href="#m4618e86702" x="200.408017" y="118.125138" style="fill: #134a8e; stroke: #134a8e"/>
     <use xlink:href="#m4618e86702" x="201.806012" y="128.893868" style="fill: #134a8e; stroke: #134a8e"/>
     <use xlink:href="#m4618e86702" x="203.204008" y="118.508331" style="fill: #134a8e; stroke: #134a8e"/>
     <use xlink:href="#m4618e86702" x="204.602004" y="97.503648" style="fill: #134a8e; stroke: #134a8e"/>
     <use xlink:href="#m4618e86702" x="206" y="98.568405" style="fill: #134a8e; stroke: #134a8e"/>
     <use xlink:href="#m4618e86702" x="207.397995" y="92.885807" style="fill: #134a8e; stroke: #134a8e"/>
     <use xlink:href="#m4618e86702" x="208.795991" y="115.354026" style="fill: #134a8e; stroke: #134a8e"/>
     <use xlink:href="#m4618e86702" x="210.193987" y="91.815315" style="fill: #134a8e; stroke: #134a8e"/>
     <use xlink:href="#m4618e86702" x="211.591982" y="94.200047" style="fill: #134a8e; stroke: #134a8e"/>
     <use xlink:href="#m4618e86702" x="212.989978" y="90.802326" style="fill: #134a8e; stroke: #134a8e"/>
     <use xlink:href="#m4618e86702" x="214.387974" y="90.765586" style="fill: #134a8e; stroke: #134a8e"/>
     <use xlink:href="#m4618e86702" x="215.785969" y="86.813448" style="fill: #134a8e; stroke: #134a8e"/>
     <use xlink:href="#m4618e86702" x="217.183965" y="88.787962" style="fill: #134a8e; stroke: #134a8e"/>
     <use xlink:href="#m4618e86702" x="218.581961" y="88.79376" style="fill: #134a8e; stroke: #134a8e"/>
     <use xlink:href="#m4618e86702" x="219.979957" y="90.519993" style="fill: #134a8e; stroke: #134a8e"/>
     <use xlink:href="#m4618e86702" x="221.377952" y="76.415975" style="fill: #134a8e; stroke: #134a8e"/>
     <use xlink:href="#m4618e86702" x="222.775948" y="88.949284" style="fill: #134a8e; stroke: #134a8e"/>
     <use xlink:href="#m4618e86702" x="224.173944" y="89.504914" style="fill: #134a8e; stroke: #134a8e"/>
     <use xlink:href="#m4618e86702" x="225.571939" y="91.100908" style="fill: #134a8e; stroke: #134a8e"/>
     <use xlink:href="#m4618e86702" x="226.969935" y="91.531241" style="fill: #134a8e; stroke: #134a8e"/>
     <use xlink:href="#m4618e86702" x="228.367931" y="90.472339" style="fill: #134a8e; stroke: #134a8e"/>
     <use xlink:href="#m4618e86702" x="229.765927" y="89.215536" style="fill: #134a8e; stroke: #134a8e"/>
     <use xlink:href="#m4618e86702" x="231.163922" y="93.28529" style="fill: #134a8e; stroke: #134a8e"/>
     <use xlink:href="#m4618e86702" x="232.561918" y="92.998918" style="fill: #134a8e; stroke: #134a8e"/>
     <use xlink:href="#m4618e86702" x="233.959914" y="93.478569" style="fill: #134a8e; stroke: #134a8e"/>
     <use xlink:href="#m4618e86702" x="235.357909" y="94.20506" style="fill: #134a8e; stroke: #134a8e"/>
     <use xlink:href="#m4618e86702" x="236.755905" y="93.8339" style="fill: #134a8e; stroke: #134a8e"/>
     <use xlink:href="#m4618e86702" x="238.153901" y="94.058368" style="fill: #134a8e; stroke: #134a8e"/>
     <use xlink:href="#m4618e86702" x="239.551896" y="92.58517" style="fill: #134a8e; stroke: #134a8e"/>
     <use xlink:href="#m4618e86702" x="240.949892" y="125.235653" style="fill: #134a8e; stroke: #134a8e"/>
     <use xlink:href="#m4618e86702" x="242.347888" y="100.065173" style="fill: #134a8e; stroke: #134a8e"/>
     <use xlink:href="#m4618e86702" x="243.745884" y="102.360099" style="fill: #134a8e; stroke: #134a8e"/>
     <use xlink:href="#m4618e86702" x="245.143879" y="104.715488" style="fill: #134a8e; stroke: #134a8e"/>
     <use xlink:href="#m4618e86702" x="246.541875" y="98.046027" style="fill: #134a8e; stroke: #134a8e"/>
     <use xlink:href="#m4618e86702" x="247.939871" y="97.892506" style="fill: #134a8e; stroke: #134a8e"/>
     <use xlink:href="#m4618e86702" x="249.337866" y="106.412281" style="fill: #134a8e; stroke: #134a8e"/>
     <use xlink:href="#m4618e86702" x="250.735862" y="105.819809" style="fill: #134a8e; stroke: #134a8e"/>
     <use xlink:href="#m4618e86702" x="252.133858" y="116.284883" style="fill: #134a8e; stroke: #134a8e"/>
     <use xlink:href="#m4618e86702" x="253.531854" y="117.20288" style="fill: #134a8e; stroke: #134a8e"/>
     <use xlink:href="#m4618e86702" x="254.929849" y="117.689818" style="fill: #134a8e; stroke: #134a8e"/>
     <use xlink:href="#m4618e86702" x="256.327845" y="118.233451" style="fill: #134a8e; stroke: #134a8e"/>
     <use xlink:href="#m4618e86702" x="257.725841" y="118.420617" style="fill: #134a8e; stroke: #134a8e"/>
     <use xlink:href="#m4618e86702" x="259.123836" y="118.062563" style="fill: #134a8e; stroke: #134a8e"/>
     <use xlink:href="#m4618e86702" x="260.521832" y="118.715057" style="fill: #134a8e; stroke: #134a8e"/>
     <use xlink:href="#m4618e86702" x="261.919828" y="120.344675" style="fill: #134a8e; stroke: #134a8e"/>
     <use xlink:href="#m4618e86702" x="263.317823" y="119.422982" style="fill: #134a8e; stroke: #134a8e"/>
     <use xlink:href="#m4618e86702" x="264.715819" y="118.855535" style="fill: #134a8e; stroke: #134a8e"/>
     <use xlink:href="#m4618e86702" x="266.113815" y="119.807825" style="fill: #134a8e; stroke: #134a8e"/>
     <use xlink:href="#m4618e86702" x="267.511811" y="120.322942" style="fill: #134a8e; stroke: #134a8e"/>
     <use xlink:href="#m4618e86702" x="268.909806" y="120.405828" style="fill: #134a8e; stroke: #134a8e"/>
     <use xlink:href="#m4618e86702" x="270.307802" y="120.77129" style="fill: #134a8e; stroke: #134a8e"/>
     <use xlink:href="#m4618e86702" x="271.705798" y="120.255442" style="fill: #134a8e; stroke: #134a8e"/>
     <use xlink:href="#m4618e86702" x="273.103793" y="120.289499" style="fill: #134a8e; stroke: #134a8e"/>
     <use xlink:href="#m4618e86702" x="274.501789" y="120.375318" style="fill: #134a8e; stroke: #134a8e"/>
     <use xlink:href="#m4618e86702" x="275.899785" y="130.683321" style="fill: #134a8e; stroke: #134a8e"/>
     <use xlink:href="#m4618e86702" x="277.297781" y="131.718455" style="fill: #134a8e; stroke: #134a8e"/>
     <use xlink:href="#m4618e86702" x="278.695776" y="148.982196" style="fill: #134a8e; stroke: #134a8e"/>
     <use xlink:href="#m4618e86702" x="280.093772" y="149.933925" style="fill: #134a8e; stroke: #134a8e"/>
     <use xlink:href="#m4618e86702" x="281.491768" y="149.227182" style="fill: #134a8e; stroke: #134a8e"/>
     <use xlink:href="#m4618e86702" x="282.889763" y="149.398493" style="fill: #134a8e; stroke: #134a8e"/>
     <use xlink:href="#m4618e86702" x="284.287759" y="150.438789" style="fill: #134a8e; stroke: #134a8e"/>
     <use xlink:href="#m4618e86702" x="285.685755" y="151.584248" style="fill: #134a8e; stroke: #134a8e"/>
     <use xlink:href="#m4618e86702" x="287.08375" y="150.992013" style="fill: #134a8e; stroke: #134a8e"/>
     <use xlink:href="#m4618e86702" x="288.481746" y="158.251118" style="fill: #134a8e; stroke: #134a8e"/>
     <use xlink:href="#m4618e86702" x="289.879742" y="160.503937" style="fill: #134a8e; stroke: #134a8e"/>
     <use xlink:href="#m4618e86702" x="291.277738" y="160.596872" style="fill: #134a8e; stroke: #134a8e"/>
     <use xlink:href="#m4618e86702" x="292.675733" y="159.458218" style="fill: #134a8e; stroke: #134a8e"/>
     <use xlink:href="#m4618e86702" x="294.073729" y="158.161064" style="fill: #134a8e; stroke: #134a8e"/>
     <use xlink:href="#m4618e86702" x="295.471725" y="152.54677" style="fill: #134a8e; stroke: #134a8e"/>
     <use xlink:href="#m4618e86702" x="296.86972" y="151.963655" style="fill: #134a8e; stroke: #134a8e"/>
     <use xlink:href="#m4618e86702" x="298.267716" y="152.119472" style="fill: #134a8e; stroke: #134a8e"/>
     <use xlink:href="#m4618e86702" x="299.665712" y="150.687105" style="fill: #134a8e; stroke: #134a8e"/>
     <use xlink:href="#m4618e86702" x="301.063707" y="151.621151" style="fill: #134a8e; stroke: #134a8e"/>
     <use xlink:href="#m4618e86702" x="302.461703" y="149.475148" style="fill: #134a8e; stroke: #134a8e"/>
     <use xlink:href="#m4618e86702" x="303.859699" y="149.663292" style="fill: #134a8e; stroke: #134a8e"/>
     <use xlink:href="#m4618e86702" x="305.257695" y="149.768348" style="fill: #134a8e; stroke: #134a8e"/>
     <use xlink:href="#m4618e86702" x="306.65569" y="149.029447" style="fill: #134a8e; stroke: #134a8e"/>
     <use xlink:href="#m4618e86702" x="308.053686" y="138.935867" style="fill: #134a8e; stroke: #134a8e"/>
     <use xlink:href="#m4618e86702" x="309.451682" y="134.680509" style="fill: #134a8e; stroke: #134a8e"/>
     <use xlink:href="#m4618e86702" x="310.849677" y="134.72121" style="fill: #134a8e; stroke: #134a8e"/>
     <use xlink:href="#m4618e86702" x="312.247673" y="122.15772" style="fill: #134a8e; stroke: #134a8e"/>
     <use xlink:href="#m4618e86702" x="313.645669" y="123.315026" style="fill: #134a8e; stroke: #134a8e"/>
     <use xlink:href="#m4618e86702" x="315.043665" y="122.147964" style="fill: #134a8e; stroke: #134a8e"/>
     <use xlink:href="#m4618e86702" x="316.44166" y="122.598399" style="fill: #134a8e; stroke: #134a8e"/>
     <use xlink:href="#m4618e86702" x="317.839656" y="122.012052" style="fill: #134a8e; stroke: #134a8e"/>
     <use xlink:href="#m4618e86702" x="319.237652" y="119.813354" style="fill: #134a8e; stroke: #134a8e"/>
     <use xlink:href="#m4618e86702" x="320.635647" y="122.894606" style="fill: #134a8e; stroke: #134a8e"/>
     <use xlink:href="#m4618e86702" x="322.033643" y="124.108492" style="fill: #134a8e; stroke: #134a8e"/>
     <use xlink:href="#m4618e86702" x="323.431639" y="123.967869" style="fill: #134a8e; stroke: #134a8e"/>
     <use xlink:href="#m4618e86702" x="324.829634" y="123.288917" style="fill: #134a8e; stroke: #134a8e"/>
     <use xlink:href="#m4618e86702" x="326.22763" y="121.581787" style="fill: #134a8e; stroke: #134a8e"/>
     <use xlink:href="#m4618e86702" x="327.625626" y="123.278207" style="fill: #134a8e; stroke: #134a8e"/>
     <use xlink:href="#m4618e86702" x="329.023622" y="123.105746" style="fill: #134a8e; stroke: #134a8e"/>
     <use xlink:href="#m4618e86702" x="330.421617" y="124.406414" style="fill: #134a8e; stroke: #134a8e"/>
     <use xlink:href="#m4618e86702" x="331.819613" y="137.128185" style="fill: #134a8e; stroke: #134a8e"/>
     <use xlink:href="#m4618e86702" x="333.217609" y="137.272501" style="fill: #134a8e; stroke: #134a8e"/>
     <use xlink:href="#m4618e86702" x="334.615604" y="137.861502" style="fill: #134a8e; stroke: #134a8e"/>
     <use xlink:href="#m4618e86702" x="336.0136" y="137.22045" style="fill: #134a8e; stroke: #134a8e"/>
     <use xlink:href="#m4618e86702" x="337.411596" y="158.25332" style="fill: #134a8e; stroke: #134a8e"/>
     <use xlink:href="#m4618e86702" x="338.809592" y="149.627412" style="fill: #134a8e; stroke: #134a8e"/>
     <use xlink:href="#m4618e86702" x="340.207587" y="151.365326" style="fill: #134a8e; stroke: #134a8e"/>
     <use xlink:href="#m4618e86702" x="341.605583" y="151.253159" style="fill: #134a8e; stroke: #134a8e"/>
     <use xlink:href="#m4618e86702" x="343.003579" y="151.163385" style="fill: #134a8e; stroke: #134a8e"/>
     <use xlink:href="#m4618e86702" x="344.401574" y="151.109983" style="fill: #134a8e; stroke: #134a8e"/>
     <use xlink:href="#m4618e86702" x="345.79957" y="157.843389" style="fill: #134a8e; stroke: #134a8e"/>
     <use xlink:href="#m4618e86702" x="347.197566" y="150.896164" style="fill: #134a8e; stroke: #134a8e"/>
     <use xlink:href="#m4618e86702" x="348.595561" y="148.021027" style="fill: #134a8e; stroke: #134a8e"/>
     <use xlink:href="#m4618e86702" x="349.993557" y="147.029511" style="fill: #134a8e; stroke: #134a8e"/>
     <use xlink:href="#m4618e86702" x="351.391553" y="146.221981" style="fill: #134a8e; stroke: #134a8e"/>
     <use xlink:href="#m4618e86702" x="352.789549" y="147.061873" style="fill: #134a8e; stroke: #134a8e"/>
     <use xlink:href="#m4618e86702" x="354.187544" y="115.884975" style="fill: #134a8e; stroke: #134a8e"/>
     <use xlink:href="#m4618e86702" x="355.58554" y="132.621619" style="fill: #134a8e; stroke: #134a8e"/>
     <use xlink:href="#m4618e86702" x="356.983536" y="117.087658" style="fill: #134a8e; stroke: #134a8e"/>
     <use xlink:href="#m4618e86702" x="358.381531" y="50.385572" style="fill: #134a8e; stroke: #134a8e"/>
     <use xlink:href="#m4618e86702" x="359.779527" y="51.282779" style="fill: #134a8e; stroke: #134a8e"/>
     <use xlink:href="#m4618e86702" x="361.177523" y="39.171331" style="fill: #134a8e; stroke: #134a8e"/>
     <use xlink:href="#m4618e86702" x="362.575519" y="39.669734" style="fill: #134a8e; stroke: #134a8e"/>
     <use xlink:href="#m4618e86702" x="363.973514" y="44.178463" style="fill: #134a8e; stroke: #134a8e"/>
     <use xlink:href="#m4618e86702" x="365.37151" y="37.108452" style="fill: #134a8e; stroke: #134a8e"/>
     <use xlink:href="#m4618e86702" x="366.769506" y="34.49104" style="fill: #134a8e; stroke: #134a8e"/>
     <use xlink:href="#m4618e86702" x="368.167501" y="36.851096" style="fill: #134a8e; stroke: #134a8e"/>
     <use xlink:href="#m4618e86702" x="369.565497" y="36.252369" style="fill: #134a8e; stroke: #134a8e"/>
     <use xlink:href="#m4618e86702" x="370.963493" y="39.352354" style="fill: #134a8e; stroke: #134a8e"/>
     <use xlink:href="#m4618e86702" x="372.361488" y="34.165451" style="fill: #134a8e; stroke: #134a8e"/>
     <use xlink:href="#m4618e86702" x="373.759484" y="30.188602" style="fill: #134a8e; stroke: #134a8e"/>
     <use xlink:href="#m4618e86702" x="375.15748" y="34.175225" style="fill: #134a8e; stroke: #134a8e"/>
     <use xlink:href="#m4618e86702" x="376.555476" y="32.235682" style="fill: #134a8e; stroke: #134a8e"/>
     <use xlink:href="#m4618e86702" x="377.953471" y="39.014398" style="fill: #134a8e; stroke: #134a8e"/>
     <use xlink:href="#m4618e86702" x="379.351467" y="39.505374" style="fill: #134a8e; stroke: #134a8e"/>
     <use xlink:href="#m4618e86702" x="380.749463" y="41.633266" style="fill: #134a8e; stroke: #134a8e"/>
     <use xlink:href="#m4618e86702" x="382.147458" y="39.382228" style="fill: #134a8e; stroke: #134a8e"/>
     <use xlink:href="#m4618e86702" x="383.545454" y="73.852715" style="fill: #134a8e; stroke: #134a8e"/>
     <use xlink:href="#m4618e86702" x="384.94345" y="71.630106" style="fill: #134a8e; stroke: #134a8e"/>
     <use xlink:href="#m4618e86702" x="386.341446" y="71.620426" style="fill: #134a8e; stroke: #134a8e"/>
     <use xlink:href="#m4618e86702" x="387.739441" y="72.04603" style="fill: #134a8e; stroke: #134a8e"/>
     <use xlink:href="#m4618e86702" x="389.137437" y="72.359896" style="fill: #134a8e; stroke: #134a8e"/>
     <use xlink:href="#m4618e86702" x="390.535433" y="80.472154" style="fill: #134a8e; stroke: #134a8e"/>
     <use xlink:href="#m4618e86702" x="391.933428" y="79.677095" style="fill: #134a8e; stroke: #134a8e"/>
     <use xlink:href="#m4618e86702" x="393.331424" y="112.616768" style="fill: #134a8e; stroke: #134a8e"/>
     <use xlink:href="#m4618e86702" x="394.72942" y="111.604735" style="fill: #134a8e; stroke: #134a8e"/>
     <use xlink:href="#m4618e86702" x="396.127415" y="113.519155" style="fill: #134a8e; stroke: #134a8e"/>
     <use xlink:href="#m4618e86702" x="397.525411" y="118.659454" style="fill: #134a8e; stroke: #134a8e"/>
     <use xlink:href="#m4618e86702" x="398.923407" y="131.724093" style="fill: #134a8e; stroke: #134a8e"/>
     <use xlink:href="#m4618e86702" x="400.321403" y="131.321192" style="fill: #134a8e; stroke: #134a8e"/>
     <use xlink:href="#m4618e86702" x="401.719398" y="132.738096" style="fill: #134a8e; stroke: #134a8e"/>
     <use xlink:href="#m4618e86702" x="403.117394" y="138.164427" style="fill: #134a8e; stroke: #134a8e"/>
     <use xlink:href="#m4618e86702" x="404.51539" y="141.180766" style="fill: #134a8e; stroke: #134a8e"/>
     <use xlink:href="#m4618e86702" x="405.913385" y="140.212349" style="fill: #134a8e; stroke: #134a8e"/>
     <use xlink:href="#m4618e86702" x="407.311381" y="142.939678" style="fill: #134a8e; stroke: #134a8e"/>
     <use xlink:href="#m4618e86702" x="408.709377" y="143.271013" style="fill: #134a8e; stroke: #134a8e"/>
     <use xlink:href="#m4618e86702" x="410.107372" y="143.467098" style="fill: #134a8e; stroke: #134a8e"/>
     <use xlink:href="#m4618e86702" x="411.505368" y="142.993691" style="fill: #134a8e; stroke: #134a8e"/>
     <use xlink:href="#m4618e86702" x="412.903364" y="143.733093" style="fill: #134a8e; stroke: #134a8e"/>
     <use xlink:href="#m4618e86702" x="414.30136" y="154.373377" style="fill: #134a8e; stroke: #134a8e"/>
     <use xlink:href="#m4618e86702" x="415.699355" y="144.375294" style="fill: #134a8e; stroke: #134a8e"/>
     <use xlink:href="#m4618e86702" x="417.097351" y="155.465937" style="fill: #134a8e; stroke: #134a8e"/>
     <use xlink:href="#m4618e86702" x="418.495347" y="155.760793" style="fill: #134a8e; stroke: #134a8e"/>
     <use xlink:href="#m4618e86702" x="419.893342" y="155.656466" style="fill: #134a8e; stroke: #134a8e"/>
     <use xlink:href="#m4618e86702" x="421.291338" y="155.765069" style="fill: #134a8e; stroke: #134a8e"/>
     <use xlink:href="#m4618e86702" x="422.689334" y="154.480919" style="fill: #134a8e; stroke: #134a8e"/>
     <use xlink:href="#m4618e86702" x="424.08733" y="154.548837" style="fill: #134a8e; stroke: #134a8e"/>
    </g>
   </g>
   <g id="line2d_26">
    <path d="M 68.99642 146.084748 
L 70.394416 146.154883 
L 71.792412 150.514661 
L 73.190408 149.64986 
L 74.588403 149.856348 
L 75.986399 149.812209 
L 77.384395 145.036537 
L 78.78239 145.076144 
L 81.578382 144.489687 
L 82.976378 139.565196 
L 84.374373 139.189123 
L 85.772369 142.770399 
L 87.170365 144.305632 
L 88.56836 149.548163 
L 89.966356 149.919632 
L 91.364352 149.995204 
L 92.762347 150.63981 
L 95.558339 150.124024 
L 96.956335 154.183619 
L 98.35433 154.893645 
L 99.752326 154.862829 
L 101.150322 154.970744 
L 102.548317 159.705906 
L 103.946313 159.785486 
L 105.344309 160.127902 
L 108.1403 159.583149 
L 109.538296 159.69212 
L 112.334287 159.513903 
L 113.732283 154.581926 
L 115.130279 150.237262 
L 116.528274 151.074147 
L 117.92627 149.550131 
L 119.324266 150.609092 
L 120.722262 150.439788 
L 122.120257 155.2022 
L 123.518253 150.783174 
L 124.916249 145.960547 
L 126.314244 145.624803 
L 127.71224 145.537208 
L 130.508231 146.015006 
L 131.906227 136.251028 
L 133.304223 140.94658 
L 134.702219 140.530472 
L 136.100214 140.808564 
L 137.49821 136.48134 
L 138.896206 136.38215 
L 140.294201 137.820854 
L 141.692197 134.00231 
L 144.488189 143.16413 
L 145.886184 140.090979 
L 147.28418 124.076519 
L 148.682176 120.13353 
L 150.080171 121.605914 
L 151.478167 130.451668 
L 152.876163 131.316004 
L 154.274158 135.500889 
L 155.672154 136.711314 
L 157.07015 140.014772 
L 158.468146 140.75534 
L 159.866141 140.914324 
L 161.264137 144.956543 
L 162.662133 140.418443 
L 164.060128 138.851836 
L 165.458124 123.202122 
L 166.85612 123.307617 
L 168.254116 128.368386 
L 169.652111 129.520304 
L 171.050107 126.263115 
L 172.448103 125.305742 
L 173.846098 126.374933 
L 175.244094 129.192642 
L 176.64209 119.019483 
L 178.040085 116.574212 
L 179.438081 117.020365 
L 180.836077 112.813796 
L 182.234073 110.598971 
L 183.632068 110.805106 
L 185.030064 120.972522 
L 186.42806 122.713323 
L 187.826055 126.905864 
L 189.224051 126.115328 
L 190.622047 127.865901 
L 192.020043 130.621958 
L 193.418038 130.189347 
L 194.816034 128.01457 
L 196.21403 129.328926 
L 197.612025 131.271946 
L 199.010021 131.688896 
L 200.408017 126.075862 
L 201.806012 130.080132 
L 203.204008 123.88407 
L 204.602004 120.242762 
L 206 119.234582 
L 207.397995 117.308317 
L 208.795991 121.257864 
L 210.193987 118.080618 
L 211.591982 108.611853 
L 212.989978 105.177771 
L 214.387974 100.165801 
L 215.785969 94.198558 
L 217.183965 99.005488 
L 218.581961 97.880649 
L 219.979957 97.49984 
L 221.377952 85.889907 
L 222.775948 96.840131 
L 224.173944 101.199095 
L 225.571939 101.5261 
L 226.969935 104.575471 
L 228.367931 102.207457 
L 229.765927 103.01336 
L 231.163922 109.364465 
L 232.561918 111.139285 
L 233.959914 112.616008 
L 235.357909 119.581408 
L 236.755905 115.909488 
L 238.153901 117.238691 
L 239.551896 120.267688 
L 240.949892 127.279208 
L 242.347888 123.990455 
L 243.745884 124.823969 
L 245.143879 126.444078 
L 246.541875 120.533456 
L 247.939871 120.741896 
L 249.337866 123.283941 
L 250.735862 126.747664 
L 253.531854 131.676646 
L 254.929849 132.308525 
L 257.725841 133.806303 
L 259.123836 129.011717 
L 260.521832 127.837251 
L 261.919828 128.76729 
L 263.317823 129.52574 
L 264.715819 128.59314 
L 266.113815 134.085943 
L 267.511811 133.808047 
L 268.909806 134.410444 
L 270.307802 128.472302 
L 271.705798 127.475553 
L 273.103793 138.216959 
L 274.501789 138.147863 
L 275.899785 140.223681 
L 277.297781 140.143609 
L 278.695776 151.424924 
L 280.093772 154.369539 
L 281.491768 152.54035 
L 282.889763 151.466984 
L 284.287759 153.350104 
L 285.685755 153.870988 
L 287.08375 156.431744 
L 288.481746 159.919906 
L 289.879742 161.884139 
L 291.277738 162.047298 
L 292.675733 160.834042 
L 294.073729 159.913608 
L 295.471725 157.857862 
L 296.86972 158.562012 
L 298.267716 157.373979 
L 299.665712 155.981491 
L 301.063707 155.749044 
L 302.461703 154.33773 
L 303.859699 154.298918 
L 305.257695 153.606592 
L 306.65569 152.079136 
L 308.053686 145.43284 
L 309.451682 142.348668 
L 310.849677 141.641363 
L 312.247673 134.413581 
L 313.645669 132.90156 
L 315.043665 133.261988 
L 316.44166 132.97844 
L 317.839656 124.877212 
L 319.237652 125.089501 
L 322.033643 129.417042 
L 323.431639 129.157202 
L 324.829634 127.644486 
L 326.22763 124.39095 
L 327.625626 128.131655 
L 329.023622 130.390227 
L 330.421617 129.35604 
L 331.819613 138.754924 
L 333.217609 142.951685 
L 334.615604 143.778278 
L 336.0136 143.548099 
L 337.411596 159.709946 
L 338.809592 154.465951 
L 340.207587 156.880951 
L 341.605583 156.732274 
L 344.401574 156.596592 
L 345.79957 159.270014 
L 347.197566 156.933649 
L 349.993557 146.898657 
L 351.391553 147.374624 
L 352.789549 147.371798 
L 354.187544 126.537644 
L 355.58554 134.911537 
L 356.983536 129.277161 
L 358.381531 74.620359 
L 359.779527 67.251934 
L 361.177523 71.707269 
L 362.575519 71.439605 
L 363.973514 63.952207 
L 365.37151 62.202042 
L 366.769506 56.034166 
L 368.167501 59.968879 
L 369.565497 58.410048 
L 370.963493 61.391036 
L 372.361488 61.221713 
L 373.759484 47.375309 
L 375.15748 44.015501 
L 376.555476 44.391836 
L 377.953471 74.424422 
L 379.351467 69.516243 
L 380.749463 73.334614 
L 382.147458 73.429835 
L 383.545454 76.569909 
L 384.94345 80.308511 
L 386.341446 88.236989 
L 387.739441 90.148806 
L 389.137437 95.344102 
L 390.535433 99.211854 
L 391.933428 99.354305 
L 393.331424 121.103542 
L 394.72942 118.734026 
L 396.127415 126.476533 
L 397.525411 129.020589 
L 398.923407 136.108982 
L 400.321403 138.141059 
L 401.719398 138.147311 
L 403.117394 143.140348 
L 404.51539 145.488111 
L 405.913385 146.887527 
L 407.311381 149.622579 
L 408.709377 151.804058 
L 410.107372 152.066677 
L 411.505368 152.092512 
L 412.903364 151.857322 
L 414.30136 155.903767 
L 415.699355 154.794349 
L 417.097351 157.645953 
L 418.495347 157.852536 
L 419.893342 157.639421 
L 421.291338 158.627949 
L 422.689334 156.247505 
L 424.08733 156.234065 
L 424.08733 156.234065 
" clip-path="url(#p5b2a4ffdc2)" style="fill: none; stroke-dasharray: 5.55,2.4; stroke-dashoffset: 0; stroke: #000000; stroke-width: 1.5"/>
   </g>
   <g id="patch_3">
    <path d="M 51.241875 169.607298 
L 51.241875 3.287298 
" style="fill: none; stroke: #ffffff; stroke-linejoin: miter; stroke-linecap: square"/>
   </g>
   <g id="patch_4">
    <path d="M 441.841875 169.607298 
L 441.841875 3.287298 
" style="fill: none; stroke: #ffffff; stroke-linejoin: miter; stroke-linecap: square"/>
   </g>
   <g id="patch_5">
    <path d="M 51.241875 169.607298 
L 441.841875 169.607298 
" style="fill: none; stroke: #ffffff; stroke-linejoin: miter; stroke-linecap: square"/>
   </g>
   <g id="patch_6">
    <path d="M 51.241875 3.287298 
L 441.841875 3.287298 
" style="fill: none; stroke: #ffffff; stroke-linejoin: miter; stroke-linecap: square"/>
   </g>
   <g id="legend_1">
    <g id="patch_7">
     <path d="M 58.241875 63.665423 
L 210.28875 63.665423 
Q 212.28875 63.665423 212.28875 61.665423 
L 212.28875 10.287298 
Q 212.28875 8.287298 210.28875 8.287298 
L 58.241875 8.287298 
Q 56.241875 8.287298 56.241875 10.287298 
L 56.241875 61.665423 
Q 56.241875 63.665423 58.241875 63.665423 
z
" style="fill: #e5e5e5; opacity: 0.8; stroke: #cccccc; stroke-width: 0.5; stroke-linejoin: miter"/>
    </g>
    <g id="line2d_27">
     <path d="M 60.241875 18.787298 
L 70.241875 18.787298 
L 80.241875 18.787298 
" style="fill: none; stroke: #134a8e; stroke-width: 3; stroke-linecap: square"/>
     <g>
      <use xlink:href="#m4618e86702" x="70.241875" y="18.787298" style="fill: #134a8e; stroke: #134a8e"/>
     </g>
    </g>
    <g id="text_15">
     <!-- Private Value $\tilde{R}_{\chi_1,\chi_3}^t$ -->
     <g transform="translate(88.241875 22.287298) scale(0.1 -0.1)">
      <defs>
       <path id="DejaVuSans-50" d="M 1259 4147 
L 1259 2394 
L 2053 2394 
Q 2494 2394 2734 2622 
Q 2975 2850 2975 3272 
Q 2975 3691 2734 3919 
Q 2494 4147 2053 4147 
L 1259 4147 
z
M 628 4666 
L 2053 4666 
Q 2838 4666 3239 4311 
Q 3641 3956 3641 3272 
Q 3641 2581 3239 2228 
Q 2838 1875 2053 1875 
L 1259 1875 
L 1259 0 
L 628 0 
L 628 4666 
z
" transform="scale(0.015625)"/>
       <path id="DejaVuSans-72" d="M 2631 2963 
Q 2534 3019 2420 3045 
Q 2306 3072 2169 3072 
Q 1681 3072 1420 2755 
Q 1159 2438 1159 1844 
L 1159 0 
L 581 0 
L 581 3500 
L 1159 3500 
L 1159 2956 
Q 1341 3275 1631 3429 
Q 1922 3584 2338 3584 
Q 2397 3584 2469 3576 
Q 2541 3569 2628 3553 
L 2631 2963 
z
" transform="scale(0.015625)"/>
       <path id="DejaVuSans-69" d="M 603 3500 
L 1178 3500 
L 1178 0 
L 603 0 
L 603 3500 
z
M 603 4863 
L 1178 4863 
L 1178 4134 
L 603 4134 
L 603 4863 
z
" transform="scale(0.015625)"/>
       <path id="DejaVuSans-76" d="M 191 3500 
L 800 3500 
L 1894 563 
L 2988 3500 
L 3597 3500 
L 2284 0 
L 1503 0 
L 191 3500 
z
" transform="scale(0.015625)"/>
       <path id="DejaVuSans-20" transform="scale(0.015625)"/>
       <path id="DejaVuSans-303" d="M -1621 4281 
L -1799 4453 
Q -1867 4516 -1919 4545 
Q -1971 4575 -2011 4575 
Q -2130 4575 -2186 4461 
Q -2242 4347 -2249 4091 
L -2639 4091 
Q -2633 4513 -2473 4742 
Q -2314 4972 -2030 4972 
Q -1911 4972 -1811 4928 
Q -1711 4884 -1596 4781 
L -1417 4609 
Q -1349 4547 -1297 4517 
Q -1246 4488 -1205 4488 
Q -1086 4488 -1030 4602 
Q -974 4716 -967 4972 
L -577 4972 
Q -583 4550 -742 4320 
Q -902 4091 -1186 4091 
Q -1305 4091 -1405 4134 
Q -1505 4178 -1621 4281 
z
" transform="scale(0.015625)"/>
       <path id="DejaVuSans-Oblique-52" d="M 1613 4147 
L 1294 2491 
L 2106 2491 
Q 2584 2491 2879 2755 
Q 3175 3019 3175 3444 
Q 3175 3784 2976 3965 
Q 2778 4147 2406 4147 
L 1613 4147 
z
M 2772 2241 
Q 2972 2194 3105 2009 
Q 3238 1825 3413 1275 
L 3809 0 
L 3144 0 
L 2778 1197 
Q 2638 1659 2453 1815 
Q 2269 1972 1888 1972 
L 1191 1972 
L 806 0 
L 172 0 
L 1081 4666 
L 2503 4666 
Q 3150 4666 3495 4373 
Q 3841 4081 3841 3531 
Q 3841 3044 3547 2687 
Q 3253 2331 2772 2241 
z
" transform="scale(0.015625)"/>
       <path id="DejaVuSans-Oblique-74" d="M 2706 3500 
L 2619 3053 
L 1472 3053 
L 1100 1153 
Q 1081 1047 1072 975 
Q 1063 903 1063 863 
Q 1063 663 1183 572 
Q 1303 481 1569 481 
L 2150 481 
L 2053 0 
L 1503 0 
Q 991 0 739 200 
Q 488 400 488 806 
Q 488 878 497 964 
Q 506 1050 525 1153 
L 897 3053 
L 409 3053 
L 500 3500 
L 978 3500 
L 1172 4494 
L 1747 4494 
L 1556 3500 
L 2706 3500 
z
" transform="scale(0.015625)"/>
       <path id="DejaVuSans-Oblique-3c7" d="M 1922 -781 
L 1691 416 
L 394 -1334 
L -284 -1334 
L 1553 1141 
L 1269 2613 
Q 1194 3006 713 3006 
L 559 3006 
L 653 3500 
L 872 3494 
Q 1675 3472 1775 2950 
L 2006 1753 
L 3303 3503 
L 3981 3503 
L 2144 1028 
L 2428 -444 
Q 2503 -838 2984 -838 
L 3138 -838 
L 3044 -1331 
L 2825 -1325 
Q 2022 -1303 1922 -781 
z
" transform="scale(0.015625)"/>
       <path id="DejaVuSans-2c" d="M 750 794 
L 1409 794 
L 1409 256 
L 897 -744 
L 494 -744 
L 750 256 
L 750 794 
z
" transform="scale(0.015625)"/>
      </defs>
      <use xlink:href="#DejaVuSans-50" transform="translate(0 0.828125)"/>
      <use xlink:href="#DejaVuSans-72" transform="translate(60.302734 0.828125)"/>
      <use xlink:href="#DejaVuSans-69" transform="translate(101.416016 0.828125)"/>
      <use xlink:href="#DejaVuSans-76" transform="translate(129.199219 0.828125)"/>
      <use xlink:href="#DejaVuSans-61" transform="translate(188.378906 0.828125)"/>
      <use xlink:href="#DejaVuSans-74" transform="translate(249.658203 0.828125)"/>
      <use xlink:href="#DejaVuSans-65" transform="translate(288.867188 0.828125)"/>
      <use xlink:href="#DejaVuSans-20" transform="translate(350.390625 0.828125)"/>
      <use xlink:href="#DejaVuSans-56" transform="translate(382.177734 0.828125)"/>
      <use xlink:href="#DejaVuSans-61" transform="translate(450.585938 0.828125)"/>
      <use xlink:href="#DejaVuSans-6c" transform="translate(511.865234 0.828125)"/>
      <use xlink:href="#DejaVuSans-75" transform="translate(539.648438 0.828125)"/>
      <use xlink:href="#DejaVuSans-65" transform="translate(603.027344 0.828125)"/>
      <use xlink:href="#DejaVuSans-20" transform="translate(664.550781 0.828125)"/>
      <use xlink:href="#DejaVuSans-303" transform="translate(764.942871 22.3125)"/>
      <use xlink:href="#DejaVuSans-Oblique-52" transform="translate(696.337891 0.828125)"/>
      <use xlink:href="#DejaVuSans-Oblique-74" transform="translate(766.777344 39.109375) scale(0.7)"/>
      <use xlink:href="#DejaVuSans-Oblique-3c7" transform="translate(766.777344 -26.515625) scale(0.7)"/>
      <use xlink:href="#DejaVuSans-31" transform="translate(808.203125 -38) scale(0.49)"/>
      <use xlink:href="#DejaVuSans-2c" transform="translate(841.29248 -26.515625) scale(0.7)"/>
      <use xlink:href="#DejaVuSans-Oblique-3c7" transform="translate(877.181152 -26.515625) scale(0.7)"/>
      <use xlink:href="#DejaVuSans-33" transform="translate(918.606934 -38) scale(0.49)"/>
     </g>
    </g>
    <g id="line2d_28">
     <path d="M 60.241875 37.287298 
L 70.241875 37.287298 
L 80.241875 37.287298 
" style="fill: none; stroke-dasharray: 5.55,2.4; stroke-dashoffset: 0; stroke: #000000; stroke-width: 1.5"/>
    </g>
    <g id="text_16">
     <!-- Original Value $\bar{R}_{\chi_1,\chi_3}^t$ -->
     <g transform="translate(88.241875 40.787298) scale(0.1 -0.1)">
      <defs>
       <path id="DejaVuSans-4f" d="M 2522 4238 
Q 1834 4238 1429 3725 
Q 1025 3213 1025 2328 
Q 1025 1447 1429 934 
Q 1834 422 2522 422 
Q 3209 422 3611 934 
Q 4013 1447 4013 2328 
Q 4013 3213 3611 3725 
Q 3209 4238 2522 4238 
z
M 2522 4750 
Q 3503 4750 4090 4092 
Q 4678 3434 4678 2328 
Q 4678 1225 4090 567 
Q 3503 -91 2522 -91 
Q 1538 -91 948 565 
Q 359 1222 359 2328 
Q 359 3434 948 4092 
Q 1538 4750 2522 4750 
z
" transform="scale(0.015625)"/>
       <path id="DejaVuSans-67" d="M 2906 1791 
Q 2906 2416 2648 2759 
Q 2391 3103 1925 3103 
Q 1463 3103 1205 2759 
Q 947 2416 947 1791 
Q 947 1169 1205 825 
Q 1463 481 1925 481 
Q 2391 481 2648 825 
Q 2906 1169 2906 1791 
z
M 3481 434 
Q 3481 -459 3084 -895 
Q 2688 -1331 1869 -1331 
Q 1566 -1331 1297 -1286 
Q 1028 -1241 775 -1147 
L 775 -588 
Q 1028 -725 1275 -790 
Q 1522 -856 1778 -856 
Q 2344 -856 2625 -561 
Q 2906 -266 2906 331 
L 2906 616 
Q 2728 306 2450 153 
Q 2172 0 1784 0 
Q 1141 0 747 490 
Q 353 981 353 1791 
Q 353 2603 747 3093 
Q 1141 3584 1784 3584 
Q 2172 3584 2450 3431 
Q 2728 3278 2906 2969 
L 2906 3500 
L 3481 3500 
L 3481 434 
z
" transform="scale(0.015625)"/>
       <path id="DejaVuSans-6e" d="M 3513 2113 
L 3513 0 
L 2938 0 
L 2938 2094 
Q 2938 2591 2744 2837 
Q 2550 3084 2163 3084 
Q 1697 3084 1428 2787 
Q 1159 2491 1159 1978 
L 1159 0 
L 581 0 
L 581 3500 
L 1159 3500 
L 1159 2956 
Q 1366 3272 1645 3428 
Q 1925 3584 2291 3584 
Q 2894 3584 3203 3211 
Q 3513 2838 3513 2113 
z
" transform="scale(0.015625)"/>
       <path id="DejaVuSans-304" d="M -2518 4769 
L -650 4769 
L -650 4306 
L -2518 4306 
L -2518 4769 
z
" transform="scale(0.015625)"/>
      </defs>
      <use xlink:href="#DejaVuSans-4f" transform="translate(0 0.359375)"/>
      <use xlink:href="#DejaVuSans-72" transform="translate(78.710938 0.359375)"/>
      <use xlink:href="#DejaVuSans-69" transform="translate(119.824219 0.359375)"/>
      <use xlink:href="#DejaVuSans-67" transform="translate(147.607422 0.359375)"/>
      <use xlink:href="#DejaVuSans-69" transform="translate(211.083984 0.359375)"/>
      <use xlink:href="#DejaVuSans-6e" transform="translate(238.867188 0.359375)"/>
      <use xlink:href="#DejaVuSans-61" transform="translate(302.246094 0.359375)"/>
      <use xlink:href="#DejaVuSans-6c" transform="translate(363.525391 0.359375)"/>
      <use xlink:href="#DejaVuSans-20" transform="translate(391.308594 0.359375)"/>
      <use xlink:href="#DejaVuSans-56" transform="translate(423.095703 0.359375)"/>
      <use xlink:href="#DejaVuSans-61" transform="translate(491.503906 0.359375)"/>
      <use xlink:href="#DejaVuSans-6c" transform="translate(552.783203 0.359375)"/>
      <use xlink:href="#DejaVuSans-75" transform="translate(580.566406 0.359375)"/>
      <use xlink:href="#DejaVuSans-65" transform="translate(643.945312 0.359375)"/>
      <use xlink:href="#DejaVuSans-20" transform="translate(705.46875 0.359375)"/>
      <use xlink:href="#DejaVuSans-304" transform="translate(804.970215 18.484375)"/>
      <use xlink:href="#DejaVuSans-Oblique-52" transform="translate(737.255859 0.359375)"/>
      <use xlink:href="#DejaVuSans-Oblique-74" transform="translate(807.695312 38.640625) scale(0.7)"/>
      <use xlink:href="#DejaVuSans-Oblique-3c7" transform="translate(807.695312 -26.984375) scale(0.7)"/>
      <use xlink:href="#DejaVuSans-31" transform="translate(849.121094 -38.46875) scale(0.49)"/>
      <use xlink:href="#DejaVuSans-2c" transform="translate(882.210449 -26.984375) scale(0.7)"/>
      <use xlink:href="#DejaVuSans-Oblique-3c7" transform="translate(918.099121 -26.984375) scale(0.7)"/>
      <use xlink:href="#DejaVuSans-33" transform="translate(959.524902 -38.46875) scale(0.49)"/>
     </g>
    </g>
    <g id="patch_8">
     <path d="M 60.241875 57.585736 
L 80.241875 57.585736 
L 80.241875 50.585736 
L 60.241875 50.585736 
z
" style="fill: #134a8e; fill-opacity: 0.5; stroke: #134a8e; stroke-opacity: 0.5; stroke-width: 0.5; stroke-linejoin: miter"/>
    </g>
    <g id="text_17">
     <!-- One Standard Deviation -->
     <g transform="translate(88.241875 57.585736) scale(0.1 -0.1)">
      <defs>
       <path id="DejaVuSans-53" d="M 3425 4513 
L 3425 3897 
Q 3066 4069 2747 4153 
Q 2428 4238 2131 4238 
Q 1616 4238 1336 4038 
Q 1056 3838 1056 3469 
Q 1056 3159 1242 3001 
Q 1428 2844 1947 2747 
L 2328 2669 
Q 3034 2534 3370 2195 
Q 3706 1856 3706 1288 
Q 3706 609 3251 259 
Q 2797 -91 1919 -91 
Q 1588 -91 1214 -16 
Q 841 59 441 206 
L 441 856 
Q 825 641 1194 531 
Q 1563 422 1919 422 
Q 2459 422 2753 634 
Q 3047 847 3047 1241 
Q 3047 1584 2836 1778 
Q 2625 1972 2144 2069 
L 1759 2144 
Q 1053 2284 737 2584 
Q 422 2884 422 3419 
Q 422 4038 858 4394 
Q 1294 4750 2059 4750 
Q 2388 4750 2728 4690 
Q 3069 4631 3425 4513 
z
" transform="scale(0.015625)"/>
       <path id="DejaVuSans-64" d="M 2906 2969 
L 2906 4863 
L 3481 4863 
L 3481 0 
L 2906 0 
L 2906 525 
Q 2725 213 2448 61 
Q 2172 -91 1784 -91 
Q 1150 -91 751 415 
Q 353 922 353 1747 
Q 353 2572 751 3078 
Q 1150 3584 1784 3584 
Q 2172 3584 2448 3432 
Q 2725 3281 2906 2969 
z
M 947 1747 
Q 947 1113 1208 752 
Q 1469 391 1925 391 
Q 2381 391 2643 752 
Q 2906 1113 2906 1747 
Q 2906 2381 2643 2742 
Q 2381 3103 1925 3103 
Q 1469 3103 1208 2742 
Q 947 2381 947 1747 
z
" transform="scale(0.015625)"/>
       <path id="DejaVuSans-6f" d="M 1959 3097 
Q 1497 3097 1228 2736 
Q 959 2375 959 1747 
Q 959 1119 1226 758 
Q 1494 397 1959 397 
Q 2419 397 2687 759 
Q 2956 1122 2956 1747 
Q 2956 2369 2687 2733 
Q 2419 3097 1959 3097 
z
M 1959 3584 
Q 2709 3584 3137 3096 
Q 3566 2609 3566 1747 
Q 3566 888 3137 398 
Q 2709 -91 1959 -91 
Q 1206 -91 779 398 
Q 353 888 353 1747 
Q 353 2609 779 3096 
Q 1206 3584 1959 3584 
z
" transform="scale(0.015625)"/>
      </defs>
      <use xlink:href="#DejaVuSans-4f"/>
      <use xlink:href="#DejaVuSans-6e" x="78.710938"/>
      <use xlink:href="#DejaVuSans-65" x="142.089844"/>
      <use xlink:href="#DejaVuSans-20" x="203.613281"/>
      <use xlink:href="#DejaVuSans-53" x="235.400391"/>
      <use xlink:href="#DejaVuSans-74" x="298.876953"/>
      <use xlink:href="#DejaVuSans-61" x="338.085938"/>
      <use xlink:href="#DejaVuSans-6e" x="399.365234"/>
      <use xlink:href="#DejaVuSans-64" x="462.744141"/>
      <use xlink:href="#DejaVuSans-61" x="526.220703"/>
      <use xlink:href="#DejaVuSans-72" x="587.5"/>
      <use xlink:href="#DejaVuSans-64" x="626.863281"/>
      <use xlink:href="#DejaVuSans-20" x="690.339844"/>
      <use xlink:href="#DejaVuSans-44" x="722.126953"/>
      <use xlink:href="#DejaVuSans-65" x="799.128906"/>
      <use xlink:href="#DejaVuSans-76" x="860.652344"/>
      <use xlink:href="#DejaVuSans-69" x="919.832031"/>
      <use xlink:href="#DejaVuSans-61" x="947.615234"/>
      <use xlink:href="#DejaVuSans-74" x="1008.894531"/>
      <use xlink:href="#DejaVuSans-69" x="1048.103516"/>
      <use xlink:href="#DejaVuSans-6f" x="1075.886719"/>
      <use xlink:href="#DejaVuSans-6e" x="1137.068359"/>
     </g>
    </g>
   </g>
  </g>
 </g>
 <defs>
  <clipPath id="p5b2a4ffdc2">
   <rect x="51.241875" y="3.287298" width="390.6" height="166.32"/>
  </clipPath>
 </defs>
</svg>
