<?xml version="1.0" encoding="utf-8" standalone="no"?>
<!DOCTYPE svg PUBLIC "-//W3C//DTD SVG 1.1//EN"
  "http://www.w3.org/Graphics/SVG/1.1/DTD/svg11.dtd">
<svg xmlns:xlink="http://www.w3.org/1999/xlink" width="450.737567pt" height="199.041507pt" viewBox="0 0 450.737567 199.041507" xmlns="http://www.w3.org/2000/svg" version="1.1">
 <metadata>
  <rdf:RDF xmlns:dc="http://purl.org/dc/elements/1.1/" xmlns:cc="http://creativecommons.org/ns#" xmlns:rdf="http://www.w3.org/1999/02/22-rdf-syntax-ns#">
   <cc:Work>
    <dc:type rdf:resource="http://purl.org/dc/dcmitype/StillImage"/>
    <dc:date>2024-09-18T15:47:48.891217</dc:date>
    <dc:format>image/svg+xml</dc:format>
    <dc:creator>
     <cc:Agent>
      <dc:title>Matplotlib v3.7.5, https://matplotlib.org/</dc:title>
     </cc:Agent>
    </dc:creator>
   </cc:Work>
  </rdf:RDF>
 </metadata>
 <defs>
  <style type="text/css">*{stroke-linejoin: round; stroke-linecap: butt}</style>
 </defs>
 <g id="figure_1">
  <g id="patch_1">
   <path d="M 0 199.041507 
L 450.737567 199.041507 
L 450.737567 0 
L 0 0 
z
" style="fill: #ffffff"/>
  </g>
  <g id="axes_1">
   <g id="patch_2">
    <path d="M 51.241875 166.749632 
L 441.841875 166.749632 
L 441.841875 0.429632 
L 51.241875 0.429632 
z
" style="fill: #e5e5e5"/>
   </g>
   <g id="matplotlib.axis_1">
    <g id="xtick_1">
     <g id="line2d_1">
      <path d="M 78.78239 166.749632 
L 78.78239 0.429632 
" clip-path="url(#p522cc819a5)" style="fill: none; stroke: #ffffff; stroke-width: 0.8; stroke-linecap: square"/>
     </g>
     <g id="line2d_2">
      <defs>
       <path id="m34df82b160" d="M 0 0 
L 0 3.5 
" style="stroke: #555555; stroke-width: 0.8"/>
      </defs>
      <g>
       <use xlink:href="#m34df82b160" x="78.78239" y="166.749632" style="fill: #555555; stroke: #555555; stroke-width: 0.8"/>
      </g>
     </g>
     <g id="text_1">
      <!-- 08/16/20 -->
      <g style="fill: #555555" transform="translate(56.32614 181.348069) scale(0.1 -0.1)">
       <defs>
        <path id="DejaVuSans-30" d="M 2034 4250 
Q 1547 4250 1301 3770 
Q 1056 3291 1056 2328 
Q 1056 1369 1301 889 
Q 1547 409 2034 409 
Q 2525 409 2770 889 
Q 3016 1369 3016 2328 
Q 3016 3291 2770 3770 
Q 2525 4250 2034 4250 
z
M 2034 4750 
Q 2819 4750 3233 4129 
Q 3647 3509 3647 2328 
Q 3647 1150 3233 529 
Q 2819 -91 2034 -91 
Q 1250 -91 836 529 
Q 422 1150 422 2328 
Q 422 3509 836 4129 
Q 1250 4750 2034 4750 
z
" transform="scale(0.015625)"/>
        <path id="DejaVuSans-38" d="M 2034 2216 
Q 1584 2216 1326 1975 
Q 1069 1734 1069 1313 
Q 1069 891 1326 650 
Q 1584 409 2034 409 
Q 2484 409 2743 651 
Q 3003 894 3003 1313 
Q 3003 1734 2745 1975 
Q 2488 2216 2034 2216 
z
M 1403 2484 
Q 997 2584 770 2862 
Q 544 3141 544 3541 
Q 544 4100 942 4425 
Q 1341 4750 2034 4750 
Q 2731 4750 3128 4425 
Q 3525 4100 3525 3541 
Q 3525 3141 3298 2862 
Q 3072 2584 2669 2484 
Q 3125 2378 3379 2068 
Q 3634 1759 3634 1313 
Q 3634 634 3220 271 
Q 2806 -91 2034 -91 
Q 1263 -91 848 271 
Q 434 634 434 1313 
Q 434 1759 690 2068 
Q 947 2378 1403 2484 
z
M 1172 3481 
Q 1172 3119 1398 2916 
Q 1625 2713 2034 2713 
Q 2441 2713 2670 2916 
Q 2900 3119 2900 3481 
Q 2900 3844 2670 4047 
Q 2441 4250 2034 4250 
Q 1625 4250 1398 4047 
Q 1172 3844 1172 3481 
z
" transform="scale(0.015625)"/>
        <path id="DejaVuSans-2f" d="M 1625 4666 
L 2156 4666 
L 531 -594 
L 0 -594 
L 1625 4666 
z
" transform="scale(0.015625)"/>
        <path id="DejaVuSans-31" d="M 794 531 
L 1825 531 
L 1825 4091 
L 703 3866 
L 703 4441 
L 1819 4666 
L 2450 4666 
L 2450 531 
L 3481 531 
L 3481 0 
L 794 0 
L 794 531 
z
" transform="scale(0.015625)"/>
        <path id="DejaVuSans-36" d="M 2113 2584 
Q 1688 2584 1439 2293 
Q 1191 2003 1191 1497 
Q 1191 994 1439 701 
Q 1688 409 2113 409 
Q 2538 409 2786 701 
Q 3034 994 3034 1497 
Q 3034 2003 2786 2293 
Q 2538 2584 2113 2584 
z
M 3366 4563 
L 3366 3988 
Q 3128 4100 2886 4159 
Q 2644 4219 2406 4219 
Q 1781 4219 1451 3797 
Q 1122 3375 1075 2522 
Q 1259 2794 1537 2939 
Q 1816 3084 2150 3084 
Q 2853 3084 3261 2657 
Q 3669 2231 3669 1497 
Q 3669 778 3244 343 
Q 2819 -91 2113 -91 
Q 1303 -91 875 529 
Q 447 1150 447 2328 
Q 447 3434 972 4092 
Q 1497 4750 2381 4750 
Q 2619 4750 2861 4703 
Q 3103 4656 3366 4563 
z
" transform="scale(0.015625)"/>
        <path id="DejaVuSans-32" d="M 1228 531 
L 3431 531 
L 3431 0 
L 469 0 
L 469 531 
Q 828 903 1448 1529 
Q 2069 2156 2228 2338 
Q 2531 2678 2651 2914 
Q 2772 3150 2772 3378 
Q 2772 3750 2511 3984 
Q 2250 4219 1831 4219 
Q 1534 4219 1204 4116 
Q 875 4013 500 3803 
L 500 4441 
Q 881 4594 1212 4672 
Q 1544 4750 1819 4750 
Q 2544 4750 2975 4387 
Q 3406 4025 3406 3419 
Q 3406 3131 3298 2873 
Q 3191 2616 2906 2266 
Q 2828 2175 2409 1742 
Q 1991 1309 1228 531 
z
" transform="scale(0.015625)"/>
       </defs>
       <use xlink:href="#DejaVuSans-30"/>
       <use xlink:href="#DejaVuSans-38" x="63.623047"/>
       <use xlink:href="#DejaVuSans-2f" x="127.246094"/>
       <use xlink:href="#DejaVuSans-31" x="160.9375"/>
       <use xlink:href="#DejaVuSans-36" x="224.560547"/>
       <use xlink:href="#DejaVuSans-2f" x="288.183594"/>
       <use xlink:href="#DejaVuSans-32" x="321.875"/>
       <use xlink:href="#DejaVuSans-30" x="385.498047"/>
      </g>
     </g>
    </g>
    <g id="xtick_2">
     <g id="line2d_3">
      <path d="M 148.682176 166.749632 
L 148.682176 0.429632 
" clip-path="url(#p522cc819a5)" style="fill: none; stroke: #ffffff; stroke-width: 0.8; stroke-linecap: square"/>
     </g>
     <g id="line2d_4">
      <g>
       <use xlink:href="#m34df82b160" x="148.682176" y="166.749632" style="fill: #555555; stroke: #555555; stroke-width: 0.8"/>
      </g>
     </g>
     <g id="text_2">
      <!-- 10/05/20 -->
      <g style="fill: #555555" transform="translate(126.225926 181.348069) scale(0.1 -0.1)">
       <defs>
        <path id="DejaVuSans-35" d="M 691 4666 
L 3169 4666 
L 3169 4134 
L 1269 4134 
L 1269 2991 
Q 1406 3038 1543 3061 
Q 1681 3084 1819 3084 
Q 2600 3084 3056 2656 
Q 3513 2228 3513 1497 
Q 3513 744 3044 326 
Q 2575 -91 1722 -91 
Q 1428 -91 1123 -41 
Q 819 9 494 109 
L 494 744 
Q 775 591 1075 516 
Q 1375 441 1709 441 
Q 2250 441 2565 725 
Q 2881 1009 2881 1497 
Q 2881 1984 2565 2268 
Q 2250 2553 1709 2553 
Q 1456 2553 1204 2497 
Q 953 2441 691 2322 
L 691 4666 
z
" transform="scale(0.015625)"/>
       </defs>
       <use xlink:href="#DejaVuSans-31"/>
       <use xlink:href="#DejaVuSans-30" x="63.623047"/>
       <use xlink:href="#DejaVuSans-2f" x="127.246094"/>
       <use xlink:href="#DejaVuSans-30" x="160.9375"/>
       <use xlink:href="#DejaVuSans-35" x="224.560547"/>
       <use xlink:href="#DejaVuSans-2f" x="288.183594"/>
       <use xlink:href="#DejaVuSans-32" x="321.875"/>
       <use xlink:href="#DejaVuSans-30" x="385.498047"/>
      </g>
     </g>
    </g>
    <g id="xtick_3">
     <g id="line2d_5">
      <path d="M 218.581961 166.749632 
L 218.581961 0.429632 
" clip-path="url(#p522cc819a5)" style="fill: none; stroke: #ffffff; stroke-width: 0.8; stroke-linecap: square"/>
     </g>
     <g id="line2d_6">
      <g>
       <use xlink:href="#m34df82b160" x="218.581961" y="166.749632" style="fill: #555555; stroke: #555555; stroke-width: 0.8"/>
      </g>
     </g>
     <g id="text_3">
      <!-- 11/24/20 -->
      <g style="fill: #555555" transform="translate(196.125711 181.348069) scale(0.1 -0.1)">
       <defs>
        <path id="DejaVuSans-34" d="M 2419 4116 
L 825 1625 
L 2419 1625 
L 2419 4116 
z
M 2253 4666 
L 3047 4666 
L 3047 1625 
L 3713 1625 
L 3713 1100 
L 3047 1100 
L 3047 0 
L 2419 0 
L 2419 1100 
L 313 1100 
L 313 1709 
L 2253 4666 
z
" transform="scale(0.015625)"/>
       </defs>
       <use xlink:href="#DejaVuSans-31"/>
       <use xlink:href="#DejaVuSans-31" x="63.623047"/>
       <use xlink:href="#DejaVuSans-2f" x="127.246094"/>
       <use xlink:href="#DejaVuSans-32" x="160.9375"/>
       <use xlink:href="#DejaVuSans-34" x="224.560547"/>
       <use xlink:href="#DejaVuSans-2f" x="288.183594"/>
       <use xlink:href="#DejaVuSans-32" x="321.875"/>
       <use xlink:href="#DejaVuSans-30" x="385.498047"/>
      </g>
     </g>
    </g>
    <g id="xtick_4">
     <g id="line2d_7">
      <path d="M 288.481746 166.749632 
L 288.481746 0.429632 
" clip-path="url(#p522cc819a5)" style="fill: none; stroke: #ffffff; stroke-width: 0.8; stroke-linecap: square"/>
     </g>
     <g id="line2d_8">
      <g>
       <use xlink:href="#m34df82b160" x="288.481746" y="166.749632" style="fill: #555555; stroke: #555555; stroke-width: 0.8"/>
      </g>
     </g>
     <g id="text_4">
      <!-- 01/13/21 -->
      <g style="fill: #555555" transform="translate(266.025496 181.348069) scale(0.1 -0.1)">
       <defs>
        <path id="DejaVuSans-33" d="M 2597 2516 
Q 3050 2419 3304 2112 
Q 3559 1806 3559 1356 
Q 3559 666 3084 287 
Q 2609 -91 1734 -91 
Q 1441 -91 1130 -33 
Q 819 25 488 141 
L 488 750 
Q 750 597 1062 519 
Q 1375 441 1716 441 
Q 2309 441 2620 675 
Q 2931 909 2931 1356 
Q 2931 1769 2642 2001 
Q 2353 2234 1838 2234 
L 1294 2234 
L 1294 2753 
L 1863 2753 
Q 2328 2753 2575 2939 
Q 2822 3125 2822 3475 
Q 2822 3834 2567 4026 
Q 2313 4219 1838 4219 
Q 1578 4219 1281 4162 
Q 984 4106 628 3988 
L 628 4550 
Q 988 4650 1302 4700 
Q 1616 4750 1894 4750 
Q 2613 4750 3031 4423 
Q 3450 4097 3450 3541 
Q 3450 3153 3228 2886 
Q 3006 2619 2597 2516 
z
" transform="scale(0.015625)"/>
       </defs>
       <use xlink:href="#DejaVuSans-30"/>
       <use xlink:href="#DejaVuSans-31" x="63.623047"/>
       <use xlink:href="#DejaVuSans-2f" x="127.246094"/>
       <use xlink:href="#DejaVuSans-31" x="160.9375"/>
       <use xlink:href="#DejaVuSans-33" x="224.560547"/>
       <use xlink:href="#DejaVuSans-2f" x="288.183594"/>
       <use xlink:href="#DejaVuSans-32" x="321.875"/>
       <use xlink:href="#DejaVuSans-31" x="385.498047"/>
      </g>
     </g>
    </g>
    <g id="xtick_5">
     <g id="line2d_9">
      <path d="M 358.381531 166.749632 
L 358.381531 0.429632 
" clip-path="url(#p522cc819a5)" style="fill: none; stroke: #ffffff; stroke-width: 0.8; stroke-linecap: square"/>
     </g>
     <g id="line2d_10">
      <g>
       <use xlink:href="#m34df82b160" x="358.381531" y="166.749632" style="fill: #555555; stroke: #555555; stroke-width: 0.8"/>
      </g>
     </g>
     <g id="text_5">
      <!-- 03/04/21 -->
      <g style="fill: #555555" transform="translate(335.925281 181.348069) scale(0.1 -0.1)">
       <use xlink:href="#DejaVuSans-30"/>
       <use xlink:href="#DejaVuSans-33" x="63.623047"/>
       <use xlink:href="#DejaVuSans-2f" x="127.246094"/>
       <use xlink:href="#DejaVuSans-30" x="160.9375"/>
       <use xlink:href="#DejaVuSans-34" x="224.560547"/>
       <use xlink:href="#DejaVuSans-2f" x="288.183594"/>
       <use xlink:href="#DejaVuSans-32" x="321.875"/>
       <use xlink:href="#DejaVuSans-31" x="385.498047"/>
      </g>
     </g>
    </g>
    <g id="xtick_6">
     <g id="line2d_11">
      <path d="M 428.281317 166.749632 
L 428.281317 0.429632 
" clip-path="url(#p522cc819a5)" style="fill: none; stroke: #ffffff; stroke-width: 0.8; stroke-linecap: square"/>
     </g>
     <g id="line2d_12">
      <g>
       <use xlink:href="#m34df82b160" x="428.281317" y="166.749632" style="fill: #555555; stroke: #555555; stroke-width: 0.8"/>
      </g>
     </g>
     <g id="text_6">
      <!-- 04/23/21 -->
      <g style="fill: #555555" transform="translate(405.825067 181.348069) scale(0.1 -0.1)">
       <use xlink:href="#DejaVuSans-30"/>
       <use xlink:href="#DejaVuSans-34" x="63.623047"/>
       <use xlink:href="#DejaVuSans-2f" x="127.246094"/>
       <use xlink:href="#DejaVuSans-32" x="160.9375"/>
       <use xlink:href="#DejaVuSans-33" x="224.560547"/>
       <use xlink:href="#DejaVuSans-2f" x="288.183594"/>
       <use xlink:href="#DejaVuSans-32" x="321.875"/>
       <use xlink:href="#DejaVuSans-31" x="385.498047"/>
      </g>
     </g>
    </g>
    <g id="text_7">
     <!-- Date -->
     <g style="fill: #555555" transform="translate(232.200938 196.545882) scale(0.12 -0.12)">
      <defs>
       <path id="DejaVuSans-44" d="M 1259 4147 
L 1259 519 
L 2022 519 
Q 2988 519 3436 956 
Q 3884 1394 3884 2338 
Q 3884 3275 3436 3711 
Q 2988 4147 2022 4147 
L 1259 4147 
z
M 628 4666 
L 1925 4666 
Q 3281 4666 3915 4102 
Q 4550 3538 4550 2338 
Q 4550 1131 3912 565 
Q 3275 0 1925 0 
L 628 0 
L 628 4666 
z
" transform="scale(0.015625)"/>
       <path id="DejaVuSans-61" d="M 2194 1759 
Q 1497 1759 1228 1600 
Q 959 1441 959 1056 
Q 959 750 1161 570 
Q 1363 391 1709 391 
Q 2188 391 2477 730 
Q 2766 1069 2766 1631 
L 2766 1759 
L 2194 1759 
z
M 3341 1997 
L 3341 0 
L 2766 0 
L 2766 531 
Q 2569 213 2275 61 
Q 1981 -91 1556 -91 
Q 1019 -91 701 211 
Q 384 513 384 1019 
Q 384 1609 779 1909 
Q 1175 2209 1959 2209 
L 2766 2209 
L 2766 2266 
Q 2766 2663 2505 2880 
Q 2244 3097 1772 3097 
Q 1472 3097 1187 3025 
Q 903 2953 641 2809 
L 641 3341 
Q 956 3463 1253 3523 
Q 1550 3584 1831 3584 
Q 2591 3584 2966 3190 
Q 3341 2797 3341 1997 
z
" transform="scale(0.015625)"/>
       <path id="DejaVuSans-74" d="M 1172 4494 
L 1172 3500 
L 2356 3500 
L 2356 3053 
L 1172 3053 
L 1172 1153 
Q 1172 725 1289 603 
Q 1406 481 1766 481 
L 2356 481 
L 2356 0 
L 1766 0 
Q 1100 0 847 248 
Q 594 497 594 1153 
L 594 3053 
L 172 3053 
L 172 3500 
L 594 3500 
L 594 4494 
L 1172 4494 
z
" transform="scale(0.015625)"/>
       <path id="DejaVuSans-65" d="M 3597 1894 
L 3597 1613 
L 953 1613 
Q 991 1019 1311 708 
Q 1631 397 2203 397 
Q 2534 397 2845 478 
Q 3156 559 3463 722 
L 3463 178 
Q 3153 47 2828 -22 
Q 2503 -91 2169 -91 
Q 1331 -91 842 396 
Q 353 884 353 1716 
Q 353 2575 817 3079 
Q 1281 3584 2069 3584 
Q 2775 3584 3186 3129 
Q 3597 2675 3597 1894 
z
M 3022 2063 
Q 3016 2534 2758 2815 
Q 2500 3097 2075 3097 
Q 1594 3097 1305 2825 
Q 1016 2553 972 2059 
L 3022 2063 
z
" transform="scale(0.015625)"/>
      </defs>
      <use xlink:href="#DejaVuSans-44"/>
      <use xlink:href="#DejaVuSans-61" x="77.001953"/>
      <use xlink:href="#DejaVuSans-74" x="138.28125"/>
      <use xlink:href="#DejaVuSans-65" x="177.490234"/>
     </g>
    </g>
   </g>
   <g id="matplotlib.axis_2">
    <g id="ytick_1">
     <g id="line2d_13">
      <path d="M 51.241875 161.585717 
L 441.841875 161.585717 
" clip-path="url(#p522cc819a5)" style="fill: none; stroke: #ffffff; stroke-width: 0.8; stroke-linecap: square"/>
     </g>
     <g id="line2d_14">
      <defs>
       <path id="m912f8eca69" d="M 0 0 
L -3.5 0 
" style="stroke: #555555; stroke-width: 0.8"/>
      </defs>
      <g>
       <use xlink:href="#m912f8eca69" x="51.241875" y="161.585717" style="fill: #555555; stroke: #555555; stroke-width: 0.8"/>
      </g>
     </g>
     <g id="text_8">
      <!-- 0.000 -->
      <g style="fill: #555555" transform="translate(15.61375 165.384936) scale(0.1 -0.1)">
       <defs>
        <path id="DejaVuSans-2e" d="M 684 794 
L 1344 794 
L 1344 0 
L 684 0 
L 684 794 
z
" transform="scale(0.015625)"/>
       </defs>
       <use xlink:href="#DejaVuSans-30"/>
       <use xlink:href="#DejaVuSans-2e" x="63.623047"/>
       <use xlink:href="#DejaVuSans-30" x="95.410156"/>
       <use xlink:href="#DejaVuSans-30" x="159.033203"/>
       <use xlink:href="#DejaVuSans-30" x="222.65625"/>
      </g>
     </g>
    </g>
    <g id="ytick_2">
     <g id="line2d_15">
      <path d="M 51.241875 130.028417 
L 441.841875 130.028417 
" clip-path="url(#p522cc819a5)" style="fill: none; stroke: #ffffff; stroke-width: 0.8; stroke-linecap: square"/>
     </g>
     <g id="line2d_16">
      <g>
       <use xlink:href="#m912f8eca69" x="51.241875" y="130.028417" style="fill: #555555; stroke: #555555; stroke-width: 0.8"/>
      </g>
     </g>
     <g id="text_9">
      <!-- 0.005 -->
      <g style="fill: #555555" transform="translate(15.61375 133.827636) scale(0.1 -0.1)">
       <use xlink:href="#DejaVuSans-30"/>
       <use xlink:href="#DejaVuSans-2e" x="63.623047"/>
       <use xlink:href="#DejaVuSans-30" x="95.410156"/>
       <use xlink:href="#DejaVuSans-30" x="159.033203"/>
       <use xlink:href="#DejaVuSans-35" x="222.65625"/>
      </g>
     </g>
    </g>
    <g id="ytick_3">
     <g id="line2d_17">
      <path d="M 51.241875 98.471118 
L 441.841875 98.471118 
" clip-path="url(#p522cc819a5)" style="fill: none; stroke: #ffffff; stroke-width: 0.8; stroke-linecap: square"/>
     </g>
     <g id="line2d_18">
      <g>
       <use xlink:href="#m912f8eca69" x="51.241875" y="98.471118" style="fill: #555555; stroke: #555555; stroke-width: 0.8"/>
      </g>
     </g>
     <g id="text_10">
      <!-- 0.010 -->
      <g style="fill: #555555" transform="translate(15.61375 102.270336) scale(0.1 -0.1)">
       <use xlink:href="#DejaVuSans-30"/>
       <use xlink:href="#DejaVuSans-2e" x="63.623047"/>
       <use xlink:href="#DejaVuSans-30" x="95.410156"/>
       <use xlink:href="#DejaVuSans-31" x="159.033203"/>
       <use xlink:href="#DejaVuSans-30" x="222.65625"/>
      </g>
     </g>
    </g>
    <g id="ytick_4">
     <g id="line2d_19">
      <path d="M 51.241875 66.913818 
L 441.841875 66.913818 
" clip-path="url(#p522cc819a5)" style="fill: none; stroke: #ffffff; stroke-width: 0.8; stroke-linecap: square"/>
     </g>
     <g id="line2d_20">
      <g>
       <use xlink:href="#m912f8eca69" x="51.241875" y="66.913818" style="fill: #555555; stroke: #555555; stroke-width: 0.8"/>
      </g>
     </g>
     <g id="text_11">
      <!-- 0.015 -->
      <g style="fill: #555555" transform="translate(15.61375 70.713037) scale(0.1 -0.1)">
       <use xlink:href="#DejaVuSans-30"/>
       <use xlink:href="#DejaVuSans-2e" x="63.623047"/>
       <use xlink:href="#DejaVuSans-30" x="95.410156"/>
       <use xlink:href="#DejaVuSans-31" x="159.033203"/>
       <use xlink:href="#DejaVuSans-35" x="222.65625"/>
      </g>
     </g>
    </g>
    <g id="ytick_5">
     <g id="line2d_21">
      <path d="M 51.241875 35.356518 
L 441.841875 35.356518 
" clip-path="url(#p522cc819a5)" style="fill: none; stroke: #ffffff; stroke-width: 0.8; stroke-linecap: square"/>
     </g>
     <g id="line2d_22">
      <g>
       <use xlink:href="#m912f8eca69" x="51.241875" y="35.356518" style="fill: #555555; stroke: #555555; stroke-width: 0.8"/>
      </g>
     </g>
     <g id="text_12">
      <!-- 0.020 -->
      <g style="fill: #555555" transform="translate(15.61375 39.155737) scale(0.1 -0.1)">
       <use xlink:href="#DejaVuSans-30"/>
       <use xlink:href="#DejaVuSans-2e" x="63.623047"/>
       <use xlink:href="#DejaVuSans-30" x="95.410156"/>
       <use xlink:href="#DejaVuSans-32" x="159.033203"/>
       <use xlink:href="#DejaVuSans-30" x="222.65625"/>
      </g>
     </g>
    </g>
    <g id="ytick_6">
     <g id="line2d_23">
      <path d="M 51.241875 3.799219 
L 441.841875 3.799219 
" clip-path="url(#p522cc819a5)" style="fill: none; stroke: #ffffff; stroke-width: 0.8; stroke-linecap: square"/>
     </g>
     <g id="line2d_24">
      <g>
       <use xlink:href="#m912f8eca69" x="51.241875" y="3.799219" style="fill: #555555; stroke: #555555; stroke-width: 0.8"/>
      </g>
     </g>
     <g id="text_13">
      <!-- 0.025 -->
      <g style="fill: #555555" transform="translate(15.61375 7.598437) scale(0.1 -0.1)">
       <use xlink:href="#DejaVuSans-30"/>
       <use xlink:href="#DejaVuSans-2e" x="63.623047"/>
       <use xlink:href="#DejaVuSans-30" x="95.410156"/>
       <use xlink:href="#DejaVuSans-32" x="159.033203"/>
       <use xlink:href="#DejaVuSans-35" x="222.65625"/>
      </g>
     </g>
    </g>
    <g id="text_14">
     <!-- Value -->
     <g style="fill: #555555" transform="translate(9.118125 100.067132) rotate(-90) scale(0.12 -0.12)">
      <defs>
       <path id="DejaVuSans-56" d="M 1831 0 
L 50 4666 
L 709 4666 
L 2188 738 
L 3669 4666 
L 4325 4666 
L 2547 0 
L 1831 0 
z
" transform="scale(0.015625)"/>
       <path id="DejaVuSans-6c" d="M 603 4863 
L 1178 4863 
L 1178 0 
L 603 0 
L 603 4863 
z
" transform="scale(0.015625)"/>
       <path id="DejaVuSans-75" d="M 544 1381 
L 544 3500 
L 1119 3500 
L 1119 1403 
Q 1119 906 1312 657 
Q 1506 409 1894 409 
Q 2359 409 2629 706 
Q 2900 1003 2900 1516 
L 2900 3500 
L 3475 3500 
L 3475 0 
L 2900 0 
L 2900 538 
Q 2691 219 2414 64 
Q 2138 -91 1772 -91 
Q 1169 -91 856 284 
Q 544 659 544 1381 
z
M 1991 3584 
L 1991 3584 
z
" transform="scale(0.015625)"/>
      </defs>
      <use xlink:href="#DejaVuSans-56"/>
      <use xlink:href="#DejaVuSans-61" x="60.658203"/>
      <use xlink:href="#DejaVuSans-6c" x="121.9375"/>
      <use xlink:href="#DejaVuSans-75" x="149.720703"/>
      <use xlink:href="#DejaVuSans-65" x="213.099609"/>
     </g>
    </g>
   </g>
   <g id="PolyCollection_1">
    <defs>
     <path id="m17e4cb2686" d="M 68.99642 -59.906581 
L 68.99642 -73.141179 
L 70.394416 -72.692792 
L 71.792412 -69.390527 
L 73.190408 -74.882674 
L 74.588403 -75.127038 
L 75.986399 -73.271941 
L 77.384395 -73.053249 
L 78.78239 -75.169943 
L 80.180386 -81.957501 
L 81.578382 -80.920087 
L 82.976378 -85.69735 
L 84.374373 -83.923081 
L 85.772369 -78.296953 
L 87.170365 -77.781957 
L 88.56836 -73.853843 
L 89.966356 -72.841562 
L 91.364352 -73.386602 
L 92.762347 -70.244959 
L 94.160343 -70.218197 
L 95.558339 -73.011492 
L 96.956335 -47.910994 
L 98.35433 -49.168087 
L 99.752326 -48.185844 
L 101.150322 -49.417974 
L 102.548317 -44.108123 
L 103.946313 -44.286675 
L 105.344309 -43.7414 
L 106.742304 -43.965217 
L 108.1403 -46.726383 
L 109.538296 -46.313546 
L 110.936292 -46.294197 
L 112.334287 -46.155382 
L 113.732283 -64.028125 
L 115.130279 -61.974144 
L 116.528274 -61.956124 
L 117.92627 -60.198799 
L 119.324266 -60.16344 
L 120.722262 -58.915102 
L 122.120257 -58.273904 
L 123.518253 -59.435732 
L 124.916249 -59.29288 
L 126.314244 -59.048478 
L 127.71224 -58.514317 
L 129.110236 -59.390103 
L 130.508231 -59.272649 
L 131.906227 -69.248324 
L 133.304223 -61.197082 
L 134.702219 -65.016844 
L 136.100214 -64.367503 
L 137.49821 -67.62109 
L 138.896206 -69.095375 
L 140.294201 -68.942686 
L 141.692197 -69.716286 
L 143.090193 -71.459829 
L 144.488189 -67.967912 
L 145.886184 -71.125989 
L 147.28418 -99.966668 
L 148.682176 -101.909198 
L 150.080171 -101.648663 
L 151.478167 -74.796774 
L 152.876163 -74.657569 
L 154.274158 -75.49277 
L 155.672154 -73.700397 
L 157.07015 -73.545013 
L 158.468146 -72.732124 
L 159.866141 -73.426486 
L 161.264137 -71.508422 
L 162.662133 -72.600638 
L 164.060128 -73.810833 
L 165.458124 -106.163231 
L 166.85612 -106.070464 
L 168.254116 -76.735583 
L 169.652111 -77.526216 
L 171.050107 -87.300465 
L 172.448103 -104.397366 
L 173.846098 -103.388333 
L 175.244094 -84.965646 
L 176.64209 -105.600058 
L 178.040085 -106.948566 
L 179.438081 -103.554505 
L 180.836077 -104.355942 
L 182.234073 -105.681677 
L 183.632068 -104.310229 
L 185.030064 -101.739684 
L 186.42806 -102.148806 
L 187.826055 -103.423434 
L 189.224051 -102.522469 
L 190.622047 -86.678192 
L 192.020043 -86.897684 
L 193.418038 -86.509762 
L 194.816034 -86.595971 
L 196.21403 -85.345136 
L 197.612025 -77.372381 
L 199.010021 -77.448837 
L 200.408017 -88.764508 
L 201.806012 -78.838832 
L 203.204008 -92.68547 
L 204.602004 -108.66352 
L 206 -110.78788 
L 207.397995 -116.414618 
L 208.795991 -93.974841 
L 210.193987 -116.667795 
L 211.591982 -116.168344 
L 212.989978 -118.140568 
L 214.387974 -119.821697 
L 215.785969 -123.641774 
L 217.183965 -118.848866 
L 218.581961 -118.259636 
L 219.979957 -119.600048 
L 221.377952 -132.147364 
L 222.775948 -122.030417 
L 224.173944 -121.386909 
L 225.571939 -119.57439 
L 226.969935 -117.468702 
L 228.367931 -116.396006 
L 229.765927 -119.120325 
L 231.163922 -117.438174 
L 232.561918 -117.281611 
L 233.959914 -117.53615 
L 235.357909 -116.141904 
L 236.755905 -116.428722 
L 238.153901 -115.044697 
L 239.551896 -115.14826 
L 240.949892 -82.421888 
L 242.347888 -109.47099 
L 243.745884 -105.606543 
L 245.143879 -107.269434 
L 246.541875 -110.594849 
L 247.939871 -110.345537 
L 249.337866 -104.012308 
L 250.735862 -102.569257 
L 252.133858 -91.231681 
L 253.531854 -88.245207 
L 254.929849 -89.580669 
L 256.327845 -88.434207 
L 257.725841 -88.157427 
L 259.123836 -88.195194 
L 260.521832 -86.191798 
L 261.919828 -87.406138 
L 263.317823 -86.945035 
L 264.715819 -87.639542 
L 266.113815 -87.231385 
L 267.511811 -86.666734 
L 268.909806 -85.760408 
L 270.307802 -85.414223 
L 271.705798 -85.054286 
L 273.103793 -85.82023 
L 274.501789 -85.254896 
L 275.899785 -75.511392 
L 277.297781 -74.389481 
L 278.695776 -56.029499 
L 280.093772 -54.177611 
L 281.491768 -56.251335 
L 282.889763 -55.089504 
L 284.287759 -53.585303 
L 285.685755 -54.234958 
L 287.08375 -54.183375 
L 288.481746 -44.771859 
L 289.879742 -41.799575 
L 291.277738 -41.960786 
L 292.675733 -43.028723 
L 294.073729 -44.581519 
L 295.471725 -51.706469 
L 296.86972 -52.249778 
L 298.267716 -52.3988 
L 299.665712 -53.391937 
L 301.063707 -53.303447 
L 302.461703 -55.160723 
L 303.859699 -54.709961 
L 305.257695 -55.105451 
L 306.65569 -56.001013 
L 308.053686 -66.568184 
L 309.451682 -71.061724 
L 310.849677 -70.928432 
L 312.247673 -83.15218 
L 313.645669 -83.387067 
L 315.043665 -84.408305 
L 316.44166 -84.425642 
L 317.839656 -83.372646 
L 319.237652 -85.58237 
L 320.635647 -83.427298 
L 322.033643 -82.488658 
L 323.431639 -82.65175 
L 324.829634 -83.462152 
L 326.22763 -83.443377 
L 327.625626 -82.629537 
L 329.023622 -82.721088 
L 330.421617 -82.769115 
L 331.819613 -67.673012 
L 333.217609 -68.389478 
L 334.615604 -68.301372 
L 336.0136 -68.153716 
L 337.411596 -44.171929 
L 338.809592 -55.435738 
L 340.207587 -53.182661 
L 341.605583 -53.319615 
L 343.003579 -52.871511 
L 344.401574 -54.18063 
L 345.79957 -44.773941 
L 347.197566 -53.953576 
L 348.595561 -56.887459 
L 349.993557 -58.877203 
L 351.391553 -59.288027 
L 352.789549 -58.153036 
L 354.187544 -91.529386 
L 355.58554 -72.896911 
L 356.983536 -89.640659 
L 358.381531 -160.061174 
L 359.779527 -163.214727 
L 361.177523 -177.851232 
L 362.575519 -176.045578 
L 363.973514 -169.990489 
L 365.37151 -178.52807 
L 366.769506 -177.886419 
L 368.167501 -182.011073 
L 369.565497 -181.673747 
L 370.963493 -182.276808 
L 372.361488 -182.180843 
L 373.759484 -181.149789 
L 375.15748 -184.788594 
L 376.555476 -191.051875 
L 377.953471 -174.341033 
L 379.351467 -177.039457 
L 380.749463 -178.998688 
L 382.147458 -177.410455 
L 383.545454 -138.186869 
L 384.94345 -139.204835 
L 386.341446 -142.263358 
L 387.739441 -144.145957 
L 389.137437 -141.765841 
L 390.535433 -133.937714 
L 391.933428 -131.154189 
L 393.331424 -94.602777 
L 394.72942 -95.934975 
L 396.127415 -96.565127 
L 397.525411 -89.628488 
L 398.923407 -74.743429 
L 400.321403 -77.052557 
L 401.719398 -74.698688 
L 403.117394 -70.074563 
L 404.51539 -67.025168 
L 405.913385 -66.225555 
L 407.311381 -64.310872 
L 408.709377 -64.040746 
L 410.107372 -63.285909 
L 411.505368 -63.724557 
L 412.903364 -61.491229 
L 414.30136 -48.760117 
L 415.699355 -61.33848 
L 417.097351 -47.403257 
L 418.495347 -47.24028 
L 419.893342 -47.257532 
L 421.291338 -47.280226 
L 422.689334 -48.472389 
L 424.08733 -48.457536 
L 424.08733 -46.049829 
L 424.08733 -46.049829 
L 422.689334 -46.178949 
L 421.291338 -45.050324 
L 419.893342 -44.989925 
L 418.495347 -45.02613 
L 417.097351 -45.117094 
L 415.699355 -51.711761 
L 414.30136 -46.08648 
L 412.903364 -51.522327 
L 411.505368 -52.679924 
L 410.107372 -52.678015 
L 408.709377 -52.294158 
L 407.311381 -53.385374 
L 405.913385 -55.769777 
L 404.51539 -55.504005 
L 403.117394 -58.107624 
L 401.719398 -62.497058 
L 400.321403 -63.612162 
L 398.923407 -63.678667 
L 397.525411 -75.592914 
L 396.127415 -79.811275 
L 394.72942 -81.460224 
L 393.331424 -79.61995 
L 391.933428 -109.268064 
L 390.535433 -110.756841 
L 389.137437 -118.960183 
L 387.739441 -119.107992 
L 386.341446 -117.129085 
L 384.94345 -117.91754 
L 383.545454 -117.219477 
L 382.147458 -141.655702 
L 380.749463 -141.452071 
L 379.351467 -140.125557 
L 377.953471 -139.42793 
L 376.555476 -152.296013 
L 375.15748 -153.087905 
L 373.759484 -147.237408 
L 372.361488 -141.063819 
L 370.963493 -144.091482 
L 369.565497 -144.413966 
L 368.167501 -147.255936 
L 366.769506 -142.417386 
L 365.37151 -142.713029 
L 363.973514 -136.984686 
L 362.575519 -144.019402 
L 361.177523 -137.145806 
L 359.779527 -130.410654 
L 358.381531 -132.620367 
L 356.983536 -80.005048 
L 355.58554 -63.95418 
L 354.187544 -79.875262 
L 352.789549 -50.769981 
L 351.391553 -52.130172 
L 349.993557 -51.279119 
L 348.595561 -49.737615 
L 347.197566 -47.178327 
L 345.79957 -42.975471 
L 344.401574 -46.903203 
L 343.003579 -47.088636 
L 341.605583 -47.118497 
L 340.207587 -46.976315 
L 338.809592 -49.10114 
L 337.411596 -42.744002 
L 336.0136 -60.035054 
L 334.615604 -58.83632 
L 333.217609 -59.764955 
L 331.819613 -59.672688 
L 330.421617 -73.260178 
L 329.023622 -73.382188 
L 327.625626 -73.058594 
L 326.22763 -75.034479 
L 324.829634 -74.134754 
L 323.431639 -73.154726 
L 322.033643 -73.102032 
L 320.635647 -72.995178 
L 319.237652 -75.975123 
L 317.839656 -74.170034 
L 316.44166 -73.662979 
L 315.043665 -72.907315 
L 313.645669 -73.67099 
L 312.247673 -73.77512 
L 310.849677 -62.389596 
L 309.451682 -62.20088 
L 308.053686 -58.187767 
L 306.65569 -49.008179 
L 305.257695 -49.109447 
L 303.859699 -48.719192 
L 302.461703 -48.912727 
L 301.063707 -47.823005 
L 299.665712 -47.719466 
L 298.267716 -46.711003 
L 296.86972 -46.695361 
L 295.471725 -46.610053 
L 294.073729 -42.756194 
L 292.675733 -41.555366 
L 291.277738 -40.741888 
L 289.879742 -40.684068 
L 288.481746 -42.94106 
L 287.08375 -47.613115 
L 285.685755 -47.954578 
L 284.287759 -47.687963 
L 282.889763 -48.855988 
L 281.491768 -50.232374 
L 280.093772 -48.205308 
L 278.695776 -49.830625 
L 277.297781 -65.213693 
L 275.899785 -65.474742 
L 274.501789 -75.541258 
L 273.103793 -74.300588 
L 271.705798 -75.290544 
L 270.307802 -74.987701 
L 268.909806 -76.273561 
L 267.511811 -74.867253 
L 266.113815 -77.541835 
L 264.715819 -77.066628 
L 263.317823 -77.755235 
L 261.919828 -77.23806 
L 260.521832 -75.882938 
L 259.123836 -77.153155 
L 257.725841 -77.679548 
L 256.327845 -78.391099 
L 254.929849 -78.519038 
L 253.531854 -77.745624 
L 252.133858 -79.266995 
L 250.735862 -88.419127 
L 249.337866 -88.976393 
L 247.939871 -93.344489 
L 246.541875 -94.674791 
L 245.143879 -90.193561 
L 243.745884 -89.064805 
L 242.347888 -93.267572 
L 240.949892 -70.592324 
L 239.551896 -95.160312 
L 238.153901 -96.045176 
L 236.755905 -98.328873 
L 235.357909 -99.156464 
L 233.959914 -98.37425 
L 232.561918 -99.062366 
L 231.163922 -100.173176 
L 229.765927 -102.479549 
L 228.367931 -101.212709 
L 226.969935 -100.071013 
L 225.571939 -101.806277 
L 224.173944 -102.239449 
L 222.775948 -101.467562 
L 221.377952 -112.266597 
L 219.979957 -100.781018 
L 218.581961 -101.026652 
L 217.183965 -101.483078 
L 215.785969 -104.364062 
L 214.387974 -103.260161 
L 212.989978 -99.096615 
L 211.591982 -98.982897 
L 210.193987 -98.00238 
L 208.795991 -77.367714 
L 207.397995 -99.092897 
L 206 -94.987593 
L 204.602004 -95.198257 
L 203.204008 -76.334068 
L 201.806012 -66.904388 
L 200.408017 -73.522864 
L 199.010021 -66.180274 
L 197.612025 -65.530174 
L 196.21403 -72.184157 
L 194.816034 -71.882343 
L 193.418038 -72.066693 
L 192.020043 -72.564081 
L 190.622047 -73.551661 
L 189.224051 -85.346164 
L 187.826055 -87.574217 
L 186.42806 -87.005553 
L 185.030064 -87.433548 
L 183.632068 -89.025433 
L 182.234073 -89.438491 
L 180.836077 -90.595814 
L 179.438081 -88.810769 
L 178.040085 -90.782287 
L 176.64209 -89.472694 
L 175.244094 -72.453372 
L 173.846098 -87.37542 
L 172.448103 -89.801012 
L 171.050107 -74.191865 
L 169.652111 -66.049884 
L 168.254116 -66.173274 
L 166.85612 -91.204083 
L 165.458124 -90.264177 
L 164.060128 -63.678042 
L 162.662133 -61.588201 
L 161.264137 -61.400243 
L 159.866141 -63.020167 
L 158.468146 -63.457746 
L 157.07015 -62.841744 
L 155.672154 -63.893539 
L 154.274158 -65.283726 
L 152.876163 -64.37526 
L 151.478167 -64.67067 
L 150.080171 -86.946492 
L 148.682176 -87.276789 
L 147.28418 -85.954483 
L 145.886184 -61.848976 
L 144.488189 -59.581307 
L 143.090193 -62.287431 
L 141.692197 -61.263983 
L 140.294201 -60.644359 
L 138.896206 -60.664175 
L 137.49821 -60.460042 
L 136.100214 -57.008955 
L 134.702219 -57.704538 
L 133.304223 -54.17109 
L 131.906227 -61.848189 
L 130.508231 -52.059314 
L 129.110236 -51.748577 
L 127.71224 -52.016231 
L 126.314244 -52.098147 
L 124.916249 -52.107643 
L 123.518253 -52.308869 
L 122.120257 -50.127259 
L 120.722262 -51.351501 
L 119.324266 -51.991283 
L 117.92627 -52.060483 
L 116.528274 -52.98989 
L 115.130279 -52.8777 
L 113.732283 -53.738516 
L 112.334287 -44.426405 
L 110.936292 -44.434199 
L 109.538296 -44.483859 
L 108.1403 -44.714841 
L 106.742304 -42.047803 
L 105.344309 -41.793657 
L 103.946313 -42.139984 
L 102.548317 -42.210997 
L 101.150322 -47.003652 
L 99.752326 -45.996381 
L 98.35433 -46.787119 
L 96.956335 -45.600556 
L 95.558339 -59.639285 
L 94.160343 -57.108265 
L 92.762347 -57.513267 
L 91.364352 -59.386667 
L 89.966356 -58.477549 
L 88.56836 -60.173912 
L 87.170365 -63.517557 
L 85.772369 -63.723322 
L 84.374373 -67.180234 
L 82.976378 -68.688925 
L 81.578382 -63.941171 
L 80.180386 -64.438371 
L 78.78239 -59.666523 
L 77.384395 -58.353303 
L 75.986399 -58.724623 
L 74.588403 -59.777121 
L 73.190408 -59.822546 
L 71.792412 -57.068796 
L 70.394416 -59.60538 
L 68.99642 -59.906581 
z
" style="stroke: #134a8e; stroke-opacity: 0.5; stroke-width: 0.5"/>
    </defs>
    <g clip-path="url(#p522cc819a5)">
     <use xlink:href="#m17e4cb2686" x="0" y="199.041507" style="fill: #134a8e; fill-opacity: 0.5; stroke: #134a8e; stroke-opacity: 0.5; stroke-width: 0.5"/>
    </g>
   </g>
   <g id="line2d_25">
    <path d="M 68.99642 132.517627 
L 70.394416 132.892421 
L 71.792412 135.811845 
L 73.190408 131.688897 
L 74.588403 131.589428 
L 75.986399 133.043225 
L 77.384395 133.338231 
L 78.78239 131.623274 
L 80.180386 125.843571 
L 81.578382 126.610878 
L 82.976378 121.84837 
L 84.374373 123.489849 
L 85.772369 128.031369 
L 87.170365 128.39175 
L 88.56836 132.027629 
L 89.966356 133.381952 
L 91.364352 132.654872 
L 92.762347 135.162394 
L 94.160343 135.378276 
L 95.558339 132.716118 
L 96.956335 152.285732 
L 98.35433 151.063904 
L 99.752326 151.950395 
L 101.150322 150.830694 
L 102.548317 155.881947 
L 103.946313 155.828178 
L 105.344309 156.273978 
L 106.742304 156.034997 
L 108.1403 153.320895 
L 109.538296 153.642804 
L 112.334287 153.750614 
L 113.732283 140.158186 
L 115.130279 141.615584 
L 116.528274 141.5685 
L 117.92627 142.911866 
L 119.324266 142.964145 
L 122.120257 144.840926 
L 123.518253 143.169206 
L 127.71224 143.776233 
L 129.110236 143.472167 
L 130.508231 143.375526 
L 131.906227 133.49325 
L 133.304223 141.357421 
L 134.702219 137.680816 
L 136.100214 138.353278 
L 137.49821 135.000941 
L 138.896206 134.161732 
L 140.294201 134.247984 
L 141.692197 133.551372 
L 143.090193 132.167877 
L 144.488189 135.266898 
L 145.886184 132.554025 
L 147.28418 106.080932 
L 148.682176 104.448513 
L 150.080171 104.743929 
L 151.478167 129.307785 
L 152.876163 129.525093 
L 154.274158 128.653259 
L 155.672154 130.244539 
L 157.07015 130.848128 
L 158.468146 130.946572 
L 159.866141 130.81818 
L 161.264137 132.587175 
L 162.662133 131.947088 
L 164.060128 130.297069 
L 165.458124 100.827803 
L 166.85612 100.404234 
L 168.254116 127.587079 
L 169.652111 127.253457 
L 171.050107 118.295342 
L 172.448103 101.942318 
L 173.846098 103.65963 
L 175.244094 120.331998 
L 176.64209 101.505131 
L 178.040085 100.17608 
L 179.438081 102.85887 
L 180.836077 101.565629 
L 182.234073 101.481423 
L 183.632068 102.373676 
L 185.030064 104.454891 
L 186.42806 104.464328 
L 187.826055 103.542681 
L 189.224051 105.10719 
L 190.622047 118.92658 
L 193.418038 119.753279 
L 194.816034 119.80235 
L 196.21403 120.27686 
L 197.612025 127.59023 
L 199.010021 127.226951 
L 200.408017 117.897821 
L 201.806012 126.169897 
L 203.204008 114.531738 
L 204.602004 97.110619 
L 206 96.153771 
L 207.397995 91.287749 
L 208.795991 113.370229 
L 210.193987 91.70642 
L 211.591982 91.465886 
L 212.989978 90.422916 
L 214.387974 87.500578 
L 215.785969 85.038589 
L 217.183965 88.875535 
L 218.581961 89.398363 
L 219.979957 88.850974 
L 221.377952 76.834526 
L 222.775948 87.292517 
L 224.173944 87.228328 
L 225.571939 88.351173 
L 226.969935 90.27165 
L 228.367931 90.237149 
L 229.765927 88.24157 
L 231.163922 90.235832 
L 232.561918 90.869518 
L 235.357909 91.392323 
L 236.755905 91.662709 
L 238.153901 93.496571 
L 239.551896 93.887221 
L 240.949892 122.534401 
L 242.347888 97.672226 
L 243.745884 101.705833 
L 245.143879 100.31001 
L 246.541875 96.406687 
L 247.939871 97.196494 
L 249.337866 102.547156 
L 250.735862 103.547315 
L 252.133858 113.792169 
L 253.531854 116.046092 
L 254.929849 114.991654 
L 256.327845 115.628854 
L 257.725841 116.123019 
L 259.123836 116.367332 
L 260.521832 118.004139 
L 261.919828 116.719408 
L 266.113815 116.654897 
L 267.511811 118.274514 
L 268.909806 118.024522 
L 270.307802 118.840545 
L 273.103793 118.981098 
L 274.501789 118.64343 
L 275.899785 128.54844 
L 277.297781 129.23992 
L 278.695776 146.111445 
L 280.093772 147.850047 
L 281.491768 145.799652 
L 284.287759 148.404874 
L 285.685755 147.946739 
L 287.08375 148.143262 
L 288.481746 155.185048 
L 289.879742 157.799685 
L 291.277738 157.69017 
L 292.675733 156.749462 
L 294.073729 155.37265 
L 295.471725 149.883246 
L 296.86972 149.568937 
L 298.267716 149.486606 
L 299.665712 148.485805 
L 301.063707 148.478281 
L 302.461703 147.004782 
L 303.859699 147.32693 
L 306.65569 146.536911 
L 308.053686 136.663532 
L 309.451682 132.410205 
L 310.849677 132.382493 
L 312.247673 120.577857 
L 315.043665 120.383697 
L 316.44166 119.997197 
L 317.839656 120.270167 
L 319.237652 118.26276 
L 320.635647 120.830269 
L 322.033643 121.246162 
L 323.431639 121.138269 
L 324.829634 120.243054 
L 326.22763 119.802579 
L 327.625626 121.197442 
L 329.023622 120.989869 
L 330.421617 121.02686 
L 331.819613 135.368657 
L 333.217609 134.96429 
L 334.615604 135.472661 
L 336.0136 134.947122 
L 337.411596 155.583542 
L 338.809592 146.773068 
L 340.207587 148.962019 
L 341.605583 148.822451 
L 343.003579 149.061433 
L 344.401574 148.499591 
L 345.79957 155.166801 
L 347.197566 148.475555 
L 348.595561 145.72897 
L 349.993557 143.963346 
L 351.391553 143.332407 
L 352.789549 144.579998 
L 354.187544 113.339183 
L 355.58554 130.615961 
L 356.983536 114.218653 
L 358.381531 52.700736 
L 359.779527 52.228816 
L 361.177523 41.542988 
L 362.575519 39.009017 
L 363.973514 45.55392 
L 365.37151 38.420958 
L 366.769506 38.889604 
L 368.167501 34.408002 
L 369.565497 35.997651 
L 370.963493 35.857362 
L 372.361488 37.419176 
L 373.759484 34.847908 
L 375.15748 30.103258 
L 376.555476 27.367563 
L 377.953471 42.157026 
L 380.749463 38.816127 
L 382.147458 39.508429 
L 383.545454 71.338334 
L 384.94345 70.480319 
L 386.341446 69.345285 
L 387.739441 67.414532 
L 389.137437 68.678495 
L 390.535433 76.694229 
L 391.933428 78.830381 
L 393.331424 111.930143 
L 394.72942 110.343907 
L 396.127415 110.853306 
L 397.525411 116.430806 
L 398.923407 129.830459 
L 400.321403 128.709147 
L 401.719398 130.443634 
L 403.117394 134.950414 
L 404.51539 137.77692 
L 405.913385 138.043841 
L 407.311381 140.193384 
L 408.709377 140.874055 
L 410.107372 141.059544 
L 411.505368 140.839266 
L 412.903364 142.534729 
L 414.30136 151.618208 
L 415.699355 142.516387 
L 417.097351 152.781331 
L 418.495347 152.908302 
L 421.291338 152.876232 
L 422.689334 151.715838 
L 424.08733 151.787824 
L 424.08733 151.787824 
" clip-path="url(#p522cc819a5)" style="fill: none; stroke: #134a8e; stroke-width: 3; stroke-linecap: square"/>
    <defs>
     <path id="m4dcf9ff379" d="M 0 1.5 
C 0.397805 1.5 0.77937 1.341951 1.06066 1.06066 
C 1.341951 0.77937 1.5 0.397805 1.5 0 
C 1.5 -0.397805 1.341951 -0.77937 1.06066 -1.06066 
C 0.77937 -1.341951 0.397805 -1.5 0 -1.5 
C -0.397805 -1.5 -0.77937 -1.341951 -1.06066 -1.06066 
C -1.341951 -0.77937 -1.5 -0.397805 -1.5 0 
C -1.5 0.397805 -1.341951 0.77937 -1.06066 1.06066 
C -0.77937 1.341951 -0.397805 1.5 0 1.5 
z
" style="stroke: #134a8e"/>
    </defs>
    <g clip-path="url(#p522cc819a5)">
     <use xlink:href="#m4dcf9ff379" x="68.99642" y="132.517627" style="fill: #134a8e; stroke: #134a8e"/>
     <use xlink:href="#m4dcf9ff379" x="70.394416" y="132.892421" style="fill: #134a8e; stroke: #134a8e"/>
     <use xlink:href="#m4dcf9ff379" x="71.792412" y="135.811845" style="fill: #134a8e; stroke: #134a8e"/>
     <use xlink:href="#m4dcf9ff379" x="73.190408" y="131.688897" style="fill: #134a8e; stroke: #134a8e"/>
     <use xlink:href="#m4dcf9ff379" x="74.588403" y="131.589428" style="fill: #134a8e; stroke: #134a8e"/>
     <use xlink:href="#m4dcf9ff379" x="75.986399" y="133.043225" style="fill: #134a8e; stroke: #134a8e"/>
     <use xlink:href="#m4dcf9ff379" x="77.384395" y="133.338231" style="fill: #134a8e; stroke: #134a8e"/>
     <use xlink:href="#m4dcf9ff379" x="78.78239" y="131.623274" style="fill: #134a8e; stroke: #134a8e"/>
     <use xlink:href="#m4dcf9ff379" x="80.180386" y="125.843571" style="fill: #134a8e; stroke: #134a8e"/>
     <use xlink:href="#m4dcf9ff379" x="81.578382" y="126.610878" style="fill: #134a8e; stroke: #134a8e"/>
     <use xlink:href="#m4dcf9ff379" x="82.976378" y="121.84837" style="fill: #134a8e; stroke: #134a8e"/>
     <use xlink:href="#m4dcf9ff379" x="84.374373" y="123.489849" style="fill: #134a8e; stroke: #134a8e"/>
     <use xlink:href="#m4dcf9ff379" x="85.772369" y="128.031369" style="fill: #134a8e; stroke: #134a8e"/>
     <use xlink:href="#m4dcf9ff379" x="87.170365" y="128.39175" style="fill: #134a8e; stroke: #134a8e"/>
     <use xlink:href="#m4dcf9ff379" x="88.56836" y="132.027629" style="fill: #134a8e; stroke: #134a8e"/>
     <use xlink:href="#m4dcf9ff379" x="89.966356" y="133.381952" style="fill: #134a8e; stroke: #134a8e"/>
     <use xlink:href="#m4dcf9ff379" x="91.364352" y="132.654872" style="fill: #134a8e; stroke: #134a8e"/>
     <use xlink:href="#m4dcf9ff379" x="92.762347" y="135.162394" style="fill: #134a8e; stroke: #134a8e"/>
     <use xlink:href="#m4dcf9ff379" x="94.160343" y="135.378276" style="fill: #134a8e; stroke: #134a8e"/>
     <use xlink:href="#m4dcf9ff379" x="95.558339" y="132.716118" style="fill: #134a8e; stroke: #134a8e"/>
     <use xlink:href="#m4dcf9ff379" x="96.956335" y="152.285732" style="fill: #134a8e; stroke: #134a8e"/>
     <use xlink:href="#m4dcf9ff379" x="98.35433" y="151.063904" style="fill: #134a8e; stroke: #134a8e"/>
     <use xlink:href="#m4dcf9ff379" x="99.752326" y="151.950395" style="fill: #134a8e; stroke: #134a8e"/>
     <use xlink:href="#m4dcf9ff379" x="101.150322" y="150.830694" style="fill: #134a8e; stroke: #134a8e"/>
     <use xlink:href="#m4dcf9ff379" x="102.548317" y="155.881947" style="fill: #134a8e; stroke: #134a8e"/>
     <use xlink:href="#m4dcf9ff379" x="103.946313" y="155.828178" style="fill: #134a8e; stroke: #134a8e"/>
     <use xlink:href="#m4dcf9ff379" x="105.344309" y="156.273978" style="fill: #134a8e; stroke: #134a8e"/>
     <use xlink:href="#m4dcf9ff379" x="106.742304" y="156.034997" style="fill: #134a8e; stroke: #134a8e"/>
     <use xlink:href="#m4dcf9ff379" x="108.1403" y="153.320895" style="fill: #134a8e; stroke: #134a8e"/>
     <use xlink:href="#m4dcf9ff379" x="109.538296" y="153.642804" style="fill: #134a8e; stroke: #134a8e"/>
     <use xlink:href="#m4dcf9ff379" x="110.936292" y="153.677309" style="fill: #134a8e; stroke: #134a8e"/>
     <use xlink:href="#m4dcf9ff379" x="112.334287" y="153.750614" style="fill: #134a8e; stroke: #134a8e"/>
     <use xlink:href="#m4dcf9ff379" x="113.732283" y="140.158186" style="fill: #134a8e; stroke: #134a8e"/>
     <use xlink:href="#m4dcf9ff379" x="115.130279" y="141.615584" style="fill: #134a8e; stroke: #134a8e"/>
     <use xlink:href="#m4dcf9ff379" x="116.528274" y="141.5685" style="fill: #134a8e; stroke: #134a8e"/>
     <use xlink:href="#m4dcf9ff379" x="117.92627" y="142.911866" style="fill: #134a8e; stroke: #134a8e"/>
     <use xlink:href="#m4dcf9ff379" x="119.324266" y="142.964145" style="fill: #134a8e; stroke: #134a8e"/>
     <use xlink:href="#m4dcf9ff379" x="120.722262" y="143.908206" style="fill: #134a8e; stroke: #134a8e"/>
     <use xlink:href="#m4dcf9ff379" x="122.120257" y="144.840926" style="fill: #134a8e; stroke: #134a8e"/>
     <use xlink:href="#m4dcf9ff379" x="123.518253" y="143.169206" style="fill: #134a8e; stroke: #134a8e"/>
     <use xlink:href="#m4dcf9ff379" x="124.916249" y="143.341245" style="fill: #134a8e; stroke: #134a8e"/>
     <use xlink:href="#m4dcf9ff379" x="126.314244" y="143.468194" style="fill: #134a8e; stroke: #134a8e"/>
     <use xlink:href="#m4dcf9ff379" x="127.71224" y="143.776233" style="fill: #134a8e; stroke: #134a8e"/>
     <use xlink:href="#m4dcf9ff379" x="129.110236" y="143.472167" style="fill: #134a8e; stroke: #134a8e"/>
     <use xlink:href="#m4dcf9ff379" x="130.508231" y="143.375526" style="fill: #134a8e; stroke: #134a8e"/>
     <use xlink:href="#m4dcf9ff379" x="131.906227" y="133.49325" style="fill: #134a8e; stroke: #134a8e"/>
     <use xlink:href="#m4dcf9ff379" x="133.304223" y="141.357421" style="fill: #134a8e; stroke: #134a8e"/>
     <use xlink:href="#m4dcf9ff379" x="134.702219" y="137.680816" style="fill: #134a8e; stroke: #134a8e"/>
     <use xlink:href="#m4dcf9ff379" x="136.100214" y="138.353278" style="fill: #134a8e; stroke: #134a8e"/>
     <use xlink:href="#m4dcf9ff379" x="137.49821" y="135.000941" style="fill: #134a8e; stroke: #134a8e"/>
     <use xlink:href="#m4dcf9ff379" x="138.896206" y="134.161732" style="fill: #134a8e; stroke: #134a8e"/>
     <use xlink:href="#m4dcf9ff379" x="140.294201" y="134.247984" style="fill: #134a8e; stroke: #134a8e"/>
     <use xlink:href="#m4dcf9ff379" x="141.692197" y="133.551372" style="fill: #134a8e; stroke: #134a8e"/>
     <use xlink:href="#m4dcf9ff379" x="143.090193" y="132.167877" style="fill: #134a8e; stroke: #134a8e"/>
     <use xlink:href="#m4dcf9ff379" x="144.488189" y="135.266898" style="fill: #134a8e; stroke: #134a8e"/>
     <use xlink:href="#m4dcf9ff379" x="145.886184" y="132.554025" style="fill: #134a8e; stroke: #134a8e"/>
     <use xlink:href="#m4dcf9ff379" x="147.28418" y="106.080932" style="fill: #134a8e; stroke: #134a8e"/>
     <use xlink:href="#m4dcf9ff379" x="148.682176" y="104.448513" style="fill: #134a8e; stroke: #134a8e"/>
     <use xlink:href="#m4dcf9ff379" x="150.080171" y="104.743929" style="fill: #134a8e; stroke: #134a8e"/>
     <use xlink:href="#m4dcf9ff379" x="151.478167" y="129.307785" style="fill: #134a8e; stroke: #134a8e"/>
     <use xlink:href="#m4dcf9ff379" x="152.876163" y="129.525093" style="fill: #134a8e; stroke: #134a8e"/>
     <use xlink:href="#m4dcf9ff379" x="154.274158" y="128.653259" style="fill: #134a8e; stroke: #134a8e"/>
     <use xlink:href="#m4dcf9ff379" x="155.672154" y="130.244539" style="fill: #134a8e; stroke: #134a8e"/>
     <use xlink:href="#m4dcf9ff379" x="157.07015" y="130.848128" style="fill: #134a8e; stroke: #134a8e"/>
     <use xlink:href="#m4dcf9ff379" x="158.468146" y="130.946572" style="fill: #134a8e; stroke: #134a8e"/>
     <use xlink:href="#m4dcf9ff379" x="159.866141" y="130.81818" style="fill: #134a8e; stroke: #134a8e"/>
     <use xlink:href="#m4dcf9ff379" x="161.264137" y="132.587175" style="fill: #134a8e; stroke: #134a8e"/>
     <use xlink:href="#m4dcf9ff379" x="162.662133" y="131.947088" style="fill: #134a8e; stroke: #134a8e"/>
     <use xlink:href="#m4dcf9ff379" x="164.060128" y="130.297069" style="fill: #134a8e; stroke: #134a8e"/>
     <use xlink:href="#m4dcf9ff379" x="165.458124" y="100.827803" style="fill: #134a8e; stroke: #134a8e"/>
     <use xlink:href="#m4dcf9ff379" x="166.85612" y="100.404234" style="fill: #134a8e; stroke: #134a8e"/>
     <use xlink:href="#m4dcf9ff379" x="168.254116" y="127.587079" style="fill: #134a8e; stroke: #134a8e"/>
     <use xlink:href="#m4dcf9ff379" x="169.652111" y="127.253457" style="fill: #134a8e; stroke: #134a8e"/>
     <use xlink:href="#m4dcf9ff379" x="171.050107" y="118.295342" style="fill: #134a8e; stroke: #134a8e"/>
     <use xlink:href="#m4dcf9ff379" x="172.448103" y="101.942318" style="fill: #134a8e; stroke: #134a8e"/>
     <use xlink:href="#m4dcf9ff379" x="173.846098" y="103.65963" style="fill: #134a8e; stroke: #134a8e"/>
     <use xlink:href="#m4dcf9ff379" x="175.244094" y="120.331998" style="fill: #134a8e; stroke: #134a8e"/>
     <use xlink:href="#m4dcf9ff379" x="176.64209" y="101.505131" style="fill: #134a8e; stroke: #134a8e"/>
     <use xlink:href="#m4dcf9ff379" x="178.040085" y="100.17608" style="fill: #134a8e; stroke: #134a8e"/>
     <use xlink:href="#m4dcf9ff379" x="179.438081" y="102.85887" style="fill: #134a8e; stroke: #134a8e"/>
     <use xlink:href="#m4dcf9ff379" x="180.836077" y="101.565629" style="fill: #134a8e; stroke: #134a8e"/>
     <use xlink:href="#m4dcf9ff379" x="182.234073" y="101.481423" style="fill: #134a8e; stroke: #134a8e"/>
     <use xlink:href="#m4dcf9ff379" x="183.632068" y="102.373676" style="fill: #134a8e; stroke: #134a8e"/>
     <use xlink:href="#m4dcf9ff379" x="185.030064" y="104.454891" style="fill: #134a8e; stroke: #134a8e"/>
     <use xlink:href="#m4dcf9ff379" x="186.42806" y="104.464328" style="fill: #134a8e; stroke: #134a8e"/>
     <use xlink:href="#m4dcf9ff379" x="187.826055" y="103.542681" style="fill: #134a8e; stroke: #134a8e"/>
     <use xlink:href="#m4dcf9ff379" x="189.224051" y="105.10719" style="fill: #134a8e; stroke: #134a8e"/>
     <use xlink:href="#m4dcf9ff379" x="190.622047" y="118.92658" style="fill: #134a8e; stroke: #134a8e"/>
     <use xlink:href="#m4dcf9ff379" x="192.020043" y="119.310625" style="fill: #134a8e; stroke: #134a8e"/>
     <use xlink:href="#m4dcf9ff379" x="193.418038" y="119.753279" style="fill: #134a8e; stroke: #134a8e"/>
     <use xlink:href="#m4dcf9ff379" x="194.816034" y="119.80235" style="fill: #134a8e; stroke: #134a8e"/>
     <use xlink:href="#m4dcf9ff379" x="196.21403" y="120.27686" style="fill: #134a8e; stroke: #134a8e"/>
     <use xlink:href="#m4dcf9ff379" x="197.612025" y="127.59023" style="fill: #134a8e; stroke: #134a8e"/>
     <use xlink:href="#m4dcf9ff379" x="199.010021" y="127.226951" style="fill: #134a8e; stroke: #134a8e"/>
     <use xlink:href="#m4dcf9ff379" x="200.408017" y="117.897821" style="fill: #134a8e; stroke: #134a8e"/>
     <use xlink:href="#m4dcf9ff379" x="201.806012" y="126.169897" style="fill: #134a8e; stroke: #134a8e"/>
     <use xlink:href="#m4dcf9ff379" x="203.204008" y="114.531738" style="fill: #134a8e; stroke: #134a8e"/>
     <use xlink:href="#m4dcf9ff379" x="204.602004" y="97.110619" style="fill: #134a8e; stroke: #134a8e"/>
     <use xlink:href="#m4dcf9ff379" x="206" y="96.153771" style="fill: #134a8e; stroke: #134a8e"/>
     <use xlink:href="#m4dcf9ff379" x="207.397995" y="91.287749" style="fill: #134a8e; stroke: #134a8e"/>
     <use xlink:href="#m4dcf9ff379" x="208.795991" y="113.370229" style="fill: #134a8e; stroke: #134a8e"/>
     <use xlink:href="#m4dcf9ff379" x="210.193987" y="91.70642" style="fill: #134a8e; stroke: #134a8e"/>
     <use xlink:href="#m4dcf9ff379" x="211.591982" y="91.465886" style="fill: #134a8e; stroke: #134a8e"/>
     <use xlink:href="#m4dcf9ff379" x="212.989978" y="90.422916" style="fill: #134a8e; stroke: #134a8e"/>
     <use xlink:href="#m4dcf9ff379" x="214.387974" y="87.500578" style="fill: #134a8e; stroke: #134a8e"/>
     <use xlink:href="#m4dcf9ff379" x="215.785969" y="85.038589" style="fill: #134a8e; stroke: #134a8e"/>
     <use xlink:href="#m4dcf9ff379" x="217.183965" y="88.875535" style="fill: #134a8e; stroke: #134a8e"/>
     <use xlink:href="#m4dcf9ff379" x="218.581961" y="89.398363" style="fill: #134a8e; stroke: #134a8e"/>
     <use xlink:href="#m4dcf9ff379" x="219.979957" y="88.850974" style="fill: #134a8e; stroke: #134a8e"/>
     <use xlink:href="#m4dcf9ff379" x="221.377952" y="76.834526" style="fill: #134a8e; stroke: #134a8e"/>
     <use xlink:href="#m4dcf9ff379" x="222.775948" y="87.292517" style="fill: #134a8e; stroke: #134a8e"/>
     <use xlink:href="#m4dcf9ff379" x="224.173944" y="87.228328" style="fill: #134a8e; stroke: #134a8e"/>
     <use xlink:href="#m4dcf9ff379" x="225.571939" y="88.351173" style="fill: #134a8e; stroke: #134a8e"/>
     <use xlink:href="#m4dcf9ff379" x="226.969935" y="90.27165" style="fill: #134a8e; stroke: #134a8e"/>
     <use xlink:href="#m4dcf9ff379" x="228.367931" y="90.237149" style="fill: #134a8e; stroke: #134a8e"/>
     <use xlink:href="#m4dcf9ff379" x="229.765927" y="88.24157" style="fill: #134a8e; stroke: #134a8e"/>
     <use xlink:href="#m4dcf9ff379" x="231.163922" y="90.235832" style="fill: #134a8e; stroke: #134a8e"/>
     <use xlink:href="#m4dcf9ff379" x="232.561918" y="90.869518" style="fill: #134a8e; stroke: #134a8e"/>
     <use xlink:href="#m4dcf9ff379" x="233.959914" y="91.086307" style="fill: #134a8e; stroke: #134a8e"/>
     <use xlink:href="#m4dcf9ff379" x="235.357909" y="91.392323" style="fill: #134a8e; stroke: #134a8e"/>
     <use xlink:href="#m4dcf9ff379" x="236.755905" y="91.662709" style="fill: #134a8e; stroke: #134a8e"/>
     <use xlink:href="#m4dcf9ff379" x="238.153901" y="93.496571" style="fill: #134a8e; stroke: #134a8e"/>
     <use xlink:href="#m4dcf9ff379" x="239.551896" y="93.887221" style="fill: #134a8e; stroke: #134a8e"/>
     <use xlink:href="#m4dcf9ff379" x="240.949892" y="122.534401" style="fill: #134a8e; stroke: #134a8e"/>
     <use xlink:href="#m4dcf9ff379" x="242.347888" y="97.672226" style="fill: #134a8e; stroke: #134a8e"/>
     <use xlink:href="#m4dcf9ff379" x="243.745884" y="101.705833" style="fill: #134a8e; stroke: #134a8e"/>
     <use xlink:href="#m4dcf9ff379" x="245.143879" y="100.31001" style="fill: #134a8e; stroke: #134a8e"/>
     <use xlink:href="#m4dcf9ff379" x="246.541875" y="96.406687" style="fill: #134a8e; stroke: #134a8e"/>
     <use xlink:href="#m4dcf9ff379" x="247.939871" y="97.196494" style="fill: #134a8e; stroke: #134a8e"/>
     <use xlink:href="#m4dcf9ff379" x="249.337866" y="102.547156" style="fill: #134a8e; stroke: #134a8e"/>
     <use xlink:href="#m4dcf9ff379" x="250.735862" y="103.547315" style="fill: #134a8e; stroke: #134a8e"/>
     <use xlink:href="#m4dcf9ff379" x="252.133858" y="113.792169" style="fill: #134a8e; stroke: #134a8e"/>
     <use xlink:href="#m4dcf9ff379" x="253.531854" y="116.046092" style="fill: #134a8e; stroke: #134a8e"/>
     <use xlink:href="#m4dcf9ff379" x="254.929849" y="114.991654" style="fill: #134a8e; stroke: #134a8e"/>
     <use xlink:href="#m4dcf9ff379" x="256.327845" y="115.628854" style="fill: #134a8e; stroke: #134a8e"/>
     <use xlink:href="#m4dcf9ff379" x="257.725841" y="116.123019" style="fill: #134a8e; stroke: #134a8e"/>
     <use xlink:href="#m4dcf9ff379" x="259.123836" y="116.367332" style="fill: #134a8e; stroke: #134a8e"/>
     <use xlink:href="#m4dcf9ff379" x="260.521832" y="118.004139" style="fill: #134a8e; stroke: #134a8e"/>
     <use xlink:href="#m4dcf9ff379" x="261.919828" y="116.719408" style="fill: #134a8e; stroke: #134a8e"/>
     <use xlink:href="#m4dcf9ff379" x="263.317823" y="116.691372" style="fill: #134a8e; stroke: #134a8e"/>
     <use xlink:href="#m4dcf9ff379" x="264.715819" y="116.688422" style="fill: #134a8e; stroke: #134a8e"/>
     <use xlink:href="#m4dcf9ff379" x="266.113815" y="116.654897" style="fill: #134a8e; stroke: #134a8e"/>
     <use xlink:href="#m4dcf9ff379" x="267.511811" y="118.274514" style="fill: #134a8e; stroke: #134a8e"/>
     <use xlink:href="#m4dcf9ff379" x="268.909806" y="118.024522" style="fill: #134a8e; stroke: #134a8e"/>
     <use xlink:href="#m4dcf9ff379" x="270.307802" y="118.840545" style="fill: #134a8e; stroke: #134a8e"/>
     <use xlink:href="#m4dcf9ff379" x="271.705798" y="118.869092" style="fill: #134a8e; stroke: #134a8e"/>
     <use xlink:href="#m4dcf9ff379" x="273.103793" y="118.981098" style="fill: #134a8e; stroke: #134a8e"/>
     <use xlink:href="#m4dcf9ff379" x="274.501789" y="118.64343" style="fill: #134a8e; stroke: #134a8e"/>
     <use xlink:href="#m4dcf9ff379" x="275.899785" y="128.54844" style="fill: #134a8e; stroke: #134a8e"/>
     <use xlink:href="#m4dcf9ff379" x="277.297781" y="129.23992" style="fill: #134a8e; stroke: #134a8e"/>
     <use xlink:href="#m4dcf9ff379" x="278.695776" y="146.111445" style="fill: #134a8e; stroke: #134a8e"/>
     <use xlink:href="#m4dcf9ff379" x="280.093772" y="147.850047" style="fill: #134a8e; stroke: #134a8e"/>
     <use xlink:href="#m4dcf9ff379" x="281.491768" y="145.799652" style="fill: #134a8e; stroke: #134a8e"/>
     <use xlink:href="#m4dcf9ff379" x="282.889763" y="147.068761" style="fill: #134a8e; stroke: #134a8e"/>
     <use xlink:href="#m4dcf9ff379" x="284.287759" y="148.404874" style="fill: #134a8e; stroke: #134a8e"/>
     <use xlink:href="#m4dcf9ff379" x="285.685755" y="147.946739" style="fill: #134a8e; stroke: #134a8e"/>
     <use xlink:href="#m4dcf9ff379" x="287.08375" y="148.143262" style="fill: #134a8e; stroke: #134a8e"/>
     <use xlink:href="#m4dcf9ff379" x="288.481746" y="155.185048" style="fill: #134a8e; stroke: #134a8e"/>
     <use xlink:href="#m4dcf9ff379" x="289.879742" y="157.799685" style="fill: #134a8e; stroke: #134a8e"/>
     <use xlink:href="#m4dcf9ff379" x="291.277738" y="157.69017" style="fill: #134a8e; stroke: #134a8e"/>
     <use xlink:href="#m4dcf9ff379" x="292.675733" y="156.749462" style="fill: #134a8e; stroke: #134a8e"/>
     <use xlink:href="#m4dcf9ff379" x="294.073729" y="155.37265" style="fill: #134a8e; stroke: #134a8e"/>
     <use xlink:href="#m4dcf9ff379" x="295.471725" y="149.883246" style="fill: #134a8e; stroke: #134a8e"/>
     <use xlink:href="#m4dcf9ff379" x="296.86972" y="149.568937" style="fill: #134a8e; stroke: #134a8e"/>
     <use xlink:href="#m4dcf9ff379" x="298.267716" y="149.486606" style="fill: #134a8e; stroke: #134a8e"/>
     <use xlink:href="#m4dcf9ff379" x="299.665712" y="148.485805" style="fill: #134a8e; stroke: #134a8e"/>
     <use xlink:href="#m4dcf9ff379" x="301.063707" y="148.478281" style="fill: #134a8e; stroke: #134a8e"/>
     <use xlink:href="#m4dcf9ff379" x="302.461703" y="147.004782" style="fill: #134a8e; stroke: #134a8e"/>
     <use xlink:href="#m4dcf9ff379" x="303.859699" y="147.32693" style="fill: #134a8e; stroke: #134a8e"/>
     <use xlink:href="#m4dcf9ff379" x="305.257695" y="146.934058" style="fill: #134a8e; stroke: #134a8e"/>
     <use xlink:href="#m4dcf9ff379" x="306.65569" y="146.536911" style="fill: #134a8e; stroke: #134a8e"/>
     <use xlink:href="#m4dcf9ff379" x="308.053686" y="136.663532" style="fill: #134a8e; stroke: #134a8e"/>
     <use xlink:href="#m4dcf9ff379" x="309.451682" y="132.410205" style="fill: #134a8e; stroke: #134a8e"/>
     <use xlink:href="#m4dcf9ff379" x="310.849677" y="132.382493" style="fill: #134a8e; stroke: #134a8e"/>
     <use xlink:href="#m4dcf9ff379" x="312.247673" y="120.577857" style="fill: #134a8e; stroke: #134a8e"/>
     <use xlink:href="#m4dcf9ff379" x="313.645669" y="120.512478" style="fill: #134a8e; stroke: #134a8e"/>
     <use xlink:href="#m4dcf9ff379" x="315.043665" y="120.383697" style="fill: #134a8e; stroke: #134a8e"/>
     <use xlink:href="#m4dcf9ff379" x="316.44166" y="119.997197" style="fill: #134a8e; stroke: #134a8e"/>
     <use xlink:href="#m4dcf9ff379" x="317.839656" y="120.270167" style="fill: #134a8e; stroke: #134a8e"/>
     <use xlink:href="#m4dcf9ff379" x="319.237652" y="118.26276" style="fill: #134a8e; stroke: #134a8e"/>
     <use xlink:href="#m4dcf9ff379" x="320.635647" y="120.830269" style="fill: #134a8e; stroke: #134a8e"/>
     <use xlink:href="#m4dcf9ff379" x="322.033643" y="121.246162" style="fill: #134a8e; stroke: #134a8e"/>
     <use xlink:href="#m4dcf9ff379" x="323.431639" y="121.138269" style="fill: #134a8e; stroke: #134a8e"/>
     <use xlink:href="#m4dcf9ff379" x="324.829634" y="120.243054" style="fill: #134a8e; stroke: #134a8e"/>
     <use xlink:href="#m4dcf9ff379" x="326.22763" y="119.802579" style="fill: #134a8e; stroke: #134a8e"/>
     <use xlink:href="#m4dcf9ff379" x="327.625626" y="121.197442" style="fill: #134a8e; stroke: #134a8e"/>
     <use xlink:href="#m4dcf9ff379" x="329.023622" y="120.989869" style="fill: #134a8e; stroke: #134a8e"/>
     <use xlink:href="#m4dcf9ff379" x="330.421617" y="121.02686" style="fill: #134a8e; stroke: #134a8e"/>
     <use xlink:href="#m4dcf9ff379" x="331.819613" y="135.368657" style="fill: #134a8e; stroke: #134a8e"/>
     <use xlink:href="#m4dcf9ff379" x="333.217609" y="134.96429" style="fill: #134a8e; stroke: #134a8e"/>
     <use xlink:href="#m4dcf9ff379" x="334.615604" y="135.472661" style="fill: #134a8e; stroke: #134a8e"/>
     <use xlink:href="#m4dcf9ff379" x="336.0136" y="134.947122" style="fill: #134a8e; stroke: #134a8e"/>
     <use xlink:href="#m4dcf9ff379" x="337.411596" y="155.583542" style="fill: #134a8e; stroke: #134a8e"/>
     <use xlink:href="#m4dcf9ff379" x="338.809592" y="146.773068" style="fill: #134a8e; stroke: #134a8e"/>
     <use xlink:href="#m4dcf9ff379" x="340.207587" y="148.962019" style="fill: #134a8e; stroke: #134a8e"/>
     <use xlink:href="#m4dcf9ff379" x="341.605583" y="148.822451" style="fill: #134a8e; stroke: #134a8e"/>
     <use xlink:href="#m4dcf9ff379" x="343.003579" y="149.061433" style="fill: #134a8e; stroke: #134a8e"/>
     <use xlink:href="#m4dcf9ff379" x="344.401574" y="148.499591" style="fill: #134a8e; stroke: #134a8e"/>
     <use xlink:href="#m4dcf9ff379" x="345.79957" y="155.166801" style="fill: #134a8e; stroke: #134a8e"/>
     <use xlink:href="#m4dcf9ff379" x="347.197566" y="148.475555" style="fill: #134a8e; stroke: #134a8e"/>
     <use xlink:href="#m4dcf9ff379" x="348.595561" y="145.72897" style="fill: #134a8e; stroke: #134a8e"/>
     <use xlink:href="#m4dcf9ff379" x="349.993557" y="143.963346" style="fill: #134a8e; stroke: #134a8e"/>
     <use xlink:href="#m4dcf9ff379" x="351.391553" y="143.332407" style="fill: #134a8e; stroke: #134a8e"/>
     <use xlink:href="#m4dcf9ff379" x="352.789549" y="144.579998" style="fill: #134a8e; stroke: #134a8e"/>
     <use xlink:href="#m4dcf9ff379" x="354.187544" y="113.339183" style="fill: #134a8e; stroke: #134a8e"/>
     <use xlink:href="#m4dcf9ff379" x="355.58554" y="130.615961" style="fill: #134a8e; stroke: #134a8e"/>
     <use xlink:href="#m4dcf9ff379" x="356.983536" y="114.218653" style="fill: #134a8e; stroke: #134a8e"/>
     <use xlink:href="#m4dcf9ff379" x="358.381531" y="52.700736" style="fill: #134a8e; stroke: #134a8e"/>
     <use xlink:href="#m4dcf9ff379" x="359.779527" y="52.228816" style="fill: #134a8e; stroke: #134a8e"/>
     <use xlink:href="#m4dcf9ff379" x="361.177523" y="41.542988" style="fill: #134a8e; stroke: #134a8e"/>
     <use xlink:href="#m4dcf9ff379" x="362.575519" y="39.009017" style="fill: #134a8e; stroke: #134a8e"/>
     <use xlink:href="#m4dcf9ff379" x="363.973514" y="45.55392" style="fill: #134a8e; stroke: #134a8e"/>
     <use xlink:href="#m4dcf9ff379" x="365.37151" y="38.420958" style="fill: #134a8e; stroke: #134a8e"/>
     <use xlink:href="#m4dcf9ff379" x="366.769506" y="38.889604" style="fill: #134a8e; stroke: #134a8e"/>
     <use xlink:href="#m4dcf9ff379" x="368.167501" y="34.408002" style="fill: #134a8e; stroke: #134a8e"/>
     <use xlink:href="#m4dcf9ff379" x="369.565497" y="35.997651" style="fill: #134a8e; stroke: #134a8e"/>
     <use xlink:href="#m4dcf9ff379" x="370.963493" y="35.857362" style="fill: #134a8e; stroke: #134a8e"/>
     <use xlink:href="#m4dcf9ff379" x="372.361488" y="37.419176" style="fill: #134a8e; stroke: #134a8e"/>
     <use xlink:href="#m4dcf9ff379" x="373.759484" y="34.847908" style="fill: #134a8e; stroke: #134a8e"/>
     <use xlink:href="#m4dcf9ff379" x="375.15748" y="30.103258" style="fill: #134a8e; stroke: #134a8e"/>
     <use xlink:href="#m4dcf9ff379" x="376.555476" y="27.367563" style="fill: #134a8e; stroke: #134a8e"/>
     <use xlink:href="#m4dcf9ff379" x="377.953471" y="42.157026" style="fill: #134a8e; stroke: #134a8e"/>
     <use xlink:href="#m4dcf9ff379" x="379.351467" y="40.458999" style="fill: #134a8e; stroke: #134a8e"/>
     <use xlink:href="#m4dcf9ff379" x="380.749463" y="38.816127" style="fill: #134a8e; stroke: #134a8e"/>
     <use xlink:href="#m4dcf9ff379" x="382.147458" y="39.508429" style="fill: #134a8e; stroke: #134a8e"/>
     <use xlink:href="#m4dcf9ff379" x="383.545454" y="71.338334" style="fill: #134a8e; stroke: #134a8e"/>
     <use xlink:href="#m4dcf9ff379" x="384.94345" y="70.480319" style="fill: #134a8e; stroke: #134a8e"/>
     <use xlink:href="#m4dcf9ff379" x="386.341446" y="69.345285" style="fill: #134a8e; stroke: #134a8e"/>
     <use xlink:href="#m4dcf9ff379" x="387.739441" y="67.414532" style="fill: #134a8e; stroke: #134a8e"/>
     <use xlink:href="#m4dcf9ff379" x="389.137437" y="68.678495" style="fill: #134a8e; stroke: #134a8e"/>
     <use xlink:href="#m4dcf9ff379" x="390.535433" y="76.694229" style="fill: #134a8e; stroke: #134a8e"/>
     <use xlink:href="#m4dcf9ff379" x="391.933428" y="78.830381" style="fill: #134a8e; stroke: #134a8e"/>
     <use xlink:href="#m4dcf9ff379" x="393.331424" y="111.930143" style="fill: #134a8e; stroke: #134a8e"/>
     <use xlink:href="#m4dcf9ff379" x="394.72942" y="110.343907" style="fill: #134a8e; stroke: #134a8e"/>
     <use xlink:href="#m4dcf9ff379" x="396.127415" y="110.853306" style="fill: #134a8e; stroke: #134a8e"/>
     <use xlink:href="#m4dcf9ff379" x="397.525411" y="116.430806" style="fill: #134a8e; stroke: #134a8e"/>
     <use xlink:href="#m4dcf9ff379" x="398.923407" y="129.830459" style="fill: #134a8e; stroke: #134a8e"/>
     <use xlink:href="#m4dcf9ff379" x="400.321403" y="128.709147" style="fill: #134a8e; stroke: #134a8e"/>
     <use xlink:href="#m4dcf9ff379" x="401.719398" y="130.443634" style="fill: #134a8e; stroke: #134a8e"/>
     <use xlink:href="#m4dcf9ff379" x="403.117394" y="134.950414" style="fill: #134a8e; stroke: #134a8e"/>
     <use xlink:href="#m4dcf9ff379" x="404.51539" y="137.77692" style="fill: #134a8e; stroke: #134a8e"/>
     <use xlink:href="#m4dcf9ff379" x="405.913385" y="138.043841" style="fill: #134a8e; stroke: #134a8e"/>
     <use xlink:href="#m4dcf9ff379" x="407.311381" y="140.193384" style="fill: #134a8e; stroke: #134a8e"/>
     <use xlink:href="#m4dcf9ff379" x="408.709377" y="140.874055" style="fill: #134a8e; stroke: #134a8e"/>
     <use xlink:href="#m4dcf9ff379" x="410.107372" y="141.059544" style="fill: #134a8e; stroke: #134a8e"/>
     <use xlink:href="#m4dcf9ff379" x="411.505368" y="140.839266" style="fill: #134a8e; stroke: #134a8e"/>
     <use xlink:href="#m4dcf9ff379" x="412.903364" y="142.534729" style="fill: #134a8e; stroke: #134a8e"/>
     <use xlink:href="#m4dcf9ff379" x="414.30136" y="151.618208" style="fill: #134a8e; stroke: #134a8e"/>
     <use xlink:href="#m4dcf9ff379" x="415.699355" y="142.516387" style="fill: #134a8e; stroke: #134a8e"/>
     <use xlink:href="#m4dcf9ff379" x="417.097351" y="152.781331" style="fill: #134a8e; stroke: #134a8e"/>
     <use xlink:href="#m4dcf9ff379" x="418.495347" y="152.908302" style="fill: #134a8e; stroke: #134a8e"/>
     <use xlink:href="#m4dcf9ff379" x="419.893342" y="152.917778" style="fill: #134a8e; stroke: #134a8e"/>
     <use xlink:href="#m4dcf9ff379" x="421.291338" y="152.876232" style="fill: #134a8e; stroke: #134a8e"/>
     <use xlink:href="#m4dcf9ff379" x="422.689334" y="151.715838" style="fill: #134a8e; stroke: #134a8e"/>
     <use xlink:href="#m4dcf9ff379" x="424.08733" y="151.787824" style="fill: #134a8e; stroke: #134a8e"/>
    </g>
   </g>
   <g id="line2d_26">
    <path d="M 68.99642 143.515336 
L 70.394416 143.584204 
L 71.792412 147.865253 
L 73.190408 147.016068 
L 74.588403 147.218828 
L 75.986399 147.175486 
L 77.384395 142.486053 
L 78.78239 142.524946 
L 81.578382 141.949079 
L 82.976378 137.113515 
L 84.374373 136.744233 
L 85.772369 140.260838 
L 87.170365 141.768347 
L 88.56836 146.916208 
L 89.966356 147.280969 
L 91.364352 147.355176 
L 92.762347 147.988142 
L 95.558339 147.48167 
L 96.956335 151.467956 
L 98.35433 152.165161 
L 99.752326 152.134901 
L 101.150322 152.240867 
L 102.548317 156.890521 
L 103.946313 156.968664 
L 105.344309 157.304896 
L 108.1403 156.769981 
L 109.538296 156.876984 
L 112.334287 156.701985 
L 113.732283 151.85907 
L 115.130279 147.592863 
L 116.528274 148.414635 
L 117.92627 146.91814 
L 119.324266 147.957978 
L 120.722262 147.791732 
L 122.120257 152.468144 
L 123.518253 148.128917 
L 124.916249 143.393377 
L 126.314244 143.063697 
L 127.71224 142.977683 
L 130.508231 143.446853 
L 131.906227 133.859194 
L 133.304223 138.469953 
L 134.702219 138.061359 
L 136.100214 138.334429 
L 137.49821 134.085347 
L 138.896206 133.987948 
L 140.294201 135.400673 
L 141.692197 131.651084 
L 144.488189 140.647459 
L 145.886184 137.629804 
L 147.28418 121.904534 
L 148.682176 118.032748 
L 150.080171 119.478544 
L 151.478167 128.16456 
L 152.876163 129.013288 
L 154.274158 133.122602 
L 155.672154 134.311169 
L 157.07015 137.554973 
L 158.468146 138.282167 
L 159.866141 138.43828 
L 161.264137 142.407504 
L 162.662133 137.951354 
L 164.060128 136.413037 
L 165.458124 121.045927 
L 166.85612 121.149518 
L 168.254116 126.118899 
L 169.652111 127.250015 
L 171.050107 124.051644 
L 172.448103 123.11156 
L 173.846098 124.161443 
L 175.244094 126.928269 
L 176.64209 116.938819 
L 178.040085 114.537705 
L 179.438081 114.975801 
L 180.836077 110.845195 
L 182.234073 108.670366 
L 183.632068 108.872778 
L 185.030064 118.85659 
L 186.42806 120.565956 
L 187.826055 124.682787 
L 189.224051 123.906527 
L 190.622047 125.625487 
L 192.020043 128.331775 
L 193.418038 127.906976 
L 194.816034 125.771472 
L 196.21403 127.062093 
L 197.612025 128.970025 
L 199.010021 129.379446 
L 200.408017 123.867773 
L 201.806012 127.799733 
L 203.204008 121.715561 
L 204.602004 118.140008 
L 206 117.150034 
L 207.397995 115.258554 
L 208.795991 119.136779 
L 210.193987 116.016908 
L 211.591982 106.719131 
L 212.989978 103.347063 
L 214.387974 98.425599 
L 215.785969 92.566114 
L 217.183965 97.286239 
L 218.581961 96.181713 
L 219.979957 95.807781 
L 221.377952 84.407502 
L 222.775948 95.159986 
L 224.173944 99.440234 
L 225.571939 99.761334 
L 226.969935 102.755639 
L 228.367931 100.430387 
L 229.765927 101.221737 
L 231.163922 107.458153 
L 232.561918 109.200922 
L 233.959914 110.650979 
L 235.357909 117.490597 
L 236.755905 113.884985 
L 238.153901 115.190185 
L 239.551896 118.164484 
L 240.949892 125.049389 
L 242.347888 121.820025 
L 243.745884 122.638487 
L 245.143879 124.22934 
L 246.541875 118.425453 
L 247.939871 118.630129 
L 249.337866 121.126269 
L 250.735862 124.527444 
L 253.531854 129.367418 
L 254.929849 129.987886 
L 257.725841 131.458617 
L 259.123836 126.750612 
L 260.521832 125.597355 
L 261.919828 126.510599 
L 263.317823 127.255352 
L 264.715819 126.339594 
L 266.113815 131.733207 
L 267.511811 131.460329 
L 268.909806 132.051848 
L 270.307802 126.220938 
L 271.705798 125.242188 
L 273.103793 135.789625 
L 274.501789 135.721776 
L 275.899785 137.760109 
L 277.297781 137.681483 
L 278.695776 148.759078 
L 280.093772 151.650518 
L 281.491768 149.854361 
L 282.889763 148.800378 
L 284.287759 150.649493 
L 285.685755 151.160971 
L 287.08375 153.675484 
L 288.481746 157.100656 
L 289.879742 159.029419 
L 291.277738 159.189632 
L 292.675733 157.998285 
L 294.073729 157.094472 
L 295.471725 155.075849 
L 296.86972 155.767284 
L 298.267716 154.600705 
L 299.665712 153.233362 
L 301.063707 153.005112 
L 302.461703 151.619284 
L 303.859699 151.581174 
L 305.257695 150.901349 
L 306.65569 149.401477 
L 308.053686 142.8752 
L 309.451682 139.846722 
L 310.849677 139.15219 
L 312.247673 132.054929 
L 313.645669 130.570211 
L 315.043665 130.924131 
L 316.44166 130.645703 
L 317.839656 122.690768 
L 319.237652 122.899224 
L 322.033643 127.148617 
L 323.431639 126.89347 
L 324.829634 125.408071 
L 326.22763 122.213287 
L 327.625626 125.886442 
L 329.023622 128.104228 
L 330.421617 127.088717 
L 331.819613 136.317875 
L 333.217609 140.43885 
L 334.615604 141.250516 
L 336.0136 141.024494 
L 337.411596 156.894488 
L 338.809592 151.745189 
L 340.207587 154.116579 
L 341.605583 153.970587 
L 344.401574 153.837356 
L 345.79957 156.4625 
L 347.197566 154.168326 
L 349.993557 144.314548 
L 351.391553 144.781919 
L 352.789549 144.779144 
L 354.187544 124.321216 
L 355.58554 132.543893 
L 356.983536 127.011262 
L 358.381531 73.341461 
L 359.779527 66.106096 
L 361.177523 70.480976 
L 362.575519 70.218145 
L 363.973514 62.865956 
L 365.37151 61.147396 
L 366.769506 55.0909 
L 368.167501 58.95456 
L 369.565497 57.423877 
L 370.963493 60.351035 
L 372.361488 60.184769 
L 373.759484 46.588406 
L 375.15748 43.28927 
L 376.555476 43.658809 
L 377.953471 73.149062 
L 379.351467 68.329516 
L 380.749463 72.078934 
L 382.147458 72.172435 
L 383.545454 75.255806 
L 384.94345 78.926895 
L 386.341446 86.7122 
L 387.739441 88.589493 
L 389.137437 93.690972 
L 390.535433 97.488879 
L 391.933428 97.628758 
L 393.331424 118.985244 
L 394.72942 116.658517 
L 396.127415 124.261209 
L 397.525411 126.759324 
L 398.923407 133.719714 
L 400.321403 135.715095 
L 401.719398 135.721235 
L 403.117394 140.624106 
L 404.51539 142.929473 
L 405.913385 144.303618 
L 407.311381 146.98928 
L 408.709377 149.131366 
L 410.107372 149.389242 
L 411.505368 149.414611 
L 412.903364 149.183668 
L 414.30136 153.157042 
L 415.699355 152.067657 
L 417.097351 154.867767 
L 418.495347 155.07062 
L 419.893342 154.861353 
L 421.291338 155.83203 
L 422.689334 153.494572 
L 424.08733 153.481375 
L 424.08733 153.481375 
" clip-path="url(#p522cc819a5)" style="fill: none; stroke-dasharray: 5.55,2.4; stroke-dashoffset: 0; stroke: #000000; stroke-width: 1.5"/>
   </g>
   <g id="patch_3">
    <path d="M 51.241875 166.749632 
L 51.241875 0.429632 
" style="fill: none; stroke: #ffffff; stroke-linejoin: miter; stroke-linecap: square"/>
   </g>
   <g id="patch_4">
    <path d="M 441.841875 166.749632 
L 441.841875 0.429632 
" style="fill: none; stroke: #ffffff; stroke-linejoin: miter; stroke-linecap: square"/>
   </g>
   <g id="patch_5">
    <path d="M 51.241875 166.749632 
L 441.841875 166.749632 
" style="fill: none; stroke: #ffffff; stroke-linejoin: miter; stroke-linecap: square"/>
   </g>
   <g id="patch_6">
    <path d="M 51.241875 0.429632 
L 441.841875 0.429632 
" style="fill: none; stroke: #ffffff; stroke-linejoin: miter; stroke-linecap: square"/>
   </g>
   <g id="legend_1">
    <g id="patch_7">
     <path d="M 58.241875 60.807757 
L 210.28875 60.807757 
Q 212.28875 60.807757 212.28875 58.807757 
L 212.28875 7.429632 
Q 212.28875 5.429632 210.28875 5.429632 
L 58.241875 5.429632 
Q 56.241875 5.429632 56.241875 7.429632 
L 56.241875 58.807757 
Q 56.241875 60.807757 58.241875 60.807757 
z
" style="fill: #e5e5e5; opacity: 0.8; stroke: #cccccc; stroke-width: 0.5; stroke-linejoin: miter"/>
    </g>
    <g id="line2d_27">
     <path d="M 60.241875 15.929632 
L 70.241875 15.929632 
L 80.241875 15.929632 
" style="fill: none; stroke: #134a8e; stroke-width: 3; stroke-linecap: square"/>
     <g>
      <use xlink:href="#m4dcf9ff379" x="70.241875" y="15.929632" style="fill: #134a8e; stroke: #134a8e"/>
     </g>
    </g>
    <g id="text_15">
     <!-- Private Value $\tilde{R}_{\chi_1,\chi_3}^t$ -->
     <g transform="translate(88.241875 19.429632) scale(0.1 -0.1)">
      <defs>
       <path id="DejaVuSans-50" d="M 1259 4147 
L 1259 2394 
L 2053 2394 
Q 2494 2394 2734 2622 
Q 2975 2850 2975 3272 
Q 2975 3691 2734 3919 
Q 2494 4147 2053 4147 
L 1259 4147 
z
M 628 4666 
L 2053 4666 
Q 2838 4666 3239 4311 
Q 3641 3956 3641 3272 
Q 3641 2581 3239 2228 
Q 2838 1875 2053 1875 
L 1259 1875 
L 1259 0 
L 628 0 
L 628 4666 
z
" transform="scale(0.015625)"/>
       <path id="DejaVuSans-72" d="M 2631 2963 
Q 2534 3019 2420 3045 
Q 2306 3072 2169 3072 
Q 1681 3072 1420 2755 
Q 1159 2438 1159 1844 
L 1159 0 
L 581 0 
L 581 3500 
L 1159 3500 
L 1159 2956 
Q 1341 3275 1631 3429 
Q 1922 3584 2338 3584 
Q 2397 3584 2469 3576 
Q 2541 3569 2628 3553 
L 2631 2963 
z
" transform="scale(0.015625)"/>
       <path id="DejaVuSans-69" d="M 603 3500 
L 1178 3500 
L 1178 0 
L 603 0 
L 603 3500 
z
M 603 4863 
L 1178 4863 
L 1178 4134 
L 603 4134 
L 603 4863 
z
" transform="scale(0.015625)"/>
       <path id="DejaVuSans-76" d="M 191 3500 
L 800 3500 
L 1894 563 
L 2988 3500 
L 3597 3500 
L 2284 0 
L 1503 0 
L 191 3500 
z
" transform="scale(0.015625)"/>
       <path id="DejaVuSans-20" transform="scale(0.015625)"/>
       <path id="DejaVuSans-303" d="M -1621 4281 
L -1799 4453 
Q -1867 4516 -1919 4545 
Q -1971 4575 -2011 4575 
Q -2130 4575 -2186 4461 
Q -2242 4347 -2249 4091 
L -2639 4091 
Q -2633 4513 -2473 4742 
Q -2314 4972 -2030 4972 
Q -1911 4972 -1811 4928 
Q -1711 4884 -1596 4781 
L -1417 4609 
Q -1349 4547 -1297 4517 
Q -1246 4488 -1205 4488 
Q -1086 4488 -1030 4602 
Q -974 4716 -967 4972 
L -577 4972 
Q -583 4550 -742 4320 
Q -902 4091 -1186 4091 
Q -1305 4091 -1405 4134 
Q -1505 4178 -1621 4281 
z
" transform="scale(0.015625)"/>
       <path id="DejaVuSans-Oblique-52" d="M 1613 4147 
L 1294 2491 
L 2106 2491 
Q 2584 2491 2879 2755 
Q 3175 3019 3175 3444 
Q 3175 3784 2976 3965 
Q 2778 4147 2406 4147 
L 1613 4147 
z
M 2772 2241 
Q 2972 2194 3105 2009 
Q 3238 1825 3413 1275 
L 3809 0 
L 3144 0 
L 2778 1197 
Q 2638 1659 2453 1815 
Q 2269 1972 1888 1972 
L 1191 1972 
L 806 0 
L 172 0 
L 1081 4666 
L 2503 4666 
Q 3150 4666 3495 4373 
Q 3841 4081 3841 3531 
Q 3841 3044 3547 2687 
Q 3253 2331 2772 2241 
z
" transform="scale(0.015625)"/>
       <path id="DejaVuSans-Oblique-74" d="M 2706 3500 
L 2619 3053 
L 1472 3053 
L 1100 1153 
Q 1081 1047 1072 975 
Q 1063 903 1063 863 
Q 1063 663 1183 572 
Q 1303 481 1569 481 
L 2150 481 
L 2053 0 
L 1503 0 
Q 991 0 739 200 
Q 488 400 488 806 
Q 488 878 497 964 
Q 506 1050 525 1153 
L 897 3053 
L 409 3053 
L 500 3500 
L 978 3500 
L 1172 4494 
L 1747 4494 
L 1556 3500 
L 2706 3500 
z
" transform="scale(0.015625)"/>
       <path id="DejaVuSans-Oblique-3c7" d="M 1922 -781 
L 1691 416 
L 394 -1334 
L -284 -1334 
L 1553 1141 
L 1269 2613 
Q 1194 3006 713 3006 
L 559 3006 
L 653 3500 
L 872 3494 
Q 1675 3472 1775 2950 
L 2006 1753 
L 3303 3503 
L 3981 3503 
L 2144 1028 
L 2428 -444 
Q 2503 -838 2984 -838 
L 3138 -838 
L 3044 -1331 
L 2825 -1325 
Q 2022 -1303 1922 -781 
z
" transform="scale(0.015625)"/>
       <path id="DejaVuSans-2c" d="M 750 794 
L 1409 794 
L 1409 256 
L 897 -744 
L 494 -744 
L 750 256 
L 750 794 
z
" transform="scale(0.015625)"/>
      </defs>
      <use xlink:href="#DejaVuSans-50" transform="translate(0 0.828125)"/>
      <use xlink:href="#DejaVuSans-72" transform="translate(60.302734 0.828125)"/>
      <use xlink:href="#DejaVuSans-69" transform="translate(101.416016 0.828125)"/>
      <use xlink:href="#DejaVuSans-76" transform="translate(129.199219 0.828125)"/>
      <use xlink:href="#DejaVuSans-61" transform="translate(188.378906 0.828125)"/>
      <use xlink:href="#DejaVuSans-74" transform="translate(249.658203 0.828125)"/>
      <use xlink:href="#DejaVuSans-65" transform="translate(288.867188 0.828125)"/>
      <use xlink:href="#DejaVuSans-20" transform="translate(350.390625 0.828125)"/>
      <use xlink:href="#DejaVuSans-56" transform="translate(382.177734 0.828125)"/>
      <use xlink:href="#DejaVuSans-61" transform="translate(450.585938 0.828125)"/>
      <use xlink:href="#DejaVuSans-6c" transform="translate(511.865234 0.828125)"/>
      <use xlink:href="#DejaVuSans-75" transform="translate(539.648438 0.828125)"/>
      <use xlink:href="#DejaVuSans-65" transform="translate(603.027344 0.828125)"/>
      <use xlink:href="#DejaVuSans-20" transform="translate(664.550781 0.828125)"/>
      <use xlink:href="#DejaVuSans-303" transform="translate(764.942871 22.3125)"/>
      <use xlink:href="#DejaVuSans-Oblique-52" transform="translate(696.337891 0.828125)"/>
      <use xlink:href="#DejaVuSans-Oblique-74" transform="translate(766.777344 39.109375) scale(0.7)"/>
      <use xlink:href="#DejaVuSans-Oblique-3c7" transform="translate(766.777344 -26.515625) scale(0.7)"/>
      <use xlink:href="#DejaVuSans-31" transform="translate(808.203125 -38) scale(0.49)"/>
      <use xlink:href="#DejaVuSans-2c" transform="translate(841.29248 -26.515625) scale(0.7)"/>
      <use xlink:href="#DejaVuSans-Oblique-3c7" transform="translate(877.181152 -26.515625) scale(0.7)"/>
      <use xlink:href="#DejaVuSans-33" transform="translate(918.606934 -38) scale(0.49)"/>
     </g>
    </g>
    <g id="line2d_28">
     <path d="M 60.241875 34.429632 
L 70.241875 34.429632 
L 80.241875 34.429632 
" style="fill: none; stroke-dasharray: 5.55,2.4; stroke-dashoffset: 0; stroke: #000000; stroke-width: 1.5"/>
    </g>
    <g id="text_16">
     <!-- Original Value $\bar{R}_{\chi_1,\chi_3}^t$ -->
     <g transform="translate(88.241875 37.929632) scale(0.1 -0.1)">
      <defs>
       <path id="DejaVuSans-4f" d="M 2522 4238 
Q 1834 4238 1429 3725 
Q 1025 3213 1025 2328 
Q 1025 1447 1429 934 
Q 1834 422 2522 422 
Q 3209 422 3611 934 
Q 4013 1447 4013 2328 
Q 4013 3213 3611 3725 
Q 3209 4238 2522 4238 
z
M 2522 4750 
Q 3503 4750 4090 4092 
Q 4678 3434 4678 2328 
Q 4678 1225 4090 567 
Q 3503 -91 2522 -91 
Q 1538 -91 948 565 
Q 359 1222 359 2328 
Q 359 3434 948 4092 
Q 1538 4750 2522 4750 
z
" transform="scale(0.015625)"/>
       <path id="DejaVuSans-67" d="M 2906 1791 
Q 2906 2416 2648 2759 
Q 2391 3103 1925 3103 
Q 1463 3103 1205 2759 
Q 947 2416 947 1791 
Q 947 1169 1205 825 
Q 1463 481 1925 481 
Q 2391 481 2648 825 
Q 2906 1169 2906 1791 
z
M 3481 434 
Q 3481 -459 3084 -895 
Q 2688 -1331 1869 -1331 
Q 1566 -1331 1297 -1286 
Q 1028 -1241 775 -1147 
L 775 -588 
Q 1028 -725 1275 -790 
Q 1522 -856 1778 -856 
Q 2344 -856 2625 -561 
Q 2906 -266 2906 331 
L 2906 616 
Q 2728 306 2450 153 
Q 2172 0 1784 0 
Q 1141 0 747 490 
Q 353 981 353 1791 
Q 353 2603 747 3093 
Q 1141 3584 1784 3584 
Q 2172 3584 2450 3431 
Q 2728 3278 2906 2969 
L 2906 3500 
L 3481 3500 
L 3481 434 
z
" transform="scale(0.015625)"/>
       <path id="DejaVuSans-6e" d="M 3513 2113 
L 3513 0 
L 2938 0 
L 2938 2094 
Q 2938 2591 2744 2837 
Q 2550 3084 2163 3084 
Q 1697 3084 1428 2787 
Q 1159 2491 1159 1978 
L 1159 0 
L 581 0 
L 581 3500 
L 1159 3500 
L 1159 2956 
Q 1366 3272 1645 3428 
Q 1925 3584 2291 3584 
Q 2894 3584 3203 3211 
Q 3513 2838 3513 2113 
z
" transform="scale(0.015625)"/>
       <path id="DejaVuSans-304" d="M -2518 4769 
L -650 4769 
L -650 4306 
L -2518 4306 
L -2518 4769 
z
" transform="scale(0.015625)"/>
      </defs>
      <use xlink:href="#DejaVuSans-4f" transform="translate(0 0.359375)"/>
      <use xlink:href="#DejaVuSans-72" transform="translate(78.710938 0.359375)"/>
      <use xlink:href="#DejaVuSans-69" transform="translate(119.824219 0.359375)"/>
      <use xlink:href="#DejaVuSans-67" transform="translate(147.607422 0.359375)"/>
      <use xlink:href="#DejaVuSans-69" transform="translate(211.083984 0.359375)"/>
      <use xlink:href="#DejaVuSans-6e" transform="translate(238.867188 0.359375)"/>
      <use xlink:href="#DejaVuSans-61" transform="translate(302.246094 0.359375)"/>
      <use xlink:href="#DejaVuSans-6c" transform="translate(363.525391 0.359375)"/>
      <use xlink:href="#DejaVuSans-20" transform="translate(391.308594 0.359375)"/>
      <use xlink:href="#DejaVuSans-56" transform="translate(423.095703 0.359375)"/>
      <use xlink:href="#DejaVuSans-61" transform="translate(491.503906 0.359375)"/>
      <use xlink:href="#DejaVuSans-6c" transform="translate(552.783203 0.359375)"/>
      <use xlink:href="#DejaVuSans-75" transform="translate(580.566406 0.359375)"/>
      <use xlink:href="#DejaVuSans-65" transform="translate(643.945312 0.359375)"/>
      <use xlink:href="#DejaVuSans-20" transform="translate(705.46875 0.359375)"/>
      <use xlink:href="#DejaVuSans-304" transform="translate(804.970215 18.484375)"/>
      <use xlink:href="#DejaVuSans-Oblique-52" transform="translate(737.255859 0.359375)"/>
      <use xlink:href="#DejaVuSans-Oblique-74" transform="translate(807.695312 38.640625) scale(0.7)"/>
      <use xlink:href="#DejaVuSans-Oblique-3c7" transform="translate(807.695312 -26.984375) scale(0.7)"/>
      <use xlink:href="#DejaVuSans-31" transform="translate(849.121094 -38.46875) scale(0.49)"/>
      <use xlink:href="#DejaVuSans-2c" transform="translate(882.210449 -26.984375) scale(0.7)"/>
      <use xlink:href="#DejaVuSans-Oblique-3c7" transform="translate(918.099121 -26.984375) scale(0.7)"/>
      <use xlink:href="#DejaVuSans-33" transform="translate(959.524902 -38.46875) scale(0.49)"/>
     </g>
    </g>
    <g id="patch_8">
     <path d="M 60.241875 54.728069 
L 80.241875 54.728069 
L 80.241875 47.728069 
L 60.241875 47.728069 
z
" style="fill: #134a8e; fill-opacity: 0.5; stroke: #134a8e; stroke-opacity: 0.5; stroke-width: 0.5; stroke-linejoin: miter"/>
    </g>
    <g id="text_17">
     <!-- One Standard Deviation -->
     <g transform="translate(88.241875 54.728069) scale(0.1 -0.1)">
      <defs>
       <path id="DejaVuSans-53" d="M 3425 4513 
L 3425 3897 
Q 3066 4069 2747 4153 
Q 2428 4238 2131 4238 
Q 1616 4238 1336 4038 
Q 1056 3838 1056 3469 
Q 1056 3159 1242 3001 
Q 1428 2844 1947 2747 
L 2328 2669 
Q 3034 2534 3370 2195 
Q 3706 1856 3706 1288 
Q 3706 609 3251 259 
Q 2797 -91 1919 -91 
Q 1588 -91 1214 -16 
Q 841 59 441 206 
L 441 856 
Q 825 641 1194 531 
Q 1563 422 1919 422 
Q 2459 422 2753 634 
Q 3047 847 3047 1241 
Q 3047 1584 2836 1778 
Q 2625 1972 2144 2069 
L 1759 2144 
Q 1053 2284 737 2584 
Q 422 2884 422 3419 
Q 422 4038 858 4394 
Q 1294 4750 2059 4750 
Q 2388 4750 2728 4690 
Q 3069 4631 3425 4513 
z
" transform="scale(0.015625)"/>
       <path id="DejaVuSans-64" d="M 2906 2969 
L 2906 4863 
L 3481 4863 
L 3481 0 
L 2906 0 
L 2906 525 
Q 2725 213 2448 61 
Q 2172 -91 1784 -91 
Q 1150 -91 751 415 
Q 353 922 353 1747 
Q 353 2572 751 3078 
Q 1150 3584 1784 3584 
Q 2172 3584 2448 3432 
Q 2725 3281 2906 2969 
z
M 947 1747 
Q 947 1113 1208 752 
Q 1469 391 1925 391 
Q 2381 391 2643 752 
Q 2906 1113 2906 1747 
Q 2906 2381 2643 2742 
Q 2381 3103 1925 3103 
Q 1469 3103 1208 2742 
Q 947 2381 947 1747 
z
" transform="scale(0.015625)"/>
       <path id="DejaVuSans-6f" d="M 1959 3097 
Q 1497 3097 1228 2736 
Q 959 2375 959 1747 
Q 959 1119 1226 758 
Q 1494 397 1959 397 
Q 2419 397 2687 759 
Q 2956 1122 2956 1747 
Q 2956 2369 2687 2733 
Q 2419 3097 1959 3097 
z
M 1959 3584 
Q 2709 3584 3137 3096 
Q 3566 2609 3566 1747 
Q 3566 888 3137 398 
Q 2709 -91 1959 -91 
Q 1206 -91 779 398 
Q 353 888 353 1747 
Q 353 2609 779 3096 
Q 1206 3584 1959 3584 
z
" transform="scale(0.015625)"/>
      </defs>
      <use xlink:href="#DejaVuSans-4f"/>
      <use xlink:href="#DejaVuSans-6e" x="78.710938"/>
      <use xlink:href="#DejaVuSans-65" x="142.089844"/>
      <use xlink:href="#DejaVuSans-20" x="203.613281"/>
      <use xlink:href="#DejaVuSans-53" x="235.400391"/>
      <use xlink:href="#DejaVuSans-74" x="298.876953"/>
      <use xlink:href="#DejaVuSans-61" x="338.085938"/>
      <use xlink:href="#DejaVuSans-6e" x="399.365234"/>
      <use xlink:href="#DejaVuSans-64" x="462.744141"/>
      <use xlink:href="#DejaVuSans-61" x="526.220703"/>
      <use xlink:href="#DejaVuSans-72" x="587.5"/>
      <use xlink:href="#DejaVuSans-64" x="626.863281"/>
      <use xlink:href="#DejaVuSans-20" x="690.339844"/>
      <use xlink:href="#DejaVuSans-44" x="722.126953"/>
      <use xlink:href="#DejaVuSans-65" x="799.128906"/>
      <use xlink:href="#DejaVuSans-76" x="860.652344"/>
      <use xlink:href="#DejaVuSans-69" x="919.832031"/>
      <use xlink:href="#DejaVuSans-61" x="947.615234"/>
      <use xlink:href="#DejaVuSans-74" x="1008.894531"/>
      <use xlink:href="#DejaVuSans-69" x="1048.103516"/>
      <use xlink:href="#DejaVuSans-6f" x="1075.886719"/>
      <use xlink:href="#DejaVuSans-6e" x="1137.068359"/>
     </g>
    </g>
   </g>
  </g>
 </g>
 <defs>
  <clipPath id="p522cc819a5">
   <rect x="51.241875" y="0.429632" width="390.6" height="166.32"/>
  </clipPath>
 </defs>
</svg>
