<?xml version="1.0" encoding="utf-8" standalone="no"?>
<!DOCTYPE svg PUBLIC "-//W3C//DTD SVG 1.1//EN"
  "http://www.w3.org/Graphics/SVG/1.1/DTD/svg11.dtd">
<svg xmlns:xlink="http://www.w3.org/1999/xlink" width="450.737567pt" height="202.05663pt" viewBox="0 0 450.737567 202.05663" xmlns="http://www.w3.org/2000/svg" version="1.1">
 <metadata>
  <rdf:RDF xmlns:dc="http://purl.org/dc/elements/1.1/" xmlns:cc="http://creativecommons.org/ns#" xmlns:rdf="http://www.w3.org/1999/02/22-rdf-syntax-ns#">
   <cc:Work>
    <dc:type rdf:resource="http://purl.org/dc/dcmitype/StillImage"/>
    <dc:date>2024-09-18T15:47:53.407726</dc:date>
    <dc:format>image/svg+xml</dc:format>
    <dc:creator>
     <cc:Agent>
      <dc:title>Matplotlib v3.7.5, https://matplotlib.org/</dc:title>
     </cc:Agent>
    </dc:creator>
   </cc:Work>
  </rdf:RDF>
 </metadata>
 <defs>
  <style type="text/css">*{stroke-linejoin: round; stroke-linecap: butt}</style>
 </defs>
 <g id="figure_1">
  <g id="patch_1">
   <path d="M 0 202.05663 
L 450.737567 202.05663 
L 450.737567 0 
L 0 0 
z
" style="fill: #ffffff"/>
  </g>
  <g id="axes_1">
   <g id="patch_2">
    <path d="M 51.241875 169.764755 
L 441.841875 169.764755 
L 441.841875 3.444755 
L 51.241875 3.444755 
z
" style="fill: #e5e5e5"/>
   </g>
   <g id="matplotlib.axis_1">
    <g id="xtick_1">
     <g id="line2d_1">
      <path d="M 78.78239 169.764755 
L 78.78239 3.444755 
" clip-path="url(#p6a6741c6b7)" style="fill: none; stroke: #ffffff; stroke-width: 0.8; stroke-linecap: square"/>
     </g>
     <g id="line2d_2">
      <defs>
       <path id="m5de811f27f" d="M 0 0 
L 0 3.5 
" style="stroke: #555555; stroke-width: 0.8"/>
      </defs>
      <g>
       <use xlink:href="#m5de811f27f" x="78.78239" y="169.764755" style="fill: #555555; stroke: #555555; stroke-width: 0.8"/>
      </g>
     </g>
     <g id="text_1">
      <!-- 08/16/20 -->
      <g style="fill: #555555" transform="translate(56.32614 184.363193) scale(0.1 -0.1)">
       <defs>
        <path id="DejaVuSans-30" d="M 2034 4250 
Q 1547 4250 1301 3770 
Q 1056 3291 1056 2328 
Q 1056 1369 1301 889 
Q 1547 409 2034 409 
Q 2525 409 2770 889 
Q 3016 1369 3016 2328 
Q 3016 3291 2770 3770 
Q 2525 4250 2034 4250 
z
M 2034 4750 
Q 2819 4750 3233 4129 
Q 3647 3509 3647 2328 
Q 3647 1150 3233 529 
Q 2819 -91 2034 -91 
Q 1250 -91 836 529 
Q 422 1150 422 2328 
Q 422 3509 836 4129 
Q 1250 4750 2034 4750 
z
" transform="scale(0.015625)"/>
        <path id="DejaVuSans-38" d="M 2034 2216 
Q 1584 2216 1326 1975 
Q 1069 1734 1069 1313 
Q 1069 891 1326 650 
Q 1584 409 2034 409 
Q 2484 409 2743 651 
Q 3003 894 3003 1313 
Q 3003 1734 2745 1975 
Q 2488 2216 2034 2216 
z
M 1403 2484 
Q 997 2584 770 2862 
Q 544 3141 544 3541 
Q 544 4100 942 4425 
Q 1341 4750 2034 4750 
Q 2731 4750 3128 4425 
Q 3525 4100 3525 3541 
Q 3525 3141 3298 2862 
Q 3072 2584 2669 2484 
Q 3125 2378 3379 2068 
Q 3634 1759 3634 1313 
Q 3634 634 3220 271 
Q 2806 -91 2034 -91 
Q 1263 -91 848 271 
Q 434 634 434 1313 
Q 434 1759 690 2068 
Q 947 2378 1403 2484 
z
M 1172 3481 
Q 1172 3119 1398 2916 
Q 1625 2713 2034 2713 
Q 2441 2713 2670 2916 
Q 2900 3119 2900 3481 
Q 2900 3844 2670 4047 
Q 2441 4250 2034 4250 
Q 1625 4250 1398 4047 
Q 1172 3844 1172 3481 
z
" transform="scale(0.015625)"/>
        <path id="DejaVuSans-2f" d="M 1625 4666 
L 2156 4666 
L 531 -594 
L 0 -594 
L 1625 4666 
z
" transform="scale(0.015625)"/>
        <path id="DejaVuSans-31" d="M 794 531 
L 1825 531 
L 1825 4091 
L 703 3866 
L 703 4441 
L 1819 4666 
L 2450 4666 
L 2450 531 
L 3481 531 
L 3481 0 
L 794 0 
L 794 531 
z
" transform="scale(0.015625)"/>
        <path id="DejaVuSans-36" d="M 2113 2584 
Q 1688 2584 1439 2293 
Q 1191 2003 1191 1497 
Q 1191 994 1439 701 
Q 1688 409 2113 409 
Q 2538 409 2786 701 
Q 3034 994 3034 1497 
Q 3034 2003 2786 2293 
Q 2538 2584 2113 2584 
z
M 3366 4563 
L 3366 3988 
Q 3128 4100 2886 4159 
Q 2644 4219 2406 4219 
Q 1781 4219 1451 3797 
Q 1122 3375 1075 2522 
Q 1259 2794 1537 2939 
Q 1816 3084 2150 3084 
Q 2853 3084 3261 2657 
Q 3669 2231 3669 1497 
Q 3669 778 3244 343 
Q 2819 -91 2113 -91 
Q 1303 -91 875 529 
Q 447 1150 447 2328 
Q 447 3434 972 4092 
Q 1497 4750 2381 4750 
Q 2619 4750 2861 4703 
Q 3103 4656 3366 4563 
z
" transform="scale(0.015625)"/>
        <path id="DejaVuSans-32" d="M 1228 531 
L 3431 531 
L 3431 0 
L 469 0 
L 469 531 
Q 828 903 1448 1529 
Q 2069 2156 2228 2338 
Q 2531 2678 2651 2914 
Q 2772 3150 2772 3378 
Q 2772 3750 2511 3984 
Q 2250 4219 1831 4219 
Q 1534 4219 1204 4116 
Q 875 4013 500 3803 
L 500 4441 
Q 881 4594 1212 4672 
Q 1544 4750 1819 4750 
Q 2544 4750 2975 4387 
Q 3406 4025 3406 3419 
Q 3406 3131 3298 2873 
Q 3191 2616 2906 2266 
Q 2828 2175 2409 1742 
Q 1991 1309 1228 531 
z
" transform="scale(0.015625)"/>
       </defs>
       <use xlink:href="#DejaVuSans-30"/>
       <use xlink:href="#DejaVuSans-38" x="63.623047"/>
       <use xlink:href="#DejaVuSans-2f" x="127.246094"/>
       <use xlink:href="#DejaVuSans-31" x="160.9375"/>
       <use xlink:href="#DejaVuSans-36" x="224.560547"/>
       <use xlink:href="#DejaVuSans-2f" x="288.183594"/>
       <use xlink:href="#DejaVuSans-32" x="321.875"/>
       <use xlink:href="#DejaVuSans-30" x="385.498047"/>
      </g>
     </g>
    </g>
    <g id="xtick_2">
     <g id="line2d_3">
      <path d="M 148.682176 169.764755 
L 148.682176 3.444755 
" clip-path="url(#p6a6741c6b7)" style="fill: none; stroke: #ffffff; stroke-width: 0.8; stroke-linecap: square"/>
     </g>
     <g id="line2d_4">
      <g>
       <use xlink:href="#m5de811f27f" x="148.682176" y="169.764755" style="fill: #555555; stroke: #555555; stroke-width: 0.8"/>
      </g>
     </g>
     <g id="text_2">
      <!-- 10/05/20 -->
      <g style="fill: #555555" transform="translate(126.225926 184.363193) scale(0.1 -0.1)">
       <defs>
        <path id="DejaVuSans-35" d="M 691 4666 
L 3169 4666 
L 3169 4134 
L 1269 4134 
L 1269 2991 
Q 1406 3038 1543 3061 
Q 1681 3084 1819 3084 
Q 2600 3084 3056 2656 
Q 3513 2228 3513 1497 
Q 3513 744 3044 326 
Q 2575 -91 1722 -91 
Q 1428 -91 1123 -41 
Q 819 9 494 109 
L 494 744 
Q 775 591 1075 516 
Q 1375 441 1709 441 
Q 2250 441 2565 725 
Q 2881 1009 2881 1497 
Q 2881 1984 2565 2268 
Q 2250 2553 1709 2553 
Q 1456 2553 1204 2497 
Q 953 2441 691 2322 
L 691 4666 
z
" transform="scale(0.015625)"/>
       </defs>
       <use xlink:href="#DejaVuSans-31"/>
       <use xlink:href="#DejaVuSans-30" x="63.623047"/>
       <use xlink:href="#DejaVuSans-2f" x="127.246094"/>
       <use xlink:href="#DejaVuSans-30" x="160.9375"/>
       <use xlink:href="#DejaVuSans-35" x="224.560547"/>
       <use xlink:href="#DejaVuSans-2f" x="288.183594"/>
       <use xlink:href="#DejaVuSans-32" x="321.875"/>
       <use xlink:href="#DejaVuSans-30" x="385.498047"/>
      </g>
     </g>
    </g>
    <g id="xtick_3">
     <g id="line2d_5">
      <path d="M 218.581961 169.764755 
L 218.581961 3.444755 
" clip-path="url(#p6a6741c6b7)" style="fill: none; stroke: #ffffff; stroke-width: 0.8; stroke-linecap: square"/>
     </g>
     <g id="line2d_6">
      <g>
       <use xlink:href="#m5de811f27f" x="218.581961" y="169.764755" style="fill: #555555; stroke: #555555; stroke-width: 0.8"/>
      </g>
     </g>
     <g id="text_3">
      <!-- 11/24/20 -->
      <g style="fill: #555555" transform="translate(196.125711 184.363193) scale(0.1 -0.1)">
       <defs>
        <path id="DejaVuSans-34" d="M 2419 4116 
L 825 1625 
L 2419 1625 
L 2419 4116 
z
M 2253 4666 
L 3047 4666 
L 3047 1625 
L 3713 1625 
L 3713 1100 
L 3047 1100 
L 3047 0 
L 2419 0 
L 2419 1100 
L 313 1100 
L 313 1709 
L 2253 4666 
z
" transform="scale(0.015625)"/>
       </defs>
       <use xlink:href="#DejaVuSans-31"/>
       <use xlink:href="#DejaVuSans-31" x="63.623047"/>
       <use xlink:href="#DejaVuSans-2f" x="127.246094"/>
       <use xlink:href="#DejaVuSans-32" x="160.9375"/>
       <use xlink:href="#DejaVuSans-34" x="224.560547"/>
       <use xlink:href="#DejaVuSans-2f" x="288.183594"/>
       <use xlink:href="#DejaVuSans-32" x="321.875"/>
       <use xlink:href="#DejaVuSans-30" x="385.498047"/>
      </g>
     </g>
    </g>
    <g id="xtick_4">
     <g id="line2d_7">
      <path d="M 288.481746 169.764755 
L 288.481746 3.444755 
" clip-path="url(#p6a6741c6b7)" style="fill: none; stroke: #ffffff; stroke-width: 0.8; stroke-linecap: square"/>
     </g>
     <g id="line2d_8">
      <g>
       <use xlink:href="#m5de811f27f" x="288.481746" y="169.764755" style="fill: #555555; stroke: #555555; stroke-width: 0.8"/>
      </g>
     </g>
     <g id="text_4">
      <!-- 01/13/21 -->
      <g style="fill: #555555" transform="translate(266.025496 184.363193) scale(0.1 -0.1)">
       <defs>
        <path id="DejaVuSans-33" d="M 2597 2516 
Q 3050 2419 3304 2112 
Q 3559 1806 3559 1356 
Q 3559 666 3084 287 
Q 2609 -91 1734 -91 
Q 1441 -91 1130 -33 
Q 819 25 488 141 
L 488 750 
Q 750 597 1062 519 
Q 1375 441 1716 441 
Q 2309 441 2620 675 
Q 2931 909 2931 1356 
Q 2931 1769 2642 2001 
Q 2353 2234 1838 2234 
L 1294 2234 
L 1294 2753 
L 1863 2753 
Q 2328 2753 2575 2939 
Q 2822 3125 2822 3475 
Q 2822 3834 2567 4026 
Q 2313 4219 1838 4219 
Q 1578 4219 1281 4162 
Q 984 4106 628 3988 
L 628 4550 
Q 988 4650 1302 4700 
Q 1616 4750 1894 4750 
Q 2613 4750 3031 4423 
Q 3450 4097 3450 3541 
Q 3450 3153 3228 2886 
Q 3006 2619 2597 2516 
z
" transform="scale(0.015625)"/>
       </defs>
       <use xlink:href="#DejaVuSans-30"/>
       <use xlink:href="#DejaVuSans-31" x="63.623047"/>
       <use xlink:href="#DejaVuSans-2f" x="127.246094"/>
       <use xlink:href="#DejaVuSans-31" x="160.9375"/>
       <use xlink:href="#DejaVuSans-33" x="224.560547"/>
       <use xlink:href="#DejaVuSans-2f" x="288.183594"/>
       <use xlink:href="#DejaVuSans-32" x="321.875"/>
       <use xlink:href="#DejaVuSans-31" x="385.498047"/>
      </g>
     </g>
    </g>
    <g id="xtick_5">
     <g id="line2d_9">
      <path d="M 358.381531 169.764755 
L 358.381531 3.444755 
" clip-path="url(#p6a6741c6b7)" style="fill: none; stroke: #ffffff; stroke-width: 0.8; stroke-linecap: square"/>
     </g>
     <g id="line2d_10">
      <g>
       <use xlink:href="#m5de811f27f" x="358.381531" y="169.764755" style="fill: #555555; stroke: #555555; stroke-width: 0.8"/>
      </g>
     </g>
     <g id="text_5">
      <!-- 03/04/21 -->
      <g style="fill: #555555" transform="translate(335.925281 184.363193) scale(0.1 -0.1)">
       <use xlink:href="#DejaVuSans-30"/>
       <use xlink:href="#DejaVuSans-33" x="63.623047"/>
       <use xlink:href="#DejaVuSans-2f" x="127.246094"/>
       <use xlink:href="#DejaVuSans-30" x="160.9375"/>
       <use xlink:href="#DejaVuSans-34" x="224.560547"/>
       <use xlink:href="#DejaVuSans-2f" x="288.183594"/>
       <use xlink:href="#DejaVuSans-32" x="321.875"/>
       <use xlink:href="#DejaVuSans-31" x="385.498047"/>
      </g>
     </g>
    </g>
    <g id="xtick_6">
     <g id="line2d_11">
      <path d="M 428.281317 169.764755 
L 428.281317 3.444755 
" clip-path="url(#p6a6741c6b7)" style="fill: none; stroke: #ffffff; stroke-width: 0.8; stroke-linecap: square"/>
     </g>
     <g id="line2d_12">
      <g>
       <use xlink:href="#m5de811f27f" x="428.281317" y="169.764755" style="fill: #555555; stroke: #555555; stroke-width: 0.8"/>
      </g>
     </g>
     <g id="text_6">
      <!-- 04/23/21 -->
      <g style="fill: #555555" transform="translate(405.825067 184.363193) scale(0.1 -0.1)">
       <use xlink:href="#DejaVuSans-30"/>
       <use xlink:href="#DejaVuSans-34" x="63.623047"/>
       <use xlink:href="#DejaVuSans-2f" x="127.246094"/>
       <use xlink:href="#DejaVuSans-32" x="160.9375"/>
       <use xlink:href="#DejaVuSans-33" x="224.560547"/>
       <use xlink:href="#DejaVuSans-2f" x="288.183594"/>
       <use xlink:href="#DejaVuSans-32" x="321.875"/>
       <use xlink:href="#DejaVuSans-31" x="385.498047"/>
      </g>
     </g>
    </g>
    <g id="text_7">
     <!-- Date -->
     <g style="fill: #555555" transform="translate(232.200938 199.561005) scale(0.12 -0.12)">
      <defs>
       <path id="DejaVuSans-44" d="M 1259 4147 
L 1259 519 
L 2022 519 
Q 2988 519 3436 956 
Q 3884 1394 3884 2338 
Q 3884 3275 3436 3711 
Q 2988 4147 2022 4147 
L 1259 4147 
z
M 628 4666 
L 1925 4666 
Q 3281 4666 3915 4102 
Q 4550 3538 4550 2338 
Q 4550 1131 3912 565 
Q 3275 0 1925 0 
L 628 0 
L 628 4666 
z
" transform="scale(0.015625)"/>
       <path id="DejaVuSans-61" d="M 2194 1759 
Q 1497 1759 1228 1600 
Q 959 1441 959 1056 
Q 959 750 1161 570 
Q 1363 391 1709 391 
Q 2188 391 2477 730 
Q 2766 1069 2766 1631 
L 2766 1759 
L 2194 1759 
z
M 3341 1997 
L 3341 0 
L 2766 0 
L 2766 531 
Q 2569 213 2275 61 
Q 1981 -91 1556 -91 
Q 1019 -91 701 211 
Q 384 513 384 1019 
Q 384 1609 779 1909 
Q 1175 2209 1959 2209 
L 2766 2209 
L 2766 2266 
Q 2766 2663 2505 2880 
Q 2244 3097 1772 3097 
Q 1472 3097 1187 3025 
Q 903 2953 641 2809 
L 641 3341 
Q 956 3463 1253 3523 
Q 1550 3584 1831 3584 
Q 2591 3584 2966 3190 
Q 3341 2797 3341 1997 
z
" transform="scale(0.015625)"/>
       <path id="DejaVuSans-74" d="M 1172 4494 
L 1172 3500 
L 2356 3500 
L 2356 3053 
L 1172 3053 
L 1172 1153 
Q 1172 725 1289 603 
Q 1406 481 1766 481 
L 2356 481 
L 2356 0 
L 1766 0 
Q 1100 0 847 248 
Q 594 497 594 1153 
L 594 3053 
L 172 3053 
L 172 3500 
L 594 3500 
L 594 4494 
L 1172 4494 
z
" transform="scale(0.015625)"/>
       <path id="DejaVuSans-65" d="M 3597 1894 
L 3597 1613 
L 953 1613 
Q 991 1019 1311 708 
Q 1631 397 2203 397 
Q 2534 397 2845 478 
Q 3156 559 3463 722 
L 3463 178 
Q 3153 47 2828 -22 
Q 2503 -91 2169 -91 
Q 1331 -91 842 396 
Q 353 884 353 1716 
Q 353 2575 817 3079 
Q 1281 3584 2069 3584 
Q 2775 3584 3186 3129 
Q 3597 2675 3597 1894 
z
M 3022 2063 
Q 3016 2534 2758 2815 
Q 2500 3097 2075 3097 
Q 1594 3097 1305 2825 
Q 1016 2553 972 2059 
L 3022 2063 
z
" transform="scale(0.015625)"/>
      </defs>
      <use xlink:href="#DejaVuSans-44"/>
      <use xlink:href="#DejaVuSans-61" x="77.001953"/>
      <use xlink:href="#DejaVuSans-74" x="138.28125"/>
      <use xlink:href="#DejaVuSans-65" x="177.490234"/>
     </g>
    </g>
   </g>
   <g id="matplotlib.axis_2">
    <g id="ytick_1">
     <g id="line2d_13">
      <path d="M 51.241875 164.647333 
L 441.841875 164.647333 
" clip-path="url(#p6a6741c6b7)" style="fill: none; stroke: #ffffff; stroke-width: 0.8; stroke-linecap: square"/>
     </g>
     <g id="line2d_14">
      <defs>
       <path id="m4ad233c9ce" d="M 0 0 
L -3.5 0 
" style="stroke: #555555; stroke-width: 0.8"/>
      </defs>
      <g>
       <use xlink:href="#m4ad233c9ce" x="51.241875" y="164.647333" style="fill: #555555; stroke: #555555; stroke-width: 0.8"/>
      </g>
     </g>
     <g id="text_8">
      <!-- 0.000 -->
      <g style="fill: #555555" transform="translate(15.61375 168.446551) scale(0.1 -0.1)">
       <defs>
        <path id="DejaVuSans-2e" d="M 684 794 
L 1344 794 
L 1344 0 
L 684 0 
L 684 794 
z
" transform="scale(0.015625)"/>
       </defs>
       <use xlink:href="#DejaVuSans-30"/>
       <use xlink:href="#DejaVuSans-2e" x="63.623047"/>
       <use xlink:href="#DejaVuSans-30" x="95.410156"/>
       <use xlink:href="#DejaVuSans-30" x="159.033203"/>
       <use xlink:href="#DejaVuSans-30" x="222.65625"/>
      </g>
     </g>
    </g>
    <g id="ytick_2">
     <g id="line2d_15">
      <path d="M 51.241875 132.47771 
L 441.841875 132.47771 
" clip-path="url(#p6a6741c6b7)" style="fill: none; stroke: #ffffff; stroke-width: 0.8; stroke-linecap: square"/>
     </g>
     <g id="line2d_16">
      <g>
       <use xlink:href="#m4ad233c9ce" x="51.241875" y="132.47771" style="fill: #555555; stroke: #555555; stroke-width: 0.8"/>
      </g>
     </g>
     <g id="text_9">
      <!-- 0.005 -->
      <g style="fill: #555555" transform="translate(15.61375 136.276929) scale(0.1 -0.1)">
       <use xlink:href="#DejaVuSans-30"/>
       <use xlink:href="#DejaVuSans-2e" x="63.623047"/>
       <use xlink:href="#DejaVuSans-30" x="95.410156"/>
       <use xlink:href="#DejaVuSans-30" x="159.033203"/>
       <use xlink:href="#DejaVuSans-35" x="222.65625"/>
      </g>
     </g>
    </g>
    <g id="ytick_3">
     <g id="line2d_17">
      <path d="M 51.241875 100.308087 
L 441.841875 100.308087 
" clip-path="url(#p6a6741c6b7)" style="fill: none; stroke: #ffffff; stroke-width: 0.8; stroke-linecap: square"/>
     </g>
     <g id="line2d_18">
      <g>
       <use xlink:href="#m4ad233c9ce" x="51.241875" y="100.308087" style="fill: #555555; stroke: #555555; stroke-width: 0.8"/>
      </g>
     </g>
     <g id="text_10">
      <!-- 0.010 -->
      <g style="fill: #555555" transform="translate(15.61375 104.107306) scale(0.1 -0.1)">
       <use xlink:href="#DejaVuSans-30"/>
       <use xlink:href="#DejaVuSans-2e" x="63.623047"/>
       <use xlink:href="#DejaVuSans-30" x="95.410156"/>
       <use xlink:href="#DejaVuSans-31" x="159.033203"/>
       <use xlink:href="#DejaVuSans-30" x="222.65625"/>
      </g>
     </g>
    </g>
    <g id="ytick_4">
     <g id="line2d_19">
      <path d="M 51.241875 68.138464 
L 441.841875 68.138464 
" clip-path="url(#p6a6741c6b7)" style="fill: none; stroke: #ffffff; stroke-width: 0.8; stroke-linecap: square"/>
     </g>
     <g id="line2d_20">
      <g>
       <use xlink:href="#m4ad233c9ce" x="51.241875" y="68.138464" style="fill: #555555; stroke: #555555; stroke-width: 0.8"/>
      </g>
     </g>
     <g id="text_11">
      <!-- 0.015 -->
      <g style="fill: #555555" transform="translate(15.61375 71.937683) scale(0.1 -0.1)">
       <use xlink:href="#DejaVuSans-30"/>
       <use xlink:href="#DejaVuSans-2e" x="63.623047"/>
       <use xlink:href="#DejaVuSans-30" x="95.410156"/>
       <use xlink:href="#DejaVuSans-31" x="159.033203"/>
       <use xlink:href="#DejaVuSans-35" x="222.65625"/>
      </g>
     </g>
    </g>
    <g id="ytick_5">
     <g id="line2d_21">
      <path d="M 51.241875 35.968842 
L 441.841875 35.968842 
" clip-path="url(#p6a6741c6b7)" style="fill: none; stroke: #ffffff; stroke-width: 0.8; stroke-linecap: square"/>
     </g>
     <g id="line2d_22">
      <g>
       <use xlink:href="#m4ad233c9ce" x="51.241875" y="35.968842" style="fill: #555555; stroke: #555555; stroke-width: 0.8"/>
      </g>
     </g>
     <g id="text_12">
      <!-- 0.020 -->
      <g style="fill: #555555" transform="translate(15.61375 39.76806) scale(0.1 -0.1)">
       <use xlink:href="#DejaVuSans-30"/>
       <use xlink:href="#DejaVuSans-2e" x="63.623047"/>
       <use xlink:href="#DejaVuSans-30" x="95.410156"/>
       <use xlink:href="#DejaVuSans-32" x="159.033203"/>
       <use xlink:href="#DejaVuSans-30" x="222.65625"/>
      </g>
     </g>
    </g>
    <g id="ytick_6">
     <g id="line2d_23">
      <path d="M 51.241875 3.799219 
L 441.841875 3.799219 
" clip-path="url(#p6a6741c6b7)" style="fill: none; stroke: #ffffff; stroke-width: 0.8; stroke-linecap: square"/>
     </g>
     <g id="line2d_24">
      <g>
       <use xlink:href="#m4ad233c9ce" x="51.241875" y="3.799219" style="fill: #555555; stroke: #555555; stroke-width: 0.8"/>
      </g>
     </g>
     <g id="text_13">
      <!-- 0.025 -->
      <g style="fill: #555555" transform="translate(15.61375 7.598437) scale(0.1 -0.1)">
       <use xlink:href="#DejaVuSans-30"/>
       <use xlink:href="#DejaVuSans-2e" x="63.623047"/>
       <use xlink:href="#DejaVuSans-30" x="95.410156"/>
       <use xlink:href="#DejaVuSans-32" x="159.033203"/>
       <use xlink:href="#DejaVuSans-35" x="222.65625"/>
      </g>
     </g>
    </g>
    <g id="text_14">
     <!-- Value -->
     <g style="fill: #555555" transform="translate(9.118125 103.082255) rotate(-90) scale(0.12 -0.12)">
      <defs>
       <path id="DejaVuSans-56" d="M 1831 0 
L 50 4666 
L 709 4666 
L 2188 738 
L 3669 4666 
L 4325 4666 
L 2547 0 
L 1831 0 
z
" transform="scale(0.015625)"/>
       <path id="DejaVuSans-6c" d="M 603 4863 
L 1178 4863 
L 1178 0 
L 603 0 
L 603 4863 
z
" transform="scale(0.015625)"/>
       <path id="DejaVuSans-75" d="M 544 1381 
L 544 3500 
L 1119 3500 
L 1119 1403 
Q 1119 906 1312 657 
Q 1506 409 1894 409 
Q 2359 409 2629 706 
Q 2900 1003 2900 1516 
L 2900 3500 
L 3475 3500 
L 3475 0 
L 2900 0 
L 2900 538 
Q 2691 219 2414 64 
Q 2138 -91 1772 -91 
Q 1169 -91 856 284 
Q 544 659 544 1381 
z
M 1991 3584 
L 1991 3584 
z
" transform="scale(0.015625)"/>
      </defs>
      <use xlink:href="#DejaVuSans-56"/>
      <use xlink:href="#DejaVuSans-61" x="60.658203"/>
      <use xlink:href="#DejaVuSans-6c" x="121.9375"/>
      <use xlink:href="#DejaVuSans-75" x="149.720703"/>
      <use xlink:href="#DejaVuSans-65" x="213.099609"/>
     </g>
    </g>
   </g>
   <g id="PolyCollection_1">
    <defs>
     <path id="ma413f39b0f" d="M 68.99642 -61.389709 
L 68.99642 -75.100875 
L 70.394416 -72.752961 
L 71.792412 -70.648611 
L 73.190408 -76.371004 
L 74.588403 -76.26616 
L 75.986399 -74.600761 
L 77.384395 -74.08108 
L 78.78239 -75.455237 
L 80.180386 -81.985295 
L 81.578382 -80.483975 
L 82.976378 -85.500246 
L 84.374373 -84.487233 
L 85.772369 -78.474588 
L 87.170365 -78.422176 
L 88.56836 -74.445926 
L 89.966356 -73.594653 
L 91.364352 -72.975973 
L 92.762347 -71.357482 
L 94.160343 -71.461436 
L 95.558339 -71.793699 
L 96.956335 -48.140832 
L 98.35433 -49.473916 
L 99.752326 -48.227774 
L 101.150322 -49.407695 
L 102.548317 -44.062225 
L 103.946313 -44.156956 
L 105.344309 -43.566795 
L 106.742304 -44.16353 
L 108.1403 -46.685622 
L 109.538296 -46.581427 
L 110.936292 -46.305632 
L 112.334287 -46.212008 
L 113.732283 -64.631278 
L 115.130279 -62.672791 
L 116.528274 -62.881869 
L 117.92627 -60.269845 
L 119.324266 -61.456591 
L 120.722262 -59.506475 
L 122.120257 -57.549401 
L 123.518253 -59.219768 
L 124.916249 -59.663667 
L 126.314244 -59.174642 
L 127.71224 -58.990616 
L 129.110236 -59.047956 
L 130.508231 -59.424732 
L 131.906227 -70.162654 
L 133.304223 -60.922975 
L 134.702219 -65.291943 
L 136.100214 -65.098276 
L 137.49821 -70.514955 
L 138.896206 -69.14775 
L 140.294201 -69.538099 
L 141.692197 -70.980833 
L 143.090193 -72.224131 
L 144.488189 -68.906456 
L 145.886184 -71.027344 
L 147.28418 -101.451569 
L 148.682176 -102.206784 
L 150.080171 -102.424392 
L 151.478167 -74.768868 
L 152.876163 -75.937688 
L 154.274158 -76.497647 
L 155.672154 -76.665192 
L 157.07015 -75.416617 
L 158.468146 -74.53009 
L 159.866141 -74.04596 
L 161.264137 -72.928704 
L 162.662133 -72.920579 
L 164.060128 -75.147481 
L 165.458124 -106.164537 
L 166.85612 -107.843513 
L 168.254116 -77.182775 
L 169.652111 -77.259474 
L 171.050107 -89.536804 
L 172.448103 -104.008494 
L 173.846098 -104.411514 
L 175.244094 -86.353224 
L 176.64209 -107.10616 
L 178.040085 -106.297148 
L 179.438081 -106.512973 
L 180.836077 -105.112535 
L 182.234073 -106.623313 
L 183.632068 -104.395115 
L 185.030064 -103.318636 
L 186.42806 -104.280786 
L 187.826055 -104.219765 
L 189.224051 -105.865838 
L 190.622047 -88.394861 
L 192.020043 -86.548848 
L 193.418038 -87.072061 
L 194.816034 -88.127795 
L 196.21403 -87.181965 
L 197.612025 -77.532046 
L 199.010021 -78.395683 
L 200.408017 -89.959067 
L 201.806012 -79.020689 
L 203.204008 -92.155874 
L 204.602004 -113.066906 
L 206 -113.114799 
L 207.397995 -117.759467 
L 208.795991 -95.963693 
L 210.193987 -118.112792 
L 211.591982 -118.489838 
L 212.989978 -118.80968 
L 214.387974 -120.842304 
L 215.785969 -123.994791 
L 217.183965 -121.185413 
L 218.581961 -120.082939 
L 219.979957 -122.808267 
L 221.377952 -132.570381 
L 222.775948 -123.182304 
L 224.173944 -118.135022 
L 225.571939 -119.271295 
L 226.969935 -118.970467 
L 228.367931 -123.426004 
L 229.765927 -120.662157 
L 231.163922 -117.266185 
L 232.561918 -118.011488 
L 233.959914 -117.192888 
L 235.357909 -118.740335 
L 236.755905 -117.280446 
L 238.153901 -116.341675 
L 239.551896 -116.353776 
L 240.949892 -83.713353 
L 242.347888 -108.493201 
L 243.745884 -107.158939 
L 245.143879 -107.311823 
L 246.541875 -112.140749 
L 247.939871 -111.549951 
L 249.337866 -106.799632 
L 250.735862 -104.708826 
L 252.133858 -90.26012 
L 253.531854 -91.064738 
L 254.929849 -91.906927 
L 256.327845 -88.664425 
L 257.725841 -88.852421 
L 259.123836 -89.748734 
L 260.521832 -88.131617 
L 261.919828 -87.764694 
L 263.317823 -87.054143 
L 264.715819 -87.165053 
L 266.113815 -86.76224 
L 267.511811 -86.194906 
L 268.909806 -86.341977 
L 270.307802 -84.559781 
L 271.705798 -86.344127 
L 273.103793 -87.343199 
L 274.501789 -85.796662 
L 275.899785 -74.952854 
L 277.297781 -75.511195 
L 278.695776 -55.716372 
L 280.093772 -54.201724 
L 281.491768 -55.227209 
L 282.889763 -55.915731 
L 284.287759 -54.882551 
L 285.685755 -54.833452 
L 287.08375 -53.813065 
L 288.481746 -44.765767 
L 289.879742 -41.983063 
L 291.277738 -41.990353 
L 292.675733 -43.174301 
L 294.073729 -44.701794 
L 295.471725 -52.565547 
L 296.86972 -52.692985 
L 298.267716 -52.384203 
L 299.665712 -53.474366 
L 301.063707 -53.307278 
L 302.461703 -55.405979 
L 303.859699 -55.076082 
L 305.257695 -55.567386 
L 306.65569 -55.815445 
L 308.053686 -67.074721 
L 309.451682 -71.01841 
L 310.849677 -72.103828 
L 312.247673 -83.66736 
L 313.645669 -83.281954 
L 315.043665 -83.973379 
L 316.44166 -85.254655 
L 317.839656 -84.590845 
L 319.237652 -86.611708 
L 320.635647 -84.961774 
L 322.033643 -82.846323 
L 323.431639 -82.75142 
L 324.829634 -84.20384 
L 326.22763 -84.298649 
L 327.625626 -83.765809 
L 329.023622 -83.927933 
L 330.421617 -83.609259 
L 331.819613 -68.735825 
L 333.217609 -69.367253 
L 334.615604 -68.694192 
L 336.0136 -68.176184 
L 337.411596 -44.340968 
L 338.809592 -55.768805 
L 340.207587 -53.702837 
L 341.605583 -53.678318 
L 343.003579 -53.694894 
L 344.401574 -54.288038 
L 345.79957 -44.870775 
L 347.197566 -54.708909 
L 348.595561 -57.600844 
L 349.993557 -58.355953 
L 351.391553 -59.111078 
L 352.789549 -58.730572 
L 354.187544 -91.37079 
L 355.58554 -74.900822 
L 356.983536 -93.207271 
L 358.381531 -163.14363 
L 359.779527 -169.477982 
L 361.177523 -171.587529 
L 362.575519 -177.979481 
L 363.973514 -174.990907 
L 365.37151 -178.895797 
L 366.769506 -180.017324 
L 368.167501 -182.224352 
L 369.565497 -179.635781 
L 370.963493 -181.941682 
L 372.361488 -180.388862 
L 373.759484 -182.740479 
L 375.15748 -189.827889 
L 376.555476 -191.051875 
L 377.953471 -179.950602 
L 379.351467 -180.809181 
L 380.749463 -177.703539 
L 382.147458 -176.761827 
L 383.545454 -141.008848 
L 384.94345 -140.944258 
L 386.341446 -143.919095 
L 387.739441 -140.353451 
L 389.137437 -145.907344 
L 390.535433 -133.722551 
L 391.933428 -135.152765 
L 393.331424 -95.833444 
L 394.72942 -96.878793 
L 396.127415 -96.484515 
L 397.525411 -92.666379 
L 398.923407 -75.722071 
L 400.321403 -76.752337 
L 401.719398 -77.203763 
L 403.117394 -70.615205 
L 404.51539 -67.902591 
L 405.913385 -66.361133 
L 407.311381 -63.309165 
L 408.709377 -64.736743 
L 410.107372 -64.751386 
L 411.505368 -64.600961 
L 412.903364 -62.880642 
L 414.30136 -48.646502 
L 415.699355 -62.700704 
L 417.097351 -47.724105 
L 418.495347 -47.490035 
L 419.893342 -47.373735 
L 421.291338 -47.390785 
L 422.689334 -48.711364 
L 424.08733 -48.646209 
L 424.08733 -46.085941 
L 424.08733 -46.085941 
L 422.689334 -46.36707 
L 421.291338 -45.188747 
L 419.893342 -45.086605 
L 418.495347 -45.21239 
L 417.097351 -45.318321 
L 415.699355 -51.990851 
L 414.30136 -46.029918 
L 412.903364 -52.093398 
L 411.505368 -53.957061 
L 410.107372 -53.487223 
L 408.709377 -53.461581 
L 407.311381 -51.609749 
L 405.913385 -55.355072 
L 404.51539 -56.533982 
L 403.117394 -57.942555 
L 401.719398 -64.14084 
L 400.321403 -64.955428 
L 398.923407 -63.963992 
L 397.525411 -76.639939 
L 396.127415 -82.048015 
L 394.72942 -81.505928 
L 393.331424 -80.196478 
L 391.933428 -111.441051 
L 390.535433 -111.115168 
L 389.137437 -120.389666 
L 387.739441 -117.558734 
L 386.341446 -120.515856 
L 384.94345 -119.639159 
L 383.545454 -117.351373 
L 382.147458 -140.529798 
L 380.749463 -142.401777 
L 379.351467 -142.566725 
L 377.953471 -142.160428 
L 376.555476 -151.817465 
L 375.15748 -151.144529 
L 373.759484 -143.934835 
L 372.361488 -144.411013 
L 370.963493 -146.435426 
L 369.565497 -144.822275 
L 368.167501 -146.993238 
L 366.769506 -145.169323 
L 365.37151 -146.777219 
L 363.973514 -139.055599 
L 362.575519 -139.965424 
L 361.177523 -141.534218 
L 359.779527 -138.182877 
L 358.381531 -133.602457 
L 356.983536 -81.307984 
L 355.58554 -64.45238 
L 354.187544 -80.994847 
L 352.789549 -51.574873 
L 351.391553 -51.271945 
L 349.993557 -51.601094 
L 348.595561 -50.04765 
L 347.197566 -47.336892 
L 345.79957 -43.036913 
L 344.401574 -47.516144 
L 343.003579 -47.813645 
L 341.605583 -47.004351 
L 340.207587 -47.587918 
L 338.809592 -49.024448 
L 337.411596 -42.64076 
L 336.0136 -60.517075 
L 334.615604 -60.293151 
L 333.217609 -61.154108 
L 331.819613 -59.883457 
L 330.421617 -73.732051 
L 329.023622 -73.482042 
L 327.625626 -73.941514 
L 326.22763 -75.881492 
L 324.829634 -74.154823 
L 323.431639 -72.721621 
L 322.033643 -72.764673 
L 320.635647 -75.098389 
L 319.237652 -76.687517 
L 317.839656 -74.244543 
L 316.44166 -75.027751 
L 315.043665 -74.200486 
L 313.645669 -74.326613 
L 312.247673 -72.836867 
L 310.849677 -62.748842 
L 309.451682 -61.572948 
L 308.053686 -58.205395 
L 306.65569 -48.99987 
L 305.257695 -49.09304 
L 303.859699 -49.023545 
L 302.461703 -48.971424 
L 301.063707 -47.534631 
L 299.665712 -47.938909 
L 298.267716 -46.356934 
L 296.86972 -46.707093 
L 295.471725 -46.906092 
L 294.073729 -42.993182 
L 292.675733 -41.81245 
L 291.277738 -40.540295 
L 289.879742 -40.826153 
L 288.481746 -42.948361 
L 287.08375 -47.787776 
L 285.685755 -48.102884 
L 284.287759 -48.414689 
L 282.889763 -49.404083 
L 281.491768 -49.381518 
L 280.093772 -48.257104 
L 278.695776 -49.487097 
L 277.297781 -65.487598 
L 275.899785 -65.811314 
L 274.501789 -75.777916 
L 273.103793 -75.94171 
L 271.705798 -76.392416 
L 270.307802 -74.384529 
L 268.909806 -76.750487 
L 267.511811 -76.049361 
L 266.113815 -75.770972 
L 264.715819 -78.03117 
L 263.317823 -76.597127 
L 261.919828 -77.070962 
L 260.521832 -77.505965 
L 259.123836 -77.340051 
L 257.725841 -78.59877 
L 256.327845 -77.597942 
L 254.929849 -79.062297 
L 253.531854 -79.060186 
L 252.133858 -79.309903 
L 250.735862 -89.113552 
L 249.337866 -89.7053 
L 247.939871 -96.520292 
L 246.541875 -95.409738 
L 245.143879 -90.718287 
L 243.745884 -90.313481 
L 242.347888 -90.918406 
L 240.949892 -71.000397 
L 239.551896 -99.158494 
L 238.153901 -96.805572 
L 236.755905 -99.167436 
L 235.357909 -99.313481 
L 233.959914 -98.580767 
L 232.561918 -100.109346 
L 231.163922 -99.668763 
L 229.765927 -102.372714 
L 228.367931 -104.946697 
L 226.969935 -100.121055 
L 225.571939 -102.56996 
L 224.173944 -99.415521 
L 222.775948 -104.116438 
L 221.377952 -112.027962 
L 219.979957 -102.509498 
L 218.581961 -102.734765 
L 217.183965 -103.626355 
L 215.785969 -104.983625 
L 214.387974 -101.94644 
L 212.989978 -99.489924 
L 211.591982 -100.973337 
L 210.193987 -100.857807 
L 208.795991 -79.601821 
L 207.397995 -99.054164 
L 206 -94.418956 
L 204.602004 -96.113053 
L 203.204008 -77.174992 
L 201.806012 -68.104404 
L 200.408017 -76.166325 
L 199.010021 -66.565858 
L 197.612025 -65.792509 
L 196.21403 -72.97175 
L 194.816034 -74.33013 
L 193.418038 -74.034436 
L 192.020043 -72.320795 
L 190.622047 -73.86114 
L 189.224051 -91.336186 
L 187.826055 -90.766036 
L 186.42806 -88.561039 
L 185.030064 -87.843075 
L 183.632068 -90.401311 
L 182.234073 -90.79732 
L 180.836077 -90.577263 
L 179.438081 -91.249038 
L 178.040085 -91.289493 
L 176.64209 -92.780435 
L 175.244094 -72.83556 
L 173.846098 -88.879231 
L 172.448103 -90.53215 
L 171.050107 -76.253096 
L 169.652111 -66.17569 
L 168.254116 -66.632151 
L 166.85612 -91.081553 
L 165.458124 -90.483155 
L 164.060128 -64.265784 
L 162.662133 -62.751428 
L 161.264137 -61.892575 
L 159.866141 -63.455759 
L 158.468146 -63.707002 
L 157.07015 -64.541304 
L 155.672154 -66.235905 
L 154.274158 -65.464437 
L 152.876163 -65.249512 
L 151.478167 -64.525456 
L 150.080171 -87.820299 
L 148.682176 -87.482174 
L 147.28418 -85.956225 
L 145.886184 -61.508453 
L 144.488189 -58.592693 
L 143.090193 -62.900695 
L 141.692197 -61.684885 
L 140.294201 -61.727446 
L 138.896206 -60.884752 
L 137.49821 -61.316781 
L 136.100214 -56.939673 
L 134.702219 -57.719708 
L 133.304223 -54.387809 
L 131.906227 -62.467456 
L 130.508231 -52.011822 
L 129.110236 -52.15908 
L 127.71224 -51.748689 
L 126.314244 -52.1286 
L 124.916249 -51.925277 
L 123.518253 -51.785671 
L 122.120257 -49.748573 
L 120.722262 -51.618423 
L 119.324266 -52.323578 
L 117.92627 -51.74079 
L 116.528274 -53.505954 
L 115.130279 -53.746354 
L 113.732283 -54.774302 
L 112.334287 -44.300065 
L 110.936292 -44.396558 
L 109.538296 -44.798983 
L 108.1403 -44.820915 
L 106.742304 -42.269971 
L 105.344309 -42.108045 
L 103.946313 -42.476976 
L 102.548317 -42.183272 
L 101.150322 -47.126796 
L 99.752326 -46.05058 
L 98.35433 -47.17065 
L 96.956335 -45.778049 
L 95.558339 -58.155098 
L 94.160343 -58.418783 
L 92.762347 -57.430184 
L 91.364352 -59.700535 
L 89.966356 -58.569872 
L 88.56836 -60.54663 
L 87.170365 -64.557306 
L 85.772369 -63.905048 
L 84.374373 -69.328808 
L 82.976378 -69.818633 
L 81.578382 -63.341708 
L 80.180386 -66.925875 
L 78.78239 -60.441595 
L 77.384395 -59.263964 
L 75.986399 -59.793891 
L 74.588403 -61.024772 
L 73.190408 -60.806711 
L 71.792412 -57.243948 
L 70.394416 -59.913305 
L 68.99642 -61.389709 
z
" style="stroke: #134a8e; stroke-opacity: 0.5; stroke-width: 0.5"/>
    </defs>
    <g clip-path="url(#p6a6741c6b7)">
     <use xlink:href="#ma413f39b0f" x="0" y="202.05663" style="fill: #134a8e; fill-opacity: 0.5; stroke: #134a8e; stroke-opacity: 0.5; stroke-width: 0.5"/>
    </g>
   </g>
   <g id="line2d_25">
    <path d="M 68.99642 133.811338 
L 70.394416 135.723497 
L 71.792412 138.11035 
L 73.190408 133.467773 
L 74.588403 133.411164 
L 75.986399 134.859304 
L 77.384395 135.384108 
L 78.78239 134.108214 
L 80.180386 127.601045 
L 81.578382 130.143788 
L 82.976378 124.39719 
L 84.374373 125.14861 
L 85.772369 130.866812 
L 87.170365 130.566889 
L 88.56836 134.560352 
L 89.966356 135.974367 
L 91.364352 135.718376 
L 92.762347 137.662797 
L 94.160343 137.11652 
L 95.558339 137.082231 
L 96.956335 155.09719 
L 98.35433 153.734347 
L 99.752326 154.917453 
L 101.150322 153.789385 
L 102.548317 158.933881 
L 103.946313 158.739664 
L 105.344309 159.21921 
L 106.742304 158.839879 
L 108.1403 156.303361 
L 109.538296 156.366425 
L 110.936292 156.705535 
L 112.334287 156.800593 
L 113.732283 142.35384 
L 115.130279 143.847058 
L 116.528274 143.862719 
L 117.92627 146.051313 
L 119.324266 145.166545 
L 120.722262 146.494181 
L 122.120257 148.407643 
L 123.518253 146.55391 
L 124.916249 146.262158 
L 126.314244 146.405009 
L 127.71224 146.686978 
L 129.110236 146.453112 
L 130.508231 146.338353 
L 131.906227 135.741575 
L 133.304223 144.401238 
L 134.702219 140.550805 
L 136.100214 141.037656 
L 137.49821 136.140762 
L 138.896206 137.040379 
L 141.692197 135.723771 
L 143.090193 134.494217 
L 144.488189 138.307055 
L 145.886184 135.788732 
L 147.28418 108.352733 
L 148.682176 107.212151 
L 150.080171 106.934284 
L 151.478167 132.409468 
L 152.876163 131.46303 
L 155.672154 130.606082 
L 157.07015 132.07767 
L 158.468146 132.938084 
L 159.866141 133.305771 
L 161.264137 134.64599 
L 162.662133 134.220627 
L 164.060128 132.349997 
L 165.458124 103.732784 
L 166.85612 102.594097 
L 168.254116 130.149167 
L 169.652111 130.339048 
L 171.050107 119.16168 
L 172.448103 104.786308 
L 173.846098 105.411258 
L 175.244094 122.462238 
L 176.64209 102.113332 
L 178.040085 103.26331 
L 179.438081 103.175625 
L 180.836077 104.211731 
L 182.234073 103.346314 
L 183.632068 104.658417 
L 185.030064 106.475775 
L 186.42806 105.635718 
L 189.224051 103.455618 
L 190.622047 120.92863 
L 192.020043 122.621809 
L 193.418038 121.503381 
L 194.816034 120.827667 
L 196.21403 121.979772 
L 197.612025 130.394353 
L 199.010021 129.57586 
L 200.408017 118.993934 
L 201.806012 128.494084 
L 203.204008 117.391197 
L 204.602004 97.46665 
L 206 98.289752 
L 207.397995 93.649815 
L 208.795991 114.273873 
L 210.193987 92.571331 
L 211.591982 92.325042 
L 212.989978 92.906828 
L 214.387974 90.662258 
L 215.785969 87.567422 
L 217.183965 89.650746 
L 218.581961 90.647778 
L 219.979957 89.397748 
L 221.377952 79.757459 
L 222.775948 88.407259 
L 224.173944 93.281359 
L 225.571939 91.136002 
L 226.969935 92.510869 
L 228.367931 87.87028 
L 229.765927 90.539194 
L 231.163922 93.589156 
L 232.561918 92.996213 
L 233.959914 94.169803 
L 235.357909 93.029722 
L 236.755905 93.832689 
L 238.153901 95.483006 
L 239.551896 94.300495 
L 240.949892 124.699755 
L 242.347888 102.350826 
L 243.745884 103.32042 
L 245.143879 103.041575 
L 246.541875 98.281387 
L 247.939871 98.021508 
L 249.337866 103.804164 
L 250.735862 105.145441 
L 252.133858 117.271619 
L 253.531854 116.994168 
L 254.929849 116.572018 
L 256.327845 118.925446 
L 257.725841 118.331035 
L 259.123836 118.512238 
L 260.521832 119.237839 
L 261.919828 119.638802 
L 263.317823 120.230995 
L 264.715819 119.458519 
L 266.113815 120.790024 
L 267.511811 120.934496 
L 268.909806 120.510399 
L 270.307802 122.584475 
L 271.705798 120.688358 
L 273.103793 120.414176 
L 274.501789 121.269341 
L 275.899785 131.674546 
L 277.297781 131.557233 
L 278.695776 149.454896 
L 280.093772 150.827216 
L 281.491768 149.752267 
L 282.889763 149.396723 
L 284.287759 150.40801 
L 285.685755 150.588462 
L 287.08375 151.256209 
L 288.481746 158.199566 
L 289.879742 160.652022 
L 291.277738 160.791306 
L 294.073729 158.209142 
L 295.471725 152.32081 
L 296.86972 152.356591 
L 298.267716 152.686062 
L 299.665712 151.349992 
L 301.063707 151.635676 
L 302.461703 149.867928 
L 303.859699 150.006816 
L 305.257695 149.726417 
L 306.65569 149.648973 
L 308.053686 139.416572 
L 309.451682 135.760951 
L 310.849677 134.630295 
L 312.247673 123.804517 
L 313.645669 123.252346 
L 315.043665 122.969697 
L 316.44166 121.915427 
L 317.839656 122.638936 
L 319.237652 120.407017 
L 320.635647 122.026548 
L 322.033643 124.251132 
L 323.431639 124.320109 
L 324.829634 122.877299 
L 326.22763 121.96656 
L 327.625626 123.202968 
L 329.023622 123.351642 
L 330.421617 123.385975 
L 331.819613 137.746989 
L 333.217609 136.795949 
L 334.615604 137.562958 
L 336.0136 137.71 
L 337.411596 158.565766 
L 338.809592 149.660004 
L 340.207587 151.411253 
L 341.605583 151.715295 
L 343.003579 151.30236 
L 344.401574 151.154539 
L 345.79957 158.102786 
L 347.197566 151.03373 
L 348.595561 148.232383 
L 349.993557 147.078106 
L 351.391553 146.865119 
L 352.789549 146.903908 
L 354.187544 115.873811 
L 355.58554 132.380029 
L 356.983536 114.799003 
L 358.381531 53.683587 
L 359.779527 48.226201 
L 361.177523 45.495756 
L 362.575519 43.084178 
L 363.973514 45.033377 
L 365.37151 39.220122 
L 366.769506 39.463307 
L 368.167501 37.447835 
L 369.565497 39.827602 
L 370.963493 37.868076 
L 372.361488 39.656692 
L 373.759484 38.718973 
L 375.15748 31.570421 
L 376.555476 30.62196 
L 377.953471 41.001115 
L 379.351467 40.368677 
L 380.749463 42.003972 
L 382.147458 43.410818 
L 383.545454 72.876519 
L 384.94345 71.764922 
L 386.341446 69.839154 
L 387.739441 73.100538 
L 389.137437 68.908125 
L 390.535433 79.63777 
L 391.933428 78.759722 
L 393.331424 114.041669 
L 394.72942 112.864269 
L 396.127415 112.790365 
L 397.525411 117.403471 
L 398.923407 132.213598 
L 400.321403 131.202747 
L 401.719398 131.384328 
L 403.117394 137.77775 
L 404.51539 139.838344 
L 405.913385 141.198528 
L 407.311381 144.597173 
L 408.709377 142.957468 
L 410.107372 142.937326 
L 411.505368 142.777619 
L 412.903364 144.56961 
L 414.30136 154.71842 
L 415.699355 144.710852 
L 417.097351 155.535417 
L 419.893342 155.82646 
L 421.291338 155.766864 
L 422.689334 154.517413 
L 424.08733 154.690555 
L 424.08733 154.690555 
" clip-path="url(#p6a6741c6b7)" style="fill: none; stroke: #134a8e; stroke-width: 3; stroke-linecap: square"/>
    <defs>
     <path id="m3d6c7151be" d="M 0 1.5 
C 0.397805 1.5 0.77937 1.341951 1.06066 1.06066 
C 1.341951 0.77937 1.5 0.397805 1.5 0 
C 1.5 -0.397805 1.341951 -0.77937 1.06066 -1.06066 
C 0.77937 -1.341951 0.397805 -1.5 0 -1.5 
C -0.397805 -1.5 -0.77937 -1.341951 -1.06066 -1.06066 
C -1.341951 -0.77937 -1.5 -0.397805 -1.5 0 
C -1.5 0.397805 -1.341951 0.77937 -1.06066 1.06066 
C -0.77937 1.341951 -0.397805 1.5 0 1.5 
z
" style="stroke: #134a8e"/>
    </defs>
    <g clip-path="url(#p6a6741c6b7)">
     <use xlink:href="#m3d6c7151be" x="68.99642" y="133.811338" style="fill: #134a8e; stroke: #134a8e"/>
     <use xlink:href="#m3d6c7151be" x="70.394416" y="135.723497" style="fill: #134a8e; stroke: #134a8e"/>
     <use xlink:href="#m3d6c7151be" x="71.792412" y="138.11035" style="fill: #134a8e; stroke: #134a8e"/>
     <use xlink:href="#m3d6c7151be" x="73.190408" y="133.467773" style="fill: #134a8e; stroke: #134a8e"/>
     <use xlink:href="#m3d6c7151be" x="74.588403" y="133.411164" style="fill: #134a8e; stroke: #134a8e"/>
     <use xlink:href="#m3d6c7151be" x="75.986399" y="134.859304" style="fill: #134a8e; stroke: #134a8e"/>
     <use xlink:href="#m3d6c7151be" x="77.384395" y="135.384108" style="fill: #134a8e; stroke: #134a8e"/>
     <use xlink:href="#m3d6c7151be" x="78.78239" y="134.108214" style="fill: #134a8e; stroke: #134a8e"/>
     <use xlink:href="#m3d6c7151be" x="80.180386" y="127.601045" style="fill: #134a8e; stroke: #134a8e"/>
     <use xlink:href="#m3d6c7151be" x="81.578382" y="130.143788" style="fill: #134a8e; stroke: #134a8e"/>
     <use xlink:href="#m3d6c7151be" x="82.976378" y="124.39719" style="fill: #134a8e; stroke: #134a8e"/>
     <use xlink:href="#m3d6c7151be" x="84.374373" y="125.14861" style="fill: #134a8e; stroke: #134a8e"/>
     <use xlink:href="#m3d6c7151be" x="85.772369" y="130.866812" style="fill: #134a8e; stroke: #134a8e"/>
     <use xlink:href="#m3d6c7151be" x="87.170365" y="130.566889" style="fill: #134a8e; stroke: #134a8e"/>
     <use xlink:href="#m3d6c7151be" x="88.56836" y="134.560352" style="fill: #134a8e; stroke: #134a8e"/>
     <use xlink:href="#m3d6c7151be" x="89.966356" y="135.974367" style="fill: #134a8e; stroke: #134a8e"/>
     <use xlink:href="#m3d6c7151be" x="91.364352" y="135.718376" style="fill: #134a8e; stroke: #134a8e"/>
     <use xlink:href="#m3d6c7151be" x="92.762347" y="137.662797" style="fill: #134a8e; stroke: #134a8e"/>
     <use xlink:href="#m3d6c7151be" x="94.160343" y="137.11652" style="fill: #134a8e; stroke: #134a8e"/>
     <use xlink:href="#m3d6c7151be" x="95.558339" y="137.082231" style="fill: #134a8e; stroke: #134a8e"/>
     <use xlink:href="#m3d6c7151be" x="96.956335" y="155.09719" style="fill: #134a8e; stroke: #134a8e"/>
     <use xlink:href="#m3d6c7151be" x="98.35433" y="153.734347" style="fill: #134a8e; stroke: #134a8e"/>
     <use xlink:href="#m3d6c7151be" x="99.752326" y="154.917453" style="fill: #134a8e; stroke: #134a8e"/>
     <use xlink:href="#m3d6c7151be" x="101.150322" y="153.789385" style="fill: #134a8e; stroke: #134a8e"/>
     <use xlink:href="#m3d6c7151be" x="102.548317" y="158.933881" style="fill: #134a8e; stroke: #134a8e"/>
     <use xlink:href="#m3d6c7151be" x="103.946313" y="158.739664" style="fill: #134a8e; stroke: #134a8e"/>
     <use xlink:href="#m3d6c7151be" x="105.344309" y="159.21921" style="fill: #134a8e; stroke: #134a8e"/>
     <use xlink:href="#m3d6c7151be" x="106.742304" y="158.839879" style="fill: #134a8e; stroke: #134a8e"/>
     <use xlink:href="#m3d6c7151be" x="108.1403" y="156.303361" style="fill: #134a8e; stroke: #134a8e"/>
     <use xlink:href="#m3d6c7151be" x="109.538296" y="156.366425" style="fill: #134a8e; stroke: #134a8e"/>
     <use xlink:href="#m3d6c7151be" x="110.936292" y="156.705535" style="fill: #134a8e; stroke: #134a8e"/>
     <use xlink:href="#m3d6c7151be" x="112.334287" y="156.800593" style="fill: #134a8e; stroke: #134a8e"/>
     <use xlink:href="#m3d6c7151be" x="113.732283" y="142.35384" style="fill: #134a8e; stroke: #134a8e"/>
     <use xlink:href="#m3d6c7151be" x="115.130279" y="143.847058" style="fill: #134a8e; stroke: #134a8e"/>
     <use xlink:href="#m3d6c7151be" x="116.528274" y="143.862719" style="fill: #134a8e; stroke: #134a8e"/>
     <use xlink:href="#m3d6c7151be" x="117.92627" y="146.051313" style="fill: #134a8e; stroke: #134a8e"/>
     <use xlink:href="#m3d6c7151be" x="119.324266" y="145.166545" style="fill: #134a8e; stroke: #134a8e"/>
     <use xlink:href="#m3d6c7151be" x="120.722262" y="146.494181" style="fill: #134a8e; stroke: #134a8e"/>
     <use xlink:href="#m3d6c7151be" x="122.120257" y="148.407643" style="fill: #134a8e; stroke: #134a8e"/>
     <use xlink:href="#m3d6c7151be" x="123.518253" y="146.55391" style="fill: #134a8e; stroke: #134a8e"/>
     <use xlink:href="#m3d6c7151be" x="124.916249" y="146.262158" style="fill: #134a8e; stroke: #134a8e"/>
     <use xlink:href="#m3d6c7151be" x="126.314244" y="146.405009" style="fill: #134a8e; stroke: #134a8e"/>
     <use xlink:href="#m3d6c7151be" x="127.71224" y="146.686978" style="fill: #134a8e; stroke: #134a8e"/>
     <use xlink:href="#m3d6c7151be" x="129.110236" y="146.453112" style="fill: #134a8e; stroke: #134a8e"/>
     <use xlink:href="#m3d6c7151be" x="130.508231" y="146.338353" style="fill: #134a8e; stroke: #134a8e"/>
     <use xlink:href="#m3d6c7151be" x="131.906227" y="135.741575" style="fill: #134a8e; stroke: #134a8e"/>
     <use xlink:href="#m3d6c7151be" x="133.304223" y="144.401238" style="fill: #134a8e; stroke: #134a8e"/>
     <use xlink:href="#m3d6c7151be" x="134.702219" y="140.550805" style="fill: #134a8e; stroke: #134a8e"/>
     <use xlink:href="#m3d6c7151be" x="136.100214" y="141.037656" style="fill: #134a8e; stroke: #134a8e"/>
     <use xlink:href="#m3d6c7151be" x="137.49821" y="136.140762" style="fill: #134a8e; stroke: #134a8e"/>
     <use xlink:href="#m3d6c7151be" x="138.896206" y="137.040379" style="fill: #134a8e; stroke: #134a8e"/>
     <use xlink:href="#m3d6c7151be" x="140.294201" y="136.423858" style="fill: #134a8e; stroke: #134a8e"/>
     <use xlink:href="#m3d6c7151be" x="141.692197" y="135.723771" style="fill: #134a8e; stroke: #134a8e"/>
     <use xlink:href="#m3d6c7151be" x="143.090193" y="134.494217" style="fill: #134a8e; stroke: #134a8e"/>
     <use xlink:href="#m3d6c7151be" x="144.488189" y="138.307055" style="fill: #134a8e; stroke: #134a8e"/>
     <use xlink:href="#m3d6c7151be" x="145.886184" y="135.788732" style="fill: #134a8e; stroke: #134a8e"/>
     <use xlink:href="#m3d6c7151be" x="147.28418" y="108.352733" style="fill: #134a8e; stroke: #134a8e"/>
     <use xlink:href="#m3d6c7151be" x="148.682176" y="107.212151" style="fill: #134a8e; stroke: #134a8e"/>
     <use xlink:href="#m3d6c7151be" x="150.080171" y="106.934284" style="fill: #134a8e; stroke: #134a8e"/>
     <use xlink:href="#m3d6c7151be" x="151.478167" y="132.409468" style="fill: #134a8e; stroke: #134a8e"/>
     <use xlink:href="#m3d6c7151be" x="152.876163" y="131.46303" style="fill: #134a8e; stroke: #134a8e"/>
     <use xlink:href="#m3d6c7151be" x="154.274158" y="131.075588" style="fill: #134a8e; stroke: #134a8e"/>
     <use xlink:href="#m3d6c7151be" x="155.672154" y="130.606082" style="fill: #134a8e; stroke: #134a8e"/>
     <use xlink:href="#m3d6c7151be" x="157.07015" y="132.07767" style="fill: #134a8e; stroke: #134a8e"/>
     <use xlink:href="#m3d6c7151be" x="158.468146" y="132.938084" style="fill: #134a8e; stroke: #134a8e"/>
     <use xlink:href="#m3d6c7151be" x="159.866141" y="133.305771" style="fill: #134a8e; stroke: #134a8e"/>
     <use xlink:href="#m3d6c7151be" x="161.264137" y="134.64599" style="fill: #134a8e; stroke: #134a8e"/>
     <use xlink:href="#m3d6c7151be" x="162.662133" y="134.220627" style="fill: #134a8e; stroke: #134a8e"/>
     <use xlink:href="#m3d6c7151be" x="164.060128" y="132.349997" style="fill: #134a8e; stroke: #134a8e"/>
     <use xlink:href="#m3d6c7151be" x="165.458124" y="103.732784" style="fill: #134a8e; stroke: #134a8e"/>
     <use xlink:href="#m3d6c7151be" x="166.85612" y="102.594097" style="fill: #134a8e; stroke: #134a8e"/>
     <use xlink:href="#m3d6c7151be" x="168.254116" y="130.149167" style="fill: #134a8e; stroke: #134a8e"/>
     <use xlink:href="#m3d6c7151be" x="169.652111" y="130.339048" style="fill: #134a8e; stroke: #134a8e"/>
     <use xlink:href="#m3d6c7151be" x="171.050107" y="119.16168" style="fill: #134a8e; stroke: #134a8e"/>
     <use xlink:href="#m3d6c7151be" x="172.448103" y="104.786308" style="fill: #134a8e; stroke: #134a8e"/>
     <use xlink:href="#m3d6c7151be" x="173.846098" y="105.411258" style="fill: #134a8e; stroke: #134a8e"/>
     <use xlink:href="#m3d6c7151be" x="175.244094" y="122.462238" style="fill: #134a8e; stroke: #134a8e"/>
     <use xlink:href="#m3d6c7151be" x="176.64209" y="102.113332" style="fill: #134a8e; stroke: #134a8e"/>
     <use xlink:href="#m3d6c7151be" x="178.040085" y="103.26331" style="fill: #134a8e; stroke: #134a8e"/>
     <use xlink:href="#m3d6c7151be" x="179.438081" y="103.175625" style="fill: #134a8e; stroke: #134a8e"/>
     <use xlink:href="#m3d6c7151be" x="180.836077" y="104.211731" style="fill: #134a8e; stroke: #134a8e"/>
     <use xlink:href="#m3d6c7151be" x="182.234073" y="103.346314" style="fill: #134a8e; stroke: #134a8e"/>
     <use xlink:href="#m3d6c7151be" x="183.632068" y="104.658417" style="fill: #134a8e; stroke: #134a8e"/>
     <use xlink:href="#m3d6c7151be" x="185.030064" y="106.475775" style="fill: #134a8e; stroke: #134a8e"/>
     <use xlink:href="#m3d6c7151be" x="186.42806" y="105.635718" style="fill: #134a8e; stroke: #134a8e"/>
     <use xlink:href="#m3d6c7151be" x="187.826055" y="104.56373" style="fill: #134a8e; stroke: #134a8e"/>
     <use xlink:href="#m3d6c7151be" x="189.224051" y="103.455618" style="fill: #134a8e; stroke: #134a8e"/>
     <use xlink:href="#m3d6c7151be" x="190.622047" y="120.92863" style="fill: #134a8e; stroke: #134a8e"/>
     <use xlink:href="#m3d6c7151be" x="192.020043" y="122.621809" style="fill: #134a8e; stroke: #134a8e"/>
     <use xlink:href="#m3d6c7151be" x="193.418038" y="121.503381" style="fill: #134a8e; stroke: #134a8e"/>
     <use xlink:href="#m3d6c7151be" x="194.816034" y="120.827667" style="fill: #134a8e; stroke: #134a8e"/>
     <use xlink:href="#m3d6c7151be" x="196.21403" y="121.979772" style="fill: #134a8e; stroke: #134a8e"/>
     <use xlink:href="#m3d6c7151be" x="197.612025" y="130.394353" style="fill: #134a8e; stroke: #134a8e"/>
     <use xlink:href="#m3d6c7151be" x="199.010021" y="129.57586" style="fill: #134a8e; stroke: #134a8e"/>
     <use xlink:href="#m3d6c7151be" x="200.408017" y="118.993934" style="fill: #134a8e; stroke: #134a8e"/>
     <use xlink:href="#m3d6c7151be" x="201.806012" y="128.494084" style="fill: #134a8e; stroke: #134a8e"/>
     <use xlink:href="#m3d6c7151be" x="203.204008" y="117.391197" style="fill: #134a8e; stroke: #134a8e"/>
     <use xlink:href="#m3d6c7151be" x="204.602004" y="97.46665" style="fill: #134a8e; stroke: #134a8e"/>
     <use xlink:href="#m3d6c7151be" x="206" y="98.289752" style="fill: #134a8e; stroke: #134a8e"/>
     <use xlink:href="#m3d6c7151be" x="207.397995" y="93.649815" style="fill: #134a8e; stroke: #134a8e"/>
     <use xlink:href="#m3d6c7151be" x="208.795991" y="114.273873" style="fill: #134a8e; stroke: #134a8e"/>
     <use xlink:href="#m3d6c7151be" x="210.193987" y="92.571331" style="fill: #134a8e; stroke: #134a8e"/>
     <use xlink:href="#m3d6c7151be" x="211.591982" y="92.325042" style="fill: #134a8e; stroke: #134a8e"/>
     <use xlink:href="#m3d6c7151be" x="212.989978" y="92.906828" style="fill: #134a8e; stroke: #134a8e"/>
     <use xlink:href="#m3d6c7151be" x="214.387974" y="90.662258" style="fill: #134a8e; stroke: #134a8e"/>
     <use xlink:href="#m3d6c7151be" x="215.785969" y="87.567422" style="fill: #134a8e; stroke: #134a8e"/>
     <use xlink:href="#m3d6c7151be" x="217.183965" y="89.650746" style="fill: #134a8e; stroke: #134a8e"/>
     <use xlink:href="#m3d6c7151be" x="218.581961" y="90.647778" style="fill: #134a8e; stroke: #134a8e"/>
     <use xlink:href="#m3d6c7151be" x="219.979957" y="89.397748" style="fill: #134a8e; stroke: #134a8e"/>
     <use xlink:href="#m3d6c7151be" x="221.377952" y="79.757459" style="fill: #134a8e; stroke: #134a8e"/>
     <use xlink:href="#m3d6c7151be" x="222.775948" y="88.407259" style="fill: #134a8e; stroke: #134a8e"/>
     <use xlink:href="#m3d6c7151be" x="224.173944" y="93.281359" style="fill: #134a8e; stroke: #134a8e"/>
     <use xlink:href="#m3d6c7151be" x="225.571939" y="91.136002" style="fill: #134a8e; stroke: #134a8e"/>
     <use xlink:href="#m3d6c7151be" x="226.969935" y="92.510869" style="fill: #134a8e; stroke: #134a8e"/>
     <use xlink:href="#m3d6c7151be" x="228.367931" y="87.87028" style="fill: #134a8e; stroke: #134a8e"/>
     <use xlink:href="#m3d6c7151be" x="229.765927" y="90.539194" style="fill: #134a8e; stroke: #134a8e"/>
     <use xlink:href="#m3d6c7151be" x="231.163922" y="93.589156" style="fill: #134a8e; stroke: #134a8e"/>
     <use xlink:href="#m3d6c7151be" x="232.561918" y="92.996213" style="fill: #134a8e; stroke: #134a8e"/>
     <use xlink:href="#m3d6c7151be" x="233.959914" y="94.169803" style="fill: #134a8e; stroke: #134a8e"/>
     <use xlink:href="#m3d6c7151be" x="235.357909" y="93.029722" style="fill: #134a8e; stroke: #134a8e"/>
     <use xlink:href="#m3d6c7151be" x="236.755905" y="93.832689" style="fill: #134a8e; stroke: #134a8e"/>
     <use xlink:href="#m3d6c7151be" x="238.153901" y="95.483006" style="fill: #134a8e; stroke: #134a8e"/>
     <use xlink:href="#m3d6c7151be" x="239.551896" y="94.300495" style="fill: #134a8e; stroke: #134a8e"/>
     <use xlink:href="#m3d6c7151be" x="240.949892" y="124.699755" style="fill: #134a8e; stroke: #134a8e"/>
     <use xlink:href="#m3d6c7151be" x="242.347888" y="102.350826" style="fill: #134a8e; stroke: #134a8e"/>
     <use xlink:href="#m3d6c7151be" x="243.745884" y="103.32042" style="fill: #134a8e; stroke: #134a8e"/>
     <use xlink:href="#m3d6c7151be" x="245.143879" y="103.041575" style="fill: #134a8e; stroke: #134a8e"/>
     <use xlink:href="#m3d6c7151be" x="246.541875" y="98.281387" style="fill: #134a8e; stroke: #134a8e"/>
     <use xlink:href="#m3d6c7151be" x="247.939871" y="98.021508" style="fill: #134a8e; stroke: #134a8e"/>
     <use xlink:href="#m3d6c7151be" x="249.337866" y="103.804164" style="fill: #134a8e; stroke: #134a8e"/>
     <use xlink:href="#m3d6c7151be" x="250.735862" y="105.145441" style="fill: #134a8e; stroke: #134a8e"/>
     <use xlink:href="#m3d6c7151be" x="252.133858" y="117.271619" style="fill: #134a8e; stroke: #134a8e"/>
     <use xlink:href="#m3d6c7151be" x="253.531854" y="116.994168" style="fill: #134a8e; stroke: #134a8e"/>
     <use xlink:href="#m3d6c7151be" x="254.929849" y="116.572018" style="fill: #134a8e; stroke: #134a8e"/>
     <use xlink:href="#m3d6c7151be" x="256.327845" y="118.925446" style="fill: #134a8e; stroke: #134a8e"/>
     <use xlink:href="#m3d6c7151be" x="257.725841" y="118.331035" style="fill: #134a8e; stroke: #134a8e"/>
     <use xlink:href="#m3d6c7151be" x="259.123836" y="118.512238" style="fill: #134a8e; stroke: #134a8e"/>
     <use xlink:href="#m3d6c7151be" x="260.521832" y="119.237839" style="fill: #134a8e; stroke: #134a8e"/>
     <use xlink:href="#m3d6c7151be" x="261.919828" y="119.638802" style="fill: #134a8e; stroke: #134a8e"/>
     <use xlink:href="#m3d6c7151be" x="263.317823" y="120.230995" style="fill: #134a8e; stroke: #134a8e"/>
     <use xlink:href="#m3d6c7151be" x="264.715819" y="119.458519" style="fill: #134a8e; stroke: #134a8e"/>
     <use xlink:href="#m3d6c7151be" x="266.113815" y="120.790024" style="fill: #134a8e; stroke: #134a8e"/>
     <use xlink:href="#m3d6c7151be" x="267.511811" y="120.934496" style="fill: #134a8e; stroke: #134a8e"/>
     <use xlink:href="#m3d6c7151be" x="268.909806" y="120.510399" style="fill: #134a8e; stroke: #134a8e"/>
     <use xlink:href="#m3d6c7151be" x="270.307802" y="122.584475" style="fill: #134a8e; stroke: #134a8e"/>
     <use xlink:href="#m3d6c7151be" x="271.705798" y="120.688358" style="fill: #134a8e; stroke: #134a8e"/>
     <use xlink:href="#m3d6c7151be" x="273.103793" y="120.414176" style="fill: #134a8e; stroke: #134a8e"/>
     <use xlink:href="#m3d6c7151be" x="274.501789" y="121.269341" style="fill: #134a8e; stroke: #134a8e"/>
     <use xlink:href="#m3d6c7151be" x="275.899785" y="131.674546" style="fill: #134a8e; stroke: #134a8e"/>
     <use xlink:href="#m3d6c7151be" x="277.297781" y="131.557233" style="fill: #134a8e; stroke: #134a8e"/>
     <use xlink:href="#m3d6c7151be" x="278.695776" y="149.454896" style="fill: #134a8e; stroke: #134a8e"/>
     <use xlink:href="#m3d6c7151be" x="280.093772" y="150.827216" style="fill: #134a8e; stroke: #134a8e"/>
     <use xlink:href="#m3d6c7151be" x="281.491768" y="149.752267" style="fill: #134a8e; stroke: #134a8e"/>
     <use xlink:href="#m3d6c7151be" x="282.889763" y="149.396723" style="fill: #134a8e; stroke: #134a8e"/>
     <use xlink:href="#m3d6c7151be" x="284.287759" y="150.40801" style="fill: #134a8e; stroke: #134a8e"/>
     <use xlink:href="#m3d6c7151be" x="285.685755" y="150.588462" style="fill: #134a8e; stroke: #134a8e"/>
     <use xlink:href="#m3d6c7151be" x="287.08375" y="151.256209" style="fill: #134a8e; stroke: #134a8e"/>
     <use xlink:href="#m3d6c7151be" x="288.481746" y="158.199566" style="fill: #134a8e; stroke: #134a8e"/>
     <use xlink:href="#m3d6c7151be" x="289.879742" y="160.652022" style="fill: #134a8e; stroke: #134a8e"/>
     <use xlink:href="#m3d6c7151be" x="291.277738" y="160.791306" style="fill: #134a8e; stroke: #134a8e"/>
     <use xlink:href="#m3d6c7151be" x="292.675733" y="159.563255" style="fill: #134a8e; stroke: #134a8e"/>
     <use xlink:href="#m3d6c7151be" x="294.073729" y="158.209142" style="fill: #134a8e; stroke: #134a8e"/>
     <use xlink:href="#m3d6c7151be" x="295.471725" y="152.32081" style="fill: #134a8e; stroke: #134a8e"/>
     <use xlink:href="#m3d6c7151be" x="296.86972" y="152.356591" style="fill: #134a8e; stroke: #134a8e"/>
     <use xlink:href="#m3d6c7151be" x="298.267716" y="152.686062" style="fill: #134a8e; stroke: #134a8e"/>
     <use xlink:href="#m3d6c7151be" x="299.665712" y="151.349992" style="fill: #134a8e; stroke: #134a8e"/>
     <use xlink:href="#m3d6c7151be" x="301.063707" y="151.635676" style="fill: #134a8e; stroke: #134a8e"/>
     <use xlink:href="#m3d6c7151be" x="302.461703" y="149.867928" style="fill: #134a8e; stroke: #134a8e"/>
     <use xlink:href="#m3d6c7151be" x="303.859699" y="150.006816" style="fill: #134a8e; stroke: #134a8e"/>
     <use xlink:href="#m3d6c7151be" x="305.257695" y="149.726417" style="fill: #134a8e; stroke: #134a8e"/>
     <use xlink:href="#m3d6c7151be" x="306.65569" y="149.648973" style="fill: #134a8e; stroke: #134a8e"/>
     <use xlink:href="#m3d6c7151be" x="308.053686" y="139.416572" style="fill: #134a8e; stroke: #134a8e"/>
     <use xlink:href="#m3d6c7151be" x="309.451682" y="135.760951" style="fill: #134a8e; stroke: #134a8e"/>
     <use xlink:href="#m3d6c7151be" x="310.849677" y="134.630295" style="fill: #134a8e; stroke: #134a8e"/>
     <use xlink:href="#m3d6c7151be" x="312.247673" y="123.804517" style="fill: #134a8e; stroke: #134a8e"/>
     <use xlink:href="#m3d6c7151be" x="313.645669" y="123.252346" style="fill: #134a8e; stroke: #134a8e"/>
     <use xlink:href="#m3d6c7151be" x="315.043665" y="122.969697" style="fill: #134a8e; stroke: #134a8e"/>
     <use xlink:href="#m3d6c7151be" x="316.44166" y="121.915427" style="fill: #134a8e; stroke: #134a8e"/>
     <use xlink:href="#m3d6c7151be" x="317.839656" y="122.638936" style="fill: #134a8e; stroke: #134a8e"/>
     <use xlink:href="#m3d6c7151be" x="319.237652" y="120.407017" style="fill: #134a8e; stroke: #134a8e"/>
     <use xlink:href="#m3d6c7151be" x="320.635647" y="122.026548" style="fill: #134a8e; stroke: #134a8e"/>
     <use xlink:href="#m3d6c7151be" x="322.033643" y="124.251132" style="fill: #134a8e; stroke: #134a8e"/>
     <use xlink:href="#m3d6c7151be" x="323.431639" y="124.320109" style="fill: #134a8e; stroke: #134a8e"/>
     <use xlink:href="#m3d6c7151be" x="324.829634" y="122.877299" style="fill: #134a8e; stroke: #134a8e"/>
     <use xlink:href="#m3d6c7151be" x="326.22763" y="121.96656" style="fill: #134a8e; stroke: #134a8e"/>
     <use xlink:href="#m3d6c7151be" x="327.625626" y="123.202968" style="fill: #134a8e; stroke: #134a8e"/>
     <use xlink:href="#m3d6c7151be" x="329.023622" y="123.351642" style="fill: #134a8e; stroke: #134a8e"/>
     <use xlink:href="#m3d6c7151be" x="330.421617" y="123.385975" style="fill: #134a8e; stroke: #134a8e"/>
     <use xlink:href="#m3d6c7151be" x="331.819613" y="137.746989" style="fill: #134a8e; stroke: #134a8e"/>
     <use xlink:href="#m3d6c7151be" x="333.217609" y="136.795949" style="fill: #134a8e; stroke: #134a8e"/>
     <use xlink:href="#m3d6c7151be" x="334.615604" y="137.562958" style="fill: #134a8e; stroke: #134a8e"/>
     <use xlink:href="#m3d6c7151be" x="336.0136" y="137.71" style="fill: #134a8e; stroke: #134a8e"/>
     <use xlink:href="#m3d6c7151be" x="337.411596" y="158.565766" style="fill: #134a8e; stroke: #134a8e"/>
     <use xlink:href="#m3d6c7151be" x="338.809592" y="149.660004" style="fill: #134a8e; stroke: #134a8e"/>
     <use xlink:href="#m3d6c7151be" x="340.207587" y="151.411253" style="fill: #134a8e; stroke: #134a8e"/>
     <use xlink:href="#m3d6c7151be" x="341.605583" y="151.715295" style="fill: #134a8e; stroke: #134a8e"/>
     <use xlink:href="#m3d6c7151be" x="343.003579" y="151.30236" style="fill: #134a8e; stroke: #134a8e"/>
     <use xlink:href="#m3d6c7151be" x="344.401574" y="151.154539" style="fill: #134a8e; stroke: #134a8e"/>
     <use xlink:href="#m3d6c7151be" x="345.79957" y="158.102786" style="fill: #134a8e; stroke: #134a8e"/>
     <use xlink:href="#m3d6c7151be" x="347.197566" y="151.03373" style="fill: #134a8e; stroke: #134a8e"/>
     <use xlink:href="#m3d6c7151be" x="348.595561" y="148.232383" style="fill: #134a8e; stroke: #134a8e"/>
     <use xlink:href="#m3d6c7151be" x="349.993557" y="147.078106" style="fill: #134a8e; stroke: #134a8e"/>
     <use xlink:href="#m3d6c7151be" x="351.391553" y="146.865119" style="fill: #134a8e; stroke: #134a8e"/>
     <use xlink:href="#m3d6c7151be" x="352.789549" y="146.903908" style="fill: #134a8e; stroke: #134a8e"/>
     <use xlink:href="#m3d6c7151be" x="354.187544" y="115.873811" style="fill: #134a8e; stroke: #134a8e"/>
     <use xlink:href="#m3d6c7151be" x="355.58554" y="132.380029" style="fill: #134a8e; stroke: #134a8e"/>
     <use xlink:href="#m3d6c7151be" x="356.983536" y="114.799003" style="fill: #134a8e; stroke: #134a8e"/>
     <use xlink:href="#m3d6c7151be" x="358.381531" y="53.683587" style="fill: #134a8e; stroke: #134a8e"/>
     <use xlink:href="#m3d6c7151be" x="359.779527" y="48.226201" style="fill: #134a8e; stroke: #134a8e"/>
     <use xlink:href="#m3d6c7151be" x="361.177523" y="45.495756" style="fill: #134a8e; stroke: #134a8e"/>
     <use xlink:href="#m3d6c7151be" x="362.575519" y="43.084178" style="fill: #134a8e; stroke: #134a8e"/>
     <use xlink:href="#m3d6c7151be" x="363.973514" y="45.033377" style="fill: #134a8e; stroke: #134a8e"/>
     <use xlink:href="#m3d6c7151be" x="365.37151" y="39.220122" style="fill: #134a8e; stroke: #134a8e"/>
     <use xlink:href="#m3d6c7151be" x="366.769506" y="39.463307" style="fill: #134a8e; stroke: #134a8e"/>
     <use xlink:href="#m3d6c7151be" x="368.167501" y="37.447835" style="fill: #134a8e; stroke: #134a8e"/>
     <use xlink:href="#m3d6c7151be" x="369.565497" y="39.827602" style="fill: #134a8e; stroke: #134a8e"/>
     <use xlink:href="#m3d6c7151be" x="370.963493" y="37.868076" style="fill: #134a8e; stroke: #134a8e"/>
     <use xlink:href="#m3d6c7151be" x="372.361488" y="39.656692" style="fill: #134a8e; stroke: #134a8e"/>
     <use xlink:href="#m3d6c7151be" x="373.759484" y="38.718973" style="fill: #134a8e; stroke: #134a8e"/>
     <use xlink:href="#m3d6c7151be" x="375.15748" y="31.570421" style="fill: #134a8e; stroke: #134a8e"/>
     <use xlink:href="#m3d6c7151be" x="376.555476" y="30.62196" style="fill: #134a8e; stroke: #134a8e"/>
     <use xlink:href="#m3d6c7151be" x="377.953471" y="41.001115" style="fill: #134a8e; stroke: #134a8e"/>
     <use xlink:href="#m3d6c7151be" x="379.351467" y="40.368677" style="fill: #134a8e; stroke: #134a8e"/>
     <use xlink:href="#m3d6c7151be" x="380.749463" y="42.003972" style="fill: #134a8e; stroke: #134a8e"/>
     <use xlink:href="#m3d6c7151be" x="382.147458" y="43.410818" style="fill: #134a8e; stroke: #134a8e"/>
     <use xlink:href="#m3d6c7151be" x="383.545454" y="72.876519" style="fill: #134a8e; stroke: #134a8e"/>
     <use xlink:href="#m3d6c7151be" x="384.94345" y="71.764922" style="fill: #134a8e; stroke: #134a8e"/>
     <use xlink:href="#m3d6c7151be" x="386.341446" y="69.839154" style="fill: #134a8e; stroke: #134a8e"/>
     <use xlink:href="#m3d6c7151be" x="387.739441" y="73.100538" style="fill: #134a8e; stroke: #134a8e"/>
     <use xlink:href="#m3d6c7151be" x="389.137437" y="68.908125" style="fill: #134a8e; stroke: #134a8e"/>
     <use xlink:href="#m3d6c7151be" x="390.535433" y="79.63777" style="fill: #134a8e; stroke: #134a8e"/>
     <use xlink:href="#m3d6c7151be" x="391.933428" y="78.759722" style="fill: #134a8e; stroke: #134a8e"/>
     <use xlink:href="#m3d6c7151be" x="393.331424" y="114.041669" style="fill: #134a8e; stroke: #134a8e"/>
     <use xlink:href="#m3d6c7151be" x="394.72942" y="112.864269" style="fill: #134a8e; stroke: #134a8e"/>
     <use xlink:href="#m3d6c7151be" x="396.127415" y="112.790365" style="fill: #134a8e; stroke: #134a8e"/>
     <use xlink:href="#m3d6c7151be" x="397.525411" y="117.403471" style="fill: #134a8e; stroke: #134a8e"/>
     <use xlink:href="#m3d6c7151be" x="398.923407" y="132.213598" style="fill: #134a8e; stroke: #134a8e"/>
     <use xlink:href="#m3d6c7151be" x="400.321403" y="131.202747" style="fill: #134a8e; stroke: #134a8e"/>
     <use xlink:href="#m3d6c7151be" x="401.719398" y="131.384328" style="fill: #134a8e; stroke: #134a8e"/>
     <use xlink:href="#m3d6c7151be" x="403.117394" y="137.77775" style="fill: #134a8e; stroke: #134a8e"/>
     <use xlink:href="#m3d6c7151be" x="404.51539" y="139.838344" style="fill: #134a8e; stroke: #134a8e"/>
     <use xlink:href="#m3d6c7151be" x="405.913385" y="141.198528" style="fill: #134a8e; stroke: #134a8e"/>
     <use xlink:href="#m3d6c7151be" x="407.311381" y="144.597173" style="fill: #134a8e; stroke: #134a8e"/>
     <use xlink:href="#m3d6c7151be" x="408.709377" y="142.957468" style="fill: #134a8e; stroke: #134a8e"/>
     <use xlink:href="#m3d6c7151be" x="410.107372" y="142.937326" style="fill: #134a8e; stroke: #134a8e"/>
     <use xlink:href="#m3d6c7151be" x="411.505368" y="142.777619" style="fill: #134a8e; stroke: #134a8e"/>
     <use xlink:href="#m3d6c7151be" x="412.903364" y="144.56961" style="fill: #134a8e; stroke: #134a8e"/>
     <use xlink:href="#m3d6c7151be" x="414.30136" y="154.71842" style="fill: #134a8e; stroke: #134a8e"/>
     <use xlink:href="#m3d6c7151be" x="415.699355" y="144.710852" style="fill: #134a8e; stroke: #134a8e"/>
     <use xlink:href="#m3d6c7151be" x="417.097351" y="155.535417" style="fill: #134a8e; stroke: #134a8e"/>
     <use xlink:href="#m3d6c7151be" x="418.495347" y="155.705418" style="fill: #134a8e; stroke: #134a8e"/>
     <use xlink:href="#m3d6c7151be" x="419.893342" y="155.82646" style="fill: #134a8e; stroke: #134a8e"/>
     <use xlink:href="#m3d6c7151be" x="421.291338" y="155.766864" style="fill: #134a8e; stroke: #134a8e"/>
     <use xlink:href="#m3d6c7151be" x="422.689334" y="154.517413" style="fill: #134a8e; stroke: #134a8e"/>
     <use xlink:href="#m3d6c7151be" x="424.08733" y="154.690555" style="fill: #134a8e; stroke: #134a8e"/>
    </g>
   </g>
   <g id="line2d_26">
    <path d="M 68.99642 146.226323 
L 70.394416 146.296527 
L 71.792412 150.660643 
L 73.190408 149.794981 
L 74.588403 150.001675 
L 75.986399 149.957492 
L 77.384395 145.177068 
L 78.78239 145.216715 
L 81.578382 144.629674 
L 82.976378 139.700283 
L 84.374373 139.323836 
L 85.772369 142.908676 
L 87.170365 144.445436 
L 88.56836 149.693183 
L 89.966356 150.065022 
L 91.364352 150.140669 
L 92.762347 150.785916 
L 95.558339 150.269617 
L 96.956335 154.333252 
L 98.35433 155.043984 
L 99.752326 155.013137 
L 101.150322 155.12116 
L 102.548317 159.861034 
L 103.946313 159.940693 
L 105.344309 160.283449 
L 108.1403 159.738154 
L 109.538296 159.847234 
L 112.334287 159.668839 
L 113.732283 154.731954 
L 115.130279 150.382968 
L 116.528274 151.220685 
L 117.92627 149.695153 
L 119.324266 150.755168 
L 120.722262 150.585695 
L 122.120257 155.352846 
L 123.518253 150.929424 
L 124.916249 146.101997 
L 126.314244 145.76592 
L 127.71224 145.678237 
L 130.508231 146.15651 
L 131.906227 136.382817 
L 133.304223 141.083042 
L 134.702219 140.666519 
L 136.100214 140.944888 
L 137.49821 136.613359 
L 138.896206 136.51407 
L 140.294201 137.954206 
L 141.692197 134.131862 
L 144.488189 143.302798 
L 145.886184 140.22659 
L 147.28418 124.196195 
L 148.682176 120.249282 
L 150.080171 121.723132 
L 151.478167 130.577687 
L 152.876163 131.442883 
L 154.274158 135.631932 
L 155.672154 136.843562 
L 157.07015 140.150307 
L 158.468146 140.891612 
L 159.866141 141.050753 
L 161.264137 145.096995 
L 162.662133 140.554379 
L 164.060128 138.986214 
L 165.458124 123.320928 
L 166.85612 123.426528 
L 168.254116 128.492333 
L 169.652111 129.645396 
L 171.050107 126.384966 
L 172.448103 125.426641 
L 173.846098 126.496896 
L 175.244094 129.317408 
L 176.64209 119.134127 
L 178.040085 116.686423 
L 179.438081 117.13302 
L 180.836077 112.922265 
L 182.234073 110.705237 
L 183.632068 110.911577 
L 185.030064 121.08911 
L 186.42806 122.831643 
L 187.826055 127.028355 
L 189.224051 126.237033 
L 190.622047 127.989348 
L 192.020043 130.748147 
L 193.418038 130.315105 
L 194.816034 128.138164 
L 196.21403 129.453828 
L 197.612025 131.398781 
L 199.010021 131.816146 
L 200.408017 126.197528 
L 201.806012 130.205782 
L 203.204008 124.003555 
L 204.602004 120.358623 
L 206 119.349441 
L 207.397995 117.421259 
L 208.795991 121.374735 
L 210.193987 118.194328 
L 211.591982 108.716141 
L 212.989978 105.278643 
L 214.387974 100.261686 
L 215.785969 94.288505 
L 217.183965 99.100218 
L 218.581961 97.97426 
L 219.979957 97.593072 
L 221.377952 85.971588 
L 222.775948 96.932707 
L 224.173944 101.296008 
L 225.571939 101.623339 
L 226.969935 104.675743 
L 228.367931 102.305373 
L 229.765927 103.112078 
L 231.163922 109.469503 
L 232.561918 111.246088 
L 233.959914 112.72428 
L 235.357909 119.696611 
L 236.755905 116.021038 
L 238.153901 117.351563 
L 239.551896 120.383574 
L 240.949892 127.402071 
L 242.347888 124.110046 
L 243.745884 124.944389 
L 245.143879 126.56611 
L 246.541875 120.649607 
L 247.939871 120.858255 
L 249.337866 123.402828 
L 250.735862 126.869998 
L 253.531854 131.803884 
L 254.929849 132.436392 
L 257.725841 133.93566 
L 259.123836 129.136304 
L 260.521832 127.960669 
L 261.919828 128.891633 
L 263.317823 129.650838 
L 264.715819 128.71731 
L 266.113815 134.215579 
L 267.511811 133.937406 
L 268.909806 134.540402 
L 270.307802 128.596351 
L 271.705798 127.598611 
L 273.103793 138.350705 
L 274.501789 138.28154 
L 275.899785 140.359424 
L 277.297781 140.279272 
L 278.695776 151.571811 
L 280.093772 154.519356 
L 281.491768 152.688347 
L 282.889763 151.613913 
L 284.287759 153.498907 
L 285.685755 154.02031 
L 287.08375 156.583613 
L 288.481746 160.075246 
L 289.879742 162.041434 
L 291.277738 162.204755 
L 292.675733 160.990291 
L 294.073729 160.068942 
L 295.471725 158.011151 
L 296.86972 158.716002 
L 298.267716 157.526786 
L 299.665712 156.132913 
L 301.063707 155.900234 
L 302.461703 154.487516 
L 303.859699 154.448666 
L 305.257695 153.75565 
L 306.65569 152.226675 
L 308.053686 145.573766 
L 309.451682 142.486524 
L 310.849677 141.778516 
L 312.247673 134.543543 
L 313.645669 133.030017 
L 315.043665 133.390803 
L 316.44166 133.106973 
L 317.839656 124.997685 
L 319.237652 125.210185 
L 322.033643 129.542032 
L 323.431639 129.281933 
L 324.829634 127.767713 
L 326.22763 124.510938 
L 327.625626 128.255365 
L 329.023622 130.516185 
L 330.421617 129.480969 
L 331.819613 138.889205 
L 333.217609 143.090141 
L 334.615604 143.917557 
L 336.0136 143.68715 
L 337.411596 159.865077 
L 338.809592 154.615864 
L 340.207587 157.033267 
L 341.605583 156.884442 
L 344.401574 156.748626 
L 345.79957 159.424708 
L 347.197566 157.086018 
L 349.993557 147.041041 
L 351.391553 147.517482 
L 352.789549 147.514653 
L 354.187544 126.659768 
L 355.58554 135.041994 
L 356.983536 129.402012 
L 358.381531 74.690826 
L 359.779527 67.31507 
L 361.177523 71.774837 
L 362.575519 71.506907 
L 363.973514 64.012059 
L 365.37151 62.260153 
L 366.769506 56.08614 
L 368.167501 60.024768 
L 369.565497 58.464385 
L 370.963493 61.44834 
L 372.361488 61.278848 
L 373.759484 47.418668 
L 375.15748 44.055516 
L 376.555476 44.432225 
L 377.953471 74.494694 
L 379.351467 69.581632 
L 380.749463 73.403802 
L 382.147458 73.499117 
L 383.545454 76.642316 
L 384.94345 80.384638 
L 386.341446 88.321004 
L 387.739441 90.234724 
L 389.137437 95.435189 
L 390.535433 99.30679 
L 391.933428 99.449382 
L 393.331424 121.220259 
L 394.72942 118.848386 
L 396.127415 126.598597 
L 397.525411 129.145185 
L 398.923407 136.240631 
L 400.321403 138.27473 
L 401.719398 138.280988 
L 403.117394 143.278992 
L 404.51539 145.629092 
L 405.913385 147.0299 
L 407.311381 149.767673 
L 408.709377 151.951323 
L 410.107372 152.214203 
L 411.505368 152.240064 
L 412.903364 152.00464 
L 414.30136 156.055111 
L 415.699355 154.944589 
L 417.097351 157.799031 
L 418.495347 158.005819 
L 419.893342 157.792492 
L 421.291338 158.782004 
L 422.689334 156.399191 
L 424.08733 156.385738 
L 424.08733 156.385738 
" clip-path="url(#p6a6741c6b7)" style="fill: none; stroke-dasharray: 5.55,2.4; stroke-dashoffset: 0; stroke: #000000; stroke-width: 1.5"/>
   </g>
   <g id="patch_3">
    <path d="M 51.241875 169.764755 
L 51.241875 3.444755 
" style="fill: none; stroke: #ffffff; stroke-linejoin: miter; stroke-linecap: square"/>
   </g>
   <g id="patch_4">
    <path d="M 441.841875 169.764755 
L 441.841875 3.444755 
" style="fill: none; stroke: #ffffff; stroke-linejoin: miter; stroke-linecap: square"/>
   </g>
   <g id="patch_5">
    <path d="M 51.241875 169.764755 
L 441.841875 169.764755 
" style="fill: none; stroke: #ffffff; stroke-linejoin: miter; stroke-linecap: square"/>
   </g>
   <g id="patch_6">
    <path d="M 51.241875 3.444755 
L 441.841875 3.444755 
" style="fill: none; stroke: #ffffff; stroke-linejoin: miter; stroke-linecap: square"/>
   </g>
   <g id="legend_1">
    <g id="patch_7">
     <path d="M 58.241875 63.82288 
L 210.28875 63.82288 
Q 212.28875 63.82288 212.28875 61.82288 
L 212.28875 10.444755 
Q 212.28875 8.444755 210.28875 8.444755 
L 58.241875 8.444755 
Q 56.241875 8.444755 56.241875 10.444755 
L 56.241875 61.82288 
Q 56.241875 63.82288 58.241875 63.82288 
z
" style="fill: #e5e5e5; opacity: 0.8; stroke: #cccccc; stroke-width: 0.5; stroke-linejoin: miter"/>
    </g>
    <g id="line2d_27">
     <path d="M 60.241875 18.944755 
L 70.241875 18.944755 
L 80.241875 18.944755 
" style="fill: none; stroke: #134a8e; stroke-width: 3; stroke-linecap: square"/>
     <g>
      <use xlink:href="#m3d6c7151be" x="70.241875" y="18.944755" style="fill: #134a8e; stroke: #134a8e"/>
     </g>
    </g>
    <g id="text_15">
     <!-- Private Value $\tilde{R}_{\chi_1,\chi_3}^t$ -->
     <g transform="translate(88.241875 22.444755) scale(0.1 -0.1)">
      <defs>
       <path id="DejaVuSans-50" d="M 1259 4147 
L 1259 2394 
L 2053 2394 
Q 2494 2394 2734 2622 
Q 2975 2850 2975 3272 
Q 2975 3691 2734 3919 
Q 2494 4147 2053 4147 
L 1259 4147 
z
M 628 4666 
L 2053 4666 
Q 2838 4666 3239 4311 
Q 3641 3956 3641 3272 
Q 3641 2581 3239 2228 
Q 2838 1875 2053 1875 
L 1259 1875 
L 1259 0 
L 628 0 
L 628 4666 
z
" transform="scale(0.015625)"/>
       <path id="DejaVuSans-72" d="M 2631 2963 
Q 2534 3019 2420 3045 
Q 2306 3072 2169 3072 
Q 1681 3072 1420 2755 
Q 1159 2438 1159 1844 
L 1159 0 
L 581 0 
L 581 3500 
L 1159 3500 
L 1159 2956 
Q 1341 3275 1631 3429 
Q 1922 3584 2338 3584 
Q 2397 3584 2469 3576 
Q 2541 3569 2628 3553 
L 2631 2963 
z
" transform="scale(0.015625)"/>
       <path id="DejaVuSans-69" d="M 603 3500 
L 1178 3500 
L 1178 0 
L 603 0 
L 603 3500 
z
M 603 4863 
L 1178 4863 
L 1178 4134 
L 603 4134 
L 603 4863 
z
" transform="scale(0.015625)"/>
       <path id="DejaVuSans-76" d="M 191 3500 
L 800 3500 
L 1894 563 
L 2988 3500 
L 3597 3500 
L 2284 0 
L 1503 0 
L 191 3500 
z
" transform="scale(0.015625)"/>
       <path id="DejaVuSans-20" transform="scale(0.015625)"/>
       <path id="DejaVuSans-303" d="M -1621 4281 
L -1799 4453 
Q -1867 4516 -1919 4545 
Q -1971 4575 -2011 4575 
Q -2130 4575 -2186 4461 
Q -2242 4347 -2249 4091 
L -2639 4091 
Q -2633 4513 -2473 4742 
Q -2314 4972 -2030 4972 
Q -1911 4972 -1811 4928 
Q -1711 4884 -1596 4781 
L -1417 4609 
Q -1349 4547 -1297 4517 
Q -1246 4488 -1205 4488 
Q -1086 4488 -1030 4602 
Q -974 4716 -967 4972 
L -577 4972 
Q -583 4550 -742 4320 
Q -902 4091 -1186 4091 
Q -1305 4091 -1405 4134 
Q -1505 4178 -1621 4281 
z
" transform="scale(0.015625)"/>
       <path id="DejaVuSans-Oblique-52" d="M 1613 4147 
L 1294 2491 
L 2106 2491 
Q 2584 2491 2879 2755 
Q 3175 3019 3175 3444 
Q 3175 3784 2976 3965 
Q 2778 4147 2406 4147 
L 1613 4147 
z
M 2772 2241 
Q 2972 2194 3105 2009 
Q 3238 1825 3413 1275 
L 3809 0 
L 3144 0 
L 2778 1197 
Q 2638 1659 2453 1815 
Q 2269 1972 1888 1972 
L 1191 1972 
L 806 0 
L 172 0 
L 1081 4666 
L 2503 4666 
Q 3150 4666 3495 4373 
Q 3841 4081 3841 3531 
Q 3841 3044 3547 2687 
Q 3253 2331 2772 2241 
z
" transform="scale(0.015625)"/>
       <path id="DejaVuSans-Oblique-74" d="M 2706 3500 
L 2619 3053 
L 1472 3053 
L 1100 1153 
Q 1081 1047 1072 975 
Q 1063 903 1063 863 
Q 1063 663 1183 572 
Q 1303 481 1569 481 
L 2150 481 
L 2053 0 
L 1503 0 
Q 991 0 739 200 
Q 488 400 488 806 
Q 488 878 497 964 
Q 506 1050 525 1153 
L 897 3053 
L 409 3053 
L 500 3500 
L 978 3500 
L 1172 4494 
L 1747 4494 
L 1556 3500 
L 2706 3500 
z
" transform="scale(0.015625)"/>
       <path id="DejaVuSans-Oblique-3c7" d="M 1922 -781 
L 1691 416 
L 394 -1334 
L -284 -1334 
L 1553 1141 
L 1269 2613 
Q 1194 3006 713 3006 
L 559 3006 
L 653 3500 
L 872 3494 
Q 1675 3472 1775 2950 
L 2006 1753 
L 3303 3503 
L 3981 3503 
L 2144 1028 
L 2428 -444 
Q 2503 -838 2984 -838 
L 3138 -838 
L 3044 -1331 
L 2825 -1325 
Q 2022 -1303 1922 -781 
z
" transform="scale(0.015625)"/>
       <path id="DejaVuSans-2c" d="M 750 794 
L 1409 794 
L 1409 256 
L 897 -744 
L 494 -744 
L 750 256 
L 750 794 
z
" transform="scale(0.015625)"/>
      </defs>
      <use xlink:href="#DejaVuSans-50" transform="translate(0 0.828125)"/>
      <use xlink:href="#DejaVuSans-72" transform="translate(60.302734 0.828125)"/>
      <use xlink:href="#DejaVuSans-69" transform="translate(101.416016 0.828125)"/>
      <use xlink:href="#DejaVuSans-76" transform="translate(129.199219 0.828125)"/>
      <use xlink:href="#DejaVuSans-61" transform="translate(188.378906 0.828125)"/>
      <use xlink:href="#DejaVuSans-74" transform="translate(249.658203 0.828125)"/>
      <use xlink:href="#DejaVuSans-65" transform="translate(288.867188 0.828125)"/>
      <use xlink:href="#DejaVuSans-20" transform="translate(350.390625 0.828125)"/>
      <use xlink:href="#DejaVuSans-56" transform="translate(382.177734 0.828125)"/>
      <use xlink:href="#DejaVuSans-61" transform="translate(450.585938 0.828125)"/>
      <use xlink:href="#DejaVuSans-6c" transform="translate(511.865234 0.828125)"/>
      <use xlink:href="#DejaVuSans-75" transform="translate(539.648438 0.828125)"/>
      <use xlink:href="#DejaVuSans-65" transform="translate(603.027344 0.828125)"/>
      <use xlink:href="#DejaVuSans-20" transform="translate(664.550781 0.828125)"/>
      <use xlink:href="#DejaVuSans-303" transform="translate(764.942871 22.3125)"/>
      <use xlink:href="#DejaVuSans-Oblique-52" transform="translate(696.337891 0.828125)"/>
      <use xlink:href="#DejaVuSans-Oblique-74" transform="translate(766.777344 39.109375) scale(0.7)"/>
      <use xlink:href="#DejaVuSans-Oblique-3c7" transform="translate(766.777344 -26.515625) scale(0.7)"/>
      <use xlink:href="#DejaVuSans-31" transform="translate(808.203125 -38) scale(0.49)"/>
      <use xlink:href="#DejaVuSans-2c" transform="translate(841.29248 -26.515625) scale(0.7)"/>
      <use xlink:href="#DejaVuSans-Oblique-3c7" transform="translate(877.181152 -26.515625) scale(0.7)"/>
      <use xlink:href="#DejaVuSans-33" transform="translate(918.606934 -38) scale(0.49)"/>
     </g>
    </g>
    <g id="line2d_28">
     <path d="M 60.241875 37.444755 
L 70.241875 37.444755 
L 80.241875 37.444755 
" style="fill: none; stroke-dasharray: 5.55,2.4; stroke-dashoffset: 0; stroke: #000000; stroke-width: 1.5"/>
    </g>
    <g id="text_16">
     <!-- Original Value $\bar{R}_{\chi_1,\chi_3}^t$ -->
     <g transform="translate(88.241875 40.944755) scale(0.1 -0.1)">
      <defs>
       <path id="DejaVuSans-4f" d="M 2522 4238 
Q 1834 4238 1429 3725 
Q 1025 3213 1025 2328 
Q 1025 1447 1429 934 
Q 1834 422 2522 422 
Q 3209 422 3611 934 
Q 4013 1447 4013 2328 
Q 4013 3213 3611 3725 
Q 3209 4238 2522 4238 
z
M 2522 4750 
Q 3503 4750 4090 4092 
Q 4678 3434 4678 2328 
Q 4678 1225 4090 567 
Q 3503 -91 2522 -91 
Q 1538 -91 948 565 
Q 359 1222 359 2328 
Q 359 3434 948 4092 
Q 1538 4750 2522 4750 
z
" transform="scale(0.015625)"/>
       <path id="DejaVuSans-67" d="M 2906 1791 
Q 2906 2416 2648 2759 
Q 2391 3103 1925 3103 
Q 1463 3103 1205 2759 
Q 947 2416 947 1791 
Q 947 1169 1205 825 
Q 1463 481 1925 481 
Q 2391 481 2648 825 
Q 2906 1169 2906 1791 
z
M 3481 434 
Q 3481 -459 3084 -895 
Q 2688 -1331 1869 -1331 
Q 1566 -1331 1297 -1286 
Q 1028 -1241 775 -1147 
L 775 -588 
Q 1028 -725 1275 -790 
Q 1522 -856 1778 -856 
Q 2344 -856 2625 -561 
Q 2906 -266 2906 331 
L 2906 616 
Q 2728 306 2450 153 
Q 2172 0 1784 0 
Q 1141 0 747 490 
Q 353 981 353 1791 
Q 353 2603 747 3093 
Q 1141 3584 1784 3584 
Q 2172 3584 2450 3431 
Q 2728 3278 2906 2969 
L 2906 3500 
L 3481 3500 
L 3481 434 
z
" transform="scale(0.015625)"/>
       <path id="DejaVuSans-6e" d="M 3513 2113 
L 3513 0 
L 2938 0 
L 2938 2094 
Q 2938 2591 2744 2837 
Q 2550 3084 2163 3084 
Q 1697 3084 1428 2787 
Q 1159 2491 1159 1978 
L 1159 0 
L 581 0 
L 581 3500 
L 1159 3500 
L 1159 2956 
Q 1366 3272 1645 3428 
Q 1925 3584 2291 3584 
Q 2894 3584 3203 3211 
Q 3513 2838 3513 2113 
z
" transform="scale(0.015625)"/>
       <path id="DejaVuSans-304" d="M -2518 4769 
L -650 4769 
L -650 4306 
L -2518 4306 
L -2518 4769 
z
" transform="scale(0.015625)"/>
      </defs>
      <use xlink:href="#DejaVuSans-4f" transform="translate(0 0.359375)"/>
      <use xlink:href="#DejaVuSans-72" transform="translate(78.710938 0.359375)"/>
      <use xlink:href="#DejaVuSans-69" transform="translate(119.824219 0.359375)"/>
      <use xlink:href="#DejaVuSans-67" transform="translate(147.607422 0.359375)"/>
      <use xlink:href="#DejaVuSans-69" transform="translate(211.083984 0.359375)"/>
      <use xlink:href="#DejaVuSans-6e" transform="translate(238.867188 0.359375)"/>
      <use xlink:href="#DejaVuSans-61" transform="translate(302.246094 0.359375)"/>
      <use xlink:href="#DejaVuSans-6c" transform="translate(363.525391 0.359375)"/>
      <use xlink:href="#DejaVuSans-20" transform="translate(391.308594 0.359375)"/>
      <use xlink:href="#DejaVuSans-56" transform="translate(423.095703 0.359375)"/>
      <use xlink:href="#DejaVuSans-61" transform="translate(491.503906 0.359375)"/>
      <use xlink:href="#DejaVuSans-6c" transform="translate(552.783203 0.359375)"/>
      <use xlink:href="#DejaVuSans-75" transform="translate(580.566406 0.359375)"/>
      <use xlink:href="#DejaVuSans-65" transform="translate(643.945312 0.359375)"/>
      <use xlink:href="#DejaVuSans-20" transform="translate(705.46875 0.359375)"/>
      <use xlink:href="#DejaVuSans-304" transform="translate(804.970215 18.484375)"/>
      <use xlink:href="#DejaVuSans-Oblique-52" transform="translate(737.255859 0.359375)"/>
      <use xlink:href="#DejaVuSans-Oblique-74" transform="translate(807.695312 38.640625) scale(0.7)"/>
      <use xlink:href="#DejaVuSans-Oblique-3c7" transform="translate(807.695312 -26.984375) scale(0.7)"/>
      <use xlink:href="#DejaVuSans-31" transform="translate(849.121094 -38.46875) scale(0.49)"/>
      <use xlink:href="#DejaVuSans-2c" transform="translate(882.210449 -26.984375) scale(0.7)"/>
      <use xlink:href="#DejaVuSans-Oblique-3c7" transform="translate(918.099121 -26.984375) scale(0.7)"/>
      <use xlink:href="#DejaVuSans-33" transform="translate(959.524902 -38.46875) scale(0.49)"/>
     </g>
    </g>
    <g id="patch_8">
     <path d="M 60.241875 57.743193 
L 80.241875 57.743193 
L 80.241875 50.743193 
L 60.241875 50.743193 
z
" style="fill: #134a8e; fill-opacity: 0.5; stroke: #134a8e; stroke-opacity: 0.5; stroke-width: 0.5; stroke-linejoin: miter"/>
    </g>
    <g id="text_17">
     <!-- One Standard Deviation -->
     <g transform="translate(88.241875 57.743193) scale(0.1 -0.1)">
      <defs>
       <path id="DejaVuSans-53" d="M 3425 4513 
L 3425 3897 
Q 3066 4069 2747 4153 
Q 2428 4238 2131 4238 
Q 1616 4238 1336 4038 
Q 1056 3838 1056 3469 
Q 1056 3159 1242 3001 
Q 1428 2844 1947 2747 
L 2328 2669 
Q 3034 2534 3370 2195 
Q 3706 1856 3706 1288 
Q 3706 609 3251 259 
Q 2797 -91 1919 -91 
Q 1588 -91 1214 -16 
Q 841 59 441 206 
L 441 856 
Q 825 641 1194 531 
Q 1563 422 1919 422 
Q 2459 422 2753 634 
Q 3047 847 3047 1241 
Q 3047 1584 2836 1778 
Q 2625 1972 2144 2069 
L 1759 2144 
Q 1053 2284 737 2584 
Q 422 2884 422 3419 
Q 422 4038 858 4394 
Q 1294 4750 2059 4750 
Q 2388 4750 2728 4690 
Q 3069 4631 3425 4513 
z
" transform="scale(0.015625)"/>
       <path id="DejaVuSans-64" d="M 2906 2969 
L 2906 4863 
L 3481 4863 
L 3481 0 
L 2906 0 
L 2906 525 
Q 2725 213 2448 61 
Q 2172 -91 1784 -91 
Q 1150 -91 751 415 
Q 353 922 353 1747 
Q 353 2572 751 3078 
Q 1150 3584 1784 3584 
Q 2172 3584 2448 3432 
Q 2725 3281 2906 2969 
z
M 947 1747 
Q 947 1113 1208 752 
Q 1469 391 1925 391 
Q 2381 391 2643 752 
Q 2906 1113 2906 1747 
Q 2906 2381 2643 2742 
Q 2381 3103 1925 3103 
Q 1469 3103 1208 2742 
Q 947 2381 947 1747 
z
" transform="scale(0.015625)"/>
       <path id="DejaVuSans-6f" d="M 1959 3097 
Q 1497 3097 1228 2736 
Q 959 2375 959 1747 
Q 959 1119 1226 758 
Q 1494 397 1959 397 
Q 2419 397 2687 759 
Q 2956 1122 2956 1747 
Q 2956 2369 2687 2733 
Q 2419 3097 1959 3097 
z
M 1959 3584 
Q 2709 3584 3137 3096 
Q 3566 2609 3566 1747 
Q 3566 888 3137 398 
Q 2709 -91 1959 -91 
Q 1206 -91 779 398 
Q 353 888 353 1747 
Q 353 2609 779 3096 
Q 1206 3584 1959 3584 
z
" transform="scale(0.015625)"/>
      </defs>
      <use xlink:href="#DejaVuSans-4f"/>
      <use xlink:href="#DejaVuSans-6e" x="78.710938"/>
      <use xlink:href="#DejaVuSans-65" x="142.089844"/>
      <use xlink:href="#DejaVuSans-20" x="203.613281"/>
      <use xlink:href="#DejaVuSans-53" x="235.400391"/>
      <use xlink:href="#DejaVuSans-74" x="298.876953"/>
      <use xlink:href="#DejaVuSans-61" x="338.085938"/>
      <use xlink:href="#DejaVuSans-6e" x="399.365234"/>
      <use xlink:href="#DejaVuSans-64" x="462.744141"/>
      <use xlink:href="#DejaVuSans-61" x="526.220703"/>
      <use xlink:href="#DejaVuSans-72" x="587.5"/>
      <use xlink:href="#DejaVuSans-64" x="626.863281"/>
      <use xlink:href="#DejaVuSans-20" x="690.339844"/>
      <use xlink:href="#DejaVuSans-44" x="722.126953"/>
      <use xlink:href="#DejaVuSans-65" x="799.128906"/>
      <use xlink:href="#DejaVuSans-76" x="860.652344"/>
      <use xlink:href="#DejaVuSans-69" x="919.832031"/>
      <use xlink:href="#DejaVuSans-61" x="947.615234"/>
      <use xlink:href="#DejaVuSans-74" x="1008.894531"/>
      <use xlink:href="#DejaVuSans-69" x="1048.103516"/>
      <use xlink:href="#DejaVuSans-6f" x="1075.886719"/>
      <use xlink:href="#DejaVuSans-6e" x="1137.068359"/>
     </g>
    </g>
   </g>
  </g>
 </g>
 <defs>
  <clipPath id="p6a6741c6b7">
   <rect x="51.241875" y="3.444755" width="390.6" height="166.32"/>
  </clipPath>
 </defs>
</svg>
