<?xml version="1.0" encoding="utf-8" standalone="no"?>
<!DOCTYPE svg PUBLIC "-//W3C//DTD SVG 1.1//EN"
  "http://www.w3.org/Graphics/SVG/1.1/DTD/svg11.dtd">
<svg xmlns:xlink="http://www.w3.org/1999/xlink" width="450.737567pt" height="198.611875pt" viewBox="0 0 450.737567 198.611875" xmlns="http://www.w3.org/2000/svg" version="1.1">
 <metadata>
  <rdf:RDF xmlns:dc="http://purl.org/dc/elements/1.1/" xmlns:cc="http://creativecommons.org/ns#" xmlns:rdf="http://www.w3.org/1999/02/22-rdf-syntax-ns#">
   <cc:Work>
    <dc:type rdf:resource="http://purl.org/dc/dcmitype/StillImage"/>
    <dc:date>2024-09-18T15:47:45.429120</dc:date>
    <dc:format>image/svg+xml</dc:format>
    <dc:creator>
     <cc:Agent>
      <dc:title>Matplotlib v3.7.5, https://matplotlib.org/</dc:title>
     </cc:Agent>
    </dc:creator>
   </cc:Work>
  </rdf:RDF>
 </metadata>
 <defs>
  <style type="text/css">*{stroke-linejoin: round; stroke-linecap: butt}</style>
 </defs>
 <g id="figure_1">
  <g id="patch_1">
   <path d="M 0 198.611875 
L 450.737567 198.611875 
L 450.737567 0 
L 0 0 
z
" style="fill: #ffffff"/>
  </g>
  <g id="axes_1">
   <g id="patch_2">
    <path d="M 51.241875 166.32 
L 441.841875 166.32 
L 441.841875 -0 
L 51.241875 -0 
z
" style="fill: #e5e5e5"/>
   </g>
   <g id="matplotlib.axis_1">
    <g id="xtick_1">
     <g id="line2d_1">
      <path d="M 78.78239 166.32 
L 78.78239 -0 
" clip-path="url(#pdbed177517)" style="fill: none; stroke: #ffffff; stroke-width: 0.8; stroke-linecap: square"/>
     </g>
     <g id="line2d_2">
      <defs>
       <path id="m6fd32720c4" d="M 0 0 
L 0 3.5 
" style="stroke: #555555; stroke-width: 0.8"/>
      </defs>
      <g>
       <use xlink:href="#m6fd32720c4" x="78.78239" y="166.32" style="fill: #555555; stroke: #555555; stroke-width: 0.8"/>
      </g>
     </g>
     <g id="text_1">
      <!-- 08/16/20 -->
      <g style="fill: #555555" transform="translate(56.32614 180.918437) scale(0.1 -0.1)">
       <defs>
        <path id="DejaVuSans-30" d="M 2034 4250 
Q 1547 4250 1301 3770 
Q 1056 3291 1056 2328 
Q 1056 1369 1301 889 
Q 1547 409 2034 409 
Q 2525 409 2770 889 
Q 3016 1369 3016 2328 
Q 3016 3291 2770 3770 
Q 2525 4250 2034 4250 
z
M 2034 4750 
Q 2819 4750 3233 4129 
Q 3647 3509 3647 2328 
Q 3647 1150 3233 529 
Q 2819 -91 2034 -91 
Q 1250 -91 836 529 
Q 422 1150 422 2328 
Q 422 3509 836 4129 
Q 1250 4750 2034 4750 
z
" transform="scale(0.015625)"/>
        <path id="DejaVuSans-38" d="M 2034 2216 
Q 1584 2216 1326 1975 
Q 1069 1734 1069 1313 
Q 1069 891 1326 650 
Q 1584 409 2034 409 
Q 2484 409 2743 651 
Q 3003 894 3003 1313 
Q 3003 1734 2745 1975 
Q 2488 2216 2034 2216 
z
M 1403 2484 
Q 997 2584 770 2862 
Q 544 3141 544 3541 
Q 544 4100 942 4425 
Q 1341 4750 2034 4750 
Q 2731 4750 3128 4425 
Q 3525 4100 3525 3541 
Q 3525 3141 3298 2862 
Q 3072 2584 2669 2484 
Q 3125 2378 3379 2068 
Q 3634 1759 3634 1313 
Q 3634 634 3220 271 
Q 2806 -91 2034 -91 
Q 1263 -91 848 271 
Q 434 634 434 1313 
Q 434 1759 690 2068 
Q 947 2378 1403 2484 
z
M 1172 3481 
Q 1172 3119 1398 2916 
Q 1625 2713 2034 2713 
Q 2441 2713 2670 2916 
Q 2900 3119 2900 3481 
Q 2900 3844 2670 4047 
Q 2441 4250 2034 4250 
Q 1625 4250 1398 4047 
Q 1172 3844 1172 3481 
z
" transform="scale(0.015625)"/>
        <path id="DejaVuSans-2f" d="M 1625 4666 
L 2156 4666 
L 531 -594 
L 0 -594 
L 1625 4666 
z
" transform="scale(0.015625)"/>
        <path id="DejaVuSans-31" d="M 794 531 
L 1825 531 
L 1825 4091 
L 703 3866 
L 703 4441 
L 1819 4666 
L 2450 4666 
L 2450 531 
L 3481 531 
L 3481 0 
L 794 0 
L 794 531 
z
" transform="scale(0.015625)"/>
        <path id="DejaVuSans-36" d="M 2113 2584 
Q 1688 2584 1439 2293 
Q 1191 2003 1191 1497 
Q 1191 994 1439 701 
Q 1688 409 2113 409 
Q 2538 409 2786 701 
Q 3034 994 3034 1497 
Q 3034 2003 2786 2293 
Q 2538 2584 2113 2584 
z
M 3366 4563 
L 3366 3988 
Q 3128 4100 2886 4159 
Q 2644 4219 2406 4219 
Q 1781 4219 1451 3797 
Q 1122 3375 1075 2522 
Q 1259 2794 1537 2939 
Q 1816 3084 2150 3084 
Q 2853 3084 3261 2657 
Q 3669 2231 3669 1497 
Q 3669 778 3244 343 
Q 2819 -91 2113 -91 
Q 1303 -91 875 529 
Q 447 1150 447 2328 
Q 447 3434 972 4092 
Q 1497 4750 2381 4750 
Q 2619 4750 2861 4703 
Q 3103 4656 3366 4563 
z
" transform="scale(0.015625)"/>
        <path id="DejaVuSans-32" d="M 1228 531 
L 3431 531 
L 3431 0 
L 469 0 
L 469 531 
Q 828 903 1448 1529 
Q 2069 2156 2228 2338 
Q 2531 2678 2651 2914 
Q 2772 3150 2772 3378 
Q 2772 3750 2511 3984 
Q 2250 4219 1831 4219 
Q 1534 4219 1204 4116 
Q 875 4013 500 3803 
L 500 4441 
Q 881 4594 1212 4672 
Q 1544 4750 1819 4750 
Q 2544 4750 2975 4387 
Q 3406 4025 3406 3419 
Q 3406 3131 3298 2873 
Q 3191 2616 2906 2266 
Q 2828 2175 2409 1742 
Q 1991 1309 1228 531 
z
" transform="scale(0.015625)"/>
       </defs>
       <use xlink:href="#DejaVuSans-30"/>
       <use xlink:href="#DejaVuSans-38" x="63.623047"/>
       <use xlink:href="#DejaVuSans-2f" x="127.246094"/>
       <use xlink:href="#DejaVuSans-31" x="160.9375"/>
       <use xlink:href="#DejaVuSans-36" x="224.560547"/>
       <use xlink:href="#DejaVuSans-2f" x="288.183594"/>
       <use xlink:href="#DejaVuSans-32" x="321.875"/>
       <use xlink:href="#DejaVuSans-30" x="385.498047"/>
      </g>
     </g>
    </g>
    <g id="xtick_2">
     <g id="line2d_3">
      <path d="M 148.682176 166.32 
L 148.682176 -0 
" clip-path="url(#pdbed177517)" style="fill: none; stroke: #ffffff; stroke-width: 0.8; stroke-linecap: square"/>
     </g>
     <g id="line2d_4">
      <g>
       <use xlink:href="#m6fd32720c4" x="148.682176" y="166.32" style="fill: #555555; stroke: #555555; stroke-width: 0.8"/>
      </g>
     </g>
     <g id="text_2">
      <!-- 10/05/20 -->
      <g style="fill: #555555" transform="translate(126.225926 180.918437) scale(0.1 -0.1)">
       <defs>
        <path id="DejaVuSans-35" d="M 691 4666 
L 3169 4666 
L 3169 4134 
L 1269 4134 
L 1269 2991 
Q 1406 3038 1543 3061 
Q 1681 3084 1819 3084 
Q 2600 3084 3056 2656 
Q 3513 2228 3513 1497 
Q 3513 744 3044 326 
Q 2575 -91 1722 -91 
Q 1428 -91 1123 -41 
Q 819 9 494 109 
L 494 744 
Q 775 591 1075 516 
Q 1375 441 1709 441 
Q 2250 441 2565 725 
Q 2881 1009 2881 1497 
Q 2881 1984 2565 2268 
Q 2250 2553 1709 2553 
Q 1456 2553 1204 2497 
Q 953 2441 691 2322 
L 691 4666 
z
" transform="scale(0.015625)"/>
       </defs>
       <use xlink:href="#DejaVuSans-31"/>
       <use xlink:href="#DejaVuSans-30" x="63.623047"/>
       <use xlink:href="#DejaVuSans-2f" x="127.246094"/>
       <use xlink:href="#DejaVuSans-30" x="160.9375"/>
       <use xlink:href="#DejaVuSans-35" x="224.560547"/>
       <use xlink:href="#DejaVuSans-2f" x="288.183594"/>
       <use xlink:href="#DejaVuSans-32" x="321.875"/>
       <use xlink:href="#DejaVuSans-30" x="385.498047"/>
      </g>
     </g>
    </g>
    <g id="xtick_3">
     <g id="line2d_5">
      <path d="M 218.581961 166.32 
L 218.581961 -0 
" clip-path="url(#pdbed177517)" style="fill: none; stroke: #ffffff; stroke-width: 0.8; stroke-linecap: square"/>
     </g>
     <g id="line2d_6">
      <g>
       <use xlink:href="#m6fd32720c4" x="218.581961" y="166.32" style="fill: #555555; stroke: #555555; stroke-width: 0.8"/>
      </g>
     </g>
     <g id="text_3">
      <!-- 11/24/20 -->
      <g style="fill: #555555" transform="translate(196.125711 180.918437) scale(0.1 -0.1)">
       <defs>
        <path id="DejaVuSans-34" d="M 2419 4116 
L 825 1625 
L 2419 1625 
L 2419 4116 
z
M 2253 4666 
L 3047 4666 
L 3047 1625 
L 3713 1625 
L 3713 1100 
L 3047 1100 
L 3047 0 
L 2419 0 
L 2419 1100 
L 313 1100 
L 313 1709 
L 2253 4666 
z
" transform="scale(0.015625)"/>
       </defs>
       <use xlink:href="#DejaVuSans-31"/>
       <use xlink:href="#DejaVuSans-31" x="63.623047"/>
       <use xlink:href="#DejaVuSans-2f" x="127.246094"/>
       <use xlink:href="#DejaVuSans-32" x="160.9375"/>
       <use xlink:href="#DejaVuSans-34" x="224.560547"/>
       <use xlink:href="#DejaVuSans-2f" x="288.183594"/>
       <use xlink:href="#DejaVuSans-32" x="321.875"/>
       <use xlink:href="#DejaVuSans-30" x="385.498047"/>
      </g>
     </g>
    </g>
    <g id="xtick_4">
     <g id="line2d_7">
      <path d="M 288.481746 166.32 
L 288.481746 -0 
" clip-path="url(#pdbed177517)" style="fill: none; stroke: #ffffff; stroke-width: 0.8; stroke-linecap: square"/>
     </g>
     <g id="line2d_8">
      <g>
       <use xlink:href="#m6fd32720c4" x="288.481746" y="166.32" style="fill: #555555; stroke: #555555; stroke-width: 0.8"/>
      </g>
     </g>
     <g id="text_4">
      <!-- 01/13/21 -->
      <g style="fill: #555555" transform="translate(266.025496 180.918437) scale(0.1 -0.1)">
       <defs>
        <path id="DejaVuSans-33" d="M 2597 2516 
Q 3050 2419 3304 2112 
Q 3559 1806 3559 1356 
Q 3559 666 3084 287 
Q 2609 -91 1734 -91 
Q 1441 -91 1130 -33 
Q 819 25 488 141 
L 488 750 
Q 750 597 1062 519 
Q 1375 441 1716 441 
Q 2309 441 2620 675 
Q 2931 909 2931 1356 
Q 2931 1769 2642 2001 
Q 2353 2234 1838 2234 
L 1294 2234 
L 1294 2753 
L 1863 2753 
Q 2328 2753 2575 2939 
Q 2822 3125 2822 3475 
Q 2822 3834 2567 4026 
Q 2313 4219 1838 4219 
Q 1578 4219 1281 4162 
Q 984 4106 628 3988 
L 628 4550 
Q 988 4650 1302 4700 
Q 1616 4750 1894 4750 
Q 2613 4750 3031 4423 
Q 3450 4097 3450 3541 
Q 3450 3153 3228 2886 
Q 3006 2619 2597 2516 
z
" transform="scale(0.015625)"/>
       </defs>
       <use xlink:href="#DejaVuSans-30"/>
       <use xlink:href="#DejaVuSans-31" x="63.623047"/>
       <use xlink:href="#DejaVuSans-2f" x="127.246094"/>
       <use xlink:href="#DejaVuSans-31" x="160.9375"/>
       <use xlink:href="#DejaVuSans-33" x="224.560547"/>
       <use xlink:href="#DejaVuSans-2f" x="288.183594"/>
       <use xlink:href="#DejaVuSans-32" x="321.875"/>
       <use xlink:href="#DejaVuSans-31" x="385.498047"/>
      </g>
     </g>
    </g>
    <g id="xtick_5">
     <g id="line2d_9">
      <path d="M 358.381531 166.32 
L 358.381531 -0 
" clip-path="url(#pdbed177517)" style="fill: none; stroke: #ffffff; stroke-width: 0.8; stroke-linecap: square"/>
     </g>
     <g id="line2d_10">
      <g>
       <use xlink:href="#m6fd32720c4" x="358.381531" y="166.32" style="fill: #555555; stroke: #555555; stroke-width: 0.8"/>
      </g>
     </g>
     <g id="text_5">
      <!-- 03/04/21 -->
      <g style="fill: #555555" transform="translate(335.925281 180.918437) scale(0.1 -0.1)">
       <use xlink:href="#DejaVuSans-30"/>
       <use xlink:href="#DejaVuSans-33" x="63.623047"/>
       <use xlink:href="#DejaVuSans-2f" x="127.246094"/>
       <use xlink:href="#DejaVuSans-30" x="160.9375"/>
       <use xlink:href="#DejaVuSans-34" x="224.560547"/>
       <use xlink:href="#DejaVuSans-2f" x="288.183594"/>
       <use xlink:href="#DejaVuSans-32" x="321.875"/>
       <use xlink:href="#DejaVuSans-31" x="385.498047"/>
      </g>
     </g>
    </g>
    <g id="xtick_6">
     <g id="line2d_11">
      <path d="M 428.281317 166.32 
L 428.281317 -0 
" clip-path="url(#pdbed177517)" style="fill: none; stroke: #ffffff; stroke-width: 0.8; stroke-linecap: square"/>
     </g>
     <g id="line2d_12">
      <g>
       <use xlink:href="#m6fd32720c4" x="428.281317" y="166.32" style="fill: #555555; stroke: #555555; stroke-width: 0.8"/>
      </g>
     </g>
     <g id="text_6">
      <!-- 04/23/21 -->
      <g style="fill: #555555" transform="translate(405.825067 180.918437) scale(0.1 -0.1)">
       <use xlink:href="#DejaVuSans-30"/>
       <use xlink:href="#DejaVuSans-34" x="63.623047"/>
       <use xlink:href="#DejaVuSans-2f" x="127.246094"/>
       <use xlink:href="#DejaVuSans-32" x="160.9375"/>
       <use xlink:href="#DejaVuSans-33" x="224.560547"/>
       <use xlink:href="#DejaVuSans-2f" x="288.183594"/>
       <use xlink:href="#DejaVuSans-32" x="321.875"/>
       <use xlink:href="#DejaVuSans-31" x="385.498047"/>
      </g>
     </g>
    </g>
    <g id="text_7">
     <!-- Date -->
     <g style="fill: #555555" transform="translate(232.200938 196.11625) scale(0.12 -0.12)">
      <defs>
       <path id="DejaVuSans-44" d="M 1259 4147 
L 1259 519 
L 2022 519 
Q 2988 519 3436 956 
Q 3884 1394 3884 2338 
Q 3884 3275 3436 3711 
Q 2988 4147 2022 4147 
L 1259 4147 
z
M 628 4666 
L 1925 4666 
Q 3281 4666 3915 4102 
Q 4550 3538 4550 2338 
Q 4550 1131 3912 565 
Q 3275 0 1925 0 
L 628 0 
L 628 4666 
z
" transform="scale(0.015625)"/>
       <path id="DejaVuSans-61" d="M 2194 1759 
Q 1497 1759 1228 1600 
Q 959 1441 959 1056 
Q 959 750 1161 570 
Q 1363 391 1709 391 
Q 2188 391 2477 730 
Q 2766 1069 2766 1631 
L 2766 1759 
L 2194 1759 
z
M 3341 1997 
L 3341 0 
L 2766 0 
L 2766 531 
Q 2569 213 2275 61 
Q 1981 -91 1556 -91 
Q 1019 -91 701 211 
Q 384 513 384 1019 
Q 384 1609 779 1909 
Q 1175 2209 1959 2209 
L 2766 2209 
L 2766 2266 
Q 2766 2663 2505 2880 
Q 2244 3097 1772 3097 
Q 1472 3097 1187 3025 
Q 903 2953 641 2809 
L 641 3341 
Q 956 3463 1253 3523 
Q 1550 3584 1831 3584 
Q 2591 3584 2966 3190 
Q 3341 2797 3341 1997 
z
" transform="scale(0.015625)"/>
       <path id="DejaVuSans-74" d="M 1172 4494 
L 1172 3500 
L 2356 3500 
L 2356 3053 
L 1172 3053 
L 1172 1153 
Q 1172 725 1289 603 
Q 1406 481 1766 481 
L 2356 481 
L 2356 0 
L 1766 0 
Q 1100 0 847 248 
Q 594 497 594 1153 
L 594 3053 
L 172 3053 
L 172 3500 
L 594 3500 
L 594 4494 
L 1172 4494 
z
" transform="scale(0.015625)"/>
       <path id="DejaVuSans-65" d="M 3597 1894 
L 3597 1613 
L 953 1613 
Q 991 1019 1311 708 
Q 1631 397 2203 397 
Q 2534 397 2845 478 
Q 3156 559 3463 722 
L 3463 178 
Q 3153 47 2828 -22 
Q 2503 -91 2169 -91 
Q 1331 -91 842 396 
Q 353 884 353 1716 
Q 353 2575 817 3079 
Q 1281 3584 2069 3584 
Q 2775 3584 3186 3129 
Q 3597 2675 3597 1894 
z
M 3022 2063 
Q 3016 2534 2758 2815 
Q 2500 3097 2075 3097 
Q 1594 3097 1305 2825 
Q 1016 2553 972 2059 
L 3022 2063 
z
" transform="scale(0.015625)"/>
      </defs>
      <use xlink:href="#DejaVuSans-44"/>
      <use xlink:href="#DejaVuSans-61" x="77.001953"/>
      <use xlink:href="#DejaVuSans-74" x="138.28125"/>
      <use xlink:href="#DejaVuSans-65" x="177.490234"/>
     </g>
    </g>
   </g>
   <g id="matplotlib.axis_2">
    <g id="ytick_1">
     <g id="line2d_13">
      <path d="M 51.241875 161.234876 
L 441.841875 161.234876 
" clip-path="url(#pdbed177517)" style="fill: none; stroke: #ffffff; stroke-width: 0.8; stroke-linecap: square"/>
     </g>
     <g id="line2d_14">
      <defs>
       <path id="ma8bc17846a" d="M 0 0 
L -3.5 0 
" style="stroke: #555555; stroke-width: 0.8"/>
      </defs>
      <g>
       <use xlink:href="#ma8bc17846a" x="51.241875" y="161.234876" style="fill: #555555; stroke: #555555; stroke-width: 0.8"/>
      </g>
     </g>
     <g id="text_8">
      <!-- 0.000 -->
      <g style="fill: #555555" transform="translate(15.61375 165.034094) scale(0.1 -0.1)">
       <defs>
        <path id="DejaVuSans-2e" d="M 684 794 
L 1344 794 
L 1344 0 
L 684 0 
L 684 794 
z
" transform="scale(0.015625)"/>
       </defs>
       <use xlink:href="#DejaVuSans-30"/>
       <use xlink:href="#DejaVuSans-2e" x="63.623047"/>
       <use xlink:href="#DejaVuSans-30" x="95.410156"/>
       <use xlink:href="#DejaVuSans-30" x="159.033203"/>
       <use xlink:href="#DejaVuSans-30" x="222.65625"/>
      </g>
     </g>
    </g>
    <g id="ytick_2">
     <g id="line2d_15">
      <path d="M 51.241875 128.639877 
L 441.841875 128.639877 
" clip-path="url(#pdbed177517)" style="fill: none; stroke: #ffffff; stroke-width: 0.8; stroke-linecap: square"/>
     </g>
     <g id="line2d_16">
      <g>
       <use xlink:href="#ma8bc17846a" x="51.241875" y="128.639877" style="fill: #555555; stroke: #555555; stroke-width: 0.8"/>
      </g>
     </g>
     <g id="text_9">
      <!-- 0.005 -->
      <g style="fill: #555555" transform="translate(15.61375 132.439096) scale(0.1 -0.1)">
       <use xlink:href="#DejaVuSans-30"/>
       <use xlink:href="#DejaVuSans-2e" x="63.623047"/>
       <use xlink:href="#DejaVuSans-30" x="95.410156"/>
       <use xlink:href="#DejaVuSans-30" x="159.033203"/>
       <use xlink:href="#DejaVuSans-35" x="222.65625"/>
      </g>
     </g>
    </g>
    <g id="ytick_3">
     <g id="line2d_17">
      <path d="M 51.241875 96.044879 
L 441.841875 96.044879 
" clip-path="url(#pdbed177517)" style="fill: none; stroke: #ffffff; stroke-width: 0.8; stroke-linecap: square"/>
     </g>
     <g id="line2d_18">
      <g>
       <use xlink:href="#ma8bc17846a" x="51.241875" y="96.044879" style="fill: #555555; stroke: #555555; stroke-width: 0.8"/>
      </g>
     </g>
     <g id="text_10">
      <!-- 0.010 -->
      <g style="fill: #555555" transform="translate(15.61375 99.844098) scale(0.1 -0.1)">
       <use xlink:href="#DejaVuSans-30"/>
       <use xlink:href="#DejaVuSans-2e" x="63.623047"/>
       <use xlink:href="#DejaVuSans-30" x="95.410156"/>
       <use xlink:href="#DejaVuSans-31" x="159.033203"/>
       <use xlink:href="#DejaVuSans-30" x="222.65625"/>
      </g>
     </g>
    </g>
    <g id="ytick_4">
     <g id="line2d_19">
      <path d="M 51.241875 63.449881 
L 441.841875 63.449881 
" clip-path="url(#pdbed177517)" style="fill: none; stroke: #ffffff; stroke-width: 0.8; stroke-linecap: square"/>
     </g>
     <g id="line2d_20">
      <g>
       <use xlink:href="#ma8bc17846a" x="51.241875" y="63.449881" style="fill: #555555; stroke: #555555; stroke-width: 0.8"/>
      </g>
     </g>
     <g id="text_11">
      <!-- 0.015 -->
      <g style="fill: #555555" transform="translate(15.61375 67.249099) scale(0.1 -0.1)">
       <use xlink:href="#DejaVuSans-30"/>
       <use xlink:href="#DejaVuSans-2e" x="63.623047"/>
       <use xlink:href="#DejaVuSans-30" x="95.410156"/>
       <use xlink:href="#DejaVuSans-31" x="159.033203"/>
       <use xlink:href="#DejaVuSans-35" x="222.65625"/>
      </g>
     </g>
    </g>
    <g id="ytick_5">
     <g id="line2d_21">
      <path d="M 51.241875 30.854882 
L 441.841875 30.854882 
" clip-path="url(#pdbed177517)" style="fill: none; stroke: #ffffff; stroke-width: 0.8; stroke-linecap: square"/>
     </g>
     <g id="line2d_22">
      <g>
       <use xlink:href="#ma8bc17846a" x="51.241875" y="30.854882" style="fill: #555555; stroke: #555555; stroke-width: 0.8"/>
      </g>
     </g>
     <g id="text_12">
      <!-- 0.020 -->
      <g style="fill: #555555" transform="translate(15.61375 34.654101) scale(0.1 -0.1)">
       <use xlink:href="#DejaVuSans-30"/>
       <use xlink:href="#DejaVuSans-2e" x="63.623047"/>
       <use xlink:href="#DejaVuSans-30" x="95.410156"/>
       <use xlink:href="#DejaVuSans-32" x="159.033203"/>
       <use xlink:href="#DejaVuSans-30" x="222.65625"/>
      </g>
     </g>
    </g>
    <g id="text_13">
     <!-- Value -->
     <g style="fill: #555555" transform="translate(9.118125 99.6375) rotate(-90) scale(0.12 -0.12)">
      <defs>
       <path id="DejaVuSans-56" d="M 1831 0 
L 50 4666 
L 709 4666 
L 2188 738 
L 3669 4666 
L 4325 4666 
L 2547 0 
L 1831 0 
z
" transform="scale(0.015625)"/>
       <path id="DejaVuSans-6c" d="M 603 4863 
L 1178 4863 
L 1178 0 
L 603 0 
L 603 4863 
z
" transform="scale(0.015625)"/>
       <path id="DejaVuSans-75" d="M 544 1381 
L 544 3500 
L 1119 3500 
L 1119 1403 
Q 1119 906 1312 657 
Q 1506 409 1894 409 
Q 2359 409 2629 706 
Q 2900 1003 2900 1516 
L 2900 3500 
L 3475 3500 
L 3475 0 
L 2900 0 
L 2900 538 
Q 2691 219 2414 64 
Q 2138 -91 1772 -91 
Q 1169 -91 856 284 
Q 544 659 544 1381 
z
M 1991 3584 
L 1991 3584 
z
" transform="scale(0.015625)"/>
      </defs>
      <use xlink:href="#DejaVuSans-56"/>
      <use xlink:href="#DejaVuSans-61" x="60.658203"/>
      <use xlink:href="#DejaVuSans-6c" x="121.9375"/>
      <use xlink:href="#DejaVuSans-75" x="149.720703"/>
      <use xlink:href="#DejaVuSans-65" x="213.099609"/>
     </g>
    </g>
   </g>
   <g id="PolyCollection_1">
    <defs>
     <path id="m235f7a1dee" d="M 68.99642 -60.533857 
L 68.99642 -74.41205 
L 70.394416 -74.950263 
L 71.792412 -70.853401 
L 73.190408 -76.13164 
L 74.588403 -77.170622 
L 75.986399 -75.187301 
L 77.384395 -75.413495 
L 78.78239 -75.492886 
L 80.180386 -82.016156 
L 81.578382 -81.258989 
L 82.976378 -85.609422 
L 84.374373 -84.511187 
L 85.772369 -81.019505 
L 87.170365 -80.566789 
L 88.56836 -75.142248 
L 89.966356 -75.609341 
L 91.364352 -74.531703 
L 92.762347 -72.095061 
L 94.160343 -71.786468 
L 95.558339 -72.04375 
L 96.956335 -47.993084 
L 98.35433 -49.595361 
L 99.752326 -48.29942 
L 101.150322 -49.716499 
L 102.548317 -44.274747 
L 103.946313 -44.195809 
L 105.344309 -43.656717 
L 106.742304 -44.130667 
L 108.1403 -46.776762 
L 109.538296 -46.468208 
L 110.936292 -46.335127 
L 112.334287 -46.390211 
L 113.732283 -64.708976 
L 115.130279 -61.925948 
L 116.528274 -62.745719 
L 117.92627 -60.674765 
L 119.324266 -60.388612 
L 120.722262 -59.204108 
L 122.120257 -56.344585 
L 123.518253 -59.4943 
L 124.916249 -60.442088 
L 126.314244 -59.117694 
L 127.71224 -59.693217 
L 129.110236 -59.792751 
L 130.508231 -59.909178 
L 131.906227 -70.607983 
L 133.304223 -61.791489 
L 134.702219 -66.629114 
L 136.100214 -65.086457 
L 137.49821 -68.769479 
L 138.896206 -69.472999 
L 140.294201 -70.702194 
L 141.692197 -70.868406 
L 143.090193 -73.017957 
L 144.488189 -69.047998 
L 145.886184 -70.643949 
L 147.28418 -101.462696 
L 148.682176 -101.758835 
L 150.080171 -103.488088 
L 151.478167 -75.101223 
L 152.876163 -75.691602 
L 154.274158 -76.823201 
L 155.672154 -77.096391 
L 157.07015 -74.984589 
L 158.468146 -73.854651 
L 159.866141 -73.75633 
L 161.264137 -72.272111 
L 162.662133 -73.80163 
L 164.060128 -76.09496 
L 165.458124 -108.198435 
L 166.85612 -110.052972 
L 168.254116 -77.371063 
L 169.652111 -77.123794 
L 171.050107 -91.61709 
L 172.448103 -107.183523 
L 173.846098 -106.928119 
L 175.244094 -87.004074 
L 176.64209 -105.519092 
L 178.040085 -105.330815 
L 179.438081 -107.117361 
L 180.836077 -107.490418 
L 182.234073 -105.544846 
L 183.632068 -105.627495 
L 185.030064 -105.612968 
L 186.42806 -103.763157 
L 187.826055 -106.2723 
L 189.224051 -105.241696 
L 190.622047 -87.14964 
L 192.020043 -88.801051 
L 193.418038 -89.265545 
L 194.816034 -88.344502 
L 196.21403 -88.736263 
L 197.612025 -77.648819 
L 199.010021 -77.611996 
L 200.408017 -90.685682 
L 201.806012 -79.094417 
L 203.204008 -94.860782 
L 204.602004 -113.77606 
L 206 -113.56376 
L 207.397995 -116.529672 
L 208.795991 -96.403921 
L 210.193987 -119.22568 
L 211.591982 -121.154949 
L 212.989978 -119.898693 
L 214.387974 -123.826716 
L 215.785969 -126.007547 
L 217.183965 -124.343946 
L 218.581961 -123.311286 
L 219.979957 -122.086625 
L 221.377952 -136.790478 
L 222.775948 -124.687671 
L 224.173944 -124.605846 
L 225.571939 -121.116717 
L 226.969935 -119.701778 
L 228.367931 -121.048626 
L 229.765927 -122.038488 
L 231.163922 -121.466574 
L 232.561918 -118.890824 
L 233.959914 -118.992783 
L 235.357909 -117.857754 
L 236.755905 -119.659741 
L 238.153901 -116.52129 
L 239.551896 -116.456001 
L 240.949892 -82.668745 
L 242.347888 -109.563795 
L 243.745884 -108.673098 
L 245.143879 -108.040327 
L 246.541875 -113.894846 
L 247.939871 -113.219139 
L 249.337866 -105.713517 
L 250.735862 -104.40614 
L 252.133858 -91.742607 
L 253.531854 -91.545565 
L 254.929849 -91.489729 
L 256.327845 -88.92988 
L 257.725841 -90.602103 
L 259.123836 -89.675093 
L 260.521832 -89.80985 
L 261.919828 -88.363483 
L 263.317823 -88.096494 
L 264.715819 -88.990563 
L 266.113815 -87.840774 
L 267.511811 -87.139143 
L 268.909806 -86.843702 
L 270.307802 -87.783125 
L 271.705798 -86.647056 
L 273.103793 -87.900662 
L 274.501789 -87.592957 
L 275.899785 -75.323929 
L 277.297781 -75.526344 
L 278.695776 -55.055303 
L 280.093772 -54.418528 
L 281.491768 -55.819415 
L 282.889763 -55.735413 
L 284.287759 -54.519459 
L 285.685755 -54.050686 
L 287.08375 -54.532376 
L 288.481746 -44.716692 
L 289.879742 -42.102571 
L 291.277738 -42.099944 
L 292.675733 -43.176975 
L 294.073729 -44.726094 
L 295.471725 -52.288669 
L 296.86972 -53.446935 
L 298.267716 -52.958739 
L 299.665712 -54.002974 
L 301.063707 -53.912492 
L 302.461703 -55.325252 
L 303.859699 -55.877739 
L 305.257695 -55.71924 
L 306.65569 -56.746235 
L 308.053686 -67.699264 
L 309.451682 -71.484487 
L 310.849677 -71.859407 
L 312.247673 -83.979709 
L 313.645669 -85.30585 
L 315.043665 -85.093298 
L 316.44166 -85.706444 
L 317.839656 -84.405751 
L 319.237652 -86.5929 
L 320.635647 -85.382241 
L 322.033643 -84.306796 
L 323.431639 -84.329996 
L 324.829634 -84.231277 
L 326.22763 -84.923878 
L 327.625626 -84.384468 
L 329.023622 -83.273276 
L 330.421617 -83.021053 
L 331.819613 -69.816276 
L 333.217609 -68.57247 
L 334.615604 -68.655051 
L 336.0136 -68.986304 
L 337.411596 -44.391635 
L 338.809592 -56.404103 
L 340.207587 -53.461708 
L 341.605583 -54.428472 
L 343.003579 -54.111107 
L 344.401574 -53.990786 
L 345.79957 -44.879713 
L 347.197566 -55.12244 
L 348.595561 -57.604867 
L 349.993557 -59.066319 
L 351.391553 -59.1653 
L 352.789549 -59.461706 
L 354.187544 -94.107294 
L 355.58554 -75.528712 
L 356.983536 -92.75613 
L 358.381531 -165.013227 
L 359.779527 -170.851933 
L 361.177523 -180.773671 
L 362.575519 -179.844047 
L 363.973514 -177.749451 
L 365.37151 -179.987978 
L 366.769506 -184.468758 
L 368.167501 -184.505853 
L 369.565497 -187.259503 
L 370.963493 -184.174456 
L 372.361488 -184.658016 
L 373.759484 -182.512398 
L 375.15748 -191.051875 
L 376.555476 -190.249949 
L 377.953471 -180.261811 
L 379.351467 -180.407792 
L 380.749463 -188.940606 
L 382.147458 -183.21998 
L 383.545454 -141.482829 
L 384.94345 -142.608835 
L 386.341446 -143.287271 
L 387.739441 -143.646014 
L 389.137437 -142.90437 
L 390.535433 -135.249373 
L 391.933428 -137.179746 
L 393.331424 -98.7693 
L 394.72942 -98.634046 
L 396.127415 -97.439129 
L 397.525411 -91.614868 
L 398.923407 -75.738334 
L 400.321403 -77.737089 
L 401.719398 -76.117087 
L 403.117394 -71.779867 
L 404.51539 -67.000609 
L 405.913385 -67.094713 
L 407.311381 -63.877041 
L 408.709377 -64.865591 
L 410.107372 -64.665876 
L 411.505368 -64.188293 
L 412.903364 -62.85308 
L 414.30136 -48.99103 
L 415.699355 -62.506905 
L 417.097351 -47.517068 
L 418.495347 -47.717989 
L 419.893342 -47.807742 
L 421.291338 -47.460197 
L 422.689334 -48.651362 
L 424.08733 -48.62162 
L 424.08733 -46.10366 
L 424.08733 -46.10366 
L 422.689334 -46.079756 
L 421.291338 -45.02659 
L 419.893342 -45.170816 
L 418.495347 -45.191308 
L 417.097351 -44.956036 
L 415.699355 -52.04003 
L 414.30136 -46.428326 
L 412.903364 -52.064025 
L 411.505368 -52.727172 
L 410.107372 -53.286532 
L 408.709377 -54.460012 
L 407.311381 -53.170409 
L 405.913385 -55.874392 
L 404.51539 -54.828565 
L 403.117394 -59.581164 
L 401.719398 -64.768674 
L 400.321403 -65.094328 
L 398.923407 -65.35609 
L 397.525411 -74.450138 
L 396.127415 -82.818861 
L 394.72942 -81.449517 
L 393.331424 -82.554108 
L 391.933428 -114.840413 
L 390.535433 -112.300011 
L 389.137437 -117.848321 
L 387.739441 -118.502974 
L 386.341446 -119.894358 
L 384.94345 -121.592032 
L 383.545454 -119.429252 
L 382.147458 -147.966176 
L 380.749463 -148.771068 
L 379.351467 -145.163009 
L 377.953471 -138.269621 
L 376.555476 -152.218778 
L 375.15748 -152.48808 
L 373.759484 -149.521055 
L 372.361488 -147.348351 
L 370.963493 -148.092757 
L 369.565497 -148.230084 
L 368.167501 -149.660982 
L 366.769506 -151.659043 
L 365.37151 -148.053041 
L 363.973514 -145.950218 
L 362.575519 -141.883634 
L 361.177523 -144.527702 
L 359.779527 -135.959638 
L 358.381531 -133.541593 
L 356.983536 -80.541972 
L 355.58554 -64.293529 
L 354.187544 -81.254181 
L 352.789549 -52.455561 
L 351.391553 -51.670177 
L 349.993557 -51.90317 
L 348.595561 -50.904919 
L 347.197566 -48.247035 
L 345.79957 -43.024572 
L 344.401574 -47.319835 
L 343.003579 -47.308809 
L 341.605583 -47.404843 
L 340.207587 -46.958587 
L 338.809592 -49.558216 
L 337.411596 -42.676662 
L 336.0136 -60.38054 
L 334.615604 -59.889248 
L 333.217609 -60.523261 
L 331.819613 -60.889046 
L 330.421617 -73.398309 
L 329.023622 -73.662969 
L 327.625626 -74.610158 
L 326.22763 -75.859176 
L 324.829634 -74.060314 
L 323.431639 -74.294231 
L 322.033643 -74.495773 
L 320.635647 -75.303448 
L 319.237652 -77.553762 
L 317.839656 -74.853036 
L 316.44166 -74.573976 
L 315.043665 -75.462015 
L 313.645669 -75.014945 
L 312.247673 -74.211252 
L 310.849677 -63.546186 
L 309.451682 -62.900344 
L 308.053686 -58.693334 
L 306.65569 -50.647797 
L 305.257695 -48.868389 
L 303.859699 -49.452754 
L 302.461703 -49.038178 
L 301.063707 -47.580676 
L 299.665712 -47.713198 
L 298.267716 -46.470358 
L 296.86972 -47.258962 
L 295.471725 -46.465925 
L 294.073729 -42.88616 
L 292.675733 -41.843893 
L 291.277738 -40.647499 
L 289.879742 -40.732056 
L 288.481746 -43.189353 
L 287.08375 -48.1484 
L 285.685755 -48.244784 
L 284.287759 -48.255593 
L 282.889763 -49.217359 
L 281.491768 -49.52358 
L 280.093772 -48.551464 
L 278.695776 -49.176961 
L 277.297781 -65.644655 
L 275.899785 -65.37379 
L 274.501789 -75.727866 
L 273.103793 -75.60317 
L 271.705798 -75.741228 
L 270.307802 -77.160095 
L 268.909806 -76.67599 
L 267.511811 -76.420503 
L 266.113815 -77.616783 
L 264.715819 -78.666643 
L 263.317823 -76.884442 
L 261.919828 -78.470352 
L 260.521832 -78.776481 
L 259.123836 -77.112161 
L 257.725841 -79.328251 
L 256.327845 -77.961775 
L 254.929849 -79.341325 
L 253.531854 -79.333812 
L 252.133858 -79.572067 
L 250.735862 -90.695015 
L 249.337866 -89.887304 
L 247.939871 -97.402685 
L 246.541875 -95.853269 
L 245.143879 -88.956394 
L 243.745884 -92.658365 
L 242.347888 -94.669829 
L 240.949892 -71.499956 
L 239.551896 -98.855285 
L 238.153901 -99.48481 
L 236.755905 -101.714367 
L 235.357909 -100.44552 
L 233.959914 -101.736276 
L 232.561918 -98.838366 
L 231.163922 -100.800833 
L 229.765927 -102.974204 
L 228.367931 -104.346343 
L 226.969935 -102.928593 
L 225.571939 -101.778486 
L 224.173944 -104.523863 
L 222.775948 -105.368275 
L 221.377952 -115.642225 
L 219.979957 -102.5685 
L 218.581961 -103.909999 
L 217.183965 -105.14514 
L 215.785969 -106.082524 
L 214.387974 -105.469944 
L 212.989978 -101.795173 
L 211.591982 -101.241499 
L 210.193987 -99.020862 
L 208.795991 -79.67217 
L 207.397995 -98.843865 
L 206 -96.90501 
L 204.602004 -96.009881 
L 203.204008 -79.412007 
L 201.806012 -68.393593 
L 200.408017 -74.82184 
L 199.010021 -67.137729 
L 197.612025 -66.909252 
L 196.21403 -73.223108 
L 194.816034 -76.142975 
L 193.418038 -74.853541 
L 192.020043 -73.795571 
L 190.622047 -73.979508 
L 189.224051 -90.633393 
L 187.826055 -91.934621 
L 186.42806 -88.440835 
L 185.030064 -89.717973 
L 183.632068 -91.086719 
L 182.234073 -91.309425 
L 180.836077 -91.654796 
L 179.438081 -91.741957 
L 178.040085 -91.824048 
L 176.64209 -91.575706 
L 175.244094 -73.027494 
L 173.846098 -89.968356 
L 172.448103 -90.562272 
L 171.050107 -76.562306 
L 169.652111 -65.465881 
L 168.254116 -65.839957 
L 166.85612 -93.593976 
L 165.458124 -92.206374 
L 164.060128 -64.879402 
L 162.662133 -63.912303 
L 161.264137 -62.322342 
L 159.866141 -63.247496 
L 158.468146 -63.809738 
L 157.07015 -64.563145 
L 155.672154 -66.840791 
L 154.274158 -66.438904 
L 152.876163 -65.885878 
L 151.478167 -65.449268 
L 150.080171 -87.986955 
L 148.682176 -88.04248 
L 147.28418 -87.860128 
L 145.886184 -61.511736 
L 144.488189 -59.560853 
L 143.090193 -63.063646 
L 141.692197 -61.969417 
L 140.294201 -60.968175 
L 138.896206 -60.790157 
L 137.49821 -61.120343 
L 136.100214 -57.229261 
L 134.702219 -58.77154 
L 133.304223 -54.167906 
L 131.906227 -62.322626 
L 130.508231 -52.004668 
L 129.110236 -51.992527 
L 127.71224 -51.973509 
L 126.314244 -51.613948 
L 124.916249 -52.991581 
L 123.518253 -51.836236 
L 122.120257 -49.307452 
L 120.722262 -51.455903 
L 119.324266 -52.149833 
L 117.92627 -51.620918 
L 116.528274 -54.117404 
L 115.130279 -53.590687 
L 113.732283 -54.347816 
L 112.334287 -44.420781 
L 110.936292 -44.452814 
L 109.538296 -44.595571 
L 108.1403 -44.750042 
L 106.742304 -42.350672 
L 105.344309 -41.759999 
L 103.946313 -42.283964 
L 102.548317 -42.247734 
L 101.150322 -47.388351 
L 99.752326 -45.894503 
L 98.35433 -47.232553 
L 96.956335 -45.718208 
L 95.558339 -59.566285 
L 94.160343 -58.317803 
L 92.762347 -58.103567 
L 91.364352 -60.08836 
L 89.966356 -61.322447 
L 88.56836 -60.128209 
L 87.170365 -65.322044 
L 85.772369 -63.810836 
L 84.374373 -68.600813 
L 82.976378 -69.987423 
L 81.578382 -64.647739 
L 80.180386 -65.018307 
L 78.78239 -61.195458 
L 77.384395 -61.083728 
L 75.986399 -60.286672 
L 74.588403 -60.757501 
L 73.190408 -60.398408 
L 71.792412 -57.816063 
L 70.394416 -61.054658 
L 68.99642 -60.533857 
z
" style="stroke: #134a8e; stroke-opacity: 0.5; stroke-width: 0.5"/>
    </defs>
    <g clip-path="url(#pdbed177517)">
     <use xlink:href="#m235f7a1dee" x="0" y="198.611875" style="fill: #134a8e; fill-opacity: 0.5; stroke: #134a8e; stroke-opacity: 0.5; stroke-width: 0.5"/>
    </g>
   </g>
   <g id="line2d_23">
    <path d="M 68.99642 131.138922 
L 70.394416 130.609415 
L 71.792412 134.277143 
L 73.190408 130.346851 
L 74.588403 129.647813 
L 75.986399 130.874888 
L 77.384395 130.363263 
L 78.78239 130.267703 
L 80.180386 125.094644 
L 81.578382 125.658511 
L 82.976378 120.813452 
L 84.374373 122.055875 
L 85.772369 126.196705 
L 87.170365 125.667458 
L 88.56836 130.976647 
L 89.966356 130.145981 
L 91.364352 131.301844 
L 92.762347 133.512561 
L 94.160343 133.559739 
L 95.558339 132.806857 
L 96.956335 151.756229 
L 98.35433 150.197918 
L 99.752326 151.514913 
L 101.150322 150.05945 
L 102.548317 155.350634 
L 103.946313 155.371989 
L 105.344309 155.903517 
L 106.742304 155.371206 
L 108.1403 152.848473 
L 110.936292 153.217905 
L 112.334287 153.206379 
L 113.732283 139.083479 
L 115.130279 140.853557 
L 116.528274 140.180313 
L 117.92627 142.464033 
L 119.324266 142.342652 
L 120.722262 143.281869 
L 122.120257 145.785856 
L 123.518253 142.946607 
L 124.916249 141.89504 
L 126.314244 143.246054 
L 127.71224 142.778512 
L 130.508231 142.654952 
L 131.906227 132.14657 
L 133.304223 140.632177 
L 134.702219 135.911548 
L 136.100214 137.454016 
L 137.49821 133.666964 
L 138.896206 133.480297 
L 141.692197 132.192963 
L 143.090193 130.571074 
L 144.488189 134.307449 
L 145.886184 132.534032 
L 147.28418 103.950463 
L 148.682176 103.711218 
L 150.080171 102.874354 
L 151.478167 128.336629 
L 152.876163 127.823135 
L 154.274158 126.980822 
L 155.672154 126.643284 
L 157.07015 128.838008 
L 158.468146 129.77968 
L 159.866141 130.109962 
L 161.264137 131.314648 
L 164.060128 128.124694 
L 165.458124 98.40947 
L 166.85612 96.788401 
L 168.254116 127.006365 
L 169.652111 127.317037 
L 171.050107 114.522177 
L 172.448103 99.738978 
L 173.846098 100.163637 
L 175.244094 118.596091 
L 176.64209 100.064476 
L 178.040085 100.034443 
L 179.438081 99.182216 
L 180.836077 99.039268 
L 182.234073 100.18474 
L 183.632068 100.254768 
L 185.030064 100.946404 
L 186.42806 102.509879 
L 187.826055 99.508415 
L 189.224051 100.67433 
L 190.622047 118.047301 
L 193.418038 116.552332 
L 194.816034 116.368137 
L 196.21403 117.63219 
L 197.612025 126.33284 
L 199.010021 126.237012 
L 200.408017 115.858114 
L 201.806012 124.86787 
L 203.204008 111.475481 
L 204.602004 93.718905 
L 206 93.37749 
L 207.397995 90.925106 
L 208.795991 110.573829 
L 210.193987 89.488604 
L 211.591982 87.413651 
L 212.989978 87.764942 
L 214.387974 83.963545 
L 215.785969 82.566839 
L 217.183965 83.867332 
L 218.581961 85.001232 
L 219.979957 86.284312 
L 221.377952 72.395524 
L 222.775948 83.583902 
L 224.173944 84.047021 
L 225.571939 87.164273 
L 226.969935 87.296689 
L 228.367931 85.91439 
L 229.765927 86.105529 
L 231.163922 87.478171 
L 232.561918 89.74728 
L 233.959914 88.247346 
L 235.357909 89.460238 
L 236.755905 87.924821 
L 238.153901 90.608825 
L 239.551896 90.956232 
L 240.949892 121.527525 
L 242.347888 96.495063 
L 243.745884 97.946144 
L 245.143879 100.113514 
L 246.541875 93.737817 
L 247.939871 93.300963 
L 249.337866 100.811464 
L 250.735862 101.061297 
L 252.133858 112.954538 
L 253.531854 113.172186 
L 254.929849 113.196348 
L 256.327845 115.166047 
L 257.725841 113.646698 
L 259.123836 115.218248 
L 260.521832 114.318709 
L 263.317823 116.121407 
L 264.715819 114.783272 
L 266.113815 115.883096 
L 267.511811 116.832052 
L 268.909806 116.852029 
L 270.307802 116.140265 
L 271.705798 117.417733 
L 273.103793 116.859959 
L 274.501789 116.951463 
L 275.899785 128.263016 
L 277.297781 128.026375 
L 278.695776 146.495743 
L 280.093772 147.126879 
L 281.491768 145.940378 
L 282.889763 146.135489 
L 284.287759 147.224349 
L 285.685755 147.46414 
L 287.08375 147.271487 
L 288.481746 154.658852 
L 289.879742 157.194562 
L 291.277738 157.238153 
L 292.675733 156.101441 
L 294.073729 154.805748 
L 295.471725 149.234578 
L 296.86972 148.258926 
L 298.267716 148.897327 
L 299.665712 147.753789 
L 301.063707 147.865291 
L 302.461703 146.43016 
L 303.859699 145.946628 
L 305.257695 146.31806 
L 306.65569 144.914859 
L 308.053686 135.415576 
L 309.451682 131.419459 
L 310.849677 130.909078 
L 312.247673 119.516394 
L 313.645669 118.451478 
L 315.043665 118.334218 
L 316.44166 118.471665 
L 317.839656 118.982481 
L 319.237652 116.538544 
L 320.635647 118.269031 
L 322.033643 119.210591 
L 324.829634 119.46608 
L 326.22763 118.220348 
L 327.625626 119.114562 
L 329.023622 120.143752 
L 330.421617 120.402194 
L 331.819613 133.259214 
L 333.217609 134.06401 
L 334.615604 134.339725 
L 336.0136 133.928453 
L 337.411596 155.077727 
L 338.809592 145.630716 
L 340.207587 148.401727 
L 341.605583 147.695217 
L 343.003579 147.901917 
L 344.401574 147.956564 
L 345.79957 154.659733 
L 347.197566 146.927137 
L 348.595561 144.356982 
L 349.993557 143.127131 
L 351.391553 143.194136 
L 352.789549 142.653242 
L 354.187544 110.931137 
L 355.58554 128.700755 
L 356.983536 111.962824 
L 358.381531 49.334465 
L 359.779527 45.20609 
L 361.177523 35.961188 
L 362.575519 37.748034 
L 363.973514 36.76204 
L 365.37151 34.591365 
L 366.769506 30.547975 
L 368.167501 31.528457 
L 369.565497 30.867081 
L 370.963493 32.478268 
L 372.361488 32.608691 
L 373.759484 32.595148 
L 375.15748 26.841898 
L 376.555476 27.377511 
L 377.953471 39.346159 
L 379.351467 35.826474 
L 380.749463 29.756038 
L 382.147458 33.018797 
L 383.545454 68.155835 
L 384.94345 66.511441 
L 387.739441 67.537381 
L 389.137437 68.235529 
L 390.535433 74.837183 
L 391.933428 72.601795 
L 393.331424 107.950171 
L 394.72942 108.570094 
L 396.127415 108.48288 
L 397.525411 115.579372 
L 398.923407 128.064663 
L 400.321403 127.196166 
L 401.719398 128.168994 
L 404.51539 137.697288 
L 405.913385 137.127322 
L 407.311381 140.08815 
L 408.709377 138.949074 
L 410.107372 139.635671 
L 411.505368 140.154142 
L 412.903364 141.153323 
L 414.30136 150.902197 
L 415.699355 141.338407 
L 417.097351 152.375323 
L 418.495347 152.157227 
L 419.893342 152.122596 
L 421.291338 152.368481 
L 422.689334 151.246316 
L 424.08733 151.249235 
L 424.08733 151.249235 
" clip-path="url(#pdbed177517)" style="fill: none; stroke: #134a8e; stroke-width: 3; stroke-linecap: square"/>
    <defs>
     <path id="m39c29e77d6" d="M 0 1.5 
C 0.397805 1.5 0.77937 1.341951 1.06066 1.06066 
C 1.341951 0.77937 1.5 0.397805 1.5 0 
C 1.5 -0.397805 1.341951 -0.77937 1.06066 -1.06066 
C 0.77937 -1.341951 0.397805 -1.5 0 -1.5 
C -0.397805 -1.5 -0.77937 -1.341951 -1.06066 -1.06066 
C -1.341951 -0.77937 -1.5 -0.397805 -1.5 0 
C -1.5 0.397805 -1.341951 0.77937 -1.06066 1.06066 
C -0.77937 1.341951 -0.397805 1.5 0 1.5 
z
" style="stroke: #134a8e"/>
    </defs>
    <g clip-path="url(#pdbed177517)">
     <use xlink:href="#m39c29e77d6" x="68.99642" y="131.138922" style="fill: #134a8e; stroke: #134a8e"/>
     <use xlink:href="#m39c29e77d6" x="70.394416" y="130.609415" style="fill: #134a8e; stroke: #134a8e"/>
     <use xlink:href="#m39c29e77d6" x="71.792412" y="134.277143" style="fill: #134a8e; stroke: #134a8e"/>
     <use xlink:href="#m39c29e77d6" x="73.190408" y="130.346851" style="fill: #134a8e; stroke: #134a8e"/>
     <use xlink:href="#m39c29e77d6" x="74.588403" y="129.647813" style="fill: #134a8e; stroke: #134a8e"/>
     <use xlink:href="#m39c29e77d6" x="75.986399" y="130.874888" style="fill: #134a8e; stroke: #134a8e"/>
     <use xlink:href="#m39c29e77d6" x="77.384395" y="130.363263" style="fill: #134a8e; stroke: #134a8e"/>
     <use xlink:href="#m39c29e77d6" x="78.78239" y="130.267703" style="fill: #134a8e; stroke: #134a8e"/>
     <use xlink:href="#m39c29e77d6" x="80.180386" y="125.094644" style="fill: #134a8e; stroke: #134a8e"/>
     <use xlink:href="#m39c29e77d6" x="81.578382" y="125.658511" style="fill: #134a8e; stroke: #134a8e"/>
     <use xlink:href="#m39c29e77d6" x="82.976378" y="120.813452" style="fill: #134a8e; stroke: #134a8e"/>
     <use xlink:href="#m39c29e77d6" x="84.374373" y="122.055875" style="fill: #134a8e; stroke: #134a8e"/>
     <use xlink:href="#m39c29e77d6" x="85.772369" y="126.196705" style="fill: #134a8e; stroke: #134a8e"/>
     <use xlink:href="#m39c29e77d6" x="87.170365" y="125.667458" style="fill: #134a8e; stroke: #134a8e"/>
     <use xlink:href="#m39c29e77d6" x="88.56836" y="130.976647" style="fill: #134a8e; stroke: #134a8e"/>
     <use xlink:href="#m39c29e77d6" x="89.966356" y="130.145981" style="fill: #134a8e; stroke: #134a8e"/>
     <use xlink:href="#m39c29e77d6" x="91.364352" y="131.301844" style="fill: #134a8e; stroke: #134a8e"/>
     <use xlink:href="#m39c29e77d6" x="92.762347" y="133.512561" style="fill: #134a8e; stroke: #134a8e"/>
     <use xlink:href="#m39c29e77d6" x="94.160343" y="133.559739" style="fill: #134a8e; stroke: #134a8e"/>
     <use xlink:href="#m39c29e77d6" x="95.558339" y="132.806857" style="fill: #134a8e; stroke: #134a8e"/>
     <use xlink:href="#m39c29e77d6" x="96.956335" y="151.756229" style="fill: #134a8e; stroke: #134a8e"/>
     <use xlink:href="#m39c29e77d6" x="98.35433" y="150.197918" style="fill: #134a8e; stroke: #134a8e"/>
     <use xlink:href="#m39c29e77d6" x="99.752326" y="151.514913" style="fill: #134a8e; stroke: #134a8e"/>
     <use xlink:href="#m39c29e77d6" x="101.150322" y="150.05945" style="fill: #134a8e; stroke: #134a8e"/>
     <use xlink:href="#m39c29e77d6" x="102.548317" y="155.350634" style="fill: #134a8e; stroke: #134a8e"/>
     <use xlink:href="#m39c29e77d6" x="103.946313" y="155.371989" style="fill: #134a8e; stroke: #134a8e"/>
     <use xlink:href="#m39c29e77d6" x="105.344309" y="155.903517" style="fill: #134a8e; stroke: #134a8e"/>
     <use xlink:href="#m39c29e77d6" x="106.742304" y="155.371206" style="fill: #134a8e; stroke: #134a8e"/>
     <use xlink:href="#m39c29e77d6" x="108.1403" y="152.848473" style="fill: #134a8e; stroke: #134a8e"/>
     <use xlink:href="#m39c29e77d6" x="109.538296" y="153.079986" style="fill: #134a8e; stroke: #134a8e"/>
     <use xlink:href="#m39c29e77d6" x="110.936292" y="153.217905" style="fill: #134a8e; stroke: #134a8e"/>
     <use xlink:href="#m39c29e77d6" x="112.334287" y="153.206379" style="fill: #134a8e; stroke: #134a8e"/>
     <use xlink:href="#m39c29e77d6" x="113.732283" y="139.083479" style="fill: #134a8e; stroke: #134a8e"/>
     <use xlink:href="#m39c29e77d6" x="115.130279" y="140.853557" style="fill: #134a8e; stroke: #134a8e"/>
     <use xlink:href="#m39c29e77d6" x="116.528274" y="140.180313" style="fill: #134a8e; stroke: #134a8e"/>
     <use xlink:href="#m39c29e77d6" x="117.92627" y="142.464033" style="fill: #134a8e; stroke: #134a8e"/>
     <use xlink:href="#m39c29e77d6" x="119.324266" y="142.342652" style="fill: #134a8e; stroke: #134a8e"/>
     <use xlink:href="#m39c29e77d6" x="120.722262" y="143.281869" style="fill: #134a8e; stroke: #134a8e"/>
     <use xlink:href="#m39c29e77d6" x="122.120257" y="145.785856" style="fill: #134a8e; stroke: #134a8e"/>
     <use xlink:href="#m39c29e77d6" x="123.518253" y="142.946607" style="fill: #134a8e; stroke: #134a8e"/>
     <use xlink:href="#m39c29e77d6" x="124.916249" y="141.89504" style="fill: #134a8e; stroke: #134a8e"/>
     <use xlink:href="#m39c29e77d6" x="126.314244" y="143.246054" style="fill: #134a8e; stroke: #134a8e"/>
     <use xlink:href="#m39c29e77d6" x="127.71224" y="142.778512" style="fill: #134a8e; stroke: #134a8e"/>
     <use xlink:href="#m39c29e77d6" x="129.110236" y="142.719236" style="fill: #134a8e; stroke: #134a8e"/>
     <use xlink:href="#m39c29e77d6" x="130.508231" y="142.654952" style="fill: #134a8e; stroke: #134a8e"/>
     <use xlink:href="#m39c29e77d6" x="131.906227" y="132.14657" style="fill: #134a8e; stroke: #134a8e"/>
     <use xlink:href="#m39c29e77d6" x="133.304223" y="140.632177" style="fill: #134a8e; stroke: #134a8e"/>
     <use xlink:href="#m39c29e77d6" x="134.702219" y="135.911548" style="fill: #134a8e; stroke: #134a8e"/>
     <use xlink:href="#m39c29e77d6" x="136.100214" y="137.454016" style="fill: #134a8e; stroke: #134a8e"/>
     <use xlink:href="#m39c29e77d6" x="137.49821" y="133.666964" style="fill: #134a8e; stroke: #134a8e"/>
     <use xlink:href="#m39c29e77d6" x="138.896206" y="133.480297" style="fill: #134a8e; stroke: #134a8e"/>
     <use xlink:href="#m39c29e77d6" x="140.294201" y="132.776691" style="fill: #134a8e; stroke: #134a8e"/>
     <use xlink:href="#m39c29e77d6" x="141.692197" y="132.192963" style="fill: #134a8e; stroke: #134a8e"/>
     <use xlink:href="#m39c29e77d6" x="143.090193" y="130.571074" style="fill: #134a8e; stroke: #134a8e"/>
     <use xlink:href="#m39c29e77d6" x="144.488189" y="134.307449" style="fill: #134a8e; stroke: #134a8e"/>
     <use xlink:href="#m39c29e77d6" x="145.886184" y="132.534032" style="fill: #134a8e; stroke: #134a8e"/>
     <use xlink:href="#m39c29e77d6" x="147.28418" y="103.950463" style="fill: #134a8e; stroke: #134a8e"/>
     <use xlink:href="#m39c29e77d6" x="148.682176" y="103.711218" style="fill: #134a8e; stroke: #134a8e"/>
     <use xlink:href="#m39c29e77d6" x="150.080171" y="102.874354" style="fill: #134a8e; stroke: #134a8e"/>
     <use xlink:href="#m39c29e77d6" x="151.478167" y="128.336629" style="fill: #134a8e; stroke: #134a8e"/>
     <use xlink:href="#m39c29e77d6" x="152.876163" y="127.823135" style="fill: #134a8e; stroke: #134a8e"/>
     <use xlink:href="#m39c29e77d6" x="154.274158" y="126.980822" style="fill: #134a8e; stroke: #134a8e"/>
     <use xlink:href="#m39c29e77d6" x="155.672154" y="126.643284" style="fill: #134a8e; stroke: #134a8e"/>
     <use xlink:href="#m39c29e77d6" x="157.07015" y="128.838008" style="fill: #134a8e; stroke: #134a8e"/>
     <use xlink:href="#m39c29e77d6" x="158.468146" y="129.77968" style="fill: #134a8e; stroke: #134a8e"/>
     <use xlink:href="#m39c29e77d6" x="159.866141" y="130.109962" style="fill: #134a8e; stroke: #134a8e"/>
     <use xlink:href="#m39c29e77d6" x="161.264137" y="131.314648" style="fill: #134a8e; stroke: #134a8e"/>
     <use xlink:href="#m39c29e77d6" x="162.662133" y="129.754909" style="fill: #134a8e; stroke: #134a8e"/>
     <use xlink:href="#m39c29e77d6" x="164.060128" y="128.124694" style="fill: #134a8e; stroke: #134a8e"/>
     <use xlink:href="#m39c29e77d6" x="165.458124" y="98.40947" style="fill: #134a8e; stroke: #134a8e"/>
     <use xlink:href="#m39c29e77d6" x="166.85612" y="96.788401" style="fill: #134a8e; stroke: #134a8e"/>
     <use xlink:href="#m39c29e77d6" x="168.254116" y="127.006365" style="fill: #134a8e; stroke: #134a8e"/>
     <use xlink:href="#m39c29e77d6" x="169.652111" y="127.317037" style="fill: #134a8e; stroke: #134a8e"/>
     <use xlink:href="#m39c29e77d6" x="171.050107" y="114.522177" style="fill: #134a8e; stroke: #134a8e"/>
     <use xlink:href="#m39c29e77d6" x="172.448103" y="99.738978" style="fill: #134a8e; stroke: #134a8e"/>
     <use xlink:href="#m39c29e77d6" x="173.846098" y="100.163637" style="fill: #134a8e; stroke: #134a8e"/>
     <use xlink:href="#m39c29e77d6" x="175.244094" y="118.596091" style="fill: #134a8e; stroke: #134a8e"/>
     <use xlink:href="#m39c29e77d6" x="176.64209" y="100.064476" style="fill: #134a8e; stroke: #134a8e"/>
     <use xlink:href="#m39c29e77d6" x="178.040085" y="100.034443" style="fill: #134a8e; stroke: #134a8e"/>
     <use xlink:href="#m39c29e77d6" x="179.438081" y="99.182216" style="fill: #134a8e; stroke: #134a8e"/>
     <use xlink:href="#m39c29e77d6" x="180.836077" y="99.039268" style="fill: #134a8e; stroke: #134a8e"/>
     <use xlink:href="#m39c29e77d6" x="182.234073" y="100.18474" style="fill: #134a8e; stroke: #134a8e"/>
     <use xlink:href="#m39c29e77d6" x="183.632068" y="100.254768" style="fill: #134a8e; stroke: #134a8e"/>
     <use xlink:href="#m39c29e77d6" x="185.030064" y="100.946404" style="fill: #134a8e; stroke: #134a8e"/>
     <use xlink:href="#m39c29e77d6" x="186.42806" y="102.509879" style="fill: #134a8e; stroke: #134a8e"/>
     <use xlink:href="#m39c29e77d6" x="187.826055" y="99.508415" style="fill: #134a8e; stroke: #134a8e"/>
     <use xlink:href="#m39c29e77d6" x="189.224051" y="100.67433" style="fill: #134a8e; stroke: #134a8e"/>
     <use xlink:href="#m39c29e77d6" x="190.622047" y="118.047301" style="fill: #134a8e; stroke: #134a8e"/>
     <use xlink:href="#m39c29e77d6" x="192.020043" y="117.313564" style="fill: #134a8e; stroke: #134a8e"/>
     <use xlink:href="#m39c29e77d6" x="193.418038" y="116.552332" style="fill: #134a8e; stroke: #134a8e"/>
     <use xlink:href="#m39c29e77d6" x="194.816034" y="116.368137" style="fill: #134a8e; stroke: #134a8e"/>
     <use xlink:href="#m39c29e77d6" x="196.21403" y="117.63219" style="fill: #134a8e; stroke: #134a8e"/>
     <use xlink:href="#m39c29e77d6" x="197.612025" y="126.33284" style="fill: #134a8e; stroke: #134a8e"/>
     <use xlink:href="#m39c29e77d6" x="199.010021" y="126.237012" style="fill: #134a8e; stroke: #134a8e"/>
     <use xlink:href="#m39c29e77d6" x="200.408017" y="115.858114" style="fill: #134a8e; stroke: #134a8e"/>
     <use xlink:href="#m39c29e77d6" x="201.806012" y="124.86787" style="fill: #134a8e; stroke: #134a8e"/>
     <use xlink:href="#m39c29e77d6" x="203.204008" y="111.475481" style="fill: #134a8e; stroke: #134a8e"/>
     <use xlink:href="#m39c29e77d6" x="204.602004" y="93.718905" style="fill: #134a8e; stroke: #134a8e"/>
     <use xlink:href="#m39c29e77d6" x="206" y="93.37749" style="fill: #134a8e; stroke: #134a8e"/>
     <use xlink:href="#m39c29e77d6" x="207.397995" y="90.925106" style="fill: #134a8e; stroke: #134a8e"/>
     <use xlink:href="#m39c29e77d6" x="208.795991" y="110.573829" style="fill: #134a8e; stroke: #134a8e"/>
     <use xlink:href="#m39c29e77d6" x="210.193987" y="89.488604" style="fill: #134a8e; stroke: #134a8e"/>
     <use xlink:href="#m39c29e77d6" x="211.591982" y="87.413651" style="fill: #134a8e; stroke: #134a8e"/>
     <use xlink:href="#m39c29e77d6" x="212.989978" y="87.764942" style="fill: #134a8e; stroke: #134a8e"/>
     <use xlink:href="#m39c29e77d6" x="214.387974" y="83.963545" style="fill: #134a8e; stroke: #134a8e"/>
     <use xlink:href="#m39c29e77d6" x="215.785969" y="82.566839" style="fill: #134a8e; stroke: #134a8e"/>
     <use xlink:href="#m39c29e77d6" x="217.183965" y="83.867332" style="fill: #134a8e; stroke: #134a8e"/>
     <use xlink:href="#m39c29e77d6" x="218.581961" y="85.001232" style="fill: #134a8e; stroke: #134a8e"/>
     <use xlink:href="#m39c29e77d6" x="219.979957" y="86.284312" style="fill: #134a8e; stroke: #134a8e"/>
     <use xlink:href="#m39c29e77d6" x="221.377952" y="72.395524" style="fill: #134a8e; stroke: #134a8e"/>
     <use xlink:href="#m39c29e77d6" x="222.775948" y="83.583902" style="fill: #134a8e; stroke: #134a8e"/>
     <use xlink:href="#m39c29e77d6" x="224.173944" y="84.047021" style="fill: #134a8e; stroke: #134a8e"/>
     <use xlink:href="#m39c29e77d6" x="225.571939" y="87.164273" style="fill: #134a8e; stroke: #134a8e"/>
     <use xlink:href="#m39c29e77d6" x="226.969935" y="87.296689" style="fill: #134a8e; stroke: #134a8e"/>
     <use xlink:href="#m39c29e77d6" x="228.367931" y="85.91439" style="fill: #134a8e; stroke: #134a8e"/>
     <use xlink:href="#m39c29e77d6" x="229.765927" y="86.105529" style="fill: #134a8e; stroke: #134a8e"/>
     <use xlink:href="#m39c29e77d6" x="231.163922" y="87.478171" style="fill: #134a8e; stroke: #134a8e"/>
     <use xlink:href="#m39c29e77d6" x="232.561918" y="89.74728" style="fill: #134a8e; stroke: #134a8e"/>
     <use xlink:href="#m39c29e77d6" x="233.959914" y="88.247346" style="fill: #134a8e; stroke: #134a8e"/>
     <use xlink:href="#m39c29e77d6" x="235.357909" y="89.460238" style="fill: #134a8e; stroke: #134a8e"/>
     <use xlink:href="#m39c29e77d6" x="236.755905" y="87.924821" style="fill: #134a8e; stroke: #134a8e"/>
     <use xlink:href="#m39c29e77d6" x="238.153901" y="90.608825" style="fill: #134a8e; stroke: #134a8e"/>
     <use xlink:href="#m39c29e77d6" x="239.551896" y="90.956232" style="fill: #134a8e; stroke: #134a8e"/>
     <use xlink:href="#m39c29e77d6" x="240.949892" y="121.527525" style="fill: #134a8e; stroke: #134a8e"/>
     <use xlink:href="#m39c29e77d6" x="242.347888" y="96.495063" style="fill: #134a8e; stroke: #134a8e"/>
     <use xlink:href="#m39c29e77d6" x="243.745884" y="97.946144" style="fill: #134a8e; stroke: #134a8e"/>
     <use xlink:href="#m39c29e77d6" x="245.143879" y="100.113514" style="fill: #134a8e; stroke: #134a8e"/>
     <use xlink:href="#m39c29e77d6" x="246.541875" y="93.737817" style="fill: #134a8e; stroke: #134a8e"/>
     <use xlink:href="#m39c29e77d6" x="247.939871" y="93.300963" style="fill: #134a8e; stroke: #134a8e"/>
     <use xlink:href="#m39c29e77d6" x="249.337866" y="100.811464" style="fill: #134a8e; stroke: #134a8e"/>
     <use xlink:href="#m39c29e77d6" x="250.735862" y="101.061297" style="fill: #134a8e; stroke: #134a8e"/>
     <use xlink:href="#m39c29e77d6" x="252.133858" y="112.954538" style="fill: #134a8e; stroke: #134a8e"/>
     <use xlink:href="#m39c29e77d6" x="253.531854" y="113.172186" style="fill: #134a8e; stroke: #134a8e"/>
     <use xlink:href="#m39c29e77d6" x="254.929849" y="113.196348" style="fill: #134a8e; stroke: #134a8e"/>
     <use xlink:href="#m39c29e77d6" x="256.327845" y="115.166047" style="fill: #134a8e; stroke: #134a8e"/>
     <use xlink:href="#m39c29e77d6" x="257.725841" y="113.646698" style="fill: #134a8e; stroke: #134a8e"/>
     <use xlink:href="#m39c29e77d6" x="259.123836" y="115.218248" style="fill: #134a8e; stroke: #134a8e"/>
     <use xlink:href="#m39c29e77d6" x="260.521832" y="114.318709" style="fill: #134a8e; stroke: #134a8e"/>
     <use xlink:href="#m39c29e77d6" x="261.919828" y="115.194957" style="fill: #134a8e; stroke: #134a8e"/>
     <use xlink:href="#m39c29e77d6" x="263.317823" y="116.121407" style="fill: #134a8e; stroke: #134a8e"/>
     <use xlink:href="#m39c29e77d6" x="264.715819" y="114.783272" style="fill: #134a8e; stroke: #134a8e"/>
     <use xlink:href="#m39c29e77d6" x="266.113815" y="115.883096" style="fill: #134a8e; stroke: #134a8e"/>
     <use xlink:href="#m39c29e77d6" x="267.511811" y="116.832052" style="fill: #134a8e; stroke: #134a8e"/>
     <use xlink:href="#m39c29e77d6" x="268.909806" y="116.852029" style="fill: #134a8e; stroke: #134a8e"/>
     <use xlink:href="#m39c29e77d6" x="270.307802" y="116.140265" style="fill: #134a8e; stroke: #134a8e"/>
     <use xlink:href="#m39c29e77d6" x="271.705798" y="117.417733" style="fill: #134a8e; stroke: #134a8e"/>
     <use xlink:href="#m39c29e77d6" x="273.103793" y="116.859959" style="fill: #134a8e; stroke: #134a8e"/>
     <use xlink:href="#m39c29e77d6" x="274.501789" y="116.951463" style="fill: #134a8e; stroke: #134a8e"/>
     <use xlink:href="#m39c29e77d6" x="275.899785" y="128.263016" style="fill: #134a8e; stroke: #134a8e"/>
     <use xlink:href="#m39c29e77d6" x="277.297781" y="128.026375" style="fill: #134a8e; stroke: #134a8e"/>
     <use xlink:href="#m39c29e77d6" x="278.695776" y="146.495743" style="fill: #134a8e; stroke: #134a8e"/>
     <use xlink:href="#m39c29e77d6" x="280.093772" y="147.126879" style="fill: #134a8e; stroke: #134a8e"/>
     <use xlink:href="#m39c29e77d6" x="281.491768" y="145.940378" style="fill: #134a8e; stroke: #134a8e"/>
     <use xlink:href="#m39c29e77d6" x="282.889763" y="146.135489" style="fill: #134a8e; stroke: #134a8e"/>
     <use xlink:href="#m39c29e77d6" x="284.287759" y="147.224349" style="fill: #134a8e; stroke: #134a8e"/>
     <use xlink:href="#m39c29e77d6" x="285.685755" y="147.46414" style="fill: #134a8e; stroke: #134a8e"/>
     <use xlink:href="#m39c29e77d6" x="287.08375" y="147.271487" style="fill: #134a8e; stroke: #134a8e"/>
     <use xlink:href="#m39c29e77d6" x="288.481746" y="154.658852" style="fill: #134a8e; stroke: #134a8e"/>
     <use xlink:href="#m39c29e77d6" x="289.879742" y="157.194562" style="fill: #134a8e; stroke: #134a8e"/>
     <use xlink:href="#m39c29e77d6" x="291.277738" y="157.238153" style="fill: #134a8e; stroke: #134a8e"/>
     <use xlink:href="#m39c29e77d6" x="292.675733" y="156.101441" style="fill: #134a8e; stroke: #134a8e"/>
     <use xlink:href="#m39c29e77d6" x="294.073729" y="154.805748" style="fill: #134a8e; stroke: #134a8e"/>
     <use xlink:href="#m39c29e77d6" x="295.471725" y="149.234578" style="fill: #134a8e; stroke: #134a8e"/>
     <use xlink:href="#m39c29e77d6" x="296.86972" y="148.258926" style="fill: #134a8e; stroke: #134a8e"/>
     <use xlink:href="#m39c29e77d6" x="298.267716" y="148.897327" style="fill: #134a8e; stroke: #134a8e"/>
     <use xlink:href="#m39c29e77d6" x="299.665712" y="147.753789" style="fill: #134a8e; stroke: #134a8e"/>
     <use xlink:href="#m39c29e77d6" x="301.063707" y="147.865291" style="fill: #134a8e; stroke: #134a8e"/>
     <use xlink:href="#m39c29e77d6" x="302.461703" y="146.43016" style="fill: #134a8e; stroke: #134a8e"/>
     <use xlink:href="#m39c29e77d6" x="303.859699" y="145.946628" style="fill: #134a8e; stroke: #134a8e"/>
     <use xlink:href="#m39c29e77d6" x="305.257695" y="146.31806" style="fill: #134a8e; stroke: #134a8e"/>
     <use xlink:href="#m39c29e77d6" x="306.65569" y="144.914859" style="fill: #134a8e; stroke: #134a8e"/>
     <use xlink:href="#m39c29e77d6" x="308.053686" y="135.415576" style="fill: #134a8e; stroke: #134a8e"/>
     <use xlink:href="#m39c29e77d6" x="309.451682" y="131.419459" style="fill: #134a8e; stroke: #134a8e"/>
     <use xlink:href="#m39c29e77d6" x="310.849677" y="130.909078" style="fill: #134a8e; stroke: #134a8e"/>
     <use xlink:href="#m39c29e77d6" x="312.247673" y="119.516394" style="fill: #134a8e; stroke: #134a8e"/>
     <use xlink:href="#m39c29e77d6" x="313.645669" y="118.451478" style="fill: #134a8e; stroke: #134a8e"/>
     <use xlink:href="#m39c29e77d6" x="315.043665" y="118.334218" style="fill: #134a8e; stroke: #134a8e"/>
     <use xlink:href="#m39c29e77d6" x="316.44166" y="118.471665" style="fill: #134a8e; stroke: #134a8e"/>
     <use xlink:href="#m39c29e77d6" x="317.839656" y="118.982481" style="fill: #134a8e; stroke: #134a8e"/>
     <use xlink:href="#m39c29e77d6" x="319.237652" y="116.538544" style="fill: #134a8e; stroke: #134a8e"/>
     <use xlink:href="#m39c29e77d6" x="320.635647" y="118.269031" style="fill: #134a8e; stroke: #134a8e"/>
     <use xlink:href="#m39c29e77d6" x="322.033643" y="119.210591" style="fill: #134a8e; stroke: #134a8e"/>
     <use xlink:href="#m39c29e77d6" x="323.431639" y="119.299762" style="fill: #134a8e; stroke: #134a8e"/>
     <use xlink:href="#m39c29e77d6" x="324.829634" y="119.46608" style="fill: #134a8e; stroke: #134a8e"/>
     <use xlink:href="#m39c29e77d6" x="326.22763" y="118.220348" style="fill: #134a8e; stroke: #134a8e"/>
     <use xlink:href="#m39c29e77d6" x="327.625626" y="119.114562" style="fill: #134a8e; stroke: #134a8e"/>
     <use xlink:href="#m39c29e77d6" x="329.023622" y="120.143752" style="fill: #134a8e; stroke: #134a8e"/>
     <use xlink:href="#m39c29e77d6" x="330.421617" y="120.402194" style="fill: #134a8e; stroke: #134a8e"/>
     <use xlink:href="#m39c29e77d6" x="331.819613" y="133.259214" style="fill: #134a8e; stroke: #134a8e"/>
     <use xlink:href="#m39c29e77d6" x="333.217609" y="134.06401" style="fill: #134a8e; stroke: #134a8e"/>
     <use xlink:href="#m39c29e77d6" x="334.615604" y="134.339725" style="fill: #134a8e; stroke: #134a8e"/>
     <use xlink:href="#m39c29e77d6" x="336.0136" y="133.928453" style="fill: #134a8e; stroke: #134a8e"/>
     <use xlink:href="#m39c29e77d6" x="337.411596" y="155.077727" style="fill: #134a8e; stroke: #134a8e"/>
     <use xlink:href="#m39c29e77d6" x="338.809592" y="145.630716" style="fill: #134a8e; stroke: #134a8e"/>
     <use xlink:href="#m39c29e77d6" x="340.207587" y="148.401727" style="fill: #134a8e; stroke: #134a8e"/>
     <use xlink:href="#m39c29e77d6" x="341.605583" y="147.695217" style="fill: #134a8e; stroke: #134a8e"/>
     <use xlink:href="#m39c29e77d6" x="343.003579" y="147.901917" style="fill: #134a8e; stroke: #134a8e"/>
     <use xlink:href="#m39c29e77d6" x="344.401574" y="147.956564" style="fill: #134a8e; stroke: #134a8e"/>
     <use xlink:href="#m39c29e77d6" x="345.79957" y="154.659733" style="fill: #134a8e; stroke: #134a8e"/>
     <use xlink:href="#m39c29e77d6" x="347.197566" y="146.927137" style="fill: #134a8e; stroke: #134a8e"/>
     <use xlink:href="#m39c29e77d6" x="348.595561" y="144.356982" style="fill: #134a8e; stroke: #134a8e"/>
     <use xlink:href="#m39c29e77d6" x="349.993557" y="143.127131" style="fill: #134a8e; stroke: #134a8e"/>
     <use xlink:href="#m39c29e77d6" x="351.391553" y="143.194136" style="fill: #134a8e; stroke: #134a8e"/>
     <use xlink:href="#m39c29e77d6" x="352.789549" y="142.653242" style="fill: #134a8e; stroke: #134a8e"/>
     <use xlink:href="#m39c29e77d6" x="354.187544" y="110.931137" style="fill: #134a8e; stroke: #134a8e"/>
     <use xlink:href="#m39c29e77d6" x="355.58554" y="128.700755" style="fill: #134a8e; stroke: #134a8e"/>
     <use xlink:href="#m39c29e77d6" x="356.983536" y="111.962824" style="fill: #134a8e; stroke: #134a8e"/>
     <use xlink:href="#m39c29e77d6" x="358.381531" y="49.334465" style="fill: #134a8e; stroke: #134a8e"/>
     <use xlink:href="#m39c29e77d6" x="359.779527" y="45.20609" style="fill: #134a8e; stroke: #134a8e"/>
     <use xlink:href="#m39c29e77d6" x="361.177523" y="35.961188" style="fill: #134a8e; stroke: #134a8e"/>
     <use xlink:href="#m39c29e77d6" x="362.575519" y="37.748034" style="fill: #134a8e; stroke: #134a8e"/>
     <use xlink:href="#m39c29e77d6" x="363.973514" y="36.76204" style="fill: #134a8e; stroke: #134a8e"/>
     <use xlink:href="#m39c29e77d6" x="365.37151" y="34.591365" style="fill: #134a8e; stroke: #134a8e"/>
     <use xlink:href="#m39c29e77d6" x="366.769506" y="30.547975" style="fill: #134a8e; stroke: #134a8e"/>
     <use xlink:href="#m39c29e77d6" x="368.167501" y="31.528457" style="fill: #134a8e; stroke: #134a8e"/>
     <use xlink:href="#m39c29e77d6" x="369.565497" y="30.867081" style="fill: #134a8e; stroke: #134a8e"/>
     <use xlink:href="#m39c29e77d6" x="370.963493" y="32.478268" style="fill: #134a8e; stroke: #134a8e"/>
     <use xlink:href="#m39c29e77d6" x="372.361488" y="32.608691" style="fill: #134a8e; stroke: #134a8e"/>
     <use xlink:href="#m39c29e77d6" x="373.759484" y="32.595148" style="fill: #134a8e; stroke: #134a8e"/>
     <use xlink:href="#m39c29e77d6" x="375.15748" y="26.841898" style="fill: #134a8e; stroke: #134a8e"/>
     <use xlink:href="#m39c29e77d6" x="376.555476" y="27.377511" style="fill: #134a8e; stroke: #134a8e"/>
     <use xlink:href="#m39c29e77d6" x="377.953471" y="39.346159" style="fill: #134a8e; stroke: #134a8e"/>
     <use xlink:href="#m39c29e77d6" x="379.351467" y="35.826474" style="fill: #134a8e; stroke: #134a8e"/>
     <use xlink:href="#m39c29e77d6" x="380.749463" y="29.756038" style="fill: #134a8e; stroke: #134a8e"/>
     <use xlink:href="#m39c29e77d6" x="382.147458" y="33.018797" style="fill: #134a8e; stroke: #134a8e"/>
     <use xlink:href="#m39c29e77d6" x="383.545454" y="68.155835" style="fill: #134a8e; stroke: #134a8e"/>
     <use xlink:href="#m39c29e77d6" x="384.94345" y="66.511441" style="fill: #134a8e; stroke: #134a8e"/>
     <use xlink:href="#m39c29e77d6" x="386.341446" y="67.02106" style="fill: #134a8e; stroke: #134a8e"/>
     <use xlink:href="#m39c29e77d6" x="387.739441" y="67.537381" style="fill: #134a8e; stroke: #134a8e"/>
     <use xlink:href="#m39c29e77d6" x="389.137437" y="68.235529" style="fill: #134a8e; stroke: #134a8e"/>
     <use xlink:href="#m39c29e77d6" x="390.535433" y="74.837183" style="fill: #134a8e; stroke: #134a8e"/>
     <use xlink:href="#m39c29e77d6" x="391.933428" y="72.601795" style="fill: #134a8e; stroke: #134a8e"/>
     <use xlink:href="#m39c29e77d6" x="393.331424" y="107.950171" style="fill: #134a8e; stroke: #134a8e"/>
     <use xlink:href="#m39c29e77d6" x="394.72942" y="108.570094" style="fill: #134a8e; stroke: #134a8e"/>
     <use xlink:href="#m39c29e77d6" x="396.127415" y="108.48288" style="fill: #134a8e; stroke: #134a8e"/>
     <use xlink:href="#m39c29e77d6" x="397.525411" y="115.579372" style="fill: #134a8e; stroke: #134a8e"/>
     <use xlink:href="#m39c29e77d6" x="398.923407" y="128.064663" style="fill: #134a8e; stroke: #134a8e"/>
     <use xlink:href="#m39c29e77d6" x="400.321403" y="127.196166" style="fill: #134a8e; stroke: #134a8e"/>
     <use xlink:href="#m39c29e77d6" x="401.719398" y="128.168994" style="fill: #134a8e; stroke: #134a8e"/>
     <use xlink:href="#m39c29e77d6" x="403.117394" y="132.931359" style="fill: #134a8e; stroke: #134a8e"/>
     <use xlink:href="#m39c29e77d6" x="404.51539" y="137.697288" style="fill: #134a8e; stroke: #134a8e"/>
     <use xlink:href="#m39c29e77d6" x="405.913385" y="137.127322" style="fill: #134a8e; stroke: #134a8e"/>
     <use xlink:href="#m39c29e77d6" x="407.311381" y="140.08815" style="fill: #134a8e; stroke: #134a8e"/>
     <use xlink:href="#m39c29e77d6" x="408.709377" y="138.949074" style="fill: #134a8e; stroke: #134a8e"/>
     <use xlink:href="#m39c29e77d6" x="410.107372" y="139.635671" style="fill: #134a8e; stroke: #134a8e"/>
     <use xlink:href="#m39c29e77d6" x="411.505368" y="140.154142" style="fill: #134a8e; stroke: #134a8e"/>
     <use xlink:href="#m39c29e77d6" x="412.903364" y="141.153323" style="fill: #134a8e; stroke: #134a8e"/>
     <use xlink:href="#m39c29e77d6" x="414.30136" y="150.902197" style="fill: #134a8e; stroke: #134a8e"/>
     <use xlink:href="#m39c29e77d6" x="415.699355" y="141.338407" style="fill: #134a8e; stroke: #134a8e"/>
     <use xlink:href="#m39c29e77d6" x="417.097351" y="152.375323" style="fill: #134a8e; stroke: #134a8e"/>
     <use xlink:href="#m39c29e77d6" x="418.495347" y="152.157227" style="fill: #134a8e; stroke: #134a8e"/>
     <use xlink:href="#m39c29e77d6" x="419.893342" y="152.122596" style="fill: #134a8e; stroke: #134a8e"/>
     <use xlink:href="#m39c29e77d6" x="421.291338" y="152.368481" style="fill: #134a8e; stroke: #134a8e"/>
     <use xlink:href="#m39c29e77d6" x="422.689334" y="151.246316" style="fill: #134a8e; stroke: #134a8e"/>
     <use xlink:href="#m39c29e77d6" x="424.08733" y="151.249235" style="fill: #134a8e; stroke: #134a8e"/>
    </g>
   </g>
   <g id="line2d_24">
    <path d="M 68.99642 142.570286 
L 70.394416 142.641419 
L 71.792412 147.063241 
L 73.190408 146.186133 
L 74.588403 146.39556 
L 75.986399 146.350793 
L 77.384395 141.507157 
L 78.78239 141.547329 
L 81.578382 140.952526 
L 82.976378 135.957954 
L 84.374373 135.576529 
L 85.772369 139.208771 
L 87.170365 140.765851 
L 88.56836 146.082989 
L 89.966356 146.459745 
L 91.364352 146.536392 
L 92.762347 147.190171 
L 95.558339 146.667045 
L 96.956335 150.784412 
L 98.35433 151.504543 
L 99.752326 151.473288 
L 101.150322 151.582739 
L 102.548317 156.385288 
L 103.946313 156.466 
L 105.344309 156.813289 
L 108.1403 156.260783 
L 109.538296 156.371305 
L 112.334287 156.190552 
L 113.732283 151.188387 
L 115.130279 146.781895 
L 116.528274 147.630689 
L 117.92627 146.084985 
L 119.324266 147.159016 
L 120.722262 146.987302 
L 122.120257 151.817489 
L 123.518253 147.335576 
L 124.916249 142.444317 
L 126.314244 142.103796 
L 127.71224 142.014954 
L 130.508231 142.499551 
L 131.906227 132.596622 
L 133.304223 137.358996 
L 134.702219 136.936966 
L 136.100214 137.219016 
L 137.49821 132.830211 
L 138.896206 132.72961 
L 140.294201 134.188788 
L 141.692197 130.315902 
L 144.488189 139.608104 
L 145.886184 136.49122 
L 147.28418 120.248857 
L 148.682176 116.249754 
L 150.080171 117.743093 
L 151.478167 126.714731 
L 152.876163 127.591367 
L 154.274158 131.835808 
L 155.672154 133.063459 
L 157.07015 136.413928 
L 158.468146 137.165035 
L 159.866141 137.326281 
L 161.264137 141.426025 
L 162.662133 136.823343 
L 164.060128 135.234443 
L 165.458124 119.362016 
L 166.85612 119.469013 
L 168.254116 124.601802 
L 169.652111 125.770112 
L 171.050107 122.46657 
L 172.448103 121.495573 
L 173.846098 122.579979 
L 175.244094 125.437787 
L 176.64209 115.119854 
L 178.040085 112.639784 
L 179.438081 113.092286 
L 180.836077 108.825853 
L 182.234073 106.579509 
L 183.632068 106.788577 
L 185.030064 117.100687 
L 186.42806 118.866261 
L 187.826055 123.118466 
L 189.224051 122.31668 
L 190.622047 124.092166 
L 192.020043 126.887444 
L 193.418038 126.448677 
L 194.816034 124.24295 
L 196.21403 125.576011 
L 197.612025 127.546682 
L 199.010021 127.969565 
L 200.408017 122.276653 
L 201.806012 126.337907 
L 203.204008 120.053669 
L 204.602004 116.360541 
L 206 115.338014 
L 207.397995 113.384337 
L 208.795991 117.390089 
L 210.193987 114.167628 
L 211.591982 104.564112 
L 212.989978 101.08116 
L 214.387974 95.997864 
L 215.785969 89.945701 
L 217.183965 94.821038 
L 218.581961 93.680192 
L 219.979957 93.293964 
L 221.377952 81.518809 
L 222.775948 92.624867 
L 224.173944 97.045863 
L 225.571939 97.377522 
L 226.969935 100.470288 
L 228.367931 98.068575 
L 229.765927 98.885947 
L 231.163922 105.327435 
L 232.561918 107.127512 
L 233.959914 108.62525 
L 235.357909 115.689775 
L 236.755905 111.9656 
L 238.153901 113.313719 
L 239.551896 116.385822 
L 240.949892 123.497124 
L 242.347888 120.161568 
L 243.745884 121.006944 
L 245.143879 122.650108 
L 246.541875 116.655373 
L 247.939871 116.866779 
L 249.337866 119.445 
L 250.735862 122.958015 
L 253.531854 127.957142 
L 254.929849 128.598013 
L 257.725841 130.117106 
L 259.123836 125.254288 
L 260.521832 124.063108 
L 261.919828 125.006382 
L 263.317823 125.775626 
L 264.715819 124.829754 
L 266.113815 130.400726 
L 267.511811 130.118875 
L 268.909806 130.729844 
L 270.307802 124.707196 
L 271.705798 123.696263 
L 273.103793 134.59053 
L 274.501789 134.520451 
L 275.899785 136.62581 
L 277.297781 136.544599 
L 278.695776 147.986458 
L 280.093772 150.972978 
L 281.491768 149.117758 
L 282.889763 148.029117 
L 284.287759 149.939035 
L 285.685755 150.467333 
L 287.08375 153.06453 
L 288.481746 156.602332 
L 289.879742 158.594519 
L 291.277738 158.76 
L 292.675733 157.529478 
L 294.073729 156.595945 
L 295.471725 154.510944 
L 296.86972 155.225115 
L 298.267716 154.020175 
L 299.665712 152.60787 
L 301.063707 152.372115 
L 302.461703 150.940716 
L 303.859699 150.901353 
L 305.257695 150.199174 
L 306.65569 148.649981 
L 308.053686 141.909101 
L 309.451682 138.781037 
L 310.849677 138.063667 
L 312.247673 130.733026 
L 313.645669 129.199487 
L 315.043665 129.565044 
L 316.44166 129.277461 
L 317.839656 121.060944 
L 319.237652 121.276255 
L 322.033643 125.665381 
L 323.431639 125.401843 
L 324.829634 123.8676 
L 326.22763 120.567762 
L 327.625626 124.361701 
L 329.023622 126.652415 
L 330.421617 125.603511 
L 331.819613 135.136151 
L 333.217609 139.392636 
L 334.615604 140.230992 
L 336.0136 139.997538 
L 337.411596 156.389385 
L 338.809592 151.070762 
L 340.207587 153.52013 
L 341.605583 153.369337 
L 344.401574 153.231725 
L 345.79957 155.943192 
L 347.197566 153.573578 
L 349.993557 143.395778 
L 351.391553 143.878518 
L 352.789549 143.875652 
L 354.187544 122.745006 
L 355.58554 131.238069 
L 356.983536 125.523509 
L 358.381531 70.088884 
L 359.779527 62.615598 
L 361.177523 67.134337 
L 362.575519 66.862864 
L 363.973514 59.268912 
L 365.37151 57.493841 
L 366.769506 51.238189 
L 368.167501 55.228898 
L 369.565497 53.647882 
L 370.963493 56.671293 
L 372.361488 56.49956 
L 373.759484 42.456108 
L 375.15748 39.048486 
L 376.555476 39.430177 
L 377.953471 69.890159 
L 379.351467 64.912131 
L 380.749463 68.784841 
L 382.147458 68.881417 
L 383.545454 72.066178 
L 384.94345 75.857984 
L 386.341446 83.899292 
L 387.739441 85.838317 
L 389.137437 91.107547 
L 390.535433 95.030342 
L 391.933428 95.174819 
L 393.331424 117.233571 
L 394.72942 114.830335 
L 396.127415 122.683026 
L 397.525411 125.263286 
L 398.923407 132.452555 
L 400.321403 134.51355 
L 401.719398 134.519891 
L 403.117394 139.583984 
L 404.51539 141.965158 
L 405.913385 143.38449 
L 407.311381 146.158464 
L 408.709377 148.370988 
L 410.107372 148.637344 
L 411.505368 148.663547 
L 412.903364 148.42501 
L 414.30136 152.52904 
L 415.699355 151.403834 
L 417.097351 154.296019 
L 418.495347 154.505542 
L 419.893342 154.289394 
L 421.291338 155.29199 
L 422.689334 152.87767 
L 424.08733 152.864038 
L 424.08733 152.864038 
" clip-path="url(#pdbed177517)" style="fill: none; stroke-dasharray: 5.55,2.4; stroke-dashoffset: 0; stroke: #000000; stroke-width: 1.5"/>
   </g>
   <g id="patch_3">
    <path d="M 51.241875 166.32 
L 51.241875 -0 
" style="fill: none; stroke: #ffffff; stroke-linejoin: miter; stroke-linecap: square"/>
   </g>
   <g id="patch_4">
    <path d="M 441.841875 166.32 
L 441.841875 -0 
" style="fill: none; stroke: #ffffff; stroke-linejoin: miter; stroke-linecap: square"/>
   </g>
   <g id="patch_5">
    <path d="M 51.241875 166.32 
L 441.841875 166.32 
" style="fill: none; stroke: #ffffff; stroke-linejoin: miter; stroke-linecap: square"/>
   </g>
   <g id="patch_6">
    <path d="M 51.241875 -0 
L 441.841875 -0 
" style="fill: none; stroke: #ffffff; stroke-linejoin: miter; stroke-linecap: square"/>
   </g>
   <g id="legend_1">
    <g id="patch_7">
     <path d="M 58.241875 60.378125 
L 210.28875 60.378125 
Q 212.28875 60.378125 212.28875 58.378125 
L 212.28875 7 
Q 212.28875 5 210.28875 5 
L 58.241875 5 
Q 56.241875 5 56.241875 7 
L 56.241875 58.378125 
Q 56.241875 60.378125 58.241875 60.378125 
z
" style="fill: #e5e5e5; opacity: 0.8; stroke: #cccccc; stroke-width: 0.5; stroke-linejoin: miter"/>
    </g>
    <g id="line2d_25">
     <path d="M 60.241875 15.5 
L 70.241875 15.5 
L 80.241875 15.5 
" style="fill: none; stroke: #134a8e; stroke-width: 3; stroke-linecap: square"/>
     <g>
      <use xlink:href="#m39c29e77d6" x="70.241875" y="15.5" style="fill: #134a8e; stroke: #134a8e"/>
     </g>
    </g>
    <g id="text_14">
     <!-- Private Value $\tilde{R}_{\chi_1,\chi_3}^t$ -->
     <g transform="translate(88.241875 19) scale(0.1 -0.1)">
      <defs>
       <path id="DejaVuSans-50" d="M 1259 4147 
L 1259 2394 
L 2053 2394 
Q 2494 2394 2734 2622 
Q 2975 2850 2975 3272 
Q 2975 3691 2734 3919 
Q 2494 4147 2053 4147 
L 1259 4147 
z
M 628 4666 
L 2053 4666 
Q 2838 4666 3239 4311 
Q 3641 3956 3641 3272 
Q 3641 2581 3239 2228 
Q 2838 1875 2053 1875 
L 1259 1875 
L 1259 0 
L 628 0 
L 628 4666 
z
" transform="scale(0.015625)"/>
       <path id="DejaVuSans-72" d="M 2631 2963 
Q 2534 3019 2420 3045 
Q 2306 3072 2169 3072 
Q 1681 3072 1420 2755 
Q 1159 2438 1159 1844 
L 1159 0 
L 581 0 
L 581 3500 
L 1159 3500 
L 1159 2956 
Q 1341 3275 1631 3429 
Q 1922 3584 2338 3584 
Q 2397 3584 2469 3576 
Q 2541 3569 2628 3553 
L 2631 2963 
z
" transform="scale(0.015625)"/>
       <path id="DejaVuSans-69" d="M 603 3500 
L 1178 3500 
L 1178 0 
L 603 0 
L 603 3500 
z
M 603 4863 
L 1178 4863 
L 1178 4134 
L 603 4134 
L 603 4863 
z
" transform="scale(0.015625)"/>
       <path id="DejaVuSans-76" d="M 191 3500 
L 800 3500 
L 1894 563 
L 2988 3500 
L 3597 3500 
L 2284 0 
L 1503 0 
L 191 3500 
z
" transform="scale(0.015625)"/>
       <path id="DejaVuSans-20" transform="scale(0.015625)"/>
       <path id="DejaVuSans-303" d="M -1621 4281 
L -1799 4453 
Q -1867 4516 -1919 4545 
Q -1971 4575 -2011 4575 
Q -2130 4575 -2186 4461 
Q -2242 4347 -2249 4091 
L -2639 4091 
Q -2633 4513 -2473 4742 
Q -2314 4972 -2030 4972 
Q -1911 4972 -1811 4928 
Q -1711 4884 -1596 4781 
L -1417 4609 
Q -1349 4547 -1297 4517 
Q -1246 4488 -1205 4488 
Q -1086 4488 -1030 4602 
Q -974 4716 -967 4972 
L -577 4972 
Q -583 4550 -742 4320 
Q -902 4091 -1186 4091 
Q -1305 4091 -1405 4134 
Q -1505 4178 -1621 4281 
z
" transform="scale(0.015625)"/>
       <path id="DejaVuSans-Oblique-52" d="M 1613 4147 
L 1294 2491 
L 2106 2491 
Q 2584 2491 2879 2755 
Q 3175 3019 3175 3444 
Q 3175 3784 2976 3965 
Q 2778 4147 2406 4147 
L 1613 4147 
z
M 2772 2241 
Q 2972 2194 3105 2009 
Q 3238 1825 3413 1275 
L 3809 0 
L 3144 0 
L 2778 1197 
Q 2638 1659 2453 1815 
Q 2269 1972 1888 1972 
L 1191 1972 
L 806 0 
L 172 0 
L 1081 4666 
L 2503 4666 
Q 3150 4666 3495 4373 
Q 3841 4081 3841 3531 
Q 3841 3044 3547 2687 
Q 3253 2331 2772 2241 
z
" transform="scale(0.015625)"/>
       <path id="DejaVuSans-Oblique-74" d="M 2706 3500 
L 2619 3053 
L 1472 3053 
L 1100 1153 
Q 1081 1047 1072 975 
Q 1063 903 1063 863 
Q 1063 663 1183 572 
Q 1303 481 1569 481 
L 2150 481 
L 2053 0 
L 1503 0 
Q 991 0 739 200 
Q 488 400 488 806 
Q 488 878 497 964 
Q 506 1050 525 1153 
L 897 3053 
L 409 3053 
L 500 3500 
L 978 3500 
L 1172 4494 
L 1747 4494 
L 1556 3500 
L 2706 3500 
z
" transform="scale(0.015625)"/>
       <path id="DejaVuSans-Oblique-3c7" d="M 1922 -781 
L 1691 416 
L 394 -1334 
L -284 -1334 
L 1553 1141 
L 1269 2613 
Q 1194 3006 713 3006 
L 559 3006 
L 653 3500 
L 872 3494 
Q 1675 3472 1775 2950 
L 2006 1753 
L 3303 3503 
L 3981 3503 
L 2144 1028 
L 2428 -444 
Q 2503 -838 2984 -838 
L 3138 -838 
L 3044 -1331 
L 2825 -1325 
Q 2022 -1303 1922 -781 
z
" transform="scale(0.015625)"/>
       <path id="DejaVuSans-2c" d="M 750 794 
L 1409 794 
L 1409 256 
L 897 -744 
L 494 -744 
L 750 256 
L 750 794 
z
" transform="scale(0.015625)"/>
      </defs>
      <use xlink:href="#DejaVuSans-50" transform="translate(0 0.828125)"/>
      <use xlink:href="#DejaVuSans-72" transform="translate(60.302734 0.828125)"/>
      <use xlink:href="#DejaVuSans-69" transform="translate(101.416016 0.828125)"/>
      <use xlink:href="#DejaVuSans-76" transform="translate(129.199219 0.828125)"/>
      <use xlink:href="#DejaVuSans-61" transform="translate(188.378906 0.828125)"/>
      <use xlink:href="#DejaVuSans-74" transform="translate(249.658203 0.828125)"/>
      <use xlink:href="#DejaVuSans-65" transform="translate(288.867188 0.828125)"/>
      <use xlink:href="#DejaVuSans-20" transform="translate(350.390625 0.828125)"/>
      <use xlink:href="#DejaVuSans-56" transform="translate(382.177734 0.828125)"/>
      <use xlink:href="#DejaVuSans-61" transform="translate(450.585938 0.828125)"/>
      <use xlink:href="#DejaVuSans-6c" transform="translate(511.865234 0.828125)"/>
      <use xlink:href="#DejaVuSans-75" transform="translate(539.648438 0.828125)"/>
      <use xlink:href="#DejaVuSans-65" transform="translate(603.027344 0.828125)"/>
      <use xlink:href="#DejaVuSans-20" transform="translate(664.550781 0.828125)"/>
      <use xlink:href="#DejaVuSans-303" transform="translate(764.942871 22.3125)"/>
      <use xlink:href="#DejaVuSans-Oblique-52" transform="translate(696.337891 0.828125)"/>
      <use xlink:href="#DejaVuSans-Oblique-74" transform="translate(766.777344 39.109375) scale(0.7)"/>
      <use xlink:href="#DejaVuSans-Oblique-3c7" transform="translate(766.777344 -26.515625) scale(0.7)"/>
      <use xlink:href="#DejaVuSans-31" transform="translate(808.203125 -38) scale(0.49)"/>
      <use xlink:href="#DejaVuSans-2c" transform="translate(841.29248 -26.515625) scale(0.7)"/>
      <use xlink:href="#DejaVuSans-Oblique-3c7" transform="translate(877.181152 -26.515625) scale(0.7)"/>
      <use xlink:href="#DejaVuSans-33" transform="translate(918.606934 -38) scale(0.49)"/>
     </g>
    </g>
    <g id="line2d_26">
     <path d="M 60.241875 34 
L 70.241875 34 
L 80.241875 34 
" style="fill: none; stroke-dasharray: 5.55,2.4; stroke-dashoffset: 0; stroke: #000000; stroke-width: 1.5"/>
    </g>
    <g id="text_15">
     <!-- Original Value $\bar{R}_{\chi_1,\chi_3}^t$ -->
     <g transform="translate(88.241875 37.5) scale(0.1 -0.1)">
      <defs>
       <path id="DejaVuSans-4f" d="M 2522 4238 
Q 1834 4238 1429 3725 
Q 1025 3213 1025 2328 
Q 1025 1447 1429 934 
Q 1834 422 2522 422 
Q 3209 422 3611 934 
Q 4013 1447 4013 2328 
Q 4013 3213 3611 3725 
Q 3209 4238 2522 4238 
z
M 2522 4750 
Q 3503 4750 4090 4092 
Q 4678 3434 4678 2328 
Q 4678 1225 4090 567 
Q 3503 -91 2522 -91 
Q 1538 -91 948 565 
Q 359 1222 359 2328 
Q 359 3434 948 4092 
Q 1538 4750 2522 4750 
z
" transform="scale(0.015625)"/>
       <path id="DejaVuSans-67" d="M 2906 1791 
Q 2906 2416 2648 2759 
Q 2391 3103 1925 3103 
Q 1463 3103 1205 2759 
Q 947 2416 947 1791 
Q 947 1169 1205 825 
Q 1463 481 1925 481 
Q 2391 481 2648 825 
Q 2906 1169 2906 1791 
z
M 3481 434 
Q 3481 -459 3084 -895 
Q 2688 -1331 1869 -1331 
Q 1566 -1331 1297 -1286 
Q 1028 -1241 775 -1147 
L 775 -588 
Q 1028 -725 1275 -790 
Q 1522 -856 1778 -856 
Q 2344 -856 2625 -561 
Q 2906 -266 2906 331 
L 2906 616 
Q 2728 306 2450 153 
Q 2172 0 1784 0 
Q 1141 0 747 490 
Q 353 981 353 1791 
Q 353 2603 747 3093 
Q 1141 3584 1784 3584 
Q 2172 3584 2450 3431 
Q 2728 3278 2906 2969 
L 2906 3500 
L 3481 3500 
L 3481 434 
z
" transform="scale(0.015625)"/>
       <path id="DejaVuSans-6e" d="M 3513 2113 
L 3513 0 
L 2938 0 
L 2938 2094 
Q 2938 2591 2744 2837 
Q 2550 3084 2163 3084 
Q 1697 3084 1428 2787 
Q 1159 2491 1159 1978 
L 1159 0 
L 581 0 
L 581 3500 
L 1159 3500 
L 1159 2956 
Q 1366 3272 1645 3428 
Q 1925 3584 2291 3584 
Q 2894 3584 3203 3211 
Q 3513 2838 3513 2113 
z
" transform="scale(0.015625)"/>
       <path id="DejaVuSans-304" d="M -2518 4769 
L -650 4769 
L -650 4306 
L -2518 4306 
L -2518 4769 
z
" transform="scale(0.015625)"/>
      </defs>
      <use xlink:href="#DejaVuSans-4f" transform="translate(0 0.359375)"/>
      <use xlink:href="#DejaVuSans-72" transform="translate(78.710938 0.359375)"/>
      <use xlink:href="#DejaVuSans-69" transform="translate(119.824219 0.359375)"/>
      <use xlink:href="#DejaVuSans-67" transform="translate(147.607422 0.359375)"/>
      <use xlink:href="#DejaVuSans-69" transform="translate(211.083984 0.359375)"/>
      <use xlink:href="#DejaVuSans-6e" transform="translate(238.867188 0.359375)"/>
      <use xlink:href="#DejaVuSans-61" transform="translate(302.246094 0.359375)"/>
      <use xlink:href="#DejaVuSans-6c" transform="translate(363.525391 0.359375)"/>
      <use xlink:href="#DejaVuSans-20" transform="translate(391.308594 0.359375)"/>
      <use xlink:href="#DejaVuSans-56" transform="translate(423.095703 0.359375)"/>
      <use xlink:href="#DejaVuSans-61" transform="translate(491.503906 0.359375)"/>
      <use xlink:href="#DejaVuSans-6c" transform="translate(552.783203 0.359375)"/>
      <use xlink:href="#DejaVuSans-75" transform="translate(580.566406 0.359375)"/>
      <use xlink:href="#DejaVuSans-65" transform="translate(643.945312 0.359375)"/>
      <use xlink:href="#DejaVuSans-20" transform="translate(705.46875 0.359375)"/>
      <use xlink:href="#DejaVuSans-304" transform="translate(804.970215 18.484375)"/>
      <use xlink:href="#DejaVuSans-Oblique-52" transform="translate(737.255859 0.359375)"/>
      <use xlink:href="#DejaVuSans-Oblique-74" transform="translate(807.695312 38.640625) scale(0.7)"/>
      <use xlink:href="#DejaVuSans-Oblique-3c7" transform="translate(807.695312 -26.984375) scale(0.7)"/>
      <use xlink:href="#DejaVuSans-31" transform="translate(849.121094 -38.46875) scale(0.49)"/>
      <use xlink:href="#DejaVuSans-2c" transform="translate(882.210449 -26.984375) scale(0.7)"/>
      <use xlink:href="#DejaVuSans-Oblique-3c7" transform="translate(918.099121 -26.984375) scale(0.7)"/>
      <use xlink:href="#DejaVuSans-33" transform="translate(959.524902 -38.46875) scale(0.49)"/>
     </g>
    </g>
    <g id="patch_8">
     <path d="M 60.241875 54.298437 
L 80.241875 54.298437 
L 80.241875 47.298437 
L 60.241875 47.298437 
z
" style="fill: #134a8e; fill-opacity: 0.5; stroke: #134a8e; stroke-opacity: 0.5; stroke-width: 0.5; stroke-linejoin: miter"/>
    </g>
    <g id="text_16">
     <!-- One Standard Deviation -->
     <g transform="translate(88.241875 54.298437) scale(0.1 -0.1)">
      <defs>
       <path id="DejaVuSans-53" d="M 3425 4513 
L 3425 3897 
Q 3066 4069 2747 4153 
Q 2428 4238 2131 4238 
Q 1616 4238 1336 4038 
Q 1056 3838 1056 3469 
Q 1056 3159 1242 3001 
Q 1428 2844 1947 2747 
L 2328 2669 
Q 3034 2534 3370 2195 
Q 3706 1856 3706 1288 
Q 3706 609 3251 259 
Q 2797 -91 1919 -91 
Q 1588 -91 1214 -16 
Q 841 59 441 206 
L 441 856 
Q 825 641 1194 531 
Q 1563 422 1919 422 
Q 2459 422 2753 634 
Q 3047 847 3047 1241 
Q 3047 1584 2836 1778 
Q 2625 1972 2144 2069 
L 1759 2144 
Q 1053 2284 737 2584 
Q 422 2884 422 3419 
Q 422 4038 858 4394 
Q 1294 4750 2059 4750 
Q 2388 4750 2728 4690 
Q 3069 4631 3425 4513 
z
" transform="scale(0.015625)"/>
       <path id="DejaVuSans-64" d="M 2906 2969 
L 2906 4863 
L 3481 4863 
L 3481 0 
L 2906 0 
L 2906 525 
Q 2725 213 2448 61 
Q 2172 -91 1784 -91 
Q 1150 -91 751 415 
Q 353 922 353 1747 
Q 353 2572 751 3078 
Q 1150 3584 1784 3584 
Q 2172 3584 2448 3432 
Q 2725 3281 2906 2969 
z
M 947 1747 
Q 947 1113 1208 752 
Q 1469 391 1925 391 
Q 2381 391 2643 752 
Q 2906 1113 2906 1747 
Q 2906 2381 2643 2742 
Q 2381 3103 1925 3103 
Q 1469 3103 1208 2742 
Q 947 2381 947 1747 
z
" transform="scale(0.015625)"/>
       <path id="DejaVuSans-6f" d="M 1959 3097 
Q 1497 3097 1228 2736 
Q 959 2375 959 1747 
Q 959 1119 1226 758 
Q 1494 397 1959 397 
Q 2419 397 2687 759 
Q 2956 1122 2956 1747 
Q 2956 2369 2687 2733 
Q 2419 3097 1959 3097 
z
M 1959 3584 
Q 2709 3584 3137 3096 
Q 3566 2609 3566 1747 
Q 3566 888 3137 398 
Q 2709 -91 1959 -91 
Q 1206 -91 779 398 
Q 353 888 353 1747 
Q 353 2609 779 3096 
Q 1206 3584 1959 3584 
z
" transform="scale(0.015625)"/>
      </defs>
      <use xlink:href="#DejaVuSans-4f"/>
      <use xlink:href="#DejaVuSans-6e" x="78.710938"/>
      <use xlink:href="#DejaVuSans-65" x="142.089844"/>
      <use xlink:href="#DejaVuSans-20" x="203.613281"/>
      <use xlink:href="#DejaVuSans-53" x="235.400391"/>
      <use xlink:href="#DejaVuSans-74" x="298.876953"/>
      <use xlink:href="#DejaVuSans-61" x="338.085938"/>
      <use xlink:href="#DejaVuSans-6e" x="399.365234"/>
      <use xlink:href="#DejaVuSans-64" x="462.744141"/>
      <use xlink:href="#DejaVuSans-61" x="526.220703"/>
      <use xlink:href="#DejaVuSans-72" x="587.5"/>
      <use xlink:href="#DejaVuSans-64" x="626.863281"/>
      <use xlink:href="#DejaVuSans-20" x="690.339844"/>
      <use xlink:href="#DejaVuSans-44" x="722.126953"/>
      <use xlink:href="#DejaVuSans-65" x="799.128906"/>
      <use xlink:href="#DejaVuSans-76" x="860.652344"/>
      <use xlink:href="#DejaVuSans-69" x="919.832031"/>
      <use xlink:href="#DejaVuSans-61" x="947.615234"/>
      <use xlink:href="#DejaVuSans-74" x="1008.894531"/>
      <use xlink:href="#DejaVuSans-69" x="1048.103516"/>
      <use xlink:href="#DejaVuSans-6f" x="1075.886719"/>
      <use xlink:href="#DejaVuSans-6e" x="1137.068359"/>
     </g>
    </g>
   </g>
  </g>
 </g>
 <defs>
  <clipPath id="pdbed177517">
   <rect x="51.241875" y="-0" width="390.6" height="166.32"/>
  </clipPath>
 </defs>
</svg>
