<?xml version="1.0" encoding="utf-8" standalone="no"?>
<!DOCTYPE svg PUBLIC "-//W3C//DTD SVG 1.1//EN"
  "http://www.w3.org/Graphics/SVG/1.1/DTD/svg11.dtd">
<svg xmlns:xlink="http://www.w3.org/1999/xlink" width="450.737567pt" height="198.611875pt" viewBox="0 0 450.737567 198.611875" xmlns="http://www.w3.org/2000/svg" version="1.1">
 <metadata>
  <rdf:RDF xmlns:dc="http://purl.org/dc/elements/1.1/" xmlns:cc="http://creativecommons.org/ns#" xmlns:rdf="http://www.w3.org/1999/02/22-rdf-syntax-ns#">
   <cc:Work>
    <dc:type rdf:resource="http://purl.org/dc/dcmitype/StillImage"/>
    <dc:date>2024-09-18T15:47:50.164276</dc:date>
    <dc:format>image/svg+xml</dc:format>
    <dc:creator>
     <cc:Agent>
      <dc:title>Matplotlib v3.7.5, https://matplotlib.org/</dc:title>
     </cc:Agent>
    </dc:creator>
   </cc:Work>
  </rdf:RDF>
 </metadata>
 <defs>
  <style type="text/css">*{stroke-linejoin: round; stroke-linecap: butt}</style>
 </defs>
 <g id="figure_1">
  <g id="patch_1">
   <path d="M 0 198.611875 
L 450.737567 198.611875 
L 450.737567 0 
L 0 0 
z
" style="fill: #ffffff"/>
  </g>
  <g id="axes_1">
   <g id="patch_2">
    <path d="M 51.241875 166.32 
L 441.841875 166.32 
L 441.841875 -0 
L 51.241875 -0 
z
" style="fill: #e5e5e5"/>
   </g>
   <g id="matplotlib.axis_1">
    <g id="xtick_1">
     <g id="line2d_1">
      <path d="M 78.78239 166.32 
L 78.78239 -0 
" clip-path="url(#p123873955c)" style="fill: none; stroke: #ffffff; stroke-width: 0.8; stroke-linecap: square"/>
     </g>
     <g id="line2d_2">
      <defs>
       <path id="m62b4f6f1b5" d="M 0 0 
L 0 3.5 
" style="stroke: #555555; stroke-width: 0.8"/>
      </defs>
      <g>
       <use xlink:href="#m62b4f6f1b5" x="78.78239" y="166.32" style="fill: #555555; stroke: #555555; stroke-width: 0.8"/>
      </g>
     </g>
     <g id="text_1">
      <!-- 08/16/20 -->
      <g style="fill: #555555" transform="translate(56.32614 180.918437) scale(0.1 -0.1)">
       <defs>
        <path id="DejaVuSans-30" d="M 2034 4250 
Q 1547 4250 1301 3770 
Q 1056 3291 1056 2328 
Q 1056 1369 1301 889 
Q 1547 409 2034 409 
Q 2525 409 2770 889 
Q 3016 1369 3016 2328 
Q 3016 3291 2770 3770 
Q 2525 4250 2034 4250 
z
M 2034 4750 
Q 2819 4750 3233 4129 
Q 3647 3509 3647 2328 
Q 3647 1150 3233 529 
Q 2819 -91 2034 -91 
Q 1250 -91 836 529 
Q 422 1150 422 2328 
Q 422 3509 836 4129 
Q 1250 4750 2034 4750 
z
" transform="scale(0.015625)"/>
        <path id="DejaVuSans-38" d="M 2034 2216 
Q 1584 2216 1326 1975 
Q 1069 1734 1069 1313 
Q 1069 891 1326 650 
Q 1584 409 2034 409 
Q 2484 409 2743 651 
Q 3003 894 3003 1313 
Q 3003 1734 2745 1975 
Q 2488 2216 2034 2216 
z
M 1403 2484 
Q 997 2584 770 2862 
Q 544 3141 544 3541 
Q 544 4100 942 4425 
Q 1341 4750 2034 4750 
Q 2731 4750 3128 4425 
Q 3525 4100 3525 3541 
Q 3525 3141 3298 2862 
Q 3072 2584 2669 2484 
Q 3125 2378 3379 2068 
Q 3634 1759 3634 1313 
Q 3634 634 3220 271 
Q 2806 -91 2034 -91 
Q 1263 -91 848 271 
Q 434 634 434 1313 
Q 434 1759 690 2068 
Q 947 2378 1403 2484 
z
M 1172 3481 
Q 1172 3119 1398 2916 
Q 1625 2713 2034 2713 
Q 2441 2713 2670 2916 
Q 2900 3119 2900 3481 
Q 2900 3844 2670 4047 
Q 2441 4250 2034 4250 
Q 1625 4250 1398 4047 
Q 1172 3844 1172 3481 
z
" transform="scale(0.015625)"/>
        <path id="DejaVuSans-2f" d="M 1625 4666 
L 2156 4666 
L 531 -594 
L 0 -594 
L 1625 4666 
z
" transform="scale(0.015625)"/>
        <path id="DejaVuSans-31" d="M 794 531 
L 1825 531 
L 1825 4091 
L 703 3866 
L 703 4441 
L 1819 4666 
L 2450 4666 
L 2450 531 
L 3481 531 
L 3481 0 
L 794 0 
L 794 531 
z
" transform="scale(0.015625)"/>
        <path id="DejaVuSans-36" d="M 2113 2584 
Q 1688 2584 1439 2293 
Q 1191 2003 1191 1497 
Q 1191 994 1439 701 
Q 1688 409 2113 409 
Q 2538 409 2786 701 
Q 3034 994 3034 1497 
Q 3034 2003 2786 2293 
Q 2538 2584 2113 2584 
z
M 3366 4563 
L 3366 3988 
Q 3128 4100 2886 4159 
Q 2644 4219 2406 4219 
Q 1781 4219 1451 3797 
Q 1122 3375 1075 2522 
Q 1259 2794 1537 2939 
Q 1816 3084 2150 3084 
Q 2853 3084 3261 2657 
Q 3669 2231 3669 1497 
Q 3669 778 3244 343 
Q 2819 -91 2113 -91 
Q 1303 -91 875 529 
Q 447 1150 447 2328 
Q 447 3434 972 4092 
Q 1497 4750 2381 4750 
Q 2619 4750 2861 4703 
Q 3103 4656 3366 4563 
z
" transform="scale(0.015625)"/>
        <path id="DejaVuSans-32" d="M 1228 531 
L 3431 531 
L 3431 0 
L 469 0 
L 469 531 
Q 828 903 1448 1529 
Q 2069 2156 2228 2338 
Q 2531 2678 2651 2914 
Q 2772 3150 2772 3378 
Q 2772 3750 2511 3984 
Q 2250 4219 1831 4219 
Q 1534 4219 1204 4116 
Q 875 4013 500 3803 
L 500 4441 
Q 881 4594 1212 4672 
Q 1544 4750 1819 4750 
Q 2544 4750 2975 4387 
Q 3406 4025 3406 3419 
Q 3406 3131 3298 2873 
Q 3191 2616 2906 2266 
Q 2828 2175 2409 1742 
Q 1991 1309 1228 531 
z
" transform="scale(0.015625)"/>
       </defs>
       <use xlink:href="#DejaVuSans-30"/>
       <use xlink:href="#DejaVuSans-38" x="63.623047"/>
       <use xlink:href="#DejaVuSans-2f" x="127.246094"/>
       <use xlink:href="#DejaVuSans-31" x="160.9375"/>
       <use xlink:href="#DejaVuSans-36" x="224.560547"/>
       <use xlink:href="#DejaVuSans-2f" x="288.183594"/>
       <use xlink:href="#DejaVuSans-32" x="321.875"/>
       <use xlink:href="#DejaVuSans-30" x="385.498047"/>
      </g>
     </g>
    </g>
    <g id="xtick_2">
     <g id="line2d_3">
      <path d="M 148.682176 166.32 
L 148.682176 -0 
" clip-path="url(#p123873955c)" style="fill: none; stroke: #ffffff; stroke-width: 0.8; stroke-linecap: square"/>
     </g>
     <g id="line2d_4">
      <g>
       <use xlink:href="#m62b4f6f1b5" x="148.682176" y="166.32" style="fill: #555555; stroke: #555555; stroke-width: 0.8"/>
      </g>
     </g>
     <g id="text_2">
      <!-- 10/05/20 -->
      <g style="fill: #555555" transform="translate(126.225926 180.918437) scale(0.1 -0.1)">
       <defs>
        <path id="DejaVuSans-35" d="M 691 4666 
L 3169 4666 
L 3169 4134 
L 1269 4134 
L 1269 2991 
Q 1406 3038 1543 3061 
Q 1681 3084 1819 3084 
Q 2600 3084 3056 2656 
Q 3513 2228 3513 1497 
Q 3513 744 3044 326 
Q 2575 -91 1722 -91 
Q 1428 -91 1123 -41 
Q 819 9 494 109 
L 494 744 
Q 775 591 1075 516 
Q 1375 441 1709 441 
Q 2250 441 2565 725 
Q 2881 1009 2881 1497 
Q 2881 1984 2565 2268 
Q 2250 2553 1709 2553 
Q 1456 2553 1204 2497 
Q 953 2441 691 2322 
L 691 4666 
z
" transform="scale(0.015625)"/>
       </defs>
       <use xlink:href="#DejaVuSans-31"/>
       <use xlink:href="#DejaVuSans-30" x="63.623047"/>
       <use xlink:href="#DejaVuSans-2f" x="127.246094"/>
       <use xlink:href="#DejaVuSans-30" x="160.9375"/>
       <use xlink:href="#DejaVuSans-35" x="224.560547"/>
       <use xlink:href="#DejaVuSans-2f" x="288.183594"/>
       <use xlink:href="#DejaVuSans-32" x="321.875"/>
       <use xlink:href="#DejaVuSans-30" x="385.498047"/>
      </g>
     </g>
    </g>
    <g id="xtick_3">
     <g id="line2d_5">
      <path d="M 218.581961 166.32 
L 218.581961 -0 
" clip-path="url(#p123873955c)" style="fill: none; stroke: #ffffff; stroke-width: 0.8; stroke-linecap: square"/>
     </g>
     <g id="line2d_6">
      <g>
       <use xlink:href="#m62b4f6f1b5" x="218.581961" y="166.32" style="fill: #555555; stroke: #555555; stroke-width: 0.8"/>
      </g>
     </g>
     <g id="text_3">
      <!-- 11/24/20 -->
      <g style="fill: #555555" transform="translate(196.125711 180.918437) scale(0.1 -0.1)">
       <defs>
        <path id="DejaVuSans-34" d="M 2419 4116 
L 825 1625 
L 2419 1625 
L 2419 4116 
z
M 2253 4666 
L 3047 4666 
L 3047 1625 
L 3713 1625 
L 3713 1100 
L 3047 1100 
L 3047 0 
L 2419 0 
L 2419 1100 
L 313 1100 
L 313 1709 
L 2253 4666 
z
" transform="scale(0.015625)"/>
       </defs>
       <use xlink:href="#DejaVuSans-31"/>
       <use xlink:href="#DejaVuSans-31" x="63.623047"/>
       <use xlink:href="#DejaVuSans-2f" x="127.246094"/>
       <use xlink:href="#DejaVuSans-32" x="160.9375"/>
       <use xlink:href="#DejaVuSans-34" x="224.560547"/>
       <use xlink:href="#DejaVuSans-2f" x="288.183594"/>
       <use xlink:href="#DejaVuSans-32" x="321.875"/>
       <use xlink:href="#DejaVuSans-30" x="385.498047"/>
      </g>
     </g>
    </g>
    <g id="xtick_4">
     <g id="line2d_7">
      <path d="M 288.481746 166.32 
L 288.481746 -0 
" clip-path="url(#p123873955c)" style="fill: none; stroke: #ffffff; stroke-width: 0.8; stroke-linecap: square"/>
     </g>
     <g id="line2d_8">
      <g>
       <use xlink:href="#m62b4f6f1b5" x="288.481746" y="166.32" style="fill: #555555; stroke: #555555; stroke-width: 0.8"/>
      </g>
     </g>
     <g id="text_4">
      <!-- 01/13/21 -->
      <g style="fill: #555555" transform="translate(266.025496 180.918437) scale(0.1 -0.1)">
       <defs>
        <path id="DejaVuSans-33" d="M 2597 2516 
Q 3050 2419 3304 2112 
Q 3559 1806 3559 1356 
Q 3559 666 3084 287 
Q 2609 -91 1734 -91 
Q 1441 -91 1130 -33 
Q 819 25 488 141 
L 488 750 
Q 750 597 1062 519 
Q 1375 441 1716 441 
Q 2309 441 2620 675 
Q 2931 909 2931 1356 
Q 2931 1769 2642 2001 
Q 2353 2234 1838 2234 
L 1294 2234 
L 1294 2753 
L 1863 2753 
Q 2328 2753 2575 2939 
Q 2822 3125 2822 3475 
Q 2822 3834 2567 4026 
Q 2313 4219 1838 4219 
Q 1578 4219 1281 4162 
Q 984 4106 628 3988 
L 628 4550 
Q 988 4650 1302 4700 
Q 1616 4750 1894 4750 
Q 2613 4750 3031 4423 
Q 3450 4097 3450 3541 
Q 3450 3153 3228 2886 
Q 3006 2619 2597 2516 
z
" transform="scale(0.015625)"/>
       </defs>
       <use xlink:href="#DejaVuSans-30"/>
       <use xlink:href="#DejaVuSans-31" x="63.623047"/>
       <use xlink:href="#DejaVuSans-2f" x="127.246094"/>
       <use xlink:href="#DejaVuSans-31" x="160.9375"/>
       <use xlink:href="#DejaVuSans-33" x="224.560547"/>
       <use xlink:href="#DejaVuSans-2f" x="288.183594"/>
       <use xlink:href="#DejaVuSans-32" x="321.875"/>
       <use xlink:href="#DejaVuSans-31" x="385.498047"/>
      </g>
     </g>
    </g>
    <g id="xtick_5">
     <g id="line2d_9">
      <path d="M 358.381531 166.32 
L 358.381531 -0 
" clip-path="url(#p123873955c)" style="fill: none; stroke: #ffffff; stroke-width: 0.8; stroke-linecap: square"/>
     </g>
     <g id="line2d_10">
      <g>
       <use xlink:href="#m62b4f6f1b5" x="358.381531" y="166.32" style="fill: #555555; stroke: #555555; stroke-width: 0.8"/>
      </g>
     </g>
     <g id="text_5">
      <!-- 03/04/21 -->
      <g style="fill: #555555" transform="translate(335.925281 180.918437) scale(0.1 -0.1)">
       <use xlink:href="#DejaVuSans-30"/>
       <use xlink:href="#DejaVuSans-33" x="63.623047"/>
       <use xlink:href="#DejaVuSans-2f" x="127.246094"/>
       <use xlink:href="#DejaVuSans-30" x="160.9375"/>
       <use xlink:href="#DejaVuSans-34" x="224.560547"/>
       <use xlink:href="#DejaVuSans-2f" x="288.183594"/>
       <use xlink:href="#DejaVuSans-32" x="321.875"/>
       <use xlink:href="#DejaVuSans-31" x="385.498047"/>
      </g>
     </g>
    </g>
    <g id="xtick_6">
     <g id="line2d_11">
      <path d="M 428.281317 166.32 
L 428.281317 -0 
" clip-path="url(#p123873955c)" style="fill: none; stroke: #ffffff; stroke-width: 0.8; stroke-linecap: square"/>
     </g>
     <g id="line2d_12">
      <g>
       <use xlink:href="#m62b4f6f1b5" x="428.281317" y="166.32" style="fill: #555555; stroke: #555555; stroke-width: 0.8"/>
      </g>
     </g>
     <g id="text_6">
      <!-- 04/23/21 -->
      <g style="fill: #555555" transform="translate(405.825067 180.918437) scale(0.1 -0.1)">
       <use xlink:href="#DejaVuSans-30"/>
       <use xlink:href="#DejaVuSans-34" x="63.623047"/>
       <use xlink:href="#DejaVuSans-2f" x="127.246094"/>
       <use xlink:href="#DejaVuSans-32" x="160.9375"/>
       <use xlink:href="#DejaVuSans-33" x="224.560547"/>
       <use xlink:href="#DejaVuSans-2f" x="288.183594"/>
       <use xlink:href="#DejaVuSans-32" x="321.875"/>
       <use xlink:href="#DejaVuSans-31" x="385.498047"/>
      </g>
     </g>
    </g>
    <g id="text_7">
     <!-- Date -->
     <g style="fill: #555555" transform="translate(232.200938 196.11625) scale(0.12 -0.12)">
      <defs>
       <path id="DejaVuSans-44" d="M 1259 4147 
L 1259 519 
L 2022 519 
Q 2988 519 3436 956 
Q 3884 1394 3884 2338 
Q 3884 3275 3436 3711 
Q 2988 4147 2022 4147 
L 1259 4147 
z
M 628 4666 
L 1925 4666 
Q 3281 4666 3915 4102 
Q 4550 3538 4550 2338 
Q 4550 1131 3912 565 
Q 3275 0 1925 0 
L 628 0 
L 628 4666 
z
" transform="scale(0.015625)"/>
       <path id="DejaVuSans-61" d="M 2194 1759 
Q 1497 1759 1228 1600 
Q 959 1441 959 1056 
Q 959 750 1161 570 
Q 1363 391 1709 391 
Q 2188 391 2477 730 
Q 2766 1069 2766 1631 
L 2766 1759 
L 2194 1759 
z
M 3341 1997 
L 3341 0 
L 2766 0 
L 2766 531 
Q 2569 213 2275 61 
Q 1981 -91 1556 -91 
Q 1019 -91 701 211 
Q 384 513 384 1019 
Q 384 1609 779 1909 
Q 1175 2209 1959 2209 
L 2766 2209 
L 2766 2266 
Q 2766 2663 2505 2880 
Q 2244 3097 1772 3097 
Q 1472 3097 1187 3025 
Q 903 2953 641 2809 
L 641 3341 
Q 956 3463 1253 3523 
Q 1550 3584 1831 3584 
Q 2591 3584 2966 3190 
Q 3341 2797 3341 1997 
z
" transform="scale(0.015625)"/>
       <path id="DejaVuSans-74" d="M 1172 4494 
L 1172 3500 
L 2356 3500 
L 2356 3053 
L 1172 3053 
L 1172 1153 
Q 1172 725 1289 603 
Q 1406 481 1766 481 
L 2356 481 
L 2356 0 
L 1766 0 
Q 1100 0 847 248 
Q 594 497 594 1153 
L 594 3053 
L 172 3053 
L 172 3500 
L 594 3500 
L 594 4494 
L 1172 4494 
z
" transform="scale(0.015625)"/>
       <path id="DejaVuSans-65" d="M 3597 1894 
L 3597 1613 
L 953 1613 
Q 991 1019 1311 708 
Q 1631 397 2203 397 
Q 2534 397 2845 478 
Q 3156 559 3463 722 
L 3463 178 
Q 3153 47 2828 -22 
Q 2503 -91 2169 -91 
Q 1331 -91 842 396 
Q 353 884 353 1716 
Q 353 2575 817 3079 
Q 1281 3584 2069 3584 
Q 2775 3584 3186 3129 
Q 3597 2675 3597 1894 
z
M 3022 2063 
Q 3016 2534 2758 2815 
Q 2500 3097 2075 3097 
Q 1594 3097 1305 2825 
Q 1016 2553 972 2059 
L 3022 2063 
z
" transform="scale(0.015625)"/>
      </defs>
      <use xlink:href="#DejaVuSans-44"/>
      <use xlink:href="#DejaVuSans-61" x="77.001953"/>
      <use xlink:href="#DejaVuSans-74" x="138.28125"/>
      <use xlink:href="#DejaVuSans-65" x="177.490234"/>
     </g>
    </g>
   </g>
   <g id="matplotlib.axis_2">
    <g id="ytick_1">
     <g id="line2d_13">
      <path d="M 51.241875 161.233694 
L 441.841875 161.233694 
" clip-path="url(#p123873955c)" style="fill: none; stroke: #ffffff; stroke-width: 0.8; stroke-linecap: square"/>
     </g>
     <g id="line2d_14">
      <defs>
       <path id="m3d3c8866fb" d="M 0 0 
L -3.5 0 
" style="stroke: #555555; stroke-width: 0.8"/>
      </defs>
      <g>
       <use xlink:href="#m3d3c8866fb" x="51.241875" y="161.233694" style="fill: #555555; stroke: #555555; stroke-width: 0.8"/>
      </g>
     </g>
     <g id="text_8">
      <!-- 0.000 -->
      <g style="fill: #555555" transform="translate(15.61375 165.032913) scale(0.1 -0.1)">
       <defs>
        <path id="DejaVuSans-2e" d="M 684 794 
L 1344 794 
L 1344 0 
L 684 0 
L 684 794 
z
" transform="scale(0.015625)"/>
       </defs>
       <use xlink:href="#DejaVuSans-30"/>
       <use xlink:href="#DejaVuSans-2e" x="63.623047"/>
       <use xlink:href="#DejaVuSans-30" x="95.410156"/>
       <use xlink:href="#DejaVuSans-30" x="159.033203"/>
       <use xlink:href="#DejaVuSans-30" x="222.65625"/>
      </g>
     </g>
    </g>
    <g id="ytick_2">
     <g id="line2d_15">
      <path d="M 51.241875 128.654258 
L 441.841875 128.654258 
" clip-path="url(#p123873955c)" style="fill: none; stroke: #ffffff; stroke-width: 0.8; stroke-linecap: square"/>
     </g>
     <g id="line2d_16">
      <g>
       <use xlink:href="#m3d3c8866fb" x="51.241875" y="128.654258" style="fill: #555555; stroke: #555555; stroke-width: 0.8"/>
      </g>
     </g>
     <g id="text_9">
      <!-- 0.005 -->
      <g style="fill: #555555" transform="translate(15.61375 132.453477) scale(0.1 -0.1)">
       <use xlink:href="#DejaVuSans-30"/>
       <use xlink:href="#DejaVuSans-2e" x="63.623047"/>
       <use xlink:href="#DejaVuSans-30" x="95.410156"/>
       <use xlink:href="#DejaVuSans-30" x="159.033203"/>
       <use xlink:href="#DejaVuSans-35" x="222.65625"/>
      </g>
     </g>
    </g>
    <g id="ytick_3">
     <g id="line2d_17">
      <path d="M 51.241875 96.074823 
L 441.841875 96.074823 
" clip-path="url(#p123873955c)" style="fill: none; stroke: #ffffff; stroke-width: 0.8; stroke-linecap: square"/>
     </g>
     <g id="line2d_18">
      <g>
       <use xlink:href="#m3d3c8866fb" x="51.241875" y="96.074823" style="fill: #555555; stroke: #555555; stroke-width: 0.8"/>
      </g>
     </g>
     <g id="text_10">
      <!-- 0.010 -->
      <g style="fill: #555555" transform="translate(15.61375 99.874041) scale(0.1 -0.1)">
       <use xlink:href="#DejaVuSans-30"/>
       <use xlink:href="#DejaVuSans-2e" x="63.623047"/>
       <use xlink:href="#DejaVuSans-30" x="95.410156"/>
       <use xlink:href="#DejaVuSans-31" x="159.033203"/>
       <use xlink:href="#DejaVuSans-30" x="222.65625"/>
      </g>
     </g>
    </g>
    <g id="ytick_4">
     <g id="line2d_19">
      <path d="M 51.241875 63.495387 
L 441.841875 63.495387 
" clip-path="url(#p123873955c)" style="fill: none; stroke: #ffffff; stroke-width: 0.8; stroke-linecap: square"/>
     </g>
     <g id="line2d_20">
      <g>
       <use xlink:href="#m3d3c8866fb" x="51.241875" y="63.495387" style="fill: #555555; stroke: #555555; stroke-width: 0.8"/>
      </g>
     </g>
     <g id="text_11">
      <!-- 0.015 -->
      <g style="fill: #555555" transform="translate(15.61375 67.294606) scale(0.1 -0.1)">
       <use xlink:href="#DejaVuSans-30"/>
       <use xlink:href="#DejaVuSans-2e" x="63.623047"/>
       <use xlink:href="#DejaVuSans-30" x="95.410156"/>
       <use xlink:href="#DejaVuSans-31" x="159.033203"/>
       <use xlink:href="#DejaVuSans-35" x="222.65625"/>
      </g>
     </g>
    </g>
    <g id="ytick_5">
     <g id="line2d_21">
      <path d="M 51.241875 30.915951 
L 441.841875 30.915951 
" clip-path="url(#p123873955c)" style="fill: none; stroke: #ffffff; stroke-width: 0.8; stroke-linecap: square"/>
     </g>
     <g id="line2d_22">
      <g>
       <use xlink:href="#m3d3c8866fb" x="51.241875" y="30.915951" style="fill: #555555; stroke: #555555; stroke-width: 0.8"/>
      </g>
     </g>
     <g id="text_12">
      <!-- 0.020 -->
      <g style="fill: #555555" transform="translate(15.61375 34.71517) scale(0.1 -0.1)">
       <use xlink:href="#DejaVuSans-30"/>
       <use xlink:href="#DejaVuSans-2e" x="63.623047"/>
       <use xlink:href="#DejaVuSans-30" x="95.410156"/>
       <use xlink:href="#DejaVuSans-32" x="159.033203"/>
       <use xlink:href="#DejaVuSans-30" x="222.65625"/>
      </g>
     </g>
    </g>
    <g id="text_13">
     <!-- Value -->
     <g style="fill: #555555" transform="translate(9.118125 99.6375) rotate(-90) scale(0.12 -0.12)">
      <defs>
       <path id="DejaVuSans-56" d="M 1831 0 
L 50 4666 
L 709 4666 
L 2188 738 
L 3669 4666 
L 4325 4666 
L 2547 0 
L 1831 0 
z
" transform="scale(0.015625)"/>
       <path id="DejaVuSans-6c" d="M 603 4863 
L 1178 4863 
L 1178 0 
L 603 0 
L 603 4863 
z
" transform="scale(0.015625)"/>
       <path id="DejaVuSans-75" d="M 544 1381 
L 544 3500 
L 1119 3500 
L 1119 1403 
Q 1119 906 1312 657 
Q 1506 409 1894 409 
Q 2359 409 2629 706 
Q 2900 1003 2900 1516 
L 2900 3500 
L 3475 3500 
L 3475 0 
L 2900 0 
L 2900 538 
Q 2691 219 2414 64 
Q 2138 -91 1772 -91 
Q 1169 -91 856 284 
Q 544 659 544 1381 
z
M 1991 3584 
L 1991 3584 
z
" transform="scale(0.015625)"/>
      </defs>
      <use xlink:href="#DejaVuSans-56"/>
      <use xlink:href="#DejaVuSans-61" x="60.658203"/>
      <use xlink:href="#DejaVuSans-6c" x="121.9375"/>
      <use xlink:href="#DejaVuSans-75" x="149.720703"/>
      <use xlink:href="#DejaVuSans-65" x="213.099609"/>
     </g>
    </g>
   </g>
   <g id="PolyCollection_1">
    <defs>
     <path id="m8648830b3c" d="M 68.99642 -60.760195 
L 68.99642 -74.666227 
L 70.394416 -74.10151 
L 71.792412 -71.08963 
L 73.190408 -77.876118 
L 74.588403 -75.769934 
L 75.986399 -75.155474 
L 77.384395 -76.018228 
L 78.78239 -76.200766 
L 80.180386 -81.55024 
L 81.578382 -81.820491 
L 82.976378 -86.789659 
L 84.374373 -86.557959 
L 85.772369 -80.73983 
L 87.170365 -79.598216 
L 88.56836 -73.334095 
L 89.966356 -75.144591 
L 91.364352 -73.593567 
L 92.762347 -70.168619 
L 94.160343 -72.274602 
L 95.558339 -72.274144 
L 96.956335 -48.231695 
L 98.35433 -49.493662 
L 99.752326 -48.247435 
L 101.150322 -49.622397 
L 102.548317 -44.181444 
L 103.946313 -44.124529 
L 105.344309 -43.52118 
L 106.742304 -44.154262 
L 108.1403 -46.756797 
L 109.538296 -46.577262 
L 110.936292 -46.402887 
L 112.334287 -46.499404 
L 113.732283 -64.371137 
L 115.130279 -63.721052 
L 116.528274 -61.821549 
L 117.92627 -61.773408 
L 119.324266 -60.913493 
L 120.722262 -59.234964 
L 122.120257 -57.945453 
L 123.518253 -60.254184 
L 124.916249 -59.961537 
L 126.314244 -58.516387 
L 127.71224 -59.223568 
L 129.110236 -59.662223 
L 130.508231 -59.250801 
L 131.906227 -70.523953 
L 133.304223 -61.975913 
L 134.702219 -65.318574 
L 136.100214 -64.368623 
L 137.49821 -69.06722 
L 138.896206 -69.931001 
L 140.294201 -69.417681 
L 141.692197 -70.238048 
L 143.090193 -72.483723 
L 144.488189 -68.298806 
L 145.886184 -71.412893 
L 147.28418 -103.214588 
L 148.682176 -101.964406 
L 150.080171 -102.321868 
L 151.478167 -75.573209 
L 152.876163 -75.388823 
L 154.274158 -76.177429 
L 155.672154 -76.958991 
L 157.07015 -73.864477 
L 158.468146 -73.844888 
L 159.866141 -74.359333 
L 161.264137 -72.737114 
L 162.662133 -75.179355 
L 164.060128 -74.653407 
L 165.458124 -108.528814 
L 166.85612 -107.651555 
L 168.254116 -76.994704 
L 169.652111 -77.82371 
L 171.050107 -88.835143 
L 172.448103 -107.161065 
L 173.846098 -104.668775 
L 175.244094 -89.439024 
L 176.64209 -108.004657 
L 178.040085 -106.141181 
L 179.438081 -106.11351 
L 180.836077 -106.201558 
L 182.234073 -108.213377 
L 183.632068 -105.872845 
L 185.030064 -104.351868 
L 186.42806 -103.86658 
L 187.826055 -104.886405 
L 189.224051 -104.437355 
L 190.622047 -90.224175 
L 192.020043 -85.93582 
L 193.418038 -87.784006 
L 194.816034 -89.459539 
L 196.21403 -89.659455 
L 197.612025 -78.22011 
L 199.010021 -79.498504 
L 200.408017 -89.837937 
L 201.806012 -79.58883 
L 203.204008 -93.604294 
L 204.602004 -113.922587 
L 206 -113.421076 
L 207.397995 -119.549949 
L 208.795991 -96.543094 
L 210.193987 -120.211254 
L 211.591982 -120.549053 
L 212.989978 -119.489336 
L 214.387974 -124.35216 
L 215.785969 -124.893445 
L 217.183965 -122.352719 
L 218.581961 -122.21386 
L 219.979957 -122.001651 
L 221.377952 -134.914103 
L 222.775948 -124.624264 
L 224.173944 -120.982104 
L 225.571939 -121.994481 
L 226.969935 -119.053547 
L 228.367931 -122.714422 
L 229.765927 -122.691734 
L 231.163922 -119.479592 
L 232.561918 -118.39189 
L 233.959914 -118.293871 
L 235.357909 -118.559189 
L 236.755905 -118.27662 
L 238.153901 -117.452182 
L 239.551896 -117.196018 
L 240.949892 -82.510259 
L 242.347888 -109.629345 
L 243.745884 -109.576278 
L 245.143879 -107.923576 
L 246.541875 -113.716027 
L 247.939871 -113.226033 
L 249.337866 -106.506491 
L 250.735862 -106.216286 
L 252.133858 -92.563382 
L 253.531854 -92.598941 
L 254.929849 -91.649881 
L 256.327845 -89.713229 
L 257.725841 -88.466792 
L 259.123836 -88.747151 
L 260.521832 -88.105126 
L 261.919828 -87.983991 
L 263.317823 -89.119687 
L 264.715819 -89.003546 
L 266.113815 -87.543447 
L 267.511811 -87.051298 
L 268.909806 -87.124263 
L 270.307802 -86.346188 
L 271.705798 -87.505101 
L 273.103793 -87.338496 
L 274.501789 -86.256508 
L 275.899785 -76.703769 
L 277.297781 -74.544291 
L 278.695776 -56.343488 
L 280.093772 -54.461747 
L 281.491768 -56.847108 
L 282.889763 -55.851068 
L 284.287759 -54.225753 
L 285.685755 -54.22337 
L 287.08375 -53.332557 
L 288.481746 -44.697251 
L 289.879742 -41.981246 
L 291.277738 -42.017749 
L 292.675733 -43.247432 
L 294.073729 -44.713038 
L 295.471725 -52.491538 
L 296.86972 -53.03898 
L 298.267716 -52.524243 
L 299.665712 -53.920697 
L 301.063707 -53.723681 
L 302.461703 -55.327867 
L 303.859699 -55.574235 
L 305.257695 -55.354028 
L 306.65569 -56.055711 
L 308.053686 -67.803046 
L 309.451682 -71.171771 
L 310.849677 -71.248662 
L 312.247673 -84.39125 
L 313.645669 -83.997779 
L 315.043665 -85.420017 
L 316.44166 -85.585141 
L 317.839656 -85.292852 
L 319.237652 -85.945458 
L 320.635647 -85.288561 
L 322.033643 -84.216573 
L 323.431639 -83.881419 
L 324.829634 -84.66743 
L 326.22763 -84.026813 
L 327.625626 -84.35067 
L 329.023622 -83.894583 
L 330.421617 -82.679404 
L 331.819613 -69.07288 
L 333.217609 -69.804838 
L 334.615604 -68.47019 
L 336.0136 -69.890378 
L 337.411596 -44.418951 
L 338.809592 -55.331885 
L 340.207587 -53.886942 
L 341.605583 -53.946211 
L 343.003579 -53.614064 
L 344.401574 -53.008603 
L 345.79957 -45.101802 
L 347.197566 -54.250037 
L 348.595561 -57.61977 
L 349.993557 -58.789529 
L 351.391553 -59.423049 
L 352.789549 -59.141862 
L 354.187544 -92.772247 
L 355.58554 -75.766954 
L 356.983536 -91.912892 
L 358.381531 -161.099741 
L 359.779527 -167.954751 
L 361.177523 -178.862388 
L 362.575519 -179.164569 
L 363.973514 -175.396526 
L 365.37151 -185.372986 
L 366.769506 -181.874197 
L 368.167501 -186.603445 
L 369.565497 -185.108655 
L 370.963493 -186.23936 
L 372.361488 -181.04995 
L 373.759484 -189.129898 
L 375.15748 -190.152327 
L 376.555476 -191.051875 
L 377.953471 -177.796908 
L 379.351467 -184.736522 
L 380.749463 -183.571096 
L 382.147458 -182.280004 
L 383.545454 -143.453477 
L 384.94345 -141.334609 
L 386.341446 -145.932082 
L 387.739441 -142.937715 
L 389.137437 -145.260573 
L 390.535433 -134.64085 
L 391.933428 -139.174257 
L 393.331424 -97.546868 
L 394.72942 -98.256291 
L 396.127415 -97.869082 
L 397.525411 -91.806716 
L 398.923407 -77.10525 
L 400.321403 -76.316602 
L 401.719398 -76.420775 
L 403.117394 -69.545526 
L 404.51539 -68.304593 
L 405.913385 -66.693244 
L 407.311381 -63.833509 
L 408.709377 -64.071253 
L 410.107372 -63.790639 
L 411.505368 -63.696708 
L 412.903364 -62.994417 
L 414.30136 -48.988402 
L 415.699355 -62.031734 
L 417.097351 -47.714288 
L 418.495347 -47.844952 
L 419.893342 -47.510728 
L 421.291338 -47.109473 
L 422.689334 -48.531814 
L 424.08733 -48.483286 
L 424.08733 -45.908494 
L 424.08733 -45.908494 
L 422.689334 -46.200549 
L 421.291338 -44.811594 
L 419.893342 -45.126385 
L 418.495347 -45.566372 
L 417.097351 -45.128676 
L 415.699355 -52.864896 
L 414.30136 -45.939373 
L 412.903364 -53.506404 
L 411.505368 -53.79878 
L 410.107372 -53.936969 
L 408.709377 -52.668636 
L 407.311381 -53.220776 
L 405.913385 -55.547287 
L 404.51539 -56.592315 
L 403.117394 -58.476883 
L 401.719398 -64.211984 
L 400.321403 -64.461898 
L 398.923407 -65.766608 
L 397.525411 -76.289793 
L 396.127415 -82.006026 
L 394.72942 -83.106685 
L 393.331424 -81.034944 
L 391.933428 -112.609091 
L 390.535433 -112.663377 
L 389.137437 -120.675278 
L 387.739441 -119.757428 
L 386.341446 -119.094632 
L 384.94345 -118.269481 
L 383.545454 -118.87539 
L 382.147458 -147.013072 
L 380.749463 -143.398352 
L 379.351467 -143.612317 
L 377.953471 -140.837231 
L 376.555476 -152.417287 
L 375.15748 -150.355749 
L 373.759484 -157.219195 
L 372.361488 -148.605089 
L 370.963493 -149.040027 
L 369.565497 -148.581749 
L 368.167501 -149.877982 
L 366.769506 -152.106569 
L 365.37151 -150.222242 
L 363.973514 -144.20182 
L 362.575519 -146.598155 
L 361.177523 -145.605882 
L 359.779527 -137.635846 
L 358.381531 -134.628524 
L 356.983536 -80.316024 
L 355.58554 -64.450029 
L 354.187544 -81.406315 
L 352.789549 -51.372128 
L 351.391553 -52.96529 
L 349.993557 -51.456408 
L 348.595561 -49.856568 
L 347.197566 -47.070662 
L 345.79957 -43.06627 
L 344.401574 -46.941113 
L 343.003579 -47.209247 
L 341.605583 -47.133418 
L 340.207587 -47.730199 
L 338.809592 -49.26877 
L 337.411596 -42.657594 
L 336.0136 -60.741135 
L 334.615604 -59.917134 
L 333.217609 -60.402963 
L 331.819613 -60.282909 
L 330.421617 -72.994805 
L 329.023622 -73.973633 
L 327.625626 -73.909484 
L 326.22763 -74.008277 
L 324.829634 -74.462557 
L 323.431639 -75.132338 
L 322.033643 -73.663537 
L 320.635647 -74.536103 
L 319.237652 -77.570097 
L 317.839656 -75.438279 
L 316.44166 -75.514446 
L 315.043665 -75.44386 
L 313.645669 -74.305945 
L 312.247673 -74.330918 
L 310.849677 -62.235938 
L 309.451682 -62.128873 
L 308.053686 -59.052027 
L 306.65569 -49.619162 
L 305.257695 -48.507171 
L 303.859699 -49.522639 
L 302.461703 -48.875996 
L 301.063707 -47.395924 
L 299.665712 -47.782289 
L 298.267716 -46.582963 
L 296.86972 -46.835423 
L 295.471725 -46.883304 
L 294.073729 -42.857657 
L 292.675733 -41.695277 
L 291.277738 -40.708354 
L 289.879742 -40.723179 
L 288.481746 -42.82945 
L 287.08375 -47.297177 
L 285.685755 -48.428699 
L 284.287759 -48.152342 
L 282.889763 -49.907269 
L 281.491768 -50.097593 
L 280.093772 -47.991872 
L 278.695776 -49.593556 
L 277.297781 -64.279916 
L 275.899785 -66.704377 
L 274.501789 -76.231111 
L 273.103793 -76.943846 
L 271.705798 -76.831233 
L 270.307802 -75.730578 
L 268.909806 -77.404421 
L 267.511811 -76.041567 
L 266.113815 -75.934156 
L 264.715819 -77.859841 
L 263.317823 -76.908988 
L 261.919828 -76.837135 
L 260.521832 -77.255671 
L 259.123836 -77.17275 
L 257.725841 -78.264386 
L 256.327845 -77.39817 
L 254.929849 -80.339413 
L 253.531854 -79.693258 
L 252.133858 -80.864709 
L 250.735862 -89.953088 
L 249.337866 -91.192995 
L 247.939871 -95.57415 
L 246.541875 -95.293463 
L 245.143879 -91.859643 
L 243.745884 -91.892038 
L 242.347888 -93.351064 
L 240.949892 -70.640753 
L 239.551896 -98.608903 
L 238.153901 -100.373654 
L 236.755905 -99.334203 
L 235.357909 -101.136033 
L 233.959914 -100.575358 
L 232.561918 -100.359573 
L 231.163922 -102.040667 
L 229.765927 -103.236181 
L 228.367931 -102.200207 
L 226.969935 -101.620744 
L 225.571939 -104.318169 
L 224.173944 -102.354309 
L 222.775948 -105.220597 
L 221.377952 -113.388719 
L 219.979957 -102.699668 
L 218.581961 -103.146744 
L 217.183965 -104.133415 
L 215.785969 -107.451251 
L 214.387974 -104.777163 
L 212.989978 -99.548726 
L 211.591982 -101.031741 
L 210.193987 -102.759853 
L 208.795991 -79.070612 
L 207.397995 -100.142804 
L 206 -96.130569 
L 204.602004 -97.105997 
L 203.204008 -77.532471 
L 201.806012 -68.540824 
L 200.408017 -74.266158 
L 199.010021 -67.160793 
L 197.612025 -67.11043 
L 196.21403 -74.220121 
L 194.816034 -76.49632 
L 193.418038 -72.128439 
L 192.020043 -72.963114 
L 190.622047 -74.535095 
L 189.224051 -89.695491 
L 187.826055 -90.582797 
L 186.42806 -89.119104 
L 185.030064 -88.813231 
L 183.632068 -90.360015 
L 182.234073 -93.794403 
L 180.836077 -90.538531 
L 179.438081 -91.145602 
L 178.040085 -90.769643 
L 176.64209 -92.817043 
L 175.244094 -74.580896 
L 173.846098 -89.265052 
L 172.448103 -90.306751 
L 171.050107 -74.909953 
L 169.652111 -67.255734 
L 168.254116 -67.535937 
L 166.85612 -93.205443 
L 165.458124 -91.852308 
L 164.060128 -64.883981 
L 162.662133 -63.963587 
L 161.264137 -61.853109 
L 159.866141 -63.803561 
L 158.468146 -62.982239 
L 157.07015 -63.671316 
L 155.672154 -65.197369 
L 154.274158 -65.791108 
L 152.876163 -64.693682 
L 151.478167 -66.523221 
L 150.080171 -86.772148 
L 148.682176 -86.517914 
L 147.28418 -87.753806 
L 145.886184 -61.613348 
L 144.488189 -59.215475 
L 143.090193 -62.884971 
L 141.692197 -61.583699 
L 140.294201 -62.044261 
L 138.896206 -61.146927 
L 137.49821 -60.637151 
L 136.100214 -57.134947 
L 134.702219 -57.682838 
L 133.304223 -54.513691 
L 131.906227 -62.590213 
L 130.508231 -51.82516 
L 129.110236 -52.58744 
L 127.71224 -52.463236 
L 126.314244 -52.136781 
L 124.916249 -53.065044 
L 123.518253 -52.406306 
L 122.120257 -49.924363 
L 120.722262 -51.163374 
L 119.324266 -52.103281 
L 117.92627 -53.022469 
L 116.528274 -51.768277 
L 115.130279 -53.908002 
L 113.732283 -55.087468 
L 112.334287 -44.504515 
L 110.936292 -44.361734 
L 109.538296 -44.536459 
L 108.1403 -44.644115 
L 106.742304 -42.331892 
L 105.344309 -41.757718 
L 103.946313 -42.457333 
L 102.548317 -42.305337 
L 101.150322 -47.127806 
L 99.752326 -45.824216 
L 98.35433 -47.012597 
L 96.956335 -46.089427 
L 95.558339 -59.4375 
L 94.160343 -59.235151 
L 92.762347 -57.916906 
L 91.364352 -59.607882 
L 89.966356 -60.429441 
L 88.56836 -59.299785 
L 87.170365 -64.751865 
L 85.772369 -64.57346 
L 84.374373 -69.733504 
L 82.976378 -70.39191 
L 81.578382 -64.756194 
L 80.180386 -64.907201 
L 78.78239 -60.839843 
L 77.384395 -60.473949 
L 75.986399 -59.781329 
L 74.588403 -61.816805 
L 73.190408 -63.501618 
L 71.792412 -56.676047 
L 70.394416 -61.028056 
L 68.99642 -60.760195 
z
" style="stroke: #134a8e; stroke-opacity: 0.5; stroke-width: 0.5"/>
    </defs>
    <g clip-path="url(#p123873955c)">
     <use xlink:href="#m8648830b3c" x="0" y="198.611875" style="fill: #134a8e; fill-opacity: 0.5; stroke: #134a8e; stroke-opacity: 0.5; stroke-width: 0.5"/>
    </g>
   </g>
   <g id="line2d_23">
    <path d="M 68.99642 130.898664 
L 70.394416 131.047092 
L 71.792412 134.729036 
L 73.190408 127.923007 
L 74.588403 129.818506 
L 75.986399 131.143474 
L 77.384395 130.365787 
L 78.78239 130.091571 
L 80.180386 125.383154 
L 81.578382 125.323532 
L 82.976378 120.02109 
L 84.374373 120.466143 
L 85.772369 125.95523 
L 87.170365 126.436835 
L 88.56836 132.294935 
L 89.966356 130.824859 
L 91.364352 132.011151 
L 92.762347 134.569112 
L 94.160343 132.856999 
L 95.558339 132.756053 
L 96.956335 151.451314 
L 98.35433 150.358746 
L 99.752326 151.576049 
L 101.150322 150.236773 
L 102.548317 155.368485 
L 103.946313 155.320944 
L 105.344309 155.972426 
L 106.742304 155.368798 
L 108.1403 152.911419 
L 110.936292 153.229565 
L 112.334287 153.109916 
L 113.732283 138.882572 
L 115.130279 139.797348 
L 116.528274 141.816962 
L 117.92627 141.213936 
L 119.324266 142.103488 
L 122.120257 144.676967 
L 123.518253 142.28163 
L 124.916249 142.098584 
L 126.314244 143.285291 
L 127.71224 142.768473 
L 129.110236 142.487043 
L 130.508231 143.073894 
L 131.906227 132.054792 
L 133.304223 140.367073 
L 134.702219 137.111169 
L 136.100214 137.86009 
L 137.49821 133.75969 
L 138.896206 133.072911 
L 141.692197 132.701001 
L 143.090193 130.927528 
L 144.488189 134.854735 
L 145.886184 132.098754 
L 147.28418 103.127678 
L 148.682176 104.370715 
L 150.080171 104.064867 
L 151.478167 127.56366 
L 152.876163 128.570622 
L 154.274158 127.627607 
L 155.672154 127.533695 
L 157.07015 129.843978 
L 158.468146 130.198312 
L 159.866141 129.530428 
L 161.264137 131.316763 
L 162.662133 129.040404 
L 164.060128 128.843181 
L 165.458124 98.421314 
L 166.85612 98.183376 
L 168.254116 126.346554 
L 169.652111 126.072153 
L 171.050107 116.739327 
L 172.448103 99.877967 
L 173.846098 101.644961 
L 175.244094 116.601915 
L 176.64209 98.201025 
L 178.040085 100.156463 
L 179.438081 99.982319 
L 180.836077 100.241831 
L 182.234073 97.607985 
L 183.632068 100.495445 
L 185.030064 102.029325 
L 186.42806 102.119033 
L 187.826055 100.877274 
L 189.224051 101.545452 
L 190.622047 116.23224 
L 192.020043 119.162408 
L 193.418038 118.655653 
L 194.816034 115.633945 
L 196.21403 116.672087 
L 197.612025 125.946605 
L 199.010021 125.282226 
L 200.408017 116.559828 
L 201.806012 124.547048 
L 203.204008 113.043493 
L 204.602004 93.097583 
L 206 93.836052 
L 207.397995 88.765498 
L 208.795991 110.805022 
L 210.193987 87.126321 
L 211.591982 87.821478 
L 212.989978 89.092844 
L 214.387974 84.047213 
L 215.785969 82.439527 
L 217.183965 85.368808 
L 218.581961 85.931573 
L 219.979957 86.261215 
L 221.377952 74.460464 
L 222.775948 83.689445 
L 224.173944 86.943669 
L 225.571939 85.45555 
L 226.969935 88.27473 
L 228.367931 86.15456 
L 229.765927 85.647917 
L 231.163922 87.851745 
L 232.561918 89.236144 
L 233.959914 89.17726 
L 235.357909 88.764264 
L 236.755905 89.806463 
L 238.153901 89.698957 
L 239.551896 90.709415 
L 240.949892 122.036369 
L 242.347888 97.12167 
L 245.143879 98.720265 
L 246.541875 94.10713 
L 247.939871 94.211784 
L 249.337866 99.762132 
L 250.735862 100.527188 
L 252.133858 111.897829 
L 253.531854 112.465775 
L 254.929849 112.617228 
L 256.327845 115.056175 
L 257.725841 115.246286 
L 259.123836 115.651924 
L 261.919828 116.201312 
L 263.317823 115.597538 
L 264.715819 115.180182 
L 266.113815 116.873074 
L 267.511811 117.065442 
L 268.909806 116.347533 
L 270.307802 117.573492 
L 271.705798 116.443708 
L 273.103793 116.470704 
L 274.501789 117.368066 
L 275.899785 126.907802 
L 277.297781 129.199771 
L 278.695776 145.643353 
L 280.093772 147.385065 
L 281.491768 145.139524 
L 282.889763 145.732706 
L 284.287759 147.422827 
L 285.685755 147.28584 
L 287.08375 148.297008 
L 288.481746 154.848524 
L 289.879742 157.259662 
L 291.277738 157.248823 
L 292.675733 156.14052 
L 294.073729 154.826528 
L 295.471725 148.924454 
L 296.86972 148.674673 
L 298.267716 149.058272 
L 299.665712 147.760382 
L 301.063707 148.052072 
L 302.461703 146.509943 
L 303.859699 146.063438 
L 305.257695 146.681276 
L 306.65569 145.774438 
L 308.053686 135.184338 
L 309.451682 131.961553 
L 310.849677 131.869575 
L 312.247673 119.250791 
L 313.645669 119.460013 
L 315.043665 118.179937 
L 316.44166 118.062081 
L 317.839656 118.24631 
L 319.237652 116.854097 
L 320.635647 118.699543 
L 322.033643 119.67182 
L 323.431639 119.104997 
L 324.829634 119.046881 
L 326.22763 119.59433 
L 327.625626 119.481798 
L 329.023622 119.677767 
L 330.421617 120.77477 
L 331.819613 133.93398 
L 333.217609 133.507975 
L 334.615604 134.418213 
L 336.0136 133.296118 
L 337.411596 155.073603 
L 338.809592 146.311548 
L 340.207587 147.803304 
L 341.605583 148.072061 
L 343.003579 148.200219 
L 344.401574 148.637017 
L 345.79957 154.527839 
L 347.197566 147.951526 
L 348.595561 144.873706 
L 349.993557 143.488907 
L 351.391553 142.417705 
L 352.789549 143.35488 
L 354.187544 111.522594 
L 355.58554 128.503384 
L 356.983536 112.497417 
L 358.381531 50.747742 
L 359.779527 45.816577 
L 361.177523 36.37774 
L 362.575519 35.730513 
L 363.973514 38.812702 
L 365.37151 30.814261 
L 366.769506 31.621492 
L 368.167501 30.371161 
L 369.565497 31.766673 
L 370.963493 30.972181 
L 372.361488 33.784356 
L 373.759484 25.437328 
L 375.15748 28.357837 
L 376.555476 26.877294 
L 377.953471 39.294805 
L 379.351467 34.437455 
L 380.749463 35.127151 
L 382.147458 33.965337 
L 383.545454 67.447441 
L 384.94345 68.80983 
L 386.341446 66.098518 
L 387.739441 67.264303 
L 389.137437 65.643949 
L 390.535433 74.959761 
L 391.933428 72.720201 
L 393.331424 109.320969 
L 394.72942 107.930387 
L 396.127415 108.674321 
L 397.525411 114.563621 
L 398.923407 127.175946 
L 400.321403 128.222625 
L 401.719398 128.295495 
L 403.117394 134.600671 
L 404.51539 136.163421 
L 405.913385 137.49161 
L 407.311381 140.084732 
L 408.709377 140.24193 
L 410.107372 139.748071 
L 411.505368 139.864131 
L 412.903364 140.361465 
L 414.30136 151.147988 
L 415.699355 141.16356 
L 417.097351 152.190393 
L 418.495347 151.906213 
L 421.291338 152.651342 
L 422.689334 151.245693 
L 424.08733 151.415985 
L 424.08733 151.415985 
" clip-path="url(#p123873955c)" style="fill: none; stroke: #134a8e; stroke-width: 3; stroke-linecap: square"/>
    <defs>
     <path id="ma3dfd1a639" d="M 0 1.5 
C 0.397805 1.5 0.77937 1.341951 1.06066 1.06066 
C 1.341951 0.77937 1.5 0.397805 1.5 0 
C 1.5 -0.397805 1.341951 -0.77937 1.06066 -1.06066 
C 0.77937 -1.341951 0.397805 -1.5 0 -1.5 
C -0.397805 -1.5 -0.77937 -1.341951 -1.06066 -1.06066 
C -1.341951 -0.77937 -1.5 -0.397805 -1.5 0 
C -1.5 0.397805 -1.341951 0.77937 -1.06066 1.06066 
C -0.77937 1.341951 -0.397805 1.5 0 1.5 
z
" style="stroke: #134a8e"/>
    </defs>
    <g clip-path="url(#p123873955c)">
     <use xlink:href="#ma3dfd1a639" x="68.99642" y="130.898664" style="fill: #134a8e; stroke: #134a8e"/>
     <use xlink:href="#ma3dfd1a639" x="70.394416" y="131.047092" style="fill: #134a8e; stroke: #134a8e"/>
     <use xlink:href="#ma3dfd1a639" x="71.792412" y="134.729036" style="fill: #134a8e; stroke: #134a8e"/>
     <use xlink:href="#ma3dfd1a639" x="73.190408" y="127.923007" style="fill: #134a8e; stroke: #134a8e"/>
     <use xlink:href="#ma3dfd1a639" x="74.588403" y="129.818506" style="fill: #134a8e; stroke: #134a8e"/>
     <use xlink:href="#ma3dfd1a639" x="75.986399" y="131.143474" style="fill: #134a8e; stroke: #134a8e"/>
     <use xlink:href="#ma3dfd1a639" x="77.384395" y="130.365787" style="fill: #134a8e; stroke: #134a8e"/>
     <use xlink:href="#ma3dfd1a639" x="78.78239" y="130.091571" style="fill: #134a8e; stroke: #134a8e"/>
     <use xlink:href="#ma3dfd1a639" x="80.180386" y="125.383154" style="fill: #134a8e; stroke: #134a8e"/>
     <use xlink:href="#ma3dfd1a639" x="81.578382" y="125.323532" style="fill: #134a8e; stroke: #134a8e"/>
     <use xlink:href="#ma3dfd1a639" x="82.976378" y="120.02109" style="fill: #134a8e; stroke: #134a8e"/>
     <use xlink:href="#ma3dfd1a639" x="84.374373" y="120.466143" style="fill: #134a8e; stroke: #134a8e"/>
     <use xlink:href="#ma3dfd1a639" x="85.772369" y="125.95523" style="fill: #134a8e; stroke: #134a8e"/>
     <use xlink:href="#ma3dfd1a639" x="87.170365" y="126.436835" style="fill: #134a8e; stroke: #134a8e"/>
     <use xlink:href="#ma3dfd1a639" x="88.56836" y="132.294935" style="fill: #134a8e; stroke: #134a8e"/>
     <use xlink:href="#ma3dfd1a639" x="89.966356" y="130.824859" style="fill: #134a8e; stroke: #134a8e"/>
     <use xlink:href="#ma3dfd1a639" x="91.364352" y="132.011151" style="fill: #134a8e; stroke: #134a8e"/>
     <use xlink:href="#ma3dfd1a639" x="92.762347" y="134.569112" style="fill: #134a8e; stroke: #134a8e"/>
     <use xlink:href="#ma3dfd1a639" x="94.160343" y="132.856999" style="fill: #134a8e; stroke: #134a8e"/>
     <use xlink:href="#ma3dfd1a639" x="95.558339" y="132.756053" style="fill: #134a8e; stroke: #134a8e"/>
     <use xlink:href="#ma3dfd1a639" x="96.956335" y="151.451314" style="fill: #134a8e; stroke: #134a8e"/>
     <use xlink:href="#ma3dfd1a639" x="98.35433" y="150.358746" style="fill: #134a8e; stroke: #134a8e"/>
     <use xlink:href="#ma3dfd1a639" x="99.752326" y="151.576049" style="fill: #134a8e; stroke: #134a8e"/>
     <use xlink:href="#ma3dfd1a639" x="101.150322" y="150.236773" style="fill: #134a8e; stroke: #134a8e"/>
     <use xlink:href="#ma3dfd1a639" x="102.548317" y="155.368485" style="fill: #134a8e; stroke: #134a8e"/>
     <use xlink:href="#ma3dfd1a639" x="103.946313" y="155.320944" style="fill: #134a8e; stroke: #134a8e"/>
     <use xlink:href="#ma3dfd1a639" x="105.344309" y="155.972426" style="fill: #134a8e; stroke: #134a8e"/>
     <use xlink:href="#ma3dfd1a639" x="106.742304" y="155.368798" style="fill: #134a8e; stroke: #134a8e"/>
     <use xlink:href="#ma3dfd1a639" x="108.1403" y="152.911419" style="fill: #134a8e; stroke: #134a8e"/>
     <use xlink:href="#ma3dfd1a639" x="109.538296" y="153.055014" style="fill: #134a8e; stroke: #134a8e"/>
     <use xlink:href="#ma3dfd1a639" x="110.936292" y="153.229565" style="fill: #134a8e; stroke: #134a8e"/>
     <use xlink:href="#ma3dfd1a639" x="112.334287" y="153.109916" style="fill: #134a8e; stroke: #134a8e"/>
     <use xlink:href="#ma3dfd1a639" x="113.732283" y="138.882572" style="fill: #134a8e; stroke: #134a8e"/>
     <use xlink:href="#ma3dfd1a639" x="115.130279" y="139.797348" style="fill: #134a8e; stroke: #134a8e"/>
     <use xlink:href="#ma3dfd1a639" x="116.528274" y="141.816962" style="fill: #134a8e; stroke: #134a8e"/>
     <use xlink:href="#ma3dfd1a639" x="117.92627" y="141.213936" style="fill: #134a8e; stroke: #134a8e"/>
     <use xlink:href="#ma3dfd1a639" x="119.324266" y="142.103488" style="fill: #134a8e; stroke: #134a8e"/>
     <use xlink:href="#ma3dfd1a639" x="120.722262" y="143.412706" style="fill: #134a8e; stroke: #134a8e"/>
     <use xlink:href="#ma3dfd1a639" x="122.120257" y="144.676967" style="fill: #134a8e; stroke: #134a8e"/>
     <use xlink:href="#ma3dfd1a639" x="123.518253" y="142.28163" style="fill: #134a8e; stroke: #134a8e"/>
     <use xlink:href="#ma3dfd1a639" x="124.916249" y="142.098584" style="fill: #134a8e; stroke: #134a8e"/>
     <use xlink:href="#ma3dfd1a639" x="126.314244" y="143.285291" style="fill: #134a8e; stroke: #134a8e"/>
     <use xlink:href="#ma3dfd1a639" x="127.71224" y="142.768473" style="fill: #134a8e; stroke: #134a8e"/>
     <use xlink:href="#ma3dfd1a639" x="129.110236" y="142.487043" style="fill: #134a8e; stroke: #134a8e"/>
     <use xlink:href="#ma3dfd1a639" x="130.508231" y="143.073894" style="fill: #134a8e; stroke: #134a8e"/>
     <use xlink:href="#ma3dfd1a639" x="131.906227" y="132.054792" style="fill: #134a8e; stroke: #134a8e"/>
     <use xlink:href="#ma3dfd1a639" x="133.304223" y="140.367073" style="fill: #134a8e; stroke: #134a8e"/>
     <use xlink:href="#ma3dfd1a639" x="134.702219" y="137.111169" style="fill: #134a8e; stroke: #134a8e"/>
     <use xlink:href="#ma3dfd1a639" x="136.100214" y="137.86009" style="fill: #134a8e; stroke: #134a8e"/>
     <use xlink:href="#ma3dfd1a639" x="137.49821" y="133.75969" style="fill: #134a8e; stroke: #134a8e"/>
     <use xlink:href="#ma3dfd1a639" x="138.896206" y="133.072911" style="fill: #134a8e; stroke: #134a8e"/>
     <use xlink:href="#ma3dfd1a639" x="140.294201" y="132.880904" style="fill: #134a8e; stroke: #134a8e"/>
     <use xlink:href="#ma3dfd1a639" x="141.692197" y="132.701001" style="fill: #134a8e; stroke: #134a8e"/>
     <use xlink:href="#ma3dfd1a639" x="143.090193" y="130.927528" style="fill: #134a8e; stroke: #134a8e"/>
     <use xlink:href="#ma3dfd1a639" x="144.488189" y="134.854735" style="fill: #134a8e; stroke: #134a8e"/>
     <use xlink:href="#ma3dfd1a639" x="145.886184" y="132.098754" style="fill: #134a8e; stroke: #134a8e"/>
     <use xlink:href="#ma3dfd1a639" x="147.28418" y="103.127678" style="fill: #134a8e; stroke: #134a8e"/>
     <use xlink:href="#ma3dfd1a639" x="148.682176" y="104.370715" style="fill: #134a8e; stroke: #134a8e"/>
     <use xlink:href="#ma3dfd1a639" x="150.080171" y="104.064867" style="fill: #134a8e; stroke: #134a8e"/>
     <use xlink:href="#ma3dfd1a639" x="151.478167" y="127.56366" style="fill: #134a8e; stroke: #134a8e"/>
     <use xlink:href="#ma3dfd1a639" x="152.876163" y="128.570622" style="fill: #134a8e; stroke: #134a8e"/>
     <use xlink:href="#ma3dfd1a639" x="154.274158" y="127.627607" style="fill: #134a8e; stroke: #134a8e"/>
     <use xlink:href="#ma3dfd1a639" x="155.672154" y="127.533695" style="fill: #134a8e; stroke: #134a8e"/>
     <use xlink:href="#ma3dfd1a639" x="157.07015" y="129.843978" style="fill: #134a8e; stroke: #134a8e"/>
     <use xlink:href="#ma3dfd1a639" x="158.468146" y="130.198312" style="fill: #134a8e; stroke: #134a8e"/>
     <use xlink:href="#ma3dfd1a639" x="159.866141" y="129.530428" style="fill: #134a8e; stroke: #134a8e"/>
     <use xlink:href="#ma3dfd1a639" x="161.264137" y="131.316763" style="fill: #134a8e; stroke: #134a8e"/>
     <use xlink:href="#ma3dfd1a639" x="162.662133" y="129.040404" style="fill: #134a8e; stroke: #134a8e"/>
     <use xlink:href="#ma3dfd1a639" x="164.060128" y="128.843181" style="fill: #134a8e; stroke: #134a8e"/>
     <use xlink:href="#ma3dfd1a639" x="165.458124" y="98.421314" style="fill: #134a8e; stroke: #134a8e"/>
     <use xlink:href="#ma3dfd1a639" x="166.85612" y="98.183376" style="fill: #134a8e; stroke: #134a8e"/>
     <use xlink:href="#ma3dfd1a639" x="168.254116" y="126.346554" style="fill: #134a8e; stroke: #134a8e"/>
     <use xlink:href="#ma3dfd1a639" x="169.652111" y="126.072153" style="fill: #134a8e; stroke: #134a8e"/>
     <use xlink:href="#ma3dfd1a639" x="171.050107" y="116.739327" style="fill: #134a8e; stroke: #134a8e"/>
     <use xlink:href="#ma3dfd1a639" x="172.448103" y="99.877967" style="fill: #134a8e; stroke: #134a8e"/>
     <use xlink:href="#ma3dfd1a639" x="173.846098" y="101.644961" style="fill: #134a8e; stroke: #134a8e"/>
     <use xlink:href="#ma3dfd1a639" x="175.244094" y="116.601915" style="fill: #134a8e; stroke: #134a8e"/>
     <use xlink:href="#ma3dfd1a639" x="176.64209" y="98.201025" style="fill: #134a8e; stroke: #134a8e"/>
     <use xlink:href="#ma3dfd1a639" x="178.040085" y="100.156463" style="fill: #134a8e; stroke: #134a8e"/>
     <use xlink:href="#ma3dfd1a639" x="179.438081" y="99.982319" style="fill: #134a8e; stroke: #134a8e"/>
     <use xlink:href="#ma3dfd1a639" x="180.836077" y="100.241831" style="fill: #134a8e; stroke: #134a8e"/>
     <use xlink:href="#ma3dfd1a639" x="182.234073" y="97.607985" style="fill: #134a8e; stroke: #134a8e"/>
     <use xlink:href="#ma3dfd1a639" x="183.632068" y="100.495445" style="fill: #134a8e; stroke: #134a8e"/>
     <use xlink:href="#ma3dfd1a639" x="185.030064" y="102.029325" style="fill: #134a8e; stroke: #134a8e"/>
     <use xlink:href="#ma3dfd1a639" x="186.42806" y="102.119033" style="fill: #134a8e; stroke: #134a8e"/>
     <use xlink:href="#ma3dfd1a639" x="187.826055" y="100.877274" style="fill: #134a8e; stroke: #134a8e"/>
     <use xlink:href="#ma3dfd1a639" x="189.224051" y="101.545452" style="fill: #134a8e; stroke: #134a8e"/>
     <use xlink:href="#ma3dfd1a639" x="190.622047" y="116.23224" style="fill: #134a8e; stroke: #134a8e"/>
     <use xlink:href="#ma3dfd1a639" x="192.020043" y="119.162408" style="fill: #134a8e; stroke: #134a8e"/>
     <use xlink:href="#ma3dfd1a639" x="193.418038" y="118.655653" style="fill: #134a8e; stroke: #134a8e"/>
     <use xlink:href="#ma3dfd1a639" x="194.816034" y="115.633945" style="fill: #134a8e; stroke: #134a8e"/>
     <use xlink:href="#ma3dfd1a639" x="196.21403" y="116.672087" style="fill: #134a8e; stroke: #134a8e"/>
     <use xlink:href="#ma3dfd1a639" x="197.612025" y="125.946605" style="fill: #134a8e; stroke: #134a8e"/>
     <use xlink:href="#ma3dfd1a639" x="199.010021" y="125.282226" style="fill: #134a8e; stroke: #134a8e"/>
     <use xlink:href="#ma3dfd1a639" x="200.408017" y="116.559828" style="fill: #134a8e; stroke: #134a8e"/>
     <use xlink:href="#ma3dfd1a639" x="201.806012" y="124.547048" style="fill: #134a8e; stroke: #134a8e"/>
     <use xlink:href="#ma3dfd1a639" x="203.204008" y="113.043493" style="fill: #134a8e; stroke: #134a8e"/>
     <use xlink:href="#ma3dfd1a639" x="204.602004" y="93.097583" style="fill: #134a8e; stroke: #134a8e"/>
     <use xlink:href="#ma3dfd1a639" x="206" y="93.836052" style="fill: #134a8e; stroke: #134a8e"/>
     <use xlink:href="#ma3dfd1a639" x="207.397995" y="88.765498" style="fill: #134a8e; stroke: #134a8e"/>
     <use xlink:href="#ma3dfd1a639" x="208.795991" y="110.805022" style="fill: #134a8e; stroke: #134a8e"/>
     <use xlink:href="#ma3dfd1a639" x="210.193987" y="87.126321" style="fill: #134a8e; stroke: #134a8e"/>
     <use xlink:href="#ma3dfd1a639" x="211.591982" y="87.821478" style="fill: #134a8e; stroke: #134a8e"/>
     <use xlink:href="#ma3dfd1a639" x="212.989978" y="89.092844" style="fill: #134a8e; stroke: #134a8e"/>
     <use xlink:href="#ma3dfd1a639" x="214.387974" y="84.047213" style="fill: #134a8e; stroke: #134a8e"/>
     <use xlink:href="#ma3dfd1a639" x="215.785969" y="82.439527" style="fill: #134a8e; stroke: #134a8e"/>
     <use xlink:href="#ma3dfd1a639" x="217.183965" y="85.368808" style="fill: #134a8e; stroke: #134a8e"/>
     <use xlink:href="#ma3dfd1a639" x="218.581961" y="85.931573" style="fill: #134a8e; stroke: #134a8e"/>
     <use xlink:href="#ma3dfd1a639" x="219.979957" y="86.261215" style="fill: #134a8e; stroke: #134a8e"/>
     <use xlink:href="#ma3dfd1a639" x="221.377952" y="74.460464" style="fill: #134a8e; stroke: #134a8e"/>
     <use xlink:href="#ma3dfd1a639" x="222.775948" y="83.689445" style="fill: #134a8e; stroke: #134a8e"/>
     <use xlink:href="#ma3dfd1a639" x="224.173944" y="86.943669" style="fill: #134a8e; stroke: #134a8e"/>
     <use xlink:href="#ma3dfd1a639" x="225.571939" y="85.45555" style="fill: #134a8e; stroke: #134a8e"/>
     <use xlink:href="#ma3dfd1a639" x="226.969935" y="88.27473" style="fill: #134a8e; stroke: #134a8e"/>
     <use xlink:href="#ma3dfd1a639" x="228.367931" y="86.15456" style="fill: #134a8e; stroke: #134a8e"/>
     <use xlink:href="#ma3dfd1a639" x="229.765927" y="85.647917" style="fill: #134a8e; stroke: #134a8e"/>
     <use xlink:href="#ma3dfd1a639" x="231.163922" y="87.851745" style="fill: #134a8e; stroke: #134a8e"/>
     <use xlink:href="#ma3dfd1a639" x="232.561918" y="89.236144" style="fill: #134a8e; stroke: #134a8e"/>
     <use xlink:href="#ma3dfd1a639" x="233.959914" y="89.17726" style="fill: #134a8e; stroke: #134a8e"/>
     <use xlink:href="#ma3dfd1a639" x="235.357909" y="88.764264" style="fill: #134a8e; stroke: #134a8e"/>
     <use xlink:href="#ma3dfd1a639" x="236.755905" y="89.806463" style="fill: #134a8e; stroke: #134a8e"/>
     <use xlink:href="#ma3dfd1a639" x="238.153901" y="89.698957" style="fill: #134a8e; stroke: #134a8e"/>
     <use xlink:href="#ma3dfd1a639" x="239.551896" y="90.709415" style="fill: #134a8e; stroke: #134a8e"/>
     <use xlink:href="#ma3dfd1a639" x="240.949892" y="122.036369" style="fill: #134a8e; stroke: #134a8e"/>
     <use xlink:href="#ma3dfd1a639" x="242.347888" y="97.12167" style="fill: #134a8e; stroke: #134a8e"/>
     <use xlink:href="#ma3dfd1a639" x="243.745884" y="97.877717" style="fill: #134a8e; stroke: #134a8e"/>
     <use xlink:href="#ma3dfd1a639" x="245.143879" y="98.720265" style="fill: #134a8e; stroke: #134a8e"/>
     <use xlink:href="#ma3dfd1a639" x="246.541875" y="94.10713" style="fill: #134a8e; stroke: #134a8e"/>
     <use xlink:href="#ma3dfd1a639" x="247.939871" y="94.211784" style="fill: #134a8e; stroke: #134a8e"/>
     <use xlink:href="#ma3dfd1a639" x="249.337866" y="99.762132" style="fill: #134a8e; stroke: #134a8e"/>
     <use xlink:href="#ma3dfd1a639" x="250.735862" y="100.527188" style="fill: #134a8e; stroke: #134a8e"/>
     <use xlink:href="#ma3dfd1a639" x="252.133858" y="111.897829" style="fill: #134a8e; stroke: #134a8e"/>
     <use xlink:href="#ma3dfd1a639" x="253.531854" y="112.465775" style="fill: #134a8e; stroke: #134a8e"/>
     <use xlink:href="#ma3dfd1a639" x="254.929849" y="112.617228" style="fill: #134a8e; stroke: #134a8e"/>
     <use xlink:href="#ma3dfd1a639" x="256.327845" y="115.056175" style="fill: #134a8e; stroke: #134a8e"/>
     <use xlink:href="#ma3dfd1a639" x="257.725841" y="115.246286" style="fill: #134a8e; stroke: #134a8e"/>
     <use xlink:href="#ma3dfd1a639" x="259.123836" y="115.651924" style="fill: #134a8e; stroke: #134a8e"/>
     <use xlink:href="#ma3dfd1a639" x="260.521832" y="115.931476" style="fill: #134a8e; stroke: #134a8e"/>
     <use xlink:href="#ma3dfd1a639" x="261.919828" y="116.201312" style="fill: #134a8e; stroke: #134a8e"/>
     <use xlink:href="#ma3dfd1a639" x="263.317823" y="115.597538" style="fill: #134a8e; stroke: #134a8e"/>
     <use xlink:href="#ma3dfd1a639" x="264.715819" y="115.180182" style="fill: #134a8e; stroke: #134a8e"/>
     <use xlink:href="#ma3dfd1a639" x="266.113815" y="116.873074" style="fill: #134a8e; stroke: #134a8e"/>
     <use xlink:href="#ma3dfd1a639" x="267.511811" y="117.065442" style="fill: #134a8e; stroke: #134a8e"/>
     <use xlink:href="#ma3dfd1a639" x="268.909806" y="116.347533" style="fill: #134a8e; stroke: #134a8e"/>
     <use xlink:href="#ma3dfd1a639" x="270.307802" y="117.573492" style="fill: #134a8e; stroke: #134a8e"/>
     <use xlink:href="#ma3dfd1a639" x="271.705798" y="116.443708" style="fill: #134a8e; stroke: #134a8e"/>
     <use xlink:href="#ma3dfd1a639" x="273.103793" y="116.470704" style="fill: #134a8e; stroke: #134a8e"/>
     <use xlink:href="#ma3dfd1a639" x="274.501789" y="117.368066" style="fill: #134a8e; stroke: #134a8e"/>
     <use xlink:href="#ma3dfd1a639" x="275.899785" y="126.907802" style="fill: #134a8e; stroke: #134a8e"/>
     <use xlink:href="#ma3dfd1a639" x="277.297781" y="129.199771" style="fill: #134a8e; stroke: #134a8e"/>
     <use xlink:href="#ma3dfd1a639" x="278.695776" y="145.643353" style="fill: #134a8e; stroke: #134a8e"/>
     <use xlink:href="#ma3dfd1a639" x="280.093772" y="147.385065" style="fill: #134a8e; stroke: #134a8e"/>
     <use xlink:href="#ma3dfd1a639" x="281.491768" y="145.139524" style="fill: #134a8e; stroke: #134a8e"/>
     <use xlink:href="#ma3dfd1a639" x="282.889763" y="145.732706" style="fill: #134a8e; stroke: #134a8e"/>
     <use xlink:href="#ma3dfd1a639" x="284.287759" y="147.422827" style="fill: #134a8e; stroke: #134a8e"/>
     <use xlink:href="#ma3dfd1a639" x="285.685755" y="147.28584" style="fill: #134a8e; stroke: #134a8e"/>
     <use xlink:href="#ma3dfd1a639" x="287.08375" y="148.297008" style="fill: #134a8e; stroke: #134a8e"/>
     <use xlink:href="#ma3dfd1a639" x="288.481746" y="154.848524" style="fill: #134a8e; stroke: #134a8e"/>
     <use xlink:href="#ma3dfd1a639" x="289.879742" y="157.259662" style="fill: #134a8e; stroke: #134a8e"/>
     <use xlink:href="#ma3dfd1a639" x="291.277738" y="157.248823" style="fill: #134a8e; stroke: #134a8e"/>
     <use xlink:href="#ma3dfd1a639" x="292.675733" y="156.14052" style="fill: #134a8e; stroke: #134a8e"/>
     <use xlink:href="#ma3dfd1a639" x="294.073729" y="154.826528" style="fill: #134a8e; stroke: #134a8e"/>
     <use xlink:href="#ma3dfd1a639" x="295.471725" y="148.924454" style="fill: #134a8e; stroke: #134a8e"/>
     <use xlink:href="#ma3dfd1a639" x="296.86972" y="148.674673" style="fill: #134a8e; stroke: #134a8e"/>
     <use xlink:href="#ma3dfd1a639" x="298.267716" y="149.058272" style="fill: #134a8e; stroke: #134a8e"/>
     <use xlink:href="#ma3dfd1a639" x="299.665712" y="147.760382" style="fill: #134a8e; stroke: #134a8e"/>
     <use xlink:href="#ma3dfd1a639" x="301.063707" y="148.052072" style="fill: #134a8e; stroke: #134a8e"/>
     <use xlink:href="#ma3dfd1a639" x="302.461703" y="146.509943" style="fill: #134a8e; stroke: #134a8e"/>
     <use xlink:href="#ma3dfd1a639" x="303.859699" y="146.063438" style="fill: #134a8e; stroke: #134a8e"/>
     <use xlink:href="#ma3dfd1a639" x="305.257695" y="146.681276" style="fill: #134a8e; stroke: #134a8e"/>
     <use xlink:href="#ma3dfd1a639" x="306.65569" y="145.774438" style="fill: #134a8e; stroke: #134a8e"/>
     <use xlink:href="#ma3dfd1a639" x="308.053686" y="135.184338" style="fill: #134a8e; stroke: #134a8e"/>
     <use xlink:href="#ma3dfd1a639" x="309.451682" y="131.961553" style="fill: #134a8e; stroke: #134a8e"/>
     <use xlink:href="#ma3dfd1a639" x="310.849677" y="131.869575" style="fill: #134a8e; stroke: #134a8e"/>
     <use xlink:href="#ma3dfd1a639" x="312.247673" y="119.250791" style="fill: #134a8e; stroke: #134a8e"/>
     <use xlink:href="#ma3dfd1a639" x="313.645669" y="119.460013" style="fill: #134a8e; stroke: #134a8e"/>
     <use xlink:href="#ma3dfd1a639" x="315.043665" y="118.179937" style="fill: #134a8e; stroke: #134a8e"/>
     <use xlink:href="#ma3dfd1a639" x="316.44166" y="118.062081" style="fill: #134a8e; stroke: #134a8e"/>
     <use xlink:href="#ma3dfd1a639" x="317.839656" y="118.24631" style="fill: #134a8e; stroke: #134a8e"/>
     <use xlink:href="#ma3dfd1a639" x="319.237652" y="116.854097" style="fill: #134a8e; stroke: #134a8e"/>
     <use xlink:href="#ma3dfd1a639" x="320.635647" y="118.699543" style="fill: #134a8e; stroke: #134a8e"/>
     <use xlink:href="#ma3dfd1a639" x="322.033643" y="119.67182" style="fill: #134a8e; stroke: #134a8e"/>
     <use xlink:href="#ma3dfd1a639" x="323.431639" y="119.104997" style="fill: #134a8e; stroke: #134a8e"/>
     <use xlink:href="#ma3dfd1a639" x="324.829634" y="119.046881" style="fill: #134a8e; stroke: #134a8e"/>
     <use xlink:href="#ma3dfd1a639" x="326.22763" y="119.59433" style="fill: #134a8e; stroke: #134a8e"/>
     <use xlink:href="#ma3dfd1a639" x="327.625626" y="119.481798" style="fill: #134a8e; stroke: #134a8e"/>
     <use xlink:href="#ma3dfd1a639" x="329.023622" y="119.677767" style="fill: #134a8e; stroke: #134a8e"/>
     <use xlink:href="#ma3dfd1a639" x="330.421617" y="120.77477" style="fill: #134a8e; stroke: #134a8e"/>
     <use xlink:href="#ma3dfd1a639" x="331.819613" y="133.93398" style="fill: #134a8e; stroke: #134a8e"/>
     <use xlink:href="#ma3dfd1a639" x="333.217609" y="133.507975" style="fill: #134a8e; stroke: #134a8e"/>
     <use xlink:href="#ma3dfd1a639" x="334.615604" y="134.418213" style="fill: #134a8e; stroke: #134a8e"/>
     <use xlink:href="#ma3dfd1a639" x="336.0136" y="133.296118" style="fill: #134a8e; stroke: #134a8e"/>
     <use xlink:href="#ma3dfd1a639" x="337.411596" y="155.073603" style="fill: #134a8e; stroke: #134a8e"/>
     <use xlink:href="#ma3dfd1a639" x="338.809592" y="146.311548" style="fill: #134a8e; stroke: #134a8e"/>
     <use xlink:href="#ma3dfd1a639" x="340.207587" y="147.803304" style="fill: #134a8e; stroke: #134a8e"/>
     <use xlink:href="#ma3dfd1a639" x="341.605583" y="148.072061" style="fill: #134a8e; stroke: #134a8e"/>
     <use xlink:href="#ma3dfd1a639" x="343.003579" y="148.200219" style="fill: #134a8e; stroke: #134a8e"/>
     <use xlink:href="#ma3dfd1a639" x="344.401574" y="148.637017" style="fill: #134a8e; stroke: #134a8e"/>
     <use xlink:href="#ma3dfd1a639" x="345.79957" y="154.527839" style="fill: #134a8e; stroke: #134a8e"/>
     <use xlink:href="#ma3dfd1a639" x="347.197566" y="147.951526" style="fill: #134a8e; stroke: #134a8e"/>
     <use xlink:href="#ma3dfd1a639" x="348.595561" y="144.873706" style="fill: #134a8e; stroke: #134a8e"/>
     <use xlink:href="#ma3dfd1a639" x="349.993557" y="143.488907" style="fill: #134a8e; stroke: #134a8e"/>
     <use xlink:href="#ma3dfd1a639" x="351.391553" y="142.417705" style="fill: #134a8e; stroke: #134a8e"/>
     <use xlink:href="#ma3dfd1a639" x="352.789549" y="143.35488" style="fill: #134a8e; stroke: #134a8e"/>
     <use xlink:href="#ma3dfd1a639" x="354.187544" y="111.522594" style="fill: #134a8e; stroke: #134a8e"/>
     <use xlink:href="#ma3dfd1a639" x="355.58554" y="128.503384" style="fill: #134a8e; stroke: #134a8e"/>
     <use xlink:href="#ma3dfd1a639" x="356.983536" y="112.497417" style="fill: #134a8e; stroke: #134a8e"/>
     <use xlink:href="#ma3dfd1a639" x="358.381531" y="50.747742" style="fill: #134a8e; stroke: #134a8e"/>
     <use xlink:href="#ma3dfd1a639" x="359.779527" y="45.816577" style="fill: #134a8e; stroke: #134a8e"/>
     <use xlink:href="#ma3dfd1a639" x="361.177523" y="36.37774" style="fill: #134a8e; stroke: #134a8e"/>
     <use xlink:href="#ma3dfd1a639" x="362.575519" y="35.730513" style="fill: #134a8e; stroke: #134a8e"/>
     <use xlink:href="#ma3dfd1a639" x="363.973514" y="38.812702" style="fill: #134a8e; stroke: #134a8e"/>
     <use xlink:href="#ma3dfd1a639" x="365.37151" y="30.814261" style="fill: #134a8e; stroke: #134a8e"/>
     <use xlink:href="#ma3dfd1a639" x="366.769506" y="31.621492" style="fill: #134a8e; stroke: #134a8e"/>
     <use xlink:href="#ma3dfd1a639" x="368.167501" y="30.371161" style="fill: #134a8e; stroke: #134a8e"/>
     <use xlink:href="#ma3dfd1a639" x="369.565497" y="31.766673" style="fill: #134a8e; stroke: #134a8e"/>
     <use xlink:href="#ma3dfd1a639" x="370.963493" y="30.972181" style="fill: #134a8e; stroke: #134a8e"/>
     <use xlink:href="#ma3dfd1a639" x="372.361488" y="33.784356" style="fill: #134a8e; stroke: #134a8e"/>
     <use xlink:href="#ma3dfd1a639" x="373.759484" y="25.437328" style="fill: #134a8e; stroke: #134a8e"/>
     <use xlink:href="#ma3dfd1a639" x="375.15748" y="28.357837" style="fill: #134a8e; stroke: #134a8e"/>
     <use xlink:href="#ma3dfd1a639" x="376.555476" y="26.877294" style="fill: #134a8e; stroke: #134a8e"/>
     <use xlink:href="#ma3dfd1a639" x="377.953471" y="39.294805" style="fill: #134a8e; stroke: #134a8e"/>
     <use xlink:href="#ma3dfd1a639" x="379.351467" y="34.437455" style="fill: #134a8e; stroke: #134a8e"/>
     <use xlink:href="#ma3dfd1a639" x="380.749463" y="35.127151" style="fill: #134a8e; stroke: #134a8e"/>
     <use xlink:href="#ma3dfd1a639" x="382.147458" y="33.965337" style="fill: #134a8e; stroke: #134a8e"/>
     <use xlink:href="#ma3dfd1a639" x="383.545454" y="67.447441" style="fill: #134a8e; stroke: #134a8e"/>
     <use xlink:href="#ma3dfd1a639" x="384.94345" y="68.80983" style="fill: #134a8e; stroke: #134a8e"/>
     <use xlink:href="#ma3dfd1a639" x="386.341446" y="66.098518" style="fill: #134a8e; stroke: #134a8e"/>
     <use xlink:href="#ma3dfd1a639" x="387.739441" y="67.264303" style="fill: #134a8e; stroke: #134a8e"/>
     <use xlink:href="#ma3dfd1a639" x="389.137437" y="65.643949" style="fill: #134a8e; stroke: #134a8e"/>
     <use xlink:href="#ma3dfd1a639" x="390.535433" y="74.959761" style="fill: #134a8e; stroke: #134a8e"/>
     <use xlink:href="#ma3dfd1a639" x="391.933428" y="72.720201" style="fill: #134a8e; stroke: #134a8e"/>
     <use xlink:href="#ma3dfd1a639" x="393.331424" y="109.320969" style="fill: #134a8e; stroke: #134a8e"/>
     <use xlink:href="#ma3dfd1a639" x="394.72942" y="107.930387" style="fill: #134a8e; stroke: #134a8e"/>
     <use xlink:href="#ma3dfd1a639" x="396.127415" y="108.674321" style="fill: #134a8e; stroke: #134a8e"/>
     <use xlink:href="#ma3dfd1a639" x="397.525411" y="114.563621" style="fill: #134a8e; stroke: #134a8e"/>
     <use xlink:href="#ma3dfd1a639" x="398.923407" y="127.175946" style="fill: #134a8e; stroke: #134a8e"/>
     <use xlink:href="#ma3dfd1a639" x="400.321403" y="128.222625" style="fill: #134a8e; stroke: #134a8e"/>
     <use xlink:href="#ma3dfd1a639" x="401.719398" y="128.295495" style="fill: #134a8e; stroke: #134a8e"/>
     <use xlink:href="#ma3dfd1a639" x="403.117394" y="134.600671" style="fill: #134a8e; stroke: #134a8e"/>
     <use xlink:href="#ma3dfd1a639" x="404.51539" y="136.163421" style="fill: #134a8e; stroke: #134a8e"/>
     <use xlink:href="#ma3dfd1a639" x="405.913385" y="137.49161" style="fill: #134a8e; stroke: #134a8e"/>
     <use xlink:href="#ma3dfd1a639" x="407.311381" y="140.084732" style="fill: #134a8e; stroke: #134a8e"/>
     <use xlink:href="#ma3dfd1a639" x="408.709377" y="140.24193" style="fill: #134a8e; stroke: #134a8e"/>
     <use xlink:href="#ma3dfd1a639" x="410.107372" y="139.748071" style="fill: #134a8e; stroke: #134a8e"/>
     <use xlink:href="#ma3dfd1a639" x="411.505368" y="139.864131" style="fill: #134a8e; stroke: #134a8e"/>
     <use xlink:href="#ma3dfd1a639" x="412.903364" y="140.361465" style="fill: #134a8e; stroke: #134a8e"/>
     <use xlink:href="#ma3dfd1a639" x="414.30136" y="151.147988" style="fill: #134a8e; stroke: #134a8e"/>
     <use xlink:href="#ma3dfd1a639" x="415.699355" y="141.16356" style="fill: #134a8e; stroke: #134a8e"/>
     <use xlink:href="#ma3dfd1a639" x="417.097351" y="152.190393" style="fill: #134a8e; stroke: #134a8e"/>
     <use xlink:href="#ma3dfd1a639" x="418.495347" y="151.906213" style="fill: #134a8e; stroke: #134a8e"/>
     <use xlink:href="#ma3dfd1a639" x="419.893342" y="152.293318" style="fill: #134a8e; stroke: #134a8e"/>
     <use xlink:href="#ma3dfd1a639" x="421.291338" y="152.651342" style="fill: #134a8e; stroke: #134a8e"/>
     <use xlink:href="#ma3dfd1a639" x="422.689334" y="151.245693" style="fill: #134a8e; stroke: #134a8e"/>
     <use xlink:href="#ma3dfd1a639" x="424.08733" y="151.415985" style="fill: #134a8e; stroke: #134a8e"/>
    </g>
   </g>
   <g id="line2d_24">
    <path d="M 68.99642 142.578016 
L 70.394416 142.649115 
L 71.792412 147.068826 
L 73.190408 146.192136 
L 74.588403 146.401463 
L 75.986399 146.356718 
L 77.384395 141.515395 
L 78.78239 141.555547 
L 81.578382 140.961028 
L 82.976378 135.968841 
L 84.374373 135.587598 
L 85.772369 139.218106 
L 87.170365 140.774442 
L 88.56836 146.089041 
L 89.966356 146.465618 
L 91.364352 146.542228 
L 92.762347 147.195695 
L 95.558339 146.672819 
L 96.956335 150.78822 
L 98.35433 151.508007 
L 99.752326 151.476767 
L 101.150322 151.586166 
L 102.548317 156.386422 
L 103.946313 156.467095 
L 105.344309 156.814218 
L 108.1403 156.261977 
L 109.538296 156.372446 
L 112.334287 156.191779 
L 113.732283 151.192002 
L 115.130279 146.787614 
L 116.528274 147.636003 
L 117.92627 146.091037 
L 119.324266 147.164555 
L 120.722262 146.992923 
L 122.120257 151.820804 
L 123.518253 147.341031 
L 124.916249 142.452107 
L 126.314244 142.111748 
L 127.71224 142.022949 
L 130.508231 142.507315 
L 131.906227 132.609113 
L 133.304223 137.369214 
L 134.702219 136.947386 
L 136.100214 137.229301 
L 137.49821 132.842591 
L 138.896206 132.742038 
L 140.294201 134.20052 
L 141.692197 130.329483 
L 144.488189 139.617249 
L 145.886184 136.501852 
L 147.28418 120.267244 
L 148.682176 116.270051 
L 150.080171 117.762677 
L 151.478167 126.730031 
L 152.876163 127.606249 
L 154.274158 131.848663 
L 155.672154 133.075728 
L 157.07015 136.424598 
L 158.468146 137.175346 
L 159.866141 137.336515 
L 161.264137 141.434302 
L 162.662133 136.833817 
L 164.060128 135.245675 
L 165.458124 119.380827 
L 166.85612 119.487772 
L 168.254116 124.618111 
L 169.652111 125.785863 
L 171.050107 122.483898 
L 172.448103 121.513365 
L 173.846098 122.597254 
L 175.244094 125.453697 
L 176.64209 115.14069 
L 178.040085 112.661804 
L 179.438081 113.11409 
L 180.836077 108.849694 
L 182.234073 106.604423 
L 183.632068 106.813392 
L 185.030064 117.120578 
L 186.42806 118.885309 
L 187.826055 123.135483 
L 189.224051 122.33408 
L 190.622047 124.108718 
L 192.020043 126.902662 
L 193.418038 126.464104 
L 194.816034 124.259431 
L 196.21403 125.591855 
L 197.612025 127.561585 
L 199.010021 127.984267 
L 200.408017 122.294072 
L 201.806012 126.353388 
L 203.204008 120.07215 
L 204.602004 116.380785 
L 206 115.358746 
L 207.397995 113.406001 
L 208.795991 117.409841 
L 210.193987 114.188919 
L 211.591982 104.589988 
L 212.989978 101.108699 
L 214.387974 96.02783 
L 215.785969 89.978557 
L 217.183965 94.851566 
L 218.581961 93.711264 
L 219.979957 93.325221 
L 221.377952 81.555689 
L 222.775948 92.656443 
L 224.173944 97.075328 
L 225.571939 97.406829 
L 226.969935 100.498119 
L 228.367931 98.097553 
L 229.765927 98.914534 
L 231.163922 105.352946 
L 232.561918 107.152164 
L 233.959914 108.649187 
L 235.357909 115.71034 
L 236.755905 111.987943 
L 238.153901 113.335418 
L 239.551896 116.406053 
L 240.949892 123.51396 
L 242.347888 120.179997 
L 243.745884 121.024969 
L 245.143879 122.667349 
L 246.541875 116.675476 
L 247.939871 116.886781 
L 249.337866 119.463771 
L 250.735862 122.975109 
L 253.531854 127.971849 
L 254.929849 128.612414 
L 257.725841 130.130782 
L 259.123836 125.270286 
L 260.521832 124.079674 
L 261.919828 125.022498 
L 263.317823 125.791374 
L 264.715819 124.845954 
L 266.113815 130.414266 
L 267.511811 130.13255 
L 268.909806 130.743227 
L 270.307802 124.723455 
L 271.705798 123.713004 
L 273.103793 134.60207 
L 274.501789 134.532024 
L 275.899785 136.636378 
L 277.297781 136.555205 
L 278.695776 147.991602 
L 280.093772 150.976696 
L 281.491768 149.122362 
L 282.889763 148.03424 
L 284.287759 149.943247 
L 285.685755 150.471292 
L 287.08375 153.06725 
L 288.481746 156.603363 
L 289.879742 158.594598 
L 291.277738 158.76 
L 292.675733 157.530065 
L 294.073729 156.596978 
L 295.471725 154.512973 
L 296.86972 155.226803 
L 298.267716 154.022438 
L 299.665712 152.610808 
L 301.063707 152.375165 
L 302.461703 150.94445 
L 303.859699 150.905105 
L 305.257695 150.203261 
L 306.65569 148.654808 
L 308.053686 141.917146 
L 309.451682 138.790576 
L 310.849677 138.073548 
L 312.247673 130.746408 
L 313.645669 129.213601 
L 315.043665 129.578984 
L 316.44166 129.291538 
L 317.839656 121.078944 
L 319.237652 121.294152 
L 322.033643 125.681182 
L 323.431639 125.41777 
L 324.829634 123.88426 
L 326.22763 120.585997 
L 327.625626 124.378125 
L 329.023622 126.667745 
L 330.421617 125.619342 
L 331.819613 135.14743 
L 333.217609 139.401883 
L 334.615604 140.239839 
L 336.0136 140.006496 
L 337.411596 156.390517 
L 338.809592 151.074433 
L 340.207587 153.522632 
L 341.605583 153.371911 
L 344.401574 153.234365 
L 345.79957 155.944537 
L 347.197566 153.576055 
L 349.993557 143.403114 
L 351.391553 143.885623 
L 352.789549 143.882758 
L 354.187544 122.762201 
L 355.58554 131.251209 
L 356.983536 125.539378 
L 358.381531 70.13122 
L 359.779527 62.661503 
L 361.177523 67.178084 
L 362.575519 66.906741 
L 363.973514 59.316415 
L 365.37151 57.542191 
L 366.769506 51.289526 
L 368.167501 55.278329 
L 369.565497 53.698069 
L 370.963493 56.720036 
L 372.361488 56.548385 
L 373.759484 42.511638 
L 375.15748 39.105643 
L 376.555476 39.487151 
L 377.953471 69.93259 
L 379.351467 64.956939 
L 380.749463 68.8278 
L 382.147458 68.92433 
L 383.545454 72.10757 
L 384.94345 75.897566 
L 386.341446 83.935035 
L 387.739441 85.873134 
L 389.137437 91.139848 
L 390.535433 95.06077 
L 391.933428 95.205179 
L 393.331424 117.253398 
L 394.72942 114.851309 
L 396.127415 122.700251 
L 397.525411 125.27928 
L 398.923407 132.465115 
L 400.321403 134.525127 
L 401.719398 134.531465 
L 403.117394 139.593139 
L 404.51539 141.973177 
L 405.913385 143.391831 
L 407.311381 146.164481 
L 408.709377 148.375949 
L 410.107372 148.642177 
L 411.505368 148.668368 
L 412.903364 148.429944 
L 414.30136 152.532015 
L 415.699355 151.407346 
L 417.097351 154.298151 
L 418.495347 154.507574 
L 419.893342 154.291528 
L 421.291338 155.293646 
L 422.689334 152.880478 
L 424.08733 152.866853 
L 424.08733 152.866853 
" clip-path="url(#p123873955c)" style="fill: none; stroke-dasharray: 5.55,2.4; stroke-dashoffset: 0; stroke: #000000; stroke-width: 1.5"/>
   </g>
   <g id="patch_3">
    <path d="M 51.241875 166.32 
L 51.241875 -0 
" style="fill: none; stroke: #ffffff; stroke-linejoin: miter; stroke-linecap: square"/>
   </g>
   <g id="patch_4">
    <path d="M 441.841875 166.32 
L 441.841875 -0 
" style="fill: none; stroke: #ffffff; stroke-linejoin: miter; stroke-linecap: square"/>
   </g>
   <g id="patch_5">
    <path d="M 51.241875 166.32 
L 441.841875 166.32 
" style="fill: none; stroke: #ffffff; stroke-linejoin: miter; stroke-linecap: square"/>
   </g>
   <g id="patch_6">
    <path d="M 51.241875 -0 
L 441.841875 -0 
" style="fill: none; stroke: #ffffff; stroke-linejoin: miter; stroke-linecap: square"/>
   </g>
   <g id="legend_1">
    <g id="patch_7">
     <path d="M 58.241875 60.378125 
L 210.28875 60.378125 
Q 212.28875 60.378125 212.28875 58.378125 
L 212.28875 7 
Q 212.28875 5 210.28875 5 
L 58.241875 5 
Q 56.241875 5 56.241875 7 
L 56.241875 58.378125 
Q 56.241875 60.378125 58.241875 60.378125 
z
" style="fill: #e5e5e5; opacity: 0.8; stroke: #cccccc; stroke-width: 0.5; stroke-linejoin: miter"/>
    </g>
    <g id="line2d_25">
     <path d="M 60.241875 15.5 
L 70.241875 15.5 
L 80.241875 15.5 
" style="fill: none; stroke: #134a8e; stroke-width: 3; stroke-linecap: square"/>
     <g>
      <use xlink:href="#ma3dfd1a639" x="70.241875" y="15.5" style="fill: #134a8e; stroke: #134a8e"/>
     </g>
    </g>
    <g id="text_14">
     <!-- Private Value $\tilde{R}_{\chi_1,\chi_3}^t$ -->
     <g transform="translate(88.241875 19) scale(0.1 -0.1)">
      <defs>
       <path id="DejaVuSans-50" d="M 1259 4147 
L 1259 2394 
L 2053 2394 
Q 2494 2394 2734 2622 
Q 2975 2850 2975 3272 
Q 2975 3691 2734 3919 
Q 2494 4147 2053 4147 
L 1259 4147 
z
M 628 4666 
L 2053 4666 
Q 2838 4666 3239 4311 
Q 3641 3956 3641 3272 
Q 3641 2581 3239 2228 
Q 2838 1875 2053 1875 
L 1259 1875 
L 1259 0 
L 628 0 
L 628 4666 
z
" transform="scale(0.015625)"/>
       <path id="DejaVuSans-72" d="M 2631 2963 
Q 2534 3019 2420 3045 
Q 2306 3072 2169 3072 
Q 1681 3072 1420 2755 
Q 1159 2438 1159 1844 
L 1159 0 
L 581 0 
L 581 3500 
L 1159 3500 
L 1159 2956 
Q 1341 3275 1631 3429 
Q 1922 3584 2338 3584 
Q 2397 3584 2469 3576 
Q 2541 3569 2628 3553 
L 2631 2963 
z
" transform="scale(0.015625)"/>
       <path id="DejaVuSans-69" d="M 603 3500 
L 1178 3500 
L 1178 0 
L 603 0 
L 603 3500 
z
M 603 4863 
L 1178 4863 
L 1178 4134 
L 603 4134 
L 603 4863 
z
" transform="scale(0.015625)"/>
       <path id="DejaVuSans-76" d="M 191 3500 
L 800 3500 
L 1894 563 
L 2988 3500 
L 3597 3500 
L 2284 0 
L 1503 0 
L 191 3500 
z
" transform="scale(0.015625)"/>
       <path id="DejaVuSans-20" transform="scale(0.015625)"/>
       <path id="DejaVuSans-303" d="M -1621 4281 
L -1799 4453 
Q -1867 4516 -1919 4545 
Q -1971 4575 -2011 4575 
Q -2130 4575 -2186 4461 
Q -2242 4347 -2249 4091 
L -2639 4091 
Q -2633 4513 -2473 4742 
Q -2314 4972 -2030 4972 
Q -1911 4972 -1811 4928 
Q -1711 4884 -1596 4781 
L -1417 4609 
Q -1349 4547 -1297 4517 
Q -1246 4488 -1205 4488 
Q -1086 4488 -1030 4602 
Q -974 4716 -967 4972 
L -577 4972 
Q -583 4550 -742 4320 
Q -902 4091 -1186 4091 
Q -1305 4091 -1405 4134 
Q -1505 4178 -1621 4281 
z
" transform="scale(0.015625)"/>
       <path id="DejaVuSans-Oblique-52" d="M 1613 4147 
L 1294 2491 
L 2106 2491 
Q 2584 2491 2879 2755 
Q 3175 3019 3175 3444 
Q 3175 3784 2976 3965 
Q 2778 4147 2406 4147 
L 1613 4147 
z
M 2772 2241 
Q 2972 2194 3105 2009 
Q 3238 1825 3413 1275 
L 3809 0 
L 3144 0 
L 2778 1197 
Q 2638 1659 2453 1815 
Q 2269 1972 1888 1972 
L 1191 1972 
L 806 0 
L 172 0 
L 1081 4666 
L 2503 4666 
Q 3150 4666 3495 4373 
Q 3841 4081 3841 3531 
Q 3841 3044 3547 2687 
Q 3253 2331 2772 2241 
z
" transform="scale(0.015625)"/>
       <path id="DejaVuSans-Oblique-74" d="M 2706 3500 
L 2619 3053 
L 1472 3053 
L 1100 1153 
Q 1081 1047 1072 975 
Q 1063 903 1063 863 
Q 1063 663 1183 572 
Q 1303 481 1569 481 
L 2150 481 
L 2053 0 
L 1503 0 
Q 991 0 739 200 
Q 488 400 488 806 
Q 488 878 497 964 
Q 506 1050 525 1153 
L 897 3053 
L 409 3053 
L 500 3500 
L 978 3500 
L 1172 4494 
L 1747 4494 
L 1556 3500 
L 2706 3500 
z
" transform="scale(0.015625)"/>
       <path id="DejaVuSans-Oblique-3c7" d="M 1922 -781 
L 1691 416 
L 394 -1334 
L -284 -1334 
L 1553 1141 
L 1269 2613 
Q 1194 3006 713 3006 
L 559 3006 
L 653 3500 
L 872 3494 
Q 1675 3472 1775 2950 
L 2006 1753 
L 3303 3503 
L 3981 3503 
L 2144 1028 
L 2428 -444 
Q 2503 -838 2984 -838 
L 3138 -838 
L 3044 -1331 
L 2825 -1325 
Q 2022 -1303 1922 -781 
z
" transform="scale(0.015625)"/>
       <path id="DejaVuSans-2c" d="M 750 794 
L 1409 794 
L 1409 256 
L 897 -744 
L 494 -744 
L 750 256 
L 750 794 
z
" transform="scale(0.015625)"/>
      </defs>
      <use xlink:href="#DejaVuSans-50" transform="translate(0 0.828125)"/>
      <use xlink:href="#DejaVuSans-72" transform="translate(60.302734 0.828125)"/>
      <use xlink:href="#DejaVuSans-69" transform="translate(101.416016 0.828125)"/>
      <use xlink:href="#DejaVuSans-76" transform="translate(129.199219 0.828125)"/>
      <use xlink:href="#DejaVuSans-61" transform="translate(188.378906 0.828125)"/>
      <use xlink:href="#DejaVuSans-74" transform="translate(249.658203 0.828125)"/>
      <use xlink:href="#DejaVuSans-65" transform="translate(288.867188 0.828125)"/>
      <use xlink:href="#DejaVuSans-20" transform="translate(350.390625 0.828125)"/>
      <use xlink:href="#DejaVuSans-56" transform="translate(382.177734 0.828125)"/>
      <use xlink:href="#DejaVuSans-61" transform="translate(450.585938 0.828125)"/>
      <use xlink:href="#DejaVuSans-6c" transform="translate(511.865234 0.828125)"/>
      <use xlink:href="#DejaVuSans-75" transform="translate(539.648438 0.828125)"/>
      <use xlink:href="#DejaVuSans-65" transform="translate(603.027344 0.828125)"/>
      <use xlink:href="#DejaVuSans-20" transform="translate(664.550781 0.828125)"/>
      <use xlink:href="#DejaVuSans-303" transform="translate(764.942871 22.3125)"/>
      <use xlink:href="#DejaVuSans-Oblique-52" transform="translate(696.337891 0.828125)"/>
      <use xlink:href="#DejaVuSans-Oblique-74" transform="translate(766.777344 39.109375) scale(0.7)"/>
      <use xlink:href="#DejaVuSans-Oblique-3c7" transform="translate(766.777344 -26.515625) scale(0.7)"/>
      <use xlink:href="#DejaVuSans-31" transform="translate(808.203125 -38) scale(0.49)"/>
      <use xlink:href="#DejaVuSans-2c" transform="translate(841.29248 -26.515625) scale(0.7)"/>
      <use xlink:href="#DejaVuSans-Oblique-3c7" transform="translate(877.181152 -26.515625) scale(0.7)"/>
      <use xlink:href="#DejaVuSans-33" transform="translate(918.606934 -38) scale(0.49)"/>
     </g>
    </g>
    <g id="line2d_26">
     <path d="M 60.241875 34 
L 70.241875 34 
L 80.241875 34 
" style="fill: none; stroke-dasharray: 5.55,2.4; stroke-dashoffset: 0; stroke: #000000; stroke-width: 1.5"/>
    </g>
    <g id="text_15">
     <!-- Original Value $\bar{R}_{\chi_1,\chi_3}^t$ -->
     <g transform="translate(88.241875 37.5) scale(0.1 -0.1)">
      <defs>
       <path id="DejaVuSans-4f" d="M 2522 4238 
Q 1834 4238 1429 3725 
Q 1025 3213 1025 2328 
Q 1025 1447 1429 934 
Q 1834 422 2522 422 
Q 3209 422 3611 934 
Q 4013 1447 4013 2328 
Q 4013 3213 3611 3725 
Q 3209 4238 2522 4238 
z
M 2522 4750 
Q 3503 4750 4090 4092 
Q 4678 3434 4678 2328 
Q 4678 1225 4090 567 
Q 3503 -91 2522 -91 
Q 1538 -91 948 565 
Q 359 1222 359 2328 
Q 359 3434 948 4092 
Q 1538 4750 2522 4750 
z
" transform="scale(0.015625)"/>
       <path id="DejaVuSans-67" d="M 2906 1791 
Q 2906 2416 2648 2759 
Q 2391 3103 1925 3103 
Q 1463 3103 1205 2759 
Q 947 2416 947 1791 
Q 947 1169 1205 825 
Q 1463 481 1925 481 
Q 2391 481 2648 825 
Q 2906 1169 2906 1791 
z
M 3481 434 
Q 3481 -459 3084 -895 
Q 2688 -1331 1869 -1331 
Q 1566 -1331 1297 -1286 
Q 1028 -1241 775 -1147 
L 775 -588 
Q 1028 -725 1275 -790 
Q 1522 -856 1778 -856 
Q 2344 -856 2625 -561 
Q 2906 -266 2906 331 
L 2906 616 
Q 2728 306 2450 153 
Q 2172 0 1784 0 
Q 1141 0 747 490 
Q 353 981 353 1791 
Q 353 2603 747 3093 
Q 1141 3584 1784 3584 
Q 2172 3584 2450 3431 
Q 2728 3278 2906 2969 
L 2906 3500 
L 3481 3500 
L 3481 434 
z
" transform="scale(0.015625)"/>
       <path id="DejaVuSans-6e" d="M 3513 2113 
L 3513 0 
L 2938 0 
L 2938 2094 
Q 2938 2591 2744 2837 
Q 2550 3084 2163 3084 
Q 1697 3084 1428 2787 
Q 1159 2491 1159 1978 
L 1159 0 
L 581 0 
L 581 3500 
L 1159 3500 
L 1159 2956 
Q 1366 3272 1645 3428 
Q 1925 3584 2291 3584 
Q 2894 3584 3203 3211 
Q 3513 2838 3513 2113 
z
" transform="scale(0.015625)"/>
       <path id="DejaVuSans-304" d="M -2518 4769 
L -650 4769 
L -650 4306 
L -2518 4306 
L -2518 4769 
z
" transform="scale(0.015625)"/>
      </defs>
      <use xlink:href="#DejaVuSans-4f" transform="translate(0 0.359375)"/>
      <use xlink:href="#DejaVuSans-72" transform="translate(78.710938 0.359375)"/>
      <use xlink:href="#DejaVuSans-69" transform="translate(119.824219 0.359375)"/>
      <use xlink:href="#DejaVuSans-67" transform="translate(147.607422 0.359375)"/>
      <use xlink:href="#DejaVuSans-69" transform="translate(211.083984 0.359375)"/>
      <use xlink:href="#DejaVuSans-6e" transform="translate(238.867188 0.359375)"/>
      <use xlink:href="#DejaVuSans-61" transform="translate(302.246094 0.359375)"/>
      <use xlink:href="#DejaVuSans-6c" transform="translate(363.525391 0.359375)"/>
      <use xlink:href="#DejaVuSans-20" transform="translate(391.308594 0.359375)"/>
      <use xlink:href="#DejaVuSans-56" transform="translate(423.095703 0.359375)"/>
      <use xlink:href="#DejaVuSans-61" transform="translate(491.503906 0.359375)"/>
      <use xlink:href="#DejaVuSans-6c" transform="translate(552.783203 0.359375)"/>
      <use xlink:href="#DejaVuSans-75" transform="translate(580.566406 0.359375)"/>
      <use xlink:href="#DejaVuSans-65" transform="translate(643.945312 0.359375)"/>
      <use xlink:href="#DejaVuSans-20" transform="translate(705.46875 0.359375)"/>
      <use xlink:href="#DejaVuSans-304" transform="translate(804.970215 18.484375)"/>
      <use xlink:href="#DejaVuSans-Oblique-52" transform="translate(737.255859 0.359375)"/>
      <use xlink:href="#DejaVuSans-Oblique-74" transform="translate(807.695312 38.640625) scale(0.7)"/>
      <use xlink:href="#DejaVuSans-Oblique-3c7" transform="translate(807.695312 -26.984375) scale(0.7)"/>
      <use xlink:href="#DejaVuSans-31" transform="translate(849.121094 -38.46875) scale(0.49)"/>
      <use xlink:href="#DejaVuSans-2c" transform="translate(882.210449 -26.984375) scale(0.7)"/>
      <use xlink:href="#DejaVuSans-Oblique-3c7" transform="translate(918.099121 -26.984375) scale(0.7)"/>
      <use xlink:href="#DejaVuSans-33" transform="translate(959.524902 -38.46875) scale(0.49)"/>
     </g>
    </g>
    <g id="patch_8">
     <path d="M 60.241875 54.298437 
L 80.241875 54.298437 
L 80.241875 47.298437 
L 60.241875 47.298437 
z
" style="fill: #134a8e; fill-opacity: 0.5; stroke: #134a8e; stroke-opacity: 0.5; stroke-width: 0.5; stroke-linejoin: miter"/>
    </g>
    <g id="text_16">
     <!-- One Standard Deviation -->
     <g transform="translate(88.241875 54.298437) scale(0.1 -0.1)">
      <defs>
       <path id="DejaVuSans-53" d="M 3425 4513 
L 3425 3897 
Q 3066 4069 2747 4153 
Q 2428 4238 2131 4238 
Q 1616 4238 1336 4038 
Q 1056 3838 1056 3469 
Q 1056 3159 1242 3001 
Q 1428 2844 1947 2747 
L 2328 2669 
Q 3034 2534 3370 2195 
Q 3706 1856 3706 1288 
Q 3706 609 3251 259 
Q 2797 -91 1919 -91 
Q 1588 -91 1214 -16 
Q 841 59 441 206 
L 441 856 
Q 825 641 1194 531 
Q 1563 422 1919 422 
Q 2459 422 2753 634 
Q 3047 847 3047 1241 
Q 3047 1584 2836 1778 
Q 2625 1972 2144 2069 
L 1759 2144 
Q 1053 2284 737 2584 
Q 422 2884 422 3419 
Q 422 4038 858 4394 
Q 1294 4750 2059 4750 
Q 2388 4750 2728 4690 
Q 3069 4631 3425 4513 
z
" transform="scale(0.015625)"/>
       <path id="DejaVuSans-64" d="M 2906 2969 
L 2906 4863 
L 3481 4863 
L 3481 0 
L 2906 0 
L 2906 525 
Q 2725 213 2448 61 
Q 2172 -91 1784 -91 
Q 1150 -91 751 415 
Q 353 922 353 1747 
Q 353 2572 751 3078 
Q 1150 3584 1784 3584 
Q 2172 3584 2448 3432 
Q 2725 3281 2906 2969 
z
M 947 1747 
Q 947 1113 1208 752 
Q 1469 391 1925 391 
Q 2381 391 2643 752 
Q 2906 1113 2906 1747 
Q 2906 2381 2643 2742 
Q 2381 3103 1925 3103 
Q 1469 3103 1208 2742 
Q 947 2381 947 1747 
z
" transform="scale(0.015625)"/>
       <path id="DejaVuSans-6f" d="M 1959 3097 
Q 1497 3097 1228 2736 
Q 959 2375 959 1747 
Q 959 1119 1226 758 
Q 1494 397 1959 397 
Q 2419 397 2687 759 
Q 2956 1122 2956 1747 
Q 2956 2369 2687 2733 
Q 2419 3097 1959 3097 
z
M 1959 3584 
Q 2709 3584 3137 3096 
Q 3566 2609 3566 1747 
Q 3566 888 3137 398 
Q 2709 -91 1959 -91 
Q 1206 -91 779 398 
Q 353 888 353 1747 
Q 353 2609 779 3096 
Q 1206 3584 1959 3584 
z
" transform="scale(0.015625)"/>
      </defs>
      <use xlink:href="#DejaVuSans-4f"/>
      <use xlink:href="#DejaVuSans-6e" x="78.710938"/>
      <use xlink:href="#DejaVuSans-65" x="142.089844"/>
      <use xlink:href="#DejaVuSans-20" x="203.613281"/>
      <use xlink:href="#DejaVuSans-53" x="235.400391"/>
      <use xlink:href="#DejaVuSans-74" x="298.876953"/>
      <use xlink:href="#DejaVuSans-61" x="338.085938"/>
      <use xlink:href="#DejaVuSans-6e" x="399.365234"/>
      <use xlink:href="#DejaVuSans-64" x="462.744141"/>
      <use xlink:href="#DejaVuSans-61" x="526.220703"/>
      <use xlink:href="#DejaVuSans-72" x="587.5"/>
      <use xlink:href="#DejaVuSans-64" x="626.863281"/>
      <use xlink:href="#DejaVuSans-20" x="690.339844"/>
      <use xlink:href="#DejaVuSans-44" x="722.126953"/>
      <use xlink:href="#DejaVuSans-65" x="799.128906"/>
      <use xlink:href="#DejaVuSans-76" x="860.652344"/>
      <use xlink:href="#DejaVuSans-69" x="919.832031"/>
      <use xlink:href="#DejaVuSans-61" x="947.615234"/>
      <use xlink:href="#DejaVuSans-74" x="1008.894531"/>
      <use xlink:href="#DejaVuSans-69" x="1048.103516"/>
      <use xlink:href="#DejaVuSans-6f" x="1075.886719"/>
      <use xlink:href="#DejaVuSans-6e" x="1137.068359"/>
     </g>
    </g>
   </g>
  </g>
 </g>
 <defs>
  <clipPath id="p123873955c">
   <rect x="51.241875" y="-0" width="390.6" height="166.32"/>
  </clipPath>
 </defs>
</svg>
