<?xml version="1.0" encoding="utf-8" standalone="no"?>
<!DOCTYPE svg PUBLIC "-//W3C//DTD SVG 1.1//EN"
  "http://www.w3.org/Graphics/SVG/1.1/DTD/svg11.dtd">
<svg xmlns:xlink="http://www.w3.org/1999/xlink" width="450.737567pt" height="201.258973pt" viewBox="0 0 450.737567 201.258973" xmlns="http://www.w3.org/2000/svg" version="1.1">
 <metadata>
  <rdf:RDF xmlns:dc="http://purl.org/dc/elements/1.1/" xmlns:cc="http://creativecommons.org/ns#" xmlns:rdf="http://www.w3.org/1999/02/22-rdf-syntax-ns#">
   <cc:Work>
    <dc:type rdf:resource="http://purl.org/dc/dcmitype/StillImage"/>
    <dc:date>2024-09-18T15:47:44.257909</dc:date>
    <dc:format>image/svg+xml</dc:format>
    <dc:creator>
     <cc:Agent>
      <dc:title>Matplotlib v3.7.5, https://matplotlib.org/</dc:title>
     </cc:Agent>
    </dc:creator>
   </cc:Work>
  </rdf:RDF>
 </metadata>
 <defs>
  <style type="text/css">*{stroke-linejoin: round; stroke-linecap: butt}</style>
 </defs>
 <g id="figure_1">
  <g id="patch_1">
   <path d="M 0 201.258973 
L 450.737567 201.258973 
L 450.737567 0 
L 0 0 
z
" style="fill: #ffffff"/>
  </g>
  <g id="axes_1">
   <g id="patch_2">
    <path d="M 51.241875 168.967098 
L 441.841875 168.967098 
L 441.841875 2.647098 
L 51.241875 2.647098 
z
" style="fill: #e5e5e5"/>
   </g>
   <g id="matplotlib.axis_1">
    <g id="xtick_1">
     <g id="line2d_1">
      <path d="M 78.78239 168.967098 
L 78.78239 2.647098 
" clip-path="url(#p2e50a9f7ef)" style="fill: none; stroke: #ffffff; stroke-width: 0.8; stroke-linecap: square"/>
     </g>
     <g id="line2d_2">
      <defs>
       <path id="mefaac8d3fd" d="M 0 0 
L 0 3.5 
" style="stroke: #555555; stroke-width: 0.8"/>
      </defs>
      <g>
       <use xlink:href="#mefaac8d3fd" x="78.78239" y="168.967098" style="fill: #555555; stroke: #555555; stroke-width: 0.8"/>
      </g>
     </g>
     <g id="text_1">
      <!-- 08/16/20 -->
      <g style="fill: #555555" transform="translate(56.32614 183.565535) scale(0.1 -0.1)">
       <defs>
        <path id="DejaVuSans-30" d="M 2034 4250 
Q 1547 4250 1301 3770 
Q 1056 3291 1056 2328 
Q 1056 1369 1301 889 
Q 1547 409 2034 409 
Q 2525 409 2770 889 
Q 3016 1369 3016 2328 
Q 3016 3291 2770 3770 
Q 2525 4250 2034 4250 
z
M 2034 4750 
Q 2819 4750 3233 4129 
Q 3647 3509 3647 2328 
Q 3647 1150 3233 529 
Q 2819 -91 2034 -91 
Q 1250 -91 836 529 
Q 422 1150 422 2328 
Q 422 3509 836 4129 
Q 1250 4750 2034 4750 
z
" transform="scale(0.015625)"/>
        <path id="DejaVuSans-38" d="M 2034 2216 
Q 1584 2216 1326 1975 
Q 1069 1734 1069 1313 
Q 1069 891 1326 650 
Q 1584 409 2034 409 
Q 2484 409 2743 651 
Q 3003 894 3003 1313 
Q 3003 1734 2745 1975 
Q 2488 2216 2034 2216 
z
M 1403 2484 
Q 997 2584 770 2862 
Q 544 3141 544 3541 
Q 544 4100 942 4425 
Q 1341 4750 2034 4750 
Q 2731 4750 3128 4425 
Q 3525 4100 3525 3541 
Q 3525 3141 3298 2862 
Q 3072 2584 2669 2484 
Q 3125 2378 3379 2068 
Q 3634 1759 3634 1313 
Q 3634 634 3220 271 
Q 2806 -91 2034 -91 
Q 1263 -91 848 271 
Q 434 634 434 1313 
Q 434 1759 690 2068 
Q 947 2378 1403 2484 
z
M 1172 3481 
Q 1172 3119 1398 2916 
Q 1625 2713 2034 2713 
Q 2441 2713 2670 2916 
Q 2900 3119 2900 3481 
Q 2900 3844 2670 4047 
Q 2441 4250 2034 4250 
Q 1625 4250 1398 4047 
Q 1172 3844 1172 3481 
z
" transform="scale(0.015625)"/>
        <path id="DejaVuSans-2f" d="M 1625 4666 
L 2156 4666 
L 531 -594 
L 0 -594 
L 1625 4666 
z
" transform="scale(0.015625)"/>
        <path id="DejaVuSans-31" d="M 794 531 
L 1825 531 
L 1825 4091 
L 703 3866 
L 703 4441 
L 1819 4666 
L 2450 4666 
L 2450 531 
L 3481 531 
L 3481 0 
L 794 0 
L 794 531 
z
" transform="scale(0.015625)"/>
        <path id="DejaVuSans-36" d="M 2113 2584 
Q 1688 2584 1439 2293 
Q 1191 2003 1191 1497 
Q 1191 994 1439 701 
Q 1688 409 2113 409 
Q 2538 409 2786 701 
Q 3034 994 3034 1497 
Q 3034 2003 2786 2293 
Q 2538 2584 2113 2584 
z
M 3366 4563 
L 3366 3988 
Q 3128 4100 2886 4159 
Q 2644 4219 2406 4219 
Q 1781 4219 1451 3797 
Q 1122 3375 1075 2522 
Q 1259 2794 1537 2939 
Q 1816 3084 2150 3084 
Q 2853 3084 3261 2657 
Q 3669 2231 3669 1497 
Q 3669 778 3244 343 
Q 2819 -91 2113 -91 
Q 1303 -91 875 529 
Q 447 1150 447 2328 
Q 447 3434 972 4092 
Q 1497 4750 2381 4750 
Q 2619 4750 2861 4703 
Q 3103 4656 3366 4563 
z
" transform="scale(0.015625)"/>
        <path id="DejaVuSans-32" d="M 1228 531 
L 3431 531 
L 3431 0 
L 469 0 
L 469 531 
Q 828 903 1448 1529 
Q 2069 2156 2228 2338 
Q 2531 2678 2651 2914 
Q 2772 3150 2772 3378 
Q 2772 3750 2511 3984 
Q 2250 4219 1831 4219 
Q 1534 4219 1204 4116 
Q 875 4013 500 3803 
L 500 4441 
Q 881 4594 1212 4672 
Q 1544 4750 1819 4750 
Q 2544 4750 2975 4387 
Q 3406 4025 3406 3419 
Q 3406 3131 3298 2873 
Q 3191 2616 2906 2266 
Q 2828 2175 2409 1742 
Q 1991 1309 1228 531 
z
" transform="scale(0.015625)"/>
       </defs>
       <use xlink:href="#DejaVuSans-30"/>
       <use xlink:href="#DejaVuSans-38" x="63.623047"/>
       <use xlink:href="#DejaVuSans-2f" x="127.246094"/>
       <use xlink:href="#DejaVuSans-31" x="160.9375"/>
       <use xlink:href="#DejaVuSans-36" x="224.560547"/>
       <use xlink:href="#DejaVuSans-2f" x="288.183594"/>
       <use xlink:href="#DejaVuSans-32" x="321.875"/>
       <use xlink:href="#DejaVuSans-30" x="385.498047"/>
      </g>
     </g>
    </g>
    <g id="xtick_2">
     <g id="line2d_3">
      <path d="M 148.682176 168.967098 
L 148.682176 2.647098 
" clip-path="url(#p2e50a9f7ef)" style="fill: none; stroke: #ffffff; stroke-width: 0.8; stroke-linecap: square"/>
     </g>
     <g id="line2d_4">
      <g>
       <use xlink:href="#mefaac8d3fd" x="148.682176" y="168.967098" style="fill: #555555; stroke: #555555; stroke-width: 0.8"/>
      </g>
     </g>
     <g id="text_2">
      <!-- 10/05/20 -->
      <g style="fill: #555555" transform="translate(126.225926 183.565535) scale(0.1 -0.1)">
       <defs>
        <path id="DejaVuSans-35" d="M 691 4666 
L 3169 4666 
L 3169 4134 
L 1269 4134 
L 1269 2991 
Q 1406 3038 1543 3061 
Q 1681 3084 1819 3084 
Q 2600 3084 3056 2656 
Q 3513 2228 3513 1497 
Q 3513 744 3044 326 
Q 2575 -91 1722 -91 
Q 1428 -91 1123 -41 
Q 819 9 494 109 
L 494 744 
Q 775 591 1075 516 
Q 1375 441 1709 441 
Q 2250 441 2565 725 
Q 2881 1009 2881 1497 
Q 2881 1984 2565 2268 
Q 2250 2553 1709 2553 
Q 1456 2553 1204 2497 
Q 953 2441 691 2322 
L 691 4666 
z
" transform="scale(0.015625)"/>
       </defs>
       <use xlink:href="#DejaVuSans-31"/>
       <use xlink:href="#DejaVuSans-30" x="63.623047"/>
       <use xlink:href="#DejaVuSans-2f" x="127.246094"/>
       <use xlink:href="#DejaVuSans-30" x="160.9375"/>
       <use xlink:href="#DejaVuSans-35" x="224.560547"/>
       <use xlink:href="#DejaVuSans-2f" x="288.183594"/>
       <use xlink:href="#DejaVuSans-32" x="321.875"/>
       <use xlink:href="#DejaVuSans-30" x="385.498047"/>
      </g>
     </g>
    </g>
    <g id="xtick_3">
     <g id="line2d_5">
      <path d="M 218.581961 168.967098 
L 218.581961 2.647098 
" clip-path="url(#p2e50a9f7ef)" style="fill: none; stroke: #ffffff; stroke-width: 0.8; stroke-linecap: square"/>
     </g>
     <g id="line2d_6">
      <g>
       <use xlink:href="#mefaac8d3fd" x="218.581961" y="168.967098" style="fill: #555555; stroke: #555555; stroke-width: 0.8"/>
      </g>
     </g>
     <g id="text_3">
      <!-- 11/24/20 -->
      <g style="fill: #555555" transform="translate(196.125711 183.565535) scale(0.1 -0.1)">
       <defs>
        <path id="DejaVuSans-34" d="M 2419 4116 
L 825 1625 
L 2419 1625 
L 2419 4116 
z
M 2253 4666 
L 3047 4666 
L 3047 1625 
L 3713 1625 
L 3713 1100 
L 3047 1100 
L 3047 0 
L 2419 0 
L 2419 1100 
L 313 1100 
L 313 1709 
L 2253 4666 
z
" transform="scale(0.015625)"/>
       </defs>
       <use xlink:href="#DejaVuSans-31"/>
       <use xlink:href="#DejaVuSans-31" x="63.623047"/>
       <use xlink:href="#DejaVuSans-2f" x="127.246094"/>
       <use xlink:href="#DejaVuSans-32" x="160.9375"/>
       <use xlink:href="#DejaVuSans-34" x="224.560547"/>
       <use xlink:href="#DejaVuSans-2f" x="288.183594"/>
       <use xlink:href="#DejaVuSans-32" x="321.875"/>
       <use xlink:href="#DejaVuSans-30" x="385.498047"/>
      </g>
     </g>
    </g>
    <g id="xtick_4">
     <g id="line2d_7">
      <path d="M 288.481746 168.967098 
L 288.481746 2.647098 
" clip-path="url(#p2e50a9f7ef)" style="fill: none; stroke: #ffffff; stroke-width: 0.8; stroke-linecap: square"/>
     </g>
     <g id="line2d_8">
      <g>
       <use xlink:href="#mefaac8d3fd" x="288.481746" y="168.967098" style="fill: #555555; stroke: #555555; stroke-width: 0.8"/>
      </g>
     </g>
     <g id="text_4">
      <!-- 01/13/21 -->
      <g style="fill: #555555" transform="translate(266.025496 183.565535) scale(0.1 -0.1)">
       <defs>
        <path id="DejaVuSans-33" d="M 2597 2516 
Q 3050 2419 3304 2112 
Q 3559 1806 3559 1356 
Q 3559 666 3084 287 
Q 2609 -91 1734 -91 
Q 1441 -91 1130 -33 
Q 819 25 488 141 
L 488 750 
Q 750 597 1062 519 
Q 1375 441 1716 441 
Q 2309 441 2620 675 
Q 2931 909 2931 1356 
Q 2931 1769 2642 2001 
Q 2353 2234 1838 2234 
L 1294 2234 
L 1294 2753 
L 1863 2753 
Q 2328 2753 2575 2939 
Q 2822 3125 2822 3475 
Q 2822 3834 2567 4026 
Q 2313 4219 1838 4219 
Q 1578 4219 1281 4162 
Q 984 4106 628 3988 
L 628 4550 
Q 988 4650 1302 4700 
Q 1616 4750 1894 4750 
Q 2613 4750 3031 4423 
Q 3450 4097 3450 3541 
Q 3450 3153 3228 2886 
Q 3006 2619 2597 2516 
z
" transform="scale(0.015625)"/>
       </defs>
       <use xlink:href="#DejaVuSans-30"/>
       <use xlink:href="#DejaVuSans-31" x="63.623047"/>
       <use xlink:href="#DejaVuSans-2f" x="127.246094"/>
       <use xlink:href="#DejaVuSans-31" x="160.9375"/>
       <use xlink:href="#DejaVuSans-33" x="224.560547"/>
       <use xlink:href="#DejaVuSans-2f" x="288.183594"/>
       <use xlink:href="#DejaVuSans-32" x="321.875"/>
       <use xlink:href="#DejaVuSans-31" x="385.498047"/>
      </g>
     </g>
    </g>
    <g id="xtick_5">
     <g id="line2d_9">
      <path d="M 358.381531 168.967098 
L 358.381531 2.647098 
" clip-path="url(#p2e50a9f7ef)" style="fill: none; stroke: #ffffff; stroke-width: 0.8; stroke-linecap: square"/>
     </g>
     <g id="line2d_10">
      <g>
       <use xlink:href="#mefaac8d3fd" x="358.381531" y="168.967098" style="fill: #555555; stroke: #555555; stroke-width: 0.8"/>
      </g>
     </g>
     <g id="text_5">
      <!-- 03/04/21 -->
      <g style="fill: #555555" transform="translate(335.925281 183.565535) scale(0.1 -0.1)">
       <use xlink:href="#DejaVuSans-30"/>
       <use xlink:href="#DejaVuSans-33" x="63.623047"/>
       <use xlink:href="#DejaVuSans-2f" x="127.246094"/>
       <use xlink:href="#DejaVuSans-30" x="160.9375"/>
       <use xlink:href="#DejaVuSans-34" x="224.560547"/>
       <use xlink:href="#DejaVuSans-2f" x="288.183594"/>
       <use xlink:href="#DejaVuSans-32" x="321.875"/>
       <use xlink:href="#DejaVuSans-31" x="385.498047"/>
      </g>
     </g>
    </g>
    <g id="xtick_6">
     <g id="line2d_11">
      <path d="M 428.281317 168.967098 
L 428.281317 2.647098 
" clip-path="url(#p2e50a9f7ef)" style="fill: none; stroke: #ffffff; stroke-width: 0.8; stroke-linecap: square"/>
     </g>
     <g id="line2d_12">
      <g>
       <use xlink:href="#mefaac8d3fd" x="428.281317" y="168.967098" style="fill: #555555; stroke: #555555; stroke-width: 0.8"/>
      </g>
     </g>
     <g id="text_6">
      <!-- 04/23/21 -->
      <g style="fill: #555555" transform="translate(405.825067 183.565535) scale(0.1 -0.1)">
       <use xlink:href="#DejaVuSans-30"/>
       <use xlink:href="#DejaVuSans-34" x="63.623047"/>
       <use xlink:href="#DejaVuSans-2f" x="127.246094"/>
       <use xlink:href="#DejaVuSans-32" x="160.9375"/>
       <use xlink:href="#DejaVuSans-33" x="224.560547"/>
       <use xlink:href="#DejaVuSans-2f" x="288.183594"/>
       <use xlink:href="#DejaVuSans-32" x="321.875"/>
       <use xlink:href="#DejaVuSans-31" x="385.498047"/>
      </g>
     </g>
    </g>
    <g id="text_7">
     <!-- Date -->
     <g style="fill: #555555" transform="translate(232.200938 198.763348) scale(0.12 -0.12)">
      <defs>
       <path id="DejaVuSans-44" d="M 1259 4147 
L 1259 519 
L 2022 519 
Q 2988 519 3436 956 
Q 3884 1394 3884 2338 
Q 3884 3275 3436 3711 
Q 2988 4147 2022 4147 
L 1259 4147 
z
M 628 4666 
L 1925 4666 
Q 3281 4666 3915 4102 
Q 4550 3538 4550 2338 
Q 4550 1131 3912 565 
Q 3275 0 1925 0 
L 628 0 
L 628 4666 
z
" transform="scale(0.015625)"/>
       <path id="DejaVuSans-61" d="M 2194 1759 
Q 1497 1759 1228 1600 
Q 959 1441 959 1056 
Q 959 750 1161 570 
Q 1363 391 1709 391 
Q 2188 391 2477 730 
Q 2766 1069 2766 1631 
L 2766 1759 
L 2194 1759 
z
M 3341 1997 
L 3341 0 
L 2766 0 
L 2766 531 
Q 2569 213 2275 61 
Q 1981 -91 1556 -91 
Q 1019 -91 701 211 
Q 384 513 384 1019 
Q 384 1609 779 1909 
Q 1175 2209 1959 2209 
L 2766 2209 
L 2766 2266 
Q 2766 2663 2505 2880 
Q 2244 3097 1772 3097 
Q 1472 3097 1187 3025 
Q 903 2953 641 2809 
L 641 3341 
Q 956 3463 1253 3523 
Q 1550 3584 1831 3584 
Q 2591 3584 2966 3190 
Q 3341 2797 3341 1997 
z
" transform="scale(0.015625)"/>
       <path id="DejaVuSans-74" d="M 1172 4494 
L 1172 3500 
L 2356 3500 
L 2356 3053 
L 1172 3053 
L 1172 1153 
Q 1172 725 1289 603 
Q 1406 481 1766 481 
L 2356 481 
L 2356 0 
L 1766 0 
Q 1100 0 847 248 
Q 594 497 594 1153 
L 594 3053 
L 172 3053 
L 172 3500 
L 594 3500 
L 594 4494 
L 1172 4494 
z
" transform="scale(0.015625)"/>
       <path id="DejaVuSans-65" d="M 3597 1894 
L 3597 1613 
L 953 1613 
Q 991 1019 1311 708 
Q 1631 397 2203 397 
Q 2534 397 2845 478 
Q 3156 559 3463 722 
L 3463 178 
Q 3153 47 2828 -22 
Q 2503 -91 2169 -91 
Q 1331 -91 842 396 
Q 353 884 353 1716 
Q 353 2575 817 3079 
Q 1281 3584 2069 3584 
Q 2775 3584 3186 3129 
Q 3597 2675 3597 1894 
z
M 3022 2063 
Q 3016 2534 2758 2815 
Q 2500 3097 2075 3097 
Q 1594 3097 1305 2825 
Q 1016 2553 972 2059 
L 3022 2063 
z
" transform="scale(0.015625)"/>
      </defs>
      <use xlink:href="#DejaVuSans-44"/>
      <use xlink:href="#DejaVuSans-61" x="77.001953"/>
      <use xlink:href="#DejaVuSans-74" x="138.28125"/>
      <use xlink:href="#DejaVuSans-65" x="177.490234"/>
     </g>
    </g>
   </g>
   <g id="matplotlib.axis_2">
    <g id="ytick_1">
     <g id="line2d_13">
      <path d="M 51.241875 163.837376 
L 441.841875 163.837376 
" clip-path="url(#p2e50a9f7ef)" style="fill: none; stroke: #ffffff; stroke-width: 0.8; stroke-linecap: square"/>
     </g>
     <g id="line2d_14">
      <defs>
       <path id="mee2b8b57ca" d="M 0 0 
L -3.5 0 
" style="stroke: #555555; stroke-width: 0.8"/>
      </defs>
      <g>
       <use xlink:href="#mee2b8b57ca" x="51.241875" y="163.837376" style="fill: #555555; stroke: #555555; stroke-width: 0.8"/>
      </g>
     </g>
     <g id="text_8">
      <!-- 0.000 -->
      <g style="fill: #555555" transform="translate(15.61375 167.636594) scale(0.1 -0.1)">
       <defs>
        <path id="DejaVuSans-2e" d="M 684 794 
L 1344 794 
L 1344 0 
L 684 0 
L 684 794 
z
" transform="scale(0.015625)"/>
       </defs>
       <use xlink:href="#DejaVuSans-30"/>
       <use xlink:href="#DejaVuSans-2e" x="63.623047"/>
       <use xlink:href="#DejaVuSans-30" x="95.410156"/>
       <use xlink:href="#DejaVuSans-30" x="159.033203"/>
       <use xlink:href="#DejaVuSans-30" x="222.65625"/>
      </g>
     </g>
    </g>
    <g id="ytick_2">
     <g id="line2d_15">
      <path d="M 51.241875 131.829744 
L 441.841875 131.829744 
" clip-path="url(#p2e50a9f7ef)" style="fill: none; stroke: #ffffff; stroke-width: 0.8; stroke-linecap: square"/>
     </g>
     <g id="line2d_16">
      <g>
       <use xlink:href="#mee2b8b57ca" x="51.241875" y="131.829744" style="fill: #555555; stroke: #555555; stroke-width: 0.8"/>
      </g>
     </g>
     <g id="text_9">
      <!-- 0.005 -->
      <g style="fill: #555555" transform="translate(15.61375 135.628963) scale(0.1 -0.1)">
       <use xlink:href="#DejaVuSans-30"/>
       <use xlink:href="#DejaVuSans-2e" x="63.623047"/>
       <use xlink:href="#DejaVuSans-30" x="95.410156"/>
       <use xlink:href="#DejaVuSans-30" x="159.033203"/>
       <use xlink:href="#DejaVuSans-35" x="222.65625"/>
      </g>
     </g>
    </g>
    <g id="ytick_3">
     <g id="line2d_17">
      <path d="M 51.241875 99.822113 
L 441.841875 99.822113 
" clip-path="url(#p2e50a9f7ef)" style="fill: none; stroke: #ffffff; stroke-width: 0.8; stroke-linecap: square"/>
     </g>
     <g id="line2d_18">
      <g>
       <use xlink:href="#mee2b8b57ca" x="51.241875" y="99.822113" style="fill: #555555; stroke: #555555; stroke-width: 0.8"/>
      </g>
     </g>
     <g id="text_10">
      <!-- 0.010 -->
      <g style="fill: #555555" transform="translate(15.61375 103.621332) scale(0.1 -0.1)">
       <use xlink:href="#DejaVuSans-30"/>
       <use xlink:href="#DejaVuSans-2e" x="63.623047"/>
       <use xlink:href="#DejaVuSans-30" x="95.410156"/>
       <use xlink:href="#DejaVuSans-31" x="159.033203"/>
       <use xlink:href="#DejaVuSans-30" x="222.65625"/>
      </g>
     </g>
    </g>
    <g id="ytick_4">
     <g id="line2d_19">
      <path d="M 51.241875 67.814481 
L 441.841875 67.814481 
" clip-path="url(#p2e50a9f7ef)" style="fill: none; stroke: #ffffff; stroke-width: 0.8; stroke-linecap: square"/>
     </g>
     <g id="line2d_20">
      <g>
       <use xlink:href="#mee2b8b57ca" x="51.241875" y="67.814481" style="fill: #555555; stroke: #555555; stroke-width: 0.8"/>
      </g>
     </g>
     <g id="text_11">
      <!-- 0.015 -->
      <g style="fill: #555555" transform="translate(15.61375 71.6137) scale(0.1 -0.1)">
       <use xlink:href="#DejaVuSans-30"/>
       <use xlink:href="#DejaVuSans-2e" x="63.623047"/>
       <use xlink:href="#DejaVuSans-30" x="95.410156"/>
       <use xlink:href="#DejaVuSans-31" x="159.033203"/>
       <use xlink:href="#DejaVuSans-35" x="222.65625"/>
      </g>
     </g>
    </g>
    <g id="ytick_5">
     <g id="line2d_21">
      <path d="M 51.241875 35.80685 
L 441.841875 35.80685 
" clip-path="url(#p2e50a9f7ef)" style="fill: none; stroke: #ffffff; stroke-width: 0.8; stroke-linecap: square"/>
     </g>
     <g id="line2d_22">
      <g>
       <use xlink:href="#mee2b8b57ca" x="51.241875" y="35.80685" style="fill: #555555; stroke: #555555; stroke-width: 0.8"/>
      </g>
     </g>
     <g id="text_12">
      <!-- 0.020 -->
      <g style="fill: #555555" transform="translate(15.61375 39.606069) scale(0.1 -0.1)">
       <use xlink:href="#DejaVuSans-30"/>
       <use xlink:href="#DejaVuSans-2e" x="63.623047"/>
       <use xlink:href="#DejaVuSans-30" x="95.410156"/>
       <use xlink:href="#DejaVuSans-32" x="159.033203"/>
       <use xlink:href="#DejaVuSans-30" x="222.65625"/>
      </g>
     </g>
    </g>
    <g id="ytick_6">
     <g id="line2d_23">
      <path d="M 51.241875 3.799219 
L 441.841875 3.799219 
" clip-path="url(#p2e50a9f7ef)" style="fill: none; stroke: #ffffff; stroke-width: 0.8; stroke-linecap: square"/>
     </g>
     <g id="line2d_24">
      <g>
       <use xlink:href="#mee2b8b57ca" x="51.241875" y="3.799219" style="fill: #555555; stroke: #555555; stroke-width: 0.8"/>
      </g>
     </g>
     <g id="text_13">
      <!-- 0.025 -->
      <g style="fill: #555555" transform="translate(15.61375 7.598437) scale(0.1 -0.1)">
       <use xlink:href="#DejaVuSans-30"/>
       <use xlink:href="#DejaVuSans-2e" x="63.623047"/>
       <use xlink:href="#DejaVuSans-30" x="95.410156"/>
       <use xlink:href="#DejaVuSans-32" x="159.033203"/>
       <use xlink:href="#DejaVuSans-35" x="222.65625"/>
      </g>
     </g>
    </g>
    <g id="text_14">
     <!-- Value -->
     <g style="fill: #555555" transform="translate(9.118125 102.284598) rotate(-90) scale(0.12 -0.12)">
      <defs>
       <path id="DejaVuSans-56" d="M 1831 0 
L 50 4666 
L 709 4666 
L 2188 738 
L 3669 4666 
L 4325 4666 
L 2547 0 
L 1831 0 
z
" transform="scale(0.015625)"/>
       <path id="DejaVuSans-6c" d="M 603 4863 
L 1178 4863 
L 1178 0 
L 603 0 
L 603 4863 
z
" transform="scale(0.015625)"/>
       <path id="DejaVuSans-75" d="M 544 1381 
L 544 3500 
L 1119 3500 
L 1119 1403 
Q 1119 906 1312 657 
Q 1506 409 1894 409 
Q 2359 409 2629 706 
Q 2900 1003 2900 1516 
L 2900 3500 
L 3475 3500 
L 3475 0 
L 2900 0 
L 2900 538 
Q 2691 219 2414 64 
Q 2138 -91 1772 -91 
Q 1169 -91 856 284 
Q 544 659 544 1381 
z
M 1991 3584 
L 1991 3584 
z
" transform="scale(0.015625)"/>
      </defs>
      <use xlink:href="#DejaVuSans-56"/>
      <use xlink:href="#DejaVuSans-61" x="60.658203"/>
      <use xlink:href="#DejaVuSans-6c" x="121.9375"/>
      <use xlink:href="#DejaVuSans-75" x="149.720703"/>
      <use xlink:href="#DejaVuSans-65" x="213.099609"/>
     </g>
    </g>
   </g>
   <g id="PolyCollection_1">
    <defs>
     <path id="mbfb361b280" d="M 68.99642 -61.762483 
L 68.99642 -75.10001 
L 70.394416 -73.682923 
L 71.792412 -71.697242 
L 73.190408 -76.475404 
L 74.588403 -75.521099 
L 75.986399 -74.710044 
L 77.384395 -75.301574 
L 78.78239 -76.148696 
L 80.180386 -80.116374 
L 81.578382 -80.517619 
L 82.976378 -84.436286 
L 84.374373 -84.179524 
L 85.772369 -79.517188 
L 87.170365 -80.4517 
L 88.56836 -74.002413 
L 89.966356 -73.812674 
L 91.364352 -74.000244 
L 92.762347 -71.636545 
L 94.160343 -72.224559 
L 95.558339 -71.35853 
L 96.956335 -47.896814 
L 98.35433 -49.133952 
L 99.752326 -47.84854 
L 101.150322 -49.736126 
L 102.548317 -44.06024 
L 103.946313 -44.384254 
L 105.344309 -43.467784 
L 106.742304 -44.048215 
L 108.1403 -46.352077 
L 109.538296 -46.331808 
L 110.936292 -46.452363 
L 112.334287 -46.175423 
L 113.732283 -64.048219 
L 115.130279 -62.732571 
L 116.528274 -63.133989 
L 117.92627 -60.693323 
L 119.324266 -61.395645 
L 120.722262 -58.691199 
L 122.120257 -57.911795 
L 123.518253 -60.016632 
L 124.916249 -59.062679 
L 126.314244 -58.669123 
L 127.71224 -59.408698 
L 129.110236 -58.775055 
L 130.508231 -58.262842 
L 131.906227 -69.775651 
L 133.304223 -61.607238 
L 134.702219 -65.344012 
L 136.100214 -64.071896 
L 137.49821 -68.265974 
L 138.896206 -69.75926 
L 140.294201 -69.743355 
L 141.692197 -70.283794 
L 143.090193 -72.277494 
L 144.488189 -68.122402 
L 145.886184 -70.899149 
L 147.28418 -100.935944 
L 148.682176 -100.847821 
L 150.080171 -100.981727 
L 151.478167 -75.257798 
L 152.876163 -74.763453 
L 154.274158 -77.645914 
L 155.672154 -75.382761 
L 157.07015 -74.429456 
L 158.468146 -75.53062 
L 159.866141 -74.370039 
L 161.264137 -71.275772 
L 162.662133 -73.470443 
L 164.060128 -74.387007 
L 165.458124 -108.153667 
L 166.85612 -106.884613 
L 168.254116 -77.240636 
L 169.652111 -75.751133 
L 171.050107 -88.876109 
L 172.448103 -105.352674 
L 173.846098 -103.486508 
L 175.244094 -87.417443 
L 176.64209 -107.073001 
L 178.040085 -106.223083 
L 179.438081 -106.635662 
L 180.836077 -106.881482 
L 182.234073 -104.895881 
L 183.632068 -105.057217 
L 185.030064 -102.239517 
L 186.42806 -101.143609 
L 187.826055 -103.158829 
L 189.224051 -104.428535 
L 190.622047 -88.591525 
L 192.020043 -87.564779 
L 193.418038 -86.157806 
L 194.816034 -87.141396 
L 196.21403 -87.483693 
L 197.612025 -76.746702 
L 199.010021 -78.302765 
L 200.408017 -90.564884 
L 201.806012 -79.414644 
L 203.204008 -94.031122 
L 204.602004 -112.159711 
L 206 -111.962298 
L 207.397995 -117.303801 
L 208.795991 -94.59633 
L 210.193987 -119.055326 
L 211.591982 -120.390945 
L 212.989978 -117.779964 
L 214.387974 -121.175954 
L 215.785969 -124.031492 
L 217.183965 -120.011322 
L 218.581961 -119.290259 
L 219.979957 -120.999944 
L 221.377952 -132.972744 
L 222.775948 -123.145543 
L 224.173944 -120.557311 
L 225.571939 -123.650622 
L 226.969935 -118.318693 
L 228.367931 -120.819072 
L 229.765927 -119.989137 
L 231.163922 -117.253378 
L 232.561918 -119.115346 
L 233.959914 -116.429056 
L 235.357909 -115.943722 
L 236.755905 -115.725907 
L 238.153901 -115.695636 
L 239.551896 -115.29664 
L 240.949892 -81.540311 
L 242.347888 -111.014313 
L 243.745884 -106.664032 
L 245.143879 -105.941572 
L 246.541875 -112.198558 
L 247.939871 -112.951166 
L 249.337866 -104.220233 
L 250.735862 -104.416755 
L 252.133858 -91.352467 
L 253.531854 -90.195082 
L 254.929849 -90.467263 
L 256.327845 -88.692352 
L 257.725841 -88.935999 
L 259.123836 -89.521037 
L 260.521832 -87.521486 
L 261.919828 -88.129289 
L 263.317823 -87.168823 
L 264.715819 -88.879069 
L 266.113815 -87.255384 
L 267.511811 -86.926098 
L 268.909806 -86.343227 
L 270.307802 -86.930834 
L 271.705798 -85.843669 
L 273.103793 -85.912738 
L 274.501789 -86.116016 
L 275.899785 -74.782836 
L 277.297781 -75.040657 
L 278.695776 -55.565996 
L 280.093772 -53.782989 
L 281.491768 -56.364555 
L 282.889763 -54.528439 
L 284.287759 -53.936925 
L 285.685755 -54.461196 
L 287.08375 -53.307742 
L 288.481746 -44.744903 
L 289.879742 -42.138675 
L 291.277738 -41.846596 
L 292.675733 -42.967055 
L 294.073729 -44.807094 
L 295.471725 -52.552803 
L 296.86972 -52.531448 
L 298.267716 -52.05382 
L 299.665712 -53.78402 
L 301.063707 -54.169089 
L 302.461703 -55.67112 
L 303.859699 -55.801529 
L 305.257695 -54.80643 
L 306.65569 -56.446651 
L 308.053686 -67.172899 
L 309.451682 -71.035394 
L 310.849677 -70.484567 
L 312.247673 -83.340478 
L 313.645669 -83.956164 
L 315.043665 -83.887485 
L 316.44166 -85.274482 
L 317.839656 -83.656057 
L 319.237652 -86.369478 
L 320.635647 -82.905638 
L 322.033643 -82.123259 
L 323.431639 -83.910999 
L 324.829634 -84.797942 
L 326.22763 -84.859251 
L 327.625626 -82.542326 
L 329.023622 -82.850703 
L 330.421617 -82.674904 
L 331.819613 -68.31529 
L 333.217609 -68.965061 
L 334.615604 -69.316921 
L 336.0136 -68.377058 
L 337.411596 -44.361769 
L 338.809592 -55.319497 
L 340.207587 -53.676488 
L 341.605583 -54.560428 
L 343.003579 -54.072797 
L 344.401574 -53.935505 
L 345.79957 -44.732952 
L 347.197566 -54.460721 
L 348.595561 -57.458277 
L 349.993557 -58.262459 
L 351.391553 -58.449237 
L 352.789549 -59.530044 
L 354.187544 -91.628044 
L 355.58554 -74.183577 
L 356.983536 -89.32852 
L 358.381531 -165.873207 
L 359.779527 -169.494488 
L 361.177523 -174.983996 
L 362.575519 -175.14166 
L 363.973514 -175.754096 
L 365.37151 -181.326872 
L 366.769506 -178.746302 
L 368.167501 -177.035004 
L 369.565497 -179.583046 
L 370.963493 -187.12711 
L 372.361488 -186.624806 
L 373.759484 -187.077796 
L 375.15748 -187.900458 
L 376.555476 -191.051875 
L 377.953471 -178.646691 
L 379.351467 -179.232528 
L 380.749463 -178.949312 
L 382.147458 -185.705874 
L 383.545454 -141.443833 
L 384.94345 -138.532631 
L 386.341446 -144.648642 
L 387.739441 -145.034368 
L 389.137437 -141.842118 
L 390.535433 -133.706445 
L 391.933428 -135.950079 
L 393.331424 -95.881008 
L 394.72942 -97.420243 
L 396.127415 -97.615429 
L 397.525411 -89.565122 
L 398.923407 -76.199204 
L 400.321403 -76.310567 
L 401.719398 -76.084384 
L 403.117394 -69.109406 
L 404.51539 -67.61562 
L 405.913385 -67.718736 
L 407.311381 -64.04613 
L 408.709377 -64.09596 
L 410.107372 -64.094252 
L 411.505368 -64.018213 
L 412.903364 -62.8 
L 414.30136 -48.395941 
L 415.699355 -62.389105 
L 417.097351 -47.549787 
L 418.495347 -47.325826 
L 419.893342 -47.36503 
L 421.291338 -47.24284 
L 422.689334 -48.672543 
L 424.08733 -48.331397 
L 424.08733 -45.967757 
L 424.08733 -45.967757 
L 422.689334 -46.132347 
L 421.291338 -44.865903 
L 419.893342 -44.93762 
L 418.495347 -45.009064 
L 417.097351 -45.336092 
L 415.699355 -52.032364 
L 414.30136 -46.032445 
L 412.903364 -51.922693 
L 411.505368 -53.287073 
L 410.107372 -53.249935 
L 408.709377 -53.347311 
L 407.311381 -53.240934 
L 405.913385 -56.483648 
L 404.51539 -55.41184 
L 403.117394 -58.231229 
L 401.719398 -64.769649 
L 400.321403 -65.371285 
L 398.923407 -64.937121 
L 397.525411 -75.255848 
L 396.127415 -81.248185 
L 394.72942 -81.208701 
L 393.331424 -82.727919 
L 391.933428 -110.868216 
L 390.535433 -109.989723 
L 389.137437 -120.968456 
L 387.739441 -119.840182 
L 386.341446 -120.060378 
L 384.94345 -119.234555 
L 383.545454 -115.046535 
L 382.147458 -145.516199 
L 380.749463 -144.674485 
L 379.351467 -141.694644 
L 377.953471 -139.858293 
L 376.555476 -152.711716 
L 375.15748 -144.179875 
L 373.759484 -149.197373 
L 372.361488 -150.832406 
L 370.963493 -146.842964 
L 369.565497 -145.488116 
L 368.167501 -145.148014 
L 366.769506 -145.948805 
L 365.37151 -148.102613 
L 363.973514 -144.660388 
L 362.575519 -139.611748 
L 361.177523 -143.105254 
L 359.779527 -133.429699 
L 358.381531 -131.789592 
L 356.983536 -78.496437 
L 355.58554 -63.382504 
L 354.187544 -80.334265 
L 352.789549 -51.871941 
L 351.391553 -50.945137 
L 349.993557 -50.647912 
L 348.595561 -50.417659 
L 347.197566 -47.934079 
L 345.79957 -42.9808 
L 344.401574 -47.616209 
L 343.003579 -47.860251 
L 341.605583 -47.464714 
L 340.207587 -47.120655 
L 338.809592 -49.091671 
L 337.411596 -42.707009 
L 336.0136 -59.95646 
L 334.615604 -60.436764 
L 333.217609 -60.551961 
L 331.819613 -60.475463 
L 330.421617 -73.782195 
L 329.023622 -73.827637 
L 327.625626 -73.195311 
L 326.22763 -74.976169 
L 324.829634 -74.345506 
L 323.431639 -74.649934 
L 322.033643 -72.136199 
L 320.635647 -73.579207 
L 319.237652 -75.372646 
L 317.839656 -74.546893 
L 316.44166 -74.41829 
L 315.043665 -74.417843 
L 313.645669 -74.39532 
L 312.247673 -74.293195 
L 310.849677 -62.222388 
L 309.451682 -62.287424 
L 308.053686 -59.096242 
L 306.65569 -49.637566 
L 305.257695 -48.982659 
L 303.859699 -49.239559 
L 302.461703 -49.227599 
L 301.063707 -48.32388 
L 299.665712 -47.601339 
L 298.267716 -46.380402 
L 296.86972 -46.64024 
L 295.471725 -46.980412 
L 294.073729 -42.982577 
L 292.675733 -41.639825 
L 291.277738 -40.652362 
L 289.879742 -40.905874 
L 288.481746 -42.918487 
L 287.08375 -47.770241 
L 285.685755 -48.64257 
L 284.287759 -47.45886 
L 282.889763 -48.734723 
L 281.491768 -50.619268 
L 280.093772 -47.85928 
L 278.695776 -48.895414 
L 277.297781 -64.670825 
L 275.899785 -64.698326 
L 274.501789 -75.452357 
L 273.103793 -76.146707 
L 271.705798 -75.502753 
L 270.307802 -76.174216 
L 268.909806 -74.529294 
L 267.511811 -75.033639 
L 266.113815 -77.090003 
L 264.715819 -77.472259 
L 263.317823 -77.100441 
L 261.919828 -77.862107 
L 260.521832 -76.759373 
L 259.123836 -78.34756 
L 257.725841 -77.717726 
L 256.327845 -77.622322 
L 254.929849 -79.071452 
L 253.531854 -78.64206 
L 252.133858 -78.65749 
L 250.735862 -88.206048 
L 249.337866 -88.282097 
L 247.939871 -94.083352 
L 246.541875 -94.162483 
L 245.143879 -90.320348 
L 243.745884 -91.26865 
L 242.347888 -93.055281 
L 240.949892 -69.608455 
L 239.551896 -98.100051 
L 238.153901 -97.803372 
L 236.755905 -98.51165 
L 235.357909 -97.445457 
L 233.959914 -99.06369 
L 232.561918 -98.799194 
L 231.163922 -99.070154 
L 229.765927 -102.036245 
L 228.367931 -102.33514 
L 226.969935 -99.855297 
L 225.571939 -103.531211 
L 224.173944 -103.609892 
L 222.775948 -103.887448 
L 221.377952 -112.547856 
L 219.979957 -103.213418 
L 218.581961 -102.852393 
L 217.183965 -101.965445 
L 215.785969 -104.292101 
L 214.387974 -102.738532 
L 212.989978 -99.27173 
L 211.591982 -101.251036 
L 210.193987 -100.418336 
L 208.795991 -77.11487 
L 207.397995 -98.727289 
L 206 -96.274508 
L 204.602004 -94.448355 
L 203.204008 -77.75602 
L 201.806012 -67.418797 
L 200.408017 -75.38556 
L 199.010021 -67.437081 
L 197.612025 -64.585103 
L 196.21403 -72.506009 
L 194.816034 -73.042318 
L 193.418038 -73.204188 
L 192.020043 -73.652413 
L 190.622047 -74.202722 
L 189.224051 -89.85839 
L 187.826055 -88.146577 
L 186.42806 -87.065704 
L 185.030064 -87.869359 
L 183.632068 -90.856331 
L 182.234073 -90.182685 
L 180.836077 -91.167198 
L 179.438081 -90.79742 
L 178.040085 -90.176581 
L 176.64209 -91.046445 
L 175.244094 -72.789157 
L 173.846098 -87.196358 
L 172.448103 -89.51272 
L 171.050107 -74.920301 
L 169.652111 -66.334637 
L 168.254116 -65.928411 
L 166.85612 -90.869189 
L 165.458124 -91.98713 
L 164.060128 -64.168956 
L 162.662133 -63.668193 
L 161.264137 -61.912382 
L 159.866141 -63.831926 
L 158.468146 -64.373277 
L 157.07015 -63.72716 
L 155.672154 -65.132809 
L 154.274158 -67.392245 
L 152.876163 -64.276205 
L 151.478167 -65.231302 
L 150.080171 -86.180116 
L 148.682176 -86.770352 
L 147.28418 -86.865937 
L 145.886184 -61.103053 
L 144.488189 -59.372587 
L 143.090193 -63.573207 
L 141.692197 -60.738706 
L 140.294201 -60.998187 
L 138.896206 -61.135459 
L 137.49821 -60.039504 
L 136.100214 -56.420925 
L 134.702219 -57.287736 
L 133.304223 -54.433834 
L 131.906227 -61.998208 
L 130.508231 -51.750106 
L 129.110236 -51.611787 
L 127.71224 -52.18724 
L 126.314244 -52.310801 
L 124.916249 -51.778941 
L 123.518253 -52.298635 
L 122.120257 -50.554922 
L 120.722262 -51.070328 
L 119.324266 -52.431633 
L 117.92627 -51.616892 
L 116.528274 -53.823065 
L 115.130279 -53.489279 
L 113.732283 -53.562827 
L 112.334287 -44.175033 
L 110.936292 -44.324737 
L 109.538296 -44.658889 
L 108.1403 -44.447184 
L 106.742304 -41.947903 
L 105.344309 -41.869752 
L 103.946313 -42.240833 
L 102.548317 -42.17054 
L 101.150322 -47.124537 
L 99.752326 -45.806867 
L 98.35433 -46.750996 
L 96.956335 -45.801518 
L 95.558339 -58.804387 
L 94.160343 -58.448188 
L 92.762347 -57.703729 
L 91.364352 -60.241885 
L 89.966356 -59.947141 
L 88.56836 -61.015492 
L 87.170365 -64.674518 
L 85.772369 -63.3628 
L 84.374373 -70.079236 
L 82.976378 -69.239498 
L 81.578382 -64.660648 
L 80.180386 -64.203288 
L 78.78239 -60.336354 
L 77.384395 -59.528183 
L 75.986399 -59.188651 
L 74.588403 -61.714052 
L 73.190408 -62.124343 
L 71.792412 -57.088937 
L 70.394416 -60.523198 
L 68.99642 -61.762483 
z
" style="stroke: #134a8e; stroke-opacity: 0.5; stroke-width: 0.5"/>
    </defs>
    <g clip-path="url(#p2e50a9f7ef)">
     <use xlink:href="#mbfb361b280" x="0" y="201.258973" style="fill: #134a8e; fill-opacity: 0.5; stroke: #134a8e; stroke-opacity: 0.5; stroke-width: 0.5"/>
    </g>
   </g>
   <g id="line2d_25">
    <path d="M 68.99642 132.827726 
L 70.394416 134.155912 
L 71.792412 136.865883 
L 73.190408 131.959099 
L 74.588403 132.641397 
L 75.986399 134.309625 
L 77.384395 133.844094 
L 78.78239 133.016448 
L 80.180386 129.099142 
L 81.578382 128.669839 
L 82.976378 124.42108 
L 84.374373 124.129593 
L 85.772369 129.818979 
L 87.170365 128.695864 
L 88.56836 133.75002 
L 89.966356 134.379065 
L 91.364352 134.137908 
L 92.762347 136.588835 
L 94.160343 135.922599 
L 95.558339 136.177514 
L 96.956335 154.409806 
L 98.35433 153.316499 
L 99.752326 154.431269 
L 101.150322 152.828641 
L 102.548317 158.143583 
L 103.946313 157.946429 
L 105.344309 158.590204 
L 106.742304 158.260914 
L 108.1403 155.859342 
L 109.538296 155.763624 
L 112.334287 156.083745 
L 113.732283 142.45345 
L 115.130279 143.148047 
L 116.528274 142.780446 
L 117.92627 145.103865 
L 119.324266 144.345333 
L 120.722262 146.378209 
L 122.120257 147.025614 
L 123.518253 145.101339 
L 124.916249 145.838163 
L 126.314244 145.76901 
L 127.71224 145.461003 
L 129.110236 146.065552 
L 130.508231 146.252499 
L 131.906227 135.372043 
L 133.304223 143.238437 
L 134.702219 139.943099 
L 136.100214 141.012562 
L 137.49821 137.106234 
L 138.896206 135.811613 
L 140.294201 135.888201 
L 141.692197 135.747723 
L 143.090193 133.333622 
L 144.488189 137.511478 
L 145.886184 135.257871 
L 147.28418 107.358032 
L 148.682176 107.449886 
L 150.080171 107.678051 
L 151.478167 131.014423 
L 152.876163 131.739144 
L 154.274158 128.739893 
L 155.672154 131.001188 
L 157.07015 132.180665 
L 158.468146 131.307024 
L 159.866141 132.15799 
L 161.264137 134.664896 
L 162.662133 132.689654 
L 164.060128 131.980991 
L 165.458124 101.188574 
L 166.85612 102.382071 
L 168.254116 129.674449 
L 169.652111 130.216087 
L 171.050107 119.360768 
L 172.448103 103.826276 
L 173.846098 105.91754 
L 175.244094 121.155673 
L 176.64209 102.199249 
L 178.040085 103.05914 
L 179.438081 102.542432 
L 180.836077 102.234633 
L 182.234073 103.71969 
L 183.632068 103.302198 
L 185.030064 106.204535 
L 186.42806 107.154316 
L 189.224051 104.11551 
L 190.622047 119.861849 
L 192.020043 120.650377 
L 193.418038 121.577976 
L 194.816034 121.167116 
L 196.21403 121.264121 
L 197.612025 130.59307 
L 199.010021 128.389049 
L 200.408017 118.283751 
L 201.806012 127.842252 
L 203.204008 115.365401 
L 204.602004 97.95494 
L 206 97.14057 
L 207.397995 93.243428 
L 208.795991 115.403372 
L 210.193987 91.522141 
L 211.591982 90.437982 
L 212.989978 92.733126 
L 214.387974 89.30173 
L 215.785969 87.097176 
L 217.183965 90.270589 
L 218.581961 90.187647 
L 219.979957 89.152291 
L 221.377952 78.498673 
L 222.775948 87.742477 
L 224.173944 89.175371 
L 225.571939 87.668056 
L 226.969935 92.171978 
L 228.367931 89.681867 
L 229.765927 90.246282 
L 231.163922 93.097207 
L 232.561918 92.301702 
L 233.959914 93.512599 
L 235.357909 94.564383 
L 236.755905 94.140194 
L 238.153901 94.509469 
L 239.551896 94.560627 
L 240.949892 125.68459 
L 242.347888 99.224176 
L 243.745884 102.292632 
L 245.143879 103.128012 
L 246.541875 98.078452 
L 247.939871 97.741713 
L 249.337866 105.007807 
L 250.735862 104.947571 
L 252.133858 116.253994 
L 253.531854 116.840402 
L 254.929849 116.489615 
L 256.327845 118.101636 
L 257.725841 117.93211 
L 259.123836 117.324674 
L 260.521832 119.118543 
L 261.919828 118.263274 
L 263.317823 119.124341 
L 264.715819 118.083308 
L 266.113815 119.086279 
L 267.511811 120.279104 
L 268.909806 120.822712 
L 270.307802 119.706447 
L 271.705798 120.585761 
L 273.103793 120.22925 
L 274.501789 120.474786 
L 275.899785 131.518391 
L 277.297781 131.403232 
L 278.695776 149.028268 
L 280.093772 150.437838 
L 281.491768 147.767061 
L 282.889763 149.627391 
L 284.287759 150.56108 
L 285.685755 149.70709 
L 287.08375 150.719981 
L 288.481746 157.427278 
L 289.879742 159.736698 
L 291.277738 160.009494 
L 292.675733 158.955532 
L 294.073729 157.364137 
L 295.471725 151.492365 
L 296.86972 151.673129 
L 298.267716 152.041862 
L 299.665712 150.566293 
L 301.063707 150.012488 
L 302.461703 148.809613 
L 303.859699 148.738429 
L 305.257695 149.364428 
L 306.65569 148.216864 
L 308.053686 138.124402 
L 309.451682 134.597563 
L 310.849677 134.905495 
L 312.247673 122.442136 
L 313.645669 122.083231 
L 315.043665 122.106308 
L 316.44166 121.412587 
L 317.839656 122.157497 
L 319.237652 120.387911 
L 320.635647 123.01655 
L 322.033643 124.129244 
L 323.431639 121.978506 
L 326.22763 121.341263 
L 327.625626 123.390154 
L 329.023622 122.919802 
L 330.421617 123.030423 
L 331.819613 136.863596 
L 333.217609 136.500462 
L 334.615604 136.38213 
L 336.0136 137.092214 
L 337.411596 157.724584 
L 338.809592 149.053389 
L 340.207587 150.860401 
L 341.605583 150.246402 
L 343.003579 150.292448 
L 344.401574 150.483116 
L 345.79957 157.402097 
L 347.197566 150.061572 
L 348.595561 147.321004 
L 349.993557 146.803787 
L 351.391553 146.561786 
L 352.789549 145.55798 
L 354.187544 115.277818 
L 355.58554 132.475932 
L 356.983536 117.346494 
L 358.381531 52.427573 
L 359.779527 49.796879 
L 361.177523 42.214348 
L 362.575519 43.882269 
L 363.973514 41.05173 
L 365.37151 36.54423 
L 366.769506 38.911419 
L 368.167501 40.167464 
L 369.565497 38.723392 
L 370.963493 34.273936 
L 372.361488 32.530367 
L 373.759484 33.121388 
L 375.15748 35.218806 
L 376.555476 29.377177 
L 377.953471 42.00648 
L 380.749463 39.447074 
L 382.147458 35.647936 
L 383.545454 73.013788 
L 384.94345 72.37538 
L 386.341446 68.904463 
L 387.739441 68.821698 
L 389.137437 69.853686 
L 390.535433 79.410888 
L 391.933428 77.849825 
L 393.331424 111.954509 
L 396.127415 111.827166 
L 397.525411 118.848487 
L 398.923407 130.69081 
L 400.321403 130.418046 
L 401.719398 130.831956 
L 403.117394 137.588655 
L 404.51539 139.745243 
L 405.913385 139.157781 
L 407.311381 142.615441 
L 408.709377 142.537337 
L 411.505368 142.60633 
L 412.903364 143.897626 
L 414.30136 154.04478 
L 415.699355 144.048238 
L 417.097351 154.816033 
L 418.495347 155.091528 
L 421.291338 155.204601 
L 422.689334 153.856528 
L 424.08733 154.109395 
L 424.08733 154.109395 
" clip-path="url(#p2e50a9f7ef)" style="fill: none; stroke: #134a8e; stroke-width: 3; stroke-linecap: square"/>
    <defs>
     <path id="m45277446dc" d="M 0 1.5 
C 0.397805 1.5 0.77937 1.341951 1.06066 1.06066 
C 1.341951 0.77937 1.5 0.397805 1.5 0 
C 1.5 -0.397805 1.341951 -0.77937 1.06066 -1.06066 
C 0.77937 -1.341951 0.397805 -1.5 0 -1.5 
C -0.397805 -1.5 -0.77937 -1.341951 -1.06066 -1.06066 
C -1.341951 -0.77937 -1.5 -0.397805 -1.5 0 
C -1.5 0.397805 -1.341951 0.77937 -1.06066 1.06066 
C -0.77937 1.341951 -0.397805 1.5 0 1.5 
z
" style="stroke: #134a8e"/>
    </defs>
    <g clip-path="url(#p2e50a9f7ef)">
     <use xlink:href="#m45277446dc" x="68.99642" y="132.827726" style="fill: #134a8e; stroke: #134a8e"/>
     <use xlink:href="#m45277446dc" x="70.394416" y="134.155912" style="fill: #134a8e; stroke: #134a8e"/>
     <use xlink:href="#m45277446dc" x="71.792412" y="136.865883" style="fill: #134a8e; stroke: #134a8e"/>
     <use xlink:href="#m45277446dc" x="73.190408" y="131.959099" style="fill: #134a8e; stroke: #134a8e"/>
     <use xlink:href="#m45277446dc" x="74.588403" y="132.641397" style="fill: #134a8e; stroke: #134a8e"/>
     <use xlink:href="#m45277446dc" x="75.986399" y="134.309625" style="fill: #134a8e; stroke: #134a8e"/>
     <use xlink:href="#m45277446dc" x="77.384395" y="133.844094" style="fill: #134a8e; stroke: #134a8e"/>
     <use xlink:href="#m45277446dc" x="78.78239" y="133.016448" style="fill: #134a8e; stroke: #134a8e"/>
     <use xlink:href="#m45277446dc" x="80.180386" y="129.099142" style="fill: #134a8e; stroke: #134a8e"/>
     <use xlink:href="#m45277446dc" x="81.578382" y="128.669839" style="fill: #134a8e; stroke: #134a8e"/>
     <use xlink:href="#m45277446dc" x="82.976378" y="124.42108" style="fill: #134a8e; stroke: #134a8e"/>
     <use xlink:href="#m45277446dc" x="84.374373" y="124.129593" style="fill: #134a8e; stroke: #134a8e"/>
     <use xlink:href="#m45277446dc" x="85.772369" y="129.818979" style="fill: #134a8e; stroke: #134a8e"/>
     <use xlink:href="#m45277446dc" x="87.170365" y="128.695864" style="fill: #134a8e; stroke: #134a8e"/>
     <use xlink:href="#m45277446dc" x="88.56836" y="133.75002" style="fill: #134a8e; stroke: #134a8e"/>
     <use xlink:href="#m45277446dc" x="89.966356" y="134.379065" style="fill: #134a8e; stroke: #134a8e"/>
     <use xlink:href="#m45277446dc" x="91.364352" y="134.137908" style="fill: #134a8e; stroke: #134a8e"/>
     <use xlink:href="#m45277446dc" x="92.762347" y="136.588835" style="fill: #134a8e; stroke: #134a8e"/>
     <use xlink:href="#m45277446dc" x="94.160343" y="135.922599" style="fill: #134a8e; stroke: #134a8e"/>
     <use xlink:href="#m45277446dc" x="95.558339" y="136.177514" style="fill: #134a8e; stroke: #134a8e"/>
     <use xlink:href="#m45277446dc" x="96.956335" y="154.409806" style="fill: #134a8e; stroke: #134a8e"/>
     <use xlink:href="#m45277446dc" x="98.35433" y="153.316499" style="fill: #134a8e; stroke: #134a8e"/>
     <use xlink:href="#m45277446dc" x="99.752326" y="154.431269" style="fill: #134a8e; stroke: #134a8e"/>
     <use xlink:href="#m45277446dc" x="101.150322" y="152.828641" style="fill: #134a8e; stroke: #134a8e"/>
     <use xlink:href="#m45277446dc" x="102.548317" y="158.143583" style="fill: #134a8e; stroke: #134a8e"/>
     <use xlink:href="#m45277446dc" x="103.946313" y="157.946429" style="fill: #134a8e; stroke: #134a8e"/>
     <use xlink:href="#m45277446dc" x="105.344309" y="158.590204" style="fill: #134a8e; stroke: #134a8e"/>
     <use xlink:href="#m45277446dc" x="106.742304" y="158.260914" style="fill: #134a8e; stroke: #134a8e"/>
     <use xlink:href="#m45277446dc" x="108.1403" y="155.859342" style="fill: #134a8e; stroke: #134a8e"/>
     <use xlink:href="#m45277446dc" x="109.538296" y="155.763624" style="fill: #134a8e; stroke: #134a8e"/>
     <use xlink:href="#m45277446dc" x="110.936292" y="155.870423" style="fill: #134a8e; stroke: #134a8e"/>
     <use xlink:href="#m45277446dc" x="112.334287" y="156.083745" style="fill: #134a8e; stroke: #134a8e"/>
     <use xlink:href="#m45277446dc" x="113.732283" y="142.45345" style="fill: #134a8e; stroke: #134a8e"/>
     <use xlink:href="#m45277446dc" x="115.130279" y="143.148047" style="fill: #134a8e; stroke: #134a8e"/>
     <use xlink:href="#m45277446dc" x="116.528274" y="142.780446" style="fill: #134a8e; stroke: #134a8e"/>
     <use xlink:href="#m45277446dc" x="117.92627" y="145.103865" style="fill: #134a8e; stroke: #134a8e"/>
     <use xlink:href="#m45277446dc" x="119.324266" y="144.345333" style="fill: #134a8e; stroke: #134a8e"/>
     <use xlink:href="#m45277446dc" x="120.722262" y="146.378209" style="fill: #134a8e; stroke: #134a8e"/>
     <use xlink:href="#m45277446dc" x="122.120257" y="147.025614" style="fill: #134a8e; stroke: #134a8e"/>
     <use xlink:href="#m45277446dc" x="123.518253" y="145.101339" style="fill: #134a8e; stroke: #134a8e"/>
     <use xlink:href="#m45277446dc" x="124.916249" y="145.838163" style="fill: #134a8e; stroke: #134a8e"/>
     <use xlink:href="#m45277446dc" x="126.314244" y="145.76901" style="fill: #134a8e; stroke: #134a8e"/>
     <use xlink:href="#m45277446dc" x="127.71224" y="145.461003" style="fill: #134a8e; stroke: #134a8e"/>
     <use xlink:href="#m45277446dc" x="129.110236" y="146.065552" style="fill: #134a8e; stroke: #134a8e"/>
     <use xlink:href="#m45277446dc" x="130.508231" y="146.252499" style="fill: #134a8e; stroke: #134a8e"/>
     <use xlink:href="#m45277446dc" x="131.906227" y="135.372043" style="fill: #134a8e; stroke: #134a8e"/>
     <use xlink:href="#m45277446dc" x="133.304223" y="143.238437" style="fill: #134a8e; stroke: #134a8e"/>
     <use xlink:href="#m45277446dc" x="134.702219" y="139.943099" style="fill: #134a8e; stroke: #134a8e"/>
     <use xlink:href="#m45277446dc" x="136.100214" y="141.012562" style="fill: #134a8e; stroke: #134a8e"/>
     <use xlink:href="#m45277446dc" x="137.49821" y="137.106234" style="fill: #134a8e; stroke: #134a8e"/>
     <use xlink:href="#m45277446dc" x="138.896206" y="135.811613" style="fill: #134a8e; stroke: #134a8e"/>
     <use xlink:href="#m45277446dc" x="140.294201" y="135.888201" style="fill: #134a8e; stroke: #134a8e"/>
     <use xlink:href="#m45277446dc" x="141.692197" y="135.747723" style="fill: #134a8e; stroke: #134a8e"/>
     <use xlink:href="#m45277446dc" x="143.090193" y="133.333622" style="fill: #134a8e; stroke: #134a8e"/>
     <use xlink:href="#m45277446dc" x="144.488189" y="137.511478" style="fill: #134a8e; stroke: #134a8e"/>
     <use xlink:href="#m45277446dc" x="145.886184" y="135.257871" style="fill: #134a8e; stroke: #134a8e"/>
     <use xlink:href="#m45277446dc" x="147.28418" y="107.358032" style="fill: #134a8e; stroke: #134a8e"/>
     <use xlink:href="#m45277446dc" x="148.682176" y="107.449886" style="fill: #134a8e; stroke: #134a8e"/>
     <use xlink:href="#m45277446dc" x="150.080171" y="107.678051" style="fill: #134a8e; stroke: #134a8e"/>
     <use xlink:href="#m45277446dc" x="151.478167" y="131.014423" style="fill: #134a8e; stroke: #134a8e"/>
     <use xlink:href="#m45277446dc" x="152.876163" y="131.739144" style="fill: #134a8e; stroke: #134a8e"/>
     <use xlink:href="#m45277446dc" x="154.274158" y="128.739893" style="fill: #134a8e; stroke: #134a8e"/>
     <use xlink:href="#m45277446dc" x="155.672154" y="131.001188" style="fill: #134a8e; stroke: #134a8e"/>
     <use xlink:href="#m45277446dc" x="157.07015" y="132.180665" style="fill: #134a8e; stroke: #134a8e"/>
     <use xlink:href="#m45277446dc" x="158.468146" y="131.307024" style="fill: #134a8e; stroke: #134a8e"/>
     <use xlink:href="#m45277446dc" x="159.866141" y="132.15799" style="fill: #134a8e; stroke: #134a8e"/>
     <use xlink:href="#m45277446dc" x="161.264137" y="134.664896" style="fill: #134a8e; stroke: #134a8e"/>
     <use xlink:href="#m45277446dc" x="162.662133" y="132.689654" style="fill: #134a8e; stroke: #134a8e"/>
     <use xlink:href="#m45277446dc" x="164.060128" y="131.980991" style="fill: #134a8e; stroke: #134a8e"/>
     <use xlink:href="#m45277446dc" x="165.458124" y="101.188574" style="fill: #134a8e; stroke: #134a8e"/>
     <use xlink:href="#m45277446dc" x="166.85612" y="102.382071" style="fill: #134a8e; stroke: #134a8e"/>
     <use xlink:href="#m45277446dc" x="168.254116" y="129.674449" style="fill: #134a8e; stroke: #134a8e"/>
     <use xlink:href="#m45277446dc" x="169.652111" y="130.216087" style="fill: #134a8e; stroke: #134a8e"/>
     <use xlink:href="#m45277446dc" x="171.050107" y="119.360768" style="fill: #134a8e; stroke: #134a8e"/>
     <use xlink:href="#m45277446dc" x="172.448103" y="103.826276" style="fill: #134a8e; stroke: #134a8e"/>
     <use xlink:href="#m45277446dc" x="173.846098" y="105.91754" style="fill: #134a8e; stroke: #134a8e"/>
     <use xlink:href="#m45277446dc" x="175.244094" y="121.155673" style="fill: #134a8e; stroke: #134a8e"/>
     <use xlink:href="#m45277446dc" x="176.64209" y="102.199249" style="fill: #134a8e; stroke: #134a8e"/>
     <use xlink:href="#m45277446dc" x="178.040085" y="103.05914" style="fill: #134a8e; stroke: #134a8e"/>
     <use xlink:href="#m45277446dc" x="179.438081" y="102.542432" style="fill: #134a8e; stroke: #134a8e"/>
     <use xlink:href="#m45277446dc" x="180.836077" y="102.234633" style="fill: #134a8e; stroke: #134a8e"/>
     <use xlink:href="#m45277446dc" x="182.234073" y="103.71969" style="fill: #134a8e; stroke: #134a8e"/>
     <use xlink:href="#m45277446dc" x="183.632068" y="103.302198" style="fill: #134a8e; stroke: #134a8e"/>
     <use xlink:href="#m45277446dc" x="185.030064" y="106.204535" style="fill: #134a8e; stroke: #134a8e"/>
     <use xlink:href="#m45277446dc" x="186.42806" y="107.154316" style="fill: #134a8e; stroke: #134a8e"/>
     <use xlink:href="#m45277446dc" x="187.826055" y="105.60627" style="fill: #134a8e; stroke: #134a8e"/>
     <use xlink:href="#m45277446dc" x="189.224051" y="104.11551" style="fill: #134a8e; stroke: #134a8e"/>
     <use xlink:href="#m45277446dc" x="190.622047" y="119.861849" style="fill: #134a8e; stroke: #134a8e"/>
     <use xlink:href="#m45277446dc" x="192.020043" y="120.650377" style="fill: #134a8e; stroke: #134a8e"/>
     <use xlink:href="#m45277446dc" x="193.418038" y="121.577976" style="fill: #134a8e; stroke: #134a8e"/>
     <use xlink:href="#m45277446dc" x="194.816034" y="121.167116" style="fill: #134a8e; stroke: #134a8e"/>
     <use xlink:href="#m45277446dc" x="196.21403" y="121.264121" style="fill: #134a8e; stroke: #134a8e"/>
     <use xlink:href="#m45277446dc" x="197.612025" y="130.59307" style="fill: #134a8e; stroke: #134a8e"/>
     <use xlink:href="#m45277446dc" x="199.010021" y="128.389049" style="fill: #134a8e; stroke: #134a8e"/>
     <use xlink:href="#m45277446dc" x="200.408017" y="118.283751" style="fill: #134a8e; stroke: #134a8e"/>
     <use xlink:href="#m45277446dc" x="201.806012" y="127.842252" style="fill: #134a8e; stroke: #134a8e"/>
     <use xlink:href="#m45277446dc" x="203.204008" y="115.365401" style="fill: #134a8e; stroke: #134a8e"/>
     <use xlink:href="#m45277446dc" x="204.602004" y="97.95494" style="fill: #134a8e; stroke: #134a8e"/>
     <use xlink:href="#m45277446dc" x="206" y="97.14057" style="fill: #134a8e; stroke: #134a8e"/>
     <use xlink:href="#m45277446dc" x="207.397995" y="93.243428" style="fill: #134a8e; stroke: #134a8e"/>
     <use xlink:href="#m45277446dc" x="208.795991" y="115.403372" style="fill: #134a8e; stroke: #134a8e"/>
     <use xlink:href="#m45277446dc" x="210.193987" y="91.522141" style="fill: #134a8e; stroke: #134a8e"/>
     <use xlink:href="#m45277446dc" x="211.591982" y="90.437982" style="fill: #134a8e; stroke: #134a8e"/>
     <use xlink:href="#m45277446dc" x="212.989978" y="92.733126" style="fill: #134a8e; stroke: #134a8e"/>
     <use xlink:href="#m45277446dc" x="214.387974" y="89.30173" style="fill: #134a8e; stroke: #134a8e"/>
     <use xlink:href="#m45277446dc" x="215.785969" y="87.097176" style="fill: #134a8e; stroke: #134a8e"/>
     <use xlink:href="#m45277446dc" x="217.183965" y="90.270589" style="fill: #134a8e; stroke: #134a8e"/>
     <use xlink:href="#m45277446dc" x="218.581961" y="90.187647" style="fill: #134a8e; stroke: #134a8e"/>
     <use xlink:href="#m45277446dc" x="219.979957" y="89.152291" style="fill: #134a8e; stroke: #134a8e"/>
     <use xlink:href="#m45277446dc" x="221.377952" y="78.498673" style="fill: #134a8e; stroke: #134a8e"/>
     <use xlink:href="#m45277446dc" x="222.775948" y="87.742477" style="fill: #134a8e; stroke: #134a8e"/>
     <use xlink:href="#m45277446dc" x="224.173944" y="89.175371" style="fill: #134a8e; stroke: #134a8e"/>
     <use xlink:href="#m45277446dc" x="225.571939" y="87.668056" style="fill: #134a8e; stroke: #134a8e"/>
     <use xlink:href="#m45277446dc" x="226.969935" y="92.171978" style="fill: #134a8e; stroke: #134a8e"/>
     <use xlink:href="#m45277446dc" x="228.367931" y="89.681867" style="fill: #134a8e; stroke: #134a8e"/>
     <use xlink:href="#m45277446dc" x="229.765927" y="90.246282" style="fill: #134a8e; stroke: #134a8e"/>
     <use xlink:href="#m45277446dc" x="231.163922" y="93.097207" style="fill: #134a8e; stroke: #134a8e"/>
     <use xlink:href="#m45277446dc" x="232.561918" y="92.301702" style="fill: #134a8e; stroke: #134a8e"/>
     <use xlink:href="#m45277446dc" x="233.959914" y="93.512599" style="fill: #134a8e; stroke: #134a8e"/>
     <use xlink:href="#m45277446dc" x="235.357909" y="94.564383" style="fill: #134a8e; stroke: #134a8e"/>
     <use xlink:href="#m45277446dc" x="236.755905" y="94.140194" style="fill: #134a8e; stroke: #134a8e"/>
     <use xlink:href="#m45277446dc" x="238.153901" y="94.509469" style="fill: #134a8e; stroke: #134a8e"/>
     <use xlink:href="#m45277446dc" x="239.551896" y="94.560627" style="fill: #134a8e; stroke: #134a8e"/>
     <use xlink:href="#m45277446dc" x="240.949892" y="125.68459" style="fill: #134a8e; stroke: #134a8e"/>
     <use xlink:href="#m45277446dc" x="242.347888" y="99.224176" style="fill: #134a8e; stroke: #134a8e"/>
     <use xlink:href="#m45277446dc" x="243.745884" y="102.292632" style="fill: #134a8e; stroke: #134a8e"/>
     <use xlink:href="#m45277446dc" x="245.143879" y="103.128012" style="fill: #134a8e; stroke: #134a8e"/>
     <use xlink:href="#m45277446dc" x="246.541875" y="98.078452" style="fill: #134a8e; stroke: #134a8e"/>
     <use xlink:href="#m45277446dc" x="247.939871" y="97.741713" style="fill: #134a8e; stroke: #134a8e"/>
     <use xlink:href="#m45277446dc" x="249.337866" y="105.007807" style="fill: #134a8e; stroke: #134a8e"/>
     <use xlink:href="#m45277446dc" x="250.735862" y="104.947571" style="fill: #134a8e; stroke: #134a8e"/>
     <use xlink:href="#m45277446dc" x="252.133858" y="116.253994" style="fill: #134a8e; stroke: #134a8e"/>
     <use xlink:href="#m45277446dc" x="253.531854" y="116.840402" style="fill: #134a8e; stroke: #134a8e"/>
     <use xlink:href="#m45277446dc" x="254.929849" y="116.489615" style="fill: #134a8e; stroke: #134a8e"/>
     <use xlink:href="#m45277446dc" x="256.327845" y="118.101636" style="fill: #134a8e; stroke: #134a8e"/>
     <use xlink:href="#m45277446dc" x="257.725841" y="117.93211" style="fill: #134a8e; stroke: #134a8e"/>
     <use xlink:href="#m45277446dc" x="259.123836" y="117.324674" style="fill: #134a8e; stroke: #134a8e"/>
     <use xlink:href="#m45277446dc" x="260.521832" y="119.118543" style="fill: #134a8e; stroke: #134a8e"/>
     <use xlink:href="#m45277446dc" x="261.919828" y="118.263274" style="fill: #134a8e; stroke: #134a8e"/>
     <use xlink:href="#m45277446dc" x="263.317823" y="119.124341" style="fill: #134a8e; stroke: #134a8e"/>
     <use xlink:href="#m45277446dc" x="264.715819" y="118.083308" style="fill: #134a8e; stroke: #134a8e"/>
     <use xlink:href="#m45277446dc" x="266.113815" y="119.086279" style="fill: #134a8e; stroke: #134a8e"/>
     <use xlink:href="#m45277446dc" x="267.511811" y="120.279104" style="fill: #134a8e; stroke: #134a8e"/>
     <use xlink:href="#m45277446dc" x="268.909806" y="120.822712" style="fill: #134a8e; stroke: #134a8e"/>
     <use xlink:href="#m45277446dc" x="270.307802" y="119.706447" style="fill: #134a8e; stroke: #134a8e"/>
     <use xlink:href="#m45277446dc" x="271.705798" y="120.585761" style="fill: #134a8e; stroke: #134a8e"/>
     <use xlink:href="#m45277446dc" x="273.103793" y="120.22925" style="fill: #134a8e; stroke: #134a8e"/>
     <use xlink:href="#m45277446dc" x="274.501789" y="120.474786" style="fill: #134a8e; stroke: #134a8e"/>
     <use xlink:href="#m45277446dc" x="275.899785" y="131.518391" style="fill: #134a8e; stroke: #134a8e"/>
     <use xlink:href="#m45277446dc" x="277.297781" y="131.403232" style="fill: #134a8e; stroke: #134a8e"/>
     <use xlink:href="#m45277446dc" x="278.695776" y="149.028268" style="fill: #134a8e; stroke: #134a8e"/>
     <use xlink:href="#m45277446dc" x="280.093772" y="150.437838" style="fill: #134a8e; stroke: #134a8e"/>
     <use xlink:href="#m45277446dc" x="281.491768" y="147.767061" style="fill: #134a8e; stroke: #134a8e"/>
     <use xlink:href="#m45277446dc" x="282.889763" y="149.627391" style="fill: #134a8e; stroke: #134a8e"/>
     <use xlink:href="#m45277446dc" x="284.287759" y="150.56108" style="fill: #134a8e; stroke: #134a8e"/>
     <use xlink:href="#m45277446dc" x="285.685755" y="149.70709" style="fill: #134a8e; stroke: #134a8e"/>
     <use xlink:href="#m45277446dc" x="287.08375" y="150.719981" style="fill: #134a8e; stroke: #134a8e"/>
     <use xlink:href="#m45277446dc" x="288.481746" y="157.427278" style="fill: #134a8e; stroke: #134a8e"/>
     <use xlink:href="#m45277446dc" x="289.879742" y="159.736698" style="fill: #134a8e; stroke: #134a8e"/>
     <use xlink:href="#m45277446dc" x="291.277738" y="160.009494" style="fill: #134a8e; stroke: #134a8e"/>
     <use xlink:href="#m45277446dc" x="292.675733" y="158.955532" style="fill: #134a8e; stroke: #134a8e"/>
     <use xlink:href="#m45277446dc" x="294.073729" y="157.364137" style="fill: #134a8e; stroke: #134a8e"/>
     <use xlink:href="#m45277446dc" x="295.471725" y="151.492365" style="fill: #134a8e; stroke: #134a8e"/>
     <use xlink:href="#m45277446dc" x="296.86972" y="151.673129" style="fill: #134a8e; stroke: #134a8e"/>
     <use xlink:href="#m45277446dc" x="298.267716" y="152.041862" style="fill: #134a8e; stroke: #134a8e"/>
     <use xlink:href="#m45277446dc" x="299.665712" y="150.566293" style="fill: #134a8e; stroke: #134a8e"/>
     <use xlink:href="#m45277446dc" x="301.063707" y="150.012488" style="fill: #134a8e; stroke: #134a8e"/>
     <use xlink:href="#m45277446dc" x="302.461703" y="148.809613" style="fill: #134a8e; stroke: #134a8e"/>
     <use xlink:href="#m45277446dc" x="303.859699" y="148.738429" style="fill: #134a8e; stroke: #134a8e"/>
     <use xlink:href="#m45277446dc" x="305.257695" y="149.364428" style="fill: #134a8e; stroke: #134a8e"/>
     <use xlink:href="#m45277446dc" x="306.65569" y="148.216864" style="fill: #134a8e; stroke: #134a8e"/>
     <use xlink:href="#m45277446dc" x="308.053686" y="138.124402" style="fill: #134a8e; stroke: #134a8e"/>
     <use xlink:href="#m45277446dc" x="309.451682" y="134.597563" style="fill: #134a8e; stroke: #134a8e"/>
     <use xlink:href="#m45277446dc" x="310.849677" y="134.905495" style="fill: #134a8e; stroke: #134a8e"/>
     <use xlink:href="#m45277446dc" x="312.247673" y="122.442136" style="fill: #134a8e; stroke: #134a8e"/>
     <use xlink:href="#m45277446dc" x="313.645669" y="122.083231" style="fill: #134a8e; stroke: #134a8e"/>
     <use xlink:href="#m45277446dc" x="315.043665" y="122.106308" style="fill: #134a8e; stroke: #134a8e"/>
     <use xlink:href="#m45277446dc" x="316.44166" y="121.412587" style="fill: #134a8e; stroke: #134a8e"/>
     <use xlink:href="#m45277446dc" x="317.839656" y="122.157497" style="fill: #134a8e; stroke: #134a8e"/>
     <use xlink:href="#m45277446dc" x="319.237652" y="120.387911" style="fill: #134a8e; stroke: #134a8e"/>
     <use xlink:href="#m45277446dc" x="320.635647" y="123.01655" style="fill: #134a8e; stroke: #134a8e"/>
     <use xlink:href="#m45277446dc" x="322.033643" y="124.129244" style="fill: #134a8e; stroke: #134a8e"/>
     <use xlink:href="#m45277446dc" x="323.431639" y="121.978506" style="fill: #134a8e; stroke: #134a8e"/>
     <use xlink:href="#m45277446dc" x="324.829634" y="121.687249" style="fill: #134a8e; stroke: #134a8e"/>
     <use xlink:href="#m45277446dc" x="326.22763" y="121.341263" style="fill: #134a8e; stroke: #134a8e"/>
     <use xlink:href="#m45277446dc" x="327.625626" y="123.390154" style="fill: #134a8e; stroke: #134a8e"/>
     <use xlink:href="#m45277446dc" x="329.023622" y="122.919802" style="fill: #134a8e; stroke: #134a8e"/>
     <use xlink:href="#m45277446dc" x="330.421617" y="123.030423" style="fill: #134a8e; stroke: #134a8e"/>
     <use xlink:href="#m45277446dc" x="331.819613" y="136.863596" style="fill: #134a8e; stroke: #134a8e"/>
     <use xlink:href="#m45277446dc" x="333.217609" y="136.500462" style="fill: #134a8e; stroke: #134a8e"/>
     <use xlink:href="#m45277446dc" x="334.615604" y="136.38213" style="fill: #134a8e; stroke: #134a8e"/>
     <use xlink:href="#m45277446dc" x="336.0136" y="137.092214" style="fill: #134a8e; stroke: #134a8e"/>
     <use xlink:href="#m45277446dc" x="337.411596" y="157.724584" style="fill: #134a8e; stroke: #134a8e"/>
     <use xlink:href="#m45277446dc" x="338.809592" y="149.053389" style="fill: #134a8e; stroke: #134a8e"/>
     <use xlink:href="#m45277446dc" x="340.207587" y="150.860401" style="fill: #134a8e; stroke: #134a8e"/>
     <use xlink:href="#m45277446dc" x="341.605583" y="150.246402" style="fill: #134a8e; stroke: #134a8e"/>
     <use xlink:href="#m45277446dc" x="343.003579" y="150.292448" style="fill: #134a8e; stroke: #134a8e"/>
     <use xlink:href="#m45277446dc" x="344.401574" y="150.483116" style="fill: #134a8e; stroke: #134a8e"/>
     <use xlink:href="#m45277446dc" x="345.79957" y="157.402097" style="fill: #134a8e; stroke: #134a8e"/>
     <use xlink:href="#m45277446dc" x="347.197566" y="150.061572" style="fill: #134a8e; stroke: #134a8e"/>
     <use xlink:href="#m45277446dc" x="348.595561" y="147.321004" style="fill: #134a8e; stroke: #134a8e"/>
     <use xlink:href="#m45277446dc" x="349.993557" y="146.803787" style="fill: #134a8e; stroke: #134a8e"/>
     <use xlink:href="#m45277446dc" x="351.391553" y="146.561786" style="fill: #134a8e; stroke: #134a8e"/>
     <use xlink:href="#m45277446dc" x="352.789549" y="145.55798" style="fill: #134a8e; stroke: #134a8e"/>
     <use xlink:href="#m45277446dc" x="354.187544" y="115.277818" style="fill: #134a8e; stroke: #134a8e"/>
     <use xlink:href="#m45277446dc" x="355.58554" y="132.475932" style="fill: #134a8e; stroke: #134a8e"/>
     <use xlink:href="#m45277446dc" x="356.983536" y="117.346494" style="fill: #134a8e; stroke: #134a8e"/>
     <use xlink:href="#m45277446dc" x="358.381531" y="52.427573" style="fill: #134a8e; stroke: #134a8e"/>
     <use xlink:href="#m45277446dc" x="359.779527" y="49.796879" style="fill: #134a8e; stroke: #134a8e"/>
     <use xlink:href="#m45277446dc" x="361.177523" y="42.214348" style="fill: #134a8e; stroke: #134a8e"/>
     <use xlink:href="#m45277446dc" x="362.575519" y="43.882269" style="fill: #134a8e; stroke: #134a8e"/>
     <use xlink:href="#m45277446dc" x="363.973514" y="41.05173" style="fill: #134a8e; stroke: #134a8e"/>
     <use xlink:href="#m45277446dc" x="365.37151" y="36.54423" style="fill: #134a8e; stroke: #134a8e"/>
     <use xlink:href="#m45277446dc" x="366.769506" y="38.911419" style="fill: #134a8e; stroke: #134a8e"/>
     <use xlink:href="#m45277446dc" x="368.167501" y="40.167464" style="fill: #134a8e; stroke: #134a8e"/>
     <use xlink:href="#m45277446dc" x="369.565497" y="38.723392" style="fill: #134a8e; stroke: #134a8e"/>
     <use xlink:href="#m45277446dc" x="370.963493" y="34.273936" style="fill: #134a8e; stroke: #134a8e"/>
     <use xlink:href="#m45277446dc" x="372.361488" y="32.530367" style="fill: #134a8e; stroke: #134a8e"/>
     <use xlink:href="#m45277446dc" x="373.759484" y="33.121388" style="fill: #134a8e; stroke: #134a8e"/>
     <use xlink:href="#m45277446dc" x="375.15748" y="35.218806" style="fill: #134a8e; stroke: #134a8e"/>
     <use xlink:href="#m45277446dc" x="376.555476" y="29.377177" style="fill: #134a8e; stroke: #134a8e"/>
     <use xlink:href="#m45277446dc" x="377.953471" y="42.00648" style="fill: #134a8e; stroke: #134a8e"/>
     <use xlink:href="#m45277446dc" x="379.351467" y="40.795387" style="fill: #134a8e; stroke: #134a8e"/>
     <use xlink:href="#m45277446dc" x="380.749463" y="39.447074" style="fill: #134a8e; stroke: #134a8e"/>
     <use xlink:href="#m45277446dc" x="382.147458" y="35.647936" style="fill: #134a8e; stroke: #134a8e"/>
     <use xlink:href="#m45277446dc" x="383.545454" y="73.013788" style="fill: #134a8e; stroke: #134a8e"/>
     <use xlink:href="#m45277446dc" x="384.94345" y="72.37538" style="fill: #134a8e; stroke: #134a8e"/>
     <use xlink:href="#m45277446dc" x="386.341446" y="68.904463" style="fill: #134a8e; stroke: #134a8e"/>
     <use xlink:href="#m45277446dc" x="387.739441" y="68.821698" style="fill: #134a8e; stroke: #134a8e"/>
     <use xlink:href="#m45277446dc" x="389.137437" y="69.853686" style="fill: #134a8e; stroke: #134a8e"/>
     <use xlink:href="#m45277446dc" x="390.535433" y="79.410888" style="fill: #134a8e; stroke: #134a8e"/>
     <use xlink:href="#m45277446dc" x="391.933428" y="77.849825" style="fill: #134a8e; stroke: #134a8e"/>
     <use xlink:href="#m45277446dc" x="393.331424" y="111.954509" style="fill: #134a8e; stroke: #134a8e"/>
     <use xlink:href="#m45277446dc" x="394.72942" y="111.944501" style="fill: #134a8e; stroke: #134a8e"/>
     <use xlink:href="#m45277446dc" x="396.127415" y="111.827166" style="fill: #134a8e; stroke: #134a8e"/>
     <use xlink:href="#m45277446dc" x="397.525411" y="118.848487" style="fill: #134a8e; stroke: #134a8e"/>
     <use xlink:href="#m45277446dc" x="398.923407" y="130.69081" style="fill: #134a8e; stroke: #134a8e"/>
     <use xlink:href="#m45277446dc" x="400.321403" y="130.418046" style="fill: #134a8e; stroke: #134a8e"/>
     <use xlink:href="#m45277446dc" x="401.719398" y="130.831956" style="fill: #134a8e; stroke: #134a8e"/>
     <use xlink:href="#m45277446dc" x="403.117394" y="137.588655" style="fill: #134a8e; stroke: #134a8e"/>
     <use xlink:href="#m45277446dc" x="404.51539" y="139.745243" style="fill: #134a8e; stroke: #134a8e"/>
     <use xlink:href="#m45277446dc" x="405.913385" y="139.157781" style="fill: #134a8e; stroke: #134a8e"/>
     <use xlink:href="#m45277446dc" x="407.311381" y="142.615441" style="fill: #134a8e; stroke: #134a8e"/>
     <use xlink:href="#m45277446dc" x="408.709377" y="142.537337" style="fill: #134a8e; stroke: #134a8e"/>
     <use xlink:href="#m45277446dc" x="410.107372" y="142.586879" style="fill: #134a8e; stroke: #134a8e"/>
     <use xlink:href="#m45277446dc" x="411.505368" y="142.60633" style="fill: #134a8e; stroke: #134a8e"/>
     <use xlink:href="#m45277446dc" x="412.903364" y="143.897626" style="fill: #134a8e; stroke: #134a8e"/>
     <use xlink:href="#m45277446dc" x="414.30136" y="154.04478" style="fill: #134a8e; stroke: #134a8e"/>
     <use xlink:href="#m45277446dc" x="415.699355" y="144.048238" style="fill: #134a8e; stroke: #134a8e"/>
     <use xlink:href="#m45277446dc" x="417.097351" y="154.816033" style="fill: #134a8e; stroke: #134a8e"/>
     <use xlink:href="#m45277446dc" x="418.495347" y="155.091528" style="fill: #134a8e; stroke: #134a8e"/>
     <use xlink:href="#m45277446dc" x="419.893342" y="155.107648" style="fill: #134a8e; stroke: #134a8e"/>
     <use xlink:href="#m45277446dc" x="421.291338" y="155.204601" style="fill: #134a8e; stroke: #134a8e"/>
     <use xlink:href="#m45277446dc" x="422.689334" y="153.856528" style="fill: #134a8e; stroke: #134a8e"/>
     <use xlink:href="#m45277446dc" x="424.08733" y="154.109395" style="fill: #134a8e; stroke: #134a8e"/>
    </g>
   </g>
   <g id="line2d_26">
    <path d="M 68.99642 145.509125 
L 70.394416 145.578976 
L 71.792412 149.921116 
L 73.190408 149.059813 
L 74.588403 149.265467 
L 75.986399 149.221506 
L 77.384395 144.465154 
L 78.78239 144.504601 
L 81.578382 143.920517 
L 82.976378 139.015948 
L 84.374373 138.641396 
L 85.772369 142.208184 
L 87.170365 143.737206 
L 88.56836 148.958528 
L 89.966356 149.328495 
L 91.364352 149.403761 
L 92.762347 150.045759 
L 95.558339 149.53206 
L 96.956335 153.575231 
L 98.35433 154.282385 
L 99.752326 154.251693 
L 101.150322 154.359172 
L 102.548317 159.075178 
L 103.946313 159.154436 
L 105.344309 159.495466 
L 108.1403 158.952917 
L 109.538296 159.061448 
L 112.334287 158.883951 
L 113.732283 153.971927 
L 115.130279 149.64484 
L 116.528274 150.478339 
L 117.92627 148.960488 
L 119.324266 150.015165 
L 120.722262 149.846546 
L 122.120257 154.589692 
L 123.518253 150.188544 
L 124.916249 145.385426 
L 126.314244 145.051041 
L 127.71224 144.9638 
L 130.508231 145.439664 
L 131.906227 135.715187 
L 133.304223 140.391743 
L 134.702219 139.977319 
L 136.100214 140.254285 
L 137.49821 135.944568 
L 138.896206 135.845779 
L 140.294201 137.278663 
L 141.692197 133.475567 
L 144.488189 142.600322 
L 145.886184 139.539604 
L 147.28418 123.589931 
L 148.682176 119.662893 
L 150.080171 121.129322 
L 151.478167 129.939289 
L 152.876163 130.800128 
L 154.274158 134.968083 
L 155.672154 136.173612 
L 157.07015 139.463706 
L 158.468146 140.201278 
L 159.866141 140.359618 
L 161.264137 144.385484 
L 162.662133 139.865743 
L 164.060128 138.305474 
L 165.458124 122.719071 
L 166.85612 122.82414 
L 168.254116 127.864435 
L 169.652111 129.011693 
L 171.050107 125.767681 
L 172.448103 124.814182 
L 173.846098 125.879047 
L 175.244094 128.685356 
L 176.64209 118.553353 
L 178.040085 116.117975 
L 179.438081 116.562323 
L 180.836077 112.372772 
L 182.234073 110.166907 
L 183.632068 110.372208 
L 185.030064 120.498492 
L 186.42806 122.23225 
L 187.826055 126.40783 
L 189.224051 125.620492 
L 190.622047 127.363983 
L 192.020043 130.10889 
L 193.418038 129.678029 
L 194.816034 127.512051 
L 196.21403 128.821089 
L 197.612025 130.756248 
L 199.010021 131.171511 
L 200.408017 125.581186 
L 201.806012 129.569256 
L 203.204008 123.398261 
L 204.602004 119.771684 
L 206 118.767583 
L 207.397995 116.849111 
L 208.795991 120.782679 
L 210.193987 117.618287 
L 211.591982 108.187828 
L 212.989978 104.767639 
L 214.387974 99.775945 
L 215.785969 93.832843 
L 217.183965 98.620326 
L 218.581961 97.500038 
L 219.979957 97.12077 
L 221.377952 85.557805 
L 222.775948 96.46373 
L 224.173944 100.805059 
L 225.571939 101.130741 
L 226.969935 104.167776 
L 228.367931 101.809342 
L 229.765927 102.611984 
L 231.163922 108.937396 
L 232.561918 110.705035 
L 233.959914 112.175784 
L 235.357909 119.113005 
L 236.755905 115.455941 
L 238.153901 116.779766 
L 239.551896 119.796509 
L 240.949892 126.779664 
L 242.347888 123.504216 
L 243.745884 124.334357 
L 245.143879 125.947912 
L 246.541875 120.061202 
L 247.939871 120.268799 
L 249.337866 122.80056 
L 250.735862 126.25027 
L 253.531854 131.159312 
L 254.929849 131.788635 
L 257.725841 133.280353 
L 259.123836 128.505164 
L 260.521832 127.335449 
L 261.919828 128.261725 
L 263.317823 129.017107 
L 264.715819 128.08828 
L 266.113815 133.558862 
L 267.511811 133.28209 
L 268.909806 133.88205 
L 270.307802 127.967931 
L 271.705798 126.975214 
L 273.103793 137.673166 
L 274.501789 137.604349 
L 275.899785 139.671769 
L 277.297781 139.592021 
L 278.695776 150.827696 
L 280.093772 153.760399 
L 281.491768 151.93861 
L 282.889763 150.869586 
L 284.287759 152.745088 
L 285.685755 153.263865 
L 287.08375 155.814261 
L 288.481746 159.288312 
L 289.879742 161.244599 
L 291.277738 161.407098 
L 292.675733 160.19875 
L 294.073729 159.282039 
L 295.471725 157.23461 
L 296.86972 157.935912 
L 298.267716 156.752685 
L 299.665712 155.36583 
L 301.063707 155.134323 
L 302.461703 153.728719 
L 303.859699 153.690064 
L 305.257695 153.000539 
L 306.65569 151.479262 
L 308.053686 144.859854 
L 309.451682 141.788159 
L 310.849677 141.083716 
L 312.247673 133.885175 
L 313.645669 132.37927 
L 315.043665 132.73824 
L 316.44166 132.455839 
L 317.839656 124.387385 
L 319.237652 124.598815 
L 322.033643 128.908849 
L 323.431639 128.65006 
L 324.829634 127.143464 
L 326.22763 123.90309 
L 327.625626 127.628662 
L 329.023622 129.878097 
L 330.421617 128.848094 
L 331.819613 138.208954 
L 333.217609 142.388736 
L 334.615604 143.211986 
L 336.0136 142.982738 
L 337.411596 159.079201 
L 338.809592 153.856421 
L 340.207587 156.261651 
L 341.605583 156.113575 
L 344.401574 155.978443 
L 345.79957 158.641049 
L 347.197566 156.314136 
L 349.993557 146.319741 
L 351.391553 146.793782 
L 352.789549 146.790968 
L 354.187544 126.041099 
L 355.58554 134.381116 
L 356.983536 128.769534 
L 358.381531 74.333849 
L 359.779527 66.995233 
L 361.177523 71.432543 
L 362.575519 71.165963 
L 363.973514 63.708855 
L 365.37151 61.965771 
L 366.769506 55.822847 
L 368.167501 59.741642 
L 369.565497 58.189117 
L 370.963493 61.158045 
L 372.361488 60.989407 
L 373.759484 47.19902 
L 375.15748 43.852804 
L 376.555476 44.227616 
L 377.953471 74.138705 
L 379.351467 69.250382 
L 380.749463 73.053305 
L 382.147458 73.14814 
L 383.545454 76.275512 
L 384.94345 79.998989 
L 386.341446 87.895392 
L 387.739441 89.799475 
L 389.137437 94.973753 
L 390.535433 98.825858 
L 391.933428 98.967732 
L 393.331424 120.628981 
L 394.72942 118.269052 
L 396.127415 125.980236 
L 397.525411 128.514 
L 398.923407 135.573717 
L 400.321403 137.597573 
L 401.719398 137.6038 
L 403.117394 142.576636 
L 404.51539 144.914902 
L 405.913385 146.308656 
L 407.311381 149.032643 
L 408.709377 151.205297 
L 410.107372 151.466854 
L 411.505368 151.492584 
L 412.903364 151.258345 
L 414.30136 155.288421 
L 415.699355 154.18349 
L 417.097351 157.023559 
L 418.495347 157.229306 
L 419.893342 157.017053 
L 421.291338 158.001581 
L 422.689334 155.630768 
L 424.08733 155.617382 
L 424.08733 155.617382 
" clip-path="url(#p2e50a9f7ef)" style="fill: none; stroke-dasharray: 5.55,2.4; stroke-dashoffset: 0; stroke: #000000; stroke-width: 1.5"/>
   </g>
   <g id="patch_3">
    <path d="M 51.241875 168.967098 
L 51.241875 2.647098 
" style="fill: none; stroke: #ffffff; stroke-linejoin: miter; stroke-linecap: square"/>
   </g>
   <g id="patch_4">
    <path d="M 441.841875 168.967098 
L 441.841875 2.647098 
" style="fill: none; stroke: #ffffff; stroke-linejoin: miter; stroke-linecap: square"/>
   </g>
   <g id="patch_5">
    <path d="M 51.241875 168.967098 
L 441.841875 168.967098 
" style="fill: none; stroke: #ffffff; stroke-linejoin: miter; stroke-linecap: square"/>
   </g>
   <g id="patch_6">
    <path d="M 51.241875 2.647098 
L 441.841875 2.647098 
" style="fill: none; stroke: #ffffff; stroke-linejoin: miter; stroke-linecap: square"/>
   </g>
   <g id="legend_1">
    <g id="patch_7">
     <path d="M 58.241875 63.025223 
L 210.28875 63.025223 
Q 212.28875 63.025223 212.28875 61.025223 
L 212.28875 9.647098 
Q 212.28875 7.647098 210.28875 7.647098 
L 58.241875 7.647098 
Q 56.241875 7.647098 56.241875 9.647098 
L 56.241875 61.025223 
Q 56.241875 63.025223 58.241875 63.025223 
z
" style="fill: #e5e5e5; opacity: 0.8; stroke: #cccccc; stroke-width: 0.5; stroke-linejoin: miter"/>
    </g>
    <g id="line2d_27">
     <path d="M 60.241875 18.147098 
L 70.241875 18.147098 
L 80.241875 18.147098 
" style="fill: none; stroke: #134a8e; stroke-width: 3; stroke-linecap: square"/>
     <g>
      <use xlink:href="#m45277446dc" x="70.241875" y="18.147098" style="fill: #134a8e; stroke: #134a8e"/>
     </g>
    </g>
    <g id="text_15">
     <!-- Private Value $\tilde{R}_{\chi_1,\chi_3}^t$ -->
     <g transform="translate(88.241875 21.647098) scale(0.1 -0.1)">
      <defs>
       <path id="DejaVuSans-50" d="M 1259 4147 
L 1259 2394 
L 2053 2394 
Q 2494 2394 2734 2622 
Q 2975 2850 2975 3272 
Q 2975 3691 2734 3919 
Q 2494 4147 2053 4147 
L 1259 4147 
z
M 628 4666 
L 2053 4666 
Q 2838 4666 3239 4311 
Q 3641 3956 3641 3272 
Q 3641 2581 3239 2228 
Q 2838 1875 2053 1875 
L 1259 1875 
L 1259 0 
L 628 0 
L 628 4666 
z
" transform="scale(0.015625)"/>
       <path id="DejaVuSans-72" d="M 2631 2963 
Q 2534 3019 2420 3045 
Q 2306 3072 2169 3072 
Q 1681 3072 1420 2755 
Q 1159 2438 1159 1844 
L 1159 0 
L 581 0 
L 581 3500 
L 1159 3500 
L 1159 2956 
Q 1341 3275 1631 3429 
Q 1922 3584 2338 3584 
Q 2397 3584 2469 3576 
Q 2541 3569 2628 3553 
L 2631 2963 
z
" transform="scale(0.015625)"/>
       <path id="DejaVuSans-69" d="M 603 3500 
L 1178 3500 
L 1178 0 
L 603 0 
L 603 3500 
z
M 603 4863 
L 1178 4863 
L 1178 4134 
L 603 4134 
L 603 4863 
z
" transform="scale(0.015625)"/>
       <path id="DejaVuSans-76" d="M 191 3500 
L 800 3500 
L 1894 563 
L 2988 3500 
L 3597 3500 
L 2284 0 
L 1503 0 
L 191 3500 
z
" transform="scale(0.015625)"/>
       <path id="DejaVuSans-20" transform="scale(0.015625)"/>
       <path id="DejaVuSans-303" d="M -1621 4281 
L -1799 4453 
Q -1867 4516 -1919 4545 
Q -1971 4575 -2011 4575 
Q -2130 4575 -2186 4461 
Q -2242 4347 -2249 4091 
L -2639 4091 
Q -2633 4513 -2473 4742 
Q -2314 4972 -2030 4972 
Q -1911 4972 -1811 4928 
Q -1711 4884 -1596 4781 
L -1417 4609 
Q -1349 4547 -1297 4517 
Q -1246 4488 -1205 4488 
Q -1086 4488 -1030 4602 
Q -974 4716 -967 4972 
L -577 4972 
Q -583 4550 -742 4320 
Q -902 4091 -1186 4091 
Q -1305 4091 -1405 4134 
Q -1505 4178 -1621 4281 
z
" transform="scale(0.015625)"/>
       <path id="DejaVuSans-Oblique-52" d="M 1613 4147 
L 1294 2491 
L 2106 2491 
Q 2584 2491 2879 2755 
Q 3175 3019 3175 3444 
Q 3175 3784 2976 3965 
Q 2778 4147 2406 4147 
L 1613 4147 
z
M 2772 2241 
Q 2972 2194 3105 2009 
Q 3238 1825 3413 1275 
L 3809 0 
L 3144 0 
L 2778 1197 
Q 2638 1659 2453 1815 
Q 2269 1972 1888 1972 
L 1191 1972 
L 806 0 
L 172 0 
L 1081 4666 
L 2503 4666 
Q 3150 4666 3495 4373 
Q 3841 4081 3841 3531 
Q 3841 3044 3547 2687 
Q 3253 2331 2772 2241 
z
" transform="scale(0.015625)"/>
       <path id="DejaVuSans-Oblique-74" d="M 2706 3500 
L 2619 3053 
L 1472 3053 
L 1100 1153 
Q 1081 1047 1072 975 
Q 1063 903 1063 863 
Q 1063 663 1183 572 
Q 1303 481 1569 481 
L 2150 481 
L 2053 0 
L 1503 0 
Q 991 0 739 200 
Q 488 400 488 806 
Q 488 878 497 964 
Q 506 1050 525 1153 
L 897 3053 
L 409 3053 
L 500 3500 
L 978 3500 
L 1172 4494 
L 1747 4494 
L 1556 3500 
L 2706 3500 
z
" transform="scale(0.015625)"/>
       <path id="DejaVuSans-Oblique-3c7" d="M 1922 -781 
L 1691 416 
L 394 -1334 
L -284 -1334 
L 1553 1141 
L 1269 2613 
Q 1194 3006 713 3006 
L 559 3006 
L 653 3500 
L 872 3494 
Q 1675 3472 1775 2950 
L 2006 1753 
L 3303 3503 
L 3981 3503 
L 2144 1028 
L 2428 -444 
Q 2503 -838 2984 -838 
L 3138 -838 
L 3044 -1331 
L 2825 -1325 
Q 2022 -1303 1922 -781 
z
" transform="scale(0.015625)"/>
       <path id="DejaVuSans-2c" d="M 750 794 
L 1409 794 
L 1409 256 
L 897 -744 
L 494 -744 
L 750 256 
L 750 794 
z
" transform="scale(0.015625)"/>
      </defs>
      <use xlink:href="#DejaVuSans-50" transform="translate(0 0.828125)"/>
      <use xlink:href="#DejaVuSans-72" transform="translate(60.302734 0.828125)"/>
      <use xlink:href="#DejaVuSans-69" transform="translate(101.416016 0.828125)"/>
      <use xlink:href="#DejaVuSans-76" transform="translate(129.199219 0.828125)"/>
      <use xlink:href="#DejaVuSans-61" transform="translate(188.378906 0.828125)"/>
      <use xlink:href="#DejaVuSans-74" transform="translate(249.658203 0.828125)"/>
      <use xlink:href="#DejaVuSans-65" transform="translate(288.867188 0.828125)"/>
      <use xlink:href="#DejaVuSans-20" transform="translate(350.390625 0.828125)"/>
      <use xlink:href="#DejaVuSans-56" transform="translate(382.177734 0.828125)"/>
      <use xlink:href="#DejaVuSans-61" transform="translate(450.585938 0.828125)"/>
      <use xlink:href="#DejaVuSans-6c" transform="translate(511.865234 0.828125)"/>
      <use xlink:href="#DejaVuSans-75" transform="translate(539.648438 0.828125)"/>
      <use xlink:href="#DejaVuSans-65" transform="translate(603.027344 0.828125)"/>
      <use xlink:href="#DejaVuSans-20" transform="translate(664.550781 0.828125)"/>
      <use xlink:href="#DejaVuSans-303" transform="translate(764.942871 22.3125)"/>
      <use xlink:href="#DejaVuSans-Oblique-52" transform="translate(696.337891 0.828125)"/>
      <use xlink:href="#DejaVuSans-Oblique-74" transform="translate(766.777344 39.109375) scale(0.7)"/>
      <use xlink:href="#DejaVuSans-Oblique-3c7" transform="translate(766.777344 -26.515625) scale(0.7)"/>
      <use xlink:href="#DejaVuSans-31" transform="translate(808.203125 -38) scale(0.49)"/>
      <use xlink:href="#DejaVuSans-2c" transform="translate(841.29248 -26.515625) scale(0.7)"/>
      <use xlink:href="#DejaVuSans-Oblique-3c7" transform="translate(877.181152 -26.515625) scale(0.7)"/>
      <use xlink:href="#DejaVuSans-33" transform="translate(918.606934 -38) scale(0.49)"/>
     </g>
    </g>
    <g id="line2d_28">
     <path d="M 60.241875 36.647098 
L 70.241875 36.647098 
L 80.241875 36.647098 
" style="fill: none; stroke-dasharray: 5.55,2.4; stroke-dashoffset: 0; stroke: #000000; stroke-width: 1.5"/>
    </g>
    <g id="text_16">
     <!-- Original Value $\bar{R}_{\chi_1,\chi_3}^t$ -->
     <g transform="translate(88.241875 40.147098) scale(0.1 -0.1)">
      <defs>
       <path id="DejaVuSans-4f" d="M 2522 4238 
Q 1834 4238 1429 3725 
Q 1025 3213 1025 2328 
Q 1025 1447 1429 934 
Q 1834 422 2522 422 
Q 3209 422 3611 934 
Q 4013 1447 4013 2328 
Q 4013 3213 3611 3725 
Q 3209 4238 2522 4238 
z
M 2522 4750 
Q 3503 4750 4090 4092 
Q 4678 3434 4678 2328 
Q 4678 1225 4090 567 
Q 3503 -91 2522 -91 
Q 1538 -91 948 565 
Q 359 1222 359 2328 
Q 359 3434 948 4092 
Q 1538 4750 2522 4750 
z
" transform="scale(0.015625)"/>
       <path id="DejaVuSans-67" d="M 2906 1791 
Q 2906 2416 2648 2759 
Q 2391 3103 1925 3103 
Q 1463 3103 1205 2759 
Q 947 2416 947 1791 
Q 947 1169 1205 825 
Q 1463 481 1925 481 
Q 2391 481 2648 825 
Q 2906 1169 2906 1791 
z
M 3481 434 
Q 3481 -459 3084 -895 
Q 2688 -1331 1869 -1331 
Q 1566 -1331 1297 -1286 
Q 1028 -1241 775 -1147 
L 775 -588 
Q 1028 -725 1275 -790 
Q 1522 -856 1778 -856 
Q 2344 -856 2625 -561 
Q 2906 -266 2906 331 
L 2906 616 
Q 2728 306 2450 153 
Q 2172 0 1784 0 
Q 1141 0 747 490 
Q 353 981 353 1791 
Q 353 2603 747 3093 
Q 1141 3584 1784 3584 
Q 2172 3584 2450 3431 
Q 2728 3278 2906 2969 
L 2906 3500 
L 3481 3500 
L 3481 434 
z
" transform="scale(0.015625)"/>
       <path id="DejaVuSans-6e" d="M 3513 2113 
L 3513 0 
L 2938 0 
L 2938 2094 
Q 2938 2591 2744 2837 
Q 2550 3084 2163 3084 
Q 1697 3084 1428 2787 
Q 1159 2491 1159 1978 
L 1159 0 
L 581 0 
L 581 3500 
L 1159 3500 
L 1159 2956 
Q 1366 3272 1645 3428 
Q 1925 3584 2291 3584 
Q 2894 3584 3203 3211 
Q 3513 2838 3513 2113 
z
" transform="scale(0.015625)"/>
       <path id="DejaVuSans-304" d="M -2518 4769 
L -650 4769 
L -650 4306 
L -2518 4306 
L -2518 4769 
z
" transform="scale(0.015625)"/>
      </defs>
      <use xlink:href="#DejaVuSans-4f" transform="translate(0 0.359375)"/>
      <use xlink:href="#DejaVuSans-72" transform="translate(78.710938 0.359375)"/>
      <use xlink:href="#DejaVuSans-69" transform="translate(119.824219 0.359375)"/>
      <use xlink:href="#DejaVuSans-67" transform="translate(147.607422 0.359375)"/>
      <use xlink:href="#DejaVuSans-69" transform="translate(211.083984 0.359375)"/>
      <use xlink:href="#DejaVuSans-6e" transform="translate(238.867188 0.359375)"/>
      <use xlink:href="#DejaVuSans-61" transform="translate(302.246094 0.359375)"/>
      <use xlink:href="#DejaVuSans-6c" transform="translate(363.525391 0.359375)"/>
      <use xlink:href="#DejaVuSans-20" transform="translate(391.308594 0.359375)"/>
      <use xlink:href="#DejaVuSans-56" transform="translate(423.095703 0.359375)"/>
      <use xlink:href="#DejaVuSans-61" transform="translate(491.503906 0.359375)"/>
      <use xlink:href="#DejaVuSans-6c" transform="translate(552.783203 0.359375)"/>
      <use xlink:href="#DejaVuSans-75" transform="translate(580.566406 0.359375)"/>
      <use xlink:href="#DejaVuSans-65" transform="translate(643.945312 0.359375)"/>
      <use xlink:href="#DejaVuSans-20" transform="translate(705.46875 0.359375)"/>
      <use xlink:href="#DejaVuSans-304" transform="translate(804.970215 18.484375)"/>
      <use xlink:href="#DejaVuSans-Oblique-52" transform="translate(737.255859 0.359375)"/>
      <use xlink:href="#DejaVuSans-Oblique-74" transform="translate(807.695312 38.640625) scale(0.7)"/>
      <use xlink:href="#DejaVuSans-Oblique-3c7" transform="translate(807.695312 -26.984375) scale(0.7)"/>
      <use xlink:href="#DejaVuSans-31" transform="translate(849.121094 -38.46875) scale(0.49)"/>
      <use xlink:href="#DejaVuSans-2c" transform="translate(882.210449 -26.984375) scale(0.7)"/>
      <use xlink:href="#DejaVuSans-Oblique-3c7" transform="translate(918.099121 -26.984375) scale(0.7)"/>
      <use xlink:href="#DejaVuSans-33" transform="translate(959.524902 -38.46875) scale(0.49)"/>
     </g>
    </g>
    <g id="patch_8">
     <path d="M 60.241875 56.945535 
L 80.241875 56.945535 
L 80.241875 49.945535 
L 60.241875 49.945535 
z
" style="fill: #134a8e; fill-opacity: 0.5; stroke: #134a8e; stroke-opacity: 0.5; stroke-width: 0.5; stroke-linejoin: miter"/>
    </g>
    <g id="text_17">
     <!-- One Standard Deviation -->
     <g transform="translate(88.241875 56.945535) scale(0.1 -0.1)">
      <defs>
       <path id="DejaVuSans-53" d="M 3425 4513 
L 3425 3897 
Q 3066 4069 2747 4153 
Q 2428 4238 2131 4238 
Q 1616 4238 1336 4038 
Q 1056 3838 1056 3469 
Q 1056 3159 1242 3001 
Q 1428 2844 1947 2747 
L 2328 2669 
Q 3034 2534 3370 2195 
Q 3706 1856 3706 1288 
Q 3706 609 3251 259 
Q 2797 -91 1919 -91 
Q 1588 -91 1214 -16 
Q 841 59 441 206 
L 441 856 
Q 825 641 1194 531 
Q 1563 422 1919 422 
Q 2459 422 2753 634 
Q 3047 847 3047 1241 
Q 3047 1584 2836 1778 
Q 2625 1972 2144 2069 
L 1759 2144 
Q 1053 2284 737 2584 
Q 422 2884 422 3419 
Q 422 4038 858 4394 
Q 1294 4750 2059 4750 
Q 2388 4750 2728 4690 
Q 3069 4631 3425 4513 
z
" transform="scale(0.015625)"/>
       <path id="DejaVuSans-64" d="M 2906 2969 
L 2906 4863 
L 3481 4863 
L 3481 0 
L 2906 0 
L 2906 525 
Q 2725 213 2448 61 
Q 2172 -91 1784 -91 
Q 1150 -91 751 415 
Q 353 922 353 1747 
Q 353 2572 751 3078 
Q 1150 3584 1784 3584 
Q 2172 3584 2448 3432 
Q 2725 3281 2906 2969 
z
M 947 1747 
Q 947 1113 1208 752 
Q 1469 391 1925 391 
Q 2381 391 2643 752 
Q 2906 1113 2906 1747 
Q 2906 2381 2643 2742 
Q 2381 3103 1925 3103 
Q 1469 3103 1208 2742 
Q 947 2381 947 1747 
z
" transform="scale(0.015625)"/>
       <path id="DejaVuSans-6f" d="M 1959 3097 
Q 1497 3097 1228 2736 
Q 959 2375 959 1747 
Q 959 1119 1226 758 
Q 1494 397 1959 397 
Q 2419 397 2687 759 
Q 2956 1122 2956 1747 
Q 2956 2369 2687 2733 
Q 2419 3097 1959 3097 
z
M 1959 3584 
Q 2709 3584 3137 3096 
Q 3566 2609 3566 1747 
Q 3566 888 3137 398 
Q 2709 -91 1959 -91 
Q 1206 -91 779 398 
Q 353 888 353 1747 
Q 353 2609 779 3096 
Q 1206 3584 1959 3584 
z
" transform="scale(0.015625)"/>
      </defs>
      <use xlink:href="#DejaVuSans-4f"/>
      <use xlink:href="#DejaVuSans-6e" x="78.710938"/>
      <use xlink:href="#DejaVuSans-65" x="142.089844"/>
      <use xlink:href="#DejaVuSans-20" x="203.613281"/>
      <use xlink:href="#DejaVuSans-53" x="235.400391"/>
      <use xlink:href="#DejaVuSans-74" x="298.876953"/>
      <use xlink:href="#DejaVuSans-61" x="338.085938"/>
      <use xlink:href="#DejaVuSans-6e" x="399.365234"/>
      <use xlink:href="#DejaVuSans-64" x="462.744141"/>
      <use xlink:href="#DejaVuSans-61" x="526.220703"/>
      <use xlink:href="#DejaVuSans-72" x="587.5"/>
      <use xlink:href="#DejaVuSans-64" x="626.863281"/>
      <use xlink:href="#DejaVuSans-20" x="690.339844"/>
      <use xlink:href="#DejaVuSans-44" x="722.126953"/>
      <use xlink:href="#DejaVuSans-65" x="799.128906"/>
      <use xlink:href="#DejaVuSans-76" x="860.652344"/>
      <use xlink:href="#DejaVuSans-69" x="919.832031"/>
      <use xlink:href="#DejaVuSans-61" x="947.615234"/>
      <use xlink:href="#DejaVuSans-74" x="1008.894531"/>
      <use xlink:href="#DejaVuSans-69" x="1048.103516"/>
      <use xlink:href="#DejaVuSans-6f" x="1075.886719"/>
      <use xlink:href="#DejaVuSans-6e" x="1137.068359"/>
     </g>
    </g>
   </g>
  </g>
 </g>
 <defs>
  <clipPath id="p2e50a9f7ef">
   <rect x="51.241875" y="2.647098" width="390.6" height="166.32"/>
  </clipPath>
 </defs>
</svg>
