<?xml version="1.0" encoding="utf-8" standalone="no"?>
<!DOCTYPE svg PUBLIC "-//W3C//DTD SVG 1.1//EN"
  "http://www.w3.org/Graphics/SVG/1.1/DTD/svg11.dtd">
<svg xmlns:xlink="http://www.w3.org/1999/xlink" width="450.737567pt" height="198.611875pt" viewBox="0 0 450.737567 198.611875" xmlns="http://www.w3.org/2000/svg" version="1.1">
 <metadata>
  <rdf:RDF xmlns:dc="http://purl.org/dc/elements/1.1/" xmlns:cc="http://creativecommons.org/ns#" xmlns:rdf="http://www.w3.org/1999/02/22-rdf-syntax-ns#">
   <cc:Work>
    <dc:type rdf:resource="http://purl.org/dc/dcmitype/StillImage"/>
    <dc:date>2024-09-18T15:47:51.599008</dc:date>
    <dc:format>image/svg+xml</dc:format>
    <dc:creator>
     <cc:Agent>
      <dc:title>Matplotlib v3.7.5, https://matplotlib.org/</dc:title>
     </cc:Agent>
    </dc:creator>
   </cc:Work>
  </rdf:RDF>
 </metadata>
 <defs>
  <style type="text/css">*{stroke-linejoin: round; stroke-linecap: butt}</style>
 </defs>
 <g id="figure_1">
  <g id="patch_1">
   <path d="M 0 198.611875 
L 450.737567 198.611875 
L 450.737567 0 
L 0 0 
z
" style="fill: #ffffff"/>
  </g>
  <g id="axes_1">
   <g id="patch_2">
    <path d="M 51.241875 166.32 
L 441.841875 166.32 
L 441.841875 -0 
L 51.241875 -0 
z
" style="fill: #e5e5e5"/>
   </g>
   <g id="matplotlib.axis_1">
    <g id="xtick_1">
     <g id="line2d_1">
      <path d="M 78.78239 166.32 
L 78.78239 -0 
" clip-path="url(#p593c186afe)" style="fill: none; stroke: #ffffff; stroke-width: 0.8; stroke-linecap: square"/>
     </g>
     <g id="line2d_2">
      <defs>
       <path id="m0ad98d73fc" d="M 0 0 
L 0 3.5 
" style="stroke: #555555; stroke-width: 0.8"/>
      </defs>
      <g>
       <use xlink:href="#m0ad98d73fc" x="78.78239" y="166.32" style="fill: #555555; stroke: #555555; stroke-width: 0.8"/>
      </g>
     </g>
     <g id="text_1">
      <!-- 08/16/20 -->
      <g style="fill: #555555" transform="translate(56.32614 180.918437) scale(0.1 -0.1)">
       <defs>
        <path id="DejaVuSans-30" d="M 2034 4250 
Q 1547 4250 1301 3770 
Q 1056 3291 1056 2328 
Q 1056 1369 1301 889 
Q 1547 409 2034 409 
Q 2525 409 2770 889 
Q 3016 1369 3016 2328 
Q 3016 3291 2770 3770 
Q 2525 4250 2034 4250 
z
M 2034 4750 
Q 2819 4750 3233 4129 
Q 3647 3509 3647 2328 
Q 3647 1150 3233 529 
Q 2819 -91 2034 -91 
Q 1250 -91 836 529 
Q 422 1150 422 2328 
Q 422 3509 836 4129 
Q 1250 4750 2034 4750 
z
" transform="scale(0.015625)"/>
        <path id="DejaVuSans-38" d="M 2034 2216 
Q 1584 2216 1326 1975 
Q 1069 1734 1069 1313 
Q 1069 891 1326 650 
Q 1584 409 2034 409 
Q 2484 409 2743 651 
Q 3003 894 3003 1313 
Q 3003 1734 2745 1975 
Q 2488 2216 2034 2216 
z
M 1403 2484 
Q 997 2584 770 2862 
Q 544 3141 544 3541 
Q 544 4100 942 4425 
Q 1341 4750 2034 4750 
Q 2731 4750 3128 4425 
Q 3525 4100 3525 3541 
Q 3525 3141 3298 2862 
Q 3072 2584 2669 2484 
Q 3125 2378 3379 2068 
Q 3634 1759 3634 1313 
Q 3634 634 3220 271 
Q 2806 -91 2034 -91 
Q 1263 -91 848 271 
Q 434 634 434 1313 
Q 434 1759 690 2068 
Q 947 2378 1403 2484 
z
M 1172 3481 
Q 1172 3119 1398 2916 
Q 1625 2713 2034 2713 
Q 2441 2713 2670 2916 
Q 2900 3119 2900 3481 
Q 2900 3844 2670 4047 
Q 2441 4250 2034 4250 
Q 1625 4250 1398 4047 
Q 1172 3844 1172 3481 
z
" transform="scale(0.015625)"/>
        <path id="DejaVuSans-2f" d="M 1625 4666 
L 2156 4666 
L 531 -594 
L 0 -594 
L 1625 4666 
z
" transform="scale(0.015625)"/>
        <path id="DejaVuSans-31" d="M 794 531 
L 1825 531 
L 1825 4091 
L 703 3866 
L 703 4441 
L 1819 4666 
L 2450 4666 
L 2450 531 
L 3481 531 
L 3481 0 
L 794 0 
L 794 531 
z
" transform="scale(0.015625)"/>
        <path id="DejaVuSans-36" d="M 2113 2584 
Q 1688 2584 1439 2293 
Q 1191 2003 1191 1497 
Q 1191 994 1439 701 
Q 1688 409 2113 409 
Q 2538 409 2786 701 
Q 3034 994 3034 1497 
Q 3034 2003 2786 2293 
Q 2538 2584 2113 2584 
z
M 3366 4563 
L 3366 3988 
Q 3128 4100 2886 4159 
Q 2644 4219 2406 4219 
Q 1781 4219 1451 3797 
Q 1122 3375 1075 2522 
Q 1259 2794 1537 2939 
Q 1816 3084 2150 3084 
Q 2853 3084 3261 2657 
Q 3669 2231 3669 1497 
Q 3669 778 3244 343 
Q 2819 -91 2113 -91 
Q 1303 -91 875 529 
Q 447 1150 447 2328 
Q 447 3434 972 4092 
Q 1497 4750 2381 4750 
Q 2619 4750 2861 4703 
Q 3103 4656 3366 4563 
z
" transform="scale(0.015625)"/>
        <path id="DejaVuSans-32" d="M 1228 531 
L 3431 531 
L 3431 0 
L 469 0 
L 469 531 
Q 828 903 1448 1529 
Q 2069 2156 2228 2338 
Q 2531 2678 2651 2914 
Q 2772 3150 2772 3378 
Q 2772 3750 2511 3984 
Q 2250 4219 1831 4219 
Q 1534 4219 1204 4116 
Q 875 4013 500 3803 
L 500 4441 
Q 881 4594 1212 4672 
Q 1544 4750 1819 4750 
Q 2544 4750 2975 4387 
Q 3406 4025 3406 3419 
Q 3406 3131 3298 2873 
Q 3191 2616 2906 2266 
Q 2828 2175 2409 1742 
Q 1991 1309 1228 531 
z
" transform="scale(0.015625)"/>
       </defs>
       <use xlink:href="#DejaVuSans-30"/>
       <use xlink:href="#DejaVuSans-38" x="63.623047"/>
       <use xlink:href="#DejaVuSans-2f" x="127.246094"/>
       <use xlink:href="#DejaVuSans-31" x="160.9375"/>
       <use xlink:href="#DejaVuSans-36" x="224.560547"/>
       <use xlink:href="#DejaVuSans-2f" x="288.183594"/>
       <use xlink:href="#DejaVuSans-32" x="321.875"/>
       <use xlink:href="#DejaVuSans-30" x="385.498047"/>
      </g>
     </g>
    </g>
    <g id="xtick_2">
     <g id="line2d_3">
      <path d="M 148.682176 166.32 
L 148.682176 -0 
" clip-path="url(#p593c186afe)" style="fill: none; stroke: #ffffff; stroke-width: 0.8; stroke-linecap: square"/>
     </g>
     <g id="line2d_4">
      <g>
       <use xlink:href="#m0ad98d73fc" x="148.682176" y="166.32" style="fill: #555555; stroke: #555555; stroke-width: 0.8"/>
      </g>
     </g>
     <g id="text_2">
      <!-- 10/05/20 -->
      <g style="fill: #555555" transform="translate(126.225926 180.918437) scale(0.1 -0.1)">
       <defs>
        <path id="DejaVuSans-35" d="M 691 4666 
L 3169 4666 
L 3169 4134 
L 1269 4134 
L 1269 2991 
Q 1406 3038 1543 3061 
Q 1681 3084 1819 3084 
Q 2600 3084 3056 2656 
Q 3513 2228 3513 1497 
Q 3513 744 3044 326 
Q 2575 -91 1722 -91 
Q 1428 -91 1123 -41 
Q 819 9 494 109 
L 494 744 
Q 775 591 1075 516 
Q 1375 441 1709 441 
Q 2250 441 2565 725 
Q 2881 1009 2881 1497 
Q 2881 1984 2565 2268 
Q 2250 2553 1709 2553 
Q 1456 2553 1204 2497 
Q 953 2441 691 2322 
L 691 4666 
z
" transform="scale(0.015625)"/>
       </defs>
       <use xlink:href="#DejaVuSans-31"/>
       <use xlink:href="#DejaVuSans-30" x="63.623047"/>
       <use xlink:href="#DejaVuSans-2f" x="127.246094"/>
       <use xlink:href="#DejaVuSans-30" x="160.9375"/>
       <use xlink:href="#DejaVuSans-35" x="224.560547"/>
       <use xlink:href="#DejaVuSans-2f" x="288.183594"/>
       <use xlink:href="#DejaVuSans-32" x="321.875"/>
       <use xlink:href="#DejaVuSans-30" x="385.498047"/>
      </g>
     </g>
    </g>
    <g id="xtick_3">
     <g id="line2d_5">
      <path d="M 218.581961 166.32 
L 218.581961 -0 
" clip-path="url(#p593c186afe)" style="fill: none; stroke: #ffffff; stroke-width: 0.8; stroke-linecap: square"/>
     </g>
     <g id="line2d_6">
      <g>
       <use xlink:href="#m0ad98d73fc" x="218.581961" y="166.32" style="fill: #555555; stroke: #555555; stroke-width: 0.8"/>
      </g>
     </g>
     <g id="text_3">
      <!-- 11/24/20 -->
      <g style="fill: #555555" transform="translate(196.125711 180.918437) scale(0.1 -0.1)">
       <defs>
        <path id="DejaVuSans-34" d="M 2419 4116 
L 825 1625 
L 2419 1625 
L 2419 4116 
z
M 2253 4666 
L 3047 4666 
L 3047 1625 
L 3713 1625 
L 3713 1100 
L 3047 1100 
L 3047 0 
L 2419 0 
L 2419 1100 
L 313 1100 
L 313 1709 
L 2253 4666 
z
" transform="scale(0.015625)"/>
       </defs>
       <use xlink:href="#DejaVuSans-31"/>
       <use xlink:href="#DejaVuSans-31" x="63.623047"/>
       <use xlink:href="#DejaVuSans-2f" x="127.246094"/>
       <use xlink:href="#DejaVuSans-32" x="160.9375"/>
       <use xlink:href="#DejaVuSans-34" x="224.560547"/>
       <use xlink:href="#DejaVuSans-2f" x="288.183594"/>
       <use xlink:href="#DejaVuSans-32" x="321.875"/>
       <use xlink:href="#DejaVuSans-30" x="385.498047"/>
      </g>
     </g>
    </g>
    <g id="xtick_4">
     <g id="line2d_7">
      <path d="M 288.481746 166.32 
L 288.481746 -0 
" clip-path="url(#p593c186afe)" style="fill: none; stroke: #ffffff; stroke-width: 0.8; stroke-linecap: square"/>
     </g>
     <g id="line2d_8">
      <g>
       <use xlink:href="#m0ad98d73fc" x="288.481746" y="166.32" style="fill: #555555; stroke: #555555; stroke-width: 0.8"/>
      </g>
     </g>
     <g id="text_4">
      <!-- 01/13/21 -->
      <g style="fill: #555555" transform="translate(266.025496 180.918437) scale(0.1 -0.1)">
       <defs>
        <path id="DejaVuSans-33" d="M 2597 2516 
Q 3050 2419 3304 2112 
Q 3559 1806 3559 1356 
Q 3559 666 3084 287 
Q 2609 -91 1734 -91 
Q 1441 -91 1130 -33 
Q 819 25 488 141 
L 488 750 
Q 750 597 1062 519 
Q 1375 441 1716 441 
Q 2309 441 2620 675 
Q 2931 909 2931 1356 
Q 2931 1769 2642 2001 
Q 2353 2234 1838 2234 
L 1294 2234 
L 1294 2753 
L 1863 2753 
Q 2328 2753 2575 2939 
Q 2822 3125 2822 3475 
Q 2822 3834 2567 4026 
Q 2313 4219 1838 4219 
Q 1578 4219 1281 4162 
Q 984 4106 628 3988 
L 628 4550 
Q 988 4650 1302 4700 
Q 1616 4750 1894 4750 
Q 2613 4750 3031 4423 
Q 3450 4097 3450 3541 
Q 3450 3153 3228 2886 
Q 3006 2619 2597 2516 
z
" transform="scale(0.015625)"/>
       </defs>
       <use xlink:href="#DejaVuSans-30"/>
       <use xlink:href="#DejaVuSans-31" x="63.623047"/>
       <use xlink:href="#DejaVuSans-2f" x="127.246094"/>
       <use xlink:href="#DejaVuSans-31" x="160.9375"/>
       <use xlink:href="#DejaVuSans-33" x="224.560547"/>
       <use xlink:href="#DejaVuSans-2f" x="288.183594"/>
       <use xlink:href="#DejaVuSans-32" x="321.875"/>
       <use xlink:href="#DejaVuSans-31" x="385.498047"/>
      </g>
     </g>
    </g>
    <g id="xtick_5">
     <g id="line2d_9">
      <path d="M 358.381531 166.32 
L 358.381531 -0 
" clip-path="url(#p593c186afe)" style="fill: none; stroke: #ffffff; stroke-width: 0.8; stroke-linecap: square"/>
     </g>
     <g id="line2d_10">
      <g>
       <use xlink:href="#m0ad98d73fc" x="358.381531" y="166.32" style="fill: #555555; stroke: #555555; stroke-width: 0.8"/>
      </g>
     </g>
     <g id="text_5">
      <!-- 03/04/21 -->
      <g style="fill: #555555" transform="translate(335.925281 180.918437) scale(0.1 -0.1)">
       <use xlink:href="#DejaVuSans-30"/>
       <use xlink:href="#DejaVuSans-33" x="63.623047"/>
       <use xlink:href="#DejaVuSans-2f" x="127.246094"/>
       <use xlink:href="#DejaVuSans-30" x="160.9375"/>
       <use xlink:href="#DejaVuSans-34" x="224.560547"/>
       <use xlink:href="#DejaVuSans-2f" x="288.183594"/>
       <use xlink:href="#DejaVuSans-32" x="321.875"/>
       <use xlink:href="#DejaVuSans-31" x="385.498047"/>
      </g>
     </g>
    </g>
    <g id="xtick_6">
     <g id="line2d_11">
      <path d="M 428.281317 166.32 
L 428.281317 -0 
" clip-path="url(#p593c186afe)" style="fill: none; stroke: #ffffff; stroke-width: 0.8; stroke-linecap: square"/>
     </g>
     <g id="line2d_12">
      <g>
       <use xlink:href="#m0ad98d73fc" x="428.281317" y="166.32" style="fill: #555555; stroke: #555555; stroke-width: 0.8"/>
      </g>
     </g>
     <g id="text_6">
      <!-- 04/23/21 -->
      <g style="fill: #555555" transform="translate(405.825067 180.918437) scale(0.1 -0.1)">
       <use xlink:href="#DejaVuSans-30"/>
       <use xlink:href="#DejaVuSans-34" x="63.623047"/>
       <use xlink:href="#DejaVuSans-2f" x="127.246094"/>
       <use xlink:href="#DejaVuSans-32" x="160.9375"/>
       <use xlink:href="#DejaVuSans-33" x="224.560547"/>
       <use xlink:href="#DejaVuSans-2f" x="288.183594"/>
       <use xlink:href="#DejaVuSans-32" x="321.875"/>
       <use xlink:href="#DejaVuSans-31" x="385.498047"/>
      </g>
     </g>
    </g>
    <g id="text_7">
     <!-- Date -->
     <g style="fill: #555555" transform="translate(232.200938 196.11625) scale(0.12 -0.12)">
      <defs>
       <path id="DejaVuSans-44" d="M 1259 4147 
L 1259 519 
L 2022 519 
Q 2988 519 3436 956 
Q 3884 1394 3884 2338 
Q 3884 3275 3436 3711 
Q 2988 4147 2022 4147 
L 1259 4147 
z
M 628 4666 
L 1925 4666 
Q 3281 4666 3915 4102 
Q 4550 3538 4550 2338 
Q 4550 1131 3912 565 
Q 3275 0 1925 0 
L 628 0 
L 628 4666 
z
" transform="scale(0.015625)"/>
       <path id="DejaVuSans-61" d="M 2194 1759 
Q 1497 1759 1228 1600 
Q 959 1441 959 1056 
Q 959 750 1161 570 
Q 1363 391 1709 391 
Q 2188 391 2477 730 
Q 2766 1069 2766 1631 
L 2766 1759 
L 2194 1759 
z
M 3341 1997 
L 3341 0 
L 2766 0 
L 2766 531 
Q 2569 213 2275 61 
Q 1981 -91 1556 -91 
Q 1019 -91 701 211 
Q 384 513 384 1019 
Q 384 1609 779 1909 
Q 1175 2209 1959 2209 
L 2766 2209 
L 2766 2266 
Q 2766 2663 2505 2880 
Q 2244 3097 1772 3097 
Q 1472 3097 1187 3025 
Q 903 2953 641 2809 
L 641 3341 
Q 956 3463 1253 3523 
Q 1550 3584 1831 3584 
Q 2591 3584 2966 3190 
Q 3341 2797 3341 1997 
z
" transform="scale(0.015625)"/>
       <path id="DejaVuSans-74" d="M 1172 4494 
L 1172 3500 
L 2356 3500 
L 2356 3053 
L 1172 3053 
L 1172 1153 
Q 1172 725 1289 603 
Q 1406 481 1766 481 
L 2356 481 
L 2356 0 
L 1766 0 
Q 1100 0 847 248 
Q 594 497 594 1153 
L 594 3053 
L 172 3053 
L 172 3500 
L 594 3500 
L 594 4494 
L 1172 4494 
z
" transform="scale(0.015625)"/>
       <path id="DejaVuSans-65" d="M 3597 1894 
L 3597 1613 
L 953 1613 
Q 991 1019 1311 708 
Q 1631 397 2203 397 
Q 2534 397 2845 478 
Q 3156 559 3463 722 
L 3463 178 
Q 3153 47 2828 -22 
Q 2503 -91 2169 -91 
Q 1331 -91 842 396 
Q 353 884 353 1716 
Q 353 2575 817 3079 
Q 1281 3584 2069 3584 
Q 2775 3584 3186 3129 
Q 3597 2675 3597 1894 
z
M 3022 2063 
Q 3016 2534 2758 2815 
Q 2500 3097 2075 3097 
Q 1594 3097 1305 2825 
Q 1016 2553 972 2059 
L 3022 2063 
z
" transform="scale(0.015625)"/>
      </defs>
      <use xlink:href="#DejaVuSans-44"/>
      <use xlink:href="#DejaVuSans-61" x="77.001953"/>
      <use xlink:href="#DejaVuSans-74" x="138.28125"/>
      <use xlink:href="#DejaVuSans-65" x="177.490234"/>
     </g>
    </g>
   </g>
   <g id="matplotlib.axis_2">
    <g id="ytick_1">
     <g id="line2d_13">
      <path d="M 51.241875 161.246993 
L 441.841875 161.246993 
" clip-path="url(#p593c186afe)" style="fill: none; stroke: #ffffff; stroke-width: 0.8; stroke-linecap: square"/>
     </g>
     <g id="line2d_14">
      <defs>
       <path id="m7791b20f93" d="M 0 0 
L -3.5 0 
" style="stroke: #555555; stroke-width: 0.8"/>
      </defs>
      <g>
       <use xlink:href="#m7791b20f93" x="51.241875" y="161.246993" style="fill: #555555; stroke: #555555; stroke-width: 0.8"/>
      </g>
     </g>
     <g id="text_8">
      <!-- 0.000 -->
      <g style="fill: #555555" transform="translate(15.61375 165.046212) scale(0.1 -0.1)">
       <defs>
        <path id="DejaVuSans-2e" d="M 684 794 
L 1344 794 
L 1344 0 
L 684 0 
L 684 794 
z
" transform="scale(0.015625)"/>
       </defs>
       <use xlink:href="#DejaVuSans-30"/>
       <use xlink:href="#DejaVuSans-2e" x="63.623047"/>
       <use xlink:href="#DejaVuSans-30" x="95.410156"/>
       <use xlink:href="#DejaVuSans-30" x="159.033203"/>
       <use xlink:href="#DejaVuSans-30" x="222.65625"/>
      </g>
     </g>
    </g>
    <g id="ytick_2">
     <g id="line2d_15">
      <path d="M 51.241875 128.492399 
L 441.841875 128.492399 
" clip-path="url(#p593c186afe)" style="fill: none; stroke: #ffffff; stroke-width: 0.8; stroke-linecap: square"/>
     </g>
     <g id="line2d_16">
      <g>
       <use xlink:href="#m7791b20f93" x="51.241875" y="128.492399" style="fill: #555555; stroke: #555555; stroke-width: 0.8"/>
      </g>
     </g>
     <g id="text_9">
      <!-- 0.005 -->
      <g style="fill: #555555" transform="translate(15.61375 132.291617) scale(0.1 -0.1)">
       <use xlink:href="#DejaVuSans-30"/>
       <use xlink:href="#DejaVuSans-2e" x="63.623047"/>
       <use xlink:href="#DejaVuSans-30" x="95.410156"/>
       <use xlink:href="#DejaVuSans-30" x="159.033203"/>
       <use xlink:href="#DejaVuSans-35" x="222.65625"/>
      </g>
     </g>
    </g>
    <g id="ytick_3">
     <g id="line2d_17">
      <path d="M 51.241875 95.737804 
L 441.841875 95.737804 
" clip-path="url(#p593c186afe)" style="fill: none; stroke: #ffffff; stroke-width: 0.8; stroke-linecap: square"/>
     </g>
     <g id="line2d_18">
      <g>
       <use xlink:href="#m7791b20f93" x="51.241875" y="95.737804" style="fill: #555555; stroke: #555555; stroke-width: 0.8"/>
      </g>
     </g>
     <g id="text_10">
      <!-- 0.010 -->
      <g style="fill: #555555" transform="translate(15.61375 99.537023) scale(0.1 -0.1)">
       <use xlink:href="#DejaVuSans-30"/>
       <use xlink:href="#DejaVuSans-2e" x="63.623047"/>
       <use xlink:href="#DejaVuSans-30" x="95.410156"/>
       <use xlink:href="#DejaVuSans-31" x="159.033203"/>
       <use xlink:href="#DejaVuSans-30" x="222.65625"/>
      </g>
     </g>
    </g>
    <g id="ytick_4">
     <g id="line2d_19">
      <path d="M 51.241875 62.983209 
L 441.841875 62.983209 
" clip-path="url(#p593c186afe)" style="fill: none; stroke: #ffffff; stroke-width: 0.8; stroke-linecap: square"/>
     </g>
     <g id="line2d_20">
      <g>
       <use xlink:href="#m7791b20f93" x="51.241875" y="62.983209" style="fill: #555555; stroke: #555555; stroke-width: 0.8"/>
      </g>
     </g>
     <g id="text_11">
      <!-- 0.015 -->
      <g style="fill: #555555" transform="translate(15.61375 66.782428) scale(0.1 -0.1)">
       <use xlink:href="#DejaVuSans-30"/>
       <use xlink:href="#DejaVuSans-2e" x="63.623047"/>
       <use xlink:href="#DejaVuSans-30" x="95.410156"/>
       <use xlink:href="#DejaVuSans-31" x="159.033203"/>
       <use xlink:href="#DejaVuSans-35" x="222.65625"/>
      </g>
     </g>
    </g>
    <g id="ytick_5">
     <g id="line2d_21">
      <path d="M 51.241875 30.228615 
L 441.841875 30.228615 
" clip-path="url(#p593c186afe)" style="fill: none; stroke: #ffffff; stroke-width: 0.8; stroke-linecap: square"/>
     </g>
     <g id="line2d_22">
      <g>
       <use xlink:href="#m7791b20f93" x="51.241875" y="30.228615" style="fill: #555555; stroke: #555555; stroke-width: 0.8"/>
      </g>
     </g>
     <g id="text_12">
      <!-- 0.020 -->
      <g style="fill: #555555" transform="translate(15.61375 34.027833) scale(0.1 -0.1)">
       <use xlink:href="#DejaVuSans-30"/>
       <use xlink:href="#DejaVuSans-2e" x="63.623047"/>
       <use xlink:href="#DejaVuSans-30" x="95.410156"/>
       <use xlink:href="#DejaVuSans-32" x="159.033203"/>
       <use xlink:href="#DejaVuSans-30" x="222.65625"/>
      </g>
     </g>
    </g>
    <g id="text_13">
     <!-- Value -->
     <g style="fill: #555555" transform="translate(9.118125 99.6375) rotate(-90) scale(0.12 -0.12)">
      <defs>
       <path id="DejaVuSans-56" d="M 1831 0 
L 50 4666 
L 709 4666 
L 2188 738 
L 3669 4666 
L 4325 4666 
L 2547 0 
L 1831 0 
z
" transform="scale(0.015625)"/>
       <path id="DejaVuSans-6c" d="M 603 4863 
L 1178 4863 
L 1178 0 
L 603 0 
L 603 4863 
z
" transform="scale(0.015625)"/>
       <path id="DejaVuSans-75" d="M 544 1381 
L 544 3500 
L 1119 3500 
L 1119 1403 
Q 1119 906 1312 657 
Q 1506 409 1894 409 
Q 2359 409 2629 706 
Q 2900 1003 2900 1516 
L 2900 3500 
L 3475 3500 
L 3475 0 
L 2900 0 
L 2900 538 
Q 2691 219 2414 64 
Q 2138 -91 1772 -91 
Q 1169 -91 856 284 
Q 544 659 544 1381 
z
M 1991 3584 
L 1991 3584 
z
" transform="scale(0.015625)"/>
      </defs>
      <use xlink:href="#DejaVuSans-56"/>
      <use xlink:href="#DejaVuSans-61" x="60.658203"/>
      <use xlink:href="#DejaVuSans-6c" x="121.9375"/>
      <use xlink:href="#DejaVuSans-75" x="149.720703"/>
      <use xlink:href="#DejaVuSans-65" x="213.099609"/>
     </g>
    </g>
   </g>
   <g id="PolyCollection_1">
    <defs>
     <path id="mbb474ee120" d="M 68.99642 -60.326178 
L 68.99642 -73.618504 
L 70.394416 -75.552461 
L 71.792412 -69.822598 
L 73.190408 -75.58297 
L 74.588403 -76.806849 
L 75.986399 -75.730322 
L 77.384395 -76.658991 
L 78.78239 -75.781872 
L 80.180386 -80.0893 
L 81.578382 -81.689473 
L 82.976378 -86.167994 
L 84.374373 -84.867583 
L 85.772369 -79.955573 
L 87.170365 -79.582097 
L 88.56836 -77.122504 
L 89.966356 -74.484835 
L 91.364352 -74.236497 
L 92.762347 -71.582812 
L 94.160343 -72.506618 
L 95.558339 -72.861476 
L 96.956335 -48.11543 
L 98.35433 -49.759284 
L 99.752326 -48.31422 
L 101.150322 -49.672498 
L 102.548317 -44.251996 
L 103.946313 -44.184336 
L 105.344309 -43.746406 
L 106.742304 -44.180322 
L 108.1403 -46.843028 
L 109.538296 -46.656417 
L 110.936292 -46.591482 
L 112.334287 -46.063547 
L 113.732283 -63.52455 
L 115.130279 -63.43632 
L 116.528274 -62.765106 
L 117.92627 -60.305266 
L 119.324266 -61.570987 
L 120.722262 -60.557574 
L 122.120257 -57.96078 
L 123.518253 -60.001248 
L 124.916249 -60.375665 
L 126.314244 -59.198327 
L 127.71224 -59.200937 
L 129.110236 -60.260784 
L 130.508231 -59.13928 
L 131.906227 -71.05629 
L 133.304223 -61.412851 
L 134.702219 -66.209391 
L 136.100214 -65.376648 
L 137.49821 -68.823017 
L 138.896206 -70.011728 
L 140.294201 -69.816926 
L 141.692197 -70.674072 
L 143.090193 -72.421707 
L 144.488189 -68.942586 
L 145.886184 -72.403536 
L 147.28418 -102.325847 
L 148.682176 -102.181094 
L 150.080171 -103.288058 
L 151.478167 -75.805854 
L 152.876163 -75.536885 
L 154.274158 -76.451677 
L 155.672154 -76.62786 
L 157.07015 -75.053325 
L 158.468146 -75.050619 
L 159.866141 -74.474192 
L 161.264137 -73.029405 
L 162.662133 -73.933932 
L 164.060128 -75.729164 
L 165.458124 -109.524141 
L 166.85612 -109.85547 
L 168.254116 -78.842119 
L 169.652111 -76.806246 
L 171.050107 -90.307876 
L 172.448103 -105.997329 
L 173.846098 -104.534585 
L 175.244094 -87.661004 
L 176.64209 -105.714688 
L 178.040085 -107.573968 
L 179.438081 -107.568011 
L 180.836077 -105.620421 
L 182.234073 -109.277104 
L 183.632068 -108.089846 
L 185.030064 -104.521632 
L 186.42806 -103.529635 
L 187.826055 -104.674848 
L 189.224051 -104.260717 
L 190.622047 -89.848411 
L 192.020043 -87.904847 
L 193.418038 -88.2356 
L 194.816034 -86.748393 
L 196.21403 -88.140383 
L 197.612025 -78.710561 
L 199.010021 -79.475995 
L 200.408017 -90.768709 
L 201.806012 -79.170866 
L 203.204008 -93.884703 
L 204.602004 -113.865977 
L 206 -116.634907 
L 207.397995 -119.249509 
L 208.795991 -96.4355 
L 210.193987 -120.452191 
L 211.591982 -120.679814 
L 212.989978 -120.629225 
L 214.387974 -123.450867 
L 215.785969 -125.389195 
L 217.183965 -123.214592 
L 218.581961 -124.884477 
L 219.979957 -122.967491 
L 221.377952 -135.636738 
L 222.775948 -123.68346 
L 224.173944 -123.909574 
L 225.571939 -122.232083 
L 226.969935 -119.820504 
L 228.367931 -123.271719 
L 229.765927 -123.504634 
L 231.163922 -118.520917 
L 232.561918 -119.917432 
L 233.959914 -118.429325 
L 235.357909 -117.247781 
L 236.755905 -118.658569 
L 238.153901 -119.480776 
L 239.551896 -115.880129 
L 240.949892 -83.036281 
L 242.347888 -108.657735 
L 243.745884 -108.329873 
L 245.143879 -109.924156 
L 246.541875 -113.446173 
L 247.939871 -113.275964 
L 249.337866 -106.277449 
L 250.735862 -104.913788 
L 252.133858 -93.090584 
L 253.531854 -91.440734 
L 254.929849 -91.837881 
L 256.327845 -89.500384 
L 257.725841 -89.876794 
L 259.123836 -89.05415 
L 260.521832 -88.031575 
L 261.919828 -87.913252 
L 263.317823 -88.399001 
L 264.715819 -89.815182 
L 266.113815 -88.808038 
L 267.511811 -87.670014 
L 268.909806 -87.002787 
L 270.307802 -86.280063 
L 271.705798 -87.315246 
L 273.103793 -86.942967 
L 274.501789 -88.149177 
L 275.899785 -76.229647 
L 277.297781 -75.713015 
L 278.695776 -56.629222 
L 280.093772 -54.432806 
L 281.491768 -56.600109 
L 282.889763 -55.972125 
L 284.287759 -54.696084 
L 285.685755 -54.490337 
L 287.08375 -54.273686 
L 288.481746 -44.602991 
L 289.879742 -42.05615 
L 291.277738 -42.181175 
L 292.675733 -43.087078 
L 294.073729 -44.879023 
L 295.471725 -52.875432 
L 296.86972 -52.743952 
L 298.267716 -52.783634 
L 299.665712 -53.764992 
L 301.063707 -54.356111 
L 302.461703 -55.215037 
L 303.859699 -56.456546 
L 305.257695 -55.616486 
L 306.65569 -55.364303 
L 308.053686 -67.186129 
L 309.451682 -71.038999 
L 310.849677 -71.720709 
L 312.247673 -84.662647 
L 313.645669 -84.758989 
L 315.043665 -84.981192 
L 316.44166 -84.745199 
L 317.839656 -85.63353 
L 319.237652 -87.618888 
L 320.635647 -85.264086 
L 322.033643 -83.916658 
L 323.431639 -84.888403 
L 324.829634 -83.738272 
L 326.22763 -84.320402 
L 327.625626 -84.681858 
L 329.023622 -84.742383 
L 330.421617 -84.697762 
L 331.819613 -68.544295 
L 333.217609 -69.595114 
L 334.615604 -69.559364 
L 336.0136 -70.233365 
L 337.411596 -44.502595 
L 338.809592 -56.151299 
L 340.207587 -54.765347 
L 341.605583 -53.975375 
L 343.003579 -54.361686 
L 344.401574 -54.164403 
L 345.79957 -44.889859 
L 347.197566 -55.643348 
L 348.595561 -57.63994 
L 349.993557 -59.869459 
L 351.391553 -59.314818 
L 352.789549 -59.826623 
L 354.187544 -92.585878 
L 355.58554 -74.636608 
L 356.983536 -90.767053 
L 358.381531 -164.636242 
L 359.779527 -173.483457 
L 361.177523 -180.75098 
L 362.575519 -176.428574 
L 363.973514 -176.876461 
L 365.37151 -180.578664 
L 366.769506 -184.722181 
L 368.167501 -183.408586 
L 369.565497 -185.72361 
L 370.963493 -186.331892 
L 372.361488 -181.232823 
L 373.759484 -186.446977 
L 375.15748 -189.227002 
L 376.555476 -191.051875 
L 377.953471 -180.449991 
L 379.351467 -177.468466 
L 380.749463 -186.729559 
L 382.147458 -183.503683 
L 383.545454 -141.0616 
L 384.94345 -141.610001 
L 386.341446 -144.336542 
L 387.739441 -144.09212 
L 389.137437 -147.453125 
L 390.535433 -137.447677 
L 391.933428 -136.074307 
L 393.331424 -98.391235 
L 394.72942 -98.955974 
L 396.127415 -97.296565 
L 397.525411 -91.073035 
L 398.923407 -76.389408 
L 400.321403 -77.177365 
L 401.719398 -75.842254 
L 403.117394 -71.142712 
L 404.51539 -68.386489 
L 405.913385 -67.333328 
L 407.311381 -64.852474 
L 408.709377 -65.61761 
L 410.107372 -64.786947 
L 411.505368 -64.214439 
L 412.903364 -64.146037 
L 414.30136 -49.015058 
L 415.699355 -62.272028 
L 417.097351 -47.709117 
L 418.495347 -47.40405 
L 419.893342 -47.385808 
L 421.291338 -47.344606 
L 422.689334 -48.937256 
L 424.08733 -48.851374 
L 424.08733 -46.17049 
L 424.08733 -46.17049 
L 422.689334 -46.117336 
L 421.291338 -45.198108 
L 419.893342 -45.118823 
L 418.495347 -44.944183 
L 417.097351 -45.111654 
L 415.699355 -52.011544 
L 414.30136 -46.428958 
L 412.903364 -53.464722 
L 411.505368 -53.046316 
L 410.107372 -52.762147 
L 408.709377 -53.157015 
L 407.311381 -53.927711 
L 405.913385 -55.537556 
L 404.51539 -55.404652 
L 403.117394 -59.44511 
L 401.719398 -64.721956 
L 400.321403 -63.757225 
L 398.923407 -64.536514 
L 397.525411 -76.135498 
L 396.127415 -81.252913 
L 394.72942 -83.017353 
L 393.331424 -83.301287 
L 391.933428 -113.237104 
L 390.535433 -115.681122 
L 389.137437 -119.66002 
L 387.739441 -117.403601 
L 386.341446 -120.576097 
L 384.94345 -120.366614 
L 383.545454 -119.634109 
L 382.147458 -145.634767 
L 380.749463 -146.039047 
L 379.351467 -142.321322 
L 377.953471 -144.056929 
L 376.555476 -154.061799 
L 375.15748 -149.72939 
L 373.759484 -149.328694 
L 372.361488 -146.518251 
L 370.963493 -149.052573 
L 369.565497 -152.203629 
L 368.167501 -143.895887 
L 366.769506 -147.019824 
L 365.37151 -146.481468 
L 363.973514 -143.822023 
L 362.575519 -141.991318 
L 361.177523 -143.899814 
L 359.779527 -135.299778 
L 358.381531 -133.960811 
L 356.983536 -79.782954 
L 355.58554 -64.325356 
L 354.187544 -81.328194 
L 352.789549 -52.065005 
L 351.391553 -51.749222 
L 349.993557 -51.649562 
L 348.595561 -50.96138 
L 347.197566 -48.484372 
L 345.79957 -43.156622 
L 344.401574 -47.841827 
L 343.003579 -47.882044 
L 341.605583 -47.254774 
L 340.207587 -47.622022 
L 338.809592 -49.658695 
L 337.411596 -42.635975 
L 336.0136 -62.086115 
L 334.615604 -61.650312 
L 333.217609 -60.881155 
L 331.819613 -59.885815 
L 330.421617 -74.136855 
L 329.023622 -75.087524 
L 327.625626 -74.826271 
L 326.22763 -75.973859 
L 324.829634 -74.286702 
L 323.431639 -74.62973 
L 322.033643 -74.722698 
L 320.635647 -74.788876 
L 319.237652 -77.129205 
L 317.839656 -75.533473 
L 316.44166 -74.30219 
L 315.043665 -75.070337 
L 313.645669 -74.135155 
L 312.247673 -74.660464 
L 310.849677 -63.098342 
L 309.451682 -62.431952 
L 308.053686 -59.059842 
L 306.65569 -49.102182 
L 305.257695 -49.426413 
L 303.859699 -50.2334 
L 302.461703 -48.739222 
L 301.063707 -48.12906 
L 299.665712 -47.683646 
L 298.267716 -46.839323 
L 296.86972 -46.7209 
L 295.471725 -47.256833 
L 294.073729 -43.138322 
L 292.675733 -41.65998 
L 291.277738 -40.828406 
L 289.879742 -40.668008 
L 288.481746 -42.835428 
L 287.08375 -47.968181 
L 285.685755 -47.957123 
L 284.287759 -48.930548 
L 282.889763 -49.811599 
L 281.491768 -49.776958 
L 280.093772 -48.261317 
L 278.695776 -50.482434 
L 277.297781 -65.932017 
L 275.899785 -66.399054 
L 274.501789 -76.921679 
L 273.103793 -74.987995 
L 271.705798 -76.915371 
L 270.307802 -76.078524 
L 268.909806 -76.292402 
L 267.511811 -77.398027 
L 266.113815 -78.12701 
L 264.715819 -77.834472 
L 263.317823 -77.746649 
L 261.919828 -77.29655 
L 260.521832 -79.523039 
L 259.123836 -78.887434 
L 257.725841 -79.186274 
L 256.327845 -78.592878 
L 254.929849 -80.43257 
L 253.531854 -79.984176 
L 252.133858 -80.184678 
L 250.735862 -89.100258 
L 249.337866 -91.331582 
L 247.939871 -95.411488 
L 246.541875 -97.048254 
L 245.143879 -92.585433 
L 243.745884 -93.264591 
L 242.347888 -92.676341 
L 240.949892 -70.813598 
L 239.551896 -96.55362 
L 238.153901 -101.183728 
L 236.755905 -102.37195 
L 235.357909 -99.682097 
L 233.959914 -100.571908 
L 232.561918 -100.610543 
L 231.163922 -100.494358 
L 229.765927 -105.13196 
L 228.367931 -105.439382 
L 226.969935 -101.973434 
L 225.571939 -104.753119 
L 224.173944 -104.355117 
L 222.775948 -105.271322 
L 221.377952 -116.399082 
L 219.979957 -103.633021 
L 218.581961 -102.852764 
L 217.183965 -104.420046 
L 215.785969 -108.278068 
L 214.387974 -105.162261 
L 212.989978 -100.017229 
L 211.591982 -102.365868 
L 210.193987 -102.201438 
L 208.795991 -80.857175 
L 207.397995 -101.097625 
L 206 -98.412422 
L 204.602004 -96.819706 
L 203.204008 -76.257581 
L 201.806012 -67.92722 
L 200.408017 -76.292001 
L 199.010021 -68.869714 
L 197.612025 -68.031712 
L 196.21403 -73.419406 
L 194.816034 -73.584465 
L 193.418038 -71.93389 
L 192.020043 -73.357466 
L 190.622047 -75.420414 
L 189.224051 -89.443763 
L 187.826055 -88.793922 
L 186.42806 -90.21018 
L 185.030064 -89.613634 
L 183.632068 -91.347447 
L 182.234073 -92.444875 
L 180.836077 -90.712999 
L 179.438081 -90.767597 
L 178.040085 -94.256819 
L 176.64209 -91.18517 
L 175.244094 -74.072978 
L 173.846098 -88.596476 
L 172.448103 -90.928004 
L 171.050107 -74.33323 
L 169.652111 -65.89798 
L 168.254116 -68.078064 
L 166.85612 -93.096747 
L 165.458124 -92.170022 
L 164.060128 -64.02784 
L 162.662133 -63.228587 
L 161.264137 -61.989682 
L 159.866141 -64.500641 
L 158.468146 -65.148338 
L 157.07015 -63.794041 
L 155.672154 -65.285529 
L 154.274158 -65.262084 
L 152.876163 -64.865383 
L 151.478167 -64.117272 
L 150.080171 -87.988085 
L 148.682176 -85.989181 
L 147.28418 -87.624228 
L 145.886184 -62.485962 
L 144.488189 -59.048866 
L 143.090193 -62.992499 
L 141.692197 -61.740421 
L 140.294201 -61.266281 
L 138.896206 -61.352353 
L 137.49821 -60.912168 
L 136.100214 -56.990777 
L 134.702219 -57.940912 
L 133.304223 -54.372208 
L 131.906227 -62.326258 
L 130.508231 -51.582121 
L 129.110236 -52.414497 
L 127.71224 -51.877398 
L 126.314244 -51.767634 
L 124.916249 -52.649677 
L 123.518253 -52.47755 
L 122.120257 -50.066689 
L 120.722262 -52.032899 
L 119.324266 -52.857114 
L 117.92627 -52.433372 
L 116.528274 -53.342524 
L 115.130279 -54.141327 
L 113.732283 -54.128386 
L 112.334287 -44.247574 
L 110.936292 -44.67201 
L 109.538296 -44.479186 
L 108.1403 -44.787386 
L 106.742304 -42.285674 
L 105.344309 -41.81485 
L 103.946313 -42.425323 
L 102.548317 -42.377693 
L 101.150322 -47.071145 
L 99.752326 -46.120498 
L 98.35433 -47.194074 
L 96.956335 -45.910574 
L 95.558339 -59.912429 
L 94.160343 -58.942747 
L 92.762347 -58.475114 
L 91.364352 -59.17804 
L 89.966356 -59.629929 
L 88.56836 -61.035531 
L 87.170365 -65.052356 
L 85.772369 -65.115851 
L 84.374373 -68.464614 
L 82.976378 -70.453547 
L 81.578382 -64.311544 
L 80.180386 -64.957506 
L 78.78239 -58.812109 
L 77.384395 -60.673876 
L 75.986399 -59.898354 
L 74.588403 -61.54347 
L 73.190408 -59.824178 
L 71.792412 -55.262146 
L 70.394416 -60.666677 
L 68.99642 -60.326178 
z
" style="stroke: #134a8e; stroke-opacity: 0.5; stroke-width: 0.5"/>
    </defs>
    <g clip-path="url(#p593c186afe)">
     <use xlink:href="#mbb474ee120" x="0" y="198.611875" style="fill: #134a8e; fill-opacity: 0.5; stroke: #134a8e; stroke-opacity: 0.5; stroke-width: 0.5"/>
    </g>
   </g>
   <g id="line2d_23">
    <path d="M 68.99642 131.639534 
L 70.394416 130.502306 
L 71.792412 136.069503 
L 73.190408 130.908301 
L 74.588403 129.436716 
L 75.986399 130.797537 
L 77.384395 129.945442 
L 78.78239 131.314885 
L 80.180386 126.088472 
L 81.578382 125.611367 
L 82.976378 120.301105 
L 84.374373 121.945776 
L 85.772369 126.076163 
L 87.170365 126.294649 
L 88.56836 129.532857 
L 89.966356 131.554493 
L 91.364352 131.904607 
L 92.762347 133.582912 
L 95.558339 132.224923 
L 96.956335 151.598873 
L 98.35433 150.135196 
L 99.752326 151.394516 
L 101.150322 150.240053 
L 102.548317 155.297031 
L 103.946313 155.307045 
L 105.344309 155.831247 
L 106.742304 155.378877 
L 108.1403 152.796668 
L 109.538296 153.044073 
L 110.936292 152.980129 
L 112.334287 153.456315 
L 113.732283 139.785407 
L 115.130279 139.823051 
L 116.528274 140.55806 
L 117.92627 142.242556 
L 119.324266 141.397824 
L 120.722262 142.316639 
L 122.120257 144.598141 
L 123.518253 142.372476 
L 124.916249 142.099204 
L 126.314244 143.128895 
L 127.71224 143.072708 
L 129.110236 142.274235 
L 130.508231 143.251174 
L 131.906227 131.920601 
L 133.304223 140.719345 
L 134.702219 136.536723 
L 136.100214 137.428162 
L 137.49821 133.744283 
L 138.896206 132.929835 
L 140.294201 133.070271 
L 141.692197 132.404629 
L 143.090193 130.904772 
L 144.488189 134.616149 
L 145.886184 131.167126 
L 147.28418 103.636837 
L 148.682176 104.526738 
L 150.080171 102.973803 
L 151.478167 128.650312 
L 152.876163 128.410741 
L 154.274158 127.754995 
L 155.672154 127.655181 
L 157.07015 129.188192 
L 158.468146 128.512396 
L 159.866141 129.124459 
L 161.264137 131.102332 
L 162.662133 130.030616 
L 164.060128 128.733373 
L 165.458124 97.764794 
L 166.85612 97.135766 
L 168.254116 125.151784 
L 169.652111 127.259762 
L 171.050107 116.291322 
L 172.448103 100.149208 
L 173.846098 102.046345 
L 175.244094 117.744884 
L 176.64209 100.161946 
L 178.040085 97.696482 
L 179.438081 99.444071 
L 180.836077 100.445165 
L 182.234073 97.750885 
L 183.632068 98.893228 
L 185.030064 101.544242 
L 187.826055 101.87749 
L 189.224051 101.759635 
L 190.622047 115.977462 
L 192.020043 117.980718 
L 193.418038 118.52713 
L 194.816034 118.445446 
L 196.21403 117.831981 
L 197.612025 125.240739 
L 199.010021 124.439021 
L 200.408017 115.08152 
L 201.806012 125.062832 
L 203.204008 113.540733 
L 204.602004 93.269034 
L 206 91.08821 
L 207.397995 88.438308 
L 208.795991 109.965538 
L 210.193987 87.285061 
L 211.591982 87.089034 
L 212.989978 88.288648 
L 214.387974 84.305311 
L 215.785969 81.778243 
L 217.183965 84.794556 
L 218.581961 84.743255 
L 219.979957 85.311619 
L 221.377952 72.593965 
L 222.775948 84.134484 
L 224.173944 84.47953 
L 225.571939 85.119274 
L 226.969935 87.714906 
L 228.367931 84.256324 
L 229.765927 84.293578 
L 231.163922 89.104237 
L 232.561918 88.347888 
L 233.959914 89.111258 
L 235.357909 90.146936 
L 236.755905 88.096615 
L 238.153901 88.279623 
L 239.551896 92.395001 
L 240.949892 121.686936 
L 242.347888 97.944837 
L 243.745884 97.814643 
L 245.143879 97.357081 
L 246.541875 93.364662 
L 247.939871 94.268149 
L 249.337866 99.80736 
L 250.735862 101.604852 
L 252.133858 111.974244 
L 253.531854 112.89942 
L 254.929849 112.47665 
L 256.327845 114.565244 
L 257.725841 114.080341 
L 259.123836 114.641083 
L 260.521832 114.834568 
L 261.919828 116.006974 
L 263.317823 115.53905 
L 264.715819 114.787048 
L 266.113815 115.144351 
L 268.909806 116.964281 
L 270.307802 117.432581 
L 271.705798 116.496566 
L 273.103793 117.646394 
L 274.501789 116.076447 
L 275.899785 127.297524 
L 277.297781 127.789359 
L 278.695776 145.056047 
L 280.093772 147.264814 
L 281.491768 145.423341 
L 282.889763 145.720013 
L 284.287759 146.798559 
L 285.685755 147.388145 
L 287.08375 147.490941 
L 288.481746 154.892665 
L 289.879742 157.249796 
L 291.277738 157.107085 
L 292.675733 156.238346 
L 294.073729 154.603203 
L 295.471725 148.545742 
L 296.86972 148.879449 
L 298.267716 148.800397 
L 299.665712 147.887556 
L 301.063707 147.36929 
L 302.461703 146.634746 
L 303.859699 145.266902 
L 305.257695 146.090426 
L 306.65569 146.378632 
L 308.053686 135.48889 
L 309.451682 131.8764 
L 310.849677 131.202349 
L 312.247673 118.95032 
L 313.645669 119.164803 
L 315.043665 118.586111 
L 316.44166 119.088181 
L 317.839656 118.028373 
L 319.237652 116.237828 
L 320.635647 118.585394 
L 322.033643 119.292197 
L 323.431639 118.852808 
L 324.829634 119.599388 
L 326.22763 118.464745 
L 327.625626 118.857811 
L 329.023622 118.696922 
L 330.421617 119.194566 
L 331.819613 134.39682 
L 333.217609 133.37374 
L 334.615604 133.007037 
L 336.0136 132.452135 
L 337.411596 155.04259 
L 338.809592 145.706878 
L 340.207587 147.418191 
L 341.605583 147.9968 
L 343.003579 147.49001 
L 344.401574 147.60876 
L 345.79957 154.588634 
L 347.197566 146.548015 
L 348.595561 144.311215 
L 349.993557 142.852365 
L 351.391553 143.079855 
L 352.789549 142.666061 
L 354.187544 111.654839 
L 355.58554 129.130893 
L 356.983536 113.336872 
L 358.381531 49.313348 
L 359.779527 44.220258 
L 361.177523 36.286478 
L 362.575519 39.401929 
L 363.973514 38.262633 
L 365.37151 35.081809 
L 366.769506 32.740872 
L 368.167501 34.959638 
L 369.565497 29.648256 
L 370.963493 30.919643 
L 372.361488 34.736338 
L 373.759484 30.72404 
L 375.15748 29.133679 
L 376.555476 26.055038 
L 377.953471 36.358415 
L 379.351467 38.716981 
L 380.749463 32.227572 
L 382.147458 34.04265 
L 383.545454 68.26402 
L 384.94345 67.623568 
L 386.341446 66.155556 
L 387.739441 67.864015 
L 389.137437 65.055302 
L 390.535433 72.047475 
L 391.933428 73.95617 
L 393.331424 107.765614 
L 394.72942 107.625212 
L 396.127415 109.337136 
L 397.525411 115.007608 
L 398.923407 128.148914 
L 400.321403 128.14458 
L 401.719398 128.32977 
L 403.117394 133.317964 
L 404.51539 136.716305 
L 405.913385 137.176433 
L 407.311381 139.221783 
L 408.709377 139.224563 
L 410.107372 139.837328 
L 411.505368 139.981497 
L 412.903364 139.806496 
L 414.30136 150.889867 
L 415.699355 141.470089 
L 417.097351 152.201489 
L 418.495347 152.437758 
L 421.291338 152.340518 
L 422.689334 151.084579 
L 424.08733 151.100943 
L 424.08733 151.100943 
" clip-path="url(#p593c186afe)" style="fill: none; stroke: #134a8e; stroke-width: 3; stroke-linecap: square"/>
    <defs>
     <path id="meeef128ae7" d="M 0 1.5 
C 0.397805 1.5 0.77937 1.341951 1.06066 1.06066 
C 1.341951 0.77937 1.5 0.397805 1.5 0 
C 1.5 -0.397805 1.341951 -0.77937 1.06066 -1.06066 
C 0.77937 -1.341951 0.397805 -1.5 0 -1.5 
C -0.397805 -1.5 -0.77937 -1.341951 -1.06066 -1.06066 
C -1.341951 -0.77937 -1.5 -0.397805 -1.5 0 
C -1.5 0.397805 -1.341951 0.77937 -1.06066 1.06066 
C -0.77937 1.341951 -0.397805 1.5 0 1.5 
z
" style="stroke: #134a8e"/>
    </defs>
    <g clip-path="url(#p593c186afe)">
     <use xlink:href="#meeef128ae7" x="68.99642" y="131.639534" style="fill: #134a8e; stroke: #134a8e"/>
     <use xlink:href="#meeef128ae7" x="70.394416" y="130.502306" style="fill: #134a8e; stroke: #134a8e"/>
     <use xlink:href="#meeef128ae7" x="71.792412" y="136.069503" style="fill: #134a8e; stroke: #134a8e"/>
     <use xlink:href="#meeef128ae7" x="73.190408" y="130.908301" style="fill: #134a8e; stroke: #134a8e"/>
     <use xlink:href="#meeef128ae7" x="74.588403" y="129.436716" style="fill: #134a8e; stroke: #134a8e"/>
     <use xlink:href="#meeef128ae7" x="75.986399" y="130.797537" style="fill: #134a8e; stroke: #134a8e"/>
     <use xlink:href="#meeef128ae7" x="77.384395" y="129.945442" style="fill: #134a8e; stroke: #134a8e"/>
     <use xlink:href="#meeef128ae7" x="78.78239" y="131.314885" style="fill: #134a8e; stroke: #134a8e"/>
     <use xlink:href="#meeef128ae7" x="80.180386" y="126.088472" style="fill: #134a8e; stroke: #134a8e"/>
     <use xlink:href="#meeef128ae7" x="81.578382" y="125.611367" style="fill: #134a8e; stroke: #134a8e"/>
     <use xlink:href="#meeef128ae7" x="82.976378" y="120.301105" style="fill: #134a8e; stroke: #134a8e"/>
     <use xlink:href="#meeef128ae7" x="84.374373" y="121.945776" style="fill: #134a8e; stroke: #134a8e"/>
     <use xlink:href="#meeef128ae7" x="85.772369" y="126.076163" style="fill: #134a8e; stroke: #134a8e"/>
     <use xlink:href="#meeef128ae7" x="87.170365" y="126.294649" style="fill: #134a8e; stroke: #134a8e"/>
     <use xlink:href="#meeef128ae7" x="88.56836" y="129.532857" style="fill: #134a8e; stroke: #134a8e"/>
     <use xlink:href="#meeef128ae7" x="89.966356" y="131.554493" style="fill: #134a8e; stroke: #134a8e"/>
     <use xlink:href="#meeef128ae7" x="91.364352" y="131.904607" style="fill: #134a8e; stroke: #134a8e"/>
     <use xlink:href="#meeef128ae7" x="92.762347" y="133.582912" style="fill: #134a8e; stroke: #134a8e"/>
     <use xlink:href="#meeef128ae7" x="94.160343" y="132.887192" style="fill: #134a8e; stroke: #134a8e"/>
     <use xlink:href="#meeef128ae7" x="95.558339" y="132.224923" style="fill: #134a8e; stroke: #134a8e"/>
     <use xlink:href="#meeef128ae7" x="96.956335" y="151.598873" style="fill: #134a8e; stroke: #134a8e"/>
     <use xlink:href="#meeef128ae7" x="98.35433" y="150.135196" style="fill: #134a8e; stroke: #134a8e"/>
     <use xlink:href="#meeef128ae7" x="99.752326" y="151.394516" style="fill: #134a8e; stroke: #134a8e"/>
     <use xlink:href="#meeef128ae7" x="101.150322" y="150.240053" style="fill: #134a8e; stroke: #134a8e"/>
     <use xlink:href="#meeef128ae7" x="102.548317" y="155.297031" style="fill: #134a8e; stroke: #134a8e"/>
     <use xlink:href="#meeef128ae7" x="103.946313" y="155.307045" style="fill: #134a8e; stroke: #134a8e"/>
     <use xlink:href="#meeef128ae7" x="105.344309" y="155.831247" style="fill: #134a8e; stroke: #134a8e"/>
     <use xlink:href="#meeef128ae7" x="106.742304" y="155.378877" style="fill: #134a8e; stroke: #134a8e"/>
     <use xlink:href="#meeef128ae7" x="108.1403" y="152.796668" style="fill: #134a8e; stroke: #134a8e"/>
     <use xlink:href="#meeef128ae7" x="109.538296" y="153.044073" style="fill: #134a8e; stroke: #134a8e"/>
     <use xlink:href="#meeef128ae7" x="110.936292" y="152.980129" style="fill: #134a8e; stroke: #134a8e"/>
     <use xlink:href="#meeef128ae7" x="112.334287" y="153.456315" style="fill: #134a8e; stroke: #134a8e"/>
     <use xlink:href="#meeef128ae7" x="113.732283" y="139.785407" style="fill: #134a8e; stroke: #134a8e"/>
     <use xlink:href="#meeef128ae7" x="115.130279" y="139.823051" style="fill: #134a8e; stroke: #134a8e"/>
     <use xlink:href="#meeef128ae7" x="116.528274" y="140.55806" style="fill: #134a8e; stroke: #134a8e"/>
     <use xlink:href="#meeef128ae7" x="117.92627" y="142.242556" style="fill: #134a8e; stroke: #134a8e"/>
     <use xlink:href="#meeef128ae7" x="119.324266" y="141.397824" style="fill: #134a8e; stroke: #134a8e"/>
     <use xlink:href="#meeef128ae7" x="120.722262" y="142.316639" style="fill: #134a8e; stroke: #134a8e"/>
     <use xlink:href="#meeef128ae7" x="122.120257" y="144.598141" style="fill: #134a8e; stroke: #134a8e"/>
     <use xlink:href="#meeef128ae7" x="123.518253" y="142.372476" style="fill: #134a8e; stroke: #134a8e"/>
     <use xlink:href="#meeef128ae7" x="124.916249" y="142.099204" style="fill: #134a8e; stroke: #134a8e"/>
     <use xlink:href="#meeef128ae7" x="126.314244" y="143.128895" style="fill: #134a8e; stroke: #134a8e"/>
     <use xlink:href="#meeef128ae7" x="127.71224" y="143.072708" style="fill: #134a8e; stroke: #134a8e"/>
     <use xlink:href="#meeef128ae7" x="129.110236" y="142.274235" style="fill: #134a8e; stroke: #134a8e"/>
     <use xlink:href="#meeef128ae7" x="130.508231" y="143.251174" style="fill: #134a8e; stroke: #134a8e"/>
     <use xlink:href="#meeef128ae7" x="131.906227" y="131.920601" style="fill: #134a8e; stroke: #134a8e"/>
     <use xlink:href="#meeef128ae7" x="133.304223" y="140.719345" style="fill: #134a8e; stroke: #134a8e"/>
     <use xlink:href="#meeef128ae7" x="134.702219" y="136.536723" style="fill: #134a8e; stroke: #134a8e"/>
     <use xlink:href="#meeef128ae7" x="136.100214" y="137.428162" style="fill: #134a8e; stroke: #134a8e"/>
     <use xlink:href="#meeef128ae7" x="137.49821" y="133.744283" style="fill: #134a8e; stroke: #134a8e"/>
     <use xlink:href="#meeef128ae7" x="138.896206" y="132.929835" style="fill: #134a8e; stroke: #134a8e"/>
     <use xlink:href="#meeef128ae7" x="140.294201" y="133.070271" style="fill: #134a8e; stroke: #134a8e"/>
     <use xlink:href="#meeef128ae7" x="141.692197" y="132.404629" style="fill: #134a8e; stroke: #134a8e"/>
     <use xlink:href="#meeef128ae7" x="143.090193" y="130.904772" style="fill: #134a8e; stroke: #134a8e"/>
     <use xlink:href="#meeef128ae7" x="144.488189" y="134.616149" style="fill: #134a8e; stroke: #134a8e"/>
     <use xlink:href="#meeef128ae7" x="145.886184" y="131.167126" style="fill: #134a8e; stroke: #134a8e"/>
     <use xlink:href="#meeef128ae7" x="147.28418" y="103.636837" style="fill: #134a8e; stroke: #134a8e"/>
     <use xlink:href="#meeef128ae7" x="148.682176" y="104.526738" style="fill: #134a8e; stroke: #134a8e"/>
     <use xlink:href="#meeef128ae7" x="150.080171" y="102.973803" style="fill: #134a8e; stroke: #134a8e"/>
     <use xlink:href="#meeef128ae7" x="151.478167" y="128.650312" style="fill: #134a8e; stroke: #134a8e"/>
     <use xlink:href="#meeef128ae7" x="152.876163" y="128.410741" style="fill: #134a8e; stroke: #134a8e"/>
     <use xlink:href="#meeef128ae7" x="154.274158" y="127.754995" style="fill: #134a8e; stroke: #134a8e"/>
     <use xlink:href="#meeef128ae7" x="155.672154" y="127.655181" style="fill: #134a8e; stroke: #134a8e"/>
     <use xlink:href="#meeef128ae7" x="157.07015" y="129.188192" style="fill: #134a8e; stroke: #134a8e"/>
     <use xlink:href="#meeef128ae7" x="158.468146" y="128.512396" style="fill: #134a8e; stroke: #134a8e"/>
     <use xlink:href="#meeef128ae7" x="159.866141" y="129.124459" style="fill: #134a8e; stroke: #134a8e"/>
     <use xlink:href="#meeef128ae7" x="161.264137" y="131.102332" style="fill: #134a8e; stroke: #134a8e"/>
     <use xlink:href="#meeef128ae7" x="162.662133" y="130.030616" style="fill: #134a8e; stroke: #134a8e"/>
     <use xlink:href="#meeef128ae7" x="164.060128" y="128.733373" style="fill: #134a8e; stroke: #134a8e"/>
     <use xlink:href="#meeef128ae7" x="165.458124" y="97.764794" style="fill: #134a8e; stroke: #134a8e"/>
     <use xlink:href="#meeef128ae7" x="166.85612" y="97.135766" style="fill: #134a8e; stroke: #134a8e"/>
     <use xlink:href="#meeef128ae7" x="168.254116" y="125.151784" style="fill: #134a8e; stroke: #134a8e"/>
     <use xlink:href="#meeef128ae7" x="169.652111" y="127.259762" style="fill: #134a8e; stroke: #134a8e"/>
     <use xlink:href="#meeef128ae7" x="171.050107" y="116.291322" style="fill: #134a8e; stroke: #134a8e"/>
     <use xlink:href="#meeef128ae7" x="172.448103" y="100.149208" style="fill: #134a8e; stroke: #134a8e"/>
     <use xlink:href="#meeef128ae7" x="173.846098" y="102.046345" style="fill: #134a8e; stroke: #134a8e"/>
     <use xlink:href="#meeef128ae7" x="175.244094" y="117.744884" style="fill: #134a8e; stroke: #134a8e"/>
     <use xlink:href="#meeef128ae7" x="176.64209" y="100.161946" style="fill: #134a8e; stroke: #134a8e"/>
     <use xlink:href="#meeef128ae7" x="178.040085" y="97.696482" style="fill: #134a8e; stroke: #134a8e"/>
     <use xlink:href="#meeef128ae7" x="179.438081" y="99.444071" style="fill: #134a8e; stroke: #134a8e"/>
     <use xlink:href="#meeef128ae7" x="180.836077" y="100.445165" style="fill: #134a8e; stroke: #134a8e"/>
     <use xlink:href="#meeef128ae7" x="182.234073" y="97.750885" style="fill: #134a8e; stroke: #134a8e"/>
     <use xlink:href="#meeef128ae7" x="183.632068" y="98.893228" style="fill: #134a8e; stroke: #134a8e"/>
     <use xlink:href="#meeef128ae7" x="185.030064" y="101.544242" style="fill: #134a8e; stroke: #134a8e"/>
     <use xlink:href="#meeef128ae7" x="186.42806" y="101.741967" style="fill: #134a8e; stroke: #134a8e"/>
     <use xlink:href="#meeef128ae7" x="187.826055" y="101.87749" style="fill: #134a8e; stroke: #134a8e"/>
     <use xlink:href="#meeef128ae7" x="189.224051" y="101.759635" style="fill: #134a8e; stroke: #134a8e"/>
     <use xlink:href="#meeef128ae7" x="190.622047" y="115.977462" style="fill: #134a8e; stroke: #134a8e"/>
     <use xlink:href="#meeef128ae7" x="192.020043" y="117.980718" style="fill: #134a8e; stroke: #134a8e"/>
     <use xlink:href="#meeef128ae7" x="193.418038" y="118.52713" style="fill: #134a8e; stroke: #134a8e"/>
     <use xlink:href="#meeef128ae7" x="194.816034" y="118.445446" style="fill: #134a8e; stroke: #134a8e"/>
     <use xlink:href="#meeef128ae7" x="196.21403" y="117.831981" style="fill: #134a8e; stroke: #134a8e"/>
     <use xlink:href="#meeef128ae7" x="197.612025" y="125.240739" style="fill: #134a8e; stroke: #134a8e"/>
     <use xlink:href="#meeef128ae7" x="199.010021" y="124.439021" style="fill: #134a8e; stroke: #134a8e"/>
     <use xlink:href="#meeef128ae7" x="200.408017" y="115.08152" style="fill: #134a8e; stroke: #134a8e"/>
     <use xlink:href="#meeef128ae7" x="201.806012" y="125.062832" style="fill: #134a8e; stroke: #134a8e"/>
     <use xlink:href="#meeef128ae7" x="203.204008" y="113.540733" style="fill: #134a8e; stroke: #134a8e"/>
     <use xlink:href="#meeef128ae7" x="204.602004" y="93.269034" style="fill: #134a8e; stroke: #134a8e"/>
     <use xlink:href="#meeef128ae7" x="206" y="91.08821" style="fill: #134a8e; stroke: #134a8e"/>
     <use xlink:href="#meeef128ae7" x="207.397995" y="88.438308" style="fill: #134a8e; stroke: #134a8e"/>
     <use xlink:href="#meeef128ae7" x="208.795991" y="109.965538" style="fill: #134a8e; stroke: #134a8e"/>
     <use xlink:href="#meeef128ae7" x="210.193987" y="87.285061" style="fill: #134a8e; stroke: #134a8e"/>
     <use xlink:href="#meeef128ae7" x="211.591982" y="87.089034" style="fill: #134a8e; stroke: #134a8e"/>
     <use xlink:href="#meeef128ae7" x="212.989978" y="88.288648" style="fill: #134a8e; stroke: #134a8e"/>
     <use xlink:href="#meeef128ae7" x="214.387974" y="84.305311" style="fill: #134a8e; stroke: #134a8e"/>
     <use xlink:href="#meeef128ae7" x="215.785969" y="81.778243" style="fill: #134a8e; stroke: #134a8e"/>
     <use xlink:href="#meeef128ae7" x="217.183965" y="84.794556" style="fill: #134a8e; stroke: #134a8e"/>
     <use xlink:href="#meeef128ae7" x="218.581961" y="84.743255" style="fill: #134a8e; stroke: #134a8e"/>
     <use xlink:href="#meeef128ae7" x="219.979957" y="85.311619" style="fill: #134a8e; stroke: #134a8e"/>
     <use xlink:href="#meeef128ae7" x="221.377952" y="72.593965" style="fill: #134a8e; stroke: #134a8e"/>
     <use xlink:href="#meeef128ae7" x="222.775948" y="84.134484" style="fill: #134a8e; stroke: #134a8e"/>
     <use xlink:href="#meeef128ae7" x="224.173944" y="84.47953" style="fill: #134a8e; stroke: #134a8e"/>
     <use xlink:href="#meeef128ae7" x="225.571939" y="85.119274" style="fill: #134a8e; stroke: #134a8e"/>
     <use xlink:href="#meeef128ae7" x="226.969935" y="87.714906" style="fill: #134a8e; stroke: #134a8e"/>
     <use xlink:href="#meeef128ae7" x="228.367931" y="84.256324" style="fill: #134a8e; stroke: #134a8e"/>
     <use xlink:href="#meeef128ae7" x="229.765927" y="84.293578" style="fill: #134a8e; stroke: #134a8e"/>
     <use xlink:href="#meeef128ae7" x="231.163922" y="89.104237" style="fill: #134a8e; stroke: #134a8e"/>
     <use xlink:href="#meeef128ae7" x="232.561918" y="88.347888" style="fill: #134a8e; stroke: #134a8e"/>
     <use xlink:href="#meeef128ae7" x="233.959914" y="89.111258" style="fill: #134a8e; stroke: #134a8e"/>
     <use xlink:href="#meeef128ae7" x="235.357909" y="90.146936" style="fill: #134a8e; stroke: #134a8e"/>
     <use xlink:href="#meeef128ae7" x="236.755905" y="88.096615" style="fill: #134a8e; stroke: #134a8e"/>
     <use xlink:href="#meeef128ae7" x="238.153901" y="88.279623" style="fill: #134a8e; stroke: #134a8e"/>
     <use xlink:href="#meeef128ae7" x="239.551896" y="92.395001" style="fill: #134a8e; stroke: #134a8e"/>
     <use xlink:href="#meeef128ae7" x="240.949892" y="121.686936" style="fill: #134a8e; stroke: #134a8e"/>
     <use xlink:href="#meeef128ae7" x="242.347888" y="97.944837" style="fill: #134a8e; stroke: #134a8e"/>
     <use xlink:href="#meeef128ae7" x="243.745884" y="97.814643" style="fill: #134a8e; stroke: #134a8e"/>
     <use xlink:href="#meeef128ae7" x="245.143879" y="97.357081" style="fill: #134a8e; stroke: #134a8e"/>
     <use xlink:href="#meeef128ae7" x="246.541875" y="93.364662" style="fill: #134a8e; stroke: #134a8e"/>
     <use xlink:href="#meeef128ae7" x="247.939871" y="94.268149" style="fill: #134a8e; stroke: #134a8e"/>
     <use xlink:href="#meeef128ae7" x="249.337866" y="99.80736" style="fill: #134a8e; stroke: #134a8e"/>
     <use xlink:href="#meeef128ae7" x="250.735862" y="101.604852" style="fill: #134a8e; stroke: #134a8e"/>
     <use xlink:href="#meeef128ae7" x="252.133858" y="111.974244" style="fill: #134a8e; stroke: #134a8e"/>
     <use xlink:href="#meeef128ae7" x="253.531854" y="112.89942" style="fill: #134a8e; stroke: #134a8e"/>
     <use xlink:href="#meeef128ae7" x="254.929849" y="112.47665" style="fill: #134a8e; stroke: #134a8e"/>
     <use xlink:href="#meeef128ae7" x="256.327845" y="114.565244" style="fill: #134a8e; stroke: #134a8e"/>
     <use xlink:href="#meeef128ae7" x="257.725841" y="114.080341" style="fill: #134a8e; stroke: #134a8e"/>
     <use xlink:href="#meeef128ae7" x="259.123836" y="114.641083" style="fill: #134a8e; stroke: #134a8e"/>
     <use xlink:href="#meeef128ae7" x="260.521832" y="114.834568" style="fill: #134a8e; stroke: #134a8e"/>
     <use xlink:href="#meeef128ae7" x="261.919828" y="116.006974" style="fill: #134a8e; stroke: #134a8e"/>
     <use xlink:href="#meeef128ae7" x="263.317823" y="115.53905" style="fill: #134a8e; stroke: #134a8e"/>
     <use xlink:href="#meeef128ae7" x="264.715819" y="114.787048" style="fill: #134a8e; stroke: #134a8e"/>
     <use xlink:href="#meeef128ae7" x="266.113815" y="115.144351" style="fill: #134a8e; stroke: #134a8e"/>
     <use xlink:href="#meeef128ae7" x="267.511811" y="116.077854" style="fill: #134a8e; stroke: #134a8e"/>
     <use xlink:href="#meeef128ae7" x="268.909806" y="116.964281" style="fill: #134a8e; stroke: #134a8e"/>
     <use xlink:href="#meeef128ae7" x="270.307802" y="117.432581" style="fill: #134a8e; stroke: #134a8e"/>
     <use xlink:href="#meeef128ae7" x="271.705798" y="116.496566" style="fill: #134a8e; stroke: #134a8e"/>
     <use xlink:href="#meeef128ae7" x="273.103793" y="117.646394" style="fill: #134a8e; stroke: #134a8e"/>
     <use xlink:href="#meeef128ae7" x="274.501789" y="116.076447" style="fill: #134a8e; stroke: #134a8e"/>
     <use xlink:href="#meeef128ae7" x="275.899785" y="127.297524" style="fill: #134a8e; stroke: #134a8e"/>
     <use xlink:href="#meeef128ae7" x="277.297781" y="127.789359" style="fill: #134a8e; stroke: #134a8e"/>
     <use xlink:href="#meeef128ae7" x="278.695776" y="145.056047" style="fill: #134a8e; stroke: #134a8e"/>
     <use xlink:href="#meeef128ae7" x="280.093772" y="147.264814" style="fill: #134a8e; stroke: #134a8e"/>
     <use xlink:href="#meeef128ae7" x="281.491768" y="145.423341" style="fill: #134a8e; stroke: #134a8e"/>
     <use xlink:href="#meeef128ae7" x="282.889763" y="145.720013" style="fill: #134a8e; stroke: #134a8e"/>
     <use xlink:href="#meeef128ae7" x="284.287759" y="146.798559" style="fill: #134a8e; stroke: #134a8e"/>
     <use xlink:href="#meeef128ae7" x="285.685755" y="147.388145" style="fill: #134a8e; stroke: #134a8e"/>
     <use xlink:href="#meeef128ae7" x="287.08375" y="147.490941" style="fill: #134a8e; stroke: #134a8e"/>
     <use xlink:href="#meeef128ae7" x="288.481746" y="154.892665" style="fill: #134a8e; stroke: #134a8e"/>
     <use xlink:href="#meeef128ae7" x="289.879742" y="157.249796" style="fill: #134a8e; stroke: #134a8e"/>
     <use xlink:href="#meeef128ae7" x="291.277738" y="157.107085" style="fill: #134a8e; stroke: #134a8e"/>
     <use xlink:href="#meeef128ae7" x="292.675733" y="156.238346" style="fill: #134a8e; stroke: #134a8e"/>
     <use xlink:href="#meeef128ae7" x="294.073729" y="154.603203" style="fill: #134a8e; stroke: #134a8e"/>
     <use xlink:href="#meeef128ae7" x="295.471725" y="148.545742" style="fill: #134a8e; stroke: #134a8e"/>
     <use xlink:href="#meeef128ae7" x="296.86972" y="148.879449" style="fill: #134a8e; stroke: #134a8e"/>
     <use xlink:href="#meeef128ae7" x="298.267716" y="148.800397" style="fill: #134a8e; stroke: #134a8e"/>
     <use xlink:href="#meeef128ae7" x="299.665712" y="147.887556" style="fill: #134a8e; stroke: #134a8e"/>
     <use xlink:href="#meeef128ae7" x="301.063707" y="147.36929" style="fill: #134a8e; stroke: #134a8e"/>
     <use xlink:href="#meeef128ae7" x="302.461703" y="146.634746" style="fill: #134a8e; stroke: #134a8e"/>
     <use xlink:href="#meeef128ae7" x="303.859699" y="145.266902" style="fill: #134a8e; stroke: #134a8e"/>
     <use xlink:href="#meeef128ae7" x="305.257695" y="146.090426" style="fill: #134a8e; stroke: #134a8e"/>
     <use xlink:href="#meeef128ae7" x="306.65569" y="146.378632" style="fill: #134a8e; stroke: #134a8e"/>
     <use xlink:href="#meeef128ae7" x="308.053686" y="135.48889" style="fill: #134a8e; stroke: #134a8e"/>
     <use xlink:href="#meeef128ae7" x="309.451682" y="131.8764" style="fill: #134a8e; stroke: #134a8e"/>
     <use xlink:href="#meeef128ae7" x="310.849677" y="131.202349" style="fill: #134a8e; stroke: #134a8e"/>
     <use xlink:href="#meeef128ae7" x="312.247673" y="118.95032" style="fill: #134a8e; stroke: #134a8e"/>
     <use xlink:href="#meeef128ae7" x="313.645669" y="119.164803" style="fill: #134a8e; stroke: #134a8e"/>
     <use xlink:href="#meeef128ae7" x="315.043665" y="118.586111" style="fill: #134a8e; stroke: #134a8e"/>
     <use xlink:href="#meeef128ae7" x="316.44166" y="119.088181" style="fill: #134a8e; stroke: #134a8e"/>
     <use xlink:href="#meeef128ae7" x="317.839656" y="118.028373" style="fill: #134a8e; stroke: #134a8e"/>
     <use xlink:href="#meeef128ae7" x="319.237652" y="116.237828" style="fill: #134a8e; stroke: #134a8e"/>
     <use xlink:href="#meeef128ae7" x="320.635647" y="118.585394" style="fill: #134a8e; stroke: #134a8e"/>
     <use xlink:href="#meeef128ae7" x="322.033643" y="119.292197" style="fill: #134a8e; stroke: #134a8e"/>
     <use xlink:href="#meeef128ae7" x="323.431639" y="118.852808" style="fill: #134a8e; stroke: #134a8e"/>
     <use xlink:href="#meeef128ae7" x="324.829634" y="119.599388" style="fill: #134a8e; stroke: #134a8e"/>
     <use xlink:href="#meeef128ae7" x="326.22763" y="118.464745" style="fill: #134a8e; stroke: #134a8e"/>
     <use xlink:href="#meeef128ae7" x="327.625626" y="118.857811" style="fill: #134a8e; stroke: #134a8e"/>
     <use xlink:href="#meeef128ae7" x="329.023622" y="118.696922" style="fill: #134a8e; stroke: #134a8e"/>
     <use xlink:href="#meeef128ae7" x="330.421617" y="119.194566" style="fill: #134a8e; stroke: #134a8e"/>
     <use xlink:href="#meeef128ae7" x="331.819613" y="134.39682" style="fill: #134a8e; stroke: #134a8e"/>
     <use xlink:href="#meeef128ae7" x="333.217609" y="133.37374" style="fill: #134a8e; stroke: #134a8e"/>
     <use xlink:href="#meeef128ae7" x="334.615604" y="133.007037" style="fill: #134a8e; stroke: #134a8e"/>
     <use xlink:href="#meeef128ae7" x="336.0136" y="132.452135" style="fill: #134a8e; stroke: #134a8e"/>
     <use xlink:href="#meeef128ae7" x="337.411596" y="155.04259" style="fill: #134a8e; stroke: #134a8e"/>
     <use xlink:href="#meeef128ae7" x="338.809592" y="145.706878" style="fill: #134a8e; stroke: #134a8e"/>
     <use xlink:href="#meeef128ae7" x="340.207587" y="147.418191" style="fill: #134a8e; stroke: #134a8e"/>
     <use xlink:href="#meeef128ae7" x="341.605583" y="147.9968" style="fill: #134a8e; stroke: #134a8e"/>
     <use xlink:href="#meeef128ae7" x="343.003579" y="147.49001" style="fill: #134a8e; stroke: #134a8e"/>
     <use xlink:href="#meeef128ae7" x="344.401574" y="147.60876" style="fill: #134a8e; stroke: #134a8e"/>
     <use xlink:href="#meeef128ae7" x="345.79957" y="154.588634" style="fill: #134a8e; stroke: #134a8e"/>
     <use xlink:href="#meeef128ae7" x="347.197566" y="146.548015" style="fill: #134a8e; stroke: #134a8e"/>
     <use xlink:href="#meeef128ae7" x="348.595561" y="144.311215" style="fill: #134a8e; stroke: #134a8e"/>
     <use xlink:href="#meeef128ae7" x="349.993557" y="142.852365" style="fill: #134a8e; stroke: #134a8e"/>
     <use xlink:href="#meeef128ae7" x="351.391553" y="143.079855" style="fill: #134a8e; stroke: #134a8e"/>
     <use xlink:href="#meeef128ae7" x="352.789549" y="142.666061" style="fill: #134a8e; stroke: #134a8e"/>
     <use xlink:href="#meeef128ae7" x="354.187544" y="111.654839" style="fill: #134a8e; stroke: #134a8e"/>
     <use xlink:href="#meeef128ae7" x="355.58554" y="129.130893" style="fill: #134a8e; stroke: #134a8e"/>
     <use xlink:href="#meeef128ae7" x="356.983536" y="113.336872" style="fill: #134a8e; stroke: #134a8e"/>
     <use xlink:href="#meeef128ae7" x="358.381531" y="49.313348" style="fill: #134a8e; stroke: #134a8e"/>
     <use xlink:href="#meeef128ae7" x="359.779527" y="44.220258" style="fill: #134a8e; stroke: #134a8e"/>
     <use xlink:href="#meeef128ae7" x="361.177523" y="36.286478" style="fill: #134a8e; stroke: #134a8e"/>
     <use xlink:href="#meeef128ae7" x="362.575519" y="39.401929" style="fill: #134a8e; stroke: #134a8e"/>
     <use xlink:href="#meeef128ae7" x="363.973514" y="38.262633" style="fill: #134a8e; stroke: #134a8e"/>
     <use xlink:href="#meeef128ae7" x="365.37151" y="35.081809" style="fill: #134a8e; stroke: #134a8e"/>
     <use xlink:href="#meeef128ae7" x="366.769506" y="32.740872" style="fill: #134a8e; stroke: #134a8e"/>
     <use xlink:href="#meeef128ae7" x="368.167501" y="34.959638" style="fill: #134a8e; stroke: #134a8e"/>
     <use xlink:href="#meeef128ae7" x="369.565497" y="29.648256" style="fill: #134a8e; stroke: #134a8e"/>
     <use xlink:href="#meeef128ae7" x="370.963493" y="30.919643" style="fill: #134a8e; stroke: #134a8e"/>
     <use xlink:href="#meeef128ae7" x="372.361488" y="34.736338" style="fill: #134a8e; stroke: #134a8e"/>
     <use xlink:href="#meeef128ae7" x="373.759484" y="30.72404" style="fill: #134a8e; stroke: #134a8e"/>
     <use xlink:href="#meeef128ae7" x="375.15748" y="29.133679" style="fill: #134a8e; stroke: #134a8e"/>
     <use xlink:href="#meeef128ae7" x="376.555476" y="26.055038" style="fill: #134a8e; stroke: #134a8e"/>
     <use xlink:href="#meeef128ae7" x="377.953471" y="36.358415" style="fill: #134a8e; stroke: #134a8e"/>
     <use xlink:href="#meeef128ae7" x="379.351467" y="38.716981" style="fill: #134a8e; stroke: #134a8e"/>
     <use xlink:href="#meeef128ae7" x="380.749463" y="32.227572" style="fill: #134a8e; stroke: #134a8e"/>
     <use xlink:href="#meeef128ae7" x="382.147458" y="34.04265" style="fill: #134a8e; stroke: #134a8e"/>
     <use xlink:href="#meeef128ae7" x="383.545454" y="68.26402" style="fill: #134a8e; stroke: #134a8e"/>
     <use xlink:href="#meeef128ae7" x="384.94345" y="67.623568" style="fill: #134a8e; stroke: #134a8e"/>
     <use xlink:href="#meeef128ae7" x="386.341446" y="66.155556" style="fill: #134a8e; stroke: #134a8e"/>
     <use xlink:href="#meeef128ae7" x="387.739441" y="67.864015" style="fill: #134a8e; stroke: #134a8e"/>
     <use xlink:href="#meeef128ae7" x="389.137437" y="65.055302" style="fill: #134a8e; stroke: #134a8e"/>
     <use xlink:href="#meeef128ae7" x="390.535433" y="72.047475" style="fill: #134a8e; stroke: #134a8e"/>
     <use xlink:href="#meeef128ae7" x="391.933428" y="73.95617" style="fill: #134a8e; stroke: #134a8e"/>
     <use xlink:href="#meeef128ae7" x="393.331424" y="107.765614" style="fill: #134a8e; stroke: #134a8e"/>
     <use xlink:href="#meeef128ae7" x="394.72942" y="107.625212" style="fill: #134a8e; stroke: #134a8e"/>
     <use xlink:href="#meeef128ae7" x="396.127415" y="109.337136" style="fill: #134a8e; stroke: #134a8e"/>
     <use xlink:href="#meeef128ae7" x="397.525411" y="115.007608" style="fill: #134a8e; stroke: #134a8e"/>
     <use xlink:href="#meeef128ae7" x="398.923407" y="128.148914" style="fill: #134a8e; stroke: #134a8e"/>
     <use xlink:href="#meeef128ae7" x="400.321403" y="128.14458" style="fill: #134a8e; stroke: #134a8e"/>
     <use xlink:href="#meeef128ae7" x="401.719398" y="128.32977" style="fill: #134a8e; stroke: #134a8e"/>
     <use xlink:href="#meeef128ae7" x="403.117394" y="133.317964" style="fill: #134a8e; stroke: #134a8e"/>
     <use xlink:href="#meeef128ae7" x="404.51539" y="136.716305" style="fill: #134a8e; stroke: #134a8e"/>
     <use xlink:href="#meeef128ae7" x="405.913385" y="137.176433" style="fill: #134a8e; stroke: #134a8e"/>
     <use xlink:href="#meeef128ae7" x="407.311381" y="139.221783" style="fill: #134a8e; stroke: #134a8e"/>
     <use xlink:href="#meeef128ae7" x="408.709377" y="139.224563" style="fill: #134a8e; stroke: #134a8e"/>
     <use xlink:href="#meeef128ae7" x="410.107372" y="139.837328" style="fill: #134a8e; stroke: #134a8e"/>
     <use xlink:href="#meeef128ae7" x="411.505368" y="139.981497" style="fill: #134a8e; stroke: #134a8e"/>
     <use xlink:href="#meeef128ae7" x="412.903364" y="139.806496" style="fill: #134a8e; stroke: #134a8e"/>
     <use xlink:href="#meeef128ae7" x="414.30136" y="150.889867" style="fill: #134a8e; stroke: #134a8e"/>
     <use xlink:href="#meeef128ae7" x="415.699355" y="141.470089" style="fill: #134a8e; stroke: #134a8e"/>
     <use xlink:href="#meeef128ae7" x="417.097351" y="152.201489" style="fill: #134a8e; stroke: #134a8e"/>
     <use xlink:href="#meeef128ae7" x="418.495347" y="152.437758" style="fill: #134a8e; stroke: #134a8e"/>
     <use xlink:href="#meeef128ae7" x="419.893342" y="152.359559" style="fill: #134a8e; stroke: #134a8e"/>
     <use xlink:href="#meeef128ae7" x="421.291338" y="152.340518" style="fill: #134a8e; stroke: #134a8e"/>
     <use xlink:href="#meeef128ae7" x="422.689334" y="151.084579" style="fill: #134a8e; stroke: #134a8e"/>
     <use xlink:href="#meeef128ae7" x="424.08733" y="151.100943" style="fill: #134a8e; stroke: #134a8e"/>
    </g>
   </g>
   <g id="line2d_24">
    <path d="M 68.99642 142.491016 
L 70.394416 142.562497 
L 71.792412 147.00597 
L 73.190408 146.124567 
L 74.588403 146.335019 
L 75.986399 146.290033 
L 77.384395 141.422682 
L 78.78239 141.46305 
L 81.578382 140.865334 
L 82.976378 135.846307 
L 84.374373 135.463015 
L 85.772369 139.113041 
L 87.170365 140.677745 
L 88.56836 146.020918 
L 89.966356 146.399518 
L 91.364352 146.476541 
L 92.762347 147.133521 
L 95.558339 146.607834 
L 96.956335 150.745361 
L 98.35433 151.469018 
L 99.752326 151.43761 
L 101.150322 151.547597 
L 102.548317 156.37366 
L 103.946313 156.454768 
L 105.344309 156.803757 
L 108.1403 156.248546 
L 109.538296 156.35961 
L 112.334287 156.177971 
L 113.732283 151.151314 
L 115.130279 146.723246 
L 116.528274 147.576196 
L 117.92627 146.022924 
L 119.324266 147.102213 
L 120.722262 146.929659 
L 122.120257 151.783496 
L 123.518253 147.279638 
L 124.916249 142.36443 
L 126.314244 142.022241 
L 127.71224 141.932964 
L 130.508231 142.419934 
L 131.906227 132.468517 
L 133.304223 137.25421 
L 134.702219 136.830113 
L 136.100214 137.113544 
L 137.49821 132.70325 
L 138.896206 132.602156 
L 140.294201 134.068479 
L 141.692197 130.17663 
L 144.488189 139.51433 
L 145.886184 136.382184 
L 147.28418 120.060293 
L 148.682176 116.04161 
L 150.080171 117.54226 
L 151.478167 126.557826 
L 152.876163 127.438755 
L 154.274158 131.703978 
L 155.672154 132.937639 
L 157.07015 136.304514 
L 158.468146 137.059299 
L 159.866141 137.221334 
L 161.264137 141.341152 
L 162.662133 136.715934 
L 164.060128 135.119253 
L 165.458124 119.16911 
L 166.85612 119.27663 
L 168.254116 124.434551 
L 169.652111 125.608582 
L 171.050107 122.288865 
L 172.448103 121.313114 
L 173.846098 122.402829 
L 175.244094 125.27463 
L 176.64209 114.906176 
L 178.040085 112.413964 
L 179.438081 112.868681 
L 180.836077 108.581358 
L 182.234073 106.324015 
L 183.632068 106.534107 
L 185.030064 116.896709 
L 186.42806 118.670928 
L 187.826055 122.943953 
L 189.224051 122.138241 
L 190.622047 123.92242 
L 192.020043 126.731385 
L 193.418038 126.290469 
L 194.816034 124.073943 
L 196.21403 125.413531 
L 197.612025 127.393851 
L 199.010021 127.818805 
L 200.408017 122.098018 
L 201.806012 126.179158 
L 203.204008 119.86415 
L 204.602004 116.152939 
L 206 115.125405 
L 207.397995 113.162162 
L 208.795991 117.187527 
L 210.193987 113.949288 
L 211.591982 104.29875 
L 212.989978 100.798744 
L 214.387974 95.690559 
L 215.785969 89.608762 
L 217.183965 94.507971 
L 218.581961 93.361539 
L 219.979957 92.97342 
L 221.377952 81.14061 
L 222.775948 92.301046 
L 224.173944 96.743689 
L 225.571939 97.076972 
L 226.969935 100.184882 
L 228.367931 97.771409 
L 229.765927 98.592783 
L 231.163922 105.065811 
L 232.561918 106.874701 
L 233.959914 108.379773 
L 235.357909 115.478889 
L 236.755905 111.736479 
L 238.153901 113.091198 
L 239.551896 116.178343 
L 240.949892 123.324465 
L 242.347888 119.972577 
L 243.745884 120.822092 
L 245.143879 122.473302 
L 246.541875 116.449214 
L 247.939871 116.661655 
L 249.337866 119.2525 
L 250.735862 122.782716 
L 253.531854 127.80632 
L 254.929849 128.45033 
L 257.725841 129.976861 
L 259.123836 125.090233 
L 260.521832 123.89322 
L 261.919828 124.841113 
L 263.317823 125.614123 
L 264.715819 124.66362 
L 266.113815 130.261869 
L 267.511811 129.978638 
L 268.909806 130.592599 
L 270.307802 124.540462 
L 271.705798 123.524579 
L 273.103793 134.472188 
L 274.501789 134.401766 
L 275.899785 136.517434 
L 277.297781 136.435824 
L 278.695776 147.933707 
L 280.093772 150.93485 
L 281.491768 149.070546 
L 282.889763 147.976575 
L 284.287759 149.895845 
L 285.685755 150.426729 
L 287.08375 153.036643 
L 288.481746 156.591768 
L 289.879742 158.593709 
L 291.277738 158.76 
L 292.675733 157.523453 
L 294.073729 156.585349 
L 295.471725 154.490139 
L 296.86972 155.207807 
L 298.267716 153.996967 
L 299.665712 152.577747 
L 301.063707 152.340838 
L 302.461703 150.902431 
L 303.859699 150.862874 
L 305.257695 150.157257 
L 306.65569 148.600479 
L 308.053686 141.826593 
L 309.451682 138.683213 
L 310.849677 137.96233 
L 312.247673 130.595797 
L 313.645669 129.054749 
L 315.043665 129.422096 
L 316.44166 129.133105 
L 317.839656 120.876357 
L 319.237652 121.092721 
L 322.033643 125.503338 
L 323.431639 125.23851 
L 324.829634 123.696755 
L 326.22763 120.38076 
L 327.625626 124.193275 
L 329.023622 126.495205 
L 330.421617 125.441165 
L 331.819613 135.02048 
L 333.217609 139.297807 
L 334.615604 140.140268 
L 336.0136 139.905671 
L 337.411596 156.377777 
L 338.809592 151.033113 
L 340.207587 153.494474 
L 341.605583 153.342943 
L 344.401574 153.204657 
L 345.79957 155.9294 
L 347.197566 153.548184 
L 349.993557 143.32055 
L 351.391553 143.805653 
L 352.789549 143.802773 
L 354.187544 122.568664 
L 355.58554 131.103312 
L 356.983536 125.360772 
L 358.381531 69.654719 
L 359.779527 62.144842 
L 361.177523 66.685706 
L 362.575519 66.412904 
L 363.973514 58.78177 
L 365.37151 56.998007 
L 366.769506 50.711725 
L 368.167501 54.721974 
L 369.565497 53.133217 
L 370.963493 56.171432 
L 372.361488 55.998858 
L 373.759484 41.886644 
L 375.15748 38.462338 
L 376.555476 38.845897 
L 377.953471 69.455021 
L 379.351467 64.452619 
L 380.749463 68.344292 
L 382.147458 68.44134 
L 383.545454 71.641695 
L 384.94345 75.452067 
L 386.341446 83.532748 
L 387.739441 85.481267 
L 389.137437 90.776297 
L 390.535433 94.718299 
L 391.933428 94.863484 
L 393.331424 117.030243 
L 394.72942 114.61524 
L 396.127415 122.50638 
L 397.525411 125.099275 
L 398.923407 132.323744 
L 400.321403 134.394831 
L 401.719398 134.401203 
L 403.117394 139.490091 
L 404.51539 141.882925 
L 405.913385 143.309206 
L 407.311381 146.096763 
L 408.709377 148.32012 
L 410.107372 148.58778 
L 411.505368 148.614111 
L 412.903364 148.374406 
L 414.30136 152.498531 
L 415.699355 151.367815 
L 417.097351 154.274162 
L 418.495347 154.484711 
L 419.893342 154.267504 
L 421.291338 155.275009 
L 422.689334 152.848868 
L 424.08733 152.83517 
L 424.08733 152.83517 
" clip-path="url(#p593c186afe)" style="fill: none; stroke-dasharray: 5.55,2.4; stroke-dashoffset: 0; stroke: #000000; stroke-width: 1.5"/>
   </g>
   <g id="patch_3">
    <path d="M 51.241875 166.32 
L 51.241875 -0 
" style="fill: none; stroke: #ffffff; stroke-linejoin: miter; stroke-linecap: square"/>
   </g>
   <g id="patch_4">
    <path d="M 441.841875 166.32 
L 441.841875 -0 
" style="fill: none; stroke: #ffffff; stroke-linejoin: miter; stroke-linecap: square"/>
   </g>
   <g id="patch_5">
    <path d="M 51.241875 166.32 
L 441.841875 166.32 
" style="fill: none; stroke: #ffffff; stroke-linejoin: miter; stroke-linecap: square"/>
   </g>
   <g id="patch_6">
    <path d="M 51.241875 -0 
L 441.841875 -0 
" style="fill: none; stroke: #ffffff; stroke-linejoin: miter; stroke-linecap: square"/>
   </g>
   <g id="legend_1">
    <g id="patch_7">
     <path d="M 58.241875 60.378125 
L 210.28875 60.378125 
Q 212.28875 60.378125 212.28875 58.378125 
L 212.28875 7 
Q 212.28875 5 210.28875 5 
L 58.241875 5 
Q 56.241875 5 56.241875 7 
L 56.241875 58.378125 
Q 56.241875 60.378125 58.241875 60.378125 
z
" style="fill: #e5e5e5; opacity: 0.8; stroke: #cccccc; stroke-width: 0.5; stroke-linejoin: miter"/>
    </g>
    <g id="line2d_25">
     <path d="M 60.241875 15.5 
L 70.241875 15.5 
L 80.241875 15.5 
" style="fill: none; stroke: #134a8e; stroke-width: 3; stroke-linecap: square"/>
     <g>
      <use xlink:href="#meeef128ae7" x="70.241875" y="15.5" style="fill: #134a8e; stroke: #134a8e"/>
     </g>
    </g>
    <g id="text_14">
     <!-- Private Value $\tilde{R}_{\chi_1,\chi_3}^t$ -->
     <g transform="translate(88.241875 19) scale(0.1 -0.1)">
      <defs>
       <path id="DejaVuSans-50" d="M 1259 4147 
L 1259 2394 
L 2053 2394 
Q 2494 2394 2734 2622 
Q 2975 2850 2975 3272 
Q 2975 3691 2734 3919 
Q 2494 4147 2053 4147 
L 1259 4147 
z
M 628 4666 
L 2053 4666 
Q 2838 4666 3239 4311 
Q 3641 3956 3641 3272 
Q 3641 2581 3239 2228 
Q 2838 1875 2053 1875 
L 1259 1875 
L 1259 0 
L 628 0 
L 628 4666 
z
" transform="scale(0.015625)"/>
       <path id="DejaVuSans-72" d="M 2631 2963 
Q 2534 3019 2420 3045 
Q 2306 3072 2169 3072 
Q 1681 3072 1420 2755 
Q 1159 2438 1159 1844 
L 1159 0 
L 581 0 
L 581 3500 
L 1159 3500 
L 1159 2956 
Q 1341 3275 1631 3429 
Q 1922 3584 2338 3584 
Q 2397 3584 2469 3576 
Q 2541 3569 2628 3553 
L 2631 2963 
z
" transform="scale(0.015625)"/>
       <path id="DejaVuSans-69" d="M 603 3500 
L 1178 3500 
L 1178 0 
L 603 0 
L 603 3500 
z
M 603 4863 
L 1178 4863 
L 1178 4134 
L 603 4134 
L 603 4863 
z
" transform="scale(0.015625)"/>
       <path id="DejaVuSans-76" d="M 191 3500 
L 800 3500 
L 1894 563 
L 2988 3500 
L 3597 3500 
L 2284 0 
L 1503 0 
L 191 3500 
z
" transform="scale(0.015625)"/>
       <path id="DejaVuSans-20" transform="scale(0.015625)"/>
       <path id="DejaVuSans-303" d="M -1621 4281 
L -1799 4453 
Q -1867 4516 -1919 4545 
Q -1971 4575 -2011 4575 
Q -2130 4575 -2186 4461 
Q -2242 4347 -2249 4091 
L -2639 4091 
Q -2633 4513 -2473 4742 
Q -2314 4972 -2030 4972 
Q -1911 4972 -1811 4928 
Q -1711 4884 -1596 4781 
L -1417 4609 
Q -1349 4547 -1297 4517 
Q -1246 4488 -1205 4488 
Q -1086 4488 -1030 4602 
Q -974 4716 -967 4972 
L -577 4972 
Q -583 4550 -742 4320 
Q -902 4091 -1186 4091 
Q -1305 4091 -1405 4134 
Q -1505 4178 -1621 4281 
z
" transform="scale(0.015625)"/>
       <path id="DejaVuSans-Oblique-52" d="M 1613 4147 
L 1294 2491 
L 2106 2491 
Q 2584 2491 2879 2755 
Q 3175 3019 3175 3444 
Q 3175 3784 2976 3965 
Q 2778 4147 2406 4147 
L 1613 4147 
z
M 2772 2241 
Q 2972 2194 3105 2009 
Q 3238 1825 3413 1275 
L 3809 0 
L 3144 0 
L 2778 1197 
Q 2638 1659 2453 1815 
Q 2269 1972 1888 1972 
L 1191 1972 
L 806 0 
L 172 0 
L 1081 4666 
L 2503 4666 
Q 3150 4666 3495 4373 
Q 3841 4081 3841 3531 
Q 3841 3044 3547 2687 
Q 3253 2331 2772 2241 
z
" transform="scale(0.015625)"/>
       <path id="DejaVuSans-Oblique-74" d="M 2706 3500 
L 2619 3053 
L 1472 3053 
L 1100 1153 
Q 1081 1047 1072 975 
Q 1063 903 1063 863 
Q 1063 663 1183 572 
Q 1303 481 1569 481 
L 2150 481 
L 2053 0 
L 1503 0 
Q 991 0 739 200 
Q 488 400 488 806 
Q 488 878 497 964 
Q 506 1050 525 1153 
L 897 3053 
L 409 3053 
L 500 3500 
L 978 3500 
L 1172 4494 
L 1747 4494 
L 1556 3500 
L 2706 3500 
z
" transform="scale(0.015625)"/>
       <path id="DejaVuSans-Oblique-3c7" d="M 1922 -781 
L 1691 416 
L 394 -1334 
L -284 -1334 
L 1553 1141 
L 1269 2613 
Q 1194 3006 713 3006 
L 559 3006 
L 653 3500 
L 872 3494 
Q 1675 3472 1775 2950 
L 2006 1753 
L 3303 3503 
L 3981 3503 
L 2144 1028 
L 2428 -444 
Q 2503 -838 2984 -838 
L 3138 -838 
L 3044 -1331 
L 2825 -1325 
Q 2022 -1303 1922 -781 
z
" transform="scale(0.015625)"/>
       <path id="DejaVuSans-2c" d="M 750 794 
L 1409 794 
L 1409 256 
L 897 -744 
L 494 -744 
L 750 256 
L 750 794 
z
" transform="scale(0.015625)"/>
      </defs>
      <use xlink:href="#DejaVuSans-50" transform="translate(0 0.828125)"/>
      <use xlink:href="#DejaVuSans-72" transform="translate(60.302734 0.828125)"/>
      <use xlink:href="#DejaVuSans-69" transform="translate(101.416016 0.828125)"/>
      <use xlink:href="#DejaVuSans-76" transform="translate(129.199219 0.828125)"/>
      <use xlink:href="#DejaVuSans-61" transform="translate(188.378906 0.828125)"/>
      <use xlink:href="#DejaVuSans-74" transform="translate(249.658203 0.828125)"/>
      <use xlink:href="#DejaVuSans-65" transform="translate(288.867188 0.828125)"/>
      <use xlink:href="#DejaVuSans-20" transform="translate(350.390625 0.828125)"/>
      <use xlink:href="#DejaVuSans-56" transform="translate(382.177734 0.828125)"/>
      <use xlink:href="#DejaVuSans-61" transform="translate(450.585938 0.828125)"/>
      <use xlink:href="#DejaVuSans-6c" transform="translate(511.865234 0.828125)"/>
      <use xlink:href="#DejaVuSans-75" transform="translate(539.648438 0.828125)"/>
      <use xlink:href="#DejaVuSans-65" transform="translate(603.027344 0.828125)"/>
      <use xlink:href="#DejaVuSans-20" transform="translate(664.550781 0.828125)"/>
      <use xlink:href="#DejaVuSans-303" transform="translate(764.942871 22.3125)"/>
      <use xlink:href="#DejaVuSans-Oblique-52" transform="translate(696.337891 0.828125)"/>
      <use xlink:href="#DejaVuSans-Oblique-74" transform="translate(766.777344 39.109375) scale(0.7)"/>
      <use xlink:href="#DejaVuSans-Oblique-3c7" transform="translate(766.777344 -26.515625) scale(0.7)"/>
      <use xlink:href="#DejaVuSans-31" transform="translate(808.203125 -38) scale(0.49)"/>
      <use xlink:href="#DejaVuSans-2c" transform="translate(841.29248 -26.515625) scale(0.7)"/>
      <use xlink:href="#DejaVuSans-Oblique-3c7" transform="translate(877.181152 -26.515625) scale(0.7)"/>
      <use xlink:href="#DejaVuSans-33" transform="translate(918.606934 -38) scale(0.49)"/>
     </g>
    </g>
    <g id="line2d_26">
     <path d="M 60.241875 34 
L 70.241875 34 
L 80.241875 34 
" style="fill: none; stroke-dasharray: 5.55,2.4; stroke-dashoffset: 0; stroke: #000000; stroke-width: 1.5"/>
    </g>
    <g id="text_15">
     <!-- Original Value $\bar{R}_{\chi_1,\chi_3}^t$ -->
     <g transform="translate(88.241875 37.5) scale(0.1 -0.1)">
      <defs>
       <path id="DejaVuSans-4f" d="M 2522 4238 
Q 1834 4238 1429 3725 
Q 1025 3213 1025 2328 
Q 1025 1447 1429 934 
Q 1834 422 2522 422 
Q 3209 422 3611 934 
Q 4013 1447 4013 2328 
Q 4013 3213 3611 3725 
Q 3209 4238 2522 4238 
z
M 2522 4750 
Q 3503 4750 4090 4092 
Q 4678 3434 4678 2328 
Q 4678 1225 4090 567 
Q 3503 -91 2522 -91 
Q 1538 -91 948 565 
Q 359 1222 359 2328 
Q 359 3434 948 4092 
Q 1538 4750 2522 4750 
z
" transform="scale(0.015625)"/>
       <path id="DejaVuSans-67" d="M 2906 1791 
Q 2906 2416 2648 2759 
Q 2391 3103 1925 3103 
Q 1463 3103 1205 2759 
Q 947 2416 947 1791 
Q 947 1169 1205 825 
Q 1463 481 1925 481 
Q 2391 481 2648 825 
Q 2906 1169 2906 1791 
z
M 3481 434 
Q 3481 -459 3084 -895 
Q 2688 -1331 1869 -1331 
Q 1566 -1331 1297 -1286 
Q 1028 -1241 775 -1147 
L 775 -588 
Q 1028 -725 1275 -790 
Q 1522 -856 1778 -856 
Q 2344 -856 2625 -561 
Q 2906 -266 2906 331 
L 2906 616 
Q 2728 306 2450 153 
Q 2172 0 1784 0 
Q 1141 0 747 490 
Q 353 981 353 1791 
Q 353 2603 747 3093 
Q 1141 3584 1784 3584 
Q 2172 3584 2450 3431 
Q 2728 3278 2906 2969 
L 2906 3500 
L 3481 3500 
L 3481 434 
z
" transform="scale(0.015625)"/>
       <path id="DejaVuSans-6e" d="M 3513 2113 
L 3513 0 
L 2938 0 
L 2938 2094 
Q 2938 2591 2744 2837 
Q 2550 3084 2163 3084 
Q 1697 3084 1428 2787 
Q 1159 2491 1159 1978 
L 1159 0 
L 581 0 
L 581 3500 
L 1159 3500 
L 1159 2956 
Q 1366 3272 1645 3428 
Q 1925 3584 2291 3584 
Q 2894 3584 3203 3211 
Q 3513 2838 3513 2113 
z
" transform="scale(0.015625)"/>
       <path id="DejaVuSans-304" d="M -2518 4769 
L -650 4769 
L -650 4306 
L -2518 4306 
L -2518 4769 
z
" transform="scale(0.015625)"/>
      </defs>
      <use xlink:href="#DejaVuSans-4f" transform="translate(0 0.359375)"/>
      <use xlink:href="#DejaVuSans-72" transform="translate(78.710938 0.359375)"/>
      <use xlink:href="#DejaVuSans-69" transform="translate(119.824219 0.359375)"/>
      <use xlink:href="#DejaVuSans-67" transform="translate(147.607422 0.359375)"/>
      <use xlink:href="#DejaVuSans-69" transform="translate(211.083984 0.359375)"/>
      <use xlink:href="#DejaVuSans-6e" transform="translate(238.867188 0.359375)"/>
      <use xlink:href="#DejaVuSans-61" transform="translate(302.246094 0.359375)"/>
      <use xlink:href="#DejaVuSans-6c" transform="translate(363.525391 0.359375)"/>
      <use xlink:href="#DejaVuSans-20" transform="translate(391.308594 0.359375)"/>
      <use xlink:href="#DejaVuSans-56" transform="translate(423.095703 0.359375)"/>
      <use xlink:href="#DejaVuSans-61" transform="translate(491.503906 0.359375)"/>
      <use xlink:href="#DejaVuSans-6c" transform="translate(552.783203 0.359375)"/>
      <use xlink:href="#DejaVuSans-75" transform="translate(580.566406 0.359375)"/>
      <use xlink:href="#DejaVuSans-65" transform="translate(643.945312 0.359375)"/>
      <use xlink:href="#DejaVuSans-20" transform="translate(705.46875 0.359375)"/>
      <use xlink:href="#DejaVuSans-304" transform="translate(804.970215 18.484375)"/>
      <use xlink:href="#DejaVuSans-Oblique-52" transform="translate(737.255859 0.359375)"/>
      <use xlink:href="#DejaVuSans-Oblique-74" transform="translate(807.695312 38.640625) scale(0.7)"/>
      <use xlink:href="#DejaVuSans-Oblique-3c7" transform="translate(807.695312 -26.984375) scale(0.7)"/>
      <use xlink:href="#DejaVuSans-31" transform="translate(849.121094 -38.46875) scale(0.49)"/>
      <use xlink:href="#DejaVuSans-2c" transform="translate(882.210449 -26.984375) scale(0.7)"/>
      <use xlink:href="#DejaVuSans-Oblique-3c7" transform="translate(918.099121 -26.984375) scale(0.7)"/>
      <use xlink:href="#DejaVuSans-33" transform="translate(959.524902 -38.46875) scale(0.49)"/>
     </g>
    </g>
    <g id="patch_8">
     <path d="M 60.241875 54.298437 
L 80.241875 54.298437 
L 80.241875 47.298437 
L 60.241875 47.298437 
z
" style="fill: #134a8e; fill-opacity: 0.5; stroke: #134a8e; stroke-opacity: 0.5; stroke-width: 0.5; stroke-linejoin: miter"/>
    </g>
    <g id="text_16">
     <!-- One Standard Deviation -->
     <g transform="translate(88.241875 54.298437) scale(0.1 -0.1)">
      <defs>
       <path id="DejaVuSans-53" d="M 3425 4513 
L 3425 3897 
Q 3066 4069 2747 4153 
Q 2428 4238 2131 4238 
Q 1616 4238 1336 4038 
Q 1056 3838 1056 3469 
Q 1056 3159 1242 3001 
Q 1428 2844 1947 2747 
L 2328 2669 
Q 3034 2534 3370 2195 
Q 3706 1856 3706 1288 
Q 3706 609 3251 259 
Q 2797 -91 1919 -91 
Q 1588 -91 1214 -16 
Q 841 59 441 206 
L 441 856 
Q 825 641 1194 531 
Q 1563 422 1919 422 
Q 2459 422 2753 634 
Q 3047 847 3047 1241 
Q 3047 1584 2836 1778 
Q 2625 1972 2144 2069 
L 1759 2144 
Q 1053 2284 737 2584 
Q 422 2884 422 3419 
Q 422 4038 858 4394 
Q 1294 4750 2059 4750 
Q 2388 4750 2728 4690 
Q 3069 4631 3425 4513 
z
" transform="scale(0.015625)"/>
       <path id="DejaVuSans-64" d="M 2906 2969 
L 2906 4863 
L 3481 4863 
L 3481 0 
L 2906 0 
L 2906 525 
Q 2725 213 2448 61 
Q 2172 -91 1784 -91 
Q 1150 -91 751 415 
Q 353 922 353 1747 
Q 353 2572 751 3078 
Q 1150 3584 1784 3584 
Q 2172 3584 2448 3432 
Q 2725 3281 2906 2969 
z
M 947 1747 
Q 947 1113 1208 752 
Q 1469 391 1925 391 
Q 2381 391 2643 752 
Q 2906 1113 2906 1747 
Q 2906 2381 2643 2742 
Q 2381 3103 1925 3103 
Q 1469 3103 1208 2742 
Q 947 2381 947 1747 
z
" transform="scale(0.015625)"/>
       <path id="DejaVuSans-6f" d="M 1959 3097 
Q 1497 3097 1228 2736 
Q 959 2375 959 1747 
Q 959 1119 1226 758 
Q 1494 397 1959 397 
Q 2419 397 2687 759 
Q 2956 1122 2956 1747 
Q 2956 2369 2687 2733 
Q 2419 3097 1959 3097 
z
M 1959 3584 
Q 2709 3584 3137 3096 
Q 3566 2609 3566 1747 
Q 3566 888 3137 398 
Q 2709 -91 1959 -91 
Q 1206 -91 779 398 
Q 353 888 353 1747 
Q 353 2609 779 3096 
Q 1206 3584 1959 3584 
z
" transform="scale(0.015625)"/>
      </defs>
      <use xlink:href="#DejaVuSans-4f"/>
      <use xlink:href="#DejaVuSans-6e" x="78.710938"/>
      <use xlink:href="#DejaVuSans-65" x="142.089844"/>
      <use xlink:href="#DejaVuSans-20" x="203.613281"/>
      <use xlink:href="#DejaVuSans-53" x="235.400391"/>
      <use xlink:href="#DejaVuSans-74" x="298.876953"/>
      <use xlink:href="#DejaVuSans-61" x="338.085938"/>
      <use xlink:href="#DejaVuSans-6e" x="399.365234"/>
      <use xlink:href="#DejaVuSans-64" x="462.744141"/>
      <use xlink:href="#DejaVuSans-61" x="526.220703"/>
      <use xlink:href="#DejaVuSans-72" x="587.5"/>
      <use xlink:href="#DejaVuSans-64" x="626.863281"/>
      <use xlink:href="#DejaVuSans-20" x="690.339844"/>
      <use xlink:href="#DejaVuSans-44" x="722.126953"/>
      <use xlink:href="#DejaVuSans-65" x="799.128906"/>
      <use xlink:href="#DejaVuSans-76" x="860.652344"/>
      <use xlink:href="#DejaVuSans-69" x="919.832031"/>
      <use xlink:href="#DejaVuSans-61" x="947.615234"/>
      <use xlink:href="#DejaVuSans-74" x="1008.894531"/>
      <use xlink:href="#DejaVuSans-69" x="1048.103516"/>
      <use xlink:href="#DejaVuSans-6f" x="1075.886719"/>
      <use xlink:href="#DejaVuSans-6e" x="1137.068359"/>
     </g>
    </g>
   </g>
  </g>
 </g>
 <defs>
  <clipPath id="p593c186afe">
   <rect x="51.241875" y="-0" width="390.6" height="166.32"/>
  </clipPath>
 </defs>
</svg>
