<?xml version="1.0" encoding="utf-8" standalone="no"?>
<!DOCTYPE svg PUBLIC "-//W3C//DTD SVG 1.1//EN"
  "http://www.w3.org/Graphics/SVG/1.1/DTD/svg11.dtd">
<svg xmlns:xlink="http://www.w3.org/1999/xlink" width="450.737567pt" height="198.611875pt" viewBox="0 0 450.737567 198.611875" xmlns="http://www.w3.org/2000/svg" version="1.1">
 <metadata>
  <rdf:RDF xmlns:dc="http://purl.org/dc/elements/1.1/" xmlns:cc="http://creativecommons.org/ns#" xmlns:rdf="http://www.w3.org/1999/02/22-rdf-syntax-ns#">
   <cc:Work>
    <dc:type rdf:resource="http://purl.org/dc/dcmitype/StillImage"/>
    <dc:date>2024-09-18T15:47:42.700483</dc:date>
    <dc:format>image/svg+xml</dc:format>
    <dc:creator>
     <cc:Agent>
      <dc:title>Matplotlib v3.7.5, https://matplotlib.org/</dc:title>
     </cc:Agent>
    </dc:creator>
   </cc:Work>
  </rdf:RDF>
 </metadata>
 <defs>
  <style type="text/css">*{stroke-linejoin: round; stroke-linecap: butt}</style>
 </defs>
 <g id="figure_1">
  <g id="patch_1">
   <path d="M 0 198.611875 
L 450.737567 198.611875 
L 450.737567 0 
L 0 0 
z
" style="fill: #ffffff"/>
  </g>
  <g id="axes_1">
   <g id="patch_2">
    <path d="M 51.241875 166.32 
L 441.841875 166.32 
L 441.841875 -0 
L 51.241875 -0 
z
" style="fill: #e5e5e5"/>
   </g>
   <g id="matplotlib.axis_1">
    <g id="xtick_1">
     <g id="line2d_1">
      <path d="M 78.78239 166.32 
L 78.78239 -0 
" clip-path="url(#pddd7f9a3a9)" style="fill: none; stroke: #ffffff; stroke-width: 0.8; stroke-linecap: square"/>
     </g>
     <g id="line2d_2">
      <defs>
       <path id="m7719ba0077" d="M 0 0 
L 0 3.5 
" style="stroke: #555555; stroke-width: 0.8"/>
      </defs>
      <g>
       <use xlink:href="#m7719ba0077" x="78.78239" y="166.32" style="fill: #555555; stroke: #555555; stroke-width: 0.8"/>
      </g>
     </g>
     <g id="text_1">
      <!-- 08/16/20 -->
      <g style="fill: #555555" transform="translate(56.32614 180.918437) scale(0.1 -0.1)">
       <defs>
        <path id="DejaVuSans-30" d="M 2034 4250 
Q 1547 4250 1301 3770 
Q 1056 3291 1056 2328 
Q 1056 1369 1301 889 
Q 1547 409 2034 409 
Q 2525 409 2770 889 
Q 3016 1369 3016 2328 
Q 3016 3291 2770 3770 
Q 2525 4250 2034 4250 
z
M 2034 4750 
Q 2819 4750 3233 4129 
Q 3647 3509 3647 2328 
Q 3647 1150 3233 529 
Q 2819 -91 2034 -91 
Q 1250 -91 836 529 
Q 422 1150 422 2328 
Q 422 3509 836 4129 
Q 1250 4750 2034 4750 
z
" transform="scale(0.015625)"/>
        <path id="DejaVuSans-38" d="M 2034 2216 
Q 1584 2216 1326 1975 
Q 1069 1734 1069 1313 
Q 1069 891 1326 650 
Q 1584 409 2034 409 
Q 2484 409 2743 651 
Q 3003 894 3003 1313 
Q 3003 1734 2745 1975 
Q 2488 2216 2034 2216 
z
M 1403 2484 
Q 997 2584 770 2862 
Q 544 3141 544 3541 
Q 544 4100 942 4425 
Q 1341 4750 2034 4750 
Q 2731 4750 3128 4425 
Q 3525 4100 3525 3541 
Q 3525 3141 3298 2862 
Q 3072 2584 2669 2484 
Q 3125 2378 3379 2068 
Q 3634 1759 3634 1313 
Q 3634 634 3220 271 
Q 2806 -91 2034 -91 
Q 1263 -91 848 271 
Q 434 634 434 1313 
Q 434 1759 690 2068 
Q 947 2378 1403 2484 
z
M 1172 3481 
Q 1172 3119 1398 2916 
Q 1625 2713 2034 2713 
Q 2441 2713 2670 2916 
Q 2900 3119 2900 3481 
Q 2900 3844 2670 4047 
Q 2441 4250 2034 4250 
Q 1625 4250 1398 4047 
Q 1172 3844 1172 3481 
z
" transform="scale(0.015625)"/>
        <path id="DejaVuSans-2f" d="M 1625 4666 
L 2156 4666 
L 531 -594 
L 0 -594 
L 1625 4666 
z
" transform="scale(0.015625)"/>
        <path id="DejaVuSans-31" d="M 794 531 
L 1825 531 
L 1825 4091 
L 703 3866 
L 703 4441 
L 1819 4666 
L 2450 4666 
L 2450 531 
L 3481 531 
L 3481 0 
L 794 0 
L 794 531 
z
" transform="scale(0.015625)"/>
        <path id="DejaVuSans-36" d="M 2113 2584 
Q 1688 2584 1439 2293 
Q 1191 2003 1191 1497 
Q 1191 994 1439 701 
Q 1688 409 2113 409 
Q 2538 409 2786 701 
Q 3034 994 3034 1497 
Q 3034 2003 2786 2293 
Q 2538 2584 2113 2584 
z
M 3366 4563 
L 3366 3988 
Q 3128 4100 2886 4159 
Q 2644 4219 2406 4219 
Q 1781 4219 1451 3797 
Q 1122 3375 1075 2522 
Q 1259 2794 1537 2939 
Q 1816 3084 2150 3084 
Q 2853 3084 3261 2657 
Q 3669 2231 3669 1497 
Q 3669 778 3244 343 
Q 2819 -91 2113 -91 
Q 1303 -91 875 529 
Q 447 1150 447 2328 
Q 447 3434 972 4092 
Q 1497 4750 2381 4750 
Q 2619 4750 2861 4703 
Q 3103 4656 3366 4563 
z
" transform="scale(0.015625)"/>
        <path id="DejaVuSans-32" d="M 1228 531 
L 3431 531 
L 3431 0 
L 469 0 
L 469 531 
Q 828 903 1448 1529 
Q 2069 2156 2228 2338 
Q 2531 2678 2651 2914 
Q 2772 3150 2772 3378 
Q 2772 3750 2511 3984 
Q 2250 4219 1831 4219 
Q 1534 4219 1204 4116 
Q 875 4013 500 3803 
L 500 4441 
Q 881 4594 1212 4672 
Q 1544 4750 1819 4750 
Q 2544 4750 2975 4387 
Q 3406 4025 3406 3419 
Q 3406 3131 3298 2873 
Q 3191 2616 2906 2266 
Q 2828 2175 2409 1742 
Q 1991 1309 1228 531 
z
" transform="scale(0.015625)"/>
       </defs>
       <use xlink:href="#DejaVuSans-30"/>
       <use xlink:href="#DejaVuSans-38" x="63.623047"/>
       <use xlink:href="#DejaVuSans-2f" x="127.246094"/>
       <use xlink:href="#DejaVuSans-31" x="160.9375"/>
       <use xlink:href="#DejaVuSans-36" x="224.560547"/>
       <use xlink:href="#DejaVuSans-2f" x="288.183594"/>
       <use xlink:href="#DejaVuSans-32" x="321.875"/>
       <use xlink:href="#DejaVuSans-30" x="385.498047"/>
      </g>
     </g>
    </g>
    <g id="xtick_2">
     <g id="line2d_3">
      <path d="M 148.682176 166.32 
L 148.682176 -0 
" clip-path="url(#pddd7f9a3a9)" style="fill: none; stroke: #ffffff; stroke-width: 0.8; stroke-linecap: square"/>
     </g>
     <g id="line2d_4">
      <g>
       <use xlink:href="#m7719ba0077" x="148.682176" y="166.32" style="fill: #555555; stroke: #555555; stroke-width: 0.8"/>
      </g>
     </g>
     <g id="text_2">
      <!-- 10/05/20 -->
      <g style="fill: #555555" transform="translate(126.225926 180.918437) scale(0.1 -0.1)">
       <defs>
        <path id="DejaVuSans-35" d="M 691 4666 
L 3169 4666 
L 3169 4134 
L 1269 4134 
L 1269 2991 
Q 1406 3038 1543 3061 
Q 1681 3084 1819 3084 
Q 2600 3084 3056 2656 
Q 3513 2228 3513 1497 
Q 3513 744 3044 326 
Q 2575 -91 1722 -91 
Q 1428 -91 1123 -41 
Q 819 9 494 109 
L 494 744 
Q 775 591 1075 516 
Q 1375 441 1709 441 
Q 2250 441 2565 725 
Q 2881 1009 2881 1497 
Q 2881 1984 2565 2268 
Q 2250 2553 1709 2553 
Q 1456 2553 1204 2497 
Q 953 2441 691 2322 
L 691 4666 
z
" transform="scale(0.015625)"/>
       </defs>
       <use xlink:href="#DejaVuSans-31"/>
       <use xlink:href="#DejaVuSans-30" x="63.623047"/>
       <use xlink:href="#DejaVuSans-2f" x="127.246094"/>
       <use xlink:href="#DejaVuSans-30" x="160.9375"/>
       <use xlink:href="#DejaVuSans-35" x="224.560547"/>
       <use xlink:href="#DejaVuSans-2f" x="288.183594"/>
       <use xlink:href="#DejaVuSans-32" x="321.875"/>
       <use xlink:href="#DejaVuSans-30" x="385.498047"/>
      </g>
     </g>
    </g>
    <g id="xtick_3">
     <g id="line2d_5">
      <path d="M 218.581961 166.32 
L 218.581961 -0 
" clip-path="url(#pddd7f9a3a9)" style="fill: none; stroke: #ffffff; stroke-width: 0.8; stroke-linecap: square"/>
     </g>
     <g id="line2d_6">
      <g>
       <use xlink:href="#m7719ba0077" x="218.581961" y="166.32" style="fill: #555555; stroke: #555555; stroke-width: 0.8"/>
      </g>
     </g>
     <g id="text_3">
      <!-- 11/24/20 -->
      <g style="fill: #555555" transform="translate(196.125711 180.918437) scale(0.1 -0.1)">
       <defs>
        <path id="DejaVuSans-34" d="M 2419 4116 
L 825 1625 
L 2419 1625 
L 2419 4116 
z
M 2253 4666 
L 3047 4666 
L 3047 1625 
L 3713 1625 
L 3713 1100 
L 3047 1100 
L 3047 0 
L 2419 0 
L 2419 1100 
L 313 1100 
L 313 1709 
L 2253 4666 
z
" transform="scale(0.015625)"/>
       </defs>
       <use xlink:href="#DejaVuSans-31"/>
       <use xlink:href="#DejaVuSans-31" x="63.623047"/>
       <use xlink:href="#DejaVuSans-2f" x="127.246094"/>
       <use xlink:href="#DejaVuSans-32" x="160.9375"/>
       <use xlink:href="#DejaVuSans-34" x="224.560547"/>
       <use xlink:href="#DejaVuSans-2f" x="288.183594"/>
       <use xlink:href="#DejaVuSans-32" x="321.875"/>
       <use xlink:href="#DejaVuSans-30" x="385.498047"/>
      </g>
     </g>
    </g>
    <g id="xtick_4">
     <g id="line2d_7">
      <path d="M 288.481746 166.32 
L 288.481746 -0 
" clip-path="url(#pddd7f9a3a9)" style="fill: none; stroke: #ffffff; stroke-width: 0.8; stroke-linecap: square"/>
     </g>
     <g id="line2d_8">
      <g>
       <use xlink:href="#m7719ba0077" x="288.481746" y="166.32" style="fill: #555555; stroke: #555555; stroke-width: 0.8"/>
      </g>
     </g>
     <g id="text_4">
      <!-- 01/13/21 -->
      <g style="fill: #555555" transform="translate(266.025496 180.918437) scale(0.1 -0.1)">
       <defs>
        <path id="DejaVuSans-33" d="M 2597 2516 
Q 3050 2419 3304 2112 
Q 3559 1806 3559 1356 
Q 3559 666 3084 287 
Q 2609 -91 1734 -91 
Q 1441 -91 1130 -33 
Q 819 25 488 141 
L 488 750 
Q 750 597 1062 519 
Q 1375 441 1716 441 
Q 2309 441 2620 675 
Q 2931 909 2931 1356 
Q 2931 1769 2642 2001 
Q 2353 2234 1838 2234 
L 1294 2234 
L 1294 2753 
L 1863 2753 
Q 2328 2753 2575 2939 
Q 2822 3125 2822 3475 
Q 2822 3834 2567 4026 
Q 2313 4219 1838 4219 
Q 1578 4219 1281 4162 
Q 984 4106 628 3988 
L 628 4550 
Q 988 4650 1302 4700 
Q 1616 4750 1894 4750 
Q 2613 4750 3031 4423 
Q 3450 4097 3450 3541 
Q 3450 3153 3228 2886 
Q 3006 2619 2597 2516 
z
" transform="scale(0.015625)"/>
       </defs>
       <use xlink:href="#DejaVuSans-30"/>
       <use xlink:href="#DejaVuSans-31" x="63.623047"/>
       <use xlink:href="#DejaVuSans-2f" x="127.246094"/>
       <use xlink:href="#DejaVuSans-31" x="160.9375"/>
       <use xlink:href="#DejaVuSans-33" x="224.560547"/>
       <use xlink:href="#DejaVuSans-2f" x="288.183594"/>
       <use xlink:href="#DejaVuSans-32" x="321.875"/>
       <use xlink:href="#DejaVuSans-31" x="385.498047"/>
      </g>
     </g>
    </g>
    <g id="xtick_5">
     <g id="line2d_9">
      <path d="M 358.381531 166.32 
L 358.381531 -0 
" clip-path="url(#pddd7f9a3a9)" style="fill: none; stroke: #ffffff; stroke-width: 0.8; stroke-linecap: square"/>
     </g>
     <g id="line2d_10">
      <g>
       <use xlink:href="#m7719ba0077" x="358.381531" y="166.32" style="fill: #555555; stroke: #555555; stroke-width: 0.8"/>
      </g>
     </g>
     <g id="text_5">
      <!-- 03/04/21 -->
      <g style="fill: #555555" transform="translate(335.925281 180.918437) scale(0.1 -0.1)">
       <use xlink:href="#DejaVuSans-30"/>
       <use xlink:href="#DejaVuSans-33" x="63.623047"/>
       <use xlink:href="#DejaVuSans-2f" x="127.246094"/>
       <use xlink:href="#DejaVuSans-30" x="160.9375"/>
       <use xlink:href="#DejaVuSans-34" x="224.560547"/>
       <use xlink:href="#DejaVuSans-2f" x="288.183594"/>
       <use xlink:href="#DejaVuSans-32" x="321.875"/>
       <use xlink:href="#DejaVuSans-31" x="385.498047"/>
      </g>
     </g>
    </g>
    <g id="xtick_6">
     <g id="line2d_11">
      <path d="M 428.281317 166.32 
L 428.281317 -0 
" clip-path="url(#pddd7f9a3a9)" style="fill: none; stroke: #ffffff; stroke-width: 0.8; stroke-linecap: square"/>
     </g>
     <g id="line2d_12">
      <g>
       <use xlink:href="#m7719ba0077" x="428.281317" y="166.32" style="fill: #555555; stroke: #555555; stroke-width: 0.8"/>
      </g>
     </g>
     <g id="text_6">
      <!-- 04/23/21 -->
      <g style="fill: #555555" transform="translate(405.825067 180.918437) scale(0.1 -0.1)">
       <use xlink:href="#DejaVuSans-30"/>
       <use xlink:href="#DejaVuSans-34" x="63.623047"/>
       <use xlink:href="#DejaVuSans-2f" x="127.246094"/>
       <use xlink:href="#DejaVuSans-32" x="160.9375"/>
       <use xlink:href="#DejaVuSans-33" x="224.560547"/>
       <use xlink:href="#DejaVuSans-2f" x="288.183594"/>
       <use xlink:href="#DejaVuSans-32" x="321.875"/>
       <use xlink:href="#DejaVuSans-31" x="385.498047"/>
      </g>
     </g>
    </g>
    <g id="text_7">
     <!-- Date -->
     <g style="fill: #555555" transform="translate(232.200938 196.11625) scale(0.12 -0.12)">
      <defs>
       <path id="DejaVuSans-44" d="M 1259 4147 
L 1259 519 
L 2022 519 
Q 2988 519 3436 956 
Q 3884 1394 3884 2338 
Q 3884 3275 3436 3711 
Q 2988 4147 2022 4147 
L 1259 4147 
z
M 628 4666 
L 1925 4666 
Q 3281 4666 3915 4102 
Q 4550 3538 4550 2338 
Q 4550 1131 3912 565 
Q 3275 0 1925 0 
L 628 0 
L 628 4666 
z
" transform="scale(0.015625)"/>
       <path id="DejaVuSans-61" d="M 2194 1759 
Q 1497 1759 1228 1600 
Q 959 1441 959 1056 
Q 959 750 1161 570 
Q 1363 391 1709 391 
Q 2188 391 2477 730 
Q 2766 1069 2766 1631 
L 2766 1759 
L 2194 1759 
z
M 3341 1997 
L 3341 0 
L 2766 0 
L 2766 531 
Q 2569 213 2275 61 
Q 1981 -91 1556 -91 
Q 1019 -91 701 211 
Q 384 513 384 1019 
Q 384 1609 779 1909 
Q 1175 2209 1959 2209 
L 2766 2209 
L 2766 2266 
Q 2766 2663 2505 2880 
Q 2244 3097 1772 3097 
Q 1472 3097 1187 3025 
Q 903 2953 641 2809 
L 641 3341 
Q 956 3463 1253 3523 
Q 1550 3584 1831 3584 
Q 2591 3584 2966 3190 
Q 3341 2797 3341 1997 
z
" transform="scale(0.015625)"/>
       <path id="DejaVuSans-74" d="M 1172 4494 
L 1172 3500 
L 2356 3500 
L 2356 3053 
L 1172 3053 
L 1172 1153 
Q 1172 725 1289 603 
Q 1406 481 1766 481 
L 2356 481 
L 2356 0 
L 1766 0 
Q 1100 0 847 248 
Q 594 497 594 1153 
L 594 3053 
L 172 3053 
L 172 3500 
L 594 3500 
L 594 4494 
L 1172 4494 
z
" transform="scale(0.015625)"/>
       <path id="DejaVuSans-65" d="M 3597 1894 
L 3597 1613 
L 953 1613 
Q 991 1019 1311 708 
Q 1631 397 2203 397 
Q 2534 397 2845 478 
Q 3156 559 3463 722 
L 3463 178 
Q 3153 47 2828 -22 
Q 2503 -91 2169 -91 
Q 1331 -91 842 396 
Q 353 884 353 1716 
Q 353 2575 817 3079 
Q 1281 3584 2069 3584 
Q 2775 3584 3186 3129 
Q 3597 2675 3597 1894 
z
M 3022 2063 
Q 3016 2534 2758 2815 
Q 2500 3097 2075 3097 
Q 1594 3097 1305 2825 
Q 1016 2553 972 2059 
L 3022 2063 
z
" transform="scale(0.015625)"/>
      </defs>
      <use xlink:href="#DejaVuSans-44"/>
      <use xlink:href="#DejaVuSans-61" x="77.001953"/>
      <use xlink:href="#DejaVuSans-74" x="138.28125"/>
      <use xlink:href="#DejaVuSans-65" x="177.490234"/>
     </g>
    </g>
   </g>
   <g id="matplotlib.axis_2">
    <g id="ytick_1">
     <g id="line2d_13">
      <path d="M 51.241875 161.260821 
L 441.841875 161.260821 
" clip-path="url(#pddd7f9a3a9)" style="fill: none; stroke: #ffffff; stroke-width: 0.8; stroke-linecap: square"/>
     </g>
     <g id="line2d_14">
      <defs>
       <path id="ma4414077b6" d="M 0 0 
L -3.5 0 
" style="stroke: #555555; stroke-width: 0.8"/>
      </defs>
      <g>
       <use xlink:href="#ma4414077b6" x="51.241875" y="161.260821" style="fill: #555555; stroke: #555555; stroke-width: 0.8"/>
      </g>
     </g>
     <g id="text_8">
      <!-- 0.000 -->
      <g style="fill: #555555" transform="translate(15.61375 165.060039) scale(0.1 -0.1)">
       <defs>
        <path id="DejaVuSans-2e" d="M 684 794 
L 1344 794 
L 1344 0 
L 684 0 
L 684 794 
z
" transform="scale(0.015625)"/>
       </defs>
       <use xlink:href="#DejaVuSans-30"/>
       <use xlink:href="#DejaVuSans-2e" x="63.623047"/>
       <use xlink:href="#DejaVuSans-30" x="95.410156"/>
       <use xlink:href="#DejaVuSans-30" x="159.033203"/>
       <use xlink:href="#DejaVuSans-30" x="222.65625"/>
      </g>
     </g>
    </g>
    <g id="ytick_2">
     <g id="line2d_15">
      <path d="M 51.241875 128.324117 
L 441.841875 128.324117 
" clip-path="url(#pddd7f9a3a9)" style="fill: none; stroke: #ffffff; stroke-width: 0.8; stroke-linecap: square"/>
     </g>
     <g id="line2d_16">
      <g>
       <use xlink:href="#ma4414077b6" x="51.241875" y="128.324117" style="fill: #555555; stroke: #555555; stroke-width: 0.8"/>
      </g>
     </g>
     <g id="text_9">
      <!-- 0.005 -->
      <g style="fill: #555555" transform="translate(15.61375 132.123335) scale(0.1 -0.1)">
       <use xlink:href="#DejaVuSans-30"/>
       <use xlink:href="#DejaVuSans-2e" x="63.623047"/>
       <use xlink:href="#DejaVuSans-30" x="95.410156"/>
       <use xlink:href="#DejaVuSans-30" x="159.033203"/>
       <use xlink:href="#DejaVuSans-35" x="222.65625"/>
      </g>
     </g>
    </g>
    <g id="ytick_3">
     <g id="line2d_17">
      <path d="M 51.241875 95.387412 
L 441.841875 95.387412 
" clip-path="url(#pddd7f9a3a9)" style="fill: none; stroke: #ffffff; stroke-width: 0.8; stroke-linecap: square"/>
     </g>
     <g id="line2d_18">
      <g>
       <use xlink:href="#ma4414077b6" x="51.241875" y="95.387412" style="fill: #555555; stroke: #555555; stroke-width: 0.8"/>
      </g>
     </g>
     <g id="text_10">
      <!-- 0.010 -->
      <g style="fill: #555555" transform="translate(15.61375 99.186631) scale(0.1 -0.1)">
       <use xlink:href="#DejaVuSans-30"/>
       <use xlink:href="#DejaVuSans-2e" x="63.623047"/>
       <use xlink:href="#DejaVuSans-30" x="95.410156"/>
       <use xlink:href="#DejaVuSans-31" x="159.033203"/>
       <use xlink:href="#DejaVuSans-30" x="222.65625"/>
      </g>
     </g>
    </g>
    <g id="ytick_4">
     <g id="line2d_19">
      <path d="M 51.241875 62.450708 
L 441.841875 62.450708 
" clip-path="url(#pddd7f9a3a9)" style="fill: none; stroke: #ffffff; stroke-width: 0.8; stroke-linecap: square"/>
     </g>
     <g id="line2d_20">
      <g>
       <use xlink:href="#ma4414077b6" x="51.241875" y="62.450708" style="fill: #555555; stroke: #555555; stroke-width: 0.8"/>
      </g>
     </g>
     <g id="text_11">
      <!-- 0.015 -->
      <g style="fill: #555555" transform="translate(15.61375 66.249927) scale(0.1 -0.1)">
       <use xlink:href="#DejaVuSans-30"/>
       <use xlink:href="#DejaVuSans-2e" x="63.623047"/>
       <use xlink:href="#DejaVuSans-30" x="95.410156"/>
       <use xlink:href="#DejaVuSans-31" x="159.033203"/>
       <use xlink:href="#DejaVuSans-35" x="222.65625"/>
      </g>
     </g>
    </g>
    <g id="ytick_5">
     <g id="line2d_21">
      <path d="M 51.241875 29.514004 
L 441.841875 29.514004 
" clip-path="url(#pddd7f9a3a9)" style="fill: none; stroke: #ffffff; stroke-width: 0.8; stroke-linecap: square"/>
     </g>
     <g id="line2d_22">
      <g>
       <use xlink:href="#ma4414077b6" x="51.241875" y="29.514004" style="fill: #555555; stroke: #555555; stroke-width: 0.8"/>
      </g>
     </g>
     <g id="text_12">
      <!-- 0.020 -->
      <g style="fill: #555555" transform="translate(15.61375 33.313223) scale(0.1 -0.1)">
       <use xlink:href="#DejaVuSans-30"/>
       <use xlink:href="#DejaVuSans-2e" x="63.623047"/>
       <use xlink:href="#DejaVuSans-30" x="95.410156"/>
       <use xlink:href="#DejaVuSans-32" x="159.033203"/>
       <use xlink:href="#DejaVuSans-30" x="222.65625"/>
      </g>
     </g>
    </g>
    <g id="text_13">
     <!-- Value -->
     <g style="fill: #555555" transform="translate(9.118125 99.6375) rotate(-90) scale(0.12 -0.12)">
      <defs>
       <path id="DejaVuSans-56" d="M 1831 0 
L 50 4666 
L 709 4666 
L 2188 738 
L 3669 4666 
L 4325 4666 
L 2547 0 
L 1831 0 
z
" transform="scale(0.015625)"/>
       <path id="DejaVuSans-6c" d="M 603 4863 
L 1178 4863 
L 1178 0 
L 603 0 
L 603 4863 
z
" transform="scale(0.015625)"/>
       <path id="DejaVuSans-75" d="M 544 1381 
L 544 3500 
L 1119 3500 
L 1119 1403 
Q 1119 906 1312 657 
Q 1506 409 1894 409 
Q 2359 409 2629 706 
Q 2900 1003 2900 1516 
L 2900 3500 
L 3475 3500 
L 3475 0 
L 2900 0 
L 2900 538 
Q 2691 219 2414 64 
Q 2138 -91 1772 -91 
Q 1169 -91 856 284 
Q 544 659 544 1381 
z
M 1991 3584 
L 1991 3584 
z
" transform="scale(0.015625)"/>
      </defs>
      <use xlink:href="#DejaVuSans-56"/>
      <use xlink:href="#DejaVuSans-61" x="60.658203"/>
      <use xlink:href="#DejaVuSans-6c" x="121.9375"/>
      <use xlink:href="#DejaVuSans-75" x="149.720703"/>
      <use xlink:href="#DejaVuSans-65" x="213.099609"/>
     </g>
    </g>
   </g>
   <g id="PolyCollection_1">
    <defs>
     <path id="ma98d3daf7a" d="M 68.99642 -60.315427 
L 68.99642 -75.259184 
L 70.394416 -75.417611 
L 71.792412 -72.039158 
L 73.190408 -76.098439 
L 74.588403 -75.914854 
L 75.986399 -76.065805 
L 77.384395 -77.079565 
L 78.78239 -77.1993 
L 80.180386 -83.744672 
L 81.578382 -81.727371 
L 82.976378 -87.161678 
L 84.374373 -87.747517 
L 85.772369 -80.047685 
L 87.170365 -81.121152 
L 88.56836 -75.185184 
L 89.966356 -75.23573 
L 91.364352 -72.757155 
L 92.762347 -71.817556 
L 94.160343 -73.44727 
L 95.558339 -72.585457 
L 96.956335 -48.479667 
L 98.35433 -49.78666 
L 99.752326 -48.369948 
L 101.150322 -50.017142 
L 102.548317 -44.166961 
L 103.946313 -44.143037 
L 105.344309 -43.525183 
L 106.742304 -44.097165 
L 108.1403 -46.972985 
L 109.538296 -46.756098 
L 110.936292 -46.510566 
L 112.334287 -46.269256 
L 113.732283 -64.975465 
L 115.130279 -62.814345 
L 116.528274 -62.867677 
L 117.92627 -61.790121 
L 119.324266 -60.937554 
L 120.722262 -59.487961 
L 122.120257 -58.215651 
L 123.518253 -59.364417 
L 124.916249 -59.970842 
L 126.314244 -59.641021 
L 127.71224 -59.32731 
L 129.110236 -60.023259 
L 130.508231 -59.692688 
L 131.906227 -71.70049 
L 133.304223 -62.018623 
L 134.702219 -66.268426 
L 136.100214 -65.85511 
L 137.49821 -68.858564 
L 138.896206 -70.684473 
L 140.294201 -70.463575 
L 141.692197 -72.086504 
L 143.090193 -72.815627 
L 144.488189 -68.77522 
L 145.886184 -71.993161 
L 147.28418 -101.988753 
L 148.682176 -104.11346 
L 150.080171 -103.511334 
L 151.478167 -75.196166 
L 152.876163 -76.024291 
L 154.274158 -77.231621 
L 155.672154 -76.391154 
L 157.07015 -74.28327 
L 158.468146 -75.133957 
L 159.866141 -75.808322 
L 161.264137 -72.669466 
L 162.662133 -75.072495 
L 164.060128 -75.765964 
L 165.458124 -109.604597 
L 166.85612 -108.419274 
L 168.254116 -78.795111 
L 169.652111 -76.97265 
L 171.050107 -91.481146 
L 172.448103 -108.121603 
L 173.846098 -105.030024 
L 175.244094 -87.020024 
L 176.64209 -105.599111 
L 178.040085 -108.901642 
L 179.438081 -106.449635 
L 180.836077 -106.403373 
L 182.234073 -108.153748 
L 183.632068 -107.022161 
L 185.030064 -104.682993 
L 186.42806 -105.312135 
L 187.826055 -105.044633 
L 189.224051 -105.082995 
L 190.622047 -90.011428 
L 192.020043 -87.811584 
L 193.418038 -88.638788 
L 194.816034 -89.499002 
L 196.21403 -87.456972 
L 197.612025 -78.079134 
L 199.010021 -78.131298 
L 200.408017 -91.463248 
L 201.806012 -79.223769 
L 203.204008 -93.610145 
L 204.602004 -114.485255 
L 206 -113.879151 
L 207.397995 -119.681725 
L 208.795991 -100.046377 
L 210.193987 -119.462483 
L 211.591982 -119.974214 
L 212.989978 -122.570456 
L 214.387974 -123.688725 
L 215.785969 -126.890301 
L 217.183965 -123.678811 
L 218.581961 -123.504631 
L 219.979957 -124.218715 
L 221.377952 -134.376529 
L 222.775948 -126.710948 
L 224.173944 -122.243601 
L 225.571939 -124.460386 
L 226.969935 -121.127689 
L 228.367931 -122.047303 
L 229.765927 -123.097426 
L 231.163922 -121.123897 
L 232.561918 -119.196493 
L 233.959914 -117.8441 
L 235.357909 -119.238758 
L 236.755905 -119.600988 
L 238.153901 -118.246701 
L 239.551896 -119.765078 
L 240.949892 -83.090973 
L 242.347888 -110.351882 
L 243.745884 -107.546789 
L 245.143879 -110.595664 
L 246.541875 -116.188038 
L 247.939871 -114.913167 
L 249.337866 -106.617928 
L 250.735862 -106.842089 
L 252.133858 -94.243491 
L 253.531854 -91.406032 
L 254.929849 -91.549557 
L 256.327845 -90.457374 
L 257.725841 -91.285671 
L 259.123836 -90.001123 
L 260.521832 -87.84302 
L 261.919828 -88.278171 
L 263.317823 -89.397518 
L 264.715819 -89.686859 
L 266.113815 -87.74984 
L 267.511811 -88.391367 
L 268.909806 -86.955972 
L 270.307802 -88.22254 
L 271.705798 -87.310063 
L 273.103793 -86.50231 
L 274.501789 -87.896799 
L 275.899785 -75.923953 
L 277.297781 -75.849167 
L 278.695776 -56.517273 
L 280.093772 -54.566955 
L 281.491768 -56.638242 
L 282.889763 -55.711387 
L 284.287759 -54.761364 
L 285.685755 -55.362699 
L 287.08375 -53.996358 
L 288.481746 -44.716843 
L 289.879742 -42.265952 
L 291.277738 -42.013287 
L 292.675733 -43.206552 
L 294.073729 -44.616917 
L 295.471725 -52.386693 
L 296.86972 -53.438484 
L 298.267716 -53.201083 
L 299.665712 -54.108343 
L 301.063707 -53.697248 
L 302.461703 -55.700089 
L 303.859699 -55.687501 
L 305.257695 -55.62421 
L 306.65569 -56.406997 
L 308.053686 -67.974651 
L 309.451682 -72.532589 
L 310.849677 -72.894895 
L 312.247673 -84.324107 
L 313.645669 -85.444989 
L 315.043665 -85.54725 
L 316.44166 -85.747599 
L 317.839656 -85.975461 
L 319.237652 -89.201641 
L 320.635647 -84.85823 
L 322.033643 -83.940251 
L 323.431639 -84.73315 
L 324.829634 -84.193953 
L 326.22763 -85.631003 
L 327.625626 -84.357233 
L 329.023622 -83.770154 
L 330.421617 -84.073997 
L 331.819613 -69.526665 
L 333.217609 -69.708502 
L 334.615604 -68.403678 
L 336.0136 -68.850734 
L 337.411596 -44.31018 
L 338.809592 -56.723515 
L 340.207587 -53.466183 
L 341.605583 -54.28608 
L 343.003579 -54.564842 
L 344.401574 -54.778985 
L 345.79957 -44.85648 
L 347.197566 -55.209707 
L 348.595561 -57.426379 
L 349.993557 -59.803071 
L 351.391553 -59.974718 
L 352.789549 -60.039136 
L 354.187544 -92.82444 
L 355.58554 -75.397929 
L 356.983536 -91.943738 
L 358.381531 -166.0997 
L 359.779527 -174.238688 
L 361.177523 -182.239598 
L 362.575519 -177.679957 
L 363.973514 -182.185319 
L 365.37151 -181.563939 
L 366.769506 -187.480988 
L 368.167501 -185.373031 
L 369.565497 -184.185483 
L 370.963493 -187.698046 
L 372.361488 -186.47799 
L 373.759484 -189.579288 
L 375.15748 -191.051875 
L 376.555476 -189.887935 
L 377.953471 -186.955736 
L 379.351467 -188.984393 
L 380.749463 -182.262208 
L 382.147458 -186.842727 
L 383.545454 -141.296998 
L 384.94345 -143.896591 
L 386.341446 -144.889061 
L 387.739441 -146.612129 
L 389.137437 -144.407351 
L 390.535433 -134.955134 
L 391.933428 -136.304066 
L 393.331424 -98.377366 
L 394.72942 -99.817014 
L 396.127415 -99.681115 
L 397.525411 -91.478883 
L 398.923407 -76.03496 
L 400.321403 -76.308857 
L 401.719398 -77.11718 
L 403.117394 -71.901556 
L 404.51539 -69.037519 
L 405.913385 -68.227106 
L 407.311381 -63.730789 
L 408.709377 -65.314966 
L 410.107372 -63.404507 
L 411.505368 -64.84303 
L 412.903364 -63.491666 
L 414.30136 -48.986422 
L 415.699355 -62.778438 
L 417.097351 -47.804643 
L 418.495347 -47.527289 
L 419.893342 -47.163452 
L 421.291338 -47.432522 
L 422.689334 -48.811238 
L 424.08733 -48.816049 
L 424.08733 -46.379442 
L 424.08733 -46.379442 
L 422.689334 -46.207358 
L 421.291338 -45.190095 
L 419.893342 -45.198752 
L 418.495347 -45.138481 
L 417.097351 -45.200135 
L 415.699355 -52.16385 
L 414.30136 -46.358581 
L 412.903364 -53.164514 
L 411.505368 -53.457843 
L 410.107372 -53.215697 
L 408.709377 -54.750126 
L 407.311381 -53.041469 
L 405.913385 -55.75272 
L 404.51539 -56.522371 
L 403.117394 -58.874619 
L 401.719398 -65.18583 
L 400.321403 -64.626347 
L 398.923407 -63.339141 
L 397.525411 -76.784398 
L 396.127415 -83.227796 
L 394.72942 -83.309041 
L 393.331424 -81.397843 
L 391.933428 -113.875399 
L 390.535433 -113.808505 
L 389.137437 -122.325939 
L 387.739441 -123.814724 
L 386.341446 -120.566796 
L 384.94345 -120.771901 
L 383.545454 -118.449324 
L 382.147458 -147.093842 
L 380.749463 -144.884704 
L 379.351467 -147.23376 
L 377.953471 -146.551908 
L 376.555476 -151.249085 
L 375.15748 -151.969377 
L 373.759484 -153.272877 
L 372.361488 -151.402477 
L 370.963493 -153.596453 
L 369.565497 -148.981944 
L 368.167501 -145.20277 
L 366.769506 -149.633857 
L 365.37151 -149.713567 
L 363.973514 -143.882051 
L 362.575519 -145.446672 
L 361.177523 -147.500358 
L 359.779527 -140.156414 
L 358.381531 -134.107603 
L 356.983536 -81.075774 
L 355.58554 -65.459467 
L 354.187544 -81.902833 
L 352.789549 -52.158943 
L 351.391553 -51.751603 
L 349.993557 -51.530661 
L 348.595561 -49.637216 
L 347.197566 -48.275389 
L 345.79957 -43.09509 
L 344.401574 -47.87277 
L 343.003579 -47.94438 
L 341.605583 -47.411207 
L 340.207587 -47.051685 
L 338.809592 -49.694448 
L 337.411596 -42.851993 
L 336.0136 -60.4172 
L 334.615604 -59.872077 
L 333.217609 -61.019518 
L 331.819613 -60.34925 
L 330.421617 -73.99711 
L 329.023622 -74.418944 
L 327.625626 -73.629641 
L 326.22763 -75.61598 
L 324.829634 -74.418675 
L 323.431639 -75.02662 
L 322.033643 -75.050578 
L 320.635647 -74.482107 
L 319.237652 -79.301152 
L 317.839656 -76.002501 
L 316.44166 -74.672298 
L 315.043665 -75.000839 
L 313.645669 -75.314484 
L 312.247673 -73.570061 
L 310.849677 -63.415301 
L 309.451682 -63.758634 
L 308.053686 -58.94382 
L 306.65569 -49.877963 
L 305.257695 -49.138367 
L 303.859699 -49.220491 
L 302.461703 -49.151407 
L 301.063707 -48.145365 
L 299.665712 -48.181724 
L 298.267716 -47.405264 
L 296.86972 -46.926953 
L 295.471725 -46.38689 
L 294.073729 -42.673892 
L 292.675733 -41.658915 
L 291.277738 -40.785316 
L 289.879742 -40.696293 
L 288.481746 -43.056982 
L 287.08375 -47.84828 
L 285.685755 -48.80223 
L 284.287759 -48.455822 
L 282.889763 -49.499245 
L 281.491768 -49.960431 
L 280.093772 -48.090991 
L 278.695776 -49.922485 
L 277.297781 -64.952142 
L 275.899785 -66.203357 
L 274.501789 -76.90139 
L 273.103793 -76.420022 
L 271.705798 -77.11693 
L 270.307802 -77.005585 
L 268.909806 -76.083316 
L 267.511811 -77.186225 
L 266.113815 -77.351659 
L 264.715819 -78.668466 
L 263.317823 -78.177569 
L 261.919828 -77.764398 
L 260.521832 -77.283708 
L 259.123836 -79.356307 
L 257.725841 -79.034031 
L 256.327845 -79.352972 
L 254.929849 -79.576024 
L 253.531854 -80.890909 
L 252.133858 -80.553975 
L 250.735862 -90.792704 
L 249.337866 -90.72881 
L 247.939871 -97.083928 
L 246.541875 -97.359678 
L 245.143879 -94.18955 
L 243.745884 -92.233411 
L 242.347888 -92.74888 
L 240.949892 -69.188965 
L 239.551896 -100.506299 
L 238.153901 -100.556733 
L 236.755905 -102.880112 
L 235.357909 -98.235843 
L 233.959914 -100.451621 
L 232.561918 -100.099184 
L 231.163922 -102.59471 
L 229.765927 -104.884922 
L 228.367931 -104.358008 
L 226.969935 -100.252418 
L 225.571939 -103.870039 
L 224.173944 -103.740264 
L 222.775948 -105.230022 
L 221.377952 -115.122782 
L 219.979957 -102.908295 
L 218.581961 -104.336508 
L 217.183965 -103.435529 
L 215.785969 -107.078576 
L 214.387974 -104.775943 
L 212.989978 -102.214508 
L 211.591982 -103.942527 
L 210.193987 -100.956298 
L 208.795991 -82.434666 
L 207.397995 -101.023396 
L 206 -95.431758 
L 204.602004 -96.283695 
L 203.204008 -77.367102 
L 201.806012 -68.333473 
L 200.408017 -75.242187 
L 199.010021 -66.000262 
L 197.612025 -67.176131 
L 196.21403 -73.836658 
L 194.816034 -73.701671 
L 193.418038 -74.038047 
L 192.020043 -73.944875 
L 190.622047 -75.297669 
L 189.224051 -89.515279 
L 187.826055 -89.865834 
L 186.42806 -89.526835 
L 185.030064 -90.116333 
L 183.632068 -93.611098 
L 182.234073 -92.524355 
L 180.836077 -93.331252 
L 179.438081 -91.024903 
L 178.040085 -92.996547 
L 176.64209 -89.811897 
L 175.244094 -73.437472 
L 173.846098 -89.253896 
L 172.448103 -91.506929 
L 171.050107 -74.89374 
L 169.652111 -65.913413 
L 168.254116 -67.79081 
L 166.85612 -91.816287 
L 165.458124 -92.749046 
L 164.060128 -65.046042 
L 162.662133 -64.543302 
L 161.264137 -60.827251 
L 159.866141 -63.826267 
L 158.468146 -64.082208 
L 157.07015 -63.847654 
L 155.672154 -65.465157 
L 154.274158 -66.937465 
L 152.876163 -64.717508 
L 151.478167 -64.53345 
L 150.080171 -87.963331 
L 148.682176 -89.573113 
L 147.28418 -88.031917 
L 145.886184 -62.173865 
L 144.488189 -59.179487 
L 143.090193 -62.564216 
L 141.692197 -62.377739 
L 140.294201 -62.68254 
L 138.896206 -60.954604 
L 137.49821 -60.871008 
L 136.100214 -57.030903 
L 134.702219 -57.954447 
L 133.304223 -53.487008 
L 131.906227 -63.737249 
L 130.508231 -52.371498 
L 129.110236 -52.29089 
L 127.71224 -52.735645 
L 126.314244 -52.387965 
L 124.916249 -52.55005 
L 123.518253 -52.029456 
L 122.120257 -50.117444 
L 120.722262 -51.433795 
L 119.324266 -52.162169 
L 117.92627 -53.604394 
L 116.528274 -53.623743 
L 115.130279 -53.864878 
L 113.732283 -54.141157 
L 112.334287 -44.236074 
L 110.936292 -44.574137 
L 109.538296 -44.662623 
L 108.1403 -44.94373 
L 106.742304 -42.253485 
L 105.344309 -41.572391 
L 103.946313 -42.274928 
L 102.548317 -42.275914 
L 101.150322 -47.428951 
L 99.752326 -46.221492 
L 98.35433 -47.307464 
L 96.956335 -46.122015 
L 95.558339 -58.769852 
L 94.160343 -59.02831 
L 92.762347 -57.831878 
L 91.364352 -58.845587 
L 89.966356 -60.268822 
L 88.56836 -60.281911 
L 87.170365 -66.17154 
L 85.772369 -64.377993 
L 84.374373 -69.893138 
L 82.976378 -69.975398 
L 81.578382 -65.783172 
L 80.180386 -67.645386 
L 78.78239 -61.345926 
L 77.384395 -61.761804 
L 75.986399 -60.643075 
L 74.588403 -61.559235 
L 73.190408 -62.328534 
L 71.792412 -58.338485 
L 70.394416 -61.434453 
L 68.99642 -60.315427 
z
" style="stroke: #134a8e; stroke-opacity: 0.5; stroke-width: 0.5"/>
    </defs>
    <g clip-path="url(#pddd7f9a3a9)">
     <use xlink:href="#ma98d3daf7a" x="0" y="198.611875" style="fill: #134a8e; fill-opacity: 0.5; stroke: #134a8e; stroke-opacity: 0.5; stroke-width: 0.5"/>
    </g>
   </g>
   <g id="line2d_23">
    <path d="M 68.99642 130.824569 
L 70.394416 130.185843 
L 71.792412 133.423053 
L 73.190408 129.398388 
L 75.986399 130.257435 
L 77.384395 129.191191 
L 78.78239 129.339262 
L 80.180386 122.916846 
L 81.578382 124.856604 
L 82.976378 120.043337 
L 84.374373 119.791548 
L 85.772369 126.399036 
L 87.170365 124.965529 
L 88.56836 130.878327 
L 89.966356 130.859599 
L 91.364352 132.810504 
L 92.762347 133.787158 
L 94.160343 132.374085 
L 95.558339 132.93422 
L 96.956335 151.311034 
L 98.35433 150.064813 
L 99.752326 151.316155 
L 101.150322 149.888829 
L 102.548317 155.390438 
L 103.946313 155.402892 
L 105.344309 156.063088 
L 106.742304 155.43655 
L 108.1403 152.653517 
L 112.334287 153.35921 
L 113.732283 139.053564 
L 115.130279 140.272264 
L 116.528274 140.366165 
L 117.92627 140.914617 
L 122.120257 144.445327 
L 123.518253 142.914938 
L 124.916249 142.351429 
L 126.314244 142.597382 
L 130.508231 142.579782 
L 131.906227 130.893006 
L 133.304223 140.859059 
L 134.702219 136.500438 
L 136.100214 137.168869 
L 137.49821 133.747089 
L 138.896206 132.792336 
L 141.692197 131.379753 
L 143.090193 130.921953 
L 144.488189 134.634521 
L 145.886184 131.528362 
L 147.28418 103.60154 
L 148.682176 101.768588 
L 150.080171 102.874542 
L 151.478167 128.747067 
L 152.876163 128.240976 
L 154.274158 126.527332 
L 155.672154 127.68372 
L 157.07015 129.546413 
L 158.468146 129.003793 
L 159.866141 128.794581 
L 161.264137 131.863516 
L 162.662133 128.803977 
L 164.060128 128.205872 
L 165.458124 97.435053 
L 166.85612 98.494095 
L 168.254116 125.318915 
L 169.652111 127.168843 
L 171.050107 115.424432 
L 172.448103 98.797609 
L 173.846098 101.469915 
L 175.244094 118.383127 
L 176.64209 100.906371 
L 178.040085 97.66278 
L 179.438081 99.874606 
L 180.836077 98.744562 
L 182.234073 98.272824 
L 183.632068 98.295245 
L 185.030064 101.212212 
L 187.826055 101.156641 
L 189.224051 101.312738 
L 190.622047 115.957326 
L 192.020043 117.733646 
L 193.418038 117.273457 
L 194.816034 117.011539 
L 196.21403 117.96506 
L 197.612025 125.984243 
L 199.010021 126.546095 
L 200.408017 115.259157 
L 201.806012 124.833254 
L 203.204008 113.123251 
L 204.602004 93.2274 
L 206 93.95642 
L 207.397995 88.259314 
L 208.795991 107.371354 
L 210.193987 88.402484 
L 211.591982 86.653505 
L 212.989978 86.219393 
L 214.387974 84.379541 
L 215.785969 81.627436 
L 217.183965 85.054705 
L 218.581961 84.691306 
L 219.979957 85.04837 
L 221.377952 73.862219 
L 222.775948 82.64139 
L 224.173944 85.619943 
L 225.571939 84.446662 
L 226.969935 87.921822 
L 228.367931 85.409219 
L 229.765927 84.620701 
L 232.561918 88.964037 
L 235.357909 89.874575 
L 236.755905 87.371325 
L 238.153901 89.210158 
L 239.551896 88.476187 
L 240.949892 122.471906 
L 242.347888 97.061494 
L 243.745884 98.721775 
L 245.143879 96.219268 
L 246.541875 91.838017 
L 247.939871 92.613327 
L 249.337866 99.938506 
L 250.735862 99.794478 
L 252.133858 111.213142 
L 253.531854 112.463404 
L 256.327845 113.706702 
L 257.725841 113.452024 
L 259.123836 113.93316 
L 260.521832 116.048511 
L 261.919828 115.590591 
L 263.317823 114.824332 
L 264.715819 114.434212 
L 266.113815 116.061125 
L 267.511811 115.823079 
L 268.909806 117.092231 
L 270.307802 115.997812 
L 271.705798 116.398378 
L 273.103793 117.150709 
L 274.501789 116.212781 
L 275.899785 127.54822 
L 277.297781 128.211221 
L 278.695776 145.391996 
L 280.093772 147.282902 
L 281.491768 145.312538 
L 282.889763 146.006559 
L 284.287759 147.003282 
L 285.685755 146.52941 
L 287.08375 147.689556 
L 288.481746 154.724962 
L 289.879742 157.130752 
L 291.277738 157.212573 
L 292.675733 156.179141 
L 294.073729 154.96647 
L 295.471725 149.225083 
L 296.86972 148.429157 
L 298.267716 148.308702 
L 299.665712 147.466841 
L 301.063707 147.690568 
L 302.461703 146.186127 
L 305.257695 146.230587 
L 306.65569 145.469395 
L 308.053686 135.152639 
L 309.451682 130.466263 
L 310.849677 130.456777 
L 312.247673 119.664791 
L 313.645669 118.232139 
L 316.44166 118.401927 
L 317.839656 117.622894 
L 319.237652 114.360479 
L 320.635647 118.941707 
L 322.033643 119.11646 
L 323.431639 118.73199 
L 324.829634 119.305561 
L 326.22763 117.988383 
L 327.625626 119.618438 
L 329.023622 119.517326 
L 330.421617 119.576322 
L 331.819613 133.673918 
L 333.217609 133.247865 
L 334.615604 134.473997 
L 336.0136 133.977908 
L 337.411596 155.030788 
L 338.809592 145.402893 
L 340.207587 148.352941 
L 341.605583 147.763232 
L 343.003579 147.357264 
L 344.401574 147.285998 
L 345.79957 154.63609 
L 347.197566 146.869327 
L 348.595561 145.080077 
L 349.993557 142.945009 
L 352.789549 142.512835 
L 354.187544 111.248239 
L 355.58554 128.183177 
L 356.983536 112.102119 
L 358.381531 48.508224 
L 359.779527 41.414324 
L 361.177523 33.741897 
L 362.575519 37.048561 
L 363.973514 35.57819 
L 365.37151 32.973122 
L 366.769506 30.054453 
L 368.167501 33.323975 
L 369.565497 32.028162 
L 370.963493 27.964625 
L 372.361488 29.671642 
L 373.759484 27.185793 
L 375.15748 27.101249 
L 376.555476 28.043365 
L 377.953471 31.858053 
L 379.351467 30.502799 
L 380.749463 35.038419 
L 382.147458 31.643591 
L 383.545454 68.738714 
L 384.94345 66.277629 
L 386.341446 65.883947 
L 387.739441 63.398448 
L 389.137437 65.24523 
L 390.535433 74.230056 
L 391.933428 73.522143 
L 393.331424 108.72427 
L 394.72942 107.048848 
L 396.127415 107.15742 
L 397.525411 114.480234 
L 398.923407 128.924824 
L 401.719398 127.46037 
L 403.117394 133.223788 
L 404.51539 135.83193 
L 405.913385 136.621962 
L 407.311381 140.225746 
L 408.709377 138.579329 
L 410.107372 140.301773 
L 411.505368 139.461439 
L 412.903364 140.283785 
L 414.30136 150.939373 
L 415.699355 141.140731 
L 417.097351 152.109486 
L 419.893342 152.430773 
L 421.291338 152.300566 
L 422.689334 151.102577 
L 424.08733 151.01413 
L 424.08733 151.01413 
" clip-path="url(#pddd7f9a3a9)" style="fill: none; stroke: #134a8e; stroke-width: 3; stroke-linecap: square"/>
    <defs>
     <path id="m577fd3cbdc" d="M 0 1.5 
C 0.397805 1.5 0.77937 1.341951 1.06066 1.06066 
C 1.341951 0.77937 1.5 0.397805 1.5 0 
C 1.5 -0.397805 1.341951 -0.77937 1.06066 -1.06066 
C 0.77937 -1.341951 0.397805 -1.5 0 -1.5 
C -0.397805 -1.5 -0.77937 -1.341951 -1.06066 -1.06066 
C -1.341951 -0.77937 -1.5 -0.397805 -1.5 0 
C -1.5 0.397805 -1.341951 0.77937 -1.06066 1.06066 
C -0.77937 1.341951 -0.397805 1.5 0 1.5 
z
" style="stroke: #134a8e"/>
    </defs>
    <g clip-path="url(#pddd7f9a3a9)">
     <use xlink:href="#m577fd3cbdc" x="68.99642" y="130.824569" style="fill: #134a8e; stroke: #134a8e"/>
     <use xlink:href="#m577fd3cbdc" x="70.394416" y="130.185843" style="fill: #134a8e; stroke: #134a8e"/>
     <use xlink:href="#m577fd3cbdc" x="71.792412" y="133.423053" style="fill: #134a8e; stroke: #134a8e"/>
     <use xlink:href="#m577fd3cbdc" x="73.190408" y="129.398388" style="fill: #134a8e; stroke: #134a8e"/>
     <use xlink:href="#m577fd3cbdc" x="74.588403" y="129.874831" style="fill: #134a8e; stroke: #134a8e"/>
     <use xlink:href="#m577fd3cbdc" x="75.986399" y="130.257435" style="fill: #134a8e; stroke: #134a8e"/>
     <use xlink:href="#m577fd3cbdc" x="77.384395" y="129.191191" style="fill: #134a8e; stroke: #134a8e"/>
     <use xlink:href="#m577fd3cbdc" x="78.78239" y="129.339262" style="fill: #134a8e; stroke: #134a8e"/>
     <use xlink:href="#m577fd3cbdc" x="80.180386" y="122.916846" style="fill: #134a8e; stroke: #134a8e"/>
     <use xlink:href="#m577fd3cbdc" x="81.578382" y="124.856604" style="fill: #134a8e; stroke: #134a8e"/>
     <use xlink:href="#m577fd3cbdc" x="82.976378" y="120.043337" style="fill: #134a8e; stroke: #134a8e"/>
     <use xlink:href="#m577fd3cbdc" x="84.374373" y="119.791548" style="fill: #134a8e; stroke: #134a8e"/>
     <use xlink:href="#m577fd3cbdc" x="85.772369" y="126.399036" style="fill: #134a8e; stroke: #134a8e"/>
     <use xlink:href="#m577fd3cbdc" x="87.170365" y="124.965529" style="fill: #134a8e; stroke: #134a8e"/>
     <use xlink:href="#m577fd3cbdc" x="88.56836" y="130.878327" style="fill: #134a8e; stroke: #134a8e"/>
     <use xlink:href="#m577fd3cbdc" x="89.966356" y="130.859599" style="fill: #134a8e; stroke: #134a8e"/>
     <use xlink:href="#m577fd3cbdc" x="91.364352" y="132.810504" style="fill: #134a8e; stroke: #134a8e"/>
     <use xlink:href="#m577fd3cbdc" x="92.762347" y="133.787158" style="fill: #134a8e; stroke: #134a8e"/>
     <use xlink:href="#m577fd3cbdc" x="94.160343" y="132.374085" style="fill: #134a8e; stroke: #134a8e"/>
     <use xlink:href="#m577fd3cbdc" x="95.558339" y="132.93422" style="fill: #134a8e; stroke: #134a8e"/>
     <use xlink:href="#m577fd3cbdc" x="96.956335" y="151.311034" style="fill: #134a8e; stroke: #134a8e"/>
     <use xlink:href="#m577fd3cbdc" x="98.35433" y="150.064813" style="fill: #134a8e; stroke: #134a8e"/>
     <use xlink:href="#m577fd3cbdc" x="99.752326" y="151.316155" style="fill: #134a8e; stroke: #134a8e"/>
     <use xlink:href="#m577fd3cbdc" x="101.150322" y="149.888829" style="fill: #134a8e; stroke: #134a8e"/>
     <use xlink:href="#m577fd3cbdc" x="102.548317" y="155.390438" style="fill: #134a8e; stroke: #134a8e"/>
     <use xlink:href="#m577fd3cbdc" x="103.946313" y="155.402892" style="fill: #134a8e; stroke: #134a8e"/>
     <use xlink:href="#m577fd3cbdc" x="105.344309" y="156.063088" style="fill: #134a8e; stroke: #134a8e"/>
     <use xlink:href="#m577fd3cbdc" x="106.742304" y="155.43655" style="fill: #134a8e; stroke: #134a8e"/>
     <use xlink:href="#m577fd3cbdc" x="108.1403" y="152.653517" style="fill: #134a8e; stroke: #134a8e"/>
     <use xlink:href="#m577fd3cbdc" x="109.538296" y="152.902515" style="fill: #134a8e; stroke: #134a8e"/>
     <use xlink:href="#m577fd3cbdc" x="110.936292" y="153.069524" style="fill: #134a8e; stroke: #134a8e"/>
     <use xlink:href="#m577fd3cbdc" x="112.334287" y="153.35921" style="fill: #134a8e; stroke: #134a8e"/>
     <use xlink:href="#m577fd3cbdc" x="113.732283" y="139.053564" style="fill: #134a8e; stroke: #134a8e"/>
     <use xlink:href="#m577fd3cbdc" x="115.130279" y="140.272264" style="fill: #134a8e; stroke: #134a8e"/>
     <use xlink:href="#m577fd3cbdc" x="116.528274" y="140.366165" style="fill: #134a8e; stroke: #134a8e"/>
     <use xlink:href="#m577fd3cbdc" x="117.92627" y="140.914617" style="fill: #134a8e; stroke: #134a8e"/>
     <use xlink:href="#m577fd3cbdc" x="119.324266" y="142.062014" style="fill: #134a8e; stroke: #134a8e"/>
     <use xlink:href="#m577fd3cbdc" x="120.722262" y="143.150997" style="fill: #134a8e; stroke: #134a8e"/>
     <use xlink:href="#m577fd3cbdc" x="122.120257" y="144.445327" style="fill: #134a8e; stroke: #134a8e"/>
     <use xlink:href="#m577fd3cbdc" x="123.518253" y="142.914938" style="fill: #134a8e; stroke: #134a8e"/>
     <use xlink:href="#m577fd3cbdc" x="124.916249" y="142.351429" style="fill: #134a8e; stroke: #134a8e"/>
     <use xlink:href="#m577fd3cbdc" x="126.314244" y="142.597382" style="fill: #134a8e; stroke: #134a8e"/>
     <use xlink:href="#m577fd3cbdc" x="127.71224" y="142.580398" style="fill: #134a8e; stroke: #134a8e"/>
     <use xlink:href="#m577fd3cbdc" x="129.110236" y="142.454801" style="fill: #134a8e; stroke: #134a8e"/>
     <use xlink:href="#m577fd3cbdc" x="130.508231" y="142.579782" style="fill: #134a8e; stroke: #134a8e"/>
     <use xlink:href="#m577fd3cbdc" x="131.906227" y="130.893006" style="fill: #134a8e; stroke: #134a8e"/>
     <use xlink:href="#m577fd3cbdc" x="133.304223" y="140.859059" style="fill: #134a8e; stroke: #134a8e"/>
     <use xlink:href="#m577fd3cbdc" x="134.702219" y="136.500438" style="fill: #134a8e; stroke: #134a8e"/>
     <use xlink:href="#m577fd3cbdc" x="136.100214" y="137.168869" style="fill: #134a8e; stroke: #134a8e"/>
     <use xlink:href="#m577fd3cbdc" x="137.49821" y="133.747089" style="fill: #134a8e; stroke: #134a8e"/>
     <use xlink:href="#m577fd3cbdc" x="138.896206" y="132.792336" style="fill: #134a8e; stroke: #134a8e"/>
     <use xlink:href="#m577fd3cbdc" x="140.294201" y="132.038817" style="fill: #134a8e; stroke: #134a8e"/>
     <use xlink:href="#m577fd3cbdc" x="141.692197" y="131.379753" style="fill: #134a8e; stroke: #134a8e"/>
     <use xlink:href="#m577fd3cbdc" x="143.090193" y="130.921953" style="fill: #134a8e; stroke: #134a8e"/>
     <use xlink:href="#m577fd3cbdc" x="144.488189" y="134.634521" style="fill: #134a8e; stroke: #134a8e"/>
     <use xlink:href="#m577fd3cbdc" x="145.886184" y="131.528362" style="fill: #134a8e; stroke: #134a8e"/>
     <use xlink:href="#m577fd3cbdc" x="147.28418" y="103.60154" style="fill: #134a8e; stroke: #134a8e"/>
     <use xlink:href="#m577fd3cbdc" x="148.682176" y="101.768588" style="fill: #134a8e; stroke: #134a8e"/>
     <use xlink:href="#m577fd3cbdc" x="150.080171" y="102.874542" style="fill: #134a8e; stroke: #134a8e"/>
     <use xlink:href="#m577fd3cbdc" x="151.478167" y="128.747067" style="fill: #134a8e; stroke: #134a8e"/>
     <use xlink:href="#m577fd3cbdc" x="152.876163" y="128.240976" style="fill: #134a8e; stroke: #134a8e"/>
     <use xlink:href="#m577fd3cbdc" x="154.274158" y="126.527332" style="fill: #134a8e; stroke: #134a8e"/>
     <use xlink:href="#m577fd3cbdc" x="155.672154" y="127.68372" style="fill: #134a8e; stroke: #134a8e"/>
     <use xlink:href="#m577fd3cbdc" x="157.07015" y="129.546413" style="fill: #134a8e; stroke: #134a8e"/>
     <use xlink:href="#m577fd3cbdc" x="158.468146" y="129.003793" style="fill: #134a8e; stroke: #134a8e"/>
     <use xlink:href="#m577fd3cbdc" x="159.866141" y="128.794581" style="fill: #134a8e; stroke: #134a8e"/>
     <use xlink:href="#m577fd3cbdc" x="161.264137" y="131.863516" style="fill: #134a8e; stroke: #134a8e"/>
     <use xlink:href="#m577fd3cbdc" x="162.662133" y="128.803977" style="fill: #134a8e; stroke: #134a8e"/>
     <use xlink:href="#m577fd3cbdc" x="164.060128" y="128.205872" style="fill: #134a8e; stroke: #134a8e"/>
     <use xlink:href="#m577fd3cbdc" x="165.458124" y="97.435053" style="fill: #134a8e; stroke: #134a8e"/>
     <use xlink:href="#m577fd3cbdc" x="166.85612" y="98.494095" style="fill: #134a8e; stroke: #134a8e"/>
     <use xlink:href="#m577fd3cbdc" x="168.254116" y="125.318915" style="fill: #134a8e; stroke: #134a8e"/>
     <use xlink:href="#m577fd3cbdc" x="169.652111" y="127.168843" style="fill: #134a8e; stroke: #134a8e"/>
     <use xlink:href="#m577fd3cbdc" x="171.050107" y="115.424432" style="fill: #134a8e; stroke: #134a8e"/>
     <use xlink:href="#m577fd3cbdc" x="172.448103" y="98.797609" style="fill: #134a8e; stroke: #134a8e"/>
     <use xlink:href="#m577fd3cbdc" x="173.846098" y="101.469915" style="fill: #134a8e; stroke: #134a8e"/>
     <use xlink:href="#m577fd3cbdc" x="175.244094" y="118.383127" style="fill: #134a8e; stroke: #134a8e"/>
     <use xlink:href="#m577fd3cbdc" x="176.64209" y="100.906371" style="fill: #134a8e; stroke: #134a8e"/>
     <use xlink:href="#m577fd3cbdc" x="178.040085" y="97.66278" style="fill: #134a8e; stroke: #134a8e"/>
     <use xlink:href="#m577fd3cbdc" x="179.438081" y="99.874606" style="fill: #134a8e; stroke: #134a8e"/>
     <use xlink:href="#m577fd3cbdc" x="180.836077" y="98.744562" style="fill: #134a8e; stroke: #134a8e"/>
     <use xlink:href="#m577fd3cbdc" x="182.234073" y="98.272824" style="fill: #134a8e; stroke: #134a8e"/>
     <use xlink:href="#m577fd3cbdc" x="183.632068" y="98.295245" style="fill: #134a8e; stroke: #134a8e"/>
     <use xlink:href="#m577fd3cbdc" x="185.030064" y="101.212212" style="fill: #134a8e; stroke: #134a8e"/>
     <use xlink:href="#m577fd3cbdc" x="186.42806" y="101.19239" style="fill: #134a8e; stroke: #134a8e"/>
     <use xlink:href="#m577fd3cbdc" x="187.826055" y="101.156641" style="fill: #134a8e; stroke: #134a8e"/>
     <use xlink:href="#m577fd3cbdc" x="189.224051" y="101.312738" style="fill: #134a8e; stroke: #134a8e"/>
     <use xlink:href="#m577fd3cbdc" x="190.622047" y="115.957326" style="fill: #134a8e; stroke: #134a8e"/>
     <use xlink:href="#m577fd3cbdc" x="192.020043" y="117.733646" style="fill: #134a8e; stroke: #134a8e"/>
     <use xlink:href="#m577fd3cbdc" x="193.418038" y="117.273457" style="fill: #134a8e; stroke: #134a8e"/>
     <use xlink:href="#m577fd3cbdc" x="194.816034" y="117.011539" style="fill: #134a8e; stroke: #134a8e"/>
     <use xlink:href="#m577fd3cbdc" x="196.21403" y="117.96506" style="fill: #134a8e; stroke: #134a8e"/>
     <use xlink:href="#m577fd3cbdc" x="197.612025" y="125.984243" style="fill: #134a8e; stroke: #134a8e"/>
     <use xlink:href="#m577fd3cbdc" x="199.010021" y="126.546095" style="fill: #134a8e; stroke: #134a8e"/>
     <use xlink:href="#m577fd3cbdc" x="200.408017" y="115.259157" style="fill: #134a8e; stroke: #134a8e"/>
     <use xlink:href="#m577fd3cbdc" x="201.806012" y="124.833254" style="fill: #134a8e; stroke: #134a8e"/>
     <use xlink:href="#m577fd3cbdc" x="203.204008" y="113.123251" style="fill: #134a8e; stroke: #134a8e"/>
     <use xlink:href="#m577fd3cbdc" x="204.602004" y="93.2274" style="fill: #134a8e; stroke: #134a8e"/>
     <use xlink:href="#m577fd3cbdc" x="206" y="93.95642" style="fill: #134a8e; stroke: #134a8e"/>
     <use xlink:href="#m577fd3cbdc" x="207.397995" y="88.259314" style="fill: #134a8e; stroke: #134a8e"/>
     <use xlink:href="#m577fd3cbdc" x="208.795991" y="107.371354" style="fill: #134a8e; stroke: #134a8e"/>
     <use xlink:href="#m577fd3cbdc" x="210.193987" y="88.402484" style="fill: #134a8e; stroke: #134a8e"/>
     <use xlink:href="#m577fd3cbdc" x="211.591982" y="86.653505" style="fill: #134a8e; stroke: #134a8e"/>
     <use xlink:href="#m577fd3cbdc" x="212.989978" y="86.219393" style="fill: #134a8e; stroke: #134a8e"/>
     <use xlink:href="#m577fd3cbdc" x="214.387974" y="84.379541" style="fill: #134a8e; stroke: #134a8e"/>
     <use xlink:href="#m577fd3cbdc" x="215.785969" y="81.627436" style="fill: #134a8e; stroke: #134a8e"/>
     <use xlink:href="#m577fd3cbdc" x="217.183965" y="85.054705" style="fill: #134a8e; stroke: #134a8e"/>
     <use xlink:href="#m577fd3cbdc" x="218.581961" y="84.691306" style="fill: #134a8e; stroke: #134a8e"/>
     <use xlink:href="#m577fd3cbdc" x="219.979957" y="85.04837" style="fill: #134a8e; stroke: #134a8e"/>
     <use xlink:href="#m577fd3cbdc" x="221.377952" y="73.862219" style="fill: #134a8e; stroke: #134a8e"/>
     <use xlink:href="#m577fd3cbdc" x="222.775948" y="82.64139" style="fill: #134a8e; stroke: #134a8e"/>
     <use xlink:href="#m577fd3cbdc" x="224.173944" y="85.619943" style="fill: #134a8e; stroke: #134a8e"/>
     <use xlink:href="#m577fd3cbdc" x="225.571939" y="84.446662" style="fill: #134a8e; stroke: #134a8e"/>
     <use xlink:href="#m577fd3cbdc" x="226.969935" y="87.921822" style="fill: #134a8e; stroke: #134a8e"/>
     <use xlink:href="#m577fd3cbdc" x="228.367931" y="85.409219" style="fill: #134a8e; stroke: #134a8e"/>
     <use xlink:href="#m577fd3cbdc" x="229.765927" y="84.620701" style="fill: #134a8e; stroke: #134a8e"/>
     <use xlink:href="#m577fd3cbdc" x="231.163922" y="86.752571" style="fill: #134a8e; stroke: #134a8e"/>
     <use xlink:href="#m577fd3cbdc" x="232.561918" y="88.964037" style="fill: #134a8e; stroke: #134a8e"/>
     <use xlink:href="#m577fd3cbdc" x="233.959914" y="89.464015" style="fill: #134a8e; stroke: #134a8e"/>
     <use xlink:href="#m577fd3cbdc" x="235.357909" y="89.874575" style="fill: #134a8e; stroke: #134a8e"/>
     <use xlink:href="#m577fd3cbdc" x="236.755905" y="87.371325" style="fill: #134a8e; stroke: #134a8e"/>
     <use xlink:href="#m577fd3cbdc" x="238.153901" y="89.210158" style="fill: #134a8e; stroke: #134a8e"/>
     <use xlink:href="#m577fd3cbdc" x="239.551896" y="88.476187" style="fill: #134a8e; stroke: #134a8e"/>
     <use xlink:href="#m577fd3cbdc" x="240.949892" y="122.471906" style="fill: #134a8e; stroke: #134a8e"/>
     <use xlink:href="#m577fd3cbdc" x="242.347888" y="97.061494" style="fill: #134a8e; stroke: #134a8e"/>
     <use xlink:href="#m577fd3cbdc" x="243.745884" y="98.721775" style="fill: #134a8e; stroke: #134a8e"/>
     <use xlink:href="#m577fd3cbdc" x="245.143879" y="96.219268" style="fill: #134a8e; stroke: #134a8e"/>
     <use xlink:href="#m577fd3cbdc" x="246.541875" y="91.838017" style="fill: #134a8e; stroke: #134a8e"/>
     <use xlink:href="#m577fd3cbdc" x="247.939871" y="92.613327" style="fill: #134a8e; stroke: #134a8e"/>
     <use xlink:href="#m577fd3cbdc" x="249.337866" y="99.938506" style="fill: #134a8e; stroke: #134a8e"/>
     <use xlink:href="#m577fd3cbdc" x="250.735862" y="99.794478" style="fill: #134a8e; stroke: #134a8e"/>
     <use xlink:href="#m577fd3cbdc" x="252.133858" y="111.213142" style="fill: #134a8e; stroke: #134a8e"/>
     <use xlink:href="#m577fd3cbdc" x="253.531854" y="112.463404" style="fill: #134a8e; stroke: #134a8e"/>
     <use xlink:href="#m577fd3cbdc" x="254.929849" y="113.049084" style="fill: #134a8e; stroke: #134a8e"/>
     <use xlink:href="#m577fd3cbdc" x="256.327845" y="113.706702" style="fill: #134a8e; stroke: #134a8e"/>
     <use xlink:href="#m577fd3cbdc" x="257.725841" y="113.452024" style="fill: #134a8e; stroke: #134a8e"/>
     <use xlink:href="#m577fd3cbdc" x="259.123836" y="113.93316" style="fill: #134a8e; stroke: #134a8e"/>
     <use xlink:href="#m577fd3cbdc" x="260.521832" y="116.048511" style="fill: #134a8e; stroke: #134a8e"/>
     <use xlink:href="#m577fd3cbdc" x="261.919828" y="115.590591" style="fill: #134a8e; stroke: #134a8e"/>
     <use xlink:href="#m577fd3cbdc" x="263.317823" y="114.824332" style="fill: #134a8e; stroke: #134a8e"/>
     <use xlink:href="#m577fd3cbdc" x="264.715819" y="114.434212" style="fill: #134a8e; stroke: #134a8e"/>
     <use xlink:href="#m577fd3cbdc" x="266.113815" y="116.061125" style="fill: #134a8e; stroke: #134a8e"/>
     <use xlink:href="#m577fd3cbdc" x="267.511811" y="115.823079" style="fill: #134a8e; stroke: #134a8e"/>
     <use xlink:href="#m577fd3cbdc" x="268.909806" y="117.092231" style="fill: #134a8e; stroke: #134a8e"/>
     <use xlink:href="#m577fd3cbdc" x="270.307802" y="115.997812" style="fill: #134a8e; stroke: #134a8e"/>
     <use xlink:href="#m577fd3cbdc" x="271.705798" y="116.398378" style="fill: #134a8e; stroke: #134a8e"/>
     <use xlink:href="#m577fd3cbdc" x="273.103793" y="117.150709" style="fill: #134a8e; stroke: #134a8e"/>
     <use xlink:href="#m577fd3cbdc" x="274.501789" y="116.212781" style="fill: #134a8e; stroke: #134a8e"/>
     <use xlink:href="#m577fd3cbdc" x="275.899785" y="127.54822" style="fill: #134a8e; stroke: #134a8e"/>
     <use xlink:href="#m577fd3cbdc" x="277.297781" y="128.211221" style="fill: #134a8e; stroke: #134a8e"/>
     <use xlink:href="#m577fd3cbdc" x="278.695776" y="145.391996" style="fill: #134a8e; stroke: #134a8e"/>
     <use xlink:href="#m577fd3cbdc" x="280.093772" y="147.282902" style="fill: #134a8e; stroke: #134a8e"/>
     <use xlink:href="#m577fd3cbdc" x="281.491768" y="145.312538" style="fill: #134a8e; stroke: #134a8e"/>
     <use xlink:href="#m577fd3cbdc" x="282.889763" y="146.006559" style="fill: #134a8e; stroke: #134a8e"/>
     <use xlink:href="#m577fd3cbdc" x="284.287759" y="147.003282" style="fill: #134a8e; stroke: #134a8e"/>
     <use xlink:href="#m577fd3cbdc" x="285.685755" y="146.52941" style="fill: #134a8e; stroke: #134a8e"/>
     <use xlink:href="#m577fd3cbdc" x="287.08375" y="147.689556" style="fill: #134a8e; stroke: #134a8e"/>
     <use xlink:href="#m577fd3cbdc" x="288.481746" y="154.724962" style="fill: #134a8e; stroke: #134a8e"/>
     <use xlink:href="#m577fd3cbdc" x="289.879742" y="157.130752" style="fill: #134a8e; stroke: #134a8e"/>
     <use xlink:href="#m577fd3cbdc" x="291.277738" y="157.212573" style="fill: #134a8e; stroke: #134a8e"/>
     <use xlink:href="#m577fd3cbdc" x="292.675733" y="156.179141" style="fill: #134a8e; stroke: #134a8e"/>
     <use xlink:href="#m577fd3cbdc" x="294.073729" y="154.96647" style="fill: #134a8e; stroke: #134a8e"/>
     <use xlink:href="#m577fd3cbdc" x="295.471725" y="149.225083" style="fill: #134a8e; stroke: #134a8e"/>
     <use xlink:href="#m577fd3cbdc" x="296.86972" y="148.429157" style="fill: #134a8e; stroke: #134a8e"/>
     <use xlink:href="#m577fd3cbdc" x="298.267716" y="148.308702" style="fill: #134a8e; stroke: #134a8e"/>
     <use xlink:href="#m577fd3cbdc" x="299.665712" y="147.466841" style="fill: #134a8e; stroke: #134a8e"/>
     <use xlink:href="#m577fd3cbdc" x="301.063707" y="147.690568" style="fill: #134a8e; stroke: #134a8e"/>
     <use xlink:href="#m577fd3cbdc" x="302.461703" y="146.186127" style="fill: #134a8e; stroke: #134a8e"/>
     <use xlink:href="#m577fd3cbdc" x="303.859699" y="146.157879" style="fill: #134a8e; stroke: #134a8e"/>
     <use xlink:href="#m577fd3cbdc" x="305.257695" y="146.230587" style="fill: #134a8e; stroke: #134a8e"/>
     <use xlink:href="#m577fd3cbdc" x="306.65569" y="145.469395" style="fill: #134a8e; stroke: #134a8e"/>
     <use xlink:href="#m577fd3cbdc" x="308.053686" y="135.152639" style="fill: #134a8e; stroke: #134a8e"/>
     <use xlink:href="#m577fd3cbdc" x="309.451682" y="130.466263" style="fill: #134a8e; stroke: #134a8e"/>
     <use xlink:href="#m577fd3cbdc" x="310.849677" y="130.456777" style="fill: #134a8e; stroke: #134a8e"/>
     <use xlink:href="#m577fd3cbdc" x="312.247673" y="119.664791" style="fill: #134a8e; stroke: #134a8e"/>
     <use xlink:href="#m577fd3cbdc" x="313.645669" y="118.232139" style="fill: #134a8e; stroke: #134a8e"/>
     <use xlink:href="#m577fd3cbdc" x="315.043665" y="118.337831" style="fill: #134a8e; stroke: #134a8e"/>
     <use xlink:href="#m577fd3cbdc" x="316.44166" y="118.401927" style="fill: #134a8e; stroke: #134a8e"/>
     <use xlink:href="#m577fd3cbdc" x="317.839656" y="117.622894" style="fill: #134a8e; stroke: #134a8e"/>
     <use xlink:href="#m577fd3cbdc" x="319.237652" y="114.360479" style="fill: #134a8e; stroke: #134a8e"/>
     <use xlink:href="#m577fd3cbdc" x="320.635647" y="118.941707" style="fill: #134a8e; stroke: #134a8e"/>
     <use xlink:href="#m577fd3cbdc" x="322.033643" y="119.11646" style="fill: #134a8e; stroke: #134a8e"/>
     <use xlink:href="#m577fd3cbdc" x="323.431639" y="118.73199" style="fill: #134a8e; stroke: #134a8e"/>
     <use xlink:href="#m577fd3cbdc" x="324.829634" y="119.305561" style="fill: #134a8e; stroke: #134a8e"/>
     <use xlink:href="#m577fd3cbdc" x="326.22763" y="117.988383" style="fill: #134a8e; stroke: #134a8e"/>
     <use xlink:href="#m577fd3cbdc" x="327.625626" y="119.618438" style="fill: #134a8e; stroke: #134a8e"/>
     <use xlink:href="#m577fd3cbdc" x="329.023622" y="119.517326" style="fill: #134a8e; stroke: #134a8e"/>
     <use xlink:href="#m577fd3cbdc" x="330.421617" y="119.576322" style="fill: #134a8e; stroke: #134a8e"/>
     <use xlink:href="#m577fd3cbdc" x="331.819613" y="133.673918" style="fill: #134a8e; stroke: #134a8e"/>
     <use xlink:href="#m577fd3cbdc" x="333.217609" y="133.247865" style="fill: #134a8e; stroke: #134a8e"/>
     <use xlink:href="#m577fd3cbdc" x="334.615604" y="134.473997" style="fill: #134a8e; stroke: #134a8e"/>
     <use xlink:href="#m577fd3cbdc" x="336.0136" y="133.977908" style="fill: #134a8e; stroke: #134a8e"/>
     <use xlink:href="#m577fd3cbdc" x="337.411596" y="155.030788" style="fill: #134a8e; stroke: #134a8e"/>
     <use xlink:href="#m577fd3cbdc" x="338.809592" y="145.402893" style="fill: #134a8e; stroke: #134a8e"/>
     <use xlink:href="#m577fd3cbdc" x="340.207587" y="148.352941" style="fill: #134a8e; stroke: #134a8e"/>
     <use xlink:href="#m577fd3cbdc" x="341.605583" y="147.763232" style="fill: #134a8e; stroke: #134a8e"/>
     <use xlink:href="#m577fd3cbdc" x="343.003579" y="147.357264" style="fill: #134a8e; stroke: #134a8e"/>
     <use xlink:href="#m577fd3cbdc" x="344.401574" y="147.285998" style="fill: #134a8e; stroke: #134a8e"/>
     <use xlink:href="#m577fd3cbdc" x="345.79957" y="154.63609" style="fill: #134a8e; stroke: #134a8e"/>
     <use xlink:href="#m577fd3cbdc" x="347.197566" y="146.869327" style="fill: #134a8e; stroke: #134a8e"/>
     <use xlink:href="#m577fd3cbdc" x="348.595561" y="145.080077" style="fill: #134a8e; stroke: #134a8e"/>
     <use xlink:href="#m577fd3cbdc" x="349.993557" y="142.945009" style="fill: #134a8e; stroke: #134a8e"/>
     <use xlink:href="#m577fd3cbdc" x="351.391553" y="142.748715" style="fill: #134a8e; stroke: #134a8e"/>
     <use xlink:href="#m577fd3cbdc" x="352.789549" y="142.512835" style="fill: #134a8e; stroke: #134a8e"/>
     <use xlink:href="#m577fd3cbdc" x="354.187544" y="111.248239" style="fill: #134a8e; stroke: #134a8e"/>
     <use xlink:href="#m577fd3cbdc" x="355.58554" y="128.183177" style="fill: #134a8e; stroke: #134a8e"/>
     <use xlink:href="#m577fd3cbdc" x="356.983536" y="112.102119" style="fill: #134a8e; stroke: #134a8e"/>
     <use xlink:href="#m577fd3cbdc" x="358.381531" y="48.508224" style="fill: #134a8e; stroke: #134a8e"/>
     <use xlink:href="#m577fd3cbdc" x="359.779527" y="41.414324" style="fill: #134a8e; stroke: #134a8e"/>
     <use xlink:href="#m577fd3cbdc" x="361.177523" y="33.741897" style="fill: #134a8e; stroke: #134a8e"/>
     <use xlink:href="#m577fd3cbdc" x="362.575519" y="37.048561" style="fill: #134a8e; stroke: #134a8e"/>
     <use xlink:href="#m577fd3cbdc" x="363.973514" y="35.57819" style="fill: #134a8e; stroke: #134a8e"/>
     <use xlink:href="#m577fd3cbdc" x="365.37151" y="32.973122" style="fill: #134a8e; stroke: #134a8e"/>
     <use xlink:href="#m577fd3cbdc" x="366.769506" y="30.054453" style="fill: #134a8e; stroke: #134a8e"/>
     <use xlink:href="#m577fd3cbdc" x="368.167501" y="33.323975" style="fill: #134a8e; stroke: #134a8e"/>
     <use xlink:href="#m577fd3cbdc" x="369.565497" y="32.028162" style="fill: #134a8e; stroke: #134a8e"/>
     <use xlink:href="#m577fd3cbdc" x="370.963493" y="27.964625" style="fill: #134a8e; stroke: #134a8e"/>
     <use xlink:href="#m577fd3cbdc" x="372.361488" y="29.671642" style="fill: #134a8e; stroke: #134a8e"/>
     <use xlink:href="#m577fd3cbdc" x="373.759484" y="27.185793" style="fill: #134a8e; stroke: #134a8e"/>
     <use xlink:href="#m577fd3cbdc" x="375.15748" y="27.101249" style="fill: #134a8e; stroke: #134a8e"/>
     <use xlink:href="#m577fd3cbdc" x="376.555476" y="28.043365" style="fill: #134a8e; stroke: #134a8e"/>
     <use xlink:href="#m577fd3cbdc" x="377.953471" y="31.858053" style="fill: #134a8e; stroke: #134a8e"/>
     <use xlink:href="#m577fd3cbdc" x="379.351467" y="30.502799" style="fill: #134a8e; stroke: #134a8e"/>
     <use xlink:href="#m577fd3cbdc" x="380.749463" y="35.038419" style="fill: #134a8e; stroke: #134a8e"/>
     <use xlink:href="#m577fd3cbdc" x="382.147458" y="31.643591" style="fill: #134a8e; stroke: #134a8e"/>
     <use xlink:href="#m577fd3cbdc" x="383.545454" y="68.738714" style="fill: #134a8e; stroke: #134a8e"/>
     <use xlink:href="#m577fd3cbdc" x="384.94345" y="66.277629" style="fill: #134a8e; stroke: #134a8e"/>
     <use xlink:href="#m577fd3cbdc" x="386.341446" y="65.883947" style="fill: #134a8e; stroke: #134a8e"/>
     <use xlink:href="#m577fd3cbdc" x="387.739441" y="63.398448" style="fill: #134a8e; stroke: #134a8e"/>
     <use xlink:href="#m577fd3cbdc" x="389.137437" y="65.24523" style="fill: #134a8e; stroke: #134a8e"/>
     <use xlink:href="#m577fd3cbdc" x="390.535433" y="74.230056" style="fill: #134a8e; stroke: #134a8e"/>
     <use xlink:href="#m577fd3cbdc" x="391.933428" y="73.522143" style="fill: #134a8e; stroke: #134a8e"/>
     <use xlink:href="#m577fd3cbdc" x="393.331424" y="108.72427" style="fill: #134a8e; stroke: #134a8e"/>
     <use xlink:href="#m577fd3cbdc" x="394.72942" y="107.048848" style="fill: #134a8e; stroke: #134a8e"/>
     <use xlink:href="#m577fd3cbdc" x="396.127415" y="107.15742" style="fill: #134a8e; stroke: #134a8e"/>
     <use xlink:href="#m577fd3cbdc" x="397.525411" y="114.480234" style="fill: #134a8e; stroke: #134a8e"/>
     <use xlink:href="#m577fd3cbdc" x="398.923407" y="128.924824" style="fill: #134a8e; stroke: #134a8e"/>
     <use xlink:href="#m577fd3cbdc" x="400.321403" y="128.144273" style="fill: #134a8e; stroke: #134a8e"/>
     <use xlink:href="#m577fd3cbdc" x="401.719398" y="127.46037" style="fill: #134a8e; stroke: #134a8e"/>
     <use xlink:href="#m577fd3cbdc" x="403.117394" y="133.223788" style="fill: #134a8e; stroke: #134a8e"/>
     <use xlink:href="#m577fd3cbdc" x="404.51539" y="135.83193" style="fill: #134a8e; stroke: #134a8e"/>
     <use xlink:href="#m577fd3cbdc" x="405.913385" y="136.621962" style="fill: #134a8e; stroke: #134a8e"/>
     <use xlink:href="#m577fd3cbdc" x="407.311381" y="140.225746" style="fill: #134a8e; stroke: #134a8e"/>
     <use xlink:href="#m577fd3cbdc" x="408.709377" y="138.579329" style="fill: #134a8e; stroke: #134a8e"/>
     <use xlink:href="#m577fd3cbdc" x="410.107372" y="140.301773" style="fill: #134a8e; stroke: #134a8e"/>
     <use xlink:href="#m577fd3cbdc" x="411.505368" y="139.461439" style="fill: #134a8e; stroke: #134a8e"/>
     <use xlink:href="#m577fd3cbdc" x="412.903364" y="140.283785" style="fill: #134a8e; stroke: #134a8e"/>
     <use xlink:href="#m577fd3cbdc" x="414.30136" y="150.939373" style="fill: #134a8e; stroke: #134a8e"/>
     <use xlink:href="#m577fd3cbdc" x="415.699355" y="141.140731" style="fill: #134a8e; stroke: #134a8e"/>
     <use xlink:href="#m577fd3cbdc" x="417.097351" y="152.109486" style="fill: #134a8e; stroke: #134a8e"/>
     <use xlink:href="#m577fd3cbdc" x="418.495347" y="152.27899" style="fill: #134a8e; stroke: #134a8e"/>
     <use xlink:href="#m577fd3cbdc" x="419.893342" y="152.430773" style="fill: #134a8e; stroke: #134a8e"/>
     <use xlink:href="#m577fd3cbdc" x="421.291338" y="152.300566" style="fill: #134a8e; stroke: #134a8e"/>
     <use xlink:href="#m577fd3cbdc" x="422.689334" y="151.102577" style="fill: #134a8e; stroke: #134a8e"/>
     <use xlink:href="#m577fd3cbdc" x="424.08733" y="151.01413" style="fill: #134a8e; stroke: #134a8e"/>
    </g>
   </g>
   <g id="line2d_24">
    <path d="M 68.99642 142.400564 
L 70.394416 142.472442 
L 71.792412 146.940619 
L 73.190408 146.054316 
L 74.588403 146.265939 
L 75.986399 146.220702 
L 77.384395 141.326289 
L 78.78239 141.366882 
L 81.578382 140.765843 
L 82.976378 135.718911 
L 84.374373 135.333488 
L 85.772369 139.003808 
L 87.170365 140.577211 
L 88.56836 145.950091 
L 89.966356 146.330796 
L 91.364352 146.408247 
L 92.762347 147.06888 
L 95.558339 146.54027 
L 96.956335 150.700801 
L 98.35433 151.428481 
L 99.752326 151.396899 
L 101.150322 151.507497 
L 102.548317 156.360393 
L 103.946313 156.441951 
L 105.344309 156.792881 
L 108.1403 156.234583 
L 109.538296 156.346264 
L 112.334287 156.163615 
L 113.732283 151.109011 
L 115.130279 146.656324 
L 116.528274 147.514016 
L 117.92627 145.952108 
L 119.324266 147.037398 
L 120.722262 146.863885 
L 122.120257 151.744708 
L 123.518253 147.215809 
L 124.916249 142.273274 
L 126.314244 141.929183 
L 127.71224 141.839409 
L 130.508231 142.329087 
L 131.906227 132.322341 
L 133.304223 137.134641 
L 134.702219 136.708187 
L 136.100214 136.993194 
L 137.49821 132.558379 
L 138.896206 132.456723 
L 140.294201 133.931199 
L 141.692197 130.017712 
L 144.488189 139.407328 
L 145.886184 136.257768 
L 147.28418 119.84513 
L 148.682176 115.804103 
L 150.080171 117.313097 
L 151.478167 126.378788 
L 152.876163 127.264614 
L 154.274158 131.553551 
L 155.672154 132.794072 
L 157.07015 136.179666 
L 158.468146 136.938647 
L 159.866141 137.101583 
L 161.264137 141.244307 
L 162.662133 136.593373 
L 164.060128 134.987815 
L 165.458124 118.948992 
L 166.85612 119.05711 
L 168.254116 124.243708 
L 169.652111 125.424267 
L 171.050107 122.086092 
L 172.448103 121.104916 
L 173.846098 122.20069 
L 175.244094 125.088458 
L 176.64209 114.662357 
L 178.040085 112.156288 
L 179.438081 112.613534 
L 180.836077 108.302374 
L 182.234073 106.032481 
L 183.632068 106.243741 
L 185.030064 116.663957 
L 186.42806 118.44804 
L 187.826055 122.744822 
L 189.224051 121.934631 
L 190.622047 123.72873 
L 192.020043 126.553312 
L 193.418038 126.109945 
L 194.816034 123.881095 
L 196.21403 125.22813 
L 197.612025 127.219461 
L 199.010021 127.646778 
L 200.408017 121.894184 
L 201.806012 125.998014 
L 203.204008 119.647896 
L 204.602004 115.916051 
L 206 114.882805 
L 207.397995 112.908646 
L 208.795991 116.956392 
L 210.193987 113.700149 
L 211.591982 103.995956 
L 212.989978 100.476491 
L 214.387974 95.339905 
L 215.785969 89.224294 
L 217.183965 94.150742 
L 218.581961 92.997935 
L 219.979957 92.607658 
L 221.377952 80.709061 
L 222.775948 91.931547 
L 224.173944 96.39889 
L 225.571939 96.734026 
L 226.969935 99.859215 
L 228.367931 97.432324 
L 229.765927 98.258264 
L 231.163922 104.767281 
L 232.561918 106.586229 
L 233.959914 108.099669 
L 235.357909 115.238254 
L 236.755905 111.475037 
L 238.153901 112.837288 
L 239.551896 115.941597 
L 240.949892 123.12745 
L 242.347888 119.756926 
L 243.745884 120.611164 
L 245.143879 122.271555 
L 246.541875 116.213974 
L 247.939871 116.427596 
L 249.337866 119.032845 
L 250.735862 122.582689 
L 253.531854 127.634224 
L 254.929849 128.281814 
L 257.725841 129.816832 
L 259.123836 124.903035 
L 260.521832 123.699367 
L 261.919828 124.65253 
L 263.317823 125.429838 
L 264.715819 124.47405 
L 266.113815 130.103425 
L 267.511811 129.818619 
L 268.909806 130.435993 
L 270.307802 124.350208 
L 271.705798 123.328676 
L 273.103793 134.337153 
L 274.501789 134.266338 
L 275.899785 136.393769 
L 277.297781 136.311706 
L 278.695776 147.873515 
L 280.093772 150.891344 
L 281.491768 149.016675 
L 282.889763 147.916621 
L 284.287759 149.846562 
L 285.685755 150.380397 
L 287.08375 153.004822 
L 288.481746 156.579713 
L 289.879742 158.592784 
L 291.277738 158.76 
L 292.675733 157.516578 
L 294.073729 156.573259 
L 295.471725 154.466399 
L 296.86972 155.188058 
L 298.267716 153.970486 
L 299.665712 152.543375 
L 301.063707 152.305148 
L 302.461703 150.858744 
L 303.859699 150.818967 
L 305.257695 150.109427 
L 306.65569 148.543994 
L 308.053686 141.732447 
L 309.451682 138.57159 
L 310.849677 137.846699 
L 312.247673 130.439209 
L 313.645669 128.889593 
L 315.043665 129.258983 
L 316.44166 128.968385 
L 317.839656 120.665731 
L 319.237652 120.883298 
L 322.033643 125.318437 
L 323.431639 125.052137 
L 324.829634 123.50181 
L 326.22763 120.167378 
L 327.625626 124.001091 
L 329.023622 126.315819 
L 330.421617 125.255919 
L 331.819613 134.888493 
L 333.217609 139.1896 
L 334.615604 140.036746 
L 336.0136 139.800844 
L 337.411596 156.364533 
L 338.809592 150.990153 
L 340.207587 153.465198 
L 341.605583 153.312825 
L 344.401574 153.17377 
L 345.79957 155.913663 
L 347.197566 153.519207 
L 349.993557 143.234709 
L 351.391553 143.72251 
L 352.789549 143.719614 
L 354.187544 122.367447 
L 355.58554 130.949546 
L 356.983536 125.175078 
L 358.381531 69.159311 
L 359.779527 61.60768 
L 361.177523 66.17379 
L 362.575519 65.899471 
L 363.973514 58.225909 
L 365.37151 56.432229 
L 366.769506 50.110997 
L 368.167501 54.143542 
L 369.565497 52.545952 
L 370.963493 55.601058 
L 372.361488 55.427525 
L 373.759484 41.23685 
L 375.15748 37.793505 
L 376.555476 38.179197 
L 377.953471 68.958502 
L 379.351467 63.928288 
L 380.749463 67.841597 
L 382.147458 67.939185 
L 383.545454 71.157333 
L 384.94345 74.98889 
L 386.341446 83.114499 
L 387.739441 85.073851 
L 389.137437 90.398321 
L 390.535433 94.362239 
L 391.933428 94.508232 
L 393.331424 116.798233 
L 394.72942 114.369803 
L 396.127415 122.304817 
L 397.525411 124.912128 
L 398.923407 132.176764 
L 400.321403 134.259366 
L 401.719398 134.265773 
L 403.117394 139.382954 
L 404.51539 141.789092 
L 405.913385 143.223302 
L 407.311381 146.026357 
L 408.709377 148.262076 
L 410.107372 148.531225 
L 411.505368 148.557702 
L 412.903364 148.316664 
L 414.30136 152.463719 
L 415.699355 151.326716 
L 417.097351 154.249222 
L 418.495347 154.460941 
L 419.893342 154.242527 
L 421.291338 155.255633 
L 422.689334 152.816003 
L 424.08733 152.802229 
L 424.08733 152.802229 
" clip-path="url(#pddd7f9a3a9)" style="fill: none; stroke-dasharray: 5.55,2.4; stroke-dashoffset: 0; stroke: #000000; stroke-width: 1.5"/>
   </g>
   <g id="patch_3">
    <path d="M 51.241875 166.32 
L 51.241875 -0 
" style="fill: none; stroke: #ffffff; stroke-linejoin: miter; stroke-linecap: square"/>
   </g>
   <g id="patch_4">
    <path d="M 441.841875 166.32 
L 441.841875 -0 
" style="fill: none; stroke: #ffffff; stroke-linejoin: miter; stroke-linecap: square"/>
   </g>
   <g id="patch_5">
    <path d="M 51.241875 166.32 
L 441.841875 166.32 
" style="fill: none; stroke: #ffffff; stroke-linejoin: miter; stroke-linecap: square"/>
   </g>
   <g id="patch_6">
    <path d="M 51.241875 -0 
L 441.841875 -0 
" style="fill: none; stroke: #ffffff; stroke-linejoin: miter; stroke-linecap: square"/>
   </g>
   <g id="legend_1">
    <g id="patch_7">
     <path d="M 58.241875 60.378125 
L 210.28875 60.378125 
Q 212.28875 60.378125 212.28875 58.378125 
L 212.28875 7 
Q 212.28875 5 210.28875 5 
L 58.241875 5 
Q 56.241875 5 56.241875 7 
L 56.241875 58.378125 
Q 56.241875 60.378125 58.241875 60.378125 
z
" style="fill: #e5e5e5; opacity: 0.8; stroke: #cccccc; stroke-width: 0.5; stroke-linejoin: miter"/>
    </g>
    <g id="line2d_25">
     <path d="M 60.241875 15.5 
L 70.241875 15.5 
L 80.241875 15.5 
" style="fill: none; stroke: #134a8e; stroke-width: 3; stroke-linecap: square"/>
     <g>
      <use xlink:href="#m577fd3cbdc" x="70.241875" y="15.5" style="fill: #134a8e; stroke: #134a8e"/>
     </g>
    </g>
    <g id="text_14">
     <!-- Private Value $\tilde{R}_{\chi_1,\chi_3}^t$ -->
     <g transform="translate(88.241875 19) scale(0.1 -0.1)">
      <defs>
       <path id="DejaVuSans-50" d="M 1259 4147 
L 1259 2394 
L 2053 2394 
Q 2494 2394 2734 2622 
Q 2975 2850 2975 3272 
Q 2975 3691 2734 3919 
Q 2494 4147 2053 4147 
L 1259 4147 
z
M 628 4666 
L 2053 4666 
Q 2838 4666 3239 4311 
Q 3641 3956 3641 3272 
Q 3641 2581 3239 2228 
Q 2838 1875 2053 1875 
L 1259 1875 
L 1259 0 
L 628 0 
L 628 4666 
z
" transform="scale(0.015625)"/>
       <path id="DejaVuSans-72" d="M 2631 2963 
Q 2534 3019 2420 3045 
Q 2306 3072 2169 3072 
Q 1681 3072 1420 2755 
Q 1159 2438 1159 1844 
L 1159 0 
L 581 0 
L 581 3500 
L 1159 3500 
L 1159 2956 
Q 1341 3275 1631 3429 
Q 1922 3584 2338 3584 
Q 2397 3584 2469 3576 
Q 2541 3569 2628 3553 
L 2631 2963 
z
" transform="scale(0.015625)"/>
       <path id="DejaVuSans-69" d="M 603 3500 
L 1178 3500 
L 1178 0 
L 603 0 
L 603 3500 
z
M 603 4863 
L 1178 4863 
L 1178 4134 
L 603 4134 
L 603 4863 
z
" transform="scale(0.015625)"/>
       <path id="DejaVuSans-76" d="M 191 3500 
L 800 3500 
L 1894 563 
L 2988 3500 
L 3597 3500 
L 2284 0 
L 1503 0 
L 191 3500 
z
" transform="scale(0.015625)"/>
       <path id="DejaVuSans-20" transform="scale(0.015625)"/>
       <path id="DejaVuSans-303" d="M -1621 4281 
L -1799 4453 
Q -1867 4516 -1919 4545 
Q -1971 4575 -2011 4575 
Q -2130 4575 -2186 4461 
Q -2242 4347 -2249 4091 
L -2639 4091 
Q -2633 4513 -2473 4742 
Q -2314 4972 -2030 4972 
Q -1911 4972 -1811 4928 
Q -1711 4884 -1596 4781 
L -1417 4609 
Q -1349 4547 -1297 4517 
Q -1246 4488 -1205 4488 
Q -1086 4488 -1030 4602 
Q -974 4716 -967 4972 
L -577 4972 
Q -583 4550 -742 4320 
Q -902 4091 -1186 4091 
Q -1305 4091 -1405 4134 
Q -1505 4178 -1621 4281 
z
" transform="scale(0.015625)"/>
       <path id="DejaVuSans-Oblique-52" d="M 1613 4147 
L 1294 2491 
L 2106 2491 
Q 2584 2491 2879 2755 
Q 3175 3019 3175 3444 
Q 3175 3784 2976 3965 
Q 2778 4147 2406 4147 
L 1613 4147 
z
M 2772 2241 
Q 2972 2194 3105 2009 
Q 3238 1825 3413 1275 
L 3809 0 
L 3144 0 
L 2778 1197 
Q 2638 1659 2453 1815 
Q 2269 1972 1888 1972 
L 1191 1972 
L 806 0 
L 172 0 
L 1081 4666 
L 2503 4666 
Q 3150 4666 3495 4373 
Q 3841 4081 3841 3531 
Q 3841 3044 3547 2687 
Q 3253 2331 2772 2241 
z
" transform="scale(0.015625)"/>
       <path id="DejaVuSans-Oblique-74" d="M 2706 3500 
L 2619 3053 
L 1472 3053 
L 1100 1153 
Q 1081 1047 1072 975 
Q 1063 903 1063 863 
Q 1063 663 1183 572 
Q 1303 481 1569 481 
L 2150 481 
L 2053 0 
L 1503 0 
Q 991 0 739 200 
Q 488 400 488 806 
Q 488 878 497 964 
Q 506 1050 525 1153 
L 897 3053 
L 409 3053 
L 500 3500 
L 978 3500 
L 1172 4494 
L 1747 4494 
L 1556 3500 
L 2706 3500 
z
" transform="scale(0.015625)"/>
       <path id="DejaVuSans-Oblique-3c7" d="M 1922 -781 
L 1691 416 
L 394 -1334 
L -284 -1334 
L 1553 1141 
L 1269 2613 
Q 1194 3006 713 3006 
L 559 3006 
L 653 3500 
L 872 3494 
Q 1675 3472 1775 2950 
L 2006 1753 
L 3303 3503 
L 3981 3503 
L 2144 1028 
L 2428 -444 
Q 2503 -838 2984 -838 
L 3138 -838 
L 3044 -1331 
L 2825 -1325 
Q 2022 -1303 1922 -781 
z
" transform="scale(0.015625)"/>
       <path id="DejaVuSans-2c" d="M 750 794 
L 1409 794 
L 1409 256 
L 897 -744 
L 494 -744 
L 750 256 
L 750 794 
z
" transform="scale(0.015625)"/>
      </defs>
      <use xlink:href="#DejaVuSans-50" transform="translate(0 0.828125)"/>
      <use xlink:href="#DejaVuSans-72" transform="translate(60.302734 0.828125)"/>
      <use xlink:href="#DejaVuSans-69" transform="translate(101.416016 0.828125)"/>
      <use xlink:href="#DejaVuSans-76" transform="translate(129.199219 0.828125)"/>
      <use xlink:href="#DejaVuSans-61" transform="translate(188.378906 0.828125)"/>
      <use xlink:href="#DejaVuSans-74" transform="translate(249.658203 0.828125)"/>
      <use xlink:href="#DejaVuSans-65" transform="translate(288.867188 0.828125)"/>
      <use xlink:href="#DejaVuSans-20" transform="translate(350.390625 0.828125)"/>
      <use xlink:href="#DejaVuSans-56" transform="translate(382.177734 0.828125)"/>
      <use xlink:href="#DejaVuSans-61" transform="translate(450.585938 0.828125)"/>
      <use xlink:href="#DejaVuSans-6c" transform="translate(511.865234 0.828125)"/>
      <use xlink:href="#DejaVuSans-75" transform="translate(539.648438 0.828125)"/>
      <use xlink:href="#DejaVuSans-65" transform="translate(603.027344 0.828125)"/>
      <use xlink:href="#DejaVuSans-20" transform="translate(664.550781 0.828125)"/>
      <use xlink:href="#DejaVuSans-303" transform="translate(764.942871 22.3125)"/>
      <use xlink:href="#DejaVuSans-Oblique-52" transform="translate(696.337891 0.828125)"/>
      <use xlink:href="#DejaVuSans-Oblique-74" transform="translate(766.777344 39.109375) scale(0.7)"/>
      <use xlink:href="#DejaVuSans-Oblique-3c7" transform="translate(766.777344 -26.515625) scale(0.7)"/>
      <use xlink:href="#DejaVuSans-31" transform="translate(808.203125 -38) scale(0.49)"/>
      <use xlink:href="#DejaVuSans-2c" transform="translate(841.29248 -26.515625) scale(0.7)"/>
      <use xlink:href="#DejaVuSans-Oblique-3c7" transform="translate(877.181152 -26.515625) scale(0.7)"/>
      <use xlink:href="#DejaVuSans-33" transform="translate(918.606934 -38) scale(0.49)"/>
     </g>
    </g>
    <g id="line2d_26">
     <path d="M 60.241875 34 
L 70.241875 34 
L 80.241875 34 
" style="fill: none; stroke-dasharray: 5.55,2.4; stroke-dashoffset: 0; stroke: #000000; stroke-width: 1.5"/>
    </g>
    <g id="text_15">
     <!-- Original Value $\bar{R}_{\chi_1,\chi_3}^t$ -->
     <g transform="translate(88.241875 37.5) scale(0.1 -0.1)">
      <defs>
       <path id="DejaVuSans-4f" d="M 2522 4238 
Q 1834 4238 1429 3725 
Q 1025 3213 1025 2328 
Q 1025 1447 1429 934 
Q 1834 422 2522 422 
Q 3209 422 3611 934 
Q 4013 1447 4013 2328 
Q 4013 3213 3611 3725 
Q 3209 4238 2522 4238 
z
M 2522 4750 
Q 3503 4750 4090 4092 
Q 4678 3434 4678 2328 
Q 4678 1225 4090 567 
Q 3503 -91 2522 -91 
Q 1538 -91 948 565 
Q 359 1222 359 2328 
Q 359 3434 948 4092 
Q 1538 4750 2522 4750 
z
" transform="scale(0.015625)"/>
       <path id="DejaVuSans-67" d="M 2906 1791 
Q 2906 2416 2648 2759 
Q 2391 3103 1925 3103 
Q 1463 3103 1205 2759 
Q 947 2416 947 1791 
Q 947 1169 1205 825 
Q 1463 481 1925 481 
Q 2391 481 2648 825 
Q 2906 1169 2906 1791 
z
M 3481 434 
Q 3481 -459 3084 -895 
Q 2688 -1331 1869 -1331 
Q 1566 -1331 1297 -1286 
Q 1028 -1241 775 -1147 
L 775 -588 
Q 1028 -725 1275 -790 
Q 1522 -856 1778 -856 
Q 2344 -856 2625 -561 
Q 2906 -266 2906 331 
L 2906 616 
Q 2728 306 2450 153 
Q 2172 0 1784 0 
Q 1141 0 747 490 
Q 353 981 353 1791 
Q 353 2603 747 3093 
Q 1141 3584 1784 3584 
Q 2172 3584 2450 3431 
Q 2728 3278 2906 2969 
L 2906 3500 
L 3481 3500 
L 3481 434 
z
" transform="scale(0.015625)"/>
       <path id="DejaVuSans-6e" d="M 3513 2113 
L 3513 0 
L 2938 0 
L 2938 2094 
Q 2938 2591 2744 2837 
Q 2550 3084 2163 3084 
Q 1697 3084 1428 2787 
Q 1159 2491 1159 1978 
L 1159 0 
L 581 0 
L 581 3500 
L 1159 3500 
L 1159 2956 
Q 1366 3272 1645 3428 
Q 1925 3584 2291 3584 
Q 2894 3584 3203 3211 
Q 3513 2838 3513 2113 
z
" transform="scale(0.015625)"/>
       <path id="DejaVuSans-304" d="M -2518 4769 
L -650 4769 
L -650 4306 
L -2518 4306 
L -2518 4769 
z
" transform="scale(0.015625)"/>
      </defs>
      <use xlink:href="#DejaVuSans-4f" transform="translate(0 0.359375)"/>
      <use xlink:href="#DejaVuSans-72" transform="translate(78.710938 0.359375)"/>
      <use xlink:href="#DejaVuSans-69" transform="translate(119.824219 0.359375)"/>
      <use xlink:href="#DejaVuSans-67" transform="translate(147.607422 0.359375)"/>
      <use xlink:href="#DejaVuSans-69" transform="translate(211.083984 0.359375)"/>
      <use xlink:href="#DejaVuSans-6e" transform="translate(238.867188 0.359375)"/>
      <use xlink:href="#DejaVuSans-61" transform="translate(302.246094 0.359375)"/>
      <use xlink:href="#DejaVuSans-6c" transform="translate(363.525391 0.359375)"/>
      <use xlink:href="#DejaVuSans-20" transform="translate(391.308594 0.359375)"/>
      <use xlink:href="#DejaVuSans-56" transform="translate(423.095703 0.359375)"/>
      <use xlink:href="#DejaVuSans-61" transform="translate(491.503906 0.359375)"/>
      <use xlink:href="#DejaVuSans-6c" transform="translate(552.783203 0.359375)"/>
      <use xlink:href="#DejaVuSans-75" transform="translate(580.566406 0.359375)"/>
      <use xlink:href="#DejaVuSans-65" transform="translate(643.945312 0.359375)"/>
      <use xlink:href="#DejaVuSans-20" transform="translate(705.46875 0.359375)"/>
      <use xlink:href="#DejaVuSans-304" transform="translate(804.970215 18.484375)"/>
      <use xlink:href="#DejaVuSans-Oblique-52" transform="translate(737.255859 0.359375)"/>
      <use xlink:href="#DejaVuSans-Oblique-74" transform="translate(807.695312 38.640625) scale(0.7)"/>
      <use xlink:href="#DejaVuSans-Oblique-3c7" transform="translate(807.695312 -26.984375) scale(0.7)"/>
      <use xlink:href="#DejaVuSans-31" transform="translate(849.121094 -38.46875) scale(0.49)"/>
      <use xlink:href="#DejaVuSans-2c" transform="translate(882.210449 -26.984375) scale(0.7)"/>
      <use xlink:href="#DejaVuSans-Oblique-3c7" transform="translate(918.099121 -26.984375) scale(0.7)"/>
      <use xlink:href="#DejaVuSans-33" transform="translate(959.524902 -38.46875) scale(0.49)"/>
     </g>
    </g>
    <g id="patch_8">
     <path d="M 60.241875 54.298437 
L 80.241875 54.298437 
L 80.241875 47.298437 
L 60.241875 47.298437 
z
" style="fill: #134a8e; fill-opacity: 0.5; stroke: #134a8e; stroke-opacity: 0.5; stroke-width: 0.5; stroke-linejoin: miter"/>
    </g>
    <g id="text_16">
     <!-- One Standard Deviation -->
     <g transform="translate(88.241875 54.298437) scale(0.1 -0.1)">
      <defs>
       <path id="DejaVuSans-53" d="M 3425 4513 
L 3425 3897 
Q 3066 4069 2747 4153 
Q 2428 4238 2131 4238 
Q 1616 4238 1336 4038 
Q 1056 3838 1056 3469 
Q 1056 3159 1242 3001 
Q 1428 2844 1947 2747 
L 2328 2669 
Q 3034 2534 3370 2195 
Q 3706 1856 3706 1288 
Q 3706 609 3251 259 
Q 2797 -91 1919 -91 
Q 1588 -91 1214 -16 
Q 841 59 441 206 
L 441 856 
Q 825 641 1194 531 
Q 1563 422 1919 422 
Q 2459 422 2753 634 
Q 3047 847 3047 1241 
Q 3047 1584 2836 1778 
Q 2625 1972 2144 2069 
L 1759 2144 
Q 1053 2284 737 2584 
Q 422 2884 422 3419 
Q 422 4038 858 4394 
Q 1294 4750 2059 4750 
Q 2388 4750 2728 4690 
Q 3069 4631 3425 4513 
z
" transform="scale(0.015625)"/>
       <path id="DejaVuSans-64" d="M 2906 2969 
L 2906 4863 
L 3481 4863 
L 3481 0 
L 2906 0 
L 2906 525 
Q 2725 213 2448 61 
Q 2172 -91 1784 -91 
Q 1150 -91 751 415 
Q 353 922 353 1747 
Q 353 2572 751 3078 
Q 1150 3584 1784 3584 
Q 2172 3584 2448 3432 
Q 2725 3281 2906 2969 
z
M 947 1747 
Q 947 1113 1208 752 
Q 1469 391 1925 391 
Q 2381 391 2643 752 
Q 2906 1113 2906 1747 
Q 2906 2381 2643 2742 
Q 2381 3103 1925 3103 
Q 1469 3103 1208 2742 
Q 947 2381 947 1747 
z
" transform="scale(0.015625)"/>
       <path id="DejaVuSans-6f" d="M 1959 3097 
Q 1497 3097 1228 2736 
Q 959 2375 959 1747 
Q 959 1119 1226 758 
Q 1494 397 1959 397 
Q 2419 397 2687 759 
Q 2956 1122 2956 1747 
Q 2956 2369 2687 2733 
Q 2419 3097 1959 3097 
z
M 1959 3584 
Q 2709 3584 3137 3096 
Q 3566 2609 3566 1747 
Q 3566 888 3137 398 
Q 2709 -91 1959 -91 
Q 1206 -91 779 398 
Q 353 888 353 1747 
Q 353 2609 779 3096 
Q 1206 3584 1959 3584 
z
" transform="scale(0.015625)"/>
      </defs>
      <use xlink:href="#DejaVuSans-4f"/>
      <use xlink:href="#DejaVuSans-6e" x="78.710938"/>
      <use xlink:href="#DejaVuSans-65" x="142.089844"/>
      <use xlink:href="#DejaVuSans-20" x="203.613281"/>
      <use xlink:href="#DejaVuSans-53" x="235.400391"/>
      <use xlink:href="#DejaVuSans-74" x="298.876953"/>
      <use xlink:href="#DejaVuSans-61" x="338.085938"/>
      <use xlink:href="#DejaVuSans-6e" x="399.365234"/>
      <use xlink:href="#DejaVuSans-64" x="462.744141"/>
      <use xlink:href="#DejaVuSans-61" x="526.220703"/>
      <use xlink:href="#DejaVuSans-72" x="587.5"/>
      <use xlink:href="#DejaVuSans-64" x="626.863281"/>
      <use xlink:href="#DejaVuSans-20" x="690.339844"/>
      <use xlink:href="#DejaVuSans-44" x="722.126953"/>
      <use xlink:href="#DejaVuSans-65" x="799.128906"/>
      <use xlink:href="#DejaVuSans-76" x="860.652344"/>
      <use xlink:href="#DejaVuSans-69" x="919.832031"/>
      <use xlink:href="#DejaVuSans-61" x="947.615234"/>
      <use xlink:href="#DejaVuSans-74" x="1008.894531"/>
      <use xlink:href="#DejaVuSans-69" x="1048.103516"/>
      <use xlink:href="#DejaVuSans-6f" x="1075.886719"/>
      <use xlink:href="#DejaVuSans-6e" x="1137.068359"/>
     </g>
    </g>
   </g>
  </g>
 </g>
 <defs>
  <clipPath id="pddd7f9a3a9">
   <rect x="51.241875" y="-0" width="390.6" height="166.32"/>
  </clipPath>
 </defs>
</svg>
