<?xml version="1.0" encoding="utf-8" standalone="no"?>
<!DOCTYPE svg PUBLIC "-//W3C//DTD SVG 1.1//EN"
  "http://www.w3.org/Graphics/SVG/1.1/DTD/svg11.dtd">
<svg xmlns:xlink="http://www.w3.org/1999/xlink" width="444.375067pt" height="198.611875pt" viewBox="0 0 444.375067 198.611875" xmlns="http://www.w3.org/2000/svg" version="1.1">
 <metadata>
  <rdf:RDF xmlns:dc="http://purl.org/dc/elements/1.1/" xmlns:cc="http://creativecommons.org/ns#" xmlns:rdf="http://www.w3.org/1999/02/22-rdf-syntax-ns#">
   <cc:Work>
    <dc:type rdf:resource="http://purl.org/dc/dcmitype/StillImage"/>
    <dc:date>2024-09-18T15:47:49.271365</dc:date>
    <dc:format>image/svg+xml</dc:format>
    <dc:creator>
     <cc:Agent>
      <dc:title>Matplotlib v3.7.5, https://matplotlib.org/</dc:title>
     </cc:Agent>
    </dc:creator>
   </cc:Work>
  </rdf:RDF>
 </metadata>
 <defs>
  <style type="text/css">*{stroke-linejoin: round; stroke-linecap: butt}</style>
 </defs>
 <g id="figure_1">
  <g id="patch_1">
   <path d="M 0 198.611875 
L 444.375067 198.611875 
L 444.375067 0 
L 0 0 
z
" style="fill: #ffffff"/>
  </g>
  <g id="axes_1">
   <g id="patch_2">
    <path d="M 44.879375 166.32 
L 435.479375 166.32 
L 435.479375 -0 
L 44.879375 -0 
z
" style="fill: #e5e5e5"/>
   </g>
   <g id="matplotlib.axis_1">
    <g id="xtick_1">
     <g id="line2d_1">
      <path d="M 72.41989 166.32 
L 72.41989 -0 
" clip-path="url(#p62ee659822)" style="fill: none; stroke: #ffffff; stroke-width: 0.8; stroke-linecap: square"/>
     </g>
     <g id="line2d_2">
      <defs>
       <path id="mb5d4ebb468" d="M 0 0 
L 0 3.5 
" style="stroke: #555555; stroke-width: 0.8"/>
      </defs>
      <g>
       <use xlink:href="#mb5d4ebb468" x="72.41989" y="166.32" style="fill: #555555; stroke: #555555; stroke-width: 0.8"/>
      </g>
     </g>
     <g id="text_1">
      <!-- 08/16/20 -->
      <g style="fill: #555555" transform="translate(49.96364 180.918437) scale(0.1 -0.1)">
       <defs>
        <path id="DejaVuSans-30" d="M 2034 4250 
Q 1547 4250 1301 3770 
Q 1056 3291 1056 2328 
Q 1056 1369 1301 889 
Q 1547 409 2034 409 
Q 2525 409 2770 889 
Q 3016 1369 3016 2328 
Q 3016 3291 2770 3770 
Q 2525 4250 2034 4250 
z
M 2034 4750 
Q 2819 4750 3233 4129 
Q 3647 3509 3647 2328 
Q 3647 1150 3233 529 
Q 2819 -91 2034 -91 
Q 1250 -91 836 529 
Q 422 1150 422 2328 
Q 422 3509 836 4129 
Q 1250 4750 2034 4750 
z
" transform="scale(0.015625)"/>
        <path id="DejaVuSans-38" d="M 2034 2216 
Q 1584 2216 1326 1975 
Q 1069 1734 1069 1313 
Q 1069 891 1326 650 
Q 1584 409 2034 409 
Q 2484 409 2743 651 
Q 3003 894 3003 1313 
Q 3003 1734 2745 1975 
Q 2488 2216 2034 2216 
z
M 1403 2484 
Q 997 2584 770 2862 
Q 544 3141 544 3541 
Q 544 4100 942 4425 
Q 1341 4750 2034 4750 
Q 2731 4750 3128 4425 
Q 3525 4100 3525 3541 
Q 3525 3141 3298 2862 
Q 3072 2584 2669 2484 
Q 3125 2378 3379 2068 
Q 3634 1759 3634 1313 
Q 3634 634 3220 271 
Q 2806 -91 2034 -91 
Q 1263 -91 848 271 
Q 434 634 434 1313 
Q 434 1759 690 2068 
Q 947 2378 1403 2484 
z
M 1172 3481 
Q 1172 3119 1398 2916 
Q 1625 2713 2034 2713 
Q 2441 2713 2670 2916 
Q 2900 3119 2900 3481 
Q 2900 3844 2670 4047 
Q 2441 4250 2034 4250 
Q 1625 4250 1398 4047 
Q 1172 3844 1172 3481 
z
" transform="scale(0.015625)"/>
        <path id="DejaVuSans-2f" d="M 1625 4666 
L 2156 4666 
L 531 -594 
L 0 -594 
L 1625 4666 
z
" transform="scale(0.015625)"/>
        <path id="DejaVuSans-31" d="M 794 531 
L 1825 531 
L 1825 4091 
L 703 3866 
L 703 4441 
L 1819 4666 
L 2450 4666 
L 2450 531 
L 3481 531 
L 3481 0 
L 794 0 
L 794 531 
z
" transform="scale(0.015625)"/>
        <path id="DejaVuSans-36" d="M 2113 2584 
Q 1688 2584 1439 2293 
Q 1191 2003 1191 1497 
Q 1191 994 1439 701 
Q 1688 409 2113 409 
Q 2538 409 2786 701 
Q 3034 994 3034 1497 
Q 3034 2003 2786 2293 
Q 2538 2584 2113 2584 
z
M 3366 4563 
L 3366 3988 
Q 3128 4100 2886 4159 
Q 2644 4219 2406 4219 
Q 1781 4219 1451 3797 
Q 1122 3375 1075 2522 
Q 1259 2794 1537 2939 
Q 1816 3084 2150 3084 
Q 2853 3084 3261 2657 
Q 3669 2231 3669 1497 
Q 3669 778 3244 343 
Q 2819 -91 2113 -91 
Q 1303 -91 875 529 
Q 447 1150 447 2328 
Q 447 3434 972 4092 
Q 1497 4750 2381 4750 
Q 2619 4750 2861 4703 
Q 3103 4656 3366 4563 
z
" transform="scale(0.015625)"/>
        <path id="DejaVuSans-32" d="M 1228 531 
L 3431 531 
L 3431 0 
L 469 0 
L 469 531 
Q 828 903 1448 1529 
Q 2069 2156 2228 2338 
Q 2531 2678 2651 2914 
Q 2772 3150 2772 3378 
Q 2772 3750 2511 3984 
Q 2250 4219 1831 4219 
Q 1534 4219 1204 4116 
Q 875 4013 500 3803 
L 500 4441 
Q 881 4594 1212 4672 
Q 1544 4750 1819 4750 
Q 2544 4750 2975 4387 
Q 3406 4025 3406 3419 
Q 3406 3131 3298 2873 
Q 3191 2616 2906 2266 
Q 2828 2175 2409 1742 
Q 1991 1309 1228 531 
z
" transform="scale(0.015625)"/>
       </defs>
       <use xlink:href="#DejaVuSans-30"/>
       <use xlink:href="#DejaVuSans-38" x="63.623047"/>
       <use xlink:href="#DejaVuSans-2f" x="127.246094"/>
       <use xlink:href="#DejaVuSans-31" x="160.9375"/>
       <use xlink:href="#DejaVuSans-36" x="224.560547"/>
       <use xlink:href="#DejaVuSans-2f" x="288.183594"/>
       <use xlink:href="#DejaVuSans-32" x="321.875"/>
       <use xlink:href="#DejaVuSans-30" x="385.498047"/>
      </g>
     </g>
    </g>
    <g id="xtick_2">
     <g id="line2d_3">
      <path d="M 142.319676 166.32 
L 142.319676 -0 
" clip-path="url(#p62ee659822)" style="fill: none; stroke: #ffffff; stroke-width: 0.8; stroke-linecap: square"/>
     </g>
     <g id="line2d_4">
      <g>
       <use xlink:href="#mb5d4ebb468" x="142.319676" y="166.32" style="fill: #555555; stroke: #555555; stroke-width: 0.8"/>
      </g>
     </g>
     <g id="text_2">
      <!-- 10/05/20 -->
      <g style="fill: #555555" transform="translate(119.863426 180.918437) scale(0.1 -0.1)">
       <defs>
        <path id="DejaVuSans-35" d="M 691 4666 
L 3169 4666 
L 3169 4134 
L 1269 4134 
L 1269 2991 
Q 1406 3038 1543 3061 
Q 1681 3084 1819 3084 
Q 2600 3084 3056 2656 
Q 3513 2228 3513 1497 
Q 3513 744 3044 326 
Q 2575 -91 1722 -91 
Q 1428 -91 1123 -41 
Q 819 9 494 109 
L 494 744 
Q 775 591 1075 516 
Q 1375 441 1709 441 
Q 2250 441 2565 725 
Q 2881 1009 2881 1497 
Q 2881 1984 2565 2268 
Q 2250 2553 1709 2553 
Q 1456 2553 1204 2497 
Q 953 2441 691 2322 
L 691 4666 
z
" transform="scale(0.015625)"/>
       </defs>
       <use xlink:href="#DejaVuSans-31"/>
       <use xlink:href="#DejaVuSans-30" x="63.623047"/>
       <use xlink:href="#DejaVuSans-2f" x="127.246094"/>
       <use xlink:href="#DejaVuSans-30" x="160.9375"/>
       <use xlink:href="#DejaVuSans-35" x="224.560547"/>
       <use xlink:href="#DejaVuSans-2f" x="288.183594"/>
       <use xlink:href="#DejaVuSans-32" x="321.875"/>
       <use xlink:href="#DejaVuSans-30" x="385.498047"/>
      </g>
     </g>
    </g>
    <g id="xtick_3">
     <g id="line2d_5">
      <path d="M 212.219461 166.32 
L 212.219461 -0 
" clip-path="url(#p62ee659822)" style="fill: none; stroke: #ffffff; stroke-width: 0.8; stroke-linecap: square"/>
     </g>
     <g id="line2d_6">
      <g>
       <use xlink:href="#mb5d4ebb468" x="212.219461" y="166.32" style="fill: #555555; stroke: #555555; stroke-width: 0.8"/>
      </g>
     </g>
     <g id="text_3">
      <!-- 11/24/20 -->
      <g style="fill: #555555" transform="translate(189.763211 180.918437) scale(0.1 -0.1)">
       <defs>
        <path id="DejaVuSans-34" d="M 2419 4116 
L 825 1625 
L 2419 1625 
L 2419 4116 
z
M 2253 4666 
L 3047 4666 
L 3047 1625 
L 3713 1625 
L 3713 1100 
L 3047 1100 
L 3047 0 
L 2419 0 
L 2419 1100 
L 313 1100 
L 313 1709 
L 2253 4666 
z
" transform="scale(0.015625)"/>
       </defs>
       <use xlink:href="#DejaVuSans-31"/>
       <use xlink:href="#DejaVuSans-31" x="63.623047"/>
       <use xlink:href="#DejaVuSans-2f" x="127.246094"/>
       <use xlink:href="#DejaVuSans-32" x="160.9375"/>
       <use xlink:href="#DejaVuSans-34" x="224.560547"/>
       <use xlink:href="#DejaVuSans-2f" x="288.183594"/>
       <use xlink:href="#DejaVuSans-32" x="321.875"/>
       <use xlink:href="#DejaVuSans-30" x="385.498047"/>
      </g>
     </g>
    </g>
    <g id="xtick_4">
     <g id="line2d_7">
      <path d="M 282.119246 166.32 
L 282.119246 -0 
" clip-path="url(#p62ee659822)" style="fill: none; stroke: #ffffff; stroke-width: 0.8; stroke-linecap: square"/>
     </g>
     <g id="line2d_8">
      <g>
       <use xlink:href="#mb5d4ebb468" x="282.119246" y="166.32" style="fill: #555555; stroke: #555555; stroke-width: 0.8"/>
      </g>
     </g>
     <g id="text_4">
      <!-- 01/13/21 -->
      <g style="fill: #555555" transform="translate(259.662996 180.918437) scale(0.1 -0.1)">
       <defs>
        <path id="DejaVuSans-33" d="M 2597 2516 
Q 3050 2419 3304 2112 
Q 3559 1806 3559 1356 
Q 3559 666 3084 287 
Q 2609 -91 1734 -91 
Q 1441 -91 1130 -33 
Q 819 25 488 141 
L 488 750 
Q 750 597 1062 519 
Q 1375 441 1716 441 
Q 2309 441 2620 675 
Q 2931 909 2931 1356 
Q 2931 1769 2642 2001 
Q 2353 2234 1838 2234 
L 1294 2234 
L 1294 2753 
L 1863 2753 
Q 2328 2753 2575 2939 
Q 2822 3125 2822 3475 
Q 2822 3834 2567 4026 
Q 2313 4219 1838 4219 
Q 1578 4219 1281 4162 
Q 984 4106 628 3988 
L 628 4550 
Q 988 4650 1302 4700 
Q 1616 4750 1894 4750 
Q 2613 4750 3031 4423 
Q 3450 4097 3450 3541 
Q 3450 3153 3228 2886 
Q 3006 2619 2597 2516 
z
" transform="scale(0.015625)"/>
       </defs>
       <use xlink:href="#DejaVuSans-30"/>
       <use xlink:href="#DejaVuSans-31" x="63.623047"/>
       <use xlink:href="#DejaVuSans-2f" x="127.246094"/>
       <use xlink:href="#DejaVuSans-31" x="160.9375"/>
       <use xlink:href="#DejaVuSans-33" x="224.560547"/>
       <use xlink:href="#DejaVuSans-2f" x="288.183594"/>
       <use xlink:href="#DejaVuSans-32" x="321.875"/>
       <use xlink:href="#DejaVuSans-31" x="385.498047"/>
      </g>
     </g>
    </g>
    <g id="xtick_5">
     <g id="line2d_9">
      <path d="M 352.019031 166.32 
L 352.019031 -0 
" clip-path="url(#p62ee659822)" style="fill: none; stroke: #ffffff; stroke-width: 0.8; stroke-linecap: square"/>
     </g>
     <g id="line2d_10">
      <g>
       <use xlink:href="#mb5d4ebb468" x="352.019031" y="166.32" style="fill: #555555; stroke: #555555; stroke-width: 0.8"/>
      </g>
     </g>
     <g id="text_5">
      <!-- 03/04/21 -->
      <g style="fill: #555555" transform="translate(329.562781 180.918437) scale(0.1 -0.1)">
       <use xlink:href="#DejaVuSans-30"/>
       <use xlink:href="#DejaVuSans-33" x="63.623047"/>
       <use xlink:href="#DejaVuSans-2f" x="127.246094"/>
       <use xlink:href="#DejaVuSans-30" x="160.9375"/>
       <use xlink:href="#DejaVuSans-34" x="224.560547"/>
       <use xlink:href="#DejaVuSans-2f" x="288.183594"/>
       <use xlink:href="#DejaVuSans-32" x="321.875"/>
       <use xlink:href="#DejaVuSans-31" x="385.498047"/>
      </g>
     </g>
    </g>
    <g id="xtick_6">
     <g id="line2d_11">
      <path d="M 421.918817 166.32 
L 421.918817 -0 
" clip-path="url(#p62ee659822)" style="fill: none; stroke: #ffffff; stroke-width: 0.8; stroke-linecap: square"/>
     </g>
     <g id="line2d_12">
      <g>
       <use xlink:href="#mb5d4ebb468" x="421.918817" y="166.32" style="fill: #555555; stroke: #555555; stroke-width: 0.8"/>
      </g>
     </g>
     <g id="text_6">
      <!-- 04/23/21 -->
      <g style="fill: #555555" transform="translate(399.462567 180.918437) scale(0.1 -0.1)">
       <use xlink:href="#DejaVuSans-30"/>
       <use xlink:href="#DejaVuSans-34" x="63.623047"/>
       <use xlink:href="#DejaVuSans-2f" x="127.246094"/>
       <use xlink:href="#DejaVuSans-32" x="160.9375"/>
       <use xlink:href="#DejaVuSans-33" x="224.560547"/>
       <use xlink:href="#DejaVuSans-2f" x="288.183594"/>
       <use xlink:href="#DejaVuSans-32" x="321.875"/>
       <use xlink:href="#DejaVuSans-31" x="385.498047"/>
      </g>
     </g>
    </g>
    <g id="text_7">
     <!-- Date -->
     <g style="fill: #555555" transform="translate(225.838438 196.11625) scale(0.12 -0.12)">
      <defs>
       <path id="DejaVuSans-44" d="M 1259 4147 
L 1259 519 
L 2022 519 
Q 2988 519 3436 956 
Q 3884 1394 3884 2338 
Q 3884 3275 3436 3711 
Q 2988 4147 2022 4147 
L 1259 4147 
z
M 628 4666 
L 1925 4666 
Q 3281 4666 3915 4102 
Q 4550 3538 4550 2338 
Q 4550 1131 3912 565 
Q 3275 0 1925 0 
L 628 0 
L 628 4666 
z
" transform="scale(0.015625)"/>
       <path id="DejaVuSans-61" d="M 2194 1759 
Q 1497 1759 1228 1600 
Q 959 1441 959 1056 
Q 959 750 1161 570 
Q 1363 391 1709 391 
Q 2188 391 2477 730 
Q 2766 1069 2766 1631 
L 2766 1759 
L 2194 1759 
z
M 3341 1997 
L 3341 0 
L 2766 0 
L 2766 531 
Q 2569 213 2275 61 
Q 1981 -91 1556 -91 
Q 1019 -91 701 211 
Q 384 513 384 1019 
Q 384 1609 779 1909 
Q 1175 2209 1959 2209 
L 2766 2209 
L 2766 2266 
Q 2766 2663 2505 2880 
Q 2244 3097 1772 3097 
Q 1472 3097 1187 3025 
Q 903 2953 641 2809 
L 641 3341 
Q 956 3463 1253 3523 
Q 1550 3584 1831 3584 
Q 2591 3584 2966 3190 
Q 3341 2797 3341 1997 
z
" transform="scale(0.015625)"/>
       <path id="DejaVuSans-74" d="M 1172 4494 
L 1172 3500 
L 2356 3500 
L 2356 3053 
L 1172 3053 
L 1172 1153 
Q 1172 725 1289 603 
Q 1406 481 1766 481 
L 2356 481 
L 2356 0 
L 1766 0 
Q 1100 0 847 248 
Q 594 497 594 1153 
L 594 3053 
L 172 3053 
L 172 3500 
L 594 3500 
L 594 4494 
L 1172 4494 
z
" transform="scale(0.015625)"/>
       <path id="DejaVuSans-65" d="M 3597 1894 
L 3597 1613 
L 953 1613 
Q 991 1019 1311 708 
Q 1631 397 2203 397 
Q 2534 397 2845 478 
Q 3156 559 3463 722 
L 3463 178 
Q 3153 47 2828 -22 
Q 2503 -91 2169 -91 
Q 1331 -91 842 396 
Q 353 884 353 1716 
Q 353 2575 817 3079 
Q 1281 3584 2069 3584 
Q 2775 3584 3186 3129 
Q 3597 2675 3597 1894 
z
M 3022 2063 
Q 3016 2534 2758 2815 
Q 2500 3097 2075 3097 
Q 1594 3097 1305 2825 
Q 1016 2553 972 2059 
L 3022 2063 
z
" transform="scale(0.015625)"/>
      </defs>
      <use xlink:href="#DejaVuSans-44"/>
      <use xlink:href="#DejaVuSans-61" x="77.001953"/>
      <use xlink:href="#DejaVuSans-74" x="138.28125"/>
      <use xlink:href="#DejaVuSans-65" x="177.490234"/>
     </g>
    </g>
   </g>
   <g id="matplotlib.axis_2">
    <g id="ytick_1">
     <g id="line2d_13">
      <path d="M 44.879375 163.276585 
L 435.479375 163.276585 
" clip-path="url(#p62ee659822)" style="fill: none; stroke: #ffffff; stroke-width: 0.8; stroke-linecap: square"/>
     </g>
     <g id="line2d_14">
      <defs>
       <path id="m8cf902b1f5" d="M 0 0 
L -3.5 0 
" style="stroke: #555555; stroke-width: 0.8"/>
      </defs>
      <g>
       <use xlink:href="#m8cf902b1f5" x="44.879375" y="163.276585" style="fill: #555555; stroke: #555555; stroke-width: 0.8"/>
      </g>
     </g>
     <g id="text_8">
      <!-- 0.00 -->
      <g style="fill: #555555" transform="translate(15.61375 167.075803) scale(0.1 -0.1)">
       <defs>
        <path id="DejaVuSans-2e" d="M 684 794 
L 1344 794 
L 1344 0 
L 684 0 
L 684 794 
z
" transform="scale(0.015625)"/>
       </defs>
       <use xlink:href="#DejaVuSans-30"/>
       <use xlink:href="#DejaVuSans-2e" x="63.623047"/>
       <use xlink:href="#DejaVuSans-30" x="95.410156"/>
       <use xlink:href="#DejaVuSans-30" x="159.033203"/>
      </g>
     </g>
    </g>
    <g id="ytick_2">
     <g id="line2d_15">
      <path d="M 44.879375 140.826464 
L 435.479375 140.826464 
" clip-path="url(#p62ee659822)" style="fill: none; stroke: #ffffff; stroke-width: 0.8; stroke-linecap: square"/>
     </g>
     <g id="line2d_16">
      <g>
       <use xlink:href="#m8cf902b1f5" x="44.879375" y="140.826464" style="fill: #555555; stroke: #555555; stroke-width: 0.8"/>
      </g>
     </g>
     <g id="text_9">
      <!-- 0.02 -->
      <g style="fill: #555555" transform="translate(15.61375 144.625683) scale(0.1 -0.1)">
       <use xlink:href="#DejaVuSans-30"/>
       <use xlink:href="#DejaVuSans-2e" x="63.623047"/>
       <use xlink:href="#DejaVuSans-30" x="95.410156"/>
       <use xlink:href="#DejaVuSans-32" x="159.033203"/>
      </g>
     </g>
    </g>
    <g id="ytick_3">
     <g id="line2d_17">
      <path d="M 44.879375 118.376343 
L 435.479375 118.376343 
" clip-path="url(#p62ee659822)" style="fill: none; stroke: #ffffff; stroke-width: 0.8; stroke-linecap: square"/>
     </g>
     <g id="line2d_18">
      <g>
       <use xlink:href="#m8cf902b1f5" x="44.879375" y="118.376343" style="fill: #555555; stroke: #555555; stroke-width: 0.8"/>
      </g>
     </g>
     <g id="text_10">
      <!-- 0.04 -->
      <g style="fill: #555555" transform="translate(15.61375 122.175562) scale(0.1 -0.1)">
       <use xlink:href="#DejaVuSans-30"/>
       <use xlink:href="#DejaVuSans-2e" x="63.623047"/>
       <use xlink:href="#DejaVuSans-30" x="95.410156"/>
       <use xlink:href="#DejaVuSans-34" x="159.033203"/>
      </g>
     </g>
    </g>
    <g id="ytick_4">
     <g id="line2d_19">
      <path d="M 44.879375 95.926222 
L 435.479375 95.926222 
" clip-path="url(#p62ee659822)" style="fill: none; stroke: #ffffff; stroke-width: 0.8; stroke-linecap: square"/>
     </g>
     <g id="line2d_20">
      <g>
       <use xlink:href="#m8cf902b1f5" x="44.879375" y="95.926222" style="fill: #555555; stroke: #555555; stroke-width: 0.8"/>
      </g>
     </g>
     <g id="text_11">
      <!-- 0.06 -->
      <g style="fill: #555555" transform="translate(15.61375 99.725441) scale(0.1 -0.1)">
       <use xlink:href="#DejaVuSans-30"/>
       <use xlink:href="#DejaVuSans-2e" x="63.623047"/>
       <use xlink:href="#DejaVuSans-30" x="95.410156"/>
       <use xlink:href="#DejaVuSans-36" x="159.033203"/>
      </g>
     </g>
    </g>
    <g id="ytick_5">
     <g id="line2d_21">
      <path d="M 44.879375 73.476102 
L 435.479375 73.476102 
" clip-path="url(#p62ee659822)" style="fill: none; stroke: #ffffff; stroke-width: 0.8; stroke-linecap: square"/>
     </g>
     <g id="line2d_22">
      <g>
       <use xlink:href="#m8cf902b1f5" x="44.879375" y="73.476102" style="fill: #555555; stroke: #555555; stroke-width: 0.8"/>
      </g>
     </g>
     <g id="text_12">
      <!-- 0.08 -->
      <g style="fill: #555555" transform="translate(15.61375 77.275321) scale(0.1 -0.1)">
       <use xlink:href="#DejaVuSans-30"/>
       <use xlink:href="#DejaVuSans-2e" x="63.623047"/>
       <use xlink:href="#DejaVuSans-30" x="95.410156"/>
       <use xlink:href="#DejaVuSans-38" x="159.033203"/>
      </g>
     </g>
    </g>
    <g id="ytick_6">
     <g id="line2d_23">
      <path d="M 44.879375 51.025981 
L 435.479375 51.025981 
" clip-path="url(#p62ee659822)" style="fill: none; stroke: #ffffff; stroke-width: 0.8; stroke-linecap: square"/>
     </g>
     <g id="line2d_24">
      <g>
       <use xlink:href="#m8cf902b1f5" x="44.879375" y="51.025981" style="fill: #555555; stroke: #555555; stroke-width: 0.8"/>
      </g>
     </g>
     <g id="text_13">
      <!-- 0.10 -->
      <g style="fill: #555555" transform="translate(15.61375 54.8252) scale(0.1 -0.1)">
       <use xlink:href="#DejaVuSans-30"/>
       <use xlink:href="#DejaVuSans-2e" x="63.623047"/>
       <use xlink:href="#DejaVuSans-31" x="95.410156"/>
       <use xlink:href="#DejaVuSans-30" x="159.033203"/>
      </g>
     </g>
    </g>
    <g id="ytick_7">
     <g id="line2d_25">
      <path d="M 44.879375 28.57586 
L 435.479375 28.57586 
" clip-path="url(#p62ee659822)" style="fill: none; stroke: #ffffff; stroke-width: 0.8; stroke-linecap: square"/>
     </g>
     <g id="line2d_26">
      <g>
       <use xlink:href="#m8cf902b1f5" x="44.879375" y="28.57586" style="fill: #555555; stroke: #555555; stroke-width: 0.8"/>
      </g>
     </g>
     <g id="text_14">
      <!-- 0.12 -->
      <g style="fill: #555555" transform="translate(15.61375 32.375079) scale(0.1 -0.1)">
       <use xlink:href="#DejaVuSans-30"/>
       <use xlink:href="#DejaVuSans-2e" x="63.623047"/>
       <use xlink:href="#DejaVuSans-31" x="95.410156"/>
       <use xlink:href="#DejaVuSans-32" x="159.033203"/>
      </g>
     </g>
    </g>
    <g id="ytick_8">
     <g id="line2d_27">
      <path d="M 44.879375 6.12574 
L 435.479375 6.12574 
" clip-path="url(#p62ee659822)" style="fill: none; stroke: #ffffff; stroke-width: 0.8; stroke-linecap: square"/>
     </g>
     <g id="line2d_28">
      <g>
       <use xlink:href="#m8cf902b1f5" x="44.879375" y="6.12574" style="fill: #555555; stroke: #555555; stroke-width: 0.8"/>
      </g>
     </g>
     <g id="text_15">
      <!-- 0.14 -->
      <g style="fill: #555555" transform="translate(15.61375 9.924958) scale(0.1 -0.1)">
       <use xlink:href="#DejaVuSans-30"/>
       <use xlink:href="#DejaVuSans-2e" x="63.623047"/>
       <use xlink:href="#DejaVuSans-31" x="95.410156"/>
       <use xlink:href="#DejaVuSans-34" x="159.033203"/>
      </g>
     </g>
    </g>
    <g id="text_16">
     <!-- Value -->
     <g style="fill: #555555" transform="translate(9.118125 99.6375) rotate(-90) scale(0.12 -0.12)">
      <defs>
       <path id="DejaVuSans-56" d="M 1831 0 
L 50 4666 
L 709 4666 
L 2188 738 
L 3669 4666 
L 4325 4666 
L 2547 0 
L 1831 0 
z
" transform="scale(0.015625)"/>
       <path id="DejaVuSans-6c" d="M 603 4863 
L 1178 4863 
L 1178 0 
L 603 0 
L 603 4863 
z
" transform="scale(0.015625)"/>
       <path id="DejaVuSans-75" d="M 544 1381 
L 544 3500 
L 1119 3500 
L 1119 1403 
Q 1119 906 1312 657 
Q 1506 409 1894 409 
Q 2359 409 2629 706 
Q 2900 1003 2900 1516 
L 2900 3500 
L 3475 3500 
L 3475 0 
L 2900 0 
L 2900 538 
Q 2691 219 2414 64 
Q 2138 -91 1772 -91 
Q 1169 -91 856 284 
Q 544 659 544 1381 
z
M 1991 3584 
L 1991 3584 
z
" transform="scale(0.015625)"/>
      </defs>
      <use xlink:href="#DejaVuSans-56"/>
      <use xlink:href="#DejaVuSans-61" x="60.658203"/>
      <use xlink:href="#DejaVuSans-6c" x="121.9375"/>
      <use xlink:href="#DejaVuSans-75" x="149.720703"/>
      <use xlink:href="#DejaVuSans-65" x="213.099609"/>
     </g>
    </g>
   </g>
   <g id="PolyCollection_1">
    <defs>
     <path id="m1d8d0725af" d="M 62.63392 -55.475922 
L 62.63392 -68.762175 
L 64.031916 -70.054836 
L 65.429912 -68.238718 
L 66.827908 -67.73402 
L 68.225903 -67.380697 
L 69.623899 -69.084606 
L 71.021895 -68.820229 
L 72.41989 -69.397104 
L 73.817886 -69.297491 
L 75.215882 -69.159995 
L 76.613878 -71.821458 
L 78.011873 -70.915046 
L 79.409869 -68.454168 
L 80.807865 -70.044483 
L 82.20586 -67.577711 
L 83.603856 -69.483118 
L 85.001852 -76.971241 
L 86.399847 -78.044212 
L 87.797843 -76.887848 
L 89.195839 -77.539417 
L 90.593835 -81.977633 
L 91.99183 -86.313178 
L 93.389826 -85.902367 
L 94.787822 -93.690653 
L 96.185817 -94.849959 
L 97.583813 -103.003174 
L 98.981809 -106.068554 
L 100.379804 -95.213505 
L 101.7778 -87.402659 
L 103.175796 -94.806719 
L 104.573792 -88.246279 
L 105.971787 -86.841415 
L 107.369783 -67.5287 
L 108.767779 -67.571136 
L 110.165774 -70.910056 
L 111.56377 -67.245085 
L 112.961766 -70.616559 
L 114.359762 -68.408662 
L 115.757757 -66.347646 
L 117.155753 -67.234377 
L 118.553749 -69.27769 
L 119.951744 -68.796397 
L 121.34974 -69.51364 
L 122.747736 -69.232804 
L 124.145731 -69.690163 
L 125.543727 -71.612429 
L 126.941723 -69.447919 
L 128.339719 -70.897834 
L 129.737714 -69.818559 
L 131.13571 -70.663605 
L 132.533706 -70.891267 
L 133.931701 -70.826299 
L 135.329697 -72.783681 
L 136.727693 -69.851213 
L 138.125689 -70.314023 
L 139.523684 -69.807377 
L 140.92168 -73.266354 
L 142.319676 -73.643564 
L 143.717671 -72.115976 
L 145.115667 -72.9013 
L 146.513663 -71.508638 
L 147.911658 -70.483602 
L 149.309654 -75.807219 
L 150.70765 -76.750448 
L 152.105646 -79.19596 
L 153.503641 -76.678509 
L 154.901637 -78.381647 
L 156.299633 -77.67275 
L 157.697628 -77.767329 
L 159.095624 -81.580156 
L 160.49362 -79.52159 
L 161.891616 -79.197839 
L 163.289611 -79.055007 
L 164.687607 -82.239522 
L 166.085603 -82.477569 
L 167.483598 -81.728936 
L 168.881594 -81.792157 
L 170.27959 -52.184697 
L 171.677585 -51.621016 
L 173.075581 -51.720851 
L 174.473577 -50.749261 
L 175.871573 -50.673722 
L 177.269568 -50.197859 
L 178.667564 -51.05684 
L 180.06556 -80.000333 
L 181.463555 -83.475536 
L 182.861551 -84.946404 
L 184.259547 -87.56517 
L 185.657543 -86.01528 
L 187.055538 -84.89588 
L 188.453534 -86.249871 
L 189.85153 -88.084807 
L 191.249525 -86.523135 
L 192.647521 -86.155873 
L 194.045517 -84.818011 
L 195.443512 -87.206204 
L 196.841508 -86.715509 
L 198.239504 -84.380268 
L 199.6375 -86.343946 
L 201.035495 -54.497897 
L 202.433491 -87.322517 
L 203.831487 -89.497234 
L 205.229482 -52.695383 
L 206.627478 -51.807953 
L 208.025474 -51.590808 
L 209.423469 -51.355387 
L 210.821465 -51.374876 
L 212.219461 -51.177337 
L 213.617457 -51.50027 
L 215.015452 -50.599179 
L 216.413448 -51.156293 
L 217.811444 -51.44494 
L 219.209439 -51.643826 
L 220.607435 -52.145787 
L 222.005431 -51.841393 
L 223.403427 -51.919416 
L 224.801422 -52.829759 
L 226.199418 -52.577276 
L 227.597414 -52.349814 
L 228.995409 -53.660767 
L 230.393405 -53.434558 
L 231.791401 -53.022441 
L 233.189396 -53.935109 
L 234.587392 -88.271841 
L 235.985388 -84.828285 
L 237.383384 -88.908298 
L 238.781379 -85.333953 
L 240.179375 -53.463586 
L 241.577371 -54.000134 
L 242.975366 -54.403953 
L 244.373362 -86.301679 
L 245.771358 -90.828757 
L 247.169354 -90.98017 
L 248.567349 -88.357614 
L 249.965345 -88.429471 
L 251.363341 -84.250085 
L 252.761336 -84.59008 
L 254.159332 -52.990009 
L 255.557328 -83.836822 
L 256.955323 -85.511248 
L 258.353319 -84.501168 
L 259.751315 -85.393414 
L 261.149311 -85.341664 
L 262.547306 -87.052691 
L 263.945302 -54.530072 
L 265.343298 -52.804634 
L 266.741293 -87.303066 
L 268.139289 -87.478168 
L 269.537285 -86.859176 
L 270.935281 -87.031815 
L 272.333276 -93.678791 
L 273.731272 -99.507422 
L 275.129268 -96.249112 
L 276.527263 -94.796195 
L 277.925259 -96.936617 
L 279.323255 -96.888365 
L 280.72125 -102.123181 
L 282.119246 -139.128576 
L 283.517242 -185.554695 
L 284.915238 -191.051875 
L 286.313233 -141.831508 
L 287.711229 -137.992289 
L 289.109225 -136.422738 
L 290.50722 -136.2861 
L 291.905216 -102.436286 
L 293.303212 -100.860985 
L 294.701207 -100.938857 
L 296.099203 -97.041512 
L 297.497199 -98.487958 
L 298.895195 -97.04557 
L 300.29319 -94.970966 
L 301.691186 -90.247331 
L 303.089182 -89.741726 
L 304.487177 -85.130119 
L 305.885173 -85.810868 
L 307.283169 -83.023123 
L 308.681165 -84.365916 
L 310.07916 -83.030952 
L 311.477156 -51.417117 
L 312.875152 -52.105046 
L 314.273147 -52.163618 
L 315.671143 -81.361322 
L 317.069139 -52.862337 
L 318.467134 -53.42833 
L 319.86513 -52.397432 
L 321.263126 -53.332678 
L 322.661122 -81.235613 
L 324.059117 -54.123066 
L 325.457113 -83.754047 
L 326.855109 -82.702673 
L 328.253104 -81.088885 
L 329.6511 -83.08843 
L 331.049096 -103.478081 
L 332.447092 -86.040903 
L 333.845087 -86.500861 
L 335.243083 -85.959716 
L 336.641079 -85.698155 
L 338.039074 -87.354146 
L 339.43707 -105.780081 
L 340.835066 -87.07379 
L 342.233061 -83.585348 
L 343.631057 -83.820943 
L 345.029053 -83.225082 
L 346.427049 -84.279461 
L 347.825044 -54.78671 
L 349.22304 -81.186751 
L 350.621036 -80.908098 
L 352.019031 -43.973333 
L 353.417027 -43.813513 
L 354.815023 -43.928968 
L 356.213019 -44.145275 
L 357.611014 -43.880076 
L 359.00901 -43.753622 
L 360.407006 -43.239852 
L 361.805001 -43.159203 
L 363.202997 -43.155837 
L 364.600993 -43.118674 
L 365.998988 -43.102957 
L 367.396984 -42.606063 
L 368.79498 -43.120861 
L 370.192976 -44.095462 
L 371.590971 -44.921876 
L 372.988967 -44.655231 
L 374.386963 -44.605682 
L 375.784958 -44.446808 
L 377.182954 -44.437699 
L 378.58095 -44.411718 
L 379.978946 -49.81339 
L 381.376941 -50.0313 
L 382.774937 -50.228207 
L 384.172933 -50.66045 
L 385.570928 -50.221251 
L 386.968924 -54.931802 
L 388.36692 -54.521887 
L 389.764915 -92.138141 
L 391.162911 -89.352459 
L 392.560907 -91.092085 
L 393.958903 -92.368048 
L 395.356898 -91.330223 
L 396.754894 -93.386118 
L 398.15289 -98.000064 
L 399.550885 -100.113834 
L 400.948881 -102.019134 
L 402.346877 -106.804555 
L 403.744872 -106.736165 
L 405.142868 -105.899507 
L 406.540864 -108.722303 
L 407.93886 -118.224415 
L 409.336855 -114.015502 
L 410.734851 -166.207678 
L 412.132847 -173.161802 
L 413.530842 -167.540092 
L 414.928838 -118.047674 
L 416.326834 -122.126337 
L 417.72483 -119.522477 
L 417.72483 -96.374316 
L 417.72483 -96.374316 
L 416.326834 -98.790126 
L 414.928838 -97.264258 
L 413.530842 -141.312179 
L 412.132847 -145.864776 
L 410.734851 -137.58899 
L 409.336855 -92.163692 
L 407.93886 -95.715694 
L 406.540864 -84.417445 
L 405.142868 -82.221335 
L 403.744872 -82.221672 
L 402.346877 -83.728802 
L 400.948881 -78.09832 
L 399.550885 -75.904195 
L 398.15289 -74.76331 
L 396.754894 -70.707895 
L 395.356898 -67.515465 
L 393.958903 -67.335795 
L 392.560907 -67.786911 
L 391.162911 -66.010591 
L 389.764915 -68.371371 
L 388.36692 -50.985414 
L 386.968924 -51.940553 
L 385.570928 -47.106327 
L 384.172933 -47.167134 
L 382.774937 -46.988003 
L 381.376941 -46.726134 
L 379.978946 -46.443467 
L 378.58095 -41.601219 
L 377.182954 -41.667761 
L 375.784958 -41.852235 
L 374.386963 -41.890494 
L 372.988967 -41.966945 
L 371.590971 -42.459737 
L 370.192976 -41.370609 
L 368.79498 -40.728765 
L 367.396984 -39.851875 
L 365.998988 -40.615664 
L 364.600993 -40.593038 
L 363.202997 -40.51457 
L 361.805001 -40.48579 
L 360.407006 -40.632804 
L 359.00901 -40.918776 
L 357.611014 -41.030578 
L 356.213019 -41.410937 
L 354.815023 -41.203074 
L 353.417027 -41.217257 
L 352.019031 -41.719757 
L 350.621036 -59.717125 
L 349.22304 -62.471042 
L 347.825044 -50.528165 
L 346.427049 -66.015702 
L 345.029053 -66.14629 
L 343.631057 -65.428163 
L 342.233061 -68.464908 
L 340.835066 -73.658571 
L 339.43707 -89.953978 
L 338.039074 -71.771164 
L 336.641079 -71.039937 
L 335.243083 -72.803335 
L 333.845087 -72.490494 
L 332.447092 -70.171824 
L 331.049096 -90.083317 
L 329.6511 -65.132514 
L 328.253104 -62.950087 
L 326.855109 -64.307916 
L 325.457113 -62.612384 
L 324.059117 -49.892653 
L 322.661122 -60.786829 
L 321.263126 -49.331459 
L 319.86513 -48.75549 
L 318.467134 -49.162741 
L 317.069139 -48.928263 
L 315.671143 -59.510658 
L 314.273147 -48.330651 
L 312.875152 -48.216377 
L 311.477156 -48.205796 
L 310.07916 -62.705478 
L 308.681165 -62.296127 
L 307.283169 -62.188348 
L 305.885173 -62.110377 
L 304.487177 -64.764059 
L 303.089182 -69.5417 
L 301.691186 -71.008546 
L 300.29319 -75.742435 
L 298.895195 -78.201464 
L 297.497199 -78.81515 
L 296.099203 -77.802549 
L 294.701207 -82.860998 
L 293.303212 -82.133067 
L 291.905216 -83.352283 
L 290.50722 -113.542538 
L 289.109225 -114.15295 
L 287.711229 -117.178654 
L 286.313233 -122.288973 
L 284.915238 -157.775047 
L 283.517242 -151.671127 
L 282.119246 -120.835763 
L 280.72125 -81.718622 
L 279.323255 -77.265153 
L 277.925259 -78.452639 
L 276.527263 -75.818855 
L 275.129268 -76.597819 
L 273.731272 -78.550446 
L 272.333276 -74.315705 
L 270.935281 -65.840765 
L 269.537285 -66.017883 
L 268.139289 -64.97802 
L 266.741293 -65.013959 
L 265.343298 -49.126191 
L 263.945302 -51.067676 
L 262.547306 -63.444014 
L 261.149311 -63.205652 
L 259.751315 -62.877169 
L 258.353319 -62.026623 
L 256.955323 -61.624796 
L 255.557328 -61.347755 
L 254.159332 -49.11999 
L 252.761336 -62.102447 
L 251.363341 -60.997166 
L 249.965345 -64.203401 
L 248.567349 -63.337978 
L 247.169354 -65.280333 
L 245.771358 -65.450208 
L 244.373362 -62.966292 
L 242.975366 -50.803923 
L 241.577371 -50.66883 
L 240.179375 -50.183412 
L 238.781379 -61.668107 
L 237.383384 -65.574023 
L 235.985388 -61.252962 
L 234.587392 -63.872614 
L 233.189396 -50.19981 
L 231.791401 -50.01712 
L 230.393405 -49.84238 
L 228.995409 -50.253638 
L 227.597414 -49.35022 
L 226.199418 -49.26044 
L 224.801422 -49.375506 
L 223.403427 -48.679391 
L 222.005431 -48.353724 
L 220.607435 -48.883216 
L 219.209439 -48.528252 
L 217.811444 -47.948997 
L 216.413448 -48.079465 
L 215.015452 -47.231247 
L 213.617457 -48.160733 
L 212.219461 -47.617869 
L 210.821465 -48.160831 
L 209.423469 -48.061764 
L 208.025474 -48.560954 
L 206.627478 -48.345894 
L 205.229482 -49.25546 
L 203.831487 -64.380526 
L 202.433491 -61.088891 
L 201.035495 -51.070875 
L 199.6375 -60.367555 
L 198.239504 -61.471828 
L 196.841508 -63.033948 
L 195.443512 -64.064551 
L 194.045517 -63.315426 
L 192.647521 -62.860654 
L 191.249525 -62.343648 
L 189.85153 -63.771516 
L 188.453534 -65.860203 
L 187.055538 -62.805716 
L 185.657543 -62.321278 
L 184.259547 -65.021162 
L 182.861551 -63.613321 
L 181.463555 -61.217559 
L 180.06556 -57.893657 
L 178.667564 -47.99875 
L 177.269568 -46.778211 
L 175.871573 -47.156805 
L 174.473577 -47.253189 
L 173.075581 -48.321436 
L 171.677585 -47.828533 
L 170.27959 -48.215178 
L 168.881594 -60.837817 
L 167.483598 -61.442055 
L 166.085603 -61.412793 
L 164.687607 -61.164674 
L 163.289611 -60.607448 
L 161.891616 -59.128606 
L 160.49362 -59.676906 
L 159.095624 -61.511067 
L 157.697628 -60.480544 
L 156.299633 -61.987892 
L 154.901637 -62.402168 
L 153.503641 -59.821045 
L 152.105646 -62.846202 
L 150.70765 -60.057823 
L 149.309654 -58.732079 
L 147.911658 -55.572009 
L 146.513663 -54.582628 
L 145.115667 -55.358376 
L 143.717671 -55.026515 
L 142.319676 -56.013271 
L 140.92168 -55.420221 
L 139.523684 -56.184902 
L 138.125689 -55.979718 
L 136.727693 -55.272253 
L 135.329697 -55.179426 
L 133.931701 -55.899309 
L 132.533706 -55.981082 
L 131.13571 -55.124793 
L 129.737714 -56.439587 
L 128.339719 -55.823383 
L 126.941723 -55.943611 
L 125.543727 -54.89049 
L 124.145731 -55.681071 
L 122.747736 -54.942104 
L 121.34974 -56.944116 
L 119.951744 -56.249858 
L 118.553749 -57.100811 
L 117.155753 -55.514725 
L 115.757757 -57.04778 
L 114.359762 -57.536949 
L 112.961766 -58.412623 
L 111.56377 -56.365351 
L 110.165774 -59.670901 
L 108.767779 -56.225319 
L 107.369783 -58.177563 
L 105.971787 -75.851566 
L 104.573792 -77.529731 
L 103.175796 -80.803727 
L 101.7778 -76.499779 
L 100.379804 -81.599486 
L 98.981809 -88.857154 
L 97.583813 -88.743576 
L 96.185817 -79.710304 
L 94.787822 -80.126804 
L 93.389826 -74.036187 
L 91.99183 -74.45729 
L 90.593835 -71.404306 
L 89.195839 -65.091874 
L 87.797843 -65.310992 
L 86.399847 -65.523595 
L 85.001852 -64.626921 
L 83.603856 -59.145071 
L 82.20586 -56.408263 
L 80.807865 -55.661425 
L 79.409869 -55.02106 
L 78.011873 -56.541801 
L 76.613878 -56.416812 
L 75.215882 -57.357433 
L 73.817886 -56.117818 
L 72.41989 -55.161615 
L 71.021895 -55.243623 
L 69.623899 -57.291555 
L 68.225903 -57.227543 
L 66.827908 -56.525846 
L 65.429912 -56.514084 
L 64.031916 -57.443261 
L 62.63392 -55.475922 
z
" style="stroke: #ffb612; stroke-opacity: 0.5; stroke-width: 0.5"/>
    </defs>
    <g clip-path="url(#p62ee659822)">
     <use xlink:href="#m1d8d0725af" x="0" y="198.611875" style="fill: #ffb612; fill-opacity: 0.5; stroke: #ffb612; stroke-opacity: 0.5; stroke-width: 0.5"/>
    </g>
   </g>
   <g id="line2d_29">
    <path d="M 62.63392 136.492826 
L 64.031916 134.862827 
L 65.429912 136.235474 
L 66.827908 136.481942 
L 68.225903 136.307755 
L 69.623899 135.423795 
L 71.021895 136.579949 
L 72.41989 136.332516 
L 73.817886 135.90422 
L 75.215882 135.353161 
L 76.613878 134.49274 
L 78.011873 134.883452 
L 79.409869 136.874261 
L 80.807865 135.758921 
L 82.20586 136.618888 
L 83.603856 134.29778 
L 85.001852 127.812794 
L 86.399847 126.827972 
L 87.797843 127.512455 
L 89.195839 127.296229 
L 90.593835 121.920906 
L 91.99183 118.226641 
L 93.389826 118.642598 
L 94.787822 111.703147 
L 96.185817 111.331743 
L 97.583813 102.7385 
L 98.981809 101.149021 
L 100.379804 110.20538 
L 101.7778 116.660656 
L 103.175796 110.806652 
L 104.573792 115.72387 
L 105.971787 117.265384 
L 107.369783 135.758744 
L 108.767779 136.713648 
L 110.165774 133.321396 
L 111.56377 136.806657 
L 112.961766 134.097284 
L 114.359762 135.63907 
L 115.757757 136.914162 
L 117.155753 137.237324 
L 118.553749 135.422624 
L 119.951744 136.088748 
L 121.34974 135.382997 
L 122.747736 136.524421 
L 125.543727 135.360416 
L 126.941723 135.91611 
L 128.339719 135.251267 
L 131.13571 135.717676 
L 132.533706 135.175701 
L 133.931701 135.249071 
L 135.329697 134.630322 
L 136.727693 136.050142 
L 138.125689 135.465005 
L 139.523684 135.615736 
L 140.92168 134.268588 
L 142.319676 133.783457 
L 143.717671 135.04063 
L 145.115667 134.482037 
L 146.513663 135.566242 
L 147.911658 135.58407 
L 149.309654 131.342226 
L 150.70765 130.20774 
L 152.105646 127.590794 
L 153.503641 130.362098 
L 154.901637 128.219967 
L 156.299633 128.781554 
L 157.697628 129.487938 
L 159.095624 127.066264 
L 160.49362 129.012627 
L 161.891616 129.448653 
L 163.289611 128.780648 
L 164.687607 126.909777 
L 166.085603 126.666694 
L 168.881594 127.296888 
L 170.27959 148.411938 
L 171.677585 148.887101 
L 173.075581 148.590731 
L 174.473577 149.61065 
L 175.871573 149.696612 
L 177.269568 150.12384 
L 178.667564 149.08408 
L 180.06556 129.66488 
L 181.463555 126.265328 
L 184.259547 122.318709 
L 185.657543 124.443596 
L 187.055538 124.761077 
L 188.453534 122.556838 
L 189.85153 122.683714 
L 191.249525 124.178483 
L 192.647521 124.103611 
L 194.045517 124.545156 
L 195.443512 122.976498 
L 196.841508 123.737147 
L 198.239504 125.685827 
L 199.6375 125.256124 
L 201.035495 145.827489 
L 202.433491 124.406171 
L 203.831487 121.672995 
L 205.229482 147.636453 
L 206.627478 148.534952 
L 208.025474 148.535994 
L 209.423469 148.9033 
L 210.821465 148.844021 
L 212.219461 149.214272 
L 213.617457 148.781373 
L 215.015452 149.696662 
L 216.413448 148.993996 
L 217.811444 148.914907 
L 220.607435 148.097374 
L 222.005431 148.514317 
L 223.403427 148.312471 
L 224.801422 147.509242 
L 226.199418 147.693017 
L 227.597414 147.761858 
L 228.995409 146.654673 
L 230.393405 146.973406 
L 231.791401 147.092095 
L 233.189396 146.544416 
L 234.587392 122.539647 
L 235.985388 125.571251 
L 237.383384 121.370715 
L 238.781379 125.110845 
L 240.179375 146.788376 
L 241.577371 146.277393 
L 242.975366 146.007937 
L 244.373362 123.977889 
L 245.771358 120.472393 
L 247.169354 120.481624 
L 248.567349 122.764079 
L 249.965345 122.295439 
L 251.363341 125.988249 
L 252.761336 125.265612 
L 254.159332 147.556875 
L 255.557328 126.019586 
L 256.955323 125.043853 
L 258.353319 125.34798 
L 259.751315 124.476583 
L 261.149311 124.338217 
L 262.547306 123.363522 
L 263.945302 145.813001 
L 265.343298 147.646462 
L 266.741293 122.453362 
L 268.139289 122.383781 
L 269.537285 122.173345 
L 270.935281 122.175585 
L 272.333276 114.614627 
L 273.731272 109.582941 
L 275.129268 112.18841 
L 276.527263 113.30435 
L 277.925259 110.917247 
L 279.323255 111.535116 
L 280.72125 106.690973 
L 283.517242 29.998964 
L 284.915238 24.198414 
L 286.313233 66.551635 
L 287.711229 71.026403 
L 289.109225 73.324031 
L 290.50722 73.697556 
L 291.905216 105.71759 
L 293.303212 107.114849 
L 294.701207 106.711947 
L 296.099203 111.189844 
L 297.497199 109.960321 
L 298.895195 110.988358 
L 300.29319 113.255175 
L 301.691186 117.983936 
L 303.089182 118.970162 
L 304.487177 123.664786 
L 305.885173 124.651253 
L 307.283169 126.006139 
L 308.681165 125.280854 
L 310.07916 125.74366 
L 311.477156 148.800419 
L 312.875152 148.451163 
L 314.273147 148.364741 
L 315.671143 128.175885 
L 317.069139 147.716575 
L 318.467134 147.31634 
L 319.86513 148.035414 
L 321.263126 147.279806 
L 322.661122 127.600654 
L 324.059117 146.604015 
L 325.457113 125.42866 
L 326.855109 125.106581 
L 328.253104 126.592389 
L 329.6511 124.501403 
L 331.049096 101.831176 
L 332.447092 120.505512 
L 333.845087 119.116198 
L 335.243083 119.230349 
L 336.641079 120.242829 
L 338.039074 119.04922 
L 339.43707 100.744845 
L 340.835066 118.245694 
L 342.233061 122.586747 
L 343.631057 123.987322 
L 345.029053 123.926189 
L 346.427049 123.464294 
L 347.825044 145.954438 
L 349.22304 126.782978 
L 350.621036 128.299263 
L 352.019031 155.76533 
L 353.417027 156.09649 
L 354.815023 156.045854 
L 356.213019 155.833769 
L 357.611014 156.156548 
L 359.00901 156.275676 
L 360.407006 156.675547 
L 361.805001 156.789379 
L 365.998988 156.752565 
L 367.396984 157.382906 
L 370.192976 155.87884 
L 371.590971 154.921069 
L 372.988967 155.300787 
L 378.58095 155.605406 
L 379.978946 150.483446 
L 384.172933 149.698083 
L 385.570928 149.948086 
L 386.968924 145.175697 
L 388.36692 145.858225 
L 389.764915 118.357119 
L 391.162911 120.93035 
L 392.560907 119.172377 
L 393.958903 118.759953 
L 395.356898 119.189031 
L 396.754894 116.564868 
L 398.15289 112.230188 
L 399.550885 110.602861 
L 400.948881 108.553148 
L 402.346877 103.345196 
L 403.744872 104.132957 
L 405.142868 104.551454 
L 406.540864 102.042001 
L 407.93886 91.64182 
L 409.336855 95.522278 
L 410.734851 46.713541 
L 412.132847 39.098586 
L 413.530842 44.185739 
L 414.928838 90.955909 
L 416.326834 88.153644 
L 417.72483 90.663478 
L 417.72483 90.663478 
" clip-path="url(#p62ee659822)" style="fill: none; stroke: #ffb612; stroke-width: 3; stroke-linecap: square"/>
    <defs>
     <path id="mf4f8bc79b8" d="M 0 1.5 
C 0.397805 1.5 0.77937 1.341951 1.06066 1.06066 
C 1.341951 0.77937 1.5 0.397805 1.5 0 
C 1.5 -0.397805 1.341951 -0.77937 1.06066 -1.06066 
C 0.77937 -1.341951 0.397805 -1.5 0 -1.5 
C -0.397805 -1.5 -0.77937 -1.341951 -1.06066 -1.06066 
C -1.341951 -0.77937 -1.5 -0.397805 -1.5 0 
C -1.5 0.397805 -1.341951 0.77937 -1.06066 1.06066 
C -0.77937 1.341951 -0.397805 1.5 0 1.5 
z
" style="stroke: #ffb612"/>
    </defs>
    <g clip-path="url(#p62ee659822)">
     <use xlink:href="#mf4f8bc79b8" x="62.63392" y="136.492826" style="fill: #ffb612; stroke: #ffb612"/>
     <use xlink:href="#mf4f8bc79b8" x="64.031916" y="134.862827" style="fill: #ffb612; stroke: #ffb612"/>
     <use xlink:href="#mf4f8bc79b8" x="65.429912" y="136.235474" style="fill: #ffb612; stroke: #ffb612"/>
     <use xlink:href="#mf4f8bc79b8" x="66.827908" y="136.481942" style="fill: #ffb612; stroke: #ffb612"/>
     <use xlink:href="#mf4f8bc79b8" x="68.225903" y="136.307755" style="fill: #ffb612; stroke: #ffb612"/>
     <use xlink:href="#mf4f8bc79b8" x="69.623899" y="135.423795" style="fill: #ffb612; stroke: #ffb612"/>
     <use xlink:href="#mf4f8bc79b8" x="71.021895" y="136.579949" style="fill: #ffb612; stroke: #ffb612"/>
     <use xlink:href="#mf4f8bc79b8" x="72.41989" y="136.332516" style="fill: #ffb612; stroke: #ffb612"/>
     <use xlink:href="#mf4f8bc79b8" x="73.817886" y="135.90422" style="fill: #ffb612; stroke: #ffb612"/>
     <use xlink:href="#mf4f8bc79b8" x="75.215882" y="135.353161" style="fill: #ffb612; stroke: #ffb612"/>
     <use xlink:href="#mf4f8bc79b8" x="76.613878" y="134.49274" style="fill: #ffb612; stroke: #ffb612"/>
     <use xlink:href="#mf4f8bc79b8" x="78.011873" y="134.883452" style="fill: #ffb612; stroke: #ffb612"/>
     <use xlink:href="#mf4f8bc79b8" x="79.409869" y="136.874261" style="fill: #ffb612; stroke: #ffb612"/>
     <use xlink:href="#mf4f8bc79b8" x="80.807865" y="135.758921" style="fill: #ffb612; stroke: #ffb612"/>
     <use xlink:href="#mf4f8bc79b8" x="82.20586" y="136.618888" style="fill: #ffb612; stroke: #ffb612"/>
     <use xlink:href="#mf4f8bc79b8" x="83.603856" y="134.29778" style="fill: #ffb612; stroke: #ffb612"/>
     <use xlink:href="#mf4f8bc79b8" x="85.001852" y="127.812794" style="fill: #ffb612; stroke: #ffb612"/>
     <use xlink:href="#mf4f8bc79b8" x="86.399847" y="126.827972" style="fill: #ffb612; stroke: #ffb612"/>
     <use xlink:href="#mf4f8bc79b8" x="87.797843" y="127.512455" style="fill: #ffb612; stroke: #ffb612"/>
     <use xlink:href="#mf4f8bc79b8" x="89.195839" y="127.296229" style="fill: #ffb612; stroke: #ffb612"/>
     <use xlink:href="#mf4f8bc79b8" x="90.593835" y="121.920906" style="fill: #ffb612; stroke: #ffb612"/>
     <use xlink:href="#mf4f8bc79b8" x="91.99183" y="118.226641" style="fill: #ffb612; stroke: #ffb612"/>
     <use xlink:href="#mf4f8bc79b8" x="93.389826" y="118.642598" style="fill: #ffb612; stroke: #ffb612"/>
     <use xlink:href="#mf4f8bc79b8" x="94.787822" y="111.703147" style="fill: #ffb612; stroke: #ffb612"/>
     <use xlink:href="#mf4f8bc79b8" x="96.185817" y="111.331743" style="fill: #ffb612; stroke: #ffb612"/>
     <use xlink:href="#mf4f8bc79b8" x="97.583813" y="102.7385" style="fill: #ffb612; stroke: #ffb612"/>
     <use xlink:href="#mf4f8bc79b8" x="98.981809" y="101.149021" style="fill: #ffb612; stroke: #ffb612"/>
     <use xlink:href="#mf4f8bc79b8" x="100.379804" y="110.20538" style="fill: #ffb612; stroke: #ffb612"/>
     <use xlink:href="#mf4f8bc79b8" x="101.7778" y="116.660656" style="fill: #ffb612; stroke: #ffb612"/>
     <use xlink:href="#mf4f8bc79b8" x="103.175796" y="110.806652" style="fill: #ffb612; stroke: #ffb612"/>
     <use xlink:href="#mf4f8bc79b8" x="104.573792" y="115.72387" style="fill: #ffb612; stroke: #ffb612"/>
     <use xlink:href="#mf4f8bc79b8" x="105.971787" y="117.265384" style="fill: #ffb612; stroke: #ffb612"/>
     <use xlink:href="#mf4f8bc79b8" x="107.369783" y="135.758744" style="fill: #ffb612; stroke: #ffb612"/>
     <use xlink:href="#mf4f8bc79b8" x="108.767779" y="136.713648" style="fill: #ffb612; stroke: #ffb612"/>
     <use xlink:href="#mf4f8bc79b8" x="110.165774" y="133.321396" style="fill: #ffb612; stroke: #ffb612"/>
     <use xlink:href="#mf4f8bc79b8" x="111.56377" y="136.806657" style="fill: #ffb612; stroke: #ffb612"/>
     <use xlink:href="#mf4f8bc79b8" x="112.961766" y="134.097284" style="fill: #ffb612; stroke: #ffb612"/>
     <use xlink:href="#mf4f8bc79b8" x="114.359762" y="135.63907" style="fill: #ffb612; stroke: #ffb612"/>
     <use xlink:href="#mf4f8bc79b8" x="115.757757" y="136.914162" style="fill: #ffb612; stroke: #ffb612"/>
     <use xlink:href="#mf4f8bc79b8" x="117.155753" y="137.237324" style="fill: #ffb612; stroke: #ffb612"/>
     <use xlink:href="#mf4f8bc79b8" x="118.553749" y="135.422624" style="fill: #ffb612; stroke: #ffb612"/>
     <use xlink:href="#mf4f8bc79b8" x="119.951744" y="136.088748" style="fill: #ffb612; stroke: #ffb612"/>
     <use xlink:href="#mf4f8bc79b8" x="121.34974" y="135.382997" style="fill: #ffb612; stroke: #ffb612"/>
     <use xlink:href="#mf4f8bc79b8" x="122.747736" y="136.524421" style="fill: #ffb612; stroke: #ffb612"/>
     <use xlink:href="#mf4f8bc79b8" x="124.145731" y="135.926258" style="fill: #ffb612; stroke: #ffb612"/>
     <use xlink:href="#mf4f8bc79b8" x="125.543727" y="135.360416" style="fill: #ffb612; stroke: #ffb612"/>
     <use xlink:href="#mf4f8bc79b8" x="126.941723" y="135.91611" style="fill: #ffb612; stroke: #ffb612"/>
     <use xlink:href="#mf4f8bc79b8" x="128.339719" y="135.251267" style="fill: #ffb612; stroke: #ffb612"/>
     <use xlink:href="#mf4f8bc79b8" x="129.737714" y="135.482802" style="fill: #ffb612; stroke: #ffb612"/>
     <use xlink:href="#mf4f8bc79b8" x="131.13571" y="135.717676" style="fill: #ffb612; stroke: #ffb612"/>
     <use xlink:href="#mf4f8bc79b8" x="132.533706" y="135.175701" style="fill: #ffb612; stroke: #ffb612"/>
     <use xlink:href="#mf4f8bc79b8" x="133.931701" y="135.249071" style="fill: #ffb612; stroke: #ffb612"/>
     <use xlink:href="#mf4f8bc79b8" x="135.329697" y="134.630322" style="fill: #ffb612; stroke: #ffb612"/>
     <use xlink:href="#mf4f8bc79b8" x="136.727693" y="136.050142" style="fill: #ffb612; stroke: #ffb612"/>
     <use xlink:href="#mf4f8bc79b8" x="138.125689" y="135.465005" style="fill: #ffb612; stroke: #ffb612"/>
     <use xlink:href="#mf4f8bc79b8" x="139.523684" y="135.615736" style="fill: #ffb612; stroke: #ffb612"/>
     <use xlink:href="#mf4f8bc79b8" x="140.92168" y="134.268588" style="fill: #ffb612; stroke: #ffb612"/>
     <use xlink:href="#mf4f8bc79b8" x="142.319676" y="133.783457" style="fill: #ffb612; stroke: #ffb612"/>
     <use xlink:href="#mf4f8bc79b8" x="143.717671" y="135.04063" style="fill: #ffb612; stroke: #ffb612"/>
     <use xlink:href="#mf4f8bc79b8" x="145.115667" y="134.482037" style="fill: #ffb612; stroke: #ffb612"/>
     <use xlink:href="#mf4f8bc79b8" x="146.513663" y="135.566242" style="fill: #ffb612; stroke: #ffb612"/>
     <use xlink:href="#mf4f8bc79b8" x="147.911658" y="135.58407" style="fill: #ffb612; stroke: #ffb612"/>
     <use xlink:href="#mf4f8bc79b8" x="149.309654" y="131.342226" style="fill: #ffb612; stroke: #ffb612"/>
     <use xlink:href="#mf4f8bc79b8" x="150.70765" y="130.20774" style="fill: #ffb612; stroke: #ffb612"/>
     <use xlink:href="#mf4f8bc79b8" x="152.105646" y="127.590794" style="fill: #ffb612; stroke: #ffb612"/>
     <use xlink:href="#mf4f8bc79b8" x="153.503641" y="130.362098" style="fill: #ffb612; stroke: #ffb612"/>
     <use xlink:href="#mf4f8bc79b8" x="154.901637" y="128.219967" style="fill: #ffb612; stroke: #ffb612"/>
     <use xlink:href="#mf4f8bc79b8" x="156.299633" y="128.781554" style="fill: #ffb612; stroke: #ffb612"/>
     <use xlink:href="#mf4f8bc79b8" x="157.697628" y="129.487938" style="fill: #ffb612; stroke: #ffb612"/>
     <use xlink:href="#mf4f8bc79b8" x="159.095624" y="127.066264" style="fill: #ffb612; stroke: #ffb612"/>
     <use xlink:href="#mf4f8bc79b8" x="160.49362" y="129.012627" style="fill: #ffb612; stroke: #ffb612"/>
     <use xlink:href="#mf4f8bc79b8" x="161.891616" y="129.448653" style="fill: #ffb612; stroke: #ffb612"/>
     <use xlink:href="#mf4f8bc79b8" x="163.289611" y="128.780648" style="fill: #ffb612; stroke: #ffb612"/>
     <use xlink:href="#mf4f8bc79b8" x="164.687607" y="126.909777" style="fill: #ffb612; stroke: #ffb612"/>
     <use xlink:href="#mf4f8bc79b8" x="166.085603" y="126.666694" style="fill: #ffb612; stroke: #ffb612"/>
     <use xlink:href="#mf4f8bc79b8" x="167.483598" y="127.02638" style="fill: #ffb612; stroke: #ffb612"/>
     <use xlink:href="#mf4f8bc79b8" x="168.881594" y="127.296888" style="fill: #ffb612; stroke: #ffb612"/>
     <use xlink:href="#mf4f8bc79b8" x="170.27959" y="148.411938" style="fill: #ffb612; stroke: #ffb612"/>
     <use xlink:href="#mf4f8bc79b8" x="171.677585" y="148.887101" style="fill: #ffb612; stroke: #ffb612"/>
     <use xlink:href="#mf4f8bc79b8" x="173.075581" y="148.590731" style="fill: #ffb612; stroke: #ffb612"/>
     <use xlink:href="#mf4f8bc79b8" x="174.473577" y="149.61065" style="fill: #ffb612; stroke: #ffb612"/>
     <use xlink:href="#mf4f8bc79b8" x="175.871573" y="149.696612" style="fill: #ffb612; stroke: #ffb612"/>
     <use xlink:href="#mf4f8bc79b8" x="177.269568" y="150.12384" style="fill: #ffb612; stroke: #ffb612"/>
     <use xlink:href="#mf4f8bc79b8" x="178.667564" y="149.08408" style="fill: #ffb612; stroke: #ffb612"/>
     <use xlink:href="#mf4f8bc79b8" x="180.06556" y="129.66488" style="fill: #ffb612; stroke: #ffb612"/>
     <use xlink:href="#mf4f8bc79b8" x="181.463555" y="126.265328" style="fill: #ffb612; stroke: #ffb612"/>
     <use xlink:href="#mf4f8bc79b8" x="182.861551" y="124.332012" style="fill: #ffb612; stroke: #ffb612"/>
     <use xlink:href="#mf4f8bc79b8" x="184.259547" y="122.318709" style="fill: #ffb612; stroke: #ffb612"/>
     <use xlink:href="#mf4f8bc79b8" x="185.657543" y="124.443596" style="fill: #ffb612; stroke: #ffb612"/>
     <use xlink:href="#mf4f8bc79b8" x="187.055538" y="124.761077" style="fill: #ffb612; stroke: #ffb612"/>
     <use xlink:href="#mf4f8bc79b8" x="188.453534" y="122.556838" style="fill: #ffb612; stroke: #ffb612"/>
     <use xlink:href="#mf4f8bc79b8" x="189.85153" y="122.683714" style="fill: #ffb612; stroke: #ffb612"/>
     <use xlink:href="#mf4f8bc79b8" x="191.249525" y="124.178483" style="fill: #ffb612; stroke: #ffb612"/>
     <use xlink:href="#mf4f8bc79b8" x="192.647521" y="124.103611" style="fill: #ffb612; stroke: #ffb612"/>
     <use xlink:href="#mf4f8bc79b8" x="194.045517" y="124.545156" style="fill: #ffb612; stroke: #ffb612"/>
     <use xlink:href="#mf4f8bc79b8" x="195.443512" y="122.976498" style="fill: #ffb612; stroke: #ffb612"/>
     <use xlink:href="#mf4f8bc79b8" x="196.841508" y="123.737147" style="fill: #ffb612; stroke: #ffb612"/>
     <use xlink:href="#mf4f8bc79b8" x="198.239504" y="125.685827" style="fill: #ffb612; stroke: #ffb612"/>
     <use xlink:href="#mf4f8bc79b8" x="199.6375" y="125.256124" style="fill: #ffb612; stroke: #ffb612"/>
     <use xlink:href="#mf4f8bc79b8" x="201.035495" y="145.827489" style="fill: #ffb612; stroke: #ffb612"/>
     <use xlink:href="#mf4f8bc79b8" x="202.433491" y="124.406171" style="fill: #ffb612; stroke: #ffb612"/>
     <use xlink:href="#mf4f8bc79b8" x="203.831487" y="121.672995" style="fill: #ffb612; stroke: #ffb612"/>
     <use xlink:href="#mf4f8bc79b8" x="205.229482" y="147.636453" style="fill: #ffb612; stroke: #ffb612"/>
     <use xlink:href="#mf4f8bc79b8" x="206.627478" y="148.534952" style="fill: #ffb612; stroke: #ffb612"/>
     <use xlink:href="#mf4f8bc79b8" x="208.025474" y="148.535994" style="fill: #ffb612; stroke: #ffb612"/>
     <use xlink:href="#mf4f8bc79b8" x="209.423469" y="148.9033" style="fill: #ffb612; stroke: #ffb612"/>
     <use xlink:href="#mf4f8bc79b8" x="210.821465" y="148.844021" style="fill: #ffb612; stroke: #ffb612"/>
     <use xlink:href="#mf4f8bc79b8" x="212.219461" y="149.214272" style="fill: #ffb612; stroke: #ffb612"/>
     <use xlink:href="#mf4f8bc79b8" x="213.617457" y="148.781373" style="fill: #ffb612; stroke: #ffb612"/>
     <use xlink:href="#mf4f8bc79b8" x="215.015452" y="149.696662" style="fill: #ffb612; stroke: #ffb612"/>
     <use xlink:href="#mf4f8bc79b8" x="216.413448" y="148.993996" style="fill: #ffb612; stroke: #ffb612"/>
     <use xlink:href="#mf4f8bc79b8" x="217.811444" y="148.914907" style="fill: #ffb612; stroke: #ffb612"/>
     <use xlink:href="#mf4f8bc79b8" x="219.209439" y="148.525836" style="fill: #ffb612; stroke: #ffb612"/>
     <use xlink:href="#mf4f8bc79b8" x="220.607435" y="148.097374" style="fill: #ffb612; stroke: #ffb612"/>
     <use xlink:href="#mf4f8bc79b8" x="222.005431" y="148.514317" style="fill: #ffb612; stroke: #ffb612"/>
     <use xlink:href="#mf4f8bc79b8" x="223.403427" y="148.312471" style="fill: #ffb612; stroke: #ffb612"/>
     <use xlink:href="#mf4f8bc79b8" x="224.801422" y="147.509242" style="fill: #ffb612; stroke: #ffb612"/>
     <use xlink:href="#mf4f8bc79b8" x="226.199418" y="147.693017" style="fill: #ffb612; stroke: #ffb612"/>
     <use xlink:href="#mf4f8bc79b8" x="227.597414" y="147.761858" style="fill: #ffb612; stroke: #ffb612"/>
     <use xlink:href="#mf4f8bc79b8" x="228.995409" y="146.654673" style="fill: #ffb612; stroke: #ffb612"/>
     <use xlink:href="#mf4f8bc79b8" x="230.393405" y="146.973406" style="fill: #ffb612; stroke: #ffb612"/>
     <use xlink:href="#mf4f8bc79b8" x="231.791401" y="147.092095" style="fill: #ffb612; stroke: #ffb612"/>
     <use xlink:href="#mf4f8bc79b8" x="233.189396" y="146.544416" style="fill: #ffb612; stroke: #ffb612"/>
     <use xlink:href="#mf4f8bc79b8" x="234.587392" y="122.539647" style="fill: #ffb612; stroke: #ffb612"/>
     <use xlink:href="#mf4f8bc79b8" x="235.985388" y="125.571251" style="fill: #ffb612; stroke: #ffb612"/>
     <use xlink:href="#mf4f8bc79b8" x="237.383384" y="121.370715" style="fill: #ffb612; stroke: #ffb612"/>
     <use xlink:href="#mf4f8bc79b8" x="238.781379" y="125.110845" style="fill: #ffb612; stroke: #ffb612"/>
     <use xlink:href="#mf4f8bc79b8" x="240.179375" y="146.788376" style="fill: #ffb612; stroke: #ffb612"/>
     <use xlink:href="#mf4f8bc79b8" x="241.577371" y="146.277393" style="fill: #ffb612; stroke: #ffb612"/>
     <use xlink:href="#mf4f8bc79b8" x="242.975366" y="146.007937" style="fill: #ffb612; stroke: #ffb612"/>
     <use xlink:href="#mf4f8bc79b8" x="244.373362" y="123.977889" style="fill: #ffb612; stroke: #ffb612"/>
     <use xlink:href="#mf4f8bc79b8" x="245.771358" y="120.472393" style="fill: #ffb612; stroke: #ffb612"/>
     <use xlink:href="#mf4f8bc79b8" x="247.169354" y="120.481624" style="fill: #ffb612; stroke: #ffb612"/>
     <use xlink:href="#mf4f8bc79b8" x="248.567349" y="122.764079" style="fill: #ffb612; stroke: #ffb612"/>
     <use xlink:href="#mf4f8bc79b8" x="249.965345" y="122.295439" style="fill: #ffb612; stroke: #ffb612"/>
     <use xlink:href="#mf4f8bc79b8" x="251.363341" y="125.988249" style="fill: #ffb612; stroke: #ffb612"/>
     <use xlink:href="#mf4f8bc79b8" x="252.761336" y="125.265612" style="fill: #ffb612; stroke: #ffb612"/>
     <use xlink:href="#mf4f8bc79b8" x="254.159332" y="147.556875" style="fill: #ffb612; stroke: #ffb612"/>
     <use xlink:href="#mf4f8bc79b8" x="255.557328" y="126.019586" style="fill: #ffb612; stroke: #ffb612"/>
     <use xlink:href="#mf4f8bc79b8" x="256.955323" y="125.043853" style="fill: #ffb612; stroke: #ffb612"/>
     <use xlink:href="#mf4f8bc79b8" x="258.353319" y="125.34798" style="fill: #ffb612; stroke: #ffb612"/>
     <use xlink:href="#mf4f8bc79b8" x="259.751315" y="124.476583" style="fill: #ffb612; stroke: #ffb612"/>
     <use xlink:href="#mf4f8bc79b8" x="261.149311" y="124.338217" style="fill: #ffb612; stroke: #ffb612"/>
     <use xlink:href="#mf4f8bc79b8" x="262.547306" y="123.363522" style="fill: #ffb612; stroke: #ffb612"/>
     <use xlink:href="#mf4f8bc79b8" x="263.945302" y="145.813001" style="fill: #ffb612; stroke: #ffb612"/>
     <use xlink:href="#mf4f8bc79b8" x="265.343298" y="147.646462" style="fill: #ffb612; stroke: #ffb612"/>
     <use xlink:href="#mf4f8bc79b8" x="266.741293" y="122.453362" style="fill: #ffb612; stroke: #ffb612"/>
     <use xlink:href="#mf4f8bc79b8" x="268.139289" y="122.383781" style="fill: #ffb612; stroke: #ffb612"/>
     <use xlink:href="#mf4f8bc79b8" x="269.537285" y="122.173345" style="fill: #ffb612; stroke: #ffb612"/>
     <use xlink:href="#mf4f8bc79b8" x="270.935281" y="122.175585" style="fill: #ffb612; stroke: #ffb612"/>
     <use xlink:href="#mf4f8bc79b8" x="272.333276" y="114.614627" style="fill: #ffb612; stroke: #ffb612"/>
     <use xlink:href="#mf4f8bc79b8" x="273.731272" y="109.582941" style="fill: #ffb612; stroke: #ffb612"/>
     <use xlink:href="#mf4f8bc79b8" x="275.129268" y="112.18841" style="fill: #ffb612; stroke: #ffb612"/>
     <use xlink:href="#mf4f8bc79b8" x="276.527263" y="113.30435" style="fill: #ffb612; stroke: #ffb612"/>
     <use xlink:href="#mf4f8bc79b8" x="277.925259" y="110.917247" style="fill: #ffb612; stroke: #ffb612"/>
     <use xlink:href="#mf4f8bc79b8" x="279.323255" y="111.535116" style="fill: #ffb612; stroke: #ffb612"/>
     <use xlink:href="#mf4f8bc79b8" x="280.72125" y="106.690973" style="fill: #ffb612; stroke: #ffb612"/>
     <use xlink:href="#mf4f8bc79b8" x="282.119246" y="68.629705" style="fill: #ffb612; stroke: #ffb612"/>
     <use xlink:href="#mf4f8bc79b8" x="283.517242" y="29.998964" style="fill: #ffb612; stroke: #ffb612"/>
     <use xlink:href="#mf4f8bc79b8" x="284.915238" y="24.198414" style="fill: #ffb612; stroke: #ffb612"/>
     <use xlink:href="#mf4f8bc79b8" x="286.313233" y="66.551635" style="fill: #ffb612; stroke: #ffb612"/>
     <use xlink:href="#mf4f8bc79b8" x="287.711229" y="71.026403" style="fill: #ffb612; stroke: #ffb612"/>
     <use xlink:href="#mf4f8bc79b8" x="289.109225" y="73.324031" style="fill: #ffb612; stroke: #ffb612"/>
     <use xlink:href="#mf4f8bc79b8" x="290.50722" y="73.697556" style="fill: #ffb612; stroke: #ffb612"/>
     <use xlink:href="#mf4f8bc79b8" x="291.905216" y="105.71759" style="fill: #ffb612; stroke: #ffb612"/>
     <use xlink:href="#mf4f8bc79b8" x="293.303212" y="107.114849" style="fill: #ffb612; stroke: #ffb612"/>
     <use xlink:href="#mf4f8bc79b8" x="294.701207" y="106.711947" style="fill: #ffb612; stroke: #ffb612"/>
     <use xlink:href="#mf4f8bc79b8" x="296.099203" y="111.189844" style="fill: #ffb612; stroke: #ffb612"/>
     <use xlink:href="#mf4f8bc79b8" x="297.497199" y="109.960321" style="fill: #ffb612; stroke: #ffb612"/>
     <use xlink:href="#mf4f8bc79b8" x="298.895195" y="110.988358" style="fill: #ffb612; stroke: #ffb612"/>
     <use xlink:href="#mf4f8bc79b8" x="300.29319" y="113.255175" style="fill: #ffb612; stroke: #ffb612"/>
     <use xlink:href="#mf4f8bc79b8" x="301.691186" y="117.983936" style="fill: #ffb612; stroke: #ffb612"/>
     <use xlink:href="#mf4f8bc79b8" x="303.089182" y="118.970162" style="fill: #ffb612; stroke: #ffb612"/>
     <use xlink:href="#mf4f8bc79b8" x="304.487177" y="123.664786" style="fill: #ffb612; stroke: #ffb612"/>
     <use xlink:href="#mf4f8bc79b8" x="305.885173" y="124.651253" style="fill: #ffb612; stroke: #ffb612"/>
     <use xlink:href="#mf4f8bc79b8" x="307.283169" y="126.006139" style="fill: #ffb612; stroke: #ffb612"/>
     <use xlink:href="#mf4f8bc79b8" x="308.681165" y="125.280854" style="fill: #ffb612; stroke: #ffb612"/>
     <use xlink:href="#mf4f8bc79b8" x="310.07916" y="125.74366" style="fill: #ffb612; stroke: #ffb612"/>
     <use xlink:href="#mf4f8bc79b8" x="311.477156" y="148.800419" style="fill: #ffb612; stroke: #ffb612"/>
     <use xlink:href="#mf4f8bc79b8" x="312.875152" y="148.451163" style="fill: #ffb612; stroke: #ffb612"/>
     <use xlink:href="#mf4f8bc79b8" x="314.273147" y="148.364741" style="fill: #ffb612; stroke: #ffb612"/>
     <use xlink:href="#mf4f8bc79b8" x="315.671143" y="128.175885" style="fill: #ffb612; stroke: #ffb612"/>
     <use xlink:href="#mf4f8bc79b8" x="317.069139" y="147.716575" style="fill: #ffb612; stroke: #ffb612"/>
     <use xlink:href="#mf4f8bc79b8" x="318.467134" y="147.31634" style="fill: #ffb612; stroke: #ffb612"/>
     <use xlink:href="#mf4f8bc79b8" x="319.86513" y="148.035414" style="fill: #ffb612; stroke: #ffb612"/>
     <use xlink:href="#mf4f8bc79b8" x="321.263126" y="147.279806" style="fill: #ffb612; stroke: #ffb612"/>
     <use xlink:href="#mf4f8bc79b8" x="322.661122" y="127.600654" style="fill: #ffb612; stroke: #ffb612"/>
     <use xlink:href="#mf4f8bc79b8" x="324.059117" y="146.604015" style="fill: #ffb612; stroke: #ffb612"/>
     <use xlink:href="#mf4f8bc79b8" x="325.457113" y="125.42866" style="fill: #ffb612; stroke: #ffb612"/>
     <use xlink:href="#mf4f8bc79b8" x="326.855109" y="125.106581" style="fill: #ffb612; stroke: #ffb612"/>
     <use xlink:href="#mf4f8bc79b8" x="328.253104" y="126.592389" style="fill: #ffb612; stroke: #ffb612"/>
     <use xlink:href="#mf4f8bc79b8" x="329.6511" y="124.501403" style="fill: #ffb612; stroke: #ffb612"/>
     <use xlink:href="#mf4f8bc79b8" x="331.049096" y="101.831176" style="fill: #ffb612; stroke: #ffb612"/>
     <use xlink:href="#mf4f8bc79b8" x="332.447092" y="120.505512" style="fill: #ffb612; stroke: #ffb612"/>
     <use xlink:href="#mf4f8bc79b8" x="333.845087" y="119.116198" style="fill: #ffb612; stroke: #ffb612"/>
     <use xlink:href="#mf4f8bc79b8" x="335.243083" y="119.230349" style="fill: #ffb612; stroke: #ffb612"/>
     <use xlink:href="#mf4f8bc79b8" x="336.641079" y="120.242829" style="fill: #ffb612; stroke: #ffb612"/>
     <use xlink:href="#mf4f8bc79b8" x="338.039074" y="119.04922" style="fill: #ffb612; stroke: #ffb612"/>
     <use xlink:href="#mf4f8bc79b8" x="339.43707" y="100.744845" style="fill: #ffb612; stroke: #ffb612"/>
     <use xlink:href="#mf4f8bc79b8" x="340.835066" y="118.245694" style="fill: #ffb612; stroke: #ffb612"/>
     <use xlink:href="#mf4f8bc79b8" x="342.233061" y="122.586747" style="fill: #ffb612; stroke: #ffb612"/>
     <use xlink:href="#mf4f8bc79b8" x="343.631057" y="123.987322" style="fill: #ffb612; stroke: #ffb612"/>
     <use xlink:href="#mf4f8bc79b8" x="345.029053" y="123.926189" style="fill: #ffb612; stroke: #ffb612"/>
     <use xlink:href="#mf4f8bc79b8" x="346.427049" y="123.464294" style="fill: #ffb612; stroke: #ffb612"/>
     <use xlink:href="#mf4f8bc79b8" x="347.825044" y="145.954438" style="fill: #ffb612; stroke: #ffb612"/>
     <use xlink:href="#mf4f8bc79b8" x="349.22304" y="126.782978" style="fill: #ffb612; stroke: #ffb612"/>
     <use xlink:href="#mf4f8bc79b8" x="350.621036" y="128.299263" style="fill: #ffb612; stroke: #ffb612"/>
     <use xlink:href="#mf4f8bc79b8" x="352.019031" y="155.76533" style="fill: #ffb612; stroke: #ffb612"/>
     <use xlink:href="#mf4f8bc79b8" x="353.417027" y="156.09649" style="fill: #ffb612; stroke: #ffb612"/>
     <use xlink:href="#mf4f8bc79b8" x="354.815023" y="156.045854" style="fill: #ffb612; stroke: #ffb612"/>
     <use xlink:href="#mf4f8bc79b8" x="356.213019" y="155.833769" style="fill: #ffb612; stroke: #ffb612"/>
     <use xlink:href="#mf4f8bc79b8" x="357.611014" y="156.156548" style="fill: #ffb612; stroke: #ffb612"/>
     <use xlink:href="#mf4f8bc79b8" x="359.00901" y="156.275676" style="fill: #ffb612; stroke: #ffb612"/>
     <use xlink:href="#mf4f8bc79b8" x="360.407006" y="156.675547" style="fill: #ffb612; stroke: #ffb612"/>
     <use xlink:href="#mf4f8bc79b8" x="361.805001" y="156.789379" style="fill: #ffb612; stroke: #ffb612"/>
     <use xlink:href="#mf4f8bc79b8" x="363.202997" y="156.776671" style="fill: #ffb612; stroke: #ffb612"/>
     <use xlink:href="#mf4f8bc79b8" x="364.600993" y="156.756019" style="fill: #ffb612; stroke: #ffb612"/>
     <use xlink:href="#mf4f8bc79b8" x="365.998988" y="156.752565" style="fill: #ffb612; stroke: #ffb612"/>
     <use xlink:href="#mf4f8bc79b8" x="367.396984" y="157.382906" style="fill: #ffb612; stroke: #ffb612"/>
     <use xlink:href="#mf4f8bc79b8" x="368.79498" y="156.687062" style="fill: #ffb612; stroke: #ffb612"/>
     <use xlink:href="#mf4f8bc79b8" x="370.192976" y="155.87884" style="fill: #ffb612; stroke: #ffb612"/>
     <use xlink:href="#mf4f8bc79b8" x="371.590971" y="154.921069" style="fill: #ffb612; stroke: #ffb612"/>
     <use xlink:href="#mf4f8bc79b8" x="372.988967" y="155.300787" style="fill: #ffb612; stroke: #ffb612"/>
     <use xlink:href="#mf4f8bc79b8" x="374.386963" y="155.363787" style="fill: #ffb612; stroke: #ffb612"/>
     <use xlink:href="#mf4f8bc79b8" x="375.784958" y="155.462354" style="fill: #ffb612; stroke: #ffb612"/>
     <use xlink:href="#mf4f8bc79b8" x="377.182954" y="155.559145" style="fill: #ffb612; stroke: #ffb612"/>
     <use xlink:href="#mf4f8bc79b8" x="378.58095" y="155.605406" style="fill: #ffb612; stroke: #ffb612"/>
     <use xlink:href="#mf4f8bc79b8" x="379.978946" y="150.483446" style="fill: #ffb612; stroke: #ffb612"/>
     <use xlink:href="#mf4f8bc79b8" x="381.376941" y="150.233158" style="fill: #ffb612; stroke: #ffb612"/>
     <use xlink:href="#mf4f8bc79b8" x="382.774937" y="150.00377" style="fill: #ffb612; stroke: #ffb612"/>
     <use xlink:href="#mf4f8bc79b8" x="384.172933" y="149.698083" style="fill: #ffb612; stroke: #ffb612"/>
     <use xlink:href="#mf4f8bc79b8" x="385.570928" y="149.948086" style="fill: #ffb612; stroke: #ffb612"/>
     <use xlink:href="#mf4f8bc79b8" x="386.968924" y="145.175697" style="fill: #ffb612; stroke: #ffb612"/>
     <use xlink:href="#mf4f8bc79b8" x="388.36692" y="145.858225" style="fill: #ffb612; stroke: #ffb612"/>
     <use xlink:href="#mf4f8bc79b8" x="389.764915" y="118.357119" style="fill: #ffb612; stroke: #ffb612"/>
     <use xlink:href="#mf4f8bc79b8" x="391.162911" y="120.93035" style="fill: #ffb612; stroke: #ffb612"/>
     <use xlink:href="#mf4f8bc79b8" x="392.560907" y="119.172377" style="fill: #ffb612; stroke: #ffb612"/>
     <use xlink:href="#mf4f8bc79b8" x="393.958903" y="118.759953" style="fill: #ffb612; stroke: #ffb612"/>
     <use xlink:href="#mf4f8bc79b8" x="395.356898" y="119.189031" style="fill: #ffb612; stroke: #ffb612"/>
     <use xlink:href="#mf4f8bc79b8" x="396.754894" y="116.564868" style="fill: #ffb612; stroke: #ffb612"/>
     <use xlink:href="#mf4f8bc79b8" x="398.15289" y="112.230188" style="fill: #ffb612; stroke: #ffb612"/>
     <use xlink:href="#mf4f8bc79b8" x="399.550885" y="110.602861" style="fill: #ffb612; stroke: #ffb612"/>
     <use xlink:href="#mf4f8bc79b8" x="400.948881" y="108.553148" style="fill: #ffb612; stroke: #ffb612"/>
     <use xlink:href="#mf4f8bc79b8" x="402.346877" y="103.345196" style="fill: #ffb612; stroke: #ffb612"/>
     <use xlink:href="#mf4f8bc79b8" x="403.744872" y="104.132957" style="fill: #ffb612; stroke: #ffb612"/>
     <use xlink:href="#mf4f8bc79b8" x="405.142868" y="104.551454" style="fill: #ffb612; stroke: #ffb612"/>
     <use xlink:href="#mf4f8bc79b8" x="406.540864" y="102.042001" style="fill: #ffb612; stroke: #ffb612"/>
     <use xlink:href="#mf4f8bc79b8" x="407.93886" y="91.64182" style="fill: #ffb612; stroke: #ffb612"/>
     <use xlink:href="#mf4f8bc79b8" x="409.336855" y="95.522278" style="fill: #ffb612; stroke: #ffb612"/>
     <use xlink:href="#mf4f8bc79b8" x="410.734851" y="46.713541" style="fill: #ffb612; stroke: #ffb612"/>
     <use xlink:href="#mf4f8bc79b8" x="412.132847" y="39.098586" style="fill: #ffb612; stroke: #ffb612"/>
     <use xlink:href="#mf4f8bc79b8" x="413.530842" y="44.185739" style="fill: #ffb612; stroke: #ffb612"/>
     <use xlink:href="#mf4f8bc79b8" x="414.928838" y="90.955909" style="fill: #ffb612; stroke: #ffb612"/>
     <use xlink:href="#mf4f8bc79b8" x="416.326834" y="88.153644" style="fill: #ffb612; stroke: #ffb612"/>
     <use xlink:href="#mf4f8bc79b8" x="417.72483" y="90.663478" style="fill: #ffb612; stroke: #ffb612"/>
    </g>
   </g>
   <g id="line2d_30">
    <path d="M 62.63392 135.180771 
L 64.031916 134.793551 
L 65.429912 130.422428 
L 66.827908 132.228316 
L 68.225903 131.668873 
L 69.623899 131.7966 
L 71.021895 135.152947 
L 72.41989 134.64971 
L 73.817886 135.246101 
L 75.215882 135.556116 
L 76.613878 138.255751 
L 78.011873 138.610158 
L 79.409869 137.662883 
L 80.807865 135.596593 
L 82.20586 130.887129 
L 83.603856 129.976956 
L 85.001852 129.67294 
L 86.399847 128.620294 
L 87.797843 129.466345 
L 89.195839 129.846627 
L 90.593835 127.670816 
L 91.99183 124.991372 
L 93.389826 125.287837 
L 94.787822 124.576335 
L 96.185817 117.72508 
L 97.583813 116.197294 
L 98.981809 113.533953 
L 100.379804 117.386849 
L 101.7778 120.44432 
L 103.175796 119.610305 
L 104.573792 121.690104 
L 105.971787 122.188555 
L 107.369783 129.577018 
L 108.767779 133.807029 
L 110.165774 132.179739 
L 111.56377 136.056734 
L 112.961766 133.957157 
L 114.359762 135.306646 
L 115.757757 131.098159 
L 117.155753 136.492918 
L 118.553749 140.03053 
L 119.951744 140.734919 
L 122.747736 140.794998 
L 124.145731 140.747807 
L 125.543727 145.686594 
L 126.941723 143.556719 
L 128.339719 143.940409 
L 129.737714 143.591723 
L 131.13571 145.447348 
L 132.533706 145.612709 
L 133.931701 144.695843 
L 135.329697 145.71232 
L 136.727693 143.609761 
L 138.125689 140.8809 
L 139.523684 141.94227 
L 140.92168 148.006158 
L 142.319676 149.067475 
L 143.717671 148.411611 
L 145.115667 145.573025 
L 146.513663 145.225014 
L 147.911658 143.020682 
L 149.309654 142.07625 
L 150.70765 140.217923 
L 152.105646 139.434633 
L 153.503641 139.334123 
L 154.901637 135.759266 
L 156.299633 138.551926 
L 157.697628 139.084759 
L 159.095624 146.244872 
L 160.49362 146.237699 
L 161.891616 144.210047 
L 163.289611 143.495869 
L 164.687607 144.564874 
L 166.085603 144.957529 
L 167.483598 144.761663 
L 168.881594 143.405377 
L 170.27959 147.207864 
L 171.677585 147.65762 
L 173.075581 147.377576 
L 174.473577 148.277965 
L 175.871573 148.726067 
L 177.269568 148.534459 
L 178.667564 145.48093 
L 180.06556 144.897256 
L 181.463555 142.435546 
L 182.861551 142.840059 
L 184.259547 141.790438 
L 185.657543 139.593973 
L 187.055538 139.644901 
L 188.453534 140.521629 
L 189.85153 139.894818 
L 191.249525 138.166803 
L 192.647521 137.28206 
L 194.045517 140.634878 
L 195.443512 138.151958 
L 196.841508 141.723107 
L 198.239504 143.182683 
L 199.6375 143.738099 
L 201.035495 144.452591 
L 202.433491 142.584792 
L 203.831487 144.07731 
L 205.229482 147.295622 
L 206.627478 148.029949 
L 209.423469 150.32916 
L 210.821465 149.545069 
L 213.617457 150.042037 
L 215.015452 151.960155 
L 216.413448 149.989377 
L 217.811444 149.122917 
L 219.209439 149.052269 
L 220.607435 148.318447 
L 222.005431 148.959915 
L 223.403427 148.653096 
L 224.801422 147.092933 
L 226.199418 146.735524 
L 227.597414 146.591966 
L 228.995409 144.17523 
L 230.393405 145.559219 
L 231.791401 145.315393 
L 233.189396 144.236572 
L 234.587392 140.86075 
L 235.985388 143.230367 
L 237.383384 143.102624 
L 238.781379 142.336603 
L 240.179375 145.389943 
L 241.577371 145.359891 
L 242.975366 144.686665 
L 244.373362 143.372333 
L 245.771358 142.359875 
L 247.169354 141.16971 
L 248.567349 140.795974 
L 249.965345 140.679416 
L 251.363341 140.311754 
L 252.761336 143.314109 
L 254.159332 144.42062 
L 255.557328 144.114204 
L 256.955323 143.5898 
L 258.353319 144.027025 
L 259.751315 141.125069 
L 261.149311 141.678423 
L 262.547306 141.184587 
L 263.945302 144.794555 
L 265.343298 145.539044 
L 266.741293 137.932813 
L 268.139289 137.967008 
L 269.537285 135.642301 
L 270.935281 135.93055 
L 272.333276 116.800509 
L 273.731272 105.561474 
L 275.129268 111.251372 
L 276.527263 115.720916 
L 277.925259 109.76097 
L 279.323255 106.738346 
L 280.72125 94.950551 
L 282.119246 66.399337 
L 283.517242 30.504369 
L 284.915238 22.249589 
L 286.313233 54.674447 
L 287.711229 66.846431 
L 289.109225 87.840892 
L 290.50722 83.792221 
L 291.905216 93.507605 
L 293.303212 101.506816 
L 294.701207 103.282684 
L 296.099203 109.244478 
L 297.497199 109.314942 
L 298.895195 112.683497 
L 300.29319 116.9969 
L 301.691186 130.113089 
L 303.089182 134.038503 
L 304.487177 134.852308 
L 305.885173 140.68661 
L 307.283169 141.574125 
L 310.07916 141.696769 
L 311.477156 145.731094 
L 312.875152 145.690389 
L 314.273147 145.095528 
L 315.671143 144.325833 
L 317.069139 144.3766 
L 318.467134 145.181852 
L 319.86513 146.92387 
L 321.263126 145.438907 
L 322.661122 144.68275 
L 324.059117 145.247989 
L 325.457113 140.403261 
L 326.855109 137.17167 
L 328.253104 136.955379 
L 329.6511 137.226965 
L 331.049096 109.00277 
L 332.447092 124.818248 
L 333.845087 119.792651 
L 335.243083 120.29739 
L 336.641079 120.334668 
L 338.039074 121.116885 
L 339.43707 111.989207 
L 340.835066 118.70047 
L 342.233061 127.803619 
L 343.631057 134.703142 
L 345.029053 133.625096 
L 346.427049 133.640114 
L 347.825044 146.401645 
L 349.22304 142.517789 
L 350.621036 144.725795 
L 352.019031 154.852647 
L 353.417027 155.36077 
L 354.815023 154.932231 
L 356.213019 154.951887 
L 357.611014 155.527214 
L 359.00901 155.71215 
L 360.407006 156.020549 
L 361.805001 155.71049 
L 363.202997 155.667046 
L 364.600993 155.488121 
L 365.998988 155.504118 
L 367.396984 156.287289 
L 368.79498 156.491797 
L 370.192976 156.476144 
L 371.590971 154.382635 
L 372.988967 154.711121 
L 374.386963 154.340368 
L 375.784958 154.351966 
L 378.58095 153.388922 
L 379.978946 152.298616 
L 381.376941 151.930241 
L 384.172933 150.315338 
L 385.570928 150.32159 
L 386.968924 143.80598 
L 388.36692 144.579284 
L 389.764915 140.929833 
L 391.162911 139.299773 
L 392.560907 133.892787 
L 393.958903 131.554224 
L 395.356898 131.580092 
L 396.754894 124.494654 
L 398.15289 120.273643 
L 399.550885 116.844475 
L 402.346877 100.932939 
L 403.744872 99.702395 
L 405.142868 99.703723 
L 406.540864 101.055417 
L 407.93886 76.210612 
L 409.336855 84.622312 
L 410.734851 59.005547 
L 412.132847 56.205855 
L 413.530842 60.150634 
L 414.928838 74.870348 
L 416.326834 75.485168 
L 417.72483 75.649731 
L 417.72483 75.649731 
" clip-path="url(#p62ee659822)" style="fill: none; stroke-dasharray: 5.55,2.4; stroke-dashoffset: 0; stroke: #000000; stroke-width: 1.5"/>
   </g>
   <g id="patch_3">
    <path d="M 44.879375 166.32 
L 44.879375 -0 
" style="fill: none; stroke: #ffffff; stroke-linejoin: miter; stroke-linecap: square"/>
   </g>
   <g id="patch_4">
    <path d="M 435.479375 166.32 
L 435.479375 -0 
" style="fill: none; stroke: #ffffff; stroke-linejoin: miter; stroke-linecap: square"/>
   </g>
   <g id="patch_5">
    <path d="M 44.879375 166.32 
L 435.479375 166.32 
" style="fill: none; stroke: #ffffff; stroke-linejoin: miter; stroke-linecap: square"/>
   </g>
   <g id="patch_6">
    <path d="M 44.879375 -0 
L 435.479375 -0 
" style="fill: none; stroke: #ffffff; stroke-linejoin: miter; stroke-linecap: square"/>
   </g>
   <g id="legend_1">
    <g id="patch_7">
     <path d="M 51.879375 60.378125 
L 203.92625 60.378125 
Q 205.92625 60.378125 205.92625 58.378125 
L 205.92625 7 
Q 205.92625 5 203.92625 5 
L 51.879375 5 
Q 49.879375 5 49.879375 7 
L 49.879375 58.378125 
Q 49.879375 60.378125 51.879375 60.378125 
z
" style="fill: #e5e5e5; opacity: 0.8; stroke: #cccccc; stroke-width: 0.5; stroke-linejoin: miter"/>
    </g>
    <g id="line2d_31">
     <path d="M 53.879375 15.5 
L 63.879375 15.5 
L 73.879375 15.5 
" style="fill: none; stroke: #ffb612; stroke-width: 3; stroke-linecap: square"/>
     <g>
      <use xlink:href="#mf4f8bc79b8" x="63.879375" y="15.5" style="fill: #ffb612; stroke: #ffb612"/>
     </g>
    </g>
    <g id="text_17">
     <!-- Private Value $\tilde{R}_{\chi_3,\chi_1}^t$ -->
     <g transform="translate(81.879375 19) scale(0.1 -0.1)">
      <defs>
       <path id="DejaVuSans-50" d="M 1259 4147 
L 1259 2394 
L 2053 2394 
Q 2494 2394 2734 2622 
Q 2975 2850 2975 3272 
Q 2975 3691 2734 3919 
Q 2494 4147 2053 4147 
L 1259 4147 
z
M 628 4666 
L 2053 4666 
Q 2838 4666 3239 4311 
Q 3641 3956 3641 3272 
Q 3641 2581 3239 2228 
Q 2838 1875 2053 1875 
L 1259 1875 
L 1259 0 
L 628 0 
L 628 4666 
z
" transform="scale(0.015625)"/>
       <path id="DejaVuSans-72" d="M 2631 2963 
Q 2534 3019 2420 3045 
Q 2306 3072 2169 3072 
Q 1681 3072 1420 2755 
Q 1159 2438 1159 1844 
L 1159 0 
L 581 0 
L 581 3500 
L 1159 3500 
L 1159 2956 
Q 1341 3275 1631 3429 
Q 1922 3584 2338 3584 
Q 2397 3584 2469 3576 
Q 2541 3569 2628 3553 
L 2631 2963 
z
" transform="scale(0.015625)"/>
       <path id="DejaVuSans-69" d="M 603 3500 
L 1178 3500 
L 1178 0 
L 603 0 
L 603 3500 
z
M 603 4863 
L 1178 4863 
L 1178 4134 
L 603 4134 
L 603 4863 
z
" transform="scale(0.015625)"/>
       <path id="DejaVuSans-76" d="M 191 3500 
L 800 3500 
L 1894 563 
L 2988 3500 
L 3597 3500 
L 2284 0 
L 1503 0 
L 191 3500 
z
" transform="scale(0.015625)"/>
       <path id="DejaVuSans-20" transform="scale(0.015625)"/>
       <path id="DejaVuSans-303" d="M -1621 4281 
L -1799 4453 
Q -1867 4516 -1919 4545 
Q -1971 4575 -2011 4575 
Q -2130 4575 -2186 4461 
Q -2242 4347 -2249 4091 
L -2639 4091 
Q -2633 4513 -2473 4742 
Q -2314 4972 -2030 4972 
Q -1911 4972 -1811 4928 
Q -1711 4884 -1596 4781 
L -1417 4609 
Q -1349 4547 -1297 4517 
Q -1246 4488 -1205 4488 
Q -1086 4488 -1030 4602 
Q -974 4716 -967 4972 
L -577 4972 
Q -583 4550 -742 4320 
Q -902 4091 -1186 4091 
Q -1305 4091 -1405 4134 
Q -1505 4178 -1621 4281 
z
" transform="scale(0.015625)"/>
       <path id="DejaVuSans-Oblique-52" d="M 1613 4147 
L 1294 2491 
L 2106 2491 
Q 2584 2491 2879 2755 
Q 3175 3019 3175 3444 
Q 3175 3784 2976 3965 
Q 2778 4147 2406 4147 
L 1613 4147 
z
M 2772 2241 
Q 2972 2194 3105 2009 
Q 3238 1825 3413 1275 
L 3809 0 
L 3144 0 
L 2778 1197 
Q 2638 1659 2453 1815 
Q 2269 1972 1888 1972 
L 1191 1972 
L 806 0 
L 172 0 
L 1081 4666 
L 2503 4666 
Q 3150 4666 3495 4373 
Q 3841 4081 3841 3531 
Q 3841 3044 3547 2687 
Q 3253 2331 2772 2241 
z
" transform="scale(0.015625)"/>
       <path id="DejaVuSans-Oblique-74" d="M 2706 3500 
L 2619 3053 
L 1472 3053 
L 1100 1153 
Q 1081 1047 1072 975 
Q 1063 903 1063 863 
Q 1063 663 1183 572 
Q 1303 481 1569 481 
L 2150 481 
L 2053 0 
L 1503 0 
Q 991 0 739 200 
Q 488 400 488 806 
Q 488 878 497 964 
Q 506 1050 525 1153 
L 897 3053 
L 409 3053 
L 500 3500 
L 978 3500 
L 1172 4494 
L 1747 4494 
L 1556 3500 
L 2706 3500 
z
" transform="scale(0.015625)"/>
       <path id="DejaVuSans-Oblique-3c7" d="M 1922 -781 
L 1691 416 
L 394 -1334 
L -284 -1334 
L 1553 1141 
L 1269 2613 
Q 1194 3006 713 3006 
L 559 3006 
L 653 3500 
L 872 3494 
Q 1675 3472 1775 2950 
L 2006 1753 
L 3303 3503 
L 3981 3503 
L 2144 1028 
L 2428 -444 
Q 2503 -838 2984 -838 
L 3138 -838 
L 3044 -1331 
L 2825 -1325 
Q 2022 -1303 1922 -781 
z
" transform="scale(0.015625)"/>
       <path id="DejaVuSans-2c" d="M 750 794 
L 1409 794 
L 1409 256 
L 897 -744 
L 494 -744 
L 750 256 
L 750 794 
z
" transform="scale(0.015625)"/>
      </defs>
      <use xlink:href="#DejaVuSans-50" transform="translate(0 0.828125)"/>
      <use xlink:href="#DejaVuSans-72" transform="translate(60.302734 0.828125)"/>
      <use xlink:href="#DejaVuSans-69" transform="translate(101.416016 0.828125)"/>
      <use xlink:href="#DejaVuSans-76" transform="translate(129.199219 0.828125)"/>
      <use xlink:href="#DejaVuSans-61" transform="translate(188.378906 0.828125)"/>
      <use xlink:href="#DejaVuSans-74" transform="translate(249.658203 0.828125)"/>
      <use xlink:href="#DejaVuSans-65" transform="translate(288.867188 0.828125)"/>
      <use xlink:href="#DejaVuSans-20" transform="translate(350.390625 0.828125)"/>
      <use xlink:href="#DejaVuSans-56" transform="translate(382.177734 0.828125)"/>
      <use xlink:href="#DejaVuSans-61" transform="translate(450.585938 0.828125)"/>
      <use xlink:href="#DejaVuSans-6c" transform="translate(511.865234 0.828125)"/>
      <use xlink:href="#DejaVuSans-75" transform="translate(539.648438 0.828125)"/>
      <use xlink:href="#DejaVuSans-65" transform="translate(603.027344 0.828125)"/>
      <use xlink:href="#DejaVuSans-20" transform="translate(664.550781 0.828125)"/>
      <use xlink:href="#DejaVuSans-303" transform="translate(764.942871 22.3125)"/>
      <use xlink:href="#DejaVuSans-Oblique-52" transform="translate(696.337891 0.828125)"/>
      <use xlink:href="#DejaVuSans-Oblique-74" transform="translate(766.777344 39.109375) scale(0.7)"/>
      <use xlink:href="#DejaVuSans-Oblique-3c7" transform="translate(766.777344 -26.515625) scale(0.7)"/>
      <use xlink:href="#DejaVuSans-33" transform="translate(808.203125 -38) scale(0.49)"/>
      <use xlink:href="#DejaVuSans-2c" transform="translate(841.29248 -26.515625) scale(0.7)"/>
      <use xlink:href="#DejaVuSans-Oblique-3c7" transform="translate(877.181152 -26.515625) scale(0.7)"/>
      <use xlink:href="#DejaVuSans-31" transform="translate(918.606934 -38) scale(0.49)"/>
     </g>
    </g>
    <g id="line2d_32">
     <path d="M 53.879375 34 
L 63.879375 34 
L 73.879375 34 
" style="fill: none; stroke-dasharray: 5.55,2.4; stroke-dashoffset: 0; stroke: #000000; stroke-width: 1.5"/>
    </g>
    <g id="text_18">
     <!-- Original Value $\bar{R}_{\chi_3,\chi_1}^t$ -->
     <g transform="translate(81.879375 37.5) scale(0.1 -0.1)">
      <defs>
       <path id="DejaVuSans-4f" d="M 2522 4238 
Q 1834 4238 1429 3725 
Q 1025 3213 1025 2328 
Q 1025 1447 1429 934 
Q 1834 422 2522 422 
Q 3209 422 3611 934 
Q 4013 1447 4013 2328 
Q 4013 3213 3611 3725 
Q 3209 4238 2522 4238 
z
M 2522 4750 
Q 3503 4750 4090 4092 
Q 4678 3434 4678 2328 
Q 4678 1225 4090 567 
Q 3503 -91 2522 -91 
Q 1538 -91 948 565 
Q 359 1222 359 2328 
Q 359 3434 948 4092 
Q 1538 4750 2522 4750 
z
" transform="scale(0.015625)"/>
       <path id="DejaVuSans-67" d="M 2906 1791 
Q 2906 2416 2648 2759 
Q 2391 3103 1925 3103 
Q 1463 3103 1205 2759 
Q 947 2416 947 1791 
Q 947 1169 1205 825 
Q 1463 481 1925 481 
Q 2391 481 2648 825 
Q 2906 1169 2906 1791 
z
M 3481 434 
Q 3481 -459 3084 -895 
Q 2688 -1331 1869 -1331 
Q 1566 -1331 1297 -1286 
Q 1028 -1241 775 -1147 
L 775 -588 
Q 1028 -725 1275 -790 
Q 1522 -856 1778 -856 
Q 2344 -856 2625 -561 
Q 2906 -266 2906 331 
L 2906 616 
Q 2728 306 2450 153 
Q 2172 0 1784 0 
Q 1141 0 747 490 
Q 353 981 353 1791 
Q 353 2603 747 3093 
Q 1141 3584 1784 3584 
Q 2172 3584 2450 3431 
Q 2728 3278 2906 2969 
L 2906 3500 
L 3481 3500 
L 3481 434 
z
" transform="scale(0.015625)"/>
       <path id="DejaVuSans-6e" d="M 3513 2113 
L 3513 0 
L 2938 0 
L 2938 2094 
Q 2938 2591 2744 2837 
Q 2550 3084 2163 3084 
Q 1697 3084 1428 2787 
Q 1159 2491 1159 1978 
L 1159 0 
L 581 0 
L 581 3500 
L 1159 3500 
L 1159 2956 
Q 1366 3272 1645 3428 
Q 1925 3584 2291 3584 
Q 2894 3584 3203 3211 
Q 3513 2838 3513 2113 
z
" transform="scale(0.015625)"/>
       <path id="DejaVuSans-304" d="M -2518 4769 
L -650 4769 
L -650 4306 
L -2518 4306 
L -2518 4769 
z
" transform="scale(0.015625)"/>
      </defs>
      <use xlink:href="#DejaVuSans-4f" transform="translate(0 0.359375)"/>
      <use xlink:href="#DejaVuSans-72" transform="translate(78.710938 0.359375)"/>
      <use xlink:href="#DejaVuSans-69" transform="translate(119.824219 0.359375)"/>
      <use xlink:href="#DejaVuSans-67" transform="translate(147.607422 0.359375)"/>
      <use xlink:href="#DejaVuSans-69" transform="translate(211.083984 0.359375)"/>
      <use xlink:href="#DejaVuSans-6e" transform="translate(238.867188 0.359375)"/>
      <use xlink:href="#DejaVuSans-61" transform="translate(302.246094 0.359375)"/>
      <use xlink:href="#DejaVuSans-6c" transform="translate(363.525391 0.359375)"/>
      <use xlink:href="#DejaVuSans-20" transform="translate(391.308594 0.359375)"/>
      <use xlink:href="#DejaVuSans-56" transform="translate(423.095703 0.359375)"/>
      <use xlink:href="#DejaVuSans-61" transform="translate(491.503906 0.359375)"/>
      <use xlink:href="#DejaVuSans-6c" transform="translate(552.783203 0.359375)"/>
      <use xlink:href="#DejaVuSans-75" transform="translate(580.566406 0.359375)"/>
      <use xlink:href="#DejaVuSans-65" transform="translate(643.945312 0.359375)"/>
      <use xlink:href="#DejaVuSans-20" transform="translate(705.46875 0.359375)"/>
      <use xlink:href="#DejaVuSans-304" transform="translate(804.970215 18.484375)"/>
      <use xlink:href="#DejaVuSans-Oblique-52" transform="translate(737.255859 0.359375)"/>
      <use xlink:href="#DejaVuSans-Oblique-74" transform="translate(807.695312 38.640625) scale(0.7)"/>
      <use xlink:href="#DejaVuSans-Oblique-3c7" transform="translate(807.695312 -26.984375) scale(0.7)"/>
      <use xlink:href="#DejaVuSans-33" transform="translate(849.121094 -38.46875) scale(0.49)"/>
      <use xlink:href="#DejaVuSans-2c" transform="translate(882.210449 -26.984375) scale(0.7)"/>
      <use xlink:href="#DejaVuSans-Oblique-3c7" transform="translate(918.099121 -26.984375) scale(0.7)"/>
      <use xlink:href="#DejaVuSans-31" transform="translate(959.524902 -38.46875) scale(0.49)"/>
     </g>
    </g>
    <g id="patch_8">
     <path d="M 53.879375 54.298437 
L 73.879375 54.298437 
L 73.879375 47.298437 
L 53.879375 47.298437 
z
" style="fill: #ffb612; fill-opacity: 0.5; stroke: #ffb612; stroke-opacity: 0.5; stroke-width: 0.5; stroke-linejoin: miter"/>
    </g>
    <g id="text_19">
     <!-- One Standard Deviation -->
     <g transform="translate(81.879375 54.298437) scale(0.1 -0.1)">
      <defs>
       <path id="DejaVuSans-53" d="M 3425 4513 
L 3425 3897 
Q 3066 4069 2747 4153 
Q 2428 4238 2131 4238 
Q 1616 4238 1336 4038 
Q 1056 3838 1056 3469 
Q 1056 3159 1242 3001 
Q 1428 2844 1947 2747 
L 2328 2669 
Q 3034 2534 3370 2195 
Q 3706 1856 3706 1288 
Q 3706 609 3251 259 
Q 2797 -91 1919 -91 
Q 1588 -91 1214 -16 
Q 841 59 441 206 
L 441 856 
Q 825 641 1194 531 
Q 1563 422 1919 422 
Q 2459 422 2753 634 
Q 3047 847 3047 1241 
Q 3047 1584 2836 1778 
Q 2625 1972 2144 2069 
L 1759 2144 
Q 1053 2284 737 2584 
Q 422 2884 422 3419 
Q 422 4038 858 4394 
Q 1294 4750 2059 4750 
Q 2388 4750 2728 4690 
Q 3069 4631 3425 4513 
z
" transform="scale(0.015625)"/>
       <path id="DejaVuSans-64" d="M 2906 2969 
L 2906 4863 
L 3481 4863 
L 3481 0 
L 2906 0 
L 2906 525 
Q 2725 213 2448 61 
Q 2172 -91 1784 -91 
Q 1150 -91 751 415 
Q 353 922 353 1747 
Q 353 2572 751 3078 
Q 1150 3584 1784 3584 
Q 2172 3584 2448 3432 
Q 2725 3281 2906 2969 
z
M 947 1747 
Q 947 1113 1208 752 
Q 1469 391 1925 391 
Q 2381 391 2643 752 
Q 2906 1113 2906 1747 
Q 2906 2381 2643 2742 
Q 2381 3103 1925 3103 
Q 1469 3103 1208 2742 
Q 947 2381 947 1747 
z
" transform="scale(0.015625)"/>
       <path id="DejaVuSans-6f" d="M 1959 3097 
Q 1497 3097 1228 2736 
Q 959 2375 959 1747 
Q 959 1119 1226 758 
Q 1494 397 1959 397 
Q 2419 397 2687 759 
Q 2956 1122 2956 1747 
Q 2956 2369 2687 2733 
Q 2419 3097 1959 3097 
z
M 1959 3584 
Q 2709 3584 3137 3096 
Q 3566 2609 3566 1747 
Q 3566 888 3137 398 
Q 2709 -91 1959 -91 
Q 1206 -91 779 398 
Q 353 888 353 1747 
Q 353 2609 779 3096 
Q 1206 3584 1959 3584 
z
" transform="scale(0.015625)"/>
      </defs>
      <use xlink:href="#DejaVuSans-4f"/>
      <use xlink:href="#DejaVuSans-6e" x="78.710938"/>
      <use xlink:href="#DejaVuSans-65" x="142.089844"/>
      <use xlink:href="#DejaVuSans-20" x="203.613281"/>
      <use xlink:href="#DejaVuSans-53" x="235.400391"/>
      <use xlink:href="#DejaVuSans-74" x="298.876953"/>
      <use xlink:href="#DejaVuSans-61" x="338.085938"/>
      <use xlink:href="#DejaVuSans-6e" x="399.365234"/>
      <use xlink:href="#DejaVuSans-64" x="462.744141"/>
      <use xlink:href="#DejaVuSans-61" x="526.220703"/>
      <use xlink:href="#DejaVuSans-72" x="587.5"/>
      <use xlink:href="#DejaVuSans-64" x="626.863281"/>
      <use xlink:href="#DejaVuSans-20" x="690.339844"/>
      <use xlink:href="#DejaVuSans-44" x="722.126953"/>
      <use xlink:href="#DejaVuSans-65" x="799.128906"/>
      <use xlink:href="#DejaVuSans-76" x="860.652344"/>
      <use xlink:href="#DejaVuSans-69" x="919.832031"/>
      <use xlink:href="#DejaVuSans-61" x="947.615234"/>
      <use xlink:href="#DejaVuSans-74" x="1008.894531"/>
      <use xlink:href="#DejaVuSans-69" x="1048.103516"/>
      <use xlink:href="#DejaVuSans-6f" x="1075.886719"/>
      <use xlink:href="#DejaVuSans-6e" x="1137.068359"/>
     </g>
    </g>
   </g>
  </g>
 </g>
 <defs>
  <clipPath id="p62ee659822">
   <rect x="44.879375" y="-0" width="390.6" height="166.32"/>
  </clipPath>
 </defs>
</svg>
