<?xml version="1.0" encoding="utf-8" standalone="no"?>
<!DOCTYPE svg PUBLIC "-//W3C//DTD SVG 1.1//EN"
  "http://www.w3.org/Graphics/SVG/1.1/DTD/svg11.dtd">
<svg xmlns:xlink="http://www.w3.org/1999/xlink" width="444.375067pt" height="198.611875pt" viewBox="0 0 444.375067 198.611875" xmlns="http://www.w3.org/2000/svg" version="1.1">
 <metadata>
  <rdf:RDF xmlns:dc="http://purl.org/dc/elements/1.1/" xmlns:cc="http://creativecommons.org/ns#" xmlns:rdf="http://www.w3.org/1999/02/22-rdf-syntax-ns#">
   <cc:Work>
    <dc:type rdf:resource="http://purl.org/dc/dcmitype/StillImage"/>
    <dc:date>2024-09-18T15:47:48.342262</dc:date>
    <dc:format>image/svg+xml</dc:format>
    <dc:creator>
     <cc:Agent>
      <dc:title>Matplotlib v3.7.5, https://matplotlib.org/</dc:title>
     </cc:Agent>
    </dc:creator>
   </cc:Work>
  </rdf:RDF>
 </metadata>
 <defs>
  <style type="text/css">*{stroke-linejoin: round; stroke-linecap: butt}</style>
 </defs>
 <g id="figure_1">
  <g id="patch_1">
   <path d="M 0 198.611875 
L 444.375067 198.611875 
L 444.375067 0 
L 0 0 
z
" style="fill: #ffffff"/>
  </g>
  <g id="axes_1">
   <g id="patch_2">
    <path d="M 44.879375 166.32 
L 435.479375 166.32 
L 435.479375 -0 
L 44.879375 -0 
z
" style="fill: #e5e5e5"/>
   </g>
   <g id="matplotlib.axis_1">
    <g id="xtick_1">
     <g id="line2d_1">
      <path d="M 72.41989 166.32 
L 72.41989 -0 
" clip-path="url(#p702b7dad2e)" style="fill: none; stroke: #ffffff; stroke-width: 0.8; stroke-linecap: square"/>
     </g>
     <g id="line2d_2">
      <defs>
       <path id="m01a3b56802" d="M 0 0 
L 0 3.5 
" style="stroke: #555555; stroke-width: 0.8"/>
      </defs>
      <g>
       <use xlink:href="#m01a3b56802" x="72.41989" y="166.32" style="fill: #555555; stroke: #555555; stroke-width: 0.8"/>
      </g>
     </g>
     <g id="text_1">
      <!-- 08/16/20 -->
      <g style="fill: #555555" transform="translate(49.96364 180.918437) scale(0.1 -0.1)">
       <defs>
        <path id="DejaVuSans-30" d="M 2034 4250 
Q 1547 4250 1301 3770 
Q 1056 3291 1056 2328 
Q 1056 1369 1301 889 
Q 1547 409 2034 409 
Q 2525 409 2770 889 
Q 3016 1369 3016 2328 
Q 3016 3291 2770 3770 
Q 2525 4250 2034 4250 
z
M 2034 4750 
Q 2819 4750 3233 4129 
Q 3647 3509 3647 2328 
Q 3647 1150 3233 529 
Q 2819 -91 2034 -91 
Q 1250 -91 836 529 
Q 422 1150 422 2328 
Q 422 3509 836 4129 
Q 1250 4750 2034 4750 
z
" transform="scale(0.015625)"/>
        <path id="DejaVuSans-38" d="M 2034 2216 
Q 1584 2216 1326 1975 
Q 1069 1734 1069 1313 
Q 1069 891 1326 650 
Q 1584 409 2034 409 
Q 2484 409 2743 651 
Q 3003 894 3003 1313 
Q 3003 1734 2745 1975 
Q 2488 2216 2034 2216 
z
M 1403 2484 
Q 997 2584 770 2862 
Q 544 3141 544 3541 
Q 544 4100 942 4425 
Q 1341 4750 2034 4750 
Q 2731 4750 3128 4425 
Q 3525 4100 3525 3541 
Q 3525 3141 3298 2862 
Q 3072 2584 2669 2484 
Q 3125 2378 3379 2068 
Q 3634 1759 3634 1313 
Q 3634 634 3220 271 
Q 2806 -91 2034 -91 
Q 1263 -91 848 271 
Q 434 634 434 1313 
Q 434 1759 690 2068 
Q 947 2378 1403 2484 
z
M 1172 3481 
Q 1172 3119 1398 2916 
Q 1625 2713 2034 2713 
Q 2441 2713 2670 2916 
Q 2900 3119 2900 3481 
Q 2900 3844 2670 4047 
Q 2441 4250 2034 4250 
Q 1625 4250 1398 4047 
Q 1172 3844 1172 3481 
z
" transform="scale(0.015625)"/>
        <path id="DejaVuSans-2f" d="M 1625 4666 
L 2156 4666 
L 531 -594 
L 0 -594 
L 1625 4666 
z
" transform="scale(0.015625)"/>
        <path id="DejaVuSans-31" d="M 794 531 
L 1825 531 
L 1825 4091 
L 703 3866 
L 703 4441 
L 1819 4666 
L 2450 4666 
L 2450 531 
L 3481 531 
L 3481 0 
L 794 0 
L 794 531 
z
" transform="scale(0.015625)"/>
        <path id="DejaVuSans-36" d="M 2113 2584 
Q 1688 2584 1439 2293 
Q 1191 2003 1191 1497 
Q 1191 994 1439 701 
Q 1688 409 2113 409 
Q 2538 409 2786 701 
Q 3034 994 3034 1497 
Q 3034 2003 2786 2293 
Q 2538 2584 2113 2584 
z
M 3366 4563 
L 3366 3988 
Q 3128 4100 2886 4159 
Q 2644 4219 2406 4219 
Q 1781 4219 1451 3797 
Q 1122 3375 1075 2522 
Q 1259 2794 1537 2939 
Q 1816 3084 2150 3084 
Q 2853 3084 3261 2657 
Q 3669 2231 3669 1497 
Q 3669 778 3244 343 
Q 2819 -91 2113 -91 
Q 1303 -91 875 529 
Q 447 1150 447 2328 
Q 447 3434 972 4092 
Q 1497 4750 2381 4750 
Q 2619 4750 2861 4703 
Q 3103 4656 3366 4563 
z
" transform="scale(0.015625)"/>
        <path id="DejaVuSans-32" d="M 1228 531 
L 3431 531 
L 3431 0 
L 469 0 
L 469 531 
Q 828 903 1448 1529 
Q 2069 2156 2228 2338 
Q 2531 2678 2651 2914 
Q 2772 3150 2772 3378 
Q 2772 3750 2511 3984 
Q 2250 4219 1831 4219 
Q 1534 4219 1204 4116 
Q 875 4013 500 3803 
L 500 4441 
Q 881 4594 1212 4672 
Q 1544 4750 1819 4750 
Q 2544 4750 2975 4387 
Q 3406 4025 3406 3419 
Q 3406 3131 3298 2873 
Q 3191 2616 2906 2266 
Q 2828 2175 2409 1742 
Q 1991 1309 1228 531 
z
" transform="scale(0.015625)"/>
       </defs>
       <use xlink:href="#DejaVuSans-30"/>
       <use xlink:href="#DejaVuSans-38" x="63.623047"/>
       <use xlink:href="#DejaVuSans-2f" x="127.246094"/>
       <use xlink:href="#DejaVuSans-31" x="160.9375"/>
       <use xlink:href="#DejaVuSans-36" x="224.560547"/>
       <use xlink:href="#DejaVuSans-2f" x="288.183594"/>
       <use xlink:href="#DejaVuSans-32" x="321.875"/>
       <use xlink:href="#DejaVuSans-30" x="385.498047"/>
      </g>
     </g>
    </g>
    <g id="xtick_2">
     <g id="line2d_3">
      <path d="M 142.319676 166.32 
L 142.319676 -0 
" clip-path="url(#p702b7dad2e)" style="fill: none; stroke: #ffffff; stroke-width: 0.8; stroke-linecap: square"/>
     </g>
     <g id="line2d_4">
      <g>
       <use xlink:href="#m01a3b56802" x="142.319676" y="166.32" style="fill: #555555; stroke: #555555; stroke-width: 0.8"/>
      </g>
     </g>
     <g id="text_2">
      <!-- 10/05/20 -->
      <g style="fill: #555555" transform="translate(119.863426 180.918437) scale(0.1 -0.1)">
       <defs>
        <path id="DejaVuSans-35" d="M 691 4666 
L 3169 4666 
L 3169 4134 
L 1269 4134 
L 1269 2991 
Q 1406 3038 1543 3061 
Q 1681 3084 1819 3084 
Q 2600 3084 3056 2656 
Q 3513 2228 3513 1497 
Q 3513 744 3044 326 
Q 2575 -91 1722 -91 
Q 1428 -91 1123 -41 
Q 819 9 494 109 
L 494 744 
Q 775 591 1075 516 
Q 1375 441 1709 441 
Q 2250 441 2565 725 
Q 2881 1009 2881 1497 
Q 2881 1984 2565 2268 
Q 2250 2553 1709 2553 
Q 1456 2553 1204 2497 
Q 953 2441 691 2322 
L 691 4666 
z
" transform="scale(0.015625)"/>
       </defs>
       <use xlink:href="#DejaVuSans-31"/>
       <use xlink:href="#DejaVuSans-30" x="63.623047"/>
       <use xlink:href="#DejaVuSans-2f" x="127.246094"/>
       <use xlink:href="#DejaVuSans-30" x="160.9375"/>
       <use xlink:href="#DejaVuSans-35" x="224.560547"/>
       <use xlink:href="#DejaVuSans-2f" x="288.183594"/>
       <use xlink:href="#DejaVuSans-32" x="321.875"/>
       <use xlink:href="#DejaVuSans-30" x="385.498047"/>
      </g>
     </g>
    </g>
    <g id="xtick_3">
     <g id="line2d_5">
      <path d="M 212.219461 166.32 
L 212.219461 -0 
" clip-path="url(#p702b7dad2e)" style="fill: none; stroke: #ffffff; stroke-width: 0.8; stroke-linecap: square"/>
     </g>
     <g id="line2d_6">
      <g>
       <use xlink:href="#m01a3b56802" x="212.219461" y="166.32" style="fill: #555555; stroke: #555555; stroke-width: 0.8"/>
      </g>
     </g>
     <g id="text_3">
      <!-- 11/24/20 -->
      <g style="fill: #555555" transform="translate(189.763211 180.918437) scale(0.1 -0.1)">
       <defs>
        <path id="DejaVuSans-34" d="M 2419 4116 
L 825 1625 
L 2419 1625 
L 2419 4116 
z
M 2253 4666 
L 3047 4666 
L 3047 1625 
L 3713 1625 
L 3713 1100 
L 3047 1100 
L 3047 0 
L 2419 0 
L 2419 1100 
L 313 1100 
L 313 1709 
L 2253 4666 
z
" transform="scale(0.015625)"/>
       </defs>
       <use xlink:href="#DejaVuSans-31"/>
       <use xlink:href="#DejaVuSans-31" x="63.623047"/>
       <use xlink:href="#DejaVuSans-2f" x="127.246094"/>
       <use xlink:href="#DejaVuSans-32" x="160.9375"/>
       <use xlink:href="#DejaVuSans-34" x="224.560547"/>
       <use xlink:href="#DejaVuSans-2f" x="288.183594"/>
       <use xlink:href="#DejaVuSans-32" x="321.875"/>
       <use xlink:href="#DejaVuSans-30" x="385.498047"/>
      </g>
     </g>
    </g>
    <g id="xtick_4">
     <g id="line2d_7">
      <path d="M 282.119246 166.32 
L 282.119246 -0 
" clip-path="url(#p702b7dad2e)" style="fill: none; stroke: #ffffff; stroke-width: 0.8; stroke-linecap: square"/>
     </g>
     <g id="line2d_8">
      <g>
       <use xlink:href="#m01a3b56802" x="282.119246" y="166.32" style="fill: #555555; stroke: #555555; stroke-width: 0.8"/>
      </g>
     </g>
     <g id="text_4">
      <!-- 01/13/21 -->
      <g style="fill: #555555" transform="translate(259.662996 180.918437) scale(0.1 -0.1)">
       <defs>
        <path id="DejaVuSans-33" d="M 2597 2516 
Q 3050 2419 3304 2112 
Q 3559 1806 3559 1356 
Q 3559 666 3084 287 
Q 2609 -91 1734 -91 
Q 1441 -91 1130 -33 
Q 819 25 488 141 
L 488 750 
Q 750 597 1062 519 
Q 1375 441 1716 441 
Q 2309 441 2620 675 
Q 2931 909 2931 1356 
Q 2931 1769 2642 2001 
Q 2353 2234 1838 2234 
L 1294 2234 
L 1294 2753 
L 1863 2753 
Q 2328 2753 2575 2939 
Q 2822 3125 2822 3475 
Q 2822 3834 2567 4026 
Q 2313 4219 1838 4219 
Q 1578 4219 1281 4162 
Q 984 4106 628 3988 
L 628 4550 
Q 988 4650 1302 4700 
Q 1616 4750 1894 4750 
Q 2613 4750 3031 4423 
Q 3450 4097 3450 3541 
Q 3450 3153 3228 2886 
Q 3006 2619 2597 2516 
z
" transform="scale(0.015625)"/>
       </defs>
       <use xlink:href="#DejaVuSans-30"/>
       <use xlink:href="#DejaVuSans-31" x="63.623047"/>
       <use xlink:href="#DejaVuSans-2f" x="127.246094"/>
       <use xlink:href="#DejaVuSans-31" x="160.9375"/>
       <use xlink:href="#DejaVuSans-33" x="224.560547"/>
       <use xlink:href="#DejaVuSans-2f" x="288.183594"/>
       <use xlink:href="#DejaVuSans-32" x="321.875"/>
       <use xlink:href="#DejaVuSans-31" x="385.498047"/>
      </g>
     </g>
    </g>
    <g id="xtick_5">
     <g id="line2d_9">
      <path d="M 352.019031 166.32 
L 352.019031 -0 
" clip-path="url(#p702b7dad2e)" style="fill: none; stroke: #ffffff; stroke-width: 0.8; stroke-linecap: square"/>
     </g>
     <g id="line2d_10">
      <g>
       <use xlink:href="#m01a3b56802" x="352.019031" y="166.32" style="fill: #555555; stroke: #555555; stroke-width: 0.8"/>
      </g>
     </g>
     <g id="text_5">
      <!-- 03/04/21 -->
      <g style="fill: #555555" transform="translate(329.562781 180.918437) scale(0.1 -0.1)">
       <use xlink:href="#DejaVuSans-30"/>
       <use xlink:href="#DejaVuSans-33" x="63.623047"/>
       <use xlink:href="#DejaVuSans-2f" x="127.246094"/>
       <use xlink:href="#DejaVuSans-30" x="160.9375"/>
       <use xlink:href="#DejaVuSans-34" x="224.560547"/>
       <use xlink:href="#DejaVuSans-2f" x="288.183594"/>
       <use xlink:href="#DejaVuSans-32" x="321.875"/>
       <use xlink:href="#DejaVuSans-31" x="385.498047"/>
      </g>
     </g>
    </g>
    <g id="xtick_6">
     <g id="line2d_11">
      <path d="M 421.918817 166.32 
L 421.918817 -0 
" clip-path="url(#p702b7dad2e)" style="fill: none; stroke: #ffffff; stroke-width: 0.8; stroke-linecap: square"/>
     </g>
     <g id="line2d_12">
      <g>
       <use xlink:href="#m01a3b56802" x="421.918817" y="166.32" style="fill: #555555; stroke: #555555; stroke-width: 0.8"/>
      </g>
     </g>
     <g id="text_6">
      <!-- 04/23/21 -->
      <g style="fill: #555555" transform="translate(399.462567 180.918437) scale(0.1 -0.1)">
       <use xlink:href="#DejaVuSans-30"/>
       <use xlink:href="#DejaVuSans-34" x="63.623047"/>
       <use xlink:href="#DejaVuSans-2f" x="127.246094"/>
       <use xlink:href="#DejaVuSans-32" x="160.9375"/>
       <use xlink:href="#DejaVuSans-33" x="224.560547"/>
       <use xlink:href="#DejaVuSans-2f" x="288.183594"/>
       <use xlink:href="#DejaVuSans-32" x="321.875"/>
       <use xlink:href="#DejaVuSans-31" x="385.498047"/>
      </g>
     </g>
    </g>
    <g id="text_7">
     <!-- Date -->
     <g style="fill: #555555" transform="translate(225.838438 196.11625) scale(0.12 -0.12)">
      <defs>
       <path id="DejaVuSans-44" d="M 1259 4147 
L 1259 519 
L 2022 519 
Q 2988 519 3436 956 
Q 3884 1394 3884 2338 
Q 3884 3275 3436 3711 
Q 2988 4147 2022 4147 
L 1259 4147 
z
M 628 4666 
L 1925 4666 
Q 3281 4666 3915 4102 
Q 4550 3538 4550 2338 
Q 4550 1131 3912 565 
Q 3275 0 1925 0 
L 628 0 
L 628 4666 
z
" transform="scale(0.015625)"/>
       <path id="DejaVuSans-61" d="M 2194 1759 
Q 1497 1759 1228 1600 
Q 959 1441 959 1056 
Q 959 750 1161 570 
Q 1363 391 1709 391 
Q 2188 391 2477 730 
Q 2766 1069 2766 1631 
L 2766 1759 
L 2194 1759 
z
M 3341 1997 
L 3341 0 
L 2766 0 
L 2766 531 
Q 2569 213 2275 61 
Q 1981 -91 1556 -91 
Q 1019 -91 701 211 
Q 384 513 384 1019 
Q 384 1609 779 1909 
Q 1175 2209 1959 2209 
L 2766 2209 
L 2766 2266 
Q 2766 2663 2505 2880 
Q 2244 3097 1772 3097 
Q 1472 3097 1187 3025 
Q 903 2953 641 2809 
L 641 3341 
Q 956 3463 1253 3523 
Q 1550 3584 1831 3584 
Q 2591 3584 2966 3190 
Q 3341 2797 3341 1997 
z
" transform="scale(0.015625)"/>
       <path id="DejaVuSans-74" d="M 1172 4494 
L 1172 3500 
L 2356 3500 
L 2356 3053 
L 1172 3053 
L 1172 1153 
Q 1172 725 1289 603 
Q 1406 481 1766 481 
L 2356 481 
L 2356 0 
L 1766 0 
Q 1100 0 847 248 
Q 594 497 594 1153 
L 594 3053 
L 172 3053 
L 172 3500 
L 594 3500 
L 594 4494 
L 1172 4494 
z
" transform="scale(0.015625)"/>
       <path id="DejaVuSans-65" d="M 3597 1894 
L 3597 1613 
L 953 1613 
Q 991 1019 1311 708 
Q 1631 397 2203 397 
Q 2534 397 2845 478 
Q 3156 559 3463 722 
L 3463 178 
Q 3153 47 2828 -22 
Q 2503 -91 2169 -91 
Q 1331 -91 842 396 
Q 353 884 353 1716 
Q 353 2575 817 3079 
Q 1281 3584 2069 3584 
Q 2775 3584 3186 3129 
Q 3597 2675 3597 1894 
z
M 3022 2063 
Q 3016 2534 2758 2815 
Q 2500 3097 2075 3097 
Q 1594 3097 1305 2825 
Q 1016 2553 972 2059 
L 3022 2063 
z
" transform="scale(0.015625)"/>
      </defs>
      <use xlink:href="#DejaVuSans-44"/>
      <use xlink:href="#DejaVuSans-61" x="77.001953"/>
      <use xlink:href="#DejaVuSans-74" x="138.28125"/>
      <use xlink:href="#DejaVuSans-65" x="177.490234"/>
     </g>
    </g>
   </g>
   <g id="matplotlib.axis_2">
    <g id="ytick_1">
     <g id="line2d_13">
      <path d="M 44.879375 138.403585 
L 435.479375 138.403585 
" clip-path="url(#p702b7dad2e)" style="fill: none; stroke: #ffffff; stroke-width: 0.8; stroke-linecap: square"/>
     </g>
     <g id="line2d_14">
      <defs>
       <path id="meb1340eb3b" d="M 0 0 
L -3.5 0 
" style="stroke: #555555; stroke-width: 0.8"/>
      </defs>
      <g>
       <use xlink:href="#meb1340eb3b" x="44.879375" y="138.403585" style="fill: #555555; stroke: #555555; stroke-width: 0.8"/>
      </g>
     </g>
     <g id="text_8">
      <!-- 0.05 -->
      <g style="fill: #555555" transform="translate(15.61375 142.202804) scale(0.1 -0.1)">
       <defs>
        <path id="DejaVuSans-2e" d="M 684 794 
L 1344 794 
L 1344 0 
L 684 0 
L 684 794 
z
" transform="scale(0.015625)"/>
       </defs>
       <use xlink:href="#DejaVuSans-30"/>
       <use xlink:href="#DejaVuSans-2e" x="63.623047"/>
       <use xlink:href="#DejaVuSans-30" x="95.410156"/>
       <use xlink:href="#DejaVuSans-35" x="159.033203"/>
      </g>
     </g>
    </g>
    <g id="ytick_2">
     <g id="line2d_15">
      <path d="M 44.879375 104.802834 
L 435.479375 104.802834 
" clip-path="url(#p702b7dad2e)" style="fill: none; stroke: #ffffff; stroke-width: 0.8; stroke-linecap: square"/>
     </g>
     <g id="line2d_16">
      <g>
       <use xlink:href="#meb1340eb3b" x="44.879375" y="104.802834" style="fill: #555555; stroke: #555555; stroke-width: 0.8"/>
      </g>
     </g>
     <g id="text_9">
      <!-- 0.10 -->
      <g style="fill: #555555" transform="translate(15.61375 108.602053) scale(0.1 -0.1)">
       <use xlink:href="#DejaVuSans-30"/>
       <use xlink:href="#DejaVuSans-2e" x="63.623047"/>
       <use xlink:href="#DejaVuSans-31" x="95.410156"/>
       <use xlink:href="#DejaVuSans-30" x="159.033203"/>
      </g>
     </g>
    </g>
    <g id="ytick_3">
     <g id="line2d_17">
      <path d="M 44.879375 71.202084 
L 435.479375 71.202084 
" clip-path="url(#p702b7dad2e)" style="fill: none; stroke: #ffffff; stroke-width: 0.8; stroke-linecap: square"/>
     </g>
     <g id="line2d_18">
      <g>
       <use xlink:href="#meb1340eb3b" x="44.879375" y="71.202084" style="fill: #555555; stroke: #555555; stroke-width: 0.8"/>
      </g>
     </g>
     <g id="text_10">
      <!-- 0.15 -->
      <g style="fill: #555555" transform="translate(15.61375 75.001303) scale(0.1 -0.1)">
       <use xlink:href="#DejaVuSans-30"/>
       <use xlink:href="#DejaVuSans-2e" x="63.623047"/>
       <use xlink:href="#DejaVuSans-31" x="95.410156"/>
       <use xlink:href="#DejaVuSans-35" x="159.033203"/>
      </g>
     </g>
    </g>
    <g id="ytick_4">
     <g id="line2d_19">
      <path d="M 44.879375 37.601333 
L 435.479375 37.601333 
" clip-path="url(#p702b7dad2e)" style="fill: none; stroke: #ffffff; stroke-width: 0.8; stroke-linecap: square"/>
     </g>
     <g id="line2d_20">
      <g>
       <use xlink:href="#meb1340eb3b" x="44.879375" y="37.601333" style="fill: #555555; stroke: #555555; stroke-width: 0.8"/>
      </g>
     </g>
     <g id="text_11">
      <!-- 0.20 -->
      <g style="fill: #555555" transform="translate(15.61375 41.400552) scale(0.1 -0.1)">
       <use xlink:href="#DejaVuSans-30"/>
       <use xlink:href="#DejaVuSans-2e" x="63.623047"/>
       <use xlink:href="#DejaVuSans-32" x="95.410156"/>
       <use xlink:href="#DejaVuSans-30" x="159.033203"/>
      </g>
     </g>
    </g>
    <g id="ytick_5">
     <g id="line2d_21">
      <path d="M 44.879375 4.000583 
L 435.479375 4.000583 
" clip-path="url(#p702b7dad2e)" style="fill: none; stroke: #ffffff; stroke-width: 0.8; stroke-linecap: square"/>
     </g>
     <g id="line2d_22">
      <g>
       <use xlink:href="#meb1340eb3b" x="44.879375" y="4.000583" style="fill: #555555; stroke: #555555; stroke-width: 0.8"/>
      </g>
     </g>
     <g id="text_12">
      <!-- 0.25 -->
      <g style="fill: #555555" transform="translate(15.61375 7.799802) scale(0.1 -0.1)">
       <use xlink:href="#DejaVuSans-30"/>
       <use xlink:href="#DejaVuSans-2e" x="63.623047"/>
       <use xlink:href="#DejaVuSans-32" x="95.410156"/>
       <use xlink:href="#DejaVuSans-35" x="159.033203"/>
      </g>
     </g>
    </g>
    <g id="text_13">
     <!-- Value -->
     <g style="fill: #555555" transform="translate(9.118125 99.6375) rotate(-90) scale(0.12 -0.12)">
      <defs>
       <path id="DejaVuSans-56" d="M 1831 0 
L 50 4666 
L 709 4666 
L 2188 738 
L 3669 4666 
L 4325 4666 
L 2547 0 
L 1831 0 
z
" transform="scale(0.015625)"/>
       <path id="DejaVuSans-6c" d="M 603 4863 
L 1178 4863 
L 1178 0 
L 603 0 
L 603 4863 
z
" transform="scale(0.015625)"/>
       <path id="DejaVuSans-75" d="M 544 1381 
L 544 3500 
L 1119 3500 
L 1119 1403 
Q 1119 906 1312 657 
Q 1506 409 1894 409 
Q 2359 409 2629 706 
Q 2900 1003 2900 1516 
L 2900 3500 
L 3475 3500 
L 3475 0 
L 2900 0 
L 2900 538 
Q 2691 219 2414 64 
Q 2138 -91 1772 -91 
Q 1169 -91 856 284 
Q 544 659 544 1381 
z
M 1991 3584 
L 1991 3584 
z
" transform="scale(0.015625)"/>
      </defs>
      <use xlink:href="#DejaVuSans-56"/>
      <use xlink:href="#DejaVuSans-61" x="60.658203"/>
      <use xlink:href="#DejaVuSans-6c" x="121.9375"/>
      <use xlink:href="#DejaVuSans-75" x="149.720703"/>
      <use xlink:href="#DejaVuSans-65" x="213.099609"/>
     </g>
    </g>
   </g>
   <g id="PolyCollection_1">
    <defs>
     <path id="mbfa8051a69" d="M 62.63392 -40.793726 
L 62.63392 -44.355497 
L 64.031916 -46.104143 
L 65.429912 -46.083237 
L 66.827908 -44.666579 
L 68.225903 -45.478752 
L 69.623899 -47.976273 
L 71.021895 -50.841896 
L 72.41989 -49.970448 
L 73.817886 -51.974971 
L 75.215882 -51.530129 
L 76.613878 -51.450852 
L 78.011873 -51.290292 
L 79.409869 -50.967236 
L 80.807865 -51.209151 
L 82.20586 -51.520717 
L 83.603856 -51.411033 
L 85.001852 -54.902703 
L 86.399847 -59.626333 
L 87.797843 -59.945245 
L 89.195839 -60.870881 
L 90.593835 -60.403054 
L 91.99183 -61.344701 
L 93.389826 -61.631256 
L 94.787822 -60.78422 
L 96.185817 -60.744658 
L 97.583813 -61.363964 
L 98.981809 -63.100161 
L 100.379804 -62.69475 
L 101.7778 -62.571491 
L 103.175796 -64.094477 
L 104.573792 -63.520948 
L 105.971787 -64.311707 
L 107.369783 -63.923385 
L 108.767779 -70.708106 
L 110.165774 -75.931495 
L 111.56377 -69.220319 
L 112.961766 -76.407554 
L 114.359762 -84.974826 
L 115.757757 -85.046438 
L 117.155753 -84.759135 
L 118.553749 -85.169732 
L 119.951744 -84.251584 
L 121.34974 -80.319246 
L 122.747736 -84.71081 
L 124.145731 -83.691243 
L 125.543727 -76.23086 
L 126.941723 -76.996224 
L 128.339719 -75.493201 
L 129.737714 -73.806721 
L 131.13571 -69.642153 
L 132.533706 -73.952899 
L 133.931701 -75.787647 
L 135.329697 -80.853468 
L 136.727693 -85.978478 
L 138.125689 -86.334798 
L 139.523684 -93.824318 
L 140.92168 -93.626053 
L 142.319676 -89.346711 
L 143.717671 -90.399465 
L 145.115667 -91.077364 
L 146.513663 -91.531654 
L 147.911658 -94.140282 
L 149.309654 -100.869961 
L 150.70765 -95.401107 
L 152.105646 -95.301963 
L 153.503641 -95.751034 
L 154.901637 -97.091226 
L 156.299633 -102.774733 
L 157.697628 -103.258841 
L 159.095624 -100.88648 
L 160.49362 -100.691598 
L 161.891616 -102.592409 
L 163.289611 -100.852643 
L 164.687607 -106.619466 
L 166.085603 -104.34285 
L 167.483598 -102.716326 
L 168.881594 -101.737887 
L 170.27959 -103.83466 
L 171.677585 -104.503903 
L 173.075581 -105.920487 
L 174.473577 -105.431416 
L 175.871573 -112.398431 
L 177.269568 -111.644629 
L 178.667564 -116.005018 
L 180.06556 -111.749972 
L 181.463555 -114.8209 
L 182.861551 -115.491256 
L 184.259547 -114.228726 
L 185.657543 -124.697165 
L 187.055538 -125.450238 
L 188.453534 -126.320577 
L 189.85153 -122.22707 
L 191.249525 -125.574317 
L 192.647521 -133.929827 
L 194.045517 -142.443676 
L 195.443512 -142.825002 
L 196.841508 -148.855965 
L 198.239504 -148.733433 
L 199.6375 -136.544244 
L 201.035495 -142.643637 
L 202.433491 -142.442368 
L 203.831487 -140.793877 
L 205.229482 -138.480479 
L 206.627478 -141.540581 
L 208.025474 -139.101271 
L 209.423469 -137.770016 
L 210.821465 -136.931317 
L 212.219461 -134.276106 
L 213.617457 -131.50418 
L 215.015452 -126.227284 
L 216.413448 -131.525453 
L 217.811444 -132.510137 
L 219.209439 -133.257075 
L 220.607435 -129.957938 
L 222.005431 -131.584405 
L 223.403427 -124.60387 
L 224.801422 -124.785738 
L 226.199418 -130.083958 
L 227.597414 -130.668802 
L 228.995409 -128.961907 
L 230.393405 -128.412727 
L 231.791401 -120.320167 
L 233.189396 -129.805142 
L 234.587392 -120.305364 
L 235.985388 -114.923031 
L 237.383384 -113.302305 
L 238.781379 -113.106069 
L 240.179375 -107.473838 
L 241.577371 -104.272375 
L 242.975366 -99.372115 
L 244.373362 -97.178842 
L 245.771358 -96.169798 
L 247.169354 -92.338657 
L 248.567349 -95.139182 
L 249.965345 -89.151796 
L 251.363341 -89.121489 
L 252.761336 -84.498847 
L 254.159332 -76.167851 
L 255.557328 -75.796212 
L 256.955323 -75.296327 
L 258.353319 -75.678636 
L 259.751315 -75.230755 
L 261.149311 -74.50322 
L 262.547306 -73.937186 
L 263.945302 -69.943745 
L 265.343298 -69.910612 
L 266.741293 -70.484023 
L 268.139289 -71.050989 
L 269.537285 -70.80323 
L 270.935281 -69.759274 
L 272.333276 -70.22585 
L 273.731272 -71.469281 
L 275.129268 -71.236331 
L 276.527263 -66.566415 
L 277.925259 -66.112309 
L 279.323255 -71.418176 
L 280.72125 -66.226067 
L 282.119246 -61.760872 
L 283.517242 -68.2678 
L 284.915238 -67.320946 
L 286.313233 -67.211329 
L 287.711229 -61.688146 
L 289.109225 -62.233852 
L 290.50722 -61.83376 
L 291.905216 -62.169536 
L 293.303212 -62.805082 
L 294.701207 -62.312584 
L 296.099203 -62.027394 
L 297.497199 -66.141467 
L 298.895195 -61.433329 
L 300.29319 -60.899699 
L 301.691186 -61.213483 
L 303.089182 -60.057579 
L 304.487177 -61.834731 
L 305.885173 -60.418567 
L 307.283169 -60.264532 
L 308.681165 -59.968016 
L 310.07916 -59.779288 
L 311.477156 -60.076735 
L 312.875152 -59.737305 
L 314.273147 -59.349881 
L 315.671143 -63.275701 
L 317.069139 -62.694761 
L 318.467134 -63.174164 
L 319.86513 -58.843369 
L 321.263126 -58.350273 
L 322.661122 -61.727919 
L 324.059117 -60.91347 
L 325.457113 -61.300806 
L 326.855109 -61.447916 
L 328.253104 -61.085135 
L 329.6511 -60.36444 
L 331.049096 -58.119298 
L 332.447092 -58.610725 
L 333.845087 -60.908713 
L 335.243083 -60.68 
L 336.641079 -61.007938 
L 338.039074 -57.13069 
L 339.43707 -58.367844 
L 340.835066 -58.459731 
L 342.233061 -58.3323 
L 343.631057 -58.880826 
L 345.029053 -59.029011 
L 346.427049 -59.180696 
L 347.825044 -58.840126 
L 349.22304 -59.856078 
L 350.621036 -59.644407 
L 352.019031 -60.432879 
L 353.417027 -64.188954 
L 354.815023 -65.441006 
L 356.213019 -64.778061 
L 357.611014 -65.775754 
L 359.00901 -65.802225 
L 360.407006 -68.816199 
L 361.805001 -75.456772 
L 363.202997 -82.061994 
L 364.600993 -81.681228 
L 365.998988 -81.459819 
L 367.396984 -86.3922 
L 368.79498 -86.736996 
L 370.192976 -90.448841 
L 371.590971 -92.437651 
L 372.988967 -98.112723 
L 374.386963 -102.130987 
L 375.784958 -100.951628 
L 377.182954 -105.126337 
L 378.58095 -107.007808 
L 379.978946 -110.233317 
L 381.376941 -121.490308 
L 382.774937 -127.3538 
L 384.172933 -141.875149 
L 385.570928 -138.543972 
L 386.968924 -150.798829 
L 388.36692 -155.392221 
L 389.764915 -157.459339 
L 391.162911 -158.943947 
L 392.560907 -159.484286 
L 393.958903 -166.91281 
L 395.356898 -163.473648 
L 396.754894 -172.211429 
L 398.15289 -170.826289 
L 399.550885 -178.693913 
L 400.948881 -179.988085 
L 402.346877 -179.045238 
L 403.744872 -179.153749 
L 405.142868 -185.906052 
L 406.540864 -190.408707 
L 407.93886 -187.661497 
L 409.336855 -187.15562 
L 410.734851 -187.528668 
L 412.132847 -191.051875 
L 413.530842 -186.633238 
L 414.928838 -159.756843 
L 416.326834 -172.430321 
L 417.72483 -173.146068 
L 417.72483 -161.296894 
L 417.72483 -161.296894 
L 416.326834 -160.614448 
L 414.928838 -149.045345 
L 413.530842 -173.197106 
L 412.132847 -176.392142 
L 410.734851 -174.096379 
L 409.336855 -173.463387 
L 407.93886 -174.326883 
L 406.540864 -178.291511 
L 405.142868 -174.571711 
L 403.744872 -166.375721 
L 402.346877 -167.439631 
L 400.948881 -168.133201 
L 399.550885 -166.393994 
L 398.15289 -159.619407 
L 396.754894 -159.011965 
L 395.356898 -151.98762 
L 393.958903 -154.109752 
L 392.560907 -147.162099 
L 391.162911 -146.253747 
L 389.764915 -144.498924 
L 388.36692 -142.779372 
L 386.968924 -140.171147 
L 385.570928 -127.574221 
L 384.172933 -131.552368 
L 382.774937 -117.015453 
L 381.376941 -110.465502 
L 379.978946 -99.930847 
L 378.58095 -97.877602 
L 377.182954 -95.808476 
L 375.784958 -92.310938 
L 374.386963 -93.007476 
L 372.988967 -88.724011 
L 371.590971 -82.181304 
L 370.192976 -81.137902 
L 368.79498 -78.875015 
L 367.396984 -77.55654 
L 365.998988 -73.39923 
L 364.600993 -72.73634 
L 363.202997 -74.248122 
L 361.805001 -68.042453 
L 360.407006 -63.192541 
L 359.00901 -59.76036 
L 357.611014 -59.918033 
L 356.213019 -59.384353 
L 354.815023 -59.745435 
L 353.417027 -58.972791 
L 352.019031 -55.235089 
L 350.621036 -53.53368 
L 349.22304 -54.245011 
L 347.825044 -53.039653 
L 346.427049 -53.547287 
L 345.029053 -52.891759 
L 343.631057 -52.925398 
L 342.233061 -52.656193 
L 340.835066 -52.670186 
L 339.43707 -52.410384 
L 338.039074 -51.626176 
L 336.641079 -55.493861 
L 335.243083 -54.561524 
L 333.845087 -54.537814 
L 332.447092 -52.824666 
L 331.049096 -52.196581 
L 329.6511 -53.866754 
L 328.253104 -54.916326 
L 326.855109 -55.053785 
L 325.457113 -54.941532 
L 324.059117 -55.316932 
L 322.661122 -55.033909 
L 321.263126 -52.426978 
L 319.86513 -53.475734 
L 318.467134 -55.988577 
L 317.069139 -56.793301 
L 315.671143 -56.888103 
L 314.273147 -53.625175 
L 312.875152 -54.546958 
L 311.477156 -54.112382 
L 310.07916 -54.389059 
L 308.681165 -53.38607 
L 307.283169 -54.496897 
L 305.885173 -54.311487 
L 304.487177 -55.710435 
L 303.089182 -54.162033 
L 301.691186 -55.771205 
L 300.29319 -55.142688 
L 298.895195 -55.44937 
L 297.497199 -59.550529 
L 296.099203 -56.369709 
L 294.701207 -56.532625 
L 293.303212 -55.878887 
L 291.905216 -55.766823 
L 290.50722 -56.092396 
L 289.109225 -56.228923 
L 287.711229 -55.314154 
L 286.313233 -60.217346 
L 284.915238 -60.257135 
L 283.517242 -60.589141 
L 282.119246 -55.387557 
L 280.72125 -60.267276 
L 279.323255 -63.55444 
L 277.925259 -59.926595 
L 276.527263 -59.528514 
L 275.129268 -63.350698 
L 273.731272 -63.818039 
L 272.333276 -63.379652 
L 270.935281 -64.137088 
L 269.537285 -63.891972 
L 268.139289 -64.433396 
L 266.741293 -63.723395 
L 265.343298 -63.098137 
L 263.945302 -63.700238 
L 262.547306 -67.24248 
L 261.149311 -66.755954 
L 259.751315 -68.374801 
L 258.353319 -68.890915 
L 256.955323 -68.012711 
L 255.557328 -68.153369 
L 254.159332 -69.046073 
L 252.761336 -77.04044 
L 251.363341 -80.204523 
L 249.965345 -80.94715 
L 248.567349 -86.272338 
L 247.169354 -82.556517 
L 245.771358 -86.729499 
L 244.373362 -87.564253 
L 242.975366 -89.332098 
L 241.577371 -94.814376 
L 240.179375 -98.104394 
L 238.781379 -102.557725 
L 237.383384 -102.996572 
L 235.985388 -104.082557 
L 234.587392 -109.602905 
L 233.189396 -116.910505 
L 231.791401 -109.882316 
L 230.393405 -117.135799 
L 228.995409 -117.309986 
L 227.597414 -120.630509 
L 226.199418 -119.312709 
L 224.801422 -113.174763 
L 223.403427 -112.804539 
L 222.005431 -120.316571 
L 220.607435 -120.014414 
L 219.209439 -123.637738 
L 217.811444 -121.000679 
L 216.413448 -121.285501 
L 215.015452 -115.358255 
L 213.617457 -120.440692 
L 212.219461 -123.866332 
L 210.821465 -124.651481 
L 209.423469 -126.342829 
L 208.025474 -125.888373 
L 206.627478 -128.851321 
L 205.229482 -127.284412 
L 203.831487 -128.860629 
L 202.433491 -130.688995 
L 201.035495 -129.88528 
L 199.6375 -122.611432 
L 198.239504 -135.772102 
L 196.841508 -134.557474 
L 195.443512 -129.541847 
L 194.045517 -128.367124 
L 192.647521 -122.489499 
L 191.249525 -114.938844 
L 189.85153 -111.544573 
L 188.453534 -113.563319 
L 187.055538 -113.041114 
L 185.657543 -112.524018 
L 184.259547 -102.91379 
L 182.861551 -103.263554 
L 181.463555 -103.510528 
L 180.06556 -100.849137 
L 178.667564 -104.689558 
L 177.269568 -99.57402 
L 175.871573 -98.396821 
L 174.473577 -93.617589 
L 173.075581 -94.385641 
L 171.677585 -92.384907 
L 170.27959 -91.89907 
L 168.881594 -91.706328 
L 167.483598 -91.338773 
L 166.085603 -91.848654 
L 164.687607 -95.878277 
L 163.289611 -90.695467 
L 161.891616 -91.32146 
L 160.49362 -90.293295 
L 159.095624 -90.276298 
L 157.697628 -93.022531 
L 156.299633 -91.35169 
L 154.901637 -86.712609 
L 153.503641 -86.92091 
L 152.105646 -86.00321 
L 150.70765 -85.796077 
L 149.309654 -90.532604 
L 147.911658 -85.386694 
L 146.513663 -83.429922 
L 145.115667 -82.962909 
L 143.717671 -82.707858 
L 142.319676 -81.468417 
L 140.92168 -85.846404 
L 139.523684 -85.404851 
L 138.125689 -78.516843 
L 136.727693 -78.492821 
L 135.329697 -73.434813 
L 133.931701 -69.161725 
L 132.533706 -66.845861 
L 131.13571 -64.096417 
L 129.737714 -66.696563 
L 128.339719 -69.134576 
L 126.941723 -69.993111 
L 125.543727 -69.504332 
L 124.145731 -76.973541 
L 122.747736 -76.664213 
L 121.34974 -73.239064 
L 119.951744 -76.458864 
L 118.553749 -77.732899 
L 117.155753 -77.703885 
L 115.757757 -77.215689 
L 114.359762 -77.356099 
L 112.961766 -69.29373 
L 111.56377 -62.951168 
L 110.165774 -69.658741 
L 108.767779 -65.152713 
L 107.369783 -57.96132 
L 105.971787 -58.324888 
L 104.573792 -57.8826 
L 103.175796 -57.184966 
L 101.7778 -56.79917 
L 100.379804 -56.301046 
L 98.981809 -57.191984 
L 97.583813 -56.415387 
L 96.185817 -55.351344 
L 94.787822 -54.962105 
L 93.389826 -55.041506 
L 91.99183 -55.879471 
L 90.593835 -54.482728 
L 89.195839 -54.535117 
L 87.797843 -54.024679 
L 86.399847 -53.784118 
L 85.001852 -50.219869 
L 83.603856 -47.078036 
L 82.20586 -46.792074 
L 80.807865 -47.083077 
L 79.409869 -47.04085 
L 78.011873 -47.308045 
L 76.613878 -47.253879 
L 75.215882 -47.060366 
L 73.817886 -47.458928 
L 72.41989 -46.07553 
L 71.021895 -46.100788 
L 69.623899 -43.437872 
L 68.225903 -41.797197 
L 66.827908 -41.013215 
L 65.429912 -42.168808 
L 64.031916 -42.46556 
L 62.63392 -40.793726 
z
" style="stroke: #0db14b; stroke-opacity: 0.5; stroke-width: 0.5"/>
    </defs>
    <g clip-path="url(#p702b7dad2e)">
     <use xlink:href="#mbfa8051a69" x="0" y="198.611875" style="fill: #0db14b; fill-opacity: 0.5; stroke: #0db14b; stroke-opacity: 0.5; stroke-width: 0.5"/>
    </g>
   </g>
   <g id="line2d_23">
    <path d="M 62.63392 156.037264 
L 64.031916 154.327023 
L 65.429912 154.485852 
L 66.827908 155.771978 
L 68.225903 154.9739 
L 69.623899 152.904803 
L 71.021895 150.140533 
L 72.41989 150.588886 
L 73.817886 148.894926 
L 75.215882 149.316628 
L 78.011873 149.312706 
L 79.409869 149.607832 
L 80.807865 149.465761 
L 83.603856 149.36734 
L 85.001852 146.050589 
L 86.399847 141.906649 
L 87.797843 141.626913 
L 89.195839 140.908876 
L 90.593835 141.168984 
L 91.99183 139.999789 
L 93.389826 140.275494 
L 94.787822 140.738713 
L 96.185817 140.563874 
L 97.583813 139.7222 
L 98.981809 138.465802 
L 100.379804 139.113977 
L 101.7778 138.926544 
L 103.175796 137.972153 
L 104.573792 137.910101 
L 105.971787 137.293578 
L 107.369783 137.669523 
L 108.767779 130.681465 
L 110.165774 125.816757 
L 111.56377 132.526131 
L 112.961766 125.761233 
L 114.359762 117.446412 
L 115.757757 117.480811 
L 117.155753 117.380365 
L 118.553749 117.160559 
L 119.951744 118.256651 
L 121.34974 121.83272 
L 122.747736 117.924363 
L 124.145731 118.279483 
L 125.543727 125.744279 
L 126.941723 125.117207 
L 128.339719 126.297986 
L 129.737714 128.360233 
L 131.13571 131.74259 
L 132.533706 128.212495 
L 133.931701 126.137189 
L 135.329697 121.467735 
L 136.727693 116.376225 
L 138.125689 116.186055 
L 139.523684 108.99729 
L 140.92168 108.875646 
L 142.319676 113.204311 
L 143.717671 112.058213 
L 146.513663 111.131087 
L 147.911658 108.848387 
L 149.309654 102.910592 
L 150.70765 108.013283 
L 152.105646 107.959288 
L 154.901637 106.709957 
L 156.299633 101.548664 
L 157.697628 100.471189 
L 159.095624 103.030486 
L 160.49362 103.119428 
L 161.891616 101.654941 
L 163.289611 102.83782 
L 164.687607 97.363004 
L 166.085603 100.516123 
L 167.483598 101.584325 
L 168.881594 101.889767 
L 170.27959 100.74501 
L 171.677585 100.16747 
L 173.075581 98.458811 
L 174.473577 99.087373 
L 175.871573 93.214249 
L 177.269568 93.002551 
L 178.667564 88.264587 
L 180.06556 92.31232 
L 181.463555 89.446161 
L 182.861551 89.23447 
L 184.259547 90.040617 
L 185.657543 80.001283 
L 188.453534 78.669927 
L 189.85153 81.726054 
L 191.249525 78.355295 
L 192.647521 70.402212 
L 194.045517 63.206475 
L 195.443512 62.428451 
L 196.841508 56.905156 
L 198.239504 56.359107 
L 199.6375 69.034037 
L 201.035495 62.347417 
L 202.433491 62.046193 
L 203.831487 63.784622 
L 205.229482 65.729429 
L 206.627478 63.415924 
L 208.025474 66.117053 
L 209.423469 66.555453 
L 210.821465 67.820476 
L 212.219461 69.540656 
L 213.617457 72.639439 
L 215.015452 77.819105 
L 216.413448 72.206398 
L 217.811444 71.856467 
L 219.209439 70.164468 
L 220.607435 73.625699 
L 222.005431 72.661387 
L 223.403427 79.90767 
L 224.801422 79.631625 
L 226.199418 73.913541 
L 227.597414 72.962219 
L 228.995409 75.475928 
L 230.393405 75.837612 
L 231.791401 83.510634 
L 233.189396 75.254051 
L 234.587392 83.65774 
L 235.985388 89.109081 
L 237.383384 90.462437 
L 238.781379 90.779978 
L 240.179375 95.822759 
L 241.577371 99.068499 
L 242.975366 104.259768 
L 244.373362 106.240327 
L 245.771358 107.162227 
L 247.169354 111.164288 
L 248.567349 107.906115 
L 249.965345 113.562402 
L 251.363341 113.948869 
L 252.761336 117.842232 
L 254.159332 126.004913 
L 255.557328 126.637085 
L 256.955323 126.957356 
L 258.353319 126.3271 
L 259.751315 126.809097 
L 261.149311 127.982288 
L 262.547306 128.022042 
L 263.945302 131.789883 
L 265.343298 132.1075 
L 268.139289 130.869682 
L 270.935281 131.663694 
L 272.333276 131.809124 
L 273.731272 130.968215 
L 275.129268 131.31836 
L 276.527263 135.564411 
L 277.925259 135.592423 
L 279.323255 131.125567 
L 280.72125 135.365203 
L 282.119246 140.037661 
L 283.517242 134.183405 
L 284.915238 134.822835 
L 286.313233 134.897538 
L 287.711229 140.110725 
L 289.109225 139.380488 
L 290.50722 139.648797 
L 291.905216 139.643696 
L 293.303212 139.269891 
L 294.701207 139.18927 
L 296.099203 139.413324 
L 297.497199 135.765877 
L 298.895195 140.170526 
L 300.29319 140.590681 
L 301.691186 140.119531 
L 303.089182 141.502069 
L 304.487177 139.839292 
L 305.885173 141.246848 
L 307.283169 141.231161 
L 308.681165 141.934832 
L 310.07916 141.527701 
L 312.875152 141.469744 
L 314.273147 142.124347 
L 315.671143 138.529973 
L 317.069139 138.867844 
L 318.467134 139.030505 
L 319.86513 142.452323 
L 321.263126 143.223249 
L 322.661122 140.230961 
L 324.059117 140.496674 
L 325.457113 140.490706 
L 326.855109 140.361024 
L 328.253104 140.611145 
L 329.6511 141.496278 
L 331.049096 143.453935 
L 332.447092 142.89418 
L 333.845087 140.888612 
L 335.243083 140.991113 
L 336.641079 140.360976 
L 338.039074 144.233442 
L 339.43707 143.222761 
L 340.835066 143.046917 
L 342.233061 143.117628 
L 343.631057 142.708763 
L 345.029053 142.65149 
L 346.427049 142.247884 
L 347.825044 142.671986 
L 349.22304 141.56133 
L 350.621036 142.022832 
L 352.019031 140.777891 
L 353.417027 137.031002 
L 354.815023 136.018654 
L 356.213019 136.530668 
L 357.611014 135.764981 
L 359.00901 135.830582 
L 360.407006 132.607505 
L 361.805001 126.862263 
L 363.202997 120.456817 
L 364.600993 121.403091 
L 365.998988 121.18235 
L 367.396984 116.637505 
L 368.79498 115.805869 
L 370.192976 112.818504 
L 371.590971 111.302398 
L 372.988967 105.193508 
L 374.386963 101.042644 
L 375.784958 101.980592 
L 377.182954 98.144468 
L 378.58095 96.16917 
L 379.978946 93.529793 
L 381.376941 82.63397 
L 382.774937 76.427249 
L 384.172933 61.898116 
L 385.570928 65.552778 
L 386.968924 53.126887 
L 388.36692 49.526079 
L 389.764915 47.632744 
L 391.162911 46.013028 
L 392.560907 45.288682 
L 393.958903 38.100594 
L 395.356898 40.881241 
L 396.754894 33.000178 
L 398.15289 33.389027 
L 399.550885 26.067922 
L 400.948881 24.551232 
L 402.346877 25.36944 
L 403.744872 25.84714 
L 405.142868 18.372993 
L 406.540864 14.261766 
L 407.93886 17.617685 
L 409.336855 18.302372 
L 410.734851 17.799352 
L 412.132847 14.889867 
L 413.530842 18.696703 
L 414.928838 44.210781 
L 416.326834 32.08949 
L 417.72483 31.390394 
L 417.72483 31.390394 
" clip-path="url(#p702b7dad2e)" style="fill: none; stroke: #0db14b; stroke-width: 3; stroke-linecap: square"/>
    <defs>
     <path id="mcfd4c77364" d="M 0 1.5 
C 0.397805 1.5 0.77937 1.341951 1.06066 1.06066 
C 1.341951 0.77937 1.5 0.397805 1.5 0 
C 1.5 -0.397805 1.341951 -0.77937 1.06066 -1.06066 
C 0.77937 -1.341951 0.397805 -1.5 0 -1.5 
C -0.397805 -1.5 -0.77937 -1.341951 -1.06066 -1.06066 
C -1.341951 -0.77937 -1.5 -0.397805 -1.5 0 
C -1.5 0.397805 -1.341951 0.77937 -1.06066 1.06066 
C -0.77937 1.341951 -0.397805 1.5 0 1.5 
z
" style="stroke: #0db14b"/>
    </defs>
    <g clip-path="url(#p702b7dad2e)">
     <use xlink:href="#mcfd4c77364" x="62.63392" y="156.037264" style="fill: #0db14b; stroke: #0db14b"/>
     <use xlink:href="#mcfd4c77364" x="64.031916" y="154.327023" style="fill: #0db14b; stroke: #0db14b"/>
     <use xlink:href="#mcfd4c77364" x="65.429912" y="154.485852" style="fill: #0db14b; stroke: #0db14b"/>
     <use xlink:href="#mcfd4c77364" x="66.827908" y="155.771978" style="fill: #0db14b; stroke: #0db14b"/>
     <use xlink:href="#mcfd4c77364" x="68.225903" y="154.9739" style="fill: #0db14b; stroke: #0db14b"/>
     <use xlink:href="#mcfd4c77364" x="69.623899" y="152.904803" style="fill: #0db14b; stroke: #0db14b"/>
     <use xlink:href="#mcfd4c77364" x="71.021895" y="150.140533" style="fill: #0db14b; stroke: #0db14b"/>
     <use xlink:href="#mcfd4c77364" x="72.41989" y="150.588886" style="fill: #0db14b; stroke: #0db14b"/>
     <use xlink:href="#mcfd4c77364" x="73.817886" y="148.894926" style="fill: #0db14b; stroke: #0db14b"/>
     <use xlink:href="#mcfd4c77364" x="75.215882" y="149.316628" style="fill: #0db14b; stroke: #0db14b"/>
     <use xlink:href="#mcfd4c77364" x="76.613878" y="149.25951" style="fill: #0db14b; stroke: #0db14b"/>
     <use xlink:href="#mcfd4c77364" x="78.011873" y="149.312706" style="fill: #0db14b; stroke: #0db14b"/>
     <use xlink:href="#mcfd4c77364" x="79.409869" y="149.607832" style="fill: #0db14b; stroke: #0db14b"/>
     <use xlink:href="#mcfd4c77364" x="80.807865" y="149.465761" style="fill: #0db14b; stroke: #0db14b"/>
     <use xlink:href="#mcfd4c77364" x="82.20586" y="149.455479" style="fill: #0db14b; stroke: #0db14b"/>
     <use xlink:href="#mcfd4c77364" x="83.603856" y="149.36734" style="fill: #0db14b; stroke: #0db14b"/>
     <use xlink:href="#mcfd4c77364" x="85.001852" y="146.050589" style="fill: #0db14b; stroke: #0db14b"/>
     <use xlink:href="#mcfd4c77364" x="86.399847" y="141.906649" style="fill: #0db14b; stroke: #0db14b"/>
     <use xlink:href="#mcfd4c77364" x="87.797843" y="141.626913" style="fill: #0db14b; stroke: #0db14b"/>
     <use xlink:href="#mcfd4c77364" x="89.195839" y="140.908876" style="fill: #0db14b; stroke: #0db14b"/>
     <use xlink:href="#mcfd4c77364" x="90.593835" y="141.168984" style="fill: #0db14b; stroke: #0db14b"/>
     <use xlink:href="#mcfd4c77364" x="91.99183" y="139.999789" style="fill: #0db14b; stroke: #0db14b"/>
     <use xlink:href="#mcfd4c77364" x="93.389826" y="140.275494" style="fill: #0db14b; stroke: #0db14b"/>
     <use xlink:href="#mcfd4c77364" x="94.787822" y="140.738713" style="fill: #0db14b; stroke: #0db14b"/>
     <use xlink:href="#mcfd4c77364" x="96.185817" y="140.563874" style="fill: #0db14b; stroke: #0db14b"/>
     <use xlink:href="#mcfd4c77364" x="97.583813" y="139.7222" style="fill: #0db14b; stroke: #0db14b"/>
     <use xlink:href="#mcfd4c77364" x="98.981809" y="138.465802" style="fill: #0db14b; stroke: #0db14b"/>
     <use xlink:href="#mcfd4c77364" x="100.379804" y="139.113977" style="fill: #0db14b; stroke: #0db14b"/>
     <use xlink:href="#mcfd4c77364" x="101.7778" y="138.926544" style="fill: #0db14b; stroke: #0db14b"/>
     <use xlink:href="#mcfd4c77364" x="103.175796" y="137.972153" style="fill: #0db14b; stroke: #0db14b"/>
     <use xlink:href="#mcfd4c77364" x="104.573792" y="137.910101" style="fill: #0db14b; stroke: #0db14b"/>
     <use xlink:href="#mcfd4c77364" x="105.971787" y="137.293578" style="fill: #0db14b; stroke: #0db14b"/>
     <use xlink:href="#mcfd4c77364" x="107.369783" y="137.669523" style="fill: #0db14b; stroke: #0db14b"/>
     <use xlink:href="#mcfd4c77364" x="108.767779" y="130.681465" style="fill: #0db14b; stroke: #0db14b"/>
     <use xlink:href="#mcfd4c77364" x="110.165774" y="125.816757" style="fill: #0db14b; stroke: #0db14b"/>
     <use xlink:href="#mcfd4c77364" x="111.56377" y="132.526131" style="fill: #0db14b; stroke: #0db14b"/>
     <use xlink:href="#mcfd4c77364" x="112.961766" y="125.761233" style="fill: #0db14b; stroke: #0db14b"/>
     <use xlink:href="#mcfd4c77364" x="114.359762" y="117.446412" style="fill: #0db14b; stroke: #0db14b"/>
     <use xlink:href="#mcfd4c77364" x="115.757757" y="117.480811" style="fill: #0db14b; stroke: #0db14b"/>
     <use xlink:href="#mcfd4c77364" x="117.155753" y="117.380365" style="fill: #0db14b; stroke: #0db14b"/>
     <use xlink:href="#mcfd4c77364" x="118.553749" y="117.160559" style="fill: #0db14b; stroke: #0db14b"/>
     <use xlink:href="#mcfd4c77364" x="119.951744" y="118.256651" style="fill: #0db14b; stroke: #0db14b"/>
     <use xlink:href="#mcfd4c77364" x="121.34974" y="121.83272" style="fill: #0db14b; stroke: #0db14b"/>
     <use xlink:href="#mcfd4c77364" x="122.747736" y="117.924363" style="fill: #0db14b; stroke: #0db14b"/>
     <use xlink:href="#mcfd4c77364" x="124.145731" y="118.279483" style="fill: #0db14b; stroke: #0db14b"/>
     <use xlink:href="#mcfd4c77364" x="125.543727" y="125.744279" style="fill: #0db14b; stroke: #0db14b"/>
     <use xlink:href="#mcfd4c77364" x="126.941723" y="125.117207" style="fill: #0db14b; stroke: #0db14b"/>
     <use xlink:href="#mcfd4c77364" x="128.339719" y="126.297986" style="fill: #0db14b; stroke: #0db14b"/>
     <use xlink:href="#mcfd4c77364" x="129.737714" y="128.360233" style="fill: #0db14b; stroke: #0db14b"/>
     <use xlink:href="#mcfd4c77364" x="131.13571" y="131.74259" style="fill: #0db14b; stroke: #0db14b"/>
     <use xlink:href="#mcfd4c77364" x="132.533706" y="128.212495" style="fill: #0db14b; stroke: #0db14b"/>
     <use xlink:href="#mcfd4c77364" x="133.931701" y="126.137189" style="fill: #0db14b; stroke: #0db14b"/>
     <use xlink:href="#mcfd4c77364" x="135.329697" y="121.467735" style="fill: #0db14b; stroke: #0db14b"/>
     <use xlink:href="#mcfd4c77364" x="136.727693" y="116.376225" style="fill: #0db14b; stroke: #0db14b"/>
     <use xlink:href="#mcfd4c77364" x="138.125689" y="116.186055" style="fill: #0db14b; stroke: #0db14b"/>
     <use xlink:href="#mcfd4c77364" x="139.523684" y="108.99729" style="fill: #0db14b; stroke: #0db14b"/>
     <use xlink:href="#mcfd4c77364" x="140.92168" y="108.875646" style="fill: #0db14b; stroke: #0db14b"/>
     <use xlink:href="#mcfd4c77364" x="142.319676" y="113.204311" style="fill: #0db14b; stroke: #0db14b"/>
     <use xlink:href="#mcfd4c77364" x="143.717671" y="112.058213" style="fill: #0db14b; stroke: #0db14b"/>
     <use xlink:href="#mcfd4c77364" x="145.115667" y="111.591738" style="fill: #0db14b; stroke: #0db14b"/>
     <use xlink:href="#mcfd4c77364" x="146.513663" y="111.131087" style="fill: #0db14b; stroke: #0db14b"/>
     <use xlink:href="#mcfd4c77364" x="147.911658" y="108.848387" style="fill: #0db14b; stroke: #0db14b"/>
     <use xlink:href="#mcfd4c77364" x="149.309654" y="102.910592" style="fill: #0db14b; stroke: #0db14b"/>
     <use xlink:href="#mcfd4c77364" x="150.70765" y="108.013283" style="fill: #0db14b; stroke: #0db14b"/>
     <use xlink:href="#mcfd4c77364" x="152.105646" y="107.959288" style="fill: #0db14b; stroke: #0db14b"/>
     <use xlink:href="#mcfd4c77364" x="153.503641" y="107.275903" style="fill: #0db14b; stroke: #0db14b"/>
     <use xlink:href="#mcfd4c77364" x="154.901637" y="106.709957" style="fill: #0db14b; stroke: #0db14b"/>
     <use xlink:href="#mcfd4c77364" x="156.299633" y="101.548664" style="fill: #0db14b; stroke: #0db14b"/>
     <use xlink:href="#mcfd4c77364" x="157.697628" y="100.471189" style="fill: #0db14b; stroke: #0db14b"/>
     <use xlink:href="#mcfd4c77364" x="159.095624" y="103.030486" style="fill: #0db14b; stroke: #0db14b"/>
     <use xlink:href="#mcfd4c77364" x="160.49362" y="103.119428" style="fill: #0db14b; stroke: #0db14b"/>
     <use xlink:href="#mcfd4c77364" x="161.891616" y="101.654941" style="fill: #0db14b; stroke: #0db14b"/>
     <use xlink:href="#mcfd4c77364" x="163.289611" y="102.83782" style="fill: #0db14b; stroke: #0db14b"/>
     <use xlink:href="#mcfd4c77364" x="164.687607" y="97.363004" style="fill: #0db14b; stroke: #0db14b"/>
     <use xlink:href="#mcfd4c77364" x="166.085603" y="100.516123" style="fill: #0db14b; stroke: #0db14b"/>
     <use xlink:href="#mcfd4c77364" x="167.483598" y="101.584325" style="fill: #0db14b; stroke: #0db14b"/>
     <use xlink:href="#mcfd4c77364" x="168.881594" y="101.889767" style="fill: #0db14b; stroke: #0db14b"/>
     <use xlink:href="#mcfd4c77364" x="170.27959" y="100.74501" style="fill: #0db14b; stroke: #0db14b"/>
     <use xlink:href="#mcfd4c77364" x="171.677585" y="100.16747" style="fill: #0db14b; stroke: #0db14b"/>
     <use xlink:href="#mcfd4c77364" x="173.075581" y="98.458811" style="fill: #0db14b; stroke: #0db14b"/>
     <use xlink:href="#mcfd4c77364" x="174.473577" y="99.087373" style="fill: #0db14b; stroke: #0db14b"/>
     <use xlink:href="#mcfd4c77364" x="175.871573" y="93.214249" style="fill: #0db14b; stroke: #0db14b"/>
     <use xlink:href="#mcfd4c77364" x="177.269568" y="93.002551" style="fill: #0db14b; stroke: #0db14b"/>
     <use xlink:href="#mcfd4c77364" x="178.667564" y="88.264587" style="fill: #0db14b; stroke: #0db14b"/>
     <use xlink:href="#mcfd4c77364" x="180.06556" y="92.31232" style="fill: #0db14b; stroke: #0db14b"/>
     <use xlink:href="#mcfd4c77364" x="181.463555" y="89.446161" style="fill: #0db14b; stroke: #0db14b"/>
     <use xlink:href="#mcfd4c77364" x="182.861551" y="89.23447" style="fill: #0db14b; stroke: #0db14b"/>
     <use xlink:href="#mcfd4c77364" x="184.259547" y="90.040617" style="fill: #0db14b; stroke: #0db14b"/>
     <use xlink:href="#mcfd4c77364" x="185.657543" y="80.001283" style="fill: #0db14b; stroke: #0db14b"/>
     <use xlink:href="#mcfd4c77364" x="187.055538" y="79.366199" style="fill: #0db14b; stroke: #0db14b"/>
     <use xlink:href="#mcfd4c77364" x="188.453534" y="78.669927" style="fill: #0db14b; stroke: #0db14b"/>
     <use xlink:href="#mcfd4c77364" x="189.85153" y="81.726054" style="fill: #0db14b; stroke: #0db14b"/>
     <use xlink:href="#mcfd4c77364" x="191.249525" y="78.355295" style="fill: #0db14b; stroke: #0db14b"/>
     <use xlink:href="#mcfd4c77364" x="192.647521" y="70.402212" style="fill: #0db14b; stroke: #0db14b"/>
     <use xlink:href="#mcfd4c77364" x="194.045517" y="63.206475" style="fill: #0db14b; stroke: #0db14b"/>
     <use xlink:href="#mcfd4c77364" x="195.443512" y="62.428451" style="fill: #0db14b; stroke: #0db14b"/>
     <use xlink:href="#mcfd4c77364" x="196.841508" y="56.905156" style="fill: #0db14b; stroke: #0db14b"/>
     <use xlink:href="#mcfd4c77364" x="198.239504" y="56.359107" style="fill: #0db14b; stroke: #0db14b"/>
     <use xlink:href="#mcfd4c77364" x="199.6375" y="69.034037" style="fill: #0db14b; stroke: #0db14b"/>
     <use xlink:href="#mcfd4c77364" x="201.035495" y="62.347417" style="fill: #0db14b; stroke: #0db14b"/>
     <use xlink:href="#mcfd4c77364" x="202.433491" y="62.046193" style="fill: #0db14b; stroke: #0db14b"/>
     <use xlink:href="#mcfd4c77364" x="203.831487" y="63.784622" style="fill: #0db14b; stroke: #0db14b"/>
     <use xlink:href="#mcfd4c77364" x="205.229482" y="65.729429" style="fill: #0db14b; stroke: #0db14b"/>
     <use xlink:href="#mcfd4c77364" x="206.627478" y="63.415924" style="fill: #0db14b; stroke: #0db14b"/>
     <use xlink:href="#mcfd4c77364" x="208.025474" y="66.117053" style="fill: #0db14b; stroke: #0db14b"/>
     <use xlink:href="#mcfd4c77364" x="209.423469" y="66.555453" style="fill: #0db14b; stroke: #0db14b"/>
     <use xlink:href="#mcfd4c77364" x="210.821465" y="67.820476" style="fill: #0db14b; stroke: #0db14b"/>
     <use xlink:href="#mcfd4c77364" x="212.219461" y="69.540656" style="fill: #0db14b; stroke: #0db14b"/>
     <use xlink:href="#mcfd4c77364" x="213.617457" y="72.639439" style="fill: #0db14b; stroke: #0db14b"/>
     <use xlink:href="#mcfd4c77364" x="215.015452" y="77.819105" style="fill: #0db14b; stroke: #0db14b"/>
     <use xlink:href="#mcfd4c77364" x="216.413448" y="72.206398" style="fill: #0db14b; stroke: #0db14b"/>
     <use xlink:href="#mcfd4c77364" x="217.811444" y="71.856467" style="fill: #0db14b; stroke: #0db14b"/>
     <use xlink:href="#mcfd4c77364" x="219.209439" y="70.164468" style="fill: #0db14b; stroke: #0db14b"/>
     <use xlink:href="#mcfd4c77364" x="220.607435" y="73.625699" style="fill: #0db14b; stroke: #0db14b"/>
     <use xlink:href="#mcfd4c77364" x="222.005431" y="72.661387" style="fill: #0db14b; stroke: #0db14b"/>
     <use xlink:href="#mcfd4c77364" x="223.403427" y="79.90767" style="fill: #0db14b; stroke: #0db14b"/>
     <use xlink:href="#mcfd4c77364" x="224.801422" y="79.631625" style="fill: #0db14b; stroke: #0db14b"/>
     <use xlink:href="#mcfd4c77364" x="226.199418" y="73.913541" style="fill: #0db14b; stroke: #0db14b"/>
     <use xlink:href="#mcfd4c77364" x="227.597414" y="72.962219" style="fill: #0db14b; stroke: #0db14b"/>
     <use xlink:href="#mcfd4c77364" x="228.995409" y="75.475928" style="fill: #0db14b; stroke: #0db14b"/>
     <use xlink:href="#mcfd4c77364" x="230.393405" y="75.837612" style="fill: #0db14b; stroke: #0db14b"/>
     <use xlink:href="#mcfd4c77364" x="231.791401" y="83.510634" style="fill: #0db14b; stroke: #0db14b"/>
     <use xlink:href="#mcfd4c77364" x="233.189396" y="75.254051" style="fill: #0db14b; stroke: #0db14b"/>
     <use xlink:href="#mcfd4c77364" x="234.587392" y="83.65774" style="fill: #0db14b; stroke: #0db14b"/>
     <use xlink:href="#mcfd4c77364" x="235.985388" y="89.109081" style="fill: #0db14b; stroke: #0db14b"/>
     <use xlink:href="#mcfd4c77364" x="237.383384" y="90.462437" style="fill: #0db14b; stroke: #0db14b"/>
     <use xlink:href="#mcfd4c77364" x="238.781379" y="90.779978" style="fill: #0db14b; stroke: #0db14b"/>
     <use xlink:href="#mcfd4c77364" x="240.179375" y="95.822759" style="fill: #0db14b; stroke: #0db14b"/>
     <use xlink:href="#mcfd4c77364" x="241.577371" y="99.068499" style="fill: #0db14b; stroke: #0db14b"/>
     <use xlink:href="#mcfd4c77364" x="242.975366" y="104.259768" style="fill: #0db14b; stroke: #0db14b"/>
     <use xlink:href="#mcfd4c77364" x="244.373362" y="106.240327" style="fill: #0db14b; stroke: #0db14b"/>
     <use xlink:href="#mcfd4c77364" x="245.771358" y="107.162227" style="fill: #0db14b; stroke: #0db14b"/>
     <use xlink:href="#mcfd4c77364" x="247.169354" y="111.164288" style="fill: #0db14b; stroke: #0db14b"/>
     <use xlink:href="#mcfd4c77364" x="248.567349" y="107.906115" style="fill: #0db14b; stroke: #0db14b"/>
     <use xlink:href="#mcfd4c77364" x="249.965345" y="113.562402" style="fill: #0db14b; stroke: #0db14b"/>
     <use xlink:href="#mcfd4c77364" x="251.363341" y="113.948869" style="fill: #0db14b; stroke: #0db14b"/>
     <use xlink:href="#mcfd4c77364" x="252.761336" y="117.842232" style="fill: #0db14b; stroke: #0db14b"/>
     <use xlink:href="#mcfd4c77364" x="254.159332" y="126.004913" style="fill: #0db14b; stroke: #0db14b"/>
     <use xlink:href="#mcfd4c77364" x="255.557328" y="126.637085" style="fill: #0db14b; stroke: #0db14b"/>
     <use xlink:href="#mcfd4c77364" x="256.955323" y="126.957356" style="fill: #0db14b; stroke: #0db14b"/>
     <use xlink:href="#mcfd4c77364" x="258.353319" y="126.3271" style="fill: #0db14b; stroke: #0db14b"/>
     <use xlink:href="#mcfd4c77364" x="259.751315" y="126.809097" style="fill: #0db14b; stroke: #0db14b"/>
     <use xlink:href="#mcfd4c77364" x="261.149311" y="127.982288" style="fill: #0db14b; stroke: #0db14b"/>
     <use xlink:href="#mcfd4c77364" x="262.547306" y="128.022042" style="fill: #0db14b; stroke: #0db14b"/>
     <use xlink:href="#mcfd4c77364" x="263.945302" y="131.789883" style="fill: #0db14b; stroke: #0db14b"/>
     <use xlink:href="#mcfd4c77364" x="265.343298" y="132.1075" style="fill: #0db14b; stroke: #0db14b"/>
     <use xlink:href="#mcfd4c77364" x="266.741293" y="131.508166" style="fill: #0db14b; stroke: #0db14b"/>
     <use xlink:href="#mcfd4c77364" x="268.139289" y="130.869682" style="fill: #0db14b; stroke: #0db14b"/>
     <use xlink:href="#mcfd4c77364" x="269.537285" y="131.264274" style="fill: #0db14b; stroke: #0db14b"/>
     <use xlink:href="#mcfd4c77364" x="270.935281" y="131.663694" style="fill: #0db14b; stroke: #0db14b"/>
     <use xlink:href="#mcfd4c77364" x="272.333276" y="131.809124" style="fill: #0db14b; stroke: #0db14b"/>
     <use xlink:href="#mcfd4c77364" x="273.731272" y="130.968215" style="fill: #0db14b; stroke: #0db14b"/>
     <use xlink:href="#mcfd4c77364" x="275.129268" y="131.31836" style="fill: #0db14b; stroke: #0db14b"/>
     <use xlink:href="#mcfd4c77364" x="276.527263" y="135.564411" style="fill: #0db14b; stroke: #0db14b"/>
     <use xlink:href="#mcfd4c77364" x="277.925259" y="135.592423" style="fill: #0db14b; stroke: #0db14b"/>
     <use xlink:href="#mcfd4c77364" x="279.323255" y="131.125567" style="fill: #0db14b; stroke: #0db14b"/>
     <use xlink:href="#mcfd4c77364" x="280.72125" y="135.365203" style="fill: #0db14b; stroke: #0db14b"/>
     <use xlink:href="#mcfd4c77364" x="282.119246" y="140.037661" style="fill: #0db14b; stroke: #0db14b"/>
     <use xlink:href="#mcfd4c77364" x="283.517242" y="134.183405" style="fill: #0db14b; stroke: #0db14b"/>
     <use xlink:href="#mcfd4c77364" x="284.915238" y="134.822835" style="fill: #0db14b; stroke: #0db14b"/>
     <use xlink:href="#mcfd4c77364" x="286.313233" y="134.897538" style="fill: #0db14b; stroke: #0db14b"/>
     <use xlink:href="#mcfd4c77364" x="287.711229" y="140.110725" style="fill: #0db14b; stroke: #0db14b"/>
     <use xlink:href="#mcfd4c77364" x="289.109225" y="139.380488" style="fill: #0db14b; stroke: #0db14b"/>
     <use xlink:href="#mcfd4c77364" x="290.50722" y="139.648797" style="fill: #0db14b; stroke: #0db14b"/>
     <use xlink:href="#mcfd4c77364" x="291.905216" y="139.643696" style="fill: #0db14b; stroke: #0db14b"/>
     <use xlink:href="#mcfd4c77364" x="293.303212" y="139.269891" style="fill: #0db14b; stroke: #0db14b"/>
     <use xlink:href="#mcfd4c77364" x="294.701207" y="139.18927" style="fill: #0db14b; stroke: #0db14b"/>
     <use xlink:href="#mcfd4c77364" x="296.099203" y="139.413324" style="fill: #0db14b; stroke: #0db14b"/>
     <use xlink:href="#mcfd4c77364" x="297.497199" y="135.765877" style="fill: #0db14b; stroke: #0db14b"/>
     <use xlink:href="#mcfd4c77364" x="298.895195" y="140.170526" style="fill: #0db14b; stroke: #0db14b"/>
     <use xlink:href="#mcfd4c77364" x="300.29319" y="140.590681" style="fill: #0db14b; stroke: #0db14b"/>
     <use xlink:href="#mcfd4c77364" x="301.691186" y="140.119531" style="fill: #0db14b; stroke: #0db14b"/>
     <use xlink:href="#mcfd4c77364" x="303.089182" y="141.502069" style="fill: #0db14b; stroke: #0db14b"/>
     <use xlink:href="#mcfd4c77364" x="304.487177" y="139.839292" style="fill: #0db14b; stroke: #0db14b"/>
     <use xlink:href="#mcfd4c77364" x="305.885173" y="141.246848" style="fill: #0db14b; stroke: #0db14b"/>
     <use xlink:href="#mcfd4c77364" x="307.283169" y="141.231161" style="fill: #0db14b; stroke: #0db14b"/>
     <use xlink:href="#mcfd4c77364" x="308.681165" y="141.934832" style="fill: #0db14b; stroke: #0db14b"/>
     <use xlink:href="#mcfd4c77364" x="310.07916" y="141.527701" style="fill: #0db14b; stroke: #0db14b"/>
     <use xlink:href="#mcfd4c77364" x="311.477156" y="141.517316" style="fill: #0db14b; stroke: #0db14b"/>
     <use xlink:href="#mcfd4c77364" x="312.875152" y="141.469744" style="fill: #0db14b; stroke: #0db14b"/>
     <use xlink:href="#mcfd4c77364" x="314.273147" y="142.124347" style="fill: #0db14b; stroke: #0db14b"/>
     <use xlink:href="#mcfd4c77364" x="315.671143" y="138.529973" style="fill: #0db14b; stroke: #0db14b"/>
     <use xlink:href="#mcfd4c77364" x="317.069139" y="138.867844" style="fill: #0db14b; stroke: #0db14b"/>
     <use xlink:href="#mcfd4c77364" x="318.467134" y="139.030505" style="fill: #0db14b; stroke: #0db14b"/>
     <use xlink:href="#mcfd4c77364" x="319.86513" y="142.452323" style="fill: #0db14b; stroke: #0db14b"/>
     <use xlink:href="#mcfd4c77364" x="321.263126" y="143.223249" style="fill: #0db14b; stroke: #0db14b"/>
     <use xlink:href="#mcfd4c77364" x="322.661122" y="140.230961" style="fill: #0db14b; stroke: #0db14b"/>
     <use xlink:href="#mcfd4c77364" x="324.059117" y="140.496674" style="fill: #0db14b; stroke: #0db14b"/>
     <use xlink:href="#mcfd4c77364" x="325.457113" y="140.490706" style="fill: #0db14b; stroke: #0db14b"/>
     <use xlink:href="#mcfd4c77364" x="326.855109" y="140.361024" style="fill: #0db14b; stroke: #0db14b"/>
     <use xlink:href="#mcfd4c77364" x="328.253104" y="140.611145" style="fill: #0db14b; stroke: #0db14b"/>
     <use xlink:href="#mcfd4c77364" x="329.6511" y="141.496278" style="fill: #0db14b; stroke: #0db14b"/>
     <use xlink:href="#mcfd4c77364" x="331.049096" y="143.453935" style="fill: #0db14b; stroke: #0db14b"/>
     <use xlink:href="#mcfd4c77364" x="332.447092" y="142.89418" style="fill: #0db14b; stroke: #0db14b"/>
     <use xlink:href="#mcfd4c77364" x="333.845087" y="140.888612" style="fill: #0db14b; stroke: #0db14b"/>
     <use xlink:href="#mcfd4c77364" x="335.243083" y="140.991113" style="fill: #0db14b; stroke: #0db14b"/>
     <use xlink:href="#mcfd4c77364" x="336.641079" y="140.360976" style="fill: #0db14b; stroke: #0db14b"/>
     <use xlink:href="#mcfd4c77364" x="338.039074" y="144.233442" style="fill: #0db14b; stroke: #0db14b"/>
     <use xlink:href="#mcfd4c77364" x="339.43707" y="143.222761" style="fill: #0db14b; stroke: #0db14b"/>
     <use xlink:href="#mcfd4c77364" x="340.835066" y="143.046917" style="fill: #0db14b; stroke: #0db14b"/>
     <use xlink:href="#mcfd4c77364" x="342.233061" y="143.117628" style="fill: #0db14b; stroke: #0db14b"/>
     <use xlink:href="#mcfd4c77364" x="343.631057" y="142.708763" style="fill: #0db14b; stroke: #0db14b"/>
     <use xlink:href="#mcfd4c77364" x="345.029053" y="142.65149" style="fill: #0db14b; stroke: #0db14b"/>
     <use xlink:href="#mcfd4c77364" x="346.427049" y="142.247884" style="fill: #0db14b; stroke: #0db14b"/>
     <use xlink:href="#mcfd4c77364" x="347.825044" y="142.671986" style="fill: #0db14b; stroke: #0db14b"/>
     <use xlink:href="#mcfd4c77364" x="349.22304" y="141.56133" style="fill: #0db14b; stroke: #0db14b"/>
     <use xlink:href="#mcfd4c77364" x="350.621036" y="142.022832" style="fill: #0db14b; stroke: #0db14b"/>
     <use xlink:href="#mcfd4c77364" x="352.019031" y="140.777891" style="fill: #0db14b; stroke: #0db14b"/>
     <use xlink:href="#mcfd4c77364" x="353.417027" y="137.031002" style="fill: #0db14b; stroke: #0db14b"/>
     <use xlink:href="#mcfd4c77364" x="354.815023" y="136.018654" style="fill: #0db14b; stroke: #0db14b"/>
     <use xlink:href="#mcfd4c77364" x="356.213019" y="136.530668" style="fill: #0db14b; stroke: #0db14b"/>
     <use xlink:href="#mcfd4c77364" x="357.611014" y="135.764981" style="fill: #0db14b; stroke: #0db14b"/>
     <use xlink:href="#mcfd4c77364" x="359.00901" y="135.830582" style="fill: #0db14b; stroke: #0db14b"/>
     <use xlink:href="#mcfd4c77364" x="360.407006" y="132.607505" style="fill: #0db14b; stroke: #0db14b"/>
     <use xlink:href="#mcfd4c77364" x="361.805001" y="126.862263" style="fill: #0db14b; stroke: #0db14b"/>
     <use xlink:href="#mcfd4c77364" x="363.202997" y="120.456817" style="fill: #0db14b; stroke: #0db14b"/>
     <use xlink:href="#mcfd4c77364" x="364.600993" y="121.403091" style="fill: #0db14b; stroke: #0db14b"/>
     <use xlink:href="#mcfd4c77364" x="365.998988" y="121.18235" style="fill: #0db14b; stroke: #0db14b"/>
     <use xlink:href="#mcfd4c77364" x="367.396984" y="116.637505" style="fill: #0db14b; stroke: #0db14b"/>
     <use xlink:href="#mcfd4c77364" x="368.79498" y="115.805869" style="fill: #0db14b; stroke: #0db14b"/>
     <use xlink:href="#mcfd4c77364" x="370.192976" y="112.818504" style="fill: #0db14b; stroke: #0db14b"/>
     <use xlink:href="#mcfd4c77364" x="371.590971" y="111.302398" style="fill: #0db14b; stroke: #0db14b"/>
     <use xlink:href="#mcfd4c77364" x="372.988967" y="105.193508" style="fill: #0db14b; stroke: #0db14b"/>
     <use xlink:href="#mcfd4c77364" x="374.386963" y="101.042644" style="fill: #0db14b; stroke: #0db14b"/>
     <use xlink:href="#mcfd4c77364" x="375.784958" y="101.980592" style="fill: #0db14b; stroke: #0db14b"/>
     <use xlink:href="#mcfd4c77364" x="377.182954" y="98.144468" style="fill: #0db14b; stroke: #0db14b"/>
     <use xlink:href="#mcfd4c77364" x="378.58095" y="96.16917" style="fill: #0db14b; stroke: #0db14b"/>
     <use xlink:href="#mcfd4c77364" x="379.978946" y="93.529793" style="fill: #0db14b; stroke: #0db14b"/>
     <use xlink:href="#mcfd4c77364" x="381.376941" y="82.63397" style="fill: #0db14b; stroke: #0db14b"/>
     <use xlink:href="#mcfd4c77364" x="382.774937" y="76.427249" style="fill: #0db14b; stroke: #0db14b"/>
     <use xlink:href="#mcfd4c77364" x="384.172933" y="61.898116" style="fill: #0db14b; stroke: #0db14b"/>
     <use xlink:href="#mcfd4c77364" x="385.570928" y="65.552778" style="fill: #0db14b; stroke: #0db14b"/>
     <use xlink:href="#mcfd4c77364" x="386.968924" y="53.126887" style="fill: #0db14b; stroke: #0db14b"/>
     <use xlink:href="#mcfd4c77364" x="388.36692" y="49.526079" style="fill: #0db14b; stroke: #0db14b"/>
     <use xlink:href="#mcfd4c77364" x="389.764915" y="47.632744" style="fill: #0db14b; stroke: #0db14b"/>
     <use xlink:href="#mcfd4c77364" x="391.162911" y="46.013028" style="fill: #0db14b; stroke: #0db14b"/>
     <use xlink:href="#mcfd4c77364" x="392.560907" y="45.288682" style="fill: #0db14b; stroke: #0db14b"/>
     <use xlink:href="#mcfd4c77364" x="393.958903" y="38.100594" style="fill: #0db14b; stroke: #0db14b"/>
     <use xlink:href="#mcfd4c77364" x="395.356898" y="40.881241" style="fill: #0db14b; stroke: #0db14b"/>
     <use xlink:href="#mcfd4c77364" x="396.754894" y="33.000178" style="fill: #0db14b; stroke: #0db14b"/>
     <use xlink:href="#mcfd4c77364" x="398.15289" y="33.389027" style="fill: #0db14b; stroke: #0db14b"/>
     <use xlink:href="#mcfd4c77364" x="399.550885" y="26.067922" style="fill: #0db14b; stroke: #0db14b"/>
     <use xlink:href="#mcfd4c77364" x="400.948881" y="24.551232" style="fill: #0db14b; stroke: #0db14b"/>
     <use xlink:href="#mcfd4c77364" x="402.346877" y="25.36944" style="fill: #0db14b; stroke: #0db14b"/>
     <use xlink:href="#mcfd4c77364" x="403.744872" y="25.84714" style="fill: #0db14b; stroke: #0db14b"/>
     <use xlink:href="#mcfd4c77364" x="405.142868" y="18.372993" style="fill: #0db14b; stroke: #0db14b"/>
     <use xlink:href="#mcfd4c77364" x="406.540864" y="14.261766" style="fill: #0db14b; stroke: #0db14b"/>
     <use xlink:href="#mcfd4c77364" x="407.93886" y="17.617685" style="fill: #0db14b; stroke: #0db14b"/>
     <use xlink:href="#mcfd4c77364" x="409.336855" y="18.302372" style="fill: #0db14b; stroke: #0db14b"/>
     <use xlink:href="#mcfd4c77364" x="410.734851" y="17.799352" style="fill: #0db14b; stroke: #0db14b"/>
     <use xlink:href="#mcfd4c77364" x="412.132847" y="14.889867" style="fill: #0db14b; stroke: #0db14b"/>
     <use xlink:href="#mcfd4c77364" x="413.530842" y="18.696703" style="fill: #0db14b; stroke: #0db14b"/>
     <use xlink:href="#mcfd4c77364" x="414.928838" y="44.210781" style="fill: #0db14b; stroke: #0db14b"/>
     <use xlink:href="#mcfd4c77364" x="416.326834" y="32.08949" style="fill: #0db14b; stroke: #0db14b"/>
     <use xlink:href="#mcfd4c77364" x="417.72483" y="31.390394" style="fill: #0db14b; stroke: #0db14b"/>
    </g>
   </g>
   <g id="line2d_24">
    <path d="M 62.63392 158.76 
L 64.031916 157.996349 
L 65.429912 157.435899 
L 66.827908 158.210277 
L 69.623899 156.791217 
L 72.41989 155.489232 
L 75.215882 155.362519 
L 78.011873 154.775254 
L 79.409869 155.452813 
L 80.807865 153.231149 
L 82.20586 152.177799 
L 83.603856 150.891391 
L 85.001852 149.8202 
L 86.399847 146.489205 
L 89.195839 144.745292 
L 90.593835 144.708541 
L 91.99183 141.593088 
L 93.389826 141.072013 
L 94.787822 143.446789 
L 96.185817 142.305117 
L 97.583813 140.404513 
L 98.981809 136.106702 
L 101.7778 138.961026 
L 103.175796 137.394246 
L 104.573792 137.377419 
L 107.369783 134.607895 
L 110.165774 127.901361 
L 111.56377 131.830109 
L 112.961766 128.526834 
L 114.359762 119.774783 
L 115.757757 120.66387 
L 117.155753 120.502463 
L 118.553749 122.135213 
L 119.951744 123.941301 
L 121.34974 124.469377 
L 122.747736 123.686765 
L 124.145731 123.832863 
L 125.543727 125.963875 
L 126.941723 126.098116 
L 128.339719 127.679488 
L 129.737714 127.824982 
L 131.13571 127.430751 
L 132.533706 126.236709 
L 133.931701 125.475932 
L 135.329697 123.575108 
L 136.727693 123.007299 
L 138.125689 121.384008 
L 139.523684 116.949657 
L 140.92168 116.254388 
L 142.319676 116.754569 
L 143.717671 114.435433 
L 145.115667 113.635536 
L 146.513663 115.048014 
L 147.911658 113.35664 
L 149.309654 104.576108 
L 150.70765 113.401467 
L 152.105646 112.970391 
L 153.503641 111.904715 
L 154.901637 111.657082 
L 156.299633 108.269915 
L 157.697628 106.730458 
L 159.095624 106.571336 
L 160.49362 107.444382 
L 161.891616 105.288377 
L 163.289611 105.563888 
L 164.687607 101.399078 
L 166.085603 102.658771 
L 167.483598 102.972038 
L 168.881594 105.320714 
L 170.27959 100.222416 
L 173.075581 99.011712 
L 174.473577 97.294953 
L 175.871573 96.533831 
L 177.269568 97.037551 
L 178.667564 91.985337 
L 180.06556 95.847555 
L 181.463555 91.459575 
L 182.861551 90.894742 
L 184.259547 91.392084 
L 185.657543 87.370207 
L 187.055538 86.741229 
L 188.453534 82.14613 
L 189.85153 87.830389 
L 192.647521 73.019279 
L 194.045517 69.004084 
L 195.443512 66.709211 
L 196.841508 63.575271 
L 198.239504 62.068002 
L 199.6375 69.769944 
L 201.035495 63.107733 
L 202.433491 60.755571 
L 203.831487 63.289612 
L 205.229482 66.700522 
L 206.627478 65.481475 
L 208.025474 68.517702 
L 209.423469 68.641232 
L 210.821465 68.198927 
L 212.219461 72.008524 
L 213.617457 77.246083 
L 215.015452 78.364591 
L 216.413448 76.073916 
L 217.811444 75.651363 
L 219.209439 72.681065 
L 220.607435 75.921048 
L 222.005431 77.094091 
L 223.403427 76.47657 
L 224.801422 75.59559 
L 226.199418 76.833578 
L 227.597414 78.456509 
L 228.995409 79.761188 
L 230.393405 82.488626 
L 233.189396 80.870923 
L 234.587392 82.617049 
L 235.985388 88.091975 
L 237.383384 92.777402 
L 238.781379 93.405829 
L 240.179375 96.247567 
L 241.577371 97.579613 
L 244.373362 102.950321 
L 245.771358 106.068259 
L 247.169354 108.406371 
L 248.567349 107.976411 
L 251.363341 115.926732 
L 252.761336 117.885233 
L 254.159332 122.970711 
L 255.557328 124.202677 
L 256.955323 123.567124 
L 258.353319 123.374406 
L 259.751315 126.514763 
L 261.149311 128.350724 
L 262.547306 129.050192 
L 263.945302 133.442566 
L 265.343298 134.460446 
L 266.741293 135.080529 
L 268.139289 135.422755 
L 269.537285 135.225422 
L 270.935281 136.394762 
L 272.333276 136.398514 
L 273.731272 135.009929 
L 275.129268 136.212432 
L 276.527263 139.319906 
L 277.925259 140.052895 
L 279.323255 138.913743 
L 280.72125 140.103415 
L 282.119246 140.836641 
L 283.517242 138.713903 
L 284.915238 139.337233 
L 286.313233 140.261933 
L 287.711229 140.641354 
L 289.109225 141.564005 
L 291.905216 142.352237 
L 293.303212 142.320627 
L 294.701207 142.132922 
L 296.099203 142.384247 
L 297.497199 141.924576 
L 298.895195 143.524862 
L 301.691186 142.832944 
L 303.089182 143.35449 
L 304.487177 142.942076 
L 305.885173 143.816992 
L 307.283169 143.261566 
L 310.07916 143.67219 
L 311.477156 144.268736 
L 312.875152 144.039099 
L 314.273147 144.627386 
L 315.671143 144.311469 
L 317.069139 143.852313 
L 318.467134 144.107429 
L 321.263126 145.958195 
L 324.059117 146.492821 
L 326.855109 145.583308 
L 328.253104 146.888781 
L 329.6511 146.665895 
L 331.049096 147.503093 
L 332.447092 148.114994 
L 333.845087 147.314309 
L 335.243083 147.828267 
L 336.641079 147.551352 
L 338.039074 147.696031 
L 339.43707 146.717117 
L 340.835066 146.28304 
L 342.233061 145.713062 
L 343.631057 145.893339 
L 345.029053 144.495331 
L 346.427049 144.804579 
L 347.825044 143.123303 
L 349.22304 142.740491 
L 350.621036 141.754532 
L 352.019031 141.556085 
L 353.417027 140.986889 
L 354.815023 138.59042 
L 356.213019 138.409391 
L 357.611014 137.437041 
L 359.00901 137.172552 
L 360.407006 134.256692 
L 361.805001 132.30058 
L 363.202997 129.030336 
L 364.600993 127.88771 
L 365.998988 126.375762 
L 367.396984 123.559231 
L 368.79498 119.804548 
L 370.192976 114.431404 
L 371.590971 111.091993 
L 372.988967 104.959587 
L 374.386963 103.139906 
L 375.784958 102.711887 
L 377.182954 95.00609 
L 378.58095 89.912298 
L 379.978946 85.952928 
L 381.376941 79.829226 
L 384.172933 69.473753 
L 385.570928 71.604153 
L 386.968924 63.522965 
L 388.36692 57.572174 
L 389.764915 52.664424 
L 391.162911 49.000323 
L 392.560907 48.495091 
L 393.958903 40.460854 
L 395.356898 42.897734 
L 396.754894 35.111326 
L 398.15289 33.762967 
L 399.550885 28.366232 
L 400.948881 28.748831 
L 402.346877 27.239362 
L 403.744872 27.131792 
L 405.142868 27.379325 
L 406.540864 21.646497 
L 407.93886 23.902042 
L 409.336855 23.340704 
L 410.734851 22.455269 
L 412.132847 19.429507 
L 413.530842 24.405387 
L 414.928838 46.950763 
L 416.326834 32.462944 
L 417.72483 31.33564 
L 417.72483 31.33564 
" clip-path="url(#p702b7dad2e)" style="fill: none; stroke-dasharray: 5.55,2.4; stroke-dashoffset: 0; stroke: #000000; stroke-width: 1.5"/>
   </g>
   <g id="patch_3">
    <path d="M 44.879375 166.32 
L 44.879375 0 
" style="fill: none; stroke: #ffffff; stroke-linejoin: miter; stroke-linecap: square"/>
   </g>
   <g id="patch_4">
    <path d="M 435.479375 166.32 
L 435.479375 0 
" style="fill: none; stroke: #ffffff; stroke-linejoin: miter; stroke-linecap: square"/>
   </g>
   <g id="patch_5">
    <path d="M 44.879375 166.32 
L 435.479375 166.32 
" style="fill: none; stroke: #ffffff; stroke-linejoin: miter; stroke-linecap: square"/>
   </g>
   <g id="patch_6">
    <path d="M 44.879375 -0 
L 435.479375 -0 
" style="fill: none; stroke: #ffffff; stroke-linejoin: miter; stroke-linecap: square"/>
   </g>
   <g id="legend_1">
    <g id="patch_7">
     <path d="M 51.879375 60.378125 
L 203.92625 60.378125 
Q 205.92625 60.378125 205.92625 58.378125 
L 205.92625 7 
Q 205.92625 5 203.92625 5 
L 51.879375 5 
Q 49.879375 5 49.879375 7 
L 49.879375 58.378125 
Q 49.879375 60.378125 51.879375 60.378125 
z
" style="fill: #e5e5e5; opacity: 0.8; stroke: #cccccc; stroke-width: 0.5; stroke-linejoin: miter"/>
    </g>
    <g id="line2d_25">
     <path d="M 53.879375 15.5 
L 63.879375 15.5 
L 73.879375 15.5 
" style="fill: none; stroke: #0db14b; stroke-width: 3; stroke-linecap: square"/>
     <g>
      <use xlink:href="#mcfd4c77364" x="63.879375" y="15.5" style="fill: #0db14b; stroke: #0db14b"/>
     </g>
    </g>
    <g id="text_14">
     <!-- Private Value $\tilde{R}_{\chi_2,\chi_1}^t$ -->
     <g transform="translate(81.879375 19) scale(0.1 -0.1)">
      <defs>
       <path id="DejaVuSans-50" d="M 1259 4147 
L 1259 2394 
L 2053 2394 
Q 2494 2394 2734 2622 
Q 2975 2850 2975 3272 
Q 2975 3691 2734 3919 
Q 2494 4147 2053 4147 
L 1259 4147 
z
M 628 4666 
L 2053 4666 
Q 2838 4666 3239 4311 
Q 3641 3956 3641 3272 
Q 3641 2581 3239 2228 
Q 2838 1875 2053 1875 
L 1259 1875 
L 1259 0 
L 628 0 
L 628 4666 
z
" transform="scale(0.015625)"/>
       <path id="DejaVuSans-72" d="M 2631 2963 
Q 2534 3019 2420 3045 
Q 2306 3072 2169 3072 
Q 1681 3072 1420 2755 
Q 1159 2438 1159 1844 
L 1159 0 
L 581 0 
L 581 3500 
L 1159 3500 
L 1159 2956 
Q 1341 3275 1631 3429 
Q 1922 3584 2338 3584 
Q 2397 3584 2469 3576 
Q 2541 3569 2628 3553 
L 2631 2963 
z
" transform="scale(0.015625)"/>
       <path id="DejaVuSans-69" d="M 603 3500 
L 1178 3500 
L 1178 0 
L 603 0 
L 603 3500 
z
M 603 4863 
L 1178 4863 
L 1178 4134 
L 603 4134 
L 603 4863 
z
" transform="scale(0.015625)"/>
       <path id="DejaVuSans-76" d="M 191 3500 
L 800 3500 
L 1894 563 
L 2988 3500 
L 3597 3500 
L 2284 0 
L 1503 0 
L 191 3500 
z
" transform="scale(0.015625)"/>
       <path id="DejaVuSans-20" transform="scale(0.015625)"/>
       <path id="DejaVuSans-303" d="M -1621 4281 
L -1799 4453 
Q -1867 4516 -1919 4545 
Q -1971 4575 -2011 4575 
Q -2130 4575 -2186 4461 
Q -2242 4347 -2249 4091 
L -2639 4091 
Q -2633 4513 -2473 4742 
Q -2314 4972 -2030 4972 
Q -1911 4972 -1811 4928 
Q -1711 4884 -1596 4781 
L -1417 4609 
Q -1349 4547 -1297 4517 
Q -1246 4488 -1205 4488 
Q -1086 4488 -1030 4602 
Q -974 4716 -967 4972 
L -577 4972 
Q -583 4550 -742 4320 
Q -902 4091 -1186 4091 
Q -1305 4091 -1405 4134 
Q -1505 4178 -1621 4281 
z
" transform="scale(0.015625)"/>
       <path id="DejaVuSans-Oblique-52" d="M 1613 4147 
L 1294 2491 
L 2106 2491 
Q 2584 2491 2879 2755 
Q 3175 3019 3175 3444 
Q 3175 3784 2976 3965 
Q 2778 4147 2406 4147 
L 1613 4147 
z
M 2772 2241 
Q 2972 2194 3105 2009 
Q 3238 1825 3413 1275 
L 3809 0 
L 3144 0 
L 2778 1197 
Q 2638 1659 2453 1815 
Q 2269 1972 1888 1972 
L 1191 1972 
L 806 0 
L 172 0 
L 1081 4666 
L 2503 4666 
Q 3150 4666 3495 4373 
Q 3841 4081 3841 3531 
Q 3841 3044 3547 2687 
Q 3253 2331 2772 2241 
z
" transform="scale(0.015625)"/>
       <path id="DejaVuSans-Oblique-74" d="M 2706 3500 
L 2619 3053 
L 1472 3053 
L 1100 1153 
Q 1081 1047 1072 975 
Q 1063 903 1063 863 
Q 1063 663 1183 572 
Q 1303 481 1569 481 
L 2150 481 
L 2053 0 
L 1503 0 
Q 991 0 739 200 
Q 488 400 488 806 
Q 488 878 497 964 
Q 506 1050 525 1153 
L 897 3053 
L 409 3053 
L 500 3500 
L 978 3500 
L 1172 4494 
L 1747 4494 
L 1556 3500 
L 2706 3500 
z
" transform="scale(0.015625)"/>
       <path id="DejaVuSans-Oblique-3c7" d="M 1922 -781 
L 1691 416 
L 394 -1334 
L -284 -1334 
L 1553 1141 
L 1269 2613 
Q 1194 3006 713 3006 
L 559 3006 
L 653 3500 
L 872 3494 
Q 1675 3472 1775 2950 
L 2006 1753 
L 3303 3503 
L 3981 3503 
L 2144 1028 
L 2428 -444 
Q 2503 -838 2984 -838 
L 3138 -838 
L 3044 -1331 
L 2825 -1325 
Q 2022 -1303 1922 -781 
z
" transform="scale(0.015625)"/>
       <path id="DejaVuSans-2c" d="M 750 794 
L 1409 794 
L 1409 256 
L 897 -744 
L 494 -744 
L 750 256 
L 750 794 
z
" transform="scale(0.015625)"/>
      </defs>
      <use xlink:href="#DejaVuSans-50" transform="translate(0 0.828125)"/>
      <use xlink:href="#DejaVuSans-72" transform="translate(60.302734 0.828125)"/>
      <use xlink:href="#DejaVuSans-69" transform="translate(101.416016 0.828125)"/>
      <use xlink:href="#DejaVuSans-76" transform="translate(129.199219 0.828125)"/>
      <use xlink:href="#DejaVuSans-61" transform="translate(188.378906 0.828125)"/>
      <use xlink:href="#DejaVuSans-74" transform="translate(249.658203 0.828125)"/>
      <use xlink:href="#DejaVuSans-65" transform="translate(288.867188 0.828125)"/>
      <use xlink:href="#DejaVuSans-20" transform="translate(350.390625 0.828125)"/>
      <use xlink:href="#DejaVuSans-56" transform="translate(382.177734 0.828125)"/>
      <use xlink:href="#DejaVuSans-61" transform="translate(450.585938 0.828125)"/>
      <use xlink:href="#DejaVuSans-6c" transform="translate(511.865234 0.828125)"/>
      <use xlink:href="#DejaVuSans-75" transform="translate(539.648438 0.828125)"/>
      <use xlink:href="#DejaVuSans-65" transform="translate(603.027344 0.828125)"/>
      <use xlink:href="#DejaVuSans-20" transform="translate(664.550781 0.828125)"/>
      <use xlink:href="#DejaVuSans-303" transform="translate(764.942871 22.3125)"/>
      <use xlink:href="#DejaVuSans-Oblique-52" transform="translate(696.337891 0.828125)"/>
      <use xlink:href="#DejaVuSans-Oblique-74" transform="translate(766.777344 39.109375) scale(0.7)"/>
      <use xlink:href="#DejaVuSans-Oblique-3c7" transform="translate(766.777344 -26.515625) scale(0.7)"/>
      <use xlink:href="#DejaVuSans-32" transform="translate(808.203125 -38) scale(0.49)"/>
      <use xlink:href="#DejaVuSans-2c" transform="translate(841.29248 -26.515625) scale(0.7)"/>
      <use xlink:href="#DejaVuSans-Oblique-3c7" transform="translate(877.181152 -26.515625) scale(0.7)"/>
      <use xlink:href="#DejaVuSans-31" transform="translate(918.606934 -38) scale(0.49)"/>
     </g>
    </g>
    <g id="line2d_26">
     <path d="M 53.879375 34 
L 63.879375 34 
L 73.879375 34 
" style="fill: none; stroke-dasharray: 5.55,2.4; stroke-dashoffset: 0; stroke: #000000; stroke-width: 1.5"/>
    </g>
    <g id="text_15">
     <!-- Original Value $\bar{R}_{\chi_2,\chi_1}^t$ -->
     <g transform="translate(81.879375 37.5) scale(0.1 -0.1)">
      <defs>
       <path id="DejaVuSans-4f" d="M 2522 4238 
Q 1834 4238 1429 3725 
Q 1025 3213 1025 2328 
Q 1025 1447 1429 934 
Q 1834 422 2522 422 
Q 3209 422 3611 934 
Q 4013 1447 4013 2328 
Q 4013 3213 3611 3725 
Q 3209 4238 2522 4238 
z
M 2522 4750 
Q 3503 4750 4090 4092 
Q 4678 3434 4678 2328 
Q 4678 1225 4090 567 
Q 3503 -91 2522 -91 
Q 1538 -91 948 565 
Q 359 1222 359 2328 
Q 359 3434 948 4092 
Q 1538 4750 2522 4750 
z
" transform="scale(0.015625)"/>
       <path id="DejaVuSans-67" d="M 2906 1791 
Q 2906 2416 2648 2759 
Q 2391 3103 1925 3103 
Q 1463 3103 1205 2759 
Q 947 2416 947 1791 
Q 947 1169 1205 825 
Q 1463 481 1925 481 
Q 2391 481 2648 825 
Q 2906 1169 2906 1791 
z
M 3481 434 
Q 3481 -459 3084 -895 
Q 2688 -1331 1869 -1331 
Q 1566 -1331 1297 -1286 
Q 1028 -1241 775 -1147 
L 775 -588 
Q 1028 -725 1275 -790 
Q 1522 -856 1778 -856 
Q 2344 -856 2625 -561 
Q 2906 -266 2906 331 
L 2906 616 
Q 2728 306 2450 153 
Q 2172 0 1784 0 
Q 1141 0 747 490 
Q 353 981 353 1791 
Q 353 2603 747 3093 
Q 1141 3584 1784 3584 
Q 2172 3584 2450 3431 
Q 2728 3278 2906 2969 
L 2906 3500 
L 3481 3500 
L 3481 434 
z
" transform="scale(0.015625)"/>
       <path id="DejaVuSans-6e" d="M 3513 2113 
L 3513 0 
L 2938 0 
L 2938 2094 
Q 2938 2591 2744 2837 
Q 2550 3084 2163 3084 
Q 1697 3084 1428 2787 
Q 1159 2491 1159 1978 
L 1159 0 
L 581 0 
L 581 3500 
L 1159 3500 
L 1159 2956 
Q 1366 3272 1645 3428 
Q 1925 3584 2291 3584 
Q 2894 3584 3203 3211 
Q 3513 2838 3513 2113 
z
" transform="scale(0.015625)"/>
       <path id="DejaVuSans-304" d="M -2518 4769 
L -650 4769 
L -650 4306 
L -2518 4306 
L -2518 4769 
z
" transform="scale(0.015625)"/>
      </defs>
      <use xlink:href="#DejaVuSans-4f" transform="translate(0 0.359375)"/>
      <use xlink:href="#DejaVuSans-72" transform="translate(78.710938 0.359375)"/>
      <use xlink:href="#DejaVuSans-69" transform="translate(119.824219 0.359375)"/>
      <use xlink:href="#DejaVuSans-67" transform="translate(147.607422 0.359375)"/>
      <use xlink:href="#DejaVuSans-69" transform="translate(211.083984 0.359375)"/>
      <use xlink:href="#DejaVuSans-6e" transform="translate(238.867188 0.359375)"/>
      <use xlink:href="#DejaVuSans-61" transform="translate(302.246094 0.359375)"/>
      <use xlink:href="#DejaVuSans-6c" transform="translate(363.525391 0.359375)"/>
      <use xlink:href="#DejaVuSans-20" transform="translate(391.308594 0.359375)"/>
      <use xlink:href="#DejaVuSans-56" transform="translate(423.095703 0.359375)"/>
      <use xlink:href="#DejaVuSans-61" transform="translate(491.503906 0.359375)"/>
      <use xlink:href="#DejaVuSans-6c" transform="translate(552.783203 0.359375)"/>
      <use xlink:href="#DejaVuSans-75" transform="translate(580.566406 0.359375)"/>
      <use xlink:href="#DejaVuSans-65" transform="translate(643.945312 0.359375)"/>
      <use xlink:href="#DejaVuSans-20" transform="translate(705.46875 0.359375)"/>
      <use xlink:href="#DejaVuSans-304" transform="translate(804.970215 18.484375)"/>
      <use xlink:href="#DejaVuSans-Oblique-52" transform="translate(737.255859 0.359375)"/>
      <use xlink:href="#DejaVuSans-Oblique-74" transform="translate(807.695312 38.640625) scale(0.7)"/>
      <use xlink:href="#DejaVuSans-Oblique-3c7" transform="translate(807.695312 -26.984375) scale(0.7)"/>
      <use xlink:href="#DejaVuSans-32" transform="translate(849.121094 -38.46875) scale(0.49)"/>
      <use xlink:href="#DejaVuSans-2c" transform="translate(882.210449 -26.984375) scale(0.7)"/>
      <use xlink:href="#DejaVuSans-Oblique-3c7" transform="translate(918.099121 -26.984375) scale(0.7)"/>
      <use xlink:href="#DejaVuSans-31" transform="translate(959.524902 -38.46875) scale(0.49)"/>
     </g>
    </g>
    <g id="patch_8">
     <path d="M 53.879375 54.298437 
L 73.879375 54.298437 
L 73.879375 47.298437 
L 53.879375 47.298437 
z
" style="fill: #0db14b; fill-opacity: 0.5; stroke: #0db14b; stroke-opacity: 0.5; stroke-width: 0.5; stroke-linejoin: miter"/>
    </g>
    <g id="text_16">
     <!-- One Standard Deviation -->
     <g transform="translate(81.879375 54.298437) scale(0.1 -0.1)">
      <defs>
       <path id="DejaVuSans-53" d="M 3425 4513 
L 3425 3897 
Q 3066 4069 2747 4153 
Q 2428 4238 2131 4238 
Q 1616 4238 1336 4038 
Q 1056 3838 1056 3469 
Q 1056 3159 1242 3001 
Q 1428 2844 1947 2747 
L 2328 2669 
Q 3034 2534 3370 2195 
Q 3706 1856 3706 1288 
Q 3706 609 3251 259 
Q 2797 -91 1919 -91 
Q 1588 -91 1214 -16 
Q 841 59 441 206 
L 441 856 
Q 825 641 1194 531 
Q 1563 422 1919 422 
Q 2459 422 2753 634 
Q 3047 847 3047 1241 
Q 3047 1584 2836 1778 
Q 2625 1972 2144 2069 
L 1759 2144 
Q 1053 2284 737 2584 
Q 422 2884 422 3419 
Q 422 4038 858 4394 
Q 1294 4750 2059 4750 
Q 2388 4750 2728 4690 
Q 3069 4631 3425 4513 
z
" transform="scale(0.015625)"/>
       <path id="DejaVuSans-64" d="M 2906 2969 
L 2906 4863 
L 3481 4863 
L 3481 0 
L 2906 0 
L 2906 525 
Q 2725 213 2448 61 
Q 2172 -91 1784 -91 
Q 1150 -91 751 415 
Q 353 922 353 1747 
Q 353 2572 751 3078 
Q 1150 3584 1784 3584 
Q 2172 3584 2448 3432 
Q 2725 3281 2906 2969 
z
M 947 1747 
Q 947 1113 1208 752 
Q 1469 391 1925 391 
Q 2381 391 2643 752 
Q 2906 1113 2906 1747 
Q 2906 2381 2643 2742 
Q 2381 3103 1925 3103 
Q 1469 3103 1208 2742 
Q 947 2381 947 1747 
z
" transform="scale(0.015625)"/>
       <path id="DejaVuSans-6f" d="M 1959 3097 
Q 1497 3097 1228 2736 
Q 959 2375 959 1747 
Q 959 1119 1226 758 
Q 1494 397 1959 397 
Q 2419 397 2687 759 
Q 2956 1122 2956 1747 
Q 2956 2369 2687 2733 
Q 2419 3097 1959 3097 
z
M 1959 3584 
Q 2709 3584 3137 3096 
Q 3566 2609 3566 1747 
Q 3566 888 3137 398 
Q 2709 -91 1959 -91 
Q 1206 -91 779 398 
Q 353 888 353 1747 
Q 353 2609 779 3096 
Q 1206 3584 1959 3584 
z
" transform="scale(0.015625)"/>
      </defs>
      <use xlink:href="#DejaVuSans-4f"/>
      <use xlink:href="#DejaVuSans-6e" x="78.710938"/>
      <use xlink:href="#DejaVuSans-65" x="142.089844"/>
      <use xlink:href="#DejaVuSans-20" x="203.613281"/>
      <use xlink:href="#DejaVuSans-53" x="235.400391"/>
      <use xlink:href="#DejaVuSans-74" x="298.876953"/>
      <use xlink:href="#DejaVuSans-61" x="338.085938"/>
      <use xlink:href="#DejaVuSans-6e" x="399.365234"/>
      <use xlink:href="#DejaVuSans-64" x="462.744141"/>
      <use xlink:href="#DejaVuSans-61" x="526.220703"/>
      <use xlink:href="#DejaVuSans-72" x="587.5"/>
      <use xlink:href="#DejaVuSans-64" x="626.863281"/>
      <use xlink:href="#DejaVuSans-20" x="690.339844"/>
      <use xlink:href="#DejaVuSans-44" x="722.126953"/>
      <use xlink:href="#DejaVuSans-65" x="799.128906"/>
      <use xlink:href="#DejaVuSans-76" x="860.652344"/>
      <use xlink:href="#DejaVuSans-69" x="919.832031"/>
      <use xlink:href="#DejaVuSans-61" x="947.615234"/>
      <use xlink:href="#DejaVuSans-74" x="1008.894531"/>
      <use xlink:href="#DejaVuSans-69" x="1048.103516"/>
      <use xlink:href="#DejaVuSans-6f" x="1075.886719"/>
      <use xlink:href="#DejaVuSans-6e" x="1137.068359"/>
     </g>
    </g>
   </g>
  </g>
 </g>
 <defs>
  <clipPath id="p702b7dad2e">
   <rect x="44.879375" y="-0" width="390.6" height="166.32"/>
  </clipPath>
 </defs>
</svg>
