<?xml version="1.0" encoding="utf-8" standalone="no"?>
<!DOCTYPE svg PUBLIC "-//W3C//DTD SVG 1.1//EN"
  "http://www.w3.org/Graphics/SVG/1.1/DTD/svg11.dtd">
<svg xmlns:xlink="http://www.w3.org/1999/xlink" width="444.375067pt" height="198.611875pt" viewBox="0 0 444.375067 198.611875" xmlns="http://www.w3.org/2000/svg" version="1.1">
 <metadata>
  <rdf:RDF xmlns:dc="http://purl.org/dc/elements/1.1/" xmlns:cc="http://creativecommons.org/ns#" xmlns:rdf="http://www.w3.org/1999/02/22-rdf-syntax-ns#">
   <cc:Work>
    <dc:type rdf:resource="http://purl.org/dc/dcmitype/StillImage"/>
    <dc:date>2024-09-18T15:47:41.425705</dc:date>
    <dc:format>image/svg+xml</dc:format>
    <dc:creator>
     <cc:Agent>
      <dc:title>Matplotlib v3.7.5, https://matplotlib.org/</dc:title>
     </cc:Agent>
    </dc:creator>
   </cc:Work>
  </rdf:RDF>
 </metadata>
 <defs>
  <style type="text/css">*{stroke-linejoin: round; stroke-linecap: butt}</style>
 </defs>
 <g id="figure_1">
  <g id="patch_1">
   <path d="M 0 198.611875 
L 444.375067 198.611875 
L 444.375067 0 
L 0 0 
z
" style="fill: #ffffff"/>
  </g>
  <g id="axes_1">
   <g id="patch_2">
    <path d="M 44.879375 166.32 
L 435.479375 166.32 
L 435.479375 -0 
L 44.879375 -0 
z
" style="fill: #e5e5e5"/>
   </g>
   <g id="matplotlib.axis_1">
    <g id="xtick_1">
     <g id="line2d_1">
      <path d="M 72.41989 166.32 
L 72.41989 -0 
" clip-path="url(#p979bce3f3a)" style="fill: none; stroke: #ffffff; stroke-width: 0.8; stroke-linecap: square"/>
     </g>
     <g id="line2d_2">
      <defs>
       <path id="mfa49760abe" d="M 0 0 
L 0 3.5 
" style="stroke: #555555; stroke-width: 0.8"/>
      </defs>
      <g>
       <use xlink:href="#mfa49760abe" x="72.41989" y="166.32" style="fill: #555555; stroke: #555555; stroke-width: 0.8"/>
      </g>
     </g>
     <g id="text_1">
      <!-- 08/16/20 -->
      <g style="fill: #555555" transform="translate(49.96364 180.918437) scale(0.1 -0.1)">
       <defs>
        <path id="DejaVuSans-30" d="M 2034 4250 
Q 1547 4250 1301 3770 
Q 1056 3291 1056 2328 
Q 1056 1369 1301 889 
Q 1547 409 2034 409 
Q 2525 409 2770 889 
Q 3016 1369 3016 2328 
Q 3016 3291 2770 3770 
Q 2525 4250 2034 4250 
z
M 2034 4750 
Q 2819 4750 3233 4129 
Q 3647 3509 3647 2328 
Q 3647 1150 3233 529 
Q 2819 -91 2034 -91 
Q 1250 -91 836 529 
Q 422 1150 422 2328 
Q 422 3509 836 4129 
Q 1250 4750 2034 4750 
z
" transform="scale(0.015625)"/>
        <path id="DejaVuSans-38" d="M 2034 2216 
Q 1584 2216 1326 1975 
Q 1069 1734 1069 1313 
Q 1069 891 1326 650 
Q 1584 409 2034 409 
Q 2484 409 2743 651 
Q 3003 894 3003 1313 
Q 3003 1734 2745 1975 
Q 2488 2216 2034 2216 
z
M 1403 2484 
Q 997 2584 770 2862 
Q 544 3141 544 3541 
Q 544 4100 942 4425 
Q 1341 4750 2034 4750 
Q 2731 4750 3128 4425 
Q 3525 4100 3525 3541 
Q 3525 3141 3298 2862 
Q 3072 2584 2669 2484 
Q 3125 2378 3379 2068 
Q 3634 1759 3634 1313 
Q 3634 634 3220 271 
Q 2806 -91 2034 -91 
Q 1263 -91 848 271 
Q 434 634 434 1313 
Q 434 1759 690 2068 
Q 947 2378 1403 2484 
z
M 1172 3481 
Q 1172 3119 1398 2916 
Q 1625 2713 2034 2713 
Q 2441 2713 2670 2916 
Q 2900 3119 2900 3481 
Q 2900 3844 2670 4047 
Q 2441 4250 2034 4250 
Q 1625 4250 1398 4047 
Q 1172 3844 1172 3481 
z
" transform="scale(0.015625)"/>
        <path id="DejaVuSans-2f" d="M 1625 4666 
L 2156 4666 
L 531 -594 
L 0 -594 
L 1625 4666 
z
" transform="scale(0.015625)"/>
        <path id="DejaVuSans-31" d="M 794 531 
L 1825 531 
L 1825 4091 
L 703 3866 
L 703 4441 
L 1819 4666 
L 2450 4666 
L 2450 531 
L 3481 531 
L 3481 0 
L 794 0 
L 794 531 
z
" transform="scale(0.015625)"/>
        <path id="DejaVuSans-36" d="M 2113 2584 
Q 1688 2584 1439 2293 
Q 1191 2003 1191 1497 
Q 1191 994 1439 701 
Q 1688 409 2113 409 
Q 2538 409 2786 701 
Q 3034 994 3034 1497 
Q 3034 2003 2786 2293 
Q 2538 2584 2113 2584 
z
M 3366 4563 
L 3366 3988 
Q 3128 4100 2886 4159 
Q 2644 4219 2406 4219 
Q 1781 4219 1451 3797 
Q 1122 3375 1075 2522 
Q 1259 2794 1537 2939 
Q 1816 3084 2150 3084 
Q 2853 3084 3261 2657 
Q 3669 2231 3669 1497 
Q 3669 778 3244 343 
Q 2819 -91 2113 -91 
Q 1303 -91 875 529 
Q 447 1150 447 2328 
Q 447 3434 972 4092 
Q 1497 4750 2381 4750 
Q 2619 4750 2861 4703 
Q 3103 4656 3366 4563 
z
" transform="scale(0.015625)"/>
        <path id="DejaVuSans-32" d="M 1228 531 
L 3431 531 
L 3431 0 
L 469 0 
L 469 531 
Q 828 903 1448 1529 
Q 2069 2156 2228 2338 
Q 2531 2678 2651 2914 
Q 2772 3150 2772 3378 
Q 2772 3750 2511 3984 
Q 2250 4219 1831 4219 
Q 1534 4219 1204 4116 
Q 875 4013 500 3803 
L 500 4441 
Q 881 4594 1212 4672 
Q 1544 4750 1819 4750 
Q 2544 4750 2975 4387 
Q 3406 4025 3406 3419 
Q 3406 3131 3298 2873 
Q 3191 2616 2906 2266 
Q 2828 2175 2409 1742 
Q 1991 1309 1228 531 
z
" transform="scale(0.015625)"/>
       </defs>
       <use xlink:href="#DejaVuSans-30"/>
       <use xlink:href="#DejaVuSans-38" x="63.623047"/>
       <use xlink:href="#DejaVuSans-2f" x="127.246094"/>
       <use xlink:href="#DejaVuSans-31" x="160.9375"/>
       <use xlink:href="#DejaVuSans-36" x="224.560547"/>
       <use xlink:href="#DejaVuSans-2f" x="288.183594"/>
       <use xlink:href="#DejaVuSans-32" x="321.875"/>
       <use xlink:href="#DejaVuSans-30" x="385.498047"/>
      </g>
     </g>
    </g>
    <g id="xtick_2">
     <g id="line2d_3">
      <path d="M 142.319676 166.32 
L 142.319676 -0 
" clip-path="url(#p979bce3f3a)" style="fill: none; stroke: #ffffff; stroke-width: 0.8; stroke-linecap: square"/>
     </g>
     <g id="line2d_4">
      <g>
       <use xlink:href="#mfa49760abe" x="142.319676" y="166.32" style="fill: #555555; stroke: #555555; stroke-width: 0.8"/>
      </g>
     </g>
     <g id="text_2">
      <!-- 10/05/20 -->
      <g style="fill: #555555" transform="translate(119.863426 180.918437) scale(0.1 -0.1)">
       <defs>
        <path id="DejaVuSans-35" d="M 691 4666 
L 3169 4666 
L 3169 4134 
L 1269 4134 
L 1269 2991 
Q 1406 3038 1543 3061 
Q 1681 3084 1819 3084 
Q 2600 3084 3056 2656 
Q 3513 2228 3513 1497 
Q 3513 744 3044 326 
Q 2575 -91 1722 -91 
Q 1428 -91 1123 -41 
Q 819 9 494 109 
L 494 744 
Q 775 591 1075 516 
Q 1375 441 1709 441 
Q 2250 441 2565 725 
Q 2881 1009 2881 1497 
Q 2881 1984 2565 2268 
Q 2250 2553 1709 2553 
Q 1456 2553 1204 2497 
Q 953 2441 691 2322 
L 691 4666 
z
" transform="scale(0.015625)"/>
       </defs>
       <use xlink:href="#DejaVuSans-31"/>
       <use xlink:href="#DejaVuSans-30" x="63.623047"/>
       <use xlink:href="#DejaVuSans-2f" x="127.246094"/>
       <use xlink:href="#DejaVuSans-30" x="160.9375"/>
       <use xlink:href="#DejaVuSans-35" x="224.560547"/>
       <use xlink:href="#DejaVuSans-2f" x="288.183594"/>
       <use xlink:href="#DejaVuSans-32" x="321.875"/>
       <use xlink:href="#DejaVuSans-30" x="385.498047"/>
      </g>
     </g>
    </g>
    <g id="xtick_3">
     <g id="line2d_5">
      <path d="M 212.219461 166.32 
L 212.219461 -0 
" clip-path="url(#p979bce3f3a)" style="fill: none; stroke: #ffffff; stroke-width: 0.8; stroke-linecap: square"/>
     </g>
     <g id="line2d_6">
      <g>
       <use xlink:href="#mfa49760abe" x="212.219461" y="166.32" style="fill: #555555; stroke: #555555; stroke-width: 0.8"/>
      </g>
     </g>
     <g id="text_3">
      <!-- 11/24/20 -->
      <g style="fill: #555555" transform="translate(189.763211 180.918437) scale(0.1 -0.1)">
       <defs>
        <path id="DejaVuSans-34" d="M 2419 4116 
L 825 1625 
L 2419 1625 
L 2419 4116 
z
M 2253 4666 
L 3047 4666 
L 3047 1625 
L 3713 1625 
L 3713 1100 
L 3047 1100 
L 3047 0 
L 2419 0 
L 2419 1100 
L 313 1100 
L 313 1709 
L 2253 4666 
z
" transform="scale(0.015625)"/>
       </defs>
       <use xlink:href="#DejaVuSans-31"/>
       <use xlink:href="#DejaVuSans-31" x="63.623047"/>
       <use xlink:href="#DejaVuSans-2f" x="127.246094"/>
       <use xlink:href="#DejaVuSans-32" x="160.9375"/>
       <use xlink:href="#DejaVuSans-34" x="224.560547"/>
       <use xlink:href="#DejaVuSans-2f" x="288.183594"/>
       <use xlink:href="#DejaVuSans-32" x="321.875"/>
       <use xlink:href="#DejaVuSans-30" x="385.498047"/>
      </g>
     </g>
    </g>
    <g id="xtick_4">
     <g id="line2d_7">
      <path d="M 282.119246 166.32 
L 282.119246 -0 
" clip-path="url(#p979bce3f3a)" style="fill: none; stroke: #ffffff; stroke-width: 0.8; stroke-linecap: square"/>
     </g>
     <g id="line2d_8">
      <g>
       <use xlink:href="#mfa49760abe" x="282.119246" y="166.32" style="fill: #555555; stroke: #555555; stroke-width: 0.8"/>
      </g>
     </g>
     <g id="text_4">
      <!-- 01/13/21 -->
      <g style="fill: #555555" transform="translate(259.662996 180.918437) scale(0.1 -0.1)">
       <defs>
        <path id="DejaVuSans-33" d="M 2597 2516 
Q 3050 2419 3304 2112 
Q 3559 1806 3559 1356 
Q 3559 666 3084 287 
Q 2609 -91 1734 -91 
Q 1441 -91 1130 -33 
Q 819 25 488 141 
L 488 750 
Q 750 597 1062 519 
Q 1375 441 1716 441 
Q 2309 441 2620 675 
Q 2931 909 2931 1356 
Q 2931 1769 2642 2001 
Q 2353 2234 1838 2234 
L 1294 2234 
L 1294 2753 
L 1863 2753 
Q 2328 2753 2575 2939 
Q 2822 3125 2822 3475 
Q 2822 3834 2567 4026 
Q 2313 4219 1838 4219 
Q 1578 4219 1281 4162 
Q 984 4106 628 3988 
L 628 4550 
Q 988 4650 1302 4700 
Q 1616 4750 1894 4750 
Q 2613 4750 3031 4423 
Q 3450 4097 3450 3541 
Q 3450 3153 3228 2886 
Q 3006 2619 2597 2516 
z
" transform="scale(0.015625)"/>
       </defs>
       <use xlink:href="#DejaVuSans-30"/>
       <use xlink:href="#DejaVuSans-31" x="63.623047"/>
       <use xlink:href="#DejaVuSans-2f" x="127.246094"/>
       <use xlink:href="#DejaVuSans-31" x="160.9375"/>
       <use xlink:href="#DejaVuSans-33" x="224.560547"/>
       <use xlink:href="#DejaVuSans-2f" x="288.183594"/>
       <use xlink:href="#DejaVuSans-32" x="321.875"/>
       <use xlink:href="#DejaVuSans-31" x="385.498047"/>
      </g>
     </g>
    </g>
    <g id="xtick_5">
     <g id="line2d_9">
      <path d="M 352.019031 166.32 
L 352.019031 -0 
" clip-path="url(#p979bce3f3a)" style="fill: none; stroke: #ffffff; stroke-width: 0.8; stroke-linecap: square"/>
     </g>
     <g id="line2d_10">
      <g>
       <use xlink:href="#mfa49760abe" x="352.019031" y="166.32" style="fill: #555555; stroke: #555555; stroke-width: 0.8"/>
      </g>
     </g>
     <g id="text_5">
      <!-- 03/04/21 -->
      <g style="fill: #555555" transform="translate(329.562781 180.918437) scale(0.1 -0.1)">
       <use xlink:href="#DejaVuSans-30"/>
       <use xlink:href="#DejaVuSans-33" x="63.623047"/>
       <use xlink:href="#DejaVuSans-2f" x="127.246094"/>
       <use xlink:href="#DejaVuSans-30" x="160.9375"/>
       <use xlink:href="#DejaVuSans-34" x="224.560547"/>
       <use xlink:href="#DejaVuSans-2f" x="288.183594"/>
       <use xlink:href="#DejaVuSans-32" x="321.875"/>
       <use xlink:href="#DejaVuSans-31" x="385.498047"/>
      </g>
     </g>
    </g>
    <g id="xtick_6">
     <g id="line2d_11">
      <path d="M 421.918817 166.32 
L 421.918817 -0 
" clip-path="url(#p979bce3f3a)" style="fill: none; stroke: #ffffff; stroke-width: 0.8; stroke-linecap: square"/>
     </g>
     <g id="line2d_12">
      <g>
       <use xlink:href="#mfa49760abe" x="421.918817" y="166.32" style="fill: #555555; stroke: #555555; stroke-width: 0.8"/>
      </g>
     </g>
     <g id="text_6">
      <!-- 04/23/21 -->
      <g style="fill: #555555" transform="translate(399.462567 180.918437) scale(0.1 -0.1)">
       <use xlink:href="#DejaVuSans-30"/>
       <use xlink:href="#DejaVuSans-34" x="63.623047"/>
       <use xlink:href="#DejaVuSans-2f" x="127.246094"/>
       <use xlink:href="#DejaVuSans-32" x="160.9375"/>
       <use xlink:href="#DejaVuSans-33" x="224.560547"/>
       <use xlink:href="#DejaVuSans-2f" x="288.183594"/>
       <use xlink:href="#DejaVuSans-32" x="321.875"/>
       <use xlink:href="#DejaVuSans-31" x="385.498047"/>
      </g>
     </g>
    </g>
    <g id="text_7">
     <!-- Date -->
     <g style="fill: #555555" transform="translate(225.838438 196.11625) scale(0.12 -0.12)">
      <defs>
       <path id="DejaVuSans-44" d="M 1259 4147 
L 1259 519 
L 2022 519 
Q 2988 519 3436 956 
Q 3884 1394 3884 2338 
Q 3884 3275 3436 3711 
Q 2988 4147 2022 4147 
L 1259 4147 
z
M 628 4666 
L 1925 4666 
Q 3281 4666 3915 4102 
Q 4550 3538 4550 2338 
Q 4550 1131 3912 565 
Q 3275 0 1925 0 
L 628 0 
L 628 4666 
z
" transform="scale(0.015625)"/>
       <path id="DejaVuSans-61" d="M 2194 1759 
Q 1497 1759 1228 1600 
Q 959 1441 959 1056 
Q 959 750 1161 570 
Q 1363 391 1709 391 
Q 2188 391 2477 730 
Q 2766 1069 2766 1631 
L 2766 1759 
L 2194 1759 
z
M 3341 1997 
L 3341 0 
L 2766 0 
L 2766 531 
Q 2569 213 2275 61 
Q 1981 -91 1556 -91 
Q 1019 -91 701 211 
Q 384 513 384 1019 
Q 384 1609 779 1909 
Q 1175 2209 1959 2209 
L 2766 2209 
L 2766 2266 
Q 2766 2663 2505 2880 
Q 2244 3097 1772 3097 
Q 1472 3097 1187 3025 
Q 903 2953 641 2809 
L 641 3341 
Q 956 3463 1253 3523 
Q 1550 3584 1831 3584 
Q 2591 3584 2966 3190 
Q 3341 2797 3341 1997 
z
" transform="scale(0.015625)"/>
       <path id="DejaVuSans-74" d="M 1172 4494 
L 1172 3500 
L 2356 3500 
L 2356 3053 
L 1172 3053 
L 1172 1153 
Q 1172 725 1289 603 
Q 1406 481 1766 481 
L 2356 481 
L 2356 0 
L 1766 0 
Q 1100 0 847 248 
Q 594 497 594 1153 
L 594 3053 
L 172 3053 
L 172 3500 
L 594 3500 
L 594 4494 
L 1172 4494 
z
" transform="scale(0.015625)"/>
       <path id="DejaVuSans-65" d="M 3597 1894 
L 3597 1613 
L 953 1613 
Q 991 1019 1311 708 
Q 1631 397 2203 397 
Q 2534 397 2845 478 
Q 3156 559 3463 722 
L 3463 178 
Q 3153 47 2828 -22 
Q 2503 -91 2169 -91 
Q 1331 -91 842 396 
Q 353 884 353 1716 
Q 353 2575 817 3079 
Q 1281 3584 2069 3584 
Q 2775 3584 3186 3129 
Q 3597 2675 3597 1894 
z
M 3022 2063 
Q 3016 2534 2758 2815 
Q 2500 3097 2075 3097 
Q 1594 3097 1305 2825 
Q 1016 2553 972 2059 
L 3022 2063 
z
" transform="scale(0.015625)"/>
      </defs>
      <use xlink:href="#DejaVuSans-44"/>
      <use xlink:href="#DejaVuSans-61" x="77.001953"/>
      <use xlink:href="#DejaVuSans-74" x="138.28125"/>
      <use xlink:href="#DejaVuSans-65" x="177.490234"/>
     </g>
    </g>
   </g>
   <g id="matplotlib.axis_2">
    <g id="ytick_1">
     <g id="line2d_13">
      <path d="M 44.879375 163.104547 
L 435.479375 163.104547 
" clip-path="url(#p979bce3f3a)" style="fill: none; stroke: #ffffff; stroke-width: 0.8; stroke-linecap: square"/>
     </g>
     <g id="line2d_14">
      <defs>
       <path id="m79f7ba525c" d="M 0 0 
L -3.5 0 
" style="stroke: #555555; stroke-width: 0.8"/>
      </defs>
      <g>
       <use xlink:href="#m79f7ba525c" x="44.879375" y="163.104547" style="fill: #555555; stroke: #555555; stroke-width: 0.8"/>
      </g>
     </g>
     <g id="text_8">
      <!-- 0.00 -->
      <g style="fill: #555555" transform="translate(15.61375 166.903765) scale(0.1 -0.1)">
       <defs>
        <path id="DejaVuSans-2e" d="M 684 794 
L 1344 794 
L 1344 0 
L 684 0 
L 684 794 
z
" transform="scale(0.015625)"/>
       </defs>
       <use xlink:href="#DejaVuSans-30"/>
       <use xlink:href="#DejaVuSans-2e" x="63.623047"/>
       <use xlink:href="#DejaVuSans-30" x="95.410156"/>
       <use xlink:href="#DejaVuSans-30" x="159.033203"/>
      </g>
     </g>
    </g>
    <g id="ytick_2">
     <g id="line2d_15">
      <path d="M 44.879375 141.443908 
L 435.479375 141.443908 
" clip-path="url(#p979bce3f3a)" style="fill: none; stroke: #ffffff; stroke-width: 0.8; stroke-linecap: square"/>
     </g>
     <g id="line2d_16">
      <g>
       <use xlink:href="#m79f7ba525c" x="44.879375" y="141.443908" style="fill: #555555; stroke: #555555; stroke-width: 0.8"/>
      </g>
     </g>
     <g id="text_9">
      <!-- 0.02 -->
      <g style="fill: #555555" transform="translate(15.61375 145.243126) scale(0.1 -0.1)">
       <use xlink:href="#DejaVuSans-30"/>
       <use xlink:href="#DejaVuSans-2e" x="63.623047"/>
       <use xlink:href="#DejaVuSans-30" x="95.410156"/>
       <use xlink:href="#DejaVuSans-32" x="159.033203"/>
      </g>
     </g>
    </g>
    <g id="ytick_3">
     <g id="line2d_17">
      <path d="M 44.879375 119.783268 
L 435.479375 119.783268 
" clip-path="url(#p979bce3f3a)" style="fill: none; stroke: #ffffff; stroke-width: 0.8; stroke-linecap: square"/>
     </g>
     <g id="line2d_18">
      <g>
       <use xlink:href="#m79f7ba525c" x="44.879375" y="119.783268" style="fill: #555555; stroke: #555555; stroke-width: 0.8"/>
      </g>
     </g>
     <g id="text_10">
      <!-- 0.04 -->
      <g style="fill: #555555" transform="translate(15.61375 123.582487) scale(0.1 -0.1)">
       <use xlink:href="#DejaVuSans-30"/>
       <use xlink:href="#DejaVuSans-2e" x="63.623047"/>
       <use xlink:href="#DejaVuSans-30" x="95.410156"/>
       <use xlink:href="#DejaVuSans-34" x="159.033203"/>
      </g>
     </g>
    </g>
    <g id="ytick_4">
     <g id="line2d_19">
      <path d="M 44.879375 98.122629 
L 435.479375 98.122629 
" clip-path="url(#p979bce3f3a)" style="fill: none; stroke: #ffffff; stroke-width: 0.8; stroke-linecap: square"/>
     </g>
     <g id="line2d_20">
      <g>
       <use xlink:href="#m79f7ba525c" x="44.879375" y="98.122629" style="fill: #555555; stroke: #555555; stroke-width: 0.8"/>
      </g>
     </g>
     <g id="text_11">
      <!-- 0.06 -->
      <g style="fill: #555555" transform="translate(15.61375 101.921848) scale(0.1 -0.1)">
       <use xlink:href="#DejaVuSans-30"/>
       <use xlink:href="#DejaVuSans-2e" x="63.623047"/>
       <use xlink:href="#DejaVuSans-30" x="95.410156"/>
       <use xlink:href="#DejaVuSans-36" x="159.033203"/>
      </g>
     </g>
    </g>
    <g id="ytick_5">
     <g id="line2d_21">
      <path d="M 44.879375 76.46199 
L 435.479375 76.46199 
" clip-path="url(#p979bce3f3a)" style="fill: none; stroke: #ffffff; stroke-width: 0.8; stroke-linecap: square"/>
     </g>
     <g id="line2d_22">
      <g>
       <use xlink:href="#m79f7ba525c" x="44.879375" y="76.46199" style="fill: #555555; stroke: #555555; stroke-width: 0.8"/>
      </g>
     </g>
     <g id="text_12">
      <!-- 0.08 -->
      <g style="fill: #555555" transform="translate(15.61375 80.261209) scale(0.1 -0.1)">
       <use xlink:href="#DejaVuSans-30"/>
       <use xlink:href="#DejaVuSans-2e" x="63.623047"/>
       <use xlink:href="#DejaVuSans-30" x="95.410156"/>
       <use xlink:href="#DejaVuSans-38" x="159.033203"/>
      </g>
     </g>
    </g>
    <g id="ytick_6">
     <g id="line2d_23">
      <path d="M 44.879375 54.801351 
L 435.479375 54.801351 
" clip-path="url(#p979bce3f3a)" style="fill: none; stroke: #ffffff; stroke-width: 0.8; stroke-linecap: square"/>
     </g>
     <g id="line2d_24">
      <g>
       <use xlink:href="#m79f7ba525c" x="44.879375" y="54.801351" style="fill: #555555; stroke: #555555; stroke-width: 0.8"/>
      </g>
     </g>
     <g id="text_13">
      <!-- 0.10 -->
      <g style="fill: #555555" transform="translate(15.61375 58.60057) scale(0.1 -0.1)">
       <use xlink:href="#DejaVuSans-30"/>
       <use xlink:href="#DejaVuSans-2e" x="63.623047"/>
       <use xlink:href="#DejaVuSans-31" x="95.410156"/>
       <use xlink:href="#DejaVuSans-30" x="159.033203"/>
      </g>
     </g>
    </g>
    <g id="ytick_7">
     <g id="line2d_25">
      <path d="M 44.879375 33.140712 
L 435.479375 33.140712 
" clip-path="url(#p979bce3f3a)" style="fill: none; stroke: #ffffff; stroke-width: 0.8; stroke-linecap: square"/>
     </g>
     <g id="line2d_26">
      <g>
       <use xlink:href="#m79f7ba525c" x="44.879375" y="33.140712" style="fill: #555555; stroke: #555555; stroke-width: 0.8"/>
      </g>
     </g>
     <g id="text_14">
      <!-- 0.12 -->
      <g style="fill: #555555" transform="translate(15.61375 36.939931) scale(0.1 -0.1)">
       <use xlink:href="#DejaVuSans-30"/>
       <use xlink:href="#DejaVuSans-2e" x="63.623047"/>
       <use xlink:href="#DejaVuSans-31" x="95.410156"/>
       <use xlink:href="#DejaVuSans-32" x="159.033203"/>
      </g>
     </g>
    </g>
    <g id="ytick_8">
     <g id="line2d_27">
      <path d="M 44.879375 11.480073 
L 435.479375 11.480073 
" clip-path="url(#p979bce3f3a)" style="fill: none; stroke: #ffffff; stroke-width: 0.8; stroke-linecap: square"/>
     </g>
     <g id="line2d_28">
      <g>
       <use xlink:href="#m79f7ba525c" x="44.879375" y="11.480073" style="fill: #555555; stroke: #555555; stroke-width: 0.8"/>
      </g>
     </g>
     <g id="text_15">
      <!-- 0.14 -->
      <g style="fill: #555555" transform="translate(15.61375 15.279291) scale(0.1 -0.1)">
       <use xlink:href="#DejaVuSans-30"/>
       <use xlink:href="#DejaVuSans-2e" x="63.623047"/>
       <use xlink:href="#DejaVuSans-31" x="95.410156"/>
       <use xlink:href="#DejaVuSans-34" x="159.033203"/>
      </g>
     </g>
    </g>
    <g id="text_16">
     <!-- Value -->
     <g style="fill: #555555" transform="translate(9.118125 99.6375) rotate(-90) scale(0.12 -0.12)">
      <defs>
       <path id="DejaVuSans-56" d="M 1831 0 
L 50 4666 
L 709 4666 
L 2188 738 
L 3669 4666 
L 4325 4666 
L 2547 0 
L 1831 0 
z
" transform="scale(0.015625)"/>
       <path id="DejaVuSans-6c" d="M 603 4863 
L 1178 4863 
L 1178 0 
L 603 0 
L 603 4863 
z
" transform="scale(0.015625)"/>
       <path id="DejaVuSans-75" d="M 544 1381 
L 544 3500 
L 1119 3500 
L 1119 1403 
Q 1119 906 1312 657 
Q 1506 409 1894 409 
Q 2359 409 2629 706 
Q 2900 1003 2900 1516 
L 2900 3500 
L 3475 3500 
L 3475 0 
L 2900 0 
L 2900 538 
Q 2691 219 2414 64 
Q 2138 -91 1772 -91 
Q 1169 -91 856 284 
Q 544 659 544 1381 
z
M 1991 3584 
L 1991 3584 
z
" transform="scale(0.015625)"/>
      </defs>
      <use xlink:href="#DejaVuSans-56"/>
      <use xlink:href="#DejaVuSans-61" x="60.658203"/>
      <use xlink:href="#DejaVuSans-6c" x="121.9375"/>
      <use xlink:href="#DejaVuSans-75" x="149.720703"/>
      <use xlink:href="#DejaVuSans-65" x="213.099609"/>
     </g>
    </g>
   </g>
   <g id="PolyCollection_1">
    <defs>
     <path id="mcc84ddaba7" d="M 62.63392 -55.592468 
L 62.63392 -68.44223 
L 64.031916 -70.140617 
L 65.429912 -67.408814 
L 66.827908 -67.31746 
L 68.225903 -67.256931 
L 69.623899 -66.832074 
L 71.021895 -68.676773 
L 72.41989 -67.881082 
L 73.817886 -68.109663 
L 75.215882 -67.807871 
L 76.613878 -69.217639 
L 78.011873 -69.04529 
L 79.409869 -68.085765 
L 80.807865 -68.868594 
L 82.20586 -66.871947 
L 83.603856 -67.670276 
L 85.001852 -77.213788 
L 86.399847 -77.487308 
L 87.797843 -76.946461 
L 89.195839 -77.322611 
L 90.593835 -81.535336 
L 91.99183 -85.135542 
L 93.389826 -85.901061 
L 94.787822 -92.774238 
L 96.185817 -96.355746 
L 97.583813 -103.199749 
L 98.981809 -105.034892 
L 100.379804 -93.298194 
L 101.7778 -88.875663 
L 103.175796 -95.172272 
L 104.573792 -89.469454 
L 105.971787 -89.156029 
L 107.369783 -65.079604 
L 108.767779 -65.293175 
L 110.165774 -68.801906 
L 111.56377 -67.590385 
L 112.961766 -69.640643 
L 114.359762 -67.166659 
L 115.757757 -64.940897 
L 117.155753 -67.085102 
L 118.553749 -67.57116 
L 119.951744 -67.409833 
L 121.34974 -68.454879 
L 122.747736 -68.346403 
L 124.145731 -67.692428 
L 125.543727 -70.126085 
L 126.941723 -69.61042 
L 128.339719 -69.200422 
L 129.737714 -70.098861 
L 131.13571 -71.478974 
L 132.533706 -70.671329 
L 133.931701 -70.71924 
L 135.329697 -70.819974 
L 136.727693 -70.96266 
L 138.125689 -70.19579 
L 139.523684 -70.477805 
L 140.92168 -72.554106 
L 142.319676 -71.061153 
L 143.717671 -73.08592 
L 145.115667 -73.207942 
L 146.513663 -72.356093 
L 147.911658 -71.596636 
L 149.309654 -73.768766 
L 150.70765 -74.449496 
L 152.105646 -77.67195 
L 153.503641 -77.504349 
L 154.901637 -77.455216 
L 156.299633 -75.825258 
L 157.697628 -78.038993 
L 159.095624 -81.213374 
L 160.49362 -78.276574 
L 161.891616 -80.170837 
L 163.289611 -80.441571 
L 164.687607 -80.165059 
L 166.085603 -81.023976 
L 167.483598 -80.49695 
L 168.881594 -81.856992 
L 170.27959 -52.227035 
L 171.677585 -50.973877 
L 173.075581 -51.287764 
L 174.473577 -50.57286 
L 175.871573 -50.213864 
L 177.269568 -49.605675 
L 178.667564 -50.826833 
L 180.06556 -79.182034 
L 181.463555 -83.382452 
L 182.861551 -82.054697 
L 184.259547 -84.465927 
L 185.657543 -85.18736 
L 187.055538 -83.479116 
L 188.453534 -83.784082 
L 189.85153 -86.128307 
L 191.249525 -83.842927 
L 192.647521 -85.851319 
L 194.045517 -84.785175 
L 195.443512 -83.569112 
L 196.841508 -88.543539 
L 198.239504 -85.705039 
L 199.6375 -83.002652 
L 201.035495 -54.091233 
L 202.433491 -85.495153 
L 203.831487 -85.533525 
L 205.229482 -51.844558 
L 206.627478 -51.700625 
L 208.025474 -51.333335 
L 209.423469 -50.92973 
L 210.821465 -50.571967 
L 212.219461 -51.172285 
L 213.617457 -51.194489 
L 215.015452 -50.435035 
L 216.413448 -50.986091 
L 217.811444 -50.739585 
L 219.209439 -51.504393 
L 220.607435 -51.756913 
L 222.005431 -51.377922 
L 223.403427 -51.442046 
L 224.801422 -52.183848 
L 226.199418 -51.846481 
L 227.597414 -52.507059 
L 228.995409 -53.581693 
L 230.393405 -52.681722 
L 231.791401 -52.660589 
L 233.189396 -53.462016 
L 234.587392 -87.913364 
L 235.985388 -84.648105 
L 237.383384 -84.742183 
L 238.781379 -89.113927 
L 240.179375 -53.47608 
L 241.577371 -53.349216 
L 242.975366 -54.089396 
L 244.373362 -87.172639 
L 245.771358 -87.585392 
L 247.169354 -85.308363 
L 248.567349 -84.480676 
L 249.965345 -88.511156 
L 251.363341 -84.944815 
L 252.761336 -84.788155 
L 254.159332 -52.68588 
L 255.557328 -85.319438 
L 256.955323 -84.661431 
L 258.353319 -86.836012 
L 259.751315 -84.569871 
L 261.149311 -83.701418 
L 262.547306 -84.160394 
L 263.945302 -54.901798 
L 265.343298 -52.341877 
L 266.741293 -85.651824 
L 268.139289 -86.099311 
L 269.537285 -85.558486 
L 270.935281 -86.109995 
L 272.333276 -92.779849 
L 273.731272 -95.440199 
L 275.129268 -95.701045 
L 276.527263 -91.887186 
L 277.925259 -94.707232 
L 279.323255 -95.37162 
L 280.72125 -99.683054 
L 282.119246 -136.263608 
L 283.517242 -187.512749 
L 284.915238 -191.051875 
L 286.313233 -138.092353 
L 287.711229 -137.0192 
L 289.109225 -132.293351 
L 290.50722 -134.134598 
L 291.905216 -102.310102 
L 293.303212 -97.627257 
L 294.701207 -98.440332 
L 296.099203 -97.184611 
L 297.497199 -96.994514 
L 298.895195 -97.092236 
L 300.29319 -94.879218 
L 301.691186 -88.209964 
L 303.089182 -88.46893 
L 304.487177 -85.166378 
L 305.885173 -83.324093 
L 307.283169 -84.80036 
L 308.681165 -83.768174 
L 310.07916 -84.439928 
L 311.477156 -51.408325 
L 312.875152 -51.160838 
L 314.273147 -51.569596 
L 315.671143 -82.779423 
L 317.069139 -52.173295 
L 318.467134 -52.215109 
L 319.86513 -52.186329 
L 321.263126 -52.750334 
L 322.661122 -79.917899 
L 324.059117 -53.788409 
L 325.457113 -80.147412 
L 326.855109 -81.442879 
L 328.253104 -81.830836 
L 329.6511 -81.720067 
L 331.049096 -101.209455 
L 332.447092 -83.534868 
L 333.845087 -86.065625 
L 335.243083 -84.760201 
L 336.641079 -85.169374 
L 338.039074 -84.305933 
L 339.43707 -102.990032 
L 340.835066 -84.556864 
L 342.233061 -83.429029 
L 343.631057 -83.504998 
L 345.029053 -83.18868 
L 346.427049 -83.787849 
L 347.825044 -53.812419 
L 349.22304 -82.226941 
L 350.621036 -80.67465 
L 352.019031 -44.16061 
L 353.417027 -43.748271 
L 354.815023 -43.880574 
L 356.213019 -43.802373 
L 357.611014 -43.76773 
L 359.00901 -43.621177 
L 360.407006 -43.034155 
L 361.805001 -43.387888 
L 363.202997 -42.989282 
L 364.600993 -43.025231 
L 365.998988 -42.612805 
L 367.396984 -42.279694 
L 368.79498 -43.083623 
L 370.192976 -43.980473 
L 371.590971 -45.063914 
L 372.988967 -44.494888 
L 374.386963 -44.731677 
L 375.784958 -44.326153 
L 377.182954 -44.094877 
L 378.58095 -44.455161 
L 379.978946 -49.460757 
L 381.376941 -49.379104 
L 382.774937 -49.578444 
L 384.172933 -49.827016 
L 385.570928 -49.845734 
L 386.968924 -55.342031 
L 388.36692 -54.36708 
L 389.764915 -87.383399 
L 391.162911 -84.233097 
L 392.560907 -90.211341 
L 393.958903 -89.7998 
L 395.356898 -92.374144 
L 396.754894 -96.878098 
L 398.15289 -94.466412 
L 399.550885 -95.797904 
L 400.948881 -99.377543 
L 402.346877 -103.247513 
L 403.744872 -102.565869 
L 405.142868 -105.43489 
L 406.540864 -103.003645 
L 407.93886 -115.95489 
L 409.336855 -109.295298 
L 410.734851 -164.324875 
L 412.132847 -166.76711 
L 413.530842 -163.572091 
L 414.928838 -113.010211 
L 416.326834 -117.524956 
L 417.72483 -115.876436 
L 417.72483 -96.136645 
L 417.72483 -96.136645 
L 416.326834 -95.9196 
L 414.928838 -91.84497 
L 413.530842 -136.252253 
L 412.132847 -141.526947 
L 410.734851 -137.27232 
L 409.336855 -89.435518 
L 407.93886 -91.987504 
L 406.540864 -82.076146 
L 405.142868 -82.397413 
L 403.744872 -79.303183 
L 402.346877 -81.595159 
L 400.948881 -74.971877 
L 399.550885 -73.929227 
L 398.15289 -71.604076 
L 396.754894 -72.828988 
L 395.356898 -68.504838 
L 393.958903 -66.89628 
L 392.560907 -69.084012 
L 391.162911 -63.440053 
L 389.764915 -63.723631 
L 388.36692 -51.088785 
L 386.968924 -51.902769 
L 385.570928 -46.922407 
L 384.172933 -46.893473 
L 382.774937 -46.46835 
L 381.376941 -46.062008 
L 379.978946 -46.300897 
L 378.58095 -41.861462 
L 377.182954 -41.743568 
L 375.784958 -41.956957 
L 374.386963 -41.971144 
L 372.988967 -41.821552 
L 371.590971 -42.429979 
L 370.192976 -41.23694 
L 368.79498 -40.627992 
L 367.396984 -39.851875 
L 365.998988 -40.333616 
L 364.600993 -40.349425 
L 363.202997 -40.269351 
L 361.805001 -40.745756 
L 360.407006 -40.337602 
L 359.00901 -41.13315 
L 357.611014 -41.076788 
L 356.213019 -40.984856 
L 354.815023 -41.361787 
L 353.417027 -41.221275 
L 352.019031 -41.613902 
L 350.621036 -58.968173 
L 349.22304 -61.639271 
L 347.825044 -50.020095 
L 346.427049 -65.652469 
L 345.029053 -65.443082 
L 343.631057 -65.844475 
L 342.233061 -68.265743 
L 340.835066 -70.403896 
L 339.43707 -87.98317 
L 338.039074 -70.507205 
L 336.641079 -70.333794 
L 335.243083 -70.836503 
L 333.845087 -71.146482 
L 332.447092 -68.202278 
L 331.049096 -86.860419 
L 329.6511 -63.421099 
L 328.253104 -63.782827 
L 326.855109 -62.618636 
L 325.457113 -62.452332 
L 324.059117 -49.579782 
L 322.661122 -59.486015 
L 321.263126 -49.209014 
L 319.86513 -48.682956 
L 318.467134 -49.23785 
L 317.069139 -48.578952 
L 315.671143 -60.869309 
L 314.273147 -48.266767 
L 312.875152 -47.77729 
L 311.477156 -47.677872 
L 310.07916 -64.699137 
L 308.681165 -63.536472 
L 307.283169 -64.46525 
L 305.885173 -63.103922 
L 304.487177 -65.525158 
L 303.089182 -68.689338 
L 301.691186 -69.578943 
L 300.29319 -75.346315 
L 298.895195 -77.319623 
L 297.497199 -78.306191 
L 296.099203 -78.74834 
L 294.701207 -80.349746 
L 293.303212 -79.506298 
L 291.905216 -84.124026 
L 290.50722 -112.501126 
L 289.109225 -111.504336 
L 287.711229 -117.063771 
L 286.313233 -119.34864 
L 284.915238 -150.732106 
L 283.517242 -151.573728 
L 282.119246 -117.210455 
L 280.72125 -82.293884 
L 279.323255 -76.208489 
L 277.925259 -76.039213 
L 276.527263 -72.247978 
L 275.129268 -74.970981 
L 273.731272 -77.672417 
L 272.333276 -73.311576 
L 270.935281 -66.06575 
L 269.537285 -67.171068 
L 268.139289 -63.79808 
L 266.741293 -64.039285 
L 265.343298 -48.701175 
L 263.945302 -51.091405 
L 262.547306 -63.839045 
L 261.149311 -61.68533 
L 259.751315 -61.737599 
L 258.353319 -61.435968 
L 256.955323 -63.527444 
L 255.557328 -61.068072 
L 254.159332 -49.602461 
L 252.761336 -61.564275 
L 251.363341 -63.169248 
L 249.965345 -64.69234 
L 248.567349 -61.054213 
L 247.169354 -62.551121 
L 245.771358 -64.489016 
L 244.373362 -63.477059 
L 242.975366 -50.664083 
L 241.577371 -50.20689 
L 240.179375 -49.993398 
L 238.781379 -62.741722 
L 237.383384 -61.854804 
L 235.985388 -62.357442 
L 234.587392 -64.946903 
L 233.189396 -49.818842 
L 231.791401 -49.885413 
L 230.393405 -49.494742 
L 228.995409 -50.214912 
L 227.597414 -49.08677 
L 226.199418 -48.867861 
L 224.801422 -48.604664 
L 223.403427 -48.207483 
L 222.005431 -48.277871 
L 220.607435 -48.500621 
L 219.209439 -48.071604 
L 217.811444 -47.593714 
L 216.413448 -47.906288 
L 215.015452 -47.163524 
L 213.617457 -47.679553 
L 212.219461 -47.735471 
L 210.821465 -47.744337 
L 209.423469 -47.57526 
L 208.025474 -47.928175 
L 206.627478 -48.4191 
L 205.229482 -48.967387 
L 203.831487 -62.298705 
L 202.433491 -61.845673 
L 201.035495 -50.683441 
L 199.6375 -61.354081 
L 198.239504 -63.174072 
L 196.841508 -63.947179 
L 195.443512 -62.294149 
L 194.045517 -60.99562 
L 192.647521 -62.120821 
L 191.249525 -61.083103 
L 189.85153 -62.503107 
L 188.453534 -59.939286 
L 187.055538 -62.685153 
L 185.657543 -62.536098 
L 184.259547 -63.147976 
L 182.861551 -60.251679 
L 181.463555 -61.044665 
L 180.06556 -58.735741 
L 178.667564 -47.311472 
L 177.269568 -46.64219 
L 175.871573 -47.04118 
L 174.473577 -47.156543 
L 173.075581 -47.63845 
L 171.677585 -47.808703 
L 170.27959 -48.561439 
L 168.881594 -60.788442 
L 167.483598 -58.9953 
L 166.085603 -61.755029 
L 164.687607 -60.366497 
L 163.289611 -62.536647 
L 161.891616 -61.136369 
L 160.49362 -59.766735 
L 159.095624 -62.193782 
L 157.697628 -59.840602 
L 156.299633 -59.639518 
L 154.901637 -62.896519 
L 153.503641 -60.593581 
L 152.105646 -61.144559 
L 150.70765 -59.026511 
L 149.309654 -57.844198 
L 147.911658 -55.332542 
L 146.513663 -55.419273 
L 145.115667 -55.516756 
L 143.717671 -55.124112 
L 142.319676 -54.662316 
L 140.92168 -56.042315 
L 139.523684 -56.359189 
L 138.125689 -55.455221 
L 136.727693 -56.681459 
L 135.329697 -55.078145 
L 133.931701 -55.464665 
L 132.533706 -55.661722 
L 131.13571 -56.701049 
L 129.737714 -55.88177 
L 128.339719 -56.090201 
L 126.941723 -55.56589 
L 125.543727 -54.706048 
L 124.145731 -54.519413 
L 122.747736 -54.385379 
L 121.34974 -55.636616 
L 119.951744 -55.186402 
L 118.553749 -55.19693 
L 117.155753 -55.68956 
L 115.757757 -56.22857 
L 114.359762 -56.67456 
L 112.961766 -57.818638 
L 111.56377 -54.875277 
L 110.165774 -57.634235 
L 108.767779 -54.548334 
L 107.369783 -56.043911 
L 105.971787 -74.183675 
L 104.573792 -76.304198 
L 103.175796 -79.976459 
L 101.7778 -74.587083 
L 100.379804 -79.253644 
L 98.981809 -89.430728 
L 97.583813 -87.922324 
L 96.185817 -80.138488 
L 94.787822 -79.898158 
L 93.389826 -73.824672 
L 91.99183 -73.489102 
L 90.593835 -70.736364 
L 89.195839 -63.861312 
L 87.797843 -64.168033 
L 86.399847 -63.741699 
L 85.001852 -64.989215 
L 83.603856 -56.775274 
L 82.20586 -55.97859 
L 80.807865 -55.289551 
L 79.409869 -55.995516 
L 78.011873 -54.907416 
L 76.613878 -56.270798 
L 75.215882 -55.499125 
L 73.817886 -55.580538 
L 72.41989 -55.245299 
L 71.021895 -56.076056 
L 69.623899 -54.609624 
L 68.225903 -55.958012 
L 66.827908 -56.117613 
L 65.429912 -56.977927 
L 64.031916 -58.462746 
L 62.63392 -55.592468 
z
" style="stroke: #ffb612; stroke-opacity: 0.5; stroke-width: 0.5"/>
    </defs>
    <g clip-path="url(#p979bce3f3a)">
     <use xlink:href="#mcc84ddaba7" x="0" y="198.611875" style="fill: #ffb612; fill-opacity: 0.5; stroke: #ffb612; stroke-opacity: 0.5; stroke-width: 0.5"/>
    </g>
   </g>
   <g id="line2d_29">
    <path d="M 62.63392 136.594526 
L 64.031916 134.310194 
L 65.429912 136.418505 
L 66.827908 136.894338 
L 68.225903 137.004404 
L 69.623899 137.891026 
L 71.021895 136.23546 
L 72.41989 137.048685 
L 73.817886 136.766775 
L 75.215882 136.958377 
L 76.613878 135.867656 
L 78.011873 136.635522 
L 80.807865 136.532803 
L 82.20586 137.186606 
L 83.603856 136.3891 
L 85.001852 127.510373 
L 86.399847 127.997371 
L 89.195839 128.019913 
L 90.593835 122.476025 
L 91.99183 119.299553 
L 93.389826 118.749008 
L 94.787822 112.275677 
L 96.185817 110.364758 
L 97.583813 103.050838 
L 98.981809 101.379065 
L 100.379804 112.335956 
L 101.7778 116.880502 
L 103.175796 111.03751 
L 104.573792 115.725049 
L 105.971787 116.942023 
L 107.369783 138.050117 
L 108.767779 138.691121 
L 110.165774 135.393805 
L 111.56377 137.379044 
L 112.961766 134.882235 
L 114.359762 136.691265 
L 115.757757 138.027142 
L 117.155753 137.224544 
L 119.951744 137.313757 
L 121.34974 136.566128 
L 122.747736 137.245984 
L 124.145731 137.505955 
L 125.543727 136.195809 
L 126.941723 136.02372 
L 128.339719 135.966564 
L 129.737714 135.621559 
L 131.13571 134.521864 
L 132.533706 135.445349 
L 135.329697 135.662816 
L 136.727693 134.789816 
L 138.125689 135.786369 
L 139.523684 135.193378 
L 140.92168 134.313665 
L 142.319676 135.750141 
L 143.717671 134.506859 
L 145.115667 134.249526 
L 147.911658 135.147286 
L 149.309654 132.805393 
L 150.70765 131.873871 
L 152.105646 129.203621 
L 153.503641 129.56291 
L 154.901637 128.436008 
L 156.299633 130.879487 
L 157.697628 129.672077 
L 159.095624 126.908297 
L 160.49362 129.590221 
L 161.891616 127.958272 
L 163.289611 127.122766 
L 164.687607 128.346097 
L 166.085603 127.222373 
L 167.483598 128.86575 
L 168.881594 127.289158 
L 170.27959 148.217638 
L 171.677585 149.220585 
L 173.075581 149.148768 
L 174.473577 149.747174 
L 175.871573 149.984353 
L 177.269568 150.487942 
L 178.667564 149.542722 
L 180.06556 129.652988 
L 181.463555 126.398317 
L 182.861551 127.458687 
L 184.259547 124.804924 
L 185.657543 124.750146 
L 187.055538 125.52974 
L 188.453534 126.750191 
L 189.85153 124.296168 
L 191.249525 126.14886 
L 192.647521 124.625805 
L 194.045517 125.721477 
L 195.443512 125.680245 
L 196.841508 122.366516 
L 198.239504 124.172319 
L 199.6375 126.433509 
L 201.035495 146.224538 
L 202.433491 124.941462 
L 203.831487 124.69576 
L 205.229482 148.205903 
L 208.025474 148.98112 
L 209.423469 149.35938 
L 210.821465 149.453723 
L 212.219461 149.157997 
L 213.617457 149.174854 
L 215.015452 149.812596 
L 216.413448 149.165686 
L 217.811444 149.445225 
L 219.209439 148.823876 
L 220.607435 148.483108 
L 222.005431 148.783979 
L 223.403427 148.78711 
L 224.801422 148.217619 
L 226.199418 148.254704 
L 227.597414 147.81496 
L 228.995409 146.713573 
L 230.393405 147.523643 
L 231.791401 147.338874 
L 233.189396 146.971446 
L 234.587392 122.181741 
L 235.985388 125.109102 
L 237.383384 125.313381 
L 238.781379 122.684051 
L 240.179375 146.877136 
L 241.577371 146.833822 
L 242.975366 146.235136 
L 244.373362 123.287026 
L 245.771358 122.574671 
L 247.169354 124.682133 
L 248.567349 125.844431 
L 249.965345 122.010127 
L 251.363341 124.554844 
L 252.761336 125.43566 
L 254.159332 147.467704 
L 255.557328 125.41812 
L 256.955323 124.517437 
L 258.353319 124.475885 
L 259.751315 125.45814 
L 261.149311 125.918501 
L 262.547306 124.612155 
L 263.945302 145.615273 
L 265.343298 148.090349 
L 266.741293 123.766321 
L 268.139289 123.66318 
L 269.537285 122.247098 
L 270.935281 122.524002 
L 272.333276 115.566162 
L 273.731272 112.055567 
L 275.129268 113.275862 
L 276.527263 116.544293 
L 277.925259 113.238653 
L 279.323255 112.82182 
L 280.72125 107.623406 
L 282.119246 71.874843 
L 283.517242 29.068637 
L 284.915238 27.719884 
L 286.313233 69.891378 
L 287.711229 71.570389 
L 289.109225 76.713032 
L 290.50722 75.294013 
L 291.905216 105.394811 
L 293.303212 110.045098 
L 294.701207 109.216836 
L 296.099203 110.6454 
L 297.497199 110.961523 
L 298.895195 111.405945 
L 300.29319 113.499109 
L 301.691186 119.717422 
L 303.089182 120.032741 
L 304.487177 123.266107 
L 305.885173 125.397868 
L 307.283169 123.97907 
L 308.681165 124.959552 
L 310.07916 124.042343 
L 311.477156 149.068777 
L 312.875152 149.142811 
L 314.273147 148.693694 
L 315.671143 126.787509 
L 317.069139 148.235752 
L 318.467134 147.885396 
L 319.86513 148.177232 
L 321.263126 147.632201 
L 322.661122 128.909918 
L 324.059117 146.927779 
L 325.457113 127.312003 
L 328.253104 125.805043 
L 329.6511 126.041292 
L 331.049096 104.576938 
L 332.447092 122.743302 
L 333.845087 120.005821 
L 335.243083 120.813523 
L 336.641079 120.860291 
L 338.039074 121.205306 
L 339.43707 103.125274 
L 340.835066 121.131495 
L 342.233061 122.764489 
L 343.631057 123.937138 
L 345.029053 124.295994 
L 346.427049 123.891716 
L 347.825044 146.695618 
L 349.22304 126.678769 
L 350.621036 128.790463 
L 352.019031 155.724619 
L 353.417027 156.127102 
L 354.815023 155.990694 
L 356.213019 156.21826 
L 359.00901 156.234712 
L 360.407006 156.925996 
L 361.805001 156.545053 
L 363.202997 156.982559 
L 364.600993 156.924547 
L 365.998988 157.138665 
L 367.396984 157.54609 
L 370.192976 156.003169 
L 371.590971 154.864929 
L 372.988967 155.453655 
L 374.386963 155.260465 
L 377.182954 155.692653 
L 378.58095 155.453563 
L 379.978946 150.731048 
L 381.376941 150.891319 
L 384.172933 150.251631 
L 385.570928 150.227805 
L 386.968924 144.989475 
L 388.36692 145.883942 
L 389.764915 123.05836 
L 391.162911 124.7753 
L 392.560907 118.964199 
L 393.958903 120.263835 
L 395.356898 118.172384 
L 396.754894 113.758332 
L 398.15289 115.576631 
L 399.550885 113.74831 
L 400.948881 111.437165 
L 402.346877 106.190539 
L 403.744872 107.677349 
L 405.142868 104.695724 
L 406.540864 106.071979 
L 407.93886 94.640678 
L 409.336855 99.246467 
L 410.734851 47.813278 
L 412.132847 44.464847 
L 413.530842 48.699703 
L 414.928838 96.184285 
L 416.326834 91.889597 
L 417.72483 92.605335 
L 417.72483 92.605335 
" clip-path="url(#p979bce3f3a)" style="fill: none; stroke: #ffb612; stroke-width: 3; stroke-linecap: square"/>
    <defs>
     <path id="m9e8c4f67a4" d="M 0 1.5 
C 0.397805 1.5 0.77937 1.341951 1.06066 1.06066 
C 1.341951 0.77937 1.5 0.397805 1.5 0 
C 1.5 -0.397805 1.341951 -0.77937 1.06066 -1.06066 
C 0.77937 -1.341951 0.397805 -1.5 0 -1.5 
C -0.397805 -1.5 -0.77937 -1.341951 -1.06066 -1.06066 
C -1.341951 -0.77937 -1.5 -0.397805 -1.5 0 
C -1.5 0.397805 -1.341951 0.77937 -1.06066 1.06066 
C -0.77937 1.341951 -0.397805 1.5 0 1.5 
z
" style="stroke: #ffb612"/>
    </defs>
    <g clip-path="url(#p979bce3f3a)">
     <use xlink:href="#m9e8c4f67a4" x="62.63392" y="136.594526" style="fill: #ffb612; stroke: #ffb612"/>
     <use xlink:href="#m9e8c4f67a4" x="64.031916" y="134.310194" style="fill: #ffb612; stroke: #ffb612"/>
     <use xlink:href="#m9e8c4f67a4" x="65.429912" y="136.418505" style="fill: #ffb612; stroke: #ffb612"/>
     <use xlink:href="#m9e8c4f67a4" x="66.827908" y="136.894338" style="fill: #ffb612; stroke: #ffb612"/>
     <use xlink:href="#m9e8c4f67a4" x="68.225903" y="137.004404" style="fill: #ffb612; stroke: #ffb612"/>
     <use xlink:href="#m9e8c4f67a4" x="69.623899" y="137.891026" style="fill: #ffb612; stroke: #ffb612"/>
     <use xlink:href="#m9e8c4f67a4" x="71.021895" y="136.23546" style="fill: #ffb612; stroke: #ffb612"/>
     <use xlink:href="#m9e8c4f67a4" x="72.41989" y="137.048685" style="fill: #ffb612; stroke: #ffb612"/>
     <use xlink:href="#m9e8c4f67a4" x="73.817886" y="136.766775" style="fill: #ffb612; stroke: #ffb612"/>
     <use xlink:href="#m9e8c4f67a4" x="75.215882" y="136.958377" style="fill: #ffb612; stroke: #ffb612"/>
     <use xlink:href="#m9e8c4f67a4" x="76.613878" y="135.867656" style="fill: #ffb612; stroke: #ffb612"/>
     <use xlink:href="#m9e8c4f67a4" x="78.011873" y="136.635522" style="fill: #ffb612; stroke: #ffb612"/>
     <use xlink:href="#m9e8c4f67a4" x="79.409869" y="136.571234" style="fill: #ffb612; stroke: #ffb612"/>
     <use xlink:href="#m9e8c4f67a4" x="80.807865" y="136.532803" style="fill: #ffb612; stroke: #ffb612"/>
     <use xlink:href="#m9e8c4f67a4" x="82.20586" y="137.186606" style="fill: #ffb612; stroke: #ffb612"/>
     <use xlink:href="#m9e8c4f67a4" x="83.603856" y="136.3891" style="fill: #ffb612; stroke: #ffb612"/>
     <use xlink:href="#m9e8c4f67a4" x="85.001852" y="127.510373" style="fill: #ffb612; stroke: #ffb612"/>
     <use xlink:href="#m9e8c4f67a4" x="86.399847" y="127.997371" style="fill: #ffb612; stroke: #ffb612"/>
     <use xlink:href="#m9e8c4f67a4" x="87.797843" y="128.054628" style="fill: #ffb612; stroke: #ffb612"/>
     <use xlink:href="#m9e8c4f67a4" x="89.195839" y="128.019913" style="fill: #ffb612; stroke: #ffb612"/>
     <use xlink:href="#m9e8c4f67a4" x="90.593835" y="122.476025" style="fill: #ffb612; stroke: #ffb612"/>
     <use xlink:href="#m9e8c4f67a4" x="91.99183" y="119.299553" style="fill: #ffb612; stroke: #ffb612"/>
     <use xlink:href="#m9e8c4f67a4" x="93.389826" y="118.749008" style="fill: #ffb612; stroke: #ffb612"/>
     <use xlink:href="#m9e8c4f67a4" x="94.787822" y="112.275677" style="fill: #ffb612; stroke: #ffb612"/>
     <use xlink:href="#m9e8c4f67a4" x="96.185817" y="110.364758" style="fill: #ffb612; stroke: #ffb612"/>
     <use xlink:href="#m9e8c4f67a4" x="97.583813" y="103.050838" style="fill: #ffb612; stroke: #ffb612"/>
     <use xlink:href="#m9e8c4f67a4" x="98.981809" y="101.379065" style="fill: #ffb612; stroke: #ffb612"/>
     <use xlink:href="#m9e8c4f67a4" x="100.379804" y="112.335956" style="fill: #ffb612; stroke: #ffb612"/>
     <use xlink:href="#m9e8c4f67a4" x="101.7778" y="116.880502" style="fill: #ffb612; stroke: #ffb612"/>
     <use xlink:href="#m9e8c4f67a4" x="103.175796" y="111.03751" style="fill: #ffb612; stroke: #ffb612"/>
     <use xlink:href="#m9e8c4f67a4" x="104.573792" y="115.725049" style="fill: #ffb612; stroke: #ffb612"/>
     <use xlink:href="#m9e8c4f67a4" x="105.971787" y="116.942023" style="fill: #ffb612; stroke: #ffb612"/>
     <use xlink:href="#m9e8c4f67a4" x="107.369783" y="138.050117" style="fill: #ffb612; stroke: #ffb612"/>
     <use xlink:href="#m9e8c4f67a4" x="108.767779" y="138.691121" style="fill: #ffb612; stroke: #ffb612"/>
     <use xlink:href="#m9e8c4f67a4" x="110.165774" y="135.393805" style="fill: #ffb612; stroke: #ffb612"/>
     <use xlink:href="#m9e8c4f67a4" x="111.56377" y="137.379044" style="fill: #ffb612; stroke: #ffb612"/>
     <use xlink:href="#m9e8c4f67a4" x="112.961766" y="134.882235" style="fill: #ffb612; stroke: #ffb612"/>
     <use xlink:href="#m9e8c4f67a4" x="114.359762" y="136.691265" style="fill: #ffb612; stroke: #ffb612"/>
     <use xlink:href="#m9e8c4f67a4" x="115.757757" y="138.027142" style="fill: #ffb612; stroke: #ffb612"/>
     <use xlink:href="#m9e8c4f67a4" x="117.155753" y="137.224544" style="fill: #ffb612; stroke: #ffb612"/>
     <use xlink:href="#m9e8c4f67a4" x="118.553749" y="137.22783" style="fill: #ffb612; stroke: #ffb612"/>
     <use xlink:href="#m9e8c4f67a4" x="119.951744" y="137.313757" style="fill: #ffb612; stroke: #ffb612"/>
     <use xlink:href="#m9e8c4f67a4" x="121.34974" y="136.566128" style="fill: #ffb612; stroke: #ffb612"/>
     <use xlink:href="#m9e8c4f67a4" x="122.747736" y="137.245984" style="fill: #ffb612; stroke: #ffb612"/>
     <use xlink:href="#m9e8c4f67a4" x="124.145731" y="137.505955" style="fill: #ffb612; stroke: #ffb612"/>
     <use xlink:href="#m9e8c4f67a4" x="125.543727" y="136.195809" style="fill: #ffb612; stroke: #ffb612"/>
     <use xlink:href="#m9e8c4f67a4" x="126.941723" y="136.02372" style="fill: #ffb612; stroke: #ffb612"/>
     <use xlink:href="#m9e8c4f67a4" x="128.339719" y="135.966564" style="fill: #ffb612; stroke: #ffb612"/>
     <use xlink:href="#m9e8c4f67a4" x="129.737714" y="135.621559" style="fill: #ffb612; stroke: #ffb612"/>
     <use xlink:href="#m9e8c4f67a4" x="131.13571" y="134.521864" style="fill: #ffb612; stroke: #ffb612"/>
     <use xlink:href="#m9e8c4f67a4" x="132.533706" y="135.445349" style="fill: #ffb612; stroke: #ffb612"/>
     <use xlink:href="#m9e8c4f67a4" x="133.931701" y="135.519923" style="fill: #ffb612; stroke: #ffb612"/>
     <use xlink:href="#m9e8c4f67a4" x="135.329697" y="135.662816" style="fill: #ffb612; stroke: #ffb612"/>
     <use xlink:href="#m9e8c4f67a4" x="136.727693" y="134.789816" style="fill: #ffb612; stroke: #ffb612"/>
     <use xlink:href="#m9e8c4f67a4" x="138.125689" y="135.786369" style="fill: #ffb612; stroke: #ffb612"/>
     <use xlink:href="#m9e8c4f67a4" x="139.523684" y="135.193378" style="fill: #ffb612; stroke: #ffb612"/>
     <use xlink:href="#m9e8c4f67a4" x="140.92168" y="134.313665" style="fill: #ffb612; stroke: #ffb612"/>
     <use xlink:href="#m9e8c4f67a4" x="142.319676" y="135.750141" style="fill: #ffb612; stroke: #ffb612"/>
     <use xlink:href="#m9e8c4f67a4" x="143.717671" y="134.506859" style="fill: #ffb612; stroke: #ffb612"/>
     <use xlink:href="#m9e8c4f67a4" x="145.115667" y="134.249526" style="fill: #ffb612; stroke: #ffb612"/>
     <use xlink:href="#m9e8c4f67a4" x="146.513663" y="134.724192" style="fill: #ffb612; stroke: #ffb612"/>
     <use xlink:href="#m9e8c4f67a4" x="147.911658" y="135.147286" style="fill: #ffb612; stroke: #ffb612"/>
     <use xlink:href="#m9e8c4f67a4" x="149.309654" y="132.805393" style="fill: #ffb612; stroke: #ffb612"/>
     <use xlink:href="#m9e8c4f67a4" x="150.70765" y="131.873871" style="fill: #ffb612; stroke: #ffb612"/>
     <use xlink:href="#m9e8c4f67a4" x="152.105646" y="129.203621" style="fill: #ffb612; stroke: #ffb612"/>
     <use xlink:href="#m9e8c4f67a4" x="153.503641" y="129.56291" style="fill: #ffb612; stroke: #ffb612"/>
     <use xlink:href="#m9e8c4f67a4" x="154.901637" y="128.436008" style="fill: #ffb612; stroke: #ffb612"/>
     <use xlink:href="#m9e8c4f67a4" x="156.299633" y="130.879487" style="fill: #ffb612; stroke: #ffb612"/>
     <use xlink:href="#m9e8c4f67a4" x="157.697628" y="129.672077" style="fill: #ffb612; stroke: #ffb612"/>
     <use xlink:href="#m9e8c4f67a4" x="159.095624" y="126.908297" style="fill: #ffb612; stroke: #ffb612"/>
     <use xlink:href="#m9e8c4f67a4" x="160.49362" y="129.590221" style="fill: #ffb612; stroke: #ffb612"/>
     <use xlink:href="#m9e8c4f67a4" x="161.891616" y="127.958272" style="fill: #ffb612; stroke: #ffb612"/>
     <use xlink:href="#m9e8c4f67a4" x="163.289611" y="127.122766" style="fill: #ffb612; stroke: #ffb612"/>
     <use xlink:href="#m9e8c4f67a4" x="164.687607" y="128.346097" style="fill: #ffb612; stroke: #ffb612"/>
     <use xlink:href="#m9e8c4f67a4" x="166.085603" y="127.222373" style="fill: #ffb612; stroke: #ffb612"/>
     <use xlink:href="#m9e8c4f67a4" x="167.483598" y="128.86575" style="fill: #ffb612; stroke: #ffb612"/>
     <use xlink:href="#m9e8c4f67a4" x="168.881594" y="127.289158" style="fill: #ffb612; stroke: #ffb612"/>
     <use xlink:href="#m9e8c4f67a4" x="170.27959" y="148.217638" style="fill: #ffb612; stroke: #ffb612"/>
     <use xlink:href="#m9e8c4f67a4" x="171.677585" y="149.220585" style="fill: #ffb612; stroke: #ffb612"/>
     <use xlink:href="#m9e8c4f67a4" x="173.075581" y="149.148768" style="fill: #ffb612; stroke: #ffb612"/>
     <use xlink:href="#m9e8c4f67a4" x="174.473577" y="149.747174" style="fill: #ffb612; stroke: #ffb612"/>
     <use xlink:href="#m9e8c4f67a4" x="175.871573" y="149.984353" style="fill: #ffb612; stroke: #ffb612"/>
     <use xlink:href="#m9e8c4f67a4" x="177.269568" y="150.487942" style="fill: #ffb612; stroke: #ffb612"/>
     <use xlink:href="#m9e8c4f67a4" x="178.667564" y="149.542722" style="fill: #ffb612; stroke: #ffb612"/>
     <use xlink:href="#m9e8c4f67a4" x="180.06556" y="129.652988" style="fill: #ffb612; stroke: #ffb612"/>
     <use xlink:href="#m9e8c4f67a4" x="181.463555" y="126.398317" style="fill: #ffb612; stroke: #ffb612"/>
     <use xlink:href="#m9e8c4f67a4" x="182.861551" y="127.458687" style="fill: #ffb612; stroke: #ffb612"/>
     <use xlink:href="#m9e8c4f67a4" x="184.259547" y="124.804924" style="fill: #ffb612; stroke: #ffb612"/>
     <use xlink:href="#m9e8c4f67a4" x="185.657543" y="124.750146" style="fill: #ffb612; stroke: #ffb612"/>
     <use xlink:href="#m9e8c4f67a4" x="187.055538" y="125.52974" style="fill: #ffb612; stroke: #ffb612"/>
     <use xlink:href="#m9e8c4f67a4" x="188.453534" y="126.750191" style="fill: #ffb612; stroke: #ffb612"/>
     <use xlink:href="#m9e8c4f67a4" x="189.85153" y="124.296168" style="fill: #ffb612; stroke: #ffb612"/>
     <use xlink:href="#m9e8c4f67a4" x="191.249525" y="126.14886" style="fill: #ffb612; stroke: #ffb612"/>
     <use xlink:href="#m9e8c4f67a4" x="192.647521" y="124.625805" style="fill: #ffb612; stroke: #ffb612"/>
     <use xlink:href="#m9e8c4f67a4" x="194.045517" y="125.721477" style="fill: #ffb612; stroke: #ffb612"/>
     <use xlink:href="#m9e8c4f67a4" x="195.443512" y="125.680245" style="fill: #ffb612; stroke: #ffb612"/>
     <use xlink:href="#m9e8c4f67a4" x="196.841508" y="122.366516" style="fill: #ffb612; stroke: #ffb612"/>
     <use xlink:href="#m9e8c4f67a4" x="198.239504" y="124.172319" style="fill: #ffb612; stroke: #ffb612"/>
     <use xlink:href="#m9e8c4f67a4" x="199.6375" y="126.433509" style="fill: #ffb612; stroke: #ffb612"/>
     <use xlink:href="#m9e8c4f67a4" x="201.035495" y="146.224538" style="fill: #ffb612; stroke: #ffb612"/>
     <use xlink:href="#m9e8c4f67a4" x="202.433491" y="124.941462" style="fill: #ffb612; stroke: #ffb612"/>
     <use xlink:href="#m9e8c4f67a4" x="203.831487" y="124.69576" style="fill: #ffb612; stroke: #ffb612"/>
     <use xlink:href="#m9e8c4f67a4" x="205.229482" y="148.205903" style="fill: #ffb612; stroke: #ffb612"/>
     <use xlink:href="#m9e8c4f67a4" x="206.627478" y="148.552012" style="fill: #ffb612; stroke: #ffb612"/>
     <use xlink:href="#m9e8c4f67a4" x="208.025474" y="148.98112" style="fill: #ffb612; stroke: #ffb612"/>
     <use xlink:href="#m9e8c4f67a4" x="209.423469" y="149.35938" style="fill: #ffb612; stroke: #ffb612"/>
     <use xlink:href="#m9e8c4f67a4" x="210.821465" y="149.453723" style="fill: #ffb612; stroke: #ffb612"/>
     <use xlink:href="#m9e8c4f67a4" x="212.219461" y="149.157997" style="fill: #ffb612; stroke: #ffb612"/>
     <use xlink:href="#m9e8c4f67a4" x="213.617457" y="149.174854" style="fill: #ffb612; stroke: #ffb612"/>
     <use xlink:href="#m9e8c4f67a4" x="215.015452" y="149.812596" style="fill: #ffb612; stroke: #ffb612"/>
     <use xlink:href="#m9e8c4f67a4" x="216.413448" y="149.165686" style="fill: #ffb612; stroke: #ffb612"/>
     <use xlink:href="#m9e8c4f67a4" x="217.811444" y="149.445225" style="fill: #ffb612; stroke: #ffb612"/>
     <use xlink:href="#m9e8c4f67a4" x="219.209439" y="148.823876" style="fill: #ffb612; stroke: #ffb612"/>
     <use xlink:href="#m9e8c4f67a4" x="220.607435" y="148.483108" style="fill: #ffb612; stroke: #ffb612"/>
     <use xlink:href="#m9e8c4f67a4" x="222.005431" y="148.783979" style="fill: #ffb612; stroke: #ffb612"/>
     <use xlink:href="#m9e8c4f67a4" x="223.403427" y="148.78711" style="fill: #ffb612; stroke: #ffb612"/>
     <use xlink:href="#m9e8c4f67a4" x="224.801422" y="148.217619" style="fill: #ffb612; stroke: #ffb612"/>
     <use xlink:href="#m9e8c4f67a4" x="226.199418" y="148.254704" style="fill: #ffb612; stroke: #ffb612"/>
     <use xlink:href="#m9e8c4f67a4" x="227.597414" y="147.81496" style="fill: #ffb612; stroke: #ffb612"/>
     <use xlink:href="#m9e8c4f67a4" x="228.995409" y="146.713573" style="fill: #ffb612; stroke: #ffb612"/>
     <use xlink:href="#m9e8c4f67a4" x="230.393405" y="147.523643" style="fill: #ffb612; stroke: #ffb612"/>
     <use xlink:href="#m9e8c4f67a4" x="231.791401" y="147.338874" style="fill: #ffb612; stroke: #ffb612"/>
     <use xlink:href="#m9e8c4f67a4" x="233.189396" y="146.971446" style="fill: #ffb612; stroke: #ffb612"/>
     <use xlink:href="#m9e8c4f67a4" x="234.587392" y="122.181741" style="fill: #ffb612; stroke: #ffb612"/>
     <use xlink:href="#m9e8c4f67a4" x="235.985388" y="125.109102" style="fill: #ffb612; stroke: #ffb612"/>
     <use xlink:href="#m9e8c4f67a4" x="237.383384" y="125.313381" style="fill: #ffb612; stroke: #ffb612"/>
     <use xlink:href="#m9e8c4f67a4" x="238.781379" y="122.684051" style="fill: #ffb612; stroke: #ffb612"/>
     <use xlink:href="#m9e8c4f67a4" x="240.179375" y="146.877136" style="fill: #ffb612; stroke: #ffb612"/>
     <use xlink:href="#m9e8c4f67a4" x="241.577371" y="146.833822" style="fill: #ffb612; stroke: #ffb612"/>
     <use xlink:href="#m9e8c4f67a4" x="242.975366" y="146.235136" style="fill: #ffb612; stroke: #ffb612"/>
     <use xlink:href="#m9e8c4f67a4" x="244.373362" y="123.287026" style="fill: #ffb612; stroke: #ffb612"/>
     <use xlink:href="#m9e8c4f67a4" x="245.771358" y="122.574671" style="fill: #ffb612; stroke: #ffb612"/>
     <use xlink:href="#m9e8c4f67a4" x="247.169354" y="124.682133" style="fill: #ffb612; stroke: #ffb612"/>
     <use xlink:href="#m9e8c4f67a4" x="248.567349" y="125.844431" style="fill: #ffb612; stroke: #ffb612"/>
     <use xlink:href="#m9e8c4f67a4" x="249.965345" y="122.010127" style="fill: #ffb612; stroke: #ffb612"/>
     <use xlink:href="#m9e8c4f67a4" x="251.363341" y="124.554844" style="fill: #ffb612; stroke: #ffb612"/>
     <use xlink:href="#m9e8c4f67a4" x="252.761336" y="125.43566" style="fill: #ffb612; stroke: #ffb612"/>
     <use xlink:href="#m9e8c4f67a4" x="254.159332" y="147.467704" style="fill: #ffb612; stroke: #ffb612"/>
     <use xlink:href="#m9e8c4f67a4" x="255.557328" y="125.41812" style="fill: #ffb612; stroke: #ffb612"/>
     <use xlink:href="#m9e8c4f67a4" x="256.955323" y="124.517437" style="fill: #ffb612; stroke: #ffb612"/>
     <use xlink:href="#m9e8c4f67a4" x="258.353319" y="124.475885" style="fill: #ffb612; stroke: #ffb612"/>
     <use xlink:href="#m9e8c4f67a4" x="259.751315" y="125.45814" style="fill: #ffb612; stroke: #ffb612"/>
     <use xlink:href="#m9e8c4f67a4" x="261.149311" y="125.918501" style="fill: #ffb612; stroke: #ffb612"/>
     <use xlink:href="#m9e8c4f67a4" x="262.547306" y="124.612155" style="fill: #ffb612; stroke: #ffb612"/>
     <use xlink:href="#m9e8c4f67a4" x="263.945302" y="145.615273" style="fill: #ffb612; stroke: #ffb612"/>
     <use xlink:href="#m9e8c4f67a4" x="265.343298" y="148.090349" style="fill: #ffb612; stroke: #ffb612"/>
     <use xlink:href="#m9e8c4f67a4" x="266.741293" y="123.766321" style="fill: #ffb612; stroke: #ffb612"/>
     <use xlink:href="#m9e8c4f67a4" x="268.139289" y="123.66318" style="fill: #ffb612; stroke: #ffb612"/>
     <use xlink:href="#m9e8c4f67a4" x="269.537285" y="122.247098" style="fill: #ffb612; stroke: #ffb612"/>
     <use xlink:href="#m9e8c4f67a4" x="270.935281" y="122.524002" style="fill: #ffb612; stroke: #ffb612"/>
     <use xlink:href="#m9e8c4f67a4" x="272.333276" y="115.566162" style="fill: #ffb612; stroke: #ffb612"/>
     <use xlink:href="#m9e8c4f67a4" x="273.731272" y="112.055567" style="fill: #ffb612; stroke: #ffb612"/>
     <use xlink:href="#m9e8c4f67a4" x="275.129268" y="113.275862" style="fill: #ffb612; stroke: #ffb612"/>
     <use xlink:href="#m9e8c4f67a4" x="276.527263" y="116.544293" style="fill: #ffb612; stroke: #ffb612"/>
     <use xlink:href="#m9e8c4f67a4" x="277.925259" y="113.238653" style="fill: #ffb612; stroke: #ffb612"/>
     <use xlink:href="#m9e8c4f67a4" x="279.323255" y="112.82182" style="fill: #ffb612; stroke: #ffb612"/>
     <use xlink:href="#m9e8c4f67a4" x="280.72125" y="107.623406" style="fill: #ffb612; stroke: #ffb612"/>
     <use xlink:href="#m9e8c4f67a4" x="282.119246" y="71.874843" style="fill: #ffb612; stroke: #ffb612"/>
     <use xlink:href="#m9e8c4f67a4" x="283.517242" y="29.068637" style="fill: #ffb612; stroke: #ffb612"/>
     <use xlink:href="#m9e8c4f67a4" x="284.915238" y="27.719884" style="fill: #ffb612; stroke: #ffb612"/>
     <use xlink:href="#m9e8c4f67a4" x="286.313233" y="69.891378" style="fill: #ffb612; stroke: #ffb612"/>
     <use xlink:href="#m9e8c4f67a4" x="287.711229" y="71.570389" style="fill: #ffb612; stroke: #ffb612"/>
     <use xlink:href="#m9e8c4f67a4" x="289.109225" y="76.713032" style="fill: #ffb612; stroke: #ffb612"/>
     <use xlink:href="#m9e8c4f67a4" x="290.50722" y="75.294013" style="fill: #ffb612; stroke: #ffb612"/>
     <use xlink:href="#m9e8c4f67a4" x="291.905216" y="105.394811" style="fill: #ffb612; stroke: #ffb612"/>
     <use xlink:href="#m9e8c4f67a4" x="293.303212" y="110.045098" style="fill: #ffb612; stroke: #ffb612"/>
     <use xlink:href="#m9e8c4f67a4" x="294.701207" y="109.216836" style="fill: #ffb612; stroke: #ffb612"/>
     <use xlink:href="#m9e8c4f67a4" x="296.099203" y="110.6454" style="fill: #ffb612; stroke: #ffb612"/>
     <use xlink:href="#m9e8c4f67a4" x="297.497199" y="110.961523" style="fill: #ffb612; stroke: #ffb612"/>
     <use xlink:href="#m9e8c4f67a4" x="298.895195" y="111.405945" style="fill: #ffb612; stroke: #ffb612"/>
     <use xlink:href="#m9e8c4f67a4" x="300.29319" y="113.499109" style="fill: #ffb612; stroke: #ffb612"/>
     <use xlink:href="#m9e8c4f67a4" x="301.691186" y="119.717422" style="fill: #ffb612; stroke: #ffb612"/>
     <use xlink:href="#m9e8c4f67a4" x="303.089182" y="120.032741" style="fill: #ffb612; stroke: #ffb612"/>
     <use xlink:href="#m9e8c4f67a4" x="304.487177" y="123.266107" style="fill: #ffb612; stroke: #ffb612"/>
     <use xlink:href="#m9e8c4f67a4" x="305.885173" y="125.397868" style="fill: #ffb612; stroke: #ffb612"/>
     <use xlink:href="#m9e8c4f67a4" x="307.283169" y="123.97907" style="fill: #ffb612; stroke: #ffb612"/>
     <use xlink:href="#m9e8c4f67a4" x="308.681165" y="124.959552" style="fill: #ffb612; stroke: #ffb612"/>
     <use xlink:href="#m9e8c4f67a4" x="310.07916" y="124.042343" style="fill: #ffb612; stroke: #ffb612"/>
     <use xlink:href="#m9e8c4f67a4" x="311.477156" y="149.068777" style="fill: #ffb612; stroke: #ffb612"/>
     <use xlink:href="#m9e8c4f67a4" x="312.875152" y="149.142811" style="fill: #ffb612; stroke: #ffb612"/>
     <use xlink:href="#m9e8c4f67a4" x="314.273147" y="148.693694" style="fill: #ffb612; stroke: #ffb612"/>
     <use xlink:href="#m9e8c4f67a4" x="315.671143" y="126.787509" style="fill: #ffb612; stroke: #ffb612"/>
     <use xlink:href="#m9e8c4f67a4" x="317.069139" y="148.235752" style="fill: #ffb612; stroke: #ffb612"/>
     <use xlink:href="#m9e8c4f67a4" x="318.467134" y="147.885396" style="fill: #ffb612; stroke: #ffb612"/>
     <use xlink:href="#m9e8c4f67a4" x="319.86513" y="148.177232" style="fill: #ffb612; stroke: #ffb612"/>
     <use xlink:href="#m9e8c4f67a4" x="321.263126" y="147.632201" style="fill: #ffb612; stroke: #ffb612"/>
     <use xlink:href="#m9e8c4f67a4" x="322.661122" y="128.909918" style="fill: #ffb612; stroke: #ffb612"/>
     <use xlink:href="#m9e8c4f67a4" x="324.059117" y="146.927779" style="fill: #ffb612; stroke: #ffb612"/>
     <use xlink:href="#m9e8c4f67a4" x="325.457113" y="127.312003" style="fill: #ffb612; stroke: #ffb612"/>
     <use xlink:href="#m9e8c4f67a4" x="326.855109" y="126.581117" style="fill: #ffb612; stroke: #ffb612"/>
     <use xlink:href="#m9e8c4f67a4" x="328.253104" y="125.805043" style="fill: #ffb612; stroke: #ffb612"/>
     <use xlink:href="#m9e8c4f67a4" x="329.6511" y="126.041292" style="fill: #ffb612; stroke: #ffb612"/>
     <use xlink:href="#m9e8c4f67a4" x="331.049096" y="104.576938" style="fill: #ffb612; stroke: #ffb612"/>
     <use xlink:href="#m9e8c4f67a4" x="332.447092" y="122.743302" style="fill: #ffb612; stroke: #ffb612"/>
     <use xlink:href="#m9e8c4f67a4" x="333.845087" y="120.005821" style="fill: #ffb612; stroke: #ffb612"/>
     <use xlink:href="#m9e8c4f67a4" x="335.243083" y="120.813523" style="fill: #ffb612; stroke: #ffb612"/>
     <use xlink:href="#m9e8c4f67a4" x="336.641079" y="120.860291" style="fill: #ffb612; stroke: #ffb612"/>
     <use xlink:href="#m9e8c4f67a4" x="338.039074" y="121.205306" style="fill: #ffb612; stroke: #ffb612"/>
     <use xlink:href="#m9e8c4f67a4" x="339.43707" y="103.125274" style="fill: #ffb612; stroke: #ffb612"/>
     <use xlink:href="#m9e8c4f67a4" x="340.835066" y="121.131495" style="fill: #ffb612; stroke: #ffb612"/>
     <use xlink:href="#m9e8c4f67a4" x="342.233061" y="122.764489" style="fill: #ffb612; stroke: #ffb612"/>
     <use xlink:href="#m9e8c4f67a4" x="343.631057" y="123.937138" style="fill: #ffb612; stroke: #ffb612"/>
     <use xlink:href="#m9e8c4f67a4" x="345.029053" y="124.295994" style="fill: #ffb612; stroke: #ffb612"/>
     <use xlink:href="#m9e8c4f67a4" x="346.427049" y="123.891716" style="fill: #ffb612; stroke: #ffb612"/>
     <use xlink:href="#m9e8c4f67a4" x="347.825044" y="146.695618" style="fill: #ffb612; stroke: #ffb612"/>
     <use xlink:href="#m9e8c4f67a4" x="349.22304" y="126.678769" style="fill: #ffb612; stroke: #ffb612"/>
     <use xlink:href="#m9e8c4f67a4" x="350.621036" y="128.790463" style="fill: #ffb612; stroke: #ffb612"/>
     <use xlink:href="#m9e8c4f67a4" x="352.019031" y="155.724619" style="fill: #ffb612; stroke: #ffb612"/>
     <use xlink:href="#m9e8c4f67a4" x="353.417027" y="156.127102" style="fill: #ffb612; stroke: #ffb612"/>
     <use xlink:href="#m9e8c4f67a4" x="354.815023" y="155.990694" style="fill: #ffb612; stroke: #ffb612"/>
     <use xlink:href="#m9e8c4f67a4" x="356.213019" y="156.21826" style="fill: #ffb612; stroke: #ffb612"/>
     <use xlink:href="#m9e8c4f67a4" x="357.611014" y="156.189616" style="fill: #ffb612; stroke: #ffb612"/>
     <use xlink:href="#m9e8c4f67a4" x="359.00901" y="156.234712" style="fill: #ffb612; stroke: #ffb612"/>
     <use xlink:href="#m9e8c4f67a4" x="360.407006" y="156.925996" style="fill: #ffb612; stroke: #ffb612"/>
     <use xlink:href="#m9e8c4f67a4" x="361.805001" y="156.545053" style="fill: #ffb612; stroke: #ffb612"/>
     <use xlink:href="#m9e8c4f67a4" x="363.202997" y="156.982559" style="fill: #ffb612; stroke: #ffb612"/>
     <use xlink:href="#m9e8c4f67a4" x="364.600993" y="156.924547" style="fill: #ffb612; stroke: #ffb612"/>
     <use xlink:href="#m9e8c4f67a4" x="365.998988" y="157.138665" style="fill: #ffb612; stroke: #ffb612"/>
     <use xlink:href="#m9e8c4f67a4" x="367.396984" y="157.54609" style="fill: #ffb612; stroke: #ffb612"/>
     <use xlink:href="#m9e8c4f67a4" x="368.79498" y="156.756068" style="fill: #ffb612; stroke: #ffb612"/>
     <use xlink:href="#m9e8c4f67a4" x="370.192976" y="156.003169" style="fill: #ffb612; stroke: #ffb612"/>
     <use xlink:href="#m9e8c4f67a4" x="371.590971" y="154.864929" style="fill: #ffb612; stroke: #ffb612"/>
     <use xlink:href="#m9e8c4f67a4" x="372.988967" y="155.453655" style="fill: #ffb612; stroke: #ffb612"/>
     <use xlink:href="#m9e8c4f67a4" x="374.386963" y="155.260465" style="fill: #ffb612; stroke: #ffb612"/>
     <use xlink:href="#m9e8c4f67a4" x="375.784958" y="155.47032" style="fill: #ffb612; stroke: #ffb612"/>
     <use xlink:href="#m9e8c4f67a4" x="377.182954" y="155.692653" style="fill: #ffb612; stroke: #ffb612"/>
     <use xlink:href="#m9e8c4f67a4" x="378.58095" y="155.453563" style="fill: #ffb612; stroke: #ffb612"/>
     <use xlink:href="#m9e8c4f67a4" x="379.978946" y="150.731048" style="fill: #ffb612; stroke: #ffb612"/>
     <use xlink:href="#m9e8c4f67a4" x="381.376941" y="150.891319" style="fill: #ffb612; stroke: #ffb612"/>
     <use xlink:href="#m9e8c4f67a4" x="382.774937" y="150.588478" style="fill: #ffb612; stroke: #ffb612"/>
     <use xlink:href="#m9e8c4f67a4" x="384.172933" y="150.251631" style="fill: #ffb612; stroke: #ffb612"/>
     <use xlink:href="#m9e8c4f67a4" x="385.570928" y="150.227805" style="fill: #ffb612; stroke: #ffb612"/>
     <use xlink:href="#m9e8c4f67a4" x="386.968924" y="144.989475" style="fill: #ffb612; stroke: #ffb612"/>
     <use xlink:href="#m9e8c4f67a4" x="388.36692" y="145.883942" style="fill: #ffb612; stroke: #ffb612"/>
     <use xlink:href="#m9e8c4f67a4" x="389.764915" y="123.05836" style="fill: #ffb612; stroke: #ffb612"/>
     <use xlink:href="#m9e8c4f67a4" x="391.162911" y="124.7753" style="fill: #ffb612; stroke: #ffb612"/>
     <use xlink:href="#m9e8c4f67a4" x="392.560907" y="118.964199" style="fill: #ffb612; stroke: #ffb612"/>
     <use xlink:href="#m9e8c4f67a4" x="393.958903" y="120.263835" style="fill: #ffb612; stroke: #ffb612"/>
     <use xlink:href="#m9e8c4f67a4" x="395.356898" y="118.172384" style="fill: #ffb612; stroke: #ffb612"/>
     <use xlink:href="#m9e8c4f67a4" x="396.754894" y="113.758332" style="fill: #ffb612; stroke: #ffb612"/>
     <use xlink:href="#m9e8c4f67a4" x="398.15289" y="115.576631" style="fill: #ffb612; stroke: #ffb612"/>
     <use xlink:href="#m9e8c4f67a4" x="399.550885" y="113.74831" style="fill: #ffb612; stroke: #ffb612"/>
     <use xlink:href="#m9e8c4f67a4" x="400.948881" y="111.437165" style="fill: #ffb612; stroke: #ffb612"/>
     <use xlink:href="#m9e8c4f67a4" x="402.346877" y="106.190539" style="fill: #ffb612; stroke: #ffb612"/>
     <use xlink:href="#m9e8c4f67a4" x="403.744872" y="107.677349" style="fill: #ffb612; stroke: #ffb612"/>
     <use xlink:href="#m9e8c4f67a4" x="405.142868" y="104.695724" style="fill: #ffb612; stroke: #ffb612"/>
     <use xlink:href="#m9e8c4f67a4" x="406.540864" y="106.071979" style="fill: #ffb612; stroke: #ffb612"/>
     <use xlink:href="#m9e8c4f67a4" x="407.93886" y="94.640678" style="fill: #ffb612; stroke: #ffb612"/>
     <use xlink:href="#m9e8c4f67a4" x="409.336855" y="99.246467" style="fill: #ffb612; stroke: #ffb612"/>
     <use xlink:href="#m9e8c4f67a4" x="410.734851" y="47.813278" style="fill: #ffb612; stroke: #ffb612"/>
     <use xlink:href="#m9e8c4f67a4" x="412.132847" y="44.464847" style="fill: #ffb612; stroke: #ffb612"/>
     <use xlink:href="#m9e8c4f67a4" x="413.530842" y="48.699703" style="fill: #ffb612; stroke: #ffb612"/>
     <use xlink:href="#m9e8c4f67a4" x="414.928838" y="96.184285" style="fill: #ffb612; stroke: #ffb612"/>
     <use xlink:href="#m9e8c4f67a4" x="416.326834" y="91.889597" style="fill: #ffb612; stroke: #ffb612"/>
     <use xlink:href="#m9e8c4f67a4" x="417.72483" y="92.605335" style="fill: #ffb612; stroke: #ffb612"/>
    </g>
   </g>
   <g id="line2d_30">
    <path d="M 62.63392 135.996751 
L 64.031916 135.623148 
L 65.429912 131.40574 
L 66.827908 133.148123 
L 68.225903 132.608352 
L 69.623899 132.731588 
L 71.021895 135.969906 
L 72.41989 135.484366 
L 73.817886 136.059784 
L 75.215882 136.358897 
L 76.613878 138.963597 
L 78.011873 139.30554 
L 79.409869 138.391577 
L 80.807865 136.397951 
L 82.20586 131.8541 
L 83.603856 130.975934 
L 85.001852 130.682609 
L 86.399847 129.66698 
L 87.797843 130.483279 
L 89.195839 130.850188 
L 90.593835 128.750891 
L 91.99183 126.165673 
L 93.389826 126.451713 
L 94.787822 125.765231 
L 96.185817 119.154908 
L 97.583813 117.680848 
L 98.981809 115.111166 
L 100.379804 118.828571 
L 101.7778 121.778523 
L 103.175796 120.973837 
L 104.573792 122.980498 
L 105.971787 123.46142 
L 107.369783 130.59006 
L 108.767779 134.671318 
L 110.165774 133.101254 
L 111.56377 136.841911 
L 112.961766 134.816167 
L 114.359762 136.118199 
L 115.757757 132.057708 
L 117.155753 137.262755 
L 118.553749 140.675963 
L 119.951744 141.355582 
L 122.747736 141.413548 
L 124.145731 141.368017 
L 125.543727 146.133126 
L 126.941723 144.07815 
L 128.339719 144.448348 
L 129.737714 144.111923 
L 131.13571 145.902294 
L 132.533706 146.06184 
L 133.931701 145.177216 
L 135.329697 146.157948 
L 136.727693 144.129327 
L 138.125689 141.49643 
L 139.523684 142.520475 
L 140.92168 148.37112 
L 142.319676 149.395115 
L 143.717671 148.762316 
L 145.115667 146.023551 
L 146.513663 145.687778 
L 147.911658 143.560964 
L 149.309654 142.649744 
L 150.70765 140.856767 
L 152.105646 140.101022 
L 153.503641 140.004046 
L 154.901637 136.554903 
L 156.299633 139.249356 
L 157.697628 139.763452 
L 159.095624 146.671772 
L 160.49362 146.664851 
L 161.891616 144.708504 
L 163.289611 144.01944 
L 164.687607 145.050853 
L 166.085603 145.4297 
L 167.483598 145.240721 
L 168.881594 143.93213 
L 170.27959 147.600899 
L 171.677585 148.034839 
L 173.075581 147.764643 
L 174.473577 148.633369 
L 175.871573 149.065713 
L 177.269568 148.880843 
L 178.667564 145.934694 
L 180.06556 145.371546 
L 181.463555 142.996404 
L 182.861551 143.386693 
L 184.259547 142.373982 
L 185.657543 140.254758 
L 187.055538 140.303896 
L 188.453534 141.149793 
L 189.85153 140.545024 
L 191.249525 138.877776 
L 192.647521 138.024146 
L 194.045517 141.259059 
L 195.443512 138.863453 
L 196.841508 142.30902 
L 198.239504 143.717268 
L 199.6375 144.253152 
L 201.035495 144.942518 
L 202.433491 143.140403 
L 203.831487 144.580434 
L 205.229482 147.685571 
L 206.627478 148.394075 
L 209.423469 150.612432 
L 210.821465 149.855914 
L 213.617457 150.335405 
L 215.015452 152.186071 
L 216.413448 150.284597 
L 217.811444 149.448608 
L 219.209439 149.380444 
L 220.607435 148.672428 
L 222.005431 149.291338 
L 223.403427 148.995308 
L 224.801422 147.49001 
L 226.199418 147.145169 
L 227.597414 147.00666 
L 228.995409 144.674911 
L 230.393405 146.010231 
L 231.791401 145.774979 
L 233.189396 144.734095 
L 234.587392 141.476988 
L 235.985388 143.763275 
L 237.383384 143.640024 
L 238.781379 142.900941 
L 240.179375 145.846907 
L 241.577371 145.817913 
L 242.975366 145.168361 
L 244.373362 143.900249 
L 245.771358 142.923395 
L 247.169354 141.775083 
L 248.567349 141.41449 
L 249.965345 141.302031 
L 251.363341 140.947298 
L 252.761336 143.844072 
L 254.159332 144.911671 
L 255.557328 144.616031 
L 256.955323 144.110068 
L 258.353319 144.531918 
L 259.751315 141.732012 
L 261.149311 142.265907 
L 262.547306 141.789437 
L 263.945302 145.272457 
L 265.343298 145.990765 
L 266.741293 138.652015 
L 268.139289 138.685007 
L 269.537285 136.442051 
L 270.935281 136.720163 
L 272.333276 118.26285 
L 273.731272 107.419047 
L 275.129268 112.908854 
L 276.527263 117.221222 
L 277.925259 111.470864 
L 279.323255 108.554534 
L 280.72125 97.181268 
L 282.119246 69.634087 
L 283.517242 35.001402 
L 284.915238 27.036911 
L 286.313233 58.321515 
L 287.711229 70.065459 
L 289.109225 90.321627 
L 290.50722 86.415332 
L 291.905216 95.789065 
L 293.303212 103.506975 
L 294.701207 105.220393 
L 296.099203 110.972535 
L 297.497199 111.04052 
L 298.895195 114.290617 
L 300.29319 118.452335 
L 301.691186 131.107279 
L 303.089182 134.894652 
L 304.487177 135.679839 
L 305.885173 141.308972 
L 307.283169 142.165276 
L 310.07916 142.283608 
L 311.477156 146.176061 
L 312.875152 146.136788 
L 314.273147 145.562845 
L 315.671143 144.820218 
L 317.069139 144.8692 
L 318.467134 145.646134 
L 319.86513 147.326892 
L 321.263126 145.89415 
L 322.661122 145.164583 
L 324.059117 145.709945 
L 325.457113 141.035587 
L 326.855109 137.917638 
L 328.253104 137.708953 
L 329.6511 137.970989 
L 331.049096 110.739327 
L 332.447092 125.998637 
L 333.845087 121.149771 
L 335.243083 121.636759 
L 336.641079 121.672727 
L 338.039074 122.427437 
L 339.43707 113.620742 
L 340.835066 120.095997 
L 342.233061 128.879024 
L 343.631057 135.535918 
L 345.029053 134.495783 
L 346.427049 134.510273 
L 347.825044 146.823031 
L 349.22304 143.075755 
L 350.621036 145.206114 
L 352.019031 154.976846 
L 353.417027 155.467099 
L 354.815023 155.053631 
L 356.213019 155.072595 
L 357.611014 155.627691 
L 359.00901 155.806123 
L 360.407006 156.103677 
L 361.805001 155.804522 
L 363.202997 155.762605 
L 364.600993 155.589973 
L 365.998988 155.605407 
L 367.396984 156.361037 
L 368.79498 156.558353 
L 370.192976 156.543251 
L 371.590971 154.523362 
L 372.988967 154.840296 
L 374.386963 154.482582 
L 375.784958 154.493772 
L 378.58095 153.564594 
L 379.978946 152.51263 
L 381.376941 152.157209 
L 384.172933 150.599096 
L 385.570928 150.605128 
L 386.968924 144.318646 
L 388.36692 145.064756 
L 389.764915 141.543642 
L 391.162911 139.970904 
L 392.560907 134.754061 
L 393.958903 132.497735 
L 395.356898 132.522694 
L 396.754894 125.686423 
L 398.15289 121.613847 
L 399.550885 118.30527 
L 402.346877 102.953279 
L 403.744872 101.766009 
L 405.142868 101.76729 
L 406.540864 103.07145 
L 407.93886 79.100339 
L 409.336855 87.216232 
L 410.734851 62.500307 
L 412.132847 59.799069 
L 413.530842 63.605126 
L 414.928838 77.807206 
L 416.326834 78.400406 
L 417.72483 78.559181 
L 417.72483 78.559181 
" clip-path="url(#p979bce3f3a)" style="fill: none; stroke-dasharray: 5.55,2.4; stroke-dashoffset: 0; stroke: #000000; stroke-width: 1.5"/>
   </g>
   <g id="patch_3">
    <path d="M 44.879375 166.32 
L 44.879375 -0 
" style="fill: none; stroke: #ffffff; stroke-linejoin: miter; stroke-linecap: square"/>
   </g>
   <g id="patch_4">
    <path d="M 435.479375 166.32 
L 435.479375 -0 
" style="fill: none; stroke: #ffffff; stroke-linejoin: miter; stroke-linecap: square"/>
   </g>
   <g id="patch_5">
    <path d="M 44.879375 166.32 
L 435.479375 166.32 
" style="fill: none; stroke: #ffffff; stroke-linejoin: miter; stroke-linecap: square"/>
   </g>
   <g id="patch_6">
    <path d="M 44.879375 -0 
L 435.479375 -0 
" style="fill: none; stroke: #ffffff; stroke-linejoin: miter; stroke-linecap: square"/>
   </g>
   <g id="legend_1">
    <g id="patch_7">
     <path d="M 51.879375 60.378125 
L 203.92625 60.378125 
Q 205.92625 60.378125 205.92625 58.378125 
L 205.92625 7 
Q 205.92625 5 203.92625 5 
L 51.879375 5 
Q 49.879375 5 49.879375 7 
L 49.879375 58.378125 
Q 49.879375 60.378125 51.879375 60.378125 
z
" style="fill: #e5e5e5; opacity: 0.8; stroke: #cccccc; stroke-width: 0.5; stroke-linejoin: miter"/>
    </g>
    <g id="line2d_31">
     <path d="M 53.879375 15.5 
L 63.879375 15.5 
L 73.879375 15.5 
" style="fill: none; stroke: #ffb612; stroke-width: 3; stroke-linecap: square"/>
     <g>
      <use xlink:href="#m9e8c4f67a4" x="63.879375" y="15.5" style="fill: #ffb612; stroke: #ffb612"/>
     </g>
    </g>
    <g id="text_17">
     <!-- Private Value $\tilde{R}_{\chi_3,\chi_1}^t$ -->
     <g transform="translate(81.879375 19) scale(0.1 -0.1)">
      <defs>
       <path id="DejaVuSans-50" d="M 1259 4147 
L 1259 2394 
L 2053 2394 
Q 2494 2394 2734 2622 
Q 2975 2850 2975 3272 
Q 2975 3691 2734 3919 
Q 2494 4147 2053 4147 
L 1259 4147 
z
M 628 4666 
L 2053 4666 
Q 2838 4666 3239 4311 
Q 3641 3956 3641 3272 
Q 3641 2581 3239 2228 
Q 2838 1875 2053 1875 
L 1259 1875 
L 1259 0 
L 628 0 
L 628 4666 
z
" transform="scale(0.015625)"/>
       <path id="DejaVuSans-72" d="M 2631 2963 
Q 2534 3019 2420 3045 
Q 2306 3072 2169 3072 
Q 1681 3072 1420 2755 
Q 1159 2438 1159 1844 
L 1159 0 
L 581 0 
L 581 3500 
L 1159 3500 
L 1159 2956 
Q 1341 3275 1631 3429 
Q 1922 3584 2338 3584 
Q 2397 3584 2469 3576 
Q 2541 3569 2628 3553 
L 2631 2963 
z
" transform="scale(0.015625)"/>
       <path id="DejaVuSans-69" d="M 603 3500 
L 1178 3500 
L 1178 0 
L 603 0 
L 603 3500 
z
M 603 4863 
L 1178 4863 
L 1178 4134 
L 603 4134 
L 603 4863 
z
" transform="scale(0.015625)"/>
       <path id="DejaVuSans-76" d="M 191 3500 
L 800 3500 
L 1894 563 
L 2988 3500 
L 3597 3500 
L 2284 0 
L 1503 0 
L 191 3500 
z
" transform="scale(0.015625)"/>
       <path id="DejaVuSans-20" transform="scale(0.015625)"/>
       <path id="DejaVuSans-303" d="M -1621 4281 
L -1799 4453 
Q -1867 4516 -1919 4545 
Q -1971 4575 -2011 4575 
Q -2130 4575 -2186 4461 
Q -2242 4347 -2249 4091 
L -2639 4091 
Q -2633 4513 -2473 4742 
Q -2314 4972 -2030 4972 
Q -1911 4972 -1811 4928 
Q -1711 4884 -1596 4781 
L -1417 4609 
Q -1349 4547 -1297 4517 
Q -1246 4488 -1205 4488 
Q -1086 4488 -1030 4602 
Q -974 4716 -967 4972 
L -577 4972 
Q -583 4550 -742 4320 
Q -902 4091 -1186 4091 
Q -1305 4091 -1405 4134 
Q -1505 4178 -1621 4281 
z
" transform="scale(0.015625)"/>
       <path id="DejaVuSans-Oblique-52" d="M 1613 4147 
L 1294 2491 
L 2106 2491 
Q 2584 2491 2879 2755 
Q 3175 3019 3175 3444 
Q 3175 3784 2976 3965 
Q 2778 4147 2406 4147 
L 1613 4147 
z
M 2772 2241 
Q 2972 2194 3105 2009 
Q 3238 1825 3413 1275 
L 3809 0 
L 3144 0 
L 2778 1197 
Q 2638 1659 2453 1815 
Q 2269 1972 1888 1972 
L 1191 1972 
L 806 0 
L 172 0 
L 1081 4666 
L 2503 4666 
Q 3150 4666 3495 4373 
Q 3841 4081 3841 3531 
Q 3841 3044 3547 2687 
Q 3253 2331 2772 2241 
z
" transform="scale(0.015625)"/>
       <path id="DejaVuSans-Oblique-74" d="M 2706 3500 
L 2619 3053 
L 1472 3053 
L 1100 1153 
Q 1081 1047 1072 975 
Q 1063 903 1063 863 
Q 1063 663 1183 572 
Q 1303 481 1569 481 
L 2150 481 
L 2053 0 
L 1503 0 
Q 991 0 739 200 
Q 488 400 488 806 
Q 488 878 497 964 
Q 506 1050 525 1153 
L 897 3053 
L 409 3053 
L 500 3500 
L 978 3500 
L 1172 4494 
L 1747 4494 
L 1556 3500 
L 2706 3500 
z
" transform="scale(0.015625)"/>
       <path id="DejaVuSans-Oblique-3c7" d="M 1922 -781 
L 1691 416 
L 394 -1334 
L -284 -1334 
L 1553 1141 
L 1269 2613 
Q 1194 3006 713 3006 
L 559 3006 
L 653 3500 
L 872 3494 
Q 1675 3472 1775 2950 
L 2006 1753 
L 3303 3503 
L 3981 3503 
L 2144 1028 
L 2428 -444 
Q 2503 -838 2984 -838 
L 3138 -838 
L 3044 -1331 
L 2825 -1325 
Q 2022 -1303 1922 -781 
z
" transform="scale(0.015625)"/>
       <path id="DejaVuSans-2c" d="M 750 794 
L 1409 794 
L 1409 256 
L 897 -744 
L 494 -744 
L 750 256 
L 750 794 
z
" transform="scale(0.015625)"/>
      </defs>
      <use xlink:href="#DejaVuSans-50" transform="translate(0 0.828125)"/>
      <use xlink:href="#DejaVuSans-72" transform="translate(60.302734 0.828125)"/>
      <use xlink:href="#DejaVuSans-69" transform="translate(101.416016 0.828125)"/>
      <use xlink:href="#DejaVuSans-76" transform="translate(129.199219 0.828125)"/>
      <use xlink:href="#DejaVuSans-61" transform="translate(188.378906 0.828125)"/>
      <use xlink:href="#DejaVuSans-74" transform="translate(249.658203 0.828125)"/>
      <use xlink:href="#DejaVuSans-65" transform="translate(288.867188 0.828125)"/>
      <use xlink:href="#DejaVuSans-20" transform="translate(350.390625 0.828125)"/>
      <use xlink:href="#DejaVuSans-56" transform="translate(382.177734 0.828125)"/>
      <use xlink:href="#DejaVuSans-61" transform="translate(450.585938 0.828125)"/>
      <use xlink:href="#DejaVuSans-6c" transform="translate(511.865234 0.828125)"/>
      <use xlink:href="#DejaVuSans-75" transform="translate(539.648438 0.828125)"/>
      <use xlink:href="#DejaVuSans-65" transform="translate(603.027344 0.828125)"/>
      <use xlink:href="#DejaVuSans-20" transform="translate(664.550781 0.828125)"/>
      <use xlink:href="#DejaVuSans-303" transform="translate(764.942871 22.3125)"/>
      <use xlink:href="#DejaVuSans-Oblique-52" transform="translate(696.337891 0.828125)"/>
      <use xlink:href="#DejaVuSans-Oblique-74" transform="translate(766.777344 39.109375) scale(0.7)"/>
      <use xlink:href="#DejaVuSans-Oblique-3c7" transform="translate(766.777344 -26.515625) scale(0.7)"/>
      <use xlink:href="#DejaVuSans-33" transform="translate(808.203125 -38) scale(0.49)"/>
      <use xlink:href="#DejaVuSans-2c" transform="translate(841.29248 -26.515625) scale(0.7)"/>
      <use xlink:href="#DejaVuSans-Oblique-3c7" transform="translate(877.181152 -26.515625) scale(0.7)"/>
      <use xlink:href="#DejaVuSans-31" transform="translate(918.606934 -38) scale(0.49)"/>
     </g>
    </g>
    <g id="line2d_32">
     <path d="M 53.879375 34 
L 63.879375 34 
L 73.879375 34 
" style="fill: none; stroke-dasharray: 5.55,2.4; stroke-dashoffset: 0; stroke: #000000; stroke-width: 1.5"/>
    </g>
    <g id="text_18">
     <!-- Original Value $\bar{R}_{\chi_3,\chi_1}^t$ -->
     <g transform="translate(81.879375 37.5) scale(0.1 -0.1)">
      <defs>
       <path id="DejaVuSans-4f" d="M 2522 4238 
Q 1834 4238 1429 3725 
Q 1025 3213 1025 2328 
Q 1025 1447 1429 934 
Q 1834 422 2522 422 
Q 3209 422 3611 934 
Q 4013 1447 4013 2328 
Q 4013 3213 3611 3725 
Q 3209 4238 2522 4238 
z
M 2522 4750 
Q 3503 4750 4090 4092 
Q 4678 3434 4678 2328 
Q 4678 1225 4090 567 
Q 3503 -91 2522 -91 
Q 1538 -91 948 565 
Q 359 1222 359 2328 
Q 359 3434 948 4092 
Q 1538 4750 2522 4750 
z
" transform="scale(0.015625)"/>
       <path id="DejaVuSans-67" d="M 2906 1791 
Q 2906 2416 2648 2759 
Q 2391 3103 1925 3103 
Q 1463 3103 1205 2759 
Q 947 2416 947 1791 
Q 947 1169 1205 825 
Q 1463 481 1925 481 
Q 2391 481 2648 825 
Q 2906 1169 2906 1791 
z
M 3481 434 
Q 3481 -459 3084 -895 
Q 2688 -1331 1869 -1331 
Q 1566 -1331 1297 -1286 
Q 1028 -1241 775 -1147 
L 775 -588 
Q 1028 -725 1275 -790 
Q 1522 -856 1778 -856 
Q 2344 -856 2625 -561 
Q 2906 -266 2906 331 
L 2906 616 
Q 2728 306 2450 153 
Q 2172 0 1784 0 
Q 1141 0 747 490 
Q 353 981 353 1791 
Q 353 2603 747 3093 
Q 1141 3584 1784 3584 
Q 2172 3584 2450 3431 
Q 2728 3278 2906 2969 
L 2906 3500 
L 3481 3500 
L 3481 434 
z
" transform="scale(0.015625)"/>
       <path id="DejaVuSans-6e" d="M 3513 2113 
L 3513 0 
L 2938 0 
L 2938 2094 
Q 2938 2591 2744 2837 
Q 2550 3084 2163 3084 
Q 1697 3084 1428 2787 
Q 1159 2491 1159 1978 
L 1159 0 
L 581 0 
L 581 3500 
L 1159 3500 
L 1159 2956 
Q 1366 3272 1645 3428 
Q 1925 3584 2291 3584 
Q 2894 3584 3203 3211 
Q 3513 2838 3513 2113 
z
" transform="scale(0.015625)"/>
       <path id="DejaVuSans-304" d="M -2518 4769 
L -650 4769 
L -650 4306 
L -2518 4306 
L -2518 4769 
z
" transform="scale(0.015625)"/>
      </defs>
      <use xlink:href="#DejaVuSans-4f" transform="translate(0 0.359375)"/>
      <use xlink:href="#DejaVuSans-72" transform="translate(78.710938 0.359375)"/>
      <use xlink:href="#DejaVuSans-69" transform="translate(119.824219 0.359375)"/>
      <use xlink:href="#DejaVuSans-67" transform="translate(147.607422 0.359375)"/>
      <use xlink:href="#DejaVuSans-69" transform="translate(211.083984 0.359375)"/>
      <use xlink:href="#DejaVuSans-6e" transform="translate(238.867188 0.359375)"/>
      <use xlink:href="#DejaVuSans-61" transform="translate(302.246094 0.359375)"/>
      <use xlink:href="#DejaVuSans-6c" transform="translate(363.525391 0.359375)"/>
      <use xlink:href="#DejaVuSans-20" transform="translate(391.308594 0.359375)"/>
      <use xlink:href="#DejaVuSans-56" transform="translate(423.095703 0.359375)"/>
      <use xlink:href="#DejaVuSans-61" transform="translate(491.503906 0.359375)"/>
      <use xlink:href="#DejaVuSans-6c" transform="translate(552.783203 0.359375)"/>
      <use xlink:href="#DejaVuSans-75" transform="translate(580.566406 0.359375)"/>
      <use xlink:href="#DejaVuSans-65" transform="translate(643.945312 0.359375)"/>
      <use xlink:href="#DejaVuSans-20" transform="translate(705.46875 0.359375)"/>
      <use xlink:href="#DejaVuSans-304" transform="translate(804.970215 18.484375)"/>
      <use xlink:href="#DejaVuSans-Oblique-52" transform="translate(737.255859 0.359375)"/>
      <use xlink:href="#DejaVuSans-Oblique-74" transform="translate(807.695312 38.640625) scale(0.7)"/>
      <use xlink:href="#DejaVuSans-Oblique-3c7" transform="translate(807.695312 -26.984375) scale(0.7)"/>
      <use xlink:href="#DejaVuSans-33" transform="translate(849.121094 -38.46875) scale(0.49)"/>
      <use xlink:href="#DejaVuSans-2c" transform="translate(882.210449 -26.984375) scale(0.7)"/>
      <use xlink:href="#DejaVuSans-Oblique-3c7" transform="translate(918.099121 -26.984375) scale(0.7)"/>
      <use xlink:href="#DejaVuSans-31" transform="translate(959.524902 -38.46875) scale(0.49)"/>
     </g>
    </g>
    <g id="patch_8">
     <path d="M 53.879375 54.298437 
L 73.879375 54.298437 
L 73.879375 47.298437 
L 53.879375 47.298437 
z
" style="fill: #ffb612; fill-opacity: 0.5; stroke: #ffb612; stroke-opacity: 0.5; stroke-width: 0.5; stroke-linejoin: miter"/>
    </g>
    <g id="text_19">
     <!-- One Standard Deviation -->
     <g transform="translate(81.879375 54.298437) scale(0.1 -0.1)">
      <defs>
       <path id="DejaVuSans-53" d="M 3425 4513 
L 3425 3897 
Q 3066 4069 2747 4153 
Q 2428 4238 2131 4238 
Q 1616 4238 1336 4038 
Q 1056 3838 1056 3469 
Q 1056 3159 1242 3001 
Q 1428 2844 1947 2747 
L 2328 2669 
Q 3034 2534 3370 2195 
Q 3706 1856 3706 1288 
Q 3706 609 3251 259 
Q 2797 -91 1919 -91 
Q 1588 -91 1214 -16 
Q 841 59 441 206 
L 441 856 
Q 825 641 1194 531 
Q 1563 422 1919 422 
Q 2459 422 2753 634 
Q 3047 847 3047 1241 
Q 3047 1584 2836 1778 
Q 2625 1972 2144 2069 
L 1759 2144 
Q 1053 2284 737 2584 
Q 422 2884 422 3419 
Q 422 4038 858 4394 
Q 1294 4750 2059 4750 
Q 2388 4750 2728 4690 
Q 3069 4631 3425 4513 
z
" transform="scale(0.015625)"/>
       <path id="DejaVuSans-64" d="M 2906 2969 
L 2906 4863 
L 3481 4863 
L 3481 0 
L 2906 0 
L 2906 525 
Q 2725 213 2448 61 
Q 2172 -91 1784 -91 
Q 1150 -91 751 415 
Q 353 922 353 1747 
Q 353 2572 751 3078 
Q 1150 3584 1784 3584 
Q 2172 3584 2448 3432 
Q 2725 3281 2906 2969 
z
M 947 1747 
Q 947 1113 1208 752 
Q 1469 391 1925 391 
Q 2381 391 2643 752 
Q 2906 1113 2906 1747 
Q 2906 2381 2643 2742 
Q 2381 3103 1925 3103 
Q 1469 3103 1208 2742 
Q 947 2381 947 1747 
z
" transform="scale(0.015625)"/>
       <path id="DejaVuSans-6f" d="M 1959 3097 
Q 1497 3097 1228 2736 
Q 959 2375 959 1747 
Q 959 1119 1226 758 
Q 1494 397 1959 397 
Q 2419 397 2687 759 
Q 2956 1122 2956 1747 
Q 2956 2369 2687 2733 
Q 2419 3097 1959 3097 
z
M 1959 3584 
Q 2709 3584 3137 3096 
Q 3566 2609 3566 1747 
Q 3566 888 3137 398 
Q 2709 -91 1959 -91 
Q 1206 -91 779 398 
Q 353 888 353 1747 
Q 353 2609 779 3096 
Q 1206 3584 1959 3584 
z
" transform="scale(0.015625)"/>
      </defs>
      <use xlink:href="#DejaVuSans-4f"/>
      <use xlink:href="#DejaVuSans-6e" x="78.710938"/>
      <use xlink:href="#DejaVuSans-65" x="142.089844"/>
      <use xlink:href="#DejaVuSans-20" x="203.613281"/>
      <use xlink:href="#DejaVuSans-53" x="235.400391"/>
      <use xlink:href="#DejaVuSans-74" x="298.876953"/>
      <use xlink:href="#DejaVuSans-61" x="338.085938"/>
      <use xlink:href="#DejaVuSans-6e" x="399.365234"/>
      <use xlink:href="#DejaVuSans-64" x="462.744141"/>
      <use xlink:href="#DejaVuSans-61" x="526.220703"/>
      <use xlink:href="#DejaVuSans-72" x="587.5"/>
      <use xlink:href="#DejaVuSans-64" x="626.863281"/>
      <use xlink:href="#DejaVuSans-20" x="690.339844"/>
      <use xlink:href="#DejaVuSans-44" x="722.126953"/>
      <use xlink:href="#DejaVuSans-65" x="799.128906"/>
      <use xlink:href="#DejaVuSans-76" x="860.652344"/>
      <use xlink:href="#DejaVuSans-69" x="919.832031"/>
      <use xlink:href="#DejaVuSans-61" x="947.615234"/>
      <use xlink:href="#DejaVuSans-74" x="1008.894531"/>
      <use xlink:href="#DejaVuSans-69" x="1048.103516"/>
      <use xlink:href="#DejaVuSans-6f" x="1075.886719"/>
      <use xlink:href="#DejaVuSans-6e" x="1137.068359"/>
     </g>
    </g>
   </g>
  </g>
 </g>
 <defs>
  <clipPath id="p979bce3f3a">
   <rect x="44.879375" y="-0" width="390.6" height="166.32"/>
  </clipPath>
 </defs>
</svg>
