<?xml version="1.0" encoding="utf-8" standalone="no"?>
<!DOCTYPE svg PUBLIC "-//W3C//DTD SVG 1.1//EN"
  "http://www.w3.org/Graphics/SVG/1.1/DTD/svg11.dtd">
<svg xmlns:xlink="http://www.w3.org/1999/xlink" width="444.375067pt" height="198.611875pt" viewBox="0 0 444.375067 198.611875" xmlns="http://www.w3.org/2000/svg" version="1.1">
 <metadata>
  <rdf:RDF xmlns:dc="http://purl.org/dc/elements/1.1/" xmlns:cc="http://creativecommons.org/ns#" xmlns:rdf="http://www.w3.org/1999/02/22-rdf-syntax-ns#">
   <cc:Work>
    <dc:type rdf:resource="http://purl.org/dc/dcmitype/StillImage"/>
    <dc:date>2024-09-18T15:47:53.661831</dc:date>
    <dc:format>image/svg+xml</dc:format>
    <dc:creator>
     <cc:Agent>
      <dc:title>Matplotlib v3.7.5, https://matplotlib.org/</dc:title>
     </cc:Agent>
    </dc:creator>
   </cc:Work>
  </rdf:RDF>
 </metadata>
 <defs>
  <style type="text/css">*{stroke-linejoin: round; stroke-linecap: butt}</style>
 </defs>
 <g id="figure_1">
  <g id="patch_1">
   <path d="M 0 198.611875 
L 444.375067 198.611875 
L 444.375067 0 
L 0 0 
z
" style="fill: #ffffff"/>
  </g>
  <g id="axes_1">
   <g id="patch_2">
    <path d="M 44.879375 166.32 
L 435.479375 166.32 
L 435.479375 -0 
L 44.879375 -0 
z
" style="fill: #e5e5e5"/>
   </g>
   <g id="matplotlib.axis_1">
    <g id="xtick_1">
     <g id="line2d_1">
      <path d="M 72.41989 166.32 
L 72.41989 -0 
" clip-path="url(#pbdf7df7d7f)" style="fill: none; stroke: #ffffff; stroke-width: 0.8; stroke-linecap: square"/>
     </g>
     <g id="line2d_2">
      <defs>
       <path id="m585d085adf" d="M 0 0 
L 0 3.5 
" style="stroke: #555555; stroke-width: 0.8"/>
      </defs>
      <g>
       <use xlink:href="#m585d085adf" x="72.41989" y="166.32" style="fill: #555555; stroke: #555555; stroke-width: 0.8"/>
      </g>
     </g>
     <g id="text_1">
      <!-- 08/16/20 -->
      <g style="fill: #555555" transform="translate(49.96364 180.918437) scale(0.1 -0.1)">
       <defs>
        <path id="DejaVuSans-30" d="M 2034 4250 
Q 1547 4250 1301 3770 
Q 1056 3291 1056 2328 
Q 1056 1369 1301 889 
Q 1547 409 2034 409 
Q 2525 409 2770 889 
Q 3016 1369 3016 2328 
Q 3016 3291 2770 3770 
Q 2525 4250 2034 4250 
z
M 2034 4750 
Q 2819 4750 3233 4129 
Q 3647 3509 3647 2328 
Q 3647 1150 3233 529 
Q 2819 -91 2034 -91 
Q 1250 -91 836 529 
Q 422 1150 422 2328 
Q 422 3509 836 4129 
Q 1250 4750 2034 4750 
z
" transform="scale(0.015625)"/>
        <path id="DejaVuSans-38" d="M 2034 2216 
Q 1584 2216 1326 1975 
Q 1069 1734 1069 1313 
Q 1069 891 1326 650 
Q 1584 409 2034 409 
Q 2484 409 2743 651 
Q 3003 894 3003 1313 
Q 3003 1734 2745 1975 
Q 2488 2216 2034 2216 
z
M 1403 2484 
Q 997 2584 770 2862 
Q 544 3141 544 3541 
Q 544 4100 942 4425 
Q 1341 4750 2034 4750 
Q 2731 4750 3128 4425 
Q 3525 4100 3525 3541 
Q 3525 3141 3298 2862 
Q 3072 2584 2669 2484 
Q 3125 2378 3379 2068 
Q 3634 1759 3634 1313 
Q 3634 634 3220 271 
Q 2806 -91 2034 -91 
Q 1263 -91 848 271 
Q 434 634 434 1313 
Q 434 1759 690 2068 
Q 947 2378 1403 2484 
z
M 1172 3481 
Q 1172 3119 1398 2916 
Q 1625 2713 2034 2713 
Q 2441 2713 2670 2916 
Q 2900 3119 2900 3481 
Q 2900 3844 2670 4047 
Q 2441 4250 2034 4250 
Q 1625 4250 1398 4047 
Q 1172 3844 1172 3481 
z
" transform="scale(0.015625)"/>
        <path id="DejaVuSans-2f" d="M 1625 4666 
L 2156 4666 
L 531 -594 
L 0 -594 
L 1625 4666 
z
" transform="scale(0.015625)"/>
        <path id="DejaVuSans-31" d="M 794 531 
L 1825 531 
L 1825 4091 
L 703 3866 
L 703 4441 
L 1819 4666 
L 2450 4666 
L 2450 531 
L 3481 531 
L 3481 0 
L 794 0 
L 794 531 
z
" transform="scale(0.015625)"/>
        <path id="DejaVuSans-36" d="M 2113 2584 
Q 1688 2584 1439 2293 
Q 1191 2003 1191 1497 
Q 1191 994 1439 701 
Q 1688 409 2113 409 
Q 2538 409 2786 701 
Q 3034 994 3034 1497 
Q 3034 2003 2786 2293 
Q 2538 2584 2113 2584 
z
M 3366 4563 
L 3366 3988 
Q 3128 4100 2886 4159 
Q 2644 4219 2406 4219 
Q 1781 4219 1451 3797 
Q 1122 3375 1075 2522 
Q 1259 2794 1537 2939 
Q 1816 3084 2150 3084 
Q 2853 3084 3261 2657 
Q 3669 2231 3669 1497 
Q 3669 778 3244 343 
Q 2819 -91 2113 -91 
Q 1303 -91 875 529 
Q 447 1150 447 2328 
Q 447 3434 972 4092 
Q 1497 4750 2381 4750 
Q 2619 4750 2861 4703 
Q 3103 4656 3366 4563 
z
" transform="scale(0.015625)"/>
        <path id="DejaVuSans-32" d="M 1228 531 
L 3431 531 
L 3431 0 
L 469 0 
L 469 531 
Q 828 903 1448 1529 
Q 2069 2156 2228 2338 
Q 2531 2678 2651 2914 
Q 2772 3150 2772 3378 
Q 2772 3750 2511 3984 
Q 2250 4219 1831 4219 
Q 1534 4219 1204 4116 
Q 875 4013 500 3803 
L 500 4441 
Q 881 4594 1212 4672 
Q 1544 4750 1819 4750 
Q 2544 4750 2975 4387 
Q 3406 4025 3406 3419 
Q 3406 3131 3298 2873 
Q 3191 2616 2906 2266 
Q 2828 2175 2409 1742 
Q 1991 1309 1228 531 
z
" transform="scale(0.015625)"/>
       </defs>
       <use xlink:href="#DejaVuSans-30"/>
       <use xlink:href="#DejaVuSans-38" x="63.623047"/>
       <use xlink:href="#DejaVuSans-2f" x="127.246094"/>
       <use xlink:href="#DejaVuSans-31" x="160.9375"/>
       <use xlink:href="#DejaVuSans-36" x="224.560547"/>
       <use xlink:href="#DejaVuSans-2f" x="288.183594"/>
       <use xlink:href="#DejaVuSans-32" x="321.875"/>
       <use xlink:href="#DejaVuSans-30" x="385.498047"/>
      </g>
     </g>
    </g>
    <g id="xtick_2">
     <g id="line2d_3">
      <path d="M 142.319676 166.32 
L 142.319676 -0 
" clip-path="url(#pbdf7df7d7f)" style="fill: none; stroke: #ffffff; stroke-width: 0.8; stroke-linecap: square"/>
     </g>
     <g id="line2d_4">
      <g>
       <use xlink:href="#m585d085adf" x="142.319676" y="166.32" style="fill: #555555; stroke: #555555; stroke-width: 0.8"/>
      </g>
     </g>
     <g id="text_2">
      <!-- 10/05/20 -->
      <g style="fill: #555555" transform="translate(119.863426 180.918437) scale(0.1 -0.1)">
       <defs>
        <path id="DejaVuSans-35" d="M 691 4666 
L 3169 4666 
L 3169 4134 
L 1269 4134 
L 1269 2991 
Q 1406 3038 1543 3061 
Q 1681 3084 1819 3084 
Q 2600 3084 3056 2656 
Q 3513 2228 3513 1497 
Q 3513 744 3044 326 
Q 2575 -91 1722 -91 
Q 1428 -91 1123 -41 
Q 819 9 494 109 
L 494 744 
Q 775 591 1075 516 
Q 1375 441 1709 441 
Q 2250 441 2565 725 
Q 2881 1009 2881 1497 
Q 2881 1984 2565 2268 
Q 2250 2553 1709 2553 
Q 1456 2553 1204 2497 
Q 953 2441 691 2322 
L 691 4666 
z
" transform="scale(0.015625)"/>
       </defs>
       <use xlink:href="#DejaVuSans-31"/>
       <use xlink:href="#DejaVuSans-30" x="63.623047"/>
       <use xlink:href="#DejaVuSans-2f" x="127.246094"/>
       <use xlink:href="#DejaVuSans-30" x="160.9375"/>
       <use xlink:href="#DejaVuSans-35" x="224.560547"/>
       <use xlink:href="#DejaVuSans-2f" x="288.183594"/>
       <use xlink:href="#DejaVuSans-32" x="321.875"/>
       <use xlink:href="#DejaVuSans-30" x="385.498047"/>
      </g>
     </g>
    </g>
    <g id="xtick_3">
     <g id="line2d_5">
      <path d="M 212.219461 166.32 
L 212.219461 -0 
" clip-path="url(#pbdf7df7d7f)" style="fill: none; stroke: #ffffff; stroke-width: 0.8; stroke-linecap: square"/>
     </g>
     <g id="line2d_6">
      <g>
       <use xlink:href="#m585d085adf" x="212.219461" y="166.32" style="fill: #555555; stroke: #555555; stroke-width: 0.8"/>
      </g>
     </g>
     <g id="text_3">
      <!-- 11/24/20 -->
      <g style="fill: #555555" transform="translate(189.763211 180.918437) scale(0.1 -0.1)">
       <defs>
        <path id="DejaVuSans-34" d="M 2419 4116 
L 825 1625 
L 2419 1625 
L 2419 4116 
z
M 2253 4666 
L 3047 4666 
L 3047 1625 
L 3713 1625 
L 3713 1100 
L 3047 1100 
L 3047 0 
L 2419 0 
L 2419 1100 
L 313 1100 
L 313 1709 
L 2253 4666 
z
" transform="scale(0.015625)"/>
       </defs>
       <use xlink:href="#DejaVuSans-31"/>
       <use xlink:href="#DejaVuSans-31" x="63.623047"/>
       <use xlink:href="#DejaVuSans-2f" x="127.246094"/>
       <use xlink:href="#DejaVuSans-32" x="160.9375"/>
       <use xlink:href="#DejaVuSans-34" x="224.560547"/>
       <use xlink:href="#DejaVuSans-2f" x="288.183594"/>
       <use xlink:href="#DejaVuSans-32" x="321.875"/>
       <use xlink:href="#DejaVuSans-30" x="385.498047"/>
      </g>
     </g>
    </g>
    <g id="xtick_4">
     <g id="line2d_7">
      <path d="M 282.119246 166.32 
L 282.119246 -0 
" clip-path="url(#pbdf7df7d7f)" style="fill: none; stroke: #ffffff; stroke-width: 0.8; stroke-linecap: square"/>
     </g>
     <g id="line2d_8">
      <g>
       <use xlink:href="#m585d085adf" x="282.119246" y="166.32" style="fill: #555555; stroke: #555555; stroke-width: 0.8"/>
      </g>
     </g>
     <g id="text_4">
      <!-- 01/13/21 -->
      <g style="fill: #555555" transform="translate(259.662996 180.918437) scale(0.1 -0.1)">
       <defs>
        <path id="DejaVuSans-33" d="M 2597 2516 
Q 3050 2419 3304 2112 
Q 3559 1806 3559 1356 
Q 3559 666 3084 287 
Q 2609 -91 1734 -91 
Q 1441 -91 1130 -33 
Q 819 25 488 141 
L 488 750 
Q 750 597 1062 519 
Q 1375 441 1716 441 
Q 2309 441 2620 675 
Q 2931 909 2931 1356 
Q 2931 1769 2642 2001 
Q 2353 2234 1838 2234 
L 1294 2234 
L 1294 2753 
L 1863 2753 
Q 2328 2753 2575 2939 
Q 2822 3125 2822 3475 
Q 2822 3834 2567 4026 
Q 2313 4219 1838 4219 
Q 1578 4219 1281 4162 
Q 984 4106 628 3988 
L 628 4550 
Q 988 4650 1302 4700 
Q 1616 4750 1894 4750 
Q 2613 4750 3031 4423 
Q 3450 4097 3450 3541 
Q 3450 3153 3228 2886 
Q 3006 2619 2597 2516 
z
" transform="scale(0.015625)"/>
       </defs>
       <use xlink:href="#DejaVuSans-30"/>
       <use xlink:href="#DejaVuSans-31" x="63.623047"/>
       <use xlink:href="#DejaVuSans-2f" x="127.246094"/>
       <use xlink:href="#DejaVuSans-31" x="160.9375"/>
       <use xlink:href="#DejaVuSans-33" x="224.560547"/>
       <use xlink:href="#DejaVuSans-2f" x="288.183594"/>
       <use xlink:href="#DejaVuSans-32" x="321.875"/>
       <use xlink:href="#DejaVuSans-31" x="385.498047"/>
      </g>
     </g>
    </g>
    <g id="xtick_5">
     <g id="line2d_9">
      <path d="M 352.019031 166.32 
L 352.019031 -0 
" clip-path="url(#pbdf7df7d7f)" style="fill: none; stroke: #ffffff; stroke-width: 0.8; stroke-linecap: square"/>
     </g>
     <g id="line2d_10">
      <g>
       <use xlink:href="#m585d085adf" x="352.019031" y="166.32" style="fill: #555555; stroke: #555555; stroke-width: 0.8"/>
      </g>
     </g>
     <g id="text_5">
      <!-- 03/04/21 -->
      <g style="fill: #555555" transform="translate(329.562781 180.918437) scale(0.1 -0.1)">
       <use xlink:href="#DejaVuSans-30"/>
       <use xlink:href="#DejaVuSans-33" x="63.623047"/>
       <use xlink:href="#DejaVuSans-2f" x="127.246094"/>
       <use xlink:href="#DejaVuSans-30" x="160.9375"/>
       <use xlink:href="#DejaVuSans-34" x="224.560547"/>
       <use xlink:href="#DejaVuSans-2f" x="288.183594"/>
       <use xlink:href="#DejaVuSans-32" x="321.875"/>
       <use xlink:href="#DejaVuSans-31" x="385.498047"/>
      </g>
     </g>
    </g>
    <g id="xtick_6">
     <g id="line2d_11">
      <path d="M 421.918817 166.32 
L 421.918817 -0 
" clip-path="url(#pbdf7df7d7f)" style="fill: none; stroke: #ffffff; stroke-width: 0.8; stroke-linecap: square"/>
     </g>
     <g id="line2d_12">
      <g>
       <use xlink:href="#m585d085adf" x="421.918817" y="166.32" style="fill: #555555; stroke: #555555; stroke-width: 0.8"/>
      </g>
     </g>
     <g id="text_6">
      <!-- 04/23/21 -->
      <g style="fill: #555555" transform="translate(399.462567 180.918437) scale(0.1 -0.1)">
       <use xlink:href="#DejaVuSans-30"/>
       <use xlink:href="#DejaVuSans-34" x="63.623047"/>
       <use xlink:href="#DejaVuSans-2f" x="127.246094"/>
       <use xlink:href="#DejaVuSans-32" x="160.9375"/>
       <use xlink:href="#DejaVuSans-33" x="224.560547"/>
       <use xlink:href="#DejaVuSans-2f" x="288.183594"/>
       <use xlink:href="#DejaVuSans-32" x="321.875"/>
       <use xlink:href="#DejaVuSans-31" x="385.498047"/>
      </g>
     </g>
    </g>
    <g id="text_7">
     <!-- Date -->
     <g style="fill: #555555" transform="translate(225.838438 196.11625) scale(0.12 -0.12)">
      <defs>
       <path id="DejaVuSans-44" d="M 1259 4147 
L 1259 519 
L 2022 519 
Q 2988 519 3436 956 
Q 3884 1394 3884 2338 
Q 3884 3275 3436 3711 
Q 2988 4147 2022 4147 
L 1259 4147 
z
M 628 4666 
L 1925 4666 
Q 3281 4666 3915 4102 
Q 4550 3538 4550 2338 
Q 4550 1131 3912 565 
Q 3275 0 1925 0 
L 628 0 
L 628 4666 
z
" transform="scale(0.015625)"/>
       <path id="DejaVuSans-61" d="M 2194 1759 
Q 1497 1759 1228 1600 
Q 959 1441 959 1056 
Q 959 750 1161 570 
Q 1363 391 1709 391 
Q 2188 391 2477 730 
Q 2766 1069 2766 1631 
L 2766 1759 
L 2194 1759 
z
M 3341 1997 
L 3341 0 
L 2766 0 
L 2766 531 
Q 2569 213 2275 61 
Q 1981 -91 1556 -91 
Q 1019 -91 701 211 
Q 384 513 384 1019 
Q 384 1609 779 1909 
Q 1175 2209 1959 2209 
L 2766 2209 
L 2766 2266 
Q 2766 2663 2505 2880 
Q 2244 3097 1772 3097 
Q 1472 3097 1187 3025 
Q 903 2953 641 2809 
L 641 3341 
Q 956 3463 1253 3523 
Q 1550 3584 1831 3584 
Q 2591 3584 2966 3190 
Q 3341 2797 3341 1997 
z
" transform="scale(0.015625)"/>
       <path id="DejaVuSans-74" d="M 1172 4494 
L 1172 3500 
L 2356 3500 
L 2356 3053 
L 1172 3053 
L 1172 1153 
Q 1172 725 1289 603 
Q 1406 481 1766 481 
L 2356 481 
L 2356 0 
L 1766 0 
Q 1100 0 847 248 
Q 594 497 594 1153 
L 594 3053 
L 172 3053 
L 172 3500 
L 594 3500 
L 594 4494 
L 1172 4494 
z
" transform="scale(0.015625)"/>
       <path id="DejaVuSans-65" d="M 3597 1894 
L 3597 1613 
L 953 1613 
Q 991 1019 1311 708 
Q 1631 397 2203 397 
Q 2534 397 2845 478 
Q 3156 559 3463 722 
L 3463 178 
Q 3153 47 2828 -22 
Q 2503 -91 2169 -91 
Q 1331 -91 842 396 
Q 353 884 353 1716 
Q 353 2575 817 3079 
Q 1281 3584 2069 3584 
Q 2775 3584 3186 3129 
Q 3597 2675 3597 1894 
z
M 3022 2063 
Q 3016 2534 2758 2815 
Q 2500 3097 2075 3097 
Q 1594 3097 1305 2825 
Q 1016 2553 972 2059 
L 3022 2063 
z
" transform="scale(0.015625)"/>
      </defs>
      <use xlink:href="#DejaVuSans-44"/>
      <use xlink:href="#DejaVuSans-61" x="77.001953"/>
      <use xlink:href="#DejaVuSans-74" x="138.28125"/>
      <use xlink:href="#DejaVuSans-65" x="177.490234"/>
     </g>
    </g>
   </g>
   <g id="matplotlib.axis_2">
    <g id="ytick_1">
     <g id="line2d_13">
      <path d="M 44.879375 163.419209 
L 435.479375 163.419209 
" clip-path="url(#pbdf7df7d7f)" style="fill: none; stroke: #ffffff; stroke-width: 0.8; stroke-linecap: square"/>
     </g>
     <g id="line2d_14">
      <defs>
       <path id="me076831fc8" d="M 0 0 
L -3.5 0 
" style="stroke: #555555; stroke-width: 0.8"/>
      </defs>
      <g>
       <use xlink:href="#me076831fc8" x="44.879375" y="163.419209" style="fill: #555555; stroke: #555555; stroke-width: 0.8"/>
      </g>
     </g>
     <g id="text_8">
      <!-- 0.00 -->
      <g style="fill: #555555" transform="translate(15.61375 167.218428) scale(0.1 -0.1)">
       <defs>
        <path id="DejaVuSans-2e" d="M 684 794 
L 1344 794 
L 1344 0 
L 684 0 
L 684 794 
z
" transform="scale(0.015625)"/>
       </defs>
       <use xlink:href="#DejaVuSans-30"/>
       <use xlink:href="#DejaVuSans-2e" x="63.623047"/>
       <use xlink:href="#DejaVuSans-30" x="95.410156"/>
       <use xlink:href="#DejaVuSans-30" x="159.033203"/>
      </g>
     </g>
    </g>
    <g id="ytick_2">
     <g id="line2d_15">
      <path d="M 44.879375 141.117514 
L 435.479375 141.117514 
" clip-path="url(#pbdf7df7d7f)" style="fill: none; stroke: #ffffff; stroke-width: 0.8; stroke-linecap: square"/>
     </g>
     <g id="line2d_16">
      <g>
       <use xlink:href="#me076831fc8" x="44.879375" y="141.117514" style="fill: #555555; stroke: #555555; stroke-width: 0.8"/>
      </g>
     </g>
     <g id="text_9">
      <!-- 0.02 -->
      <g style="fill: #555555" transform="translate(15.61375 144.916733) scale(0.1 -0.1)">
       <use xlink:href="#DejaVuSans-30"/>
       <use xlink:href="#DejaVuSans-2e" x="63.623047"/>
       <use xlink:href="#DejaVuSans-30" x="95.410156"/>
       <use xlink:href="#DejaVuSans-32" x="159.033203"/>
      </g>
     </g>
    </g>
    <g id="ytick_3">
     <g id="line2d_17">
      <path d="M 44.879375 118.81582 
L 435.479375 118.81582 
" clip-path="url(#pbdf7df7d7f)" style="fill: none; stroke: #ffffff; stroke-width: 0.8; stroke-linecap: square"/>
     </g>
     <g id="line2d_18">
      <g>
       <use xlink:href="#me076831fc8" x="44.879375" y="118.81582" style="fill: #555555; stroke: #555555; stroke-width: 0.8"/>
      </g>
     </g>
     <g id="text_10">
      <!-- 0.04 -->
      <g style="fill: #555555" transform="translate(15.61375 122.615038) scale(0.1 -0.1)">
       <use xlink:href="#DejaVuSans-30"/>
       <use xlink:href="#DejaVuSans-2e" x="63.623047"/>
       <use xlink:href="#DejaVuSans-30" x="95.410156"/>
       <use xlink:href="#DejaVuSans-34" x="159.033203"/>
      </g>
     </g>
    </g>
    <g id="ytick_4">
     <g id="line2d_19">
      <path d="M 44.879375 96.514125 
L 435.479375 96.514125 
" clip-path="url(#pbdf7df7d7f)" style="fill: none; stroke: #ffffff; stroke-width: 0.8; stroke-linecap: square"/>
     </g>
     <g id="line2d_20">
      <g>
       <use xlink:href="#me076831fc8" x="44.879375" y="96.514125" style="fill: #555555; stroke: #555555; stroke-width: 0.8"/>
      </g>
     </g>
     <g id="text_11">
      <!-- 0.06 -->
      <g style="fill: #555555" transform="translate(15.61375 100.313343) scale(0.1 -0.1)">
       <use xlink:href="#DejaVuSans-30"/>
       <use xlink:href="#DejaVuSans-2e" x="63.623047"/>
       <use xlink:href="#DejaVuSans-30" x="95.410156"/>
       <use xlink:href="#DejaVuSans-36" x="159.033203"/>
      </g>
     </g>
    </g>
    <g id="ytick_5">
     <g id="line2d_21">
      <path d="M 44.879375 74.21243 
L 435.479375 74.21243 
" clip-path="url(#pbdf7df7d7f)" style="fill: none; stroke: #ffffff; stroke-width: 0.8; stroke-linecap: square"/>
     </g>
     <g id="line2d_22">
      <g>
       <use xlink:href="#me076831fc8" x="44.879375" y="74.21243" style="fill: #555555; stroke: #555555; stroke-width: 0.8"/>
      </g>
     </g>
     <g id="text_12">
      <!-- 0.08 -->
      <g style="fill: #555555" transform="translate(15.61375 78.011649) scale(0.1 -0.1)">
       <use xlink:href="#DejaVuSans-30"/>
       <use xlink:href="#DejaVuSans-2e" x="63.623047"/>
       <use xlink:href="#DejaVuSans-30" x="95.410156"/>
       <use xlink:href="#DejaVuSans-38" x="159.033203"/>
      </g>
     </g>
    </g>
    <g id="ytick_6">
     <g id="line2d_23">
      <path d="M 44.879375 51.910735 
L 435.479375 51.910735 
" clip-path="url(#pbdf7df7d7f)" style="fill: none; stroke: #ffffff; stroke-width: 0.8; stroke-linecap: square"/>
     </g>
     <g id="line2d_24">
      <g>
       <use xlink:href="#me076831fc8" x="44.879375" y="51.910735" style="fill: #555555; stroke: #555555; stroke-width: 0.8"/>
      </g>
     </g>
     <g id="text_13">
      <!-- 0.10 -->
      <g style="fill: #555555" transform="translate(15.61375 55.709954) scale(0.1 -0.1)">
       <use xlink:href="#DejaVuSans-30"/>
       <use xlink:href="#DejaVuSans-2e" x="63.623047"/>
       <use xlink:href="#DejaVuSans-31" x="95.410156"/>
       <use xlink:href="#DejaVuSans-30" x="159.033203"/>
      </g>
     </g>
    </g>
    <g id="ytick_7">
     <g id="line2d_25">
      <path d="M 44.879375 29.60904 
L 435.479375 29.60904 
" clip-path="url(#pbdf7df7d7f)" style="fill: none; stroke: #ffffff; stroke-width: 0.8; stroke-linecap: square"/>
     </g>
     <g id="line2d_26">
      <g>
       <use xlink:href="#me076831fc8" x="44.879375" y="29.60904" style="fill: #555555; stroke: #555555; stroke-width: 0.8"/>
      </g>
     </g>
     <g id="text_14">
      <!-- 0.12 -->
      <g style="fill: #555555" transform="translate(15.61375 33.408259) scale(0.1 -0.1)">
       <use xlink:href="#DejaVuSans-30"/>
       <use xlink:href="#DejaVuSans-2e" x="63.623047"/>
       <use xlink:href="#DejaVuSans-31" x="95.410156"/>
       <use xlink:href="#DejaVuSans-32" x="159.033203"/>
      </g>
     </g>
    </g>
    <g id="ytick_8">
     <g id="line2d_27">
      <path d="M 44.879375 7.307345 
L 435.479375 7.307345 
" clip-path="url(#pbdf7df7d7f)" style="fill: none; stroke: #ffffff; stroke-width: 0.8; stroke-linecap: square"/>
     </g>
     <g id="line2d_28">
      <g>
       <use xlink:href="#me076831fc8" x="44.879375" y="7.307345" style="fill: #555555; stroke: #555555; stroke-width: 0.8"/>
      </g>
     </g>
     <g id="text_15">
      <!-- 0.14 -->
      <g style="fill: #555555" transform="translate(15.61375 11.106564) scale(0.1 -0.1)">
       <use xlink:href="#DejaVuSans-30"/>
       <use xlink:href="#DejaVuSans-2e" x="63.623047"/>
       <use xlink:href="#DejaVuSans-31" x="95.410156"/>
       <use xlink:href="#DejaVuSans-34" x="159.033203"/>
      </g>
     </g>
    </g>
    <g id="text_16">
     <!-- Value -->
     <g style="fill: #555555" transform="translate(9.118125 99.6375) rotate(-90) scale(0.12 -0.12)">
      <defs>
       <path id="DejaVuSans-56" d="M 1831 0 
L 50 4666 
L 709 4666 
L 2188 738 
L 3669 4666 
L 4325 4666 
L 2547 0 
L 1831 0 
z
" transform="scale(0.015625)"/>
       <path id="DejaVuSans-6c" d="M 603 4863 
L 1178 4863 
L 1178 0 
L 603 0 
L 603 4863 
z
" transform="scale(0.015625)"/>
       <path id="DejaVuSans-75" d="M 544 1381 
L 544 3500 
L 1119 3500 
L 1119 1403 
Q 1119 906 1312 657 
Q 1506 409 1894 409 
Q 2359 409 2629 706 
Q 2900 1003 2900 1516 
L 2900 3500 
L 3475 3500 
L 3475 0 
L 2900 0 
L 2900 538 
Q 2691 219 2414 64 
Q 2138 -91 1772 -91 
Q 1169 -91 856 284 
Q 544 659 544 1381 
z
M 1991 3584 
L 1991 3584 
z
" transform="scale(0.015625)"/>
      </defs>
      <use xlink:href="#DejaVuSans-56"/>
      <use xlink:href="#DejaVuSans-61" x="60.658203"/>
      <use xlink:href="#DejaVuSans-6c" x="121.9375"/>
      <use xlink:href="#DejaVuSans-75" x="149.720703"/>
      <use xlink:href="#DejaVuSans-65" x="213.099609"/>
     </g>
    </g>
   </g>
   <g id="PolyCollection_1">
    <defs>
     <path id="me527ff08cb" d="M 62.63392 -56.012529 
L 62.63392 -67.865837 
L 64.031916 -69.036089 
L 65.429912 -67.847997 
L 66.827908 -68.614117 
L 68.225903 -68.121289 
L 69.623899 -67.756985 
L 71.021895 -69.145322 
L 72.41989 -69.791805 
L 73.817886 -69.792045 
L 75.215882 -69.82761 
L 76.613878 -70.280512 
L 78.011873 -70.43794 
L 79.409869 -68.55761 
L 80.807865 -68.337182 
L 82.20586 -68.41651 
L 83.603856 -68.029123 
L 85.001852 -77.343052 
L 86.399847 -77.422729 
L 87.797843 -77.193381 
L 89.195839 -77.325491 
L 90.593835 -81.750445 
L 91.99183 -86.106121 
L 93.389826 -84.787765 
L 94.787822 -93.034283 
L 96.185817 -93.874795 
L 97.583813 -101.204938 
L 98.981809 -103.296229 
L 100.379804 -95.669259 
L 101.7778 -89.650537 
L 103.175796 -93.62146 
L 104.573792 -86.784129 
L 105.971787 -87.272655 
L 107.369783 -65.615241 
L 108.767779 -68.221048 
L 110.165774 -70.404459 
L 111.56377 -68.415095 
L 112.961766 -69.4521 
L 114.359762 -66.606666 
L 115.757757 -65.919522 
L 117.155753 -66.207851 
L 118.553749 -68.117039 
L 119.951744 -68.327559 
L 121.34974 -68.723207 
L 122.747736 -69.255174 
L 124.145731 -68.202681 
L 125.543727 -69.989128 
L 126.941723 -68.76604 
L 128.339719 -69.590086 
L 129.737714 -69.682255 
L 131.13571 -70.709519 
L 132.533706 -72.496833 
L 133.931701 -70.661739 
L 135.329697 -70.791307 
L 136.727693 -72.559711 
L 138.125689 -70.245376 
L 139.523684 -70.800027 
L 140.92168 -70.827674 
L 142.319676 -74.494579 
L 143.717671 -72.810234 
L 145.115667 -73.50989 
L 146.513663 -73.119583 
L 147.911658 -72.025499 
L 149.309654 -73.435866 
L 150.70765 -75.100435 
L 152.105646 -79.108419 
L 153.503641 -77.874 
L 154.901637 -76.981015 
L 156.299633 -80.507772 
L 157.697628 -77.479201 
L 159.095624 -79.930949 
L 160.49362 -79.800149 
L 161.891616 -79.68466 
L 163.289611 -79.601442 
L 164.687607 -79.460207 
L 166.085603 -80.693616 
L 167.483598 -81.201612 
L 168.881594 -81.686071 
L 170.27959 -51.78611 
L 171.677585 -51.368849 
L 173.075581 -51.04729 
L 174.473577 -50.369451 
L 175.871573 -50.511857 
L 177.269568 -49.698063 
L 178.667564 -51.001105 
L 180.06556 -79.699974 
L 181.463555 -81.975273 
L 182.861551 -82.383039 
L 184.259547 -83.801162 
L 185.657543 -85.105933 
L 187.055538 -85.328305 
L 188.453534 -85.773577 
L 189.85153 -84.871361 
L 191.249525 -86.242375 
L 192.647521 -86.43742 
L 194.045517 -83.954316 
L 195.443512 -82.300427 
L 196.841508 -88.193399 
L 198.239504 -85.348698 
L 199.6375 -83.078528 
L 201.035495 -53.678029 
L 202.433491 -86.159211 
L 203.831487 -85.913021 
L 205.229482 -52.127648 
L 206.627478 -51.61197 
L 208.025474 -51.529244 
L 209.423469 -50.768859 
L 210.821465 -51.401043 
L 212.219461 -50.801825 
L 213.617457 -50.861127 
L 215.015452 -50.352522 
L 216.413448 -51.123477 
L 217.811444 -50.861081 
L 219.209439 -51.491264 
L 220.607435 -51.496879 
L 222.005431 -51.688211 
L 223.403427 -51.721886 
L 224.801422 -52.207117 
L 226.199418 -52.329172 
L 227.597414 -52.37264 
L 228.995409 -53.293647 
L 230.393405 -53.05233 
L 231.791401 -52.931448 
L 233.189396 -53.283995 
L 234.587392 -86.798986 
L 235.985388 -84.935586 
L 237.383384 -87.614485 
L 238.781379 -88.20085 
L 240.179375 -53.151103 
L 241.577371 -53.680676 
L 242.975366 -53.678134 
L 244.373362 -82.077632 
L 245.771358 -88.290826 
L 247.169354 -85.9425 
L 248.567349 -86.962426 
L 249.965345 -88.490575 
L 251.363341 -83.326086 
L 252.761336 -83.69942 
L 254.159332 -53.2093 
L 255.557328 -84.77664 
L 256.955323 -84.366006 
L 258.353319 -83.98012 
L 259.751315 -84.102394 
L 261.149311 -86.801288 
L 262.547306 -86.251804 
L 263.945302 -54.30138 
L 265.343298 -52.584993 
L 266.741293 -88.991102 
L 268.139289 -85.287732 
L 269.537285 -88.364835 
L 270.935281 -86.929273 
L 272.333276 -92.336247 
L 273.731272 -98.264938 
L 275.129268 -95.444317 
L 276.527263 -92.646183 
L 277.925259 -95.854706 
L 279.323255 -97.261516 
L 280.72125 -100.307245 
L 282.119246 -138.382005 
L 283.517242 -184.671263 
L 284.915238 -191.051875 
L 286.313233 -141.410898 
L 287.711229 -139.218827 
L 289.109225 -132.561163 
L 290.50722 -132.896786 
L 291.905216 -104.13499 
L 293.303212 -100.472708 
L 294.701207 -100.362028 
L 296.099203 -97.949511 
L 297.497199 -99.085117 
L 298.895195 -96.054454 
L 300.29319 -93.430955 
L 301.691186 -90.593016 
L 303.089182 -89.660971 
L 304.487177 -83.89716 
L 305.885173 -83.60759 
L 307.283169 -81.12605 
L 308.681165 -84.512038 
L 310.07916 -82.933571 
L 311.477156 -51.140919 
L 312.875152 -51.877984 
L 314.273147 -51.953569 
L 315.671143 -78.501762 
L 317.069139 -52.743306 
L 318.467134 -53.002935 
L 319.86513 -52.386778 
L 321.263126 -52.91234 
L 322.661122 -81.973939 
L 324.059117 -53.821732 
L 325.457113 -80.722212 
L 326.855109 -81.925954 
L 328.253104 -83.457792 
L 329.6511 -78.719267 
L 331.049096 -105.562147 
L 332.447092 -84.602831 
L 333.845087 -86.139331 
L 335.243083 -85.691916 
L 336.641079 -84.791557 
L 338.039074 -85.809378 
L 339.43707 -102.682424 
L 340.835066 -85.33059 
L 342.233061 -82.699742 
L 343.631057 -83.56066 
L 345.029053 -82.441779 
L 346.427049 -83.214437 
L 347.825044 -54.197084 
L 349.22304 -80.929923 
L 350.621036 -80.934591 
L 352.019031 -44.272031 
L 353.417027 -43.9628 
L 354.815023 -43.942118 
L 356.213019 -43.949773 
L 357.611014 -43.322071 
L 359.00901 -43.10181 
L 360.407006 -42.922406 
L 361.805001 -43.015092 
L 363.202997 -42.67756 
L 364.600993 -42.853643 
L 365.998988 -42.666198 
L 367.396984 -42.424135 
L 368.79498 -43.00441 
L 370.192976 -43.538327 
L 371.590971 -44.849424 
L 372.988967 -44.394391 
L 374.386963 -44.621395 
L 375.784958 -44.522362 
L 377.182954 -44.264501 
L 378.58095 -44.317015 
L 379.978946 -49.346894 
L 381.376941 -49.261974 
L 382.774937 -49.802673 
L 384.172933 -50.403648 
L 385.570928 -50.280404 
L 386.968924 -55.084059 
L 388.36692 -54.162202 
L 389.764915 -87.39958 
L 391.162911 -86.5786 
L 392.560907 -89.243304 
L 393.958903 -89.623967 
L 395.356898 -91.68726 
L 396.754894 -90.350944 
L 398.15289 -94.141415 
L 399.550885 -97.950984 
L 400.948881 -100.738001 
L 402.346877 -104.738135 
L 403.744872 -106.248606 
L 405.142868 -105.515484 
L 406.540864 -106.485497 
L 407.93886 -117.414743 
L 409.336855 -116.443692 
L 410.734851 -162.26058 
L 412.132847 -167.6788 
L 413.530842 -163.983322 
L 414.928838 -116.491991 
L 416.326834 -119.339637 
L 417.72483 -120.019702 
L 417.72483 -99.460775 
L 417.72483 -99.460775 
L 416.326834 -97.152209 
L 414.928838 -95.226472 
L 413.530842 -137.739979 
L 412.132847 -142.348795 
L 410.734851 -137.699026 
L 409.336855 -92.480289 
L 407.93886 -96.834453 
L 406.540864 -84.124215 
L 405.142868 -82.856168 
L 403.744872 -84.961819 
L 402.346877 -81.191655 
L 400.948881 -78.891011 
L 399.550885 -74.812465 
L 398.15289 -71.837894 
L 396.754894 -66.905223 
L 395.356898 -68.487797 
L 393.958903 -68.070395 
L 392.560907 -65.619735 
L 391.162911 -64.455137 
L 389.764915 -62.711109 
L 388.36692 -50.984135 
L 386.968924 -51.511936 
L 385.570928 -46.853031 
L 384.172933 -47.011922 
L 382.774937 -46.565183 
L 381.376941 -46.075043 
L 379.978946 -46.160906 
L 378.58095 -41.526993 
L 377.182954 -41.714926 
L 375.784958 -41.717588 
L 374.386963 -41.816722 
L 372.988967 -41.801843 
L 371.590971 -42.198734 
L 370.192976 -40.935724 
L 368.79498 -40.48628 
L 367.396984 -40.017626 
L 365.998988 -40.157317 
L 364.600993 -40.455156 
L 363.202997 -39.851875 
L 361.805001 -40.424663 
L 360.407006 -40.368651 
L 359.00901 -40.514191 
L 357.611014 -40.568259 
L 356.213019 -41.01321 
L 354.815023 -41.17444 
L 353.417027 -41.094251 
L 352.019031 -41.572552 
L 350.621036 -61.177654 
L 349.22304 -61.88 
L 347.825044 -50.149234 
L 346.427049 -65.889579 
L 345.029053 -66.169459 
L 343.631057 -67.096567 
L 342.233061 -66.986003 
L 340.835066 -71.902955 
L 339.43707 -89.198108 
L 338.039074 -71.765255 
L 336.641079 -70.659088 
L 335.243083 -72.494181 
L 333.845087 -71.474811 
L 332.447092 -69.788326 
L 331.049096 -89.391015 
L 329.6511 -63.579965 
L 328.253104 -63.846708 
L 326.855109 -64.646 
L 325.457113 -60.937456 
L 324.059117 -49.902606 
L 322.661122 -61.842289 
L 321.263126 -49.354922 
L 319.86513 -48.644729 
L 318.467134 -48.84968 
L 317.069139 -48.8962 
L 315.671143 -59.264722 
L 314.273147 -48.231151 
L 312.875152 -48.570166 
L 311.477156 -47.660915 
L 310.07916 -63.633719 
L 308.681165 -63.703243 
L 307.283169 -59.216903 
L 305.885173 -63.278895 
L 304.487177 -62.613151 
L 303.089182 -68.414125 
L 301.691186 -69.57123 
L 300.29319 -75.729373 
L 298.895195 -77.441469 
L 297.497199 -80.441484 
L 296.099203 -80.15635 
L 294.701207 -81.485026 
L 293.303212 -82.435381 
L 291.905216 -85.894626 
L 290.50722 -113.470633 
L 289.109225 -111.83984 
L 287.711229 -120.377914 
L 286.313233 -120.866751 
L 284.915238 -157.815564 
L 283.517242 -156.008232 
L 282.119246 -121.324905 
L 280.72125 -82.972686 
L 279.323255 -77.36203 
L 277.925259 -75.95318 
L 276.527263 -73.498275 
L 275.129268 -76.480854 
L 273.731272 -78.571083 
L 272.333276 -73.023428 
L 270.935281 -65.997244 
L 269.537285 -64.480944 
L 268.139289 -62.172609 
L 266.741293 -66.959781 
L 265.343298 -48.813012 
L 263.945302 -50.7734 
L 262.547306 -63.183472 
L 261.149311 -65.561041 
L 259.751315 -62.442548 
L 258.353319 -61.444117 
L 256.955323 -60.709044 
L 255.557328 -61.132812 
L 254.159332 -49.389325 
L 252.761336 -61.836896 
L 251.363341 -61.844857 
L 249.965345 -63.236045 
L 248.567349 -63.082657 
L 247.169354 -63.319141 
L 245.771358 -63.72707 
L 244.373362 -60.713223 
L 242.975366 -50.688531 
L 241.577371 -50.484257 
L 240.179375 -49.65271 
L 238.781379 -63.583941 
L 237.383384 -64.216126 
L 235.985388 -61.867093 
L 234.587392 -63.132483 
L 233.189396 -50.132757 
L 231.791401 -49.387415 
L 230.393405 -49.768874 
L 228.995409 -50.073153 
L 227.597414 -48.92212 
L 226.199418 -49.085744 
L 224.801422 -49.040287 
L 223.403427 -48.137283 
L 222.005431 -48.158081 
L 220.607435 -48.134069 
L 219.209439 -48.425334 
L 217.811444 -47.770866 
L 216.413448 -47.756441 
L 215.015452 -46.936422 
L 213.617457 -47.527746 
L 212.219461 -47.555696 
L 210.821465 -48.12312 
L 209.423469 -47.567506 
L 208.025474 -48.220543 
L 206.627478 -48.3598 
L 205.229482 -48.861633 
L 203.831487 -63.472204 
L 202.433491 -62.35411 
L 201.035495 -50.461151 
L 199.6375 -59.639279 
L 198.239504 -61.960983 
L 196.841508 -62.853779 
L 195.443512 -61.441713 
L 194.045517 -63.154506 
L 192.647521 -63.644129 
L 191.249525 -62.827086 
L 189.85153 -60.32234 
L 188.453534 -64.096286 
L 187.055538 -62.640776 
L 185.657543 -62.862656 
L 184.259547 -64.121123 
L 182.861551 -60.457352 
L 181.463555 -59.786717 
L 180.06556 -58.466006 
L 178.667564 -47.211599 
L 177.269568 -46.606589 
L 175.871573 -47.222748 
L 174.473577 -47.053297 
L 173.075581 -47.534727 
L 171.677585 -47.743077 
L 170.27959 -48.133304 
L 168.881594 -60.66625 
L 167.483598 -59.833341 
L 166.085603 -59.55281 
L 164.687607 -58.969982 
L 163.289611 -58.742342 
L 161.891616 -60.631954 
L 160.49362 -58.63898 
L 159.095624 -59.575214 
L 157.697628 -59.056524 
L 156.299633 -61.278117 
L 154.901637 -60.594265 
L 153.503641 -61.878927 
L 152.105646 -61.949287 
L 150.70765 -59.039843 
L 149.309654 -57.979774 
L 147.911658 -54.883847 
L 146.513663 -54.861181 
L 145.115667 -56.650722 
L 143.717671 -55.116527 
L 142.319676 -55.36597 
L 140.92168 -53.92754 
L 139.523684 -55.783342 
L 138.125689 -55.813091 
L 136.727693 -56.059925 
L 135.329697 -54.253917 
L 133.931701 -55.699495 
L 132.533706 -56.012589 
L 131.13571 -54.052859 
L 129.737714 -54.655793 
L 128.339719 -55.534563 
L 126.941723 -55.087014 
L 125.543727 -55.652315 
L 124.145731 -54.469013 
L 122.747736 -56.1578 
L 121.34974 -56.12939 
L 119.951744 -56.848877 
L 118.553749 -55.598002 
L 117.155753 -55.848067 
L 115.757757 -56.541461 
L 114.359762 -56.420172 
L 112.961766 -58.050497 
L 111.56377 -57.607181 
L 110.165774 -59.611553 
L 108.767779 -56.744172 
L 107.369783 -56.742004 
L 105.971787 -77.061868 
L 104.573792 -75.911044 
L 103.175796 -79.859048 
L 101.7778 -76.691084 
L 100.379804 -81.751039 
L 98.981809 -87.950833 
L 97.583813 -87.789972 
L 96.185817 -81.024326 
L 94.787822 -80.062392 
L 93.389826 -74.357808 
L 91.99183 -74.67537 
L 90.593835 -69.945344 
L 89.195839 -63.945825 
L 87.797843 -65.536137 
L 86.399847 -65.140762 
L 85.001852 -64.262306 
L 83.603856 -56.456532 
L 82.20586 -57.061825 
L 80.807865 -56.266086 
L 79.409869 -55.629508 
L 78.011873 -56.153861 
L 76.613878 -55.342951 
L 75.215882 -56.263481 
L 73.817886 -57.908808 
L 72.41989 -56.077752 
L 71.021895 -56.003245 
L 69.623899 -56.57814 
L 68.225903 -56.715651 
L 66.827908 -56.417083 
L 65.429912 -55.860965 
L 64.031916 -56.166382 
L 62.63392 -56.012529 
z
" style="stroke: #ffb612; stroke-opacity: 0.5; stroke-width: 0.5"/>
    </defs>
    <g clip-path="url(#pbdf7df7d7f)">
     <use xlink:href="#me527ff08cb" x="0" y="198.611875" style="fill: #ffb612; fill-opacity: 0.5; stroke: #ffb612; stroke-opacity: 0.5; stroke-width: 0.5"/>
    </g>
   </g>
   <g id="line2d_29">
    <path d="M 62.63392 136.672692 
L 64.031916 136.01064 
L 65.429912 136.757394 
L 66.827908 136.096275 
L 68.225903 136.193405 
L 69.623899 136.444312 
L 72.41989 135.677096 
L 73.817886 134.761449 
L 75.215882 135.566329 
L 76.613878 135.800144 
L 78.011873 135.315974 
L 79.409869 136.518316 
L 80.807865 136.310241 
L 82.20586 135.872708 
L 83.603856 136.369048 
L 85.001852 127.809196 
L 86.399847 127.330129 
L 87.797843 127.247116 
L 89.195839 127.976217 
L 90.593835 122.76398 
L 91.99183 118.22113 
L 93.389826 119.039088 
L 94.787822 112.063537 
L 96.185817 111.162314 
L 97.583813 104.11442 
L 98.981809 102.988344 
L 100.379804 109.901726 
L 101.7778 115.441065 
L 103.175796 111.871621 
L 104.573792 117.264288 
L 105.971787 116.444613 
L 107.369783 137.433253 
L 108.767779 136.129265 
L 110.165774 133.603869 
L 111.56377 135.600737 
L 112.961766 134.860577 
L 114.359762 137.098456 
L 117.155753 137.583916 
L 119.951744 136.023657 
L 121.34974 136.185577 
L 122.747736 135.905388 
L 124.145731 137.276028 
L 125.543727 135.791154 
L 126.941723 136.685348 
L 128.339719 136.04955 
L 129.737714 136.442851 
L 131.13571 136.230686 
L 132.533706 134.357164 
L 133.931701 135.431258 
L 135.329697 136.089263 
L 136.727693 134.302057 
L 138.125689 135.582642 
L 139.523684 135.32019 
L 140.92168 136.234268 
L 142.319676 133.681601 
L 143.717671 134.648495 
L 145.115667 133.531569 
L 146.513663 134.621493 
L 147.911658 135.157202 
L 149.309654 132.904055 
L 150.70765 131.541736 
L 152.105646 128.083022 
L 153.503641 128.735412 
L 154.901637 129.824235 
L 156.299633 127.718931 
L 157.697628 130.344013 
L 159.095624 128.858794 
L 160.49362 129.39231 
L 161.891616 128.453568 
L 163.289611 129.439983 
L 164.687607 129.396781 
L 166.085603 128.488662 
L 167.483598 128.094399 
L 168.881594 127.435715 
L 170.27959 148.652168 
L 171.677585 149.055912 
L 173.075581 149.320866 
L 174.473577 149.900501 
L 175.871573 149.744572 
L 177.269568 150.459549 
L 178.667564 149.505523 
L 180.06556 129.528885 
L 181.463555 127.73088 
L 182.861551 127.19168 
L 184.259547 124.650732 
L 187.055538 124.627335 
L 188.453534 123.676944 
L 189.85153 126.015025 
L 191.249525 124.077145 
L 192.647521 123.571101 
L 194.045517 125.057464 
L 195.443512 126.740805 
L 196.841508 123.088286 
L 198.239504 124.957034 
L 199.6375 127.252971 
L 201.035495 146.542285 
L 202.433491 124.355214 
L 203.831487 123.919263 
L 205.229482 148.117234 
L 206.627478 148.62599 
L 208.025474 148.736981 
L 209.423469 149.443692 
L 210.821465 148.849794 
L 212.219461 149.433115 
L 213.617457 149.417439 
L 215.015452 149.967403 
L 216.413448 149.171916 
L 217.811444 149.295901 
L 219.209439 148.653576 
L 220.607435 148.796401 
L 223.403427 148.68229 
L 224.801422 147.988173 
L 226.199418 147.904417 
L 227.597414 147.964495 
L 228.995409 146.928475 
L 231.791401 147.452444 
L 233.189396 146.903499 
L 234.587392 123.646141 
L 235.985388 125.210536 
L 237.383384 122.69657 
L 238.781379 122.71948 
L 240.179375 147.209969 
L 241.577371 146.529408 
L 242.975366 146.428543 
L 244.373362 127.216448 
L 245.771358 122.602927 
L 247.169354 123.981055 
L 248.567349 123.589333 
L 249.965345 122.748565 
L 251.363341 126.026404 
L 252.761336 125.843717 
L 254.159332 147.312562 
L 255.557328 125.657149 
L 256.955323 126.07435 
L 258.353319 125.899756 
L 259.751315 125.339404 
L 261.149311 122.430711 
L 262.547306 123.894237 
L 263.945302 146.074485 
L 265.343298 147.912872 
L 266.741293 120.636433 
L 268.139289 124.881704 
L 269.537285 122.188985 
L 270.935281 122.148616 
L 273.731272 110.193864 
L 275.129268 112.649289 
L 276.527263 115.539646 
L 277.925259 112.707932 
L 279.323255 111.300102 
L 280.72125 106.97191 
L 283.517242 28.272127 
L 284.915238 24.178155 
L 286.313233 67.47305 
L 287.711229 68.813505 
L 289.109225 76.411374 
L 290.50722 75.428165 
L 291.905216 103.597067 
L 293.303212 107.15783 
L 294.701207 107.688348 
L 296.099203 109.558945 
L 297.497199 108.848575 
L 298.895195 111.863914 
L 300.29319 114.031711 
L 301.691186 118.529752 
L 303.089182 119.574327 
L 304.487177 125.356719 
L 305.885173 125.168632 
L 307.283169 128.440399 
L 308.681165 124.504235 
L 310.07916 125.32823 
L 311.477156 149.210958 
L 312.875152 148.3878 
L 314.273147 148.519515 
L 315.671143 129.728633 
L 317.069139 147.792122 
L 318.467134 147.685568 
L 319.86513 148.096121 
L 321.263126 147.478244 
L 322.661122 126.703761 
L 324.059117 146.749706 
L 325.457113 127.782041 
L 326.855109 125.325898 
L 328.253104 124.959625 
L 329.6511 127.462259 
L 331.049096 101.135294 
L 332.447092 121.416296 
L 333.845087 119.804804 
L 335.243083 119.518826 
L 336.641079 120.886552 
L 338.039074 119.824558 
L 339.43707 102.671609 
L 340.835066 119.995102 
L 342.233061 123.769002 
L 343.631057 123.283261 
L 345.029053 124.306256 
L 346.427049 124.059867 
L 347.825044 146.438716 
L 349.22304 127.206913 
L 350.621036 127.555752 
L 352.019031 155.689584 
L 353.417027 156.08335 
L 356.213019 156.130383 
L 357.611014 156.66671 
L 360.407006 156.966347 
L 361.805001 156.891997 
L 363.202997 157.347158 
L 364.600993 156.957475 
L 367.396984 157.390995 
L 370.192976 156.374849 
L 371.590971 155.087796 
L 372.988967 155.513758 
L 374.386963 155.392817 
L 378.58095 155.689871 
L 379.978946 150.857975 
L 381.376941 150.943367 
L 384.172933 149.90409 
L 385.570928 150.045157 
L 386.968924 145.313878 
L 388.36692 146.038706 
L 389.764915 123.55653 
L 391.162911 123.095007 
L 392.560907 121.180355 
L 393.958903 119.764694 
L 395.356898 118.524347 
L 396.754894 119.983792 
L 398.15289 115.622221 
L 402.346877 105.64698 
L 403.744872 103.006663 
L 405.142868 104.426049 
L 406.540864 103.307019 
L 407.93886 91.487277 
L 409.336855 94.149885 
L 410.734851 48.632072 
L 412.132847 43.598077 
L 413.530842 47.750225 
L 414.928838 92.752644 
L 416.326834 90.365952 
L 417.72483 88.871637 
L 417.72483 88.871637 
" clip-path="url(#pbdf7df7d7f)" style="fill: none; stroke: #ffb612; stroke-width: 3; stroke-linecap: square"/>
    <defs>
     <path id="mb43495add4" d="M 0 1.5 
C 0.397805 1.5 0.77937 1.341951 1.06066 1.06066 
C 1.341951 0.77937 1.5 0.397805 1.5 0 
C 1.5 -0.397805 1.341951 -0.77937 1.06066 -1.06066 
C 0.77937 -1.341951 0.397805 -1.5 0 -1.5 
C -0.397805 -1.5 -0.77937 -1.341951 -1.06066 -1.06066 
C -1.341951 -0.77937 -1.5 -0.397805 -1.5 0 
C -1.5 0.397805 -1.341951 0.77937 -1.06066 1.06066 
C -0.77937 1.341951 -0.397805 1.5 0 1.5 
z
" style="stroke: #ffb612"/>
    </defs>
    <g clip-path="url(#pbdf7df7d7f)">
     <use xlink:href="#mb43495add4" x="62.63392" y="136.672692" style="fill: #ffb612; stroke: #ffb612"/>
     <use xlink:href="#mb43495add4" x="64.031916" y="136.01064" style="fill: #ffb612; stroke: #ffb612"/>
     <use xlink:href="#mb43495add4" x="65.429912" y="136.757394" style="fill: #ffb612; stroke: #ffb612"/>
     <use xlink:href="#mb43495add4" x="66.827908" y="136.096275" style="fill: #ffb612; stroke: #ffb612"/>
     <use xlink:href="#mb43495add4" x="68.225903" y="136.193405" style="fill: #ffb612; stroke: #ffb612"/>
     <use xlink:href="#mb43495add4" x="69.623899" y="136.444312" style="fill: #ffb612; stroke: #ffb612"/>
     <use xlink:href="#mb43495add4" x="71.021895" y="136.037592" style="fill: #ffb612; stroke: #ffb612"/>
     <use xlink:href="#mb43495add4" x="72.41989" y="135.677096" style="fill: #ffb612; stroke: #ffb612"/>
     <use xlink:href="#mb43495add4" x="73.817886" y="134.761449" style="fill: #ffb612; stroke: #ffb612"/>
     <use xlink:href="#mb43495add4" x="75.215882" y="135.566329" style="fill: #ffb612; stroke: #ffb612"/>
     <use xlink:href="#mb43495add4" x="76.613878" y="135.800144" style="fill: #ffb612; stroke: #ffb612"/>
     <use xlink:href="#mb43495add4" x="78.011873" y="135.315974" style="fill: #ffb612; stroke: #ffb612"/>
     <use xlink:href="#mb43495add4" x="79.409869" y="136.518316" style="fill: #ffb612; stroke: #ffb612"/>
     <use xlink:href="#mb43495add4" x="80.807865" y="136.310241" style="fill: #ffb612; stroke: #ffb612"/>
     <use xlink:href="#mb43495add4" x="82.20586" y="135.872708" style="fill: #ffb612; stroke: #ffb612"/>
     <use xlink:href="#mb43495add4" x="83.603856" y="136.369048" style="fill: #ffb612; stroke: #ffb612"/>
     <use xlink:href="#mb43495add4" x="85.001852" y="127.809196" style="fill: #ffb612; stroke: #ffb612"/>
     <use xlink:href="#mb43495add4" x="86.399847" y="127.330129" style="fill: #ffb612; stroke: #ffb612"/>
     <use xlink:href="#mb43495add4" x="87.797843" y="127.247116" style="fill: #ffb612; stroke: #ffb612"/>
     <use xlink:href="#mb43495add4" x="89.195839" y="127.976217" style="fill: #ffb612; stroke: #ffb612"/>
     <use xlink:href="#mb43495add4" x="90.593835" y="122.76398" style="fill: #ffb612; stroke: #ffb612"/>
     <use xlink:href="#mb43495add4" x="91.99183" y="118.22113" style="fill: #ffb612; stroke: #ffb612"/>
     <use xlink:href="#mb43495add4" x="93.389826" y="119.039088" style="fill: #ffb612; stroke: #ffb612"/>
     <use xlink:href="#mb43495add4" x="94.787822" y="112.063537" style="fill: #ffb612; stroke: #ffb612"/>
     <use xlink:href="#mb43495add4" x="96.185817" y="111.162314" style="fill: #ffb612; stroke: #ffb612"/>
     <use xlink:href="#mb43495add4" x="97.583813" y="104.11442" style="fill: #ffb612; stroke: #ffb612"/>
     <use xlink:href="#mb43495add4" x="98.981809" y="102.988344" style="fill: #ffb612; stroke: #ffb612"/>
     <use xlink:href="#mb43495add4" x="100.379804" y="109.901726" style="fill: #ffb612; stroke: #ffb612"/>
     <use xlink:href="#mb43495add4" x="101.7778" y="115.441065" style="fill: #ffb612; stroke: #ffb612"/>
     <use xlink:href="#mb43495add4" x="103.175796" y="111.871621" style="fill: #ffb612; stroke: #ffb612"/>
     <use xlink:href="#mb43495add4" x="104.573792" y="117.264288" style="fill: #ffb612; stroke: #ffb612"/>
     <use xlink:href="#mb43495add4" x="105.971787" y="116.444613" style="fill: #ffb612; stroke: #ffb612"/>
     <use xlink:href="#mb43495add4" x="107.369783" y="137.433253" style="fill: #ffb612; stroke: #ffb612"/>
     <use xlink:href="#mb43495add4" x="108.767779" y="136.129265" style="fill: #ffb612; stroke: #ffb612"/>
     <use xlink:href="#mb43495add4" x="110.165774" y="133.603869" style="fill: #ffb612; stroke: #ffb612"/>
     <use xlink:href="#mb43495add4" x="111.56377" y="135.600737" style="fill: #ffb612; stroke: #ffb612"/>
     <use xlink:href="#mb43495add4" x="112.961766" y="134.860577" style="fill: #ffb612; stroke: #ffb612"/>
     <use xlink:href="#mb43495add4" x="114.359762" y="137.098456" style="fill: #ffb612; stroke: #ffb612"/>
     <use xlink:href="#mb43495add4" x="115.757757" y="137.381383" style="fill: #ffb612; stroke: #ffb612"/>
     <use xlink:href="#mb43495add4" x="117.155753" y="137.583916" style="fill: #ffb612; stroke: #ffb612"/>
     <use xlink:href="#mb43495add4" x="118.553749" y="136.754355" style="fill: #ffb612; stroke: #ffb612"/>
     <use xlink:href="#mb43495add4" x="119.951744" y="136.023657" style="fill: #ffb612; stroke: #ffb612"/>
     <use xlink:href="#mb43495add4" x="121.34974" y="136.185577" style="fill: #ffb612; stroke: #ffb612"/>
     <use xlink:href="#mb43495add4" x="122.747736" y="135.905388" style="fill: #ffb612; stroke: #ffb612"/>
     <use xlink:href="#mb43495add4" x="124.145731" y="137.276028" style="fill: #ffb612; stroke: #ffb612"/>
     <use xlink:href="#mb43495add4" x="125.543727" y="135.791154" style="fill: #ffb612; stroke: #ffb612"/>
     <use xlink:href="#mb43495add4" x="126.941723" y="136.685348" style="fill: #ffb612; stroke: #ffb612"/>
     <use xlink:href="#mb43495add4" x="128.339719" y="136.04955" style="fill: #ffb612; stroke: #ffb612"/>
     <use xlink:href="#mb43495add4" x="129.737714" y="136.442851" style="fill: #ffb612; stroke: #ffb612"/>
     <use xlink:href="#mb43495add4" x="131.13571" y="136.230686" style="fill: #ffb612; stroke: #ffb612"/>
     <use xlink:href="#mb43495add4" x="132.533706" y="134.357164" style="fill: #ffb612; stroke: #ffb612"/>
     <use xlink:href="#mb43495add4" x="133.931701" y="135.431258" style="fill: #ffb612; stroke: #ffb612"/>
     <use xlink:href="#mb43495add4" x="135.329697" y="136.089263" style="fill: #ffb612; stroke: #ffb612"/>
     <use xlink:href="#mb43495add4" x="136.727693" y="134.302057" style="fill: #ffb612; stroke: #ffb612"/>
     <use xlink:href="#mb43495add4" x="138.125689" y="135.582642" style="fill: #ffb612; stroke: #ffb612"/>
     <use xlink:href="#mb43495add4" x="139.523684" y="135.32019" style="fill: #ffb612; stroke: #ffb612"/>
     <use xlink:href="#mb43495add4" x="140.92168" y="136.234268" style="fill: #ffb612; stroke: #ffb612"/>
     <use xlink:href="#mb43495add4" x="142.319676" y="133.681601" style="fill: #ffb612; stroke: #ffb612"/>
     <use xlink:href="#mb43495add4" x="143.717671" y="134.648495" style="fill: #ffb612; stroke: #ffb612"/>
     <use xlink:href="#mb43495add4" x="145.115667" y="133.531569" style="fill: #ffb612; stroke: #ffb612"/>
     <use xlink:href="#mb43495add4" x="146.513663" y="134.621493" style="fill: #ffb612; stroke: #ffb612"/>
     <use xlink:href="#mb43495add4" x="147.911658" y="135.157202" style="fill: #ffb612; stroke: #ffb612"/>
     <use xlink:href="#mb43495add4" x="149.309654" y="132.904055" style="fill: #ffb612; stroke: #ffb612"/>
     <use xlink:href="#mb43495add4" x="150.70765" y="131.541736" style="fill: #ffb612; stroke: #ffb612"/>
     <use xlink:href="#mb43495add4" x="152.105646" y="128.083022" style="fill: #ffb612; stroke: #ffb612"/>
     <use xlink:href="#mb43495add4" x="153.503641" y="128.735412" style="fill: #ffb612; stroke: #ffb612"/>
     <use xlink:href="#mb43495add4" x="154.901637" y="129.824235" style="fill: #ffb612; stroke: #ffb612"/>
     <use xlink:href="#mb43495add4" x="156.299633" y="127.718931" style="fill: #ffb612; stroke: #ffb612"/>
     <use xlink:href="#mb43495add4" x="157.697628" y="130.344013" style="fill: #ffb612; stroke: #ffb612"/>
     <use xlink:href="#mb43495add4" x="159.095624" y="128.858794" style="fill: #ffb612; stroke: #ffb612"/>
     <use xlink:href="#mb43495add4" x="160.49362" y="129.39231" style="fill: #ffb612; stroke: #ffb612"/>
     <use xlink:href="#mb43495add4" x="161.891616" y="128.453568" style="fill: #ffb612; stroke: #ffb612"/>
     <use xlink:href="#mb43495add4" x="163.289611" y="129.439983" style="fill: #ffb612; stroke: #ffb612"/>
     <use xlink:href="#mb43495add4" x="164.687607" y="129.396781" style="fill: #ffb612; stroke: #ffb612"/>
     <use xlink:href="#mb43495add4" x="166.085603" y="128.488662" style="fill: #ffb612; stroke: #ffb612"/>
     <use xlink:href="#mb43495add4" x="167.483598" y="128.094399" style="fill: #ffb612; stroke: #ffb612"/>
     <use xlink:href="#mb43495add4" x="168.881594" y="127.435715" style="fill: #ffb612; stroke: #ffb612"/>
     <use xlink:href="#mb43495add4" x="170.27959" y="148.652168" style="fill: #ffb612; stroke: #ffb612"/>
     <use xlink:href="#mb43495add4" x="171.677585" y="149.055912" style="fill: #ffb612; stroke: #ffb612"/>
     <use xlink:href="#mb43495add4" x="173.075581" y="149.320866" style="fill: #ffb612; stroke: #ffb612"/>
     <use xlink:href="#mb43495add4" x="174.473577" y="149.900501" style="fill: #ffb612; stroke: #ffb612"/>
     <use xlink:href="#mb43495add4" x="175.871573" y="149.744572" style="fill: #ffb612; stroke: #ffb612"/>
     <use xlink:href="#mb43495add4" x="177.269568" y="150.459549" style="fill: #ffb612; stroke: #ffb612"/>
     <use xlink:href="#mb43495add4" x="178.667564" y="149.505523" style="fill: #ffb612; stroke: #ffb612"/>
     <use xlink:href="#mb43495add4" x="180.06556" y="129.528885" style="fill: #ffb612; stroke: #ffb612"/>
     <use xlink:href="#mb43495add4" x="181.463555" y="127.73088" style="fill: #ffb612; stroke: #ffb612"/>
     <use xlink:href="#mb43495add4" x="182.861551" y="127.19168" style="fill: #ffb612; stroke: #ffb612"/>
     <use xlink:href="#mb43495add4" x="184.259547" y="124.650732" style="fill: #ffb612; stroke: #ffb612"/>
     <use xlink:href="#mb43495add4" x="185.657543" y="124.62758" style="fill: #ffb612; stroke: #ffb612"/>
     <use xlink:href="#mb43495add4" x="187.055538" y="124.627335" style="fill: #ffb612; stroke: #ffb612"/>
     <use xlink:href="#mb43495add4" x="188.453534" y="123.676944" style="fill: #ffb612; stroke: #ffb612"/>
     <use xlink:href="#mb43495add4" x="189.85153" y="126.015025" style="fill: #ffb612; stroke: #ffb612"/>
     <use xlink:href="#mb43495add4" x="191.249525" y="124.077145" style="fill: #ffb612; stroke: #ffb612"/>
     <use xlink:href="#mb43495add4" x="192.647521" y="123.571101" style="fill: #ffb612; stroke: #ffb612"/>
     <use xlink:href="#mb43495add4" x="194.045517" y="125.057464" style="fill: #ffb612; stroke: #ffb612"/>
     <use xlink:href="#mb43495add4" x="195.443512" y="126.740805" style="fill: #ffb612; stroke: #ffb612"/>
     <use xlink:href="#mb43495add4" x="196.841508" y="123.088286" style="fill: #ffb612; stroke: #ffb612"/>
     <use xlink:href="#mb43495add4" x="198.239504" y="124.957034" style="fill: #ffb612; stroke: #ffb612"/>
     <use xlink:href="#mb43495add4" x="199.6375" y="127.252971" style="fill: #ffb612; stroke: #ffb612"/>
     <use xlink:href="#mb43495add4" x="201.035495" y="146.542285" style="fill: #ffb612; stroke: #ffb612"/>
     <use xlink:href="#mb43495add4" x="202.433491" y="124.355214" style="fill: #ffb612; stroke: #ffb612"/>
     <use xlink:href="#mb43495add4" x="203.831487" y="123.919263" style="fill: #ffb612; stroke: #ffb612"/>
     <use xlink:href="#mb43495add4" x="205.229482" y="148.117234" style="fill: #ffb612; stroke: #ffb612"/>
     <use xlink:href="#mb43495add4" x="206.627478" y="148.62599" style="fill: #ffb612; stroke: #ffb612"/>
     <use xlink:href="#mb43495add4" x="208.025474" y="148.736981" style="fill: #ffb612; stroke: #ffb612"/>
     <use xlink:href="#mb43495add4" x="209.423469" y="149.443692" style="fill: #ffb612; stroke: #ffb612"/>
     <use xlink:href="#mb43495add4" x="210.821465" y="148.849794" style="fill: #ffb612; stroke: #ffb612"/>
     <use xlink:href="#mb43495add4" x="212.219461" y="149.433115" style="fill: #ffb612; stroke: #ffb612"/>
     <use xlink:href="#mb43495add4" x="213.617457" y="149.417439" style="fill: #ffb612; stroke: #ffb612"/>
     <use xlink:href="#mb43495add4" x="215.015452" y="149.967403" style="fill: #ffb612; stroke: #ffb612"/>
     <use xlink:href="#mb43495add4" x="216.413448" y="149.171916" style="fill: #ffb612; stroke: #ffb612"/>
     <use xlink:href="#mb43495add4" x="217.811444" y="149.295901" style="fill: #ffb612; stroke: #ffb612"/>
     <use xlink:href="#mb43495add4" x="219.209439" y="148.653576" style="fill: #ffb612; stroke: #ffb612"/>
     <use xlink:href="#mb43495add4" x="220.607435" y="148.796401" style="fill: #ffb612; stroke: #ffb612"/>
     <use xlink:href="#mb43495add4" x="222.005431" y="148.688729" style="fill: #ffb612; stroke: #ffb612"/>
     <use xlink:href="#mb43495add4" x="223.403427" y="148.68229" style="fill: #ffb612; stroke: #ffb612"/>
     <use xlink:href="#mb43495add4" x="224.801422" y="147.988173" style="fill: #ffb612; stroke: #ffb612"/>
     <use xlink:href="#mb43495add4" x="226.199418" y="147.904417" style="fill: #ffb612; stroke: #ffb612"/>
     <use xlink:href="#mb43495add4" x="227.597414" y="147.964495" style="fill: #ffb612; stroke: #ffb612"/>
     <use xlink:href="#mb43495add4" x="228.995409" y="146.928475" style="fill: #ffb612; stroke: #ffb612"/>
     <use xlink:href="#mb43495add4" x="230.393405" y="147.201273" style="fill: #ffb612; stroke: #ffb612"/>
     <use xlink:href="#mb43495add4" x="231.791401" y="147.452444" style="fill: #ffb612; stroke: #ffb612"/>
     <use xlink:href="#mb43495add4" x="233.189396" y="146.903499" style="fill: #ffb612; stroke: #ffb612"/>
     <use xlink:href="#mb43495add4" x="234.587392" y="123.646141" style="fill: #ffb612; stroke: #ffb612"/>
     <use xlink:href="#mb43495add4" x="235.985388" y="125.210536" style="fill: #ffb612; stroke: #ffb612"/>
     <use xlink:href="#mb43495add4" x="237.383384" y="122.69657" style="fill: #ffb612; stroke: #ffb612"/>
     <use xlink:href="#mb43495add4" x="238.781379" y="122.71948" style="fill: #ffb612; stroke: #ffb612"/>
     <use xlink:href="#mb43495add4" x="240.179375" y="147.209969" style="fill: #ffb612; stroke: #ffb612"/>
     <use xlink:href="#mb43495add4" x="241.577371" y="146.529408" style="fill: #ffb612; stroke: #ffb612"/>
     <use xlink:href="#mb43495add4" x="242.975366" y="146.428543" style="fill: #ffb612; stroke: #ffb612"/>
     <use xlink:href="#mb43495add4" x="244.373362" y="127.216448" style="fill: #ffb612; stroke: #ffb612"/>
     <use xlink:href="#mb43495add4" x="245.771358" y="122.602927" style="fill: #ffb612; stroke: #ffb612"/>
     <use xlink:href="#mb43495add4" x="247.169354" y="123.981055" style="fill: #ffb612; stroke: #ffb612"/>
     <use xlink:href="#mb43495add4" x="248.567349" y="123.589333" style="fill: #ffb612; stroke: #ffb612"/>
     <use xlink:href="#mb43495add4" x="249.965345" y="122.748565" style="fill: #ffb612; stroke: #ffb612"/>
     <use xlink:href="#mb43495add4" x="251.363341" y="126.026404" style="fill: #ffb612; stroke: #ffb612"/>
     <use xlink:href="#mb43495add4" x="252.761336" y="125.843717" style="fill: #ffb612; stroke: #ffb612"/>
     <use xlink:href="#mb43495add4" x="254.159332" y="147.312562" style="fill: #ffb612; stroke: #ffb612"/>
     <use xlink:href="#mb43495add4" x="255.557328" y="125.657149" style="fill: #ffb612; stroke: #ffb612"/>
     <use xlink:href="#mb43495add4" x="256.955323" y="126.07435" style="fill: #ffb612; stroke: #ffb612"/>
     <use xlink:href="#mb43495add4" x="258.353319" y="125.899756" style="fill: #ffb612; stroke: #ffb612"/>
     <use xlink:href="#mb43495add4" x="259.751315" y="125.339404" style="fill: #ffb612; stroke: #ffb612"/>
     <use xlink:href="#mb43495add4" x="261.149311" y="122.430711" style="fill: #ffb612; stroke: #ffb612"/>
     <use xlink:href="#mb43495add4" x="262.547306" y="123.894237" style="fill: #ffb612; stroke: #ffb612"/>
     <use xlink:href="#mb43495add4" x="263.945302" y="146.074485" style="fill: #ffb612; stroke: #ffb612"/>
     <use xlink:href="#mb43495add4" x="265.343298" y="147.912872" style="fill: #ffb612; stroke: #ffb612"/>
     <use xlink:href="#mb43495add4" x="266.741293" y="120.636433" style="fill: #ffb612; stroke: #ffb612"/>
     <use xlink:href="#mb43495add4" x="268.139289" y="124.881704" style="fill: #ffb612; stroke: #ffb612"/>
     <use xlink:href="#mb43495add4" x="269.537285" y="122.188985" style="fill: #ffb612; stroke: #ffb612"/>
     <use xlink:href="#mb43495add4" x="270.935281" y="122.148616" style="fill: #ffb612; stroke: #ffb612"/>
     <use xlink:href="#mb43495add4" x="272.333276" y="115.932037" style="fill: #ffb612; stroke: #ffb612"/>
     <use xlink:href="#mb43495add4" x="273.731272" y="110.193864" style="fill: #ffb612; stroke: #ffb612"/>
     <use xlink:href="#mb43495add4" x="275.129268" y="112.649289" style="fill: #ffb612; stroke: #ffb612"/>
     <use xlink:href="#mb43495add4" x="276.527263" y="115.539646" style="fill: #ffb612; stroke: #ffb612"/>
     <use xlink:href="#mb43495add4" x="277.925259" y="112.707932" style="fill: #ffb612; stroke: #ffb612"/>
     <use xlink:href="#mb43495add4" x="279.323255" y="111.300102" style="fill: #ffb612; stroke: #ffb612"/>
     <use xlink:href="#mb43495add4" x="280.72125" y="106.97191" style="fill: #ffb612; stroke: #ffb612"/>
     <use xlink:href="#mb43495add4" x="282.119246" y="68.75842" style="fill: #ffb612; stroke: #ffb612"/>
     <use xlink:href="#mb43495add4" x="283.517242" y="28.272127" style="fill: #ffb612; stroke: #ffb612"/>
     <use xlink:href="#mb43495add4" x="284.915238" y="24.178155" style="fill: #ffb612; stroke: #ffb612"/>
     <use xlink:href="#mb43495add4" x="286.313233" y="67.47305" style="fill: #ffb612; stroke: #ffb612"/>
     <use xlink:href="#mb43495add4" x="287.711229" y="68.813505" style="fill: #ffb612; stroke: #ffb612"/>
     <use xlink:href="#mb43495add4" x="289.109225" y="76.411374" style="fill: #ffb612; stroke: #ffb612"/>
     <use xlink:href="#mb43495add4" x="290.50722" y="75.428165" style="fill: #ffb612; stroke: #ffb612"/>
     <use xlink:href="#mb43495add4" x="291.905216" y="103.597067" style="fill: #ffb612; stroke: #ffb612"/>
     <use xlink:href="#mb43495add4" x="293.303212" y="107.15783" style="fill: #ffb612; stroke: #ffb612"/>
     <use xlink:href="#mb43495add4" x="294.701207" y="107.688348" style="fill: #ffb612; stroke: #ffb612"/>
     <use xlink:href="#mb43495add4" x="296.099203" y="109.558945" style="fill: #ffb612; stroke: #ffb612"/>
     <use xlink:href="#mb43495add4" x="297.497199" y="108.848575" style="fill: #ffb612; stroke: #ffb612"/>
     <use xlink:href="#mb43495add4" x="298.895195" y="111.863914" style="fill: #ffb612; stroke: #ffb612"/>
     <use xlink:href="#mb43495add4" x="300.29319" y="114.031711" style="fill: #ffb612; stroke: #ffb612"/>
     <use xlink:href="#mb43495add4" x="301.691186" y="118.529752" style="fill: #ffb612; stroke: #ffb612"/>
     <use xlink:href="#mb43495add4" x="303.089182" y="119.574327" style="fill: #ffb612; stroke: #ffb612"/>
     <use xlink:href="#mb43495add4" x="304.487177" y="125.356719" style="fill: #ffb612; stroke: #ffb612"/>
     <use xlink:href="#mb43495add4" x="305.885173" y="125.168632" style="fill: #ffb612; stroke: #ffb612"/>
     <use xlink:href="#mb43495add4" x="307.283169" y="128.440399" style="fill: #ffb612; stroke: #ffb612"/>
     <use xlink:href="#mb43495add4" x="308.681165" y="124.504235" style="fill: #ffb612; stroke: #ffb612"/>
     <use xlink:href="#mb43495add4" x="310.07916" y="125.32823" style="fill: #ffb612; stroke: #ffb612"/>
     <use xlink:href="#mb43495add4" x="311.477156" y="149.210958" style="fill: #ffb612; stroke: #ffb612"/>
     <use xlink:href="#mb43495add4" x="312.875152" y="148.3878" style="fill: #ffb612; stroke: #ffb612"/>
     <use xlink:href="#mb43495add4" x="314.273147" y="148.519515" style="fill: #ffb612; stroke: #ffb612"/>
     <use xlink:href="#mb43495add4" x="315.671143" y="129.728633" style="fill: #ffb612; stroke: #ffb612"/>
     <use xlink:href="#mb43495add4" x="317.069139" y="147.792122" style="fill: #ffb612; stroke: #ffb612"/>
     <use xlink:href="#mb43495add4" x="318.467134" y="147.685568" style="fill: #ffb612; stroke: #ffb612"/>
     <use xlink:href="#mb43495add4" x="319.86513" y="148.096121" style="fill: #ffb612; stroke: #ffb612"/>
     <use xlink:href="#mb43495add4" x="321.263126" y="147.478244" style="fill: #ffb612; stroke: #ffb612"/>
     <use xlink:href="#mb43495add4" x="322.661122" y="126.703761" style="fill: #ffb612; stroke: #ffb612"/>
     <use xlink:href="#mb43495add4" x="324.059117" y="146.749706" style="fill: #ffb612; stroke: #ffb612"/>
     <use xlink:href="#mb43495add4" x="325.457113" y="127.782041" style="fill: #ffb612; stroke: #ffb612"/>
     <use xlink:href="#mb43495add4" x="326.855109" y="125.325898" style="fill: #ffb612; stroke: #ffb612"/>
     <use xlink:href="#mb43495add4" x="328.253104" y="124.959625" style="fill: #ffb612; stroke: #ffb612"/>
     <use xlink:href="#mb43495add4" x="329.6511" y="127.462259" style="fill: #ffb612; stroke: #ffb612"/>
     <use xlink:href="#mb43495add4" x="331.049096" y="101.135294" style="fill: #ffb612; stroke: #ffb612"/>
     <use xlink:href="#mb43495add4" x="332.447092" y="121.416296" style="fill: #ffb612; stroke: #ffb612"/>
     <use xlink:href="#mb43495add4" x="333.845087" y="119.804804" style="fill: #ffb612; stroke: #ffb612"/>
     <use xlink:href="#mb43495add4" x="335.243083" y="119.518826" style="fill: #ffb612; stroke: #ffb612"/>
     <use xlink:href="#mb43495add4" x="336.641079" y="120.886552" style="fill: #ffb612; stroke: #ffb612"/>
     <use xlink:href="#mb43495add4" x="338.039074" y="119.824558" style="fill: #ffb612; stroke: #ffb612"/>
     <use xlink:href="#mb43495add4" x="339.43707" y="102.671609" style="fill: #ffb612; stroke: #ffb612"/>
     <use xlink:href="#mb43495add4" x="340.835066" y="119.995102" style="fill: #ffb612; stroke: #ffb612"/>
     <use xlink:href="#mb43495add4" x="342.233061" y="123.769002" style="fill: #ffb612; stroke: #ffb612"/>
     <use xlink:href="#mb43495add4" x="343.631057" y="123.283261" style="fill: #ffb612; stroke: #ffb612"/>
     <use xlink:href="#mb43495add4" x="345.029053" y="124.306256" style="fill: #ffb612; stroke: #ffb612"/>
     <use xlink:href="#mb43495add4" x="346.427049" y="124.059867" style="fill: #ffb612; stroke: #ffb612"/>
     <use xlink:href="#mb43495add4" x="347.825044" y="146.438716" style="fill: #ffb612; stroke: #ffb612"/>
     <use xlink:href="#mb43495add4" x="349.22304" y="127.206913" style="fill: #ffb612; stroke: #ffb612"/>
     <use xlink:href="#mb43495add4" x="350.621036" y="127.555752" style="fill: #ffb612; stroke: #ffb612"/>
     <use xlink:href="#mb43495add4" x="352.019031" y="155.689584" style="fill: #ffb612; stroke: #ffb612"/>
     <use xlink:href="#mb43495add4" x="353.417027" y="156.08335" style="fill: #ffb612; stroke: #ffb612"/>
     <use xlink:href="#mb43495add4" x="354.815023" y="156.053596" style="fill: #ffb612; stroke: #ffb612"/>
     <use xlink:href="#mb43495add4" x="356.213019" y="156.130383" style="fill: #ffb612; stroke: #ffb612"/>
     <use xlink:href="#mb43495add4" x="357.611014" y="156.66671" style="fill: #ffb612; stroke: #ffb612"/>
     <use xlink:href="#mb43495add4" x="359.00901" y="156.803874" style="fill: #ffb612; stroke: #ffb612"/>
     <use xlink:href="#mb43495add4" x="360.407006" y="156.966347" style="fill: #ffb612; stroke: #ffb612"/>
     <use xlink:href="#mb43495add4" x="361.805001" y="156.891997" style="fill: #ffb612; stroke: #ffb612"/>
     <use xlink:href="#mb43495add4" x="363.202997" y="157.347158" style="fill: #ffb612; stroke: #ffb612"/>
     <use xlink:href="#mb43495add4" x="364.600993" y="156.957475" style="fill: #ffb612; stroke: #ffb612"/>
     <use xlink:href="#mb43495add4" x="365.998988" y="157.200118" style="fill: #ffb612; stroke: #ffb612"/>
     <use xlink:href="#mb43495add4" x="367.396984" y="157.390995" style="fill: #ffb612; stroke: #ffb612"/>
     <use xlink:href="#mb43495add4" x="368.79498" y="156.86653" style="fill: #ffb612; stroke: #ffb612"/>
     <use xlink:href="#mb43495add4" x="370.192976" y="156.374849" style="fill: #ffb612; stroke: #ffb612"/>
     <use xlink:href="#mb43495add4" x="371.590971" y="155.087796" style="fill: #ffb612; stroke: #ffb612"/>
     <use xlink:href="#mb43495add4" x="372.988967" y="155.513758" style="fill: #ffb612; stroke: #ffb612"/>
     <use xlink:href="#mb43495add4" x="374.386963" y="155.392817" style="fill: #ffb612; stroke: #ffb612"/>
     <use xlink:href="#mb43495add4" x="375.784958" y="155.4919" style="fill: #ffb612; stroke: #ffb612"/>
     <use xlink:href="#mb43495add4" x="377.182954" y="155.622162" style="fill: #ffb612; stroke: #ffb612"/>
     <use xlink:href="#mb43495add4" x="378.58095" y="155.689871" style="fill: #ffb612; stroke: #ffb612"/>
     <use xlink:href="#mb43495add4" x="379.978946" y="150.857975" style="fill: #ffb612; stroke: #ffb612"/>
     <use xlink:href="#mb43495add4" x="381.376941" y="150.943367" style="fill: #ffb612; stroke: #ffb612"/>
     <use xlink:href="#mb43495add4" x="382.774937" y="150.427947" style="fill: #ffb612; stroke: #ffb612"/>
     <use xlink:href="#mb43495add4" x="384.172933" y="149.90409" style="fill: #ffb612; stroke: #ffb612"/>
     <use xlink:href="#mb43495add4" x="385.570928" y="150.045157" style="fill: #ffb612; stroke: #ffb612"/>
     <use xlink:href="#mb43495add4" x="386.968924" y="145.313878" style="fill: #ffb612; stroke: #ffb612"/>
     <use xlink:href="#mb43495add4" x="388.36692" y="146.038706" style="fill: #ffb612; stroke: #ffb612"/>
     <use xlink:href="#mb43495add4" x="389.764915" y="123.55653" style="fill: #ffb612; stroke: #ffb612"/>
     <use xlink:href="#mb43495add4" x="391.162911" y="123.095007" style="fill: #ffb612; stroke: #ffb612"/>
     <use xlink:href="#mb43495add4" x="392.560907" y="121.180355" style="fill: #ffb612; stroke: #ffb612"/>
     <use xlink:href="#mb43495add4" x="393.958903" y="119.764694" style="fill: #ffb612; stroke: #ffb612"/>
     <use xlink:href="#mb43495add4" x="395.356898" y="118.524347" style="fill: #ffb612; stroke: #ffb612"/>
     <use xlink:href="#mb43495add4" x="396.754894" y="119.983792" style="fill: #ffb612; stroke: #ffb612"/>
     <use xlink:href="#mb43495add4" x="398.15289" y="115.622221" style="fill: #ffb612; stroke: #ffb612"/>
     <use xlink:href="#mb43495add4" x="399.550885" y="112.230151" style="fill: #ffb612; stroke: #ffb612"/>
     <use xlink:href="#mb43495add4" x="400.948881" y="108.797369" style="fill: #ffb612; stroke: #ffb612"/>
     <use xlink:href="#mb43495add4" x="402.346877" y="105.64698" style="fill: #ffb612; stroke: #ffb612"/>
     <use xlink:href="#mb43495add4" x="403.744872" y="103.006663" style="fill: #ffb612; stroke: #ffb612"/>
     <use xlink:href="#mb43495add4" x="405.142868" y="104.426049" style="fill: #ffb612; stroke: #ffb612"/>
     <use xlink:href="#mb43495add4" x="406.540864" y="103.307019" style="fill: #ffb612; stroke: #ffb612"/>
     <use xlink:href="#mb43495add4" x="407.93886" y="91.487277" style="fill: #ffb612; stroke: #ffb612"/>
     <use xlink:href="#mb43495add4" x="409.336855" y="94.149885" style="fill: #ffb612; stroke: #ffb612"/>
     <use xlink:href="#mb43495add4" x="410.734851" y="48.632072" style="fill: #ffb612; stroke: #ffb612"/>
     <use xlink:href="#mb43495add4" x="412.132847" y="43.598077" style="fill: #ffb612; stroke: #ffb612"/>
     <use xlink:href="#mb43495add4" x="413.530842" y="47.750225" style="fill: #ffb612; stroke: #ffb612"/>
     <use xlink:href="#mb43495add4" x="414.928838" y="92.752644" style="fill: #ffb612; stroke: #ffb612"/>
     <use xlink:href="#mb43495add4" x="416.326834" y="90.365952" style="fill: #ffb612; stroke: #ffb612"/>
     <use xlink:href="#mb43495add4" x="417.72483" y="88.871637" style="fill: #ffb612; stroke: #ffb612"/>
    </g>
   </g>
   <g id="line2d_30">
    <path d="M 62.63392 135.509147 
L 64.031916 135.124487 
L 65.429912 130.782263 
L 66.827908 132.576212 
L 68.225903 132.020467 
L 69.623899 132.147351 
L 71.021895 135.481508 
L 72.41989 134.981598 
L 73.817886 135.574046 
L 75.215882 135.882011 
L 76.613878 138.563798 
L 78.011873 138.915861 
L 79.409869 137.974849 
L 80.807865 135.92222 
L 82.20586 131.243892 
L 83.603856 130.339737 
L 85.001852 130.03773 
L 86.399847 128.992044 
L 87.797843 129.832502 
L 89.195839 130.21027 
L 90.593835 128.048843 
L 91.99183 125.387115 
L 93.389826 125.681619 
L 94.787822 124.974821 
L 96.185817 118.168862 
L 97.583813 116.651177 
L 98.981809 114.005444 
L 100.379804 117.832867 
L 101.7778 120.870125 
L 103.175796 120.041624 
L 104.573792 122.107672 
L 105.971787 122.602828 
L 107.369783 129.942443 
L 108.767779 134.144487 
L 110.165774 132.527957 
L 111.56377 136.379319 
L 112.961766 134.293623 
L 114.359762 135.63419 
L 115.757757 131.453526 
L 117.155753 136.812619 
L 118.553749 140.326843 
L 119.951744 141.026574 
L 122.747736 141.086256 
L 124.145731 141.039377 
L 125.543727 145.945512 
L 126.941723 143.829719 
L 128.339719 144.210873 
L 129.737714 143.864491 
L 131.13571 145.707849 
L 132.533706 145.872116 
L 133.931701 144.961312 
L 135.329697 145.971069 
L 136.727693 143.88241 
L 138.125689 141.171591 
L 139.523684 142.225943 
L 140.92168 148.249741 
L 142.319676 149.304041 
L 143.717671 148.652514 
L 145.115667 145.832694 
L 146.513663 145.486984 
L 147.911658 143.297226 
L 149.309654 142.359038 
L 150.70765 140.512997 
L 152.105646 139.734886 
L 153.503641 139.63504 
L 154.901637 136.083817 
L 156.299633 138.858014 
L 157.697628 139.387325 
L 159.095624 146.500099 
L 160.49362 146.492974 
L 161.891616 144.478728 
L 163.289611 143.769271 
L 164.687607 144.831209 
L 166.085603 145.221268 
L 167.483598 145.026696 
L 168.881594 143.679377 
L 170.27959 147.456725 
L 171.677585 147.903507 
L 173.075581 147.625315 
L 174.473577 148.519751 
L 175.871573 148.96489 
L 177.269568 148.77455 
L 178.667564 145.741208 
L 180.06556 145.161393 
L 181.463555 142.715958 
L 182.861551 143.117797 
L 184.259547 142.075115 
L 185.657543 139.893172 
L 187.055538 139.943763 
L 188.453534 140.814695 
L 189.85153 140.192028 
L 191.249525 138.475437 
L 192.647521 137.596544 
L 194.045517 140.927195 
L 195.443512 138.46069 
L 196.841508 142.00823 
L 198.239504 143.458156 
L 199.6375 144.009899 
L 201.035495 144.719668 
L 202.433491 142.864218 
L 203.831487 144.346868 
L 205.229482 147.543902 
L 206.627478 148.273375 
L 209.423469 150.557385 
L 210.821465 149.778477 
L 213.617457 150.27216 
L 215.015452 152.177597 
L 216.413448 150.219848 
L 217.811444 149.359117 
L 219.209439 149.288936 
L 220.607435 148.559966 
L 222.005431 149.197193 
L 223.403427 148.892402 
L 224.801422 147.342554 
L 226.199418 146.987508 
L 227.597414 146.844899 
L 228.995409 144.444141 
L 230.393405 145.81898 
L 231.791401 145.576766 
L 233.189396 144.505077 
L 234.587392 141.151574 
L 235.985388 143.505524 
L 237.383384 143.378626 
L 238.781379 142.617669 
L 240.179375 145.650823 
L 241.577371 145.62097 
L 242.975366 144.952194 
L 244.373362 143.646552 
L 245.771358 142.640787 
L 247.169354 141.458491 
L 248.567349 141.087226 
L 249.965345 140.971439 
L 251.363341 140.606207 
L 252.761336 143.588713 
L 254.159332 144.687908 
L 255.557328 144.383518 
L 256.955323 143.862581 
L 258.353319 144.296915 
L 259.751315 141.414146 
L 261.149311 141.963841 
L 262.547306 141.47327 
L 263.945302 145.059371 
L 265.343298 145.798938 
L 266.741293 138.242995 
L 268.139289 138.276963 
L 269.537285 135.967626 
L 270.935281 136.253969 
L 272.333276 117.250404 
L 273.731272 106.085674 
L 275.129268 111.737954 
L 276.527263 116.177948 
L 277.925259 110.257406 
L 279.323255 107.254766 
L 280.72125 95.544904 
L 282.119246 67.182452 
L 283.517242 31.524798 
L 284.915238 23.324594 
L 286.313233 55.535079 
L 287.711229 67.62659 
L 289.109225 88.482249 
L 290.50722 84.460345 
L 291.905216 94.111498 
L 293.303212 102.057822 
L 294.701207 103.82195 
L 296.099203 109.744329 
L 297.497199 109.814326 
L 298.895195 113.160611 
L 300.29319 117.445496 
L 301.691186 130.474969 
L 303.089182 134.374431 
L 304.487177 135.182856 
L 305.885173 140.978586 
L 307.283169 141.860232 
L 310.07916 141.982066 
L 311.477156 145.989718 
L 312.875152 145.949283 
L 314.273147 145.358354 
L 315.671143 144.593748 
L 317.069139 144.64418 
L 318.467134 145.444107 
L 319.86513 147.174608 
L 321.263126 145.699464 
L 322.661122 144.948305 
L 324.059117 145.509807 
L 325.457113 140.69711 
L 326.855109 137.486884 
L 328.253104 137.272023 
L 329.6511 137.541813 
L 331.049096 109.504219 
L 332.447092 125.215135 
L 333.845087 120.222764 
L 335.243083 120.724165 
L 336.641079 120.761198 
L 338.039074 121.538243 
L 339.43707 112.470911 
L 340.835066 119.137803 
L 342.233061 128.180768 
L 343.631057 135.034676 
L 345.029053 133.963757 
L 346.427049 133.978676 
L 347.825044 146.655836 
L 349.22304 142.797657 
L 350.621036 144.991065 
L 352.019031 155.050965 
L 353.417027 155.555729 
L 354.815023 155.130023 
L 356.213019 155.149549 
L 357.611014 155.721073 
L 359.00901 155.904786 
L 360.407006 156.211146 
L 361.805001 155.903137 
L 363.202997 155.85998 
L 364.600993 155.682239 
L 365.998988 155.698129 
L 367.396984 156.476122 
L 368.79498 156.679279 
L 370.192976 156.663729 
L 371.590971 154.584061 
L 372.988967 154.910375 
L 374.386963 154.542074 
L 375.784958 154.553595 
L 378.58095 153.596917 
L 379.978946 152.51382 
L 381.376941 152.147881 
L 384.172933 150.543654 
L 385.570928 150.549865 
L 386.968924 144.077332 
L 388.36692 144.845523 
L 389.764915 141.220201 
L 391.162911 139.600917 
L 392.560907 134.229679 
L 393.958903 131.906576 
L 395.356898 131.932274 
L 396.754894 124.89368 
L 398.15289 120.700575 
L 399.550885 117.294079 
L 402.346877 101.48774 
L 403.744872 100.265332 
L 405.142868 100.266651 
L 406.540864 101.609408 
L 407.93886 76.928862 
L 409.336855 85.284948 
L 410.734851 59.837545 
L 412.132847 57.056363 
L 413.530842 60.975061 
L 414.928838 75.597458 
L 416.326834 76.208214 
L 417.72483 76.371688 
L 417.72483 76.371688 
" clip-path="url(#pbdf7df7d7f)" style="fill: none; stroke-dasharray: 5.55,2.4; stroke-dashoffset: 0; stroke: #000000; stroke-width: 1.5"/>
   </g>
   <g id="patch_3">
    <path d="M 44.879375 166.32 
L 44.879375 -0 
" style="fill: none; stroke: #ffffff; stroke-linejoin: miter; stroke-linecap: square"/>
   </g>
   <g id="patch_4">
    <path d="M 435.479375 166.32 
L 435.479375 -0 
" style="fill: none; stroke: #ffffff; stroke-linejoin: miter; stroke-linecap: square"/>
   </g>
   <g id="patch_5">
    <path d="M 44.879375 166.32 
L 435.479375 166.32 
" style="fill: none; stroke: #ffffff; stroke-linejoin: miter; stroke-linecap: square"/>
   </g>
   <g id="patch_6">
    <path d="M 44.879375 -0 
L 435.479375 -0 
" style="fill: none; stroke: #ffffff; stroke-linejoin: miter; stroke-linecap: square"/>
   </g>
   <g id="legend_1">
    <g id="patch_7">
     <path d="M 51.879375 60.378125 
L 203.92625 60.378125 
Q 205.92625 60.378125 205.92625 58.378125 
L 205.92625 7 
Q 205.92625 5 203.92625 5 
L 51.879375 5 
Q 49.879375 5 49.879375 7 
L 49.879375 58.378125 
Q 49.879375 60.378125 51.879375 60.378125 
z
" style="fill: #e5e5e5; opacity: 0.8; stroke: #cccccc; stroke-width: 0.5; stroke-linejoin: miter"/>
    </g>
    <g id="line2d_31">
     <path d="M 53.879375 15.5 
L 63.879375 15.5 
L 73.879375 15.5 
" style="fill: none; stroke: #ffb612; stroke-width: 3; stroke-linecap: square"/>
     <g>
      <use xlink:href="#mb43495add4" x="63.879375" y="15.5" style="fill: #ffb612; stroke: #ffb612"/>
     </g>
    </g>
    <g id="text_17">
     <!-- Private Value $\tilde{R}_{\chi_3,\chi_1}^t$ -->
     <g transform="translate(81.879375 19) scale(0.1 -0.1)">
      <defs>
       <path id="DejaVuSans-50" d="M 1259 4147 
L 1259 2394 
L 2053 2394 
Q 2494 2394 2734 2622 
Q 2975 2850 2975 3272 
Q 2975 3691 2734 3919 
Q 2494 4147 2053 4147 
L 1259 4147 
z
M 628 4666 
L 2053 4666 
Q 2838 4666 3239 4311 
Q 3641 3956 3641 3272 
Q 3641 2581 3239 2228 
Q 2838 1875 2053 1875 
L 1259 1875 
L 1259 0 
L 628 0 
L 628 4666 
z
" transform="scale(0.015625)"/>
       <path id="DejaVuSans-72" d="M 2631 2963 
Q 2534 3019 2420 3045 
Q 2306 3072 2169 3072 
Q 1681 3072 1420 2755 
Q 1159 2438 1159 1844 
L 1159 0 
L 581 0 
L 581 3500 
L 1159 3500 
L 1159 2956 
Q 1341 3275 1631 3429 
Q 1922 3584 2338 3584 
Q 2397 3584 2469 3576 
Q 2541 3569 2628 3553 
L 2631 2963 
z
" transform="scale(0.015625)"/>
       <path id="DejaVuSans-69" d="M 603 3500 
L 1178 3500 
L 1178 0 
L 603 0 
L 603 3500 
z
M 603 4863 
L 1178 4863 
L 1178 4134 
L 603 4134 
L 603 4863 
z
" transform="scale(0.015625)"/>
       <path id="DejaVuSans-76" d="M 191 3500 
L 800 3500 
L 1894 563 
L 2988 3500 
L 3597 3500 
L 2284 0 
L 1503 0 
L 191 3500 
z
" transform="scale(0.015625)"/>
       <path id="DejaVuSans-20" transform="scale(0.015625)"/>
       <path id="DejaVuSans-303" d="M -1621 4281 
L -1799 4453 
Q -1867 4516 -1919 4545 
Q -1971 4575 -2011 4575 
Q -2130 4575 -2186 4461 
Q -2242 4347 -2249 4091 
L -2639 4091 
Q -2633 4513 -2473 4742 
Q -2314 4972 -2030 4972 
Q -1911 4972 -1811 4928 
Q -1711 4884 -1596 4781 
L -1417 4609 
Q -1349 4547 -1297 4517 
Q -1246 4488 -1205 4488 
Q -1086 4488 -1030 4602 
Q -974 4716 -967 4972 
L -577 4972 
Q -583 4550 -742 4320 
Q -902 4091 -1186 4091 
Q -1305 4091 -1405 4134 
Q -1505 4178 -1621 4281 
z
" transform="scale(0.015625)"/>
       <path id="DejaVuSans-Oblique-52" d="M 1613 4147 
L 1294 2491 
L 2106 2491 
Q 2584 2491 2879 2755 
Q 3175 3019 3175 3444 
Q 3175 3784 2976 3965 
Q 2778 4147 2406 4147 
L 1613 4147 
z
M 2772 2241 
Q 2972 2194 3105 2009 
Q 3238 1825 3413 1275 
L 3809 0 
L 3144 0 
L 2778 1197 
Q 2638 1659 2453 1815 
Q 2269 1972 1888 1972 
L 1191 1972 
L 806 0 
L 172 0 
L 1081 4666 
L 2503 4666 
Q 3150 4666 3495 4373 
Q 3841 4081 3841 3531 
Q 3841 3044 3547 2687 
Q 3253 2331 2772 2241 
z
" transform="scale(0.015625)"/>
       <path id="DejaVuSans-Oblique-74" d="M 2706 3500 
L 2619 3053 
L 1472 3053 
L 1100 1153 
Q 1081 1047 1072 975 
Q 1063 903 1063 863 
Q 1063 663 1183 572 
Q 1303 481 1569 481 
L 2150 481 
L 2053 0 
L 1503 0 
Q 991 0 739 200 
Q 488 400 488 806 
Q 488 878 497 964 
Q 506 1050 525 1153 
L 897 3053 
L 409 3053 
L 500 3500 
L 978 3500 
L 1172 4494 
L 1747 4494 
L 1556 3500 
L 2706 3500 
z
" transform="scale(0.015625)"/>
       <path id="DejaVuSans-Oblique-3c7" d="M 1922 -781 
L 1691 416 
L 394 -1334 
L -284 -1334 
L 1553 1141 
L 1269 2613 
Q 1194 3006 713 3006 
L 559 3006 
L 653 3500 
L 872 3494 
Q 1675 3472 1775 2950 
L 2006 1753 
L 3303 3503 
L 3981 3503 
L 2144 1028 
L 2428 -444 
Q 2503 -838 2984 -838 
L 3138 -838 
L 3044 -1331 
L 2825 -1325 
Q 2022 -1303 1922 -781 
z
" transform="scale(0.015625)"/>
       <path id="DejaVuSans-2c" d="M 750 794 
L 1409 794 
L 1409 256 
L 897 -744 
L 494 -744 
L 750 256 
L 750 794 
z
" transform="scale(0.015625)"/>
      </defs>
      <use xlink:href="#DejaVuSans-50" transform="translate(0 0.828125)"/>
      <use xlink:href="#DejaVuSans-72" transform="translate(60.302734 0.828125)"/>
      <use xlink:href="#DejaVuSans-69" transform="translate(101.416016 0.828125)"/>
      <use xlink:href="#DejaVuSans-76" transform="translate(129.199219 0.828125)"/>
      <use xlink:href="#DejaVuSans-61" transform="translate(188.378906 0.828125)"/>
      <use xlink:href="#DejaVuSans-74" transform="translate(249.658203 0.828125)"/>
      <use xlink:href="#DejaVuSans-65" transform="translate(288.867188 0.828125)"/>
      <use xlink:href="#DejaVuSans-20" transform="translate(350.390625 0.828125)"/>
      <use xlink:href="#DejaVuSans-56" transform="translate(382.177734 0.828125)"/>
      <use xlink:href="#DejaVuSans-61" transform="translate(450.585938 0.828125)"/>
      <use xlink:href="#DejaVuSans-6c" transform="translate(511.865234 0.828125)"/>
      <use xlink:href="#DejaVuSans-75" transform="translate(539.648438 0.828125)"/>
      <use xlink:href="#DejaVuSans-65" transform="translate(603.027344 0.828125)"/>
      <use xlink:href="#DejaVuSans-20" transform="translate(664.550781 0.828125)"/>
      <use xlink:href="#DejaVuSans-303" transform="translate(764.942871 22.3125)"/>
      <use xlink:href="#DejaVuSans-Oblique-52" transform="translate(696.337891 0.828125)"/>
      <use xlink:href="#DejaVuSans-Oblique-74" transform="translate(766.777344 39.109375) scale(0.7)"/>
      <use xlink:href="#DejaVuSans-Oblique-3c7" transform="translate(766.777344 -26.515625) scale(0.7)"/>
      <use xlink:href="#DejaVuSans-33" transform="translate(808.203125 -38) scale(0.49)"/>
      <use xlink:href="#DejaVuSans-2c" transform="translate(841.29248 -26.515625) scale(0.7)"/>
      <use xlink:href="#DejaVuSans-Oblique-3c7" transform="translate(877.181152 -26.515625) scale(0.7)"/>
      <use xlink:href="#DejaVuSans-31" transform="translate(918.606934 -38) scale(0.49)"/>
     </g>
    </g>
    <g id="line2d_32">
     <path d="M 53.879375 34 
L 63.879375 34 
L 73.879375 34 
" style="fill: none; stroke-dasharray: 5.55,2.4; stroke-dashoffset: 0; stroke: #000000; stroke-width: 1.5"/>
    </g>
    <g id="text_18">
     <!-- Original Value $\bar{R}_{\chi_3,\chi_1}^t$ -->
     <g transform="translate(81.879375 37.5) scale(0.1 -0.1)">
      <defs>
       <path id="DejaVuSans-4f" d="M 2522 4238 
Q 1834 4238 1429 3725 
Q 1025 3213 1025 2328 
Q 1025 1447 1429 934 
Q 1834 422 2522 422 
Q 3209 422 3611 934 
Q 4013 1447 4013 2328 
Q 4013 3213 3611 3725 
Q 3209 4238 2522 4238 
z
M 2522 4750 
Q 3503 4750 4090 4092 
Q 4678 3434 4678 2328 
Q 4678 1225 4090 567 
Q 3503 -91 2522 -91 
Q 1538 -91 948 565 
Q 359 1222 359 2328 
Q 359 3434 948 4092 
Q 1538 4750 2522 4750 
z
" transform="scale(0.015625)"/>
       <path id="DejaVuSans-67" d="M 2906 1791 
Q 2906 2416 2648 2759 
Q 2391 3103 1925 3103 
Q 1463 3103 1205 2759 
Q 947 2416 947 1791 
Q 947 1169 1205 825 
Q 1463 481 1925 481 
Q 2391 481 2648 825 
Q 2906 1169 2906 1791 
z
M 3481 434 
Q 3481 -459 3084 -895 
Q 2688 -1331 1869 -1331 
Q 1566 -1331 1297 -1286 
Q 1028 -1241 775 -1147 
L 775 -588 
Q 1028 -725 1275 -790 
Q 1522 -856 1778 -856 
Q 2344 -856 2625 -561 
Q 2906 -266 2906 331 
L 2906 616 
Q 2728 306 2450 153 
Q 2172 0 1784 0 
Q 1141 0 747 490 
Q 353 981 353 1791 
Q 353 2603 747 3093 
Q 1141 3584 1784 3584 
Q 2172 3584 2450 3431 
Q 2728 3278 2906 2969 
L 2906 3500 
L 3481 3500 
L 3481 434 
z
" transform="scale(0.015625)"/>
       <path id="DejaVuSans-6e" d="M 3513 2113 
L 3513 0 
L 2938 0 
L 2938 2094 
Q 2938 2591 2744 2837 
Q 2550 3084 2163 3084 
Q 1697 3084 1428 2787 
Q 1159 2491 1159 1978 
L 1159 0 
L 581 0 
L 581 3500 
L 1159 3500 
L 1159 2956 
Q 1366 3272 1645 3428 
Q 1925 3584 2291 3584 
Q 2894 3584 3203 3211 
Q 3513 2838 3513 2113 
z
" transform="scale(0.015625)"/>
       <path id="DejaVuSans-304" d="M -2518 4769 
L -650 4769 
L -650 4306 
L -2518 4306 
L -2518 4769 
z
" transform="scale(0.015625)"/>
      </defs>
      <use xlink:href="#DejaVuSans-4f" transform="translate(0 0.359375)"/>
      <use xlink:href="#DejaVuSans-72" transform="translate(78.710938 0.359375)"/>
      <use xlink:href="#DejaVuSans-69" transform="translate(119.824219 0.359375)"/>
      <use xlink:href="#DejaVuSans-67" transform="translate(147.607422 0.359375)"/>
      <use xlink:href="#DejaVuSans-69" transform="translate(211.083984 0.359375)"/>
      <use xlink:href="#DejaVuSans-6e" transform="translate(238.867188 0.359375)"/>
      <use xlink:href="#DejaVuSans-61" transform="translate(302.246094 0.359375)"/>
      <use xlink:href="#DejaVuSans-6c" transform="translate(363.525391 0.359375)"/>
      <use xlink:href="#DejaVuSans-20" transform="translate(391.308594 0.359375)"/>
      <use xlink:href="#DejaVuSans-56" transform="translate(423.095703 0.359375)"/>
      <use xlink:href="#DejaVuSans-61" transform="translate(491.503906 0.359375)"/>
      <use xlink:href="#DejaVuSans-6c" transform="translate(552.783203 0.359375)"/>
      <use xlink:href="#DejaVuSans-75" transform="translate(580.566406 0.359375)"/>
      <use xlink:href="#DejaVuSans-65" transform="translate(643.945312 0.359375)"/>
      <use xlink:href="#DejaVuSans-20" transform="translate(705.46875 0.359375)"/>
      <use xlink:href="#DejaVuSans-304" transform="translate(804.970215 18.484375)"/>
      <use xlink:href="#DejaVuSans-Oblique-52" transform="translate(737.255859 0.359375)"/>
      <use xlink:href="#DejaVuSans-Oblique-74" transform="translate(807.695312 38.640625) scale(0.7)"/>
      <use xlink:href="#DejaVuSans-Oblique-3c7" transform="translate(807.695312 -26.984375) scale(0.7)"/>
      <use xlink:href="#DejaVuSans-33" transform="translate(849.121094 -38.46875) scale(0.49)"/>
      <use xlink:href="#DejaVuSans-2c" transform="translate(882.210449 -26.984375) scale(0.7)"/>
      <use xlink:href="#DejaVuSans-Oblique-3c7" transform="translate(918.099121 -26.984375) scale(0.7)"/>
      <use xlink:href="#DejaVuSans-31" transform="translate(959.524902 -38.46875) scale(0.49)"/>
     </g>
    </g>
    <g id="patch_8">
     <path d="M 53.879375 54.298437 
L 73.879375 54.298437 
L 73.879375 47.298437 
L 53.879375 47.298437 
z
" style="fill: #ffb612; fill-opacity: 0.5; stroke: #ffb612; stroke-opacity: 0.5; stroke-width: 0.5; stroke-linejoin: miter"/>
    </g>
    <g id="text_19">
     <!-- One Standard Deviation -->
     <g transform="translate(81.879375 54.298437) scale(0.1 -0.1)">
      <defs>
       <path id="DejaVuSans-53" d="M 3425 4513 
L 3425 3897 
Q 3066 4069 2747 4153 
Q 2428 4238 2131 4238 
Q 1616 4238 1336 4038 
Q 1056 3838 1056 3469 
Q 1056 3159 1242 3001 
Q 1428 2844 1947 2747 
L 2328 2669 
Q 3034 2534 3370 2195 
Q 3706 1856 3706 1288 
Q 3706 609 3251 259 
Q 2797 -91 1919 -91 
Q 1588 -91 1214 -16 
Q 841 59 441 206 
L 441 856 
Q 825 641 1194 531 
Q 1563 422 1919 422 
Q 2459 422 2753 634 
Q 3047 847 3047 1241 
Q 3047 1584 2836 1778 
Q 2625 1972 2144 2069 
L 1759 2144 
Q 1053 2284 737 2584 
Q 422 2884 422 3419 
Q 422 4038 858 4394 
Q 1294 4750 2059 4750 
Q 2388 4750 2728 4690 
Q 3069 4631 3425 4513 
z
" transform="scale(0.015625)"/>
       <path id="DejaVuSans-64" d="M 2906 2969 
L 2906 4863 
L 3481 4863 
L 3481 0 
L 2906 0 
L 2906 525 
Q 2725 213 2448 61 
Q 2172 -91 1784 -91 
Q 1150 -91 751 415 
Q 353 922 353 1747 
Q 353 2572 751 3078 
Q 1150 3584 1784 3584 
Q 2172 3584 2448 3432 
Q 2725 3281 2906 2969 
z
M 947 1747 
Q 947 1113 1208 752 
Q 1469 391 1925 391 
Q 2381 391 2643 752 
Q 2906 1113 2906 1747 
Q 2906 2381 2643 2742 
Q 2381 3103 1925 3103 
Q 1469 3103 1208 2742 
Q 947 2381 947 1747 
z
" transform="scale(0.015625)"/>
       <path id="DejaVuSans-6f" d="M 1959 3097 
Q 1497 3097 1228 2736 
Q 959 2375 959 1747 
Q 959 1119 1226 758 
Q 1494 397 1959 397 
Q 2419 397 2687 759 
Q 2956 1122 2956 1747 
Q 2956 2369 2687 2733 
Q 2419 3097 1959 3097 
z
M 1959 3584 
Q 2709 3584 3137 3096 
Q 3566 2609 3566 1747 
Q 3566 888 3137 398 
Q 2709 -91 1959 -91 
Q 1206 -91 779 398 
Q 353 888 353 1747 
Q 353 2609 779 3096 
Q 1206 3584 1959 3584 
z
" transform="scale(0.015625)"/>
      </defs>
      <use xlink:href="#DejaVuSans-4f"/>
      <use xlink:href="#DejaVuSans-6e" x="78.710938"/>
      <use xlink:href="#DejaVuSans-65" x="142.089844"/>
      <use xlink:href="#DejaVuSans-20" x="203.613281"/>
      <use xlink:href="#DejaVuSans-53" x="235.400391"/>
      <use xlink:href="#DejaVuSans-74" x="298.876953"/>
      <use xlink:href="#DejaVuSans-61" x="338.085938"/>
      <use xlink:href="#DejaVuSans-6e" x="399.365234"/>
      <use xlink:href="#DejaVuSans-64" x="462.744141"/>
      <use xlink:href="#DejaVuSans-61" x="526.220703"/>
      <use xlink:href="#DejaVuSans-72" x="587.5"/>
      <use xlink:href="#DejaVuSans-64" x="626.863281"/>
      <use xlink:href="#DejaVuSans-20" x="690.339844"/>
      <use xlink:href="#DejaVuSans-44" x="722.126953"/>
      <use xlink:href="#DejaVuSans-65" x="799.128906"/>
      <use xlink:href="#DejaVuSans-76" x="860.652344"/>
      <use xlink:href="#DejaVuSans-69" x="919.832031"/>
      <use xlink:href="#DejaVuSans-61" x="947.615234"/>
      <use xlink:href="#DejaVuSans-74" x="1008.894531"/>
      <use xlink:href="#DejaVuSans-69" x="1048.103516"/>
      <use xlink:href="#DejaVuSans-6f" x="1075.886719"/>
      <use xlink:href="#DejaVuSans-6e" x="1137.068359"/>
     </g>
    </g>
   </g>
  </g>
 </g>
 <defs>
  <clipPath id="pbdf7df7d7f">
   <rect x="44.879375" y="-0" width="390.6" height="166.32"/>
  </clipPath>
 </defs>
</svg>
