<?xml version="1.0" encoding="utf-8" standalone="no"?>
<!DOCTYPE svg PUBLIC "-//W3C//DTD SVG 1.1//EN"
  "http://www.w3.org/Graphics/SVG/1.1/DTD/svg11.dtd">
<svg xmlns:xlink="http://www.w3.org/1999/xlink" width="444.375067pt" height="198.611875pt" viewBox="0 0 444.375067 198.611875" xmlns="http://www.w3.org/2000/svg" version="1.1">
 <metadata>
  <rdf:RDF xmlns:dc="http://purl.org/dc/elements/1.1/" xmlns:cc="http://creativecommons.org/ns#" xmlns:rdf="http://www.w3.org/1999/02/22-rdf-syntax-ns#">
   <cc:Work>
    <dc:type rdf:resource="http://purl.org/dc/dcmitype/StillImage"/>
    <dc:date>2024-09-18T15:47:50.523631</dc:date>
    <dc:format>image/svg+xml</dc:format>
    <dc:creator>
     <cc:Agent>
      <dc:title>Matplotlib v3.7.5, https://matplotlib.org/</dc:title>
     </cc:Agent>
    </dc:creator>
   </cc:Work>
  </rdf:RDF>
 </metadata>
 <defs>
  <style type="text/css">*{stroke-linejoin: round; stroke-linecap: butt}</style>
 </defs>
 <g id="figure_1">
  <g id="patch_1">
   <path d="M 0 198.611875 
L 444.375067 198.611875 
L 444.375067 0 
L 0 0 
z
" style="fill: #ffffff"/>
  </g>
  <g id="axes_1">
   <g id="patch_2">
    <path d="M 44.879375 166.32 
L 435.479375 166.32 
L 435.479375 -0 
L 44.879375 -0 
z
" style="fill: #e5e5e5"/>
   </g>
   <g id="matplotlib.axis_1">
    <g id="xtick_1">
     <g id="line2d_1">
      <path d="M 72.41989 166.32 
L 72.41989 -0 
" clip-path="url(#p4860adde94)" style="fill: none; stroke: #ffffff; stroke-width: 0.8; stroke-linecap: square"/>
     </g>
     <g id="line2d_2">
      <defs>
       <path id="m94d65e9ae2" d="M 0 0 
L 0 3.5 
" style="stroke: #555555; stroke-width: 0.8"/>
      </defs>
      <g>
       <use xlink:href="#m94d65e9ae2" x="72.41989" y="166.32" style="fill: #555555; stroke: #555555; stroke-width: 0.8"/>
      </g>
     </g>
     <g id="text_1">
      <!-- 08/16/20 -->
      <g style="fill: #555555" transform="translate(49.96364 180.918437) scale(0.1 -0.1)">
       <defs>
        <path id="DejaVuSans-30" d="M 2034 4250 
Q 1547 4250 1301 3770 
Q 1056 3291 1056 2328 
Q 1056 1369 1301 889 
Q 1547 409 2034 409 
Q 2525 409 2770 889 
Q 3016 1369 3016 2328 
Q 3016 3291 2770 3770 
Q 2525 4250 2034 4250 
z
M 2034 4750 
Q 2819 4750 3233 4129 
Q 3647 3509 3647 2328 
Q 3647 1150 3233 529 
Q 2819 -91 2034 -91 
Q 1250 -91 836 529 
Q 422 1150 422 2328 
Q 422 3509 836 4129 
Q 1250 4750 2034 4750 
z
" transform="scale(0.015625)"/>
        <path id="DejaVuSans-38" d="M 2034 2216 
Q 1584 2216 1326 1975 
Q 1069 1734 1069 1313 
Q 1069 891 1326 650 
Q 1584 409 2034 409 
Q 2484 409 2743 651 
Q 3003 894 3003 1313 
Q 3003 1734 2745 1975 
Q 2488 2216 2034 2216 
z
M 1403 2484 
Q 997 2584 770 2862 
Q 544 3141 544 3541 
Q 544 4100 942 4425 
Q 1341 4750 2034 4750 
Q 2731 4750 3128 4425 
Q 3525 4100 3525 3541 
Q 3525 3141 3298 2862 
Q 3072 2584 2669 2484 
Q 3125 2378 3379 2068 
Q 3634 1759 3634 1313 
Q 3634 634 3220 271 
Q 2806 -91 2034 -91 
Q 1263 -91 848 271 
Q 434 634 434 1313 
Q 434 1759 690 2068 
Q 947 2378 1403 2484 
z
M 1172 3481 
Q 1172 3119 1398 2916 
Q 1625 2713 2034 2713 
Q 2441 2713 2670 2916 
Q 2900 3119 2900 3481 
Q 2900 3844 2670 4047 
Q 2441 4250 2034 4250 
Q 1625 4250 1398 4047 
Q 1172 3844 1172 3481 
z
" transform="scale(0.015625)"/>
        <path id="DejaVuSans-2f" d="M 1625 4666 
L 2156 4666 
L 531 -594 
L 0 -594 
L 1625 4666 
z
" transform="scale(0.015625)"/>
        <path id="DejaVuSans-31" d="M 794 531 
L 1825 531 
L 1825 4091 
L 703 3866 
L 703 4441 
L 1819 4666 
L 2450 4666 
L 2450 531 
L 3481 531 
L 3481 0 
L 794 0 
L 794 531 
z
" transform="scale(0.015625)"/>
        <path id="DejaVuSans-36" d="M 2113 2584 
Q 1688 2584 1439 2293 
Q 1191 2003 1191 1497 
Q 1191 994 1439 701 
Q 1688 409 2113 409 
Q 2538 409 2786 701 
Q 3034 994 3034 1497 
Q 3034 2003 2786 2293 
Q 2538 2584 2113 2584 
z
M 3366 4563 
L 3366 3988 
Q 3128 4100 2886 4159 
Q 2644 4219 2406 4219 
Q 1781 4219 1451 3797 
Q 1122 3375 1075 2522 
Q 1259 2794 1537 2939 
Q 1816 3084 2150 3084 
Q 2853 3084 3261 2657 
Q 3669 2231 3669 1497 
Q 3669 778 3244 343 
Q 2819 -91 2113 -91 
Q 1303 -91 875 529 
Q 447 1150 447 2328 
Q 447 3434 972 4092 
Q 1497 4750 2381 4750 
Q 2619 4750 2861 4703 
Q 3103 4656 3366 4563 
z
" transform="scale(0.015625)"/>
        <path id="DejaVuSans-32" d="M 1228 531 
L 3431 531 
L 3431 0 
L 469 0 
L 469 531 
Q 828 903 1448 1529 
Q 2069 2156 2228 2338 
Q 2531 2678 2651 2914 
Q 2772 3150 2772 3378 
Q 2772 3750 2511 3984 
Q 2250 4219 1831 4219 
Q 1534 4219 1204 4116 
Q 875 4013 500 3803 
L 500 4441 
Q 881 4594 1212 4672 
Q 1544 4750 1819 4750 
Q 2544 4750 2975 4387 
Q 3406 4025 3406 3419 
Q 3406 3131 3298 2873 
Q 3191 2616 2906 2266 
Q 2828 2175 2409 1742 
Q 1991 1309 1228 531 
z
" transform="scale(0.015625)"/>
       </defs>
       <use xlink:href="#DejaVuSans-30"/>
       <use xlink:href="#DejaVuSans-38" x="63.623047"/>
       <use xlink:href="#DejaVuSans-2f" x="127.246094"/>
       <use xlink:href="#DejaVuSans-31" x="160.9375"/>
       <use xlink:href="#DejaVuSans-36" x="224.560547"/>
       <use xlink:href="#DejaVuSans-2f" x="288.183594"/>
       <use xlink:href="#DejaVuSans-32" x="321.875"/>
       <use xlink:href="#DejaVuSans-30" x="385.498047"/>
      </g>
     </g>
    </g>
    <g id="xtick_2">
     <g id="line2d_3">
      <path d="M 142.319676 166.32 
L 142.319676 -0 
" clip-path="url(#p4860adde94)" style="fill: none; stroke: #ffffff; stroke-width: 0.8; stroke-linecap: square"/>
     </g>
     <g id="line2d_4">
      <g>
       <use xlink:href="#m94d65e9ae2" x="142.319676" y="166.32" style="fill: #555555; stroke: #555555; stroke-width: 0.8"/>
      </g>
     </g>
     <g id="text_2">
      <!-- 10/05/20 -->
      <g style="fill: #555555" transform="translate(119.863426 180.918437) scale(0.1 -0.1)">
       <defs>
        <path id="DejaVuSans-35" d="M 691 4666 
L 3169 4666 
L 3169 4134 
L 1269 4134 
L 1269 2991 
Q 1406 3038 1543 3061 
Q 1681 3084 1819 3084 
Q 2600 3084 3056 2656 
Q 3513 2228 3513 1497 
Q 3513 744 3044 326 
Q 2575 -91 1722 -91 
Q 1428 -91 1123 -41 
Q 819 9 494 109 
L 494 744 
Q 775 591 1075 516 
Q 1375 441 1709 441 
Q 2250 441 2565 725 
Q 2881 1009 2881 1497 
Q 2881 1984 2565 2268 
Q 2250 2553 1709 2553 
Q 1456 2553 1204 2497 
Q 953 2441 691 2322 
L 691 4666 
z
" transform="scale(0.015625)"/>
       </defs>
       <use xlink:href="#DejaVuSans-31"/>
       <use xlink:href="#DejaVuSans-30" x="63.623047"/>
       <use xlink:href="#DejaVuSans-2f" x="127.246094"/>
       <use xlink:href="#DejaVuSans-30" x="160.9375"/>
       <use xlink:href="#DejaVuSans-35" x="224.560547"/>
       <use xlink:href="#DejaVuSans-2f" x="288.183594"/>
       <use xlink:href="#DejaVuSans-32" x="321.875"/>
       <use xlink:href="#DejaVuSans-30" x="385.498047"/>
      </g>
     </g>
    </g>
    <g id="xtick_3">
     <g id="line2d_5">
      <path d="M 212.219461 166.32 
L 212.219461 -0 
" clip-path="url(#p4860adde94)" style="fill: none; stroke: #ffffff; stroke-width: 0.8; stroke-linecap: square"/>
     </g>
     <g id="line2d_6">
      <g>
       <use xlink:href="#m94d65e9ae2" x="212.219461" y="166.32" style="fill: #555555; stroke: #555555; stroke-width: 0.8"/>
      </g>
     </g>
     <g id="text_3">
      <!-- 11/24/20 -->
      <g style="fill: #555555" transform="translate(189.763211 180.918437) scale(0.1 -0.1)">
       <defs>
        <path id="DejaVuSans-34" d="M 2419 4116 
L 825 1625 
L 2419 1625 
L 2419 4116 
z
M 2253 4666 
L 3047 4666 
L 3047 1625 
L 3713 1625 
L 3713 1100 
L 3047 1100 
L 3047 0 
L 2419 0 
L 2419 1100 
L 313 1100 
L 313 1709 
L 2253 4666 
z
" transform="scale(0.015625)"/>
       </defs>
       <use xlink:href="#DejaVuSans-31"/>
       <use xlink:href="#DejaVuSans-31" x="63.623047"/>
       <use xlink:href="#DejaVuSans-2f" x="127.246094"/>
       <use xlink:href="#DejaVuSans-32" x="160.9375"/>
       <use xlink:href="#DejaVuSans-34" x="224.560547"/>
       <use xlink:href="#DejaVuSans-2f" x="288.183594"/>
       <use xlink:href="#DejaVuSans-32" x="321.875"/>
       <use xlink:href="#DejaVuSans-30" x="385.498047"/>
      </g>
     </g>
    </g>
    <g id="xtick_4">
     <g id="line2d_7">
      <path d="M 282.119246 166.32 
L 282.119246 -0 
" clip-path="url(#p4860adde94)" style="fill: none; stroke: #ffffff; stroke-width: 0.8; stroke-linecap: square"/>
     </g>
     <g id="line2d_8">
      <g>
       <use xlink:href="#m94d65e9ae2" x="282.119246" y="166.32" style="fill: #555555; stroke: #555555; stroke-width: 0.8"/>
      </g>
     </g>
     <g id="text_4">
      <!-- 01/13/21 -->
      <g style="fill: #555555" transform="translate(259.662996 180.918437) scale(0.1 -0.1)">
       <defs>
        <path id="DejaVuSans-33" d="M 2597 2516 
Q 3050 2419 3304 2112 
Q 3559 1806 3559 1356 
Q 3559 666 3084 287 
Q 2609 -91 1734 -91 
Q 1441 -91 1130 -33 
Q 819 25 488 141 
L 488 750 
Q 750 597 1062 519 
Q 1375 441 1716 441 
Q 2309 441 2620 675 
Q 2931 909 2931 1356 
Q 2931 1769 2642 2001 
Q 2353 2234 1838 2234 
L 1294 2234 
L 1294 2753 
L 1863 2753 
Q 2328 2753 2575 2939 
Q 2822 3125 2822 3475 
Q 2822 3834 2567 4026 
Q 2313 4219 1838 4219 
Q 1578 4219 1281 4162 
Q 984 4106 628 3988 
L 628 4550 
Q 988 4650 1302 4700 
Q 1616 4750 1894 4750 
Q 2613 4750 3031 4423 
Q 3450 4097 3450 3541 
Q 3450 3153 3228 2886 
Q 3006 2619 2597 2516 
z
" transform="scale(0.015625)"/>
       </defs>
       <use xlink:href="#DejaVuSans-30"/>
       <use xlink:href="#DejaVuSans-31" x="63.623047"/>
       <use xlink:href="#DejaVuSans-2f" x="127.246094"/>
       <use xlink:href="#DejaVuSans-31" x="160.9375"/>
       <use xlink:href="#DejaVuSans-33" x="224.560547"/>
       <use xlink:href="#DejaVuSans-2f" x="288.183594"/>
       <use xlink:href="#DejaVuSans-32" x="321.875"/>
       <use xlink:href="#DejaVuSans-31" x="385.498047"/>
      </g>
     </g>
    </g>
    <g id="xtick_5">
     <g id="line2d_9">
      <path d="M 352.019031 166.32 
L 352.019031 -0 
" clip-path="url(#p4860adde94)" style="fill: none; stroke: #ffffff; stroke-width: 0.8; stroke-linecap: square"/>
     </g>
     <g id="line2d_10">
      <g>
       <use xlink:href="#m94d65e9ae2" x="352.019031" y="166.32" style="fill: #555555; stroke: #555555; stroke-width: 0.8"/>
      </g>
     </g>
     <g id="text_5">
      <!-- 03/04/21 -->
      <g style="fill: #555555" transform="translate(329.562781 180.918437) scale(0.1 -0.1)">
       <use xlink:href="#DejaVuSans-30"/>
       <use xlink:href="#DejaVuSans-33" x="63.623047"/>
       <use xlink:href="#DejaVuSans-2f" x="127.246094"/>
       <use xlink:href="#DejaVuSans-30" x="160.9375"/>
       <use xlink:href="#DejaVuSans-34" x="224.560547"/>
       <use xlink:href="#DejaVuSans-2f" x="288.183594"/>
       <use xlink:href="#DejaVuSans-32" x="321.875"/>
       <use xlink:href="#DejaVuSans-31" x="385.498047"/>
      </g>
     </g>
    </g>
    <g id="xtick_6">
     <g id="line2d_11">
      <path d="M 421.918817 166.32 
L 421.918817 -0 
" clip-path="url(#p4860adde94)" style="fill: none; stroke: #ffffff; stroke-width: 0.8; stroke-linecap: square"/>
     </g>
     <g id="line2d_12">
      <g>
       <use xlink:href="#m94d65e9ae2" x="421.918817" y="166.32" style="fill: #555555; stroke: #555555; stroke-width: 0.8"/>
      </g>
     </g>
     <g id="text_6">
      <!-- 04/23/21 -->
      <g style="fill: #555555" transform="translate(399.462567 180.918437) scale(0.1 -0.1)">
       <use xlink:href="#DejaVuSans-30"/>
       <use xlink:href="#DejaVuSans-34" x="63.623047"/>
       <use xlink:href="#DejaVuSans-2f" x="127.246094"/>
       <use xlink:href="#DejaVuSans-32" x="160.9375"/>
       <use xlink:href="#DejaVuSans-33" x="224.560547"/>
       <use xlink:href="#DejaVuSans-2f" x="288.183594"/>
       <use xlink:href="#DejaVuSans-32" x="321.875"/>
       <use xlink:href="#DejaVuSans-31" x="385.498047"/>
      </g>
     </g>
    </g>
    <g id="text_7">
     <!-- Date -->
     <g style="fill: #555555" transform="translate(225.838438 196.11625) scale(0.12 -0.12)">
      <defs>
       <path id="DejaVuSans-44" d="M 1259 4147 
L 1259 519 
L 2022 519 
Q 2988 519 3436 956 
Q 3884 1394 3884 2338 
Q 3884 3275 3436 3711 
Q 2988 4147 2022 4147 
L 1259 4147 
z
M 628 4666 
L 1925 4666 
Q 3281 4666 3915 4102 
Q 4550 3538 4550 2338 
Q 4550 1131 3912 565 
Q 3275 0 1925 0 
L 628 0 
L 628 4666 
z
" transform="scale(0.015625)"/>
       <path id="DejaVuSans-61" d="M 2194 1759 
Q 1497 1759 1228 1600 
Q 959 1441 959 1056 
Q 959 750 1161 570 
Q 1363 391 1709 391 
Q 2188 391 2477 730 
Q 2766 1069 2766 1631 
L 2766 1759 
L 2194 1759 
z
M 3341 1997 
L 3341 0 
L 2766 0 
L 2766 531 
Q 2569 213 2275 61 
Q 1981 -91 1556 -91 
Q 1019 -91 701 211 
Q 384 513 384 1019 
Q 384 1609 779 1909 
Q 1175 2209 1959 2209 
L 2766 2209 
L 2766 2266 
Q 2766 2663 2505 2880 
Q 2244 3097 1772 3097 
Q 1472 3097 1187 3025 
Q 903 2953 641 2809 
L 641 3341 
Q 956 3463 1253 3523 
Q 1550 3584 1831 3584 
Q 2591 3584 2966 3190 
Q 3341 2797 3341 1997 
z
" transform="scale(0.015625)"/>
       <path id="DejaVuSans-74" d="M 1172 4494 
L 1172 3500 
L 2356 3500 
L 2356 3053 
L 1172 3053 
L 1172 1153 
Q 1172 725 1289 603 
Q 1406 481 1766 481 
L 2356 481 
L 2356 0 
L 1766 0 
Q 1100 0 847 248 
Q 594 497 594 1153 
L 594 3053 
L 172 3053 
L 172 3500 
L 594 3500 
L 594 4494 
L 1172 4494 
z
" transform="scale(0.015625)"/>
       <path id="DejaVuSans-65" d="M 3597 1894 
L 3597 1613 
L 953 1613 
Q 991 1019 1311 708 
Q 1631 397 2203 397 
Q 2534 397 2845 478 
Q 3156 559 3463 722 
L 3463 178 
Q 3153 47 2828 -22 
Q 2503 -91 2169 -91 
Q 1331 -91 842 396 
Q 353 884 353 1716 
Q 353 2575 817 3079 
Q 1281 3584 2069 3584 
Q 2775 3584 3186 3129 
Q 3597 2675 3597 1894 
z
M 3022 2063 
Q 3016 2534 2758 2815 
Q 2500 3097 2075 3097 
Q 1594 3097 1305 2825 
Q 1016 2553 972 2059 
L 3022 2063 
z
" transform="scale(0.015625)"/>
      </defs>
      <use xlink:href="#DejaVuSans-44"/>
      <use xlink:href="#DejaVuSans-61" x="77.001953"/>
      <use xlink:href="#DejaVuSans-74" x="138.28125"/>
      <use xlink:href="#DejaVuSans-65" x="177.490234"/>
     </g>
    </g>
   </g>
   <g id="matplotlib.axis_2">
    <g id="ytick_1">
     <g id="line2d_13">
      <path d="M 44.879375 163.346573 
L 435.479375 163.346573 
" clip-path="url(#p4860adde94)" style="fill: none; stroke: #ffffff; stroke-width: 0.8; stroke-linecap: square"/>
     </g>
     <g id="line2d_14">
      <defs>
       <path id="mb2eaa9474f" d="M 0 0 
L -3.5 0 
" style="stroke: #555555; stroke-width: 0.8"/>
      </defs>
      <g>
       <use xlink:href="#mb2eaa9474f" x="44.879375" y="163.346573" style="fill: #555555; stroke: #555555; stroke-width: 0.8"/>
      </g>
     </g>
     <g id="text_8">
      <!-- 0.00 -->
      <g style="fill: #555555" transform="translate(15.61375 167.145791) scale(0.1 -0.1)">
       <defs>
        <path id="DejaVuSans-2e" d="M 684 794 
L 1344 794 
L 1344 0 
L 684 0 
L 684 794 
z
" transform="scale(0.015625)"/>
       </defs>
       <use xlink:href="#DejaVuSans-30"/>
       <use xlink:href="#DejaVuSans-2e" x="63.623047"/>
       <use xlink:href="#DejaVuSans-30" x="95.410156"/>
       <use xlink:href="#DejaVuSans-30" x="159.033203"/>
      </g>
     </g>
    </g>
    <g id="ytick_2">
     <g id="line2d_15">
      <path d="M 44.879375 140.923595 
L 435.479375 140.923595 
" clip-path="url(#p4860adde94)" style="fill: none; stroke: #ffffff; stroke-width: 0.8; stroke-linecap: square"/>
     </g>
     <g id="line2d_16">
      <g>
       <use xlink:href="#mb2eaa9474f" x="44.879375" y="140.923595" style="fill: #555555; stroke: #555555; stroke-width: 0.8"/>
      </g>
     </g>
     <g id="text_9">
      <!-- 0.02 -->
      <g style="fill: #555555" transform="translate(15.61375 144.722813) scale(0.1 -0.1)">
       <use xlink:href="#DejaVuSans-30"/>
       <use xlink:href="#DejaVuSans-2e" x="63.623047"/>
       <use xlink:href="#DejaVuSans-30" x="95.410156"/>
       <use xlink:href="#DejaVuSans-32" x="159.033203"/>
      </g>
     </g>
    </g>
    <g id="ytick_3">
     <g id="line2d_17">
      <path d="M 44.879375 118.500617 
L 435.479375 118.500617 
" clip-path="url(#p4860adde94)" style="fill: none; stroke: #ffffff; stroke-width: 0.8; stroke-linecap: square"/>
     </g>
     <g id="line2d_18">
      <g>
       <use xlink:href="#mb2eaa9474f" x="44.879375" y="118.500617" style="fill: #555555; stroke: #555555; stroke-width: 0.8"/>
      </g>
     </g>
     <g id="text_10">
      <!-- 0.04 -->
      <g style="fill: #555555" transform="translate(15.61375 122.299836) scale(0.1 -0.1)">
       <use xlink:href="#DejaVuSans-30"/>
       <use xlink:href="#DejaVuSans-2e" x="63.623047"/>
       <use xlink:href="#DejaVuSans-30" x="95.410156"/>
       <use xlink:href="#DejaVuSans-34" x="159.033203"/>
      </g>
     </g>
    </g>
    <g id="ytick_4">
     <g id="line2d_19">
      <path d="M 44.879375 96.077639 
L 435.479375 96.077639 
" clip-path="url(#p4860adde94)" style="fill: none; stroke: #ffffff; stroke-width: 0.8; stroke-linecap: square"/>
     </g>
     <g id="line2d_20">
      <g>
       <use xlink:href="#mb2eaa9474f" x="44.879375" y="96.077639" style="fill: #555555; stroke: #555555; stroke-width: 0.8"/>
      </g>
     </g>
     <g id="text_11">
      <!-- 0.06 -->
      <g style="fill: #555555" transform="translate(15.61375 99.876858) scale(0.1 -0.1)">
       <use xlink:href="#DejaVuSans-30"/>
       <use xlink:href="#DejaVuSans-2e" x="63.623047"/>
       <use xlink:href="#DejaVuSans-30" x="95.410156"/>
       <use xlink:href="#DejaVuSans-36" x="159.033203"/>
      </g>
     </g>
    </g>
    <g id="ytick_5">
     <g id="line2d_21">
      <path d="M 44.879375 73.654661 
L 435.479375 73.654661 
" clip-path="url(#p4860adde94)" style="fill: none; stroke: #ffffff; stroke-width: 0.8; stroke-linecap: square"/>
     </g>
     <g id="line2d_22">
      <g>
       <use xlink:href="#mb2eaa9474f" x="44.879375" y="73.654661" style="fill: #555555; stroke: #555555; stroke-width: 0.8"/>
      </g>
     </g>
     <g id="text_12">
      <!-- 0.08 -->
      <g style="fill: #555555" transform="translate(15.61375 77.45388) scale(0.1 -0.1)">
       <use xlink:href="#DejaVuSans-30"/>
       <use xlink:href="#DejaVuSans-2e" x="63.623047"/>
       <use xlink:href="#DejaVuSans-30" x="95.410156"/>
       <use xlink:href="#DejaVuSans-38" x="159.033203"/>
      </g>
     </g>
    </g>
    <g id="ytick_6">
     <g id="line2d_23">
      <path d="M 44.879375 51.231683 
L 435.479375 51.231683 
" clip-path="url(#p4860adde94)" style="fill: none; stroke: #ffffff; stroke-width: 0.8; stroke-linecap: square"/>
     </g>
     <g id="line2d_24">
      <g>
       <use xlink:href="#mb2eaa9474f" x="44.879375" y="51.231683" style="fill: #555555; stroke: #555555; stroke-width: 0.8"/>
      </g>
     </g>
     <g id="text_13">
      <!-- 0.10 -->
      <g style="fill: #555555" transform="translate(15.61375 55.030902) scale(0.1 -0.1)">
       <use xlink:href="#DejaVuSans-30"/>
       <use xlink:href="#DejaVuSans-2e" x="63.623047"/>
       <use xlink:href="#DejaVuSans-31" x="95.410156"/>
       <use xlink:href="#DejaVuSans-30" x="159.033203"/>
      </g>
     </g>
    </g>
    <g id="ytick_7">
     <g id="line2d_25">
      <path d="M 44.879375 28.808705 
L 435.479375 28.808705 
" clip-path="url(#p4860adde94)" style="fill: none; stroke: #ffffff; stroke-width: 0.8; stroke-linecap: square"/>
     </g>
     <g id="line2d_26">
      <g>
       <use xlink:href="#mb2eaa9474f" x="44.879375" y="28.808705" style="fill: #555555; stroke: #555555; stroke-width: 0.8"/>
      </g>
     </g>
     <g id="text_14">
      <!-- 0.12 -->
      <g style="fill: #555555" transform="translate(15.61375 32.607924) scale(0.1 -0.1)">
       <use xlink:href="#DejaVuSans-30"/>
       <use xlink:href="#DejaVuSans-2e" x="63.623047"/>
       <use xlink:href="#DejaVuSans-31" x="95.410156"/>
       <use xlink:href="#DejaVuSans-32" x="159.033203"/>
      </g>
     </g>
    </g>
    <g id="ytick_8">
     <g id="line2d_27">
      <path d="M 44.879375 6.385727 
L 435.479375 6.385727 
" clip-path="url(#p4860adde94)" style="fill: none; stroke: #ffffff; stroke-width: 0.8; stroke-linecap: square"/>
     </g>
     <g id="line2d_28">
      <g>
       <use xlink:href="#mb2eaa9474f" x="44.879375" y="6.385727" style="fill: #555555; stroke: #555555; stroke-width: 0.8"/>
      </g>
     </g>
     <g id="text_15">
      <!-- 0.14 -->
      <g style="fill: #555555" transform="translate(15.61375 10.184946) scale(0.1 -0.1)">
       <use xlink:href="#DejaVuSans-30"/>
       <use xlink:href="#DejaVuSans-2e" x="63.623047"/>
       <use xlink:href="#DejaVuSans-31" x="95.410156"/>
       <use xlink:href="#DejaVuSans-34" x="159.033203"/>
      </g>
     </g>
    </g>
    <g id="text_16">
     <!-- Value -->
     <g style="fill: #555555" transform="translate(9.118125 99.6375) rotate(-90) scale(0.12 -0.12)">
      <defs>
       <path id="DejaVuSans-56" d="M 1831 0 
L 50 4666 
L 709 4666 
L 2188 738 
L 3669 4666 
L 4325 4666 
L 2547 0 
L 1831 0 
z
" transform="scale(0.015625)"/>
       <path id="DejaVuSans-6c" d="M 603 4863 
L 1178 4863 
L 1178 0 
L 603 0 
L 603 4863 
z
" transform="scale(0.015625)"/>
       <path id="DejaVuSans-75" d="M 544 1381 
L 544 3500 
L 1119 3500 
L 1119 1403 
Q 1119 906 1312 657 
Q 1506 409 1894 409 
Q 2359 409 2629 706 
Q 2900 1003 2900 1516 
L 2900 3500 
L 3475 3500 
L 3475 0 
L 2900 0 
L 2900 538 
Q 2691 219 2414 64 
Q 2138 -91 1772 -91 
Q 1169 -91 856 284 
Q 544 659 544 1381 
z
M 1991 3584 
L 1991 3584 
z
" transform="scale(0.015625)"/>
      </defs>
      <use xlink:href="#DejaVuSans-56"/>
      <use xlink:href="#DejaVuSans-61" x="60.658203"/>
      <use xlink:href="#DejaVuSans-6c" x="121.9375"/>
      <use xlink:href="#DejaVuSans-75" x="149.720703"/>
      <use xlink:href="#DejaVuSans-65" x="213.099609"/>
     </g>
    </g>
   </g>
   <g id="PolyCollection_1">
    <defs>
     <path id="m0f34768377" d="M 62.63392 -56.455058 
L 62.63392 -69.565285 
L 64.031916 -70.001187 
L 65.429912 -68.708122 
L 66.827908 -68.396373 
L 68.225903 -67.908564 
L 69.623899 -68.499392 
L 71.021895 -69.166819 
L 72.41989 -70.399228 
L 73.817886 -68.913761 
L 75.215882 -69.558057 
L 76.613878 -70.182511 
L 78.011873 -70.483726 
L 79.409869 -70.569623 
L 80.807865 -69.475131 
L 82.20586 -68.813028 
L 83.603856 -68.688076 
L 85.001852 -76.842844 
L 86.399847 -77.601009 
L 87.797843 -77.167236 
L 89.195839 -78.145188 
L 90.593835 -81.659702 
L 91.99183 -85.696258 
L 93.389826 -85.654822 
L 94.787822 -92.907578 
L 96.185817 -93.514263 
L 97.583813 -102.650971 
L 98.981809 -103.588299 
L 100.379804 -94.822008 
L 101.7778 -88.366637 
L 103.175796 -91.751285 
L 104.573792 -88.12029 
L 105.971787 -89.708681 
L 107.369783 -67.097952 
L 108.767779 -67.347255 
L 110.165774 -71.042237 
L 111.56377 -68.862974 
L 112.961766 -69.691613 
L 114.359762 -67.971914 
L 115.757757 -66.2493 
L 117.155753 -67.764342 
L 118.553749 -69.555872 
L 119.951744 -69.400387 
L 121.34974 -68.476216 
L 122.747736 -69.242797 
L 124.145731 -69.502851 
L 125.543727 -71.23077 
L 126.941723 -68.556166 
L 128.339719 -69.569683 
L 129.737714 -68.599945 
L 131.13571 -70.04554 
L 132.533706 -70.503993 
L 133.931701 -69.827522 
L 135.329697 -71.764117 
L 136.727693 -71.147395 
L 138.125689 -70.111101 
L 139.523684 -70.698635 
L 140.92168 -73.854634 
L 142.319676 -75.211828 
L 143.717671 -73.042954 
L 145.115667 -71.801446 
L 146.513663 -71.898616 
L 147.911658 -71.899796 
L 149.309654 -75.652117 
L 150.70765 -76.563698 
L 152.105646 -77.495155 
L 153.503641 -78.674187 
L 154.901637 -76.204628 
L 156.299633 -78.165954 
L 157.697628 -76.167451 
L 159.095624 -78.073089 
L 160.49362 -81.045131 
L 161.891616 -81.612376 
L 163.289611 -82.135357 
L 164.687607 -82.930331 
L 166.085603 -83.533095 
L 167.483598 -82.158231 
L 168.881594 -79.332977 
L 170.27959 -52.098508 
L 171.677585 -51.269005 
L 173.075581 -51.293211 
L 174.473577 -50.570248 
L 175.871573 -50.262598 
L 177.269568 -50.395175 
L 178.667564 -51.286137 
L 180.06556 -78.751505 
L 181.463555 -84.196055 
L 182.861551 -84.858403 
L 184.259547 -86.117203 
L 185.657543 -85.432494 
L 187.055538 -85.321741 
L 188.453534 -87.538657 
L 189.85153 -86.080042 
L 191.249525 -85.543843 
L 192.647521 -86.00349 
L 194.045517 -85.676858 
L 195.443512 -86.827991 
L 196.841508 -87.721999 
L 198.239504 -86.825758 
L 199.6375 -86.609377 
L 201.035495 -54.347794 
L 202.433491 -86.868763 
L 203.831487 -87.461798 
L 205.229482 -52.790259 
L 206.627478 -52.019533 
L 208.025474 -51.151019 
L 209.423469 -51.057231 
L 210.821465 -51.333257 
L 212.219461 -51.32273 
L 213.617457 -51.006791 
L 215.015452 -50.483418 
L 216.413448 -51.080924 
L 217.811444 -51.502439 
L 219.209439 -51.965154 
L 220.607435 -52.134588 
L 222.005431 -51.622642 
L 223.403427 -51.4651 
L 224.801422 -52.330225 
L 226.199418 -52.734563 
L 227.597414 -52.94959 
L 228.995409 -53.795073 
L 230.393405 -53.716452 
L 231.791401 -52.943124 
L 233.189396 -53.76749 
L 234.587392 -87.787459 
L 235.985388 -88.058213 
L 237.383384 -85.672153 
L 238.781379 -86.176421 
L 240.179375 -53.676891 
L 241.577371 -53.744036 
L 242.975366 -54.336438 
L 244.373362 -88.408097 
L 245.771358 -87.412345 
L 247.169354 -88.864041 
L 248.567349 -87.816173 
L 249.965345 -88.803218 
L 251.363341 -84.38199 
L 252.761336 -86.354568 
L 254.159332 -52.897474 
L 255.557328 -82.786784 
L 256.955323 -85.172399 
L 258.353319 -83.196794 
L 259.751315 -85.332134 
L 261.149311 -86.212235 
L 262.547306 -84.789239 
L 263.945302 -54.064829 
L 265.343298 -52.931973 
L 266.741293 -89.312438 
L 268.139289 -88.933836 
L 269.537285 -88.693087 
L 270.935281 -88.999092 
L 272.333276 -94.765885 
L 273.731272 -98.42924 
L 275.129268 -93.761662 
L 276.527263 -92.267863 
L 277.925259 -96.487515 
L 279.323255 -98.468341 
L 280.72125 -100.292216 
L 282.119246 -138.037272 
L 283.517242 -184.279847 
L 284.915238 -191.051875 
L 286.313233 -141.36674 
L 287.711229 -140.510668 
L 289.109225 -132.428576 
L 290.50722 -134.145219 
L 291.905216 -101.536363 
L 293.303212 -100.917569 
L 294.701207 -100.319107 
L 296.099203 -97.644721 
L 297.497199 -99.375728 
L 298.895195 -97.027734 
L 300.29319 -95.690805 
L 301.691186 -92.379605 
L 303.089182 -90.40185 
L 304.487177 -86.220249 
L 305.885173 -83.052429 
L 307.283169 -85.742032 
L 308.681165 -86.620677 
L 310.07916 -84.485835 
L 311.477156 -51.486112 
L 312.875152 -52.030362 
L 314.273147 -52.515177 
L 315.671143 -81.506872 
L 317.069139 -52.70055 
L 318.467134 -52.816027 
L 319.86513 -52.449688 
L 321.263126 -53.358243 
L 322.661122 -81.142623 
L 324.059117 -54.136937 
L 325.457113 -82.634874 
L 326.855109 -81.391254 
L 328.253104 -81.27176 
L 329.6511 -82.760089 
L 331.049096 -105.350208 
L 332.447092 -85.406697 
L 333.845087 -84.77777 
L 335.243083 -85.574017 
L 336.641079 -85.052638 
L 338.039074 -85.878368 
L 339.43707 -103.672383 
L 340.835066 -85.430736 
L 342.233061 -84.388495 
L 343.631057 -82.852859 
L 345.029053 -83.794413 
L 346.427049 -83.70993 
L 347.825044 -54.183067 
L 349.22304 -82.334173 
L 350.621036 -81.552449 
L 352.019031 -44.218252 
L 353.417027 -43.972098 
L 354.815023 -43.854549 
L 356.213019 -43.637505 
L 357.611014 -43.660428 
L 359.00901 -43.589829 
L 360.407006 -43.134689 
L 361.805001 -43.214294 
L 363.202997 -43.25796 
L 364.600993 -43.199576 
L 365.998988 -42.845185 
L 367.396984 -42.366688 
L 368.79498 -43.417762 
L 370.192976 -43.918544 
L 371.590971 -45.144235 
L 372.988967 -44.377509 
L 374.386963 -44.484789 
L 375.784958 -44.585992 
L 377.182954 -44.224596 
L 378.58095 -44.069182 
L 379.978946 -49.425822 
L 381.376941 -49.713643 
L 382.774937 -50.12838 
L 384.172933 -50.706886 
L 385.570928 -50.631527 
L 386.968924 -55.496379 
L 388.36692 -54.435641 
L 389.764915 -86.827304 
L 391.162911 -88.773125 
L 392.560907 -91.381496 
L 393.958903 -91.054535 
L 395.356898 -92.415205 
L 396.754894 -93.131087 
L 398.15289 -94.311891 
L 399.550885 -96.938426 
L 400.948881 -100.317036 
L 402.346877 -102.728721 
L 403.744872 -106.852849 
L 405.142868 -105.62057 
L 406.540864 -107.49432 
L 407.93886 -118.396123 
L 409.336855 -114.705072 
L 410.734851 -166.546326 
L 412.132847 -172.735411 
L 413.530842 -165.597549 
L 414.928838 -116.88366 
L 416.326834 -120.08822 
L 417.72483 -121.453867 
L 417.72483 -100.393804 
L 417.72483 -100.393804 
L 416.326834 -99.789302 
L 414.928838 -96.729028 
L 413.530842 -140.213525 
L 412.132847 -146.304205 
L 410.734851 -142.123694 
L 409.336855 -93.654228 
L 407.93886 -96.835947 
L 406.540864 -84.940793 
L 405.142868 -84.371448 
L 403.744872 -83.910699 
L 402.346877 -79.50394 
L 400.948881 -76.474616 
L 399.550885 -72.539231 
L 398.15289 -72.667586 
L 396.754894 -71.124114 
L 395.356898 -67.138412 
L 393.958903 -68.390086 
L 392.560907 -65.853081 
L 391.162911 -65.864857 
L 389.764915 -63.148247 
L 388.36692 -51.272935 
L 386.968924 -52.029244 
L 385.570928 -47.323188 
L 384.172933 -47.185087 
L 382.774937 -46.87301 
L 381.376941 -46.363129 
L 379.978946 -46.52274 
L 378.58095 -41.531085 
L 377.182954 -41.501223 
L 375.784958 -41.973159 
L 374.386963 -41.977593 
L 372.988967 -41.861771 
L 371.590971 -42.567148 
L 370.192976 -41.195103 
L 368.79498 -40.684801 
L 367.396984 -39.851875 
L 365.998988 -40.54362 
L 364.600993 -40.445741 
L 363.202997 -40.629739 
L 361.805001 -40.533385 
L 360.407006 -40.684869 
L 359.00901 -40.743641 
L 357.611014 -41.113862 
L 356.213019 -41.046107 
L 354.815023 -41.257016 
L 353.417027 -41.397743 
L 352.019031 -41.436121 
L 350.621036 -62.445798 
L 349.22304 -61.788362 
L 347.825044 -50.179596 
L 346.427049 -66.439463 
L 345.029053 -66.674612 
L 343.631057 -67.258322 
L 342.233061 -68.597841 
L 340.835066 -71.152209 
L 339.43707 -88.736075 
L 338.039074 -71.617861 
L 336.641079 -71.321437 
L 335.243083 -73.43937 
L 333.845087 -70.462486 
L 332.447092 -70.817646 
L 331.049096 -90.755908 
L 329.6511 -64.344568 
L 328.253104 -63.742343 
L 326.855109 -62.035758 
L 325.457113 -64.750297 
L 324.059117 -50.017969 
L 322.661122 -61.848 
L 321.263126 -49.353744 
L 319.86513 -48.5654 
L 318.467134 -48.980035 
L 317.069139 -49.04495 
L 315.671143 -60.409904 
L 314.273147 -48.974603 
L 312.875152 -48.205136 
L 311.477156 -47.713469 
L 310.07916 -63.57732 
L 308.681165 -64.122389 
L 307.283169 -63.702166 
L 305.885173 -62.662326 
L 304.487177 -64.829798 
L 303.089182 -70.356558 
L 301.691186 -71.086219 
L 300.29319 -75.777079 
L 298.895195 -78.487026 
L 297.497199 -79.180754 
L 296.099203 -79.838178 
L 294.701207 -80.393836 
L 293.303212 -81.300365 
L 291.905216 -83.943331 
L 290.50722 -112.061957 
L 289.109225 -112.233953 
L 287.711229 -120.160684 
L 286.313233 -121.082605 
L 284.915238 -157.998588 
L 283.517242 -152.640473 
L 282.119246 -117.488768 
L 280.72125 -82.318596 
L 279.323255 -79.009877 
L 277.925259 -76.841408 
L 276.527263 -73.485812 
L 275.129268 -74.195096 
L 273.731272 -78.852413 
L 272.333276 -73.004769 
L 270.935281 -65.995692 
L 269.537285 -65.979356 
L 268.139289 -68.170348 
L 266.741293 -65.791486 
L 265.343298 -49.246394 
L 263.945302 -50.753999 
L 262.547306 -61.642456 
L 261.149311 -64.693968 
L 259.751315 -62.918535 
L 258.353319 -60.40678 
L 256.955323 -60.134565 
L 255.557328 -60.01606 
L 254.159332 -49.284085 
L 252.761336 -63.860589 
L 251.363341 -63.278989 
L 249.965345 -65.322209 
L 248.567349 -63.286775 
L 247.169354 -65.001954 
L 245.771358 -64.913783 
L 244.373362 -64.59904 
L 242.975366 -50.774495 
L 241.577371 -50.675593 
L 240.179375 -50.037527 
L 238.781379 -62.700592 
L 237.383384 -62.316875 
L 235.985388 -64.813625 
L 234.587392 -64.422605 
L 233.189396 -50.46602 
L 231.791401 -49.551036 
L 230.393405 -50.136227 
L 228.995409 -50.242347 
L 227.597414 -49.564452 
L 226.199418 -49.386232 
L 224.801422 -49.012281 
L 223.403427 -48.383331 
L 222.005431 -48.294444 
L 220.607435 -48.765126 
L 219.209439 -48.341676 
L 217.811444 -48.280353 
L 216.413448 -47.760396 
L 215.015452 -47.288831 
L 213.617457 -47.766943 
L 212.219461 -47.76102 
L 210.821465 -48.243833 
L 209.423469 -47.886108 
L 208.025474 -47.69953 
L 206.627478 -48.767338 
L 205.229482 -49.403189 
L 203.831487 -61.769534 
L 202.433491 -62.614897 
L 201.035495 -50.869008 
L 199.6375 -61.093203 
L 198.239504 -63.84399 
L 196.841508 -63.990267 
L 195.443512 -63.457191 
L 194.045517 -62.487497 
L 192.647521 -63.855703 
L 191.249525 -62.423604 
L 189.85153 -65.348102 
L 188.453534 -63.811208 
L 187.055538 -62.956653 
L 185.657543 -64.925607 
L 184.259547 -62.598338 
L 182.861551 -61.275156 
L 181.463555 -60.653247 
L 180.06556 -59.478449 
L 178.667564 -47.619333 
L 177.269568 -46.893492 
L 175.871573 -46.802523 
L 174.473577 -47.338009 
L 173.075581 -48.149462 
L 171.677585 -48.052556 
L 170.27959 -48.433601 
L 168.881594 -58.768724 
L 167.483598 -60.739659 
L 166.085603 -62.155404 
L 164.687607 -61.408516 
L 163.289611 -62.031788 
L 161.891616 -61.859056 
L 160.49362 -60.273351 
L 159.095624 -59.463714 
L 157.697628 -60.320809 
L 156.299633 -59.942861 
L 154.901637 -60.511563 
L 153.503641 -61.613062 
L 152.105646 -61.597749 
L 150.70765 -60.665449 
L 149.309654 -58.946224 
L 147.911658 -56.025039 
L 146.513663 -54.222905 
L 145.115667 -54.390193 
L 143.717671 -56.929221 
L 142.319676 -55.096617 
L 140.92168 -56.913061 
L 139.523684 -54.897174 
L 138.125689 -55.03221 
L 136.727693 -55.227494 
L 135.329697 -55.107746 
L 133.931701 -56.122576 
L 132.533706 -55.335215 
L 131.13571 -55.53402 
L 129.737714 -54.800142 
L 128.339719 -55.287558 
L 126.941723 -55.580511 
L 125.543727 -54.902559 
L 124.145731 -56.314208 
L 122.747736 -56.186665 
L 121.34974 -55.221672 
L 119.951744 -55.669763 
L 118.553749 -55.462778 
L 117.155753 -57.162039 
L 115.757757 -57.135205 
L 114.359762 -56.224315 
L 112.961766 -58.934015 
L 111.56377 -57.502591 
L 110.165774 -59.072203 
L 108.767779 -55.735042 
L 107.369783 -57.186853 
L 105.971787 -76.94277 
L 104.573792 -76.817991 
L 103.175796 -80.264474 
L 101.7778 -76.69099 
L 100.379804 -80.491462 
L 98.981809 -88.703715 
L 97.583813 -88.268757 
L 96.185817 -80.916288 
L 94.787822 -81.070079 
L 93.389826 -74.533841 
L 91.99183 -74.964438 
L 90.593835 -71.413594 
L 89.195839 -65.331466 
L 87.797843 -65.511703 
L 86.399847 -65.079193 
L 85.001852 -63.621522 
L 83.603856 -57.793279 
L 82.20586 -56.210669 
L 80.807865 -57.241826 
L 79.409869 -57.00792 
L 78.011873 -56.890431 
L 76.613878 -56.018669 
L 75.215882 -55.894282 
L 73.817886 -56.541719 
L 72.41989 -56.278785 
L 71.021895 -57.326944 
L 69.623899 -56.952181 
L 68.225903 -56.301786 
L 66.827908 -56.844155 
L 65.429912 -56.626853 
L 64.031916 -57.939347 
L 62.63392 -56.455058 
z
" style="stroke: #ffb612; stroke-opacity: 0.5; stroke-width: 0.5"/>
    </defs>
    <g clip-path="url(#p4860adde94)">
     <use xlink:href="#m0f34768377" x="0" y="198.611875" style="fill: #ffb612; fill-opacity: 0.5; stroke: #ffb612; stroke-opacity: 0.5; stroke-width: 0.5"/>
    </g>
   </g>
   <g id="line2d_29">
    <path d="M 62.63392 135.601703 
L 64.031916 134.641608 
L 65.429912 135.944388 
L 66.827908 135.991611 
L 68.225903 136.5067 
L 71.021895 135.364994 
L 72.41989 135.272868 
L 73.817886 135.884135 
L 75.215882 135.885705 
L 76.613878 135.511285 
L 78.011873 134.924796 
L 79.409869 134.823103 
L 80.807865 135.253396 
L 82.20586 136.100027 
L 83.603856 135.371197 
L 85.001852 128.379692 
L 86.399847 127.271774 
L 87.797843 127.272405 
L 89.195839 126.873548 
L 90.593835 122.075227 
L 91.99183 118.281527 
L 93.389826 118.517544 
L 94.787822 111.623047 
L 96.185817 111.396599 
L 97.583813 103.152011 
L 98.981809 102.465868 
L 100.379804 110.95514 
L 101.7778 116.083061 
L 103.175796 112.603995 
L 104.573792 116.142735 
L 105.971787 115.28615 
L 107.369783 136.469472 
L 108.767779 137.070727 
L 110.165774 133.554655 
L 111.56377 135.429092 
L 112.961766 134.299061 
L 114.359762 136.513761 
L 115.757757 136.919623 
L 117.155753 136.148684 
L 119.951744 136.0768 
L 121.34974 136.762931 
L 122.747736 135.897144 
L 125.543727 135.54521 
L 126.941723 136.543537 
L 128.339719 136.183255 
L 129.737714 136.911832 
L 131.13571 135.822095 
L 133.931701 135.636826 
L 135.329697 135.175943 
L 136.727693 135.42443 
L 138.125689 136.04022 
L 139.523684 135.81397 
L 140.92168 133.228027 
L 143.717671 133.625787 
L 145.115667 135.516056 
L 146.513663 135.551115 
L 147.911658 134.649457 
L 149.309654 131.312704 
L 150.70765 129.997301 
L 152.105646 129.065423 
L 153.503641 128.468251 
L 154.901637 130.253779 
L 156.299633 129.557467 
L 157.697628 130.367745 
L 159.095624 129.843473 
L 160.49362 127.952634 
L 161.891616 126.876159 
L 163.289611 126.528303 
L 164.687607 126.442452 
L 166.085603 125.767626 
L 167.483598 127.16293 
L 168.881594 129.561025 
L 170.27959 148.34582 
L 171.677585 148.951095 
L 173.075581 148.890539 
L 174.473577 149.657746 
L 175.871573 150.079315 
L 177.269568 149.967542 
L 178.667564 149.15914 
L 180.06556 129.496898 
L 181.463555 126.187224 
L 182.861551 125.545095 
L 184.259547 124.254104 
L 185.657543 123.432825 
L 187.055538 124.472678 
L 188.453534 122.936942 
L 189.85153 122.897803 
L 191.249525 124.628152 
L 192.647521 123.682279 
L 194.045517 124.529698 
L 195.443512 123.469284 
L 196.841508 122.755742 
L 198.239504 123.277001 
L 199.6375 124.760585 
L 201.035495 146.003474 
L 202.433491 123.870045 
L 203.831487 123.996209 
L 205.229482 147.515151 
L 206.627478 148.21844 
L 208.025474 149.1866 
L 209.423469 149.140205 
L 210.821465 148.82333 
L 213.617457 149.225008 
L 215.015452 149.72575 
L 217.811444 148.720479 
L 220.607435 148.162018 
L 222.005431 148.653332 
L 223.403427 148.68766 
L 224.801422 147.940622 
L 226.199418 147.551477 
L 227.597414 147.354854 
L 228.995409 146.593165 
L 230.393405 146.685535 
L 231.791401 147.364795 
L 233.189396 146.49512 
L 234.587392 122.506843 
L 235.985388 122.175956 
L 237.383384 124.617361 
L 238.781379 124.173369 
L 240.179375 146.754666 
L 242.975366 146.056409 
L 244.373362 122.108306 
L 245.771358 122.448811 
L 247.169354 121.678877 
L 248.567349 123.060401 
L 249.965345 121.549162 
L 251.363341 124.781385 
L 252.761336 123.504297 
L 254.159332 147.521095 
L 255.557328 127.210453 
L 256.955323 125.958393 
L 258.353319 126.810088 
L 259.751315 124.486541 
L 261.149311 123.158773 
L 262.547306 125.396028 
L 263.945302 146.202461 
L 265.343298 147.522691 
L 266.741293 121.059913 
L 268.139289 120.059783 
L 269.537285 121.275654 
L 270.935281 121.114483 
L 272.333276 114.726548 
L 273.731272 109.971048 
L 275.129268 114.633496 
L 276.527263 115.735038 
L 277.925259 111.947414 
L 279.323255 109.872766 
L 280.72125 107.306469 
L 282.119246 70.848855 
L 283.517242 30.151715 
L 284.915238 24.086644 
L 286.313233 67.387202 
L 287.711229 68.276199 
L 289.109225 76.28061 
L 290.50722 75.508287 
L 291.905216 105.872028 
L 293.303212 107.502908 
L 294.701207 108.255403 
L 296.099203 109.870426 
L 297.497199 109.333634 
L 298.895195 110.854495 
L 300.29319 112.877933 
L 301.691186 116.878963 
L 303.089182 118.232671 
L 304.487177 123.086852 
L 305.885173 125.754498 
L 307.283169 123.889776 
L 308.681165 123.240342 
L 310.07916 124.580297 
L 311.477156 149.012084 
L 314.273147 147.866985 
L 315.671143 127.653487 
L 317.069139 147.739125 
L 318.467134 147.713844 
L 319.86513 148.104331 
L 321.263126 147.255881 
L 322.661122 127.116563 
L 324.059117 146.534422 
L 325.457113 124.919289 
L 326.855109 126.898369 
L 328.253104 126.104823 
L 329.6511 125.059547 
L 331.049096 100.558817 
L 332.447092 120.499704 
L 333.845087 120.991747 
L 335.243083 119.105181 
L 336.641079 120.424838 
L 338.039074 119.86376 
L 339.43707 102.407646 
L 340.835066 120.320402 
L 342.233061 122.118707 
L 343.631057 123.556284 
L 345.029053 123.377363 
L 346.427049 123.537178 
L 347.825044 146.430543 
L 349.22304 126.550607 
L 350.621036 126.612752 
L 352.019031 155.784688 
L 356.213019 156.270069 
L 357.611014 156.22473 
L 360.407006 156.702096 
L 365.998988 156.917472 
L 367.396984 157.502593 
L 368.79498 156.560594 
L 370.192976 156.055052 
L 371.590971 154.756184 
L 372.988967 155.492235 
L 375.784958 155.332299 
L 377.182954 155.748966 
L 378.58095 155.811742 
L 379.978946 150.637594 
L 381.376941 150.573489 
L 384.172933 149.665889 
L 385.570928 149.634517 
L 386.968924 144.849063 
L 388.36692 145.757587 
L 389.764915 123.624099 
L 391.162911 121.292884 
L 392.560907 119.994586 
L 393.958903 118.889564 
L 395.356898 118.835067 
L 396.754894 116.484274 
L 399.550885 113.873046 
L 400.948881 110.216049 
L 402.346877 107.495544 
L 403.744872 103.230101 
L 405.142868 103.615866 
L 406.540864 102.394319 
L 407.93886 90.99584 
L 409.336855 94.432225 
L 410.734851 44.276865 
L 412.132847 39.092067 
L 413.530842 45.706338 
L 414.928838 91.805531 
L 416.326834 88.673114 
L 417.72483 87.68804 
L 417.72483 87.68804 
" clip-path="url(#p4860adde94)" style="fill: none; stroke: #ffb612; stroke-width: 3; stroke-linecap: square"/>
    <defs>
     <path id="med4a5a94df" d="M 0 1.5 
C 0.397805 1.5 0.77937 1.341951 1.06066 1.06066 
C 1.341951 0.77937 1.5 0.397805 1.5 0 
C 1.5 -0.397805 1.341951 -0.77937 1.06066 -1.06066 
C 0.77937 -1.341951 0.397805 -1.5 0 -1.5 
C -0.397805 -1.5 -0.77937 -1.341951 -1.06066 -1.06066 
C -1.341951 -0.77937 -1.5 -0.397805 -1.5 0 
C -1.5 0.397805 -1.341951 0.77937 -1.06066 1.06066 
C -0.77937 1.341951 -0.397805 1.5 0 1.5 
z
" style="stroke: #ffb612"/>
    </defs>
    <g clip-path="url(#p4860adde94)">
     <use xlink:href="#med4a5a94df" x="62.63392" y="135.601703" style="fill: #ffb612; stroke: #ffb612"/>
     <use xlink:href="#med4a5a94df" x="64.031916" y="134.641608" style="fill: #ffb612; stroke: #ffb612"/>
     <use xlink:href="#med4a5a94df" x="65.429912" y="135.944388" style="fill: #ffb612; stroke: #ffb612"/>
     <use xlink:href="#med4a5a94df" x="66.827908" y="135.991611" style="fill: #ffb612; stroke: #ffb612"/>
     <use xlink:href="#med4a5a94df" x="68.225903" y="136.5067" style="fill: #ffb612; stroke: #ffb612"/>
     <use xlink:href="#med4a5a94df" x="69.623899" y="135.886088" style="fill: #ffb612; stroke: #ffb612"/>
     <use xlink:href="#med4a5a94df" x="71.021895" y="135.364994" style="fill: #ffb612; stroke: #ffb612"/>
     <use xlink:href="#med4a5a94df" x="72.41989" y="135.272868" style="fill: #ffb612; stroke: #ffb612"/>
     <use xlink:href="#med4a5a94df" x="73.817886" y="135.884135" style="fill: #ffb612; stroke: #ffb612"/>
     <use xlink:href="#med4a5a94df" x="75.215882" y="135.885705" style="fill: #ffb612; stroke: #ffb612"/>
     <use xlink:href="#med4a5a94df" x="76.613878" y="135.511285" style="fill: #ffb612; stroke: #ffb612"/>
     <use xlink:href="#med4a5a94df" x="78.011873" y="134.924796" style="fill: #ffb612; stroke: #ffb612"/>
     <use xlink:href="#med4a5a94df" x="79.409869" y="134.823103" style="fill: #ffb612; stroke: #ffb612"/>
     <use xlink:href="#med4a5a94df" x="80.807865" y="135.253396" style="fill: #ffb612; stroke: #ffb612"/>
     <use xlink:href="#med4a5a94df" x="82.20586" y="136.100027" style="fill: #ffb612; stroke: #ffb612"/>
     <use xlink:href="#med4a5a94df" x="83.603856" y="135.371197" style="fill: #ffb612; stroke: #ffb612"/>
     <use xlink:href="#med4a5a94df" x="85.001852" y="128.379692" style="fill: #ffb612; stroke: #ffb612"/>
     <use xlink:href="#med4a5a94df" x="86.399847" y="127.271774" style="fill: #ffb612; stroke: #ffb612"/>
     <use xlink:href="#med4a5a94df" x="87.797843" y="127.272405" style="fill: #ffb612; stroke: #ffb612"/>
     <use xlink:href="#med4a5a94df" x="89.195839" y="126.873548" style="fill: #ffb612; stroke: #ffb612"/>
     <use xlink:href="#med4a5a94df" x="90.593835" y="122.075227" style="fill: #ffb612; stroke: #ffb612"/>
     <use xlink:href="#med4a5a94df" x="91.99183" y="118.281527" style="fill: #ffb612; stroke: #ffb612"/>
     <use xlink:href="#med4a5a94df" x="93.389826" y="118.517544" style="fill: #ffb612; stroke: #ffb612"/>
     <use xlink:href="#med4a5a94df" x="94.787822" y="111.623047" style="fill: #ffb612; stroke: #ffb612"/>
     <use xlink:href="#med4a5a94df" x="96.185817" y="111.396599" style="fill: #ffb612; stroke: #ffb612"/>
     <use xlink:href="#med4a5a94df" x="97.583813" y="103.152011" style="fill: #ffb612; stroke: #ffb612"/>
     <use xlink:href="#med4a5a94df" x="98.981809" y="102.465868" style="fill: #ffb612; stroke: #ffb612"/>
     <use xlink:href="#med4a5a94df" x="100.379804" y="110.95514" style="fill: #ffb612; stroke: #ffb612"/>
     <use xlink:href="#med4a5a94df" x="101.7778" y="116.083061" style="fill: #ffb612; stroke: #ffb612"/>
     <use xlink:href="#med4a5a94df" x="103.175796" y="112.603995" style="fill: #ffb612; stroke: #ffb612"/>
     <use xlink:href="#med4a5a94df" x="104.573792" y="116.142735" style="fill: #ffb612; stroke: #ffb612"/>
     <use xlink:href="#med4a5a94df" x="105.971787" y="115.28615" style="fill: #ffb612; stroke: #ffb612"/>
     <use xlink:href="#med4a5a94df" x="107.369783" y="136.469472" style="fill: #ffb612; stroke: #ffb612"/>
     <use xlink:href="#med4a5a94df" x="108.767779" y="137.070727" style="fill: #ffb612; stroke: #ffb612"/>
     <use xlink:href="#med4a5a94df" x="110.165774" y="133.554655" style="fill: #ffb612; stroke: #ffb612"/>
     <use xlink:href="#med4a5a94df" x="111.56377" y="135.429092" style="fill: #ffb612; stroke: #ffb612"/>
     <use xlink:href="#med4a5a94df" x="112.961766" y="134.299061" style="fill: #ffb612; stroke: #ffb612"/>
     <use xlink:href="#med4a5a94df" x="114.359762" y="136.513761" style="fill: #ffb612; stroke: #ffb612"/>
     <use xlink:href="#med4a5a94df" x="115.757757" y="136.919623" style="fill: #ffb612; stroke: #ffb612"/>
     <use xlink:href="#med4a5a94df" x="117.155753" y="136.148684" style="fill: #ffb612; stroke: #ffb612"/>
     <use xlink:href="#med4a5a94df" x="118.553749" y="136.10255" style="fill: #ffb612; stroke: #ffb612"/>
     <use xlink:href="#med4a5a94df" x="119.951744" y="136.0768" style="fill: #ffb612; stroke: #ffb612"/>
     <use xlink:href="#med4a5a94df" x="121.34974" y="136.762931" style="fill: #ffb612; stroke: #ffb612"/>
     <use xlink:href="#med4a5a94df" x="122.747736" y="135.897144" style="fill: #ffb612; stroke: #ffb612"/>
     <use xlink:href="#med4a5a94df" x="124.145731" y="135.703346" style="fill: #ffb612; stroke: #ffb612"/>
     <use xlink:href="#med4a5a94df" x="125.543727" y="135.54521" style="fill: #ffb612; stroke: #ffb612"/>
     <use xlink:href="#med4a5a94df" x="126.941723" y="136.543537" style="fill: #ffb612; stroke: #ffb612"/>
     <use xlink:href="#med4a5a94df" x="128.339719" y="136.183255" style="fill: #ffb612; stroke: #ffb612"/>
     <use xlink:href="#med4a5a94df" x="129.737714" y="136.911832" style="fill: #ffb612; stroke: #ffb612"/>
     <use xlink:href="#med4a5a94df" x="131.13571" y="135.822095" style="fill: #ffb612; stroke: #ffb612"/>
     <use xlink:href="#med4a5a94df" x="132.533706" y="135.692271" style="fill: #ffb612; stroke: #ffb612"/>
     <use xlink:href="#med4a5a94df" x="133.931701" y="135.636826" style="fill: #ffb612; stroke: #ffb612"/>
     <use xlink:href="#med4a5a94df" x="135.329697" y="135.175943" style="fill: #ffb612; stroke: #ffb612"/>
     <use xlink:href="#med4a5a94df" x="136.727693" y="135.42443" style="fill: #ffb612; stroke: #ffb612"/>
     <use xlink:href="#med4a5a94df" x="138.125689" y="136.04022" style="fill: #ffb612; stroke: #ffb612"/>
     <use xlink:href="#med4a5a94df" x="139.523684" y="135.81397" style="fill: #ffb612; stroke: #ffb612"/>
     <use xlink:href="#med4a5a94df" x="140.92168" y="133.228027" style="fill: #ffb612; stroke: #ffb612"/>
     <use xlink:href="#med4a5a94df" x="142.319676" y="133.457652" style="fill: #ffb612; stroke: #ffb612"/>
     <use xlink:href="#med4a5a94df" x="143.717671" y="133.625787" style="fill: #ffb612; stroke: #ffb612"/>
     <use xlink:href="#med4a5a94df" x="145.115667" y="135.516056" style="fill: #ffb612; stroke: #ffb612"/>
     <use xlink:href="#med4a5a94df" x="146.513663" y="135.551115" style="fill: #ffb612; stroke: #ffb612"/>
     <use xlink:href="#med4a5a94df" x="147.911658" y="134.649457" style="fill: #ffb612; stroke: #ffb612"/>
     <use xlink:href="#med4a5a94df" x="149.309654" y="131.312704" style="fill: #ffb612; stroke: #ffb612"/>
     <use xlink:href="#med4a5a94df" x="150.70765" y="129.997301" style="fill: #ffb612; stroke: #ffb612"/>
     <use xlink:href="#med4a5a94df" x="152.105646" y="129.065423" style="fill: #ffb612; stroke: #ffb612"/>
     <use xlink:href="#med4a5a94df" x="153.503641" y="128.468251" style="fill: #ffb612; stroke: #ffb612"/>
     <use xlink:href="#med4a5a94df" x="154.901637" y="130.253779" style="fill: #ffb612; stroke: #ffb612"/>
     <use xlink:href="#med4a5a94df" x="156.299633" y="129.557467" style="fill: #ffb612; stroke: #ffb612"/>
     <use xlink:href="#med4a5a94df" x="157.697628" y="130.367745" style="fill: #ffb612; stroke: #ffb612"/>
     <use xlink:href="#med4a5a94df" x="159.095624" y="129.843473" style="fill: #ffb612; stroke: #ffb612"/>
     <use xlink:href="#med4a5a94df" x="160.49362" y="127.952634" style="fill: #ffb612; stroke: #ffb612"/>
     <use xlink:href="#med4a5a94df" x="161.891616" y="126.876159" style="fill: #ffb612; stroke: #ffb612"/>
     <use xlink:href="#med4a5a94df" x="163.289611" y="126.528303" style="fill: #ffb612; stroke: #ffb612"/>
     <use xlink:href="#med4a5a94df" x="164.687607" y="126.442452" style="fill: #ffb612; stroke: #ffb612"/>
     <use xlink:href="#med4a5a94df" x="166.085603" y="125.767626" style="fill: #ffb612; stroke: #ffb612"/>
     <use xlink:href="#med4a5a94df" x="167.483598" y="127.16293" style="fill: #ffb612; stroke: #ffb612"/>
     <use xlink:href="#med4a5a94df" x="168.881594" y="129.561025" style="fill: #ffb612; stroke: #ffb612"/>
     <use xlink:href="#med4a5a94df" x="170.27959" y="148.34582" style="fill: #ffb612; stroke: #ffb612"/>
     <use xlink:href="#med4a5a94df" x="171.677585" y="148.951095" style="fill: #ffb612; stroke: #ffb612"/>
     <use xlink:href="#med4a5a94df" x="173.075581" y="148.890539" style="fill: #ffb612; stroke: #ffb612"/>
     <use xlink:href="#med4a5a94df" x="174.473577" y="149.657746" style="fill: #ffb612; stroke: #ffb612"/>
     <use xlink:href="#med4a5a94df" x="175.871573" y="150.079315" style="fill: #ffb612; stroke: #ffb612"/>
     <use xlink:href="#med4a5a94df" x="177.269568" y="149.967542" style="fill: #ffb612; stroke: #ffb612"/>
     <use xlink:href="#med4a5a94df" x="178.667564" y="149.15914" style="fill: #ffb612; stroke: #ffb612"/>
     <use xlink:href="#med4a5a94df" x="180.06556" y="129.496898" style="fill: #ffb612; stroke: #ffb612"/>
     <use xlink:href="#med4a5a94df" x="181.463555" y="126.187224" style="fill: #ffb612; stroke: #ffb612"/>
     <use xlink:href="#med4a5a94df" x="182.861551" y="125.545095" style="fill: #ffb612; stroke: #ffb612"/>
     <use xlink:href="#med4a5a94df" x="184.259547" y="124.254104" style="fill: #ffb612; stroke: #ffb612"/>
     <use xlink:href="#med4a5a94df" x="185.657543" y="123.432825" style="fill: #ffb612; stroke: #ffb612"/>
     <use xlink:href="#med4a5a94df" x="187.055538" y="124.472678" style="fill: #ffb612; stroke: #ffb612"/>
     <use xlink:href="#med4a5a94df" x="188.453534" y="122.936942" style="fill: #ffb612; stroke: #ffb612"/>
     <use xlink:href="#med4a5a94df" x="189.85153" y="122.897803" style="fill: #ffb612; stroke: #ffb612"/>
     <use xlink:href="#med4a5a94df" x="191.249525" y="124.628152" style="fill: #ffb612; stroke: #ffb612"/>
     <use xlink:href="#med4a5a94df" x="192.647521" y="123.682279" style="fill: #ffb612; stroke: #ffb612"/>
     <use xlink:href="#med4a5a94df" x="194.045517" y="124.529698" style="fill: #ffb612; stroke: #ffb612"/>
     <use xlink:href="#med4a5a94df" x="195.443512" y="123.469284" style="fill: #ffb612; stroke: #ffb612"/>
     <use xlink:href="#med4a5a94df" x="196.841508" y="122.755742" style="fill: #ffb612; stroke: #ffb612"/>
     <use xlink:href="#med4a5a94df" x="198.239504" y="123.277001" style="fill: #ffb612; stroke: #ffb612"/>
     <use xlink:href="#med4a5a94df" x="199.6375" y="124.760585" style="fill: #ffb612; stroke: #ffb612"/>
     <use xlink:href="#med4a5a94df" x="201.035495" y="146.003474" style="fill: #ffb612; stroke: #ffb612"/>
     <use xlink:href="#med4a5a94df" x="202.433491" y="123.870045" style="fill: #ffb612; stroke: #ffb612"/>
     <use xlink:href="#med4a5a94df" x="203.831487" y="123.996209" style="fill: #ffb612; stroke: #ffb612"/>
     <use xlink:href="#med4a5a94df" x="205.229482" y="147.515151" style="fill: #ffb612; stroke: #ffb612"/>
     <use xlink:href="#med4a5a94df" x="206.627478" y="148.21844" style="fill: #ffb612; stroke: #ffb612"/>
     <use xlink:href="#med4a5a94df" x="208.025474" y="149.1866" style="fill: #ffb612; stroke: #ffb612"/>
     <use xlink:href="#med4a5a94df" x="209.423469" y="149.140205" style="fill: #ffb612; stroke: #ffb612"/>
     <use xlink:href="#med4a5a94df" x="210.821465" y="148.82333" style="fill: #ffb612; stroke: #ffb612"/>
     <use xlink:href="#med4a5a94df" x="212.219461" y="149.07" style="fill: #ffb612; stroke: #ffb612"/>
     <use xlink:href="#med4a5a94df" x="213.617457" y="149.225008" style="fill: #ffb612; stroke: #ffb612"/>
     <use xlink:href="#med4a5a94df" x="215.015452" y="149.72575" style="fill: #ffb612; stroke: #ffb612"/>
     <use xlink:href="#med4a5a94df" x="216.413448" y="149.191215" style="fill: #ffb612; stroke: #ffb612"/>
     <use xlink:href="#med4a5a94df" x="217.811444" y="148.720479" style="fill: #ffb612; stroke: #ffb612"/>
     <use xlink:href="#med4a5a94df" x="219.209439" y="148.45846" style="fill: #ffb612; stroke: #ffb612"/>
     <use xlink:href="#med4a5a94df" x="220.607435" y="148.162018" style="fill: #ffb612; stroke: #ffb612"/>
     <use xlink:href="#med4a5a94df" x="222.005431" y="148.653332" style="fill: #ffb612; stroke: #ffb612"/>
     <use xlink:href="#med4a5a94df" x="223.403427" y="148.68766" style="fill: #ffb612; stroke: #ffb612"/>
     <use xlink:href="#med4a5a94df" x="224.801422" y="147.940622" style="fill: #ffb612; stroke: #ffb612"/>
     <use xlink:href="#med4a5a94df" x="226.199418" y="147.551477" style="fill: #ffb612; stroke: #ffb612"/>
     <use xlink:href="#med4a5a94df" x="227.597414" y="147.354854" style="fill: #ffb612; stroke: #ffb612"/>
     <use xlink:href="#med4a5a94df" x="228.995409" y="146.593165" style="fill: #ffb612; stroke: #ffb612"/>
     <use xlink:href="#med4a5a94df" x="230.393405" y="146.685535" style="fill: #ffb612; stroke: #ffb612"/>
     <use xlink:href="#med4a5a94df" x="231.791401" y="147.364795" style="fill: #ffb612; stroke: #ffb612"/>
     <use xlink:href="#med4a5a94df" x="233.189396" y="146.49512" style="fill: #ffb612; stroke: #ffb612"/>
     <use xlink:href="#med4a5a94df" x="234.587392" y="122.506843" style="fill: #ffb612; stroke: #ffb612"/>
     <use xlink:href="#med4a5a94df" x="235.985388" y="122.175956" style="fill: #ffb612; stroke: #ffb612"/>
     <use xlink:href="#med4a5a94df" x="237.383384" y="124.617361" style="fill: #ffb612; stroke: #ffb612"/>
     <use xlink:href="#med4a5a94df" x="238.781379" y="124.173369" style="fill: #ffb612; stroke: #ffb612"/>
     <use xlink:href="#med4a5a94df" x="240.179375" y="146.754666" style="fill: #ffb612; stroke: #ffb612"/>
     <use xlink:href="#med4a5a94df" x="241.577371" y="146.402061" style="fill: #ffb612; stroke: #ffb612"/>
     <use xlink:href="#med4a5a94df" x="242.975366" y="146.056409" style="fill: #ffb612; stroke: #ffb612"/>
     <use xlink:href="#med4a5a94df" x="244.373362" y="122.108306" style="fill: #ffb612; stroke: #ffb612"/>
     <use xlink:href="#med4a5a94df" x="245.771358" y="122.448811" style="fill: #ffb612; stroke: #ffb612"/>
     <use xlink:href="#med4a5a94df" x="247.169354" y="121.678877" style="fill: #ffb612; stroke: #ffb612"/>
     <use xlink:href="#med4a5a94df" x="248.567349" y="123.060401" style="fill: #ffb612; stroke: #ffb612"/>
     <use xlink:href="#med4a5a94df" x="249.965345" y="121.549162" style="fill: #ffb612; stroke: #ffb612"/>
     <use xlink:href="#med4a5a94df" x="251.363341" y="124.781385" style="fill: #ffb612; stroke: #ffb612"/>
     <use xlink:href="#med4a5a94df" x="252.761336" y="123.504297" style="fill: #ffb612; stroke: #ffb612"/>
     <use xlink:href="#med4a5a94df" x="254.159332" y="147.521095" style="fill: #ffb612; stroke: #ffb612"/>
     <use xlink:href="#med4a5a94df" x="255.557328" y="127.210453" style="fill: #ffb612; stroke: #ffb612"/>
     <use xlink:href="#med4a5a94df" x="256.955323" y="125.958393" style="fill: #ffb612; stroke: #ffb612"/>
     <use xlink:href="#med4a5a94df" x="258.353319" y="126.810088" style="fill: #ffb612; stroke: #ffb612"/>
     <use xlink:href="#med4a5a94df" x="259.751315" y="124.486541" style="fill: #ffb612; stroke: #ffb612"/>
     <use xlink:href="#med4a5a94df" x="261.149311" y="123.158773" style="fill: #ffb612; stroke: #ffb612"/>
     <use xlink:href="#med4a5a94df" x="262.547306" y="125.396028" style="fill: #ffb612; stroke: #ffb612"/>
     <use xlink:href="#med4a5a94df" x="263.945302" y="146.202461" style="fill: #ffb612; stroke: #ffb612"/>
     <use xlink:href="#med4a5a94df" x="265.343298" y="147.522691" style="fill: #ffb612; stroke: #ffb612"/>
     <use xlink:href="#med4a5a94df" x="266.741293" y="121.059913" style="fill: #ffb612; stroke: #ffb612"/>
     <use xlink:href="#med4a5a94df" x="268.139289" y="120.059783" style="fill: #ffb612; stroke: #ffb612"/>
     <use xlink:href="#med4a5a94df" x="269.537285" y="121.275654" style="fill: #ffb612; stroke: #ffb612"/>
     <use xlink:href="#med4a5a94df" x="270.935281" y="121.114483" style="fill: #ffb612; stroke: #ffb612"/>
     <use xlink:href="#med4a5a94df" x="272.333276" y="114.726548" style="fill: #ffb612; stroke: #ffb612"/>
     <use xlink:href="#med4a5a94df" x="273.731272" y="109.971048" style="fill: #ffb612; stroke: #ffb612"/>
     <use xlink:href="#med4a5a94df" x="275.129268" y="114.633496" style="fill: #ffb612; stroke: #ffb612"/>
     <use xlink:href="#med4a5a94df" x="276.527263" y="115.735038" style="fill: #ffb612; stroke: #ffb612"/>
     <use xlink:href="#med4a5a94df" x="277.925259" y="111.947414" style="fill: #ffb612; stroke: #ffb612"/>
     <use xlink:href="#med4a5a94df" x="279.323255" y="109.872766" style="fill: #ffb612; stroke: #ffb612"/>
     <use xlink:href="#med4a5a94df" x="280.72125" y="107.306469" style="fill: #ffb612; stroke: #ffb612"/>
     <use xlink:href="#med4a5a94df" x="282.119246" y="70.848855" style="fill: #ffb612; stroke: #ffb612"/>
     <use xlink:href="#med4a5a94df" x="283.517242" y="30.151715" style="fill: #ffb612; stroke: #ffb612"/>
     <use xlink:href="#med4a5a94df" x="284.915238" y="24.086644" style="fill: #ffb612; stroke: #ffb612"/>
     <use xlink:href="#med4a5a94df" x="286.313233" y="67.387202" style="fill: #ffb612; stroke: #ffb612"/>
     <use xlink:href="#med4a5a94df" x="287.711229" y="68.276199" style="fill: #ffb612; stroke: #ffb612"/>
     <use xlink:href="#med4a5a94df" x="289.109225" y="76.28061" style="fill: #ffb612; stroke: #ffb612"/>
     <use xlink:href="#med4a5a94df" x="290.50722" y="75.508287" style="fill: #ffb612; stroke: #ffb612"/>
     <use xlink:href="#med4a5a94df" x="291.905216" y="105.872028" style="fill: #ffb612; stroke: #ffb612"/>
     <use xlink:href="#med4a5a94df" x="293.303212" y="107.502908" style="fill: #ffb612; stroke: #ffb612"/>
     <use xlink:href="#med4a5a94df" x="294.701207" y="108.255403" style="fill: #ffb612; stroke: #ffb612"/>
     <use xlink:href="#med4a5a94df" x="296.099203" y="109.870426" style="fill: #ffb612; stroke: #ffb612"/>
     <use xlink:href="#med4a5a94df" x="297.497199" y="109.333634" style="fill: #ffb612; stroke: #ffb612"/>
     <use xlink:href="#med4a5a94df" x="298.895195" y="110.854495" style="fill: #ffb612; stroke: #ffb612"/>
     <use xlink:href="#med4a5a94df" x="300.29319" y="112.877933" style="fill: #ffb612; stroke: #ffb612"/>
     <use xlink:href="#med4a5a94df" x="301.691186" y="116.878963" style="fill: #ffb612; stroke: #ffb612"/>
     <use xlink:href="#med4a5a94df" x="303.089182" y="118.232671" style="fill: #ffb612; stroke: #ffb612"/>
     <use xlink:href="#med4a5a94df" x="304.487177" y="123.086852" style="fill: #ffb612; stroke: #ffb612"/>
     <use xlink:href="#med4a5a94df" x="305.885173" y="125.754498" style="fill: #ffb612; stroke: #ffb612"/>
     <use xlink:href="#med4a5a94df" x="307.283169" y="123.889776" style="fill: #ffb612; stroke: #ffb612"/>
     <use xlink:href="#med4a5a94df" x="308.681165" y="123.240342" style="fill: #ffb612; stroke: #ffb612"/>
     <use xlink:href="#med4a5a94df" x="310.07916" y="124.580297" style="fill: #ffb612; stroke: #ffb612"/>
     <use xlink:href="#med4a5a94df" x="311.477156" y="149.012084" style="fill: #ffb612; stroke: #ffb612"/>
     <use xlink:href="#med4a5a94df" x="312.875152" y="148.494126" style="fill: #ffb612; stroke: #ffb612"/>
     <use xlink:href="#med4a5a94df" x="314.273147" y="147.866985" style="fill: #ffb612; stroke: #ffb612"/>
     <use xlink:href="#med4a5a94df" x="315.671143" y="127.653487" style="fill: #ffb612; stroke: #ffb612"/>
     <use xlink:href="#med4a5a94df" x="317.069139" y="147.739125" style="fill: #ffb612; stroke: #ffb612"/>
     <use xlink:href="#med4a5a94df" x="318.467134" y="147.713844" style="fill: #ffb612; stroke: #ffb612"/>
     <use xlink:href="#med4a5a94df" x="319.86513" y="148.104331" style="fill: #ffb612; stroke: #ffb612"/>
     <use xlink:href="#med4a5a94df" x="321.263126" y="147.255881" style="fill: #ffb612; stroke: #ffb612"/>
     <use xlink:href="#med4a5a94df" x="322.661122" y="127.116563" style="fill: #ffb612; stroke: #ffb612"/>
     <use xlink:href="#med4a5a94df" x="324.059117" y="146.534422" style="fill: #ffb612; stroke: #ffb612"/>
     <use xlink:href="#med4a5a94df" x="325.457113" y="124.919289" style="fill: #ffb612; stroke: #ffb612"/>
     <use xlink:href="#med4a5a94df" x="326.855109" y="126.898369" style="fill: #ffb612; stroke: #ffb612"/>
     <use xlink:href="#med4a5a94df" x="328.253104" y="126.104823" style="fill: #ffb612; stroke: #ffb612"/>
     <use xlink:href="#med4a5a94df" x="329.6511" y="125.059547" style="fill: #ffb612; stroke: #ffb612"/>
     <use xlink:href="#med4a5a94df" x="331.049096" y="100.558817" style="fill: #ffb612; stroke: #ffb612"/>
     <use xlink:href="#med4a5a94df" x="332.447092" y="120.499704" style="fill: #ffb612; stroke: #ffb612"/>
     <use xlink:href="#med4a5a94df" x="333.845087" y="120.991747" style="fill: #ffb612; stroke: #ffb612"/>
     <use xlink:href="#med4a5a94df" x="335.243083" y="119.105181" style="fill: #ffb612; stroke: #ffb612"/>
     <use xlink:href="#med4a5a94df" x="336.641079" y="120.424838" style="fill: #ffb612; stroke: #ffb612"/>
     <use xlink:href="#med4a5a94df" x="338.039074" y="119.86376" style="fill: #ffb612; stroke: #ffb612"/>
     <use xlink:href="#med4a5a94df" x="339.43707" y="102.407646" style="fill: #ffb612; stroke: #ffb612"/>
     <use xlink:href="#med4a5a94df" x="340.835066" y="120.320402" style="fill: #ffb612; stroke: #ffb612"/>
     <use xlink:href="#med4a5a94df" x="342.233061" y="122.118707" style="fill: #ffb612; stroke: #ffb612"/>
     <use xlink:href="#med4a5a94df" x="343.631057" y="123.556284" style="fill: #ffb612; stroke: #ffb612"/>
     <use xlink:href="#med4a5a94df" x="345.029053" y="123.377363" style="fill: #ffb612; stroke: #ffb612"/>
     <use xlink:href="#med4a5a94df" x="346.427049" y="123.537178" style="fill: #ffb612; stroke: #ffb612"/>
     <use xlink:href="#med4a5a94df" x="347.825044" y="146.430543" style="fill: #ffb612; stroke: #ffb612"/>
     <use xlink:href="#med4a5a94df" x="349.22304" y="126.550607" style="fill: #ffb612; stroke: #ffb612"/>
     <use xlink:href="#med4a5a94df" x="350.621036" y="126.612752" style="fill: #ffb612; stroke: #ffb612"/>
     <use xlink:href="#med4a5a94df" x="352.019031" y="155.784688" style="fill: #ffb612; stroke: #ffb612"/>
     <use xlink:href="#med4a5a94df" x="353.417027" y="155.926954" style="fill: #ffb612; stroke: #ffb612"/>
     <use xlink:href="#med4a5a94df" x="354.815023" y="156.056092" style="fill: #ffb612; stroke: #ffb612"/>
     <use xlink:href="#med4a5a94df" x="356.213019" y="156.270069" style="fill: #ffb612; stroke: #ffb612"/>
     <use xlink:href="#med4a5a94df" x="357.611014" y="156.22473" style="fill: #ffb612; stroke: #ffb612"/>
     <use xlink:href="#med4a5a94df" x="359.00901" y="156.44514" style="fill: #ffb612; stroke: #ffb612"/>
     <use xlink:href="#med4a5a94df" x="360.407006" y="156.702096" style="fill: #ffb612; stroke: #ffb612"/>
     <use xlink:href="#med4a5a94df" x="361.805001" y="156.738035" style="fill: #ffb612; stroke: #ffb612"/>
     <use xlink:href="#med4a5a94df" x="363.202997" y="156.668026" style="fill: #ffb612; stroke: #ffb612"/>
     <use xlink:href="#med4a5a94df" x="364.600993" y="156.789216" style="fill: #ffb612; stroke: #ffb612"/>
     <use xlink:href="#med4a5a94df" x="365.998988" y="156.917472" style="fill: #ffb612; stroke: #ffb612"/>
     <use xlink:href="#med4a5a94df" x="367.396984" y="157.502593" style="fill: #ffb612; stroke: #ffb612"/>
     <use xlink:href="#med4a5a94df" x="368.79498" y="156.560594" style="fill: #ffb612; stroke: #ffb612"/>
     <use xlink:href="#med4a5a94df" x="370.192976" y="156.055052" style="fill: #ffb612; stroke: #ffb612"/>
     <use xlink:href="#med4a5a94df" x="371.590971" y="154.756184" style="fill: #ffb612; stroke: #ffb612"/>
     <use xlink:href="#med4a5a94df" x="372.988967" y="155.492235" style="fill: #ffb612; stroke: #ffb612"/>
     <use xlink:href="#med4a5a94df" x="374.386963" y="155.380684" style="fill: #ffb612; stroke: #ffb612"/>
     <use xlink:href="#med4a5a94df" x="375.784958" y="155.332299" style="fill: #ffb612; stroke: #ffb612"/>
     <use xlink:href="#med4a5a94df" x="377.182954" y="155.748966" style="fill: #ffb612; stroke: #ffb612"/>
     <use xlink:href="#med4a5a94df" x="378.58095" y="155.811742" style="fill: #ffb612; stroke: #ffb612"/>
     <use xlink:href="#med4a5a94df" x="379.978946" y="150.637594" style="fill: #ffb612; stroke: #ffb612"/>
     <use xlink:href="#med4a5a94df" x="381.376941" y="150.573489" style="fill: #ffb612; stroke: #ffb612"/>
     <use xlink:href="#med4a5a94df" x="382.774937" y="150.11118" style="fill: #ffb612; stroke: #ffb612"/>
     <use xlink:href="#med4a5a94df" x="384.172933" y="149.665889" style="fill: #ffb612; stroke: #ffb612"/>
     <use xlink:href="#med4a5a94df" x="385.570928" y="149.634517" style="fill: #ffb612; stroke: #ffb612"/>
     <use xlink:href="#med4a5a94df" x="386.968924" y="144.849063" style="fill: #ffb612; stroke: #ffb612"/>
     <use xlink:href="#med4a5a94df" x="388.36692" y="145.757587" style="fill: #ffb612; stroke: #ffb612"/>
     <use xlink:href="#med4a5a94df" x="389.764915" y="123.624099" style="fill: #ffb612; stroke: #ffb612"/>
     <use xlink:href="#med4a5a94df" x="391.162911" y="121.292884" style="fill: #ffb612; stroke: #ffb612"/>
     <use xlink:href="#med4a5a94df" x="392.560907" y="119.994586" style="fill: #ffb612; stroke: #ffb612"/>
     <use xlink:href="#med4a5a94df" x="393.958903" y="118.889564" style="fill: #ffb612; stroke: #ffb612"/>
     <use xlink:href="#med4a5a94df" x="395.356898" y="118.835067" style="fill: #ffb612; stroke: #ffb612"/>
     <use xlink:href="#med4a5a94df" x="396.754894" y="116.484274" style="fill: #ffb612; stroke: #ffb612"/>
     <use xlink:href="#med4a5a94df" x="398.15289" y="115.122136" style="fill: #ffb612; stroke: #ffb612"/>
     <use xlink:href="#med4a5a94df" x="399.550885" y="113.873046" style="fill: #ffb612; stroke: #ffb612"/>
     <use xlink:href="#med4a5a94df" x="400.948881" y="110.216049" style="fill: #ffb612; stroke: #ffb612"/>
     <use xlink:href="#med4a5a94df" x="402.346877" y="107.495544" style="fill: #ffb612; stroke: #ffb612"/>
     <use xlink:href="#med4a5a94df" x="403.744872" y="103.230101" style="fill: #ffb612; stroke: #ffb612"/>
     <use xlink:href="#med4a5a94df" x="405.142868" y="103.615866" style="fill: #ffb612; stroke: #ffb612"/>
     <use xlink:href="#med4a5a94df" x="406.540864" y="102.394319" style="fill: #ffb612; stroke: #ffb612"/>
     <use xlink:href="#med4a5a94df" x="407.93886" y="90.99584" style="fill: #ffb612; stroke: #ffb612"/>
     <use xlink:href="#med4a5a94df" x="409.336855" y="94.432225" style="fill: #ffb612; stroke: #ffb612"/>
     <use xlink:href="#med4a5a94df" x="410.734851" y="44.276865" style="fill: #ffb612; stroke: #ffb612"/>
     <use xlink:href="#med4a5a94df" x="412.132847" y="39.092067" style="fill: #ffb612; stroke: #ffb612"/>
     <use xlink:href="#med4a5a94df" x="413.530842" y="45.706338" style="fill: #ffb612; stroke: #ffb612"/>
     <use xlink:href="#med4a5a94df" x="414.928838" y="91.805531" style="fill: #ffb612; stroke: #ffb612"/>
     <use xlink:href="#med4a5a94df" x="416.326834" y="88.673114" style="fill: #ffb612; stroke: #ffb612"/>
     <use xlink:href="#med4a5a94df" x="417.72483" y="87.68804" style="fill: #ffb612; stroke: #ffb612"/>
    </g>
   </g>
   <g id="line2d_30">
    <path d="M 62.63392 135.284728 
L 64.031916 134.897976 
L 65.429912 130.532137 
L 66.827908 132.335843 
L 68.225903 131.777075 
L 69.623899 131.904648 
L 71.021895 135.256938 
L 72.41989 134.754309 
L 73.817886 135.349979 
L 75.215882 135.659619 
L 76.613878 138.35599 
L 78.011873 138.709968 
L 79.409869 137.763839 
L 80.807865 135.700047 
L 82.20586 130.996277 
L 83.603856 130.087204 
L 85.001852 129.783556 
L 86.399847 128.732182 
L 87.797843 129.577211 
L 89.195839 129.957033 
L 90.593835 127.783852 
L 91.99183 125.107648 
L 93.389826 125.403755 
L 94.787822 124.693113 
L 96.185817 117.850141 
L 97.583813 116.324202 
L 98.981809 113.664081 
L 100.379804 117.512319 
L 101.7778 120.566094 
L 103.175796 119.733087 
L 104.573792 121.810371 
L 105.971787 122.30822 
L 107.369783 129.68775 
L 108.767779 133.912646 
L 110.165774 132.287324 
L 111.56377 136.159632 
L 112.961766 134.062593 
L 114.359762 135.41045 
L 115.757757 131.207051 
L 117.155753 136.595288 
L 118.553749 140.128623 
L 119.951744 140.83216 
L 122.747736 140.892166 
L 124.145731 140.845033 
L 125.543727 145.777848 
L 126.941723 143.650549 
L 128.339719 144.033776 
L 129.737714 143.68551 
L 131.13571 145.538892 
L 132.533706 145.704053 
L 133.931701 144.788296 
L 135.329697 145.803544 
L 136.727693 143.703527 
L 138.125689 140.977965 
L 139.523684 142.038052 
L 140.92168 148.094608 
L 142.319676 149.154642 
L 143.717671 148.499572 
L 145.115667 145.664417 
L 146.513663 145.316827 
L 147.911658 143.11516 
L 149.309654 142.17187 
L 150.70765 140.31579 
L 152.105646 139.533447 
L 153.503641 139.433058 
L 154.901637 135.862523 
L 156.299633 138.651807 
L 157.697628 139.183996 
L 159.095624 146.335452 
L 160.49362 146.328287 
L 161.891616 144.303087 
L 163.289611 143.589772 
L 164.687607 144.657485 
L 166.085603 145.049665 
L 167.483598 144.854036 
L 168.881594 143.499389 
L 170.27959 147.29728 
L 171.677585 147.746492 
L 173.075581 147.466786 
L 174.473577 148.366087 
L 175.871573 148.813647 
L 177.269568 148.622271 
L 178.667564 145.572433 
L 180.06556 144.989465 
L 181.463555 142.530731 
L 182.861551 142.934755 
L 184.259547 141.886403 
L 185.657543 139.692593 
L 187.055538 139.74346 
L 188.453534 140.619129 
L 189.85153 139.993075 
L 191.249525 138.267149 
L 192.647521 137.383476 
L 194.045517 140.73224 
L 195.443512 138.252322 
L 196.841508 141.819154 
L 198.239504 143.276965 
L 199.6375 143.831709 
L 201.035495 144.545338 
L 202.433491 142.679797 
L 203.831487 144.17051 
L 205.229482 147.384931 
L 206.627478 148.118371 
L 209.423469 150.414802 
L 210.821465 149.631658 
L 213.617457 150.128025 
L 215.015452 152.043825 
L 216.413448 150.07543 
L 217.811444 149.210018 
L 219.209439 149.139455 
L 220.607435 148.40652 
L 222.005431 149.047213 
L 223.403427 148.740765 
L 224.801422 147.182488 
L 226.199418 146.825511 
L 227.597414 146.682126 
L 228.995409 144.268312 
L 230.393405 145.650628 
L 231.791401 145.407097 
L 233.189396 144.329579 
L 234.587392 140.957839 
L 235.985388 143.324591 
L 237.383384 143.197003 
L 238.781379 142.431908 
L 240.179375 145.481557 
L 241.577371 145.451541 
L 242.975366 144.779129 
L 244.373362 143.466386 
L 245.771358 142.455152 
L 247.169354 141.266426 
L 248.567349 140.893142 
L 249.965345 140.776724 
L 251.363341 140.409507 
L 252.761336 143.408233 
L 254.159332 144.513405 
L 255.557328 144.20736 
L 256.955323 143.683589 
L 258.353319 144.120286 
L 259.751315 141.221839 
L 261.149311 141.774524 
L 262.547306 141.281285 
L 263.945302 144.886888 
L 265.343298 145.630477 
L 266.741293 138.033442 
L 268.139289 138.067596 
L 269.537285 135.745699 
L 270.935281 136.0336 
L 272.333276 116.926688 
L 273.731272 105.701241 
L 275.129268 111.38426 
L 276.527263 115.8484 
L 277.925259 109.89566 
L 279.323255 106.876691 
L 280.72125 95.103147 
L 282.119246 66.586452 
L 283.517242 30.734882 
L 284.915238 22.490083 
L 286.313233 54.875738 
L 287.711229 67.033006 
L 289.109225 88.002083 
L 290.50722 83.958307 
L 291.905216 93.661946 
L 293.303212 101.651485 
L 294.701207 103.425206 
L 296.099203 109.379793 
L 297.497199 109.450171 
L 298.895195 112.814653 
L 300.29319 117.122841 
L 301.691186 130.223172 
L 303.089182 134.14384 
L 304.487177 134.956662 
L 305.885173 140.78391 
L 307.283169 141.670352 
L 310.07916 141.792848 
L 311.477156 145.822295 
L 312.875152 145.78164 
L 314.273147 145.187497 
L 315.671143 144.418733 
L 317.069139 144.469439 
L 318.467134 145.273717 
L 319.86513 147.013628 
L 321.263126 145.530462 
L 322.661122 144.775218 
L 324.059117 145.339774 
L 325.457113 140.500904 
L 326.855109 137.273219 
L 328.253104 137.05719 
L 329.6511 137.328448 
L 331.049096 109.138377 
L 332.447092 124.934733 
L 333.845087 119.915212 
L 335.243083 120.419341 
L 336.641079 120.456574 
L 338.039074 121.237846 
L 339.43707 112.121202 
L 340.835066 118.824351 
L 342.233061 127.916495 
L 343.631057 134.807676 
L 345.029053 133.730933 
L 346.427049 133.745933 
L 347.825044 146.492035 
L 349.22304 142.612875 
L 350.621036 144.818211 
L 352.019031 154.93282 
L 353.417027 155.440328 
L 354.815023 155.012308 
L 356.213019 155.031939 
L 357.611014 155.606571 
L 359.00901 155.791284 
L 360.407006 156.09931 
L 361.805001 155.789626 
L 363.202997 155.746234 
L 364.600993 155.567526 
L 365.998988 155.583503 
L 367.396984 156.365727 
L 368.79498 156.569988 
L 370.192976 156.554354 
L 371.590971 154.463377 
L 372.988967 154.791465 
L 374.386963 154.42116 
L 375.784958 154.432745 
L 378.58095 153.470864 
L 379.978946 152.381877 
L 381.376941 152.013947 
L 384.172933 150.400996 
L 385.570928 150.407241 
L 386.968924 143.899509 
L 388.36692 144.671877 
L 389.764915 141.026839 
L 391.162911 139.39875 
L 392.560907 133.998301 
L 393.958903 131.662565 
L 395.356898 131.688402 
L 396.754894 124.611531 
L 398.15289 120.395622 
L 399.550885 116.9706 
L 402.346877 101.078302 
L 403.744872 99.849246 
L 405.142868 99.850572 
L 406.540864 101.200632 
L 407.93886 76.385866 
L 409.336855 84.787395 
L 410.734851 59.201602 
L 412.132847 56.405294 
L 413.530842 60.345304 
L 414.928838 75.047221 
L 416.326834 75.661298 
L 417.72483 75.825662 
L 417.72483 75.825662 
" clip-path="url(#p4860adde94)" style="fill: none; stroke-dasharray: 5.55,2.4; stroke-dashoffset: 0; stroke: #000000; stroke-width: 1.5"/>
   </g>
   <g id="patch_3">
    <path d="M 44.879375 166.32 
L 44.879375 -0 
" style="fill: none; stroke: #ffffff; stroke-linejoin: miter; stroke-linecap: square"/>
   </g>
   <g id="patch_4">
    <path d="M 435.479375 166.32 
L 435.479375 -0 
" style="fill: none; stroke: #ffffff; stroke-linejoin: miter; stroke-linecap: square"/>
   </g>
   <g id="patch_5">
    <path d="M 44.879375 166.32 
L 435.479375 166.32 
" style="fill: none; stroke: #ffffff; stroke-linejoin: miter; stroke-linecap: square"/>
   </g>
   <g id="patch_6">
    <path d="M 44.879375 -0 
L 435.479375 -0 
" style="fill: none; stroke: #ffffff; stroke-linejoin: miter; stroke-linecap: square"/>
   </g>
   <g id="legend_1">
    <g id="patch_7">
     <path d="M 51.879375 60.378125 
L 203.92625 60.378125 
Q 205.92625 60.378125 205.92625 58.378125 
L 205.92625 7 
Q 205.92625 5 203.92625 5 
L 51.879375 5 
Q 49.879375 5 49.879375 7 
L 49.879375 58.378125 
Q 49.879375 60.378125 51.879375 60.378125 
z
" style="fill: #e5e5e5; opacity: 0.8; stroke: #cccccc; stroke-width: 0.5; stroke-linejoin: miter"/>
    </g>
    <g id="line2d_31">
     <path d="M 53.879375 15.5 
L 63.879375 15.5 
L 73.879375 15.5 
" style="fill: none; stroke: #ffb612; stroke-width: 3; stroke-linecap: square"/>
     <g>
      <use xlink:href="#med4a5a94df" x="63.879375" y="15.5" style="fill: #ffb612; stroke: #ffb612"/>
     </g>
    </g>
    <g id="text_17">
     <!-- Private Value $\tilde{R}_{\chi_3,\chi_1}^t$ -->
     <g transform="translate(81.879375 19) scale(0.1 -0.1)">
      <defs>
       <path id="DejaVuSans-50" d="M 1259 4147 
L 1259 2394 
L 2053 2394 
Q 2494 2394 2734 2622 
Q 2975 2850 2975 3272 
Q 2975 3691 2734 3919 
Q 2494 4147 2053 4147 
L 1259 4147 
z
M 628 4666 
L 2053 4666 
Q 2838 4666 3239 4311 
Q 3641 3956 3641 3272 
Q 3641 2581 3239 2228 
Q 2838 1875 2053 1875 
L 1259 1875 
L 1259 0 
L 628 0 
L 628 4666 
z
" transform="scale(0.015625)"/>
       <path id="DejaVuSans-72" d="M 2631 2963 
Q 2534 3019 2420 3045 
Q 2306 3072 2169 3072 
Q 1681 3072 1420 2755 
Q 1159 2438 1159 1844 
L 1159 0 
L 581 0 
L 581 3500 
L 1159 3500 
L 1159 2956 
Q 1341 3275 1631 3429 
Q 1922 3584 2338 3584 
Q 2397 3584 2469 3576 
Q 2541 3569 2628 3553 
L 2631 2963 
z
" transform="scale(0.015625)"/>
       <path id="DejaVuSans-69" d="M 603 3500 
L 1178 3500 
L 1178 0 
L 603 0 
L 603 3500 
z
M 603 4863 
L 1178 4863 
L 1178 4134 
L 603 4134 
L 603 4863 
z
" transform="scale(0.015625)"/>
       <path id="DejaVuSans-76" d="M 191 3500 
L 800 3500 
L 1894 563 
L 2988 3500 
L 3597 3500 
L 2284 0 
L 1503 0 
L 191 3500 
z
" transform="scale(0.015625)"/>
       <path id="DejaVuSans-20" transform="scale(0.015625)"/>
       <path id="DejaVuSans-303" d="M -1621 4281 
L -1799 4453 
Q -1867 4516 -1919 4545 
Q -1971 4575 -2011 4575 
Q -2130 4575 -2186 4461 
Q -2242 4347 -2249 4091 
L -2639 4091 
Q -2633 4513 -2473 4742 
Q -2314 4972 -2030 4972 
Q -1911 4972 -1811 4928 
Q -1711 4884 -1596 4781 
L -1417 4609 
Q -1349 4547 -1297 4517 
Q -1246 4488 -1205 4488 
Q -1086 4488 -1030 4602 
Q -974 4716 -967 4972 
L -577 4972 
Q -583 4550 -742 4320 
Q -902 4091 -1186 4091 
Q -1305 4091 -1405 4134 
Q -1505 4178 -1621 4281 
z
" transform="scale(0.015625)"/>
       <path id="DejaVuSans-Oblique-52" d="M 1613 4147 
L 1294 2491 
L 2106 2491 
Q 2584 2491 2879 2755 
Q 3175 3019 3175 3444 
Q 3175 3784 2976 3965 
Q 2778 4147 2406 4147 
L 1613 4147 
z
M 2772 2241 
Q 2972 2194 3105 2009 
Q 3238 1825 3413 1275 
L 3809 0 
L 3144 0 
L 2778 1197 
Q 2638 1659 2453 1815 
Q 2269 1972 1888 1972 
L 1191 1972 
L 806 0 
L 172 0 
L 1081 4666 
L 2503 4666 
Q 3150 4666 3495 4373 
Q 3841 4081 3841 3531 
Q 3841 3044 3547 2687 
Q 3253 2331 2772 2241 
z
" transform="scale(0.015625)"/>
       <path id="DejaVuSans-Oblique-74" d="M 2706 3500 
L 2619 3053 
L 1472 3053 
L 1100 1153 
Q 1081 1047 1072 975 
Q 1063 903 1063 863 
Q 1063 663 1183 572 
Q 1303 481 1569 481 
L 2150 481 
L 2053 0 
L 1503 0 
Q 991 0 739 200 
Q 488 400 488 806 
Q 488 878 497 964 
Q 506 1050 525 1153 
L 897 3053 
L 409 3053 
L 500 3500 
L 978 3500 
L 1172 4494 
L 1747 4494 
L 1556 3500 
L 2706 3500 
z
" transform="scale(0.015625)"/>
       <path id="DejaVuSans-Oblique-3c7" d="M 1922 -781 
L 1691 416 
L 394 -1334 
L -284 -1334 
L 1553 1141 
L 1269 2613 
Q 1194 3006 713 3006 
L 559 3006 
L 653 3500 
L 872 3494 
Q 1675 3472 1775 2950 
L 2006 1753 
L 3303 3503 
L 3981 3503 
L 2144 1028 
L 2428 -444 
Q 2503 -838 2984 -838 
L 3138 -838 
L 3044 -1331 
L 2825 -1325 
Q 2022 -1303 1922 -781 
z
" transform="scale(0.015625)"/>
       <path id="DejaVuSans-2c" d="M 750 794 
L 1409 794 
L 1409 256 
L 897 -744 
L 494 -744 
L 750 256 
L 750 794 
z
" transform="scale(0.015625)"/>
      </defs>
      <use xlink:href="#DejaVuSans-50" transform="translate(0 0.828125)"/>
      <use xlink:href="#DejaVuSans-72" transform="translate(60.302734 0.828125)"/>
      <use xlink:href="#DejaVuSans-69" transform="translate(101.416016 0.828125)"/>
      <use xlink:href="#DejaVuSans-76" transform="translate(129.199219 0.828125)"/>
      <use xlink:href="#DejaVuSans-61" transform="translate(188.378906 0.828125)"/>
      <use xlink:href="#DejaVuSans-74" transform="translate(249.658203 0.828125)"/>
      <use xlink:href="#DejaVuSans-65" transform="translate(288.867188 0.828125)"/>
      <use xlink:href="#DejaVuSans-20" transform="translate(350.390625 0.828125)"/>
      <use xlink:href="#DejaVuSans-56" transform="translate(382.177734 0.828125)"/>
      <use xlink:href="#DejaVuSans-61" transform="translate(450.585938 0.828125)"/>
      <use xlink:href="#DejaVuSans-6c" transform="translate(511.865234 0.828125)"/>
      <use xlink:href="#DejaVuSans-75" transform="translate(539.648438 0.828125)"/>
      <use xlink:href="#DejaVuSans-65" transform="translate(603.027344 0.828125)"/>
      <use xlink:href="#DejaVuSans-20" transform="translate(664.550781 0.828125)"/>
      <use xlink:href="#DejaVuSans-303" transform="translate(764.942871 22.3125)"/>
      <use xlink:href="#DejaVuSans-Oblique-52" transform="translate(696.337891 0.828125)"/>
      <use xlink:href="#DejaVuSans-Oblique-74" transform="translate(766.777344 39.109375) scale(0.7)"/>
      <use xlink:href="#DejaVuSans-Oblique-3c7" transform="translate(766.777344 -26.515625) scale(0.7)"/>
      <use xlink:href="#DejaVuSans-33" transform="translate(808.203125 -38) scale(0.49)"/>
      <use xlink:href="#DejaVuSans-2c" transform="translate(841.29248 -26.515625) scale(0.7)"/>
      <use xlink:href="#DejaVuSans-Oblique-3c7" transform="translate(877.181152 -26.515625) scale(0.7)"/>
      <use xlink:href="#DejaVuSans-31" transform="translate(918.606934 -38) scale(0.49)"/>
     </g>
    </g>
    <g id="line2d_32">
     <path d="M 53.879375 34 
L 63.879375 34 
L 73.879375 34 
" style="fill: none; stroke-dasharray: 5.55,2.4; stroke-dashoffset: 0; stroke: #000000; stroke-width: 1.5"/>
    </g>
    <g id="text_18">
     <!-- Original Value $\bar{R}_{\chi_3,\chi_1}^t$ -->
     <g transform="translate(81.879375 37.5) scale(0.1 -0.1)">
      <defs>
       <path id="DejaVuSans-4f" d="M 2522 4238 
Q 1834 4238 1429 3725 
Q 1025 3213 1025 2328 
Q 1025 1447 1429 934 
Q 1834 422 2522 422 
Q 3209 422 3611 934 
Q 4013 1447 4013 2328 
Q 4013 3213 3611 3725 
Q 3209 4238 2522 4238 
z
M 2522 4750 
Q 3503 4750 4090 4092 
Q 4678 3434 4678 2328 
Q 4678 1225 4090 567 
Q 3503 -91 2522 -91 
Q 1538 -91 948 565 
Q 359 1222 359 2328 
Q 359 3434 948 4092 
Q 1538 4750 2522 4750 
z
" transform="scale(0.015625)"/>
       <path id="DejaVuSans-67" d="M 2906 1791 
Q 2906 2416 2648 2759 
Q 2391 3103 1925 3103 
Q 1463 3103 1205 2759 
Q 947 2416 947 1791 
Q 947 1169 1205 825 
Q 1463 481 1925 481 
Q 2391 481 2648 825 
Q 2906 1169 2906 1791 
z
M 3481 434 
Q 3481 -459 3084 -895 
Q 2688 -1331 1869 -1331 
Q 1566 -1331 1297 -1286 
Q 1028 -1241 775 -1147 
L 775 -588 
Q 1028 -725 1275 -790 
Q 1522 -856 1778 -856 
Q 2344 -856 2625 -561 
Q 2906 -266 2906 331 
L 2906 616 
Q 2728 306 2450 153 
Q 2172 0 1784 0 
Q 1141 0 747 490 
Q 353 981 353 1791 
Q 353 2603 747 3093 
Q 1141 3584 1784 3584 
Q 2172 3584 2450 3431 
Q 2728 3278 2906 2969 
L 2906 3500 
L 3481 3500 
L 3481 434 
z
" transform="scale(0.015625)"/>
       <path id="DejaVuSans-6e" d="M 3513 2113 
L 3513 0 
L 2938 0 
L 2938 2094 
Q 2938 2591 2744 2837 
Q 2550 3084 2163 3084 
Q 1697 3084 1428 2787 
Q 1159 2491 1159 1978 
L 1159 0 
L 581 0 
L 581 3500 
L 1159 3500 
L 1159 2956 
Q 1366 3272 1645 3428 
Q 1925 3584 2291 3584 
Q 2894 3584 3203 3211 
Q 3513 2838 3513 2113 
z
" transform="scale(0.015625)"/>
       <path id="DejaVuSans-304" d="M -2518 4769 
L -650 4769 
L -650 4306 
L -2518 4306 
L -2518 4769 
z
" transform="scale(0.015625)"/>
      </defs>
      <use xlink:href="#DejaVuSans-4f" transform="translate(0 0.359375)"/>
      <use xlink:href="#DejaVuSans-72" transform="translate(78.710938 0.359375)"/>
      <use xlink:href="#DejaVuSans-69" transform="translate(119.824219 0.359375)"/>
      <use xlink:href="#DejaVuSans-67" transform="translate(147.607422 0.359375)"/>
      <use xlink:href="#DejaVuSans-69" transform="translate(211.083984 0.359375)"/>
      <use xlink:href="#DejaVuSans-6e" transform="translate(238.867188 0.359375)"/>
      <use xlink:href="#DejaVuSans-61" transform="translate(302.246094 0.359375)"/>
      <use xlink:href="#DejaVuSans-6c" transform="translate(363.525391 0.359375)"/>
      <use xlink:href="#DejaVuSans-20" transform="translate(391.308594 0.359375)"/>
      <use xlink:href="#DejaVuSans-56" transform="translate(423.095703 0.359375)"/>
      <use xlink:href="#DejaVuSans-61" transform="translate(491.503906 0.359375)"/>
      <use xlink:href="#DejaVuSans-6c" transform="translate(552.783203 0.359375)"/>
      <use xlink:href="#DejaVuSans-75" transform="translate(580.566406 0.359375)"/>
      <use xlink:href="#DejaVuSans-65" transform="translate(643.945312 0.359375)"/>
      <use xlink:href="#DejaVuSans-20" transform="translate(705.46875 0.359375)"/>
      <use xlink:href="#DejaVuSans-304" transform="translate(804.970215 18.484375)"/>
      <use xlink:href="#DejaVuSans-Oblique-52" transform="translate(737.255859 0.359375)"/>
      <use xlink:href="#DejaVuSans-Oblique-74" transform="translate(807.695312 38.640625) scale(0.7)"/>
      <use xlink:href="#DejaVuSans-Oblique-3c7" transform="translate(807.695312 -26.984375) scale(0.7)"/>
      <use xlink:href="#DejaVuSans-33" transform="translate(849.121094 -38.46875) scale(0.49)"/>
      <use xlink:href="#DejaVuSans-2c" transform="translate(882.210449 -26.984375) scale(0.7)"/>
      <use xlink:href="#DejaVuSans-Oblique-3c7" transform="translate(918.099121 -26.984375) scale(0.7)"/>
      <use xlink:href="#DejaVuSans-31" transform="translate(959.524902 -38.46875) scale(0.49)"/>
     </g>
    </g>
    <g id="patch_8">
     <path d="M 53.879375 54.298437 
L 73.879375 54.298437 
L 73.879375 47.298437 
L 53.879375 47.298437 
z
" style="fill: #ffb612; fill-opacity: 0.5; stroke: #ffb612; stroke-opacity: 0.5; stroke-width: 0.5; stroke-linejoin: miter"/>
    </g>
    <g id="text_19">
     <!-- One Standard Deviation -->
     <g transform="translate(81.879375 54.298437) scale(0.1 -0.1)">
      <defs>
       <path id="DejaVuSans-53" d="M 3425 4513 
L 3425 3897 
Q 3066 4069 2747 4153 
Q 2428 4238 2131 4238 
Q 1616 4238 1336 4038 
Q 1056 3838 1056 3469 
Q 1056 3159 1242 3001 
Q 1428 2844 1947 2747 
L 2328 2669 
Q 3034 2534 3370 2195 
Q 3706 1856 3706 1288 
Q 3706 609 3251 259 
Q 2797 -91 1919 -91 
Q 1588 -91 1214 -16 
Q 841 59 441 206 
L 441 856 
Q 825 641 1194 531 
Q 1563 422 1919 422 
Q 2459 422 2753 634 
Q 3047 847 3047 1241 
Q 3047 1584 2836 1778 
Q 2625 1972 2144 2069 
L 1759 2144 
Q 1053 2284 737 2584 
Q 422 2884 422 3419 
Q 422 4038 858 4394 
Q 1294 4750 2059 4750 
Q 2388 4750 2728 4690 
Q 3069 4631 3425 4513 
z
" transform="scale(0.015625)"/>
       <path id="DejaVuSans-64" d="M 2906 2969 
L 2906 4863 
L 3481 4863 
L 3481 0 
L 2906 0 
L 2906 525 
Q 2725 213 2448 61 
Q 2172 -91 1784 -91 
Q 1150 -91 751 415 
Q 353 922 353 1747 
Q 353 2572 751 3078 
Q 1150 3584 1784 3584 
Q 2172 3584 2448 3432 
Q 2725 3281 2906 2969 
z
M 947 1747 
Q 947 1113 1208 752 
Q 1469 391 1925 391 
Q 2381 391 2643 752 
Q 2906 1113 2906 1747 
Q 2906 2381 2643 2742 
Q 2381 3103 1925 3103 
Q 1469 3103 1208 2742 
Q 947 2381 947 1747 
z
" transform="scale(0.015625)"/>
       <path id="DejaVuSans-6f" d="M 1959 3097 
Q 1497 3097 1228 2736 
Q 959 2375 959 1747 
Q 959 1119 1226 758 
Q 1494 397 1959 397 
Q 2419 397 2687 759 
Q 2956 1122 2956 1747 
Q 2956 2369 2687 2733 
Q 2419 3097 1959 3097 
z
M 1959 3584 
Q 2709 3584 3137 3096 
Q 3566 2609 3566 1747 
Q 3566 888 3137 398 
Q 2709 -91 1959 -91 
Q 1206 -91 779 398 
Q 353 888 353 1747 
Q 353 2609 779 3096 
Q 1206 3584 1959 3584 
z
" transform="scale(0.015625)"/>
      </defs>
      <use xlink:href="#DejaVuSans-4f"/>
      <use xlink:href="#DejaVuSans-6e" x="78.710938"/>
      <use xlink:href="#DejaVuSans-65" x="142.089844"/>
      <use xlink:href="#DejaVuSans-20" x="203.613281"/>
      <use xlink:href="#DejaVuSans-53" x="235.400391"/>
      <use xlink:href="#DejaVuSans-74" x="298.876953"/>
      <use xlink:href="#DejaVuSans-61" x="338.085938"/>
      <use xlink:href="#DejaVuSans-6e" x="399.365234"/>
      <use xlink:href="#DejaVuSans-64" x="462.744141"/>
      <use xlink:href="#DejaVuSans-61" x="526.220703"/>
      <use xlink:href="#DejaVuSans-72" x="587.5"/>
      <use xlink:href="#DejaVuSans-64" x="626.863281"/>
      <use xlink:href="#DejaVuSans-20" x="690.339844"/>
      <use xlink:href="#DejaVuSans-44" x="722.126953"/>
      <use xlink:href="#DejaVuSans-65" x="799.128906"/>
      <use xlink:href="#DejaVuSans-76" x="860.652344"/>
      <use xlink:href="#DejaVuSans-69" x="919.832031"/>
      <use xlink:href="#DejaVuSans-61" x="947.615234"/>
      <use xlink:href="#DejaVuSans-74" x="1008.894531"/>
      <use xlink:href="#DejaVuSans-69" x="1048.103516"/>
      <use xlink:href="#DejaVuSans-6f" x="1075.886719"/>
      <use xlink:href="#DejaVuSans-6e" x="1137.068359"/>
     </g>
    </g>
   </g>
  </g>
 </g>
 <defs>
  <clipPath id="p4860adde94">
   <rect x="44.879375" y="-0" width="390.6" height="166.32"/>
  </clipPath>
 </defs>
</svg>
