<?xml version="1.0" encoding="utf-8" standalone="no"?>
<!DOCTYPE svg PUBLIC "-//W3C//DTD SVG 1.1//EN"
  "http://www.w3.org/Graphics/SVG/1.1/DTD/svg11.dtd">
<svg xmlns:xlink="http://www.w3.org/1999/xlink" width="444.375067pt" height="198.611875pt" viewBox="0 0 444.375067 198.611875" xmlns="http://www.w3.org/2000/svg" version="1.1">
 <metadata>
  <rdf:RDF xmlns:dc="http://purl.org/dc/elements/1.1/" xmlns:cc="http://creativecommons.org/ns#" xmlns:rdf="http://www.w3.org/1999/02/22-rdf-syntax-ns#">
   <cc:Work>
    <dc:type rdf:resource="http://purl.org/dc/dcmitype/StillImage"/>
    <dc:date>2024-09-18T15:47:43.170106</dc:date>
    <dc:format>image/svg+xml</dc:format>
    <dc:creator>
     <cc:Agent>
      <dc:title>Matplotlib v3.7.5, https://matplotlib.org/</dc:title>
     </cc:Agent>
    </dc:creator>
   </cc:Work>
  </rdf:RDF>
 </metadata>
 <defs>
  <style type="text/css">*{stroke-linejoin: round; stroke-linecap: butt}</style>
 </defs>
 <g id="figure_1">
  <g id="patch_1">
   <path d="M 0 198.611875 
L 444.375067 198.611875 
L 444.375067 0 
L 0 0 
z
" style="fill: #ffffff"/>
  </g>
  <g id="axes_1">
   <g id="patch_2">
    <path d="M 44.879375 166.32 
L 435.479375 166.32 
L 435.479375 0 
L 44.879375 0 
z
" style="fill: #e5e5e5"/>
   </g>
   <g id="matplotlib.axis_1">
    <g id="xtick_1">
     <g id="line2d_1">
      <path d="M 72.41989 166.32 
L 72.41989 0 
" clip-path="url(#p203aa8834d)" style="fill: none; stroke: #ffffff; stroke-width: 0.8; stroke-linecap: square"/>
     </g>
     <g id="line2d_2">
      <defs>
       <path id="m849984ba78" d="M 0 0 
L 0 3.5 
" style="stroke: #555555; stroke-width: 0.8"/>
      </defs>
      <g>
       <use xlink:href="#m849984ba78" x="72.41989" y="166.32" style="fill: #555555; stroke: #555555; stroke-width: 0.8"/>
      </g>
     </g>
     <g id="text_1">
      <!-- 08/16/20 -->
      <g style="fill: #555555" transform="translate(49.96364 180.918438) scale(0.1 -0.1)">
       <defs>
        <path id="DejaVuSans-30" d="M 2034 4250 
Q 1547 4250 1301 3770 
Q 1056 3291 1056 2328 
Q 1056 1369 1301 889 
Q 1547 409 2034 409 
Q 2525 409 2770 889 
Q 3016 1369 3016 2328 
Q 3016 3291 2770 3770 
Q 2525 4250 2034 4250 
z
M 2034 4750 
Q 2819 4750 3233 4129 
Q 3647 3509 3647 2328 
Q 3647 1150 3233 529 
Q 2819 -91 2034 -91 
Q 1250 -91 836 529 
Q 422 1150 422 2328 
Q 422 3509 836 4129 
Q 1250 4750 2034 4750 
z
" transform="scale(0.015625)"/>
        <path id="DejaVuSans-38" d="M 2034 2216 
Q 1584 2216 1326 1975 
Q 1069 1734 1069 1313 
Q 1069 891 1326 650 
Q 1584 409 2034 409 
Q 2484 409 2743 651 
Q 3003 894 3003 1313 
Q 3003 1734 2745 1975 
Q 2488 2216 2034 2216 
z
M 1403 2484 
Q 997 2584 770 2862 
Q 544 3141 544 3541 
Q 544 4100 942 4425 
Q 1341 4750 2034 4750 
Q 2731 4750 3128 4425 
Q 3525 4100 3525 3541 
Q 3525 3141 3298 2862 
Q 3072 2584 2669 2484 
Q 3125 2378 3379 2068 
Q 3634 1759 3634 1313 
Q 3634 634 3220 271 
Q 2806 -91 2034 -91 
Q 1263 -91 848 271 
Q 434 634 434 1313 
Q 434 1759 690 2068 
Q 947 2378 1403 2484 
z
M 1172 3481 
Q 1172 3119 1398 2916 
Q 1625 2713 2034 2713 
Q 2441 2713 2670 2916 
Q 2900 3119 2900 3481 
Q 2900 3844 2670 4047 
Q 2441 4250 2034 4250 
Q 1625 4250 1398 4047 
Q 1172 3844 1172 3481 
z
" transform="scale(0.015625)"/>
        <path id="DejaVuSans-2f" d="M 1625 4666 
L 2156 4666 
L 531 -594 
L 0 -594 
L 1625 4666 
z
" transform="scale(0.015625)"/>
        <path id="DejaVuSans-31" d="M 794 531 
L 1825 531 
L 1825 4091 
L 703 3866 
L 703 4441 
L 1819 4666 
L 2450 4666 
L 2450 531 
L 3481 531 
L 3481 0 
L 794 0 
L 794 531 
z
" transform="scale(0.015625)"/>
        <path id="DejaVuSans-36" d="M 2113 2584 
Q 1688 2584 1439 2293 
Q 1191 2003 1191 1497 
Q 1191 994 1439 701 
Q 1688 409 2113 409 
Q 2538 409 2786 701 
Q 3034 994 3034 1497 
Q 3034 2003 2786 2293 
Q 2538 2584 2113 2584 
z
M 3366 4563 
L 3366 3988 
Q 3128 4100 2886 4159 
Q 2644 4219 2406 4219 
Q 1781 4219 1451 3797 
Q 1122 3375 1075 2522 
Q 1259 2794 1537 2939 
Q 1816 3084 2150 3084 
Q 2853 3084 3261 2657 
Q 3669 2231 3669 1497 
Q 3669 778 3244 343 
Q 2819 -91 2113 -91 
Q 1303 -91 875 529 
Q 447 1150 447 2328 
Q 447 3434 972 4092 
Q 1497 4750 2381 4750 
Q 2619 4750 2861 4703 
Q 3103 4656 3366 4563 
z
" transform="scale(0.015625)"/>
        <path id="DejaVuSans-32" d="M 1228 531 
L 3431 531 
L 3431 0 
L 469 0 
L 469 531 
Q 828 903 1448 1529 
Q 2069 2156 2228 2338 
Q 2531 2678 2651 2914 
Q 2772 3150 2772 3378 
Q 2772 3750 2511 3984 
Q 2250 4219 1831 4219 
Q 1534 4219 1204 4116 
Q 875 4013 500 3803 
L 500 4441 
Q 881 4594 1212 4672 
Q 1544 4750 1819 4750 
Q 2544 4750 2975 4387 
Q 3406 4025 3406 3419 
Q 3406 3131 3298 2873 
Q 3191 2616 2906 2266 
Q 2828 2175 2409 1742 
Q 1991 1309 1228 531 
z
" transform="scale(0.015625)"/>
       </defs>
       <use xlink:href="#DejaVuSans-30"/>
       <use xlink:href="#DejaVuSans-38" x="63.623047"/>
       <use xlink:href="#DejaVuSans-2f" x="127.246094"/>
       <use xlink:href="#DejaVuSans-31" x="160.9375"/>
       <use xlink:href="#DejaVuSans-36" x="224.560547"/>
       <use xlink:href="#DejaVuSans-2f" x="288.183594"/>
       <use xlink:href="#DejaVuSans-32" x="321.875"/>
       <use xlink:href="#DejaVuSans-30" x="385.498047"/>
      </g>
     </g>
    </g>
    <g id="xtick_2">
     <g id="line2d_3">
      <path d="M 142.319676 166.32 
L 142.319676 0 
" clip-path="url(#p203aa8834d)" style="fill: none; stroke: #ffffff; stroke-width: 0.8; stroke-linecap: square"/>
     </g>
     <g id="line2d_4">
      <g>
       <use xlink:href="#m849984ba78" x="142.319676" y="166.32" style="fill: #555555; stroke: #555555; stroke-width: 0.8"/>
      </g>
     </g>
     <g id="text_2">
      <!-- 10/05/20 -->
      <g style="fill: #555555" transform="translate(119.863426 180.918438) scale(0.1 -0.1)">
       <defs>
        <path id="DejaVuSans-35" d="M 691 4666 
L 3169 4666 
L 3169 4134 
L 1269 4134 
L 1269 2991 
Q 1406 3038 1543 3061 
Q 1681 3084 1819 3084 
Q 2600 3084 3056 2656 
Q 3513 2228 3513 1497 
Q 3513 744 3044 326 
Q 2575 -91 1722 -91 
Q 1428 -91 1123 -41 
Q 819 9 494 109 
L 494 744 
Q 775 591 1075 516 
Q 1375 441 1709 441 
Q 2250 441 2565 725 
Q 2881 1009 2881 1497 
Q 2881 1984 2565 2268 
Q 2250 2553 1709 2553 
Q 1456 2553 1204 2497 
Q 953 2441 691 2322 
L 691 4666 
z
" transform="scale(0.015625)"/>
       </defs>
       <use xlink:href="#DejaVuSans-31"/>
       <use xlink:href="#DejaVuSans-30" x="63.623047"/>
       <use xlink:href="#DejaVuSans-2f" x="127.246094"/>
       <use xlink:href="#DejaVuSans-30" x="160.9375"/>
       <use xlink:href="#DejaVuSans-35" x="224.560547"/>
       <use xlink:href="#DejaVuSans-2f" x="288.183594"/>
       <use xlink:href="#DejaVuSans-32" x="321.875"/>
       <use xlink:href="#DejaVuSans-30" x="385.498047"/>
      </g>
     </g>
    </g>
    <g id="xtick_3">
     <g id="line2d_5">
      <path d="M 212.219461 166.32 
L 212.219461 0 
" clip-path="url(#p203aa8834d)" style="fill: none; stroke: #ffffff; stroke-width: 0.8; stroke-linecap: square"/>
     </g>
     <g id="line2d_6">
      <g>
       <use xlink:href="#m849984ba78" x="212.219461" y="166.32" style="fill: #555555; stroke: #555555; stroke-width: 0.8"/>
      </g>
     </g>
     <g id="text_3">
      <!-- 11/24/20 -->
      <g style="fill: #555555" transform="translate(189.763211 180.918438) scale(0.1 -0.1)">
       <defs>
        <path id="DejaVuSans-34" d="M 2419 4116 
L 825 1625 
L 2419 1625 
L 2419 4116 
z
M 2253 4666 
L 3047 4666 
L 3047 1625 
L 3713 1625 
L 3713 1100 
L 3047 1100 
L 3047 0 
L 2419 0 
L 2419 1100 
L 313 1100 
L 313 1709 
L 2253 4666 
z
" transform="scale(0.015625)"/>
       </defs>
       <use xlink:href="#DejaVuSans-31"/>
       <use xlink:href="#DejaVuSans-31" x="63.623047"/>
       <use xlink:href="#DejaVuSans-2f" x="127.246094"/>
       <use xlink:href="#DejaVuSans-32" x="160.9375"/>
       <use xlink:href="#DejaVuSans-34" x="224.560547"/>
       <use xlink:href="#DejaVuSans-2f" x="288.183594"/>
       <use xlink:href="#DejaVuSans-32" x="321.875"/>
       <use xlink:href="#DejaVuSans-30" x="385.498047"/>
      </g>
     </g>
    </g>
    <g id="xtick_4">
     <g id="line2d_7">
      <path d="M 282.119246 166.32 
L 282.119246 0 
" clip-path="url(#p203aa8834d)" style="fill: none; stroke: #ffffff; stroke-width: 0.8; stroke-linecap: square"/>
     </g>
     <g id="line2d_8">
      <g>
       <use xlink:href="#m849984ba78" x="282.119246" y="166.32" style="fill: #555555; stroke: #555555; stroke-width: 0.8"/>
      </g>
     </g>
     <g id="text_4">
      <!-- 01/13/21 -->
      <g style="fill: #555555" transform="translate(259.662996 180.918438) scale(0.1 -0.1)">
       <defs>
        <path id="DejaVuSans-33" d="M 2597 2516 
Q 3050 2419 3304 2112 
Q 3559 1806 3559 1356 
Q 3559 666 3084 287 
Q 2609 -91 1734 -91 
Q 1441 -91 1130 -33 
Q 819 25 488 141 
L 488 750 
Q 750 597 1062 519 
Q 1375 441 1716 441 
Q 2309 441 2620 675 
Q 2931 909 2931 1356 
Q 2931 1769 2642 2001 
Q 2353 2234 1838 2234 
L 1294 2234 
L 1294 2753 
L 1863 2753 
Q 2328 2753 2575 2939 
Q 2822 3125 2822 3475 
Q 2822 3834 2567 4026 
Q 2313 4219 1838 4219 
Q 1578 4219 1281 4162 
Q 984 4106 628 3988 
L 628 4550 
Q 988 4650 1302 4700 
Q 1616 4750 1894 4750 
Q 2613 4750 3031 4423 
Q 3450 4097 3450 3541 
Q 3450 3153 3228 2886 
Q 3006 2619 2597 2516 
z
" transform="scale(0.015625)"/>
       </defs>
       <use xlink:href="#DejaVuSans-30"/>
       <use xlink:href="#DejaVuSans-31" x="63.623047"/>
       <use xlink:href="#DejaVuSans-2f" x="127.246094"/>
       <use xlink:href="#DejaVuSans-31" x="160.9375"/>
       <use xlink:href="#DejaVuSans-33" x="224.560547"/>
       <use xlink:href="#DejaVuSans-2f" x="288.183594"/>
       <use xlink:href="#DejaVuSans-32" x="321.875"/>
       <use xlink:href="#DejaVuSans-31" x="385.498047"/>
      </g>
     </g>
    </g>
    <g id="xtick_5">
     <g id="line2d_9">
      <path d="M 352.019031 166.32 
L 352.019031 0 
" clip-path="url(#p203aa8834d)" style="fill: none; stroke: #ffffff; stroke-width: 0.8; stroke-linecap: square"/>
     </g>
     <g id="line2d_10">
      <g>
       <use xlink:href="#m849984ba78" x="352.019031" y="166.32" style="fill: #555555; stroke: #555555; stroke-width: 0.8"/>
      </g>
     </g>
     <g id="text_5">
      <!-- 03/04/21 -->
      <g style="fill: #555555" transform="translate(329.562781 180.918438) scale(0.1 -0.1)">
       <use xlink:href="#DejaVuSans-30"/>
       <use xlink:href="#DejaVuSans-33" x="63.623047"/>
       <use xlink:href="#DejaVuSans-2f" x="127.246094"/>
       <use xlink:href="#DejaVuSans-30" x="160.9375"/>
       <use xlink:href="#DejaVuSans-34" x="224.560547"/>
       <use xlink:href="#DejaVuSans-2f" x="288.183594"/>
       <use xlink:href="#DejaVuSans-32" x="321.875"/>
       <use xlink:href="#DejaVuSans-31" x="385.498047"/>
      </g>
     </g>
    </g>
    <g id="xtick_6">
     <g id="line2d_11">
      <path d="M 421.918817 166.32 
L 421.918817 0 
" clip-path="url(#p203aa8834d)" style="fill: none; stroke: #ffffff; stroke-width: 0.8; stroke-linecap: square"/>
     </g>
     <g id="line2d_12">
      <g>
       <use xlink:href="#m849984ba78" x="421.918817" y="166.32" style="fill: #555555; stroke: #555555; stroke-width: 0.8"/>
      </g>
     </g>
     <g id="text_6">
      <!-- 04/23/21 -->
      <g style="fill: #555555" transform="translate(399.462567 180.918438) scale(0.1 -0.1)">
       <use xlink:href="#DejaVuSans-30"/>
       <use xlink:href="#DejaVuSans-34" x="63.623047"/>
       <use xlink:href="#DejaVuSans-2f" x="127.246094"/>
       <use xlink:href="#DejaVuSans-32" x="160.9375"/>
       <use xlink:href="#DejaVuSans-33" x="224.560547"/>
       <use xlink:href="#DejaVuSans-2f" x="288.183594"/>
       <use xlink:href="#DejaVuSans-32" x="321.875"/>
       <use xlink:href="#DejaVuSans-31" x="385.498047"/>
      </g>
     </g>
    </g>
    <g id="text_7">
     <!-- Date -->
     <g style="fill: #555555" transform="translate(225.838438 196.11625) scale(0.12 -0.12)">
      <defs>
       <path id="DejaVuSans-44" d="M 1259 4147 
L 1259 519 
L 2022 519 
Q 2988 519 3436 956 
Q 3884 1394 3884 2338 
Q 3884 3275 3436 3711 
Q 2988 4147 2022 4147 
L 1259 4147 
z
M 628 4666 
L 1925 4666 
Q 3281 4666 3915 4102 
Q 4550 3538 4550 2338 
Q 4550 1131 3912 565 
Q 3275 0 1925 0 
L 628 0 
L 628 4666 
z
" transform="scale(0.015625)"/>
       <path id="DejaVuSans-61" d="M 2194 1759 
Q 1497 1759 1228 1600 
Q 959 1441 959 1056 
Q 959 750 1161 570 
Q 1363 391 1709 391 
Q 2188 391 2477 730 
Q 2766 1069 2766 1631 
L 2766 1759 
L 2194 1759 
z
M 3341 1997 
L 3341 0 
L 2766 0 
L 2766 531 
Q 2569 213 2275 61 
Q 1981 -91 1556 -91 
Q 1019 -91 701 211 
Q 384 513 384 1019 
Q 384 1609 779 1909 
Q 1175 2209 1959 2209 
L 2766 2209 
L 2766 2266 
Q 2766 2663 2505 2880 
Q 2244 3097 1772 3097 
Q 1472 3097 1187 3025 
Q 903 2953 641 2809 
L 641 3341 
Q 956 3463 1253 3523 
Q 1550 3584 1831 3584 
Q 2591 3584 2966 3190 
Q 3341 2797 3341 1997 
z
" transform="scale(0.015625)"/>
       <path id="DejaVuSans-74" d="M 1172 4494 
L 1172 3500 
L 2356 3500 
L 2356 3053 
L 1172 3053 
L 1172 1153 
Q 1172 725 1289 603 
Q 1406 481 1766 481 
L 2356 481 
L 2356 0 
L 1766 0 
Q 1100 0 847 248 
Q 594 497 594 1153 
L 594 3053 
L 172 3053 
L 172 3500 
L 594 3500 
L 594 4494 
L 1172 4494 
z
" transform="scale(0.015625)"/>
       <path id="DejaVuSans-65" d="M 3597 1894 
L 3597 1613 
L 953 1613 
Q 991 1019 1311 708 
Q 1631 397 2203 397 
Q 2534 397 2845 478 
Q 3156 559 3463 722 
L 3463 178 
Q 3153 47 2828 -22 
Q 2503 -91 2169 -91 
Q 1331 -91 842 396 
Q 353 884 353 1716 
Q 353 2575 817 3079 
Q 1281 3584 2069 3584 
Q 2775 3584 3186 3129 
Q 3597 2675 3597 1894 
z
M 3022 2063 
Q 3016 2534 2758 2815 
Q 2500 3097 2075 3097 
Q 1594 3097 1305 2825 
Q 1016 2553 972 2059 
L 3022 2063 
z
" transform="scale(0.015625)"/>
      </defs>
      <use xlink:href="#DejaVuSans-44"/>
      <use xlink:href="#DejaVuSans-61" x="77.001953"/>
      <use xlink:href="#DejaVuSans-74" x="138.28125"/>
      <use xlink:href="#DejaVuSans-65" x="177.490234"/>
     </g>
    </g>
   </g>
   <g id="matplotlib.axis_2">
    <g id="ytick_1">
     <g id="line2d_13">
      <path d="M 44.879375 163.150059 
L 435.479375 163.150059 
" clip-path="url(#p203aa8834d)" style="fill: none; stroke: #ffffff; stroke-width: 0.8; stroke-linecap: square"/>
     </g>
     <g id="line2d_14">
      <defs>
       <path id="m4c0c6386e9" d="M 0 0 
L -3.5 0 
" style="stroke: #555555; stroke-width: 0.8"/>
      </defs>
      <g>
       <use xlink:href="#m4c0c6386e9" x="44.879375" y="163.150059" style="fill: #555555; stroke: #555555; stroke-width: 0.8"/>
      </g>
     </g>
     <g id="text_8">
      <!-- 0.00 -->
      <g style="fill: #555555" transform="translate(15.61375 166.949277) scale(0.1 -0.1)">
       <defs>
        <path id="DejaVuSans-2e" d="M 684 794 
L 1344 794 
L 1344 0 
L 684 0 
L 684 794 
z
" transform="scale(0.015625)"/>
       </defs>
       <use xlink:href="#DejaVuSans-30"/>
       <use xlink:href="#DejaVuSans-2e" x="63.623047"/>
       <use xlink:href="#DejaVuSans-30" x="95.410156"/>
       <use xlink:href="#DejaVuSans-30" x="159.033203"/>
      </g>
     </g>
    </g>
    <g id="ytick_2">
     <g id="line2d_15">
      <path d="M 44.879375 141.228775 
L 435.479375 141.228775 
" clip-path="url(#p203aa8834d)" style="fill: none; stroke: #ffffff; stroke-width: 0.8; stroke-linecap: square"/>
     </g>
     <g id="line2d_16">
      <g>
       <use xlink:href="#m4c0c6386e9" x="44.879375" y="141.228775" style="fill: #555555; stroke: #555555; stroke-width: 0.8"/>
      </g>
     </g>
     <g id="text_9">
      <!-- 0.02 -->
      <g style="fill: #555555" transform="translate(15.61375 145.027994) scale(0.1 -0.1)">
       <use xlink:href="#DejaVuSans-30"/>
       <use xlink:href="#DejaVuSans-2e" x="63.623047"/>
       <use xlink:href="#DejaVuSans-30" x="95.410156"/>
       <use xlink:href="#DejaVuSans-32" x="159.033203"/>
      </g>
     </g>
    </g>
    <g id="ytick_3">
     <g id="line2d_17">
      <path d="M 44.879375 119.307492 
L 435.479375 119.307492 
" clip-path="url(#p203aa8834d)" style="fill: none; stroke: #ffffff; stroke-width: 0.8; stroke-linecap: square"/>
     </g>
     <g id="line2d_18">
      <g>
       <use xlink:href="#m4c0c6386e9" x="44.879375" y="119.307492" style="fill: #555555; stroke: #555555; stroke-width: 0.8"/>
      </g>
     </g>
     <g id="text_10">
      <!-- 0.04 -->
      <g style="fill: #555555" transform="translate(15.61375 123.106711) scale(0.1 -0.1)">
       <use xlink:href="#DejaVuSans-30"/>
       <use xlink:href="#DejaVuSans-2e" x="63.623047"/>
       <use xlink:href="#DejaVuSans-30" x="95.410156"/>
       <use xlink:href="#DejaVuSans-34" x="159.033203"/>
      </g>
     </g>
    </g>
    <g id="ytick_4">
     <g id="line2d_19">
      <path d="M 44.879375 97.386208 
L 435.479375 97.386208 
" clip-path="url(#p203aa8834d)" style="fill: none; stroke: #ffffff; stroke-width: 0.8; stroke-linecap: square"/>
     </g>
     <g id="line2d_20">
      <g>
       <use xlink:href="#m4c0c6386e9" x="44.879375" y="97.386208" style="fill: #555555; stroke: #555555; stroke-width: 0.8"/>
      </g>
     </g>
     <g id="text_11">
      <!-- 0.06 -->
      <g style="fill: #555555" transform="translate(15.61375 101.185427) scale(0.1 -0.1)">
       <use xlink:href="#DejaVuSans-30"/>
       <use xlink:href="#DejaVuSans-2e" x="63.623047"/>
       <use xlink:href="#DejaVuSans-30" x="95.410156"/>
       <use xlink:href="#DejaVuSans-36" x="159.033203"/>
      </g>
     </g>
    </g>
    <g id="ytick_5">
     <g id="line2d_21">
      <path d="M 44.879375 75.464925 
L 435.479375 75.464925 
" clip-path="url(#p203aa8834d)" style="fill: none; stroke: #ffffff; stroke-width: 0.8; stroke-linecap: square"/>
     </g>
     <g id="line2d_22">
      <g>
       <use xlink:href="#m4c0c6386e9" x="44.879375" y="75.464925" style="fill: #555555; stroke: #555555; stroke-width: 0.8"/>
      </g>
     </g>
     <g id="text_12">
      <!-- 0.08 -->
      <g style="fill: #555555" transform="translate(15.61375 79.264144) scale(0.1 -0.1)">
       <use xlink:href="#DejaVuSans-30"/>
       <use xlink:href="#DejaVuSans-2e" x="63.623047"/>
       <use xlink:href="#DejaVuSans-30" x="95.410156"/>
       <use xlink:href="#DejaVuSans-38" x="159.033203"/>
      </g>
     </g>
    </g>
    <g id="ytick_6">
     <g id="line2d_23">
      <path d="M 44.879375 53.543642 
L 435.479375 53.543642 
" clip-path="url(#p203aa8834d)" style="fill: none; stroke: #ffffff; stroke-width: 0.8; stroke-linecap: square"/>
     </g>
     <g id="line2d_24">
      <g>
       <use xlink:href="#m4c0c6386e9" x="44.879375" y="53.543642" style="fill: #555555; stroke: #555555; stroke-width: 0.8"/>
      </g>
     </g>
     <g id="text_13">
      <!-- 0.10 -->
      <g style="fill: #555555" transform="translate(15.61375 57.34286) scale(0.1 -0.1)">
       <use xlink:href="#DejaVuSans-30"/>
       <use xlink:href="#DejaVuSans-2e" x="63.623047"/>
       <use xlink:href="#DejaVuSans-31" x="95.410156"/>
       <use xlink:href="#DejaVuSans-30" x="159.033203"/>
      </g>
     </g>
    </g>
    <g id="ytick_7">
     <g id="line2d_25">
      <path d="M 44.879375 31.622358 
L 435.479375 31.622358 
" clip-path="url(#p203aa8834d)" style="fill: none; stroke: #ffffff; stroke-width: 0.8; stroke-linecap: square"/>
     </g>
     <g id="line2d_26">
      <g>
       <use xlink:href="#m4c0c6386e9" x="44.879375" y="31.622358" style="fill: #555555; stroke: #555555; stroke-width: 0.8"/>
      </g>
     </g>
     <g id="text_14">
      <!-- 0.12 -->
      <g style="fill: #555555" transform="translate(15.61375 35.421577) scale(0.1 -0.1)">
       <use xlink:href="#DejaVuSans-30"/>
       <use xlink:href="#DejaVuSans-2e" x="63.623047"/>
       <use xlink:href="#DejaVuSans-31" x="95.410156"/>
       <use xlink:href="#DejaVuSans-32" x="159.033203"/>
      </g>
     </g>
    </g>
    <g id="ytick_8">
     <g id="line2d_27">
      <path d="M 44.879375 9.701075 
L 435.479375 9.701075 
" clip-path="url(#p203aa8834d)" style="fill: none; stroke: #ffffff; stroke-width: 0.8; stroke-linecap: square"/>
     </g>
     <g id="line2d_28">
      <g>
       <use xlink:href="#m4c0c6386e9" x="44.879375" y="9.701075" style="fill: #555555; stroke: #555555; stroke-width: 0.8"/>
      </g>
     </g>
     <g id="text_15">
      <!-- 0.14 -->
      <g style="fill: #555555" transform="translate(15.61375 13.500294) scale(0.1 -0.1)">
       <use xlink:href="#DejaVuSans-30"/>
       <use xlink:href="#DejaVuSans-2e" x="63.623047"/>
       <use xlink:href="#DejaVuSans-31" x="95.410156"/>
       <use xlink:href="#DejaVuSans-34" x="159.033203"/>
      </g>
     </g>
    </g>
    <g id="text_16">
     <!-- Value -->
     <g style="fill: #555555" transform="translate(9.118125 99.6375) rotate(-90) scale(0.12 -0.12)">
      <defs>
       <path id="DejaVuSans-56" d="M 1831 0 
L 50 4666 
L 709 4666 
L 2188 738 
L 3669 4666 
L 4325 4666 
L 2547 0 
L 1831 0 
z
" transform="scale(0.015625)"/>
       <path id="DejaVuSans-6c" d="M 603 4863 
L 1178 4863 
L 1178 0 
L 603 0 
L 603 4863 
z
" transform="scale(0.015625)"/>
       <path id="DejaVuSans-75" d="M 544 1381 
L 544 3500 
L 1119 3500 
L 1119 1403 
Q 1119 906 1312 657 
Q 1506 409 1894 409 
Q 2359 409 2629 706 
Q 2900 1003 2900 1516 
L 2900 3500 
L 3475 3500 
L 3475 0 
L 2900 0 
L 2900 538 
Q 2691 219 2414 64 
Q 2138 -91 1772 -91 
Q 1169 -91 856 284 
Q 544 659 544 1381 
z
M 1991 3584 
L 1991 3584 
z
" transform="scale(0.015625)"/>
      </defs>
      <use xlink:href="#DejaVuSans-56"/>
      <use xlink:href="#DejaVuSans-61" x="60.658203"/>
      <use xlink:href="#DejaVuSans-6c" x="121.9375"/>
      <use xlink:href="#DejaVuSans-75" x="149.720703"/>
      <use xlink:href="#DejaVuSans-65" x="213.099609"/>
     </g>
    </g>
   </g>
   <g id="PolyCollection_1">
    <defs>
     <path id="mf5ba19427c" d="M 62.63392 -57.01072 
L 62.63392 -69.481823 
L 64.031916 -68.278318 
L 65.429912 -66.756826 
L 66.827908 -66.902946 
L 68.225903 -68.072979 
L 69.623899 -68.14 
L 71.021895 -68.697178 
L 72.41989 -68.716977 
L 73.817886 -68.250053 
L 75.215882 -69.956344 
L 76.613878 -69.590788 
L 78.011873 -70.831216 
L 79.409869 -68.632688 
L 80.807865 -69.793891 
L 82.20586 -66.515795 
L 83.603856 -68.659212 
L 85.001852 -77.313773 
L 86.399847 -75.629656 
L 87.797843 -76.353707 
L 89.195839 -76.738304 
L 90.593835 -82.043633 
L 91.99183 -85.551738 
L 93.389826 -85.430897 
L 94.787822 -94.256671 
L 96.185817 -93.911 
L 97.583813 -104.024407 
L 98.981809 -102.72892 
L 100.379804 -95.174865 
L 101.7778 -89.060655 
L 103.175796 -93.498237 
L 104.573792 -87.968962 
L 105.971787 -87.231138 
L 107.369783 -64.364064 
L 108.767779 -67.797354 
L 110.165774 -69.690883 
L 111.56377 -66.562247 
L 112.961766 -70.593464 
L 114.359762 -66.290189 
L 115.757757 -65.537381 
L 117.155753 -67.862269 
L 118.553749 -65.951831 
L 119.951744 -69.125359 
L 121.34974 -68.559036 
L 122.747736 -68.1001 
L 124.145731 -67.961108 
L 125.543727 -70.396348 
L 126.941723 -69.539503 
L 128.339719 -70.705166 
L 129.737714 -67.964584 
L 131.13571 -70.140397 
L 132.533706 -71.292884 
L 133.931701 -69.675254 
L 135.329697 -70.304403 
L 136.727693 -69.112508 
L 138.125689 -69.878896 
L 139.523684 -69.629051 
L 140.92168 -72.134727 
L 142.319676 -73.700855 
L 143.717671 -74.414091 
L 145.115667 -73.826941 
L 146.513663 -71.54029 
L 147.911658 -72.763608 
L 149.309654 -76.253762 
L 150.70765 -74.564416 
L 152.105646 -77.334002 
L 153.503641 -75.944945 
L 154.901637 -78.456001 
L 156.299633 -77.69163 
L 157.697628 -77.184349 
L 159.095624 -79.046187 
L 160.49362 -80.974639 
L 161.891616 -80.872226 
L 163.289611 -81.984169 
L 164.687607 -80.498527 
L 166.085603 -82.515436 
L 167.483598 -82.436959 
L 168.881594 -79.899821 
L 170.27959 -51.948577 
L 171.677585 -51.16218 
L 173.075581 -51.059176 
L 174.473577 -50.658645 
L 175.871573 -50.108835 
L 177.269568 -49.935908 
L 178.667564 -51.031494 
L 180.06556 -79.95067 
L 181.463555 -83.543907 
L 182.861551 -83.665138 
L 184.259547 -86.451151 
L 185.657543 -84.950103 
L 187.055538 -85.828962 
L 188.453534 -87.663607 
L 189.85153 -85.264941 
L 191.249525 -83.906918 
L 192.647521 -86.753874 
L 194.045517 -83.432923 
L 195.443512 -85.880426 
L 196.841508 -87.716715 
L 198.239504 -85.522172 
L 199.6375 -84.34869 
L 201.035495 -54.261789 
L 202.433491 -86.720374 
L 203.831487 -85.868215 
L 205.229482 -52.525005 
L 206.627478 -51.987177 
L 208.025474 -51.373254 
L 209.423469 -50.885812 
L 210.821465 -51.130783 
L 212.219461 -51.099436 
L 213.617457 -50.887391 
L 215.015452 -50.353799 
L 216.413448 -50.878397 
L 217.811444 -51.4065 
L 219.209439 -51.287661 
L 220.607435 -51.687881 
L 222.005431 -51.58169 
L 223.403427 -51.64157 
L 224.801422 -52.397398 
L 226.199418 -52.49701 
L 227.597414 -52.729413 
L 228.995409 -53.653781 
L 230.393405 -52.791616 
L 231.791401 -53.290751 
L 233.189396 -54.157045 
L 234.587392 -86.403209 
L 235.985388 -87.473584 
L 237.383384 -84.979892 
L 238.781379 -86.81722 
L 240.179375 -53.52994 
L 241.577371 -53.3095 
L 242.975366 -54.027905 
L 244.373362 -83.963021 
L 245.771358 -84.557893 
L 247.169354 -87.47569 
L 248.567349 -85.022177 
L 249.965345 -86.291796 
L 251.363341 -84.100138 
L 252.761336 -82.734238 
L 254.159332 -52.740859 
L 255.557328 -87.518282 
L 256.955323 -84.336099 
L 258.353319 -82.589025 
L 259.751315 -83.364517 
L 261.149311 -86.417191 
L 262.547306 -84.618587 
L 263.945302 -54.301583 
L 265.343298 -52.681546 
L 266.741293 -84.932568 
L 268.139289 -87.765837 
L 269.537285 -87.478259 
L 270.935281 -86.861832 
L 272.333276 -92.076167 
L 273.731272 -96.188541 
L 275.129268 -95.517 
L 276.527263 -91.98617 
L 277.925259 -96.296704 
L 279.323255 -96.58576 
L 280.72125 -100.733795 
L 282.119246 -137.719273 
L 283.517242 -187.021845 
L 284.915238 -191.051875 
L 286.313233 -137.179518 
L 287.711229 -137.395662 
L 289.109225 -133.475815 
L 290.50722 -133.416804 
L 291.905216 -103.190794 
L 293.303212 -97.892782 
L 294.701207 -98.285678 
L 296.099203 -98.34333 
L 297.497199 -97.29296 
L 298.895195 -96.360342 
L 300.29319 -93.985378 
L 301.691186 -90.175857 
L 303.089182 -90.060179 
L 304.487177 -85.422073 
L 305.885173 -86.752604 
L 307.283169 -83.864701 
L 308.681165 -82.994464 
L 310.07916 -83.744865 
L 311.477156 -51.235925 
L 312.875152 -51.699565 
L 314.273147 -51.951934 
L 315.671143 -82.138443 
L 317.069139 -52.518963 
L 318.467134 -52.41614 
L 319.86513 -52.417595 
L 321.263126 -53.606113 
L 322.661122 -80.963845 
L 324.059117 -53.708979 
L 325.457113 -83.579657 
L 326.855109 -81.742999 
L 328.253104 -81.918963 
L 329.6511 -81.498503 
L 331.049096 -104.664429 
L 332.447092 -84.974746 
L 333.845087 -85.826094 
L 335.243083 -84.618475 
L 336.641079 -84.786641 
L 338.039074 -85.887854 
L 339.43707 -103.875455 
L 340.835066 -84.352644 
L 342.233061 -84.133262 
L 343.631057 -82.070276 
L 345.029053 -83.039021 
L 346.427049 -82.73282 
L 347.825044 -53.844746 
L 349.22304 -82.764547 
L 350.621036 -80.964739 
L 352.019031 -44.228898 
L 353.417027 -44.007348 
L 354.815023 -44.010886 
L 356.213019 -44.066305 
L 357.611014 -43.78098 
L 359.00901 -43.486904 
L 360.407006 -43.075683 
L 361.805001 -43.432998 
L 363.202997 -42.85836 
L 364.600993 -42.999468 
L 365.998988 -43.109272 
L 367.396984 -42.440653 
L 368.79498 -43.147217 
L 370.192976 -43.9738 
L 371.590971 -44.976438 
L 372.988967 -44.482129 
L 374.386963 -44.72362 
L 375.784958 -44.569244 
L 377.182954 -44.526647 
L 378.58095 -44.109006 
L 379.978946 -49.425021 
L 381.376941 -49.686074 
L 382.774937 -49.806797 
L 384.172933 -50.06173 
L 385.570928 -50.024337 
L 386.968924 -55.319203 
L 388.36692 -54.479384 
L 389.764915 -88.668516 
L 391.162911 -87.538368 
L 392.560907 -89.180594 
L 393.958903 -91.068461 
L 395.356898 -90.175485 
L 396.754894 -94.417354 
L 398.15289 -95.475023 
L 399.550885 -97.36545 
L 400.948881 -100.364673 
L 402.346877 -102.186058 
L 403.744872 -103.371883 
L 405.142868 -105.651865 
L 406.540864 -105.069634 
L 407.93886 -116.022176 
L 409.336855 -112.995897 
L 410.734851 -162.474051 
L 412.132847 -168.214695 
L 413.530842 -161.064841 
L 414.928838 -113.41671 
L 416.326834 -118.083675 
L 417.72483 -117.710132 
L 417.72483 -96.627165 
L 417.72483 -96.627165 
L 416.326834 -96.345864 
L 414.928838 -92.552576 
L 413.530842 -136.029425 
L 412.132847 -142.154114 
L 410.734851 -137.39677 
L 409.336855 -89.72546 
L 407.93886 -94.891371 
L 406.540864 -81.203269 
L 405.142868 -81.882222 
L 403.744872 -82.27829 
L 402.346877 -80.926554 
L 400.948881 -78.511729 
L 399.550885 -74.719036 
L 398.15289 -71.965368 
L 396.754894 -69.922956 
L 395.356898 -67.754869 
L 393.958903 -68.977076 
L 392.560907 -65.02685 
L 391.162911 -65.196329 
L 389.764915 -64.870967 
L 388.36692 -51.391276 
L 386.968924 -51.600954 
L 385.570928 -47.043973 
L 384.172933 -46.767959 
L 382.774937 -46.57578 
L 381.376941 -46.116926 
L 379.978946 -46.487723 
L 378.58095 -41.665956 
L 377.182954 -42.044666 
L 375.784958 -41.642483 
L 374.386963 -42.123548 
L 372.988967 -41.701669 
L 371.590971 -42.273177 
L 370.192976 -41.321094 
L 368.79498 -40.627968 
L 367.396984 -39.851875 
L 365.998988 -40.703606 
L 364.600993 -40.455623 
L 363.202997 -40.352466 
L 361.805001 -40.834474 
L 360.407006 -40.586297 
L 359.00901 -40.744175 
L 357.611014 -41.11688 
L 356.213019 -41.386873 
L 354.815023 -41.411634 
L 353.417027 -41.275812 
L 352.019031 -41.779122 
L 350.621036 -60.092701 
L 349.22304 -64.205292 
L 347.825044 -49.931675 
L 346.427049 -66.423422 
L 345.029053 -65.60941 
L 343.631057 -67.53116 
L 342.233061 -68.412006 
L 340.835066 -70.491779 
L 339.43707 -89.982341 
L 338.039074 -70.987455 
L 336.641079 -71.417875 
L 335.243083 -71.398515 
L 333.845087 -71.762634 
L 332.447092 -69.628927 
L 331.049096 -88.86331 
L 329.6511 -64.329526 
L 328.253104 -63.399008 
L 326.855109 -65.141759 
L 325.457113 -63.165057 
L 324.059117 -49.434709 
L 322.661122 -60.869837 
L 321.263126 -49.747677 
L 319.86513 -48.985886 
L 318.467134 -49.221308 
L 317.069139 -48.982995 
L 315.671143 -60.49263 
L 314.273147 -48.147631 
L 312.875152 -48.320677 
L 311.477156 -47.782758 
L 310.07916 -62.219099 
L 308.681165 -61.686691 
L 307.283169 -62.777539 
L 305.885173 -64.935296 
L 304.487177 -64.824503 
L 303.089182 -68.187726 
L 301.691186 -70.708783 
L 300.29319 -75.20161 
L 298.895195 -77.695147 
L 297.497199 -79.019024 
L 296.099203 -79.194875 
L 294.701207 -78.85384 
L 293.303212 -79.889102 
L 291.905216 -85.123724 
L 290.50722 -114.438026 
L 289.109225 -109.707978 
L 287.711229 -118.859319 
L 286.313233 -117.800081 
L 284.915238 -154.922918 
L 283.517242 -152.158337 
L 282.119246 -119.052716 
L 280.72125 -81.850645 
L 279.323255 -77.853485 
L 277.925259 -76.147555 
L 276.527263 -71.395266 
L 275.129268 -74.857216 
L 273.731272 -76.538807 
L 272.333276 -73.414784 
L 270.935281 -65.748679 
L 269.537285 -65.810294 
L 268.139289 -65.416694 
L 266.741293 -62.756915 
L 265.343298 -49.22668 
L 263.945302 -50.465675 
L 262.547306 -62.635729 
L 261.149311 -62.927705 
L 259.751315 -60.07552 
L 258.353319 -62.720933 
L 256.955323 -60.555648 
L 255.557328 -63.159847 
L 254.159332 -49.103009 
L 252.761336 -60.516778 
L 251.363341 -61.52226 
L 249.965345 -63.562487 
L 248.567349 -63.048974 
L 247.169354 -62.943484 
L 245.771358 -61.975167 
L 244.373362 -61.88809 
L 242.975366 -50.571401 
L 241.577371 -49.899728 
L 240.179375 -49.879354 
L 238.781379 -62.915483 
L 237.383384 -60.687422 
L 235.985388 -63.161339 
L 234.587392 -62.612039 
L 233.189396 -50.47568 
L 231.791401 -49.661819 
L 230.393405 -49.590537 
L 228.995409 -50.076052 
L 227.597414 -49.41933 
L 226.199418 -49.160666 
L 224.801422 -49.041197 
L 223.403427 -48.214097 
L 222.005431 -48.179472 
L 220.607435 -48.275062 
L 219.209439 -48.068127 
L 217.811444 -47.979621 
L 216.413448 -47.563904 
L 215.015452 -47.097125 
L 213.617457 -47.814616 
L 212.219461 -47.828328 
L 210.821465 -47.805703 
L 209.423469 -47.727411 
L 208.025474 -48.199782 
L 206.627478 -48.609959 
L 205.229482 -49.290405 
L 203.831487 -62.856313 
L 202.433491 -63.680105 
L 201.035495 -50.616823 
L 199.6375 -63.223019 
L 198.239504 -62.237424 
L 196.841508 -63.826546 
L 195.443512 -64.34257 
L 194.045517 -59.98266 
L 192.647521 -62.410326 
L 191.249525 -63.312515 
L 189.85153 -62.364976 
L 188.453534 -63.428795 
L 187.055538 -63.205992 
L 185.657543 -62.320895 
L 184.259547 -63.414484 
L 182.861551 -61.803843 
L 181.463555 -60.934749 
L 180.06556 -58.677739 
L 178.667564 -47.622971 
L 177.269568 -46.734957 
L 175.871573 -46.934433 
L 174.473577 -47.125628 
L 173.075581 -47.925275 
L 171.677585 -47.811715 
L 170.27959 -48.408276 
L 168.881594 -59.523153 
L 167.483598 -60.869634 
L 166.085603 -61.151847 
L 164.687607 -59.880346 
L 163.289611 -62.73893 
L 161.891616 -60.198196 
L 160.49362 -60.698532 
L 159.095624 -60.246233 
L 157.697628 -60.578363 
L 156.299633 -60.416921 
L 154.901637 -62.47997 
L 153.503641 -61.122925 
L 152.105646 -61.122205 
L 150.70765 -58.772298 
L 149.309654 -59.103389 
L 147.911658 -55.219566 
L 146.513663 -54.307851 
L 145.115667 -54.979944 
L 143.717671 -54.911478 
L 142.319676 -55.825645 
L 140.92168 -55.042723 
L 139.523684 -55.193674 
L 138.125689 -57.201723 
L 136.727693 -55.432575 
L 135.329697 -54.991863 
L 133.931701 -55.420309 
L 132.533706 -55.786867 
L 131.13571 -55.042043 
L 129.737714 -55.283372 
L 128.339719 -56.710817 
L 126.941723 -55.437831 
L 125.543727 -55.2272 
L 124.145731 -55.090015 
L 122.747736 -55.387569 
L 121.34974 -56.259855 
L 119.951744 -55.044497 
L 118.553749 -53.991178 
L 117.155753 -56.201792 
L 115.757757 -56.721845 
L 114.359762 -55.878631 
L 112.961766 -58.801159 
L 111.56377 -56.01846 
L 110.165774 -58.868826 
L 108.767779 -55.278455 
L 107.369783 -55.727829 
L 105.971787 -75.826655 
L 104.573792 -75.158727 
L 103.175796 -79.571611 
L 101.7778 -75.493617 
L 100.379804 -80.131499 
L 98.981809 -87.255418 
L 97.583813 -87.637238 
L 96.185817 -79.727059 
L 94.787822 -80.883887 
L 93.389826 -73.210232 
L 91.99183 -74.794153 
L 90.593835 -71.237308 
L 89.195839 -65.02736 
L 87.797843 -63.277172 
L 86.399847 -63.269436 
L 85.001852 -64.002197 
L 83.603856 -57.475044 
L 82.20586 -55.530015 
L 80.807865 -56.851751 
L 79.409869 -56.923574 
L 78.011873 -56.813112 
L 76.613878 -56.16984 
L 75.215882 -57.007212 
L 73.817886 -55.767172 
L 72.41989 -56.354277 
L 71.021895 -56.00533 
L 69.623899 -56.297826 
L 68.225903 -57.491707 
L 66.827908 -56.511537 
L 65.429912 -55.638951 
L 64.031916 -55.744782 
L 62.63392 -57.01072 
z
" style="stroke: #ffb612; stroke-opacity: 0.5; stroke-width: 0.5"/>
    </defs>
    <g clip-path="url(#p203aa8834d)">
     <use xlink:href="#mf5ba19427c" x="0" y="198.611875" style="fill: #ffb612; fill-opacity: 0.5; stroke: #ffb612; stroke-opacity: 0.5; stroke-width: 0.5"/>
    </g>
   </g>
   <g id="line2d_29">
    <path d="M 62.63392 135.365603 
L 64.031916 136.600325 
L 65.429912 137.413987 
L 66.827908 136.904633 
L 68.225903 135.829532 
L 69.623899 136.392962 
L 72.41989 136.076248 
L 73.817886 136.603263 
L 75.215882 135.130097 
L 76.613878 135.731561 
L 78.011873 134.789711 
L 79.409869 135.833744 
L 80.807865 135.289054 
L 82.20586 137.58897 
L 83.603856 135.544747 
L 85.001852 127.95389 
L 86.399847 129.162329 
L 87.797843 128.796436 
L 89.195839 127.729043 
L 90.593835 121.971404 
L 91.99183 118.438929 
L 93.389826 119.29131 
L 94.787822 111.041596 
L 96.185817 111.792845 
L 97.583813 102.781052 
L 98.981809 103.619706 
L 100.379804 110.958693 
L 101.7778 116.334739 
L 103.175796 112.076951 
L 104.573792 117.04803 
L 105.971787 117.082978 
L 107.369783 138.565928 
L 108.767779 137.07397 
L 110.165774 134.332021 
L 111.56377 137.321522 
L 112.961766 133.914564 
L 114.359762 137.527465 
L 115.757757 137.482262 
L 117.155753 136.579844 
L 118.553749 138.64037 
L 119.951744 136.526947 
L 121.34974 136.20243 
L 122.747736 136.86804 
L 124.145731 137.086313 
L 125.543727 135.800101 
L 126.941723 136.123208 
L 128.339719 134.903884 
L 129.737714 136.987897 
L 132.533706 135.072 
L 133.931701 136.064094 
L 135.329697 135.963742 
L 136.727693 136.339333 
L 138.125689 135.071565 
L 139.523684 136.200513 
L 142.319676 133.848625 
L 143.717671 133.949091 
L 145.115667 134.208433 
L 146.513663 135.687805 
L 147.911658 134.620288 
L 149.309654 130.9333 
L 150.70765 131.943518 
L 152.105646 129.383772 
L 153.503641 130.07794 
L 154.901637 128.143889 
L 156.299633 129.5576 
L 157.697628 129.730519 
L 159.095624 128.965665 
L 160.49362 127.77529 
L 161.891616 128.076664 
L 163.289611 126.250325 
L 164.687607 128.422438 
L 166.085603 126.778234 
L 167.483598 126.958578 
L 168.881594 128.900388 
L 170.27959 148.433448 
L 171.677585 149.124928 
L 173.075581 149.11965 
L 174.473577 149.719739 
L 175.871573 150.090241 
L 177.269568 150.276442 
L 178.667564 149.284643 
L 180.06556 129.297671 
L 181.463555 126.372547 
L 182.861551 125.877384 
L 184.259547 123.679057 
L 185.657543 124.976376 
L 187.055538 124.094398 
L 188.453534 123.065674 
L 189.85153 124.796917 
L 191.249525 125.002159 
L 192.647521 124.029775 
L 194.045517 126.904084 
L 195.443512 123.500377 
L 196.841508 122.840244 
L 198.239504 124.732077 
L 199.6375 124.82602 
L 201.035495 146.172569 
L 202.433491 123.411636 
L 203.831487 124.249611 
L 205.229482 147.70417 
L 208.025474 148.825357 
L 209.423469 149.305263 
L 210.821465 149.143632 
L 213.617457 149.260872 
L 215.015452 149.886413 
L 217.811444 148.918814 
L 219.209439 148.933981 
L 220.607435 148.630403 
L 222.005431 148.731294 
L 223.403427 148.684042 
L 224.801422 147.892577 
L 226.199418 147.783037 
L 227.597414 147.537503 
L 228.995409 146.746959 
L 230.393405 147.420798 
L 231.791401 147.13559 
L 233.189396 146.295512 
L 234.587392 124.104251 
L 235.985388 123.294413 
L 237.383384 125.778218 
L 238.781379 123.745523 
L 240.179375 146.907228 
L 241.577371 147.007261 
L 242.975366 146.312222 
L 244.373362 125.68632 
L 245.771358 125.345345 
L 247.169354 123.402288 
L 248.567349 124.576299 
L 249.965345 123.684734 
L 251.363341 125.800676 
L 252.761336 126.986367 
L 254.159332 147.689941 
L 255.557328 123.272811 
L 256.955323 126.166001 
L 258.353319 125.956896 
L 259.751315 126.891856 
L 261.149311 123.939427 
L 262.547306 124.984717 
L 263.945302 146.228246 
L 265.343298 147.657762 
L 266.741293 124.767134 
L 268.139289 122.020609 
L 269.537285 121.967598 
L 270.935281 122.306619 
L 272.333276 115.866399 
L 273.731272 112.248201 
L 275.129268 113.424767 
L 276.527263 116.921157 
L 277.925259 112.389746 
L 279.323255 111.392252 
L 280.72125 107.319655 
L 282.119246 70.22588 
L 283.517242 29.021784 
L 284.915238 25.624478 
L 286.313233 71.122076 
L 287.711229 70.484384 
L 289.109225 77.019979 
L 290.50722 74.68446 
L 291.905216 104.454616 
L 293.303212 109.720933 
L 294.701207 110.042116 
L 296.099203 109.842773 
L 297.497199 110.455883 
L 298.895195 111.584131 
L 300.29319 114.018381 
L 301.691186 118.169555 
L 303.089182 119.487923 
L 304.487177 123.488587 
L 305.885173 122.767925 
L 307.283169 125.290755 
L 308.681165 126.271297 
L 310.07916 125.629893 
L 311.477156 149.102533 
L 312.875152 148.601754 
L 314.273147 148.562092 
L 315.671143 127.296339 
L 317.069139 147.860896 
L 318.467134 147.793151 
L 319.86513 147.910135 
L 321.263126 146.93498 
L 322.661122 127.695034 
L 324.059117 147.040031 
L 325.457113 125.239518 
L 326.855109 125.169496 
L 328.253104 125.95289 
L 329.6511 125.69786 
L 331.049096 101.848005 
L 332.447092 121.310039 
L 333.845087 119.817511 
L 335.243083 120.60338 
L 336.641079 120.509617 
L 338.039074 120.174221 
L 339.43707 101.682977 
L 340.835066 121.189664 
L 342.233061 122.339241 
L 343.631057 123.811157 
L 345.029053 124.28766 
L 346.427049 124.033754 
L 347.825044 146.723665 
L 349.22304 125.126955 
L 350.621036 128.083155 
L 352.019031 155.607865 
L 353.417027 155.970295 
L 356.213019 155.885286 
L 360.407006 156.780885 
L 361.805001 156.478139 
L 363.202997 157.006462 
L 365.998988 156.705436 
L 367.396984 157.465611 
L 370.192976 155.964428 
L 371.590971 154.987067 
L 372.988967 155.519976 
L 374.386963 155.188291 
L 375.784958 155.506011 
L 377.182954 155.326219 
L 378.58095 155.724394 
L 379.978946 150.655503 
L 381.376941 150.710375 
L 384.172933 150.19703 
L 385.570928 150.07772 
L 386.968924 145.151796 
L 388.36692 145.676545 
L 389.764915 121.842134 
L 391.162911 122.244527 
L 392.560907 121.508153 
L 393.958903 118.589107 
L 395.356898 119.646698 
L 396.754894 116.44172 
L 398.15289 114.891679 
L 399.550885 112.569632 
L 400.948881 109.173674 
L 402.346877 107.055569 
L 403.744872 105.786789 
L 405.142868 104.844832 
L 406.540864 105.475423 
L 407.93886 93.155101 
L 409.336855 97.251197 
L 410.734851 48.676465 
L 412.132847 43.427471 
L 413.530842 50.064742 
L 414.928838 95.627232 
L 416.326834 91.397105 
L 417.72483 91.443227 
L 417.72483 91.443227 
" clip-path="url(#p203aa8834d)" style="fill: none; stroke: #ffb612; stroke-width: 3; stroke-linecap: square"/>
    <defs>
     <path id="m600bb78920" d="M 0 1.5 
C 0.397805 1.5 0.77937 1.341951 1.06066 1.06066 
C 1.341951 0.77937 1.5 0.397805 1.5 0 
C 1.5 -0.397805 1.341951 -0.77937 1.06066 -1.06066 
C 0.77937 -1.341951 0.397805 -1.5 0 -1.5 
C -0.397805 -1.5 -0.77937 -1.341951 -1.06066 -1.06066 
C -1.341951 -0.77937 -1.5 -0.397805 -1.5 0 
C -1.5 0.397805 -1.341951 0.77937 -1.06066 1.06066 
C -0.77937 1.341951 -0.397805 1.5 0 1.5 
z
" style="stroke: #ffb612"/>
    </defs>
    <g clip-path="url(#p203aa8834d)">
     <use xlink:href="#m600bb78920" x="62.63392" y="135.365603" style="fill: #ffb612; stroke: #ffb612"/>
     <use xlink:href="#m600bb78920" x="64.031916" y="136.600325" style="fill: #ffb612; stroke: #ffb612"/>
     <use xlink:href="#m600bb78920" x="65.429912" y="137.413987" style="fill: #ffb612; stroke: #ffb612"/>
     <use xlink:href="#m600bb78920" x="66.827908" y="136.904633" style="fill: #ffb612; stroke: #ffb612"/>
     <use xlink:href="#m600bb78920" x="68.225903" y="135.829532" style="fill: #ffb612; stroke: #ffb612"/>
     <use xlink:href="#m600bb78920" x="69.623899" y="136.392962" style="fill: #ffb612; stroke: #ffb612"/>
     <use xlink:href="#m600bb78920" x="71.021895" y="136.260621" style="fill: #ffb612; stroke: #ffb612"/>
     <use xlink:href="#m600bb78920" x="72.41989" y="136.076248" style="fill: #ffb612; stroke: #ffb612"/>
     <use xlink:href="#m600bb78920" x="73.817886" y="136.603263" style="fill: #ffb612; stroke: #ffb612"/>
     <use xlink:href="#m600bb78920" x="75.215882" y="135.130097" style="fill: #ffb612; stroke: #ffb612"/>
     <use xlink:href="#m600bb78920" x="76.613878" y="135.731561" style="fill: #ffb612; stroke: #ffb612"/>
     <use xlink:href="#m600bb78920" x="78.011873" y="134.789711" style="fill: #ffb612; stroke: #ffb612"/>
     <use xlink:href="#m600bb78920" x="79.409869" y="135.833744" style="fill: #ffb612; stroke: #ffb612"/>
     <use xlink:href="#m600bb78920" x="80.807865" y="135.289054" style="fill: #ffb612; stroke: #ffb612"/>
     <use xlink:href="#m600bb78920" x="82.20586" y="137.58897" style="fill: #ffb612; stroke: #ffb612"/>
     <use xlink:href="#m600bb78920" x="83.603856" y="135.544747" style="fill: #ffb612; stroke: #ffb612"/>
     <use xlink:href="#m600bb78920" x="85.001852" y="127.95389" style="fill: #ffb612; stroke: #ffb612"/>
     <use xlink:href="#m600bb78920" x="86.399847" y="129.162329" style="fill: #ffb612; stroke: #ffb612"/>
     <use xlink:href="#m600bb78920" x="87.797843" y="128.796436" style="fill: #ffb612; stroke: #ffb612"/>
     <use xlink:href="#m600bb78920" x="89.195839" y="127.729043" style="fill: #ffb612; stroke: #ffb612"/>
     <use xlink:href="#m600bb78920" x="90.593835" y="121.971404" style="fill: #ffb612; stroke: #ffb612"/>
     <use xlink:href="#m600bb78920" x="91.99183" y="118.438929" style="fill: #ffb612; stroke: #ffb612"/>
     <use xlink:href="#m600bb78920" x="93.389826" y="119.29131" style="fill: #ffb612; stroke: #ffb612"/>
     <use xlink:href="#m600bb78920" x="94.787822" y="111.041596" style="fill: #ffb612; stroke: #ffb612"/>
     <use xlink:href="#m600bb78920" x="96.185817" y="111.792845" style="fill: #ffb612; stroke: #ffb612"/>
     <use xlink:href="#m600bb78920" x="97.583813" y="102.781052" style="fill: #ffb612; stroke: #ffb612"/>
     <use xlink:href="#m600bb78920" x="98.981809" y="103.619706" style="fill: #ffb612; stroke: #ffb612"/>
     <use xlink:href="#m600bb78920" x="100.379804" y="110.958693" style="fill: #ffb612; stroke: #ffb612"/>
     <use xlink:href="#m600bb78920" x="101.7778" y="116.334739" style="fill: #ffb612; stroke: #ffb612"/>
     <use xlink:href="#m600bb78920" x="103.175796" y="112.076951" style="fill: #ffb612; stroke: #ffb612"/>
     <use xlink:href="#m600bb78920" x="104.573792" y="117.04803" style="fill: #ffb612; stroke: #ffb612"/>
     <use xlink:href="#m600bb78920" x="105.971787" y="117.082978" style="fill: #ffb612; stroke: #ffb612"/>
     <use xlink:href="#m600bb78920" x="107.369783" y="138.565928" style="fill: #ffb612; stroke: #ffb612"/>
     <use xlink:href="#m600bb78920" x="108.767779" y="137.07397" style="fill: #ffb612; stroke: #ffb612"/>
     <use xlink:href="#m600bb78920" x="110.165774" y="134.332021" style="fill: #ffb612; stroke: #ffb612"/>
     <use xlink:href="#m600bb78920" x="111.56377" y="137.321522" style="fill: #ffb612; stroke: #ffb612"/>
     <use xlink:href="#m600bb78920" x="112.961766" y="133.914564" style="fill: #ffb612; stroke: #ffb612"/>
     <use xlink:href="#m600bb78920" x="114.359762" y="137.527465" style="fill: #ffb612; stroke: #ffb612"/>
     <use xlink:href="#m600bb78920" x="115.757757" y="137.482262" style="fill: #ffb612; stroke: #ffb612"/>
     <use xlink:href="#m600bb78920" x="117.155753" y="136.579844" style="fill: #ffb612; stroke: #ffb612"/>
     <use xlink:href="#m600bb78920" x="118.553749" y="138.64037" style="fill: #ffb612; stroke: #ffb612"/>
     <use xlink:href="#m600bb78920" x="119.951744" y="136.526947" style="fill: #ffb612; stroke: #ffb612"/>
     <use xlink:href="#m600bb78920" x="121.34974" y="136.20243" style="fill: #ffb612; stroke: #ffb612"/>
     <use xlink:href="#m600bb78920" x="122.747736" y="136.86804" style="fill: #ffb612; stroke: #ffb612"/>
     <use xlink:href="#m600bb78920" x="124.145731" y="137.086313" style="fill: #ffb612; stroke: #ffb612"/>
     <use xlink:href="#m600bb78920" x="125.543727" y="135.800101" style="fill: #ffb612; stroke: #ffb612"/>
     <use xlink:href="#m600bb78920" x="126.941723" y="136.123208" style="fill: #ffb612; stroke: #ffb612"/>
     <use xlink:href="#m600bb78920" x="128.339719" y="134.903884" style="fill: #ffb612; stroke: #ffb612"/>
     <use xlink:href="#m600bb78920" x="129.737714" y="136.987897" style="fill: #ffb612; stroke: #ffb612"/>
     <use xlink:href="#m600bb78920" x="131.13571" y="136.020655" style="fill: #ffb612; stroke: #ffb612"/>
     <use xlink:href="#m600bb78920" x="132.533706" y="135.072" style="fill: #ffb612; stroke: #ffb612"/>
     <use xlink:href="#m600bb78920" x="133.931701" y="136.064094" style="fill: #ffb612; stroke: #ffb612"/>
     <use xlink:href="#m600bb78920" x="135.329697" y="135.963742" style="fill: #ffb612; stroke: #ffb612"/>
     <use xlink:href="#m600bb78920" x="136.727693" y="136.339333" style="fill: #ffb612; stroke: #ffb612"/>
     <use xlink:href="#m600bb78920" x="138.125689" y="135.071565" style="fill: #ffb612; stroke: #ffb612"/>
     <use xlink:href="#m600bb78920" x="139.523684" y="136.200513" style="fill: #ffb612; stroke: #ffb612"/>
     <use xlink:href="#m600bb78920" x="140.92168" y="135.02315" style="fill: #ffb612; stroke: #ffb612"/>
     <use xlink:href="#m600bb78920" x="142.319676" y="133.848625" style="fill: #ffb612; stroke: #ffb612"/>
     <use xlink:href="#m600bb78920" x="143.717671" y="133.949091" style="fill: #ffb612; stroke: #ffb612"/>
     <use xlink:href="#m600bb78920" x="145.115667" y="134.208433" style="fill: #ffb612; stroke: #ffb612"/>
     <use xlink:href="#m600bb78920" x="146.513663" y="135.687805" style="fill: #ffb612; stroke: #ffb612"/>
     <use xlink:href="#m600bb78920" x="147.911658" y="134.620288" style="fill: #ffb612; stroke: #ffb612"/>
     <use xlink:href="#m600bb78920" x="149.309654" y="130.9333" style="fill: #ffb612; stroke: #ffb612"/>
     <use xlink:href="#m600bb78920" x="150.70765" y="131.943518" style="fill: #ffb612; stroke: #ffb612"/>
     <use xlink:href="#m600bb78920" x="152.105646" y="129.383772" style="fill: #ffb612; stroke: #ffb612"/>
     <use xlink:href="#m600bb78920" x="153.503641" y="130.07794" style="fill: #ffb612; stroke: #ffb612"/>
     <use xlink:href="#m600bb78920" x="154.901637" y="128.143889" style="fill: #ffb612; stroke: #ffb612"/>
     <use xlink:href="#m600bb78920" x="156.299633" y="129.5576" style="fill: #ffb612; stroke: #ffb612"/>
     <use xlink:href="#m600bb78920" x="157.697628" y="129.730519" style="fill: #ffb612; stroke: #ffb612"/>
     <use xlink:href="#m600bb78920" x="159.095624" y="128.965665" style="fill: #ffb612; stroke: #ffb612"/>
     <use xlink:href="#m600bb78920" x="160.49362" y="127.77529" style="fill: #ffb612; stroke: #ffb612"/>
     <use xlink:href="#m600bb78920" x="161.891616" y="128.076664" style="fill: #ffb612; stroke: #ffb612"/>
     <use xlink:href="#m600bb78920" x="163.289611" y="126.250325" style="fill: #ffb612; stroke: #ffb612"/>
     <use xlink:href="#m600bb78920" x="164.687607" y="128.422438" style="fill: #ffb612; stroke: #ffb612"/>
     <use xlink:href="#m600bb78920" x="166.085603" y="126.778234" style="fill: #ffb612; stroke: #ffb612"/>
     <use xlink:href="#m600bb78920" x="167.483598" y="126.958578" style="fill: #ffb612; stroke: #ffb612"/>
     <use xlink:href="#m600bb78920" x="168.881594" y="128.900388" style="fill: #ffb612; stroke: #ffb612"/>
     <use xlink:href="#m600bb78920" x="170.27959" y="148.433448" style="fill: #ffb612; stroke: #ffb612"/>
     <use xlink:href="#m600bb78920" x="171.677585" y="149.124928" style="fill: #ffb612; stroke: #ffb612"/>
     <use xlink:href="#m600bb78920" x="173.075581" y="149.11965" style="fill: #ffb612; stroke: #ffb612"/>
     <use xlink:href="#m600bb78920" x="174.473577" y="149.719739" style="fill: #ffb612; stroke: #ffb612"/>
     <use xlink:href="#m600bb78920" x="175.871573" y="150.090241" style="fill: #ffb612; stroke: #ffb612"/>
     <use xlink:href="#m600bb78920" x="177.269568" y="150.276442" style="fill: #ffb612; stroke: #ffb612"/>
     <use xlink:href="#m600bb78920" x="178.667564" y="149.284643" style="fill: #ffb612; stroke: #ffb612"/>
     <use xlink:href="#m600bb78920" x="180.06556" y="129.297671" style="fill: #ffb612; stroke: #ffb612"/>
     <use xlink:href="#m600bb78920" x="181.463555" y="126.372547" style="fill: #ffb612; stroke: #ffb612"/>
     <use xlink:href="#m600bb78920" x="182.861551" y="125.877384" style="fill: #ffb612; stroke: #ffb612"/>
     <use xlink:href="#m600bb78920" x="184.259547" y="123.679057" style="fill: #ffb612; stroke: #ffb612"/>
     <use xlink:href="#m600bb78920" x="185.657543" y="124.976376" style="fill: #ffb612; stroke: #ffb612"/>
     <use xlink:href="#m600bb78920" x="187.055538" y="124.094398" style="fill: #ffb612; stroke: #ffb612"/>
     <use xlink:href="#m600bb78920" x="188.453534" y="123.065674" style="fill: #ffb612; stroke: #ffb612"/>
     <use xlink:href="#m600bb78920" x="189.85153" y="124.796917" style="fill: #ffb612; stroke: #ffb612"/>
     <use xlink:href="#m600bb78920" x="191.249525" y="125.002159" style="fill: #ffb612; stroke: #ffb612"/>
     <use xlink:href="#m600bb78920" x="192.647521" y="124.029775" style="fill: #ffb612; stroke: #ffb612"/>
     <use xlink:href="#m600bb78920" x="194.045517" y="126.904084" style="fill: #ffb612; stroke: #ffb612"/>
     <use xlink:href="#m600bb78920" x="195.443512" y="123.500377" style="fill: #ffb612; stroke: #ffb612"/>
     <use xlink:href="#m600bb78920" x="196.841508" y="122.840244" style="fill: #ffb612; stroke: #ffb612"/>
     <use xlink:href="#m600bb78920" x="198.239504" y="124.732077" style="fill: #ffb612; stroke: #ffb612"/>
     <use xlink:href="#m600bb78920" x="199.6375" y="124.82602" style="fill: #ffb612; stroke: #ffb612"/>
     <use xlink:href="#m600bb78920" x="201.035495" y="146.172569" style="fill: #ffb612; stroke: #ffb612"/>
     <use xlink:href="#m600bb78920" x="202.433491" y="123.411636" style="fill: #ffb612; stroke: #ffb612"/>
     <use xlink:href="#m600bb78920" x="203.831487" y="124.249611" style="fill: #ffb612; stroke: #ffb612"/>
     <use xlink:href="#m600bb78920" x="205.229482" y="147.70417" style="fill: #ffb612; stroke: #ffb612"/>
     <use xlink:href="#m600bb78920" x="206.627478" y="148.313307" style="fill: #ffb612; stroke: #ffb612"/>
     <use xlink:href="#m600bb78920" x="208.025474" y="148.825357" style="fill: #ffb612; stroke: #ffb612"/>
     <use xlink:href="#m600bb78920" x="209.423469" y="149.305263" style="fill: #ffb612; stroke: #ffb612"/>
     <use xlink:href="#m600bb78920" x="210.821465" y="149.143632" style="fill: #ffb612; stroke: #ffb612"/>
     <use xlink:href="#m600bb78920" x="212.219461" y="149.147993" style="fill: #ffb612; stroke: #ffb612"/>
     <use xlink:href="#m600bb78920" x="213.617457" y="149.260872" style="fill: #ffb612; stroke: #ffb612"/>
     <use xlink:href="#m600bb78920" x="215.015452" y="149.886413" style="fill: #ffb612; stroke: #ffb612"/>
     <use xlink:href="#m600bb78920" x="216.413448" y="149.390725" style="fill: #ffb612; stroke: #ffb612"/>
     <use xlink:href="#m600bb78920" x="217.811444" y="148.918814" style="fill: #ffb612; stroke: #ffb612"/>
     <use xlink:href="#m600bb78920" x="219.209439" y="148.933981" style="fill: #ffb612; stroke: #ffb612"/>
     <use xlink:href="#m600bb78920" x="220.607435" y="148.630403" style="fill: #ffb612; stroke: #ffb612"/>
     <use xlink:href="#m600bb78920" x="222.005431" y="148.731294" style="fill: #ffb612; stroke: #ffb612"/>
     <use xlink:href="#m600bb78920" x="223.403427" y="148.684042" style="fill: #ffb612; stroke: #ffb612"/>
     <use xlink:href="#m600bb78920" x="224.801422" y="147.892577" style="fill: #ffb612; stroke: #ffb612"/>
     <use xlink:href="#m600bb78920" x="226.199418" y="147.783037" style="fill: #ffb612; stroke: #ffb612"/>
     <use xlink:href="#m600bb78920" x="227.597414" y="147.537503" style="fill: #ffb612; stroke: #ffb612"/>
     <use xlink:href="#m600bb78920" x="228.995409" y="146.746959" style="fill: #ffb612; stroke: #ffb612"/>
     <use xlink:href="#m600bb78920" x="230.393405" y="147.420798" style="fill: #ffb612; stroke: #ffb612"/>
     <use xlink:href="#m600bb78920" x="231.791401" y="147.13559" style="fill: #ffb612; stroke: #ffb612"/>
     <use xlink:href="#m600bb78920" x="233.189396" y="146.295512" style="fill: #ffb612; stroke: #ffb612"/>
     <use xlink:href="#m600bb78920" x="234.587392" y="124.104251" style="fill: #ffb612; stroke: #ffb612"/>
     <use xlink:href="#m600bb78920" x="235.985388" y="123.294413" style="fill: #ffb612; stroke: #ffb612"/>
     <use xlink:href="#m600bb78920" x="237.383384" y="125.778218" style="fill: #ffb612; stroke: #ffb612"/>
     <use xlink:href="#m600bb78920" x="238.781379" y="123.745523" style="fill: #ffb612; stroke: #ffb612"/>
     <use xlink:href="#m600bb78920" x="240.179375" y="146.907228" style="fill: #ffb612; stroke: #ffb612"/>
     <use xlink:href="#m600bb78920" x="241.577371" y="147.007261" style="fill: #ffb612; stroke: #ffb612"/>
     <use xlink:href="#m600bb78920" x="242.975366" y="146.312222" style="fill: #ffb612; stroke: #ffb612"/>
     <use xlink:href="#m600bb78920" x="244.373362" y="125.68632" style="fill: #ffb612; stroke: #ffb612"/>
     <use xlink:href="#m600bb78920" x="245.771358" y="125.345345" style="fill: #ffb612; stroke: #ffb612"/>
     <use xlink:href="#m600bb78920" x="247.169354" y="123.402288" style="fill: #ffb612; stroke: #ffb612"/>
     <use xlink:href="#m600bb78920" x="248.567349" y="124.576299" style="fill: #ffb612; stroke: #ffb612"/>
     <use xlink:href="#m600bb78920" x="249.965345" y="123.684734" style="fill: #ffb612; stroke: #ffb612"/>
     <use xlink:href="#m600bb78920" x="251.363341" y="125.800676" style="fill: #ffb612; stroke: #ffb612"/>
     <use xlink:href="#m600bb78920" x="252.761336" y="126.986367" style="fill: #ffb612; stroke: #ffb612"/>
     <use xlink:href="#m600bb78920" x="254.159332" y="147.689941" style="fill: #ffb612; stroke: #ffb612"/>
     <use xlink:href="#m600bb78920" x="255.557328" y="123.272811" style="fill: #ffb612; stroke: #ffb612"/>
     <use xlink:href="#m600bb78920" x="256.955323" y="126.166001" style="fill: #ffb612; stroke: #ffb612"/>
     <use xlink:href="#m600bb78920" x="258.353319" y="125.956896" style="fill: #ffb612; stroke: #ffb612"/>
     <use xlink:href="#m600bb78920" x="259.751315" y="126.891856" style="fill: #ffb612; stroke: #ffb612"/>
     <use xlink:href="#m600bb78920" x="261.149311" y="123.939427" style="fill: #ffb612; stroke: #ffb612"/>
     <use xlink:href="#m600bb78920" x="262.547306" y="124.984717" style="fill: #ffb612; stroke: #ffb612"/>
     <use xlink:href="#m600bb78920" x="263.945302" y="146.228246" style="fill: #ffb612; stroke: #ffb612"/>
     <use xlink:href="#m600bb78920" x="265.343298" y="147.657762" style="fill: #ffb612; stroke: #ffb612"/>
     <use xlink:href="#m600bb78920" x="266.741293" y="124.767134" style="fill: #ffb612; stroke: #ffb612"/>
     <use xlink:href="#m600bb78920" x="268.139289" y="122.020609" style="fill: #ffb612; stroke: #ffb612"/>
     <use xlink:href="#m600bb78920" x="269.537285" y="121.967598" style="fill: #ffb612; stroke: #ffb612"/>
     <use xlink:href="#m600bb78920" x="270.935281" y="122.306619" style="fill: #ffb612; stroke: #ffb612"/>
     <use xlink:href="#m600bb78920" x="272.333276" y="115.866399" style="fill: #ffb612; stroke: #ffb612"/>
     <use xlink:href="#m600bb78920" x="273.731272" y="112.248201" style="fill: #ffb612; stroke: #ffb612"/>
     <use xlink:href="#m600bb78920" x="275.129268" y="113.424767" style="fill: #ffb612; stroke: #ffb612"/>
     <use xlink:href="#m600bb78920" x="276.527263" y="116.921157" style="fill: #ffb612; stroke: #ffb612"/>
     <use xlink:href="#m600bb78920" x="277.925259" y="112.389746" style="fill: #ffb612; stroke: #ffb612"/>
     <use xlink:href="#m600bb78920" x="279.323255" y="111.392252" style="fill: #ffb612; stroke: #ffb612"/>
     <use xlink:href="#m600bb78920" x="280.72125" y="107.319655" style="fill: #ffb612; stroke: #ffb612"/>
     <use xlink:href="#m600bb78920" x="282.119246" y="70.22588" style="fill: #ffb612; stroke: #ffb612"/>
     <use xlink:href="#m600bb78920" x="283.517242" y="29.021784" style="fill: #ffb612; stroke: #ffb612"/>
     <use xlink:href="#m600bb78920" x="284.915238" y="25.624478" style="fill: #ffb612; stroke: #ffb612"/>
     <use xlink:href="#m600bb78920" x="286.313233" y="71.122076" style="fill: #ffb612; stroke: #ffb612"/>
     <use xlink:href="#m600bb78920" x="287.711229" y="70.484384" style="fill: #ffb612; stroke: #ffb612"/>
     <use xlink:href="#m600bb78920" x="289.109225" y="77.019979" style="fill: #ffb612; stroke: #ffb612"/>
     <use xlink:href="#m600bb78920" x="290.50722" y="74.68446" style="fill: #ffb612; stroke: #ffb612"/>
     <use xlink:href="#m600bb78920" x="291.905216" y="104.454616" style="fill: #ffb612; stroke: #ffb612"/>
     <use xlink:href="#m600bb78920" x="293.303212" y="109.720933" style="fill: #ffb612; stroke: #ffb612"/>
     <use xlink:href="#m600bb78920" x="294.701207" y="110.042116" style="fill: #ffb612; stroke: #ffb612"/>
     <use xlink:href="#m600bb78920" x="296.099203" y="109.842773" style="fill: #ffb612; stroke: #ffb612"/>
     <use xlink:href="#m600bb78920" x="297.497199" y="110.455883" style="fill: #ffb612; stroke: #ffb612"/>
     <use xlink:href="#m600bb78920" x="298.895195" y="111.584131" style="fill: #ffb612; stroke: #ffb612"/>
     <use xlink:href="#m600bb78920" x="300.29319" y="114.018381" style="fill: #ffb612; stroke: #ffb612"/>
     <use xlink:href="#m600bb78920" x="301.691186" y="118.169555" style="fill: #ffb612; stroke: #ffb612"/>
     <use xlink:href="#m600bb78920" x="303.089182" y="119.487923" style="fill: #ffb612; stroke: #ffb612"/>
     <use xlink:href="#m600bb78920" x="304.487177" y="123.488587" style="fill: #ffb612; stroke: #ffb612"/>
     <use xlink:href="#m600bb78920" x="305.885173" y="122.767925" style="fill: #ffb612; stroke: #ffb612"/>
     <use xlink:href="#m600bb78920" x="307.283169" y="125.290755" style="fill: #ffb612; stroke: #ffb612"/>
     <use xlink:href="#m600bb78920" x="308.681165" y="126.271297" style="fill: #ffb612; stroke: #ffb612"/>
     <use xlink:href="#m600bb78920" x="310.07916" y="125.629893" style="fill: #ffb612; stroke: #ffb612"/>
     <use xlink:href="#m600bb78920" x="311.477156" y="149.102533" style="fill: #ffb612; stroke: #ffb612"/>
     <use xlink:href="#m600bb78920" x="312.875152" y="148.601754" style="fill: #ffb612; stroke: #ffb612"/>
     <use xlink:href="#m600bb78920" x="314.273147" y="148.562092" style="fill: #ffb612; stroke: #ffb612"/>
     <use xlink:href="#m600bb78920" x="315.671143" y="127.296339" style="fill: #ffb612; stroke: #ffb612"/>
     <use xlink:href="#m600bb78920" x="317.069139" y="147.860896" style="fill: #ffb612; stroke: #ffb612"/>
     <use xlink:href="#m600bb78920" x="318.467134" y="147.793151" style="fill: #ffb612; stroke: #ffb612"/>
     <use xlink:href="#m600bb78920" x="319.86513" y="147.910135" style="fill: #ffb612; stroke: #ffb612"/>
     <use xlink:href="#m600bb78920" x="321.263126" y="146.93498" style="fill: #ffb612; stroke: #ffb612"/>
     <use xlink:href="#m600bb78920" x="322.661122" y="127.695034" style="fill: #ffb612; stroke: #ffb612"/>
     <use xlink:href="#m600bb78920" x="324.059117" y="147.040031" style="fill: #ffb612; stroke: #ffb612"/>
     <use xlink:href="#m600bb78920" x="325.457113" y="125.239518" style="fill: #ffb612; stroke: #ffb612"/>
     <use xlink:href="#m600bb78920" x="326.855109" y="125.169496" style="fill: #ffb612; stroke: #ffb612"/>
     <use xlink:href="#m600bb78920" x="328.253104" y="125.95289" style="fill: #ffb612; stroke: #ffb612"/>
     <use xlink:href="#m600bb78920" x="329.6511" y="125.69786" style="fill: #ffb612; stroke: #ffb612"/>
     <use xlink:href="#m600bb78920" x="331.049096" y="101.848005" style="fill: #ffb612; stroke: #ffb612"/>
     <use xlink:href="#m600bb78920" x="332.447092" y="121.310039" style="fill: #ffb612; stroke: #ffb612"/>
     <use xlink:href="#m600bb78920" x="333.845087" y="119.817511" style="fill: #ffb612; stroke: #ffb612"/>
     <use xlink:href="#m600bb78920" x="335.243083" y="120.60338" style="fill: #ffb612; stroke: #ffb612"/>
     <use xlink:href="#m600bb78920" x="336.641079" y="120.509617" style="fill: #ffb612; stroke: #ffb612"/>
     <use xlink:href="#m600bb78920" x="338.039074" y="120.174221" style="fill: #ffb612; stroke: #ffb612"/>
     <use xlink:href="#m600bb78920" x="339.43707" y="101.682977" style="fill: #ffb612; stroke: #ffb612"/>
     <use xlink:href="#m600bb78920" x="340.835066" y="121.189664" style="fill: #ffb612; stroke: #ffb612"/>
     <use xlink:href="#m600bb78920" x="342.233061" y="122.339241" style="fill: #ffb612; stroke: #ffb612"/>
     <use xlink:href="#m600bb78920" x="343.631057" y="123.811157" style="fill: #ffb612; stroke: #ffb612"/>
     <use xlink:href="#m600bb78920" x="345.029053" y="124.28766" style="fill: #ffb612; stroke: #ffb612"/>
     <use xlink:href="#m600bb78920" x="346.427049" y="124.033754" style="fill: #ffb612; stroke: #ffb612"/>
     <use xlink:href="#m600bb78920" x="347.825044" y="146.723665" style="fill: #ffb612; stroke: #ffb612"/>
     <use xlink:href="#m600bb78920" x="349.22304" y="125.126955" style="fill: #ffb612; stroke: #ffb612"/>
     <use xlink:href="#m600bb78920" x="350.621036" y="128.083155" style="fill: #ffb612; stroke: #ffb612"/>
     <use xlink:href="#m600bb78920" x="352.019031" y="155.607865" style="fill: #ffb612; stroke: #ffb612"/>
     <use xlink:href="#m600bb78920" x="353.417027" y="155.970295" style="fill: #ffb612; stroke: #ffb612"/>
     <use xlink:href="#m600bb78920" x="354.815023" y="155.900615" style="fill: #ffb612; stroke: #ffb612"/>
     <use xlink:href="#m600bb78920" x="356.213019" y="155.885286" style="fill: #ffb612; stroke: #ffb612"/>
     <use xlink:href="#m600bb78920" x="357.611014" y="156.162945" style="fill: #ffb612; stroke: #ffb612"/>
     <use xlink:href="#m600bb78920" x="359.00901" y="156.496336" style="fill: #ffb612; stroke: #ffb612"/>
     <use xlink:href="#m600bb78920" x="360.407006" y="156.780885" style="fill: #ffb612; stroke: #ffb612"/>
     <use xlink:href="#m600bb78920" x="361.805001" y="156.478139" style="fill: #ffb612; stroke: #ffb612"/>
     <use xlink:href="#m600bb78920" x="363.202997" y="157.006462" style="fill: #ffb612; stroke: #ffb612"/>
     <use xlink:href="#m600bb78920" x="364.600993" y="156.88433" style="fill: #ffb612; stroke: #ffb612"/>
     <use xlink:href="#m600bb78920" x="365.998988" y="156.705436" style="fill: #ffb612; stroke: #ffb612"/>
     <use xlink:href="#m600bb78920" x="367.396984" y="157.465611" style="fill: #ffb612; stroke: #ffb612"/>
     <use xlink:href="#m600bb78920" x="368.79498" y="156.724282" style="fill: #ffb612; stroke: #ffb612"/>
     <use xlink:href="#m600bb78920" x="370.192976" y="155.964428" style="fill: #ffb612; stroke: #ffb612"/>
     <use xlink:href="#m600bb78920" x="371.590971" y="154.987067" style="fill: #ffb612; stroke: #ffb612"/>
     <use xlink:href="#m600bb78920" x="372.988967" y="155.519976" style="fill: #ffb612; stroke: #ffb612"/>
     <use xlink:href="#m600bb78920" x="374.386963" y="155.188291" style="fill: #ffb612; stroke: #ffb612"/>
     <use xlink:href="#m600bb78920" x="375.784958" y="155.506011" style="fill: #ffb612; stroke: #ffb612"/>
     <use xlink:href="#m600bb78920" x="377.182954" y="155.326219" style="fill: #ffb612; stroke: #ffb612"/>
     <use xlink:href="#m600bb78920" x="378.58095" y="155.724394" style="fill: #ffb612; stroke: #ffb612"/>
     <use xlink:href="#m600bb78920" x="379.978946" y="150.655503" style="fill: #ffb612; stroke: #ffb612"/>
     <use xlink:href="#m600bb78920" x="381.376941" y="150.710375" style="fill: #ffb612; stroke: #ffb612"/>
     <use xlink:href="#m600bb78920" x="382.774937" y="150.420587" style="fill: #ffb612; stroke: #ffb612"/>
     <use xlink:href="#m600bb78920" x="384.172933" y="150.19703" style="fill: #ffb612; stroke: #ffb612"/>
     <use xlink:href="#m600bb78920" x="385.570928" y="150.07772" style="fill: #ffb612; stroke: #ffb612"/>
     <use xlink:href="#m600bb78920" x="386.968924" y="145.151796" style="fill: #ffb612; stroke: #ffb612"/>
     <use xlink:href="#m600bb78920" x="388.36692" y="145.676545" style="fill: #ffb612; stroke: #ffb612"/>
     <use xlink:href="#m600bb78920" x="389.764915" y="121.842134" style="fill: #ffb612; stroke: #ffb612"/>
     <use xlink:href="#m600bb78920" x="391.162911" y="122.244527" style="fill: #ffb612; stroke: #ffb612"/>
     <use xlink:href="#m600bb78920" x="392.560907" y="121.508153" style="fill: #ffb612; stroke: #ffb612"/>
     <use xlink:href="#m600bb78920" x="393.958903" y="118.589107" style="fill: #ffb612; stroke: #ffb612"/>
     <use xlink:href="#m600bb78920" x="395.356898" y="119.646698" style="fill: #ffb612; stroke: #ffb612"/>
     <use xlink:href="#m600bb78920" x="396.754894" y="116.44172" style="fill: #ffb612; stroke: #ffb612"/>
     <use xlink:href="#m600bb78920" x="398.15289" y="114.891679" style="fill: #ffb612; stroke: #ffb612"/>
     <use xlink:href="#m600bb78920" x="399.550885" y="112.569632" style="fill: #ffb612; stroke: #ffb612"/>
     <use xlink:href="#m600bb78920" x="400.948881" y="109.173674" style="fill: #ffb612; stroke: #ffb612"/>
     <use xlink:href="#m600bb78920" x="402.346877" y="107.055569" style="fill: #ffb612; stroke: #ffb612"/>
     <use xlink:href="#m600bb78920" x="403.744872" y="105.786789" style="fill: #ffb612; stroke: #ffb612"/>
     <use xlink:href="#m600bb78920" x="405.142868" y="104.844832" style="fill: #ffb612; stroke: #ffb612"/>
     <use xlink:href="#m600bb78920" x="406.540864" y="105.475423" style="fill: #ffb612; stroke: #ffb612"/>
     <use xlink:href="#m600bb78920" x="407.93886" y="93.155101" style="fill: #ffb612; stroke: #ffb612"/>
     <use xlink:href="#m600bb78920" x="409.336855" y="97.251197" style="fill: #ffb612; stroke: #ffb612"/>
     <use xlink:href="#m600bb78920" x="410.734851" y="48.676465" style="fill: #ffb612; stroke: #ffb612"/>
     <use xlink:href="#m600bb78920" x="412.132847" y="43.427471" style="fill: #ffb612; stroke: #ffb612"/>
     <use xlink:href="#m600bb78920" x="413.530842" y="50.064742" style="fill: #ffb612; stroke: #ffb612"/>
     <use xlink:href="#m600bb78920" x="414.928838" y="95.627232" style="fill: #ffb612; stroke: #ffb612"/>
     <use xlink:href="#m600bb78920" x="416.326834" y="91.397105" style="fill: #ffb612; stroke: #ffb612"/>
     <use xlink:href="#m600bb78920" x="417.72483" y="91.443227" style="fill: #ffb612; stroke: #ffb612"/>
    </g>
   </g>
   <g id="line2d_30">
    <path d="M 62.63392 135.716073 
L 64.031916 135.337974 
L 65.429912 131.069818 
L 66.827908 132.833167 
L 68.225903 132.286901 
L 69.623899 132.41162 
L 71.021895 135.688905 
L 72.41989 135.197522 
L 73.817886 135.779864 
L 75.215882 136.082576 
L 76.613878 138.718619 
L 78.011873 139.064677 
L 79.409869 138.139716 
L 80.807865 136.1221 
L 82.20586 131.523572 
L 83.603856 130.63484 
L 85.001852 130.337985 
L 86.399847 129.310135 
L 87.797843 130.136257 
L 89.195839 130.507581 
L 90.593835 128.383023 
L 91.99183 125.766697 
L 93.389826 126.056178 
L 94.787822 125.361436 
L 96.185817 118.67157 
L 97.583813 117.179773 
L 98.981809 114.579169 
L 100.379804 118.341306 
L 101.7778 121.326756 
L 103.175796 120.512387 
L 104.573792 122.543193 
L 105.971787 123.029903 
L 107.369783 130.244323 
L 108.767779 134.374691 
L 110.165774 132.785734 
L 111.56377 136.571402 
L 112.961766 134.521282 
L 114.359762 135.838982 
L 115.757757 131.729631 
L 117.155753 136.997311 
L 118.553749 140.45159 
L 119.951744 141.139386 
L 122.747736 141.19805 
L 124.145731 141.151971 
L 125.543727 145.974419 
L 126.941723 143.894716 
L 128.339719 144.269368 
L 129.737714 143.928895 
L 131.13571 145.74081 
L 132.533706 145.902275 
L 133.931701 145.007007 
L 135.329697 145.99954 
L 136.727693 143.946509 
L 138.125689 141.281929 
L 139.523684 142.318297 
L 140.92168 148.239344 
L 142.319676 149.27566 
L 143.717671 148.635246 
L 145.115667 145.863526 
L 146.513663 145.523712 
L 147.911658 143.371306 
L 149.309654 142.449121 
L 150.70765 140.634569 
L 152.105646 139.869731 
L 153.503641 139.771588 
L 154.901637 136.28094 
L 156.299633 139.007817 
L 157.697628 139.528098 
L 159.095624 146.519547 
L 160.49362 146.512542 
L 161.891616 144.532654 
L 163.289611 143.835299 
L 164.687607 144.879123 
L 166.085603 145.262528 
L 167.483598 145.071276 
L 168.881594 143.746939 
L 170.27959 147.459855 
L 171.677585 147.899016 
L 173.075581 147.625568 
L 174.473577 148.504748 
L 175.871573 148.942294 
L 177.269568 148.7552 
L 178.667564 145.7736 
L 180.06556 145.203676 
L 181.463555 142.799953 
L 182.861551 143.194938 
L 184.259547 142.170042 
L 185.657543 140.025317 
L 187.055538 140.075045 
L 188.453534 140.931121 
L 189.85153 140.319075 
L 191.249525 138.631765 
L 192.647521 137.767863 
L 194.045517 141.041702 
L 195.443512 138.61727 
L 196.841508 142.104297 
L 198.239504 143.529491 
L 199.6375 144.071823 
L 201.035495 144.769485 
L 202.433491 142.945684 
L 203.831487 144.403044 
L 205.229482 147.545545 
L 206.627478 148.262574 
L 209.423469 150.507625 
L 210.821465 149.742003 
L 213.617457 150.227265 
L 215.015452 152.1002 
L 216.413448 150.175846 
L 217.811444 149.329796 
L 219.209439 149.260813 
L 220.607435 148.544277 
L 222.005431 149.170634 
L 223.403427 148.871043 
L 224.801422 147.347631 
L 226.199418 146.998641 
L 227.597414 146.858464 
L 228.995409 144.498658 
L 230.393405 145.850045 
L 231.791401 145.611963 
L 233.189396 144.558554 
L 234.587392 141.262253 
L 235.985388 143.576052 
L 237.383384 143.451318 
L 238.781379 142.703341 
L 240.179375 145.684757 
L 241.577371 145.655413 
L 242.975366 144.998045 
L 244.373362 143.714674 
L 245.771358 142.726065 
L 247.169354 141.563936 
L 248.567349 141.199003 
L 249.965345 141.085191 
L 251.363341 140.72619 
L 252.761336 143.657821 
L 254.159332 144.738267 
L 255.557328 144.439069 
L 256.955323 143.927017 
L 258.353319 144.353943 
L 259.751315 141.520346 
L 261.149311 142.060665 
L 262.547306 141.578463 
L 263.945302 145.103393 
L 265.343298 145.830345 
L 266.741293 138.403287 
L 268.139289 138.436677 
L 269.537285 136.166731 
L 270.935281 136.448189 
L 272.333276 117.768778 
L 273.731272 106.794491 
L 275.129268 112.350357 
L 276.527263 116.714616 
L 277.925259 110.895064 
L 279.323255 107.943641 
L 280.72125 96.43352 
L 282.119246 68.554861 
L 283.517242 33.505438 
L 284.915238 25.44511 
L 286.313233 57.106164 
L 287.711229 68.991424 
L 289.109225 89.491337 
L 290.50722 85.538036 
L 291.905216 95.024564 
L 293.303212 102.835344 
L 294.701207 104.56938 
L 296.099203 110.390738 
L 297.497199 110.459541 
L 298.895195 113.748747 
L 300.29319 117.960543 
L 301.691186 130.767766 
L 303.089182 134.600712 
L 304.487177 135.395347 
L 305.885173 141.092216 
L 307.283169 141.958824 
L 310.07916 142.078579 
L 311.477156 146.017871 
L 312.875152 145.978125 
L 314.273147 145.397276 
L 315.671143 144.645713 
L 317.069139 144.695284 
L 318.467134 145.481567 
L 319.86513 147.18255 
L 321.263126 145.732568 
L 322.661122 144.994222 
L 324.059117 145.546146 
L 325.457113 140.815541 
L 326.855109 137.660074 
L 328.253104 137.448878 
L 329.6511 137.714067 
L 331.049096 110.154724 
L 332.447092 125.59765 
L 333.845087 120.690437 
L 335.243083 121.183286 
L 336.641079 121.219686 
L 338.039074 121.983477 
L 339.43707 113.070811 
L 340.835066 119.623983 
L 342.233061 128.512698 
L 343.631057 135.249695 
L 345.029053 134.197043 
L 346.427049 134.211707 
L 347.825044 146.672626 
L 349.22304 142.880259 
L 350.621036 145.036253 
L 352.019031 154.924556 
L 353.417027 155.420709 
L 354.815023 155.002265 
L 356.213019 155.021458 
L 357.611014 155.583233 
L 359.00901 155.763812 
L 360.407006 156.064947 
L 361.805001 155.762192 
L 363.202997 155.719771 
L 364.600993 155.545061 
L 365.998988 155.560681 
L 367.396984 156.325403 
L 368.79498 156.525094 
L 370.192976 156.50981 
L 371.590971 154.465616 
L 372.988967 154.786364 
L 374.386963 154.424345 
L 375.784958 154.43567 
L 378.58095 153.49531 
L 379.978946 152.430688 
L 381.376941 152.070991 
L 384.172933 150.494128 
L 385.570928 150.500234 
L 386.968924 144.138106 
L 388.36692 144.893193 
L 389.764915 141.32971 
L 391.162911 139.738047 
L 392.560907 134.458429 
L 393.958903 132.174953 
L 395.356898 132.200212 
L 396.754894 125.281679 
L 398.15289 121.160098 
L 399.550885 117.811708 
L 402.346877 102.274986 
L 403.744872 101.073429 
L 405.142868 101.074726 
L 406.540864 102.394579 
L 407.93886 78.135021 
L 409.336855 86.348574 
L 410.734851 61.33524 
L 412.132847 58.601498 
L 413.530842 62.453353 
L 414.928838 76.826328 
L 416.326834 77.426666 
L 417.72483 77.587352 
L 417.72483 77.587352 
" clip-path="url(#p203aa8834d)" style="fill: none; stroke-dasharray: 5.55,2.4; stroke-dashoffset: 0; stroke: #000000; stroke-width: 1.5"/>
   </g>
   <g id="patch_3">
    <path d="M 44.879375 166.32 
L 44.879375 -0 
" style="fill: none; stroke: #ffffff; stroke-linejoin: miter; stroke-linecap: square"/>
   </g>
   <g id="patch_4">
    <path d="M 435.479375 166.32 
L 435.479375 -0 
" style="fill: none; stroke: #ffffff; stroke-linejoin: miter; stroke-linecap: square"/>
   </g>
   <g id="patch_5">
    <path d="M 44.879375 166.32 
L 435.479375 166.32 
" style="fill: none; stroke: #ffffff; stroke-linejoin: miter; stroke-linecap: square"/>
   </g>
   <g id="patch_6">
    <path d="M 44.879375 0 
L 435.479375 0 
" style="fill: none; stroke: #ffffff; stroke-linejoin: miter; stroke-linecap: square"/>
   </g>
   <g id="legend_1">
    <g id="patch_7">
     <path d="M 51.879375 60.378125 
L 203.92625 60.378125 
Q 205.92625 60.378125 205.92625 58.378125 
L 205.92625 7 
Q 205.92625 5 203.92625 5 
L 51.879375 5 
Q 49.879375 5 49.879375 7 
L 49.879375 58.378125 
Q 49.879375 60.378125 51.879375 60.378125 
z
" style="fill: #e5e5e5; opacity: 0.8; stroke: #cccccc; stroke-width: 0.5; stroke-linejoin: miter"/>
    </g>
    <g id="line2d_31">
     <path d="M 53.879375 15.5 
L 63.879375 15.5 
L 73.879375 15.5 
" style="fill: none; stroke: #ffb612; stroke-width: 3; stroke-linecap: square"/>
     <g>
      <use xlink:href="#m600bb78920" x="63.879375" y="15.5" style="fill: #ffb612; stroke: #ffb612"/>
     </g>
    </g>
    <g id="text_17">
     <!-- Private Value $\tilde{R}_{\chi_3,\chi_1}^t$ -->
     <g transform="translate(81.879375 19) scale(0.1 -0.1)">
      <defs>
       <path id="DejaVuSans-50" d="M 1259 4147 
L 1259 2394 
L 2053 2394 
Q 2494 2394 2734 2622 
Q 2975 2850 2975 3272 
Q 2975 3691 2734 3919 
Q 2494 4147 2053 4147 
L 1259 4147 
z
M 628 4666 
L 2053 4666 
Q 2838 4666 3239 4311 
Q 3641 3956 3641 3272 
Q 3641 2581 3239 2228 
Q 2838 1875 2053 1875 
L 1259 1875 
L 1259 0 
L 628 0 
L 628 4666 
z
" transform="scale(0.015625)"/>
       <path id="DejaVuSans-72" d="M 2631 2963 
Q 2534 3019 2420 3045 
Q 2306 3072 2169 3072 
Q 1681 3072 1420 2755 
Q 1159 2438 1159 1844 
L 1159 0 
L 581 0 
L 581 3500 
L 1159 3500 
L 1159 2956 
Q 1341 3275 1631 3429 
Q 1922 3584 2338 3584 
Q 2397 3584 2469 3576 
Q 2541 3569 2628 3553 
L 2631 2963 
z
" transform="scale(0.015625)"/>
       <path id="DejaVuSans-69" d="M 603 3500 
L 1178 3500 
L 1178 0 
L 603 0 
L 603 3500 
z
M 603 4863 
L 1178 4863 
L 1178 4134 
L 603 4134 
L 603 4863 
z
" transform="scale(0.015625)"/>
       <path id="DejaVuSans-76" d="M 191 3500 
L 800 3500 
L 1894 563 
L 2988 3500 
L 3597 3500 
L 2284 0 
L 1503 0 
L 191 3500 
z
" transform="scale(0.015625)"/>
       <path id="DejaVuSans-20" transform="scale(0.015625)"/>
       <path id="DejaVuSans-303" d="M -1621 4281 
L -1799 4453 
Q -1867 4516 -1919 4545 
Q -1971 4575 -2011 4575 
Q -2130 4575 -2186 4461 
Q -2242 4347 -2249 4091 
L -2639 4091 
Q -2633 4513 -2473 4742 
Q -2314 4972 -2030 4972 
Q -1911 4972 -1811 4928 
Q -1711 4884 -1596 4781 
L -1417 4609 
Q -1349 4547 -1297 4517 
Q -1246 4488 -1205 4488 
Q -1086 4488 -1030 4602 
Q -974 4716 -967 4972 
L -577 4972 
Q -583 4550 -742 4320 
Q -902 4091 -1186 4091 
Q -1305 4091 -1405 4134 
Q -1505 4178 -1621 4281 
z
" transform="scale(0.015625)"/>
       <path id="DejaVuSans-Oblique-52" d="M 1613 4147 
L 1294 2491 
L 2106 2491 
Q 2584 2491 2879 2755 
Q 3175 3019 3175 3444 
Q 3175 3784 2976 3965 
Q 2778 4147 2406 4147 
L 1613 4147 
z
M 2772 2241 
Q 2972 2194 3105 2009 
Q 3238 1825 3413 1275 
L 3809 0 
L 3144 0 
L 2778 1197 
Q 2638 1659 2453 1815 
Q 2269 1972 1888 1972 
L 1191 1972 
L 806 0 
L 172 0 
L 1081 4666 
L 2503 4666 
Q 3150 4666 3495 4373 
Q 3841 4081 3841 3531 
Q 3841 3044 3547 2687 
Q 3253 2331 2772 2241 
z
" transform="scale(0.015625)"/>
       <path id="DejaVuSans-Oblique-74" d="M 2706 3500 
L 2619 3053 
L 1472 3053 
L 1100 1153 
Q 1081 1047 1072 975 
Q 1063 903 1063 863 
Q 1063 663 1183 572 
Q 1303 481 1569 481 
L 2150 481 
L 2053 0 
L 1503 0 
Q 991 0 739 200 
Q 488 400 488 806 
Q 488 878 497 964 
Q 506 1050 525 1153 
L 897 3053 
L 409 3053 
L 500 3500 
L 978 3500 
L 1172 4494 
L 1747 4494 
L 1556 3500 
L 2706 3500 
z
" transform="scale(0.015625)"/>
       <path id="DejaVuSans-Oblique-3c7" d="M 1922 -781 
L 1691 416 
L 394 -1334 
L -284 -1334 
L 1553 1141 
L 1269 2613 
Q 1194 3006 713 3006 
L 559 3006 
L 653 3500 
L 872 3494 
Q 1675 3472 1775 2950 
L 2006 1753 
L 3303 3503 
L 3981 3503 
L 2144 1028 
L 2428 -444 
Q 2503 -838 2984 -838 
L 3138 -838 
L 3044 -1331 
L 2825 -1325 
Q 2022 -1303 1922 -781 
z
" transform="scale(0.015625)"/>
       <path id="DejaVuSans-2c" d="M 750 794 
L 1409 794 
L 1409 256 
L 897 -744 
L 494 -744 
L 750 256 
L 750 794 
z
" transform="scale(0.015625)"/>
      </defs>
      <use xlink:href="#DejaVuSans-50" transform="translate(0 0.828125)"/>
      <use xlink:href="#DejaVuSans-72" transform="translate(60.302734 0.828125)"/>
      <use xlink:href="#DejaVuSans-69" transform="translate(101.416016 0.828125)"/>
      <use xlink:href="#DejaVuSans-76" transform="translate(129.199219 0.828125)"/>
      <use xlink:href="#DejaVuSans-61" transform="translate(188.378906 0.828125)"/>
      <use xlink:href="#DejaVuSans-74" transform="translate(249.658203 0.828125)"/>
      <use xlink:href="#DejaVuSans-65" transform="translate(288.867188 0.828125)"/>
      <use xlink:href="#DejaVuSans-20" transform="translate(350.390625 0.828125)"/>
      <use xlink:href="#DejaVuSans-56" transform="translate(382.177734 0.828125)"/>
      <use xlink:href="#DejaVuSans-61" transform="translate(450.585938 0.828125)"/>
      <use xlink:href="#DejaVuSans-6c" transform="translate(511.865234 0.828125)"/>
      <use xlink:href="#DejaVuSans-75" transform="translate(539.648438 0.828125)"/>
      <use xlink:href="#DejaVuSans-65" transform="translate(603.027344 0.828125)"/>
      <use xlink:href="#DejaVuSans-20" transform="translate(664.550781 0.828125)"/>
      <use xlink:href="#DejaVuSans-303" transform="translate(764.942871 22.3125)"/>
      <use xlink:href="#DejaVuSans-Oblique-52" transform="translate(696.337891 0.828125)"/>
      <use xlink:href="#DejaVuSans-Oblique-74" transform="translate(766.777344 39.109375) scale(0.7)"/>
      <use xlink:href="#DejaVuSans-Oblique-3c7" transform="translate(766.777344 -26.515625) scale(0.7)"/>
      <use xlink:href="#DejaVuSans-33" transform="translate(808.203125 -38) scale(0.49)"/>
      <use xlink:href="#DejaVuSans-2c" transform="translate(841.29248 -26.515625) scale(0.7)"/>
      <use xlink:href="#DejaVuSans-Oblique-3c7" transform="translate(877.181152 -26.515625) scale(0.7)"/>
      <use xlink:href="#DejaVuSans-31" transform="translate(918.606934 -38) scale(0.49)"/>
     </g>
    </g>
    <g id="line2d_32">
     <path d="M 53.879375 34 
L 63.879375 34 
L 73.879375 34 
" style="fill: none; stroke-dasharray: 5.55,2.4; stroke-dashoffset: 0; stroke: #000000; stroke-width: 1.5"/>
    </g>
    <g id="text_18">
     <!-- Original Value $\bar{R}_{\chi_3,\chi_1}^t$ -->
     <g transform="translate(81.879375 37.5) scale(0.1 -0.1)">
      <defs>
       <path id="DejaVuSans-4f" d="M 2522 4238 
Q 1834 4238 1429 3725 
Q 1025 3213 1025 2328 
Q 1025 1447 1429 934 
Q 1834 422 2522 422 
Q 3209 422 3611 934 
Q 4013 1447 4013 2328 
Q 4013 3213 3611 3725 
Q 3209 4238 2522 4238 
z
M 2522 4750 
Q 3503 4750 4090 4092 
Q 4678 3434 4678 2328 
Q 4678 1225 4090 567 
Q 3503 -91 2522 -91 
Q 1538 -91 948 565 
Q 359 1222 359 2328 
Q 359 3434 948 4092 
Q 1538 4750 2522 4750 
z
" transform="scale(0.015625)"/>
       <path id="DejaVuSans-67" d="M 2906 1791 
Q 2906 2416 2648 2759 
Q 2391 3103 1925 3103 
Q 1463 3103 1205 2759 
Q 947 2416 947 1791 
Q 947 1169 1205 825 
Q 1463 481 1925 481 
Q 2391 481 2648 825 
Q 2906 1169 2906 1791 
z
M 3481 434 
Q 3481 -459 3084 -895 
Q 2688 -1331 1869 -1331 
Q 1566 -1331 1297 -1286 
Q 1028 -1241 775 -1147 
L 775 -588 
Q 1028 -725 1275 -790 
Q 1522 -856 1778 -856 
Q 2344 -856 2625 -561 
Q 2906 -266 2906 331 
L 2906 616 
Q 2728 306 2450 153 
Q 2172 0 1784 0 
Q 1141 0 747 490 
Q 353 981 353 1791 
Q 353 2603 747 3093 
Q 1141 3584 1784 3584 
Q 2172 3584 2450 3431 
Q 2728 3278 2906 2969 
L 2906 3500 
L 3481 3500 
L 3481 434 
z
" transform="scale(0.015625)"/>
       <path id="DejaVuSans-6e" d="M 3513 2113 
L 3513 0 
L 2938 0 
L 2938 2094 
Q 2938 2591 2744 2837 
Q 2550 3084 2163 3084 
Q 1697 3084 1428 2787 
Q 1159 2491 1159 1978 
L 1159 0 
L 581 0 
L 581 3500 
L 1159 3500 
L 1159 2956 
Q 1366 3272 1645 3428 
Q 1925 3584 2291 3584 
Q 2894 3584 3203 3211 
Q 3513 2838 3513 2113 
z
" transform="scale(0.015625)"/>
       <path id="DejaVuSans-304" d="M -2518 4769 
L -650 4769 
L -650 4306 
L -2518 4306 
L -2518 4769 
z
" transform="scale(0.015625)"/>
      </defs>
      <use xlink:href="#DejaVuSans-4f" transform="translate(0 0.359375)"/>
      <use xlink:href="#DejaVuSans-72" transform="translate(78.710938 0.359375)"/>
      <use xlink:href="#DejaVuSans-69" transform="translate(119.824219 0.359375)"/>
      <use xlink:href="#DejaVuSans-67" transform="translate(147.607422 0.359375)"/>
      <use xlink:href="#DejaVuSans-69" transform="translate(211.083984 0.359375)"/>
      <use xlink:href="#DejaVuSans-6e" transform="translate(238.867188 0.359375)"/>
      <use xlink:href="#DejaVuSans-61" transform="translate(302.246094 0.359375)"/>
      <use xlink:href="#DejaVuSans-6c" transform="translate(363.525391 0.359375)"/>
      <use xlink:href="#DejaVuSans-20" transform="translate(391.308594 0.359375)"/>
      <use xlink:href="#DejaVuSans-56" transform="translate(423.095703 0.359375)"/>
      <use xlink:href="#DejaVuSans-61" transform="translate(491.503906 0.359375)"/>
      <use xlink:href="#DejaVuSans-6c" transform="translate(552.783203 0.359375)"/>
      <use xlink:href="#DejaVuSans-75" transform="translate(580.566406 0.359375)"/>
      <use xlink:href="#DejaVuSans-65" transform="translate(643.945312 0.359375)"/>
      <use xlink:href="#DejaVuSans-20" transform="translate(705.46875 0.359375)"/>
      <use xlink:href="#DejaVuSans-304" transform="translate(804.970215 18.484375)"/>
      <use xlink:href="#DejaVuSans-Oblique-52" transform="translate(737.255859 0.359375)"/>
      <use xlink:href="#DejaVuSans-Oblique-74" transform="translate(807.695312 38.640625) scale(0.7)"/>
      <use xlink:href="#DejaVuSans-Oblique-3c7" transform="translate(807.695312 -26.984375) scale(0.7)"/>
      <use xlink:href="#DejaVuSans-33" transform="translate(849.121094 -38.46875) scale(0.49)"/>
      <use xlink:href="#DejaVuSans-2c" transform="translate(882.210449 -26.984375) scale(0.7)"/>
      <use xlink:href="#DejaVuSans-Oblique-3c7" transform="translate(918.099121 -26.984375) scale(0.7)"/>
      <use xlink:href="#DejaVuSans-31" transform="translate(959.524902 -38.46875) scale(0.49)"/>
     </g>
    </g>
    <g id="patch_8">
     <path d="M 53.879375 54.298438 
L 73.879375 54.298438 
L 73.879375 47.298438 
L 53.879375 47.298438 
z
" style="fill: #ffb612; fill-opacity: 0.5; stroke: #ffb612; stroke-opacity: 0.5; stroke-width: 0.5; stroke-linejoin: miter"/>
    </g>
    <g id="text_19">
     <!-- One Standard Deviation -->
     <g transform="translate(81.879375 54.298438) scale(0.1 -0.1)">
      <defs>
       <path id="DejaVuSans-53" d="M 3425 4513 
L 3425 3897 
Q 3066 4069 2747 4153 
Q 2428 4238 2131 4238 
Q 1616 4238 1336 4038 
Q 1056 3838 1056 3469 
Q 1056 3159 1242 3001 
Q 1428 2844 1947 2747 
L 2328 2669 
Q 3034 2534 3370 2195 
Q 3706 1856 3706 1288 
Q 3706 609 3251 259 
Q 2797 -91 1919 -91 
Q 1588 -91 1214 -16 
Q 841 59 441 206 
L 441 856 
Q 825 641 1194 531 
Q 1563 422 1919 422 
Q 2459 422 2753 634 
Q 3047 847 3047 1241 
Q 3047 1584 2836 1778 
Q 2625 1972 2144 2069 
L 1759 2144 
Q 1053 2284 737 2584 
Q 422 2884 422 3419 
Q 422 4038 858 4394 
Q 1294 4750 2059 4750 
Q 2388 4750 2728 4690 
Q 3069 4631 3425 4513 
z
" transform="scale(0.015625)"/>
       <path id="DejaVuSans-64" d="M 2906 2969 
L 2906 4863 
L 3481 4863 
L 3481 0 
L 2906 0 
L 2906 525 
Q 2725 213 2448 61 
Q 2172 -91 1784 -91 
Q 1150 -91 751 415 
Q 353 922 353 1747 
Q 353 2572 751 3078 
Q 1150 3584 1784 3584 
Q 2172 3584 2448 3432 
Q 2725 3281 2906 2969 
z
M 947 1747 
Q 947 1113 1208 752 
Q 1469 391 1925 391 
Q 2381 391 2643 752 
Q 2906 1113 2906 1747 
Q 2906 2381 2643 2742 
Q 2381 3103 1925 3103 
Q 1469 3103 1208 2742 
Q 947 2381 947 1747 
z
" transform="scale(0.015625)"/>
       <path id="DejaVuSans-6f" d="M 1959 3097 
Q 1497 3097 1228 2736 
Q 959 2375 959 1747 
Q 959 1119 1226 758 
Q 1494 397 1959 397 
Q 2419 397 2687 759 
Q 2956 1122 2956 1747 
Q 2956 2369 2687 2733 
Q 2419 3097 1959 3097 
z
M 1959 3584 
Q 2709 3584 3137 3096 
Q 3566 2609 3566 1747 
Q 3566 888 3137 398 
Q 2709 -91 1959 -91 
Q 1206 -91 779 398 
Q 353 888 353 1747 
Q 353 2609 779 3096 
Q 1206 3584 1959 3584 
z
" transform="scale(0.015625)"/>
      </defs>
      <use xlink:href="#DejaVuSans-4f"/>
      <use xlink:href="#DejaVuSans-6e" x="78.710938"/>
      <use xlink:href="#DejaVuSans-65" x="142.089844"/>
      <use xlink:href="#DejaVuSans-20" x="203.613281"/>
      <use xlink:href="#DejaVuSans-53" x="235.400391"/>
      <use xlink:href="#DejaVuSans-74" x="298.876953"/>
      <use xlink:href="#DejaVuSans-61" x="338.085938"/>
      <use xlink:href="#DejaVuSans-6e" x="399.365234"/>
      <use xlink:href="#DejaVuSans-64" x="462.744141"/>
      <use xlink:href="#DejaVuSans-61" x="526.220703"/>
      <use xlink:href="#DejaVuSans-72" x="587.5"/>
      <use xlink:href="#DejaVuSans-64" x="626.863281"/>
      <use xlink:href="#DejaVuSans-20" x="690.339844"/>
      <use xlink:href="#DejaVuSans-44" x="722.126953"/>
      <use xlink:href="#DejaVuSans-65" x="799.128906"/>
      <use xlink:href="#DejaVuSans-76" x="860.652344"/>
      <use xlink:href="#DejaVuSans-69" x="919.832031"/>
      <use xlink:href="#DejaVuSans-61" x="947.615234"/>
      <use xlink:href="#DejaVuSans-74" x="1008.894531"/>
      <use xlink:href="#DejaVuSans-69" x="1048.103516"/>
      <use xlink:href="#DejaVuSans-6f" x="1075.886719"/>
      <use xlink:href="#DejaVuSans-6e" x="1137.068359"/>
     </g>
    </g>
   </g>
  </g>
 </g>
 <defs>
  <clipPath id="p203aa8834d">
   <rect x="44.879375" y="0" width="390.6" height="166.32"/>
  </clipPath>
 </defs>
</svg>
