<?xml version="1.0" encoding="utf-8" standalone="no"?>
<!DOCTYPE svg PUBLIC "-//W3C//DTD SVG 1.1//EN"
  "http://www.w3.org/Graphics/SVG/1.1/DTD/svg11.dtd">
<svg xmlns:xlink="http://www.w3.org/1999/xlink" width="444.375067pt" height="198.611875pt" viewBox="0 0 444.375067 198.611875" xmlns="http://www.w3.org/2000/svg" version="1.1">
 <metadata>
  <rdf:RDF xmlns:dc="http://purl.org/dc/elements/1.1/" xmlns:cc="http://creativecommons.org/ns#" xmlns:rdf="http://www.w3.org/1999/02/22-rdf-syntax-ns#">
   <cc:Work>
    <dc:type rdf:resource="http://purl.org/dc/dcmitype/StillImage"/>
    <dc:date>2024-09-18T15:47:47.268239</dc:date>
    <dc:format>image/svg+xml</dc:format>
    <dc:creator>
     <cc:Agent>
      <dc:title>Matplotlib v3.7.5, https://matplotlib.org/</dc:title>
     </cc:Agent>
    </dc:creator>
   </cc:Work>
  </rdf:RDF>
 </metadata>
 <defs>
  <style type="text/css">*{stroke-linejoin: round; stroke-linecap: butt}</style>
 </defs>
 <g id="figure_1">
  <g id="patch_1">
   <path d="M 0 198.611875 
L 444.375067 198.611875 
L 444.375067 0 
L 0 0 
z
" style="fill: #ffffff"/>
  </g>
  <g id="axes_1">
   <g id="patch_2">
    <path d="M 44.879375 166.32 
L 435.479375 166.32 
L 435.479375 0 
L 44.879375 0 
z
" style="fill: #e5e5e5"/>
   </g>
   <g id="matplotlib.axis_1">
    <g id="xtick_1">
     <g id="line2d_1">
      <path d="M 72.41989 166.32 
L 72.41989 0 
" clip-path="url(#p5f37dba902)" style="fill: none; stroke: #ffffff; stroke-width: 0.8; stroke-linecap: square"/>
     </g>
     <g id="line2d_2">
      <defs>
       <path id="m403b9518bb" d="M 0 0 
L 0 3.5 
" style="stroke: #555555; stroke-width: 0.8"/>
      </defs>
      <g>
       <use xlink:href="#m403b9518bb" x="72.41989" y="166.32" style="fill: #555555; stroke: #555555; stroke-width: 0.8"/>
      </g>
     </g>
     <g id="text_1">
      <!-- 08/16/20 -->
      <g style="fill: #555555" transform="translate(49.96364 180.918438) scale(0.1 -0.1)">
       <defs>
        <path id="DejaVuSans-30" d="M 2034 4250 
Q 1547 4250 1301 3770 
Q 1056 3291 1056 2328 
Q 1056 1369 1301 889 
Q 1547 409 2034 409 
Q 2525 409 2770 889 
Q 3016 1369 3016 2328 
Q 3016 3291 2770 3770 
Q 2525 4250 2034 4250 
z
M 2034 4750 
Q 2819 4750 3233 4129 
Q 3647 3509 3647 2328 
Q 3647 1150 3233 529 
Q 2819 -91 2034 -91 
Q 1250 -91 836 529 
Q 422 1150 422 2328 
Q 422 3509 836 4129 
Q 1250 4750 2034 4750 
z
" transform="scale(0.015625)"/>
        <path id="DejaVuSans-38" d="M 2034 2216 
Q 1584 2216 1326 1975 
Q 1069 1734 1069 1313 
Q 1069 891 1326 650 
Q 1584 409 2034 409 
Q 2484 409 2743 651 
Q 3003 894 3003 1313 
Q 3003 1734 2745 1975 
Q 2488 2216 2034 2216 
z
M 1403 2484 
Q 997 2584 770 2862 
Q 544 3141 544 3541 
Q 544 4100 942 4425 
Q 1341 4750 2034 4750 
Q 2731 4750 3128 4425 
Q 3525 4100 3525 3541 
Q 3525 3141 3298 2862 
Q 3072 2584 2669 2484 
Q 3125 2378 3379 2068 
Q 3634 1759 3634 1313 
Q 3634 634 3220 271 
Q 2806 -91 2034 -91 
Q 1263 -91 848 271 
Q 434 634 434 1313 
Q 434 1759 690 2068 
Q 947 2378 1403 2484 
z
M 1172 3481 
Q 1172 3119 1398 2916 
Q 1625 2713 2034 2713 
Q 2441 2713 2670 2916 
Q 2900 3119 2900 3481 
Q 2900 3844 2670 4047 
Q 2441 4250 2034 4250 
Q 1625 4250 1398 4047 
Q 1172 3844 1172 3481 
z
" transform="scale(0.015625)"/>
        <path id="DejaVuSans-2f" d="M 1625 4666 
L 2156 4666 
L 531 -594 
L 0 -594 
L 1625 4666 
z
" transform="scale(0.015625)"/>
        <path id="DejaVuSans-31" d="M 794 531 
L 1825 531 
L 1825 4091 
L 703 3866 
L 703 4441 
L 1819 4666 
L 2450 4666 
L 2450 531 
L 3481 531 
L 3481 0 
L 794 0 
L 794 531 
z
" transform="scale(0.015625)"/>
        <path id="DejaVuSans-36" d="M 2113 2584 
Q 1688 2584 1439 2293 
Q 1191 2003 1191 1497 
Q 1191 994 1439 701 
Q 1688 409 2113 409 
Q 2538 409 2786 701 
Q 3034 994 3034 1497 
Q 3034 2003 2786 2293 
Q 2538 2584 2113 2584 
z
M 3366 4563 
L 3366 3988 
Q 3128 4100 2886 4159 
Q 2644 4219 2406 4219 
Q 1781 4219 1451 3797 
Q 1122 3375 1075 2522 
Q 1259 2794 1537 2939 
Q 1816 3084 2150 3084 
Q 2853 3084 3261 2657 
Q 3669 2231 3669 1497 
Q 3669 778 3244 343 
Q 2819 -91 2113 -91 
Q 1303 -91 875 529 
Q 447 1150 447 2328 
Q 447 3434 972 4092 
Q 1497 4750 2381 4750 
Q 2619 4750 2861 4703 
Q 3103 4656 3366 4563 
z
" transform="scale(0.015625)"/>
        <path id="DejaVuSans-32" d="M 1228 531 
L 3431 531 
L 3431 0 
L 469 0 
L 469 531 
Q 828 903 1448 1529 
Q 2069 2156 2228 2338 
Q 2531 2678 2651 2914 
Q 2772 3150 2772 3378 
Q 2772 3750 2511 3984 
Q 2250 4219 1831 4219 
Q 1534 4219 1204 4116 
Q 875 4013 500 3803 
L 500 4441 
Q 881 4594 1212 4672 
Q 1544 4750 1819 4750 
Q 2544 4750 2975 4387 
Q 3406 4025 3406 3419 
Q 3406 3131 3298 2873 
Q 3191 2616 2906 2266 
Q 2828 2175 2409 1742 
Q 1991 1309 1228 531 
z
" transform="scale(0.015625)"/>
       </defs>
       <use xlink:href="#DejaVuSans-30"/>
       <use xlink:href="#DejaVuSans-38" x="63.623047"/>
       <use xlink:href="#DejaVuSans-2f" x="127.246094"/>
       <use xlink:href="#DejaVuSans-31" x="160.9375"/>
       <use xlink:href="#DejaVuSans-36" x="224.560547"/>
       <use xlink:href="#DejaVuSans-2f" x="288.183594"/>
       <use xlink:href="#DejaVuSans-32" x="321.875"/>
       <use xlink:href="#DejaVuSans-30" x="385.498047"/>
      </g>
     </g>
    </g>
    <g id="xtick_2">
     <g id="line2d_3">
      <path d="M 142.319676 166.32 
L 142.319676 0 
" clip-path="url(#p5f37dba902)" style="fill: none; stroke: #ffffff; stroke-width: 0.8; stroke-linecap: square"/>
     </g>
     <g id="line2d_4">
      <g>
       <use xlink:href="#m403b9518bb" x="142.319676" y="166.32" style="fill: #555555; stroke: #555555; stroke-width: 0.8"/>
      </g>
     </g>
     <g id="text_2">
      <!-- 10/05/20 -->
      <g style="fill: #555555" transform="translate(119.863426 180.918438) scale(0.1 -0.1)">
       <defs>
        <path id="DejaVuSans-35" d="M 691 4666 
L 3169 4666 
L 3169 4134 
L 1269 4134 
L 1269 2991 
Q 1406 3038 1543 3061 
Q 1681 3084 1819 3084 
Q 2600 3084 3056 2656 
Q 3513 2228 3513 1497 
Q 3513 744 3044 326 
Q 2575 -91 1722 -91 
Q 1428 -91 1123 -41 
Q 819 9 494 109 
L 494 744 
Q 775 591 1075 516 
Q 1375 441 1709 441 
Q 2250 441 2565 725 
Q 2881 1009 2881 1497 
Q 2881 1984 2565 2268 
Q 2250 2553 1709 2553 
Q 1456 2553 1204 2497 
Q 953 2441 691 2322 
L 691 4666 
z
" transform="scale(0.015625)"/>
       </defs>
       <use xlink:href="#DejaVuSans-31"/>
       <use xlink:href="#DejaVuSans-30" x="63.623047"/>
       <use xlink:href="#DejaVuSans-2f" x="127.246094"/>
       <use xlink:href="#DejaVuSans-30" x="160.9375"/>
       <use xlink:href="#DejaVuSans-35" x="224.560547"/>
       <use xlink:href="#DejaVuSans-2f" x="288.183594"/>
       <use xlink:href="#DejaVuSans-32" x="321.875"/>
       <use xlink:href="#DejaVuSans-30" x="385.498047"/>
      </g>
     </g>
    </g>
    <g id="xtick_3">
     <g id="line2d_5">
      <path d="M 212.219461 166.32 
L 212.219461 0 
" clip-path="url(#p5f37dba902)" style="fill: none; stroke: #ffffff; stroke-width: 0.8; stroke-linecap: square"/>
     </g>
     <g id="line2d_6">
      <g>
       <use xlink:href="#m403b9518bb" x="212.219461" y="166.32" style="fill: #555555; stroke: #555555; stroke-width: 0.8"/>
      </g>
     </g>
     <g id="text_3">
      <!-- 11/24/20 -->
      <g style="fill: #555555" transform="translate(189.763211 180.918438) scale(0.1 -0.1)">
       <defs>
        <path id="DejaVuSans-34" d="M 2419 4116 
L 825 1625 
L 2419 1625 
L 2419 4116 
z
M 2253 4666 
L 3047 4666 
L 3047 1625 
L 3713 1625 
L 3713 1100 
L 3047 1100 
L 3047 0 
L 2419 0 
L 2419 1100 
L 313 1100 
L 313 1709 
L 2253 4666 
z
" transform="scale(0.015625)"/>
       </defs>
       <use xlink:href="#DejaVuSans-31"/>
       <use xlink:href="#DejaVuSans-31" x="63.623047"/>
       <use xlink:href="#DejaVuSans-2f" x="127.246094"/>
       <use xlink:href="#DejaVuSans-32" x="160.9375"/>
       <use xlink:href="#DejaVuSans-34" x="224.560547"/>
       <use xlink:href="#DejaVuSans-2f" x="288.183594"/>
       <use xlink:href="#DejaVuSans-32" x="321.875"/>
       <use xlink:href="#DejaVuSans-30" x="385.498047"/>
      </g>
     </g>
    </g>
    <g id="xtick_4">
     <g id="line2d_7">
      <path d="M 282.119246 166.32 
L 282.119246 0 
" clip-path="url(#p5f37dba902)" style="fill: none; stroke: #ffffff; stroke-width: 0.8; stroke-linecap: square"/>
     </g>
     <g id="line2d_8">
      <g>
       <use xlink:href="#m403b9518bb" x="282.119246" y="166.32" style="fill: #555555; stroke: #555555; stroke-width: 0.8"/>
      </g>
     </g>
     <g id="text_4">
      <!-- 01/13/21 -->
      <g style="fill: #555555" transform="translate(259.662996 180.918438) scale(0.1 -0.1)">
       <defs>
        <path id="DejaVuSans-33" d="M 2597 2516 
Q 3050 2419 3304 2112 
Q 3559 1806 3559 1356 
Q 3559 666 3084 287 
Q 2609 -91 1734 -91 
Q 1441 -91 1130 -33 
Q 819 25 488 141 
L 488 750 
Q 750 597 1062 519 
Q 1375 441 1716 441 
Q 2309 441 2620 675 
Q 2931 909 2931 1356 
Q 2931 1769 2642 2001 
Q 2353 2234 1838 2234 
L 1294 2234 
L 1294 2753 
L 1863 2753 
Q 2328 2753 2575 2939 
Q 2822 3125 2822 3475 
Q 2822 3834 2567 4026 
Q 2313 4219 1838 4219 
Q 1578 4219 1281 4162 
Q 984 4106 628 3988 
L 628 4550 
Q 988 4650 1302 4700 
Q 1616 4750 1894 4750 
Q 2613 4750 3031 4423 
Q 3450 4097 3450 3541 
Q 3450 3153 3228 2886 
Q 3006 2619 2597 2516 
z
" transform="scale(0.015625)"/>
       </defs>
       <use xlink:href="#DejaVuSans-30"/>
       <use xlink:href="#DejaVuSans-31" x="63.623047"/>
       <use xlink:href="#DejaVuSans-2f" x="127.246094"/>
       <use xlink:href="#DejaVuSans-31" x="160.9375"/>
       <use xlink:href="#DejaVuSans-33" x="224.560547"/>
       <use xlink:href="#DejaVuSans-2f" x="288.183594"/>
       <use xlink:href="#DejaVuSans-32" x="321.875"/>
       <use xlink:href="#DejaVuSans-31" x="385.498047"/>
      </g>
     </g>
    </g>
    <g id="xtick_5">
     <g id="line2d_9">
      <path d="M 352.019031 166.32 
L 352.019031 0 
" clip-path="url(#p5f37dba902)" style="fill: none; stroke: #ffffff; stroke-width: 0.8; stroke-linecap: square"/>
     </g>
     <g id="line2d_10">
      <g>
       <use xlink:href="#m403b9518bb" x="352.019031" y="166.32" style="fill: #555555; stroke: #555555; stroke-width: 0.8"/>
      </g>
     </g>
     <g id="text_5">
      <!-- 03/04/21 -->
      <g style="fill: #555555" transform="translate(329.562781 180.918438) scale(0.1 -0.1)">
       <use xlink:href="#DejaVuSans-30"/>
       <use xlink:href="#DejaVuSans-33" x="63.623047"/>
       <use xlink:href="#DejaVuSans-2f" x="127.246094"/>
       <use xlink:href="#DejaVuSans-30" x="160.9375"/>
       <use xlink:href="#DejaVuSans-34" x="224.560547"/>
       <use xlink:href="#DejaVuSans-2f" x="288.183594"/>
       <use xlink:href="#DejaVuSans-32" x="321.875"/>
       <use xlink:href="#DejaVuSans-31" x="385.498047"/>
      </g>
     </g>
    </g>
    <g id="xtick_6">
     <g id="line2d_11">
      <path d="M 421.918817 166.32 
L 421.918817 0 
" clip-path="url(#p5f37dba902)" style="fill: none; stroke: #ffffff; stroke-width: 0.8; stroke-linecap: square"/>
     </g>
     <g id="line2d_12">
      <g>
       <use xlink:href="#m403b9518bb" x="421.918817" y="166.32" style="fill: #555555; stroke: #555555; stroke-width: 0.8"/>
      </g>
     </g>
     <g id="text_6">
      <!-- 04/23/21 -->
      <g style="fill: #555555" transform="translate(399.462567 180.918438) scale(0.1 -0.1)">
       <use xlink:href="#DejaVuSans-30"/>
       <use xlink:href="#DejaVuSans-34" x="63.623047"/>
       <use xlink:href="#DejaVuSans-2f" x="127.246094"/>
       <use xlink:href="#DejaVuSans-32" x="160.9375"/>
       <use xlink:href="#DejaVuSans-33" x="224.560547"/>
       <use xlink:href="#DejaVuSans-2f" x="288.183594"/>
       <use xlink:href="#DejaVuSans-32" x="321.875"/>
       <use xlink:href="#DejaVuSans-31" x="385.498047"/>
      </g>
     </g>
    </g>
    <g id="text_7">
     <!-- Date -->
     <g style="fill: #555555" transform="translate(225.838438 196.11625) scale(0.12 -0.12)">
      <defs>
       <path id="DejaVuSans-44" d="M 1259 4147 
L 1259 519 
L 2022 519 
Q 2988 519 3436 956 
Q 3884 1394 3884 2338 
Q 3884 3275 3436 3711 
Q 2988 4147 2022 4147 
L 1259 4147 
z
M 628 4666 
L 1925 4666 
Q 3281 4666 3915 4102 
Q 4550 3538 4550 2338 
Q 4550 1131 3912 565 
Q 3275 0 1925 0 
L 628 0 
L 628 4666 
z
" transform="scale(0.015625)"/>
       <path id="DejaVuSans-61" d="M 2194 1759 
Q 1497 1759 1228 1600 
Q 959 1441 959 1056 
Q 959 750 1161 570 
Q 1363 391 1709 391 
Q 2188 391 2477 730 
Q 2766 1069 2766 1631 
L 2766 1759 
L 2194 1759 
z
M 3341 1997 
L 3341 0 
L 2766 0 
L 2766 531 
Q 2569 213 2275 61 
Q 1981 -91 1556 -91 
Q 1019 -91 701 211 
Q 384 513 384 1019 
Q 384 1609 779 1909 
Q 1175 2209 1959 2209 
L 2766 2209 
L 2766 2266 
Q 2766 2663 2505 2880 
Q 2244 3097 1772 3097 
Q 1472 3097 1187 3025 
Q 903 2953 641 2809 
L 641 3341 
Q 956 3463 1253 3523 
Q 1550 3584 1831 3584 
Q 2591 3584 2966 3190 
Q 3341 2797 3341 1997 
z
" transform="scale(0.015625)"/>
       <path id="DejaVuSans-74" d="M 1172 4494 
L 1172 3500 
L 2356 3500 
L 2356 3053 
L 1172 3053 
L 1172 1153 
Q 1172 725 1289 603 
Q 1406 481 1766 481 
L 2356 481 
L 2356 0 
L 1766 0 
Q 1100 0 847 248 
Q 594 497 594 1153 
L 594 3053 
L 172 3053 
L 172 3500 
L 594 3500 
L 594 4494 
L 1172 4494 
z
" transform="scale(0.015625)"/>
       <path id="DejaVuSans-65" d="M 3597 1894 
L 3597 1613 
L 953 1613 
Q 991 1019 1311 708 
Q 1631 397 2203 397 
Q 2534 397 2845 478 
Q 3156 559 3463 722 
L 3463 178 
Q 3153 47 2828 -22 
Q 2503 -91 2169 -91 
Q 1331 -91 842 396 
Q 353 884 353 1716 
Q 353 2575 817 3079 
Q 1281 3584 2069 3584 
Q 2775 3584 3186 3129 
Q 3597 2675 3597 1894 
z
M 3022 2063 
Q 3016 2534 2758 2815 
Q 2500 3097 2075 3097 
Q 1594 3097 1305 2825 
Q 1016 2553 972 2059 
L 3022 2063 
z
" transform="scale(0.015625)"/>
      </defs>
      <use xlink:href="#DejaVuSans-44"/>
      <use xlink:href="#DejaVuSans-61" x="77.001953"/>
      <use xlink:href="#DejaVuSans-74" x="138.28125"/>
      <use xlink:href="#DejaVuSans-65" x="177.490234"/>
     </g>
    </g>
   </g>
   <g id="matplotlib.axis_2">
    <g id="ytick_1">
     <g id="line2d_13">
      <path d="M 44.879375 163.34766 
L 435.479375 163.34766 
" clip-path="url(#p5f37dba902)" style="fill: none; stroke: #ffffff; stroke-width: 0.8; stroke-linecap: square"/>
     </g>
     <g id="line2d_14">
      <defs>
       <path id="m12f29654bc" d="M 0 0 
L -3.5 0 
" style="stroke: #555555; stroke-width: 0.8"/>
      </defs>
      <g>
       <use xlink:href="#m12f29654bc" x="44.879375" y="163.34766" style="fill: #555555; stroke: #555555; stroke-width: 0.8"/>
      </g>
     </g>
     <g id="text_8">
      <!-- 0.00 -->
      <g style="fill: #555555" transform="translate(15.61375 167.146879) scale(0.1 -0.1)">
       <defs>
        <path id="DejaVuSans-2e" d="M 684 794 
L 1344 794 
L 1344 0 
L 684 0 
L 684 794 
z
" transform="scale(0.015625)"/>
       </defs>
       <use xlink:href="#DejaVuSans-30"/>
       <use xlink:href="#DejaVuSans-2e" x="63.623047"/>
       <use xlink:href="#DejaVuSans-30" x="95.410156"/>
       <use xlink:href="#DejaVuSans-30" x="159.033203"/>
      </g>
     </g>
    </g>
    <g id="ytick_2">
     <g id="line2d_15">
      <path d="M 44.879375 141.112315 
L 435.479375 141.112315 
" clip-path="url(#p5f37dba902)" style="fill: none; stroke: #ffffff; stroke-width: 0.8; stroke-linecap: square"/>
     </g>
     <g id="line2d_16">
      <g>
       <use xlink:href="#m12f29654bc" x="44.879375" y="141.112315" style="fill: #555555; stroke: #555555; stroke-width: 0.8"/>
      </g>
     </g>
     <g id="text_9">
      <!-- 0.02 -->
      <g style="fill: #555555" transform="translate(15.61375 144.911534) scale(0.1 -0.1)">
       <use xlink:href="#DejaVuSans-30"/>
       <use xlink:href="#DejaVuSans-2e" x="63.623047"/>
       <use xlink:href="#DejaVuSans-30" x="95.410156"/>
       <use xlink:href="#DejaVuSans-32" x="159.033203"/>
      </g>
     </g>
    </g>
    <g id="ytick_3">
     <g id="line2d_17">
      <path d="M 44.879375 118.87697 
L 435.479375 118.87697 
" clip-path="url(#p5f37dba902)" style="fill: none; stroke: #ffffff; stroke-width: 0.8; stroke-linecap: square"/>
     </g>
     <g id="line2d_18">
      <g>
       <use xlink:href="#m12f29654bc" x="44.879375" y="118.87697" style="fill: #555555; stroke: #555555; stroke-width: 0.8"/>
      </g>
     </g>
     <g id="text_10">
      <!-- 0.04 -->
      <g style="fill: #555555" transform="translate(15.61375 122.676189) scale(0.1 -0.1)">
       <use xlink:href="#DejaVuSans-30"/>
       <use xlink:href="#DejaVuSans-2e" x="63.623047"/>
       <use xlink:href="#DejaVuSans-30" x="95.410156"/>
       <use xlink:href="#DejaVuSans-34" x="159.033203"/>
      </g>
     </g>
    </g>
    <g id="ytick_4">
     <g id="line2d_19">
      <path d="M 44.879375 96.641625 
L 435.479375 96.641625 
" clip-path="url(#p5f37dba902)" style="fill: none; stroke: #ffffff; stroke-width: 0.8; stroke-linecap: square"/>
     </g>
     <g id="line2d_20">
      <g>
       <use xlink:href="#m12f29654bc" x="44.879375" y="96.641625" style="fill: #555555; stroke: #555555; stroke-width: 0.8"/>
      </g>
     </g>
     <g id="text_11">
      <!-- 0.06 -->
      <g style="fill: #555555" transform="translate(15.61375 100.440843) scale(0.1 -0.1)">
       <use xlink:href="#DejaVuSans-30"/>
       <use xlink:href="#DejaVuSans-2e" x="63.623047"/>
       <use xlink:href="#DejaVuSans-30" x="95.410156"/>
       <use xlink:href="#DejaVuSans-36" x="159.033203"/>
      </g>
     </g>
    </g>
    <g id="ytick_5">
     <g id="line2d_21">
      <path d="M 44.879375 74.406279 
L 435.479375 74.406279 
" clip-path="url(#p5f37dba902)" style="fill: none; stroke: #ffffff; stroke-width: 0.8; stroke-linecap: square"/>
     </g>
     <g id="line2d_22">
      <g>
       <use xlink:href="#m12f29654bc" x="44.879375" y="74.406279" style="fill: #555555; stroke: #555555; stroke-width: 0.8"/>
      </g>
     </g>
     <g id="text_12">
      <!-- 0.08 -->
      <g style="fill: #555555" transform="translate(15.61375 78.205498) scale(0.1 -0.1)">
       <use xlink:href="#DejaVuSans-30"/>
       <use xlink:href="#DejaVuSans-2e" x="63.623047"/>
       <use xlink:href="#DejaVuSans-30" x="95.410156"/>
       <use xlink:href="#DejaVuSans-38" x="159.033203"/>
      </g>
     </g>
    </g>
    <g id="ytick_6">
     <g id="line2d_23">
      <path d="M 44.879375 52.170934 
L 435.479375 52.170934 
" clip-path="url(#p5f37dba902)" style="fill: none; stroke: #ffffff; stroke-width: 0.8; stroke-linecap: square"/>
     </g>
     <g id="line2d_24">
      <g>
       <use xlink:href="#m12f29654bc" x="44.879375" y="52.170934" style="fill: #555555; stroke: #555555; stroke-width: 0.8"/>
      </g>
     </g>
     <g id="text_13">
      <!-- 0.10 -->
      <g style="fill: #555555" transform="translate(15.61375 55.970153) scale(0.1 -0.1)">
       <use xlink:href="#DejaVuSans-30"/>
       <use xlink:href="#DejaVuSans-2e" x="63.623047"/>
       <use xlink:href="#DejaVuSans-31" x="95.410156"/>
       <use xlink:href="#DejaVuSans-30" x="159.033203"/>
      </g>
     </g>
    </g>
    <g id="ytick_7">
     <g id="line2d_25">
      <path d="M 44.879375 29.935589 
L 435.479375 29.935589 
" clip-path="url(#p5f37dba902)" style="fill: none; stroke: #ffffff; stroke-width: 0.8; stroke-linecap: square"/>
     </g>
     <g id="line2d_26">
      <g>
       <use xlink:href="#m12f29654bc" x="44.879375" y="29.935589" style="fill: #555555; stroke: #555555; stroke-width: 0.8"/>
      </g>
     </g>
     <g id="text_14">
      <!-- 0.12 -->
      <g style="fill: #555555" transform="translate(15.61375 33.734807) scale(0.1 -0.1)">
       <use xlink:href="#DejaVuSans-30"/>
       <use xlink:href="#DejaVuSans-2e" x="63.623047"/>
       <use xlink:href="#DejaVuSans-31" x="95.410156"/>
       <use xlink:href="#DejaVuSans-32" x="159.033203"/>
      </g>
     </g>
    </g>
    <g id="ytick_8">
     <g id="line2d_27">
      <path d="M 44.879375 7.700243 
L 435.479375 7.700243 
" clip-path="url(#p5f37dba902)" style="fill: none; stroke: #ffffff; stroke-width: 0.8; stroke-linecap: square"/>
     </g>
     <g id="line2d_28">
      <g>
       <use xlink:href="#m12f29654bc" x="44.879375" y="7.700243" style="fill: #555555; stroke: #555555; stroke-width: 0.8"/>
      </g>
     </g>
     <g id="text_15">
      <!-- 0.14 -->
      <g style="fill: #555555" transform="translate(15.61375 11.499462) scale(0.1 -0.1)">
       <use xlink:href="#DejaVuSans-30"/>
       <use xlink:href="#DejaVuSans-2e" x="63.623047"/>
       <use xlink:href="#DejaVuSans-31" x="95.410156"/>
       <use xlink:href="#DejaVuSans-34" x="159.033203"/>
      </g>
     </g>
    </g>
    <g id="text_16">
     <!-- Value -->
     <g style="fill: #555555" transform="translate(9.118125 99.6375) rotate(-90) scale(0.12 -0.12)">
      <defs>
       <path id="DejaVuSans-56" d="M 1831 0 
L 50 4666 
L 709 4666 
L 2188 738 
L 3669 4666 
L 4325 4666 
L 2547 0 
L 1831 0 
z
" transform="scale(0.015625)"/>
       <path id="DejaVuSans-6c" d="M 603 4863 
L 1178 4863 
L 1178 0 
L 603 0 
L 603 4863 
z
" transform="scale(0.015625)"/>
       <path id="DejaVuSans-75" d="M 544 1381 
L 544 3500 
L 1119 3500 
L 1119 1403 
Q 1119 906 1312 657 
Q 1506 409 1894 409 
Q 2359 409 2629 706 
Q 2900 1003 2900 1516 
L 2900 3500 
L 3475 3500 
L 3475 0 
L 2900 0 
L 2900 538 
Q 2691 219 2414 64 
Q 2138 -91 1772 -91 
Q 1169 -91 856 284 
Q 544 659 544 1381 
z
M 1991 3584 
L 1991 3584 
z
" transform="scale(0.015625)"/>
      </defs>
      <use xlink:href="#DejaVuSans-56"/>
      <use xlink:href="#DejaVuSans-61" x="60.658203"/>
      <use xlink:href="#DejaVuSans-6c" x="121.9375"/>
      <use xlink:href="#DejaVuSans-75" x="149.720703"/>
      <use xlink:href="#DejaVuSans-65" x="213.099609"/>
     </g>
    </g>
   </g>
   <g id="PolyCollection_1">
    <defs>
     <path id="m61ae41d744" d="M 62.63392 -56.533736 
L 62.63392 -69.332147 
L 64.031916 -69.08413 
L 65.429912 -66.531914 
L 66.827908 -69.208432 
L 68.225903 -66.402684 
L 69.623899 -67.171966 
L 71.021895 -70.995005 
L 72.41989 -69.7835 
L 73.817886 -69.669438 
L 75.215882 -69.180053 
L 76.613878 -69.075791 
L 78.011873 -70.171568 
L 79.409869 -67.931587 
L 80.807865 -69.176936 
L 82.20586 -66.845498 
L 83.603856 -67.53151 
L 85.001852 -77.266563 
L 86.399847 -78.150687 
L 87.797843 -76.909748 
L 89.195839 -78.720657 
L 90.593835 -82.292542 
L 91.99183 -86.623243 
L 93.389826 -85.34815 
L 94.787822 -93.043276 
L 96.185817 -93.747612 
L 97.583813 -102.600605 
L 98.981809 -104.144325 
L 100.379804 -94.044364 
L 101.7778 -89.027851 
L 103.175796 -93.593481 
L 104.573792 -88.973656 
L 105.971787 -89.045793 
L 107.369783 -65.832928 
L 108.767779 -67.058801 
L 110.165774 -70.945763 
L 111.56377 -69.084987 
L 112.961766 -70.537497 
L 114.359762 -67.725744 
L 115.757757 -65.234818 
L 117.155753 -67.555578 
L 118.553749 -69.222543 
L 119.951744 -69.444159 
L 121.34974 -68.267967 
L 122.747736 -69.005925 
L 124.145731 -66.798303 
L 125.543727 -68.775578 
L 126.941723 -68.759907 
L 128.339719 -70.952083 
L 129.737714 -69.695791 
L 131.13571 -70.192664 
L 132.533706 -70.089831 
L 133.931701 -70.385683 
L 135.329697 -71.196105 
L 136.727693 -68.719972 
L 138.125689 -70.545352 
L 139.523684 -70.399907 
L 140.92168 -73.266876 
L 142.319676 -71.445796 
L 143.717671 -74.030564 
L 145.115667 -73.153957 
L 146.513663 -72.509934 
L 147.911658 -71.749929 
L 149.309654 -75.789705 
L 150.70765 -74.429485 
L 152.105646 -79.376681 
L 153.503641 -78.102601 
L 154.901637 -77.921882 
L 156.299633 -77.698509 
L 157.697628 -76.522389 
L 159.095624 -82.175189 
L 160.49362 -81.14841 
L 161.891616 -80.898299 
L 163.289611 -82.434066 
L 164.687607 -80.777533 
L 166.085603 -82.206755 
L 167.483598 -80.797748 
L 168.881594 -81.295646 
L 170.27959 -52.102663 
L 171.677585 -51.442153 
L 173.075581 -51.485924 
L 174.473577 -50.340963 
L 175.871573 -50.397333 
L 177.269568 -50.069742 
L 178.667564 -51.45997 
L 180.06556 -81.241882 
L 181.463555 -84.039002 
L 182.861551 -83.402401 
L 184.259547 -83.710269 
L 185.657543 -86.662567 
L 187.055538 -85.453624 
L 188.453534 -83.755361 
L 189.85153 -82.699521 
L 191.249525 -85.458543 
L 192.647521 -85.66825 
L 194.045517 -84.834109 
L 195.443512 -84.675687 
L 196.841508 -86.518724 
L 198.239504 -84.523 
L 199.6375 -85.230316 
L 201.035495 -53.712288 
L 202.433491 -88.166514 
L 203.831487 -85.832846 
L 205.229482 -52.481002 
L 206.627478 -51.870609 
L 208.025474 -51.32618 
L 209.423469 -51.016784 
L 210.821465 -50.98002 
L 212.219461 -50.784332 
L 213.617457 -50.766573 
L 215.015452 -50.408074 
L 216.413448 -51.125835 
L 217.811444 -51.759957 
L 219.209439 -51.349929 
L 220.607435 -51.871924 
L 222.005431 -51.461691 
L 223.403427 -51.586302 
L 224.801422 -52.45919 
L 226.199418 -52.46141 
L 227.597414 -52.990818 
L 228.995409 -53.323961 
L 230.393405 -52.97485 
L 231.791401 -53.443071 
L 233.189396 -53.551282 
L 234.587392 -86.043227 
L 235.985388 -85.689704 
L 237.383384 -86.891275 
L 238.781379 -88.306404 
L 240.179375 -53.299029 
L 241.577371 -53.500824 
L 242.975366 -53.788562 
L 244.373362 -88.471054 
L 245.771358 -88.327837 
L 247.169354 -87.306127 
L 248.567349 -86.302928 
L 249.965345 -86.982193 
L 251.363341 -86.229898 
L 252.761336 -85.225802 
L 254.159332 -52.93488 
L 255.557328 -82.763218 
L 256.955323 -83.23979 
L 258.353319 -85.089497 
L 259.751315 -82.072258 
L 261.149311 -86.739627 
L 262.547306 -86.534621 
L 263.945302 -54.602841 
L 265.343298 -52.749285 
L 266.741293 -85.986296 
L 268.139289 -87.621991 
L 269.537285 -87.419087 
L 270.935281 -86.931289 
L 272.333276 -95.652636 
L 273.731272 -96.401688 
L 275.129268 -96.545463 
L 276.527263 -93.320378 
L 277.925259 -94.732722 
L 279.323255 -96.194052 
L 280.72125 -101.391646 
L 282.119246 -137.575065 
L 283.517242 -185.672954 
L 284.915238 -191.051875 
L 286.313233 -140.896157 
L 287.711229 -136.602733 
L 289.109225 -135.084979 
L 290.50722 -132.189598 
L 291.905216 -102.367611 
L 293.303212 -99.865852 
L 294.701207 -100.360565 
L 296.099203 -98.743064 
L 297.497199 -98.016341 
L 298.895195 -96.756122 
L 300.29319 -96.613934 
L 301.691186 -90.819635 
L 303.089182 -90.131814 
L 304.487177 -86.902624 
L 305.885173 -85.486513 
L 307.283169 -83.940648 
L 308.681165 -83.540219 
L 310.07916 -83.184162 
L 311.477156 -51.834687 
L 312.875152 -51.781833 
L 314.273147 -52.372703 
L 315.671143 -78.533729 
L 317.069139 -52.467958 
L 318.467134 -52.506672 
L 319.86513 -52.134483 
L 321.263126 -52.90449 
L 322.661122 -81.181347 
L 324.059117 -53.63832 
L 325.457113 -81.008475 
L 326.855109 -82.764358 
L 328.253104 -82.795137 
L 329.6511 -83.04117 
L 331.049096 -102.686204 
L 332.447092 -84.739913 
L 333.845087 -86.030904 
L 335.243083 -88.589796 
L 336.641079 -85.632914 
L 338.039074 -84.594747 
L 339.43707 -103.645273 
L 340.835066 -86.520128 
L 342.233061 -83.18741 
L 343.631057 -83.508435 
L 345.029053 -82.834531 
L 346.427049 -80.879861 
L 347.825044 -54.577557 
L 349.22304 -81.029306 
L 350.621036 -82.586371 
L 352.019031 -44.329929 
L 353.417027 -43.840712 
L 354.815023 -43.51063 
L 356.213019 -43.973046 
L 357.611014 -43.236051 
L 359.00901 -43.548792 
L 360.407006 -42.945056 
L 361.805001 -43.080251 
L 363.202997 -43.251505 
L 364.600993 -42.953693 
L 365.998988 -43.025264 
L 367.396984 -42.221472 
L 368.79498 -42.836309 
L 370.192976 -43.620958 
L 371.590971 -45.18128 
L 372.988967 -44.599364 
L 374.386963 -44.254946 
L 375.784958 -44.511086 
L 377.182954 -44.407905 
L 378.58095 -44.289849 
L 379.978946 -49.612122 
L 381.376941 -49.78339 
L 382.774937 -49.425904 
L 384.172933 -50.158347 
L 385.570928 -50.339482 
L 386.968924 -55.08937 
L 388.36692 -53.959948 
L 389.764915 -87.283452 
L 391.162911 -84.554992 
L 392.560907 -89.887747 
L 393.958903 -91.308519 
L 395.356898 -90.92015 
L 396.754894 -94.309851 
L 398.15289 -91.891475 
L 399.550885 -98.642794 
L 400.948881 -101.765804 
L 402.346877 -106.040082 
L 403.744872 -106.416 
L 405.142868 -102.884833 
L 406.540864 -110.153814 
L 407.93886 -118.46552 
L 409.336855 -112.396846 
L 410.734851 -162.117524 
L 412.132847 -169.273864 
L 413.530842 -164.511151 
L 414.928838 -116.376532 
L 416.326834 -119.502294 
L 417.72483 -118.989263 
L 417.72483 -95.691819 
L 417.72483 -95.691819 
L 416.326834 -97.307424 
L 414.928838 -96.457362 
L 413.530842 -138.683964 
L 412.132847 -144.7195 
L 410.734851 -136.921968 
L 409.336855 -90.76023 
L 407.93886 -95.889107 
L 406.540864 -86.774995 
L 405.142868 -81.820219 
L 403.744872 -81.685586 
L 402.346877 -84.319321 
L 400.948881 -79.065566 
L 399.550885 -74.429322 
L 398.15289 -71.056548 
L 396.754894 -71.516092 
L 395.356898 -68.136259 
L 393.958903 -69.666363 
L 392.560907 -66.578983 
L 391.162911 -63.828985 
L 389.764915 -63.889468 
L 388.36692 -50.808549 
L 386.968924 -51.876882 
L 385.570928 -47.301672 
L 384.172933 -46.905518 
L 382.774937 -46.617167 
L 381.376941 -46.691308 
L 379.978946 -46.294846 
L 378.58095 -41.637546 
L 377.182954 -41.827958 
L 375.784958 -41.978026 
L 374.386963 -41.530243 
L 372.988967 -41.760992 
L 371.590971 -42.162795 
L 370.192976 -41.128375 
L 368.79498 -40.364447 
L 367.396984 -39.851875 
L 365.998988 -40.514298 
L 364.600993 -40.235587 
L 363.202997 -40.518564 
L 361.805001 -40.513865 
L 360.407006 -40.681586 
L 359.00901 -40.754959 
L 357.611014 -40.740858 
L 356.213019 -41.141591 
L 354.815023 -41.135403 
L 353.417027 -41.043432 
L 352.019031 -41.374492 
L 350.621036 -62.835152 
L 349.22304 -60.360886 
L 347.825044 -50.701636 
L 346.427049 -64.928858 
L 345.029053 -66.644044 
L 343.631057 -67.027936 
L 342.233061 -67.369456 
L 340.835066 -71.604408 
L 339.43707 -90.697854 
L 338.039074 -70.018718 
L 336.641079 -70.595921 
L 335.243083 -73.506295 
L 333.845087 -72.854042 
L 332.447092 -70.851551 
L 331.049096 -88.851983 
L 329.6511 -64.874283 
L 328.253104 -64.431825 
L 326.855109 -62.263556 
L 325.457113 -62.057948 
L 324.059117 -49.506213 
L 322.661122 -61.247529 
L 321.263126 -49.350822 
L 319.86513 -48.83972 
L 318.467134 -48.975856 
L 317.069139 -48.780466 
L 315.671143 -58.967056 
L 314.273147 -48.31708 
L 312.875152 -48.068638 
L 311.477156 -48.15868 
L 310.07916 -62.573787 
L 308.681165 -62.766508 
L 307.283169 -61.589106 
L 305.885173 -63.438124 
L 304.487177 -66.830852 
L 303.089182 -70.28514 
L 301.691186 -69.542455 
L 300.29319 -77.190199 
L 298.895195 -77.848791 
L 297.497199 -79.52109 
L 296.099203 -79.256995 
L 294.701207 -83.254798 
L 293.303212 -81.387441 
L 291.905216 -84.989191 
L 290.50722 -113.973362 
L 289.109225 -113.065786 
L 287.711229 -116.253685 
L 286.313233 -120.80887 
L 284.915238 -155.86654 
L 283.517242 -153.467305 
L 282.119246 -118.044906 
L 280.72125 -82.952388 
L 279.323255 -76.763178 
L 277.925259 -75.597985 
L 276.527263 -72.834669 
L 275.129268 -74.813844 
L 273.731272 -76.157358 
L 272.333276 -75.481092 
L 270.935281 -66.324191 
L 269.537285 -66.008501 
L 268.139289 -64.819555 
L 266.741293 -62.911065 
L 265.343298 -49.112289 
L 263.945302 -50.79075 
L 262.547306 -65.128302 
L 261.149311 -61.514567 
L 259.751315 -61.337491 
L 258.353319 -61.157667 
L 256.955323 -60.085103 
L 255.557328 -60.500083 
L 254.159332 -49.091712 
L 252.761336 -61.205548 
L 251.363341 -62.841122 
L 249.965345 -63.023247 
L 248.567349 -62.824823 
L 247.169354 -64.826399 
L 245.771358 -63.960688 
L 244.373362 -64.334816 
L 242.975366 -50.734686 
L 241.577371 -50.15303 
L 240.179375 -49.937565 
L 238.781379 -62.998885 
L 237.383384 -62.70415 
L 235.985388 -62.486458 
L 234.587392 -62.528689 
L 233.189396 -50.089664 
L 231.791401 -49.669373 
L 230.393405 -49.836429 
L 228.995409 -49.972654 
L 227.597414 -49.346381 
L 226.199418 -48.863524 
L 224.801422 -48.881492 
L 223.403427 -48.381839 
L 222.005431 -48.330385 
L 220.607435 -48.611544 
L 219.209439 -48.031342 
L 217.811444 -48.247391 
L 216.413448 -47.808913 
L 215.015452 -47.011033 
L 213.617457 -47.499062 
L 212.219461 -47.50161 
L 210.821465 -47.924336 
L 209.423469 -47.734636 
L 208.025474 -48.032643 
L 206.627478 -48.708669 
L 205.229482 -49.127657 
L 203.831487 -60.547938 
L 202.433491 -62.527674 
L 201.035495 -50.417565 
L 199.6375 -61.906347 
L 198.239504 -60.744146 
L 196.841508 -63.28473 
L 195.443512 -62.657228 
L 194.045517 -61.832813 
L 192.647521 -63.096009 
L 191.249525 -63.380289 
L 189.85153 -61.703111 
L 188.453534 -62.561446 
L 187.055538 -63.152971 
L 185.657543 -63.993939 
L 184.259547 -62.677946 
L 182.861551 -60.097629 
L 181.463555 -60.553115 
L 180.06556 -61.583403 
L 178.667564 -47.789576 
L 177.269568 -46.782309 
L 175.871573 -46.853702 
L 174.473577 -47.133553 
L 173.075581 -47.794363 
L 171.677585 -47.930617 
L 170.27959 -48.164483 
L 168.881594 -61.222552 
L 167.483598 -59.393759 
L 166.085603 -60.156881 
L 164.687607 -59.952515 
L 163.289611 -62.580772 
L 161.891616 -61.706182 
L 160.49362 -60.599522 
L 159.095624 -60.39288 
L 157.697628 -60.534209 
L 156.299633 -62.031169 
L 154.901637 -62.44481 
L 153.503641 -61.24498 
L 152.105646 -62.418461 
L 150.70765 -58.671679 
L 149.309654 -58.331981 
L 147.911658 -54.579425 
L 146.513663 -54.86531 
L 145.115667 -54.100012 
L 143.717671 -54.991165 
L 142.319676 -53.336386 
L 140.92168 -55.778719 
L 139.523684 -54.959484 
L 138.125689 -55.570865 
L 136.727693 -53.786535 
L 135.329697 -54.48453 
L 133.931701 -55.413616 
L 132.533706 -54.161181 
L 131.13571 -55.504959 
L 129.737714 -56.449424 
L 128.339719 -56.077055 
L 126.941723 -55.324797 
L 125.543727 -54.613889 
L 124.145731 -56.191778 
L 122.747736 -55.636461 
L 121.34974 -55.859439 
L 119.951744 -56.573834 
L 118.553749 -56.770055 
L 117.155753 -55.902231 
L 115.757757 -57.041608 
L 114.359762 -55.460041 
L 112.961766 -60.216122 
L 111.56377 -57.956477 
L 110.165774 -59.044621 
L 108.767779 -56.304301 
L 107.369783 -57.321603 
L 105.971787 -76.783177 
L 104.573792 -77.031373 
L 103.175796 -80.139947 
L 101.7778 -75.527315 
L 100.379804 -80.887931 
L 98.981809 -89.604521 
L 97.583813 -88.266796 
L 96.185817 -80.153964 
L 94.787822 -81.093563 
L 93.389826 -74.958015 
L 91.99183 -74.932839 
L 90.593835 -71.85858 
L 89.195839 -66.166628 
L 87.797843 -63.998031 
L 86.399847 -66.260524 
L 85.001852 -65.370263 
L 83.603856 -55.909315 
L 82.20586 -56.314888 
L 80.807865 -55.525192 
L 79.409869 -54.782906 
L 78.011873 -56.136616 
L 76.613878 -54.271331 
L 75.215882 -56.945458 
L 73.817886 -55.560904 
L 72.41989 -56.156157 
L 71.021895 -57.298301 
L 69.623899 -56.886813 
L 68.225903 -55.655144 
L 66.827908 -57.890494 
L 65.429912 -56.676002 
L 64.031916 -56.301383 
L 62.63392 -56.533736 
z
" style="stroke: #ffb612; stroke-opacity: 0.5; stroke-width: 0.5"/>
    </defs>
    <g clip-path="url(#p5f37dba902)">
     <use xlink:href="#m61ae41d744" x="0" y="198.611875" style="fill: #ffb612; fill-opacity: 0.5; stroke: #ffb612; stroke-opacity: 0.5; stroke-width: 0.5"/>
    </g>
   </g>
   <g id="line2d_29">
    <path d="M 62.63392 135.678933 
L 64.031916 135.919118 
L 65.429912 137.007917 
L 66.827908 135.062412 
L 68.225903 137.582961 
L 69.623899 136.582486 
L 71.021895 134.465222 
L 72.41989 135.642046 
L 73.817886 135.996704 
L 75.215882 135.549119 
L 76.613878 136.938314 
L 78.011873 135.457783 
L 79.409869 137.254628 
L 80.807865 136.260811 
L 82.20586 137.031682 
L 83.603856 136.891462 
L 85.001852 127.293462 
L 86.399847 126.40627 
L 87.797843 128.157985 
L 89.195839 126.168233 
L 90.593835 121.536314 
L 91.99183 117.833834 
L 93.389826 118.458792 
L 94.787822 111.543455 
L 96.185817 111.661087 
L 97.583813 103.178174 
L 98.981809 101.737452 
L 100.379804 111.145727 
L 101.7778 116.334292 
L 103.175796 111.745161 
L 104.573792 115.609361 
L 105.971787 115.69739 
L 107.369783 137.034609 
L 108.767779 136.930324 
L 110.165774 133.616683 
L 111.56377 135.091143 
L 112.961766 133.235065 
L 114.359762 137.018983 
L 115.757757 137.473662 
L 117.155753 136.882971 
L 118.553749 135.615576 
L 119.951744 135.602878 
L 121.34974 136.548172 
L 122.747736 136.290682 
L 124.145731 137.116835 
L 125.543727 136.917141 
L 126.941723 136.569523 
L 128.339719 135.097306 
L 129.737714 135.539267 
L 131.13571 135.763064 
L 132.533706 136.486369 
L 133.931701 135.712225 
L 135.329697 135.771558 
L 136.727693 137.358622 
L 138.125689 135.553766 
L 139.523684 135.93218 
L 140.92168 134.089078 
L 142.319676 136.220784 
L 143.717671 134.10101 
L 145.115667 134.98489 
L 146.513663 134.924253 
L 147.911658 135.447198 
L 149.309654 131.551032 
L 150.70765 132.061293 
L 152.105646 127.714304 
L 153.503641 128.938085 
L 154.901637 128.428529 
L 156.299633 128.747036 
L 157.697628 130.083576 
L 159.095624 127.327841 
L 160.49362 127.737909 
L 161.891616 127.309635 
L 163.289611 126.104456 
L 164.687607 128.246851 
L 166.085603 127.430057 
L 167.483598 128.516122 
L 168.881594 127.352776 
L 170.27959 148.478302 
L 171.677585 148.92549 
L 173.075581 148.971732 
L 174.473577 149.874617 
L 177.269568 150.18585 
L 178.667564 148.987102 
L 180.06556 127.199232 
L 181.463555 126.315816 
L 182.861551 126.86186 
L 184.259547 125.417767 
L 185.657543 123.283622 
L 189.85153 126.410559 
L 191.249525 124.192459 
L 192.647521 124.229746 
L 194.045517 125.278414 
L 195.443512 124.945417 
L 196.841508 123.710148 
L 198.239504 125.978302 
L 199.6375 125.043544 
L 201.035495 146.546948 
L 202.433491 123.264781 
L 203.831487 125.421483 
L 205.229482 147.807546 
L 209.423469 149.236165 
L 210.821465 149.159697 
L 212.219461 149.468904 
L 213.617457 149.479058 
L 215.015452 149.902321 
L 216.413448 149.144501 
L 217.811444 148.608201 
L 219.209439 148.921239 
L 220.607435 148.370141 
L 222.005431 148.715837 
L 223.403427 148.627804 
L 224.801422 147.941534 
L 226.199418 147.949408 
L 228.995409 146.963567 
L 230.393405 147.206236 
L 231.791401 147.055653 
L 233.189396 146.791402 
L 234.587392 124.325917 
L 235.985388 124.523794 
L 237.383384 123.814162 
L 238.781379 122.95923 
L 240.179375 146.993578 
L 241.577371 146.784948 
L 242.975366 146.350251 
L 244.373362 122.20894 
L 245.771358 122.467612 
L 247.169354 122.545612 
L 248.567349 124.048 
L 249.965345 123.609155 
L 251.363341 124.076365 
L 252.761336 125.3962 
L 254.159332 147.598579 
L 255.557328 126.980224 
L 256.955323 126.949428 
L 258.353319 125.488293 
L 259.751315 126.907001 
L 261.149311 124.484778 
L 262.547306 122.780413 
L 263.945302 145.915079 
L 265.343298 147.681088 
L 266.741293 124.163195 
L 268.139289 122.391102 
L 269.537285 121.898081 
L 270.935281 121.984135 
L 272.333276 113.045011 
L 273.731272 112.332352 
L 275.129268 112.932222 
L 276.527263 115.534351 
L 277.925259 113.446522 
L 279.323255 112.13326 
L 280.72125 106.439858 
L 282.119246 70.801889 
L 283.517242 29.041745 
L 284.915238 25.152667 
L 286.313233 67.759361 
L 287.711229 72.183666 
L 289.109225 74.536493 
L 290.50722 75.530395 
L 291.905216 104.933474 
L 293.303212 107.985228 
L 294.701207 106.804194 
L 296.099203 109.611846 
L 297.497199 109.84316 
L 298.895195 111.309418 
L 300.29319 111.709809 
L 301.691186 118.43083 
L 303.089182 118.403398 
L 304.487177 121.745137 
L 305.885173 124.149556 
L 307.283169 125.846998 
L 308.681165 125.458511 
L 310.07916 125.732901 
L 311.477156 148.615191 
L 312.875152 148.68664 
L 314.273147 148.266984 
L 315.671143 129.861483 
L 317.069139 147.987663 
L 318.467134 147.870611 
L 319.86513 148.124773 
L 321.263126 147.484219 
L 322.661122 127.397437 
L 324.059117 147.039609 
L 325.457113 127.078663 
L 328.253104 124.998394 
L 329.6511 124.654149 
L 331.049096 102.842781 
L 332.447092 120.816143 
L 335.243083 117.56383 
L 336.641079 120.497457 
L 338.039074 121.305142 
L 339.43707 101.440312 
L 340.835066 119.549607 
L 342.233061 123.333442 
L 343.631057 123.34369 
L 345.029053 123.872588 
L 346.427049 125.707515 
L 347.825044 145.972278 
L 349.22304 127.916779 
L 350.621036 125.901113 
L 352.019031 155.759665 
L 353.417027 156.169803 
L 354.815023 156.288859 
L 356.213019 156.054557 
L 357.611014 156.62342 
L 359.00901 156.459999 
L 360.407006 156.798554 
L 363.202997 156.72684 
L 364.600993 157.017235 
L 365.998988 156.842094 
L 367.396984 157.575201 
L 368.79498 157.011497 
L 370.192976 156.237209 
L 371.590971 154.939837 
L 372.988967 155.431697 
L 374.386963 155.719281 
L 375.784958 155.367319 
L 378.58095 155.648177 
L 379.978946 150.658391 
L 381.376941 150.374526 
L 382.774937 150.590339 
L 384.172933 150.079942 
L 385.570928 149.791298 
L 386.968924 145.128749 
L 388.36692 146.227626 
L 389.764915 123.025415 
L 391.162911 124.419886 
L 392.560907 120.37851 
L 393.958903 118.124434 
L 395.356898 119.08367 
L 396.754894 115.698904 
L 398.15289 117.137863 
L 399.550885 112.075817 
L 400.948881 108.19619 
L 402.346877 103.432173 
L 403.744872 104.561082 
L 405.142868 106.259349 
L 406.540864 100.14747 
L 407.93886 91.434562 
L 409.336855 97.033337 
L 410.734851 49.092129 
L 412.132847 41.615193 
L 413.530842 47.014317 
L 414.928838 92.194928 
L 416.326834 90.207016 
L 417.72483 91.271334 
L 417.72483 91.271334 
" clip-path="url(#p5f37dba902)" style="fill: none; stroke: #ffb612; stroke-width: 3; stroke-linecap: square"/>
    <defs>
     <path id="m3e32bd5441" d="M 0 1.5 
C 0.397805 1.5 0.77937 1.341951 1.06066 1.06066 
C 1.341951 0.77937 1.5 0.397805 1.5 0 
C 1.5 -0.397805 1.341951 -0.77937 1.06066 -1.06066 
C 0.77937 -1.341951 0.397805 -1.5 0 -1.5 
C -0.397805 -1.5 -0.77937 -1.341951 -1.06066 -1.06066 
C -1.341951 -0.77937 -1.5 -0.397805 -1.5 0 
C -1.5 0.397805 -1.341951 0.77937 -1.06066 1.06066 
C -0.77937 1.341951 -0.397805 1.5 0 1.5 
z
" style="stroke: #ffb612"/>
    </defs>
    <g clip-path="url(#p5f37dba902)">
     <use xlink:href="#m3e32bd5441" x="62.63392" y="135.678933" style="fill: #ffb612; stroke: #ffb612"/>
     <use xlink:href="#m3e32bd5441" x="64.031916" y="135.919118" style="fill: #ffb612; stroke: #ffb612"/>
     <use xlink:href="#m3e32bd5441" x="65.429912" y="137.007917" style="fill: #ffb612; stroke: #ffb612"/>
     <use xlink:href="#m3e32bd5441" x="66.827908" y="135.062412" style="fill: #ffb612; stroke: #ffb612"/>
     <use xlink:href="#m3e32bd5441" x="68.225903" y="137.582961" style="fill: #ffb612; stroke: #ffb612"/>
     <use xlink:href="#m3e32bd5441" x="69.623899" y="136.582486" style="fill: #ffb612; stroke: #ffb612"/>
     <use xlink:href="#m3e32bd5441" x="71.021895" y="134.465222" style="fill: #ffb612; stroke: #ffb612"/>
     <use xlink:href="#m3e32bd5441" x="72.41989" y="135.642046" style="fill: #ffb612; stroke: #ffb612"/>
     <use xlink:href="#m3e32bd5441" x="73.817886" y="135.996704" style="fill: #ffb612; stroke: #ffb612"/>
     <use xlink:href="#m3e32bd5441" x="75.215882" y="135.549119" style="fill: #ffb612; stroke: #ffb612"/>
     <use xlink:href="#m3e32bd5441" x="76.613878" y="136.938314" style="fill: #ffb612; stroke: #ffb612"/>
     <use xlink:href="#m3e32bd5441" x="78.011873" y="135.457783" style="fill: #ffb612; stroke: #ffb612"/>
     <use xlink:href="#m3e32bd5441" x="79.409869" y="137.254628" style="fill: #ffb612; stroke: #ffb612"/>
     <use xlink:href="#m3e32bd5441" x="80.807865" y="136.260811" style="fill: #ffb612; stroke: #ffb612"/>
     <use xlink:href="#m3e32bd5441" x="82.20586" y="137.031682" style="fill: #ffb612; stroke: #ffb612"/>
     <use xlink:href="#m3e32bd5441" x="83.603856" y="136.891462" style="fill: #ffb612; stroke: #ffb612"/>
     <use xlink:href="#m3e32bd5441" x="85.001852" y="127.293462" style="fill: #ffb612; stroke: #ffb612"/>
     <use xlink:href="#m3e32bd5441" x="86.399847" y="126.40627" style="fill: #ffb612; stroke: #ffb612"/>
     <use xlink:href="#m3e32bd5441" x="87.797843" y="128.157985" style="fill: #ffb612; stroke: #ffb612"/>
     <use xlink:href="#m3e32bd5441" x="89.195839" y="126.168233" style="fill: #ffb612; stroke: #ffb612"/>
     <use xlink:href="#m3e32bd5441" x="90.593835" y="121.536314" style="fill: #ffb612; stroke: #ffb612"/>
     <use xlink:href="#m3e32bd5441" x="91.99183" y="117.833834" style="fill: #ffb612; stroke: #ffb612"/>
     <use xlink:href="#m3e32bd5441" x="93.389826" y="118.458792" style="fill: #ffb612; stroke: #ffb612"/>
     <use xlink:href="#m3e32bd5441" x="94.787822" y="111.543455" style="fill: #ffb612; stroke: #ffb612"/>
     <use xlink:href="#m3e32bd5441" x="96.185817" y="111.661087" style="fill: #ffb612; stroke: #ffb612"/>
     <use xlink:href="#m3e32bd5441" x="97.583813" y="103.178174" style="fill: #ffb612; stroke: #ffb612"/>
     <use xlink:href="#m3e32bd5441" x="98.981809" y="101.737452" style="fill: #ffb612; stroke: #ffb612"/>
     <use xlink:href="#m3e32bd5441" x="100.379804" y="111.145727" style="fill: #ffb612; stroke: #ffb612"/>
     <use xlink:href="#m3e32bd5441" x="101.7778" y="116.334292" style="fill: #ffb612; stroke: #ffb612"/>
     <use xlink:href="#m3e32bd5441" x="103.175796" y="111.745161" style="fill: #ffb612; stroke: #ffb612"/>
     <use xlink:href="#m3e32bd5441" x="104.573792" y="115.609361" style="fill: #ffb612; stroke: #ffb612"/>
     <use xlink:href="#m3e32bd5441" x="105.971787" y="115.69739" style="fill: #ffb612; stroke: #ffb612"/>
     <use xlink:href="#m3e32bd5441" x="107.369783" y="137.034609" style="fill: #ffb612; stroke: #ffb612"/>
     <use xlink:href="#m3e32bd5441" x="108.767779" y="136.930324" style="fill: #ffb612; stroke: #ffb612"/>
     <use xlink:href="#m3e32bd5441" x="110.165774" y="133.616683" style="fill: #ffb612; stroke: #ffb612"/>
     <use xlink:href="#m3e32bd5441" x="111.56377" y="135.091143" style="fill: #ffb612; stroke: #ffb612"/>
     <use xlink:href="#m3e32bd5441" x="112.961766" y="133.235065" style="fill: #ffb612; stroke: #ffb612"/>
     <use xlink:href="#m3e32bd5441" x="114.359762" y="137.018983" style="fill: #ffb612; stroke: #ffb612"/>
     <use xlink:href="#m3e32bd5441" x="115.757757" y="137.473662" style="fill: #ffb612; stroke: #ffb612"/>
     <use xlink:href="#m3e32bd5441" x="117.155753" y="136.882971" style="fill: #ffb612; stroke: #ffb612"/>
     <use xlink:href="#m3e32bd5441" x="118.553749" y="135.615576" style="fill: #ffb612; stroke: #ffb612"/>
     <use xlink:href="#m3e32bd5441" x="119.951744" y="135.602878" style="fill: #ffb612; stroke: #ffb612"/>
     <use xlink:href="#m3e32bd5441" x="121.34974" y="136.548172" style="fill: #ffb612; stroke: #ffb612"/>
     <use xlink:href="#m3e32bd5441" x="122.747736" y="136.290682" style="fill: #ffb612; stroke: #ffb612"/>
     <use xlink:href="#m3e32bd5441" x="124.145731" y="137.116835" style="fill: #ffb612; stroke: #ffb612"/>
     <use xlink:href="#m3e32bd5441" x="125.543727" y="136.917141" style="fill: #ffb612; stroke: #ffb612"/>
     <use xlink:href="#m3e32bd5441" x="126.941723" y="136.569523" style="fill: #ffb612; stroke: #ffb612"/>
     <use xlink:href="#m3e32bd5441" x="128.339719" y="135.097306" style="fill: #ffb612; stroke: #ffb612"/>
     <use xlink:href="#m3e32bd5441" x="129.737714" y="135.539267" style="fill: #ffb612; stroke: #ffb612"/>
     <use xlink:href="#m3e32bd5441" x="131.13571" y="135.763064" style="fill: #ffb612; stroke: #ffb612"/>
     <use xlink:href="#m3e32bd5441" x="132.533706" y="136.486369" style="fill: #ffb612; stroke: #ffb612"/>
     <use xlink:href="#m3e32bd5441" x="133.931701" y="135.712225" style="fill: #ffb612; stroke: #ffb612"/>
     <use xlink:href="#m3e32bd5441" x="135.329697" y="135.771558" style="fill: #ffb612; stroke: #ffb612"/>
     <use xlink:href="#m3e32bd5441" x="136.727693" y="137.358622" style="fill: #ffb612; stroke: #ffb612"/>
     <use xlink:href="#m3e32bd5441" x="138.125689" y="135.553766" style="fill: #ffb612; stroke: #ffb612"/>
     <use xlink:href="#m3e32bd5441" x="139.523684" y="135.93218" style="fill: #ffb612; stroke: #ffb612"/>
     <use xlink:href="#m3e32bd5441" x="140.92168" y="134.089078" style="fill: #ffb612; stroke: #ffb612"/>
     <use xlink:href="#m3e32bd5441" x="142.319676" y="136.220784" style="fill: #ffb612; stroke: #ffb612"/>
     <use xlink:href="#m3e32bd5441" x="143.717671" y="134.10101" style="fill: #ffb612; stroke: #ffb612"/>
     <use xlink:href="#m3e32bd5441" x="145.115667" y="134.98489" style="fill: #ffb612; stroke: #ffb612"/>
     <use xlink:href="#m3e32bd5441" x="146.513663" y="134.924253" style="fill: #ffb612; stroke: #ffb612"/>
     <use xlink:href="#m3e32bd5441" x="147.911658" y="135.447198" style="fill: #ffb612; stroke: #ffb612"/>
     <use xlink:href="#m3e32bd5441" x="149.309654" y="131.551032" style="fill: #ffb612; stroke: #ffb612"/>
     <use xlink:href="#m3e32bd5441" x="150.70765" y="132.061293" style="fill: #ffb612; stroke: #ffb612"/>
     <use xlink:href="#m3e32bd5441" x="152.105646" y="127.714304" style="fill: #ffb612; stroke: #ffb612"/>
     <use xlink:href="#m3e32bd5441" x="153.503641" y="128.938085" style="fill: #ffb612; stroke: #ffb612"/>
     <use xlink:href="#m3e32bd5441" x="154.901637" y="128.428529" style="fill: #ffb612; stroke: #ffb612"/>
     <use xlink:href="#m3e32bd5441" x="156.299633" y="128.747036" style="fill: #ffb612; stroke: #ffb612"/>
     <use xlink:href="#m3e32bd5441" x="157.697628" y="130.083576" style="fill: #ffb612; stroke: #ffb612"/>
     <use xlink:href="#m3e32bd5441" x="159.095624" y="127.327841" style="fill: #ffb612; stroke: #ffb612"/>
     <use xlink:href="#m3e32bd5441" x="160.49362" y="127.737909" style="fill: #ffb612; stroke: #ffb612"/>
     <use xlink:href="#m3e32bd5441" x="161.891616" y="127.309635" style="fill: #ffb612; stroke: #ffb612"/>
     <use xlink:href="#m3e32bd5441" x="163.289611" y="126.104456" style="fill: #ffb612; stroke: #ffb612"/>
     <use xlink:href="#m3e32bd5441" x="164.687607" y="128.246851" style="fill: #ffb612; stroke: #ffb612"/>
     <use xlink:href="#m3e32bd5441" x="166.085603" y="127.430057" style="fill: #ffb612; stroke: #ffb612"/>
     <use xlink:href="#m3e32bd5441" x="167.483598" y="128.516122" style="fill: #ffb612; stroke: #ffb612"/>
     <use xlink:href="#m3e32bd5441" x="168.881594" y="127.352776" style="fill: #ffb612; stroke: #ffb612"/>
     <use xlink:href="#m3e32bd5441" x="170.27959" y="148.478302" style="fill: #ffb612; stroke: #ffb612"/>
     <use xlink:href="#m3e32bd5441" x="171.677585" y="148.92549" style="fill: #ffb612; stroke: #ffb612"/>
     <use xlink:href="#m3e32bd5441" x="173.075581" y="148.971732" style="fill: #ffb612; stroke: #ffb612"/>
     <use xlink:href="#m3e32bd5441" x="174.473577" y="149.874617" style="fill: #ffb612; stroke: #ffb612"/>
     <use xlink:href="#m3e32bd5441" x="175.871573" y="149.986358" style="fill: #ffb612; stroke: #ffb612"/>
     <use xlink:href="#m3e32bd5441" x="177.269568" y="150.18585" style="fill: #ffb612; stroke: #ffb612"/>
     <use xlink:href="#m3e32bd5441" x="178.667564" y="148.987102" style="fill: #ffb612; stroke: #ffb612"/>
     <use xlink:href="#m3e32bd5441" x="180.06556" y="127.199232" style="fill: #ffb612; stroke: #ffb612"/>
     <use xlink:href="#m3e32bd5441" x="181.463555" y="126.315816" style="fill: #ffb612; stroke: #ffb612"/>
     <use xlink:href="#m3e32bd5441" x="182.861551" y="126.86186" style="fill: #ffb612; stroke: #ffb612"/>
     <use xlink:href="#m3e32bd5441" x="184.259547" y="125.417767" style="fill: #ffb612; stroke: #ffb612"/>
     <use xlink:href="#m3e32bd5441" x="185.657543" y="123.283622" style="fill: #ffb612; stroke: #ffb612"/>
     <use xlink:href="#m3e32bd5441" x="187.055538" y="124.308578" style="fill: #ffb612; stroke: #ffb612"/>
     <use xlink:href="#m3e32bd5441" x="188.453534" y="125.453472" style="fill: #ffb612; stroke: #ffb612"/>
     <use xlink:href="#m3e32bd5441" x="189.85153" y="126.410559" style="fill: #ffb612; stroke: #ffb612"/>
     <use xlink:href="#m3e32bd5441" x="191.249525" y="124.192459" style="fill: #ffb612; stroke: #ffb612"/>
     <use xlink:href="#m3e32bd5441" x="192.647521" y="124.229746" style="fill: #ffb612; stroke: #ffb612"/>
     <use xlink:href="#m3e32bd5441" x="194.045517" y="125.278414" style="fill: #ffb612; stroke: #ffb612"/>
     <use xlink:href="#m3e32bd5441" x="195.443512" y="124.945417" style="fill: #ffb612; stroke: #ffb612"/>
     <use xlink:href="#m3e32bd5441" x="196.841508" y="123.710148" style="fill: #ffb612; stroke: #ffb612"/>
     <use xlink:href="#m3e32bd5441" x="198.239504" y="125.978302" style="fill: #ffb612; stroke: #ffb612"/>
     <use xlink:href="#m3e32bd5441" x="199.6375" y="125.043544" style="fill: #ffb612; stroke: #ffb612"/>
     <use xlink:href="#m3e32bd5441" x="201.035495" y="146.546948" style="fill: #ffb612; stroke: #ffb612"/>
     <use xlink:href="#m3e32bd5441" x="202.433491" y="123.264781" style="fill: #ffb612; stroke: #ffb612"/>
     <use xlink:href="#m3e32bd5441" x="203.831487" y="125.421483" style="fill: #ffb612; stroke: #ffb612"/>
     <use xlink:href="#m3e32bd5441" x="205.229482" y="147.807546" style="fill: #ffb612; stroke: #ffb612"/>
     <use xlink:href="#m3e32bd5441" x="206.627478" y="148.322236" style="fill: #ffb612; stroke: #ffb612"/>
     <use xlink:href="#m3e32bd5441" x="208.025474" y="148.932464" style="fill: #ffb612; stroke: #ffb612"/>
     <use xlink:href="#m3e32bd5441" x="209.423469" y="149.236165" style="fill: #ffb612; stroke: #ffb612"/>
     <use xlink:href="#m3e32bd5441" x="210.821465" y="149.159697" style="fill: #ffb612; stroke: #ffb612"/>
     <use xlink:href="#m3e32bd5441" x="212.219461" y="149.468904" style="fill: #ffb612; stroke: #ffb612"/>
     <use xlink:href="#m3e32bd5441" x="213.617457" y="149.479058" style="fill: #ffb612; stroke: #ffb612"/>
     <use xlink:href="#m3e32bd5441" x="215.015452" y="149.902321" style="fill: #ffb612; stroke: #ffb612"/>
     <use xlink:href="#m3e32bd5441" x="216.413448" y="149.144501" style="fill: #ffb612; stroke: #ffb612"/>
     <use xlink:href="#m3e32bd5441" x="217.811444" y="148.608201" style="fill: #ffb612; stroke: #ffb612"/>
     <use xlink:href="#m3e32bd5441" x="219.209439" y="148.921239" style="fill: #ffb612; stroke: #ffb612"/>
     <use xlink:href="#m3e32bd5441" x="220.607435" y="148.370141" style="fill: #ffb612; stroke: #ffb612"/>
     <use xlink:href="#m3e32bd5441" x="222.005431" y="148.715837" style="fill: #ffb612; stroke: #ffb612"/>
     <use xlink:href="#m3e32bd5441" x="223.403427" y="148.627804" style="fill: #ffb612; stroke: #ffb612"/>
     <use xlink:href="#m3e32bd5441" x="224.801422" y="147.941534" style="fill: #ffb612; stroke: #ffb612"/>
     <use xlink:href="#m3e32bd5441" x="226.199418" y="147.949408" style="fill: #ffb612; stroke: #ffb612"/>
     <use xlink:href="#m3e32bd5441" x="227.597414" y="147.443275" style="fill: #ffb612; stroke: #ffb612"/>
     <use xlink:href="#m3e32bd5441" x="228.995409" y="146.963567" style="fill: #ffb612; stroke: #ffb612"/>
     <use xlink:href="#m3e32bd5441" x="230.393405" y="147.206236" style="fill: #ffb612; stroke: #ffb612"/>
     <use xlink:href="#m3e32bd5441" x="231.791401" y="147.055653" style="fill: #ffb612; stroke: #ffb612"/>
     <use xlink:href="#m3e32bd5441" x="233.189396" y="146.791402" style="fill: #ffb612; stroke: #ffb612"/>
     <use xlink:href="#m3e32bd5441" x="234.587392" y="124.325917" style="fill: #ffb612; stroke: #ffb612"/>
     <use xlink:href="#m3e32bd5441" x="235.985388" y="124.523794" style="fill: #ffb612; stroke: #ffb612"/>
     <use xlink:href="#m3e32bd5441" x="237.383384" y="123.814162" style="fill: #ffb612; stroke: #ffb612"/>
     <use xlink:href="#m3e32bd5441" x="238.781379" y="122.95923" style="fill: #ffb612; stroke: #ffb612"/>
     <use xlink:href="#m3e32bd5441" x="240.179375" y="146.993578" style="fill: #ffb612; stroke: #ffb612"/>
     <use xlink:href="#m3e32bd5441" x="241.577371" y="146.784948" style="fill: #ffb612; stroke: #ffb612"/>
     <use xlink:href="#m3e32bd5441" x="242.975366" y="146.350251" style="fill: #ffb612; stroke: #ffb612"/>
     <use xlink:href="#m3e32bd5441" x="244.373362" y="122.20894" style="fill: #ffb612; stroke: #ffb612"/>
     <use xlink:href="#m3e32bd5441" x="245.771358" y="122.467612" style="fill: #ffb612; stroke: #ffb612"/>
     <use xlink:href="#m3e32bd5441" x="247.169354" y="122.545612" style="fill: #ffb612; stroke: #ffb612"/>
     <use xlink:href="#m3e32bd5441" x="248.567349" y="124.048" style="fill: #ffb612; stroke: #ffb612"/>
     <use xlink:href="#m3e32bd5441" x="249.965345" y="123.609155" style="fill: #ffb612; stroke: #ffb612"/>
     <use xlink:href="#m3e32bd5441" x="251.363341" y="124.076365" style="fill: #ffb612; stroke: #ffb612"/>
     <use xlink:href="#m3e32bd5441" x="252.761336" y="125.3962" style="fill: #ffb612; stroke: #ffb612"/>
     <use xlink:href="#m3e32bd5441" x="254.159332" y="147.598579" style="fill: #ffb612; stroke: #ffb612"/>
     <use xlink:href="#m3e32bd5441" x="255.557328" y="126.980224" style="fill: #ffb612; stroke: #ffb612"/>
     <use xlink:href="#m3e32bd5441" x="256.955323" y="126.949428" style="fill: #ffb612; stroke: #ffb612"/>
     <use xlink:href="#m3e32bd5441" x="258.353319" y="125.488293" style="fill: #ffb612; stroke: #ffb612"/>
     <use xlink:href="#m3e32bd5441" x="259.751315" y="126.907001" style="fill: #ffb612; stroke: #ffb612"/>
     <use xlink:href="#m3e32bd5441" x="261.149311" y="124.484778" style="fill: #ffb612; stroke: #ffb612"/>
     <use xlink:href="#m3e32bd5441" x="262.547306" y="122.780413" style="fill: #ffb612; stroke: #ffb612"/>
     <use xlink:href="#m3e32bd5441" x="263.945302" y="145.915079" style="fill: #ffb612; stroke: #ffb612"/>
     <use xlink:href="#m3e32bd5441" x="265.343298" y="147.681088" style="fill: #ffb612; stroke: #ffb612"/>
     <use xlink:href="#m3e32bd5441" x="266.741293" y="124.163195" style="fill: #ffb612; stroke: #ffb612"/>
     <use xlink:href="#m3e32bd5441" x="268.139289" y="122.391102" style="fill: #ffb612; stroke: #ffb612"/>
     <use xlink:href="#m3e32bd5441" x="269.537285" y="121.898081" style="fill: #ffb612; stroke: #ffb612"/>
     <use xlink:href="#m3e32bd5441" x="270.935281" y="121.984135" style="fill: #ffb612; stroke: #ffb612"/>
     <use xlink:href="#m3e32bd5441" x="272.333276" y="113.045011" style="fill: #ffb612; stroke: #ffb612"/>
     <use xlink:href="#m3e32bd5441" x="273.731272" y="112.332352" style="fill: #ffb612; stroke: #ffb612"/>
     <use xlink:href="#m3e32bd5441" x="275.129268" y="112.932222" style="fill: #ffb612; stroke: #ffb612"/>
     <use xlink:href="#m3e32bd5441" x="276.527263" y="115.534351" style="fill: #ffb612; stroke: #ffb612"/>
     <use xlink:href="#m3e32bd5441" x="277.925259" y="113.446522" style="fill: #ffb612; stroke: #ffb612"/>
     <use xlink:href="#m3e32bd5441" x="279.323255" y="112.13326" style="fill: #ffb612; stroke: #ffb612"/>
     <use xlink:href="#m3e32bd5441" x="280.72125" y="106.439858" style="fill: #ffb612; stroke: #ffb612"/>
     <use xlink:href="#m3e32bd5441" x="282.119246" y="70.801889" style="fill: #ffb612; stroke: #ffb612"/>
     <use xlink:href="#m3e32bd5441" x="283.517242" y="29.041745" style="fill: #ffb612; stroke: #ffb612"/>
     <use xlink:href="#m3e32bd5441" x="284.915238" y="25.152667" style="fill: #ffb612; stroke: #ffb612"/>
     <use xlink:href="#m3e32bd5441" x="286.313233" y="67.759361" style="fill: #ffb612; stroke: #ffb612"/>
     <use xlink:href="#m3e32bd5441" x="287.711229" y="72.183666" style="fill: #ffb612; stroke: #ffb612"/>
     <use xlink:href="#m3e32bd5441" x="289.109225" y="74.536493" style="fill: #ffb612; stroke: #ffb612"/>
     <use xlink:href="#m3e32bd5441" x="290.50722" y="75.530395" style="fill: #ffb612; stroke: #ffb612"/>
     <use xlink:href="#m3e32bd5441" x="291.905216" y="104.933474" style="fill: #ffb612; stroke: #ffb612"/>
     <use xlink:href="#m3e32bd5441" x="293.303212" y="107.985228" style="fill: #ffb612; stroke: #ffb612"/>
     <use xlink:href="#m3e32bd5441" x="294.701207" y="106.804194" style="fill: #ffb612; stroke: #ffb612"/>
     <use xlink:href="#m3e32bd5441" x="296.099203" y="109.611846" style="fill: #ffb612; stroke: #ffb612"/>
     <use xlink:href="#m3e32bd5441" x="297.497199" y="109.84316" style="fill: #ffb612; stroke: #ffb612"/>
     <use xlink:href="#m3e32bd5441" x="298.895195" y="111.309418" style="fill: #ffb612; stroke: #ffb612"/>
     <use xlink:href="#m3e32bd5441" x="300.29319" y="111.709809" style="fill: #ffb612; stroke: #ffb612"/>
     <use xlink:href="#m3e32bd5441" x="301.691186" y="118.43083" style="fill: #ffb612; stroke: #ffb612"/>
     <use xlink:href="#m3e32bd5441" x="303.089182" y="118.403398" style="fill: #ffb612; stroke: #ffb612"/>
     <use xlink:href="#m3e32bd5441" x="304.487177" y="121.745137" style="fill: #ffb612; stroke: #ffb612"/>
     <use xlink:href="#m3e32bd5441" x="305.885173" y="124.149556" style="fill: #ffb612; stroke: #ffb612"/>
     <use xlink:href="#m3e32bd5441" x="307.283169" y="125.846998" style="fill: #ffb612; stroke: #ffb612"/>
     <use xlink:href="#m3e32bd5441" x="308.681165" y="125.458511" style="fill: #ffb612; stroke: #ffb612"/>
     <use xlink:href="#m3e32bd5441" x="310.07916" y="125.732901" style="fill: #ffb612; stroke: #ffb612"/>
     <use xlink:href="#m3e32bd5441" x="311.477156" y="148.615191" style="fill: #ffb612; stroke: #ffb612"/>
     <use xlink:href="#m3e32bd5441" x="312.875152" y="148.68664" style="fill: #ffb612; stroke: #ffb612"/>
     <use xlink:href="#m3e32bd5441" x="314.273147" y="148.266984" style="fill: #ffb612; stroke: #ffb612"/>
     <use xlink:href="#m3e32bd5441" x="315.671143" y="129.861483" style="fill: #ffb612; stroke: #ffb612"/>
     <use xlink:href="#m3e32bd5441" x="317.069139" y="147.987663" style="fill: #ffb612; stroke: #ffb612"/>
     <use xlink:href="#m3e32bd5441" x="318.467134" y="147.870611" style="fill: #ffb612; stroke: #ffb612"/>
     <use xlink:href="#m3e32bd5441" x="319.86513" y="148.124773" style="fill: #ffb612; stroke: #ffb612"/>
     <use xlink:href="#m3e32bd5441" x="321.263126" y="147.484219" style="fill: #ffb612; stroke: #ffb612"/>
     <use xlink:href="#m3e32bd5441" x="322.661122" y="127.397437" style="fill: #ffb612; stroke: #ffb612"/>
     <use xlink:href="#m3e32bd5441" x="324.059117" y="147.039609" style="fill: #ffb612; stroke: #ffb612"/>
     <use xlink:href="#m3e32bd5441" x="325.457113" y="127.078663" style="fill: #ffb612; stroke: #ffb612"/>
     <use xlink:href="#m3e32bd5441" x="326.855109" y="126.097918" style="fill: #ffb612; stroke: #ffb612"/>
     <use xlink:href="#m3e32bd5441" x="328.253104" y="124.998394" style="fill: #ffb612; stroke: #ffb612"/>
     <use xlink:href="#m3e32bd5441" x="329.6511" y="124.654149" style="fill: #ffb612; stroke: #ffb612"/>
     <use xlink:href="#m3e32bd5441" x="331.049096" y="102.842781" style="fill: #ffb612; stroke: #ffb612"/>
     <use xlink:href="#m3e32bd5441" x="332.447092" y="120.816143" style="fill: #ffb612; stroke: #ffb612"/>
     <use xlink:href="#m3e32bd5441" x="333.845087" y="119.169402" style="fill: #ffb612; stroke: #ffb612"/>
     <use xlink:href="#m3e32bd5441" x="335.243083" y="117.56383" style="fill: #ffb612; stroke: #ffb612"/>
     <use xlink:href="#m3e32bd5441" x="336.641079" y="120.497457" style="fill: #ffb612; stroke: #ffb612"/>
     <use xlink:href="#m3e32bd5441" x="338.039074" y="121.305142" style="fill: #ffb612; stroke: #ffb612"/>
     <use xlink:href="#m3e32bd5441" x="339.43707" y="101.440312" style="fill: #ffb612; stroke: #ffb612"/>
     <use xlink:href="#m3e32bd5441" x="340.835066" y="119.549607" style="fill: #ffb612; stroke: #ffb612"/>
     <use xlink:href="#m3e32bd5441" x="342.233061" y="123.333442" style="fill: #ffb612; stroke: #ffb612"/>
     <use xlink:href="#m3e32bd5441" x="343.631057" y="123.34369" style="fill: #ffb612; stroke: #ffb612"/>
     <use xlink:href="#m3e32bd5441" x="345.029053" y="123.872588" style="fill: #ffb612; stroke: #ffb612"/>
     <use xlink:href="#m3e32bd5441" x="346.427049" y="125.707515" style="fill: #ffb612; stroke: #ffb612"/>
     <use xlink:href="#m3e32bd5441" x="347.825044" y="145.972278" style="fill: #ffb612; stroke: #ffb612"/>
     <use xlink:href="#m3e32bd5441" x="349.22304" y="127.916779" style="fill: #ffb612; stroke: #ffb612"/>
     <use xlink:href="#m3e32bd5441" x="350.621036" y="125.901113" style="fill: #ffb612; stroke: #ffb612"/>
     <use xlink:href="#m3e32bd5441" x="352.019031" y="155.759665" style="fill: #ffb612; stroke: #ffb612"/>
     <use xlink:href="#m3e32bd5441" x="353.417027" y="156.169803" style="fill: #ffb612; stroke: #ffb612"/>
     <use xlink:href="#m3e32bd5441" x="354.815023" y="156.288859" style="fill: #ffb612; stroke: #ffb612"/>
     <use xlink:href="#m3e32bd5441" x="356.213019" y="156.054557" style="fill: #ffb612; stroke: #ffb612"/>
     <use xlink:href="#m3e32bd5441" x="357.611014" y="156.62342" style="fill: #ffb612; stroke: #ffb612"/>
     <use xlink:href="#m3e32bd5441" x="359.00901" y="156.459999" style="fill: #ffb612; stroke: #ffb612"/>
     <use xlink:href="#m3e32bd5441" x="360.407006" y="156.798554" style="fill: #ffb612; stroke: #ffb612"/>
     <use xlink:href="#m3e32bd5441" x="361.805001" y="156.814817" style="fill: #ffb612; stroke: #ffb612"/>
     <use xlink:href="#m3e32bd5441" x="363.202997" y="156.72684" style="fill: #ffb612; stroke: #ffb612"/>
     <use xlink:href="#m3e32bd5441" x="364.600993" y="157.017235" style="fill: #ffb612; stroke: #ffb612"/>
     <use xlink:href="#m3e32bd5441" x="365.998988" y="156.842094" style="fill: #ffb612; stroke: #ffb612"/>
     <use xlink:href="#m3e32bd5441" x="367.396984" y="157.575201" style="fill: #ffb612; stroke: #ffb612"/>
     <use xlink:href="#m3e32bd5441" x="368.79498" y="157.011497" style="fill: #ffb612; stroke: #ffb612"/>
     <use xlink:href="#m3e32bd5441" x="370.192976" y="156.237209" style="fill: #ffb612; stroke: #ffb612"/>
     <use xlink:href="#m3e32bd5441" x="371.590971" y="154.939837" style="fill: #ffb612; stroke: #ffb612"/>
     <use xlink:href="#m3e32bd5441" x="372.988967" y="155.431697" style="fill: #ffb612; stroke: #ffb612"/>
     <use xlink:href="#m3e32bd5441" x="374.386963" y="155.719281" style="fill: #ffb612; stroke: #ffb612"/>
     <use xlink:href="#m3e32bd5441" x="375.784958" y="155.367319" style="fill: #ffb612; stroke: #ffb612"/>
     <use xlink:href="#m3e32bd5441" x="377.182954" y="155.493944" style="fill: #ffb612; stroke: #ffb612"/>
     <use xlink:href="#m3e32bd5441" x="378.58095" y="155.648177" style="fill: #ffb612; stroke: #ffb612"/>
     <use xlink:href="#m3e32bd5441" x="379.978946" y="150.658391" style="fill: #ffb612; stroke: #ffb612"/>
     <use xlink:href="#m3e32bd5441" x="381.376941" y="150.374526" style="fill: #ffb612; stroke: #ffb612"/>
     <use xlink:href="#m3e32bd5441" x="382.774937" y="150.590339" style="fill: #ffb612; stroke: #ffb612"/>
     <use xlink:href="#m3e32bd5441" x="384.172933" y="150.079942" style="fill: #ffb612; stroke: #ffb612"/>
     <use xlink:href="#m3e32bd5441" x="385.570928" y="149.791298" style="fill: #ffb612; stroke: #ffb612"/>
     <use xlink:href="#m3e32bd5441" x="386.968924" y="145.128749" style="fill: #ffb612; stroke: #ffb612"/>
     <use xlink:href="#m3e32bd5441" x="388.36692" y="146.227626" style="fill: #ffb612; stroke: #ffb612"/>
     <use xlink:href="#m3e32bd5441" x="389.764915" y="123.025415" style="fill: #ffb612; stroke: #ffb612"/>
     <use xlink:href="#m3e32bd5441" x="391.162911" y="124.419886" style="fill: #ffb612; stroke: #ffb612"/>
     <use xlink:href="#m3e32bd5441" x="392.560907" y="120.37851" style="fill: #ffb612; stroke: #ffb612"/>
     <use xlink:href="#m3e32bd5441" x="393.958903" y="118.124434" style="fill: #ffb612; stroke: #ffb612"/>
     <use xlink:href="#m3e32bd5441" x="395.356898" y="119.08367" style="fill: #ffb612; stroke: #ffb612"/>
     <use xlink:href="#m3e32bd5441" x="396.754894" y="115.698904" style="fill: #ffb612; stroke: #ffb612"/>
     <use xlink:href="#m3e32bd5441" x="398.15289" y="117.137863" style="fill: #ffb612; stroke: #ffb612"/>
     <use xlink:href="#m3e32bd5441" x="399.550885" y="112.075817" style="fill: #ffb612; stroke: #ffb612"/>
     <use xlink:href="#m3e32bd5441" x="400.948881" y="108.19619" style="fill: #ffb612; stroke: #ffb612"/>
     <use xlink:href="#m3e32bd5441" x="402.346877" y="103.432173" style="fill: #ffb612; stroke: #ffb612"/>
     <use xlink:href="#m3e32bd5441" x="403.744872" y="104.561082" style="fill: #ffb612; stroke: #ffb612"/>
     <use xlink:href="#m3e32bd5441" x="405.142868" y="106.259349" style="fill: #ffb612; stroke: #ffb612"/>
     <use xlink:href="#m3e32bd5441" x="406.540864" y="100.14747" style="fill: #ffb612; stroke: #ffb612"/>
     <use xlink:href="#m3e32bd5441" x="407.93886" y="91.434562" style="fill: #ffb612; stroke: #ffb612"/>
     <use xlink:href="#m3e32bd5441" x="409.336855" y="97.033337" style="fill: #ffb612; stroke: #ffb612"/>
     <use xlink:href="#m3e32bd5441" x="410.734851" y="49.092129" style="fill: #ffb612; stroke: #ffb612"/>
     <use xlink:href="#m3e32bd5441" x="412.132847" y="41.615193" style="fill: #ffb612; stroke: #ffb612"/>
     <use xlink:href="#m3e32bd5441" x="413.530842" y="47.014317" style="fill: #ffb612; stroke: #ffb612"/>
     <use xlink:href="#m3e32bd5441" x="414.928838" y="92.194928" style="fill: #ffb612; stroke: #ffb612"/>
     <use xlink:href="#m3e32bd5441" x="416.326834" y="90.207016" style="fill: #ffb612; stroke: #ffb612"/>
     <use xlink:href="#m3e32bd5441" x="417.72483" y="91.271334" style="fill: #ffb612; stroke: #ffb612"/>
    </g>
   </g>
   <g id="line2d_30">
    <path d="M 62.63392 135.520633 
L 64.031916 135.137118 
L 65.429912 130.807812 
L 66.827908 132.596424 
L 68.225903 132.042333 
L 69.623899 132.168838 
L 71.021895 135.493076 
L 72.41989 134.994653 
L 73.817886 135.585338 
L 75.215882 135.892388 
L 76.613878 138.566196 
L 78.011873 138.917212 
L 79.409869 137.978999 
L 80.807865 135.932477 
L 82.20586 131.268068 
L 83.603856 130.366602 
L 85.001852 130.065494 
L 86.399847 129.022919 
L 87.797843 129.860876 
L 89.195839 130.23752 
L 90.593835 128.082524 
L 91.99183 125.428715 
L 93.389826 125.722343 
L 94.787822 125.017648 
L 96.185817 118.231937 
L 97.583813 116.718767 
L 98.981809 114.080906 
L 100.379804 117.896942 
L 101.7778 120.925163 
L 103.175796 120.099127 
L 104.573792 122.159029 
L 105.971787 122.652711 
L 107.369783 129.970491 
L 108.767779 134.160033 
L 110.165774 132.548312 
L 111.56377 136.388217 
L 112.961766 134.308725 
L 114.359762 135.645304 
L 115.757757 131.477078 
L 117.155753 136.820227 
L 118.553749 140.323996 
L 119.951744 141.021646 
L 122.747736 141.08115 
L 124.145731 141.034411 
L 125.543727 145.925949 
L 126.941723 143.81645 
L 128.339719 144.19647 
L 129.737714 143.851119 
L 131.13571 145.688993 
L 132.533706 145.852771 
L 133.931701 144.944677 
L 135.329697 145.951429 
L 136.727693 143.868985 
L 138.125689 141.166231 
L 139.523684 142.217446 
L 140.92168 148.223323 
L 142.319676 149.274486 
L 143.717671 148.624897 
L 145.115667 145.813467 
L 146.513663 145.468785 
L 147.911658 143.285542 
L 149.309654 142.350145 
L 150.70765 140.509596 
L 152.105646 139.7338 
L 153.503641 139.634251 
L 154.901637 136.093594 
L 156.299633 138.859537 
L 157.697628 139.387273 
L 159.095624 146.478886 
L 160.49362 146.471782 
L 161.891616 144.463528 
L 163.289611 143.756182 
L 164.687607 144.814961 
L 166.085603 145.203859 
L 167.483598 145.009867 
L 168.881594 143.666556 
L 170.27959 147.432666 
L 171.677585 147.878119 
L 173.075581 147.600754 
L 174.473577 148.49253 
L 175.871573 148.936344 
L 177.269568 148.74657 
L 178.667564 145.722252 
L 180.06556 145.144163 
L 181.463555 142.706003 
L 182.861551 143.106647 
L 184.259547 142.067067 
L 185.657543 139.891615 
L 187.055538 139.942056 
L 188.453534 140.810397 
L 189.85153 140.189582 
L 191.249525 138.478098 
L 192.647521 137.601819 
L 194.045517 140.922562 
L 195.443512 138.463395 
L 196.841508 142.000381 
L 198.239504 143.445993 
L 199.6375 143.996095 
L 201.035495 144.703752 
L 202.433491 142.853822 
L 203.831487 144.332061 
L 205.229482 147.519584 
L 206.627478 148.246886 
L 209.423469 150.524101 
L 210.821465 149.747511 
L 213.617457 150.239724 
L 215.015452 152.139493 
L 216.413448 150.187569 
L 217.811444 149.329398 
L 219.209439 149.259426 
L 220.607435 148.532625 
L 222.005431 149.167956 
L 223.403427 148.864072 
L 224.801422 147.318835 
L 226.199418 146.964844 
L 227.597414 146.82266 
L 228.995409 144.429045 
L 230.393405 145.799793 
L 231.791401 145.5583 
L 233.189396 144.489799 
L 234.587392 141.146273 
L 235.985388 143.49322 
L 237.383384 143.3667 
L 238.781379 142.608007 
L 240.179375 145.632137 
L 241.577371 145.602372 
L 242.975366 144.935587 
L 244.373362 143.633829 
L 245.771358 142.631056 
L 247.169354 141.452277 
L 248.567349 141.082117 
L 249.965345 140.966674 
L 251.363341 140.602529 
L 252.761336 143.576162 
L 254.159332 144.672087 
L 255.557328 144.368602 
L 256.955323 143.849215 
L 258.353319 144.282257 
L 259.751315 141.408064 
L 261.149311 141.956124 
L 262.547306 141.467013 
L 263.945302 145.042444 
L 265.343298 145.779811 
L 266.741293 138.246347 
L 268.139289 138.280215 
L 269.537285 135.977748 
L 270.935281 136.263239 
L 272.333276 117.316211 
L 273.731272 106.184697 
L 275.129268 111.820161 
L 276.527263 116.246947 
L 277.925259 110.344019 
L 279.323255 107.350311 
L 280.72125 95.675287 
L 282.119246 67.397216 
L 283.517242 31.845647 
L 284.915238 23.66984 
L 286.313233 55.784496 
L 287.711229 67.840033 
L 289.109225 88.633644 
L 290.50722 84.623706 
L 291.905216 94.246145 
L 293.303212 102.168829 
L 294.701207 103.927708 
L 296.099203 109.832468 
L 297.497199 109.902257 
L 298.895195 113.238586 
L 300.29319 117.510723 
L 301.691186 130.501433 
L 303.089182 134.389293 
L 304.487177 135.195313 
L 305.885173 140.9738 
L 307.283169 141.852823 
L 310.07916 141.974294 
L 311.477156 145.970023 
L 312.875152 145.929708 
L 314.273147 145.340538 
L 315.671143 144.578207 
L 317.069139 144.628488 
L 318.467134 145.426036 
L 319.86513 147.151388 
L 321.263126 145.680632 
L 322.661122 144.931709 
L 324.059117 145.49154 
L 325.457113 140.693161 
L 326.855109 137.492486 
L 328.253104 137.278264 
L 329.6511 137.547252 
L 331.049096 109.593072 
L 332.447092 125.257246 
L 333.845087 120.279728 
L 335.243083 120.779638 
L 336.641079 120.81656 
L 338.039074 121.591294 
L 339.43707 112.550937 
L 340.835066 119.197995 
L 342.233061 128.214057 
L 343.631057 135.047574 
L 345.029053 133.979841 
L 346.427049 133.994715 
L 347.825044 146.634159 
L 349.22304 142.787459 
L 350.621036 144.974342 
L 352.019031 155.004313 
L 353.417027 155.507574 
L 354.815023 155.083135 
L 356.213019 155.102603 
L 357.611014 155.672426 
L 359.00901 155.855593 
L 360.407006 156.161042 
L 361.805001 155.853949 
L 363.202997 155.81092 
L 364.600993 155.633708 
L 365.998988 155.649551 
L 367.396984 156.425229 
L 368.79498 156.627782 
L 370.192976 156.612278 
L 371.590971 154.538798 
L 372.988967 154.86414 
L 374.386963 154.496935 
L 375.784958 154.508422 
L 378.58095 153.554591 
L 379.978946 152.474716 
L 381.376941 152.109865 
L 384.172933 150.510411 
L 385.570928 150.516604 
L 386.968924 144.063327 
L 388.36692 144.829232 
L 389.764915 141.214696 
L 391.162911 139.60023 
L 392.560907 134.244972 
L 393.958903 131.92878 
L 395.356898 131.954401 
L 396.754894 124.936748 
L 398.15289 120.756118 
L 399.550885 117.359756 
L 402.346877 101.600443 
L 403.744872 100.381672 
L 405.142868 100.382986 
L 406.540864 101.721749 
L 407.93886 77.114629 
L 409.336855 85.445856 
L 410.734851 60.074161 
L 412.132847 57.301253 
L 413.530842 61.208293 
L 414.928838 75.787187 
L 416.326834 76.396125 
L 417.72483 76.559114 
L 417.72483 76.559114 
" clip-path="url(#p5f37dba902)" style="fill: none; stroke-dasharray: 5.55,2.4; stroke-dashoffset: 0; stroke: #000000; stroke-width: 1.5"/>
   </g>
   <g id="patch_3">
    <path d="M 44.879375 166.32 
L 44.879375 0 
" style="fill: none; stroke: #ffffff; stroke-linejoin: miter; stroke-linecap: square"/>
   </g>
   <g id="patch_4">
    <path d="M 435.479375 166.32 
L 435.479375 0 
" style="fill: none; stroke: #ffffff; stroke-linejoin: miter; stroke-linecap: square"/>
   </g>
   <g id="patch_5">
    <path d="M 44.879375 166.32 
L 435.479375 166.32 
" style="fill: none; stroke: #ffffff; stroke-linejoin: miter; stroke-linecap: square"/>
   </g>
   <g id="patch_6">
    <path d="M 44.879375 0 
L 435.479375 0 
" style="fill: none; stroke: #ffffff; stroke-linejoin: miter; stroke-linecap: square"/>
   </g>
   <g id="legend_1">
    <g id="patch_7">
     <path d="M 51.879375 60.378125 
L 203.92625 60.378125 
Q 205.92625 60.378125 205.92625 58.378125 
L 205.92625 7 
Q 205.92625 5 203.92625 5 
L 51.879375 5 
Q 49.879375 5 49.879375 7 
L 49.879375 58.378125 
Q 49.879375 60.378125 51.879375 60.378125 
z
" style="fill: #e5e5e5; opacity: 0.8; stroke: #cccccc; stroke-width: 0.5; stroke-linejoin: miter"/>
    </g>
    <g id="line2d_31">
     <path d="M 53.879375 15.5 
L 63.879375 15.5 
L 73.879375 15.5 
" style="fill: none; stroke: #ffb612; stroke-width: 3; stroke-linecap: square"/>
     <g>
      <use xlink:href="#m3e32bd5441" x="63.879375" y="15.5" style="fill: #ffb612; stroke: #ffb612"/>
     </g>
    </g>
    <g id="text_17">
     <!-- Private Value $\tilde{R}_{\chi_3,\chi_1}^t$ -->
     <g transform="translate(81.879375 19) scale(0.1 -0.1)">
      <defs>
       <path id="DejaVuSans-50" d="M 1259 4147 
L 1259 2394 
L 2053 2394 
Q 2494 2394 2734 2622 
Q 2975 2850 2975 3272 
Q 2975 3691 2734 3919 
Q 2494 4147 2053 4147 
L 1259 4147 
z
M 628 4666 
L 2053 4666 
Q 2838 4666 3239 4311 
Q 3641 3956 3641 3272 
Q 3641 2581 3239 2228 
Q 2838 1875 2053 1875 
L 1259 1875 
L 1259 0 
L 628 0 
L 628 4666 
z
" transform="scale(0.015625)"/>
       <path id="DejaVuSans-72" d="M 2631 2963 
Q 2534 3019 2420 3045 
Q 2306 3072 2169 3072 
Q 1681 3072 1420 2755 
Q 1159 2438 1159 1844 
L 1159 0 
L 581 0 
L 581 3500 
L 1159 3500 
L 1159 2956 
Q 1341 3275 1631 3429 
Q 1922 3584 2338 3584 
Q 2397 3584 2469 3576 
Q 2541 3569 2628 3553 
L 2631 2963 
z
" transform="scale(0.015625)"/>
       <path id="DejaVuSans-69" d="M 603 3500 
L 1178 3500 
L 1178 0 
L 603 0 
L 603 3500 
z
M 603 4863 
L 1178 4863 
L 1178 4134 
L 603 4134 
L 603 4863 
z
" transform="scale(0.015625)"/>
       <path id="DejaVuSans-76" d="M 191 3500 
L 800 3500 
L 1894 563 
L 2988 3500 
L 3597 3500 
L 2284 0 
L 1503 0 
L 191 3500 
z
" transform="scale(0.015625)"/>
       <path id="DejaVuSans-20" transform="scale(0.015625)"/>
       <path id="DejaVuSans-303" d="M -1621 4281 
L -1799 4453 
Q -1867 4516 -1919 4545 
Q -1971 4575 -2011 4575 
Q -2130 4575 -2186 4461 
Q -2242 4347 -2249 4091 
L -2639 4091 
Q -2633 4513 -2473 4742 
Q -2314 4972 -2030 4972 
Q -1911 4972 -1811 4928 
Q -1711 4884 -1596 4781 
L -1417 4609 
Q -1349 4547 -1297 4517 
Q -1246 4488 -1205 4488 
Q -1086 4488 -1030 4602 
Q -974 4716 -967 4972 
L -577 4972 
Q -583 4550 -742 4320 
Q -902 4091 -1186 4091 
Q -1305 4091 -1405 4134 
Q -1505 4178 -1621 4281 
z
" transform="scale(0.015625)"/>
       <path id="DejaVuSans-Oblique-52" d="M 1613 4147 
L 1294 2491 
L 2106 2491 
Q 2584 2491 2879 2755 
Q 3175 3019 3175 3444 
Q 3175 3784 2976 3965 
Q 2778 4147 2406 4147 
L 1613 4147 
z
M 2772 2241 
Q 2972 2194 3105 2009 
Q 3238 1825 3413 1275 
L 3809 0 
L 3144 0 
L 2778 1197 
Q 2638 1659 2453 1815 
Q 2269 1972 1888 1972 
L 1191 1972 
L 806 0 
L 172 0 
L 1081 4666 
L 2503 4666 
Q 3150 4666 3495 4373 
Q 3841 4081 3841 3531 
Q 3841 3044 3547 2687 
Q 3253 2331 2772 2241 
z
" transform="scale(0.015625)"/>
       <path id="DejaVuSans-Oblique-74" d="M 2706 3500 
L 2619 3053 
L 1472 3053 
L 1100 1153 
Q 1081 1047 1072 975 
Q 1063 903 1063 863 
Q 1063 663 1183 572 
Q 1303 481 1569 481 
L 2150 481 
L 2053 0 
L 1503 0 
Q 991 0 739 200 
Q 488 400 488 806 
Q 488 878 497 964 
Q 506 1050 525 1153 
L 897 3053 
L 409 3053 
L 500 3500 
L 978 3500 
L 1172 4494 
L 1747 4494 
L 1556 3500 
L 2706 3500 
z
" transform="scale(0.015625)"/>
       <path id="DejaVuSans-Oblique-3c7" d="M 1922 -781 
L 1691 416 
L 394 -1334 
L -284 -1334 
L 1553 1141 
L 1269 2613 
Q 1194 3006 713 3006 
L 559 3006 
L 653 3500 
L 872 3494 
Q 1675 3472 1775 2950 
L 2006 1753 
L 3303 3503 
L 3981 3503 
L 2144 1028 
L 2428 -444 
Q 2503 -838 2984 -838 
L 3138 -838 
L 3044 -1331 
L 2825 -1325 
Q 2022 -1303 1922 -781 
z
" transform="scale(0.015625)"/>
       <path id="DejaVuSans-2c" d="M 750 794 
L 1409 794 
L 1409 256 
L 897 -744 
L 494 -744 
L 750 256 
L 750 794 
z
" transform="scale(0.015625)"/>
      </defs>
      <use xlink:href="#DejaVuSans-50" transform="translate(0 0.828125)"/>
      <use xlink:href="#DejaVuSans-72" transform="translate(60.302734 0.828125)"/>
      <use xlink:href="#DejaVuSans-69" transform="translate(101.416016 0.828125)"/>
      <use xlink:href="#DejaVuSans-76" transform="translate(129.199219 0.828125)"/>
      <use xlink:href="#DejaVuSans-61" transform="translate(188.378906 0.828125)"/>
      <use xlink:href="#DejaVuSans-74" transform="translate(249.658203 0.828125)"/>
      <use xlink:href="#DejaVuSans-65" transform="translate(288.867188 0.828125)"/>
      <use xlink:href="#DejaVuSans-20" transform="translate(350.390625 0.828125)"/>
      <use xlink:href="#DejaVuSans-56" transform="translate(382.177734 0.828125)"/>
      <use xlink:href="#DejaVuSans-61" transform="translate(450.585938 0.828125)"/>
      <use xlink:href="#DejaVuSans-6c" transform="translate(511.865234 0.828125)"/>
      <use xlink:href="#DejaVuSans-75" transform="translate(539.648438 0.828125)"/>
      <use xlink:href="#DejaVuSans-65" transform="translate(603.027344 0.828125)"/>
      <use xlink:href="#DejaVuSans-20" transform="translate(664.550781 0.828125)"/>
      <use xlink:href="#DejaVuSans-303" transform="translate(764.942871 22.3125)"/>
      <use xlink:href="#DejaVuSans-Oblique-52" transform="translate(696.337891 0.828125)"/>
      <use xlink:href="#DejaVuSans-Oblique-74" transform="translate(766.777344 39.109375) scale(0.7)"/>
      <use xlink:href="#DejaVuSans-Oblique-3c7" transform="translate(766.777344 -26.515625) scale(0.7)"/>
      <use xlink:href="#DejaVuSans-33" transform="translate(808.203125 -38) scale(0.49)"/>
      <use xlink:href="#DejaVuSans-2c" transform="translate(841.29248 -26.515625) scale(0.7)"/>
      <use xlink:href="#DejaVuSans-Oblique-3c7" transform="translate(877.181152 -26.515625) scale(0.7)"/>
      <use xlink:href="#DejaVuSans-31" transform="translate(918.606934 -38) scale(0.49)"/>
     </g>
    </g>
    <g id="line2d_32">
     <path d="M 53.879375 34 
L 63.879375 34 
L 73.879375 34 
" style="fill: none; stroke-dasharray: 5.55,2.4; stroke-dashoffset: 0; stroke: #000000; stroke-width: 1.5"/>
    </g>
    <g id="text_18">
     <!-- Original Value $\bar{R}_{\chi_3,\chi_1}^t$ -->
     <g transform="translate(81.879375 37.5) scale(0.1 -0.1)">
      <defs>
       <path id="DejaVuSans-4f" d="M 2522 4238 
Q 1834 4238 1429 3725 
Q 1025 3213 1025 2328 
Q 1025 1447 1429 934 
Q 1834 422 2522 422 
Q 3209 422 3611 934 
Q 4013 1447 4013 2328 
Q 4013 3213 3611 3725 
Q 3209 4238 2522 4238 
z
M 2522 4750 
Q 3503 4750 4090 4092 
Q 4678 3434 4678 2328 
Q 4678 1225 4090 567 
Q 3503 -91 2522 -91 
Q 1538 -91 948 565 
Q 359 1222 359 2328 
Q 359 3434 948 4092 
Q 1538 4750 2522 4750 
z
" transform="scale(0.015625)"/>
       <path id="DejaVuSans-67" d="M 2906 1791 
Q 2906 2416 2648 2759 
Q 2391 3103 1925 3103 
Q 1463 3103 1205 2759 
Q 947 2416 947 1791 
Q 947 1169 1205 825 
Q 1463 481 1925 481 
Q 2391 481 2648 825 
Q 2906 1169 2906 1791 
z
M 3481 434 
Q 3481 -459 3084 -895 
Q 2688 -1331 1869 -1331 
Q 1566 -1331 1297 -1286 
Q 1028 -1241 775 -1147 
L 775 -588 
Q 1028 -725 1275 -790 
Q 1522 -856 1778 -856 
Q 2344 -856 2625 -561 
Q 2906 -266 2906 331 
L 2906 616 
Q 2728 306 2450 153 
Q 2172 0 1784 0 
Q 1141 0 747 490 
Q 353 981 353 1791 
Q 353 2603 747 3093 
Q 1141 3584 1784 3584 
Q 2172 3584 2450 3431 
Q 2728 3278 2906 2969 
L 2906 3500 
L 3481 3500 
L 3481 434 
z
" transform="scale(0.015625)"/>
       <path id="DejaVuSans-6e" d="M 3513 2113 
L 3513 0 
L 2938 0 
L 2938 2094 
Q 2938 2591 2744 2837 
Q 2550 3084 2163 3084 
Q 1697 3084 1428 2787 
Q 1159 2491 1159 1978 
L 1159 0 
L 581 0 
L 581 3500 
L 1159 3500 
L 1159 2956 
Q 1366 3272 1645 3428 
Q 1925 3584 2291 3584 
Q 2894 3584 3203 3211 
Q 3513 2838 3513 2113 
z
" transform="scale(0.015625)"/>
       <path id="DejaVuSans-304" d="M -2518 4769 
L -650 4769 
L -650 4306 
L -2518 4306 
L -2518 4769 
z
" transform="scale(0.015625)"/>
      </defs>
      <use xlink:href="#DejaVuSans-4f" transform="translate(0 0.359375)"/>
      <use xlink:href="#DejaVuSans-72" transform="translate(78.710938 0.359375)"/>
      <use xlink:href="#DejaVuSans-69" transform="translate(119.824219 0.359375)"/>
      <use xlink:href="#DejaVuSans-67" transform="translate(147.607422 0.359375)"/>
      <use xlink:href="#DejaVuSans-69" transform="translate(211.083984 0.359375)"/>
      <use xlink:href="#DejaVuSans-6e" transform="translate(238.867188 0.359375)"/>
      <use xlink:href="#DejaVuSans-61" transform="translate(302.246094 0.359375)"/>
      <use xlink:href="#DejaVuSans-6c" transform="translate(363.525391 0.359375)"/>
      <use xlink:href="#DejaVuSans-20" transform="translate(391.308594 0.359375)"/>
      <use xlink:href="#DejaVuSans-56" transform="translate(423.095703 0.359375)"/>
      <use xlink:href="#DejaVuSans-61" transform="translate(491.503906 0.359375)"/>
      <use xlink:href="#DejaVuSans-6c" transform="translate(552.783203 0.359375)"/>
      <use xlink:href="#DejaVuSans-75" transform="translate(580.566406 0.359375)"/>
      <use xlink:href="#DejaVuSans-65" transform="translate(643.945312 0.359375)"/>
      <use xlink:href="#DejaVuSans-20" transform="translate(705.46875 0.359375)"/>
      <use xlink:href="#DejaVuSans-304" transform="translate(804.970215 18.484375)"/>
      <use xlink:href="#DejaVuSans-Oblique-52" transform="translate(737.255859 0.359375)"/>
      <use xlink:href="#DejaVuSans-Oblique-74" transform="translate(807.695312 38.640625) scale(0.7)"/>
      <use xlink:href="#DejaVuSans-Oblique-3c7" transform="translate(807.695312 -26.984375) scale(0.7)"/>
      <use xlink:href="#DejaVuSans-33" transform="translate(849.121094 -38.46875) scale(0.49)"/>
      <use xlink:href="#DejaVuSans-2c" transform="translate(882.210449 -26.984375) scale(0.7)"/>
      <use xlink:href="#DejaVuSans-Oblique-3c7" transform="translate(918.099121 -26.984375) scale(0.7)"/>
      <use xlink:href="#DejaVuSans-31" transform="translate(959.524902 -38.46875) scale(0.49)"/>
     </g>
    </g>
    <g id="patch_8">
     <path d="M 53.879375 54.298438 
L 73.879375 54.298438 
L 73.879375 47.298438 
L 53.879375 47.298438 
z
" style="fill: #ffb612; fill-opacity: 0.5; stroke: #ffb612; stroke-opacity: 0.5; stroke-width: 0.5; stroke-linejoin: miter"/>
    </g>
    <g id="text_19">
     <!-- One Standard Deviation -->
     <g transform="translate(81.879375 54.298438) scale(0.1 -0.1)">
      <defs>
       <path id="DejaVuSans-53" d="M 3425 4513 
L 3425 3897 
Q 3066 4069 2747 4153 
Q 2428 4238 2131 4238 
Q 1616 4238 1336 4038 
Q 1056 3838 1056 3469 
Q 1056 3159 1242 3001 
Q 1428 2844 1947 2747 
L 2328 2669 
Q 3034 2534 3370 2195 
Q 3706 1856 3706 1288 
Q 3706 609 3251 259 
Q 2797 -91 1919 -91 
Q 1588 -91 1214 -16 
Q 841 59 441 206 
L 441 856 
Q 825 641 1194 531 
Q 1563 422 1919 422 
Q 2459 422 2753 634 
Q 3047 847 3047 1241 
Q 3047 1584 2836 1778 
Q 2625 1972 2144 2069 
L 1759 2144 
Q 1053 2284 737 2584 
Q 422 2884 422 3419 
Q 422 4038 858 4394 
Q 1294 4750 2059 4750 
Q 2388 4750 2728 4690 
Q 3069 4631 3425 4513 
z
" transform="scale(0.015625)"/>
       <path id="DejaVuSans-64" d="M 2906 2969 
L 2906 4863 
L 3481 4863 
L 3481 0 
L 2906 0 
L 2906 525 
Q 2725 213 2448 61 
Q 2172 -91 1784 -91 
Q 1150 -91 751 415 
Q 353 922 353 1747 
Q 353 2572 751 3078 
Q 1150 3584 1784 3584 
Q 2172 3584 2448 3432 
Q 2725 3281 2906 2969 
z
M 947 1747 
Q 947 1113 1208 752 
Q 1469 391 1925 391 
Q 2381 391 2643 752 
Q 2906 1113 2906 1747 
Q 2906 2381 2643 2742 
Q 2381 3103 1925 3103 
Q 1469 3103 1208 2742 
Q 947 2381 947 1747 
z
" transform="scale(0.015625)"/>
       <path id="DejaVuSans-6f" d="M 1959 3097 
Q 1497 3097 1228 2736 
Q 959 2375 959 1747 
Q 959 1119 1226 758 
Q 1494 397 1959 397 
Q 2419 397 2687 759 
Q 2956 1122 2956 1747 
Q 2956 2369 2687 2733 
Q 2419 3097 1959 3097 
z
M 1959 3584 
Q 2709 3584 3137 3096 
Q 3566 2609 3566 1747 
Q 3566 888 3137 398 
Q 2709 -91 1959 -91 
Q 1206 -91 779 398 
Q 353 888 353 1747 
Q 353 2609 779 3096 
Q 1206 3584 1959 3584 
z
" transform="scale(0.015625)"/>
      </defs>
      <use xlink:href="#DejaVuSans-4f"/>
      <use xlink:href="#DejaVuSans-6e" x="78.710938"/>
      <use xlink:href="#DejaVuSans-65" x="142.089844"/>
      <use xlink:href="#DejaVuSans-20" x="203.613281"/>
      <use xlink:href="#DejaVuSans-53" x="235.400391"/>
      <use xlink:href="#DejaVuSans-74" x="298.876953"/>
      <use xlink:href="#DejaVuSans-61" x="338.085938"/>
      <use xlink:href="#DejaVuSans-6e" x="399.365234"/>
      <use xlink:href="#DejaVuSans-64" x="462.744141"/>
      <use xlink:href="#DejaVuSans-61" x="526.220703"/>
      <use xlink:href="#DejaVuSans-72" x="587.5"/>
      <use xlink:href="#DejaVuSans-64" x="626.863281"/>
      <use xlink:href="#DejaVuSans-20" x="690.339844"/>
      <use xlink:href="#DejaVuSans-44" x="722.126953"/>
      <use xlink:href="#DejaVuSans-65" x="799.128906"/>
      <use xlink:href="#DejaVuSans-76" x="860.652344"/>
      <use xlink:href="#DejaVuSans-69" x="919.832031"/>
      <use xlink:href="#DejaVuSans-61" x="947.615234"/>
      <use xlink:href="#DejaVuSans-74" x="1008.894531"/>
      <use xlink:href="#DejaVuSans-69" x="1048.103516"/>
      <use xlink:href="#DejaVuSans-6f" x="1075.886719"/>
      <use xlink:href="#DejaVuSans-6e" x="1137.068359"/>
     </g>
    </g>
   </g>
  </g>
 </g>
 <defs>
  <clipPath id="p5f37dba902">
   <rect x="44.879375" y="0" width="390.6" height="166.32"/>
  </clipPath>
 </defs>
</svg>
