<?xml version="1.0" encoding="utf-8" standalone="no"?>
<!DOCTYPE svg PUBLIC "-//W3C//DTD SVG 1.1//EN"
  "http://www.w3.org/Graphics/SVG/1.1/DTD/svg11.dtd">
<svg xmlns:xlink="http://www.w3.org/1999/xlink" width="444.375067pt" height="198.611875pt" viewBox="0 0 444.375067 198.611875" xmlns="http://www.w3.org/2000/svg" version="1.1">
 <metadata>
  <rdf:RDF xmlns:dc="http://purl.org/dc/elements/1.1/" xmlns:cc="http://creativecommons.org/ns#" xmlns:rdf="http://www.w3.org/1999/02/22-rdf-syntax-ns#">
   <cc:Work>
    <dc:type rdf:resource="http://purl.org/dc/dcmitype/StillImage"/>
    <dc:date>2024-09-18T15:47:55.144297</dc:date>
    <dc:format>image/svg+xml</dc:format>
    <dc:creator>
     <cc:Agent>
      <dc:title>Matplotlib v3.7.5, https://matplotlib.org/</dc:title>
     </cc:Agent>
    </dc:creator>
   </cc:Work>
  </rdf:RDF>
 </metadata>
 <defs>
  <style type="text/css">*{stroke-linejoin: round; stroke-linecap: butt}</style>
 </defs>
 <g id="figure_1">
  <g id="patch_1">
   <path d="M 0 198.611875 
L 444.375067 198.611875 
L 444.375067 0 
L 0 0 
z
" style="fill: #ffffff"/>
  </g>
  <g id="axes_1">
   <g id="patch_2">
    <path d="M 44.879375 166.32 
L 435.479375 166.32 
L 435.479375 0 
L 44.879375 0 
z
" style="fill: #e5e5e5"/>
   </g>
   <g id="matplotlib.axis_1">
    <g id="xtick_1">
     <g id="line2d_1">
      <path d="M 72.41989 166.32 
L 72.41989 0 
" clip-path="url(#p56e0ed6ffa)" style="fill: none; stroke: #ffffff; stroke-width: 0.8; stroke-linecap: square"/>
     </g>
     <g id="line2d_2">
      <defs>
       <path id="m5bbe05ab54" d="M 0 0 
L 0 3.5 
" style="stroke: #555555; stroke-width: 0.8"/>
      </defs>
      <g>
       <use xlink:href="#m5bbe05ab54" x="72.41989" y="166.32" style="fill: #555555; stroke: #555555; stroke-width: 0.8"/>
      </g>
     </g>
     <g id="text_1">
      <!-- 08/16/20 -->
      <g style="fill: #555555" transform="translate(49.96364 180.918438) scale(0.1 -0.1)">
       <defs>
        <path id="DejaVuSans-30" d="M 2034 4250 
Q 1547 4250 1301 3770 
Q 1056 3291 1056 2328 
Q 1056 1369 1301 889 
Q 1547 409 2034 409 
Q 2525 409 2770 889 
Q 3016 1369 3016 2328 
Q 3016 3291 2770 3770 
Q 2525 4250 2034 4250 
z
M 2034 4750 
Q 2819 4750 3233 4129 
Q 3647 3509 3647 2328 
Q 3647 1150 3233 529 
Q 2819 -91 2034 -91 
Q 1250 -91 836 529 
Q 422 1150 422 2328 
Q 422 3509 836 4129 
Q 1250 4750 2034 4750 
z
" transform="scale(0.015625)"/>
        <path id="DejaVuSans-38" d="M 2034 2216 
Q 1584 2216 1326 1975 
Q 1069 1734 1069 1313 
Q 1069 891 1326 650 
Q 1584 409 2034 409 
Q 2484 409 2743 651 
Q 3003 894 3003 1313 
Q 3003 1734 2745 1975 
Q 2488 2216 2034 2216 
z
M 1403 2484 
Q 997 2584 770 2862 
Q 544 3141 544 3541 
Q 544 4100 942 4425 
Q 1341 4750 2034 4750 
Q 2731 4750 3128 4425 
Q 3525 4100 3525 3541 
Q 3525 3141 3298 2862 
Q 3072 2584 2669 2484 
Q 3125 2378 3379 2068 
Q 3634 1759 3634 1313 
Q 3634 634 3220 271 
Q 2806 -91 2034 -91 
Q 1263 -91 848 271 
Q 434 634 434 1313 
Q 434 1759 690 2068 
Q 947 2378 1403 2484 
z
M 1172 3481 
Q 1172 3119 1398 2916 
Q 1625 2713 2034 2713 
Q 2441 2713 2670 2916 
Q 2900 3119 2900 3481 
Q 2900 3844 2670 4047 
Q 2441 4250 2034 4250 
Q 1625 4250 1398 4047 
Q 1172 3844 1172 3481 
z
" transform="scale(0.015625)"/>
        <path id="DejaVuSans-2f" d="M 1625 4666 
L 2156 4666 
L 531 -594 
L 0 -594 
L 1625 4666 
z
" transform="scale(0.015625)"/>
        <path id="DejaVuSans-31" d="M 794 531 
L 1825 531 
L 1825 4091 
L 703 3866 
L 703 4441 
L 1819 4666 
L 2450 4666 
L 2450 531 
L 3481 531 
L 3481 0 
L 794 0 
L 794 531 
z
" transform="scale(0.015625)"/>
        <path id="DejaVuSans-36" d="M 2113 2584 
Q 1688 2584 1439 2293 
Q 1191 2003 1191 1497 
Q 1191 994 1439 701 
Q 1688 409 2113 409 
Q 2538 409 2786 701 
Q 3034 994 3034 1497 
Q 3034 2003 2786 2293 
Q 2538 2584 2113 2584 
z
M 3366 4563 
L 3366 3988 
Q 3128 4100 2886 4159 
Q 2644 4219 2406 4219 
Q 1781 4219 1451 3797 
Q 1122 3375 1075 2522 
Q 1259 2794 1537 2939 
Q 1816 3084 2150 3084 
Q 2853 3084 3261 2657 
Q 3669 2231 3669 1497 
Q 3669 778 3244 343 
Q 2819 -91 2113 -91 
Q 1303 -91 875 529 
Q 447 1150 447 2328 
Q 447 3434 972 4092 
Q 1497 4750 2381 4750 
Q 2619 4750 2861 4703 
Q 3103 4656 3366 4563 
z
" transform="scale(0.015625)"/>
        <path id="DejaVuSans-32" d="M 1228 531 
L 3431 531 
L 3431 0 
L 469 0 
L 469 531 
Q 828 903 1448 1529 
Q 2069 2156 2228 2338 
Q 2531 2678 2651 2914 
Q 2772 3150 2772 3378 
Q 2772 3750 2511 3984 
Q 2250 4219 1831 4219 
Q 1534 4219 1204 4116 
Q 875 4013 500 3803 
L 500 4441 
Q 881 4594 1212 4672 
Q 1544 4750 1819 4750 
Q 2544 4750 2975 4387 
Q 3406 4025 3406 3419 
Q 3406 3131 3298 2873 
Q 3191 2616 2906 2266 
Q 2828 2175 2409 1742 
Q 1991 1309 1228 531 
z
" transform="scale(0.015625)"/>
       </defs>
       <use xlink:href="#DejaVuSans-30"/>
       <use xlink:href="#DejaVuSans-38" x="63.623047"/>
       <use xlink:href="#DejaVuSans-2f" x="127.246094"/>
       <use xlink:href="#DejaVuSans-31" x="160.9375"/>
       <use xlink:href="#DejaVuSans-36" x="224.560547"/>
       <use xlink:href="#DejaVuSans-2f" x="288.183594"/>
       <use xlink:href="#DejaVuSans-32" x="321.875"/>
       <use xlink:href="#DejaVuSans-30" x="385.498047"/>
      </g>
     </g>
    </g>
    <g id="xtick_2">
     <g id="line2d_3">
      <path d="M 142.319676 166.32 
L 142.319676 0 
" clip-path="url(#p56e0ed6ffa)" style="fill: none; stroke: #ffffff; stroke-width: 0.8; stroke-linecap: square"/>
     </g>
     <g id="line2d_4">
      <g>
       <use xlink:href="#m5bbe05ab54" x="142.319676" y="166.32" style="fill: #555555; stroke: #555555; stroke-width: 0.8"/>
      </g>
     </g>
     <g id="text_2">
      <!-- 10/05/20 -->
      <g style="fill: #555555" transform="translate(119.863426 180.918438) scale(0.1 -0.1)">
       <defs>
        <path id="DejaVuSans-35" d="M 691 4666 
L 3169 4666 
L 3169 4134 
L 1269 4134 
L 1269 2991 
Q 1406 3038 1543 3061 
Q 1681 3084 1819 3084 
Q 2600 3084 3056 2656 
Q 3513 2228 3513 1497 
Q 3513 744 3044 326 
Q 2575 -91 1722 -91 
Q 1428 -91 1123 -41 
Q 819 9 494 109 
L 494 744 
Q 775 591 1075 516 
Q 1375 441 1709 441 
Q 2250 441 2565 725 
Q 2881 1009 2881 1497 
Q 2881 1984 2565 2268 
Q 2250 2553 1709 2553 
Q 1456 2553 1204 2497 
Q 953 2441 691 2322 
L 691 4666 
z
" transform="scale(0.015625)"/>
       </defs>
       <use xlink:href="#DejaVuSans-31"/>
       <use xlink:href="#DejaVuSans-30" x="63.623047"/>
       <use xlink:href="#DejaVuSans-2f" x="127.246094"/>
       <use xlink:href="#DejaVuSans-30" x="160.9375"/>
       <use xlink:href="#DejaVuSans-35" x="224.560547"/>
       <use xlink:href="#DejaVuSans-2f" x="288.183594"/>
       <use xlink:href="#DejaVuSans-32" x="321.875"/>
       <use xlink:href="#DejaVuSans-30" x="385.498047"/>
      </g>
     </g>
    </g>
    <g id="xtick_3">
     <g id="line2d_5">
      <path d="M 212.219461 166.32 
L 212.219461 0 
" clip-path="url(#p56e0ed6ffa)" style="fill: none; stroke: #ffffff; stroke-width: 0.8; stroke-linecap: square"/>
     </g>
     <g id="line2d_6">
      <g>
       <use xlink:href="#m5bbe05ab54" x="212.219461" y="166.32" style="fill: #555555; stroke: #555555; stroke-width: 0.8"/>
      </g>
     </g>
     <g id="text_3">
      <!-- 11/24/20 -->
      <g style="fill: #555555" transform="translate(189.763211 180.918438) scale(0.1 -0.1)">
       <defs>
        <path id="DejaVuSans-34" d="M 2419 4116 
L 825 1625 
L 2419 1625 
L 2419 4116 
z
M 2253 4666 
L 3047 4666 
L 3047 1625 
L 3713 1625 
L 3713 1100 
L 3047 1100 
L 3047 0 
L 2419 0 
L 2419 1100 
L 313 1100 
L 313 1709 
L 2253 4666 
z
" transform="scale(0.015625)"/>
       </defs>
       <use xlink:href="#DejaVuSans-31"/>
       <use xlink:href="#DejaVuSans-31" x="63.623047"/>
       <use xlink:href="#DejaVuSans-2f" x="127.246094"/>
       <use xlink:href="#DejaVuSans-32" x="160.9375"/>
       <use xlink:href="#DejaVuSans-34" x="224.560547"/>
       <use xlink:href="#DejaVuSans-2f" x="288.183594"/>
       <use xlink:href="#DejaVuSans-32" x="321.875"/>
       <use xlink:href="#DejaVuSans-30" x="385.498047"/>
      </g>
     </g>
    </g>
    <g id="xtick_4">
     <g id="line2d_7">
      <path d="M 282.119246 166.32 
L 282.119246 0 
" clip-path="url(#p56e0ed6ffa)" style="fill: none; stroke: #ffffff; stroke-width: 0.8; stroke-linecap: square"/>
     </g>
     <g id="line2d_8">
      <g>
       <use xlink:href="#m5bbe05ab54" x="282.119246" y="166.32" style="fill: #555555; stroke: #555555; stroke-width: 0.8"/>
      </g>
     </g>
     <g id="text_4">
      <!-- 01/13/21 -->
      <g style="fill: #555555" transform="translate(259.662996 180.918438) scale(0.1 -0.1)">
       <defs>
        <path id="DejaVuSans-33" d="M 2597 2516 
Q 3050 2419 3304 2112 
Q 3559 1806 3559 1356 
Q 3559 666 3084 287 
Q 2609 -91 1734 -91 
Q 1441 -91 1130 -33 
Q 819 25 488 141 
L 488 750 
Q 750 597 1062 519 
Q 1375 441 1716 441 
Q 2309 441 2620 675 
Q 2931 909 2931 1356 
Q 2931 1769 2642 2001 
Q 2353 2234 1838 2234 
L 1294 2234 
L 1294 2753 
L 1863 2753 
Q 2328 2753 2575 2939 
Q 2822 3125 2822 3475 
Q 2822 3834 2567 4026 
Q 2313 4219 1838 4219 
Q 1578 4219 1281 4162 
Q 984 4106 628 3988 
L 628 4550 
Q 988 4650 1302 4700 
Q 1616 4750 1894 4750 
Q 2613 4750 3031 4423 
Q 3450 4097 3450 3541 
Q 3450 3153 3228 2886 
Q 3006 2619 2597 2516 
z
" transform="scale(0.015625)"/>
       </defs>
       <use xlink:href="#DejaVuSans-30"/>
       <use xlink:href="#DejaVuSans-31" x="63.623047"/>
       <use xlink:href="#DejaVuSans-2f" x="127.246094"/>
       <use xlink:href="#DejaVuSans-31" x="160.9375"/>
       <use xlink:href="#DejaVuSans-33" x="224.560547"/>
       <use xlink:href="#DejaVuSans-2f" x="288.183594"/>
       <use xlink:href="#DejaVuSans-32" x="321.875"/>
       <use xlink:href="#DejaVuSans-31" x="385.498047"/>
      </g>
     </g>
    </g>
    <g id="xtick_5">
     <g id="line2d_9">
      <path d="M 352.019031 166.32 
L 352.019031 0 
" clip-path="url(#p56e0ed6ffa)" style="fill: none; stroke: #ffffff; stroke-width: 0.8; stroke-linecap: square"/>
     </g>
     <g id="line2d_10">
      <g>
       <use xlink:href="#m5bbe05ab54" x="352.019031" y="166.32" style="fill: #555555; stroke: #555555; stroke-width: 0.8"/>
      </g>
     </g>
     <g id="text_5">
      <!-- 03/04/21 -->
      <g style="fill: #555555" transform="translate(329.562781 180.918438) scale(0.1 -0.1)">
       <use xlink:href="#DejaVuSans-30"/>
       <use xlink:href="#DejaVuSans-33" x="63.623047"/>
       <use xlink:href="#DejaVuSans-2f" x="127.246094"/>
       <use xlink:href="#DejaVuSans-30" x="160.9375"/>
       <use xlink:href="#DejaVuSans-34" x="224.560547"/>
       <use xlink:href="#DejaVuSans-2f" x="288.183594"/>
       <use xlink:href="#DejaVuSans-32" x="321.875"/>
       <use xlink:href="#DejaVuSans-31" x="385.498047"/>
      </g>
     </g>
    </g>
    <g id="xtick_6">
     <g id="line2d_11">
      <path d="M 421.918817 166.32 
L 421.918817 0 
" clip-path="url(#p56e0ed6ffa)" style="fill: none; stroke: #ffffff; stroke-width: 0.8; stroke-linecap: square"/>
     </g>
     <g id="line2d_12">
      <g>
       <use xlink:href="#m5bbe05ab54" x="421.918817" y="166.32" style="fill: #555555; stroke: #555555; stroke-width: 0.8"/>
      </g>
     </g>
     <g id="text_6">
      <!-- 04/23/21 -->
      <g style="fill: #555555" transform="translate(399.462567 180.918438) scale(0.1 -0.1)">
       <use xlink:href="#DejaVuSans-30"/>
       <use xlink:href="#DejaVuSans-34" x="63.623047"/>
       <use xlink:href="#DejaVuSans-2f" x="127.246094"/>
       <use xlink:href="#DejaVuSans-32" x="160.9375"/>
       <use xlink:href="#DejaVuSans-33" x="224.560547"/>
       <use xlink:href="#DejaVuSans-2f" x="288.183594"/>
       <use xlink:href="#DejaVuSans-32" x="321.875"/>
       <use xlink:href="#DejaVuSans-31" x="385.498047"/>
      </g>
     </g>
    </g>
    <g id="text_7">
     <!-- Date -->
     <g style="fill: #555555" transform="translate(225.838438 196.11625) scale(0.12 -0.12)">
      <defs>
       <path id="DejaVuSans-44" d="M 1259 4147 
L 1259 519 
L 2022 519 
Q 2988 519 3436 956 
Q 3884 1394 3884 2338 
Q 3884 3275 3436 3711 
Q 2988 4147 2022 4147 
L 1259 4147 
z
M 628 4666 
L 1925 4666 
Q 3281 4666 3915 4102 
Q 4550 3538 4550 2338 
Q 4550 1131 3912 565 
Q 3275 0 1925 0 
L 628 0 
L 628 4666 
z
" transform="scale(0.015625)"/>
       <path id="DejaVuSans-61" d="M 2194 1759 
Q 1497 1759 1228 1600 
Q 959 1441 959 1056 
Q 959 750 1161 570 
Q 1363 391 1709 391 
Q 2188 391 2477 730 
Q 2766 1069 2766 1631 
L 2766 1759 
L 2194 1759 
z
M 3341 1997 
L 3341 0 
L 2766 0 
L 2766 531 
Q 2569 213 2275 61 
Q 1981 -91 1556 -91 
Q 1019 -91 701 211 
Q 384 513 384 1019 
Q 384 1609 779 1909 
Q 1175 2209 1959 2209 
L 2766 2209 
L 2766 2266 
Q 2766 2663 2505 2880 
Q 2244 3097 1772 3097 
Q 1472 3097 1187 3025 
Q 903 2953 641 2809 
L 641 3341 
Q 956 3463 1253 3523 
Q 1550 3584 1831 3584 
Q 2591 3584 2966 3190 
Q 3341 2797 3341 1997 
z
" transform="scale(0.015625)"/>
       <path id="DejaVuSans-74" d="M 1172 4494 
L 1172 3500 
L 2356 3500 
L 2356 3053 
L 1172 3053 
L 1172 1153 
Q 1172 725 1289 603 
Q 1406 481 1766 481 
L 2356 481 
L 2356 0 
L 1766 0 
Q 1100 0 847 248 
Q 594 497 594 1153 
L 594 3053 
L 172 3053 
L 172 3500 
L 594 3500 
L 594 4494 
L 1172 4494 
z
" transform="scale(0.015625)"/>
       <path id="DejaVuSans-65" d="M 3597 1894 
L 3597 1613 
L 953 1613 
Q 991 1019 1311 708 
Q 1631 397 2203 397 
Q 2534 397 2845 478 
Q 3156 559 3463 722 
L 3463 178 
Q 3153 47 2828 -22 
Q 2503 -91 2169 -91 
Q 1331 -91 842 396 
Q 353 884 353 1716 
Q 353 2575 817 3079 
Q 1281 3584 2069 3584 
Q 2775 3584 3186 3129 
Q 3597 2675 3597 1894 
z
M 3022 2063 
Q 3016 2534 2758 2815 
Q 2500 3097 2075 3097 
Q 1594 3097 1305 2825 
Q 1016 2553 972 2059 
L 3022 2063 
z
" transform="scale(0.015625)"/>
      </defs>
      <use xlink:href="#DejaVuSans-44"/>
      <use xlink:href="#DejaVuSans-61" x="77.001953"/>
      <use xlink:href="#DejaVuSans-74" x="138.28125"/>
      <use xlink:href="#DejaVuSans-65" x="177.490234"/>
     </g>
    </g>
   </g>
   <g id="matplotlib.axis_2">
    <g id="ytick_1">
     <g id="line2d_13">
      <path d="M 44.879375 163.379772 
L 435.479375 163.379772 
" clip-path="url(#p56e0ed6ffa)" style="fill: none; stroke: #ffffff; stroke-width: 0.8; stroke-linecap: square"/>
     </g>
     <g id="line2d_14">
      <defs>
       <path id="mb4d68c4297" d="M 0 0 
L -3.5 0 
" style="stroke: #555555; stroke-width: 0.8"/>
      </defs>
      <g>
       <use xlink:href="#mb4d68c4297" x="44.879375" y="163.379772" style="fill: #555555; stroke: #555555; stroke-width: 0.8"/>
      </g>
     </g>
     <g id="text_8">
      <!-- 0.00 -->
      <g style="fill: #555555" transform="translate(15.61375 167.17899) scale(0.1 -0.1)">
       <defs>
        <path id="DejaVuSans-2e" d="M 684 794 
L 1344 794 
L 1344 0 
L 684 0 
L 684 794 
z
" transform="scale(0.015625)"/>
       </defs>
       <use xlink:href="#DejaVuSans-30"/>
       <use xlink:href="#DejaVuSans-2e" x="63.623047"/>
       <use xlink:href="#DejaVuSans-30" x="95.410156"/>
       <use xlink:href="#DejaVuSans-30" x="159.033203"/>
      </g>
     </g>
    </g>
    <g id="ytick_2">
     <g id="line2d_15">
      <path d="M 44.879375 140.918744 
L 435.479375 140.918744 
" clip-path="url(#p56e0ed6ffa)" style="fill: none; stroke: #ffffff; stroke-width: 0.8; stroke-linecap: square"/>
     </g>
     <g id="line2d_16">
      <g>
       <use xlink:href="#mb4d68c4297" x="44.879375" y="140.918744" style="fill: #555555; stroke: #555555; stroke-width: 0.8"/>
      </g>
     </g>
     <g id="text_9">
      <!-- 0.02 -->
      <g style="fill: #555555" transform="translate(15.61375 144.717963) scale(0.1 -0.1)">
       <use xlink:href="#DejaVuSans-30"/>
       <use xlink:href="#DejaVuSans-2e" x="63.623047"/>
       <use xlink:href="#DejaVuSans-30" x="95.410156"/>
       <use xlink:href="#DejaVuSans-32" x="159.033203"/>
      </g>
     </g>
    </g>
    <g id="ytick_3">
     <g id="line2d_17">
      <path d="M 44.879375 118.457716 
L 435.479375 118.457716 
" clip-path="url(#p56e0ed6ffa)" style="fill: none; stroke: #ffffff; stroke-width: 0.8; stroke-linecap: square"/>
     </g>
     <g id="line2d_18">
      <g>
       <use xlink:href="#mb4d68c4297" x="44.879375" y="118.457716" style="fill: #555555; stroke: #555555; stroke-width: 0.8"/>
      </g>
     </g>
     <g id="text_10">
      <!-- 0.04 -->
      <g style="fill: #555555" transform="translate(15.61375 122.256935) scale(0.1 -0.1)">
       <use xlink:href="#DejaVuSans-30"/>
       <use xlink:href="#DejaVuSans-2e" x="63.623047"/>
       <use xlink:href="#DejaVuSans-30" x="95.410156"/>
       <use xlink:href="#DejaVuSans-34" x="159.033203"/>
      </g>
     </g>
    </g>
    <g id="ytick_4">
     <g id="line2d_19">
      <path d="M 44.879375 95.996688 
L 435.479375 95.996688 
" clip-path="url(#p56e0ed6ffa)" style="fill: none; stroke: #ffffff; stroke-width: 0.8; stroke-linecap: square"/>
     </g>
     <g id="line2d_20">
      <g>
       <use xlink:href="#mb4d68c4297" x="44.879375" y="95.996688" style="fill: #555555; stroke: #555555; stroke-width: 0.8"/>
      </g>
     </g>
     <g id="text_11">
      <!-- 0.06 -->
      <g style="fill: #555555" transform="translate(15.61375 99.795907) scale(0.1 -0.1)">
       <use xlink:href="#DejaVuSans-30"/>
       <use xlink:href="#DejaVuSans-2e" x="63.623047"/>
       <use xlink:href="#DejaVuSans-30" x="95.410156"/>
       <use xlink:href="#DejaVuSans-36" x="159.033203"/>
      </g>
     </g>
    </g>
    <g id="ytick_5">
     <g id="line2d_21">
      <path d="M 44.879375 73.535661 
L 435.479375 73.535661 
" clip-path="url(#p56e0ed6ffa)" style="fill: none; stroke: #ffffff; stroke-width: 0.8; stroke-linecap: square"/>
     </g>
     <g id="line2d_22">
      <g>
       <use xlink:href="#mb4d68c4297" x="44.879375" y="73.535661" style="fill: #555555; stroke: #555555; stroke-width: 0.8"/>
      </g>
     </g>
     <g id="text_12">
      <!-- 0.08 -->
      <g style="fill: #555555" transform="translate(15.61375 77.334879) scale(0.1 -0.1)">
       <use xlink:href="#DejaVuSans-30"/>
       <use xlink:href="#DejaVuSans-2e" x="63.623047"/>
       <use xlink:href="#DejaVuSans-30" x="95.410156"/>
       <use xlink:href="#DejaVuSans-38" x="159.033203"/>
      </g>
     </g>
    </g>
    <g id="ytick_6">
     <g id="line2d_23">
      <path d="M 44.879375 51.074633 
L 435.479375 51.074633 
" clip-path="url(#p56e0ed6ffa)" style="fill: none; stroke: #ffffff; stroke-width: 0.8; stroke-linecap: square"/>
     </g>
     <g id="line2d_24">
      <g>
       <use xlink:href="#mb4d68c4297" x="44.879375" y="51.074633" style="fill: #555555; stroke: #555555; stroke-width: 0.8"/>
      </g>
     </g>
     <g id="text_13">
      <!-- 0.10 -->
      <g style="fill: #555555" transform="translate(15.61375 54.873851) scale(0.1 -0.1)">
       <use xlink:href="#DejaVuSans-30"/>
       <use xlink:href="#DejaVuSans-2e" x="63.623047"/>
       <use xlink:href="#DejaVuSans-31" x="95.410156"/>
       <use xlink:href="#DejaVuSans-30" x="159.033203"/>
      </g>
     </g>
    </g>
    <g id="ytick_7">
     <g id="line2d_25">
      <path d="M 44.879375 28.613605 
L 435.479375 28.613605 
" clip-path="url(#p56e0ed6ffa)" style="fill: none; stroke: #ffffff; stroke-width: 0.8; stroke-linecap: square"/>
     </g>
     <g id="line2d_26">
      <g>
       <use xlink:href="#mb4d68c4297" x="44.879375" y="28.613605" style="fill: #555555; stroke: #555555; stroke-width: 0.8"/>
      </g>
     </g>
     <g id="text_14">
      <!-- 0.12 -->
      <g style="fill: #555555" transform="translate(15.61375 32.412824) scale(0.1 -0.1)">
       <use xlink:href="#DejaVuSans-30"/>
       <use xlink:href="#DejaVuSans-2e" x="63.623047"/>
       <use xlink:href="#DejaVuSans-31" x="95.410156"/>
       <use xlink:href="#DejaVuSans-32" x="159.033203"/>
      </g>
     </g>
    </g>
    <g id="ytick_8">
     <g id="line2d_27">
      <path d="M 44.879375 6.152577 
L 435.479375 6.152577 
" clip-path="url(#p56e0ed6ffa)" style="fill: none; stroke: #ffffff; stroke-width: 0.8; stroke-linecap: square"/>
     </g>
     <g id="line2d_28">
      <g>
       <use xlink:href="#mb4d68c4297" x="44.879375" y="6.152577" style="fill: #555555; stroke: #555555; stroke-width: 0.8"/>
      </g>
     </g>
     <g id="text_15">
      <!-- 0.14 -->
      <g style="fill: #555555" transform="translate(15.61375 9.951796) scale(0.1 -0.1)">
       <use xlink:href="#DejaVuSans-30"/>
       <use xlink:href="#DejaVuSans-2e" x="63.623047"/>
       <use xlink:href="#DejaVuSans-31" x="95.410156"/>
       <use xlink:href="#DejaVuSans-34" x="159.033203"/>
      </g>
     </g>
    </g>
    <g id="text_16">
     <!-- Value -->
     <g style="fill: #555555" transform="translate(9.118125 99.6375) rotate(-90) scale(0.12 -0.12)">
      <defs>
       <path id="DejaVuSans-56" d="M 1831 0 
L 50 4666 
L 709 4666 
L 2188 738 
L 3669 4666 
L 4325 4666 
L 2547 0 
L 1831 0 
z
" transform="scale(0.015625)"/>
       <path id="DejaVuSans-6c" d="M 603 4863 
L 1178 4863 
L 1178 0 
L 603 0 
L 603 4863 
z
" transform="scale(0.015625)"/>
       <path id="DejaVuSans-75" d="M 544 1381 
L 544 3500 
L 1119 3500 
L 1119 1403 
Q 1119 906 1312 657 
Q 1506 409 1894 409 
Q 2359 409 2629 706 
Q 2900 1003 2900 1516 
L 2900 3500 
L 3475 3500 
L 3475 0 
L 2900 0 
L 2900 538 
Q 2691 219 2414 64 
Q 2138 -91 1772 -91 
Q 1169 -91 856 284 
Q 544 659 544 1381 
z
M 1991 3584 
L 1991 3584 
z
" transform="scale(0.015625)"/>
      </defs>
      <use xlink:href="#DejaVuSans-56"/>
      <use xlink:href="#DejaVuSans-61" x="60.658203"/>
      <use xlink:href="#DejaVuSans-6c" x="121.9375"/>
      <use xlink:href="#DejaVuSans-75" x="149.720703"/>
      <use xlink:href="#DejaVuSans-65" x="213.099609"/>
     </g>
    </g>
   </g>
   <g id="PolyCollection_1">
    <defs>
     <path id="mdd2a161610" d="M 62.63392 -56.821794 
L 62.63392 -69.322083 
L 64.031916 -69.240184 
L 65.429912 -67.612838 
L 66.827908 -67.932731 
L 68.225903 -67.276635 
L 69.623899 -68.464852 
L 71.021895 -69.906648 
L 72.41989 -70.762495 
L 73.817886 -68.262715 
L 75.215882 -69.168 
L 76.613878 -69.915194 
L 78.011873 -70.641462 
L 79.409869 -69.143603 
L 80.807865 -68.887558 
L 82.20586 -67.063725 
L 83.603856 -68.365703 
L 85.001852 -77.94599 
L 86.399847 -77.409128 
L 87.797843 -76.819531 
L 89.195839 -76.900888 
L 90.593835 -82.648514 
L 91.99183 -86.375399 
L 93.389826 -86.330859 
L 94.787822 -94.00555 
L 96.185817 -92.594092 
L 97.583813 -102.896094 
L 98.981809 -102.746059 
L 100.379804 -92.629999 
L 101.7778 -88.692209 
L 103.175796 -91.349883 
L 104.573792 -85.744404 
L 105.971787 -87.22429 
L 107.369783 -66.364686 
L 108.767779 -67.979745 
L 110.165774 -71.119408 
L 111.56377 -66.72364 
L 112.961766 -69.418235 
L 114.359762 -67.683164 
L 115.757757 -65.731011 
L 117.155753 -66.558591 
L 118.553749 -69.370322 
L 119.951744 -69.299926 
L 121.34974 -69.10223 
L 122.747736 -67.69343 
L 124.145731 -69.282667 
L 125.543727 -69.063045 
L 126.941723 -70.5222 
L 128.339719 -68.609289 
L 129.737714 -69.951239 
L 131.13571 -71.228709 
L 132.533706 -71.247859 
L 133.931701 -71.315233 
L 135.329697 -70.281463 
L 136.727693 -70.963594 
L 138.125689 -69.873292 
L 139.523684 -71.647503 
L 140.92168 -74.726606 
L 142.319676 -73.225856 
L 143.717671 -73.657093 
L 145.115667 -73.483665 
L 146.513663 -73.927718 
L 147.911658 -72.877526 
L 149.309654 -75.406731 
L 150.70765 -75.661869 
L 152.105646 -75.756677 
L 153.503641 -78.14406 
L 154.901637 -76.974435 
L 156.299633 -78.330992 
L 157.697628 -76.209468 
L 159.095624 -81.80789 
L 160.49362 -83.343601 
L 161.891616 -80.941551 
L 163.289611 -81.612685 
L 164.687607 -80.693221 
L 166.085603 -83.664604 
L 167.483598 -81.959949 
L 168.881594 -79.999078 
L 170.27959 -52.540082 
L 171.677585 -51.024149 
L 173.075581 -51.605145 
L 174.473577 -50.682055 
L 175.871573 -50.297769 
L 177.269568 -50.222221 
L 178.667564 -51.086751 
L 180.06556 -79.671999 
L 181.463555 -83.527463 
L 182.861551 -81.099073 
L 184.259547 -85.555955 
L 185.657543 -86.471507 
L 187.055538 -86.369686 
L 188.453534 -84.270349 
L 189.85153 -83.32947 
L 191.249525 -84.174992 
L 192.647521 -86.698586 
L 194.045517 -84.651917 
L 195.443512 -87.281687 
L 196.841508 -84.233941 
L 198.239504 -83.086964 
L 199.6375 -85.713868 
L 201.035495 -53.938415 
L 202.433491 -86.849285 
L 203.831487 -88.087678 
L 205.229482 -52.4928 
L 206.627478 -52.028463 
L 208.025474 -51.574435 
L 209.423469 -50.882179 
L 210.821465 -51.214943 
L 212.219461 -51.22083 
L 213.617457 -51.10209 
L 215.015452 -50.134863 
L 216.413448 -51.180891 
L 217.811444 -51.676906 
L 219.209439 -51.409653 
L 220.607435 -51.839728 
L 222.005431 -51.871914 
L 223.403427 -51.656081 
L 224.801422 -52.041223 
L 226.199418 -52.63885 
L 227.597414 -52.427094 
L 228.995409 -53.518414 
L 230.393405 -52.94515 
L 231.791401 -53.129188 
L 233.189396 -53.737092 
L 234.587392 -86.860464 
L 235.985388 -85.749918 
L 237.383384 -88.100355 
L 238.781379 -86.792275 
L 240.179375 -53.5541 
L 241.577371 -53.60796 
L 242.975366 -54.259435 
L 244.373362 -87.578492 
L 245.771358 -88.084009 
L 247.169354 -86.749785 
L 248.567349 -86.468057 
L 249.965345 -87.515583 
L 251.363341 -85.620138 
L 252.761336 -81.890754 
L 254.159332 -53.174983 
L 255.557328 -86.192808 
L 256.955323 -83.172358 
L 258.353319 -82.936824 
L 259.751315 -87.378668 
L 261.149311 -86.113316 
L 262.547306 -87.554532 
L 263.945302 -54.265556 
L 265.343298 -52.934124 
L 266.741293 -90.180563 
L 268.139289 -85.755877 
L 269.537285 -87.98288 
L 270.935281 -88.064503 
L 272.333276 -94.75666 
L 273.731272 -97.109682 
L 275.129268 -98.087249 
L 276.527263 -93.540768 
L 277.925259 -96.526303 
L 279.323255 -97.989808 
L 280.72125 -101.236004 
L 282.119246 -139.699986 
L 283.517242 -183.135959 
L 284.915238 -191.051875 
L 286.313233 -139.174151 
L 287.711229 -138.959302 
L 289.109225 -134.067714 
L 290.50722 -134.049078 
L 291.905216 -102.028999 
L 293.303212 -102.132484 
L 294.701207 -99.469811 
L 296.099203 -96.284467 
L 297.497199 -97.82188 
L 298.895195 -96.13578 
L 300.29319 -94.597737 
L 301.691186 -89.58607 
L 303.089182 -90.097698 
L 304.487177 -86.368856 
L 305.885173 -87.285764 
L 307.283169 -83.191004 
L 308.681165 -82.635139 
L 310.07916 -83.984994 
L 311.477156 -51.84068 
L 312.875152 -51.946991 
L 314.273147 -52.313471 
L 315.671143 -79.98599 
L 317.069139 -53.025474 
L 318.467134 -53.026861 
L 319.86513 -52.435089 
L 321.263126 -53.198644 
L 322.661122 -81.611095 
L 324.059117 -53.998899 
L 325.457113 -83.120785 
L 326.855109 -81.806638 
L 328.253104 -81.22648 
L 329.6511 -83.166366 
L 331.049096 -105.777028 
L 332.447092 -85.61631 
L 333.845087 -85.659784 
L 335.243083 -85.181318 
L 336.641079 -86.050934 
L 338.039074 -85.615255 
L 339.43707 -103.798958 
L 340.835066 -85.267556 
L 342.233061 -83.646517 
L 343.631057 -83.08258 
L 345.029053 -83.9177 
L 346.427049 -82.304732 
L 347.825044 -54.201738 
L 349.22304 -80.720682 
L 350.621036 -81.46058 
L 352.019031 -44.178739 
L 353.417027 -44.266554 
L 354.815023 -43.947354 
L 356.213019 -43.969303 
L 357.611014 -43.480139 
L 359.00901 -43.359886 
L 360.407006 -43.116258 
L 361.805001 -43.565148 
L 363.202997 -43.029166 
L 364.600993 -43.180188 
L 365.998988 -42.829712 
L 367.396984 -42.309957 
L 368.79498 -43.312594 
L 370.192976 -44.1663 
L 371.590971 -44.736162 
L 372.988967 -44.555219 
L 374.386963 -44.5586 
L 375.784958 -44.503036 
L 377.182954 -43.975913 
L 378.58095 -44.358051 
L 379.978946 -49.979766 
L 381.376941 -49.362452 
L 382.774937 -49.99104 
L 384.172933 -50.070565 
L 385.570928 -50.423529 
L 386.968924 -55.107096 
L 388.36692 -54.561112 
L 389.764915 -88.166913 
L 391.162911 -86.543999 
L 392.560907 -93.226784 
L 393.958903 -93.767236 
L 395.356898 -91.582105 
L 396.754894 -95.410547 
L 398.15289 -96.175883 
L 399.550885 -98.860656 
L 400.948881 -103.344465 
L 402.346877 -103.10465 
L 403.744872 -106.225076 
L 405.142868 -105.783727 
L 406.540864 -107.892728 
L 407.93886 -120.769782 
L 409.336855 -114.761552 
L 410.734851 -166.101228 
L 412.132847 -168.763248 
L 413.530842 -166.11196 
L 414.928838 -118.25373 
L 416.326834 -118.18203 
L 417.72483 -120.558747 
L 417.72483 -98.064401 
L 417.72483 -98.064401 
L 416.326834 -98.050601 
L 414.928838 -97.797659 
L 413.530842 -139.629828 
L 412.132847 -143.726432 
L 410.734851 -139.62432 
L 409.336855 -91.134361 
L 407.93886 -99.422077 
L 406.540864 -84.337328 
L 405.142868 -84.02849 
L 403.744872 -83.896087 
L 402.346877 -80.680281 
L 400.948881 -80.751103 
L 399.550885 -74.463934 
L 398.15289 -73.486014 
L 396.754894 -72.01774 
L 395.356898 -67.213596 
L 393.958903 -69.804337 
L 392.560907 -68.209938 
L 391.162911 -64.884648 
L 389.764915 -65.017612 
L 388.36692 -51.071723 
L 386.968924 -51.777341 
L 385.570928 -47.129034 
L 384.172933 -46.870312 
L 382.774937 -46.863788 
L 381.376941 -46.532817 
L 379.978946 -46.85036 
L 378.58095 -41.635978 
L 377.182954 -41.615426 
L 375.784958 -41.67397 
L 374.386963 -41.894778 
L 372.988967 -41.799238 
L 371.590971 -42.229443 
L 370.192976 -41.551719 
L 368.79498 -40.53319 
L 367.396984 -39.851875 
L 365.998988 -40.323873 
L 364.600993 -40.398095 
L 363.202997 -40.465864 
L 361.805001 -40.738983 
L 360.407006 -40.540933 
L 359.00901 -40.644002 
L 357.611014 -40.899459 
L 356.213019 -41.084104 
L 354.815023 -41.191584 
L 353.417027 -41.204074 
L 352.019031 -41.351765 
L 350.621036 -60.65594 
L 349.22304 -61.716198 
L 347.825044 -50.163859 
L 346.427049 -65.264576 
L 345.029053 -66.752332 
L 343.631057 -64.969737 
L 342.233061 -68.244583 
L 340.835066 -71.304056 
L 339.43707 -90.151006 
L 338.039074 -71.1884 
L 336.641079 -72.375103 
L 335.243083 -71.164174 
L 333.845087 -71.238294 
L 332.447092 -69.66342 
L 331.049096 -89.470621 
L 329.6511 -65.963859 
L 328.253104 -64.392169 
L 326.855109 -63.51205 
L 325.457113 -63.139233 
L 324.059117 -49.877002 
L 322.661122 -60.128209 
L 321.263126 -49.536028 
L 319.86513 -48.825366 
L 318.467134 -48.999867 
L 317.069139 -49.247947 
L 315.671143 -59.882298 
L 314.273147 -48.913675 
L 312.875152 -48.483161 
L 311.477156 -48.43954 
L 310.07916 -63.557775 
L 308.681165 -61.477262 
L 307.283169 -60.730305 
L 305.885173 -65.267911 
L 304.487177 -66.687271 
L 303.089182 -67.459936 
L 301.691186 -68.312299 
L 300.29319 -75.642586 
L 298.895195 -77.05886 
L 297.497199 -78.861268 
L 296.099203 -76.433553 
L 294.701207 -82.221879 
L 293.303212 -82.554755 
L 291.905216 -84.479958 
L 290.50722 -116.284408 
L 289.109225 -111.37506 
L 287.711229 -117.386553 
L 286.313233 -123.118535 
L 284.915238 -157.853447 
L 283.517242 -153.253439 
L 282.119246 -118.196118 
L 280.72125 -84.810059 
L 279.323255 -79.216271 
L 277.925259 -76.844118 
L 276.527263 -72.44886 
L 275.129268 -76.641831 
L 273.731272 -76.750941 
L 272.333276 -75.595916 
L 270.935281 -64.596097 
L 269.537285 -66.14532 
L 268.139289 -64.384117 
L 266.741293 -66.70085 
L 265.343298 -49.067886 
L 263.945302 -50.710126 
L 262.547306 -64.302529 
L 261.149311 -64.030407 
L 259.751315 -62.423381 
L 258.353319 -61.206232 
L 256.955323 -60.237102 
L 255.557328 -62.255629 
L 254.159332 -49.720612 
L 252.761336 -60.970232 
L 251.363341 -61.091602 
L 249.965345 -64.426403 
L 248.567349 -62.859162 
L 247.169354 -62.862136 
L 245.771358 -63.316882 
L 244.373362 -64.595223 
L 242.975366 -50.989798 
L 241.577371 -50.213024 
L 240.179375 -50.236716 
L 238.781379 -63.811393 
L 237.383384 -62.872948 
L 235.985388 -61.790086 
L 234.587392 -63.505341 
L 233.189396 -50.374519 
L 231.791401 -49.777414 
L 230.393405 -49.489053 
L 228.995409 -50.094963 
L 227.597414 -49.212129 
L 226.199418 -49.237377 
L 224.801422 -48.912971 
L 223.403427 -48.244895 
L 222.005431 -48.697942 
L 220.607435 -48.799022 
L 219.209439 -47.902781 
L 217.811444 -48.026065 
L 216.413448 -47.699519 
L 215.015452 -46.941291 
L 213.617457 -47.993297 
L 212.219461 -47.681111 
L 210.821465 -48.338248 
L 209.423469 -47.355107 
L 208.025474 -47.899595 
L 206.627478 -48.515281 
L 205.229482 -49.118207 
L 203.831487 -62.604538 
L 202.433491 -62.150449 
L 201.035495 -50.783433 
L 199.6375 -63.292397 
L 198.239504 -60.237334 
L 196.841508 -62.687061 
L 195.443512 -65.203654 
L 194.045517 -60.841251 
L 192.647521 -63.406814 
L 191.249525 -62.113973 
L 189.85153 -62.419614 
L 188.453534 -61.13955 
L 187.055538 -63.721722 
L 185.657543 -63.500531 
L 184.259547 -63.752994 
L 182.861551 -59.565294 
L 181.463555 -62.175263 
L 180.06556 -56.781178 
L 178.667564 -47.757526 
L 177.269568 -47.148863 
L 175.871573 -46.858005 
L 174.473577 -46.987969 
L 173.075581 -48.047594 
L 171.677585 -47.854311 
L 170.27959 -48.473924 
L 168.881594 -60.271302 
L 167.483598 -59.887315 
L 166.085603 -61.322019 
L 164.687607 -59.710637 
L 163.289611 -62.367968 
L 161.891616 -60.772432 
L 160.49362 -61.983533 
L 159.095624 -59.616873 
L 157.697628 -58.44425 
L 156.299633 -61.003856 
L 154.901637 -61.585156 
L 153.503641 -60.948281 
L 152.105646 -58.886929 
L 150.70765 -58.20228 
L 149.309654 -57.819461 
L 147.911658 -56.087813 
L 146.513663 -55.816511 
L 145.115667 -55.240813 
L 143.717671 -54.738026 
L 142.319676 -55.521749 
L 140.92168 -54.974512 
L 139.523684 -56.160138 
L 138.125689 -55.547716 
L 136.727693 -55.658774 
L 135.329697 -53.585196 
L 133.931701 -55.997873 
L 132.533706 -57.286291 
L 131.13571 -56.246062 
L 129.737714 -55.318886 
L 128.339719 -55.011823 
L 126.941723 -56.18492 
L 125.543727 -54.912708 
L 124.145731 -56.177289 
L 122.747736 -54.713042 
L 121.34974 -56.187005 
L 119.951744 -56.229288 
L 118.553749 -56.365893 
L 117.155753 -56.031741 
L 115.757757 -57.379352 
L 114.359762 -56.68869 
L 112.961766 -58.610955 
L 111.56377 -55.705688 
L 110.165774 -59.149409 
L 108.767779 -56.581229 
L 107.369783 -57.786374 
L 105.971787 -76.6471 
L 104.573792 -76.024988 
L 103.175796 -79.270219 
L 101.7778 -75.945146 
L 100.379804 -80.475725 
L 98.981809 -90.301562 
L 97.583813 -88.043073 
L 96.185817 -80.459602 
L 94.787822 -81.066117 
L 93.389826 -74.337579 
L 91.99183 -75.317926 
L 90.593835 -72.394908 
L 89.195839 -63.958404 
L 87.797843 -63.289523 
L 86.399847 -62.813666 
L 85.001852 -63.736634 
L 83.603856 -56.021437 
L 82.20586 -56.037364 
L 80.807865 -56.593202 
L 79.409869 -56.267352 
L 78.011873 -55.656438 
L 76.613878 -57.073749 
L 75.215882 -56.112917 
L 73.817886 -55.686573 
L 72.41989 -56.659714 
L 71.021895 -56.048115 
L 69.623899 -57.353066 
L 68.225903 -56.230084 
L 66.827908 -56.198087 
L 65.429912 -56.284344 
L 64.031916 -55.942825 
L 62.63392 -56.821794 
z
" style="stroke: #ffb612; stroke-opacity: 0.5; stroke-width: 0.5"/>
    </defs>
    <g clip-path="url(#p56e0ed6ffa)">
     <use xlink:href="#mdd2a161610" x="0" y="198.611875" style="fill: #ffb612; fill-opacity: 0.5; stroke: #ffb612; stroke-opacity: 0.5; stroke-width: 0.5"/>
    </g>
   </g>
   <g id="line2d_29">
    <path d="M 62.63392 135.539937 
L 64.031916 136.020371 
L 65.429912 136.663284 
L 66.827908 136.546466 
L 68.225903 136.858516 
L 69.623899 135.702916 
L 71.021895 135.634494 
L 72.41989 134.90077 
L 73.817886 136.637231 
L 75.215882 135.971417 
L 76.613878 135.117403 
L 79.409869 135.906397 
L 80.807865 135.871495 
L 82.20586 137.061331 
L 83.603856 136.418305 
L 85.001852 127.770563 
L 86.399847 128.500478 
L 87.797843 128.557348 
L 89.195839 128.182229 
L 90.593835 121.090164 
L 91.99183 117.765213 
L 93.389826 118.277656 
L 94.787822 111.076042 
L 96.185817 112.085028 
L 97.583813 103.142291 
L 98.981809 102.088064 
L 100.379804 112.059013 
L 101.7778 116.293198 
L 103.175796 113.301824 
L 104.573792 117.727179 
L 105.971787 116.67618 
L 107.369783 136.536345 
L 108.767779 136.331388 
L 110.165774 133.477466 
L 111.56377 137.397211 
L 112.961766 134.59728 
L 114.359762 136.425948 
L 115.757757 137.056694 
L 117.155753 137.316709 
L 118.553749 135.743768 
L 121.34974 135.967258 
L 122.747736 137.408639 
L 124.145731 135.881897 
L 125.543727 136.623999 
L 126.941723 135.258315 
L 128.339719 136.801319 
L 129.737714 135.976813 
L 131.13571 134.874489 
L 132.533706 134.3448 
L 133.931701 134.955322 
L 135.329697 136.678546 
L 136.727693 135.300691 
L 138.125689 135.901371 
L 139.523684 134.708054 
L 140.92168 133.761316 
L 142.319676 134.238072 
L 143.717671 134.414315 
L 145.115667 134.249636 
L 146.513663 133.73976 
L 147.911658 134.129205 
L 149.309654 131.998779 
L 152.105646 131.290072 
L 153.503641 129.065705 
L 154.901637 129.33208 
L 156.299633 128.944451 
L 157.697628 131.285016 
L 159.095624 127.899494 
L 160.49362 125.948308 
L 161.891616 127.754883 
L 163.289611 126.621549 
L 164.687607 128.409946 
L 166.085603 126.118563 
L 167.483598 127.688243 
L 168.881594 128.476685 
L 170.27959 148.104872 
L 171.677585 149.172645 
L 173.075581 148.785506 
L 174.473577 149.776863 
L 175.871573 150.033988 
L 177.269568 149.926333 
L 178.667564 149.189737 
L 180.06556 130.385286 
L 181.463555 125.760512 
L 182.861551 128.279692 
L 184.259547 123.9574 
L 185.657543 123.625856 
L 187.055538 123.566171 
L 188.453534 125.906925 
L 191.249525 125.467392 
L 192.647521 123.559175 
L 194.045517 125.865291 
L 195.443512 122.369204 
L 196.841508 125.151374 
L 198.239504 126.949726 
L 199.6375 124.108742 
L 201.035495 146.250951 
L 202.433491 124.112008 
L 203.831487 123.265767 
L 205.229482 147.806371 
L 209.423469 149.493232 
L 210.821465 148.835279 
L 212.219461 149.160905 
L 213.617457 149.064182 
L 215.015452 150.073798 
L 216.413448 149.17167 
L 217.811444 148.760389 
L 219.209439 148.955658 
L 220.607435 148.2925 
L 222.005431 148.326947 
L 223.403427 148.661387 
L 226.199418 147.673761 
L 227.597414 147.792264 
L 228.995409 146.805186 
L 230.393405 147.394773 
L 231.791401 147.158574 
L 233.189396 146.55607 
L 234.587392 123.428972 
L 235.985388 124.841873 
L 237.383384 123.125223 
L 238.781379 123.310041 
L 240.179375 146.716467 
L 241.577371 146.701383 
L 242.975366 145.987258 
L 244.373362 122.525017 
L 245.771358 122.91143 
L 247.169354 123.805914 
L 248.567349 123.948266 
L 249.965345 122.640882 
L 251.363341 125.256005 
L 252.761336 127.181382 
L 254.159332 147.164078 
L 255.557328 124.387657 
L 256.955323 126.907145 
L 258.353319 126.540347 
L 259.751315 123.710851 
L 261.149311 123.540014 
L 262.547306 122.683345 
L 263.945302 146.124034 
L 265.343298 147.61087 
L 266.741293 120.171169 
L 268.139289 123.541878 
L 269.537285 121.547775 
L 270.935281 122.281575 
L 272.333276 113.435587 
L 273.731272 111.681563 
L 275.129268 111.247335 
L 276.527263 115.617061 
L 277.925259 111.926664 
L 279.323255 110.008836 
L 280.72125 105.588844 
L 282.119246 69.663823 
L 283.517242 30.417176 
L 284.915238 24.159214 
L 286.313233 67.465532 
L 287.711229 70.438948 
L 289.109225 75.890488 
L 290.50722 73.445132 
L 291.905216 105.357397 
L 293.303212 106.268256 
L 294.701207 107.76603 
L 296.099203 112.252865 
L 297.497199 110.270301 
L 298.895195 112.014555 
L 300.29319 113.491714 
L 301.691186 119.66269 
L 303.089182 119.833058 
L 304.487177 122.083811 
L 305.885173 122.335037 
L 307.283169 126.65122 
L 308.681165 126.555674 
L 310.07916 124.840491 
L 311.477156 148.471765 
L 312.875152 148.396799 
L 314.273147 147.998302 
L 315.671143 128.677731 
L 317.069139 147.475164 
L 318.467134 147.598511 
L 319.86513 147.981647 
L 321.263126 147.244539 
L 322.661122 127.742223 
L 324.059117 146.673924 
L 325.457113 125.481866 
L 326.855109 125.952531 
L 328.253104 125.802551 
L 329.6511 124.046763 
L 331.049096 100.988051 
L 332.447092 120.97201 
L 333.845087 120.162836 
L 335.243083 120.439129 
L 336.641079 119.398856 
L 338.039074 120.210048 
L 339.43707 101.636893 
L 340.835066 120.326069 
L 342.233061 122.666325 
L 343.631057 124.585716 
L 345.029053 123.276859 
L 346.427049 124.827221 
L 347.825044 146.429076 
L 349.22304 127.393435 
L 350.621036 127.553615 
L 352.019031 155.846623 
L 353.417027 155.876561 
L 354.815023 156.042406 
L 356.213019 156.085172 
L 357.611014 156.422076 
L 360.407006 156.78328 
L 361.805001 156.459809 
L 363.202997 156.86436 
L 364.600993 156.822734 
L 365.998988 157.035082 
L 367.396984 157.530959 
L 371.590971 155.129072 
L 372.988967 155.434646 
L 374.386963 155.385186 
L 375.784958 155.523372 
L 377.182954 155.816206 
L 378.58095 155.61486 
L 379.978946 150.196812 
L 381.376941 150.66424 
L 382.774937 150.184461 
L 384.172933 150.141436 
L 385.570928 149.835594 
L 386.968924 145.169656 
L 388.36692 145.795457 
L 389.764915 122.019612 
L 391.162911 122.897552 
L 392.560907 117.893514 
L 393.958903 116.826088 
L 395.356898 119.214025 
L 396.754894 114.897731 
L 398.15289 113.780927 
L 399.550885 111.94958 
L 400.948881 106.564091 
L 402.346877 106.71941 
L 403.744872 103.551293 
L 405.142868 103.705766 
L 406.540864 102.496847 
L 407.93886 88.515946 
L 409.336855 95.663919 
L 410.734851 45.749101 
L 412.132847 42.367035 
L 413.530842 45.740981 
L 414.928838 90.586181 
L 416.326834 90.49556 
L 417.72483 89.300301 
L 417.72483 89.300301 
" clip-path="url(#p56e0ed6ffa)" style="fill: none; stroke: #ffb612; stroke-width: 3; stroke-linecap: square"/>
    <defs>
     <path id="m52ccc66d0b" d="M 0 1.5 
C 0.397805 1.5 0.77937 1.341951 1.06066 1.06066 
C 1.341951 0.77937 1.5 0.397805 1.5 0 
C 1.5 -0.397805 1.341951 -0.77937 1.06066 -1.06066 
C 0.77937 -1.341951 0.397805 -1.5 0 -1.5 
C -0.397805 -1.5 -0.77937 -1.341951 -1.06066 -1.06066 
C -1.341951 -0.77937 -1.5 -0.397805 -1.5 0 
C -1.5 0.397805 -1.341951 0.77937 -1.06066 1.06066 
C -0.77937 1.341951 -0.397805 1.5 0 1.5 
z
" style="stroke: #ffb612"/>
    </defs>
    <g clip-path="url(#p56e0ed6ffa)">
     <use xlink:href="#m52ccc66d0b" x="62.63392" y="135.539937" style="fill: #ffb612; stroke: #ffb612"/>
     <use xlink:href="#m52ccc66d0b" x="64.031916" y="136.020371" style="fill: #ffb612; stroke: #ffb612"/>
     <use xlink:href="#m52ccc66d0b" x="65.429912" y="136.663284" style="fill: #ffb612; stroke: #ffb612"/>
     <use xlink:href="#m52ccc66d0b" x="66.827908" y="136.546466" style="fill: #ffb612; stroke: #ffb612"/>
     <use xlink:href="#m52ccc66d0b" x="68.225903" y="136.858516" style="fill: #ffb612; stroke: #ffb612"/>
     <use xlink:href="#m52ccc66d0b" x="69.623899" y="135.702916" style="fill: #ffb612; stroke: #ffb612"/>
     <use xlink:href="#m52ccc66d0b" x="71.021895" y="135.634494" style="fill: #ffb612; stroke: #ffb612"/>
     <use xlink:href="#m52ccc66d0b" x="72.41989" y="134.90077" style="fill: #ffb612; stroke: #ffb612"/>
     <use xlink:href="#m52ccc66d0b" x="73.817886" y="136.637231" style="fill: #ffb612; stroke: #ffb612"/>
     <use xlink:href="#m52ccc66d0b" x="75.215882" y="135.971417" style="fill: #ffb612; stroke: #ffb612"/>
     <use xlink:href="#m52ccc66d0b" x="76.613878" y="135.117403" style="fill: #ffb612; stroke: #ffb612"/>
     <use xlink:href="#m52ccc66d0b" x="78.011873" y="135.462925" style="fill: #ffb612; stroke: #ffb612"/>
     <use xlink:href="#m52ccc66d0b" x="79.409869" y="135.906397" style="fill: #ffb612; stroke: #ffb612"/>
     <use xlink:href="#m52ccc66d0b" x="80.807865" y="135.871495" style="fill: #ffb612; stroke: #ffb612"/>
     <use xlink:href="#m52ccc66d0b" x="82.20586" y="137.061331" style="fill: #ffb612; stroke: #ffb612"/>
     <use xlink:href="#m52ccc66d0b" x="83.603856" y="136.418305" style="fill: #ffb612; stroke: #ffb612"/>
     <use xlink:href="#m52ccc66d0b" x="85.001852" y="127.770563" style="fill: #ffb612; stroke: #ffb612"/>
     <use xlink:href="#m52ccc66d0b" x="86.399847" y="128.500478" style="fill: #ffb612; stroke: #ffb612"/>
     <use xlink:href="#m52ccc66d0b" x="87.797843" y="128.557348" style="fill: #ffb612; stroke: #ffb612"/>
     <use xlink:href="#m52ccc66d0b" x="89.195839" y="128.182229" style="fill: #ffb612; stroke: #ffb612"/>
     <use xlink:href="#m52ccc66d0b" x="90.593835" y="121.090164" style="fill: #ffb612; stroke: #ffb612"/>
     <use xlink:href="#m52ccc66d0b" x="91.99183" y="117.765213" style="fill: #ffb612; stroke: #ffb612"/>
     <use xlink:href="#m52ccc66d0b" x="93.389826" y="118.277656" style="fill: #ffb612; stroke: #ffb612"/>
     <use xlink:href="#m52ccc66d0b" x="94.787822" y="111.076042" style="fill: #ffb612; stroke: #ffb612"/>
     <use xlink:href="#m52ccc66d0b" x="96.185817" y="112.085028" style="fill: #ffb612; stroke: #ffb612"/>
     <use xlink:href="#m52ccc66d0b" x="97.583813" y="103.142291" style="fill: #ffb612; stroke: #ffb612"/>
     <use xlink:href="#m52ccc66d0b" x="98.981809" y="102.088064" style="fill: #ffb612; stroke: #ffb612"/>
     <use xlink:href="#m52ccc66d0b" x="100.379804" y="112.059013" style="fill: #ffb612; stroke: #ffb612"/>
     <use xlink:href="#m52ccc66d0b" x="101.7778" y="116.293198" style="fill: #ffb612; stroke: #ffb612"/>
     <use xlink:href="#m52ccc66d0b" x="103.175796" y="113.301824" style="fill: #ffb612; stroke: #ffb612"/>
     <use xlink:href="#m52ccc66d0b" x="104.573792" y="117.727179" style="fill: #ffb612; stroke: #ffb612"/>
     <use xlink:href="#m52ccc66d0b" x="105.971787" y="116.67618" style="fill: #ffb612; stroke: #ffb612"/>
     <use xlink:href="#m52ccc66d0b" x="107.369783" y="136.536345" style="fill: #ffb612; stroke: #ffb612"/>
     <use xlink:href="#m52ccc66d0b" x="108.767779" y="136.331388" style="fill: #ffb612; stroke: #ffb612"/>
     <use xlink:href="#m52ccc66d0b" x="110.165774" y="133.477466" style="fill: #ffb612; stroke: #ffb612"/>
     <use xlink:href="#m52ccc66d0b" x="111.56377" y="137.397211" style="fill: #ffb612; stroke: #ffb612"/>
     <use xlink:href="#m52ccc66d0b" x="112.961766" y="134.59728" style="fill: #ffb612; stroke: #ffb612"/>
     <use xlink:href="#m52ccc66d0b" x="114.359762" y="136.425948" style="fill: #ffb612; stroke: #ffb612"/>
     <use xlink:href="#m52ccc66d0b" x="115.757757" y="137.056694" style="fill: #ffb612; stroke: #ffb612"/>
     <use xlink:href="#m52ccc66d0b" x="117.155753" y="137.316709" style="fill: #ffb612; stroke: #ffb612"/>
     <use xlink:href="#m52ccc66d0b" x="118.553749" y="135.743768" style="fill: #ffb612; stroke: #ffb612"/>
     <use xlink:href="#m52ccc66d0b" x="119.951744" y="135.847268" style="fill: #ffb612; stroke: #ffb612"/>
     <use xlink:href="#m52ccc66d0b" x="121.34974" y="135.967258" style="fill: #ffb612; stroke: #ffb612"/>
     <use xlink:href="#m52ccc66d0b" x="122.747736" y="137.408639" style="fill: #ffb612; stroke: #ffb612"/>
     <use xlink:href="#m52ccc66d0b" x="124.145731" y="135.881897" style="fill: #ffb612; stroke: #ffb612"/>
     <use xlink:href="#m52ccc66d0b" x="125.543727" y="136.623999" style="fill: #ffb612; stroke: #ffb612"/>
     <use xlink:href="#m52ccc66d0b" x="126.941723" y="135.258315" style="fill: #ffb612; stroke: #ffb612"/>
     <use xlink:href="#m52ccc66d0b" x="128.339719" y="136.801319" style="fill: #ffb612; stroke: #ffb612"/>
     <use xlink:href="#m52ccc66d0b" x="129.737714" y="135.976813" style="fill: #ffb612; stroke: #ffb612"/>
     <use xlink:href="#m52ccc66d0b" x="131.13571" y="134.874489" style="fill: #ffb612; stroke: #ffb612"/>
     <use xlink:href="#m52ccc66d0b" x="132.533706" y="134.3448" style="fill: #ffb612; stroke: #ffb612"/>
     <use xlink:href="#m52ccc66d0b" x="133.931701" y="134.955322" style="fill: #ffb612; stroke: #ffb612"/>
     <use xlink:href="#m52ccc66d0b" x="135.329697" y="136.678546" style="fill: #ffb612; stroke: #ffb612"/>
     <use xlink:href="#m52ccc66d0b" x="136.727693" y="135.300691" style="fill: #ffb612; stroke: #ffb612"/>
     <use xlink:href="#m52ccc66d0b" x="138.125689" y="135.901371" style="fill: #ffb612; stroke: #ffb612"/>
     <use xlink:href="#m52ccc66d0b" x="139.523684" y="134.708054" style="fill: #ffb612; stroke: #ffb612"/>
     <use xlink:href="#m52ccc66d0b" x="140.92168" y="133.761316" style="fill: #ffb612; stroke: #ffb612"/>
     <use xlink:href="#m52ccc66d0b" x="142.319676" y="134.238072" style="fill: #ffb612; stroke: #ffb612"/>
     <use xlink:href="#m52ccc66d0b" x="143.717671" y="134.414315" style="fill: #ffb612; stroke: #ffb612"/>
     <use xlink:href="#m52ccc66d0b" x="145.115667" y="134.249636" style="fill: #ffb612; stroke: #ffb612"/>
     <use xlink:href="#m52ccc66d0b" x="146.513663" y="133.73976" style="fill: #ffb612; stroke: #ffb612"/>
     <use xlink:href="#m52ccc66d0b" x="147.911658" y="134.129205" style="fill: #ffb612; stroke: #ffb612"/>
     <use xlink:href="#m52ccc66d0b" x="149.309654" y="131.998779" style="fill: #ffb612; stroke: #ffb612"/>
     <use xlink:href="#m52ccc66d0b" x="150.70765" y="131.679801" style="fill: #ffb612; stroke: #ffb612"/>
     <use xlink:href="#m52ccc66d0b" x="152.105646" y="131.290072" style="fill: #ffb612; stroke: #ffb612"/>
     <use xlink:href="#m52ccc66d0b" x="153.503641" y="129.065705" style="fill: #ffb612; stroke: #ffb612"/>
     <use xlink:href="#m52ccc66d0b" x="154.901637" y="129.33208" style="fill: #ffb612; stroke: #ffb612"/>
     <use xlink:href="#m52ccc66d0b" x="156.299633" y="128.944451" style="fill: #ffb612; stroke: #ffb612"/>
     <use xlink:href="#m52ccc66d0b" x="157.697628" y="131.285016" style="fill: #ffb612; stroke: #ffb612"/>
     <use xlink:href="#m52ccc66d0b" x="159.095624" y="127.899494" style="fill: #ffb612; stroke: #ffb612"/>
     <use xlink:href="#m52ccc66d0b" x="160.49362" y="125.948308" style="fill: #ffb612; stroke: #ffb612"/>
     <use xlink:href="#m52ccc66d0b" x="161.891616" y="127.754883" style="fill: #ffb612; stroke: #ffb612"/>
     <use xlink:href="#m52ccc66d0b" x="163.289611" y="126.621549" style="fill: #ffb612; stroke: #ffb612"/>
     <use xlink:href="#m52ccc66d0b" x="164.687607" y="128.409946" style="fill: #ffb612; stroke: #ffb612"/>
     <use xlink:href="#m52ccc66d0b" x="166.085603" y="126.118563" style="fill: #ffb612; stroke: #ffb612"/>
     <use xlink:href="#m52ccc66d0b" x="167.483598" y="127.688243" style="fill: #ffb612; stroke: #ffb612"/>
     <use xlink:href="#m52ccc66d0b" x="168.881594" y="128.476685" style="fill: #ffb612; stroke: #ffb612"/>
     <use xlink:href="#m52ccc66d0b" x="170.27959" y="148.104872" style="fill: #ffb612; stroke: #ffb612"/>
     <use xlink:href="#m52ccc66d0b" x="171.677585" y="149.172645" style="fill: #ffb612; stroke: #ffb612"/>
     <use xlink:href="#m52ccc66d0b" x="173.075581" y="148.785506" style="fill: #ffb612; stroke: #ffb612"/>
     <use xlink:href="#m52ccc66d0b" x="174.473577" y="149.776863" style="fill: #ffb612; stroke: #ffb612"/>
     <use xlink:href="#m52ccc66d0b" x="175.871573" y="150.033988" style="fill: #ffb612; stroke: #ffb612"/>
     <use xlink:href="#m52ccc66d0b" x="177.269568" y="149.926333" style="fill: #ffb612; stroke: #ffb612"/>
     <use xlink:href="#m52ccc66d0b" x="178.667564" y="149.189737" style="fill: #ffb612; stroke: #ffb612"/>
     <use xlink:href="#m52ccc66d0b" x="180.06556" y="130.385286" style="fill: #ffb612; stroke: #ffb612"/>
     <use xlink:href="#m52ccc66d0b" x="181.463555" y="125.760512" style="fill: #ffb612; stroke: #ffb612"/>
     <use xlink:href="#m52ccc66d0b" x="182.861551" y="128.279692" style="fill: #ffb612; stroke: #ffb612"/>
     <use xlink:href="#m52ccc66d0b" x="184.259547" y="123.9574" style="fill: #ffb612; stroke: #ffb612"/>
     <use xlink:href="#m52ccc66d0b" x="185.657543" y="123.625856" style="fill: #ffb612; stroke: #ffb612"/>
     <use xlink:href="#m52ccc66d0b" x="187.055538" y="123.566171" style="fill: #ffb612; stroke: #ffb612"/>
     <use xlink:href="#m52ccc66d0b" x="188.453534" y="125.906925" style="fill: #ffb612; stroke: #ffb612"/>
     <use xlink:href="#m52ccc66d0b" x="189.85153" y="125.737333" style="fill: #ffb612; stroke: #ffb612"/>
     <use xlink:href="#m52ccc66d0b" x="191.249525" y="125.467392" style="fill: #ffb612; stroke: #ffb612"/>
     <use xlink:href="#m52ccc66d0b" x="192.647521" y="123.559175" style="fill: #ffb612; stroke: #ffb612"/>
     <use xlink:href="#m52ccc66d0b" x="194.045517" y="125.865291" style="fill: #ffb612; stroke: #ffb612"/>
     <use xlink:href="#m52ccc66d0b" x="195.443512" y="122.369204" style="fill: #ffb612; stroke: #ffb612"/>
     <use xlink:href="#m52ccc66d0b" x="196.841508" y="125.151374" style="fill: #ffb612; stroke: #ffb612"/>
     <use xlink:href="#m52ccc66d0b" x="198.239504" y="126.949726" style="fill: #ffb612; stroke: #ffb612"/>
     <use xlink:href="#m52ccc66d0b" x="199.6375" y="124.108742" style="fill: #ffb612; stroke: #ffb612"/>
     <use xlink:href="#m52ccc66d0b" x="201.035495" y="146.250951" style="fill: #ffb612; stroke: #ffb612"/>
     <use xlink:href="#m52ccc66d0b" x="202.433491" y="124.112008" style="fill: #ffb612; stroke: #ffb612"/>
     <use xlink:href="#m52ccc66d0b" x="203.831487" y="123.265767" style="fill: #ffb612; stroke: #ffb612"/>
     <use xlink:href="#m52ccc66d0b" x="205.229482" y="147.806371" style="fill: #ffb612; stroke: #ffb612"/>
     <use xlink:href="#m52ccc66d0b" x="206.627478" y="148.340003" style="fill: #ffb612; stroke: #ffb612"/>
     <use xlink:href="#m52ccc66d0b" x="208.025474" y="148.87486" style="fill: #ffb612; stroke: #ffb612"/>
     <use xlink:href="#m52ccc66d0b" x="209.423469" y="149.493232" style="fill: #ffb612; stroke: #ffb612"/>
     <use xlink:href="#m52ccc66d0b" x="210.821465" y="148.835279" style="fill: #ffb612; stroke: #ffb612"/>
     <use xlink:href="#m52ccc66d0b" x="212.219461" y="149.160905" style="fill: #ffb612; stroke: #ffb612"/>
     <use xlink:href="#m52ccc66d0b" x="213.617457" y="149.064182" style="fill: #ffb612; stroke: #ffb612"/>
     <use xlink:href="#m52ccc66d0b" x="215.015452" y="150.073798" style="fill: #ffb612; stroke: #ffb612"/>
     <use xlink:href="#m52ccc66d0b" x="216.413448" y="149.17167" style="fill: #ffb612; stroke: #ffb612"/>
     <use xlink:href="#m52ccc66d0b" x="217.811444" y="148.760389" style="fill: #ffb612; stroke: #ffb612"/>
     <use xlink:href="#m52ccc66d0b" x="219.209439" y="148.955658" style="fill: #ffb612; stroke: #ffb612"/>
     <use xlink:href="#m52ccc66d0b" x="220.607435" y="148.2925" style="fill: #ffb612; stroke: #ffb612"/>
     <use xlink:href="#m52ccc66d0b" x="222.005431" y="148.326947" style="fill: #ffb612; stroke: #ffb612"/>
     <use xlink:href="#m52ccc66d0b" x="223.403427" y="148.661387" style="fill: #ffb612; stroke: #ffb612"/>
     <use xlink:href="#m52ccc66d0b" x="224.801422" y="148.134778" style="fill: #ffb612; stroke: #ffb612"/>
     <use xlink:href="#m52ccc66d0b" x="226.199418" y="147.673761" style="fill: #ffb612; stroke: #ffb612"/>
     <use xlink:href="#m52ccc66d0b" x="227.597414" y="147.792264" style="fill: #ffb612; stroke: #ffb612"/>
     <use xlink:href="#m52ccc66d0b" x="228.995409" y="146.805186" style="fill: #ffb612; stroke: #ffb612"/>
     <use xlink:href="#m52ccc66d0b" x="230.393405" y="147.394773" style="fill: #ffb612; stroke: #ffb612"/>
     <use xlink:href="#m52ccc66d0b" x="231.791401" y="147.158574" style="fill: #ffb612; stroke: #ffb612"/>
     <use xlink:href="#m52ccc66d0b" x="233.189396" y="146.55607" style="fill: #ffb612; stroke: #ffb612"/>
     <use xlink:href="#m52ccc66d0b" x="234.587392" y="123.428972" style="fill: #ffb612; stroke: #ffb612"/>
     <use xlink:href="#m52ccc66d0b" x="235.985388" y="124.841873" style="fill: #ffb612; stroke: #ffb612"/>
     <use xlink:href="#m52ccc66d0b" x="237.383384" y="123.125223" style="fill: #ffb612; stroke: #ffb612"/>
     <use xlink:href="#m52ccc66d0b" x="238.781379" y="123.310041" style="fill: #ffb612; stroke: #ffb612"/>
     <use xlink:href="#m52ccc66d0b" x="240.179375" y="146.716467" style="fill: #ffb612; stroke: #ffb612"/>
     <use xlink:href="#m52ccc66d0b" x="241.577371" y="146.701383" style="fill: #ffb612; stroke: #ffb612"/>
     <use xlink:href="#m52ccc66d0b" x="242.975366" y="145.987258" style="fill: #ffb612; stroke: #ffb612"/>
     <use xlink:href="#m52ccc66d0b" x="244.373362" y="122.525017" style="fill: #ffb612; stroke: #ffb612"/>
     <use xlink:href="#m52ccc66d0b" x="245.771358" y="122.91143" style="fill: #ffb612; stroke: #ffb612"/>
     <use xlink:href="#m52ccc66d0b" x="247.169354" y="123.805914" style="fill: #ffb612; stroke: #ffb612"/>
     <use xlink:href="#m52ccc66d0b" x="248.567349" y="123.948266" style="fill: #ffb612; stroke: #ffb612"/>
     <use xlink:href="#m52ccc66d0b" x="249.965345" y="122.640882" style="fill: #ffb612; stroke: #ffb612"/>
     <use xlink:href="#m52ccc66d0b" x="251.363341" y="125.256005" style="fill: #ffb612; stroke: #ffb612"/>
     <use xlink:href="#m52ccc66d0b" x="252.761336" y="127.181382" style="fill: #ffb612; stroke: #ffb612"/>
     <use xlink:href="#m52ccc66d0b" x="254.159332" y="147.164078" style="fill: #ffb612; stroke: #ffb612"/>
     <use xlink:href="#m52ccc66d0b" x="255.557328" y="124.387657" style="fill: #ffb612; stroke: #ffb612"/>
     <use xlink:href="#m52ccc66d0b" x="256.955323" y="126.907145" style="fill: #ffb612; stroke: #ffb612"/>
     <use xlink:href="#m52ccc66d0b" x="258.353319" y="126.540347" style="fill: #ffb612; stroke: #ffb612"/>
     <use xlink:href="#m52ccc66d0b" x="259.751315" y="123.710851" style="fill: #ffb612; stroke: #ffb612"/>
     <use xlink:href="#m52ccc66d0b" x="261.149311" y="123.540014" style="fill: #ffb612; stroke: #ffb612"/>
     <use xlink:href="#m52ccc66d0b" x="262.547306" y="122.683345" style="fill: #ffb612; stroke: #ffb612"/>
     <use xlink:href="#m52ccc66d0b" x="263.945302" y="146.124034" style="fill: #ffb612; stroke: #ffb612"/>
     <use xlink:href="#m52ccc66d0b" x="265.343298" y="147.61087" style="fill: #ffb612; stroke: #ffb612"/>
     <use xlink:href="#m52ccc66d0b" x="266.741293" y="120.171169" style="fill: #ffb612; stroke: #ffb612"/>
     <use xlink:href="#m52ccc66d0b" x="268.139289" y="123.541878" style="fill: #ffb612; stroke: #ffb612"/>
     <use xlink:href="#m52ccc66d0b" x="269.537285" y="121.547775" style="fill: #ffb612; stroke: #ffb612"/>
     <use xlink:href="#m52ccc66d0b" x="270.935281" y="122.281575" style="fill: #ffb612; stroke: #ffb612"/>
     <use xlink:href="#m52ccc66d0b" x="272.333276" y="113.435587" style="fill: #ffb612; stroke: #ffb612"/>
     <use xlink:href="#m52ccc66d0b" x="273.731272" y="111.681563" style="fill: #ffb612; stroke: #ffb612"/>
     <use xlink:href="#m52ccc66d0b" x="275.129268" y="111.247335" style="fill: #ffb612; stroke: #ffb612"/>
     <use xlink:href="#m52ccc66d0b" x="276.527263" y="115.617061" style="fill: #ffb612; stroke: #ffb612"/>
     <use xlink:href="#m52ccc66d0b" x="277.925259" y="111.926664" style="fill: #ffb612; stroke: #ffb612"/>
     <use xlink:href="#m52ccc66d0b" x="279.323255" y="110.008836" style="fill: #ffb612; stroke: #ffb612"/>
     <use xlink:href="#m52ccc66d0b" x="280.72125" y="105.588844" style="fill: #ffb612; stroke: #ffb612"/>
     <use xlink:href="#m52ccc66d0b" x="282.119246" y="69.663823" style="fill: #ffb612; stroke: #ffb612"/>
     <use xlink:href="#m52ccc66d0b" x="283.517242" y="30.417176" style="fill: #ffb612; stroke: #ffb612"/>
     <use xlink:href="#m52ccc66d0b" x="284.915238" y="24.159214" style="fill: #ffb612; stroke: #ffb612"/>
     <use xlink:href="#m52ccc66d0b" x="286.313233" y="67.465532" style="fill: #ffb612; stroke: #ffb612"/>
     <use xlink:href="#m52ccc66d0b" x="287.711229" y="70.438948" style="fill: #ffb612; stroke: #ffb612"/>
     <use xlink:href="#m52ccc66d0b" x="289.109225" y="75.890488" style="fill: #ffb612; stroke: #ffb612"/>
     <use xlink:href="#m52ccc66d0b" x="290.50722" y="73.445132" style="fill: #ffb612; stroke: #ffb612"/>
     <use xlink:href="#m52ccc66d0b" x="291.905216" y="105.357397" style="fill: #ffb612; stroke: #ffb612"/>
     <use xlink:href="#m52ccc66d0b" x="293.303212" y="106.268256" style="fill: #ffb612; stroke: #ffb612"/>
     <use xlink:href="#m52ccc66d0b" x="294.701207" y="107.76603" style="fill: #ffb612; stroke: #ffb612"/>
     <use xlink:href="#m52ccc66d0b" x="296.099203" y="112.252865" style="fill: #ffb612; stroke: #ffb612"/>
     <use xlink:href="#m52ccc66d0b" x="297.497199" y="110.270301" style="fill: #ffb612; stroke: #ffb612"/>
     <use xlink:href="#m52ccc66d0b" x="298.895195" y="112.014555" style="fill: #ffb612; stroke: #ffb612"/>
     <use xlink:href="#m52ccc66d0b" x="300.29319" y="113.491714" style="fill: #ffb612; stroke: #ffb612"/>
     <use xlink:href="#m52ccc66d0b" x="301.691186" y="119.66269" style="fill: #ffb612; stroke: #ffb612"/>
     <use xlink:href="#m52ccc66d0b" x="303.089182" y="119.833058" style="fill: #ffb612; stroke: #ffb612"/>
     <use xlink:href="#m52ccc66d0b" x="304.487177" y="122.083811" style="fill: #ffb612; stroke: #ffb612"/>
     <use xlink:href="#m52ccc66d0b" x="305.885173" y="122.335037" style="fill: #ffb612; stroke: #ffb612"/>
     <use xlink:href="#m52ccc66d0b" x="307.283169" y="126.65122" style="fill: #ffb612; stroke: #ffb612"/>
     <use xlink:href="#m52ccc66d0b" x="308.681165" y="126.555674" style="fill: #ffb612; stroke: #ffb612"/>
     <use xlink:href="#m52ccc66d0b" x="310.07916" y="124.840491" style="fill: #ffb612; stroke: #ffb612"/>
     <use xlink:href="#m52ccc66d0b" x="311.477156" y="148.471765" style="fill: #ffb612; stroke: #ffb612"/>
     <use xlink:href="#m52ccc66d0b" x="312.875152" y="148.396799" style="fill: #ffb612; stroke: #ffb612"/>
     <use xlink:href="#m52ccc66d0b" x="314.273147" y="147.998302" style="fill: #ffb612; stroke: #ffb612"/>
     <use xlink:href="#m52ccc66d0b" x="315.671143" y="128.677731" style="fill: #ffb612; stroke: #ffb612"/>
     <use xlink:href="#m52ccc66d0b" x="317.069139" y="147.475164" style="fill: #ffb612; stroke: #ffb612"/>
     <use xlink:href="#m52ccc66d0b" x="318.467134" y="147.598511" style="fill: #ffb612; stroke: #ffb612"/>
     <use xlink:href="#m52ccc66d0b" x="319.86513" y="147.981647" style="fill: #ffb612; stroke: #ffb612"/>
     <use xlink:href="#m52ccc66d0b" x="321.263126" y="147.244539" style="fill: #ffb612; stroke: #ffb612"/>
     <use xlink:href="#m52ccc66d0b" x="322.661122" y="127.742223" style="fill: #ffb612; stroke: #ffb612"/>
     <use xlink:href="#m52ccc66d0b" x="324.059117" y="146.673924" style="fill: #ffb612; stroke: #ffb612"/>
     <use xlink:href="#m52ccc66d0b" x="325.457113" y="125.481866" style="fill: #ffb612; stroke: #ffb612"/>
     <use xlink:href="#m52ccc66d0b" x="326.855109" y="125.952531" style="fill: #ffb612; stroke: #ffb612"/>
     <use xlink:href="#m52ccc66d0b" x="328.253104" y="125.802551" style="fill: #ffb612; stroke: #ffb612"/>
     <use xlink:href="#m52ccc66d0b" x="329.6511" y="124.046763" style="fill: #ffb612; stroke: #ffb612"/>
     <use xlink:href="#m52ccc66d0b" x="331.049096" y="100.988051" style="fill: #ffb612; stroke: #ffb612"/>
     <use xlink:href="#m52ccc66d0b" x="332.447092" y="120.97201" style="fill: #ffb612; stroke: #ffb612"/>
     <use xlink:href="#m52ccc66d0b" x="333.845087" y="120.162836" style="fill: #ffb612; stroke: #ffb612"/>
     <use xlink:href="#m52ccc66d0b" x="335.243083" y="120.439129" style="fill: #ffb612; stroke: #ffb612"/>
     <use xlink:href="#m52ccc66d0b" x="336.641079" y="119.398856" style="fill: #ffb612; stroke: #ffb612"/>
     <use xlink:href="#m52ccc66d0b" x="338.039074" y="120.210048" style="fill: #ffb612; stroke: #ffb612"/>
     <use xlink:href="#m52ccc66d0b" x="339.43707" y="101.636893" style="fill: #ffb612; stroke: #ffb612"/>
     <use xlink:href="#m52ccc66d0b" x="340.835066" y="120.326069" style="fill: #ffb612; stroke: #ffb612"/>
     <use xlink:href="#m52ccc66d0b" x="342.233061" y="122.666325" style="fill: #ffb612; stroke: #ffb612"/>
     <use xlink:href="#m52ccc66d0b" x="343.631057" y="124.585716" style="fill: #ffb612; stroke: #ffb612"/>
     <use xlink:href="#m52ccc66d0b" x="345.029053" y="123.276859" style="fill: #ffb612; stroke: #ffb612"/>
     <use xlink:href="#m52ccc66d0b" x="346.427049" y="124.827221" style="fill: #ffb612; stroke: #ffb612"/>
     <use xlink:href="#m52ccc66d0b" x="347.825044" y="146.429076" style="fill: #ffb612; stroke: #ffb612"/>
     <use xlink:href="#m52ccc66d0b" x="349.22304" y="127.393435" style="fill: #ffb612; stroke: #ffb612"/>
     <use xlink:href="#m52ccc66d0b" x="350.621036" y="127.553615" style="fill: #ffb612; stroke: #ffb612"/>
     <use xlink:href="#m52ccc66d0b" x="352.019031" y="155.846623" style="fill: #ffb612; stroke: #ffb612"/>
     <use xlink:href="#m52ccc66d0b" x="353.417027" y="155.876561" style="fill: #ffb612; stroke: #ffb612"/>
     <use xlink:href="#m52ccc66d0b" x="354.815023" y="156.042406" style="fill: #ffb612; stroke: #ffb612"/>
     <use xlink:href="#m52ccc66d0b" x="356.213019" y="156.085172" style="fill: #ffb612; stroke: #ffb612"/>
     <use xlink:href="#m52ccc66d0b" x="357.611014" y="156.422076" style="fill: #ffb612; stroke: #ffb612"/>
     <use xlink:href="#m52ccc66d0b" x="359.00901" y="156.609931" style="fill: #ffb612; stroke: #ffb612"/>
     <use xlink:href="#m52ccc66d0b" x="360.407006" y="156.78328" style="fill: #ffb612; stroke: #ffb612"/>
     <use xlink:href="#m52ccc66d0b" x="361.805001" y="156.459809" style="fill: #ffb612; stroke: #ffb612"/>
     <use xlink:href="#m52ccc66d0b" x="363.202997" y="156.86436" style="fill: #ffb612; stroke: #ffb612"/>
     <use xlink:href="#m52ccc66d0b" x="364.600993" y="156.822734" style="fill: #ffb612; stroke: #ffb612"/>
     <use xlink:href="#m52ccc66d0b" x="365.998988" y="157.035082" style="fill: #ffb612; stroke: #ffb612"/>
     <use xlink:href="#m52ccc66d0b" x="367.396984" y="157.530959" style="fill: #ffb612; stroke: #ffb612"/>
     <use xlink:href="#m52ccc66d0b" x="368.79498" y="156.688983" style="fill: #ffb612; stroke: #ffb612"/>
     <use xlink:href="#m52ccc66d0b" x="370.192976" y="155.752865" style="fill: #ffb612; stroke: #ffb612"/>
     <use xlink:href="#m52ccc66d0b" x="371.590971" y="155.129072" style="fill: #ffb612; stroke: #ffb612"/>
     <use xlink:href="#m52ccc66d0b" x="372.988967" y="155.434646" style="fill: #ffb612; stroke: #ffb612"/>
     <use xlink:href="#m52ccc66d0b" x="374.386963" y="155.385186" style="fill: #ffb612; stroke: #ffb612"/>
     <use xlink:href="#m52ccc66d0b" x="375.784958" y="155.523372" style="fill: #ffb612; stroke: #ffb612"/>
     <use xlink:href="#m52ccc66d0b" x="377.182954" y="155.816206" style="fill: #ffb612; stroke: #ffb612"/>
     <use xlink:href="#m52ccc66d0b" x="378.58095" y="155.61486" style="fill: #ffb612; stroke: #ffb612"/>
     <use xlink:href="#m52ccc66d0b" x="379.978946" y="150.196812" style="fill: #ffb612; stroke: #ffb612"/>
     <use xlink:href="#m52ccc66d0b" x="381.376941" y="150.66424" style="fill: #ffb612; stroke: #ffb612"/>
     <use xlink:href="#m52ccc66d0b" x="382.774937" y="150.184461" style="fill: #ffb612; stroke: #ffb612"/>
     <use xlink:href="#m52ccc66d0b" x="384.172933" y="150.141436" style="fill: #ffb612; stroke: #ffb612"/>
     <use xlink:href="#m52ccc66d0b" x="385.570928" y="149.835594" style="fill: #ffb612; stroke: #ffb612"/>
     <use xlink:href="#m52ccc66d0b" x="386.968924" y="145.169656" style="fill: #ffb612; stroke: #ffb612"/>
     <use xlink:href="#m52ccc66d0b" x="388.36692" y="145.795457" style="fill: #ffb612; stroke: #ffb612"/>
     <use xlink:href="#m52ccc66d0b" x="389.764915" y="122.019612" style="fill: #ffb612; stroke: #ffb612"/>
     <use xlink:href="#m52ccc66d0b" x="391.162911" y="122.897552" style="fill: #ffb612; stroke: #ffb612"/>
     <use xlink:href="#m52ccc66d0b" x="392.560907" y="117.893514" style="fill: #ffb612; stroke: #ffb612"/>
     <use xlink:href="#m52ccc66d0b" x="393.958903" y="116.826088" style="fill: #ffb612; stroke: #ffb612"/>
     <use xlink:href="#m52ccc66d0b" x="395.356898" y="119.214025" style="fill: #ffb612; stroke: #ffb612"/>
     <use xlink:href="#m52ccc66d0b" x="396.754894" y="114.897731" style="fill: #ffb612; stroke: #ffb612"/>
     <use xlink:href="#m52ccc66d0b" x="398.15289" y="113.780927" style="fill: #ffb612; stroke: #ffb612"/>
     <use xlink:href="#m52ccc66d0b" x="399.550885" y="111.94958" style="fill: #ffb612; stroke: #ffb612"/>
     <use xlink:href="#m52ccc66d0b" x="400.948881" y="106.564091" style="fill: #ffb612; stroke: #ffb612"/>
     <use xlink:href="#m52ccc66d0b" x="402.346877" y="106.71941" style="fill: #ffb612; stroke: #ffb612"/>
     <use xlink:href="#m52ccc66d0b" x="403.744872" y="103.551293" style="fill: #ffb612; stroke: #ffb612"/>
     <use xlink:href="#m52ccc66d0b" x="405.142868" y="103.705766" style="fill: #ffb612; stroke: #ffb612"/>
     <use xlink:href="#m52ccc66d0b" x="406.540864" y="102.496847" style="fill: #ffb612; stroke: #ffb612"/>
     <use xlink:href="#m52ccc66d0b" x="407.93886" y="88.515946" style="fill: #ffb612; stroke: #ffb612"/>
     <use xlink:href="#m52ccc66d0b" x="409.336855" y="95.663919" style="fill: #ffb612; stroke: #ffb612"/>
     <use xlink:href="#m52ccc66d0b" x="410.734851" y="45.749101" style="fill: #ffb612; stroke: #ffb612"/>
     <use xlink:href="#m52ccc66d0b" x="412.132847" y="42.367035" style="fill: #ffb612; stroke: #ffb612"/>
     <use xlink:href="#m52ccc66d0b" x="413.530842" y="45.740981" style="fill: #ffb612; stroke: #ffb612"/>
     <use xlink:href="#m52ccc66d0b" x="414.928838" y="90.586181" style="fill: #ffb612; stroke: #ffb612"/>
     <use xlink:href="#m52ccc66d0b" x="416.326834" y="90.49556" style="fill: #ffb612; stroke: #ffb612"/>
     <use xlink:href="#m52ccc66d0b" x="417.72483" y="89.300301" style="fill: #ffb612; stroke: #ffb612"/>
    </g>
   </g>
   <g id="line2d_30">
    <path d="M 62.63392 135.270308 
L 64.031916 134.8829 
L 65.429912 130.509653 
L 66.827908 132.316419 
L 68.225903 131.756704 
L 69.623899 131.884493 
L 71.021895 135.242471 
L 72.41989 134.73899 
L 73.817886 135.33567 
L 75.215882 135.645836 
L 76.613878 138.346783 
L 78.011873 138.701361 
L 79.409869 137.753626 
L 80.807865 135.686332 
L 82.20586 130.97458 
L 83.603856 130.063965 
L 85.001852 129.759801 
L 86.399847 128.706644 
L 87.797843 129.553106 
L 89.195839 129.933573 
L 90.593835 127.756704 
L 91.99183 125.075959 
L 93.389826 125.372568 
L 94.787822 124.66072 
L 96.185817 117.806136 
L 97.583813 116.277609 
L 98.981809 113.612973 
L 100.379804 117.467741 
L 101.7778 120.526698 
L 103.175796 119.692278 
L 104.573792 121.773087 
L 105.971787 122.271781 
L 107.369783 129.663833 
L 108.767779 133.895899 
L 110.165774 132.267819 
L 111.56377 136.146697 
L 112.961766 134.0461 
L 114.359762 135.396244 
L 115.757757 131.185712 
L 117.155753 136.583092 
L 118.553749 140.122423 
L 119.951744 140.827154 
L 122.747736 140.887262 
L 124.145731 140.840049 
L 125.543727 145.781235 
L 126.941723 143.650325 
L 128.339719 144.034202 
L 129.737714 143.685346 
L 131.13571 145.541873 
L 132.533706 145.707315 
L 133.931701 144.790003 
L 135.329697 145.806974 
L 136.727693 143.703394 
L 138.125689 140.973207 
L 139.523684 142.035092 
L 140.92168 148.101926 
L 142.319676 149.163759 
L 143.717671 148.507577 
L 145.115667 145.667611 
L 146.513663 145.319431 
L 147.911658 143.114028 
L 149.309654 142.169137 
L 150.70765 140.309907 
L 152.105646 139.526237 
L 153.503641 139.425678 
L 154.901637 135.849084 
L 156.299633 138.643101 
L 157.697628 139.176193 
L 159.095624 146.339784 
L 160.49362 146.332608 
L 161.891616 144.303971 
L 163.289611 143.589445 
L 164.687607 144.658971 
L 166.085603 145.051816 
L 167.483598 144.855855 
L 168.881594 143.49891 
L 170.27959 147.303245 
L 171.677585 147.753219 
L 173.075581 147.473039 
L 174.473577 148.373866 
L 175.871573 148.822185 
L 177.269568 148.630484 
L 178.667564 145.575471 
L 180.06556 144.991514 
L 181.463555 142.528608 
L 182.861551 142.933317 
L 184.259547 141.883186 
L 185.657543 139.685654 
L 187.055538 139.736607 
L 188.453534 140.613761 
L 189.85153 139.986645 
L 191.249525 138.257791 
L 192.647521 137.372618 
L 194.045517 140.727065 
L 195.443512 138.242938 
L 196.841508 141.815823 
L 198.239504 143.276108 
L 199.6375 143.831793 
L 201.035495 144.546633 
L 202.433491 142.677927 
L 203.831487 144.171169 
L 205.229482 147.391045 
L 206.627478 148.125729 
L 209.423469 150.426057 
L 210.821465 149.641584 
L 213.617457 150.138794 
L 215.015452 152.057844 
L 216.413448 150.086109 
L 217.811444 149.219228 
L 219.209439 149.148546 
L 220.607435 148.414367 
L 222.005431 149.056147 
L 223.403427 148.749179 
L 224.801422 147.188258 
L 226.199418 146.830675 
L 227.597414 146.687047 
L 228.995409 144.269137 
L 230.393405 145.653799 
L 231.791401 145.409854 
L 233.189396 144.330508 
L 234.587392 140.953047 
L 235.985388 143.323815 
L 237.383384 143.19601 
L 238.781379 142.429617 
L 240.179375 145.48444 
L 241.577371 145.454374 
L 242.975366 144.780821 
L 244.373362 143.46585 
L 245.771358 142.4529 
L 247.169354 141.262157 
L 248.567349 140.888239 
L 249.965345 140.771624 
L 251.363341 140.403784 
L 252.761336 143.407598 
L 254.159332 144.514646 
L 255.557328 144.208081 
L 256.955323 143.683422 
L 258.353319 144.12086 
L 259.751315 141.217494 
L 261.149311 141.771117 
L 262.547306 141.277041 
L 263.945302 144.888763 
L 265.343298 145.633614 
L 266.741293 138.023687 
L 268.139289 138.057899 
L 269.537285 135.732062 
L 270.935281 136.020451 
L 272.333276 116.881116 
L 273.731272 105.636621 
L 275.129268 111.329283 
L 276.527263 115.800999 
L 277.925259 109.838158 
L 279.323255 106.814065 
L 280.72125 95.020543 
L 282.119246 66.455457 
L 283.517242 30.54305 
L 284.915238 22.28426 
L 286.313233 54.724871 
L 287.711229 66.902769 
L 289.109225 87.907429 
L 290.50722 83.856791 
L 291.905216 93.576896 
L 293.303212 101.579993 
L 294.701207 103.356724 
L 296.099203 109.321415 
L 297.497199 109.391912 
L 298.895195 112.762104 
L 300.29319 117.077603 
L 301.691186 130.200164 
L 303.089182 134.127485 
L 304.487177 134.941686 
L 305.885173 140.778823 
L 307.283169 141.666768 
L 310.07916 141.789472 
L 311.477156 145.825756 
L 312.875152 145.785032 
L 314.273147 145.189882 
L 315.671143 144.419813 
L 317.069139 144.470605 
L 318.467134 145.276248 
L 319.86513 147.019112 
L 321.263126 145.533428 
L 322.661122 144.776903 
L 324.059117 145.342417 
L 325.457113 140.495336 
L 326.855109 137.262174 
L 328.253104 137.045778 
L 329.6511 137.317496 
L 331.049096 109.079589 
L 332.447092 124.902751 
L 333.845087 119.874712 
L 335.243083 120.379696 
L 336.641079 120.416993 
L 338.039074 121.19959 
L 339.43707 112.067476 
L 340.835066 118.782 
L 342.233061 127.889572 
L 343.631057 134.792447 
L 345.029053 133.713877 
L 346.427049 133.728902 
L 347.825044 146.496633 
L 349.22304 142.61089 
L 350.621036 144.819969 
L 352.019031 154.951741 
L 353.417027 155.460111 
L 354.815023 155.031364 
L 356.213019 155.051029 
L 357.611014 155.626636 
L 359.00901 155.811662 
L 360.407006 156.120211 
L 361.805001 155.810002 
L 363.202997 155.766536 
L 364.600993 155.587525 
L 365.998988 155.603529 
L 367.396984 156.38708 
L 368.79498 156.591688 
L 370.192976 156.576027 
L 371.590971 154.481502 
L 372.988967 154.810146 
L 374.386963 154.439214 
L 375.784958 154.450818 
L 378.58095 153.487305 
L 379.978946 152.39647 
L 381.376941 152.027916 
L 384.172933 150.412228 
L 385.570928 150.418484 
L 386.968924 143.899708 
L 388.36692 144.673387 
L 389.764915 141.022164 
L 391.162911 139.391311 
L 392.560907 133.981699 
L 393.958903 131.641999 
L 395.356898 131.66788 
L 396.754894 124.579 
L 398.15289 120.355937 
L 399.550885 116.925103 
L 402.346877 101.005837 
L 403.744872 99.774696 
L 405.142868 99.776024 
L 406.540864 101.128374 
L 407.93886 76.2715 
L 409.336855 84.687286 
L 410.734851 59.058076 
L 412.132847 56.257023 
L 413.530842 60.203718 
L 414.928838 74.930584 
L 416.326834 75.545703 
L 417.72483 75.710345 
L 417.72483 75.710345 
" clip-path="url(#p56e0ed6ffa)" style="fill: none; stroke-dasharray: 5.55,2.4; stroke-dashoffset: 0; stroke: #000000; stroke-width: 1.5"/>
   </g>
   <g id="patch_3">
    <path d="M 44.879375 166.32 
L 44.879375 0 
" style="fill: none; stroke: #ffffff; stroke-linejoin: miter; stroke-linecap: square"/>
   </g>
   <g id="patch_4">
    <path d="M 435.479375 166.32 
L 435.479375 0 
" style="fill: none; stroke: #ffffff; stroke-linejoin: miter; stroke-linecap: square"/>
   </g>
   <g id="patch_5">
    <path d="M 44.879375 166.32 
L 435.479375 166.32 
" style="fill: none; stroke: #ffffff; stroke-linejoin: miter; stroke-linecap: square"/>
   </g>
   <g id="patch_6">
    <path d="M 44.879375 0 
L 435.479375 0 
" style="fill: none; stroke: #ffffff; stroke-linejoin: miter; stroke-linecap: square"/>
   </g>
   <g id="legend_1">
    <g id="patch_7">
     <path d="M 51.879375 60.378125 
L 203.92625 60.378125 
Q 205.92625 60.378125 205.92625 58.378125 
L 205.92625 7 
Q 205.92625 5 203.92625 5 
L 51.879375 5 
Q 49.879375 5 49.879375 7 
L 49.879375 58.378125 
Q 49.879375 60.378125 51.879375 60.378125 
z
" style="fill: #e5e5e5; opacity: 0.8; stroke: #cccccc; stroke-width: 0.5; stroke-linejoin: miter"/>
    </g>
    <g id="line2d_31">
     <path d="M 53.879375 15.5 
L 63.879375 15.5 
L 73.879375 15.5 
" style="fill: none; stroke: #ffb612; stroke-width: 3; stroke-linecap: square"/>
     <g>
      <use xlink:href="#m52ccc66d0b" x="63.879375" y="15.5" style="fill: #ffb612; stroke: #ffb612"/>
     </g>
    </g>
    <g id="text_17">
     <!-- Private Value $\tilde{R}_{\chi_3,\chi_1}^t$ -->
     <g transform="translate(81.879375 19) scale(0.1 -0.1)">
      <defs>
       <path id="DejaVuSans-50" d="M 1259 4147 
L 1259 2394 
L 2053 2394 
Q 2494 2394 2734 2622 
Q 2975 2850 2975 3272 
Q 2975 3691 2734 3919 
Q 2494 4147 2053 4147 
L 1259 4147 
z
M 628 4666 
L 2053 4666 
Q 2838 4666 3239 4311 
Q 3641 3956 3641 3272 
Q 3641 2581 3239 2228 
Q 2838 1875 2053 1875 
L 1259 1875 
L 1259 0 
L 628 0 
L 628 4666 
z
" transform="scale(0.015625)"/>
       <path id="DejaVuSans-72" d="M 2631 2963 
Q 2534 3019 2420 3045 
Q 2306 3072 2169 3072 
Q 1681 3072 1420 2755 
Q 1159 2438 1159 1844 
L 1159 0 
L 581 0 
L 581 3500 
L 1159 3500 
L 1159 2956 
Q 1341 3275 1631 3429 
Q 1922 3584 2338 3584 
Q 2397 3584 2469 3576 
Q 2541 3569 2628 3553 
L 2631 2963 
z
" transform="scale(0.015625)"/>
       <path id="DejaVuSans-69" d="M 603 3500 
L 1178 3500 
L 1178 0 
L 603 0 
L 603 3500 
z
M 603 4863 
L 1178 4863 
L 1178 4134 
L 603 4134 
L 603 4863 
z
" transform="scale(0.015625)"/>
       <path id="DejaVuSans-76" d="M 191 3500 
L 800 3500 
L 1894 563 
L 2988 3500 
L 3597 3500 
L 2284 0 
L 1503 0 
L 191 3500 
z
" transform="scale(0.015625)"/>
       <path id="DejaVuSans-20" transform="scale(0.015625)"/>
       <path id="DejaVuSans-303" d="M -1621 4281 
L -1799 4453 
Q -1867 4516 -1919 4545 
Q -1971 4575 -2011 4575 
Q -2130 4575 -2186 4461 
Q -2242 4347 -2249 4091 
L -2639 4091 
Q -2633 4513 -2473 4742 
Q -2314 4972 -2030 4972 
Q -1911 4972 -1811 4928 
Q -1711 4884 -1596 4781 
L -1417 4609 
Q -1349 4547 -1297 4517 
Q -1246 4488 -1205 4488 
Q -1086 4488 -1030 4602 
Q -974 4716 -967 4972 
L -577 4972 
Q -583 4550 -742 4320 
Q -902 4091 -1186 4091 
Q -1305 4091 -1405 4134 
Q -1505 4178 -1621 4281 
z
" transform="scale(0.015625)"/>
       <path id="DejaVuSans-Oblique-52" d="M 1613 4147 
L 1294 2491 
L 2106 2491 
Q 2584 2491 2879 2755 
Q 3175 3019 3175 3444 
Q 3175 3784 2976 3965 
Q 2778 4147 2406 4147 
L 1613 4147 
z
M 2772 2241 
Q 2972 2194 3105 2009 
Q 3238 1825 3413 1275 
L 3809 0 
L 3144 0 
L 2778 1197 
Q 2638 1659 2453 1815 
Q 2269 1972 1888 1972 
L 1191 1972 
L 806 0 
L 172 0 
L 1081 4666 
L 2503 4666 
Q 3150 4666 3495 4373 
Q 3841 4081 3841 3531 
Q 3841 3044 3547 2687 
Q 3253 2331 2772 2241 
z
" transform="scale(0.015625)"/>
       <path id="DejaVuSans-Oblique-74" d="M 2706 3500 
L 2619 3053 
L 1472 3053 
L 1100 1153 
Q 1081 1047 1072 975 
Q 1063 903 1063 863 
Q 1063 663 1183 572 
Q 1303 481 1569 481 
L 2150 481 
L 2053 0 
L 1503 0 
Q 991 0 739 200 
Q 488 400 488 806 
Q 488 878 497 964 
Q 506 1050 525 1153 
L 897 3053 
L 409 3053 
L 500 3500 
L 978 3500 
L 1172 4494 
L 1747 4494 
L 1556 3500 
L 2706 3500 
z
" transform="scale(0.015625)"/>
       <path id="DejaVuSans-Oblique-3c7" d="M 1922 -781 
L 1691 416 
L 394 -1334 
L -284 -1334 
L 1553 1141 
L 1269 2613 
Q 1194 3006 713 3006 
L 559 3006 
L 653 3500 
L 872 3494 
Q 1675 3472 1775 2950 
L 2006 1753 
L 3303 3503 
L 3981 3503 
L 2144 1028 
L 2428 -444 
Q 2503 -838 2984 -838 
L 3138 -838 
L 3044 -1331 
L 2825 -1325 
Q 2022 -1303 1922 -781 
z
" transform="scale(0.015625)"/>
       <path id="DejaVuSans-2c" d="M 750 794 
L 1409 794 
L 1409 256 
L 897 -744 
L 494 -744 
L 750 256 
L 750 794 
z
" transform="scale(0.015625)"/>
      </defs>
      <use xlink:href="#DejaVuSans-50" transform="translate(0 0.828125)"/>
      <use xlink:href="#DejaVuSans-72" transform="translate(60.302734 0.828125)"/>
      <use xlink:href="#DejaVuSans-69" transform="translate(101.416016 0.828125)"/>
      <use xlink:href="#DejaVuSans-76" transform="translate(129.199219 0.828125)"/>
      <use xlink:href="#DejaVuSans-61" transform="translate(188.378906 0.828125)"/>
      <use xlink:href="#DejaVuSans-74" transform="translate(249.658203 0.828125)"/>
      <use xlink:href="#DejaVuSans-65" transform="translate(288.867188 0.828125)"/>
      <use xlink:href="#DejaVuSans-20" transform="translate(350.390625 0.828125)"/>
      <use xlink:href="#DejaVuSans-56" transform="translate(382.177734 0.828125)"/>
      <use xlink:href="#DejaVuSans-61" transform="translate(450.585938 0.828125)"/>
      <use xlink:href="#DejaVuSans-6c" transform="translate(511.865234 0.828125)"/>
      <use xlink:href="#DejaVuSans-75" transform="translate(539.648438 0.828125)"/>
      <use xlink:href="#DejaVuSans-65" transform="translate(603.027344 0.828125)"/>
      <use xlink:href="#DejaVuSans-20" transform="translate(664.550781 0.828125)"/>
      <use xlink:href="#DejaVuSans-303" transform="translate(764.942871 22.3125)"/>
      <use xlink:href="#DejaVuSans-Oblique-52" transform="translate(696.337891 0.828125)"/>
      <use xlink:href="#DejaVuSans-Oblique-74" transform="translate(766.777344 39.109375) scale(0.7)"/>
      <use xlink:href="#DejaVuSans-Oblique-3c7" transform="translate(766.777344 -26.515625) scale(0.7)"/>
      <use xlink:href="#DejaVuSans-33" transform="translate(808.203125 -38) scale(0.49)"/>
      <use xlink:href="#DejaVuSans-2c" transform="translate(841.29248 -26.515625) scale(0.7)"/>
      <use xlink:href="#DejaVuSans-Oblique-3c7" transform="translate(877.181152 -26.515625) scale(0.7)"/>
      <use xlink:href="#DejaVuSans-31" transform="translate(918.606934 -38) scale(0.49)"/>
     </g>
    </g>
    <g id="line2d_32">
     <path d="M 53.879375 34 
L 63.879375 34 
L 73.879375 34 
" style="fill: none; stroke-dasharray: 5.55,2.4; stroke-dashoffset: 0; stroke: #000000; stroke-width: 1.5"/>
    </g>
    <g id="text_18">
     <!-- Original Value $\bar{R}_{\chi_3,\chi_1}^t$ -->
     <g transform="translate(81.879375 37.5) scale(0.1 -0.1)">
      <defs>
       <path id="DejaVuSans-4f" d="M 2522 4238 
Q 1834 4238 1429 3725 
Q 1025 3213 1025 2328 
Q 1025 1447 1429 934 
Q 1834 422 2522 422 
Q 3209 422 3611 934 
Q 4013 1447 4013 2328 
Q 4013 3213 3611 3725 
Q 3209 4238 2522 4238 
z
M 2522 4750 
Q 3503 4750 4090 4092 
Q 4678 3434 4678 2328 
Q 4678 1225 4090 567 
Q 3503 -91 2522 -91 
Q 1538 -91 948 565 
Q 359 1222 359 2328 
Q 359 3434 948 4092 
Q 1538 4750 2522 4750 
z
" transform="scale(0.015625)"/>
       <path id="DejaVuSans-67" d="M 2906 1791 
Q 2906 2416 2648 2759 
Q 2391 3103 1925 3103 
Q 1463 3103 1205 2759 
Q 947 2416 947 1791 
Q 947 1169 1205 825 
Q 1463 481 1925 481 
Q 2391 481 2648 825 
Q 2906 1169 2906 1791 
z
M 3481 434 
Q 3481 -459 3084 -895 
Q 2688 -1331 1869 -1331 
Q 1566 -1331 1297 -1286 
Q 1028 -1241 775 -1147 
L 775 -588 
Q 1028 -725 1275 -790 
Q 1522 -856 1778 -856 
Q 2344 -856 2625 -561 
Q 2906 -266 2906 331 
L 2906 616 
Q 2728 306 2450 153 
Q 2172 0 1784 0 
Q 1141 0 747 490 
Q 353 981 353 1791 
Q 353 2603 747 3093 
Q 1141 3584 1784 3584 
Q 2172 3584 2450 3431 
Q 2728 3278 2906 2969 
L 2906 3500 
L 3481 3500 
L 3481 434 
z
" transform="scale(0.015625)"/>
       <path id="DejaVuSans-6e" d="M 3513 2113 
L 3513 0 
L 2938 0 
L 2938 2094 
Q 2938 2591 2744 2837 
Q 2550 3084 2163 3084 
Q 1697 3084 1428 2787 
Q 1159 2491 1159 1978 
L 1159 0 
L 581 0 
L 581 3500 
L 1159 3500 
L 1159 2956 
Q 1366 3272 1645 3428 
Q 1925 3584 2291 3584 
Q 2894 3584 3203 3211 
Q 3513 2838 3513 2113 
z
" transform="scale(0.015625)"/>
       <path id="DejaVuSans-304" d="M -2518 4769 
L -650 4769 
L -650 4306 
L -2518 4306 
L -2518 4769 
z
" transform="scale(0.015625)"/>
      </defs>
      <use xlink:href="#DejaVuSans-4f" transform="translate(0 0.359375)"/>
      <use xlink:href="#DejaVuSans-72" transform="translate(78.710938 0.359375)"/>
      <use xlink:href="#DejaVuSans-69" transform="translate(119.824219 0.359375)"/>
      <use xlink:href="#DejaVuSans-67" transform="translate(147.607422 0.359375)"/>
      <use xlink:href="#DejaVuSans-69" transform="translate(211.083984 0.359375)"/>
      <use xlink:href="#DejaVuSans-6e" transform="translate(238.867188 0.359375)"/>
      <use xlink:href="#DejaVuSans-61" transform="translate(302.246094 0.359375)"/>
      <use xlink:href="#DejaVuSans-6c" transform="translate(363.525391 0.359375)"/>
      <use xlink:href="#DejaVuSans-20" transform="translate(391.308594 0.359375)"/>
      <use xlink:href="#DejaVuSans-56" transform="translate(423.095703 0.359375)"/>
      <use xlink:href="#DejaVuSans-61" transform="translate(491.503906 0.359375)"/>
      <use xlink:href="#DejaVuSans-6c" transform="translate(552.783203 0.359375)"/>
      <use xlink:href="#DejaVuSans-75" transform="translate(580.566406 0.359375)"/>
      <use xlink:href="#DejaVuSans-65" transform="translate(643.945312 0.359375)"/>
      <use xlink:href="#DejaVuSans-20" transform="translate(705.46875 0.359375)"/>
      <use xlink:href="#DejaVuSans-304" transform="translate(804.970215 18.484375)"/>
      <use xlink:href="#DejaVuSans-Oblique-52" transform="translate(737.255859 0.359375)"/>
      <use xlink:href="#DejaVuSans-Oblique-74" transform="translate(807.695312 38.640625) scale(0.7)"/>
      <use xlink:href="#DejaVuSans-Oblique-3c7" transform="translate(807.695312 -26.984375) scale(0.7)"/>
      <use xlink:href="#DejaVuSans-33" transform="translate(849.121094 -38.46875) scale(0.49)"/>
      <use xlink:href="#DejaVuSans-2c" transform="translate(882.210449 -26.984375) scale(0.7)"/>
      <use xlink:href="#DejaVuSans-Oblique-3c7" transform="translate(918.099121 -26.984375) scale(0.7)"/>
      <use xlink:href="#DejaVuSans-31" transform="translate(959.524902 -38.46875) scale(0.49)"/>
     </g>
    </g>
    <g id="patch_8">
     <path d="M 53.879375 54.298438 
L 73.879375 54.298438 
L 73.879375 47.298438 
L 53.879375 47.298438 
z
" style="fill: #ffb612; fill-opacity: 0.5; stroke: #ffb612; stroke-opacity: 0.5; stroke-width: 0.5; stroke-linejoin: miter"/>
    </g>
    <g id="text_19">
     <!-- One Standard Deviation -->
     <g transform="translate(81.879375 54.298438) scale(0.1 -0.1)">
      <defs>
       <path id="DejaVuSans-53" d="M 3425 4513 
L 3425 3897 
Q 3066 4069 2747 4153 
Q 2428 4238 2131 4238 
Q 1616 4238 1336 4038 
Q 1056 3838 1056 3469 
Q 1056 3159 1242 3001 
Q 1428 2844 1947 2747 
L 2328 2669 
Q 3034 2534 3370 2195 
Q 3706 1856 3706 1288 
Q 3706 609 3251 259 
Q 2797 -91 1919 -91 
Q 1588 -91 1214 -16 
Q 841 59 441 206 
L 441 856 
Q 825 641 1194 531 
Q 1563 422 1919 422 
Q 2459 422 2753 634 
Q 3047 847 3047 1241 
Q 3047 1584 2836 1778 
Q 2625 1972 2144 2069 
L 1759 2144 
Q 1053 2284 737 2584 
Q 422 2884 422 3419 
Q 422 4038 858 4394 
Q 1294 4750 2059 4750 
Q 2388 4750 2728 4690 
Q 3069 4631 3425 4513 
z
" transform="scale(0.015625)"/>
       <path id="DejaVuSans-64" d="M 2906 2969 
L 2906 4863 
L 3481 4863 
L 3481 0 
L 2906 0 
L 2906 525 
Q 2725 213 2448 61 
Q 2172 -91 1784 -91 
Q 1150 -91 751 415 
Q 353 922 353 1747 
Q 353 2572 751 3078 
Q 1150 3584 1784 3584 
Q 2172 3584 2448 3432 
Q 2725 3281 2906 2969 
z
M 947 1747 
Q 947 1113 1208 752 
Q 1469 391 1925 391 
Q 2381 391 2643 752 
Q 2906 1113 2906 1747 
Q 2906 2381 2643 2742 
Q 2381 3103 1925 3103 
Q 1469 3103 1208 2742 
Q 947 2381 947 1747 
z
" transform="scale(0.015625)"/>
       <path id="DejaVuSans-6f" d="M 1959 3097 
Q 1497 3097 1228 2736 
Q 959 2375 959 1747 
Q 959 1119 1226 758 
Q 1494 397 1959 397 
Q 2419 397 2687 759 
Q 2956 1122 2956 1747 
Q 2956 2369 2687 2733 
Q 2419 3097 1959 3097 
z
M 1959 3584 
Q 2709 3584 3137 3096 
Q 3566 2609 3566 1747 
Q 3566 888 3137 398 
Q 2709 -91 1959 -91 
Q 1206 -91 779 398 
Q 353 888 353 1747 
Q 353 2609 779 3096 
Q 1206 3584 1959 3584 
z
" transform="scale(0.015625)"/>
      </defs>
      <use xlink:href="#DejaVuSans-4f"/>
      <use xlink:href="#DejaVuSans-6e" x="78.710938"/>
      <use xlink:href="#DejaVuSans-65" x="142.089844"/>
      <use xlink:href="#DejaVuSans-20" x="203.613281"/>
      <use xlink:href="#DejaVuSans-53" x="235.400391"/>
      <use xlink:href="#DejaVuSans-74" x="298.876953"/>
      <use xlink:href="#DejaVuSans-61" x="338.085938"/>
      <use xlink:href="#DejaVuSans-6e" x="399.365234"/>
      <use xlink:href="#DejaVuSans-64" x="462.744141"/>
      <use xlink:href="#DejaVuSans-61" x="526.220703"/>
      <use xlink:href="#DejaVuSans-72" x="587.5"/>
      <use xlink:href="#DejaVuSans-64" x="626.863281"/>
      <use xlink:href="#DejaVuSans-20" x="690.339844"/>
      <use xlink:href="#DejaVuSans-44" x="722.126953"/>
      <use xlink:href="#DejaVuSans-65" x="799.128906"/>
      <use xlink:href="#DejaVuSans-76" x="860.652344"/>
      <use xlink:href="#DejaVuSans-69" x="919.832031"/>
      <use xlink:href="#DejaVuSans-61" x="947.615234"/>
      <use xlink:href="#DejaVuSans-74" x="1008.894531"/>
      <use xlink:href="#DejaVuSans-69" x="1048.103516"/>
      <use xlink:href="#DejaVuSans-6f" x="1075.886719"/>
      <use xlink:href="#DejaVuSans-6e" x="1137.068359"/>
     </g>
    </g>
   </g>
  </g>
 </g>
 <defs>
  <clipPath id="p56e0ed6ffa">
   <rect x="44.879375" y="0" width="390.6" height="166.32"/>
  </clipPath>
 </defs>
</svg>
