<?xml version="1.0" encoding="utf-8" standalone="no"?>
<!DOCTYPE svg PUBLIC "-//W3C//DTD SVG 1.1//EN"
  "http://www.w3.org/Graphics/SVG/1.1/DTD/svg11.dtd">
<svg xmlns:xlink="http://www.w3.org/1999/xlink" width="444.375067pt" height="199.977369pt" viewBox="0 0 444.375067 199.977369" xmlns="http://www.w3.org/2000/svg" version="1.1">
 <metadata>
  <rdf:RDF xmlns:dc="http://purl.org/dc/elements/1.1/" xmlns:cc="http://creativecommons.org/ns#" xmlns:rdf="http://www.w3.org/1999/02/22-rdf-syntax-ns#">
   <cc:Work>
    <dc:type rdf:resource="http://purl.org/dc/dcmitype/StillImage"/>
    <dc:date>2024-09-18T15:47:53.042410</dc:date>
    <dc:format>image/svg+xml</dc:format>
    <dc:creator>
     <cc:Agent>
      <dc:title>Matplotlib v3.7.5, https://matplotlib.org/</dc:title>
     </cc:Agent>
    </dc:creator>
   </cc:Work>
  </rdf:RDF>
 </metadata>
 <defs>
  <style type="text/css">*{stroke-linejoin: round; stroke-linecap: butt}</style>
 </defs>
 <g id="figure_1">
  <g id="patch_1">
   <path d="M 0 199.977369 
L 444.375067 199.977369 
L 444.375067 0 
L 0 0 
z
" style="fill: #ffffff"/>
  </g>
  <g id="axes_1">
   <g id="patch_2">
    <path d="M 44.879375 167.685494 
L 435.479375 167.685494 
L 435.479375 1.365494 
L 44.879375 1.365494 
z
" style="fill: #e5e5e5"/>
   </g>
   <g id="matplotlib.axis_1">
    <g id="xtick_1">
     <g id="line2d_1">
      <path d="M 72.41989 167.685494 
L 72.41989 1.365494 
" clip-path="url(#p60d224506b)" style="fill: none; stroke: #ffffff; stroke-width: 0.8; stroke-linecap: square"/>
     </g>
     <g id="line2d_2">
      <defs>
       <path id="ma1a9ba1ff4" d="M 0 0 
L 0 3.5 
" style="stroke: #555555; stroke-width: 0.8"/>
      </defs>
      <g>
       <use xlink:href="#ma1a9ba1ff4" x="72.41989" y="167.685494" style="fill: #555555; stroke: #555555; stroke-width: 0.8"/>
      </g>
     </g>
     <g id="text_1">
      <!-- 08/16/20 -->
      <g style="fill: #555555" transform="translate(49.96364 182.283931) scale(0.1 -0.1)">
       <defs>
        <path id="DejaVuSans-30" d="M 2034 4250 
Q 1547 4250 1301 3770 
Q 1056 3291 1056 2328 
Q 1056 1369 1301 889 
Q 1547 409 2034 409 
Q 2525 409 2770 889 
Q 3016 1369 3016 2328 
Q 3016 3291 2770 3770 
Q 2525 4250 2034 4250 
z
M 2034 4750 
Q 2819 4750 3233 4129 
Q 3647 3509 3647 2328 
Q 3647 1150 3233 529 
Q 2819 -91 2034 -91 
Q 1250 -91 836 529 
Q 422 1150 422 2328 
Q 422 3509 836 4129 
Q 1250 4750 2034 4750 
z
" transform="scale(0.015625)"/>
        <path id="DejaVuSans-38" d="M 2034 2216 
Q 1584 2216 1326 1975 
Q 1069 1734 1069 1313 
Q 1069 891 1326 650 
Q 1584 409 2034 409 
Q 2484 409 2743 651 
Q 3003 894 3003 1313 
Q 3003 1734 2745 1975 
Q 2488 2216 2034 2216 
z
M 1403 2484 
Q 997 2584 770 2862 
Q 544 3141 544 3541 
Q 544 4100 942 4425 
Q 1341 4750 2034 4750 
Q 2731 4750 3128 4425 
Q 3525 4100 3525 3541 
Q 3525 3141 3298 2862 
Q 3072 2584 2669 2484 
Q 3125 2378 3379 2068 
Q 3634 1759 3634 1313 
Q 3634 634 3220 271 
Q 2806 -91 2034 -91 
Q 1263 -91 848 271 
Q 434 634 434 1313 
Q 434 1759 690 2068 
Q 947 2378 1403 2484 
z
M 1172 3481 
Q 1172 3119 1398 2916 
Q 1625 2713 2034 2713 
Q 2441 2713 2670 2916 
Q 2900 3119 2900 3481 
Q 2900 3844 2670 4047 
Q 2441 4250 2034 4250 
Q 1625 4250 1398 4047 
Q 1172 3844 1172 3481 
z
" transform="scale(0.015625)"/>
        <path id="DejaVuSans-2f" d="M 1625 4666 
L 2156 4666 
L 531 -594 
L 0 -594 
L 1625 4666 
z
" transform="scale(0.015625)"/>
        <path id="DejaVuSans-31" d="M 794 531 
L 1825 531 
L 1825 4091 
L 703 3866 
L 703 4441 
L 1819 4666 
L 2450 4666 
L 2450 531 
L 3481 531 
L 3481 0 
L 794 0 
L 794 531 
z
" transform="scale(0.015625)"/>
        <path id="DejaVuSans-36" d="M 2113 2584 
Q 1688 2584 1439 2293 
Q 1191 2003 1191 1497 
Q 1191 994 1439 701 
Q 1688 409 2113 409 
Q 2538 409 2786 701 
Q 3034 994 3034 1497 
Q 3034 2003 2786 2293 
Q 2538 2584 2113 2584 
z
M 3366 4563 
L 3366 3988 
Q 3128 4100 2886 4159 
Q 2644 4219 2406 4219 
Q 1781 4219 1451 3797 
Q 1122 3375 1075 2522 
Q 1259 2794 1537 2939 
Q 1816 3084 2150 3084 
Q 2853 3084 3261 2657 
Q 3669 2231 3669 1497 
Q 3669 778 3244 343 
Q 2819 -91 2113 -91 
Q 1303 -91 875 529 
Q 447 1150 447 2328 
Q 447 3434 972 4092 
Q 1497 4750 2381 4750 
Q 2619 4750 2861 4703 
Q 3103 4656 3366 4563 
z
" transform="scale(0.015625)"/>
        <path id="DejaVuSans-32" d="M 1228 531 
L 3431 531 
L 3431 0 
L 469 0 
L 469 531 
Q 828 903 1448 1529 
Q 2069 2156 2228 2338 
Q 2531 2678 2651 2914 
Q 2772 3150 2772 3378 
Q 2772 3750 2511 3984 
Q 2250 4219 1831 4219 
Q 1534 4219 1204 4116 
Q 875 4013 500 3803 
L 500 4441 
Q 881 4594 1212 4672 
Q 1544 4750 1819 4750 
Q 2544 4750 2975 4387 
Q 3406 4025 3406 3419 
Q 3406 3131 3298 2873 
Q 3191 2616 2906 2266 
Q 2828 2175 2409 1742 
Q 1991 1309 1228 531 
z
" transform="scale(0.015625)"/>
       </defs>
       <use xlink:href="#DejaVuSans-30"/>
       <use xlink:href="#DejaVuSans-38" x="63.623047"/>
       <use xlink:href="#DejaVuSans-2f" x="127.246094"/>
       <use xlink:href="#DejaVuSans-31" x="160.9375"/>
       <use xlink:href="#DejaVuSans-36" x="224.560547"/>
       <use xlink:href="#DejaVuSans-2f" x="288.183594"/>
       <use xlink:href="#DejaVuSans-32" x="321.875"/>
       <use xlink:href="#DejaVuSans-30" x="385.498047"/>
      </g>
     </g>
    </g>
    <g id="xtick_2">
     <g id="line2d_3">
      <path d="M 142.319676 167.685494 
L 142.319676 1.365494 
" clip-path="url(#p60d224506b)" style="fill: none; stroke: #ffffff; stroke-width: 0.8; stroke-linecap: square"/>
     </g>
     <g id="line2d_4">
      <g>
       <use xlink:href="#ma1a9ba1ff4" x="142.319676" y="167.685494" style="fill: #555555; stroke: #555555; stroke-width: 0.8"/>
      </g>
     </g>
     <g id="text_2">
      <!-- 10/05/20 -->
      <g style="fill: #555555" transform="translate(119.863426 182.283931) scale(0.1 -0.1)">
       <defs>
        <path id="DejaVuSans-35" d="M 691 4666 
L 3169 4666 
L 3169 4134 
L 1269 4134 
L 1269 2991 
Q 1406 3038 1543 3061 
Q 1681 3084 1819 3084 
Q 2600 3084 3056 2656 
Q 3513 2228 3513 1497 
Q 3513 744 3044 326 
Q 2575 -91 1722 -91 
Q 1428 -91 1123 -41 
Q 819 9 494 109 
L 494 744 
Q 775 591 1075 516 
Q 1375 441 1709 441 
Q 2250 441 2565 725 
Q 2881 1009 2881 1497 
Q 2881 1984 2565 2268 
Q 2250 2553 1709 2553 
Q 1456 2553 1204 2497 
Q 953 2441 691 2322 
L 691 4666 
z
" transform="scale(0.015625)"/>
       </defs>
       <use xlink:href="#DejaVuSans-31"/>
       <use xlink:href="#DejaVuSans-30" x="63.623047"/>
       <use xlink:href="#DejaVuSans-2f" x="127.246094"/>
       <use xlink:href="#DejaVuSans-30" x="160.9375"/>
       <use xlink:href="#DejaVuSans-35" x="224.560547"/>
       <use xlink:href="#DejaVuSans-2f" x="288.183594"/>
       <use xlink:href="#DejaVuSans-32" x="321.875"/>
       <use xlink:href="#DejaVuSans-30" x="385.498047"/>
      </g>
     </g>
    </g>
    <g id="xtick_3">
     <g id="line2d_5">
      <path d="M 212.219461 167.685494 
L 212.219461 1.365494 
" clip-path="url(#p60d224506b)" style="fill: none; stroke: #ffffff; stroke-width: 0.8; stroke-linecap: square"/>
     </g>
     <g id="line2d_6">
      <g>
       <use xlink:href="#ma1a9ba1ff4" x="212.219461" y="167.685494" style="fill: #555555; stroke: #555555; stroke-width: 0.8"/>
      </g>
     </g>
     <g id="text_3">
      <!-- 11/24/20 -->
      <g style="fill: #555555" transform="translate(189.763211 182.283931) scale(0.1 -0.1)">
       <defs>
        <path id="DejaVuSans-34" d="M 2419 4116 
L 825 1625 
L 2419 1625 
L 2419 4116 
z
M 2253 4666 
L 3047 4666 
L 3047 1625 
L 3713 1625 
L 3713 1100 
L 3047 1100 
L 3047 0 
L 2419 0 
L 2419 1100 
L 313 1100 
L 313 1709 
L 2253 4666 
z
" transform="scale(0.015625)"/>
       </defs>
       <use xlink:href="#DejaVuSans-31"/>
       <use xlink:href="#DejaVuSans-31" x="63.623047"/>
       <use xlink:href="#DejaVuSans-2f" x="127.246094"/>
       <use xlink:href="#DejaVuSans-32" x="160.9375"/>
       <use xlink:href="#DejaVuSans-34" x="224.560547"/>
       <use xlink:href="#DejaVuSans-2f" x="288.183594"/>
       <use xlink:href="#DejaVuSans-32" x="321.875"/>
       <use xlink:href="#DejaVuSans-30" x="385.498047"/>
      </g>
     </g>
    </g>
    <g id="xtick_4">
     <g id="line2d_7">
      <path d="M 282.119246 167.685494 
L 282.119246 1.365494 
" clip-path="url(#p60d224506b)" style="fill: none; stroke: #ffffff; stroke-width: 0.8; stroke-linecap: square"/>
     </g>
     <g id="line2d_8">
      <g>
       <use xlink:href="#ma1a9ba1ff4" x="282.119246" y="167.685494" style="fill: #555555; stroke: #555555; stroke-width: 0.8"/>
      </g>
     </g>
     <g id="text_4">
      <!-- 01/13/21 -->
      <g style="fill: #555555" transform="translate(259.662996 182.283931) scale(0.1 -0.1)">
       <defs>
        <path id="DejaVuSans-33" d="M 2597 2516 
Q 3050 2419 3304 2112 
Q 3559 1806 3559 1356 
Q 3559 666 3084 287 
Q 2609 -91 1734 -91 
Q 1441 -91 1130 -33 
Q 819 25 488 141 
L 488 750 
Q 750 597 1062 519 
Q 1375 441 1716 441 
Q 2309 441 2620 675 
Q 2931 909 2931 1356 
Q 2931 1769 2642 2001 
Q 2353 2234 1838 2234 
L 1294 2234 
L 1294 2753 
L 1863 2753 
Q 2328 2753 2575 2939 
Q 2822 3125 2822 3475 
Q 2822 3834 2567 4026 
Q 2313 4219 1838 4219 
Q 1578 4219 1281 4162 
Q 984 4106 628 3988 
L 628 4550 
Q 988 4650 1302 4700 
Q 1616 4750 1894 4750 
Q 2613 4750 3031 4423 
Q 3450 4097 3450 3541 
Q 3450 3153 3228 2886 
Q 3006 2619 2597 2516 
z
" transform="scale(0.015625)"/>
       </defs>
       <use xlink:href="#DejaVuSans-30"/>
       <use xlink:href="#DejaVuSans-31" x="63.623047"/>
       <use xlink:href="#DejaVuSans-2f" x="127.246094"/>
       <use xlink:href="#DejaVuSans-31" x="160.9375"/>
       <use xlink:href="#DejaVuSans-33" x="224.560547"/>
       <use xlink:href="#DejaVuSans-2f" x="288.183594"/>
       <use xlink:href="#DejaVuSans-32" x="321.875"/>
       <use xlink:href="#DejaVuSans-31" x="385.498047"/>
      </g>
     </g>
    </g>
    <g id="xtick_5">
     <g id="line2d_9">
      <path d="M 352.019031 167.685494 
L 352.019031 1.365494 
" clip-path="url(#p60d224506b)" style="fill: none; stroke: #ffffff; stroke-width: 0.8; stroke-linecap: square"/>
     </g>
     <g id="line2d_10">
      <g>
       <use xlink:href="#ma1a9ba1ff4" x="352.019031" y="167.685494" style="fill: #555555; stroke: #555555; stroke-width: 0.8"/>
      </g>
     </g>
     <g id="text_5">
      <!-- 03/04/21 -->
      <g style="fill: #555555" transform="translate(329.562781 182.283931) scale(0.1 -0.1)">
       <use xlink:href="#DejaVuSans-30"/>
       <use xlink:href="#DejaVuSans-33" x="63.623047"/>
       <use xlink:href="#DejaVuSans-2f" x="127.246094"/>
       <use xlink:href="#DejaVuSans-30" x="160.9375"/>
       <use xlink:href="#DejaVuSans-34" x="224.560547"/>
       <use xlink:href="#DejaVuSans-2f" x="288.183594"/>
       <use xlink:href="#DejaVuSans-32" x="321.875"/>
       <use xlink:href="#DejaVuSans-31" x="385.498047"/>
      </g>
     </g>
    </g>
    <g id="xtick_6">
     <g id="line2d_11">
      <path d="M 421.918817 167.685494 
L 421.918817 1.365494 
" clip-path="url(#p60d224506b)" style="fill: none; stroke: #ffffff; stroke-width: 0.8; stroke-linecap: square"/>
     </g>
     <g id="line2d_12">
      <g>
       <use xlink:href="#ma1a9ba1ff4" x="421.918817" y="167.685494" style="fill: #555555; stroke: #555555; stroke-width: 0.8"/>
      </g>
     </g>
     <g id="text_6">
      <!-- 04/23/21 -->
      <g style="fill: #555555" transform="translate(399.462567 182.283931) scale(0.1 -0.1)">
       <use xlink:href="#DejaVuSans-30"/>
       <use xlink:href="#DejaVuSans-34" x="63.623047"/>
       <use xlink:href="#DejaVuSans-2f" x="127.246094"/>
       <use xlink:href="#DejaVuSans-32" x="160.9375"/>
       <use xlink:href="#DejaVuSans-33" x="224.560547"/>
       <use xlink:href="#DejaVuSans-2f" x="288.183594"/>
       <use xlink:href="#DejaVuSans-32" x="321.875"/>
       <use xlink:href="#DejaVuSans-31" x="385.498047"/>
      </g>
     </g>
    </g>
    <g id="text_7">
     <!-- Date -->
     <g style="fill: #555555" transform="translate(225.838438 197.481744) scale(0.12 -0.12)">
      <defs>
       <path id="DejaVuSans-44" d="M 1259 4147 
L 1259 519 
L 2022 519 
Q 2988 519 3436 956 
Q 3884 1394 3884 2338 
Q 3884 3275 3436 3711 
Q 2988 4147 2022 4147 
L 1259 4147 
z
M 628 4666 
L 1925 4666 
Q 3281 4666 3915 4102 
Q 4550 3538 4550 2338 
Q 4550 1131 3912 565 
Q 3275 0 1925 0 
L 628 0 
L 628 4666 
z
" transform="scale(0.015625)"/>
       <path id="DejaVuSans-61" d="M 2194 1759 
Q 1497 1759 1228 1600 
Q 959 1441 959 1056 
Q 959 750 1161 570 
Q 1363 391 1709 391 
Q 2188 391 2477 730 
Q 2766 1069 2766 1631 
L 2766 1759 
L 2194 1759 
z
M 3341 1997 
L 3341 0 
L 2766 0 
L 2766 531 
Q 2569 213 2275 61 
Q 1981 -91 1556 -91 
Q 1019 -91 701 211 
Q 384 513 384 1019 
Q 384 1609 779 1909 
Q 1175 2209 1959 2209 
L 2766 2209 
L 2766 2266 
Q 2766 2663 2505 2880 
Q 2244 3097 1772 3097 
Q 1472 3097 1187 3025 
Q 903 2953 641 2809 
L 641 3341 
Q 956 3463 1253 3523 
Q 1550 3584 1831 3584 
Q 2591 3584 2966 3190 
Q 3341 2797 3341 1997 
z
" transform="scale(0.015625)"/>
       <path id="DejaVuSans-74" d="M 1172 4494 
L 1172 3500 
L 2356 3500 
L 2356 3053 
L 1172 3053 
L 1172 1153 
Q 1172 725 1289 603 
Q 1406 481 1766 481 
L 2356 481 
L 2356 0 
L 1766 0 
Q 1100 0 847 248 
Q 594 497 594 1153 
L 594 3053 
L 172 3053 
L 172 3500 
L 594 3500 
L 594 4494 
L 1172 4494 
z
" transform="scale(0.015625)"/>
       <path id="DejaVuSans-65" d="M 3597 1894 
L 3597 1613 
L 953 1613 
Q 991 1019 1311 708 
Q 1631 397 2203 397 
Q 2534 397 2845 478 
Q 3156 559 3463 722 
L 3463 178 
Q 3153 47 2828 -22 
Q 2503 -91 2169 -91 
Q 1331 -91 842 396 
Q 353 884 353 1716 
Q 353 2575 817 3079 
Q 1281 3584 2069 3584 
Q 2775 3584 3186 3129 
Q 3597 2675 3597 1894 
z
M 3022 2063 
Q 3016 2534 2758 2815 
Q 2500 3097 2075 3097 
Q 1594 3097 1305 2825 
Q 1016 2553 972 2059 
L 3022 2063 
z
" transform="scale(0.015625)"/>
      </defs>
      <use xlink:href="#DejaVuSans-44"/>
      <use xlink:href="#DejaVuSans-61" x="77.001953"/>
      <use xlink:href="#DejaVuSans-74" x="138.28125"/>
      <use xlink:href="#DejaVuSans-65" x="177.490234"/>
     </g>
    </g>
   </g>
   <g id="matplotlib.axis_2">
    <g id="ytick_1">
     <g id="line2d_13">
      <path d="M 44.879375 139.562981 
L 435.479375 139.562981 
" clip-path="url(#p60d224506b)" style="fill: none; stroke: #ffffff; stroke-width: 0.8; stroke-linecap: square"/>
     </g>
     <g id="line2d_14">
      <defs>
       <path id="md09d2712f7" d="M 0 0 
L -3.5 0 
" style="stroke: #555555; stroke-width: 0.8"/>
      </defs>
      <g>
       <use xlink:href="#md09d2712f7" x="44.879375" y="139.562981" style="fill: #555555; stroke: #555555; stroke-width: 0.8"/>
      </g>
     </g>
     <g id="text_8">
      <!-- 0.05 -->
      <g style="fill: #555555" transform="translate(15.61375 143.362199) scale(0.1 -0.1)">
       <defs>
        <path id="DejaVuSans-2e" d="M 684 794 
L 1344 794 
L 1344 0 
L 684 0 
L 684 794 
z
" transform="scale(0.015625)"/>
       </defs>
       <use xlink:href="#DejaVuSans-30"/>
       <use xlink:href="#DejaVuSans-2e" x="63.623047"/>
       <use xlink:href="#DejaVuSans-30" x="95.410156"/>
       <use xlink:href="#DejaVuSans-35" x="159.033203"/>
      </g>
     </g>
    </g>
    <g id="ytick_2">
     <g id="line2d_15">
      <path d="M 44.879375 105.62204 
L 435.479375 105.62204 
" clip-path="url(#p60d224506b)" style="fill: none; stroke: #ffffff; stroke-width: 0.8; stroke-linecap: square"/>
     </g>
     <g id="line2d_16">
      <g>
       <use xlink:href="#md09d2712f7" x="44.879375" y="105.62204" style="fill: #555555; stroke: #555555; stroke-width: 0.8"/>
      </g>
     </g>
     <g id="text_9">
      <!-- 0.10 -->
      <g style="fill: #555555" transform="translate(15.61375 109.421259) scale(0.1 -0.1)">
       <use xlink:href="#DejaVuSans-30"/>
       <use xlink:href="#DejaVuSans-2e" x="63.623047"/>
       <use xlink:href="#DejaVuSans-31" x="95.410156"/>
       <use xlink:href="#DejaVuSans-30" x="159.033203"/>
      </g>
     </g>
    </g>
    <g id="ytick_3">
     <g id="line2d_17">
      <path d="M 44.879375 71.6811 
L 435.479375 71.6811 
" clip-path="url(#p60d224506b)" style="fill: none; stroke: #ffffff; stroke-width: 0.8; stroke-linecap: square"/>
     </g>
     <g id="line2d_18">
      <g>
       <use xlink:href="#md09d2712f7" x="44.879375" y="71.6811" style="fill: #555555; stroke: #555555; stroke-width: 0.8"/>
      </g>
     </g>
     <g id="text_10">
      <!-- 0.15 -->
      <g style="fill: #555555" transform="translate(15.61375 75.480318) scale(0.1 -0.1)">
       <use xlink:href="#DejaVuSans-30"/>
       <use xlink:href="#DejaVuSans-2e" x="63.623047"/>
       <use xlink:href="#DejaVuSans-31" x="95.410156"/>
       <use xlink:href="#DejaVuSans-35" x="159.033203"/>
      </g>
     </g>
    </g>
    <g id="ytick_4">
     <g id="line2d_19">
      <path d="M 44.879375 37.740159 
L 435.479375 37.740159 
" clip-path="url(#p60d224506b)" style="fill: none; stroke: #ffffff; stroke-width: 0.8; stroke-linecap: square"/>
     </g>
     <g id="line2d_20">
      <g>
       <use xlink:href="#md09d2712f7" x="44.879375" y="37.740159" style="fill: #555555; stroke: #555555; stroke-width: 0.8"/>
      </g>
     </g>
     <g id="text_11">
      <!-- 0.20 -->
      <g style="fill: #555555" transform="translate(15.61375 41.539378) scale(0.1 -0.1)">
       <use xlink:href="#DejaVuSans-30"/>
       <use xlink:href="#DejaVuSans-2e" x="63.623047"/>
       <use xlink:href="#DejaVuSans-32" x="95.410156"/>
       <use xlink:href="#DejaVuSans-30" x="159.033203"/>
      </g>
     </g>
    </g>
    <g id="ytick_5">
     <g id="line2d_21">
      <path d="M 44.879375 3.799219 
L 435.479375 3.799219 
" clip-path="url(#p60d224506b)" style="fill: none; stroke: #ffffff; stroke-width: 0.8; stroke-linecap: square"/>
     </g>
     <g id="line2d_22">
      <g>
       <use xlink:href="#md09d2712f7" x="44.879375" y="3.799219" style="fill: #555555; stroke: #555555; stroke-width: 0.8"/>
      </g>
     </g>
     <g id="text_12">
      <!-- 0.25 -->
      <g style="fill: #555555" transform="translate(15.61375 7.598437) scale(0.1 -0.1)">
       <use xlink:href="#DejaVuSans-30"/>
       <use xlink:href="#DejaVuSans-2e" x="63.623047"/>
       <use xlink:href="#DejaVuSans-32" x="95.410156"/>
       <use xlink:href="#DejaVuSans-35" x="159.033203"/>
      </g>
     </g>
    </g>
    <g id="text_13">
     <!-- Value -->
     <g style="fill: #555555" transform="translate(9.118125 101.002994) rotate(-90) scale(0.12 -0.12)">
      <defs>
       <path id="DejaVuSans-56" d="M 1831 0 
L 50 4666 
L 709 4666 
L 2188 738 
L 3669 4666 
L 4325 4666 
L 2547 0 
L 1831 0 
z
" transform="scale(0.015625)"/>
       <path id="DejaVuSans-6c" d="M 603 4863 
L 1178 4863 
L 1178 0 
L 603 0 
L 603 4863 
z
" transform="scale(0.015625)"/>
       <path id="DejaVuSans-75" d="M 544 1381 
L 544 3500 
L 1119 3500 
L 1119 1403 
Q 1119 906 1312 657 
Q 1506 409 1894 409 
Q 2359 409 2629 706 
Q 2900 1003 2900 1516 
L 2900 3500 
L 3475 3500 
L 3475 0 
L 2900 0 
L 2900 538 
Q 2691 219 2414 64 
Q 2138 -91 1772 -91 
Q 1169 -91 856 284 
Q 544 659 544 1381 
z
M 1991 3584 
L 1991 3584 
z
" transform="scale(0.015625)"/>
      </defs>
      <use xlink:href="#DejaVuSans-56"/>
      <use xlink:href="#DejaVuSans-61" x="60.658203"/>
      <use xlink:href="#DejaVuSans-6c" x="121.9375"/>
      <use xlink:href="#DejaVuSans-75" x="149.720703"/>
      <use xlink:href="#DejaVuSans-65" x="213.099609"/>
     </g>
    </g>
   </g>
   <g id="PolyCollection_1">
    <defs>
     <path id="m43252522f1" d="M 62.63392 -41.137306 
L 62.63392 -44.237374 
L 64.031916 -45.931827 
L 65.429912 -46.161471 
L 66.827908 -44.807895 
L 68.225903 -45.01765 
L 69.623899 -47.305184 
L 71.021895 -50.08273 
L 72.41989 -50.723558 
L 73.817886 -51.730974 
L 75.215882 -51.594584 
L 76.613878 -51.14882 
L 78.011873 -50.847153 
L 79.409869 -51.322208 
L 80.807865 -51.186424 
L 82.20586 -51.322658 
L 83.603856 -51.271615 
L 85.001852 -56.153111 
L 86.399847 -59.154835 
L 87.797843 -60.088931 
L 89.195839 -60.339214 
L 90.593835 -60.295131 
L 91.99183 -61.301095 
L 93.389826 -61.455718 
L 94.787822 -60.947948 
L 96.185817 -61.827945 
L 97.583813 -62.033992 
L 98.981809 -62.970636 
L 100.379804 -63.094447 
L 101.7778 -63.212682 
L 103.175796 -63.971523 
L 104.573792 -64.185053 
L 105.971787 -64.174843 
L 107.369783 -64.547106 
L 108.767779 -71.714574 
L 110.165774 -76.371416 
L 111.56377 -69.774467 
L 112.961766 -76.255307 
L 114.359762 -85.524425 
L 115.757757 -84.711525 
L 117.155753 -85.985528 
L 118.553749 -84.088156 
L 119.951744 -84.371474 
L 121.34974 -81.026482 
L 122.747736 -84.48817 
L 124.145731 -84.258348 
L 125.543727 -75.702509 
L 126.941723 -76.560231 
L 128.339719 -75.492919 
L 129.737714 -73.368764 
L 131.13571 -70.204039 
L 132.533706 -73.860522 
L 133.931701 -75.442046 
L 135.329697 -81.512989 
L 136.727693 -86.470899 
L 138.125689 -86.943223 
L 139.523684 -92.507978 
L 140.92168 -92.296013 
L 142.319676 -88.74808 
L 143.717671 -90.534733 
L 145.115667 -92.098524 
L 146.513663 -92.034959 
L 147.911658 -94.461581 
L 149.309654 -101.056236 
L 150.70765 -94.951074 
L 152.105646 -94.954017 
L 153.503641 -96.038882 
L 154.901637 -97.022547 
L 156.299633 -101.974688 
L 157.697628 -103.861953 
L 159.095624 -101.299879 
L 160.49362 -100.914118 
L 161.891616 -102.707546 
L 163.289611 -102.07138 
L 164.687607 -105.9204 
L 166.085603 -104.356323 
L 167.483598 -102.831794 
L 168.881594 -102.481627 
L 170.27959 -104.202129 
L 171.677585 -105.145975 
L 173.075581 -104.481369 
L 174.473577 -106.231571 
L 175.871573 -111.502927 
L 177.269568 -111.695571 
L 178.667564 -115.760326 
L 180.06556 -111.335304 
L 181.463555 -114.074164 
L 182.861551 -115.741028 
L 184.259547 -114.819718 
L 185.657543 -125.516454 
L 187.055538 -123.980647 
L 188.453534 -126.76552 
L 189.85153 -123.254448 
L 191.249525 -126.003538 
L 192.647521 -134.154966 
L 194.045517 -142.538088 
L 195.443512 -144.898587 
L 196.841508 -149.80509 
L 198.239504 -149.347646 
L 199.6375 -135.006137 
L 201.035495 -144.594353 
L 202.433491 -142.114242 
L 203.831487 -141.621459 
L 205.229482 -139.506823 
L 206.627478 -142.266855 
L 208.025474 -139.515825 
L 209.423469 -137.979059 
L 210.821465 -138.849346 
L 212.219461 -135.189398 
L 213.617457 -131.167534 
L 215.015452 -125.39548 
L 216.413448 -132.466471 
L 217.811444 -133.234903 
L 219.209439 -135.00335 
L 220.607435 -131.498623 
L 222.005431 -130.730938 
L 223.403427 -126.371871 
L 224.801422 -124.753131 
L 226.199418 -129.94506 
L 227.597414 -130.267011 
L 228.995409 -129.121456 
L 230.393405 -128.196503 
L 231.791401 -121.270713 
L 233.189396 -129.107792 
L 234.587392 -120.585465 
L 235.985388 -114.933853 
L 237.383384 -114.039875 
L 238.781379 -113.062437 
L 240.179375 -106.719403 
L 241.577371 -105.041528 
L 242.975366 -101.50834 
L 244.373362 -97.421545 
L 245.771358 -96.927911 
L 247.169354 -92.14321 
L 248.567349 -95.157183 
L 249.965345 -90.82764 
L 251.363341 -88.476034 
L 252.761336 -84.775391 
L 254.159332 -76.830955 
L 255.557328 -76.031611 
L 256.955323 -75.641503 
L 258.353319 -75.939141 
L 259.751315 -76.129608 
L 261.149311 -74.548381 
L 262.547306 -74.818416 
L 263.945302 -70.589276 
L 265.343298 -70.875803 
L 266.741293 -69.736822 
L 268.139289 -72.37259 
L 269.537285 -71.022015 
L 270.935281 -71.316661 
L 272.333276 -70.332318 
L 273.731272 -71.459449 
L 275.129268 -71.196237 
L 276.527263 -67.625811 
L 277.925259 -67.478911 
L 279.323255 -70.729224 
L 280.72125 -66.756167 
L 282.119246 -62.89035 
L 283.517242 -68.119974 
L 284.915238 -68.305769 
L 286.313233 -66.948358 
L 287.711229 -62.353378 
L 289.109225 -62.339899 
L 290.50722 -62.247306 
L 291.905216 -62.959424 
L 293.303212 -62.416656 
L 294.701207 -62.660133 
L 296.099203 -61.927405 
L 297.497199 -65.861083 
L 298.895195 -62.097993 
L 300.29319 -61.766931 
L 301.691186 -61.707703 
L 303.089182 -60.268335 
L 304.487177 -61.388215 
L 305.885173 -59.816999 
L 307.283169 -59.878158 
L 308.681165 -60.368918 
L 310.07916 -60.10784 
L 311.477156 -60.48241 
L 312.875152 -59.719127 
L 314.273147 -58.951613 
L 315.671143 -62.945091 
L 317.069139 -63.147809 
L 318.467134 -63.041407 
L 319.86513 -58.270312 
L 321.263126 -58.324674 
L 322.661122 -61.322009 
L 324.059117 -61.667504 
L 325.457113 -60.960914 
L 326.855109 -60.776247 
L 328.253104 -61.481466 
L 329.6511 -61.61219 
L 331.049096 -58.794079 
L 332.447092 -58.654267 
L 333.845087 -60.942629 
L 335.243083 -60.912489 
L 336.641079 -61.117911 
L 338.039074 -57.891326 
L 339.43707 -58.642133 
L 340.835066 -58.217377 
L 342.233061 -58.510158 
L 343.631057 -58.778399 
L 345.029053 -59.732183 
L 346.427049 -59.077924 
L 347.825044 -59.279438 
L 349.22304 -59.549111 
L 350.621036 -59.136506 
L 352.019031 -61.340983 
L 353.417027 -64.721651 
L 354.815023 -65.730005 
L 356.213019 -65.159425 
L 357.611014 -65.144769 
L 359.00901 -65.715288 
L 360.407006 -67.692356 
L 361.805001 -75.896173 
L 363.202997 -81.694312 
L 364.600993 -82.366262 
L 365.998988 -82.924196 
L 367.396984 -86.395649 
L 368.79498 -86.531355 
L 370.192976 -89.994995 
L 371.590971 -93.016853 
L 372.988967 -97.86563 
L 374.386963 -102.272919 
L 375.784958 -102.733777 
L 377.182954 -106.001174 
L 378.58095 -108.577473 
L 379.978946 -111.893566 
L 381.376941 -122.628902 
L 382.774937 -128.016142 
L 384.172933 -143.249933 
L 385.570928 -139.344957 
L 386.968924 -152.821292 
L 388.36692 -155.970918 
L 389.764915 -157.096602 
L 391.162911 -158.833523 
L 392.560907 -160.552269 
L 393.958903 -170.044448 
L 395.356898 -164.280481 
L 396.754894 -173.501179 
L 398.15289 -173.052184 
L 399.550885 -180.777756 
L 400.948881 -179.559853 
L 402.346877 -181.854635 
L 403.744872 -179.13217 
L 405.142868 -185.851533 
L 406.540864 -191.051875 
L 407.93886 -186.566595 
L 409.336855 -188.535069 
L 410.734851 -188.971109 
L 412.132847 -190.263358 
L 413.530842 -186.216102 
L 414.928838 -161.529579 
L 416.326834 -174.473451 
L 417.72483 -173.009167 
L 417.72483 -160.730425 
L 417.72483 -160.730425 
L 416.326834 -161.866703 
L 414.928838 -151.072935 
L 413.530842 -175.550467 
L 412.132847 -178.171794 
L 410.734851 -177.431985 
L 409.336855 -176.59042 
L 407.93886 -175.934516 
L 406.540864 -177.163616 
L 405.142868 -175.922506 
L 403.744872 -167.178255 
L 402.346877 -168.692565 
L 400.948881 -167.638527 
L 399.550885 -168.912803 
L 398.15289 -160.510731 
L 396.754894 -161.197698 
L 395.356898 -152.235545 
L 393.958903 -156.303869 
L 392.560907 -148.425452 
L 391.162911 -147.320608 
L 389.764915 -145.873348 
L 388.36692 -143.855559 
L 386.968924 -140.543199 
L 385.570928 -129.026787 
L 384.172933 -132.457112 
L 382.774937 -118.199389 
L 381.376941 -112.311201 
L 379.978946 -100.948401 
L 378.58095 -98.571796 
L 377.182954 -96.271762 
L 375.784958 -93.026587 
L 374.386963 -92.10649 
L 372.988967 -89.539898 
L 371.590971 -83.492688 
L 370.192976 -81.254323 
L 368.79498 -78.980227 
L 367.396984 -77.97133 
L 365.998988 -74.945841 
L 364.600993 -73.157152 
L 363.202997 -74.270097 
L 361.805001 -67.357293 
L 360.407006 -62.00075 
L 359.00901 -59.977998 
L 357.611014 -59.70616 
L 356.213019 -59.060965 
L 354.815023 -59.591727 
L 353.417027 -58.603367 
L 352.019031 -55.758528 
L 350.621036 -53.658436 
L 349.22304 -54.409253 
L 347.825044 -53.798278 
L 346.427049 -53.807394 
L 345.029053 -53.790622 
L 343.631057 -52.641273 
L 342.233061 -53.106274 
L 340.835066 -52.887391 
L 339.43707 -52.868601 
L 338.039074 -51.896173 
L 336.641079 -54.364322 
L 335.243083 -55.114402 
L 333.845087 -54.329613 
L 332.447092 -52.513491 
L 331.049096 -52.128823 
L 329.6511 -55.309881 
L 328.253104 -55.406686 
L 326.855109 -54.882495 
L 325.457113 -54.920424 
L 324.059117 -55.115606 
L 322.661122 -55.012138 
L 321.263126 -52.585433 
L 319.86513 -52.981848 
L 318.467134 -56.578228 
L 317.069139 -56.946154 
L 315.671143 -56.566583 
L 314.273147 -53.504827 
L 312.875152 -54.295837 
L 311.477156 -53.89148 
L 310.07916 -53.784582 
L 308.681165 -54.266132 
L 307.283169 -53.947707 
L 305.885173 -54.449901 
L 304.487177 -55.420052 
L 303.089182 -54.451479 
L 301.691186 -56.20914 
L 300.29319 -55.554616 
L 298.895195 -55.545272 
L 297.497199 -59.640705 
L 296.099203 -56.036474 
L 294.701207 -56.235026 
L 293.303212 -55.856452 
L 291.905216 -56.271638 
L 290.50722 -55.996167 
L 289.109225 -56.541469 
L 287.711229 -56.157296 
L 286.313233 -60.35429 
L 284.915238 -59.94572 
L 283.517242 -60.649793 
L 282.119246 -56.431667 
L 280.72125 -60.230519 
L 279.323255 -63.103861 
L 277.925259 -60.236946 
L 276.527263 -59.463243 
L 275.129268 -63.725858 
L 273.731272 -64.843921 
L 272.333276 -63.80152 
L 270.935281 -63.901084 
L 269.537285 -63.620068 
L 268.139289 -65.116366 
L 266.741293 -63.39699 
L 265.343298 -63.965058 
L 263.945302 -64.129188 
L 262.547306 -67.221109 
L 261.149311 -67.634739 
L 259.751315 -69.315234 
L 258.353319 -69.143193 
L 256.955323 -68.320952 
L 255.557328 -69.247659 
L 254.159332 -69.282872 
L 252.761336 -76.177802 
L 251.363341 -80.539788 
L 249.965345 -81.310915 
L 248.567349 -86.930897 
L 247.169354 -82.744119 
L 245.771358 -87.332261 
L 244.373362 -87.999962 
L 242.975366 -91.507119 
L 241.577371 -95.77463 
L 240.179375 -98.294249 
L 238.781379 -103.496962 
L 237.383384 -104.039828 
L 235.985388 -105.489561 
L 234.587392 -110.033373 
L 233.189396 -119.525803 
L 231.791401 -110.768511 
L 230.393405 -117.245085 
L 228.995409 -119.728079 
L 227.597414 -119.842353 
L 226.199418 -120.695082 
L 224.801422 -114.601638 
L 223.403427 -115.779851 
L 222.005431 -119.011073 
L 220.607435 -120.420424 
L 219.209439 -124.101136 
L 217.811444 -122.322408 
L 216.413448 -120.947268 
L 215.015452 -114.62085 
L 213.617457 -121.39143 
L 212.219461 -124.901079 
L 210.821465 -126.933641 
L 209.423469 -127.288117 
L 208.025474 -126.437228 
L 206.627478 -129.708208 
L 205.229482 -128.61002 
L 203.831487 -130.868564 
L 202.433491 -130.465673 
L 201.035495 -130.51636 
L 199.6375 -122.366114 
L 198.239504 -135.881836 
L 196.841508 -135.178979 
L 195.443512 -132.111327 
L 194.045517 -128.562295 
L 192.647521 -122.38104 
L 191.249525 -113.188548 
L 189.85153 -112.679585 
L 188.453534 -114.769038 
L 187.055538 -112.731472 
L 185.657543 -113.766013 
L 184.259547 -102.417642 
L 182.861551 -102.467951 
L 181.463555 -102.470516 
L 180.06556 -100.840879 
L 178.667564 -103.780757 
L 177.269568 -98.900911 
L 175.871573 -99.544558 
L 174.473577 -94.192272 
L 173.075581 -93.916757 
L 171.677585 -93.411064 
L 170.27959 -92.759348 
L 168.881594 -91.082204 
L 167.483598 -92.415914 
L 166.085603 -92.131872 
L 164.687607 -95.609138 
L 163.289611 -90.718444 
L 161.891616 -89.807475 
L 160.49362 -89.743584 
L 159.095624 -91.551537 
L 157.697628 -93.826309 
L 156.299633 -92.144162 
L 154.901637 -87.496724 
L 153.503641 -87.638269 
L 152.105646 -85.772751 
L 150.70765 -86.734064 
L 149.309654 -91.822199 
L 147.911658 -84.851674 
L 146.513663 -83.304103 
L 145.115667 -83.974672 
L 143.717671 -82.621991 
L 142.319676 -81.766404 
L 140.92168 -84.860716 
L 139.523684 -84.910932 
L 138.125689 -79.450024 
L 136.727693 -78.032623 
L 135.329697 -73.811032 
L 133.931701 -69.162871 
L 132.533706 -67.711883 
L 131.13571 -63.883192 
L 129.737714 -67.366543 
L 128.339719 -68.143364 
L 126.941723 -69.199527 
L 125.543727 -68.95896 
L 124.145731 -75.952941 
L 122.747736 -76.046597 
L 121.34974 -73.499996 
L 119.951744 -76.721568 
L 118.553749 -77.255244 
L 117.155753 -78.140904 
L 115.757757 -77.280263 
L 114.359762 -78.404295 
L 112.961766 -70.329853 
L 111.56377 -63.829536 
L 110.165774 -70.335993 
L 108.767779 -66.032827 
L 107.369783 -58.34289 
L 105.971787 -58.113459 
L 104.573792 -58.099201 
L 103.175796 -57.632767 
L 101.7778 -57.270447 
L 100.379804 -56.520992 
L 98.981809 -57.337531 
L 97.583813 -56.271038 
L 96.185817 -55.546508 
L 94.787822 -55.327329 
L 93.389826 -55.714359 
L 91.99183 -55.488927 
L 90.593835 -53.845252 
L 89.195839 -55.012109 
L 87.797843 -54.437681 
L 86.399847 -54.08119 
L 85.001852 -50.957745 
L 83.603856 -47.127182 
L 82.20586 -47.046624 
L 80.807865 -47.255327 
L 79.409869 -46.653648 
L 78.011873 -46.76801 
L 76.613878 -46.81438 
L 75.215882 -47.009671 
L 73.817886 -47.356635 
L 72.41989 -46.334631 
L 71.021895 -45.720626 
L 69.623899 -43.231036 
L 68.225903 -41.533429 
L 66.827908 -41.141419 
L 65.429912 -42.545544 
L 64.031916 -42.125249 
L 62.63392 -41.137306 
z
" style="stroke: #0db14b; stroke-opacity: 0.5; stroke-width: 0.5"/>
    </defs>
    <g clip-path="url(#p60d224506b)">
     <use xlink:href="#m43252522f1" x="0" y="199.977369" style="fill: #0db14b; fill-opacity: 0.5; stroke: #0db14b; stroke-opacity: 0.5; stroke-width: 0.5"/>
    </g>
   </g>
   <g id="line2d_23">
    <path d="M 62.63392 157.290029 
L 64.031916 155.948831 
L 65.429912 155.623862 
L 66.827908 157.002712 
L 68.225903 156.70183 
L 69.623899 154.709259 
L 71.021895 152.075691 
L 72.41989 151.448274 
L 73.817886 150.433564 
L 78.011873 151.169787 
L 80.807865 150.756493 
L 83.603856 150.77797 
L 85.001852 146.421941 
L 86.399847 143.359357 
L 87.797843 142.714063 
L 89.195839 142.301708 
L 90.593835 142.907177 
L 91.99183 141.582358 
L 93.389826 141.39233 
L 94.787822 141.83973 
L 97.583813 140.824854 
L 98.981809 139.823285 
L 100.379804 140.169649 
L 101.7778 139.735804 
L 103.175796 139.175224 
L 104.573792 138.835242 
L 105.971787 138.833218 
L 107.369783 138.532371 
L 108.767779 131.103668 
L 110.165774 126.623665 
L 111.56377 133.175367 
L 112.961766 126.684789 
L 114.359762 118.013009 
L 115.757757 118.981474 
L 117.155753 117.914152 
L 118.553749 119.305669 
L 119.951744 119.430848 
L 121.34974 122.71413 
L 122.747736 119.709985 
L 124.145731 119.871725 
L 125.543727 127.646634 
L 126.941723 127.09749 
L 128.339719 128.159227 
L 129.737714 129.609716 
L 131.13571 132.933753 
L 132.533706 129.191166 
L 133.931701 127.67491 
L 135.329697 122.315358 
L 136.727693 117.725608 
L 138.125689 116.780745 
L 139.523684 111.267914 
L 140.92168 111.399004 
L 142.319676 114.720126 
L 145.115667 111.940771 
L 146.513663 112.307838 
L 147.911658 110.320741 
L 149.309654 103.538152 
L 150.70765 109.1348 
L 152.105646 109.613985 
L 153.503641 108.138793 
L 154.901637 107.717733 
L 156.299633 102.917944 
L 157.697628 101.133238 
L 159.095624 103.551661 
L 160.49362 104.648518 
L 161.891616 103.719858 
L 163.289611 103.582457 
L 164.687607 99.2126 
L 166.085603 101.733271 
L 167.483598 102.353515 
L 168.881594 103.195453 
L 170.27959 101.49663 
L 171.677585 100.698849 
L 173.075581 100.778306 
L 174.473577 99.765447 
L 175.871573 94.453626 
L 177.269568 94.679128 
L 178.667564 90.206827 
L 180.06556 93.889277 
L 181.463555 91.705029 
L 182.861551 90.872879 
L 184.259547 91.358689 
L 185.657543 80.336135 
L 187.055538 81.621309 
L 188.453534 79.210089 
L 189.85153 82.010352 
L 191.249525 80.381326 
L 192.647521 71.709366 
L 194.045517 64.427177 
L 195.443512 61.472412 
L 196.841508 57.485335 
L 198.239504 57.362628 
L 199.6375 71.291243 
L 201.035495 62.422012 
L 202.433491 63.687411 
L 203.831487 63.732357 
L 205.229482 65.918947 
L 206.627478 63.989837 
L 208.025474 67.000842 
L 209.423469 67.343781 
L 210.821465 67.085875 
L 212.219461 69.93213 
L 213.617457 73.697887 
L 215.015452 79.969204 
L 216.413448 73.2705 
L 217.811444 72.198714 
L 219.209439 70.425126 
L 220.607435 74.017845 
L 222.005431 75.106363 
L 223.403427 78.901508 
L 224.801422 80.299984 
L 226.199418 74.657297 
L 227.597414 74.922687 
L 228.995409 75.552602 
L 230.393405 77.256575 
L 231.791401 83.957757 
L 233.189396 75.660571 
L 234.587392 84.66795 
L 235.985388 89.765662 
L 237.383384 90.937517 
L 238.781379 91.697669 
L 240.179375 97.470542 
L 241.577371 99.56929 
L 244.373362 107.266615 
L 245.771358 107.847282 
L 247.169354 112.533704 
L 248.567349 108.933329 
L 249.965345 113.908091 
L 251.363341 115.469458 
L 252.761336 119.500773 
L 254.159332 126.920455 
L 255.557328 127.337734 
L 256.955323 127.996141 
L 258.353319 127.436202 
L 259.751315 127.254948 
L 261.149311 128.885809 
L 262.547306 128.957606 
L 263.945302 132.618137 
L 265.343298 132.556939 
L 266.741293 133.410463 
L 268.139289 131.232891 
L 269.537285 132.656327 
L 270.935281 132.368496 
L 272.333276 132.91045 
L 273.731272 131.825684 
L 275.129268 132.516321 
L 276.527263 136.432841 
L 277.925259 136.11944 
L 279.323255 133.060826 
L 280.72125 136.484026 
L 282.119246 140.31636 
L 283.517242 135.592485 
L 284.915238 135.851624 
L 286.313233 136.326045 
L 287.711229 140.722032 
L 289.109225 140.536685 
L 290.50722 140.855633 
L 291.905216 140.361838 
L 293.303212 140.840815 
L 294.701207 140.529789 
L 296.099203 140.995429 
L 297.497199 137.226475 
L 298.895195 141.155737 
L 300.29319 141.316595 
L 301.691186 141.018948 
L 303.089182 142.617462 
L 304.487177 141.573235 
L 305.885173 142.843919 
L 307.283169 143.064436 
L 308.681165 142.659844 
L 310.07916 143.031158 
L 311.477156 142.790424 
L 312.875152 142.969887 
L 314.273147 143.749149 
L 315.671143 140.221531 
L 317.069139 139.930387 
L 318.467134 140.167551 
L 319.86513 144.351289 
L 321.263126 144.522315 
L 322.661122 141.810295 
L 324.059117 141.585814 
L 325.457113 142.0367 
L 326.855109 142.147998 
L 328.253104 141.533293 
L 329.6511 141.516334 
L 331.049096 144.515918 
L 332.447092 144.393489 
L 333.845087 142.341248 
L 335.243083 141.963923 
L 336.641079 142.236252 
L 338.039074 145.083619 
L 339.43707 144.222002 
L 340.835066 144.424985 
L 342.233061 144.169152 
L 343.631057 144.267533 
L 345.029053 143.215966 
L 346.427049 143.53471 
L 347.825044 143.438511 
L 349.22304 142.998187 
L 350.621036 143.579898 
L 352.019031 141.427613 
L 353.417027 138.31486 
L 354.815023 137.316503 
L 356.213019 137.867174 
L 359.00901 137.130726 
L 360.407006 135.130816 
L 363.202997 121.995165 
L 364.600993 122.215662 
L 365.998988 121.042351 
L 367.396984 117.793879 
L 368.79498 117.221577 
L 371.590971 111.722599 
L 372.988967 106.274605 
L 374.386963 102.787665 
L 375.784958 102.097187 
L 377.182954 98.840901 
L 378.58095 96.402734 
L 379.978946 93.556385 
L 381.376941 82.507317 
L 382.774937 76.869603 
L 384.172933 62.123846 
L 385.570928 65.791497 
L 386.968924 53.295124 
L 388.36692 50.06413 
L 392.560907 45.488508 
L 393.958903 36.80321 
L 395.356898 41.719356 
L 396.754894 32.62793 
L 398.15289 33.195911 
L 399.550885 25.132089 
L 400.948881 26.378179 
L 402.346877 24.703769 
L 403.744872 26.822156 
L 405.142868 19.090349 
L 406.540864 15.869623 
L 407.93886 18.726813 
L 409.336855 17.414624 
L 410.734851 16.775822 
L 412.132847 15.759793 
L 413.530842 19.094084 
L 414.928838 43.676112 
L 416.326834 31.807292 
L 417.72483 33.107573 
L 417.72483 33.107573 
" clip-path="url(#p60d224506b)" style="fill: none; stroke: #0db14b; stroke-width: 3; stroke-linecap: square"/>
    <defs>
     <path id="m86f78646ba" d="M 0 1.5 
C 0.397805 1.5 0.77937 1.341951 1.06066 1.06066 
C 1.341951 0.77937 1.5 0.397805 1.5 0 
C 1.5 -0.397805 1.341951 -0.77937 1.06066 -1.06066 
C 0.77937 -1.341951 0.397805 -1.5 0 -1.5 
C -0.397805 -1.5 -0.77937 -1.341951 -1.06066 -1.06066 
C -1.341951 -0.77937 -1.5 -0.397805 -1.5 0 
C -1.5 0.397805 -1.341951 0.77937 -1.06066 1.06066 
C -0.77937 1.341951 -0.397805 1.5 0 1.5 
z
" style="stroke: #0db14b"/>
    </defs>
    <g clip-path="url(#p60d224506b)">
     <use xlink:href="#m86f78646ba" x="62.63392" y="157.290029" style="fill: #0db14b; stroke: #0db14b"/>
     <use xlink:href="#m86f78646ba" x="64.031916" y="155.948831" style="fill: #0db14b; stroke: #0db14b"/>
     <use xlink:href="#m86f78646ba" x="65.429912" y="155.623862" style="fill: #0db14b; stroke: #0db14b"/>
     <use xlink:href="#m86f78646ba" x="66.827908" y="157.002712" style="fill: #0db14b; stroke: #0db14b"/>
     <use xlink:href="#m86f78646ba" x="68.225903" y="156.70183" style="fill: #0db14b; stroke: #0db14b"/>
     <use xlink:href="#m86f78646ba" x="69.623899" y="154.709259" style="fill: #0db14b; stroke: #0db14b"/>
     <use xlink:href="#m86f78646ba" x="71.021895" y="152.075691" style="fill: #0db14b; stroke: #0db14b"/>
     <use xlink:href="#m86f78646ba" x="72.41989" y="151.448274" style="fill: #0db14b; stroke: #0db14b"/>
     <use xlink:href="#m86f78646ba" x="73.817886" y="150.433564" style="fill: #0db14b; stroke: #0db14b"/>
     <use xlink:href="#m86f78646ba" x="75.215882" y="150.675241" style="fill: #0db14b; stroke: #0db14b"/>
     <use xlink:href="#m86f78646ba" x="76.613878" y="150.995769" style="fill: #0db14b; stroke: #0db14b"/>
     <use xlink:href="#m86f78646ba" x="78.011873" y="151.169787" style="fill: #0db14b; stroke: #0db14b"/>
     <use xlink:href="#m86f78646ba" x="79.409869" y="150.989441" style="fill: #0db14b; stroke: #0db14b"/>
     <use xlink:href="#m86f78646ba" x="80.807865" y="150.756493" style="fill: #0db14b; stroke: #0db14b"/>
     <use xlink:href="#m86f78646ba" x="82.20586" y="150.792727" style="fill: #0db14b; stroke: #0db14b"/>
     <use xlink:href="#m86f78646ba" x="83.603856" y="150.77797" style="fill: #0db14b; stroke: #0db14b"/>
     <use xlink:href="#m86f78646ba" x="85.001852" y="146.421941" style="fill: #0db14b; stroke: #0db14b"/>
     <use xlink:href="#m86f78646ba" x="86.399847" y="143.359357" style="fill: #0db14b; stroke: #0db14b"/>
     <use xlink:href="#m86f78646ba" x="87.797843" y="142.714063" style="fill: #0db14b; stroke: #0db14b"/>
     <use xlink:href="#m86f78646ba" x="89.195839" y="142.301708" style="fill: #0db14b; stroke: #0db14b"/>
     <use xlink:href="#m86f78646ba" x="90.593835" y="142.907177" style="fill: #0db14b; stroke: #0db14b"/>
     <use xlink:href="#m86f78646ba" x="91.99183" y="141.582358" style="fill: #0db14b; stroke: #0db14b"/>
     <use xlink:href="#m86f78646ba" x="93.389826" y="141.39233" style="fill: #0db14b; stroke: #0db14b"/>
     <use xlink:href="#m86f78646ba" x="94.787822" y="141.83973" style="fill: #0db14b; stroke: #0db14b"/>
     <use xlink:href="#m86f78646ba" x="96.185817" y="141.290142" style="fill: #0db14b; stroke: #0db14b"/>
     <use xlink:href="#m86f78646ba" x="97.583813" y="140.824854" style="fill: #0db14b; stroke: #0db14b"/>
     <use xlink:href="#m86f78646ba" x="98.981809" y="139.823285" style="fill: #0db14b; stroke: #0db14b"/>
     <use xlink:href="#m86f78646ba" x="100.379804" y="140.169649" style="fill: #0db14b; stroke: #0db14b"/>
     <use xlink:href="#m86f78646ba" x="101.7778" y="139.735804" style="fill: #0db14b; stroke: #0db14b"/>
     <use xlink:href="#m86f78646ba" x="103.175796" y="139.175224" style="fill: #0db14b; stroke: #0db14b"/>
     <use xlink:href="#m86f78646ba" x="104.573792" y="138.835242" style="fill: #0db14b; stroke: #0db14b"/>
     <use xlink:href="#m86f78646ba" x="105.971787" y="138.833218" style="fill: #0db14b; stroke: #0db14b"/>
     <use xlink:href="#m86f78646ba" x="107.369783" y="138.532371" style="fill: #0db14b; stroke: #0db14b"/>
     <use xlink:href="#m86f78646ba" x="108.767779" y="131.103668" style="fill: #0db14b; stroke: #0db14b"/>
     <use xlink:href="#m86f78646ba" x="110.165774" y="126.623665" style="fill: #0db14b; stroke: #0db14b"/>
     <use xlink:href="#m86f78646ba" x="111.56377" y="133.175367" style="fill: #0db14b; stroke: #0db14b"/>
     <use xlink:href="#m86f78646ba" x="112.961766" y="126.684789" style="fill: #0db14b; stroke: #0db14b"/>
     <use xlink:href="#m86f78646ba" x="114.359762" y="118.013009" style="fill: #0db14b; stroke: #0db14b"/>
     <use xlink:href="#m86f78646ba" x="115.757757" y="118.981474" style="fill: #0db14b; stroke: #0db14b"/>
     <use xlink:href="#m86f78646ba" x="117.155753" y="117.914152" style="fill: #0db14b; stroke: #0db14b"/>
     <use xlink:href="#m86f78646ba" x="118.553749" y="119.305669" style="fill: #0db14b; stroke: #0db14b"/>
     <use xlink:href="#m86f78646ba" x="119.951744" y="119.430848" style="fill: #0db14b; stroke: #0db14b"/>
     <use xlink:href="#m86f78646ba" x="121.34974" y="122.71413" style="fill: #0db14b; stroke: #0db14b"/>
     <use xlink:href="#m86f78646ba" x="122.747736" y="119.709985" style="fill: #0db14b; stroke: #0db14b"/>
     <use xlink:href="#m86f78646ba" x="124.145731" y="119.871725" style="fill: #0db14b; stroke: #0db14b"/>
     <use xlink:href="#m86f78646ba" x="125.543727" y="127.646634" style="fill: #0db14b; stroke: #0db14b"/>
     <use xlink:href="#m86f78646ba" x="126.941723" y="127.09749" style="fill: #0db14b; stroke: #0db14b"/>
     <use xlink:href="#m86f78646ba" x="128.339719" y="128.159227" style="fill: #0db14b; stroke: #0db14b"/>
     <use xlink:href="#m86f78646ba" x="129.737714" y="129.609716" style="fill: #0db14b; stroke: #0db14b"/>
     <use xlink:href="#m86f78646ba" x="131.13571" y="132.933753" style="fill: #0db14b; stroke: #0db14b"/>
     <use xlink:href="#m86f78646ba" x="132.533706" y="129.191166" style="fill: #0db14b; stroke: #0db14b"/>
     <use xlink:href="#m86f78646ba" x="133.931701" y="127.67491" style="fill: #0db14b; stroke: #0db14b"/>
     <use xlink:href="#m86f78646ba" x="135.329697" y="122.315358" style="fill: #0db14b; stroke: #0db14b"/>
     <use xlink:href="#m86f78646ba" x="136.727693" y="117.725608" style="fill: #0db14b; stroke: #0db14b"/>
     <use xlink:href="#m86f78646ba" x="138.125689" y="116.780745" style="fill: #0db14b; stroke: #0db14b"/>
     <use xlink:href="#m86f78646ba" x="139.523684" y="111.267914" style="fill: #0db14b; stroke: #0db14b"/>
     <use xlink:href="#m86f78646ba" x="140.92168" y="111.399004" style="fill: #0db14b; stroke: #0db14b"/>
     <use xlink:href="#m86f78646ba" x="142.319676" y="114.720126" style="fill: #0db14b; stroke: #0db14b"/>
     <use xlink:href="#m86f78646ba" x="143.717671" y="113.399006" style="fill: #0db14b; stroke: #0db14b"/>
     <use xlink:href="#m86f78646ba" x="145.115667" y="111.940771" style="fill: #0db14b; stroke: #0db14b"/>
     <use xlink:href="#m86f78646ba" x="146.513663" y="112.307838" style="fill: #0db14b; stroke: #0db14b"/>
     <use xlink:href="#m86f78646ba" x="147.911658" y="110.320741" style="fill: #0db14b; stroke: #0db14b"/>
     <use xlink:href="#m86f78646ba" x="149.309654" y="103.538152" style="fill: #0db14b; stroke: #0db14b"/>
     <use xlink:href="#m86f78646ba" x="150.70765" y="109.1348" style="fill: #0db14b; stroke: #0db14b"/>
     <use xlink:href="#m86f78646ba" x="152.105646" y="109.613985" style="fill: #0db14b; stroke: #0db14b"/>
     <use xlink:href="#m86f78646ba" x="153.503641" y="108.138793" style="fill: #0db14b; stroke: #0db14b"/>
     <use xlink:href="#m86f78646ba" x="154.901637" y="107.717733" style="fill: #0db14b; stroke: #0db14b"/>
     <use xlink:href="#m86f78646ba" x="156.299633" y="102.917944" style="fill: #0db14b; stroke: #0db14b"/>
     <use xlink:href="#m86f78646ba" x="157.697628" y="101.133238" style="fill: #0db14b; stroke: #0db14b"/>
     <use xlink:href="#m86f78646ba" x="159.095624" y="103.551661" style="fill: #0db14b; stroke: #0db14b"/>
     <use xlink:href="#m86f78646ba" x="160.49362" y="104.648518" style="fill: #0db14b; stroke: #0db14b"/>
     <use xlink:href="#m86f78646ba" x="161.891616" y="103.719858" style="fill: #0db14b; stroke: #0db14b"/>
     <use xlink:href="#m86f78646ba" x="163.289611" y="103.582457" style="fill: #0db14b; stroke: #0db14b"/>
     <use xlink:href="#m86f78646ba" x="164.687607" y="99.2126" style="fill: #0db14b; stroke: #0db14b"/>
     <use xlink:href="#m86f78646ba" x="166.085603" y="101.733271" style="fill: #0db14b; stroke: #0db14b"/>
     <use xlink:href="#m86f78646ba" x="167.483598" y="102.353515" style="fill: #0db14b; stroke: #0db14b"/>
     <use xlink:href="#m86f78646ba" x="168.881594" y="103.195453" style="fill: #0db14b; stroke: #0db14b"/>
     <use xlink:href="#m86f78646ba" x="170.27959" y="101.49663" style="fill: #0db14b; stroke: #0db14b"/>
     <use xlink:href="#m86f78646ba" x="171.677585" y="100.698849" style="fill: #0db14b; stroke: #0db14b"/>
     <use xlink:href="#m86f78646ba" x="173.075581" y="100.778306" style="fill: #0db14b; stroke: #0db14b"/>
     <use xlink:href="#m86f78646ba" x="174.473577" y="99.765447" style="fill: #0db14b; stroke: #0db14b"/>
     <use xlink:href="#m86f78646ba" x="175.871573" y="94.453626" style="fill: #0db14b; stroke: #0db14b"/>
     <use xlink:href="#m86f78646ba" x="177.269568" y="94.679128" style="fill: #0db14b; stroke: #0db14b"/>
     <use xlink:href="#m86f78646ba" x="178.667564" y="90.206827" style="fill: #0db14b; stroke: #0db14b"/>
     <use xlink:href="#m86f78646ba" x="180.06556" y="93.889277" style="fill: #0db14b; stroke: #0db14b"/>
     <use xlink:href="#m86f78646ba" x="181.463555" y="91.705029" style="fill: #0db14b; stroke: #0db14b"/>
     <use xlink:href="#m86f78646ba" x="182.861551" y="90.872879" style="fill: #0db14b; stroke: #0db14b"/>
     <use xlink:href="#m86f78646ba" x="184.259547" y="91.358689" style="fill: #0db14b; stroke: #0db14b"/>
     <use xlink:href="#m86f78646ba" x="185.657543" y="80.336135" style="fill: #0db14b; stroke: #0db14b"/>
     <use xlink:href="#m86f78646ba" x="187.055538" y="81.621309" style="fill: #0db14b; stroke: #0db14b"/>
     <use xlink:href="#m86f78646ba" x="188.453534" y="79.210089" style="fill: #0db14b; stroke: #0db14b"/>
     <use xlink:href="#m86f78646ba" x="189.85153" y="82.010352" style="fill: #0db14b; stroke: #0db14b"/>
     <use xlink:href="#m86f78646ba" x="191.249525" y="80.381326" style="fill: #0db14b; stroke: #0db14b"/>
     <use xlink:href="#m86f78646ba" x="192.647521" y="71.709366" style="fill: #0db14b; stroke: #0db14b"/>
     <use xlink:href="#m86f78646ba" x="194.045517" y="64.427177" style="fill: #0db14b; stroke: #0db14b"/>
     <use xlink:href="#m86f78646ba" x="195.443512" y="61.472412" style="fill: #0db14b; stroke: #0db14b"/>
     <use xlink:href="#m86f78646ba" x="196.841508" y="57.485335" style="fill: #0db14b; stroke: #0db14b"/>
     <use xlink:href="#m86f78646ba" x="198.239504" y="57.362628" style="fill: #0db14b; stroke: #0db14b"/>
     <use xlink:href="#m86f78646ba" x="199.6375" y="71.291243" style="fill: #0db14b; stroke: #0db14b"/>
     <use xlink:href="#m86f78646ba" x="201.035495" y="62.422012" style="fill: #0db14b; stroke: #0db14b"/>
     <use xlink:href="#m86f78646ba" x="202.433491" y="63.687411" style="fill: #0db14b; stroke: #0db14b"/>
     <use xlink:href="#m86f78646ba" x="203.831487" y="63.732357" style="fill: #0db14b; stroke: #0db14b"/>
     <use xlink:href="#m86f78646ba" x="205.229482" y="65.918947" style="fill: #0db14b; stroke: #0db14b"/>
     <use xlink:href="#m86f78646ba" x="206.627478" y="63.989837" style="fill: #0db14b; stroke: #0db14b"/>
     <use xlink:href="#m86f78646ba" x="208.025474" y="67.000842" style="fill: #0db14b; stroke: #0db14b"/>
     <use xlink:href="#m86f78646ba" x="209.423469" y="67.343781" style="fill: #0db14b; stroke: #0db14b"/>
     <use xlink:href="#m86f78646ba" x="210.821465" y="67.085875" style="fill: #0db14b; stroke: #0db14b"/>
     <use xlink:href="#m86f78646ba" x="212.219461" y="69.93213" style="fill: #0db14b; stroke: #0db14b"/>
     <use xlink:href="#m86f78646ba" x="213.617457" y="73.697887" style="fill: #0db14b; stroke: #0db14b"/>
     <use xlink:href="#m86f78646ba" x="215.015452" y="79.969204" style="fill: #0db14b; stroke: #0db14b"/>
     <use xlink:href="#m86f78646ba" x="216.413448" y="73.2705" style="fill: #0db14b; stroke: #0db14b"/>
     <use xlink:href="#m86f78646ba" x="217.811444" y="72.198714" style="fill: #0db14b; stroke: #0db14b"/>
     <use xlink:href="#m86f78646ba" x="219.209439" y="70.425126" style="fill: #0db14b; stroke: #0db14b"/>
     <use xlink:href="#m86f78646ba" x="220.607435" y="74.017845" style="fill: #0db14b; stroke: #0db14b"/>
     <use xlink:href="#m86f78646ba" x="222.005431" y="75.106363" style="fill: #0db14b; stroke: #0db14b"/>
     <use xlink:href="#m86f78646ba" x="223.403427" y="78.901508" style="fill: #0db14b; stroke: #0db14b"/>
     <use xlink:href="#m86f78646ba" x="224.801422" y="80.299984" style="fill: #0db14b; stroke: #0db14b"/>
     <use xlink:href="#m86f78646ba" x="226.199418" y="74.657297" style="fill: #0db14b; stroke: #0db14b"/>
     <use xlink:href="#m86f78646ba" x="227.597414" y="74.922687" style="fill: #0db14b; stroke: #0db14b"/>
     <use xlink:href="#m86f78646ba" x="228.995409" y="75.552602" style="fill: #0db14b; stroke: #0db14b"/>
     <use xlink:href="#m86f78646ba" x="230.393405" y="77.256575" style="fill: #0db14b; stroke: #0db14b"/>
     <use xlink:href="#m86f78646ba" x="231.791401" y="83.957757" style="fill: #0db14b; stroke: #0db14b"/>
     <use xlink:href="#m86f78646ba" x="233.189396" y="75.660571" style="fill: #0db14b; stroke: #0db14b"/>
     <use xlink:href="#m86f78646ba" x="234.587392" y="84.66795" style="fill: #0db14b; stroke: #0db14b"/>
     <use xlink:href="#m86f78646ba" x="235.985388" y="89.765662" style="fill: #0db14b; stroke: #0db14b"/>
     <use xlink:href="#m86f78646ba" x="237.383384" y="90.937517" style="fill: #0db14b; stroke: #0db14b"/>
     <use xlink:href="#m86f78646ba" x="238.781379" y="91.697669" style="fill: #0db14b; stroke: #0db14b"/>
     <use xlink:href="#m86f78646ba" x="240.179375" y="97.470542" style="fill: #0db14b; stroke: #0db14b"/>
     <use xlink:href="#m86f78646ba" x="241.577371" y="99.56929" style="fill: #0db14b; stroke: #0db14b"/>
     <use xlink:href="#m86f78646ba" x="242.975366" y="103.469639" style="fill: #0db14b; stroke: #0db14b"/>
     <use xlink:href="#m86f78646ba" x="244.373362" y="107.266615" style="fill: #0db14b; stroke: #0db14b"/>
     <use xlink:href="#m86f78646ba" x="245.771358" y="107.847282" style="fill: #0db14b; stroke: #0db14b"/>
     <use xlink:href="#m86f78646ba" x="247.169354" y="112.533704" style="fill: #0db14b; stroke: #0db14b"/>
     <use xlink:href="#m86f78646ba" x="248.567349" y="108.933329" style="fill: #0db14b; stroke: #0db14b"/>
     <use xlink:href="#m86f78646ba" x="249.965345" y="113.908091" style="fill: #0db14b; stroke: #0db14b"/>
     <use xlink:href="#m86f78646ba" x="251.363341" y="115.469458" style="fill: #0db14b; stroke: #0db14b"/>
     <use xlink:href="#m86f78646ba" x="252.761336" y="119.500773" style="fill: #0db14b; stroke: #0db14b"/>
     <use xlink:href="#m86f78646ba" x="254.159332" y="126.920455" style="fill: #0db14b; stroke: #0db14b"/>
     <use xlink:href="#m86f78646ba" x="255.557328" y="127.337734" style="fill: #0db14b; stroke: #0db14b"/>
     <use xlink:href="#m86f78646ba" x="256.955323" y="127.996141" style="fill: #0db14b; stroke: #0db14b"/>
     <use xlink:href="#m86f78646ba" x="258.353319" y="127.436202" style="fill: #0db14b; stroke: #0db14b"/>
     <use xlink:href="#m86f78646ba" x="259.751315" y="127.254948" style="fill: #0db14b; stroke: #0db14b"/>
     <use xlink:href="#m86f78646ba" x="261.149311" y="128.885809" style="fill: #0db14b; stroke: #0db14b"/>
     <use xlink:href="#m86f78646ba" x="262.547306" y="128.957606" style="fill: #0db14b; stroke: #0db14b"/>
     <use xlink:href="#m86f78646ba" x="263.945302" y="132.618137" style="fill: #0db14b; stroke: #0db14b"/>
     <use xlink:href="#m86f78646ba" x="265.343298" y="132.556939" style="fill: #0db14b; stroke: #0db14b"/>
     <use xlink:href="#m86f78646ba" x="266.741293" y="133.410463" style="fill: #0db14b; stroke: #0db14b"/>
     <use xlink:href="#m86f78646ba" x="268.139289" y="131.232891" style="fill: #0db14b; stroke: #0db14b"/>
     <use xlink:href="#m86f78646ba" x="269.537285" y="132.656327" style="fill: #0db14b; stroke: #0db14b"/>
     <use xlink:href="#m86f78646ba" x="270.935281" y="132.368496" style="fill: #0db14b; stroke: #0db14b"/>
     <use xlink:href="#m86f78646ba" x="272.333276" y="132.91045" style="fill: #0db14b; stroke: #0db14b"/>
     <use xlink:href="#m86f78646ba" x="273.731272" y="131.825684" style="fill: #0db14b; stroke: #0db14b"/>
     <use xlink:href="#m86f78646ba" x="275.129268" y="132.516321" style="fill: #0db14b; stroke: #0db14b"/>
     <use xlink:href="#m86f78646ba" x="276.527263" y="136.432841" style="fill: #0db14b; stroke: #0db14b"/>
     <use xlink:href="#m86f78646ba" x="277.925259" y="136.11944" style="fill: #0db14b; stroke: #0db14b"/>
     <use xlink:href="#m86f78646ba" x="279.323255" y="133.060826" style="fill: #0db14b; stroke: #0db14b"/>
     <use xlink:href="#m86f78646ba" x="280.72125" y="136.484026" style="fill: #0db14b; stroke: #0db14b"/>
     <use xlink:href="#m86f78646ba" x="282.119246" y="140.31636" style="fill: #0db14b; stroke: #0db14b"/>
     <use xlink:href="#m86f78646ba" x="283.517242" y="135.592485" style="fill: #0db14b; stroke: #0db14b"/>
     <use xlink:href="#m86f78646ba" x="284.915238" y="135.851624" style="fill: #0db14b; stroke: #0db14b"/>
     <use xlink:href="#m86f78646ba" x="286.313233" y="136.326045" style="fill: #0db14b; stroke: #0db14b"/>
     <use xlink:href="#m86f78646ba" x="287.711229" y="140.722032" style="fill: #0db14b; stroke: #0db14b"/>
     <use xlink:href="#m86f78646ba" x="289.109225" y="140.536685" style="fill: #0db14b; stroke: #0db14b"/>
     <use xlink:href="#m86f78646ba" x="290.50722" y="140.855633" style="fill: #0db14b; stroke: #0db14b"/>
     <use xlink:href="#m86f78646ba" x="291.905216" y="140.361838" style="fill: #0db14b; stroke: #0db14b"/>
     <use xlink:href="#m86f78646ba" x="293.303212" y="140.840815" style="fill: #0db14b; stroke: #0db14b"/>
     <use xlink:href="#m86f78646ba" x="294.701207" y="140.529789" style="fill: #0db14b; stroke: #0db14b"/>
     <use xlink:href="#m86f78646ba" x="296.099203" y="140.995429" style="fill: #0db14b; stroke: #0db14b"/>
     <use xlink:href="#m86f78646ba" x="297.497199" y="137.226475" style="fill: #0db14b; stroke: #0db14b"/>
     <use xlink:href="#m86f78646ba" x="298.895195" y="141.155737" style="fill: #0db14b; stroke: #0db14b"/>
     <use xlink:href="#m86f78646ba" x="300.29319" y="141.316595" style="fill: #0db14b; stroke: #0db14b"/>
     <use xlink:href="#m86f78646ba" x="301.691186" y="141.018948" style="fill: #0db14b; stroke: #0db14b"/>
     <use xlink:href="#m86f78646ba" x="303.089182" y="142.617462" style="fill: #0db14b; stroke: #0db14b"/>
     <use xlink:href="#m86f78646ba" x="304.487177" y="141.573235" style="fill: #0db14b; stroke: #0db14b"/>
     <use xlink:href="#m86f78646ba" x="305.885173" y="142.843919" style="fill: #0db14b; stroke: #0db14b"/>
     <use xlink:href="#m86f78646ba" x="307.283169" y="143.064436" style="fill: #0db14b; stroke: #0db14b"/>
     <use xlink:href="#m86f78646ba" x="308.681165" y="142.659844" style="fill: #0db14b; stroke: #0db14b"/>
     <use xlink:href="#m86f78646ba" x="310.07916" y="143.031158" style="fill: #0db14b; stroke: #0db14b"/>
     <use xlink:href="#m86f78646ba" x="311.477156" y="142.790424" style="fill: #0db14b; stroke: #0db14b"/>
     <use xlink:href="#m86f78646ba" x="312.875152" y="142.969887" style="fill: #0db14b; stroke: #0db14b"/>
     <use xlink:href="#m86f78646ba" x="314.273147" y="143.749149" style="fill: #0db14b; stroke: #0db14b"/>
     <use xlink:href="#m86f78646ba" x="315.671143" y="140.221531" style="fill: #0db14b; stroke: #0db14b"/>
     <use xlink:href="#m86f78646ba" x="317.069139" y="139.930387" style="fill: #0db14b; stroke: #0db14b"/>
     <use xlink:href="#m86f78646ba" x="318.467134" y="140.167551" style="fill: #0db14b; stroke: #0db14b"/>
     <use xlink:href="#m86f78646ba" x="319.86513" y="144.351289" style="fill: #0db14b; stroke: #0db14b"/>
     <use xlink:href="#m86f78646ba" x="321.263126" y="144.522315" style="fill: #0db14b; stroke: #0db14b"/>
     <use xlink:href="#m86f78646ba" x="322.661122" y="141.810295" style="fill: #0db14b; stroke: #0db14b"/>
     <use xlink:href="#m86f78646ba" x="324.059117" y="141.585814" style="fill: #0db14b; stroke: #0db14b"/>
     <use xlink:href="#m86f78646ba" x="325.457113" y="142.0367" style="fill: #0db14b; stroke: #0db14b"/>
     <use xlink:href="#m86f78646ba" x="326.855109" y="142.147998" style="fill: #0db14b; stroke: #0db14b"/>
     <use xlink:href="#m86f78646ba" x="328.253104" y="141.533293" style="fill: #0db14b; stroke: #0db14b"/>
     <use xlink:href="#m86f78646ba" x="329.6511" y="141.516334" style="fill: #0db14b; stroke: #0db14b"/>
     <use xlink:href="#m86f78646ba" x="331.049096" y="144.515918" style="fill: #0db14b; stroke: #0db14b"/>
     <use xlink:href="#m86f78646ba" x="332.447092" y="144.393489" style="fill: #0db14b; stroke: #0db14b"/>
     <use xlink:href="#m86f78646ba" x="333.845087" y="142.341248" style="fill: #0db14b; stroke: #0db14b"/>
     <use xlink:href="#m86f78646ba" x="335.243083" y="141.963923" style="fill: #0db14b; stroke: #0db14b"/>
     <use xlink:href="#m86f78646ba" x="336.641079" y="142.236252" style="fill: #0db14b; stroke: #0db14b"/>
     <use xlink:href="#m86f78646ba" x="338.039074" y="145.083619" style="fill: #0db14b; stroke: #0db14b"/>
     <use xlink:href="#m86f78646ba" x="339.43707" y="144.222002" style="fill: #0db14b; stroke: #0db14b"/>
     <use xlink:href="#m86f78646ba" x="340.835066" y="144.424985" style="fill: #0db14b; stroke: #0db14b"/>
     <use xlink:href="#m86f78646ba" x="342.233061" y="144.169152" style="fill: #0db14b; stroke: #0db14b"/>
     <use xlink:href="#m86f78646ba" x="343.631057" y="144.267533" style="fill: #0db14b; stroke: #0db14b"/>
     <use xlink:href="#m86f78646ba" x="345.029053" y="143.215966" style="fill: #0db14b; stroke: #0db14b"/>
     <use xlink:href="#m86f78646ba" x="346.427049" y="143.53471" style="fill: #0db14b; stroke: #0db14b"/>
     <use xlink:href="#m86f78646ba" x="347.825044" y="143.438511" style="fill: #0db14b; stroke: #0db14b"/>
     <use xlink:href="#m86f78646ba" x="349.22304" y="142.998187" style="fill: #0db14b; stroke: #0db14b"/>
     <use xlink:href="#m86f78646ba" x="350.621036" y="143.579898" style="fill: #0db14b; stroke: #0db14b"/>
     <use xlink:href="#m86f78646ba" x="352.019031" y="141.427613" style="fill: #0db14b; stroke: #0db14b"/>
     <use xlink:href="#m86f78646ba" x="353.417027" y="138.31486" style="fill: #0db14b; stroke: #0db14b"/>
     <use xlink:href="#m86f78646ba" x="354.815023" y="137.316503" style="fill: #0db14b; stroke: #0db14b"/>
     <use xlink:href="#m86f78646ba" x="356.213019" y="137.867174" style="fill: #0db14b; stroke: #0db14b"/>
     <use xlink:href="#m86f78646ba" x="357.611014" y="137.551904" style="fill: #0db14b; stroke: #0db14b"/>
     <use xlink:href="#m86f78646ba" x="359.00901" y="137.130726" style="fill: #0db14b; stroke: #0db14b"/>
     <use xlink:href="#m86f78646ba" x="360.407006" y="135.130816" style="fill: #0db14b; stroke: #0db14b"/>
     <use xlink:href="#m86f78646ba" x="361.805001" y="128.350636" style="fill: #0db14b; stroke: #0db14b"/>
     <use xlink:href="#m86f78646ba" x="363.202997" y="121.995165" style="fill: #0db14b; stroke: #0db14b"/>
     <use xlink:href="#m86f78646ba" x="364.600993" y="122.215662" style="fill: #0db14b; stroke: #0db14b"/>
     <use xlink:href="#m86f78646ba" x="365.998988" y="121.042351" style="fill: #0db14b; stroke: #0db14b"/>
     <use xlink:href="#m86f78646ba" x="367.396984" y="117.793879" style="fill: #0db14b; stroke: #0db14b"/>
     <use xlink:href="#m86f78646ba" x="368.79498" y="117.221577" style="fill: #0db14b; stroke: #0db14b"/>
     <use xlink:href="#m86f78646ba" x="370.192976" y="114.35271" style="fill: #0db14b; stroke: #0db14b"/>
     <use xlink:href="#m86f78646ba" x="371.590971" y="111.722599" style="fill: #0db14b; stroke: #0db14b"/>
     <use xlink:href="#m86f78646ba" x="372.988967" y="106.274605" style="fill: #0db14b; stroke: #0db14b"/>
     <use xlink:href="#m86f78646ba" x="374.386963" y="102.787665" style="fill: #0db14b; stroke: #0db14b"/>
     <use xlink:href="#m86f78646ba" x="375.784958" y="102.097187" style="fill: #0db14b; stroke: #0db14b"/>
     <use xlink:href="#m86f78646ba" x="377.182954" y="98.840901" style="fill: #0db14b; stroke: #0db14b"/>
     <use xlink:href="#m86f78646ba" x="378.58095" y="96.402734" style="fill: #0db14b; stroke: #0db14b"/>
     <use xlink:href="#m86f78646ba" x="379.978946" y="93.556385" style="fill: #0db14b; stroke: #0db14b"/>
     <use xlink:href="#m86f78646ba" x="381.376941" y="82.507317" style="fill: #0db14b; stroke: #0db14b"/>
     <use xlink:href="#m86f78646ba" x="382.774937" y="76.869603" style="fill: #0db14b; stroke: #0db14b"/>
     <use xlink:href="#m86f78646ba" x="384.172933" y="62.123846" style="fill: #0db14b; stroke: #0db14b"/>
     <use xlink:href="#m86f78646ba" x="385.570928" y="65.791497" style="fill: #0db14b; stroke: #0db14b"/>
     <use xlink:href="#m86f78646ba" x="386.968924" y="53.295124" style="fill: #0db14b; stroke: #0db14b"/>
     <use xlink:href="#m86f78646ba" x="388.36692" y="50.06413" style="fill: #0db14b; stroke: #0db14b"/>
     <use xlink:href="#m86f78646ba" x="389.764915" y="48.492394" style="fill: #0db14b; stroke: #0db14b"/>
     <use xlink:href="#m86f78646ba" x="391.162911" y="46.900303" style="fill: #0db14b; stroke: #0db14b"/>
     <use xlink:href="#m86f78646ba" x="392.560907" y="45.488508" style="fill: #0db14b; stroke: #0db14b"/>
     <use xlink:href="#m86f78646ba" x="393.958903" y="36.80321" style="fill: #0db14b; stroke: #0db14b"/>
     <use xlink:href="#m86f78646ba" x="395.356898" y="41.719356" style="fill: #0db14b; stroke: #0db14b"/>
     <use xlink:href="#m86f78646ba" x="396.754894" y="32.62793" style="fill: #0db14b; stroke: #0db14b"/>
     <use xlink:href="#m86f78646ba" x="398.15289" y="33.195911" style="fill: #0db14b; stroke: #0db14b"/>
     <use xlink:href="#m86f78646ba" x="399.550885" y="25.132089" style="fill: #0db14b; stroke: #0db14b"/>
     <use xlink:href="#m86f78646ba" x="400.948881" y="26.378179" style="fill: #0db14b; stroke: #0db14b"/>
     <use xlink:href="#m86f78646ba" x="402.346877" y="24.703769" style="fill: #0db14b; stroke: #0db14b"/>
     <use xlink:href="#m86f78646ba" x="403.744872" y="26.822156" style="fill: #0db14b; stroke: #0db14b"/>
     <use xlink:href="#m86f78646ba" x="405.142868" y="19.090349" style="fill: #0db14b; stroke: #0db14b"/>
     <use xlink:href="#m86f78646ba" x="406.540864" y="15.869623" style="fill: #0db14b; stroke: #0db14b"/>
     <use xlink:href="#m86f78646ba" x="407.93886" y="18.726813" style="fill: #0db14b; stroke: #0db14b"/>
     <use xlink:href="#m86f78646ba" x="409.336855" y="17.414624" style="fill: #0db14b; stroke: #0db14b"/>
     <use xlink:href="#m86f78646ba" x="410.734851" y="16.775822" style="fill: #0db14b; stroke: #0db14b"/>
     <use xlink:href="#m86f78646ba" x="412.132847" y="15.759793" style="fill: #0db14b; stroke: #0db14b"/>
     <use xlink:href="#m86f78646ba" x="413.530842" y="19.094084" style="fill: #0db14b; stroke: #0db14b"/>
     <use xlink:href="#m86f78646ba" x="414.928838" y="43.676112" style="fill: #0db14b; stroke: #0db14b"/>
     <use xlink:href="#m86f78646ba" x="416.326834" y="31.807292" style="fill: #0db14b; stroke: #0db14b"/>
     <use xlink:href="#m86f78646ba" x="417.72483" y="33.107573" style="fill: #0db14b; stroke: #0db14b"/>
    </g>
   </g>
   <g id="line2d_24">
    <path d="M 62.63392 160.125494 
L 64.031916 159.354111 
L 65.429912 158.787987 
L 66.827908 159.570206 
L 69.623899 158.136778 
L 72.41989 156.821611 
L 75.215882 156.693615 
L 78.011873 156.100404 
L 79.409869 156.784824 
L 80.807865 154.540666 
L 82.20586 153.476652 
L 83.603856 152.177219 
L 85.001852 151.095183 
L 86.399847 147.730463 
L 89.195839 145.968895 
L 90.593835 145.931771 
L 91.99183 142.784776 
L 93.389826 142.258425 
L 94.787822 144.657245 
L 96.185817 143.504014 
L 97.583813 141.584167 
L 98.981809 137.242843 
L 101.7778 140.126066 
L 103.175796 138.543423 
L 104.573792 138.526425 
L 107.369783 135.728861 
L 110.165774 128.954427 
L 111.56377 132.922952 
L 112.961766 129.586233 
L 114.359762 120.745572 
L 115.757757 121.643661 
L 117.155753 121.480619 
L 118.553749 123.1299 
L 119.951744 124.954274 
L 121.34974 125.487696 
L 122.747736 124.69716 
L 124.145731 124.844738 
L 125.543727 126.997325 
L 126.941723 127.132925 
L 128.339719 128.730308 
L 129.737714 128.877275 
L 131.13571 128.479053 
L 132.533706 127.272922 
L 133.931701 126.504442 
L 135.329697 124.584373 
L 136.727693 124.010816 
L 138.125689 122.371089 
L 139.523684 117.891843 
L 140.92168 117.189535 
L 142.319676 117.694779 
L 143.717671 115.352164 
L 145.115667 114.544169 
L 146.513663 115.970947 
L 147.911658 114.262448 
L 149.309654 105.393018 
L 150.70765 114.30773 
L 152.105646 113.872289 
L 153.503641 112.795824 
L 154.901637 112.545684 
L 156.299633 109.124223 
L 157.697628 107.569179 
L 159.095624 107.408447 
L 160.49362 108.290332 
L 161.891616 106.112499 
L 163.289611 106.390799 
L 164.687607 102.183823 
L 166.085603 103.456269 
L 167.483598 103.772708 
L 168.881594 106.145163 
L 170.27959 100.995247 
L 173.075581 99.772285 
L 174.473577 98.038146 
L 175.871573 97.269317 
L 177.269568 97.778137 
L 178.667564 92.674772 
L 180.06556 96.576093 
L 181.463555 92.143687 
L 182.861551 91.573136 
L 184.259547 92.075512 
L 185.657543 88.012917 
L 187.055538 87.377571 
L 188.453534 82.735948 
L 189.85153 88.477757 
L 192.647521 73.516693 
L 194.045517 69.460847 
L 195.443512 67.142739 
L 196.841508 63.977069 
L 198.239504 62.45454 
L 199.6375 70.23446 
L 201.035495 63.504798 
L 202.433491 61.128821 
L 203.831487 63.688519 
L 205.229482 67.133962 
L 206.627478 65.902573 
L 208.025474 68.96954 
L 209.423469 69.094321 
L 210.821465 68.647537 
L 212.219461 72.495705 
L 213.617457 77.786291 
L 215.015452 78.916123 
L 216.413448 76.602256 
L 217.811444 76.175425 
L 219.209439 73.175054 
L 220.607435 76.447841 
L 222.005431 77.63276 
L 223.403427 77.008988 
L 224.801422 76.119088 
L 226.199418 77.369609 
L 227.597414 79.008972 
L 228.995409 80.32686 
L 230.393405 83.081912 
L 233.189396 81.44783 
L 234.587392 83.211636 
L 235.985388 88.741992 
L 237.383384 93.474857 
L 238.781379 94.109646 
L 240.179375 96.980155 
L 241.577371 98.325687 
L 244.373362 103.750771 
L 245.771358 106.900277 
L 247.169354 109.26206 
L 248.567349 108.827748 
L 251.363341 116.858561 
L 252.761336 118.836891 
L 254.159332 123.973857 
L 255.557328 125.218296 
L 256.955323 124.576309 
L 258.353319 124.381639 
L 259.751315 127.55379 
L 261.149311 129.40834 
L 262.547306 130.11489 
L 263.945302 134.551734 
L 265.343298 135.579919 
L 266.741293 136.206281 
L 268.139289 136.551972 
L 269.537285 136.35264 
L 270.935281 137.53382 
L 272.333276 137.537609 
L 273.731272 136.134966 
L 275.129268 137.349643 
L 276.527263 140.488579 
L 277.925259 141.228989 
L 279.323255 140.078303 
L 280.72125 141.28002 
L 282.119246 142.02067 
L 283.517242 139.87644 
L 284.915238 140.506081 
L 286.313233 141.440143 
L 287.711229 141.823406 
L 289.109225 142.755398 
L 291.905216 143.551611 
L 293.303212 143.519681 
L 294.701207 143.330075 
L 296.099203 143.583945 
L 297.497199 143.11962 
L 298.895195 144.736108 
L 301.691186 144.037185 
L 303.089182 144.564011 
L 304.487177 144.147421 
L 305.885173 145.031196 
L 307.283169 144.470146 
L 310.07916 144.884927 
L 311.477156 145.487514 
L 312.875152 145.255551 
L 314.273147 145.849795 
L 315.671143 145.530679 
L 317.069139 145.066874 
L 318.467134 145.324574 
L 321.263126 147.194077 
L 324.059117 147.734116 
L 326.855109 146.815395 
L 328.253104 148.134085 
L 329.6511 147.908942 
L 331.049096 148.754617 
L 332.447092 149.372713 
L 333.845087 148.563921 
L 335.243083 149.083083 
L 336.641079 148.803364 
L 338.039074 148.949507 
L 339.43707 147.960683 
L 340.835066 147.522211 
L 342.233061 146.946462 
L 343.631057 147.128565 
L 345.029053 145.716402 
L 346.427049 146.028781 
L 347.825044 144.330483 
L 349.22304 143.943796 
L 350.621036 142.947854 
L 352.019031 142.747398 
L 353.417027 142.172439 
L 354.815023 139.751707 
L 356.213019 139.568845 
L 357.611014 138.586651 
L 359.00901 138.319484 
L 360.407006 135.374102 
L 361.805001 133.398186 
L 363.202997 130.094832 
L 364.600993 128.940638 
L 365.998988 127.413383 
L 367.396984 124.568335 
L 368.79498 120.775638 
L 370.192976 115.348094 
L 371.590971 111.974873 
L 372.988967 105.78038 
L 374.386963 103.942275 
L 375.784958 103.509923 
L 377.182954 95.726109 
L 378.58095 90.580744 
L 379.978946 86.581288 
L 381.376941 80.395587 
L 384.172933 69.935271 
L 385.570928 72.087239 
L 386.968924 63.924234 
L 388.36692 57.913195 
L 389.764915 52.955756 
L 391.162911 49.254557 
L 392.560907 48.74421 
L 393.958903 40.62863 
L 395.356898 43.090183 
L 396.754894 35.224942 
L 398.15289 33.862931 
L 399.550885 28.411557 
L 400.948881 28.79803 
L 402.346877 27.273278 
L 403.744872 27.164619 
L 405.142868 27.414659 
L 406.540864 21.623788 
L 407.93886 23.90217 
L 409.336855 23.335149 
L 410.734851 22.440749 
L 412.132847 19.384352 
L 413.530842 24.410611 
L 414.928838 47.184247 
L 416.326834 32.549746 
L 417.72483 31.411029 
L 417.72483 31.411029 
" clip-path="url(#p60d224506b)" style="fill: none; stroke-dasharray: 5.55,2.4; stroke-dashoffset: 0; stroke: #000000; stroke-width: 1.5"/>
   </g>
   <g id="patch_3">
    <path d="M 44.879375 167.685494 
L 44.879375 1.365494 
" style="fill: none; stroke: #ffffff; stroke-linejoin: miter; stroke-linecap: square"/>
   </g>
   <g id="patch_4">
    <path d="M 435.479375 167.685494 
L 435.479375 1.365494 
" style="fill: none; stroke: #ffffff; stroke-linejoin: miter; stroke-linecap: square"/>
   </g>
   <g id="patch_5">
    <path d="M 44.879375 167.685494 
L 435.479375 167.685494 
" style="fill: none; stroke: #ffffff; stroke-linejoin: miter; stroke-linecap: square"/>
   </g>
   <g id="patch_6">
    <path d="M 44.879375 1.365494 
L 435.479375 1.365494 
" style="fill: none; stroke: #ffffff; stroke-linejoin: miter; stroke-linecap: square"/>
   </g>
   <g id="legend_1">
    <g id="patch_7">
     <path d="M 51.879375 61.743619 
L 203.92625 61.743619 
Q 205.92625 61.743619 205.92625 59.743619 
L 205.92625 8.365494 
Q 205.92625 6.365494 203.92625 6.365494 
L 51.879375 6.365494 
Q 49.879375 6.365494 49.879375 8.365494 
L 49.879375 59.743619 
Q 49.879375 61.743619 51.879375 61.743619 
z
" style="fill: #e5e5e5; opacity: 0.8; stroke: #cccccc; stroke-width: 0.5; stroke-linejoin: miter"/>
    </g>
    <g id="line2d_25">
     <path d="M 53.879375 16.865494 
L 63.879375 16.865494 
L 73.879375 16.865494 
" style="fill: none; stroke: #0db14b; stroke-width: 3; stroke-linecap: square"/>
     <g>
      <use xlink:href="#m86f78646ba" x="63.879375" y="16.865494" style="fill: #0db14b; stroke: #0db14b"/>
     </g>
    </g>
    <g id="text_14">
     <!-- Private Value $\tilde{R}_{\chi_2,\chi_1}^t$ -->
     <g transform="translate(81.879375 20.365494) scale(0.1 -0.1)">
      <defs>
       <path id="DejaVuSans-50" d="M 1259 4147 
L 1259 2394 
L 2053 2394 
Q 2494 2394 2734 2622 
Q 2975 2850 2975 3272 
Q 2975 3691 2734 3919 
Q 2494 4147 2053 4147 
L 1259 4147 
z
M 628 4666 
L 2053 4666 
Q 2838 4666 3239 4311 
Q 3641 3956 3641 3272 
Q 3641 2581 3239 2228 
Q 2838 1875 2053 1875 
L 1259 1875 
L 1259 0 
L 628 0 
L 628 4666 
z
" transform="scale(0.015625)"/>
       <path id="DejaVuSans-72" d="M 2631 2963 
Q 2534 3019 2420 3045 
Q 2306 3072 2169 3072 
Q 1681 3072 1420 2755 
Q 1159 2438 1159 1844 
L 1159 0 
L 581 0 
L 581 3500 
L 1159 3500 
L 1159 2956 
Q 1341 3275 1631 3429 
Q 1922 3584 2338 3584 
Q 2397 3584 2469 3576 
Q 2541 3569 2628 3553 
L 2631 2963 
z
" transform="scale(0.015625)"/>
       <path id="DejaVuSans-69" d="M 603 3500 
L 1178 3500 
L 1178 0 
L 603 0 
L 603 3500 
z
M 603 4863 
L 1178 4863 
L 1178 4134 
L 603 4134 
L 603 4863 
z
" transform="scale(0.015625)"/>
       <path id="DejaVuSans-76" d="M 191 3500 
L 800 3500 
L 1894 563 
L 2988 3500 
L 3597 3500 
L 2284 0 
L 1503 0 
L 191 3500 
z
" transform="scale(0.015625)"/>
       <path id="DejaVuSans-20" transform="scale(0.015625)"/>
       <path id="DejaVuSans-303" d="M -1621 4281 
L -1799 4453 
Q -1867 4516 -1919 4545 
Q -1971 4575 -2011 4575 
Q -2130 4575 -2186 4461 
Q -2242 4347 -2249 4091 
L -2639 4091 
Q -2633 4513 -2473 4742 
Q -2314 4972 -2030 4972 
Q -1911 4972 -1811 4928 
Q -1711 4884 -1596 4781 
L -1417 4609 
Q -1349 4547 -1297 4517 
Q -1246 4488 -1205 4488 
Q -1086 4488 -1030 4602 
Q -974 4716 -967 4972 
L -577 4972 
Q -583 4550 -742 4320 
Q -902 4091 -1186 4091 
Q -1305 4091 -1405 4134 
Q -1505 4178 -1621 4281 
z
" transform="scale(0.015625)"/>
       <path id="DejaVuSans-Oblique-52" d="M 1613 4147 
L 1294 2491 
L 2106 2491 
Q 2584 2491 2879 2755 
Q 3175 3019 3175 3444 
Q 3175 3784 2976 3965 
Q 2778 4147 2406 4147 
L 1613 4147 
z
M 2772 2241 
Q 2972 2194 3105 2009 
Q 3238 1825 3413 1275 
L 3809 0 
L 3144 0 
L 2778 1197 
Q 2638 1659 2453 1815 
Q 2269 1972 1888 1972 
L 1191 1972 
L 806 0 
L 172 0 
L 1081 4666 
L 2503 4666 
Q 3150 4666 3495 4373 
Q 3841 4081 3841 3531 
Q 3841 3044 3547 2687 
Q 3253 2331 2772 2241 
z
" transform="scale(0.015625)"/>
       <path id="DejaVuSans-Oblique-74" d="M 2706 3500 
L 2619 3053 
L 1472 3053 
L 1100 1153 
Q 1081 1047 1072 975 
Q 1063 903 1063 863 
Q 1063 663 1183 572 
Q 1303 481 1569 481 
L 2150 481 
L 2053 0 
L 1503 0 
Q 991 0 739 200 
Q 488 400 488 806 
Q 488 878 497 964 
Q 506 1050 525 1153 
L 897 3053 
L 409 3053 
L 500 3500 
L 978 3500 
L 1172 4494 
L 1747 4494 
L 1556 3500 
L 2706 3500 
z
" transform="scale(0.015625)"/>
       <path id="DejaVuSans-Oblique-3c7" d="M 1922 -781 
L 1691 416 
L 394 -1334 
L -284 -1334 
L 1553 1141 
L 1269 2613 
Q 1194 3006 713 3006 
L 559 3006 
L 653 3500 
L 872 3494 
Q 1675 3472 1775 2950 
L 2006 1753 
L 3303 3503 
L 3981 3503 
L 2144 1028 
L 2428 -444 
Q 2503 -838 2984 -838 
L 3138 -838 
L 3044 -1331 
L 2825 -1325 
Q 2022 -1303 1922 -781 
z
" transform="scale(0.015625)"/>
       <path id="DejaVuSans-2c" d="M 750 794 
L 1409 794 
L 1409 256 
L 897 -744 
L 494 -744 
L 750 256 
L 750 794 
z
" transform="scale(0.015625)"/>
      </defs>
      <use xlink:href="#DejaVuSans-50" transform="translate(0 0.828125)"/>
      <use xlink:href="#DejaVuSans-72" transform="translate(60.302734 0.828125)"/>
      <use xlink:href="#DejaVuSans-69" transform="translate(101.416016 0.828125)"/>
      <use xlink:href="#DejaVuSans-76" transform="translate(129.199219 0.828125)"/>
      <use xlink:href="#DejaVuSans-61" transform="translate(188.378906 0.828125)"/>
      <use xlink:href="#DejaVuSans-74" transform="translate(249.658203 0.828125)"/>
      <use xlink:href="#DejaVuSans-65" transform="translate(288.867188 0.828125)"/>
      <use xlink:href="#DejaVuSans-20" transform="translate(350.390625 0.828125)"/>
      <use xlink:href="#DejaVuSans-56" transform="translate(382.177734 0.828125)"/>
      <use xlink:href="#DejaVuSans-61" transform="translate(450.585938 0.828125)"/>
      <use xlink:href="#DejaVuSans-6c" transform="translate(511.865234 0.828125)"/>
      <use xlink:href="#DejaVuSans-75" transform="translate(539.648438 0.828125)"/>
      <use xlink:href="#DejaVuSans-65" transform="translate(603.027344 0.828125)"/>
      <use xlink:href="#DejaVuSans-20" transform="translate(664.550781 0.828125)"/>
      <use xlink:href="#DejaVuSans-303" transform="translate(764.942871 22.3125)"/>
      <use xlink:href="#DejaVuSans-Oblique-52" transform="translate(696.337891 0.828125)"/>
      <use xlink:href="#DejaVuSans-Oblique-74" transform="translate(766.777344 39.109375) scale(0.7)"/>
      <use xlink:href="#DejaVuSans-Oblique-3c7" transform="translate(766.777344 -26.515625) scale(0.7)"/>
      <use xlink:href="#DejaVuSans-32" transform="translate(808.203125 -38) scale(0.49)"/>
      <use xlink:href="#DejaVuSans-2c" transform="translate(841.29248 -26.515625) scale(0.7)"/>
      <use xlink:href="#DejaVuSans-Oblique-3c7" transform="translate(877.181152 -26.515625) scale(0.7)"/>
      <use xlink:href="#DejaVuSans-31" transform="translate(918.606934 -38) scale(0.49)"/>
     </g>
    </g>
    <g id="line2d_26">
     <path d="M 53.879375 35.365494 
L 63.879375 35.365494 
L 73.879375 35.365494 
" style="fill: none; stroke-dasharray: 5.55,2.4; stroke-dashoffset: 0; stroke: #000000; stroke-width: 1.5"/>
    </g>
    <g id="text_15">
     <!-- Original Value $\bar{R}_{\chi_2,\chi_1}^t$ -->
     <g transform="translate(81.879375 38.865494) scale(0.1 -0.1)">
      <defs>
       <path id="DejaVuSans-4f" d="M 2522 4238 
Q 1834 4238 1429 3725 
Q 1025 3213 1025 2328 
Q 1025 1447 1429 934 
Q 1834 422 2522 422 
Q 3209 422 3611 934 
Q 4013 1447 4013 2328 
Q 4013 3213 3611 3725 
Q 3209 4238 2522 4238 
z
M 2522 4750 
Q 3503 4750 4090 4092 
Q 4678 3434 4678 2328 
Q 4678 1225 4090 567 
Q 3503 -91 2522 -91 
Q 1538 -91 948 565 
Q 359 1222 359 2328 
Q 359 3434 948 4092 
Q 1538 4750 2522 4750 
z
" transform="scale(0.015625)"/>
       <path id="DejaVuSans-67" d="M 2906 1791 
Q 2906 2416 2648 2759 
Q 2391 3103 1925 3103 
Q 1463 3103 1205 2759 
Q 947 2416 947 1791 
Q 947 1169 1205 825 
Q 1463 481 1925 481 
Q 2391 481 2648 825 
Q 2906 1169 2906 1791 
z
M 3481 434 
Q 3481 -459 3084 -895 
Q 2688 -1331 1869 -1331 
Q 1566 -1331 1297 -1286 
Q 1028 -1241 775 -1147 
L 775 -588 
Q 1028 -725 1275 -790 
Q 1522 -856 1778 -856 
Q 2344 -856 2625 -561 
Q 2906 -266 2906 331 
L 2906 616 
Q 2728 306 2450 153 
Q 2172 0 1784 0 
Q 1141 0 747 490 
Q 353 981 353 1791 
Q 353 2603 747 3093 
Q 1141 3584 1784 3584 
Q 2172 3584 2450 3431 
Q 2728 3278 2906 2969 
L 2906 3500 
L 3481 3500 
L 3481 434 
z
" transform="scale(0.015625)"/>
       <path id="DejaVuSans-6e" d="M 3513 2113 
L 3513 0 
L 2938 0 
L 2938 2094 
Q 2938 2591 2744 2837 
Q 2550 3084 2163 3084 
Q 1697 3084 1428 2787 
Q 1159 2491 1159 1978 
L 1159 0 
L 581 0 
L 581 3500 
L 1159 3500 
L 1159 2956 
Q 1366 3272 1645 3428 
Q 1925 3584 2291 3584 
Q 2894 3584 3203 3211 
Q 3513 2838 3513 2113 
z
" transform="scale(0.015625)"/>
       <path id="DejaVuSans-304" d="M -2518 4769 
L -650 4769 
L -650 4306 
L -2518 4306 
L -2518 4769 
z
" transform="scale(0.015625)"/>
      </defs>
      <use xlink:href="#DejaVuSans-4f" transform="translate(0 0.359375)"/>
      <use xlink:href="#DejaVuSans-72" transform="translate(78.710938 0.359375)"/>
      <use xlink:href="#DejaVuSans-69" transform="translate(119.824219 0.359375)"/>
      <use xlink:href="#DejaVuSans-67" transform="translate(147.607422 0.359375)"/>
      <use xlink:href="#DejaVuSans-69" transform="translate(211.083984 0.359375)"/>
      <use xlink:href="#DejaVuSans-6e" transform="translate(238.867188 0.359375)"/>
      <use xlink:href="#DejaVuSans-61" transform="translate(302.246094 0.359375)"/>
      <use xlink:href="#DejaVuSans-6c" transform="translate(363.525391 0.359375)"/>
      <use xlink:href="#DejaVuSans-20" transform="translate(391.308594 0.359375)"/>
      <use xlink:href="#DejaVuSans-56" transform="translate(423.095703 0.359375)"/>
      <use xlink:href="#DejaVuSans-61" transform="translate(491.503906 0.359375)"/>
      <use xlink:href="#DejaVuSans-6c" transform="translate(552.783203 0.359375)"/>
      <use xlink:href="#DejaVuSans-75" transform="translate(580.566406 0.359375)"/>
      <use xlink:href="#DejaVuSans-65" transform="translate(643.945312 0.359375)"/>
      <use xlink:href="#DejaVuSans-20" transform="translate(705.46875 0.359375)"/>
      <use xlink:href="#DejaVuSans-304" transform="translate(804.970215 18.484375)"/>
      <use xlink:href="#DejaVuSans-Oblique-52" transform="translate(737.255859 0.359375)"/>
      <use xlink:href="#DejaVuSans-Oblique-74" transform="translate(807.695312 38.640625) scale(0.7)"/>
      <use xlink:href="#DejaVuSans-Oblique-3c7" transform="translate(807.695312 -26.984375) scale(0.7)"/>
      <use xlink:href="#DejaVuSans-32" transform="translate(849.121094 -38.46875) scale(0.49)"/>
      <use xlink:href="#DejaVuSans-2c" transform="translate(882.210449 -26.984375) scale(0.7)"/>
      <use xlink:href="#DejaVuSans-Oblique-3c7" transform="translate(918.099121 -26.984375) scale(0.7)"/>
      <use xlink:href="#DejaVuSans-31" transform="translate(959.524902 -38.46875) scale(0.49)"/>
     </g>
    </g>
    <g id="patch_8">
     <path d="M 53.879375 55.663931 
L 73.879375 55.663931 
L 73.879375 48.663931 
L 53.879375 48.663931 
z
" style="fill: #0db14b; fill-opacity: 0.5; stroke: #0db14b; stroke-opacity: 0.5; stroke-width: 0.5; stroke-linejoin: miter"/>
    </g>
    <g id="text_16">
     <!-- One Standard Deviation -->
     <g transform="translate(81.879375 55.663931) scale(0.1 -0.1)">
      <defs>
       <path id="DejaVuSans-53" d="M 3425 4513 
L 3425 3897 
Q 3066 4069 2747 4153 
Q 2428 4238 2131 4238 
Q 1616 4238 1336 4038 
Q 1056 3838 1056 3469 
Q 1056 3159 1242 3001 
Q 1428 2844 1947 2747 
L 2328 2669 
Q 3034 2534 3370 2195 
Q 3706 1856 3706 1288 
Q 3706 609 3251 259 
Q 2797 -91 1919 -91 
Q 1588 -91 1214 -16 
Q 841 59 441 206 
L 441 856 
Q 825 641 1194 531 
Q 1563 422 1919 422 
Q 2459 422 2753 634 
Q 3047 847 3047 1241 
Q 3047 1584 2836 1778 
Q 2625 1972 2144 2069 
L 1759 2144 
Q 1053 2284 737 2584 
Q 422 2884 422 3419 
Q 422 4038 858 4394 
Q 1294 4750 2059 4750 
Q 2388 4750 2728 4690 
Q 3069 4631 3425 4513 
z
" transform="scale(0.015625)"/>
       <path id="DejaVuSans-64" d="M 2906 2969 
L 2906 4863 
L 3481 4863 
L 3481 0 
L 2906 0 
L 2906 525 
Q 2725 213 2448 61 
Q 2172 -91 1784 -91 
Q 1150 -91 751 415 
Q 353 922 353 1747 
Q 353 2572 751 3078 
Q 1150 3584 1784 3584 
Q 2172 3584 2448 3432 
Q 2725 3281 2906 2969 
z
M 947 1747 
Q 947 1113 1208 752 
Q 1469 391 1925 391 
Q 2381 391 2643 752 
Q 2906 1113 2906 1747 
Q 2906 2381 2643 2742 
Q 2381 3103 1925 3103 
Q 1469 3103 1208 2742 
Q 947 2381 947 1747 
z
" transform="scale(0.015625)"/>
       <path id="DejaVuSans-6f" d="M 1959 3097 
Q 1497 3097 1228 2736 
Q 959 2375 959 1747 
Q 959 1119 1226 758 
Q 1494 397 1959 397 
Q 2419 397 2687 759 
Q 2956 1122 2956 1747 
Q 2956 2369 2687 2733 
Q 2419 3097 1959 3097 
z
M 1959 3584 
Q 2709 3584 3137 3096 
Q 3566 2609 3566 1747 
Q 3566 888 3137 398 
Q 2709 -91 1959 -91 
Q 1206 -91 779 398 
Q 353 888 353 1747 
Q 353 2609 779 3096 
Q 1206 3584 1959 3584 
z
" transform="scale(0.015625)"/>
      </defs>
      <use xlink:href="#DejaVuSans-4f"/>
      <use xlink:href="#DejaVuSans-6e" x="78.710938"/>
      <use xlink:href="#DejaVuSans-65" x="142.089844"/>
      <use xlink:href="#DejaVuSans-20" x="203.613281"/>
      <use xlink:href="#DejaVuSans-53" x="235.400391"/>
      <use xlink:href="#DejaVuSans-74" x="298.876953"/>
      <use xlink:href="#DejaVuSans-61" x="338.085938"/>
      <use xlink:href="#DejaVuSans-6e" x="399.365234"/>
      <use xlink:href="#DejaVuSans-64" x="462.744141"/>
      <use xlink:href="#DejaVuSans-61" x="526.220703"/>
      <use xlink:href="#DejaVuSans-72" x="587.5"/>
      <use xlink:href="#DejaVuSans-64" x="626.863281"/>
      <use xlink:href="#DejaVuSans-20" x="690.339844"/>
      <use xlink:href="#DejaVuSans-44" x="722.126953"/>
      <use xlink:href="#DejaVuSans-65" x="799.128906"/>
      <use xlink:href="#DejaVuSans-76" x="860.652344"/>
      <use xlink:href="#DejaVuSans-69" x="919.832031"/>
      <use xlink:href="#DejaVuSans-61" x="947.615234"/>
      <use xlink:href="#DejaVuSans-74" x="1008.894531"/>
      <use xlink:href="#DejaVuSans-69" x="1048.103516"/>
      <use xlink:href="#DejaVuSans-6f" x="1075.886719"/>
      <use xlink:href="#DejaVuSans-6e" x="1137.068359"/>
     </g>
    </g>
   </g>
  </g>
 </g>
 <defs>
  <clipPath id="p60d224506b">
   <rect x="44.879375" y="1.365494" width="390.6" height="166.32"/>
  </clipPath>
 </defs>
</svg>
