<?xml version="1.0" encoding="utf-8" standalone="no"?>
<!DOCTYPE svg PUBLIC "-//W3C//DTD SVG 1.1//EN"
  "http://www.w3.org/Graphics/SVG/1.1/DTD/svg11.dtd">
<svg xmlns:xlink="http://www.w3.org/1999/xlink" width="444.375067pt" height="198.611875pt" viewBox="0 0 444.375067 198.611875" xmlns="http://www.w3.org/2000/svg" version="1.1">
 <metadata>
  <rdf:RDF xmlns:dc="http://purl.org/dc/elements/1.1/" xmlns:cc="http://creativecommons.org/ns#" xmlns:rdf="http://www.w3.org/1999/02/22-rdf-syntax-ns#">
   <cc:Work>
    <dc:type rdf:resource="http://purl.org/dc/dcmitype/StillImage"/>
    <dc:date>2024-09-18T15:47:43.914090</dc:date>
    <dc:format>image/svg+xml</dc:format>
    <dc:creator>
     <cc:Agent>
      <dc:title>Matplotlib v3.7.5, https://matplotlib.org/</dc:title>
     </cc:Agent>
    </dc:creator>
   </cc:Work>
  </rdf:RDF>
 </metadata>
 <defs>
  <style type="text/css">*{stroke-linejoin: round; stroke-linecap: butt}</style>
 </defs>
 <g id="figure_1">
  <g id="patch_1">
   <path d="M 0 198.611875 
L 444.375067 198.611875 
L 444.375067 0 
L 0 0 
z
" style="fill: #ffffff"/>
  </g>
  <g id="axes_1">
   <g id="patch_2">
    <path d="M 44.879375 166.32 
L 435.479375 166.32 
L 435.479375 -0 
L 44.879375 -0 
z
" style="fill: #e5e5e5"/>
   </g>
   <g id="matplotlib.axis_1">
    <g id="xtick_1">
     <g id="line2d_1">
      <path d="M 72.41989 166.32 
L 72.41989 -0 
" clip-path="url(#p2ef5214a54)" style="fill: none; stroke: #ffffff; stroke-width: 0.8; stroke-linecap: square"/>
     </g>
     <g id="line2d_2">
      <defs>
       <path id="m6502f712a0" d="M 0 0 
L 0 3.5 
" style="stroke: #555555; stroke-width: 0.8"/>
      </defs>
      <g>
       <use xlink:href="#m6502f712a0" x="72.41989" y="166.32" style="fill: #555555; stroke: #555555; stroke-width: 0.8"/>
      </g>
     </g>
     <g id="text_1">
      <!-- 08/16/20 -->
      <g style="fill: #555555" transform="translate(49.96364 180.918437) scale(0.1 -0.1)">
       <defs>
        <path id="DejaVuSans-30" d="M 2034 4250 
Q 1547 4250 1301 3770 
Q 1056 3291 1056 2328 
Q 1056 1369 1301 889 
Q 1547 409 2034 409 
Q 2525 409 2770 889 
Q 3016 1369 3016 2328 
Q 3016 3291 2770 3770 
Q 2525 4250 2034 4250 
z
M 2034 4750 
Q 2819 4750 3233 4129 
Q 3647 3509 3647 2328 
Q 3647 1150 3233 529 
Q 2819 -91 2034 -91 
Q 1250 -91 836 529 
Q 422 1150 422 2328 
Q 422 3509 836 4129 
Q 1250 4750 2034 4750 
z
" transform="scale(0.015625)"/>
        <path id="DejaVuSans-38" d="M 2034 2216 
Q 1584 2216 1326 1975 
Q 1069 1734 1069 1313 
Q 1069 891 1326 650 
Q 1584 409 2034 409 
Q 2484 409 2743 651 
Q 3003 894 3003 1313 
Q 3003 1734 2745 1975 
Q 2488 2216 2034 2216 
z
M 1403 2484 
Q 997 2584 770 2862 
Q 544 3141 544 3541 
Q 544 4100 942 4425 
Q 1341 4750 2034 4750 
Q 2731 4750 3128 4425 
Q 3525 4100 3525 3541 
Q 3525 3141 3298 2862 
Q 3072 2584 2669 2484 
Q 3125 2378 3379 2068 
Q 3634 1759 3634 1313 
Q 3634 634 3220 271 
Q 2806 -91 2034 -91 
Q 1263 -91 848 271 
Q 434 634 434 1313 
Q 434 1759 690 2068 
Q 947 2378 1403 2484 
z
M 1172 3481 
Q 1172 3119 1398 2916 
Q 1625 2713 2034 2713 
Q 2441 2713 2670 2916 
Q 2900 3119 2900 3481 
Q 2900 3844 2670 4047 
Q 2441 4250 2034 4250 
Q 1625 4250 1398 4047 
Q 1172 3844 1172 3481 
z
" transform="scale(0.015625)"/>
        <path id="DejaVuSans-2f" d="M 1625 4666 
L 2156 4666 
L 531 -594 
L 0 -594 
L 1625 4666 
z
" transform="scale(0.015625)"/>
        <path id="DejaVuSans-31" d="M 794 531 
L 1825 531 
L 1825 4091 
L 703 3866 
L 703 4441 
L 1819 4666 
L 2450 4666 
L 2450 531 
L 3481 531 
L 3481 0 
L 794 0 
L 794 531 
z
" transform="scale(0.015625)"/>
        <path id="DejaVuSans-36" d="M 2113 2584 
Q 1688 2584 1439 2293 
Q 1191 2003 1191 1497 
Q 1191 994 1439 701 
Q 1688 409 2113 409 
Q 2538 409 2786 701 
Q 3034 994 3034 1497 
Q 3034 2003 2786 2293 
Q 2538 2584 2113 2584 
z
M 3366 4563 
L 3366 3988 
Q 3128 4100 2886 4159 
Q 2644 4219 2406 4219 
Q 1781 4219 1451 3797 
Q 1122 3375 1075 2522 
Q 1259 2794 1537 2939 
Q 1816 3084 2150 3084 
Q 2853 3084 3261 2657 
Q 3669 2231 3669 1497 
Q 3669 778 3244 343 
Q 2819 -91 2113 -91 
Q 1303 -91 875 529 
Q 447 1150 447 2328 
Q 447 3434 972 4092 
Q 1497 4750 2381 4750 
Q 2619 4750 2861 4703 
Q 3103 4656 3366 4563 
z
" transform="scale(0.015625)"/>
        <path id="DejaVuSans-32" d="M 1228 531 
L 3431 531 
L 3431 0 
L 469 0 
L 469 531 
Q 828 903 1448 1529 
Q 2069 2156 2228 2338 
Q 2531 2678 2651 2914 
Q 2772 3150 2772 3378 
Q 2772 3750 2511 3984 
Q 2250 4219 1831 4219 
Q 1534 4219 1204 4116 
Q 875 4013 500 3803 
L 500 4441 
Q 881 4594 1212 4672 
Q 1544 4750 1819 4750 
Q 2544 4750 2975 4387 
Q 3406 4025 3406 3419 
Q 3406 3131 3298 2873 
Q 3191 2616 2906 2266 
Q 2828 2175 2409 1742 
Q 1991 1309 1228 531 
z
" transform="scale(0.015625)"/>
       </defs>
       <use xlink:href="#DejaVuSans-30"/>
       <use xlink:href="#DejaVuSans-38" x="63.623047"/>
       <use xlink:href="#DejaVuSans-2f" x="127.246094"/>
       <use xlink:href="#DejaVuSans-31" x="160.9375"/>
       <use xlink:href="#DejaVuSans-36" x="224.560547"/>
       <use xlink:href="#DejaVuSans-2f" x="288.183594"/>
       <use xlink:href="#DejaVuSans-32" x="321.875"/>
       <use xlink:href="#DejaVuSans-30" x="385.498047"/>
      </g>
     </g>
    </g>
    <g id="xtick_2">
     <g id="line2d_3">
      <path d="M 142.319676 166.32 
L 142.319676 -0 
" clip-path="url(#p2ef5214a54)" style="fill: none; stroke: #ffffff; stroke-width: 0.8; stroke-linecap: square"/>
     </g>
     <g id="line2d_4">
      <g>
       <use xlink:href="#m6502f712a0" x="142.319676" y="166.32" style="fill: #555555; stroke: #555555; stroke-width: 0.8"/>
      </g>
     </g>
     <g id="text_2">
      <!-- 10/05/20 -->
      <g style="fill: #555555" transform="translate(119.863426 180.918437) scale(0.1 -0.1)">
       <defs>
        <path id="DejaVuSans-35" d="M 691 4666 
L 3169 4666 
L 3169 4134 
L 1269 4134 
L 1269 2991 
Q 1406 3038 1543 3061 
Q 1681 3084 1819 3084 
Q 2600 3084 3056 2656 
Q 3513 2228 3513 1497 
Q 3513 744 3044 326 
Q 2575 -91 1722 -91 
Q 1428 -91 1123 -41 
Q 819 9 494 109 
L 494 744 
Q 775 591 1075 516 
Q 1375 441 1709 441 
Q 2250 441 2565 725 
Q 2881 1009 2881 1497 
Q 2881 1984 2565 2268 
Q 2250 2553 1709 2553 
Q 1456 2553 1204 2497 
Q 953 2441 691 2322 
L 691 4666 
z
" transform="scale(0.015625)"/>
       </defs>
       <use xlink:href="#DejaVuSans-31"/>
       <use xlink:href="#DejaVuSans-30" x="63.623047"/>
       <use xlink:href="#DejaVuSans-2f" x="127.246094"/>
       <use xlink:href="#DejaVuSans-30" x="160.9375"/>
       <use xlink:href="#DejaVuSans-35" x="224.560547"/>
       <use xlink:href="#DejaVuSans-2f" x="288.183594"/>
       <use xlink:href="#DejaVuSans-32" x="321.875"/>
       <use xlink:href="#DejaVuSans-30" x="385.498047"/>
      </g>
     </g>
    </g>
    <g id="xtick_3">
     <g id="line2d_5">
      <path d="M 212.219461 166.32 
L 212.219461 -0 
" clip-path="url(#p2ef5214a54)" style="fill: none; stroke: #ffffff; stroke-width: 0.8; stroke-linecap: square"/>
     </g>
     <g id="line2d_6">
      <g>
       <use xlink:href="#m6502f712a0" x="212.219461" y="166.32" style="fill: #555555; stroke: #555555; stroke-width: 0.8"/>
      </g>
     </g>
     <g id="text_3">
      <!-- 11/24/20 -->
      <g style="fill: #555555" transform="translate(189.763211 180.918437) scale(0.1 -0.1)">
       <defs>
        <path id="DejaVuSans-34" d="M 2419 4116 
L 825 1625 
L 2419 1625 
L 2419 4116 
z
M 2253 4666 
L 3047 4666 
L 3047 1625 
L 3713 1625 
L 3713 1100 
L 3047 1100 
L 3047 0 
L 2419 0 
L 2419 1100 
L 313 1100 
L 313 1709 
L 2253 4666 
z
" transform="scale(0.015625)"/>
       </defs>
       <use xlink:href="#DejaVuSans-31"/>
       <use xlink:href="#DejaVuSans-31" x="63.623047"/>
       <use xlink:href="#DejaVuSans-2f" x="127.246094"/>
       <use xlink:href="#DejaVuSans-32" x="160.9375"/>
       <use xlink:href="#DejaVuSans-34" x="224.560547"/>
       <use xlink:href="#DejaVuSans-2f" x="288.183594"/>
       <use xlink:href="#DejaVuSans-32" x="321.875"/>
       <use xlink:href="#DejaVuSans-30" x="385.498047"/>
      </g>
     </g>
    </g>
    <g id="xtick_4">
     <g id="line2d_7">
      <path d="M 282.119246 166.32 
L 282.119246 -0 
" clip-path="url(#p2ef5214a54)" style="fill: none; stroke: #ffffff; stroke-width: 0.8; stroke-linecap: square"/>
     </g>
     <g id="line2d_8">
      <g>
       <use xlink:href="#m6502f712a0" x="282.119246" y="166.32" style="fill: #555555; stroke: #555555; stroke-width: 0.8"/>
      </g>
     </g>
     <g id="text_4">
      <!-- 01/13/21 -->
      <g style="fill: #555555" transform="translate(259.662996 180.918437) scale(0.1 -0.1)">
       <defs>
        <path id="DejaVuSans-33" d="M 2597 2516 
Q 3050 2419 3304 2112 
Q 3559 1806 3559 1356 
Q 3559 666 3084 287 
Q 2609 -91 1734 -91 
Q 1441 -91 1130 -33 
Q 819 25 488 141 
L 488 750 
Q 750 597 1062 519 
Q 1375 441 1716 441 
Q 2309 441 2620 675 
Q 2931 909 2931 1356 
Q 2931 1769 2642 2001 
Q 2353 2234 1838 2234 
L 1294 2234 
L 1294 2753 
L 1863 2753 
Q 2328 2753 2575 2939 
Q 2822 3125 2822 3475 
Q 2822 3834 2567 4026 
Q 2313 4219 1838 4219 
Q 1578 4219 1281 4162 
Q 984 4106 628 3988 
L 628 4550 
Q 988 4650 1302 4700 
Q 1616 4750 1894 4750 
Q 2613 4750 3031 4423 
Q 3450 4097 3450 3541 
Q 3450 3153 3228 2886 
Q 3006 2619 2597 2516 
z
" transform="scale(0.015625)"/>
       </defs>
       <use xlink:href="#DejaVuSans-30"/>
       <use xlink:href="#DejaVuSans-31" x="63.623047"/>
       <use xlink:href="#DejaVuSans-2f" x="127.246094"/>
       <use xlink:href="#DejaVuSans-31" x="160.9375"/>
       <use xlink:href="#DejaVuSans-33" x="224.560547"/>
       <use xlink:href="#DejaVuSans-2f" x="288.183594"/>
       <use xlink:href="#DejaVuSans-32" x="321.875"/>
       <use xlink:href="#DejaVuSans-31" x="385.498047"/>
      </g>
     </g>
    </g>
    <g id="xtick_5">
     <g id="line2d_9">
      <path d="M 352.019031 166.32 
L 352.019031 -0 
" clip-path="url(#p2ef5214a54)" style="fill: none; stroke: #ffffff; stroke-width: 0.8; stroke-linecap: square"/>
     </g>
     <g id="line2d_10">
      <g>
       <use xlink:href="#m6502f712a0" x="352.019031" y="166.32" style="fill: #555555; stroke: #555555; stroke-width: 0.8"/>
      </g>
     </g>
     <g id="text_5">
      <!-- 03/04/21 -->
      <g style="fill: #555555" transform="translate(329.562781 180.918437) scale(0.1 -0.1)">
       <use xlink:href="#DejaVuSans-30"/>
       <use xlink:href="#DejaVuSans-33" x="63.623047"/>
       <use xlink:href="#DejaVuSans-2f" x="127.246094"/>
       <use xlink:href="#DejaVuSans-30" x="160.9375"/>
       <use xlink:href="#DejaVuSans-34" x="224.560547"/>
       <use xlink:href="#DejaVuSans-2f" x="288.183594"/>
       <use xlink:href="#DejaVuSans-32" x="321.875"/>
       <use xlink:href="#DejaVuSans-31" x="385.498047"/>
      </g>
     </g>
    </g>
    <g id="xtick_6">
     <g id="line2d_11">
      <path d="M 421.918817 166.32 
L 421.918817 -0 
" clip-path="url(#p2ef5214a54)" style="fill: none; stroke: #ffffff; stroke-width: 0.8; stroke-linecap: square"/>
     </g>
     <g id="line2d_12">
      <g>
       <use xlink:href="#m6502f712a0" x="421.918817" y="166.32" style="fill: #555555; stroke: #555555; stroke-width: 0.8"/>
      </g>
     </g>
     <g id="text_6">
      <!-- 04/23/21 -->
      <g style="fill: #555555" transform="translate(399.462567 180.918437) scale(0.1 -0.1)">
       <use xlink:href="#DejaVuSans-30"/>
       <use xlink:href="#DejaVuSans-34" x="63.623047"/>
       <use xlink:href="#DejaVuSans-2f" x="127.246094"/>
       <use xlink:href="#DejaVuSans-32" x="160.9375"/>
       <use xlink:href="#DejaVuSans-33" x="224.560547"/>
       <use xlink:href="#DejaVuSans-2f" x="288.183594"/>
       <use xlink:href="#DejaVuSans-32" x="321.875"/>
       <use xlink:href="#DejaVuSans-31" x="385.498047"/>
      </g>
     </g>
    </g>
    <g id="text_7">
     <!-- Date -->
     <g style="fill: #555555" transform="translate(225.838438 196.11625) scale(0.12 -0.12)">
      <defs>
       <path id="DejaVuSans-44" d="M 1259 4147 
L 1259 519 
L 2022 519 
Q 2988 519 3436 956 
Q 3884 1394 3884 2338 
Q 3884 3275 3436 3711 
Q 2988 4147 2022 4147 
L 1259 4147 
z
M 628 4666 
L 1925 4666 
Q 3281 4666 3915 4102 
Q 4550 3538 4550 2338 
Q 4550 1131 3912 565 
Q 3275 0 1925 0 
L 628 0 
L 628 4666 
z
" transform="scale(0.015625)"/>
       <path id="DejaVuSans-61" d="M 2194 1759 
Q 1497 1759 1228 1600 
Q 959 1441 959 1056 
Q 959 750 1161 570 
Q 1363 391 1709 391 
Q 2188 391 2477 730 
Q 2766 1069 2766 1631 
L 2766 1759 
L 2194 1759 
z
M 3341 1997 
L 3341 0 
L 2766 0 
L 2766 531 
Q 2569 213 2275 61 
Q 1981 -91 1556 -91 
Q 1019 -91 701 211 
Q 384 513 384 1019 
Q 384 1609 779 1909 
Q 1175 2209 1959 2209 
L 2766 2209 
L 2766 2266 
Q 2766 2663 2505 2880 
Q 2244 3097 1772 3097 
Q 1472 3097 1187 3025 
Q 903 2953 641 2809 
L 641 3341 
Q 956 3463 1253 3523 
Q 1550 3584 1831 3584 
Q 2591 3584 2966 3190 
Q 3341 2797 3341 1997 
z
" transform="scale(0.015625)"/>
       <path id="DejaVuSans-74" d="M 1172 4494 
L 1172 3500 
L 2356 3500 
L 2356 3053 
L 1172 3053 
L 1172 1153 
Q 1172 725 1289 603 
Q 1406 481 1766 481 
L 2356 481 
L 2356 0 
L 1766 0 
Q 1100 0 847 248 
Q 594 497 594 1153 
L 594 3053 
L 172 3053 
L 172 3500 
L 594 3500 
L 594 4494 
L 1172 4494 
z
" transform="scale(0.015625)"/>
       <path id="DejaVuSans-65" d="M 3597 1894 
L 3597 1613 
L 953 1613 
Q 991 1019 1311 708 
Q 1631 397 2203 397 
Q 2534 397 2845 478 
Q 3156 559 3463 722 
L 3463 178 
Q 3153 47 2828 -22 
Q 2503 -91 2169 -91 
Q 1331 -91 842 396 
Q 353 884 353 1716 
Q 353 2575 817 3079 
Q 1281 3584 2069 3584 
Q 2775 3584 3186 3129 
Q 3597 2675 3597 1894 
z
M 3022 2063 
Q 3016 2534 2758 2815 
Q 2500 3097 2075 3097 
Q 1594 3097 1305 2825 
Q 1016 2553 972 2059 
L 3022 2063 
z
" transform="scale(0.015625)"/>
      </defs>
      <use xlink:href="#DejaVuSans-44"/>
      <use xlink:href="#DejaVuSans-61" x="77.001953"/>
      <use xlink:href="#DejaVuSans-74" x="138.28125"/>
      <use xlink:href="#DejaVuSans-65" x="177.490234"/>
     </g>
    </g>
   </g>
   <g id="matplotlib.axis_2">
    <g id="ytick_1">
     <g id="line2d_13">
      <path d="M 44.879375 138.561075 
L 435.479375 138.561075 
" clip-path="url(#p2ef5214a54)" style="fill: none; stroke: #ffffff; stroke-width: 0.8; stroke-linecap: square"/>
     </g>
     <g id="line2d_14">
      <defs>
       <path id="m1cb4febd36" d="M 0 0 
L -3.5 0 
" style="stroke: #555555; stroke-width: 0.8"/>
      </defs>
      <g>
       <use xlink:href="#m1cb4febd36" x="44.879375" y="138.561075" style="fill: #555555; stroke: #555555; stroke-width: 0.8"/>
      </g>
     </g>
     <g id="text_8">
      <!-- 0.05 -->
      <g style="fill: #555555" transform="translate(15.61375 142.360293) scale(0.1 -0.1)">
       <defs>
        <path id="DejaVuSans-2e" d="M 684 794 
L 1344 794 
L 1344 0 
L 684 0 
L 684 794 
z
" transform="scale(0.015625)"/>
       </defs>
       <use xlink:href="#DejaVuSans-30"/>
       <use xlink:href="#DejaVuSans-2e" x="63.623047"/>
       <use xlink:href="#DejaVuSans-30" x="95.410156"/>
       <use xlink:href="#DejaVuSans-35" x="159.033203"/>
      </g>
     </g>
    </g>
    <g id="ytick_2">
     <g id="line2d_15">
      <path d="M 44.879375 105.22028 
L 435.479375 105.22028 
" clip-path="url(#p2ef5214a54)" style="fill: none; stroke: #ffffff; stroke-width: 0.8; stroke-linecap: square"/>
     </g>
     <g id="line2d_16">
      <g>
       <use xlink:href="#m1cb4febd36" x="44.879375" y="105.22028" style="fill: #555555; stroke: #555555; stroke-width: 0.8"/>
      </g>
     </g>
     <g id="text_9">
      <!-- 0.10 -->
      <g style="fill: #555555" transform="translate(15.61375 109.019499) scale(0.1 -0.1)">
       <use xlink:href="#DejaVuSans-30"/>
       <use xlink:href="#DejaVuSans-2e" x="63.623047"/>
       <use xlink:href="#DejaVuSans-31" x="95.410156"/>
       <use xlink:href="#DejaVuSans-30" x="159.033203"/>
      </g>
     </g>
    </g>
    <g id="ytick_3">
     <g id="line2d_17">
      <path d="M 44.879375 71.879485 
L 435.479375 71.879485 
" clip-path="url(#p2ef5214a54)" style="fill: none; stroke: #ffffff; stroke-width: 0.8; stroke-linecap: square"/>
     </g>
     <g id="line2d_18">
      <g>
       <use xlink:href="#m1cb4febd36" x="44.879375" y="71.879485" style="fill: #555555; stroke: #555555; stroke-width: 0.8"/>
      </g>
     </g>
     <g id="text_10">
      <!-- 0.15 -->
      <g style="fill: #555555" transform="translate(15.61375 75.678704) scale(0.1 -0.1)">
       <use xlink:href="#DejaVuSans-30"/>
       <use xlink:href="#DejaVuSans-2e" x="63.623047"/>
       <use xlink:href="#DejaVuSans-31" x="95.410156"/>
       <use xlink:href="#DejaVuSans-35" x="159.033203"/>
      </g>
     </g>
    </g>
    <g id="ytick_4">
     <g id="line2d_19">
      <path d="M 44.879375 38.53869 
L 435.479375 38.53869 
" clip-path="url(#p2ef5214a54)" style="fill: none; stroke: #ffffff; stroke-width: 0.8; stroke-linecap: square"/>
     </g>
     <g id="line2d_20">
      <g>
       <use xlink:href="#m1cb4febd36" x="44.879375" y="38.53869" style="fill: #555555; stroke: #555555; stroke-width: 0.8"/>
      </g>
     </g>
     <g id="text_11">
      <!-- 0.20 -->
      <g style="fill: #555555" transform="translate(15.61375 42.337909) scale(0.1 -0.1)">
       <use xlink:href="#DejaVuSans-30"/>
       <use xlink:href="#DejaVuSans-2e" x="63.623047"/>
       <use xlink:href="#DejaVuSans-32" x="95.410156"/>
       <use xlink:href="#DejaVuSans-30" x="159.033203"/>
      </g>
     </g>
    </g>
    <g id="ytick_5">
     <g id="line2d_21">
      <path d="M 44.879375 5.197896 
L 435.479375 5.197896 
" clip-path="url(#p2ef5214a54)" style="fill: none; stroke: #ffffff; stroke-width: 0.8; stroke-linecap: square"/>
     </g>
     <g id="line2d_22">
      <g>
       <use xlink:href="#m1cb4febd36" x="44.879375" y="5.197896" style="fill: #555555; stroke: #555555; stroke-width: 0.8"/>
      </g>
     </g>
     <g id="text_12">
      <!-- 0.25 -->
      <g style="fill: #555555" transform="translate(15.61375 8.997115) scale(0.1 -0.1)">
       <use xlink:href="#DejaVuSans-30"/>
       <use xlink:href="#DejaVuSans-2e" x="63.623047"/>
       <use xlink:href="#DejaVuSans-32" x="95.410156"/>
       <use xlink:href="#DejaVuSans-35" x="159.033203"/>
      </g>
     </g>
    </g>
    <g id="text_13">
     <!-- Value -->
     <g style="fill: #555555" transform="translate(9.118125 99.6375) rotate(-90) scale(0.12 -0.12)">
      <defs>
       <path id="DejaVuSans-56" d="M 1831 0 
L 50 4666 
L 709 4666 
L 2188 738 
L 3669 4666 
L 4325 4666 
L 2547 0 
L 1831 0 
z
" transform="scale(0.015625)"/>
       <path id="DejaVuSans-6c" d="M 603 4863 
L 1178 4863 
L 1178 0 
L 603 0 
L 603 4863 
z
" transform="scale(0.015625)"/>
       <path id="DejaVuSans-75" d="M 544 1381 
L 544 3500 
L 1119 3500 
L 1119 1403 
Q 1119 906 1312 657 
Q 1506 409 1894 409 
Q 2359 409 2629 706 
Q 2900 1003 2900 1516 
L 2900 3500 
L 3475 3500 
L 3475 0 
L 2900 0 
L 2900 538 
Q 2691 219 2414 64 
Q 2138 -91 1772 -91 
Q 1169 -91 856 284 
Q 544 659 544 1381 
z
M 1991 3584 
L 1991 3584 
z
" transform="scale(0.015625)"/>
      </defs>
      <use xlink:href="#DejaVuSans-56"/>
      <use xlink:href="#DejaVuSans-61" x="60.658203"/>
      <use xlink:href="#DejaVuSans-6c" x="121.9375"/>
      <use xlink:href="#DejaVuSans-75" x="149.720703"/>
      <use xlink:href="#DejaVuSans-65" x="213.099609"/>
     </g>
    </g>
   </g>
   <g id="PolyCollection_1">
    <defs>
     <path id="m6a6963d249" d="M 62.63392 -40.928194 
L 62.63392 -44.725213 
L 64.031916 -46.403176 
L 65.429912 -46.316743 
L 66.827908 -44.728559 
L 68.225903 -45.859101 
L 69.623899 -47.695178 
L 71.021895 -50.097209 
L 72.41989 -49.859131 
L 73.817886 -51.664012 
L 75.215882 -51.324467 
L 76.613878 -51.107288 
L 78.011873 -50.996489 
L 79.409869 -50.910853 
L 80.807865 -51.481917 
L 82.20586 -51.521567 
L 83.603856 -51.59178 
L 85.001852 -55.464054 
L 86.399847 -59.455392 
L 87.797843 -60.00761 
L 89.195839 -59.846611 
L 90.593835 -60.496374 
L 91.99183 -61.235702 
L 93.389826 -62.198777 
L 94.787822 -60.487245 
L 96.185817 -60.85406 
L 97.583813 -61.657215 
L 98.981809 -62.557055 
L 100.379804 -62.531114 
L 101.7778 -62.857616 
L 103.175796 -63.307326 
L 104.573792 -63.801147 
L 105.971787 -63.732879 
L 107.369783 -63.609242 
L 108.767779 -71.878984 
L 110.165774 -77.004133 
L 111.56377 -68.585949 
L 112.961766 -76.343637 
L 114.359762 -84.662095 
L 115.757757 -84.607134 
L 117.155753 -85.8183 
L 118.553749 -83.703658 
L 119.951744 -83.157573 
L 121.34974 -82.366746 
L 122.747736 -83.555363 
L 124.145731 -83.741992 
L 125.543727 -76.298169 
L 126.941723 -75.836655 
L 128.339719 -75.505509 
L 129.737714 -73.328048 
L 131.13571 -69.599113 
L 132.533706 -74.084995 
L 133.931701 -75.455061 
L 135.329697 -81.80167 
L 136.727693 -85.509894 
L 138.125689 -87.52627 
L 139.523684 -92.522333 
L 140.92168 -93.026248 
L 142.319676 -89.295147 
L 143.717671 -90.010612 
L 145.115667 -91.815934 
L 146.513663 -93.371639 
L 147.911658 -93.645456 
L 149.309654 -100.282447 
L 150.70765 -94.863494 
L 152.105646 -94.746483 
L 153.503641 -96.54607 
L 154.901637 -96.513125 
L 156.299633 -100.332507 
L 157.697628 -104.412544 
L 159.095624 -102.089163 
L 160.49362 -101.499986 
L 161.891616 -102.587219 
L 163.289611 -101.132564 
L 164.687607 -107.089315 
L 166.085603 -104.440327 
L 167.483598 -102.012935 
L 168.881594 -102.700927 
L 170.27959 -103.628247 
L 171.677585 -104.902752 
L 173.075581 -104.112504 
L 174.473577 -104.155486 
L 175.871573 -111.779095 
L 177.269568 -111.152939 
L 178.667564 -114.599871 
L 180.06556 -112.312834 
L 181.463555 -114.694359 
L 182.861551 -114.286203 
L 184.259547 -114.321908 
L 185.657543 -124.903718 
L 187.055538 -123.43595 
L 188.453534 -124.204134 
L 189.85153 -122.597498 
L 191.249525 -124.284239 
L 192.647521 -134.673091 
L 194.045517 -142.36477 
L 195.443512 -142.222341 
L 196.841508 -147.617321 
L 198.239504 -149.156787 
L 199.6375 -135.225067 
L 201.035495 -141.24856 
L 202.433491 -141.560334 
L 203.831487 -138.943094 
L 205.229482 -139.200397 
L 206.627478 -140.052829 
L 208.025474 -138.645104 
L 209.423469 -139.466894 
L 210.821465 -136.675917 
L 212.219461 -136.025446 
L 213.617457 -132.198486 
L 215.015452 -124.044824 
L 216.413448 -129.957871 
L 217.811444 -131.83799 
L 219.209439 -133.782178 
L 220.607435 -131.053063 
L 222.005431 -131.063944 
L 223.403427 -124.066695 
L 224.801422 -123.276261 
L 226.199418 -129.691866 
L 227.597414 -128.082039 
L 228.995409 -129.766401 
L 230.393405 -128.760088 
L 231.791401 -119.601643 
L 233.189396 -128.548996 
L 234.587392 -119.631664 
L 235.985388 -115.052566 
L 237.383384 -112.76203 
L 238.781379 -111.442618 
L 240.179375 -106.908321 
L 241.577371 -104.483804 
L 242.975366 -99.363073 
L 244.373362 -96.495061 
L 245.771358 -94.955438 
L 247.169354 -92.249826 
L 248.567349 -96.317593 
L 249.965345 -89.450264 
L 251.363341 -88.342356 
L 252.761336 -84.954873 
L 254.159332 -76.059285 
L 255.557328 -74.993967 
L 256.955323 -74.81205 
L 258.353319 -74.541094 
L 259.751315 -74.870376 
L 261.149311 -74.753727 
L 262.547306 -74.428597 
L 263.945302 -70.125792 
L 265.343298 -69.6185 
L 266.741293 -70.631502 
L 268.139289 -71.58371 
L 269.537285 -71.608719 
L 270.935281 -69.622767 
L 272.333276 -70.534381 
L 273.731272 -71.217725 
L 275.129268 -70.687213 
L 276.527263 -66.563564 
L 277.925259 -67.135345 
L 279.323255 -71.023383 
L 280.72125 -66.703684 
L 282.119246 -61.322221 
L 283.517242 -66.775578 
L 284.915238 -67.698211 
L 286.313233 -68.407284 
L 287.711229 -61.073209 
L 289.109225 -61.709552 
L 290.50722 -62.242907 
L 291.905216 -62.161244 
L 293.303212 -61.603817 
L 294.701207 -61.898466 
L 296.099203 -62.037513 
L 297.497199 -66.768676 
L 298.895195 -62.067839 
L 300.29319 -61.842161 
L 301.691186 -60.309269 
L 303.089182 -59.845684 
L 304.487177 -61.337042 
L 305.885173 -59.450011 
L 307.283169 -60.136433 
L 308.681165 -59.795703 
L 310.07916 -59.572179 
L 311.477156 -59.354266 
L 312.875152 -59.875516 
L 314.273147 -59.333081 
L 315.671143 -63.237764 
L 317.069139 -62.935858 
L 318.467134 -63.466014 
L 319.86513 -58.895851 
L 321.263126 -58.324511 
L 322.661122 -61.701651 
L 324.059117 -61.266888 
L 325.457113 -60.850239 
L 326.855109 -60.618049 
L 328.253104 -61.997206 
L 329.6511 -60.959157 
L 331.049096 -58.388832 
L 332.447092 -58.666422 
L 333.845087 -61.087741 
L 335.243083 -60.863377 
L 336.641079 -61.291451 
L 338.039074 -57.367576 
L 339.43707 -57.951191 
L 340.835066 -57.754034 
L 342.233061 -58.654495 
L 343.631057 -58.95122 
L 345.029053 -59.349629 
L 346.427049 -58.372239 
L 347.825044 -58.705857 
L 349.22304 -59.108718 
L 350.621036 -59.013855 
L 352.019031 -60.425101 
L 353.417027 -64.445035 
L 354.815023 -65.836778 
L 356.213019 -64.96812 
L 357.611014 -65.863633 
L 359.00901 -65.613045 
L 360.407006 -67.82599 
L 361.805001 -74.846988 
L 363.202997 -80.110018 
L 364.600993 -81.718705 
L 365.998988 -82.949072 
L 367.396984 -85.46103 
L 368.79498 -86.384542 
L 370.192976 -89.521857 
L 371.590971 -91.365903 
L 372.988967 -98.400741 
L 374.386963 -101.475847 
L 375.784958 -101.633626 
L 377.182954 -104.011993 
L 378.58095 -106.909076 
L 379.978946 -109.063934 
L 381.376941 -120.967827 
L 382.774937 -127.299797 
L 384.172933 -142.574722 
L 385.570928 -136.909035 
L 386.968924 -151.071469 
L 388.36692 -156.78658 
L 389.764915 -157.307249 
L 391.162911 -157.897101 
L 392.560907 -159.163715 
L 393.958903 -167.288297 
L 395.356898 -161.306761 
L 396.754894 -170.313376 
L 398.15289 -169.861907 
L 399.550885 -178.96945 
L 400.948881 -179.472229 
L 402.346877 -178.397247 
L 403.744872 -179.641519 
L 405.142868 -185.621032 
L 406.540864 -191.051875 
L 407.93886 -186.525434 
L 409.336855 -186.763715 
L 410.734851 -187.671764 
L 412.132847 -190.334812 
L 413.530842 -185.589417 
L 414.928838 -159.602002 
L 416.326834 -171.877112 
L 417.72483 -172.319832 
L 417.72483 -159.079212 
L 417.72483 -159.079212 
L 416.326834 -160.264677 
L 414.928838 -146.439143 
L 413.530842 -172.651304 
L 412.132847 -175.698197 
L 410.734851 -174.981968 
L 409.336855 -172.08194 
L 407.93886 -172.775112 
L 406.540864 -176.242565 
L 405.142868 -173.592766 
L 403.744872 -166.611359 
L 402.346877 -165.361434 
L 400.948881 -165.836357 
L 399.550885 -164.906426 
L 398.15289 -156.420779 
L 396.754894 -156.688013 
L 395.356898 -148.565586 
L 393.958903 -153.975756 
L 392.560907 -146.533394 
L 391.162911 -145.581526 
L 389.764915 -144.146507 
L 388.36692 -142.520456 
L 386.968924 -139.003304 
L 385.570928 -126.149617 
L 384.172933 -130.851873 
L 382.774937 -117.13024 
L 381.376941 -109.200494 
L 379.978946 -98.51449 
L 378.58095 -97.059599 
L 377.182954 -95.295146 
L 375.784958 -92.694919 
L 374.386963 -92.131239 
L 372.988967 -90.715761 
L 371.590971 -81.85691 
L 370.192976 -80.958015 
L 368.79498 -78.385261 
L 367.396984 -76.610424 
L 365.998988 -74.207505 
L 364.600993 -73.487993 
L 363.202997 -72.775917 
L 361.805001 -67.338965 
L 360.407006 -60.968169 
L 359.00901 -59.854141 
L 357.611014 -59.638756 
L 356.213019 -59.261953 
L 354.815023 -59.640973 
L 353.417027 -58.242319 
L 352.019031 -55.817045 
L 350.621036 -53.840982 
L 349.22304 -53.80969 
L 347.825044 -53.494205 
L 346.427049 -52.198551 
L 345.029053 -54.147305 
L 343.631057 -52.583677 
L 342.233061 -53.136496 
L 340.835066 -52.057724 
L 339.43707 -51.934819 
L 338.039074 -52.164739 
L 336.641079 -54.952523 
L 335.243083 -54.48296 
L 333.845087 -54.745655 
L 332.447092 -52.809489 
L 331.049096 -52.588188 
L 329.6511 -55.128892 
L 328.253104 -55.344465 
L 326.855109 -54.92486 
L 325.457113 -54.140606 
L 324.059117 -54.665838 
L 322.661122 -55.198229 
L 321.263126 -52.817055 
L 319.86513 -53.291067 
L 318.467134 -56.931438 
L 317.069139 -56.434132 
L 315.671143 -57.200573 
L 314.273147 -53.80096 
L 312.875152 -53.594022 
L 311.477156 -53.66075 
L 310.07916 -53.887233 
L 308.681165 -53.88856 
L 307.283169 -53.89962 
L 305.885173 -53.480107 
L 304.487177 -55.146473 
L 303.089182 -53.75576 
L 301.691186 -55.35449 
L 300.29319 -56.121939 
L 298.895195 -55.669242 
L 297.497199 -59.201314 
L 296.099203 -56.44521 
L 294.701207 -56.099591 
L 293.303212 -56.218328 
L 291.905216 -55.643639 
L 290.50722 -56.451679 
L 289.109225 -55.863293 
L 287.711229 -55.349294 
L 286.313233 -59.953115 
L 284.915238 -60.744866 
L 283.517242 -59.8464 
L 282.119246 -56.35349 
L 280.72125 -59.239802 
L 279.323255 -63.834623 
L 277.925259 -59.076631 
L 276.527263 -59.045924 
L 275.129268 -63.352837 
L 273.731272 -63.765285 
L 272.333276 -63.049663 
L 270.935281 -63.669853 
L 269.537285 -64.554374 
L 268.139289 -64.597359 
L 266.741293 -62.895313 
L 265.343298 -62.773002 
L 263.945302 -63.434773 
L 262.547306 -66.69539 
L 261.149311 -67.571188 
L 259.751315 -67.998061 
L 258.353319 -68.741776 
L 256.955323 -68.642248 
L 255.557328 -68.369235 
L 254.159332 -68.432225 
L 252.761336 -76.560982 
L 251.363341 -79.74778 
L 249.965345 -81.419754 
L 248.567349 -86.861602 
L 247.169354 -82.831913 
L 245.771358 -85.951017 
L 244.373362 -86.877452 
L 242.975366 -89.271376 
L 241.577371 -92.953722 
L 240.179375 -95.796042 
L 238.781379 -101.355985 
L 237.383384 -102.591822 
L 235.985388 -102.399509 
L 234.587392 -109.382387 
L 233.189396 -116.575867 
L 231.791401 -109.929541 
L 230.393405 -116.545028 
L 228.995409 -117.20211 
L 227.597414 -117.514965 
L 226.199418 -117.659942 
L 224.801422 -112.310816 
L 223.403427 -112.491454 
L 222.005431 -118.778818 
L 220.607435 -119.363443 
L 219.209439 -122.100483 
L 217.811444 -120.091371 
L 216.413448 -119.653168 
L 215.015452 -111.604173 
L 213.617457 -120.535614 
L 212.219461 -123.733066 
L 210.821465 -125.268181 
L 209.423469 -126.59253 
L 208.025474 -125.078601 
L 206.627478 -127.333952 
L 205.229482 -126.650236 
L 203.831487 -126.719647 
L 202.433491 -129.417486 
L 201.035495 -128.490265 
L 199.6375 -124.03283 
L 198.239504 -134.565582 
L 196.841508 -135.294954 
L 195.443512 -129.321982 
L 194.045517 -128.46855 
L 192.647521 -123.623326 
L 191.249525 -113.085184 
L 189.85153 -109.989156 
L 188.453534 -113.843658 
L 187.055538 -111.547528 
L 185.657543 -112.600463 
L 184.259547 -100.937523 
L 182.861551 -102.96956 
L 181.463555 -102.834482 
L 180.06556 -99.461546 
L 178.667564 -102.895047 
L 177.269568 -98.638346 
L 175.871573 -98.794329 
L 174.473577 -93.389421 
L 173.075581 -91.958418 
L 171.677585 -92.615709 
L 170.27959 -92.502724 
L 168.881594 -90.882664 
L 167.483598 -90.608194 
L 166.085603 -92.210425 
L 164.687607 -95.393547 
L 163.289611 -91.372538 
L 161.891616 -91.003566 
L 160.49362 -90.000219 
L 159.095624 -90.624874 
L 157.697628 -93.522668 
L 156.299633 -90.750205 
L 154.901637 -85.411949 
L 153.503641 -86.845891 
L 152.105646 -84.51864 
L 150.70765 -85.981936 
L 149.309654 -90.624279 
L 147.911658 -84.770049 
L 146.513663 -84.126261 
L 145.115667 -82.942195 
L 143.717671 -81.908464 
L 142.319676 -81.640515 
L 140.92168 -84.73895 
L 139.523684 -85.176905 
L 138.125689 -78.35965 
L 136.727693 -77.841493 
L 135.329697 -73.391044 
L 133.931701 -68.301299 
L 132.533706 -66.745012 
L 131.13571 -63.351763 
L 129.737714 -67.055565 
L 128.339719 -68.344868 
L 126.941723 -69.525601 
L 125.543727 -68.687824 
L 124.145731 -77.138147 
L 122.747736 -75.71638 
L 121.34974 -73.748782 
L 119.951744 -75.773204 
L 118.553749 -76.66212 
L 117.155753 -77.541085 
L 115.757757 -76.867589 
L 114.359762 -76.928042 
L 112.961766 -69.947767 
L 111.56377 -63.269745 
L 110.165774 -69.416625 
L 108.767779 -64.965191 
L 107.369783 -57.132196 
L 105.971787 -57.410048 
L 104.573792 -57.957267 
L 103.175796 -57.258071 
L 101.7778 -56.712042 
L 100.379804 -56.024264 
L 98.981809 -56.961473 
L 97.583813 -55.792811 
L 96.185817 -54.888649 
L 94.787822 -54.292644 
L 93.389826 -55.65514 
L 91.99183 -55.799199 
L 90.593835 -54.675777 
L 89.195839 -53.954971 
L 87.797843 -54.300434 
L 86.399847 -53.916819 
L 85.001852 -50.530286 
L 83.603856 -47.308936 
L 82.20586 -47.071828 
L 80.807865 -46.995531 
L 79.409869 -46.35694 
L 78.011873 -46.7598 
L 76.613878 -46.859508 
L 75.215882 -46.854189 
L 73.817886 -47.271238 
L 72.41989 -45.436792 
L 71.021895 -46.011744 
L 69.623899 -43.456879 
L 68.225903 -41.978422 
L 66.827908 -41.141691 
L 65.429912 -42.327916 
L 64.031916 -42.449178 
L 62.63392 -40.928194 
z
" style="stroke: #0db14b; stroke-opacity: 0.5; stroke-width: 0.5"/>
    </defs>
    <g clip-path="url(#p2ef5214a54)">
     <use xlink:href="#m6a6963d249" x="0" y="198.611875" style="fill: #0db14b; fill-opacity: 0.5; stroke: #0db14b; stroke-opacity: 0.5; stroke-width: 0.5"/>
    </g>
   </g>
   <g id="line2d_23">
    <path d="M 62.63392 155.785172 
L 64.031916 154.185698 
L 65.429912 154.289545 
L 66.827908 155.67675 
L 68.225903 154.693113 
L 69.623899 153.035846 
L 71.021895 150.557399 
L 72.41989 150.963913 
L 73.817886 149.14425 
L 75.215882 149.522547 
L 78.011873 149.73373 
L 79.409869 149.977978 
L 80.807865 149.373151 
L 83.603856 149.161517 
L 86.399847 141.92577 
L 87.797843 141.457853 
L 89.195839 141.711084 
L 90.593835 141.0258 
L 91.99183 140.094425 
L 93.389826 139.684916 
L 94.787822 141.221931 
L 96.185817 140.740521 
L 97.583813 139.886862 
L 98.981809 138.852611 
L 100.379804 139.334186 
L 104.573792 137.732668 
L 107.369783 138.241156 
L 108.767779 130.189787 
L 110.165774 125.401496 
L 111.56377 132.684028 
L 114.359762 117.816806 
L 115.757757 117.874514 
L 117.155753 116.932182 
L 118.553749 118.428986 
L 119.951744 119.146486 
L 121.34974 120.554111 
L 122.747736 118.976004 
L 124.145731 118.171805 
L 125.543727 126.118878 
L 126.941723 125.930747 
L 128.339719 126.686687 
L 129.737714 128.420069 
L 131.13571 132.136437 
L 132.533706 128.196871 
L 133.931701 126.733695 
L 135.329697 121.015518 
L 136.727693 116.936182 
L 138.125689 115.668915 
L 139.523684 109.762256 
L 140.92168 109.729276 
L 142.319676 113.144044 
L 143.717671 112.652337 
L 146.513663 109.862925 
L 147.911658 109.404122 
L 149.309654 103.158512 
L 150.70765 108.18916 
L 152.105646 108.979314 
L 153.503641 106.915894 
L 154.901637 107.649338 
L 156.299633 103.070519 
L 157.697628 99.644269 
L 159.095624 102.254857 
L 160.49362 102.861772 
L 161.891616 101.816483 
L 163.289611 102.359324 
L 164.687607 97.370444 
L 166.085603 100.286499 
L 167.483598 102.30131 
L 168.881594 101.82008 
L 170.27959 100.54639 
L 171.677585 99.852644 
L 173.075581 100.576414 
L 174.473577 99.839421 
L 175.871573 93.325163 
L 177.269568 93.716232 
L 178.667564 89.864416 
L 180.06556 92.724685 
L 181.463555 89.847455 
L 182.861551 89.983994 
L 184.259547 90.982159 
L 185.657543 79.859784 
L 187.055538 81.120136 
L 188.453534 79.587979 
L 189.85153 82.318548 
L 191.249525 79.927163 
L 192.647521 69.463667 
L 194.045517 63.195215 
L 195.443512 62.839714 
L 196.841508 57.155737 
L 198.239504 56.750691 
L 199.6375 68.982926 
L 201.035495 63.742463 
L 202.433491 63.122965 
L 203.831487 65.780505 
L 205.229482 65.686559 
L 206.627478 64.918485 
L 208.025474 66.750022 
L 209.423469 65.582163 
L 210.821465 67.639826 
L 212.219461 68.732619 
L 213.617457 72.244825 
L 215.015452 80.787376 
L 216.413448 73.806355 
L 217.811444 72.647195 
L 219.209439 70.670544 
L 220.607435 73.403622 
L 222.005431 73.690494 
L 223.403427 80.332801 
L 224.801422 80.818337 
L 226.199418 74.935971 
L 227.597414 75.813373 
L 228.995409 75.127619 
L 230.393405 75.959317 
L 231.791401 83.846283 
L 233.189396 76.049443 
L 234.587392 84.104849 
L 235.985388 89.885838 
L 237.383384 90.934949 
L 238.781379 92.212573 
L 240.179375 97.259694 
L 241.577371 99.893112 
L 242.975366 104.294651 
L 244.373362 106.925618 
L 245.771358 108.158648 
L 247.169354 111.071005 
L 248.567349 107.022277 
L 249.965345 113.176866 
L 251.363341 114.566807 
L 252.761336 117.853947 
L 254.159332 126.36612 
L 255.557328 126.930274 
L 256.955323 126.884726 
L 258.353319 126.97044 
L 261.149311 127.449418 
L 262.547306 128.049882 
L 263.945302 131.831593 
L 265.343298 132.416124 
L 266.741293 131.848467 
L 268.139289 130.52134 
L 269.537285 130.530328 
L 270.935281 131.965565 
L 272.333276 131.819853 
L 273.731272 131.12037 
L 275.129268 131.59185 
L 276.527263 135.807131 
L 277.925259 135.505887 
L 279.323255 131.182872 
L 282.119246 139.774019 
L 283.517242 135.300886 
L 284.915238 134.390336 
L 286.313233 134.431675 
L 287.711229 140.400623 
L 290.50722 139.264582 
L 291.905216 139.709433 
L 294.701207 139.612846 
L 296.099203 139.370513 
L 297.497199 135.62688 
L 298.895195 139.743335 
L 300.29319 139.629825 
L 303.089182 141.811153 
L 304.487177 140.370118 
L 305.885173 142.146816 
L 307.283169 141.593848 
L 311.477156 142.104367 
L 312.875152 141.877106 
L 314.273147 142.044855 
L 315.671143 138.392707 
L 317.069139 138.92688 
L 318.467134 138.413149 
L 319.86513 142.518416 
L 321.263126 143.041092 
L 322.661122 140.161935 
L 325.457113 141.116453 
L 326.855109 140.840421 
L 328.253104 139.94104 
L 329.6511 140.56785 
L 331.049096 143.123365 
L 332.447092 142.87392 
L 333.845087 140.695177 
L 335.243083 140.938706 
L 336.641079 140.489888 
L 338.039074 143.845718 
L 339.43707 143.66887 
L 340.835066 143.705996 
L 342.233061 142.716379 
L 343.631057 142.844427 
L 345.029053 141.863408 
L 346.427049 143.32648 
L 347.825044 142.511844 
L 349.22304 142.152671 
L 350.621036 142.184457 
L 352.019031 140.490802 
L 353.417027 137.268198 
L 354.815023 135.873 
L 356.213019 136.496839 
L 357.611014 135.86068 
L 359.00901 135.878282 
L 360.407006 134.214795 
L 361.805001 127.518899 
L 363.202997 122.168908 
L 364.600993 121.008526 
L 365.998988 120.033586 
L 367.396984 117.576148 
L 368.79498 116.226973 
L 370.192976 113.371939 
L 371.590971 112.000469 
L 372.988967 104.053624 
L 374.386963 101.808332 
L 375.784958 101.447602 
L 378.58095 96.627538 
L 379.978946 94.822663 
L 381.376941 83.527715 
L 382.774937 76.396857 
L 384.172933 61.898577 
L 385.570928 67.082549 
L 386.968924 53.574488 
L 388.36692 48.958357 
L 392.560907 45.763321 
L 393.958903 37.979848 
L 395.356898 43.675702 
L 396.754894 35.111181 
L 398.15289 35.470532 
L 399.550885 26.673937 
L 400.948881 25.957582 
L 402.346877 26.732534 
L 403.744872 25.485436 
L 405.142868 19.004976 
L 406.540864 14.964655 
L 407.93886 18.961602 
L 409.336855 19.189047 
L 410.734851 17.285009 
L 412.132847 15.595371 
L 413.530842 19.491515 
L 414.928838 45.591303 
L 416.326834 32.540981 
L 417.72483 32.912353 
L 417.72483 32.912353 
" clip-path="url(#p2ef5214a54)" style="fill: none; stroke: #0db14b; stroke-width: 3; stroke-linecap: square"/>
    <defs>
     <path id="m7fa27a64f1" d="M 0 1.5 
C 0.397805 1.5 0.77937 1.341951 1.06066 1.06066 
C 1.341951 0.77937 1.5 0.397805 1.5 0 
C 1.5 -0.397805 1.341951 -0.77937 1.06066 -1.06066 
C 0.77937 -1.341951 0.397805 -1.5 0 -1.5 
C -0.397805 -1.5 -0.77937 -1.341951 -1.06066 -1.06066 
C -1.341951 -0.77937 -1.5 -0.397805 -1.5 0 
C -1.5 0.397805 -1.341951 0.77937 -1.06066 1.06066 
C -0.77937 1.341951 -0.397805 1.5 0 1.5 
z
" style="stroke: #0db14b"/>
    </defs>
    <g clip-path="url(#p2ef5214a54)">
     <use xlink:href="#m7fa27a64f1" x="62.63392" y="155.785172" style="fill: #0db14b; stroke: #0db14b"/>
     <use xlink:href="#m7fa27a64f1" x="64.031916" y="154.185698" style="fill: #0db14b; stroke: #0db14b"/>
     <use xlink:href="#m7fa27a64f1" x="65.429912" y="154.289545" style="fill: #0db14b; stroke: #0db14b"/>
     <use xlink:href="#m7fa27a64f1" x="66.827908" y="155.67675" style="fill: #0db14b; stroke: #0db14b"/>
     <use xlink:href="#m7fa27a64f1" x="68.225903" y="154.693113" style="fill: #0db14b; stroke: #0db14b"/>
     <use xlink:href="#m7fa27a64f1" x="69.623899" y="153.035846" style="fill: #0db14b; stroke: #0db14b"/>
     <use xlink:href="#m7fa27a64f1" x="71.021895" y="150.557399" style="fill: #0db14b; stroke: #0db14b"/>
     <use xlink:href="#m7fa27a64f1" x="72.41989" y="150.963913" style="fill: #0db14b; stroke: #0db14b"/>
     <use xlink:href="#m7fa27a64f1" x="73.817886" y="149.14425" style="fill: #0db14b; stroke: #0db14b"/>
     <use xlink:href="#m7fa27a64f1" x="75.215882" y="149.522547" style="fill: #0db14b; stroke: #0db14b"/>
     <use xlink:href="#m7fa27a64f1" x="76.613878" y="149.628477" style="fill: #0db14b; stroke: #0db14b"/>
     <use xlink:href="#m7fa27a64f1" x="78.011873" y="149.73373" style="fill: #0db14b; stroke: #0db14b"/>
     <use xlink:href="#m7fa27a64f1" x="79.409869" y="149.977978" style="fill: #0db14b; stroke: #0db14b"/>
     <use xlink:href="#m7fa27a64f1" x="80.807865" y="149.373151" style="fill: #0db14b; stroke: #0db14b"/>
     <use xlink:href="#m7fa27a64f1" x="82.20586" y="149.315178" style="fill: #0db14b; stroke: #0db14b"/>
     <use xlink:href="#m7fa27a64f1" x="83.603856" y="149.161517" style="fill: #0db14b; stroke: #0db14b"/>
     <use xlink:href="#m7fa27a64f1" x="85.001852" y="145.614705" style="fill: #0db14b; stroke: #0db14b"/>
     <use xlink:href="#m7fa27a64f1" x="86.399847" y="141.92577" style="fill: #0db14b; stroke: #0db14b"/>
     <use xlink:href="#m7fa27a64f1" x="87.797843" y="141.457853" style="fill: #0db14b; stroke: #0db14b"/>
     <use xlink:href="#m7fa27a64f1" x="89.195839" y="141.711084" style="fill: #0db14b; stroke: #0db14b"/>
     <use xlink:href="#m7fa27a64f1" x="90.593835" y="141.0258" style="fill: #0db14b; stroke: #0db14b"/>
     <use xlink:href="#m7fa27a64f1" x="91.99183" y="140.094425" style="fill: #0db14b; stroke: #0db14b"/>
     <use xlink:href="#m7fa27a64f1" x="93.389826" y="139.684916" style="fill: #0db14b; stroke: #0db14b"/>
     <use xlink:href="#m7fa27a64f1" x="94.787822" y="141.221931" style="fill: #0db14b; stroke: #0db14b"/>
     <use xlink:href="#m7fa27a64f1" x="96.185817" y="140.740521" style="fill: #0db14b; stroke: #0db14b"/>
     <use xlink:href="#m7fa27a64f1" x="97.583813" y="139.886862" style="fill: #0db14b; stroke: #0db14b"/>
     <use xlink:href="#m7fa27a64f1" x="98.981809" y="138.852611" style="fill: #0db14b; stroke: #0db14b"/>
     <use xlink:href="#m7fa27a64f1" x="100.379804" y="139.334186" style="fill: #0db14b; stroke: #0db14b"/>
     <use xlink:href="#m7fa27a64f1" x="101.7778" y="138.827046" style="fill: #0db14b; stroke: #0db14b"/>
     <use xlink:href="#m7fa27a64f1" x="103.175796" y="138.329176" style="fill: #0db14b; stroke: #0db14b"/>
     <use xlink:href="#m7fa27a64f1" x="104.573792" y="137.732668" style="fill: #0db14b; stroke: #0db14b"/>
     <use xlink:href="#m7fa27a64f1" x="105.971787" y="138.040412" style="fill: #0db14b; stroke: #0db14b"/>
     <use xlink:href="#m7fa27a64f1" x="107.369783" y="138.241156" style="fill: #0db14b; stroke: #0db14b"/>
     <use xlink:href="#m7fa27a64f1" x="108.767779" y="130.189787" style="fill: #0db14b; stroke: #0db14b"/>
     <use xlink:href="#m7fa27a64f1" x="110.165774" y="125.401496" style="fill: #0db14b; stroke: #0db14b"/>
     <use xlink:href="#m7fa27a64f1" x="111.56377" y="132.684028" style="fill: #0db14b; stroke: #0db14b"/>
     <use xlink:href="#m7fa27a64f1" x="112.961766" y="125.466173" style="fill: #0db14b; stroke: #0db14b"/>
     <use xlink:href="#m7fa27a64f1" x="114.359762" y="117.816806" style="fill: #0db14b; stroke: #0db14b"/>
     <use xlink:href="#m7fa27a64f1" x="115.757757" y="117.874514" style="fill: #0db14b; stroke: #0db14b"/>
     <use xlink:href="#m7fa27a64f1" x="117.155753" y="116.932182" style="fill: #0db14b; stroke: #0db14b"/>
     <use xlink:href="#m7fa27a64f1" x="118.553749" y="118.428986" style="fill: #0db14b; stroke: #0db14b"/>
     <use xlink:href="#m7fa27a64f1" x="119.951744" y="119.146486" style="fill: #0db14b; stroke: #0db14b"/>
     <use xlink:href="#m7fa27a64f1" x="121.34974" y="120.554111" style="fill: #0db14b; stroke: #0db14b"/>
     <use xlink:href="#m7fa27a64f1" x="122.747736" y="118.976004" style="fill: #0db14b; stroke: #0db14b"/>
     <use xlink:href="#m7fa27a64f1" x="124.145731" y="118.171805" style="fill: #0db14b; stroke: #0db14b"/>
     <use xlink:href="#m7fa27a64f1" x="125.543727" y="126.118878" style="fill: #0db14b; stroke: #0db14b"/>
     <use xlink:href="#m7fa27a64f1" x="126.941723" y="125.930747" style="fill: #0db14b; stroke: #0db14b"/>
     <use xlink:href="#m7fa27a64f1" x="128.339719" y="126.686687" style="fill: #0db14b; stroke: #0db14b"/>
     <use xlink:href="#m7fa27a64f1" x="129.737714" y="128.420069" style="fill: #0db14b; stroke: #0db14b"/>
     <use xlink:href="#m7fa27a64f1" x="131.13571" y="132.136437" style="fill: #0db14b; stroke: #0db14b"/>
     <use xlink:href="#m7fa27a64f1" x="132.533706" y="128.196871" style="fill: #0db14b; stroke: #0db14b"/>
     <use xlink:href="#m7fa27a64f1" x="133.931701" y="126.733695" style="fill: #0db14b; stroke: #0db14b"/>
     <use xlink:href="#m7fa27a64f1" x="135.329697" y="121.015518" style="fill: #0db14b; stroke: #0db14b"/>
     <use xlink:href="#m7fa27a64f1" x="136.727693" y="116.936182" style="fill: #0db14b; stroke: #0db14b"/>
     <use xlink:href="#m7fa27a64f1" x="138.125689" y="115.668915" style="fill: #0db14b; stroke: #0db14b"/>
     <use xlink:href="#m7fa27a64f1" x="139.523684" y="109.762256" style="fill: #0db14b; stroke: #0db14b"/>
     <use xlink:href="#m7fa27a64f1" x="140.92168" y="109.729276" style="fill: #0db14b; stroke: #0db14b"/>
     <use xlink:href="#m7fa27a64f1" x="142.319676" y="113.144044" style="fill: #0db14b; stroke: #0db14b"/>
     <use xlink:href="#m7fa27a64f1" x="143.717671" y="112.652337" style="fill: #0db14b; stroke: #0db14b"/>
     <use xlink:href="#m7fa27a64f1" x="145.115667" y="111.23281" style="fill: #0db14b; stroke: #0db14b"/>
     <use xlink:href="#m7fa27a64f1" x="146.513663" y="109.862925" style="fill: #0db14b; stroke: #0db14b"/>
     <use xlink:href="#m7fa27a64f1" x="147.911658" y="109.404122" style="fill: #0db14b; stroke: #0db14b"/>
     <use xlink:href="#m7fa27a64f1" x="149.309654" y="103.158512" style="fill: #0db14b; stroke: #0db14b"/>
     <use xlink:href="#m7fa27a64f1" x="150.70765" y="108.18916" style="fill: #0db14b; stroke: #0db14b"/>
     <use xlink:href="#m7fa27a64f1" x="152.105646" y="108.979314" style="fill: #0db14b; stroke: #0db14b"/>
     <use xlink:href="#m7fa27a64f1" x="153.503641" y="106.915894" style="fill: #0db14b; stroke: #0db14b"/>
     <use xlink:href="#m7fa27a64f1" x="154.901637" y="107.649338" style="fill: #0db14b; stroke: #0db14b"/>
     <use xlink:href="#m7fa27a64f1" x="156.299633" y="103.070519" style="fill: #0db14b; stroke: #0db14b"/>
     <use xlink:href="#m7fa27a64f1" x="157.697628" y="99.644269" style="fill: #0db14b; stroke: #0db14b"/>
     <use xlink:href="#m7fa27a64f1" x="159.095624" y="102.254857" style="fill: #0db14b; stroke: #0db14b"/>
     <use xlink:href="#m7fa27a64f1" x="160.49362" y="102.861772" style="fill: #0db14b; stroke: #0db14b"/>
     <use xlink:href="#m7fa27a64f1" x="161.891616" y="101.816483" style="fill: #0db14b; stroke: #0db14b"/>
     <use xlink:href="#m7fa27a64f1" x="163.289611" y="102.359324" style="fill: #0db14b; stroke: #0db14b"/>
     <use xlink:href="#m7fa27a64f1" x="164.687607" y="97.370444" style="fill: #0db14b; stroke: #0db14b"/>
     <use xlink:href="#m7fa27a64f1" x="166.085603" y="100.286499" style="fill: #0db14b; stroke: #0db14b"/>
     <use xlink:href="#m7fa27a64f1" x="167.483598" y="102.30131" style="fill: #0db14b; stroke: #0db14b"/>
     <use xlink:href="#m7fa27a64f1" x="168.881594" y="101.82008" style="fill: #0db14b; stroke: #0db14b"/>
     <use xlink:href="#m7fa27a64f1" x="170.27959" y="100.54639" style="fill: #0db14b; stroke: #0db14b"/>
     <use xlink:href="#m7fa27a64f1" x="171.677585" y="99.852644" style="fill: #0db14b; stroke: #0db14b"/>
     <use xlink:href="#m7fa27a64f1" x="173.075581" y="100.576414" style="fill: #0db14b; stroke: #0db14b"/>
     <use xlink:href="#m7fa27a64f1" x="174.473577" y="99.839421" style="fill: #0db14b; stroke: #0db14b"/>
     <use xlink:href="#m7fa27a64f1" x="175.871573" y="93.325163" style="fill: #0db14b; stroke: #0db14b"/>
     <use xlink:href="#m7fa27a64f1" x="177.269568" y="93.716232" style="fill: #0db14b; stroke: #0db14b"/>
     <use xlink:href="#m7fa27a64f1" x="178.667564" y="89.864416" style="fill: #0db14b; stroke: #0db14b"/>
     <use xlink:href="#m7fa27a64f1" x="180.06556" y="92.724685" style="fill: #0db14b; stroke: #0db14b"/>
     <use xlink:href="#m7fa27a64f1" x="181.463555" y="89.847455" style="fill: #0db14b; stroke: #0db14b"/>
     <use xlink:href="#m7fa27a64f1" x="182.861551" y="89.983994" style="fill: #0db14b; stroke: #0db14b"/>
     <use xlink:href="#m7fa27a64f1" x="184.259547" y="90.982159" style="fill: #0db14b; stroke: #0db14b"/>
     <use xlink:href="#m7fa27a64f1" x="185.657543" y="79.859784" style="fill: #0db14b; stroke: #0db14b"/>
     <use xlink:href="#m7fa27a64f1" x="187.055538" y="81.120136" style="fill: #0db14b; stroke: #0db14b"/>
     <use xlink:href="#m7fa27a64f1" x="188.453534" y="79.587979" style="fill: #0db14b; stroke: #0db14b"/>
     <use xlink:href="#m7fa27a64f1" x="189.85153" y="82.318548" style="fill: #0db14b; stroke: #0db14b"/>
     <use xlink:href="#m7fa27a64f1" x="191.249525" y="79.927163" style="fill: #0db14b; stroke: #0db14b"/>
     <use xlink:href="#m7fa27a64f1" x="192.647521" y="69.463667" style="fill: #0db14b; stroke: #0db14b"/>
     <use xlink:href="#m7fa27a64f1" x="194.045517" y="63.195215" style="fill: #0db14b; stroke: #0db14b"/>
     <use xlink:href="#m7fa27a64f1" x="195.443512" y="62.839714" style="fill: #0db14b; stroke: #0db14b"/>
     <use xlink:href="#m7fa27a64f1" x="196.841508" y="57.155737" style="fill: #0db14b; stroke: #0db14b"/>
     <use xlink:href="#m7fa27a64f1" x="198.239504" y="56.750691" style="fill: #0db14b; stroke: #0db14b"/>
     <use xlink:href="#m7fa27a64f1" x="199.6375" y="68.982926" style="fill: #0db14b; stroke: #0db14b"/>
     <use xlink:href="#m7fa27a64f1" x="201.035495" y="63.742463" style="fill: #0db14b; stroke: #0db14b"/>
     <use xlink:href="#m7fa27a64f1" x="202.433491" y="63.122965" style="fill: #0db14b; stroke: #0db14b"/>
     <use xlink:href="#m7fa27a64f1" x="203.831487" y="65.780505" style="fill: #0db14b; stroke: #0db14b"/>
     <use xlink:href="#m7fa27a64f1" x="205.229482" y="65.686559" style="fill: #0db14b; stroke: #0db14b"/>
     <use xlink:href="#m7fa27a64f1" x="206.627478" y="64.918485" style="fill: #0db14b; stroke: #0db14b"/>
     <use xlink:href="#m7fa27a64f1" x="208.025474" y="66.750022" style="fill: #0db14b; stroke: #0db14b"/>
     <use xlink:href="#m7fa27a64f1" x="209.423469" y="65.582163" style="fill: #0db14b; stroke: #0db14b"/>
     <use xlink:href="#m7fa27a64f1" x="210.821465" y="67.639826" style="fill: #0db14b; stroke: #0db14b"/>
     <use xlink:href="#m7fa27a64f1" x="212.219461" y="68.732619" style="fill: #0db14b; stroke: #0db14b"/>
     <use xlink:href="#m7fa27a64f1" x="213.617457" y="72.244825" style="fill: #0db14b; stroke: #0db14b"/>
     <use xlink:href="#m7fa27a64f1" x="215.015452" y="80.787376" style="fill: #0db14b; stroke: #0db14b"/>
     <use xlink:href="#m7fa27a64f1" x="216.413448" y="73.806355" style="fill: #0db14b; stroke: #0db14b"/>
     <use xlink:href="#m7fa27a64f1" x="217.811444" y="72.647195" style="fill: #0db14b; stroke: #0db14b"/>
     <use xlink:href="#m7fa27a64f1" x="219.209439" y="70.670544" style="fill: #0db14b; stroke: #0db14b"/>
     <use xlink:href="#m7fa27a64f1" x="220.607435" y="73.403622" style="fill: #0db14b; stroke: #0db14b"/>
     <use xlink:href="#m7fa27a64f1" x="222.005431" y="73.690494" style="fill: #0db14b; stroke: #0db14b"/>
     <use xlink:href="#m7fa27a64f1" x="223.403427" y="80.332801" style="fill: #0db14b; stroke: #0db14b"/>
     <use xlink:href="#m7fa27a64f1" x="224.801422" y="80.818337" style="fill: #0db14b; stroke: #0db14b"/>
     <use xlink:href="#m7fa27a64f1" x="226.199418" y="74.935971" style="fill: #0db14b; stroke: #0db14b"/>
     <use xlink:href="#m7fa27a64f1" x="227.597414" y="75.813373" style="fill: #0db14b; stroke: #0db14b"/>
     <use xlink:href="#m7fa27a64f1" x="228.995409" y="75.127619" style="fill: #0db14b; stroke: #0db14b"/>
     <use xlink:href="#m7fa27a64f1" x="230.393405" y="75.959317" style="fill: #0db14b; stroke: #0db14b"/>
     <use xlink:href="#m7fa27a64f1" x="231.791401" y="83.846283" style="fill: #0db14b; stroke: #0db14b"/>
     <use xlink:href="#m7fa27a64f1" x="233.189396" y="76.049443" style="fill: #0db14b; stroke: #0db14b"/>
     <use xlink:href="#m7fa27a64f1" x="234.587392" y="84.104849" style="fill: #0db14b; stroke: #0db14b"/>
     <use xlink:href="#m7fa27a64f1" x="235.985388" y="89.885838" style="fill: #0db14b; stroke: #0db14b"/>
     <use xlink:href="#m7fa27a64f1" x="237.383384" y="90.934949" style="fill: #0db14b; stroke: #0db14b"/>
     <use xlink:href="#m7fa27a64f1" x="238.781379" y="92.212573" style="fill: #0db14b; stroke: #0db14b"/>
     <use xlink:href="#m7fa27a64f1" x="240.179375" y="97.259694" style="fill: #0db14b; stroke: #0db14b"/>
     <use xlink:href="#m7fa27a64f1" x="241.577371" y="99.893112" style="fill: #0db14b; stroke: #0db14b"/>
     <use xlink:href="#m7fa27a64f1" x="242.975366" y="104.294651" style="fill: #0db14b; stroke: #0db14b"/>
     <use xlink:href="#m7fa27a64f1" x="244.373362" y="106.925618" style="fill: #0db14b; stroke: #0db14b"/>
     <use xlink:href="#m7fa27a64f1" x="245.771358" y="108.158648" style="fill: #0db14b; stroke: #0db14b"/>
     <use xlink:href="#m7fa27a64f1" x="247.169354" y="111.071005" style="fill: #0db14b; stroke: #0db14b"/>
     <use xlink:href="#m7fa27a64f1" x="248.567349" y="107.022277" style="fill: #0db14b; stroke: #0db14b"/>
     <use xlink:href="#m7fa27a64f1" x="249.965345" y="113.176866" style="fill: #0db14b; stroke: #0db14b"/>
     <use xlink:href="#m7fa27a64f1" x="251.363341" y="114.566807" style="fill: #0db14b; stroke: #0db14b"/>
     <use xlink:href="#m7fa27a64f1" x="252.761336" y="117.853947" style="fill: #0db14b; stroke: #0db14b"/>
     <use xlink:href="#m7fa27a64f1" x="254.159332" y="126.36612" style="fill: #0db14b; stroke: #0db14b"/>
     <use xlink:href="#m7fa27a64f1" x="255.557328" y="126.930274" style="fill: #0db14b; stroke: #0db14b"/>
     <use xlink:href="#m7fa27a64f1" x="256.955323" y="126.884726" style="fill: #0db14b; stroke: #0db14b"/>
     <use xlink:href="#m7fa27a64f1" x="258.353319" y="126.97044" style="fill: #0db14b; stroke: #0db14b"/>
     <use xlink:href="#m7fa27a64f1" x="259.751315" y="127.177657" style="fill: #0db14b; stroke: #0db14b"/>
     <use xlink:href="#m7fa27a64f1" x="261.149311" y="127.449418" style="fill: #0db14b; stroke: #0db14b"/>
     <use xlink:href="#m7fa27a64f1" x="262.547306" y="128.049882" style="fill: #0db14b; stroke: #0db14b"/>
     <use xlink:href="#m7fa27a64f1" x="263.945302" y="131.831593" style="fill: #0db14b; stroke: #0db14b"/>
     <use xlink:href="#m7fa27a64f1" x="265.343298" y="132.416124" style="fill: #0db14b; stroke: #0db14b"/>
     <use xlink:href="#m7fa27a64f1" x="266.741293" y="131.848467" style="fill: #0db14b; stroke: #0db14b"/>
     <use xlink:href="#m7fa27a64f1" x="268.139289" y="130.52134" style="fill: #0db14b; stroke: #0db14b"/>
     <use xlink:href="#m7fa27a64f1" x="269.537285" y="130.530328" style="fill: #0db14b; stroke: #0db14b"/>
     <use xlink:href="#m7fa27a64f1" x="270.935281" y="131.965565" style="fill: #0db14b; stroke: #0db14b"/>
     <use xlink:href="#m7fa27a64f1" x="272.333276" y="131.819853" style="fill: #0db14b; stroke: #0db14b"/>
     <use xlink:href="#m7fa27a64f1" x="273.731272" y="131.12037" style="fill: #0db14b; stroke: #0db14b"/>
     <use xlink:href="#m7fa27a64f1" x="275.129268" y="131.59185" style="fill: #0db14b; stroke: #0db14b"/>
     <use xlink:href="#m7fa27a64f1" x="276.527263" y="135.807131" style="fill: #0db14b; stroke: #0db14b"/>
     <use xlink:href="#m7fa27a64f1" x="277.925259" y="135.505887" style="fill: #0db14b; stroke: #0db14b"/>
     <use xlink:href="#m7fa27a64f1" x="279.323255" y="131.182872" style="fill: #0db14b; stroke: #0db14b"/>
     <use xlink:href="#m7fa27a64f1" x="280.72125" y="135.640132" style="fill: #0db14b; stroke: #0db14b"/>
     <use xlink:href="#m7fa27a64f1" x="282.119246" y="139.774019" style="fill: #0db14b; stroke: #0db14b"/>
     <use xlink:href="#m7fa27a64f1" x="283.517242" y="135.300886" style="fill: #0db14b; stroke: #0db14b"/>
     <use xlink:href="#m7fa27a64f1" x="284.915238" y="134.390336" style="fill: #0db14b; stroke: #0db14b"/>
     <use xlink:href="#m7fa27a64f1" x="286.313233" y="134.431675" style="fill: #0db14b; stroke: #0db14b"/>
     <use xlink:href="#m7fa27a64f1" x="287.711229" y="140.400623" style="fill: #0db14b; stroke: #0db14b"/>
     <use xlink:href="#m7fa27a64f1" x="289.109225" y="139.825452" style="fill: #0db14b; stroke: #0db14b"/>
     <use xlink:href="#m7fa27a64f1" x="290.50722" y="139.264582" style="fill: #0db14b; stroke: #0db14b"/>
     <use xlink:href="#m7fa27a64f1" x="291.905216" y="139.709433" style="fill: #0db14b; stroke: #0db14b"/>
     <use xlink:href="#m7fa27a64f1" x="293.303212" y="139.700802" style="fill: #0db14b; stroke: #0db14b"/>
     <use xlink:href="#m7fa27a64f1" x="294.701207" y="139.612846" style="fill: #0db14b; stroke: #0db14b"/>
     <use xlink:href="#m7fa27a64f1" x="296.099203" y="139.370513" style="fill: #0db14b; stroke: #0db14b"/>
     <use xlink:href="#m7fa27a64f1" x="297.497199" y="135.62688" style="fill: #0db14b; stroke: #0db14b"/>
     <use xlink:href="#m7fa27a64f1" x="298.895195" y="139.743335" style="fill: #0db14b; stroke: #0db14b"/>
     <use xlink:href="#m7fa27a64f1" x="300.29319" y="139.629825" style="fill: #0db14b; stroke: #0db14b"/>
     <use xlink:href="#m7fa27a64f1" x="301.691186" y="140.779995" style="fill: #0db14b; stroke: #0db14b"/>
     <use xlink:href="#m7fa27a64f1" x="303.089182" y="141.811153" style="fill: #0db14b; stroke: #0db14b"/>
     <use xlink:href="#m7fa27a64f1" x="304.487177" y="140.370118" style="fill: #0db14b; stroke: #0db14b"/>
     <use xlink:href="#m7fa27a64f1" x="305.885173" y="142.146816" style="fill: #0db14b; stroke: #0db14b"/>
     <use xlink:href="#m7fa27a64f1" x="307.283169" y="141.593848" style="fill: #0db14b; stroke: #0db14b"/>
     <use xlink:href="#m7fa27a64f1" x="308.681165" y="141.769743" style="fill: #0db14b; stroke: #0db14b"/>
     <use xlink:href="#m7fa27a64f1" x="310.07916" y="141.882169" style="fill: #0db14b; stroke: #0db14b"/>
     <use xlink:href="#m7fa27a64f1" x="311.477156" y="142.104367" style="fill: #0db14b; stroke: #0db14b"/>
     <use xlink:href="#m7fa27a64f1" x="312.875152" y="141.877106" style="fill: #0db14b; stroke: #0db14b"/>
     <use xlink:href="#m7fa27a64f1" x="314.273147" y="142.044855" style="fill: #0db14b; stroke: #0db14b"/>
     <use xlink:href="#m7fa27a64f1" x="315.671143" y="138.392707" style="fill: #0db14b; stroke: #0db14b"/>
     <use xlink:href="#m7fa27a64f1" x="317.069139" y="138.92688" style="fill: #0db14b; stroke: #0db14b"/>
     <use xlink:href="#m7fa27a64f1" x="318.467134" y="138.413149" style="fill: #0db14b; stroke: #0db14b"/>
     <use xlink:href="#m7fa27a64f1" x="319.86513" y="142.518416" style="fill: #0db14b; stroke: #0db14b"/>
     <use xlink:href="#m7fa27a64f1" x="321.263126" y="143.041092" style="fill: #0db14b; stroke: #0db14b"/>
     <use xlink:href="#m7fa27a64f1" x="322.661122" y="140.161935" style="fill: #0db14b; stroke: #0db14b"/>
     <use xlink:href="#m7fa27a64f1" x="324.059117" y="140.645512" style="fill: #0db14b; stroke: #0db14b"/>
     <use xlink:href="#m7fa27a64f1" x="325.457113" y="141.116453" style="fill: #0db14b; stroke: #0db14b"/>
     <use xlink:href="#m7fa27a64f1" x="326.855109" y="140.840421" style="fill: #0db14b; stroke: #0db14b"/>
     <use xlink:href="#m7fa27a64f1" x="328.253104" y="139.94104" style="fill: #0db14b; stroke: #0db14b"/>
     <use xlink:href="#m7fa27a64f1" x="329.6511" y="140.56785" style="fill: #0db14b; stroke: #0db14b"/>
     <use xlink:href="#m7fa27a64f1" x="331.049096" y="143.123365" style="fill: #0db14b; stroke: #0db14b"/>
     <use xlink:href="#m7fa27a64f1" x="332.447092" y="142.87392" style="fill: #0db14b; stroke: #0db14b"/>
     <use xlink:href="#m7fa27a64f1" x="333.845087" y="140.695177" style="fill: #0db14b; stroke: #0db14b"/>
     <use xlink:href="#m7fa27a64f1" x="335.243083" y="140.938706" style="fill: #0db14b; stroke: #0db14b"/>
     <use xlink:href="#m7fa27a64f1" x="336.641079" y="140.489888" style="fill: #0db14b; stroke: #0db14b"/>
     <use xlink:href="#m7fa27a64f1" x="338.039074" y="143.845718" style="fill: #0db14b; stroke: #0db14b"/>
     <use xlink:href="#m7fa27a64f1" x="339.43707" y="143.66887" style="fill: #0db14b; stroke: #0db14b"/>
     <use xlink:href="#m7fa27a64f1" x="340.835066" y="143.705996" style="fill: #0db14b; stroke: #0db14b"/>
     <use xlink:href="#m7fa27a64f1" x="342.233061" y="142.716379" style="fill: #0db14b; stroke: #0db14b"/>
     <use xlink:href="#m7fa27a64f1" x="343.631057" y="142.844427" style="fill: #0db14b; stroke: #0db14b"/>
     <use xlink:href="#m7fa27a64f1" x="345.029053" y="141.863408" style="fill: #0db14b; stroke: #0db14b"/>
     <use xlink:href="#m7fa27a64f1" x="346.427049" y="143.32648" style="fill: #0db14b; stroke: #0db14b"/>
     <use xlink:href="#m7fa27a64f1" x="347.825044" y="142.511844" style="fill: #0db14b; stroke: #0db14b"/>
     <use xlink:href="#m7fa27a64f1" x="349.22304" y="142.152671" style="fill: #0db14b; stroke: #0db14b"/>
     <use xlink:href="#m7fa27a64f1" x="350.621036" y="142.184457" style="fill: #0db14b; stroke: #0db14b"/>
     <use xlink:href="#m7fa27a64f1" x="352.019031" y="140.490802" style="fill: #0db14b; stroke: #0db14b"/>
     <use xlink:href="#m7fa27a64f1" x="353.417027" y="137.268198" style="fill: #0db14b; stroke: #0db14b"/>
     <use xlink:href="#m7fa27a64f1" x="354.815023" y="135.873" style="fill: #0db14b; stroke: #0db14b"/>
     <use xlink:href="#m7fa27a64f1" x="356.213019" y="136.496839" style="fill: #0db14b; stroke: #0db14b"/>
     <use xlink:href="#m7fa27a64f1" x="357.611014" y="135.86068" style="fill: #0db14b; stroke: #0db14b"/>
     <use xlink:href="#m7fa27a64f1" x="359.00901" y="135.878282" style="fill: #0db14b; stroke: #0db14b"/>
     <use xlink:href="#m7fa27a64f1" x="360.407006" y="134.214795" style="fill: #0db14b; stroke: #0db14b"/>
     <use xlink:href="#m7fa27a64f1" x="361.805001" y="127.518899" style="fill: #0db14b; stroke: #0db14b"/>
     <use xlink:href="#m7fa27a64f1" x="363.202997" y="122.168908" style="fill: #0db14b; stroke: #0db14b"/>
     <use xlink:href="#m7fa27a64f1" x="364.600993" y="121.008526" style="fill: #0db14b; stroke: #0db14b"/>
     <use xlink:href="#m7fa27a64f1" x="365.998988" y="120.033586" style="fill: #0db14b; stroke: #0db14b"/>
     <use xlink:href="#m7fa27a64f1" x="367.396984" y="117.576148" style="fill: #0db14b; stroke: #0db14b"/>
     <use xlink:href="#m7fa27a64f1" x="368.79498" y="116.226973" style="fill: #0db14b; stroke: #0db14b"/>
     <use xlink:href="#m7fa27a64f1" x="370.192976" y="113.371939" style="fill: #0db14b; stroke: #0db14b"/>
     <use xlink:href="#m7fa27a64f1" x="371.590971" y="112.000469" style="fill: #0db14b; stroke: #0db14b"/>
     <use xlink:href="#m7fa27a64f1" x="372.988967" y="104.053624" style="fill: #0db14b; stroke: #0db14b"/>
     <use xlink:href="#m7fa27a64f1" x="374.386963" y="101.808332" style="fill: #0db14b; stroke: #0db14b"/>
     <use xlink:href="#m7fa27a64f1" x="375.784958" y="101.447602" style="fill: #0db14b; stroke: #0db14b"/>
     <use xlink:href="#m7fa27a64f1" x="377.182954" y="98.958305" style="fill: #0db14b; stroke: #0db14b"/>
     <use xlink:href="#m7fa27a64f1" x="378.58095" y="96.627538" style="fill: #0db14b; stroke: #0db14b"/>
     <use xlink:href="#m7fa27a64f1" x="379.978946" y="94.822663" style="fill: #0db14b; stroke: #0db14b"/>
     <use xlink:href="#m7fa27a64f1" x="381.376941" y="83.527715" style="fill: #0db14b; stroke: #0db14b"/>
     <use xlink:href="#m7fa27a64f1" x="382.774937" y="76.396857" style="fill: #0db14b; stroke: #0db14b"/>
     <use xlink:href="#m7fa27a64f1" x="384.172933" y="61.898577" style="fill: #0db14b; stroke: #0db14b"/>
     <use xlink:href="#m7fa27a64f1" x="385.570928" y="67.082549" style="fill: #0db14b; stroke: #0db14b"/>
     <use xlink:href="#m7fa27a64f1" x="386.968924" y="53.574488" style="fill: #0db14b; stroke: #0db14b"/>
     <use xlink:href="#m7fa27a64f1" x="388.36692" y="48.958357" style="fill: #0db14b; stroke: #0db14b"/>
     <use xlink:href="#m7fa27a64f1" x="389.764915" y="47.884997" style="fill: #0db14b; stroke: #0db14b"/>
     <use xlink:href="#m7fa27a64f1" x="391.162911" y="46.872561" style="fill: #0db14b; stroke: #0db14b"/>
     <use xlink:href="#m7fa27a64f1" x="392.560907" y="45.763321" style="fill: #0db14b; stroke: #0db14b"/>
     <use xlink:href="#m7fa27a64f1" x="393.958903" y="37.979848" style="fill: #0db14b; stroke: #0db14b"/>
     <use xlink:href="#m7fa27a64f1" x="395.356898" y="43.675702" style="fill: #0db14b; stroke: #0db14b"/>
     <use xlink:href="#m7fa27a64f1" x="396.754894" y="35.111181" style="fill: #0db14b; stroke: #0db14b"/>
     <use xlink:href="#m7fa27a64f1" x="398.15289" y="35.470532" style="fill: #0db14b; stroke: #0db14b"/>
     <use xlink:href="#m7fa27a64f1" x="399.550885" y="26.673937" style="fill: #0db14b; stroke: #0db14b"/>
     <use xlink:href="#m7fa27a64f1" x="400.948881" y="25.957582" style="fill: #0db14b; stroke: #0db14b"/>
     <use xlink:href="#m7fa27a64f1" x="402.346877" y="26.732534" style="fill: #0db14b; stroke: #0db14b"/>
     <use xlink:href="#m7fa27a64f1" x="403.744872" y="25.485436" style="fill: #0db14b; stroke: #0db14b"/>
     <use xlink:href="#m7fa27a64f1" x="405.142868" y="19.004976" style="fill: #0db14b; stroke: #0db14b"/>
     <use xlink:href="#m7fa27a64f1" x="406.540864" y="14.964655" style="fill: #0db14b; stroke: #0db14b"/>
     <use xlink:href="#m7fa27a64f1" x="407.93886" y="18.961602" style="fill: #0db14b; stroke: #0db14b"/>
     <use xlink:href="#m7fa27a64f1" x="409.336855" y="19.189047" style="fill: #0db14b; stroke: #0db14b"/>
     <use xlink:href="#m7fa27a64f1" x="410.734851" y="17.285009" style="fill: #0db14b; stroke: #0db14b"/>
     <use xlink:href="#m7fa27a64f1" x="412.132847" y="15.595371" style="fill: #0db14b; stroke: #0db14b"/>
     <use xlink:href="#m7fa27a64f1" x="413.530842" y="19.491515" style="fill: #0db14b; stroke: #0db14b"/>
     <use xlink:href="#m7fa27a64f1" x="414.928838" y="45.591303" style="fill: #0db14b; stroke: #0db14b"/>
     <use xlink:href="#m7fa27a64f1" x="416.326834" y="32.540981" style="fill: #0db14b; stroke: #0db14b"/>
     <use xlink:href="#m7fa27a64f1" x="417.72483" y="32.912353" style="fill: #0db14b; stroke: #0db14b"/>
    </g>
   </g>
   <g id="line2d_24">
    <path d="M 62.63392 158.76 
L 64.031916 158.002257 
L 65.429912 157.446143 
L 66.827908 158.21453 
L 69.623899 156.806449 
L 72.41989 155.514537 
L 75.215882 155.388804 
L 78.011873 154.806082 
L 79.409869 155.4784 
L 80.807865 153.273923 
L 82.20586 152.228723 
L 83.603856 150.952267 
L 85.001852 149.889364 
L 86.399847 146.584139 
L 89.195839 144.853719 
L 90.593835 144.817252 
L 91.99183 141.725901 
L 93.389826 141.208858 
L 94.787822 143.565261 
L 96.185817 142.432422 
L 97.583813 140.546522 
L 98.981809 136.281962 
L 101.7778 139.114203 
L 103.175796 137.559545 
L 104.573792 137.542847 
L 107.369783 134.79475 
L 110.165774 128.140102 
L 111.56377 132.038455 
L 112.961766 128.760736 
L 114.359762 120.076396 
L 115.757757 120.958605 
L 117.155753 120.798446 
L 118.553749 122.418564 
L 119.951744 124.21068 
L 121.34974 124.73467 
L 122.747736 123.958112 
L 124.145731 124.103081 
L 125.543727 126.217606 
L 126.941723 126.350808 
L 128.339719 127.919946 
L 129.737714 128.064314 
L 131.13571 127.673133 
L 132.533706 126.488329 
L 133.931701 125.733438 
L 135.329697 123.84732 
L 136.727693 123.283904 
L 138.125689 121.673171 
L 139.523684 117.273127 
L 140.92168 116.583238 
L 142.319676 117.079548 
L 143.717671 114.778355 
L 145.115667 113.984647 
L 146.513663 115.386197 
L 147.911658 113.707908 
L 149.309654 104.995307 
L 150.70765 113.752389 
L 152.105646 113.324647 
L 153.503641 112.267216 
L 154.901637 112.021499 
L 156.299633 108.660537 
L 157.697628 107.13299 
L 159.095624 106.975099 
L 160.49362 107.841391 
L 161.891616 105.702066 
L 163.289611 105.975446 
L 164.687607 101.842857 
L 166.085603 103.092804 
L 167.483598 103.403648 
L 168.881594 105.734152 
L 170.27959 100.675298 
L 173.075581 99.473961 
L 174.473577 97.770484 
L 175.871573 97.01525 
L 177.269568 97.515073 
L 178.667564 92.501946 
L 180.06556 96.334284 
L 181.463555 91.980252 
L 182.861551 91.419789 
L 184.259547 91.913283 
L 185.657543 87.922522 
L 187.055538 87.29841 
L 188.453534 82.738861 
L 189.85153 88.379143 
L 192.647521 73.682621 
L 194.045517 69.698491 
L 195.443512 67.421372 
L 196.841508 64.311678 
L 198.239504 62.81607 
L 199.6375 70.458425 
L 201.035495 63.847757 
L 202.433491 61.513792 
L 203.831487 64.028229 
L 205.229482 67.41275 
L 206.627478 66.203135 
L 208.025474 69.215871 
L 209.423469 69.338446 
L 210.821465 68.899562 
L 212.219461 72.679686 
L 213.617457 77.876724 
L 215.015452 78.986579 
L 216.413448 76.713625 
L 217.811444 76.294342 
L 219.209439 73.347024 
L 220.607435 76.561941 
L 222.005431 77.725908 
L 223.403427 77.113165 
L 224.801422 76.239001 
L 226.199418 77.46741 
L 227.597414 79.077786 
L 228.995409 80.37237 
L 230.393405 83.078707 
L 233.189396 81.47352 
L 234.587392 83.206137 
L 235.985388 88.638706 
L 237.383384 93.287884 
L 238.781379 93.911449 
L 240.179375 96.731201 
L 241.577371 98.052941 
L 244.373362 103.382099 
L 245.771358 106.475915 
L 247.169354 108.795937 
L 248.567349 108.369304 
L 251.363341 116.258116 
L 252.761336 118.201465 
L 254.159332 123.247598 
L 255.557328 124.470033 
L 256.955323 123.839398 
L 258.353319 123.64817 
L 259.751315 126.764232 
L 261.149311 128.585989 
L 262.547306 129.280045 
L 263.945302 133.638437 
L 265.343298 134.648442 
L 266.741293 135.263728 
L 268.139289 135.603306 
L 269.537285 135.4075 
L 270.935281 136.567793 
L 272.333276 136.571516 
L 273.731272 135.193674 
L 275.129268 136.386873 
L 276.527263 139.470306 
L 277.925259 140.197624 
L 279.323255 139.067285 
L 280.72125 140.247753 
L 282.119246 140.975307 
L 283.517242 138.868992 
L 284.915238 139.487499 
L 286.313233 140.405045 
L 287.711229 140.781531 
L 289.109225 141.697043 
L 291.905216 142.479177 
L 293.303212 142.447812 
L 294.701207 142.261559 
L 296.099203 142.51094 
L 297.497199 142.054826 
L 298.895195 143.642731 
L 301.691186 142.956166 
L 303.089182 143.473676 
L 304.487177 143.064453 
L 305.885173 143.9326 
L 307.283169 143.381471 
L 310.07916 143.788918 
L 311.477156 144.38085 
L 312.875152 144.152989 
L 314.273147 144.736725 
L 315.671143 144.423251 
L 317.069139 143.967648 
L 318.467134 144.220791 
L 321.263126 146.057238 
L 324.059117 146.587728 
L 326.855109 145.685251 
L 328.253104 146.980624 
L 329.6511 146.759462 
L 331.049096 147.590184 
L 332.447092 148.197351 
L 333.845087 147.40286 
L 335.243083 147.912842 
L 336.641079 147.638069 
L 338.039074 147.781628 
L 339.43707 146.810288 
L 340.835066 146.379569 
L 342.233061 145.814001 
L 343.631057 145.992884 
L 345.029053 144.605691 
L 346.427049 144.912546 
L 347.825044 143.244278 
L 349.22304 142.864428 
L 350.621036 141.886097 
L 352.019031 141.689185 
L 353.417027 141.124393 
L 354.815023 138.746464 
L 356.213019 138.566835 
L 357.611014 137.602009 
L 359.00901 137.339566 
L 360.407006 134.446264 
L 361.805001 132.505286 
L 363.202997 129.260343 
L 364.600993 128.126556 
L 365.998988 126.626306 
L 367.396984 123.831565 
L 368.79498 120.105931 
L 370.192976 114.774357 
L 371.590971 111.460782 
L 372.988967 105.37582 
L 374.386963 103.570217 
L 375.784958 103.145509 
L 377.182954 95.499329 
L 378.58095 90.444945 
L 379.978946 86.516207 
L 381.376941 80.439882 
L 384.172933 70.164526 
L 385.570928 72.278443 
L 386.968924 64.259776 
L 388.36692 58.355025 
L 389.764915 53.485244 
L 391.162911 49.84949 
L 392.560907 49.348167 
L 393.958903 41.376088 
L 395.356898 43.794115 
L 396.754894 36.067947 
L 398.15289 34.73002 
L 399.550885 29.375037 
L 400.948881 29.754676 
L 402.346877 28.256885 
L 403.744872 28.150148 
L 405.142868 28.395766 
L 406.540864 22.70729 
L 407.93886 24.945385 
L 409.336855 24.38839 
L 410.734851 23.509805 
L 412.132847 20.507452 
L 413.530842 25.444836 
L 414.928838 47.815787 
L 416.326834 33.440055 
L 417.72483 32.321473 
L 417.72483 32.321473 
" clip-path="url(#p2ef5214a54)" style="fill: none; stroke-dasharray: 5.55,2.4; stroke-dashoffset: 0; stroke: #000000; stroke-width: 1.5"/>
   </g>
   <g id="patch_3">
    <path d="M 44.879375 166.32 
L 44.879375 0 
" style="fill: none; stroke: #ffffff; stroke-linejoin: miter; stroke-linecap: square"/>
   </g>
   <g id="patch_4">
    <path d="M 435.479375 166.32 
L 435.479375 0 
" style="fill: none; stroke: #ffffff; stroke-linejoin: miter; stroke-linecap: square"/>
   </g>
   <g id="patch_5">
    <path d="M 44.879375 166.32 
L 435.479375 166.32 
" style="fill: none; stroke: #ffffff; stroke-linejoin: miter; stroke-linecap: square"/>
   </g>
   <g id="patch_6">
    <path d="M 44.879375 -0 
L 435.479375 -0 
" style="fill: none; stroke: #ffffff; stroke-linejoin: miter; stroke-linecap: square"/>
   </g>
   <g id="legend_1">
    <g id="patch_7">
     <path d="M 51.879375 60.378125 
L 203.92625 60.378125 
Q 205.92625 60.378125 205.92625 58.378125 
L 205.92625 7 
Q 205.92625 5 203.92625 5 
L 51.879375 5 
Q 49.879375 5 49.879375 7 
L 49.879375 58.378125 
Q 49.879375 60.378125 51.879375 60.378125 
z
" style="fill: #e5e5e5; opacity: 0.8; stroke: #cccccc; stroke-width: 0.5; stroke-linejoin: miter"/>
    </g>
    <g id="line2d_25">
     <path d="M 53.879375 15.5 
L 63.879375 15.5 
L 73.879375 15.5 
" style="fill: none; stroke: #0db14b; stroke-width: 3; stroke-linecap: square"/>
     <g>
      <use xlink:href="#m7fa27a64f1" x="63.879375" y="15.5" style="fill: #0db14b; stroke: #0db14b"/>
     </g>
    </g>
    <g id="text_14">
     <!-- Private Value $\tilde{R}_{\chi_2,\chi_1}^t$ -->
     <g transform="translate(81.879375 19) scale(0.1 -0.1)">
      <defs>
       <path id="DejaVuSans-50" d="M 1259 4147 
L 1259 2394 
L 2053 2394 
Q 2494 2394 2734 2622 
Q 2975 2850 2975 3272 
Q 2975 3691 2734 3919 
Q 2494 4147 2053 4147 
L 1259 4147 
z
M 628 4666 
L 2053 4666 
Q 2838 4666 3239 4311 
Q 3641 3956 3641 3272 
Q 3641 2581 3239 2228 
Q 2838 1875 2053 1875 
L 1259 1875 
L 1259 0 
L 628 0 
L 628 4666 
z
" transform="scale(0.015625)"/>
       <path id="DejaVuSans-72" d="M 2631 2963 
Q 2534 3019 2420 3045 
Q 2306 3072 2169 3072 
Q 1681 3072 1420 2755 
Q 1159 2438 1159 1844 
L 1159 0 
L 581 0 
L 581 3500 
L 1159 3500 
L 1159 2956 
Q 1341 3275 1631 3429 
Q 1922 3584 2338 3584 
Q 2397 3584 2469 3576 
Q 2541 3569 2628 3553 
L 2631 2963 
z
" transform="scale(0.015625)"/>
       <path id="DejaVuSans-69" d="M 603 3500 
L 1178 3500 
L 1178 0 
L 603 0 
L 603 3500 
z
M 603 4863 
L 1178 4863 
L 1178 4134 
L 603 4134 
L 603 4863 
z
" transform="scale(0.015625)"/>
       <path id="DejaVuSans-76" d="M 191 3500 
L 800 3500 
L 1894 563 
L 2988 3500 
L 3597 3500 
L 2284 0 
L 1503 0 
L 191 3500 
z
" transform="scale(0.015625)"/>
       <path id="DejaVuSans-20" transform="scale(0.015625)"/>
       <path id="DejaVuSans-303" d="M -1621 4281 
L -1799 4453 
Q -1867 4516 -1919 4545 
Q -1971 4575 -2011 4575 
Q -2130 4575 -2186 4461 
Q -2242 4347 -2249 4091 
L -2639 4091 
Q -2633 4513 -2473 4742 
Q -2314 4972 -2030 4972 
Q -1911 4972 -1811 4928 
Q -1711 4884 -1596 4781 
L -1417 4609 
Q -1349 4547 -1297 4517 
Q -1246 4488 -1205 4488 
Q -1086 4488 -1030 4602 
Q -974 4716 -967 4972 
L -577 4972 
Q -583 4550 -742 4320 
Q -902 4091 -1186 4091 
Q -1305 4091 -1405 4134 
Q -1505 4178 -1621 4281 
z
" transform="scale(0.015625)"/>
       <path id="DejaVuSans-Oblique-52" d="M 1613 4147 
L 1294 2491 
L 2106 2491 
Q 2584 2491 2879 2755 
Q 3175 3019 3175 3444 
Q 3175 3784 2976 3965 
Q 2778 4147 2406 4147 
L 1613 4147 
z
M 2772 2241 
Q 2972 2194 3105 2009 
Q 3238 1825 3413 1275 
L 3809 0 
L 3144 0 
L 2778 1197 
Q 2638 1659 2453 1815 
Q 2269 1972 1888 1972 
L 1191 1972 
L 806 0 
L 172 0 
L 1081 4666 
L 2503 4666 
Q 3150 4666 3495 4373 
Q 3841 4081 3841 3531 
Q 3841 3044 3547 2687 
Q 3253 2331 2772 2241 
z
" transform="scale(0.015625)"/>
       <path id="DejaVuSans-Oblique-74" d="M 2706 3500 
L 2619 3053 
L 1472 3053 
L 1100 1153 
Q 1081 1047 1072 975 
Q 1063 903 1063 863 
Q 1063 663 1183 572 
Q 1303 481 1569 481 
L 2150 481 
L 2053 0 
L 1503 0 
Q 991 0 739 200 
Q 488 400 488 806 
Q 488 878 497 964 
Q 506 1050 525 1153 
L 897 3053 
L 409 3053 
L 500 3500 
L 978 3500 
L 1172 4494 
L 1747 4494 
L 1556 3500 
L 2706 3500 
z
" transform="scale(0.015625)"/>
       <path id="DejaVuSans-Oblique-3c7" d="M 1922 -781 
L 1691 416 
L 394 -1334 
L -284 -1334 
L 1553 1141 
L 1269 2613 
Q 1194 3006 713 3006 
L 559 3006 
L 653 3500 
L 872 3494 
Q 1675 3472 1775 2950 
L 2006 1753 
L 3303 3503 
L 3981 3503 
L 2144 1028 
L 2428 -444 
Q 2503 -838 2984 -838 
L 3138 -838 
L 3044 -1331 
L 2825 -1325 
Q 2022 -1303 1922 -781 
z
" transform="scale(0.015625)"/>
       <path id="DejaVuSans-2c" d="M 750 794 
L 1409 794 
L 1409 256 
L 897 -744 
L 494 -744 
L 750 256 
L 750 794 
z
" transform="scale(0.015625)"/>
      </defs>
      <use xlink:href="#DejaVuSans-50" transform="translate(0 0.828125)"/>
      <use xlink:href="#DejaVuSans-72" transform="translate(60.302734 0.828125)"/>
      <use xlink:href="#DejaVuSans-69" transform="translate(101.416016 0.828125)"/>
      <use xlink:href="#DejaVuSans-76" transform="translate(129.199219 0.828125)"/>
      <use xlink:href="#DejaVuSans-61" transform="translate(188.378906 0.828125)"/>
      <use xlink:href="#DejaVuSans-74" transform="translate(249.658203 0.828125)"/>
      <use xlink:href="#DejaVuSans-65" transform="translate(288.867188 0.828125)"/>
      <use xlink:href="#DejaVuSans-20" transform="translate(350.390625 0.828125)"/>
      <use xlink:href="#DejaVuSans-56" transform="translate(382.177734 0.828125)"/>
      <use xlink:href="#DejaVuSans-61" transform="translate(450.585938 0.828125)"/>
      <use xlink:href="#DejaVuSans-6c" transform="translate(511.865234 0.828125)"/>
      <use xlink:href="#DejaVuSans-75" transform="translate(539.648438 0.828125)"/>
      <use xlink:href="#DejaVuSans-65" transform="translate(603.027344 0.828125)"/>
      <use xlink:href="#DejaVuSans-20" transform="translate(664.550781 0.828125)"/>
      <use xlink:href="#DejaVuSans-303" transform="translate(764.942871 22.3125)"/>
      <use xlink:href="#DejaVuSans-Oblique-52" transform="translate(696.337891 0.828125)"/>
      <use xlink:href="#DejaVuSans-Oblique-74" transform="translate(766.777344 39.109375) scale(0.7)"/>
      <use xlink:href="#DejaVuSans-Oblique-3c7" transform="translate(766.777344 -26.515625) scale(0.7)"/>
      <use xlink:href="#DejaVuSans-32" transform="translate(808.203125 -38) scale(0.49)"/>
      <use xlink:href="#DejaVuSans-2c" transform="translate(841.29248 -26.515625) scale(0.7)"/>
      <use xlink:href="#DejaVuSans-Oblique-3c7" transform="translate(877.181152 -26.515625) scale(0.7)"/>
      <use xlink:href="#DejaVuSans-31" transform="translate(918.606934 -38) scale(0.49)"/>
     </g>
    </g>
    <g id="line2d_26">
     <path d="M 53.879375 34 
L 63.879375 34 
L 73.879375 34 
" style="fill: none; stroke-dasharray: 5.55,2.4; stroke-dashoffset: 0; stroke: #000000; stroke-width: 1.5"/>
    </g>
    <g id="text_15">
     <!-- Original Value $\bar{R}_{\chi_2,\chi_1}^t$ -->
     <g transform="translate(81.879375 37.5) scale(0.1 -0.1)">
      <defs>
       <path id="DejaVuSans-4f" d="M 2522 4238 
Q 1834 4238 1429 3725 
Q 1025 3213 1025 2328 
Q 1025 1447 1429 934 
Q 1834 422 2522 422 
Q 3209 422 3611 934 
Q 4013 1447 4013 2328 
Q 4013 3213 3611 3725 
Q 3209 4238 2522 4238 
z
M 2522 4750 
Q 3503 4750 4090 4092 
Q 4678 3434 4678 2328 
Q 4678 1225 4090 567 
Q 3503 -91 2522 -91 
Q 1538 -91 948 565 
Q 359 1222 359 2328 
Q 359 3434 948 4092 
Q 1538 4750 2522 4750 
z
" transform="scale(0.015625)"/>
       <path id="DejaVuSans-67" d="M 2906 1791 
Q 2906 2416 2648 2759 
Q 2391 3103 1925 3103 
Q 1463 3103 1205 2759 
Q 947 2416 947 1791 
Q 947 1169 1205 825 
Q 1463 481 1925 481 
Q 2391 481 2648 825 
Q 2906 1169 2906 1791 
z
M 3481 434 
Q 3481 -459 3084 -895 
Q 2688 -1331 1869 -1331 
Q 1566 -1331 1297 -1286 
Q 1028 -1241 775 -1147 
L 775 -588 
Q 1028 -725 1275 -790 
Q 1522 -856 1778 -856 
Q 2344 -856 2625 -561 
Q 2906 -266 2906 331 
L 2906 616 
Q 2728 306 2450 153 
Q 2172 0 1784 0 
Q 1141 0 747 490 
Q 353 981 353 1791 
Q 353 2603 747 3093 
Q 1141 3584 1784 3584 
Q 2172 3584 2450 3431 
Q 2728 3278 2906 2969 
L 2906 3500 
L 3481 3500 
L 3481 434 
z
" transform="scale(0.015625)"/>
       <path id="DejaVuSans-6e" d="M 3513 2113 
L 3513 0 
L 2938 0 
L 2938 2094 
Q 2938 2591 2744 2837 
Q 2550 3084 2163 3084 
Q 1697 3084 1428 2787 
Q 1159 2491 1159 1978 
L 1159 0 
L 581 0 
L 581 3500 
L 1159 3500 
L 1159 2956 
Q 1366 3272 1645 3428 
Q 1925 3584 2291 3584 
Q 2894 3584 3203 3211 
Q 3513 2838 3513 2113 
z
" transform="scale(0.015625)"/>
       <path id="DejaVuSans-304" d="M -2518 4769 
L -650 4769 
L -650 4306 
L -2518 4306 
L -2518 4769 
z
" transform="scale(0.015625)"/>
      </defs>
      <use xlink:href="#DejaVuSans-4f" transform="translate(0 0.359375)"/>
      <use xlink:href="#DejaVuSans-72" transform="translate(78.710938 0.359375)"/>
      <use xlink:href="#DejaVuSans-69" transform="translate(119.824219 0.359375)"/>
      <use xlink:href="#DejaVuSans-67" transform="translate(147.607422 0.359375)"/>
      <use xlink:href="#DejaVuSans-69" transform="translate(211.083984 0.359375)"/>
      <use xlink:href="#DejaVuSans-6e" transform="translate(238.867188 0.359375)"/>
      <use xlink:href="#DejaVuSans-61" transform="translate(302.246094 0.359375)"/>
      <use xlink:href="#DejaVuSans-6c" transform="translate(363.525391 0.359375)"/>
      <use xlink:href="#DejaVuSans-20" transform="translate(391.308594 0.359375)"/>
      <use xlink:href="#DejaVuSans-56" transform="translate(423.095703 0.359375)"/>
      <use xlink:href="#DejaVuSans-61" transform="translate(491.503906 0.359375)"/>
      <use xlink:href="#DejaVuSans-6c" transform="translate(552.783203 0.359375)"/>
      <use xlink:href="#DejaVuSans-75" transform="translate(580.566406 0.359375)"/>
      <use xlink:href="#DejaVuSans-65" transform="translate(643.945312 0.359375)"/>
      <use xlink:href="#DejaVuSans-20" transform="translate(705.46875 0.359375)"/>
      <use xlink:href="#DejaVuSans-304" transform="translate(804.970215 18.484375)"/>
      <use xlink:href="#DejaVuSans-Oblique-52" transform="translate(737.255859 0.359375)"/>
      <use xlink:href="#DejaVuSans-Oblique-74" transform="translate(807.695312 38.640625) scale(0.7)"/>
      <use xlink:href="#DejaVuSans-Oblique-3c7" transform="translate(807.695312 -26.984375) scale(0.7)"/>
      <use xlink:href="#DejaVuSans-32" transform="translate(849.121094 -38.46875) scale(0.49)"/>
      <use xlink:href="#DejaVuSans-2c" transform="translate(882.210449 -26.984375) scale(0.7)"/>
      <use xlink:href="#DejaVuSans-Oblique-3c7" transform="translate(918.099121 -26.984375) scale(0.7)"/>
      <use xlink:href="#DejaVuSans-31" transform="translate(959.524902 -38.46875) scale(0.49)"/>
     </g>
    </g>
    <g id="patch_8">
     <path d="M 53.879375 54.298437 
L 73.879375 54.298437 
L 73.879375 47.298437 
L 53.879375 47.298437 
z
" style="fill: #0db14b; fill-opacity: 0.5; stroke: #0db14b; stroke-opacity: 0.5; stroke-width: 0.5; stroke-linejoin: miter"/>
    </g>
    <g id="text_16">
     <!-- One Standard Deviation -->
     <g transform="translate(81.879375 54.298437) scale(0.1 -0.1)">
      <defs>
       <path id="DejaVuSans-53" d="M 3425 4513 
L 3425 3897 
Q 3066 4069 2747 4153 
Q 2428 4238 2131 4238 
Q 1616 4238 1336 4038 
Q 1056 3838 1056 3469 
Q 1056 3159 1242 3001 
Q 1428 2844 1947 2747 
L 2328 2669 
Q 3034 2534 3370 2195 
Q 3706 1856 3706 1288 
Q 3706 609 3251 259 
Q 2797 -91 1919 -91 
Q 1588 -91 1214 -16 
Q 841 59 441 206 
L 441 856 
Q 825 641 1194 531 
Q 1563 422 1919 422 
Q 2459 422 2753 634 
Q 3047 847 3047 1241 
Q 3047 1584 2836 1778 
Q 2625 1972 2144 2069 
L 1759 2144 
Q 1053 2284 737 2584 
Q 422 2884 422 3419 
Q 422 4038 858 4394 
Q 1294 4750 2059 4750 
Q 2388 4750 2728 4690 
Q 3069 4631 3425 4513 
z
" transform="scale(0.015625)"/>
       <path id="DejaVuSans-64" d="M 2906 2969 
L 2906 4863 
L 3481 4863 
L 3481 0 
L 2906 0 
L 2906 525 
Q 2725 213 2448 61 
Q 2172 -91 1784 -91 
Q 1150 -91 751 415 
Q 353 922 353 1747 
Q 353 2572 751 3078 
Q 1150 3584 1784 3584 
Q 2172 3584 2448 3432 
Q 2725 3281 2906 2969 
z
M 947 1747 
Q 947 1113 1208 752 
Q 1469 391 1925 391 
Q 2381 391 2643 752 
Q 2906 1113 2906 1747 
Q 2906 2381 2643 2742 
Q 2381 3103 1925 3103 
Q 1469 3103 1208 2742 
Q 947 2381 947 1747 
z
" transform="scale(0.015625)"/>
       <path id="DejaVuSans-6f" d="M 1959 3097 
Q 1497 3097 1228 2736 
Q 959 2375 959 1747 
Q 959 1119 1226 758 
Q 1494 397 1959 397 
Q 2419 397 2687 759 
Q 2956 1122 2956 1747 
Q 2956 2369 2687 2733 
Q 2419 3097 1959 3097 
z
M 1959 3584 
Q 2709 3584 3137 3096 
Q 3566 2609 3566 1747 
Q 3566 888 3137 398 
Q 2709 -91 1959 -91 
Q 1206 -91 779 398 
Q 353 888 353 1747 
Q 353 2609 779 3096 
Q 1206 3584 1959 3584 
z
" transform="scale(0.015625)"/>
      </defs>
      <use xlink:href="#DejaVuSans-4f"/>
      <use xlink:href="#DejaVuSans-6e" x="78.710938"/>
      <use xlink:href="#DejaVuSans-65" x="142.089844"/>
      <use xlink:href="#DejaVuSans-20" x="203.613281"/>
      <use xlink:href="#DejaVuSans-53" x="235.400391"/>
      <use xlink:href="#DejaVuSans-74" x="298.876953"/>
      <use xlink:href="#DejaVuSans-61" x="338.085938"/>
      <use xlink:href="#DejaVuSans-6e" x="399.365234"/>
      <use xlink:href="#DejaVuSans-64" x="462.744141"/>
      <use xlink:href="#DejaVuSans-61" x="526.220703"/>
      <use xlink:href="#DejaVuSans-72" x="587.5"/>
      <use xlink:href="#DejaVuSans-64" x="626.863281"/>
      <use xlink:href="#DejaVuSans-20" x="690.339844"/>
      <use xlink:href="#DejaVuSans-44" x="722.126953"/>
      <use xlink:href="#DejaVuSans-65" x="799.128906"/>
      <use xlink:href="#DejaVuSans-76" x="860.652344"/>
      <use xlink:href="#DejaVuSans-69" x="919.832031"/>
      <use xlink:href="#DejaVuSans-61" x="947.615234"/>
      <use xlink:href="#DejaVuSans-74" x="1008.894531"/>
      <use xlink:href="#DejaVuSans-69" x="1048.103516"/>
      <use xlink:href="#DejaVuSans-6f" x="1075.886719"/>
      <use xlink:href="#DejaVuSans-6e" x="1137.068359"/>
     </g>
    </g>
   </g>
  </g>
 </g>
 <defs>
  <clipPath id="p2ef5214a54">
   <rect x="44.879375" y="-0" width="390.6" height="166.32"/>
  </clipPath>
 </defs>
</svg>
