<?xml version="1.0" encoding="utf-8" standalone="no"?>
<!DOCTYPE svg PUBLIC "-//W3C//DTD SVG 1.1//EN"
  "http://www.w3.org/Graphics/SVG/1.1/DTD/svg11.dtd">
<svg xmlns:xlink="http://www.w3.org/1999/xlink" width="444.375067pt" height="198.611875pt" viewBox="0 0 444.375067 198.611875" xmlns="http://www.w3.org/2000/svg" version="1.1">
 <metadata>
  <rdf:RDF xmlns:dc="http://purl.org/dc/elements/1.1/" xmlns:cc="http://creativecommons.org/ns#" xmlns:rdf="http://www.w3.org/1999/02/22-rdf-syntax-ns#">
   <cc:Work>
    <dc:type rdf:resource="http://purl.org/dc/dcmitype/StillImage"/>
    <dc:date>2024-09-18T15:47:40.866327</dc:date>
    <dc:format>image/svg+xml</dc:format>
    <dc:creator>
     <cc:Agent>
      <dc:title>Matplotlib v3.7.5, https://matplotlib.org/</dc:title>
     </cc:Agent>
    </dc:creator>
   </cc:Work>
  </rdf:RDF>
 </metadata>
 <defs>
  <style type="text/css">*{stroke-linejoin: round; stroke-linecap: butt}</style>
 </defs>
 <g id="figure_1">
  <g id="patch_1">
   <path d="M 0 198.611875 
L 444.375067 198.611875 
L 444.375067 0 
L 0 0 
z
" style="fill: #ffffff"/>
  </g>
  <g id="axes_1">
   <g id="patch_2">
    <path d="M 44.879375 166.32 
L 435.479375 166.32 
L 435.479375 -0 
L 44.879375 -0 
z
" style="fill: #e5e5e5"/>
   </g>
   <g id="matplotlib.axis_1">
    <g id="xtick_1">
     <g id="line2d_1">
      <path d="M 72.41989 166.32 
L 72.41989 -0 
" clip-path="url(#p45bea67ffb)" style="fill: none; stroke: #ffffff; stroke-width: 0.8; stroke-linecap: square"/>
     </g>
     <g id="line2d_2">
      <defs>
       <path id="m87647be637" d="M 0 0 
L 0 3.5 
" style="stroke: #555555; stroke-width: 0.8"/>
      </defs>
      <g>
       <use xlink:href="#m87647be637" x="72.41989" y="166.32" style="fill: #555555; stroke: #555555; stroke-width: 0.8"/>
      </g>
     </g>
     <g id="text_1">
      <!-- 08/16/20 -->
      <g style="fill: #555555" transform="translate(49.96364 180.918437) scale(0.1 -0.1)">
       <defs>
        <path id="DejaVuSans-30" d="M 2034 4250 
Q 1547 4250 1301 3770 
Q 1056 3291 1056 2328 
Q 1056 1369 1301 889 
Q 1547 409 2034 409 
Q 2525 409 2770 889 
Q 3016 1369 3016 2328 
Q 3016 3291 2770 3770 
Q 2525 4250 2034 4250 
z
M 2034 4750 
Q 2819 4750 3233 4129 
Q 3647 3509 3647 2328 
Q 3647 1150 3233 529 
Q 2819 -91 2034 -91 
Q 1250 -91 836 529 
Q 422 1150 422 2328 
Q 422 3509 836 4129 
Q 1250 4750 2034 4750 
z
" transform="scale(0.015625)"/>
        <path id="DejaVuSans-38" d="M 2034 2216 
Q 1584 2216 1326 1975 
Q 1069 1734 1069 1313 
Q 1069 891 1326 650 
Q 1584 409 2034 409 
Q 2484 409 2743 651 
Q 3003 894 3003 1313 
Q 3003 1734 2745 1975 
Q 2488 2216 2034 2216 
z
M 1403 2484 
Q 997 2584 770 2862 
Q 544 3141 544 3541 
Q 544 4100 942 4425 
Q 1341 4750 2034 4750 
Q 2731 4750 3128 4425 
Q 3525 4100 3525 3541 
Q 3525 3141 3298 2862 
Q 3072 2584 2669 2484 
Q 3125 2378 3379 2068 
Q 3634 1759 3634 1313 
Q 3634 634 3220 271 
Q 2806 -91 2034 -91 
Q 1263 -91 848 271 
Q 434 634 434 1313 
Q 434 1759 690 2068 
Q 947 2378 1403 2484 
z
M 1172 3481 
Q 1172 3119 1398 2916 
Q 1625 2713 2034 2713 
Q 2441 2713 2670 2916 
Q 2900 3119 2900 3481 
Q 2900 3844 2670 4047 
Q 2441 4250 2034 4250 
Q 1625 4250 1398 4047 
Q 1172 3844 1172 3481 
z
" transform="scale(0.015625)"/>
        <path id="DejaVuSans-2f" d="M 1625 4666 
L 2156 4666 
L 531 -594 
L 0 -594 
L 1625 4666 
z
" transform="scale(0.015625)"/>
        <path id="DejaVuSans-31" d="M 794 531 
L 1825 531 
L 1825 4091 
L 703 3866 
L 703 4441 
L 1819 4666 
L 2450 4666 
L 2450 531 
L 3481 531 
L 3481 0 
L 794 0 
L 794 531 
z
" transform="scale(0.015625)"/>
        <path id="DejaVuSans-36" d="M 2113 2584 
Q 1688 2584 1439 2293 
Q 1191 2003 1191 1497 
Q 1191 994 1439 701 
Q 1688 409 2113 409 
Q 2538 409 2786 701 
Q 3034 994 3034 1497 
Q 3034 2003 2786 2293 
Q 2538 2584 2113 2584 
z
M 3366 4563 
L 3366 3988 
Q 3128 4100 2886 4159 
Q 2644 4219 2406 4219 
Q 1781 4219 1451 3797 
Q 1122 3375 1075 2522 
Q 1259 2794 1537 2939 
Q 1816 3084 2150 3084 
Q 2853 3084 3261 2657 
Q 3669 2231 3669 1497 
Q 3669 778 3244 343 
Q 2819 -91 2113 -91 
Q 1303 -91 875 529 
Q 447 1150 447 2328 
Q 447 3434 972 4092 
Q 1497 4750 2381 4750 
Q 2619 4750 2861 4703 
Q 3103 4656 3366 4563 
z
" transform="scale(0.015625)"/>
        <path id="DejaVuSans-32" d="M 1228 531 
L 3431 531 
L 3431 0 
L 469 0 
L 469 531 
Q 828 903 1448 1529 
Q 2069 2156 2228 2338 
Q 2531 2678 2651 2914 
Q 2772 3150 2772 3378 
Q 2772 3750 2511 3984 
Q 2250 4219 1831 4219 
Q 1534 4219 1204 4116 
Q 875 4013 500 3803 
L 500 4441 
Q 881 4594 1212 4672 
Q 1544 4750 1819 4750 
Q 2544 4750 2975 4387 
Q 3406 4025 3406 3419 
Q 3406 3131 3298 2873 
Q 3191 2616 2906 2266 
Q 2828 2175 2409 1742 
Q 1991 1309 1228 531 
z
" transform="scale(0.015625)"/>
       </defs>
       <use xlink:href="#DejaVuSans-30"/>
       <use xlink:href="#DejaVuSans-38" x="63.623047"/>
       <use xlink:href="#DejaVuSans-2f" x="127.246094"/>
       <use xlink:href="#DejaVuSans-31" x="160.9375"/>
       <use xlink:href="#DejaVuSans-36" x="224.560547"/>
       <use xlink:href="#DejaVuSans-2f" x="288.183594"/>
       <use xlink:href="#DejaVuSans-32" x="321.875"/>
       <use xlink:href="#DejaVuSans-30" x="385.498047"/>
      </g>
     </g>
    </g>
    <g id="xtick_2">
     <g id="line2d_3">
      <path d="M 142.319676 166.32 
L 142.319676 -0 
" clip-path="url(#p45bea67ffb)" style="fill: none; stroke: #ffffff; stroke-width: 0.8; stroke-linecap: square"/>
     </g>
     <g id="line2d_4">
      <g>
       <use xlink:href="#m87647be637" x="142.319676" y="166.32" style="fill: #555555; stroke: #555555; stroke-width: 0.8"/>
      </g>
     </g>
     <g id="text_2">
      <!-- 10/05/20 -->
      <g style="fill: #555555" transform="translate(119.863426 180.918437) scale(0.1 -0.1)">
       <defs>
        <path id="DejaVuSans-35" d="M 691 4666 
L 3169 4666 
L 3169 4134 
L 1269 4134 
L 1269 2991 
Q 1406 3038 1543 3061 
Q 1681 3084 1819 3084 
Q 2600 3084 3056 2656 
Q 3513 2228 3513 1497 
Q 3513 744 3044 326 
Q 2575 -91 1722 -91 
Q 1428 -91 1123 -41 
Q 819 9 494 109 
L 494 744 
Q 775 591 1075 516 
Q 1375 441 1709 441 
Q 2250 441 2565 725 
Q 2881 1009 2881 1497 
Q 2881 1984 2565 2268 
Q 2250 2553 1709 2553 
Q 1456 2553 1204 2497 
Q 953 2441 691 2322 
L 691 4666 
z
" transform="scale(0.015625)"/>
       </defs>
       <use xlink:href="#DejaVuSans-31"/>
       <use xlink:href="#DejaVuSans-30" x="63.623047"/>
       <use xlink:href="#DejaVuSans-2f" x="127.246094"/>
       <use xlink:href="#DejaVuSans-30" x="160.9375"/>
       <use xlink:href="#DejaVuSans-35" x="224.560547"/>
       <use xlink:href="#DejaVuSans-2f" x="288.183594"/>
       <use xlink:href="#DejaVuSans-32" x="321.875"/>
       <use xlink:href="#DejaVuSans-30" x="385.498047"/>
      </g>
     </g>
    </g>
    <g id="xtick_3">
     <g id="line2d_5">
      <path d="M 212.219461 166.32 
L 212.219461 -0 
" clip-path="url(#p45bea67ffb)" style="fill: none; stroke: #ffffff; stroke-width: 0.8; stroke-linecap: square"/>
     </g>
     <g id="line2d_6">
      <g>
       <use xlink:href="#m87647be637" x="212.219461" y="166.32" style="fill: #555555; stroke: #555555; stroke-width: 0.8"/>
      </g>
     </g>
     <g id="text_3">
      <!-- 11/24/20 -->
      <g style="fill: #555555" transform="translate(189.763211 180.918437) scale(0.1 -0.1)">
       <defs>
        <path id="DejaVuSans-34" d="M 2419 4116 
L 825 1625 
L 2419 1625 
L 2419 4116 
z
M 2253 4666 
L 3047 4666 
L 3047 1625 
L 3713 1625 
L 3713 1100 
L 3047 1100 
L 3047 0 
L 2419 0 
L 2419 1100 
L 313 1100 
L 313 1709 
L 2253 4666 
z
" transform="scale(0.015625)"/>
       </defs>
       <use xlink:href="#DejaVuSans-31"/>
       <use xlink:href="#DejaVuSans-31" x="63.623047"/>
       <use xlink:href="#DejaVuSans-2f" x="127.246094"/>
       <use xlink:href="#DejaVuSans-32" x="160.9375"/>
       <use xlink:href="#DejaVuSans-34" x="224.560547"/>
       <use xlink:href="#DejaVuSans-2f" x="288.183594"/>
       <use xlink:href="#DejaVuSans-32" x="321.875"/>
       <use xlink:href="#DejaVuSans-30" x="385.498047"/>
      </g>
     </g>
    </g>
    <g id="xtick_4">
     <g id="line2d_7">
      <path d="M 282.119246 166.32 
L 282.119246 -0 
" clip-path="url(#p45bea67ffb)" style="fill: none; stroke: #ffffff; stroke-width: 0.8; stroke-linecap: square"/>
     </g>
     <g id="line2d_8">
      <g>
       <use xlink:href="#m87647be637" x="282.119246" y="166.32" style="fill: #555555; stroke: #555555; stroke-width: 0.8"/>
      </g>
     </g>
     <g id="text_4">
      <!-- 01/13/21 -->
      <g style="fill: #555555" transform="translate(259.662996 180.918437) scale(0.1 -0.1)">
       <defs>
        <path id="DejaVuSans-33" d="M 2597 2516 
Q 3050 2419 3304 2112 
Q 3559 1806 3559 1356 
Q 3559 666 3084 287 
Q 2609 -91 1734 -91 
Q 1441 -91 1130 -33 
Q 819 25 488 141 
L 488 750 
Q 750 597 1062 519 
Q 1375 441 1716 441 
Q 2309 441 2620 675 
Q 2931 909 2931 1356 
Q 2931 1769 2642 2001 
Q 2353 2234 1838 2234 
L 1294 2234 
L 1294 2753 
L 1863 2753 
Q 2328 2753 2575 2939 
Q 2822 3125 2822 3475 
Q 2822 3834 2567 4026 
Q 2313 4219 1838 4219 
Q 1578 4219 1281 4162 
Q 984 4106 628 3988 
L 628 4550 
Q 988 4650 1302 4700 
Q 1616 4750 1894 4750 
Q 2613 4750 3031 4423 
Q 3450 4097 3450 3541 
Q 3450 3153 3228 2886 
Q 3006 2619 2597 2516 
z
" transform="scale(0.015625)"/>
       </defs>
       <use xlink:href="#DejaVuSans-30"/>
       <use xlink:href="#DejaVuSans-31" x="63.623047"/>
       <use xlink:href="#DejaVuSans-2f" x="127.246094"/>
       <use xlink:href="#DejaVuSans-31" x="160.9375"/>
       <use xlink:href="#DejaVuSans-33" x="224.560547"/>
       <use xlink:href="#DejaVuSans-2f" x="288.183594"/>
       <use xlink:href="#DejaVuSans-32" x="321.875"/>
       <use xlink:href="#DejaVuSans-31" x="385.498047"/>
      </g>
     </g>
    </g>
    <g id="xtick_5">
     <g id="line2d_9">
      <path d="M 352.019031 166.32 
L 352.019031 -0 
" clip-path="url(#p45bea67ffb)" style="fill: none; stroke: #ffffff; stroke-width: 0.8; stroke-linecap: square"/>
     </g>
     <g id="line2d_10">
      <g>
       <use xlink:href="#m87647be637" x="352.019031" y="166.32" style="fill: #555555; stroke: #555555; stroke-width: 0.8"/>
      </g>
     </g>
     <g id="text_5">
      <!-- 03/04/21 -->
      <g style="fill: #555555" transform="translate(329.562781 180.918437) scale(0.1 -0.1)">
       <use xlink:href="#DejaVuSans-30"/>
       <use xlink:href="#DejaVuSans-33" x="63.623047"/>
       <use xlink:href="#DejaVuSans-2f" x="127.246094"/>
       <use xlink:href="#DejaVuSans-30" x="160.9375"/>
       <use xlink:href="#DejaVuSans-34" x="224.560547"/>
       <use xlink:href="#DejaVuSans-2f" x="288.183594"/>
       <use xlink:href="#DejaVuSans-32" x="321.875"/>
       <use xlink:href="#DejaVuSans-31" x="385.498047"/>
      </g>
     </g>
    </g>
    <g id="xtick_6">
     <g id="line2d_11">
      <path d="M 421.918817 166.32 
L 421.918817 -0 
" clip-path="url(#p45bea67ffb)" style="fill: none; stroke: #ffffff; stroke-width: 0.8; stroke-linecap: square"/>
     </g>
     <g id="line2d_12">
      <g>
       <use xlink:href="#m87647be637" x="421.918817" y="166.32" style="fill: #555555; stroke: #555555; stroke-width: 0.8"/>
      </g>
     </g>
     <g id="text_6">
      <!-- 04/23/21 -->
      <g style="fill: #555555" transform="translate(399.462567 180.918437) scale(0.1 -0.1)">
       <use xlink:href="#DejaVuSans-30"/>
       <use xlink:href="#DejaVuSans-34" x="63.623047"/>
       <use xlink:href="#DejaVuSans-2f" x="127.246094"/>
       <use xlink:href="#DejaVuSans-32" x="160.9375"/>
       <use xlink:href="#DejaVuSans-33" x="224.560547"/>
       <use xlink:href="#DejaVuSans-2f" x="288.183594"/>
       <use xlink:href="#DejaVuSans-32" x="321.875"/>
       <use xlink:href="#DejaVuSans-31" x="385.498047"/>
      </g>
     </g>
    </g>
    <g id="text_7">
     <!-- Date -->
     <g style="fill: #555555" transform="translate(225.838438 196.11625) scale(0.12 -0.12)">
      <defs>
       <path id="DejaVuSans-44" d="M 1259 4147 
L 1259 519 
L 2022 519 
Q 2988 519 3436 956 
Q 3884 1394 3884 2338 
Q 3884 3275 3436 3711 
Q 2988 4147 2022 4147 
L 1259 4147 
z
M 628 4666 
L 1925 4666 
Q 3281 4666 3915 4102 
Q 4550 3538 4550 2338 
Q 4550 1131 3912 565 
Q 3275 0 1925 0 
L 628 0 
L 628 4666 
z
" transform="scale(0.015625)"/>
       <path id="DejaVuSans-61" d="M 2194 1759 
Q 1497 1759 1228 1600 
Q 959 1441 959 1056 
Q 959 750 1161 570 
Q 1363 391 1709 391 
Q 2188 391 2477 730 
Q 2766 1069 2766 1631 
L 2766 1759 
L 2194 1759 
z
M 3341 1997 
L 3341 0 
L 2766 0 
L 2766 531 
Q 2569 213 2275 61 
Q 1981 -91 1556 -91 
Q 1019 -91 701 211 
Q 384 513 384 1019 
Q 384 1609 779 1909 
Q 1175 2209 1959 2209 
L 2766 2209 
L 2766 2266 
Q 2766 2663 2505 2880 
Q 2244 3097 1772 3097 
Q 1472 3097 1187 3025 
Q 903 2953 641 2809 
L 641 3341 
Q 956 3463 1253 3523 
Q 1550 3584 1831 3584 
Q 2591 3584 2966 3190 
Q 3341 2797 3341 1997 
z
" transform="scale(0.015625)"/>
       <path id="DejaVuSans-74" d="M 1172 4494 
L 1172 3500 
L 2356 3500 
L 2356 3053 
L 1172 3053 
L 1172 1153 
Q 1172 725 1289 603 
Q 1406 481 1766 481 
L 2356 481 
L 2356 0 
L 1766 0 
Q 1100 0 847 248 
Q 594 497 594 1153 
L 594 3053 
L 172 3053 
L 172 3500 
L 594 3500 
L 594 4494 
L 1172 4494 
z
" transform="scale(0.015625)"/>
       <path id="DejaVuSans-65" d="M 3597 1894 
L 3597 1613 
L 953 1613 
Q 991 1019 1311 708 
Q 1631 397 2203 397 
Q 2534 397 2845 478 
Q 3156 559 3463 722 
L 3463 178 
Q 3153 47 2828 -22 
Q 2503 -91 2169 -91 
Q 1331 -91 842 396 
Q 353 884 353 1716 
Q 353 2575 817 3079 
Q 1281 3584 2069 3584 
Q 2775 3584 3186 3129 
Q 3597 2675 3597 1894 
z
M 3022 2063 
Q 3016 2534 2758 2815 
Q 2500 3097 2075 3097 
Q 1594 3097 1305 2825 
Q 1016 2553 972 2059 
L 3022 2063 
z
" transform="scale(0.015625)"/>
      </defs>
      <use xlink:href="#DejaVuSans-44"/>
      <use xlink:href="#DejaVuSans-61" x="77.001953"/>
      <use xlink:href="#DejaVuSans-74" x="138.28125"/>
      <use xlink:href="#DejaVuSans-65" x="177.490234"/>
     </g>
    </g>
   </g>
   <g id="matplotlib.axis_2">
    <g id="ytick_1">
     <g id="line2d_13">
      <path d="M 44.879375 138.548587 
L 435.479375 138.548587 
" clip-path="url(#p45bea67ffb)" style="fill: none; stroke: #ffffff; stroke-width: 0.8; stroke-linecap: square"/>
     </g>
     <g id="line2d_14">
      <defs>
       <path id="mb76a4746e1" d="M 0 0 
L -3.5 0 
" style="stroke: #555555; stroke-width: 0.8"/>
      </defs>
      <g>
       <use xlink:href="#mb76a4746e1" x="44.879375" y="138.548587" style="fill: #555555; stroke: #555555; stroke-width: 0.8"/>
      </g>
     </g>
     <g id="text_8">
      <!-- 0.05 -->
      <g style="fill: #555555" transform="translate(15.61375 142.347805) scale(0.1 -0.1)">
       <defs>
        <path id="DejaVuSans-2e" d="M 684 794 
L 1344 794 
L 1344 0 
L 684 0 
L 684 794 
z
" transform="scale(0.015625)"/>
       </defs>
       <use xlink:href="#DejaVuSans-30"/>
       <use xlink:href="#DejaVuSans-2e" x="63.623047"/>
       <use xlink:href="#DejaVuSans-30" x="95.410156"/>
       <use xlink:href="#DejaVuSans-35" x="159.033203"/>
      </g>
     </g>
    </g>
    <g id="ytick_2">
     <g id="line2d_15">
      <path d="M 44.879375 105.187179 
L 435.479375 105.187179 
" clip-path="url(#p45bea67ffb)" style="fill: none; stroke: #ffffff; stroke-width: 0.8; stroke-linecap: square"/>
     </g>
     <g id="line2d_16">
      <g>
       <use xlink:href="#mb76a4746e1" x="44.879375" y="105.187179" style="fill: #555555; stroke: #555555; stroke-width: 0.8"/>
      </g>
     </g>
     <g id="text_9">
      <!-- 0.10 -->
      <g style="fill: #555555" transform="translate(15.61375 108.986398) scale(0.1 -0.1)">
       <use xlink:href="#DejaVuSans-30"/>
       <use xlink:href="#DejaVuSans-2e" x="63.623047"/>
       <use xlink:href="#DejaVuSans-31" x="95.410156"/>
       <use xlink:href="#DejaVuSans-30" x="159.033203"/>
      </g>
     </g>
    </g>
    <g id="ytick_3">
     <g id="line2d_17">
      <path d="M 44.879375 71.825771 
L 435.479375 71.825771 
" clip-path="url(#p45bea67ffb)" style="fill: none; stroke: #ffffff; stroke-width: 0.8; stroke-linecap: square"/>
     </g>
     <g id="line2d_18">
      <g>
       <use xlink:href="#mb76a4746e1" x="44.879375" y="71.825771" style="fill: #555555; stroke: #555555; stroke-width: 0.8"/>
      </g>
     </g>
     <g id="text_10">
      <!-- 0.15 -->
      <g style="fill: #555555" transform="translate(15.61375 75.62499) scale(0.1 -0.1)">
       <use xlink:href="#DejaVuSans-30"/>
       <use xlink:href="#DejaVuSans-2e" x="63.623047"/>
       <use xlink:href="#DejaVuSans-31" x="95.410156"/>
       <use xlink:href="#DejaVuSans-35" x="159.033203"/>
      </g>
     </g>
    </g>
    <g id="ytick_4">
     <g id="line2d_19">
      <path d="M 44.879375 38.464364 
L 435.479375 38.464364 
" clip-path="url(#p45bea67ffb)" style="fill: none; stroke: #ffffff; stroke-width: 0.8; stroke-linecap: square"/>
     </g>
     <g id="line2d_20">
      <g>
       <use xlink:href="#mb76a4746e1" x="44.879375" y="38.464364" style="fill: #555555; stroke: #555555; stroke-width: 0.8"/>
      </g>
     </g>
     <g id="text_11">
      <!-- 0.20 -->
      <g style="fill: #555555" transform="translate(15.61375 42.263582) scale(0.1 -0.1)">
       <use xlink:href="#DejaVuSans-30"/>
       <use xlink:href="#DejaVuSans-2e" x="63.623047"/>
       <use xlink:href="#DejaVuSans-32" x="95.410156"/>
       <use xlink:href="#DejaVuSans-30" x="159.033203"/>
      </g>
     </g>
    </g>
    <g id="ytick_5">
     <g id="line2d_21">
      <path d="M 44.879375 5.102956 
L 435.479375 5.102956 
" clip-path="url(#p45bea67ffb)" style="fill: none; stroke: #ffffff; stroke-width: 0.8; stroke-linecap: square"/>
     </g>
     <g id="line2d_22">
      <g>
       <use xlink:href="#mb76a4746e1" x="44.879375" y="5.102956" style="fill: #555555; stroke: #555555; stroke-width: 0.8"/>
      </g>
     </g>
     <g id="text_12">
      <!-- 0.25 -->
      <g style="fill: #555555" transform="translate(15.61375 8.902175) scale(0.1 -0.1)">
       <use xlink:href="#DejaVuSans-30"/>
       <use xlink:href="#DejaVuSans-2e" x="63.623047"/>
       <use xlink:href="#DejaVuSans-32" x="95.410156"/>
       <use xlink:href="#DejaVuSans-35" x="159.033203"/>
      </g>
     </g>
    </g>
    <g id="text_13">
     <!-- Value -->
     <g style="fill: #555555" transform="translate(9.118125 99.6375) rotate(-90) scale(0.12 -0.12)">
      <defs>
       <path id="DejaVuSans-56" d="M 1831 0 
L 50 4666 
L 709 4666 
L 2188 738 
L 3669 4666 
L 4325 4666 
L 2547 0 
L 1831 0 
z
" transform="scale(0.015625)"/>
       <path id="DejaVuSans-6c" d="M 603 4863 
L 1178 4863 
L 1178 0 
L 603 0 
L 603 4863 
z
" transform="scale(0.015625)"/>
       <path id="DejaVuSans-75" d="M 544 1381 
L 544 3500 
L 1119 3500 
L 1119 1403 
Q 1119 906 1312 657 
Q 1506 409 1894 409 
Q 2359 409 2629 706 
Q 2900 1003 2900 1516 
L 2900 3500 
L 3475 3500 
L 3475 0 
L 2900 0 
L 2900 538 
Q 2691 219 2414 64 
Q 2138 -91 1772 -91 
Q 1169 -91 856 284 
Q 544 659 544 1381 
z
M 1991 3584 
L 1991 3584 
z
" transform="scale(0.015625)"/>
      </defs>
      <use xlink:href="#DejaVuSans-56"/>
      <use xlink:href="#DejaVuSans-61" x="60.658203"/>
      <use xlink:href="#DejaVuSans-6c" x="121.9375"/>
      <use xlink:href="#DejaVuSans-75" x="149.720703"/>
      <use xlink:href="#DejaVuSans-65" x="213.099609"/>
     </g>
    </g>
   </g>
   <g id="PolyCollection_1">
    <defs>
     <path id="m301f9d97dd" d="M 62.63392 -41.160925 
L 62.63392 -44.880974 
L 64.031916 -46.590379 
L 65.429912 -45.970491 
L 66.827908 -45.239495 
L 68.225903 -45.644713 
L 69.623899 -47.489367 
L 71.021895 -50.734701 
L 72.41989 -50.414702 
L 73.817886 -51.123336 
L 75.215882 -51.318798 
L 76.613878 -51.535987 
L 78.011873 -51.677161 
L 79.409869 -51.656971 
L 80.807865 -51.925439 
L 82.20586 -51.442107 
L 83.603856 -51.426808 
L 85.001852 -56.089796 
L 86.399847 -60.057303 
L 87.797843 -59.563369 
L 89.195839 -60.354665 
L 90.593835 -59.91814 
L 91.99183 -61.500878 
L 93.389826 -60.988948 
L 94.787822 -60.608615 
L 96.185817 -61.012861 
L 97.583813 -61.797138 
L 98.981809 -62.551178 
L 100.379804 -62.200812 
L 101.7778 -62.940158 
L 103.175796 -63.093792 
L 104.573792 -63.167408 
L 105.971787 -63.580671 
L 107.369783 -63.039807 
L 108.767779 -72.048139 
L 110.165774 -76.840313 
L 111.56377 -69.701342 
L 112.961766 -76.019226 
L 114.359762 -86.494998 
L 115.757757 -84.094564 
L 117.155753 -85.172175 
L 118.553749 -84.751585 
L 119.951744 -84.181148 
L 121.34974 -83.131182 
L 122.747736 -84.895341 
L 124.145731 -86.102221 
L 125.543727 -76.684775 
L 126.941723 -76.996074 
L 128.339719 -75.778236 
L 129.737714 -73.501988 
L 131.13571 -69.588142 
L 132.533706 -74.583082 
L 133.931701 -74.711113 
L 135.329697 -80.723067 
L 136.727693 -87.37888 
L 138.125689 -87.588356 
L 139.523684 -93.217808 
L 140.92168 -93.589941 
L 142.319676 -88.892378 
L 143.717671 -90.083357 
L 145.115667 -92.361463 
L 146.513663 -92.090459 
L 147.911658 -94.881975 
L 149.309654 -100.360242 
L 150.70765 -95.890284 
L 152.105646 -95.424957 
L 153.503641 -97.784691 
L 154.901637 -97.648648 
L 156.299633 -101.773825 
L 157.697628 -104.265917 
L 159.095624 -102.27 
L 160.49362 -101.898305 
L 161.891616 -103.93486 
L 163.289611 -101.896431 
L 164.687607 -108.485512 
L 166.085603 -104.068805 
L 167.483598 -103.358636 
L 168.881594 -102.51624 
L 170.27959 -105.644574 
L 171.677585 -103.712806 
L 173.075581 -104.774355 
L 174.473577 -105.515098 
L 175.871573 -112.224232 
L 177.269568 -111.471608 
L 178.667564 -114.261173 
L 180.06556 -111.610176 
L 181.463555 -114.064728 
L 182.861551 -113.58974 
L 184.259547 -115.444585 
L 185.657543 -124.672341 
L 187.055538 -126.023918 
L 188.453534 -124.411671 
L 189.85153 -123.130371 
L 191.249525 -125.184166 
L 192.647521 -136.293816 
L 194.045517 -144.224678 
L 195.443512 -142.69116 
L 196.841508 -147.24407 
L 198.239504 -149.183955 
L 199.6375 -135.082845 
L 201.035495 -141.25349 
L 202.433491 -143.237413 
L 203.831487 -140.296945 
L 205.229482 -138.892654 
L 206.627478 -140.186614 
L 208.025474 -136.92807 
L 209.423469 -139.896356 
L 210.821465 -137.516293 
L 212.219461 -134.920857 
L 213.617457 -132.917394 
L 215.015452 -126.434022 
L 216.413448 -131.313045 
L 217.811444 -133.015743 
L 219.209439 -134.205303 
L 220.607435 -131.679507 
L 222.005431 -130.737224 
L 223.403427 -123.858148 
L 224.801422 -122.256058 
L 226.199418 -131.309915 
L 227.597414 -130.072184 
L 228.995409 -129.974934 
L 230.393405 -129.717724 
L 231.791401 -119.5658 
L 233.189396 -128.223273 
L 234.587392 -119.320143 
L 235.985388 -115.319997 
L 237.383384 -114.231762 
L 238.781379 -113.272244 
L 240.179375 -105.515698 
L 241.577371 -103.600685 
L 242.975366 -99.179403 
L 244.373362 -98.312225 
L 245.771358 -95.824914 
L 247.169354 -91.220427 
L 248.567349 -96.904715 
L 249.965345 -90.113721 
L 251.363341 -88.510901 
L 252.761336 -85.34663 
L 254.159332 -75.585679 
L 255.557328 -75.5031 
L 256.955323 -75.168639 
L 258.353319 -74.112395 
L 259.751315 -75.121046 
L 261.149311 -74.139255 
L 262.547306 -74.33523 
L 263.945302 -71.040499 
L 265.343298 -70.916383 
L 266.741293 -70.848027 
L 268.139289 -72.751158 
L 269.537285 -72.386051 
L 270.935281 -71.390881 
L 272.333276 -70.999783 
L 273.731272 -71.88136 
L 275.129268 -71.686402 
L 276.527263 -66.868827 
L 277.925259 -67.322648 
L 279.323255 -72.552947 
L 280.72125 -66.624843 
L 282.119246 -62.211207 
L 283.517242 -67.532029 
L 284.915238 -67.720151 
L 286.313233 -67.910116 
L 287.711229 -61.738998 
L 289.109225 -61.501211 
L 290.50722 -61.986787 
L 291.905216 -61.046894 
L 293.303212 -61.7417 
L 294.701207 -62.545142 
L 296.099203 -61.392399 
L 297.497199 -66.1238 
L 298.895195 -61.179996 
L 300.29319 -61.681985 
L 301.691186 -61.365069 
L 303.089182 -60.3608 
L 304.487177 -61.472035 
L 305.885173 -59.733089 
L 307.283169 -59.952762 
L 308.681165 -59.52566 
L 310.07916 -60.213404 
L 311.477156 -59.530075 
L 312.875152 -59.716006 
L 314.273147 -59.028578 
L 315.671143 -63.503034 
L 317.069139 -62.996744 
L 318.467134 -63.809567 
L 319.86513 -58.859205 
L 321.263126 -57.867054 
L 322.661122 -60.847456 
L 324.059117 -60.734572 
L 325.457113 -60.302776 
L 326.855109 -61.210187 
L 328.253104 -61.542532 
L 329.6511 -60.992047 
L 331.049096 -58.677438 
L 332.447092 -58.162165 
L 333.845087 -61.597168 
L 335.243083 -61.131544 
L 336.641079 -61.742676 
L 338.039074 -57.254827 
L 339.43707 -57.593564 
L 340.835066 -58.232944 
L 342.233061 -58.532258 
L 343.631057 -58.172725 
L 345.029053 -59.492833 
L 346.427049 -59.13757 
L 347.825044 -59.324018 
L 349.22304 -58.589889 
L 350.621036 -59.380057 
L 352.019031 -60.9745 
L 353.417027 -64.658619 
L 354.815023 -65.448633 
L 356.213019 -65.25545 
L 357.611014 -65.8813 
L 359.00901 -65.017139 
L 360.407006 -68.089767 
L 361.805001 -75.232486 
L 363.202997 -81.728806 
L 364.600993 -81.286116 
L 365.998988 -83.178542 
L 367.396984 -85.714744 
L 368.79498 -87.562348 
L 370.192976 -89.570403 
L 371.590971 -92.033288 
L 372.988967 -97.629685 
L 374.386963 -101.520009 
L 375.784958 -101.953785 
L 377.182954 -105.114311 
L 378.58095 -108.030457 
L 379.978946 -108.610865 
L 381.376941 -121.794374 
L 382.774937 -127.597687 
L 384.172933 -143.467047 
L 385.570928 -137.413286 
L 386.968924 -151.580272 
L 388.36692 -155.157454 
L 389.764915 -158.556227 
L 391.162911 -157.068724 
L 392.560907 -160.350971 
L 393.958903 -167.494691 
L 395.356898 -163.411149 
L 396.754894 -172.011573 
L 398.15289 -171.075711 
L 399.550885 -180.441842 
L 400.948881 -178.358413 
L 402.346877 -179.811733 
L 403.744872 -180.458443 
L 405.142868 -187.918667 
L 406.540864 -191.051875 
L 407.93886 -187.487772 
L 409.336855 -187.506155 
L 410.734851 -189.065513 
L 412.132847 -190.345801 
L 413.530842 -188.432151 
L 414.928838 -160.143695 
L 416.326834 -172.715108 
L 417.72483 -174.272292 
L 417.72483 -160.520898 
L 417.72483 -160.520898 
L 416.326834 -159.142239 
L 414.928838 -148.270493 
L 413.530842 -174.280991 
L 412.132847 -176.334383 
L 410.734851 -176.636212 
L 409.336855 -172.656124 
L 407.93886 -172.982828 
L 406.540864 -176.732825 
L 405.142868 -173.324591 
L 403.744872 -166.717934 
L 402.346877 -165.934511 
L 400.948881 -165.316488 
L 399.550885 -165.446277 
L 398.15289 -157.119941 
L 396.754894 -157.889887 
L 395.356898 -149.9748 
L 393.958903 -155.163486 
L 392.560907 -147.049601 
L 391.162911 -145.136655 
L 389.764915 -144.708425 
L 388.36692 -142.423411 
L 386.968924 -139.346951 
L 385.570928 -126.43319 
L 384.172933 -130.767612 
L 382.774937 -115.468005 
L 381.376941 -110.002212 
L 379.978946 -98.43789 
L 378.58095 -96.888255 
L 377.182954 -95.194827 
L 375.784958 -93.106734 
L 374.386963 -91.681023 
L 372.988967 -89.20398 
L 371.590971 -81.558158 
L 370.192976 -81.254261 
L 368.79498 -78.671231 
L 367.396984 -78.18758 
L 365.998988 -74.656497 
L 364.600993 -72.99206 
L 363.202997 -73.792 
L 361.805001 -67.103564 
L 360.407006 -61.788146 
L 359.00901 -59.871492 
L 357.611014 -59.649129 
L 356.213019 -60.16619 
L 354.815023 -58.997571 
L 353.417027 -59.01523 
L 352.019031 -54.656479 
L 350.621036 -53.309066 
L 349.22304 -53.024653 
L 347.825044 -54.128525 
L 346.427049 -53.676151 
L 345.029053 -53.204657 
L 343.631057 -53.073192 
L 342.233061 -52.673404 
L 340.835066 -52.686632 
L 339.43707 -52.370939 
L 338.039074 -52.073785 
L 336.641079 -54.814211 
L 335.243083 -55.196399 
L 333.845087 -55.385107 
L 332.447092 -53.118338 
L 331.049096 -52.672137 
L 329.6511 -54.106162 
L 328.253104 -55.175298 
L 326.855109 -54.693946 
L 325.457113 -54.773844 
L 324.059117 -55.408107 
L 322.661122 -54.502503 
L 321.263126 -52.591491 
L 319.86513 -52.669381 
L 318.467134 -56.593168 
L 317.069139 -56.537633 
L 315.671143 -56.704317 
L 314.273147 -53.406386 
L 312.875152 -53.828042 
L 311.477156 -54.142065 
L 310.07916 -53.680288 
L 308.681165 -53.735498 
L 307.283169 -54.119287 
L 305.885173 -54.510338 
L 304.487177 -55.242746 
L 303.089182 -54.002066 
L 301.691186 -55.968884 
L 300.29319 -55.866826 
L 298.895195 -55.422596 
L 297.497199 -59.712241 
L 296.099203 -55.467399 
L 294.701207 -55.69055 
L 293.303212 -56.42061 
L 291.905216 -55.94014 
L 290.50722 -56.032835 
L 289.109225 -55.308829 
L 287.711229 -55.265484 
L 286.313233 -60.211369 
L 284.915238 -60.259022 
L 283.517242 -60.916787 
L 282.119246 -56.013024 
L 280.72125 -60.062684 
L 279.323255 -64.450308 
L 277.925259 -59.774805 
L 276.527263 -59.595736 
L 275.129268 -63.425683 
L 273.731272 -65.379722 
L 272.333276 -64.221646 
L 270.935281 -64.800767 
L 269.537285 -63.393795 
L 268.139289 -65.065797 
L 266.741293 -64.077126 
L 265.343298 -64.135529 
L 263.945302 -64.197782 
L 262.547306 -66.985173 
L 261.149311 -66.753919 
L 259.751315 -67.926461 
L 258.353319 -67.801641 
L 256.955323 -68.182168 
L 255.557328 -68.046761 
L 254.159332 -68.490933 
L 252.761336 -77.526118 
L 251.363341 -79.225597 
L 249.965345 -81.575849 
L 248.567349 -86.590141 
L 247.169354 -82.642987 
L 245.771358 -86.382445 
L 244.373362 -86.714454 
L 242.975366 -90.275983 
L 241.577371 -92.871812 
L 240.179375 -94.803803 
L 238.781379 -102.556264 
L 237.383384 -102.53208 
L 235.985388 -103.431039 
L 234.587392 -108.373282 
L 233.189396 -116.830324 
L 231.791401 -108.194307 
L 230.393405 -117.342725 
L 228.995409 -118.869138 
L 227.597414 -118.863264 
L 226.199418 -119.99803 
L 224.801422 -111.486475 
L 223.403427 -113.484591 
L 222.005431 -119.836916 
L 220.607435 -118.662484 
L 219.209439 -121.629726 
L 217.811444 -120.437341 
L 216.413448 -121.285855 
L 215.015452 -114.333982 
L 213.617457 -122.016266 
L 212.219461 -123.308312 
L 210.821465 -124.982562 
L 209.423469 -126.269051 
L 208.025474 -126.385055 
L 206.627478 -125.804079 
L 205.229482 -126.256382 
L 203.831487 -127.785819 
L 202.433491 -130.322124 
L 201.035495 -128.456071 
L 199.6375 -121.004792 
L 198.239504 -135.511586 
L 196.841508 -133.246747 
L 195.443512 -130.164478 
L 194.045517 -130.385601 
L 192.647521 -122.495218 
L 191.249525 -113.159821 
L 189.85153 -111.032464 
L 188.453534 -113.838654 
L 187.055538 -113.162904 
L 185.657543 -112.922977 
L 184.259547 -103.192051 
L 182.861551 -102.154152 
L 181.463555 -102.363531 
L 180.06556 -99.301269 
L 178.667564 -102.965989 
L 177.269568 -98.883266 
L 175.871573 -98.736424 
L 174.473577 -93.550307 
L 173.075581 -93.07896 
L 171.677585 -92.056626 
L 170.27959 -93.25893 
L 168.881594 -90.261987 
L 167.483598 -91.495234 
L 166.085603 -91.79791 
L 164.687607 -96.19272 
L 163.289611 -91.751759 
L 161.891616 -92.720194 
L 160.49362 -90.661775 
L 159.095624 -90.742476 
L 157.697628 -93.053477 
L 156.299633 -91.61178 
L 154.901637 -87.26182 
L 153.503641 -86.593449 
L 152.105646 -86.191294 
L 150.70765 -85.552158 
L 149.309654 -90.100621 
L 147.911658 -86.229908 
L 146.513663 -83.856843 
L 145.115667 -81.894624 
L 143.717671 -81.828294 
L 142.319676 -81.701051 
L 140.92168 -84.654057 
L 139.523684 -85.090127 
L 138.125689 -78.900252 
L 136.727693 -79.287483 
L 135.329697 -73.425022 
L 133.931701 -67.622774 
L 132.533706 -67.253364 
L 131.13571 -63.528398 
L 129.737714 -66.834945 
L 128.339719 -68.405123 
L 126.941723 -69.275702 
L 125.543727 -69.107204 
L 124.145731 -77.791275 
L 122.747736 -77.120004 
L 121.34974 -74.219354 
L 119.951744 -77.093398 
L 118.553749 -76.989269 
L 117.155753 -77.96487 
L 115.757757 -76.702479 
L 114.359762 -77.88321 
L 112.961766 -69.477765 
L 111.56377 -62.45611 
L 110.165774 -69.85279 
L 108.767779 -65.475216 
L 107.369783 -57.316807 
L 105.971787 -57.545965 
L 104.573792 -57.196854 
L 103.175796 -57.226212 
L 101.7778 -56.507763 
L 100.379804 -55.751996 
L 98.981809 -56.517233 
L 97.583813 -55.054653 
L 96.185817 -55.034146 
L 94.787822 -54.98155 
L 93.389826 -55.333572 
L 91.99183 -55.437287 
L 90.593835 -54.312633 
L 89.195839 -54.268115 
L 87.797843 -53.370104 
L 86.399847 -53.873341 
L 85.001852 -50.482124 
L 83.603856 -47.020148 
L 82.20586 -47.110018 
L 80.807865 -47.025355 
L 79.409869 -46.919972 
L 78.011873 -46.895949 
L 76.613878 -46.751509 
L 75.215882 -47.164506 
L 73.817886 -47.097897 
L 72.41989 -45.892338 
L 71.021895 -46.655712 
L 69.623899 -43.103056 
L 68.225903 -42.13177 
L 66.827908 -41.507608 
L 65.429912 -42.343828 
L 64.031916 -42.714266 
L 62.63392 -41.160925 
z
" style="stroke: #0db14b; stroke-opacity: 0.5; stroke-width: 0.5"/>
    </defs>
    <g clip-path="url(#p45bea67ffb)">
     <use xlink:href="#m301f9d97dd" x="0" y="198.611875" style="fill: #0db14b; fill-opacity: 0.5; stroke: #0db14b; stroke-opacity: 0.5; stroke-width: 0.5"/>
    </g>
   </g>
   <g id="line2d_23">
    <path d="M 62.63392 155.590926 
L 64.031916 153.959552 
L 65.429912 154.454715 
L 66.827908 155.238324 
L 68.225903 154.723634 
L 69.623899 153.315664 
L 71.021895 149.916668 
L 72.41989 150.458355 
L 73.817886 149.501259 
L 75.215882 149.370223 
L 76.613878 149.468127 
L 78.011873 149.32532 
L 79.409869 149.323404 
L 80.807865 149.136478 
L 82.20586 149.335812 
L 83.603856 149.388397 
L 85.001852 145.325915 
L 86.399847 141.646553 
L 87.797843 142.145139 
L 89.195839 141.300485 
L 90.593835 141.496488 
L 91.99183 140.142793 
L 94.787822 140.816792 
L 96.185817 140.588371 
L 97.583813 140.18598 
L 98.981809 139.077669 
L 100.379804 139.635471 
L 101.7778 138.887914 
L 103.175796 138.451873 
L 104.573792 138.429744 
L 105.971787 138.048557 
L 107.369783 138.433568 
L 108.767779 129.850198 
L 110.165774 125.265323 
L 111.56377 132.533149 
L 112.961766 125.863379 
L 114.359762 116.422771 
L 115.757757 118.213354 
L 117.155753 117.043353 
L 118.553749 117.741448 
L 119.951744 117.974602 
L 121.34974 119.936607 
L 122.747736 117.604202 
L 124.145731 116.665127 
L 125.543727 125.715886 
L 126.941723 125.475987 
L 128.339719 126.520196 
L 129.737714 128.443408 
L 131.13571 132.053605 
L 132.533706 127.693652 
L 133.931701 127.444932 
L 136.727693 115.278693 
L 138.125689 115.367571 
L 139.523684 109.457907 
L 140.92168 109.489876 
L 142.319676 113.31516 
L 143.717671 112.656049 
L 145.115667 111.483832 
L 146.513663 110.638224 
L 147.911658 108.055934 
L 149.309654 103.381443 
L 150.70765 107.890654 
L 152.105646 107.80375 
L 153.503641 106.422805 
L 154.901637 106.156641 
L 156.299633 101.919073 
L 157.697628 99.952178 
L 159.095624 102.105637 
L 160.49362 102.331835 
L 161.891616 100.284348 
L 163.289611 101.78778 
L 164.687607 96.272759 
L 166.085603 100.678518 
L 167.483598 101.18494 
L 168.881594 102.222762 
L 170.27959 99.160123 
L 171.677585 100.727159 
L 173.075581 99.685217 
L 174.473577 99.079172 
L 175.871573 93.131547 
L 177.269568 93.434438 
L 178.667564 89.998294 
L 180.06556 93.156152 
L 181.463555 90.397746 
L 182.861551 90.739929 
L 184.259547 89.293557 
L 185.657543 79.814216 
L 187.055538 79.018464 
L 188.453534 79.486712 
L 189.85153 81.530457 
L 191.249525 79.439882 
L 192.647521 69.217358 
L 194.045517 61.306735 
L 195.443512 62.184056 
L 196.841508 58.366467 
L 198.239504 56.264104 
L 199.6375 70.568056 
L 201.035495 63.757094 
L 202.433491 61.832106 
L 203.831487 64.570493 
L 205.229482 66.037357 
L 206.627478 65.616528 
L 208.025474 66.955313 
L 209.423469 65.529172 
L 210.821465 67.362448 
L 212.219461 69.497291 
L 213.617457 71.145045 
L 215.015452 78.227873 
L 216.413448 72.312425 
L 217.811444 71.885333 
L 219.209439 70.694361 
L 220.607435 73.44088 
L 222.005431 73.324805 
L 223.403427 79.940505 
L 224.801422 81.740609 
L 226.199418 72.957902 
L 227.597414 74.144151 
L 228.995409 74.189839 
L 230.393405 75.081651 
L 231.791401 84.731822 
L 233.189396 76.085077 
L 234.587392 84.765162 
L 235.985388 89.236357 
L 237.383384 90.229954 
L 238.781379 90.697621 
L 240.179375 98.452125 
L 241.577371 100.375626 
L 242.975366 103.884182 
L 244.373362 106.098536 
L 245.771358 107.508196 
L 247.169354 111.680168 
L 248.567349 106.864447 
L 249.965345 112.76709 
L 251.363341 114.743626 
L 252.761336 117.175501 
L 254.159332 126.573569 
L 255.557328 126.836945 
L 256.955323 126.936472 
L 258.353319 127.654857 
L 259.751315 127.088122 
L 261.149311 128.165288 
L 262.547306 127.951674 
L 263.945302 130.992735 
L 266.741293 131.149299 
L 268.139289 129.703397 
L 269.537285 130.721952 
L 270.935281 130.516051 
L 272.333276 131.001161 
L 273.731272 129.981334 
L 275.129268 131.055832 
L 276.527263 135.379593 
L 277.925259 135.063148 
L 279.323255 130.110248 
L 280.72125 135.268112 
L 282.119246 139.499759 
L 283.517242 134.387467 
L 284.915238 134.622288 
L 286.313233 134.551132 
L 287.711229 140.109634 
L 289.109225 140.206855 
L 290.50722 139.602064 
L 291.905216 140.118358 
L 293.303212 139.53072 
L 294.701207 139.494029 
L 296.099203 140.181976 
L 297.497199 135.693854 
L 298.895195 140.310579 
L 300.29319 139.837469 
L 301.691186 139.944898 
L 303.089182 141.430442 
L 304.487177 140.254484 
L 305.885173 141.490162 
L 307.283169 141.57585 
L 308.681165 141.981296 
L 310.07916 141.665029 
L 312.875152 141.839851 
L 314.273147 142.394393 
L 315.671143 138.508199 
L 317.069139 138.844686 
L 318.467134 138.410508 
L 319.86513 142.847582 
L 321.263126 143.382602 
L 322.661122 140.936895 
L 324.059117 140.540535 
L 325.457113 141.073565 
L 328.253104 140.25296 
L 329.6511 141.062771 
L 331.049096 142.937088 
L 332.447092 142.971623 
L 333.845087 140.120737 
L 335.243083 140.447904 
L 336.641079 140.333432 
L 338.039074 143.947569 
L 339.43707 143.629623 
L 340.835066 143.152087 
L 342.233061 143.009044 
L 343.631057 142.988917 
L 345.029053 142.26313 
L 346.427049 142.205014 
L 347.825044 141.885603 
L 349.22304 142.804604 
L 350.621036 142.267313 
L 352.019031 140.796386 
L 353.417027 136.77495 
L 356.213019 135.901055 
L 357.611014 135.846661 
L 359.00901 136.16756 
L 360.407006 133.672919 
L 363.202997 120.851472 
L 364.600993 121.472787 
L 365.998988 119.694356 
L 367.396984 116.660713 
L 368.79498 115.495086 
L 370.192976 113.199543 
L 371.590971 111.816152 
L 372.988967 105.195042 
L 374.386963 102.011359 
L 375.784958 101.081615 
L 377.182954 98.457306 
L 378.58095 96.152519 
L 379.978946 95.087497 
L 381.376941 82.713582 
L 382.774937 77.079029 
L 384.172933 61.494546 
L 385.570928 66.688637 
L 386.968924 53.148264 
L 388.36692 49.821443 
L 389.764915 46.979549 
L 391.162911 47.509185 
L 392.560907 44.911589 
L 393.958903 37.282787 
L 395.356898 41.9189 
L 396.754894 33.661145 
L 398.15289 34.514049 
L 399.550885 25.667816 
L 400.948881 26.774424 
L 402.346877 25.738753 
L 403.744872 25.023686 
L 405.142868 17.990246 
L 406.540864 14.719525 
L 407.93886 18.376575 
L 409.336855 18.530735 
L 410.734851 15.761012 
L 412.132847 15.271783 
L 413.530842 17.255304 
L 414.928838 44.404781 
L 416.326834 32.683201 
L 417.72483 31.21528 
L 417.72483 31.21528 
" clip-path="url(#p45bea67ffb)" style="fill: none; stroke: #0db14b; stroke-width: 3; stroke-linecap: square"/>
    <defs>
     <path id="m7cd6390ce6" d="M 0 1.5 
C 0.397805 1.5 0.77937 1.341951 1.06066 1.06066 
C 1.341951 0.77937 1.5 0.397805 1.5 0 
C 1.5 -0.397805 1.341951 -0.77937 1.06066 -1.06066 
C 0.77937 -1.341951 0.397805 -1.5 0 -1.5 
C -0.397805 -1.5 -0.77937 -1.341951 -1.06066 -1.06066 
C -1.341951 -0.77937 -1.5 -0.397805 -1.5 0 
C -1.5 0.397805 -1.341951 0.77937 -1.06066 1.06066 
C -0.77937 1.341951 -0.397805 1.5 0 1.5 
z
" style="stroke: #0db14b"/>
    </defs>
    <g clip-path="url(#p45bea67ffb)">
     <use xlink:href="#m7cd6390ce6" x="62.63392" y="155.590926" style="fill: #0db14b; stroke: #0db14b"/>
     <use xlink:href="#m7cd6390ce6" x="64.031916" y="153.959552" style="fill: #0db14b; stroke: #0db14b"/>
     <use xlink:href="#m7cd6390ce6" x="65.429912" y="154.454715" style="fill: #0db14b; stroke: #0db14b"/>
     <use xlink:href="#m7cd6390ce6" x="66.827908" y="155.238324" style="fill: #0db14b; stroke: #0db14b"/>
     <use xlink:href="#m7cd6390ce6" x="68.225903" y="154.723634" style="fill: #0db14b; stroke: #0db14b"/>
     <use xlink:href="#m7cd6390ce6" x="69.623899" y="153.315664" style="fill: #0db14b; stroke: #0db14b"/>
     <use xlink:href="#m7cd6390ce6" x="71.021895" y="149.916668" style="fill: #0db14b; stroke: #0db14b"/>
     <use xlink:href="#m7cd6390ce6" x="72.41989" y="150.458355" style="fill: #0db14b; stroke: #0db14b"/>
     <use xlink:href="#m7cd6390ce6" x="73.817886" y="149.501259" style="fill: #0db14b; stroke: #0db14b"/>
     <use xlink:href="#m7cd6390ce6" x="75.215882" y="149.370223" style="fill: #0db14b; stroke: #0db14b"/>
     <use xlink:href="#m7cd6390ce6" x="76.613878" y="149.468127" style="fill: #0db14b; stroke: #0db14b"/>
     <use xlink:href="#m7cd6390ce6" x="78.011873" y="149.32532" style="fill: #0db14b; stroke: #0db14b"/>
     <use xlink:href="#m7cd6390ce6" x="79.409869" y="149.323404" style="fill: #0db14b; stroke: #0db14b"/>
     <use xlink:href="#m7cd6390ce6" x="80.807865" y="149.136478" style="fill: #0db14b; stroke: #0db14b"/>
     <use xlink:href="#m7cd6390ce6" x="82.20586" y="149.335812" style="fill: #0db14b; stroke: #0db14b"/>
     <use xlink:href="#m7cd6390ce6" x="83.603856" y="149.388397" style="fill: #0db14b; stroke: #0db14b"/>
     <use xlink:href="#m7cd6390ce6" x="85.001852" y="145.325915" style="fill: #0db14b; stroke: #0db14b"/>
     <use xlink:href="#m7cd6390ce6" x="86.399847" y="141.646553" style="fill: #0db14b; stroke: #0db14b"/>
     <use xlink:href="#m7cd6390ce6" x="87.797843" y="142.145139" style="fill: #0db14b; stroke: #0db14b"/>
     <use xlink:href="#m7cd6390ce6" x="89.195839" y="141.300485" style="fill: #0db14b; stroke: #0db14b"/>
     <use xlink:href="#m7cd6390ce6" x="90.593835" y="141.496488" style="fill: #0db14b; stroke: #0db14b"/>
     <use xlink:href="#m7cd6390ce6" x="91.99183" y="140.142793" style="fill: #0db14b; stroke: #0db14b"/>
     <use xlink:href="#m7cd6390ce6" x="93.389826" y="140.450615" style="fill: #0db14b; stroke: #0db14b"/>
     <use xlink:href="#m7cd6390ce6" x="94.787822" y="140.816792" style="fill: #0db14b; stroke: #0db14b"/>
     <use xlink:href="#m7cd6390ce6" x="96.185817" y="140.588371" style="fill: #0db14b; stroke: #0db14b"/>
     <use xlink:href="#m7cd6390ce6" x="97.583813" y="140.18598" style="fill: #0db14b; stroke: #0db14b"/>
     <use xlink:href="#m7cd6390ce6" x="98.981809" y="139.077669" style="fill: #0db14b; stroke: #0db14b"/>
     <use xlink:href="#m7cd6390ce6" x="100.379804" y="139.635471" style="fill: #0db14b; stroke: #0db14b"/>
     <use xlink:href="#m7cd6390ce6" x="101.7778" y="138.887914" style="fill: #0db14b; stroke: #0db14b"/>
     <use xlink:href="#m7cd6390ce6" x="103.175796" y="138.451873" style="fill: #0db14b; stroke: #0db14b"/>
     <use xlink:href="#m7cd6390ce6" x="104.573792" y="138.429744" style="fill: #0db14b; stroke: #0db14b"/>
     <use xlink:href="#m7cd6390ce6" x="105.971787" y="138.048557" style="fill: #0db14b; stroke: #0db14b"/>
     <use xlink:href="#m7cd6390ce6" x="107.369783" y="138.433568" style="fill: #0db14b; stroke: #0db14b"/>
     <use xlink:href="#m7cd6390ce6" x="108.767779" y="129.850198" style="fill: #0db14b; stroke: #0db14b"/>
     <use xlink:href="#m7cd6390ce6" x="110.165774" y="125.265323" style="fill: #0db14b; stroke: #0db14b"/>
     <use xlink:href="#m7cd6390ce6" x="111.56377" y="132.533149" style="fill: #0db14b; stroke: #0db14b"/>
     <use xlink:href="#m7cd6390ce6" x="112.961766" y="125.863379" style="fill: #0db14b; stroke: #0db14b"/>
     <use xlink:href="#m7cd6390ce6" x="114.359762" y="116.422771" style="fill: #0db14b; stroke: #0db14b"/>
     <use xlink:href="#m7cd6390ce6" x="115.757757" y="118.213354" style="fill: #0db14b; stroke: #0db14b"/>
     <use xlink:href="#m7cd6390ce6" x="117.155753" y="117.043353" style="fill: #0db14b; stroke: #0db14b"/>
     <use xlink:href="#m7cd6390ce6" x="118.553749" y="117.741448" style="fill: #0db14b; stroke: #0db14b"/>
     <use xlink:href="#m7cd6390ce6" x="119.951744" y="117.974602" style="fill: #0db14b; stroke: #0db14b"/>
     <use xlink:href="#m7cd6390ce6" x="121.34974" y="119.936607" style="fill: #0db14b; stroke: #0db14b"/>
     <use xlink:href="#m7cd6390ce6" x="122.747736" y="117.604202" style="fill: #0db14b; stroke: #0db14b"/>
     <use xlink:href="#m7cd6390ce6" x="124.145731" y="116.665127" style="fill: #0db14b; stroke: #0db14b"/>
     <use xlink:href="#m7cd6390ce6" x="125.543727" y="125.715886" style="fill: #0db14b; stroke: #0db14b"/>
     <use xlink:href="#m7cd6390ce6" x="126.941723" y="125.475987" style="fill: #0db14b; stroke: #0db14b"/>
     <use xlink:href="#m7cd6390ce6" x="128.339719" y="126.520196" style="fill: #0db14b; stroke: #0db14b"/>
     <use xlink:href="#m7cd6390ce6" x="129.737714" y="128.443408" style="fill: #0db14b; stroke: #0db14b"/>
     <use xlink:href="#m7cd6390ce6" x="131.13571" y="132.053605" style="fill: #0db14b; stroke: #0db14b"/>
     <use xlink:href="#m7cd6390ce6" x="132.533706" y="127.693652" style="fill: #0db14b; stroke: #0db14b"/>
     <use xlink:href="#m7cd6390ce6" x="133.931701" y="127.444932" style="fill: #0db14b; stroke: #0db14b"/>
     <use xlink:href="#m7cd6390ce6" x="135.329697" y="121.537831" style="fill: #0db14b; stroke: #0db14b"/>
     <use xlink:href="#m7cd6390ce6" x="136.727693" y="115.278693" style="fill: #0db14b; stroke: #0db14b"/>
     <use xlink:href="#m7cd6390ce6" x="138.125689" y="115.367571" style="fill: #0db14b; stroke: #0db14b"/>
     <use xlink:href="#m7cd6390ce6" x="139.523684" y="109.457907" style="fill: #0db14b; stroke: #0db14b"/>
     <use xlink:href="#m7cd6390ce6" x="140.92168" y="109.489876" style="fill: #0db14b; stroke: #0db14b"/>
     <use xlink:href="#m7cd6390ce6" x="142.319676" y="113.31516" style="fill: #0db14b; stroke: #0db14b"/>
     <use xlink:href="#m7cd6390ce6" x="143.717671" y="112.656049" style="fill: #0db14b; stroke: #0db14b"/>
     <use xlink:href="#m7cd6390ce6" x="145.115667" y="111.483832" style="fill: #0db14b; stroke: #0db14b"/>
     <use xlink:href="#m7cd6390ce6" x="146.513663" y="110.638224" style="fill: #0db14b; stroke: #0db14b"/>
     <use xlink:href="#m7cd6390ce6" x="147.911658" y="108.055934" style="fill: #0db14b; stroke: #0db14b"/>
     <use xlink:href="#m7cd6390ce6" x="149.309654" y="103.381443" style="fill: #0db14b; stroke: #0db14b"/>
     <use xlink:href="#m7cd6390ce6" x="150.70765" y="107.890654" style="fill: #0db14b; stroke: #0db14b"/>
     <use xlink:href="#m7cd6390ce6" x="152.105646" y="107.80375" style="fill: #0db14b; stroke: #0db14b"/>
     <use xlink:href="#m7cd6390ce6" x="153.503641" y="106.422805" style="fill: #0db14b; stroke: #0db14b"/>
     <use xlink:href="#m7cd6390ce6" x="154.901637" y="106.156641" style="fill: #0db14b; stroke: #0db14b"/>
     <use xlink:href="#m7cd6390ce6" x="156.299633" y="101.919073" style="fill: #0db14b; stroke: #0db14b"/>
     <use xlink:href="#m7cd6390ce6" x="157.697628" y="99.952178" style="fill: #0db14b; stroke: #0db14b"/>
     <use xlink:href="#m7cd6390ce6" x="159.095624" y="102.105637" style="fill: #0db14b; stroke: #0db14b"/>
     <use xlink:href="#m7cd6390ce6" x="160.49362" y="102.331835" style="fill: #0db14b; stroke: #0db14b"/>
     <use xlink:href="#m7cd6390ce6" x="161.891616" y="100.284348" style="fill: #0db14b; stroke: #0db14b"/>
     <use xlink:href="#m7cd6390ce6" x="163.289611" y="101.78778" style="fill: #0db14b; stroke: #0db14b"/>
     <use xlink:href="#m7cd6390ce6" x="164.687607" y="96.272759" style="fill: #0db14b; stroke: #0db14b"/>
     <use xlink:href="#m7cd6390ce6" x="166.085603" y="100.678518" style="fill: #0db14b; stroke: #0db14b"/>
     <use xlink:href="#m7cd6390ce6" x="167.483598" y="101.18494" style="fill: #0db14b; stroke: #0db14b"/>
     <use xlink:href="#m7cd6390ce6" x="168.881594" y="102.222762" style="fill: #0db14b; stroke: #0db14b"/>
     <use xlink:href="#m7cd6390ce6" x="170.27959" y="99.160123" style="fill: #0db14b; stroke: #0db14b"/>
     <use xlink:href="#m7cd6390ce6" x="171.677585" y="100.727159" style="fill: #0db14b; stroke: #0db14b"/>
     <use xlink:href="#m7cd6390ce6" x="173.075581" y="99.685217" style="fill: #0db14b; stroke: #0db14b"/>
     <use xlink:href="#m7cd6390ce6" x="174.473577" y="99.079172" style="fill: #0db14b; stroke: #0db14b"/>
     <use xlink:href="#m7cd6390ce6" x="175.871573" y="93.131547" style="fill: #0db14b; stroke: #0db14b"/>
     <use xlink:href="#m7cd6390ce6" x="177.269568" y="93.434438" style="fill: #0db14b; stroke: #0db14b"/>
     <use xlink:href="#m7cd6390ce6" x="178.667564" y="89.998294" style="fill: #0db14b; stroke: #0db14b"/>
     <use xlink:href="#m7cd6390ce6" x="180.06556" y="93.156152" style="fill: #0db14b; stroke: #0db14b"/>
     <use xlink:href="#m7cd6390ce6" x="181.463555" y="90.397746" style="fill: #0db14b; stroke: #0db14b"/>
     <use xlink:href="#m7cd6390ce6" x="182.861551" y="90.739929" style="fill: #0db14b; stroke: #0db14b"/>
     <use xlink:href="#m7cd6390ce6" x="184.259547" y="89.293557" style="fill: #0db14b; stroke: #0db14b"/>
     <use xlink:href="#m7cd6390ce6" x="185.657543" y="79.814216" style="fill: #0db14b; stroke: #0db14b"/>
     <use xlink:href="#m7cd6390ce6" x="187.055538" y="79.018464" style="fill: #0db14b; stroke: #0db14b"/>
     <use xlink:href="#m7cd6390ce6" x="188.453534" y="79.486712" style="fill: #0db14b; stroke: #0db14b"/>
     <use xlink:href="#m7cd6390ce6" x="189.85153" y="81.530457" style="fill: #0db14b; stroke: #0db14b"/>
     <use xlink:href="#m7cd6390ce6" x="191.249525" y="79.439882" style="fill: #0db14b; stroke: #0db14b"/>
     <use xlink:href="#m7cd6390ce6" x="192.647521" y="69.217358" style="fill: #0db14b; stroke: #0db14b"/>
     <use xlink:href="#m7cd6390ce6" x="194.045517" y="61.306735" style="fill: #0db14b; stroke: #0db14b"/>
     <use xlink:href="#m7cd6390ce6" x="195.443512" y="62.184056" style="fill: #0db14b; stroke: #0db14b"/>
     <use xlink:href="#m7cd6390ce6" x="196.841508" y="58.366467" style="fill: #0db14b; stroke: #0db14b"/>
     <use xlink:href="#m7cd6390ce6" x="198.239504" y="56.264104" style="fill: #0db14b; stroke: #0db14b"/>
     <use xlink:href="#m7cd6390ce6" x="199.6375" y="70.568056" style="fill: #0db14b; stroke: #0db14b"/>
     <use xlink:href="#m7cd6390ce6" x="201.035495" y="63.757094" style="fill: #0db14b; stroke: #0db14b"/>
     <use xlink:href="#m7cd6390ce6" x="202.433491" y="61.832106" style="fill: #0db14b; stroke: #0db14b"/>
     <use xlink:href="#m7cd6390ce6" x="203.831487" y="64.570493" style="fill: #0db14b; stroke: #0db14b"/>
     <use xlink:href="#m7cd6390ce6" x="205.229482" y="66.037357" style="fill: #0db14b; stroke: #0db14b"/>
     <use xlink:href="#m7cd6390ce6" x="206.627478" y="65.616528" style="fill: #0db14b; stroke: #0db14b"/>
     <use xlink:href="#m7cd6390ce6" x="208.025474" y="66.955313" style="fill: #0db14b; stroke: #0db14b"/>
     <use xlink:href="#m7cd6390ce6" x="209.423469" y="65.529172" style="fill: #0db14b; stroke: #0db14b"/>
     <use xlink:href="#m7cd6390ce6" x="210.821465" y="67.362448" style="fill: #0db14b; stroke: #0db14b"/>
     <use xlink:href="#m7cd6390ce6" x="212.219461" y="69.497291" style="fill: #0db14b; stroke: #0db14b"/>
     <use xlink:href="#m7cd6390ce6" x="213.617457" y="71.145045" style="fill: #0db14b; stroke: #0db14b"/>
     <use xlink:href="#m7cd6390ce6" x="215.015452" y="78.227873" style="fill: #0db14b; stroke: #0db14b"/>
     <use xlink:href="#m7cd6390ce6" x="216.413448" y="72.312425" style="fill: #0db14b; stroke: #0db14b"/>
     <use xlink:href="#m7cd6390ce6" x="217.811444" y="71.885333" style="fill: #0db14b; stroke: #0db14b"/>
     <use xlink:href="#m7cd6390ce6" x="219.209439" y="70.694361" style="fill: #0db14b; stroke: #0db14b"/>
     <use xlink:href="#m7cd6390ce6" x="220.607435" y="73.44088" style="fill: #0db14b; stroke: #0db14b"/>
     <use xlink:href="#m7cd6390ce6" x="222.005431" y="73.324805" style="fill: #0db14b; stroke: #0db14b"/>
     <use xlink:href="#m7cd6390ce6" x="223.403427" y="79.940505" style="fill: #0db14b; stroke: #0db14b"/>
     <use xlink:href="#m7cd6390ce6" x="224.801422" y="81.740609" style="fill: #0db14b; stroke: #0db14b"/>
     <use xlink:href="#m7cd6390ce6" x="226.199418" y="72.957902" style="fill: #0db14b; stroke: #0db14b"/>
     <use xlink:href="#m7cd6390ce6" x="227.597414" y="74.144151" style="fill: #0db14b; stroke: #0db14b"/>
     <use xlink:href="#m7cd6390ce6" x="228.995409" y="74.189839" style="fill: #0db14b; stroke: #0db14b"/>
     <use xlink:href="#m7cd6390ce6" x="230.393405" y="75.081651" style="fill: #0db14b; stroke: #0db14b"/>
     <use xlink:href="#m7cd6390ce6" x="231.791401" y="84.731822" style="fill: #0db14b; stroke: #0db14b"/>
     <use xlink:href="#m7cd6390ce6" x="233.189396" y="76.085077" style="fill: #0db14b; stroke: #0db14b"/>
     <use xlink:href="#m7cd6390ce6" x="234.587392" y="84.765162" style="fill: #0db14b; stroke: #0db14b"/>
     <use xlink:href="#m7cd6390ce6" x="235.985388" y="89.236357" style="fill: #0db14b; stroke: #0db14b"/>
     <use xlink:href="#m7cd6390ce6" x="237.383384" y="90.229954" style="fill: #0db14b; stroke: #0db14b"/>
     <use xlink:href="#m7cd6390ce6" x="238.781379" y="90.697621" style="fill: #0db14b; stroke: #0db14b"/>
     <use xlink:href="#m7cd6390ce6" x="240.179375" y="98.452125" style="fill: #0db14b; stroke: #0db14b"/>
     <use xlink:href="#m7cd6390ce6" x="241.577371" y="100.375626" style="fill: #0db14b; stroke: #0db14b"/>
     <use xlink:href="#m7cd6390ce6" x="242.975366" y="103.884182" style="fill: #0db14b; stroke: #0db14b"/>
     <use xlink:href="#m7cd6390ce6" x="244.373362" y="106.098536" style="fill: #0db14b; stroke: #0db14b"/>
     <use xlink:href="#m7cd6390ce6" x="245.771358" y="107.508196" style="fill: #0db14b; stroke: #0db14b"/>
     <use xlink:href="#m7cd6390ce6" x="247.169354" y="111.680168" style="fill: #0db14b; stroke: #0db14b"/>
     <use xlink:href="#m7cd6390ce6" x="248.567349" y="106.864447" style="fill: #0db14b; stroke: #0db14b"/>
     <use xlink:href="#m7cd6390ce6" x="249.965345" y="112.76709" style="fill: #0db14b; stroke: #0db14b"/>
     <use xlink:href="#m7cd6390ce6" x="251.363341" y="114.743626" style="fill: #0db14b; stroke: #0db14b"/>
     <use xlink:href="#m7cd6390ce6" x="252.761336" y="117.175501" style="fill: #0db14b; stroke: #0db14b"/>
     <use xlink:href="#m7cd6390ce6" x="254.159332" y="126.573569" style="fill: #0db14b; stroke: #0db14b"/>
     <use xlink:href="#m7cd6390ce6" x="255.557328" y="126.836945" style="fill: #0db14b; stroke: #0db14b"/>
     <use xlink:href="#m7cd6390ce6" x="256.955323" y="126.936472" style="fill: #0db14b; stroke: #0db14b"/>
     <use xlink:href="#m7cd6390ce6" x="258.353319" y="127.654857" style="fill: #0db14b; stroke: #0db14b"/>
     <use xlink:href="#m7cd6390ce6" x="259.751315" y="127.088122" style="fill: #0db14b; stroke: #0db14b"/>
     <use xlink:href="#m7cd6390ce6" x="261.149311" y="128.165288" style="fill: #0db14b; stroke: #0db14b"/>
     <use xlink:href="#m7cd6390ce6" x="262.547306" y="127.951674" style="fill: #0db14b; stroke: #0db14b"/>
     <use xlink:href="#m7cd6390ce6" x="263.945302" y="130.992735" style="fill: #0db14b; stroke: #0db14b"/>
     <use xlink:href="#m7cd6390ce6" x="265.343298" y="131.085919" style="fill: #0db14b; stroke: #0db14b"/>
     <use xlink:href="#m7cd6390ce6" x="266.741293" y="131.149299" style="fill: #0db14b; stroke: #0db14b"/>
     <use xlink:href="#m7cd6390ce6" x="268.139289" y="129.703397" style="fill: #0db14b; stroke: #0db14b"/>
     <use xlink:href="#m7cd6390ce6" x="269.537285" y="130.721952" style="fill: #0db14b; stroke: #0db14b"/>
     <use xlink:href="#m7cd6390ce6" x="270.935281" y="130.516051" style="fill: #0db14b; stroke: #0db14b"/>
     <use xlink:href="#m7cd6390ce6" x="272.333276" y="131.001161" style="fill: #0db14b; stroke: #0db14b"/>
     <use xlink:href="#m7cd6390ce6" x="273.731272" y="129.981334" style="fill: #0db14b; stroke: #0db14b"/>
     <use xlink:href="#m7cd6390ce6" x="275.129268" y="131.055832" style="fill: #0db14b; stroke: #0db14b"/>
     <use xlink:href="#m7cd6390ce6" x="276.527263" y="135.379593" style="fill: #0db14b; stroke: #0db14b"/>
     <use xlink:href="#m7cd6390ce6" x="277.925259" y="135.063148" style="fill: #0db14b; stroke: #0db14b"/>
     <use xlink:href="#m7cd6390ce6" x="279.323255" y="130.110248" style="fill: #0db14b; stroke: #0db14b"/>
     <use xlink:href="#m7cd6390ce6" x="280.72125" y="135.268112" style="fill: #0db14b; stroke: #0db14b"/>
     <use xlink:href="#m7cd6390ce6" x="282.119246" y="139.499759" style="fill: #0db14b; stroke: #0db14b"/>
     <use xlink:href="#m7cd6390ce6" x="283.517242" y="134.387467" style="fill: #0db14b; stroke: #0db14b"/>
     <use xlink:href="#m7cd6390ce6" x="284.915238" y="134.622288" style="fill: #0db14b; stroke: #0db14b"/>
     <use xlink:href="#m7cd6390ce6" x="286.313233" y="134.551132" style="fill: #0db14b; stroke: #0db14b"/>
     <use xlink:href="#m7cd6390ce6" x="287.711229" y="140.109634" style="fill: #0db14b; stroke: #0db14b"/>
     <use xlink:href="#m7cd6390ce6" x="289.109225" y="140.206855" style="fill: #0db14b; stroke: #0db14b"/>
     <use xlink:href="#m7cd6390ce6" x="290.50722" y="139.602064" style="fill: #0db14b; stroke: #0db14b"/>
     <use xlink:href="#m7cd6390ce6" x="291.905216" y="140.118358" style="fill: #0db14b; stroke: #0db14b"/>
     <use xlink:href="#m7cd6390ce6" x="293.303212" y="139.53072" style="fill: #0db14b; stroke: #0db14b"/>
     <use xlink:href="#m7cd6390ce6" x="294.701207" y="139.494029" style="fill: #0db14b; stroke: #0db14b"/>
     <use xlink:href="#m7cd6390ce6" x="296.099203" y="140.181976" style="fill: #0db14b; stroke: #0db14b"/>
     <use xlink:href="#m7cd6390ce6" x="297.497199" y="135.693854" style="fill: #0db14b; stroke: #0db14b"/>
     <use xlink:href="#m7cd6390ce6" x="298.895195" y="140.310579" style="fill: #0db14b; stroke: #0db14b"/>
     <use xlink:href="#m7cd6390ce6" x="300.29319" y="139.837469" style="fill: #0db14b; stroke: #0db14b"/>
     <use xlink:href="#m7cd6390ce6" x="301.691186" y="139.944898" style="fill: #0db14b; stroke: #0db14b"/>
     <use xlink:href="#m7cd6390ce6" x="303.089182" y="141.430442" style="fill: #0db14b; stroke: #0db14b"/>
     <use xlink:href="#m7cd6390ce6" x="304.487177" y="140.254484" style="fill: #0db14b; stroke: #0db14b"/>
     <use xlink:href="#m7cd6390ce6" x="305.885173" y="141.490162" style="fill: #0db14b; stroke: #0db14b"/>
     <use xlink:href="#m7cd6390ce6" x="307.283169" y="141.57585" style="fill: #0db14b; stroke: #0db14b"/>
     <use xlink:href="#m7cd6390ce6" x="308.681165" y="141.981296" style="fill: #0db14b; stroke: #0db14b"/>
     <use xlink:href="#m7cd6390ce6" x="310.07916" y="141.665029" style="fill: #0db14b; stroke: #0db14b"/>
     <use xlink:href="#m7cd6390ce6" x="311.477156" y="141.775805" style="fill: #0db14b; stroke: #0db14b"/>
     <use xlink:href="#m7cd6390ce6" x="312.875152" y="141.839851" style="fill: #0db14b; stroke: #0db14b"/>
     <use xlink:href="#m7cd6390ce6" x="314.273147" y="142.394393" style="fill: #0db14b; stroke: #0db14b"/>
     <use xlink:href="#m7cd6390ce6" x="315.671143" y="138.508199" style="fill: #0db14b; stroke: #0db14b"/>
     <use xlink:href="#m7cd6390ce6" x="317.069139" y="138.844686" style="fill: #0db14b; stroke: #0db14b"/>
     <use xlink:href="#m7cd6390ce6" x="318.467134" y="138.410508" style="fill: #0db14b; stroke: #0db14b"/>
     <use xlink:href="#m7cd6390ce6" x="319.86513" y="142.847582" style="fill: #0db14b; stroke: #0db14b"/>
     <use xlink:href="#m7cd6390ce6" x="321.263126" y="143.382602" style="fill: #0db14b; stroke: #0db14b"/>
     <use xlink:href="#m7cd6390ce6" x="322.661122" y="140.936895" style="fill: #0db14b; stroke: #0db14b"/>
     <use xlink:href="#m7cd6390ce6" x="324.059117" y="140.540535" style="fill: #0db14b; stroke: #0db14b"/>
     <use xlink:href="#m7cd6390ce6" x="325.457113" y="141.073565" style="fill: #0db14b; stroke: #0db14b"/>
     <use xlink:href="#m7cd6390ce6" x="326.855109" y="140.659809" style="fill: #0db14b; stroke: #0db14b"/>
     <use xlink:href="#m7cd6390ce6" x="328.253104" y="140.25296" style="fill: #0db14b; stroke: #0db14b"/>
     <use xlink:href="#m7cd6390ce6" x="329.6511" y="141.062771" style="fill: #0db14b; stroke: #0db14b"/>
     <use xlink:href="#m7cd6390ce6" x="331.049096" y="142.937088" style="fill: #0db14b; stroke: #0db14b"/>
     <use xlink:href="#m7cd6390ce6" x="332.447092" y="142.971623" style="fill: #0db14b; stroke: #0db14b"/>
     <use xlink:href="#m7cd6390ce6" x="333.845087" y="140.120737" style="fill: #0db14b; stroke: #0db14b"/>
     <use xlink:href="#m7cd6390ce6" x="335.243083" y="140.447904" style="fill: #0db14b; stroke: #0db14b"/>
     <use xlink:href="#m7cd6390ce6" x="336.641079" y="140.333432" style="fill: #0db14b; stroke: #0db14b"/>
     <use xlink:href="#m7cd6390ce6" x="338.039074" y="143.947569" style="fill: #0db14b; stroke: #0db14b"/>
     <use xlink:href="#m7cd6390ce6" x="339.43707" y="143.629623" style="fill: #0db14b; stroke: #0db14b"/>
     <use xlink:href="#m7cd6390ce6" x="340.835066" y="143.152087" style="fill: #0db14b; stroke: #0db14b"/>
     <use xlink:href="#m7cd6390ce6" x="342.233061" y="143.009044" style="fill: #0db14b; stroke: #0db14b"/>
     <use xlink:href="#m7cd6390ce6" x="343.631057" y="142.988917" style="fill: #0db14b; stroke: #0db14b"/>
     <use xlink:href="#m7cd6390ce6" x="345.029053" y="142.26313" style="fill: #0db14b; stroke: #0db14b"/>
     <use xlink:href="#m7cd6390ce6" x="346.427049" y="142.205014" style="fill: #0db14b; stroke: #0db14b"/>
     <use xlink:href="#m7cd6390ce6" x="347.825044" y="141.885603" style="fill: #0db14b; stroke: #0db14b"/>
     <use xlink:href="#m7cd6390ce6" x="349.22304" y="142.804604" style="fill: #0db14b; stroke: #0db14b"/>
     <use xlink:href="#m7cd6390ce6" x="350.621036" y="142.267313" style="fill: #0db14b; stroke: #0db14b"/>
     <use xlink:href="#m7cd6390ce6" x="352.019031" y="140.796386" style="fill: #0db14b; stroke: #0db14b"/>
     <use xlink:href="#m7cd6390ce6" x="353.417027" y="136.77495" style="fill: #0db14b; stroke: #0db14b"/>
     <use xlink:href="#m7cd6390ce6" x="354.815023" y="136.388773" style="fill: #0db14b; stroke: #0db14b"/>
     <use xlink:href="#m7cd6390ce6" x="356.213019" y="135.901055" style="fill: #0db14b; stroke: #0db14b"/>
     <use xlink:href="#m7cd6390ce6" x="357.611014" y="135.846661" style="fill: #0db14b; stroke: #0db14b"/>
     <use xlink:href="#m7cd6390ce6" x="359.00901" y="136.16756" style="fill: #0db14b; stroke: #0db14b"/>
     <use xlink:href="#m7cd6390ce6" x="360.407006" y="133.672919" style="fill: #0db14b; stroke: #0db14b"/>
     <use xlink:href="#m7cd6390ce6" x="361.805001" y="127.44385" style="fill: #0db14b; stroke: #0db14b"/>
     <use xlink:href="#m7cd6390ce6" x="363.202997" y="120.851472" style="fill: #0db14b; stroke: #0db14b"/>
     <use xlink:href="#m7cd6390ce6" x="364.600993" y="121.472787" style="fill: #0db14b; stroke: #0db14b"/>
     <use xlink:href="#m7cd6390ce6" x="365.998988" y="119.694356" style="fill: #0db14b; stroke: #0db14b"/>
     <use xlink:href="#m7cd6390ce6" x="367.396984" y="116.660713" style="fill: #0db14b; stroke: #0db14b"/>
     <use xlink:href="#m7cd6390ce6" x="368.79498" y="115.495086" style="fill: #0db14b; stroke: #0db14b"/>
     <use xlink:href="#m7cd6390ce6" x="370.192976" y="113.199543" style="fill: #0db14b; stroke: #0db14b"/>
     <use xlink:href="#m7cd6390ce6" x="371.590971" y="111.816152" style="fill: #0db14b; stroke: #0db14b"/>
     <use xlink:href="#m7cd6390ce6" x="372.988967" y="105.195042" style="fill: #0db14b; stroke: #0db14b"/>
     <use xlink:href="#m7cd6390ce6" x="374.386963" y="102.011359" style="fill: #0db14b; stroke: #0db14b"/>
     <use xlink:href="#m7cd6390ce6" x="375.784958" y="101.081615" style="fill: #0db14b; stroke: #0db14b"/>
     <use xlink:href="#m7cd6390ce6" x="377.182954" y="98.457306" style="fill: #0db14b; stroke: #0db14b"/>
     <use xlink:href="#m7cd6390ce6" x="378.58095" y="96.152519" style="fill: #0db14b; stroke: #0db14b"/>
     <use xlink:href="#m7cd6390ce6" x="379.978946" y="95.087497" style="fill: #0db14b; stroke: #0db14b"/>
     <use xlink:href="#m7cd6390ce6" x="381.376941" y="82.713582" style="fill: #0db14b; stroke: #0db14b"/>
     <use xlink:href="#m7cd6390ce6" x="382.774937" y="77.079029" style="fill: #0db14b; stroke: #0db14b"/>
     <use xlink:href="#m7cd6390ce6" x="384.172933" y="61.494546" style="fill: #0db14b; stroke: #0db14b"/>
     <use xlink:href="#m7cd6390ce6" x="385.570928" y="66.688637" style="fill: #0db14b; stroke: #0db14b"/>
     <use xlink:href="#m7cd6390ce6" x="386.968924" y="53.148264" style="fill: #0db14b; stroke: #0db14b"/>
     <use xlink:href="#m7cd6390ce6" x="388.36692" y="49.821443" style="fill: #0db14b; stroke: #0db14b"/>
     <use xlink:href="#m7cd6390ce6" x="389.764915" y="46.979549" style="fill: #0db14b; stroke: #0db14b"/>
     <use xlink:href="#m7cd6390ce6" x="391.162911" y="47.509185" style="fill: #0db14b; stroke: #0db14b"/>
     <use xlink:href="#m7cd6390ce6" x="392.560907" y="44.911589" style="fill: #0db14b; stroke: #0db14b"/>
     <use xlink:href="#m7cd6390ce6" x="393.958903" y="37.282787" style="fill: #0db14b; stroke: #0db14b"/>
     <use xlink:href="#m7cd6390ce6" x="395.356898" y="41.9189" style="fill: #0db14b; stroke: #0db14b"/>
     <use xlink:href="#m7cd6390ce6" x="396.754894" y="33.661145" style="fill: #0db14b; stroke: #0db14b"/>
     <use xlink:href="#m7cd6390ce6" x="398.15289" y="34.514049" style="fill: #0db14b; stroke: #0db14b"/>
     <use xlink:href="#m7cd6390ce6" x="399.550885" y="25.667816" style="fill: #0db14b; stroke: #0db14b"/>
     <use xlink:href="#m7cd6390ce6" x="400.948881" y="26.774424" style="fill: #0db14b; stroke: #0db14b"/>
     <use xlink:href="#m7cd6390ce6" x="402.346877" y="25.738753" style="fill: #0db14b; stroke: #0db14b"/>
     <use xlink:href="#m7cd6390ce6" x="403.744872" y="25.023686" style="fill: #0db14b; stroke: #0db14b"/>
     <use xlink:href="#m7cd6390ce6" x="405.142868" y="17.990246" style="fill: #0db14b; stroke: #0db14b"/>
     <use xlink:href="#m7cd6390ce6" x="406.540864" y="14.719525" style="fill: #0db14b; stroke: #0db14b"/>
     <use xlink:href="#m7cd6390ce6" x="407.93886" y="18.376575" style="fill: #0db14b; stroke: #0db14b"/>
     <use xlink:href="#m7cd6390ce6" x="409.336855" y="18.530735" style="fill: #0db14b; stroke: #0db14b"/>
     <use xlink:href="#m7cd6390ce6" x="410.734851" y="15.761012" style="fill: #0db14b; stroke: #0db14b"/>
     <use xlink:href="#m7cd6390ce6" x="412.132847" y="15.271783" style="fill: #0db14b; stroke: #0db14b"/>
     <use xlink:href="#m7cd6390ce6" x="413.530842" y="17.255304" style="fill: #0db14b; stroke: #0db14b"/>
     <use xlink:href="#m7cd6390ce6" x="414.928838" y="44.404781" style="fill: #0db14b; stroke: #0db14b"/>
     <use xlink:href="#m7cd6390ce6" x="416.326834" y="32.683201" style="fill: #0db14b; stroke: #0db14b"/>
     <use xlink:href="#m7cd6390ce6" x="417.72483" y="31.21528" style="fill: #0db14b; stroke: #0db14b"/>
    </g>
   </g>
   <g id="line2d_24">
    <path d="M 62.63392 158.76 
L 64.031916 158.001789 
L 65.429912 157.445331 
L 66.827908 158.214193 
L 69.623899 156.805241 
L 72.41989 155.51253 
L 75.215882 155.38672 
L 78.011873 154.803638 
L 79.409869 155.476371 
L 80.807865 153.270531 
L 82.20586 152.224685 
L 83.603856 150.94744 
L 85.001852 149.883879 
L 86.399847 146.576611 
L 89.195839 144.845121 
L 90.593835 144.808632 
L 91.99183 141.71537 
L 93.389826 141.198007 
L 94.787822 143.555867 
L 96.185817 142.422328 
L 97.583813 140.535261 
L 98.981809 136.268065 
L 101.7778 139.102057 
L 103.175796 137.546438 
L 104.573792 137.52973 
L 107.369783 134.779934 
L 110.165774 128.121171 
L 111.56377 132.021935 
L 112.961766 128.742189 
L 114.359762 120.05248 
L 115.757757 120.935234 
L 117.155753 120.774977 
L 118.553749 122.396096 
L 119.951744 124.18932 
L 121.34974 124.713634 
L 122.747736 123.936596 
L 124.145731 124.081654 
L 125.543727 126.197486 
L 126.941723 126.330771 
L 128.339719 127.900879 
L 129.737714 128.045336 
L 131.13571 127.653914 
L 132.533706 126.468377 
L 133.931701 125.713019 
L 135.329697 123.825735 
L 136.727693 123.261971 
L 138.125689 121.650242 
L 139.523684 117.247478 
L 140.92168 116.557162 
L 142.319676 117.053779 
L 143.717671 114.751163 
L 145.115667 113.956964 
L 146.513663 115.359381 
L 147.911658 113.680054 
L 149.309654 104.962067 
L 150.70765 113.724563 
L 152.105646 113.296557 
L 153.503641 112.238472 
L 154.901637 111.992603 
L 156.299633 108.629563 
L 157.697628 107.101071 
L 159.095624 106.943083 
L 160.49362 107.80991 
L 161.891616 105.669263 
L 163.289611 105.942812 
L 164.687607 101.807668 
L 166.085603 103.058388 
L 167.483598 103.369424 
L 168.881594 105.701369 
L 170.27959 100.639387 
L 173.075581 99.437307 
L 174.473577 97.732777 
L 175.871573 96.977076 
L 177.269568 97.477209 
L 178.667564 92.460982 
L 180.06556 96.295689 
L 181.463555 91.938965 
L 182.861551 91.378156 
L 184.259547 91.871955 
L 185.657543 87.878727 
L 187.055538 87.254229 
L 188.453534 82.691861 
L 189.85153 88.33563 
L 192.647521 73.630022 
L 194.045517 69.643428 
L 195.443512 67.364902 
L 196.841508 64.253285 
L 198.239504 62.756752 
L 199.6375 70.403832 
L 201.035495 63.789078 
L 202.433491 61.45367 
L 203.831487 63.969661 
L 205.229482 67.356274 
L 206.627478 66.145911 
L 208.025474 69.16051 
L 209.423469 69.283161 
L 210.821465 68.844006 
L 212.219461 72.626467 
L 213.617457 77.826718 
L 215.015452 78.937259 
L 216.413448 76.6629 
L 217.811444 76.243357 
L 219.209439 73.294217 
L 220.607435 76.511122 
L 222.005431 77.675809 
L 223.403427 77.062687 
L 224.801422 76.187982 
L 226.199418 77.417151 
L 227.597414 79.028522 
L 228.995409 80.323907 
L 230.393405 83.031917 
L 233.189396 81.425738 
L 234.587392 83.159426 
L 235.985388 88.595353 
L 237.383384 93.247405 
L 238.781379 93.871356 
L 240.179375 96.692851 
L 241.577371 98.015409 
L 244.373362 103.347861 
L 245.771358 106.44359 
L 247.169354 108.765046 
L 248.567349 108.33815 
L 251.363341 116.231839 
L 252.761336 118.176389 
L 254.159332 123.225643 
L 255.557328 124.448833 
L 256.955323 123.817808 
L 258.353319 123.626463 
L 259.751315 126.74445 
L 261.149311 128.567334 
L 262.547306 129.261819 
L 263.945302 133.622906 
L 265.343298 134.633535 
L 266.741293 135.249201 
L 268.139289 135.58899 
L 269.537285 135.393062 
L 270.935281 136.554073 
L 272.333276 136.557798 
L 273.731272 135.179104 
L 275.129268 136.373041 
L 276.527263 139.45838 
L 277.925259 140.186148 
L 279.323255 139.05511 
L 280.72125 140.236308 
L 282.119246 140.964312 
L 283.517242 138.856694 
L 284.915238 139.475584 
L 286.313233 140.393697 
L 287.711229 140.770415 
L 289.109225 141.686494 
L 291.905216 142.469112 
L 293.303212 142.437727 
L 294.701207 142.251359 
L 296.099203 142.500894 
L 297.497199 142.044498 
L 298.895195 143.633384 
L 301.691186 142.946395 
L 303.089182 143.464225 
L 304.487177 143.054749 
L 305.885173 143.923433 
L 307.283169 143.371963 
L 310.07916 143.779662 
L 311.477156 144.37196 
L 312.875152 144.143958 
L 314.273147 144.728055 
L 315.671143 144.414388 
L 317.069139 143.958503 
L 318.467134 144.211802 
L 321.263126 146.049384 
L 324.059117 146.580202 
L 326.855109 145.677168 
L 328.253104 146.973341 
L 329.6511 146.752043 
L 331.049096 147.583278 
L 332.447092 148.19082 
L 333.845087 147.395838 
L 335.243083 147.906136 
L 336.641079 147.631193 
L 338.039074 147.774841 
L 339.43707 146.8029 
L 340.835066 146.371915 
L 342.233061 145.805997 
L 343.631057 145.98499 
L 345.029053 144.59694 
L 346.427049 144.903985 
L 347.825044 143.234685 
L 349.22304 142.8546 
L 350.621036 141.875664 
L 352.019031 141.678631 
L 353.417027 141.113489 
L 354.815023 138.734091 
L 356.213019 138.554351 
L 357.611014 137.588928 
L 359.00901 137.326323 
L 360.407006 134.431232 
L 361.805001 132.489054 
L 363.202997 129.242104 
L 364.600993 128.107617 
L 365.998988 126.60644 
L 367.396984 123.809971 
L 368.79498 120.082033 
L 370.192976 114.747162 
L 371.590971 111.431539 
L 372.988967 105.342815 
L 374.386963 103.536096 
L 375.784958 103.111126 
L 377.182954 95.460218 
L 378.58095 90.402709 
L 379.978946 86.471543 
L 381.376941 80.391461 
L 384.172933 70.109752 
L 385.570928 72.224976 
L 386.968924 64.201352 
L 388.36692 58.292949 
L 389.764915 53.420157 
L 391.162911 49.782156 
L 392.560907 49.280523 
L 393.958903 41.303515 
L 395.356898 43.723037 
L 396.754894 35.992093 
L 398.15289 34.653338 
L 399.550885 29.295045 
L 400.948881 29.674919 
L 402.346877 28.176201 
L 403.744872 28.069398 
L 405.142868 28.315168 
L 406.540864 22.623175 
L 407.93886 24.862654 
L 409.336855 24.305315 
L 410.734851 23.426187 
L 412.132847 20.421977 
L 413.530842 25.362414 
L 414.928838 47.747195 
L 416.326834 33.362576 
L 417.72483 32.243302 
L 417.72483 32.243302 
" clip-path="url(#p45bea67ffb)" style="fill: none; stroke-dasharray: 5.55,2.4; stroke-dashoffset: 0; stroke: #000000; stroke-width: 1.5"/>
   </g>
   <g id="patch_3">
    <path d="M 44.879375 166.32 
L 44.879375 0 
" style="fill: none; stroke: #ffffff; stroke-linejoin: miter; stroke-linecap: square"/>
   </g>
   <g id="patch_4">
    <path d="M 435.479375 166.32 
L 435.479375 0 
" style="fill: none; stroke: #ffffff; stroke-linejoin: miter; stroke-linecap: square"/>
   </g>
   <g id="patch_5">
    <path d="M 44.879375 166.32 
L 435.479375 166.32 
" style="fill: none; stroke: #ffffff; stroke-linejoin: miter; stroke-linecap: square"/>
   </g>
   <g id="patch_6">
    <path d="M 44.879375 -0 
L 435.479375 -0 
" style="fill: none; stroke: #ffffff; stroke-linejoin: miter; stroke-linecap: square"/>
   </g>
   <g id="legend_1">
    <g id="patch_7">
     <path d="M 51.879375 60.378125 
L 203.92625 60.378125 
Q 205.92625 60.378125 205.92625 58.378125 
L 205.92625 7 
Q 205.92625 5 203.92625 5 
L 51.879375 5 
Q 49.879375 5 49.879375 7 
L 49.879375 58.378125 
Q 49.879375 60.378125 51.879375 60.378125 
z
" style="fill: #e5e5e5; opacity: 0.8; stroke: #cccccc; stroke-width: 0.5; stroke-linejoin: miter"/>
    </g>
    <g id="line2d_25">
     <path d="M 53.879375 15.5 
L 63.879375 15.5 
L 73.879375 15.5 
" style="fill: none; stroke: #0db14b; stroke-width: 3; stroke-linecap: square"/>
     <g>
      <use xlink:href="#m7cd6390ce6" x="63.879375" y="15.5" style="fill: #0db14b; stroke: #0db14b"/>
     </g>
    </g>
    <g id="text_14">
     <!-- Private Value $\tilde{R}_{\chi_2,\chi_1}^t$ -->
     <g transform="translate(81.879375 19) scale(0.1 -0.1)">
      <defs>
       <path id="DejaVuSans-50" d="M 1259 4147 
L 1259 2394 
L 2053 2394 
Q 2494 2394 2734 2622 
Q 2975 2850 2975 3272 
Q 2975 3691 2734 3919 
Q 2494 4147 2053 4147 
L 1259 4147 
z
M 628 4666 
L 2053 4666 
Q 2838 4666 3239 4311 
Q 3641 3956 3641 3272 
Q 3641 2581 3239 2228 
Q 2838 1875 2053 1875 
L 1259 1875 
L 1259 0 
L 628 0 
L 628 4666 
z
" transform="scale(0.015625)"/>
       <path id="DejaVuSans-72" d="M 2631 2963 
Q 2534 3019 2420 3045 
Q 2306 3072 2169 3072 
Q 1681 3072 1420 2755 
Q 1159 2438 1159 1844 
L 1159 0 
L 581 0 
L 581 3500 
L 1159 3500 
L 1159 2956 
Q 1341 3275 1631 3429 
Q 1922 3584 2338 3584 
Q 2397 3584 2469 3576 
Q 2541 3569 2628 3553 
L 2631 2963 
z
" transform="scale(0.015625)"/>
       <path id="DejaVuSans-69" d="M 603 3500 
L 1178 3500 
L 1178 0 
L 603 0 
L 603 3500 
z
M 603 4863 
L 1178 4863 
L 1178 4134 
L 603 4134 
L 603 4863 
z
" transform="scale(0.015625)"/>
       <path id="DejaVuSans-76" d="M 191 3500 
L 800 3500 
L 1894 563 
L 2988 3500 
L 3597 3500 
L 2284 0 
L 1503 0 
L 191 3500 
z
" transform="scale(0.015625)"/>
       <path id="DejaVuSans-20" transform="scale(0.015625)"/>
       <path id="DejaVuSans-303" d="M -1621 4281 
L -1799 4453 
Q -1867 4516 -1919 4545 
Q -1971 4575 -2011 4575 
Q -2130 4575 -2186 4461 
Q -2242 4347 -2249 4091 
L -2639 4091 
Q -2633 4513 -2473 4742 
Q -2314 4972 -2030 4972 
Q -1911 4972 -1811 4928 
Q -1711 4884 -1596 4781 
L -1417 4609 
Q -1349 4547 -1297 4517 
Q -1246 4488 -1205 4488 
Q -1086 4488 -1030 4602 
Q -974 4716 -967 4972 
L -577 4972 
Q -583 4550 -742 4320 
Q -902 4091 -1186 4091 
Q -1305 4091 -1405 4134 
Q -1505 4178 -1621 4281 
z
" transform="scale(0.015625)"/>
       <path id="DejaVuSans-Oblique-52" d="M 1613 4147 
L 1294 2491 
L 2106 2491 
Q 2584 2491 2879 2755 
Q 3175 3019 3175 3444 
Q 3175 3784 2976 3965 
Q 2778 4147 2406 4147 
L 1613 4147 
z
M 2772 2241 
Q 2972 2194 3105 2009 
Q 3238 1825 3413 1275 
L 3809 0 
L 3144 0 
L 2778 1197 
Q 2638 1659 2453 1815 
Q 2269 1972 1888 1972 
L 1191 1972 
L 806 0 
L 172 0 
L 1081 4666 
L 2503 4666 
Q 3150 4666 3495 4373 
Q 3841 4081 3841 3531 
Q 3841 3044 3547 2687 
Q 3253 2331 2772 2241 
z
" transform="scale(0.015625)"/>
       <path id="DejaVuSans-Oblique-74" d="M 2706 3500 
L 2619 3053 
L 1472 3053 
L 1100 1153 
Q 1081 1047 1072 975 
Q 1063 903 1063 863 
Q 1063 663 1183 572 
Q 1303 481 1569 481 
L 2150 481 
L 2053 0 
L 1503 0 
Q 991 0 739 200 
Q 488 400 488 806 
Q 488 878 497 964 
Q 506 1050 525 1153 
L 897 3053 
L 409 3053 
L 500 3500 
L 978 3500 
L 1172 4494 
L 1747 4494 
L 1556 3500 
L 2706 3500 
z
" transform="scale(0.015625)"/>
       <path id="DejaVuSans-Oblique-3c7" d="M 1922 -781 
L 1691 416 
L 394 -1334 
L -284 -1334 
L 1553 1141 
L 1269 2613 
Q 1194 3006 713 3006 
L 559 3006 
L 653 3500 
L 872 3494 
Q 1675 3472 1775 2950 
L 2006 1753 
L 3303 3503 
L 3981 3503 
L 2144 1028 
L 2428 -444 
Q 2503 -838 2984 -838 
L 3138 -838 
L 3044 -1331 
L 2825 -1325 
Q 2022 -1303 1922 -781 
z
" transform="scale(0.015625)"/>
       <path id="DejaVuSans-2c" d="M 750 794 
L 1409 794 
L 1409 256 
L 897 -744 
L 494 -744 
L 750 256 
L 750 794 
z
" transform="scale(0.015625)"/>
      </defs>
      <use xlink:href="#DejaVuSans-50" transform="translate(0 0.828125)"/>
      <use xlink:href="#DejaVuSans-72" transform="translate(60.302734 0.828125)"/>
      <use xlink:href="#DejaVuSans-69" transform="translate(101.416016 0.828125)"/>
      <use xlink:href="#DejaVuSans-76" transform="translate(129.199219 0.828125)"/>
      <use xlink:href="#DejaVuSans-61" transform="translate(188.378906 0.828125)"/>
      <use xlink:href="#DejaVuSans-74" transform="translate(249.658203 0.828125)"/>
      <use xlink:href="#DejaVuSans-65" transform="translate(288.867188 0.828125)"/>
      <use xlink:href="#DejaVuSans-20" transform="translate(350.390625 0.828125)"/>
      <use xlink:href="#DejaVuSans-56" transform="translate(382.177734 0.828125)"/>
      <use xlink:href="#DejaVuSans-61" transform="translate(450.585938 0.828125)"/>
      <use xlink:href="#DejaVuSans-6c" transform="translate(511.865234 0.828125)"/>
      <use xlink:href="#DejaVuSans-75" transform="translate(539.648438 0.828125)"/>
      <use xlink:href="#DejaVuSans-65" transform="translate(603.027344 0.828125)"/>
      <use xlink:href="#DejaVuSans-20" transform="translate(664.550781 0.828125)"/>
      <use xlink:href="#DejaVuSans-303" transform="translate(764.942871 22.3125)"/>
      <use xlink:href="#DejaVuSans-Oblique-52" transform="translate(696.337891 0.828125)"/>
      <use xlink:href="#DejaVuSans-Oblique-74" transform="translate(766.777344 39.109375) scale(0.7)"/>
      <use xlink:href="#DejaVuSans-Oblique-3c7" transform="translate(766.777344 -26.515625) scale(0.7)"/>
      <use xlink:href="#DejaVuSans-32" transform="translate(808.203125 -38) scale(0.49)"/>
      <use xlink:href="#DejaVuSans-2c" transform="translate(841.29248 -26.515625) scale(0.7)"/>
      <use xlink:href="#DejaVuSans-Oblique-3c7" transform="translate(877.181152 -26.515625) scale(0.7)"/>
      <use xlink:href="#DejaVuSans-31" transform="translate(918.606934 -38) scale(0.49)"/>
     </g>
    </g>
    <g id="line2d_26">
     <path d="M 53.879375 34 
L 63.879375 34 
L 73.879375 34 
" style="fill: none; stroke-dasharray: 5.55,2.4; stroke-dashoffset: 0; stroke: #000000; stroke-width: 1.5"/>
    </g>
    <g id="text_15">
     <!-- Original Value $\bar{R}_{\chi_2,\chi_1}^t$ -->
     <g transform="translate(81.879375 37.5) scale(0.1 -0.1)">
      <defs>
       <path id="DejaVuSans-4f" d="M 2522 4238 
Q 1834 4238 1429 3725 
Q 1025 3213 1025 2328 
Q 1025 1447 1429 934 
Q 1834 422 2522 422 
Q 3209 422 3611 934 
Q 4013 1447 4013 2328 
Q 4013 3213 3611 3725 
Q 3209 4238 2522 4238 
z
M 2522 4750 
Q 3503 4750 4090 4092 
Q 4678 3434 4678 2328 
Q 4678 1225 4090 567 
Q 3503 -91 2522 -91 
Q 1538 -91 948 565 
Q 359 1222 359 2328 
Q 359 3434 948 4092 
Q 1538 4750 2522 4750 
z
" transform="scale(0.015625)"/>
       <path id="DejaVuSans-67" d="M 2906 1791 
Q 2906 2416 2648 2759 
Q 2391 3103 1925 3103 
Q 1463 3103 1205 2759 
Q 947 2416 947 1791 
Q 947 1169 1205 825 
Q 1463 481 1925 481 
Q 2391 481 2648 825 
Q 2906 1169 2906 1791 
z
M 3481 434 
Q 3481 -459 3084 -895 
Q 2688 -1331 1869 -1331 
Q 1566 -1331 1297 -1286 
Q 1028 -1241 775 -1147 
L 775 -588 
Q 1028 -725 1275 -790 
Q 1522 -856 1778 -856 
Q 2344 -856 2625 -561 
Q 2906 -266 2906 331 
L 2906 616 
Q 2728 306 2450 153 
Q 2172 0 1784 0 
Q 1141 0 747 490 
Q 353 981 353 1791 
Q 353 2603 747 3093 
Q 1141 3584 1784 3584 
Q 2172 3584 2450 3431 
Q 2728 3278 2906 2969 
L 2906 3500 
L 3481 3500 
L 3481 434 
z
" transform="scale(0.015625)"/>
       <path id="DejaVuSans-6e" d="M 3513 2113 
L 3513 0 
L 2938 0 
L 2938 2094 
Q 2938 2591 2744 2837 
Q 2550 3084 2163 3084 
Q 1697 3084 1428 2787 
Q 1159 2491 1159 1978 
L 1159 0 
L 581 0 
L 581 3500 
L 1159 3500 
L 1159 2956 
Q 1366 3272 1645 3428 
Q 1925 3584 2291 3584 
Q 2894 3584 3203 3211 
Q 3513 2838 3513 2113 
z
" transform="scale(0.015625)"/>
       <path id="DejaVuSans-304" d="M -2518 4769 
L -650 4769 
L -650 4306 
L -2518 4306 
L -2518 4769 
z
" transform="scale(0.015625)"/>
      </defs>
      <use xlink:href="#DejaVuSans-4f" transform="translate(0 0.359375)"/>
      <use xlink:href="#DejaVuSans-72" transform="translate(78.710938 0.359375)"/>
      <use xlink:href="#DejaVuSans-69" transform="translate(119.824219 0.359375)"/>
      <use xlink:href="#DejaVuSans-67" transform="translate(147.607422 0.359375)"/>
      <use xlink:href="#DejaVuSans-69" transform="translate(211.083984 0.359375)"/>
      <use xlink:href="#DejaVuSans-6e" transform="translate(238.867188 0.359375)"/>
      <use xlink:href="#DejaVuSans-61" transform="translate(302.246094 0.359375)"/>
      <use xlink:href="#DejaVuSans-6c" transform="translate(363.525391 0.359375)"/>
      <use xlink:href="#DejaVuSans-20" transform="translate(391.308594 0.359375)"/>
      <use xlink:href="#DejaVuSans-56" transform="translate(423.095703 0.359375)"/>
      <use xlink:href="#DejaVuSans-61" transform="translate(491.503906 0.359375)"/>
      <use xlink:href="#DejaVuSans-6c" transform="translate(552.783203 0.359375)"/>
      <use xlink:href="#DejaVuSans-75" transform="translate(580.566406 0.359375)"/>
      <use xlink:href="#DejaVuSans-65" transform="translate(643.945312 0.359375)"/>
      <use xlink:href="#DejaVuSans-20" transform="translate(705.46875 0.359375)"/>
      <use xlink:href="#DejaVuSans-304" transform="translate(804.970215 18.484375)"/>
      <use xlink:href="#DejaVuSans-Oblique-52" transform="translate(737.255859 0.359375)"/>
      <use xlink:href="#DejaVuSans-Oblique-74" transform="translate(807.695312 38.640625) scale(0.7)"/>
      <use xlink:href="#DejaVuSans-Oblique-3c7" transform="translate(807.695312 -26.984375) scale(0.7)"/>
      <use xlink:href="#DejaVuSans-32" transform="translate(849.121094 -38.46875) scale(0.49)"/>
      <use xlink:href="#DejaVuSans-2c" transform="translate(882.210449 -26.984375) scale(0.7)"/>
      <use xlink:href="#DejaVuSans-Oblique-3c7" transform="translate(918.099121 -26.984375) scale(0.7)"/>
      <use xlink:href="#DejaVuSans-31" transform="translate(959.524902 -38.46875) scale(0.49)"/>
     </g>
    </g>
    <g id="patch_8">
     <path d="M 53.879375 54.298437 
L 73.879375 54.298437 
L 73.879375 47.298437 
L 53.879375 47.298437 
z
" style="fill: #0db14b; fill-opacity: 0.5; stroke: #0db14b; stroke-opacity: 0.5; stroke-width: 0.5; stroke-linejoin: miter"/>
    </g>
    <g id="text_16">
     <!-- One Standard Deviation -->
     <g transform="translate(81.879375 54.298437) scale(0.1 -0.1)">
      <defs>
       <path id="DejaVuSans-53" d="M 3425 4513 
L 3425 3897 
Q 3066 4069 2747 4153 
Q 2428 4238 2131 4238 
Q 1616 4238 1336 4038 
Q 1056 3838 1056 3469 
Q 1056 3159 1242 3001 
Q 1428 2844 1947 2747 
L 2328 2669 
Q 3034 2534 3370 2195 
Q 3706 1856 3706 1288 
Q 3706 609 3251 259 
Q 2797 -91 1919 -91 
Q 1588 -91 1214 -16 
Q 841 59 441 206 
L 441 856 
Q 825 641 1194 531 
Q 1563 422 1919 422 
Q 2459 422 2753 634 
Q 3047 847 3047 1241 
Q 3047 1584 2836 1778 
Q 2625 1972 2144 2069 
L 1759 2144 
Q 1053 2284 737 2584 
Q 422 2884 422 3419 
Q 422 4038 858 4394 
Q 1294 4750 2059 4750 
Q 2388 4750 2728 4690 
Q 3069 4631 3425 4513 
z
" transform="scale(0.015625)"/>
       <path id="DejaVuSans-64" d="M 2906 2969 
L 2906 4863 
L 3481 4863 
L 3481 0 
L 2906 0 
L 2906 525 
Q 2725 213 2448 61 
Q 2172 -91 1784 -91 
Q 1150 -91 751 415 
Q 353 922 353 1747 
Q 353 2572 751 3078 
Q 1150 3584 1784 3584 
Q 2172 3584 2448 3432 
Q 2725 3281 2906 2969 
z
M 947 1747 
Q 947 1113 1208 752 
Q 1469 391 1925 391 
Q 2381 391 2643 752 
Q 2906 1113 2906 1747 
Q 2906 2381 2643 2742 
Q 2381 3103 1925 3103 
Q 1469 3103 1208 2742 
Q 947 2381 947 1747 
z
" transform="scale(0.015625)"/>
       <path id="DejaVuSans-6f" d="M 1959 3097 
Q 1497 3097 1228 2736 
Q 959 2375 959 1747 
Q 959 1119 1226 758 
Q 1494 397 1959 397 
Q 2419 397 2687 759 
Q 2956 1122 2956 1747 
Q 2956 2369 2687 2733 
Q 2419 3097 1959 3097 
z
M 1959 3584 
Q 2709 3584 3137 3096 
Q 3566 2609 3566 1747 
Q 3566 888 3137 398 
Q 2709 -91 1959 -91 
Q 1206 -91 779 398 
Q 353 888 353 1747 
Q 353 2609 779 3096 
Q 1206 3584 1959 3584 
z
" transform="scale(0.015625)"/>
      </defs>
      <use xlink:href="#DejaVuSans-4f"/>
      <use xlink:href="#DejaVuSans-6e" x="78.710938"/>
      <use xlink:href="#DejaVuSans-65" x="142.089844"/>
      <use xlink:href="#DejaVuSans-20" x="203.613281"/>
      <use xlink:href="#DejaVuSans-53" x="235.400391"/>
      <use xlink:href="#DejaVuSans-74" x="298.876953"/>
      <use xlink:href="#DejaVuSans-61" x="338.085938"/>
      <use xlink:href="#DejaVuSans-6e" x="399.365234"/>
      <use xlink:href="#DejaVuSans-64" x="462.744141"/>
      <use xlink:href="#DejaVuSans-61" x="526.220703"/>
      <use xlink:href="#DejaVuSans-72" x="587.5"/>
      <use xlink:href="#DejaVuSans-64" x="626.863281"/>
      <use xlink:href="#DejaVuSans-20" x="690.339844"/>
      <use xlink:href="#DejaVuSans-44" x="722.126953"/>
      <use xlink:href="#DejaVuSans-65" x="799.128906"/>
      <use xlink:href="#DejaVuSans-76" x="860.652344"/>
      <use xlink:href="#DejaVuSans-69" x="919.832031"/>
      <use xlink:href="#DejaVuSans-61" x="947.615234"/>
      <use xlink:href="#DejaVuSans-74" x="1008.894531"/>
      <use xlink:href="#DejaVuSans-69" x="1048.103516"/>
      <use xlink:href="#DejaVuSans-6f" x="1075.886719"/>
      <use xlink:href="#DejaVuSans-6e" x="1137.068359"/>
     </g>
    </g>
   </g>
  </g>
 </g>
 <defs>
  <clipPath id="p45bea67ffb">
   <rect x="44.879375" y="-0" width="390.6" height="166.32"/>
  </clipPath>
 </defs>
</svg>
