<?xml version="1.0" encoding="utf-8" standalone="no"?>
<!DOCTYPE svg PUBLIC "-//W3C//DTD SVG 1.1//EN"
  "http://www.w3.org/Graphics/SVG/1.1/DTD/svg11.dtd">
<svg xmlns:xlink="http://www.w3.org/1999/xlink" width="444.375067pt" height="199.980699pt" viewBox="0 0 444.375067 199.980699" xmlns="http://www.w3.org/2000/svg" version="1.1">
 <metadata>
  <rdf:RDF xmlns:dc="http://purl.org/dc/elements/1.1/" xmlns:cc="http://creativecommons.org/ns#" xmlns:rdf="http://www.w3.org/1999/02/22-rdf-syntax-ns#">
   <cc:Work>
    <dc:type rdf:resource="http://purl.org/dc/dcmitype/StillImage"/>
    <dc:date>2024-09-18T15:47:49.842530</dc:date>
    <dc:format>image/svg+xml</dc:format>
    <dc:creator>
     <cc:Agent>
      <dc:title>Matplotlib v3.7.5, https://matplotlib.org/</dc:title>
     </cc:Agent>
    </dc:creator>
   </cc:Work>
  </rdf:RDF>
 </metadata>
 <defs>
  <style type="text/css">*{stroke-linejoin: round; stroke-linecap: butt}</style>
 </defs>
 <g id="figure_1">
  <g id="patch_1">
   <path d="M 0 199.980699 
L 444.375067 199.980699 
L 444.375067 0 
L 0 0 
z
" style="fill: #ffffff"/>
  </g>
  <g id="axes_1">
   <g id="patch_2">
    <path d="M 44.879375 167.688824 
L 435.479375 167.688824 
L 435.479375 1.368824 
L 44.879375 1.368824 
z
" style="fill: #e5e5e5"/>
   </g>
   <g id="matplotlib.axis_1">
    <g id="xtick_1">
     <g id="line2d_1">
      <path d="M 72.41989 167.688824 
L 72.41989 1.368824 
" clip-path="url(#pa93bcc5336)" style="fill: none; stroke: #ffffff; stroke-width: 0.8; stroke-linecap: square"/>
     </g>
     <g id="line2d_2">
      <defs>
       <path id="m468ab57606" d="M 0 0 
L 0 3.5 
" style="stroke: #555555; stroke-width: 0.8"/>
      </defs>
      <g>
       <use xlink:href="#m468ab57606" x="72.41989" y="167.688824" style="fill: #555555; stroke: #555555; stroke-width: 0.8"/>
      </g>
     </g>
     <g id="text_1">
      <!-- 08/16/20 -->
      <g style="fill: #555555" transform="translate(49.96364 182.287261) scale(0.1 -0.1)">
       <defs>
        <path id="DejaVuSans-30" d="M 2034 4250 
Q 1547 4250 1301 3770 
Q 1056 3291 1056 2328 
Q 1056 1369 1301 889 
Q 1547 409 2034 409 
Q 2525 409 2770 889 
Q 3016 1369 3016 2328 
Q 3016 3291 2770 3770 
Q 2525 4250 2034 4250 
z
M 2034 4750 
Q 2819 4750 3233 4129 
Q 3647 3509 3647 2328 
Q 3647 1150 3233 529 
Q 2819 -91 2034 -91 
Q 1250 -91 836 529 
Q 422 1150 422 2328 
Q 422 3509 836 4129 
Q 1250 4750 2034 4750 
z
" transform="scale(0.015625)"/>
        <path id="DejaVuSans-38" d="M 2034 2216 
Q 1584 2216 1326 1975 
Q 1069 1734 1069 1313 
Q 1069 891 1326 650 
Q 1584 409 2034 409 
Q 2484 409 2743 651 
Q 3003 894 3003 1313 
Q 3003 1734 2745 1975 
Q 2488 2216 2034 2216 
z
M 1403 2484 
Q 997 2584 770 2862 
Q 544 3141 544 3541 
Q 544 4100 942 4425 
Q 1341 4750 2034 4750 
Q 2731 4750 3128 4425 
Q 3525 4100 3525 3541 
Q 3525 3141 3298 2862 
Q 3072 2584 2669 2484 
Q 3125 2378 3379 2068 
Q 3634 1759 3634 1313 
Q 3634 634 3220 271 
Q 2806 -91 2034 -91 
Q 1263 -91 848 271 
Q 434 634 434 1313 
Q 434 1759 690 2068 
Q 947 2378 1403 2484 
z
M 1172 3481 
Q 1172 3119 1398 2916 
Q 1625 2713 2034 2713 
Q 2441 2713 2670 2916 
Q 2900 3119 2900 3481 
Q 2900 3844 2670 4047 
Q 2441 4250 2034 4250 
Q 1625 4250 1398 4047 
Q 1172 3844 1172 3481 
z
" transform="scale(0.015625)"/>
        <path id="DejaVuSans-2f" d="M 1625 4666 
L 2156 4666 
L 531 -594 
L 0 -594 
L 1625 4666 
z
" transform="scale(0.015625)"/>
        <path id="DejaVuSans-31" d="M 794 531 
L 1825 531 
L 1825 4091 
L 703 3866 
L 703 4441 
L 1819 4666 
L 2450 4666 
L 2450 531 
L 3481 531 
L 3481 0 
L 794 0 
L 794 531 
z
" transform="scale(0.015625)"/>
        <path id="DejaVuSans-36" d="M 2113 2584 
Q 1688 2584 1439 2293 
Q 1191 2003 1191 1497 
Q 1191 994 1439 701 
Q 1688 409 2113 409 
Q 2538 409 2786 701 
Q 3034 994 3034 1497 
Q 3034 2003 2786 2293 
Q 2538 2584 2113 2584 
z
M 3366 4563 
L 3366 3988 
Q 3128 4100 2886 4159 
Q 2644 4219 2406 4219 
Q 1781 4219 1451 3797 
Q 1122 3375 1075 2522 
Q 1259 2794 1537 2939 
Q 1816 3084 2150 3084 
Q 2853 3084 3261 2657 
Q 3669 2231 3669 1497 
Q 3669 778 3244 343 
Q 2819 -91 2113 -91 
Q 1303 -91 875 529 
Q 447 1150 447 2328 
Q 447 3434 972 4092 
Q 1497 4750 2381 4750 
Q 2619 4750 2861 4703 
Q 3103 4656 3366 4563 
z
" transform="scale(0.015625)"/>
        <path id="DejaVuSans-32" d="M 1228 531 
L 3431 531 
L 3431 0 
L 469 0 
L 469 531 
Q 828 903 1448 1529 
Q 2069 2156 2228 2338 
Q 2531 2678 2651 2914 
Q 2772 3150 2772 3378 
Q 2772 3750 2511 3984 
Q 2250 4219 1831 4219 
Q 1534 4219 1204 4116 
Q 875 4013 500 3803 
L 500 4441 
Q 881 4594 1212 4672 
Q 1544 4750 1819 4750 
Q 2544 4750 2975 4387 
Q 3406 4025 3406 3419 
Q 3406 3131 3298 2873 
Q 3191 2616 2906 2266 
Q 2828 2175 2409 1742 
Q 1991 1309 1228 531 
z
" transform="scale(0.015625)"/>
       </defs>
       <use xlink:href="#DejaVuSans-30"/>
       <use xlink:href="#DejaVuSans-38" x="63.623047"/>
       <use xlink:href="#DejaVuSans-2f" x="127.246094"/>
       <use xlink:href="#DejaVuSans-31" x="160.9375"/>
       <use xlink:href="#DejaVuSans-36" x="224.560547"/>
       <use xlink:href="#DejaVuSans-2f" x="288.183594"/>
       <use xlink:href="#DejaVuSans-32" x="321.875"/>
       <use xlink:href="#DejaVuSans-30" x="385.498047"/>
      </g>
     </g>
    </g>
    <g id="xtick_2">
     <g id="line2d_3">
      <path d="M 142.319676 167.688824 
L 142.319676 1.368824 
" clip-path="url(#pa93bcc5336)" style="fill: none; stroke: #ffffff; stroke-width: 0.8; stroke-linecap: square"/>
     </g>
     <g id="line2d_4">
      <g>
       <use xlink:href="#m468ab57606" x="142.319676" y="167.688824" style="fill: #555555; stroke: #555555; stroke-width: 0.8"/>
      </g>
     </g>
     <g id="text_2">
      <!-- 10/05/20 -->
      <g style="fill: #555555" transform="translate(119.863426 182.287261) scale(0.1 -0.1)">
       <defs>
        <path id="DejaVuSans-35" d="M 691 4666 
L 3169 4666 
L 3169 4134 
L 1269 4134 
L 1269 2991 
Q 1406 3038 1543 3061 
Q 1681 3084 1819 3084 
Q 2600 3084 3056 2656 
Q 3513 2228 3513 1497 
Q 3513 744 3044 326 
Q 2575 -91 1722 -91 
Q 1428 -91 1123 -41 
Q 819 9 494 109 
L 494 744 
Q 775 591 1075 516 
Q 1375 441 1709 441 
Q 2250 441 2565 725 
Q 2881 1009 2881 1497 
Q 2881 1984 2565 2268 
Q 2250 2553 1709 2553 
Q 1456 2553 1204 2497 
Q 953 2441 691 2322 
L 691 4666 
z
" transform="scale(0.015625)"/>
       </defs>
       <use xlink:href="#DejaVuSans-31"/>
       <use xlink:href="#DejaVuSans-30" x="63.623047"/>
       <use xlink:href="#DejaVuSans-2f" x="127.246094"/>
       <use xlink:href="#DejaVuSans-30" x="160.9375"/>
       <use xlink:href="#DejaVuSans-35" x="224.560547"/>
       <use xlink:href="#DejaVuSans-2f" x="288.183594"/>
       <use xlink:href="#DejaVuSans-32" x="321.875"/>
       <use xlink:href="#DejaVuSans-30" x="385.498047"/>
      </g>
     </g>
    </g>
    <g id="xtick_3">
     <g id="line2d_5">
      <path d="M 212.219461 167.688824 
L 212.219461 1.368824 
" clip-path="url(#pa93bcc5336)" style="fill: none; stroke: #ffffff; stroke-width: 0.8; stroke-linecap: square"/>
     </g>
     <g id="line2d_6">
      <g>
       <use xlink:href="#m468ab57606" x="212.219461" y="167.688824" style="fill: #555555; stroke: #555555; stroke-width: 0.8"/>
      </g>
     </g>
     <g id="text_3">
      <!-- 11/24/20 -->
      <g style="fill: #555555" transform="translate(189.763211 182.287261) scale(0.1 -0.1)">
       <defs>
        <path id="DejaVuSans-34" d="M 2419 4116 
L 825 1625 
L 2419 1625 
L 2419 4116 
z
M 2253 4666 
L 3047 4666 
L 3047 1625 
L 3713 1625 
L 3713 1100 
L 3047 1100 
L 3047 0 
L 2419 0 
L 2419 1100 
L 313 1100 
L 313 1709 
L 2253 4666 
z
" transform="scale(0.015625)"/>
       </defs>
       <use xlink:href="#DejaVuSans-31"/>
       <use xlink:href="#DejaVuSans-31" x="63.623047"/>
       <use xlink:href="#DejaVuSans-2f" x="127.246094"/>
       <use xlink:href="#DejaVuSans-32" x="160.9375"/>
       <use xlink:href="#DejaVuSans-34" x="224.560547"/>
       <use xlink:href="#DejaVuSans-2f" x="288.183594"/>
       <use xlink:href="#DejaVuSans-32" x="321.875"/>
       <use xlink:href="#DejaVuSans-30" x="385.498047"/>
      </g>
     </g>
    </g>
    <g id="xtick_4">
     <g id="line2d_7">
      <path d="M 282.119246 167.688824 
L 282.119246 1.368824 
" clip-path="url(#pa93bcc5336)" style="fill: none; stroke: #ffffff; stroke-width: 0.8; stroke-linecap: square"/>
     </g>
     <g id="line2d_8">
      <g>
       <use xlink:href="#m468ab57606" x="282.119246" y="167.688824" style="fill: #555555; stroke: #555555; stroke-width: 0.8"/>
      </g>
     </g>
     <g id="text_4">
      <!-- 01/13/21 -->
      <g style="fill: #555555" transform="translate(259.662996 182.287261) scale(0.1 -0.1)">
       <defs>
        <path id="DejaVuSans-33" d="M 2597 2516 
Q 3050 2419 3304 2112 
Q 3559 1806 3559 1356 
Q 3559 666 3084 287 
Q 2609 -91 1734 -91 
Q 1441 -91 1130 -33 
Q 819 25 488 141 
L 488 750 
Q 750 597 1062 519 
Q 1375 441 1716 441 
Q 2309 441 2620 675 
Q 2931 909 2931 1356 
Q 2931 1769 2642 2001 
Q 2353 2234 1838 2234 
L 1294 2234 
L 1294 2753 
L 1863 2753 
Q 2328 2753 2575 2939 
Q 2822 3125 2822 3475 
Q 2822 3834 2567 4026 
Q 2313 4219 1838 4219 
Q 1578 4219 1281 4162 
Q 984 4106 628 3988 
L 628 4550 
Q 988 4650 1302 4700 
Q 1616 4750 1894 4750 
Q 2613 4750 3031 4423 
Q 3450 4097 3450 3541 
Q 3450 3153 3228 2886 
Q 3006 2619 2597 2516 
z
" transform="scale(0.015625)"/>
       </defs>
       <use xlink:href="#DejaVuSans-30"/>
       <use xlink:href="#DejaVuSans-31" x="63.623047"/>
       <use xlink:href="#DejaVuSans-2f" x="127.246094"/>
       <use xlink:href="#DejaVuSans-31" x="160.9375"/>
       <use xlink:href="#DejaVuSans-33" x="224.560547"/>
       <use xlink:href="#DejaVuSans-2f" x="288.183594"/>
       <use xlink:href="#DejaVuSans-32" x="321.875"/>
       <use xlink:href="#DejaVuSans-31" x="385.498047"/>
      </g>
     </g>
    </g>
    <g id="xtick_5">
     <g id="line2d_9">
      <path d="M 352.019031 167.688824 
L 352.019031 1.368824 
" clip-path="url(#pa93bcc5336)" style="fill: none; stroke: #ffffff; stroke-width: 0.8; stroke-linecap: square"/>
     </g>
     <g id="line2d_10">
      <g>
       <use xlink:href="#m468ab57606" x="352.019031" y="167.688824" style="fill: #555555; stroke: #555555; stroke-width: 0.8"/>
      </g>
     </g>
     <g id="text_5">
      <!-- 03/04/21 -->
      <g style="fill: #555555" transform="translate(329.562781 182.287261) scale(0.1 -0.1)">
       <use xlink:href="#DejaVuSans-30"/>
       <use xlink:href="#DejaVuSans-33" x="63.623047"/>
       <use xlink:href="#DejaVuSans-2f" x="127.246094"/>
       <use xlink:href="#DejaVuSans-30" x="160.9375"/>
       <use xlink:href="#DejaVuSans-34" x="224.560547"/>
       <use xlink:href="#DejaVuSans-2f" x="288.183594"/>
       <use xlink:href="#DejaVuSans-32" x="321.875"/>
       <use xlink:href="#DejaVuSans-31" x="385.498047"/>
      </g>
     </g>
    </g>
    <g id="xtick_6">
     <g id="line2d_11">
      <path d="M 421.918817 167.688824 
L 421.918817 1.368824 
" clip-path="url(#pa93bcc5336)" style="fill: none; stroke: #ffffff; stroke-width: 0.8; stroke-linecap: square"/>
     </g>
     <g id="line2d_12">
      <g>
       <use xlink:href="#m468ab57606" x="421.918817" y="167.688824" style="fill: #555555; stroke: #555555; stroke-width: 0.8"/>
      </g>
     </g>
     <g id="text_6">
      <!-- 04/23/21 -->
      <g style="fill: #555555" transform="translate(399.462567 182.287261) scale(0.1 -0.1)">
       <use xlink:href="#DejaVuSans-30"/>
       <use xlink:href="#DejaVuSans-34" x="63.623047"/>
       <use xlink:href="#DejaVuSans-2f" x="127.246094"/>
       <use xlink:href="#DejaVuSans-32" x="160.9375"/>
       <use xlink:href="#DejaVuSans-33" x="224.560547"/>
       <use xlink:href="#DejaVuSans-2f" x="288.183594"/>
       <use xlink:href="#DejaVuSans-32" x="321.875"/>
       <use xlink:href="#DejaVuSans-31" x="385.498047"/>
      </g>
     </g>
    </g>
    <g id="text_7">
     <!-- Date -->
     <g style="fill: #555555" transform="translate(225.838438 197.485074) scale(0.12 -0.12)">
      <defs>
       <path id="DejaVuSans-44" d="M 1259 4147 
L 1259 519 
L 2022 519 
Q 2988 519 3436 956 
Q 3884 1394 3884 2338 
Q 3884 3275 3436 3711 
Q 2988 4147 2022 4147 
L 1259 4147 
z
M 628 4666 
L 1925 4666 
Q 3281 4666 3915 4102 
Q 4550 3538 4550 2338 
Q 4550 1131 3912 565 
Q 3275 0 1925 0 
L 628 0 
L 628 4666 
z
" transform="scale(0.015625)"/>
       <path id="DejaVuSans-61" d="M 2194 1759 
Q 1497 1759 1228 1600 
Q 959 1441 959 1056 
Q 959 750 1161 570 
Q 1363 391 1709 391 
Q 2188 391 2477 730 
Q 2766 1069 2766 1631 
L 2766 1759 
L 2194 1759 
z
M 3341 1997 
L 3341 0 
L 2766 0 
L 2766 531 
Q 2569 213 2275 61 
Q 1981 -91 1556 -91 
Q 1019 -91 701 211 
Q 384 513 384 1019 
Q 384 1609 779 1909 
Q 1175 2209 1959 2209 
L 2766 2209 
L 2766 2266 
Q 2766 2663 2505 2880 
Q 2244 3097 1772 3097 
Q 1472 3097 1187 3025 
Q 903 2953 641 2809 
L 641 3341 
Q 956 3463 1253 3523 
Q 1550 3584 1831 3584 
Q 2591 3584 2966 3190 
Q 3341 2797 3341 1997 
z
" transform="scale(0.015625)"/>
       <path id="DejaVuSans-74" d="M 1172 4494 
L 1172 3500 
L 2356 3500 
L 2356 3053 
L 1172 3053 
L 1172 1153 
Q 1172 725 1289 603 
Q 1406 481 1766 481 
L 2356 481 
L 2356 0 
L 1766 0 
Q 1100 0 847 248 
Q 594 497 594 1153 
L 594 3053 
L 172 3053 
L 172 3500 
L 594 3500 
L 594 4494 
L 1172 4494 
z
" transform="scale(0.015625)"/>
       <path id="DejaVuSans-65" d="M 3597 1894 
L 3597 1613 
L 953 1613 
Q 991 1019 1311 708 
Q 1631 397 2203 397 
Q 2534 397 2845 478 
Q 3156 559 3463 722 
L 3463 178 
Q 3153 47 2828 -22 
Q 2503 -91 2169 -91 
Q 1331 -91 842 396 
Q 353 884 353 1716 
Q 353 2575 817 3079 
Q 1281 3584 2069 3584 
Q 2775 3584 3186 3129 
Q 3597 2675 3597 1894 
z
M 3022 2063 
Q 3016 2534 2758 2815 
Q 2500 3097 2075 3097 
Q 1594 3097 1305 2825 
Q 1016 2553 972 2059 
L 3022 2063 
z
" transform="scale(0.015625)"/>
      </defs>
      <use xlink:href="#DejaVuSans-44"/>
      <use xlink:href="#DejaVuSans-61" x="77.001953"/>
      <use xlink:href="#DejaVuSans-74" x="138.28125"/>
      <use xlink:href="#DejaVuSans-65" x="177.490234"/>
     </g>
    </g>
   </g>
   <g id="matplotlib.axis_2">
    <g id="ytick_1">
     <g id="line2d_13">
      <path d="M 44.879375 139.565873 
L 435.479375 139.565873 
" clip-path="url(#pa93bcc5336)" style="fill: none; stroke: #ffffff; stroke-width: 0.8; stroke-linecap: square"/>
     </g>
     <g id="line2d_14">
      <defs>
       <path id="m4051b3abad" d="M 0 0 
L -3.5 0 
" style="stroke: #555555; stroke-width: 0.8"/>
      </defs>
      <g>
       <use xlink:href="#m4051b3abad" x="44.879375" y="139.565873" style="fill: #555555; stroke: #555555; stroke-width: 0.8"/>
      </g>
     </g>
     <g id="text_8">
      <!-- 0.05 -->
      <g style="fill: #555555" transform="translate(15.61375 143.365091) scale(0.1 -0.1)">
       <defs>
        <path id="DejaVuSans-2e" d="M 684 794 
L 1344 794 
L 1344 0 
L 684 0 
L 684 794 
z
" transform="scale(0.015625)"/>
       </defs>
       <use xlink:href="#DejaVuSans-30"/>
       <use xlink:href="#DejaVuSans-2e" x="63.623047"/>
       <use xlink:href="#DejaVuSans-30" x="95.410156"/>
       <use xlink:href="#DejaVuSans-35" x="159.033203"/>
      </g>
     </g>
    </g>
    <g id="ytick_2">
     <g id="line2d_15">
      <path d="M 44.879375 105.624209 
L 435.479375 105.624209 
" clip-path="url(#pa93bcc5336)" style="fill: none; stroke: #ffffff; stroke-width: 0.8; stroke-linecap: square"/>
     </g>
     <g id="line2d_16">
      <g>
       <use xlink:href="#m4051b3abad" x="44.879375" y="105.624209" style="fill: #555555; stroke: #555555; stroke-width: 0.8"/>
      </g>
     </g>
     <g id="text_9">
      <!-- 0.10 -->
      <g style="fill: #555555" transform="translate(15.61375 109.423428) scale(0.1 -0.1)">
       <use xlink:href="#DejaVuSans-30"/>
       <use xlink:href="#DejaVuSans-2e" x="63.623047"/>
       <use xlink:href="#DejaVuSans-31" x="95.410156"/>
       <use xlink:href="#DejaVuSans-30" x="159.033203"/>
      </g>
     </g>
    </g>
    <g id="ytick_3">
     <g id="line2d_17">
      <path d="M 44.879375 71.682546 
L 435.479375 71.682546 
" clip-path="url(#pa93bcc5336)" style="fill: none; stroke: #ffffff; stroke-width: 0.8; stroke-linecap: square"/>
     </g>
     <g id="line2d_18">
      <g>
       <use xlink:href="#m4051b3abad" x="44.879375" y="71.682546" style="fill: #555555; stroke: #555555; stroke-width: 0.8"/>
      </g>
     </g>
     <g id="text_10">
      <!-- 0.15 -->
      <g style="fill: #555555" transform="translate(15.61375 75.481764) scale(0.1 -0.1)">
       <use xlink:href="#DejaVuSans-30"/>
       <use xlink:href="#DejaVuSans-2e" x="63.623047"/>
       <use xlink:href="#DejaVuSans-31" x="95.410156"/>
       <use xlink:href="#DejaVuSans-35" x="159.033203"/>
      </g>
     </g>
    </g>
    <g id="ytick_4">
     <g id="line2d_19">
      <path d="M 44.879375 37.740882 
L 435.479375 37.740882 
" clip-path="url(#pa93bcc5336)" style="fill: none; stroke: #ffffff; stroke-width: 0.8; stroke-linecap: square"/>
     </g>
     <g id="line2d_20">
      <g>
       <use xlink:href="#m4051b3abad" x="44.879375" y="37.740882" style="fill: #555555; stroke: #555555; stroke-width: 0.8"/>
      </g>
     </g>
     <g id="text_11">
      <!-- 0.20 -->
      <g style="fill: #555555" transform="translate(15.61375 41.540101) scale(0.1 -0.1)">
       <use xlink:href="#DejaVuSans-30"/>
       <use xlink:href="#DejaVuSans-2e" x="63.623047"/>
       <use xlink:href="#DejaVuSans-32" x="95.410156"/>
       <use xlink:href="#DejaVuSans-30" x="159.033203"/>
      </g>
     </g>
    </g>
    <g id="ytick_5">
     <g id="line2d_21">
      <path d="M 44.879375 3.799219 
L 435.479375 3.799219 
" clip-path="url(#pa93bcc5336)" style="fill: none; stroke: #ffffff; stroke-width: 0.8; stroke-linecap: square"/>
     </g>
     <g id="line2d_22">
      <g>
       <use xlink:href="#m4051b3abad" x="44.879375" y="3.799219" style="fill: #555555; stroke: #555555; stroke-width: 0.8"/>
      </g>
     </g>
     <g id="text_12">
      <!-- 0.25 -->
      <g style="fill: #555555" transform="translate(15.61375 7.598437) scale(0.1 -0.1)">
       <use xlink:href="#DejaVuSans-30"/>
       <use xlink:href="#DejaVuSans-2e" x="63.623047"/>
       <use xlink:href="#DejaVuSans-32" x="95.410156"/>
       <use xlink:href="#DejaVuSans-35" x="159.033203"/>
      </g>
     </g>
    </g>
    <g id="text_13">
     <!-- Value -->
     <g style="fill: #555555" transform="translate(9.118125 101.006324) rotate(-90) scale(0.12 -0.12)">
      <defs>
       <path id="DejaVuSans-56" d="M 1831 0 
L 50 4666 
L 709 4666 
L 2188 738 
L 3669 4666 
L 4325 4666 
L 2547 0 
L 1831 0 
z
" transform="scale(0.015625)"/>
       <path id="DejaVuSans-6c" d="M 603 4863 
L 1178 4863 
L 1178 0 
L 603 0 
L 603 4863 
z
" transform="scale(0.015625)"/>
       <path id="DejaVuSans-75" d="M 544 1381 
L 544 3500 
L 1119 3500 
L 1119 1403 
Q 1119 906 1312 657 
Q 1506 409 1894 409 
Q 2359 409 2629 706 
Q 2900 1003 2900 1516 
L 2900 3500 
L 3475 3500 
L 3475 0 
L 2900 0 
L 2900 538 
Q 2691 219 2414 64 
Q 2138 -91 1772 -91 
Q 1169 -91 856 284 
Q 544 659 544 1381 
z
M 1991 3584 
L 1991 3584 
z
" transform="scale(0.015625)"/>
      </defs>
      <use xlink:href="#DejaVuSans-56"/>
      <use xlink:href="#DejaVuSans-61" x="60.658203"/>
      <use xlink:href="#DejaVuSans-6c" x="121.9375"/>
      <use xlink:href="#DejaVuSans-75" x="149.720703"/>
      <use xlink:href="#DejaVuSans-65" x="213.099609"/>
     </g>
    </g>
   </g>
   <g id="PolyCollection_1">
    <defs>
     <path id="mb4bb22aa81" d="M 62.63392 -41.364292 
L 62.63392 -45.161097 
L 64.031916 -46.087142 
L 65.429912 -45.727737 
L 66.827908 -45.315241 
L 68.225903 -45.54583 
L 69.623899 -47.917505 
L 71.021895 -50.520502 
L 72.41989 -50.567912 
L 73.817886 -51.60243 
L 75.215882 -51.161407 
L 76.613878 -51.333721 
L 78.011873 -51.279655 
L 79.409869 -51.545249 
L 80.807865 -51.092045 
L 82.20586 -51.353425 
L 83.603856 -52.223902 
L 85.001852 -55.123577 
L 86.399847 -59.387135 
L 87.797843 -59.952105 
L 89.195839 -60.435118 
L 90.593835 -60.829356 
L 91.99183 -60.961384 
L 93.389826 -61.962993 
L 94.787822 -60.969434 
L 96.185817 -61.263923 
L 97.583813 -61.895328 
L 98.981809 -63.097689 
L 100.379804 -63.204929 
L 101.7778 -62.849909 
L 103.175796 -63.926238 
L 104.573792 -63.972594 
L 105.971787 -64.151931 
L 107.369783 -64.127969 
L 108.767779 -71.216689 
L 110.165774 -76.700865 
L 111.56377 -69.976898 
L 112.961766 -76.518019 
L 114.359762 -86.115984 
L 115.757757 -84.926729 
L 117.155753 -85.429077 
L 118.553749 -85.098567 
L 119.951744 -84.800576 
L 121.34974 -80.943283 
L 122.747736 -84.230757 
L 124.145731 -84.363451 
L 125.543727 -76.569995 
L 126.941723 -76.508012 
L 128.339719 -75.450915 
L 129.737714 -73.760382 
L 131.13571 -70.341616 
L 132.533706 -73.911916 
L 133.931701 -75.923575 
L 135.329697 -81.133776 
L 136.727693 -86.693319 
L 138.125689 -87.150674 
L 139.523684 -93.24525 
L 140.92168 -93.652306 
L 142.319676 -89.527443 
L 143.717671 -91.708762 
L 145.115667 -91.949995 
L 146.513663 -92.935779 
L 147.911658 -94.384442 
L 149.309654 -101.206731 
L 150.70765 -97.26352 
L 152.105646 -95.875802 
L 153.503641 -97.639256 
L 154.901637 -95.942062 
L 156.299633 -101.625591 
L 157.697628 -104.666742 
L 159.095624 -101.332332 
L 160.49362 -100.818535 
L 161.891616 -102.254585 
L 163.289611 -102.679011 
L 164.687607 -108.267878 
L 166.085603 -104.456195 
L 167.483598 -103.032731 
L 168.881594 -102.710504 
L 170.27959 -104.893529 
L 171.677585 -105.185679 
L 173.075581 -106.635703 
L 174.473577 -104.898102 
L 175.871573 -113.107834 
L 177.269568 -109.447867 
L 178.667564 -117.052122 
L 180.06556 -111.901407 
L 181.463555 -115.328156 
L 182.861551 -114.548264 
L 184.259547 -116.519958 
L 185.657543 -124.699939 
L 187.055538 -125.010718 
L 188.453534 -127.146937 
L 189.85153 -123.267426 
L 191.249525 -125.137991 
L 192.647521 -135.545086 
L 194.045517 -143.26287 
L 195.443512 -143.299825 
L 196.841508 -149.721484 
L 198.239504 -151.026947 
L 199.6375 -136.718853 
L 201.035495 -140.839512 
L 202.433491 -142.349 
L 203.831487 -141.724696 
L 205.229482 -139.549868 
L 206.627478 -141.228718 
L 208.025474 -137.59536 
L 209.423469 -140.107379 
L 210.821465 -138.961981 
L 212.219461 -136.134955 
L 213.617457 -132.732701 
L 215.015452 -126.175725 
L 216.413448 -132.286246 
L 217.811444 -133.213759 
L 219.209439 -134.9672 
L 220.607435 -133.252872 
L 222.005431 -130.5884 
L 223.403427 -125.870493 
L 224.801422 -125.812784 
L 226.199418 -131.188259 
L 227.597414 -131.057032 
L 228.995409 -129.671551 
L 230.393405 -128.877287 
L 231.791401 -121.680646 
L 233.189396 -129.186795 
L 234.587392 -121.129886 
L 235.985388 -116.311423 
L 237.383384 -114.278179 
L 238.781379 -113.478903 
L 240.179375 -108.028956 
L 241.577371 -105.393811 
L 242.975366 -100.57009 
L 244.373362 -97.23347 
L 245.771358 -95.835754 
L 247.169354 -92.357403 
L 248.567349 -95.780971 
L 249.965345 -91.332518 
L 251.363341 -88.830019 
L 252.761336 -85.64779 
L 254.159332 -76.946207 
L 255.557328 -76.980254 
L 256.955323 -75.67243 
L 258.353319 -75.790279 
L 259.751315 -76.344588 
L 261.149311 -74.383148 
L 262.547306 -74.570761 
L 263.945302 -71.016144 
L 265.343298 -70.469096 
L 266.741293 -70.982105 
L 268.139289 -72.427646 
L 269.537285 -71.87875 
L 270.935281 -70.926612 
L 272.333276 -70.969319 
L 273.731272 -72.228481 
L 275.129268 -71.383244 
L 276.527263 -66.789253 
L 277.925259 -67.591789 
L 279.323255 -72.009785 
L 280.72125 -66.4066 
L 282.119246 -62.948897 
L 283.517242 -67.533205 
L 284.915238 -67.63659 
L 286.313233 -67.863832 
L 287.711229 -62.395955 
L 289.109225 -61.536819 
L 290.50722 -62.593918 
L 291.905216 -62.796214 
L 293.303212 -62.241944 
L 294.701207 -63.061637 
L 296.099203 -62.431505 
L 297.497199 -66.576114 
L 298.895195 -61.891805 
L 300.29319 -62.297164 
L 301.691186 -62.445151 
L 303.089182 -60.19641 
L 304.487177 -62.134939 
L 305.885173 -60.205195 
L 307.283169 -60.611928 
L 308.681165 -60.382101 
L 310.07916 -60.270205 
L 311.477156 -60.005544 
L 312.875152 -59.86818 
L 314.273147 -59.504002 
L 315.671143 -63.590804 
L 317.069139 -63.635283 
L 318.467134 -63.86013 
L 319.86513 -58.525893 
L 321.263126 -58.986346 
L 322.661122 -61.721374 
L 324.059117 -60.844447 
L 325.457113 -61.266393 
L 326.855109 -60.91089 
L 328.253104 -61.049238 
L 329.6511 -60.509729 
L 331.049096 -58.51879 
L 332.447092 -57.241066 
L 333.845087 -60.574524 
L 335.243083 -60.968017 
L 336.641079 -61.120914 
L 338.039074 -58.187608 
L 339.43707 -58.567601 
L 340.835066 -58.227469 
L 342.233061 -58.161815 
L 343.631057 -58.720186 
L 345.029053 -59.788114 
L 346.427049 -59.346451 
L 347.825044 -58.992731 
L 349.22304 -59.384806 
L 350.621036 -60.22286 
L 352.019031 -61.031536 
L 353.417027 -64.666521 
L 354.815023 -65.473678 
L 356.213019 -65.642118 
L 357.611014 -66.391855 
L 359.00901 -66.424634 
L 360.407006 -68.238507 
L 361.805001 -74.818572 
L 363.202997 -81.989237 
L 364.600993 -81.12287 
L 365.998988 -82.892997 
L 367.396984 -86.672385 
L 368.79498 -87.658165 
L 370.192976 -90.733282 
L 371.590971 -92.50921 
L 372.988967 -98.749665 
L 374.386963 -102.369931 
L 375.784958 -102.448136 
L 377.182954 -105.767797 
L 378.58095 -108.528086 
L 379.978946 -110.662399 
L 381.376941 -122.310128 
L 382.774937 -129.240938 
L 384.172933 -143.769704 
L 385.570928 -139.694398 
L 386.968924 -152.882346 
L 388.36692 -155.216033 
L 389.764915 -158.985596 
L 391.162911 -160.403979 
L 392.560907 -161.245237 
L 393.958903 -167.906144 
L 395.356898 -164.950077 
L 396.754894 -173.723018 
L 398.15289 -172.139805 
L 399.550885 -179.661721 
L 400.948881 -180.5498 
L 402.346877 -181.857292 
L 403.744872 -180.084812 
L 405.142868 -187.797714 
L 406.540864 -189.553596 
L 407.93886 -187.929303 
L 409.336855 -188.414674 
L 410.734851 -188.716524 
L 412.132847 -191.051875 
L 413.530842 -188.881433 
L 414.928838 -161.342204 
L 416.326834 -174.408176 
L 417.72483 -174.373131 
L 417.72483 -161.61167 
L 417.72483 -161.61167 
L 416.326834 -162.556136 
L 414.928838 -149.369723 
L 413.530842 -176.181259 
L 412.132847 -178.363748 
L 410.734851 -176.899501 
L 409.336855 -174.9517 
L 407.93886 -175.116788 
L 406.540864 -177.286833 
L 405.142868 -176.710921 
L 403.744872 -168.588182 
L 402.346877 -168.616787 
L 400.948881 -167.756994 
L 399.550885 -166.954297 
L 398.15289 -159.722171 
L 396.754894 -159.348373 
L 395.356898 -151.497085 
L 393.958903 -155.995365 
L 392.560907 -147.93294 
L 391.162911 -147.175345 
L 389.764915 -146.619604 
L 388.36692 -143.906105 
L 386.968924 -139.823724 
L 385.570928 -129.026084 
L 384.172933 -131.881438 
L 382.774937 -118.986411 
L 381.376941 -110.978148 
L 379.978946 -101.121005 
L 378.58095 -98.987697 
L 377.182954 -95.700519 
L 375.784958 -92.995196 
L 374.386963 -93.230492 
L 372.988967 -89.875577 
L 371.590971 -81.968857 
L 370.192976 -82.072863 
L 368.79498 -78.978799 
L 367.396984 -77.488878 
L 365.998988 -74.928067 
L 364.600993 -73.674904 
L 363.202997 -73.471482 
L 361.805001 -67.256156 
L 360.407006 -61.905713 
L 359.00901 -60.712554 
L 357.611014 -60.728097 
L 356.213019 -60.16752 
L 354.815023 -59.216895 
L 353.417027 -58.580711 
L 352.019031 -55.996321 
L 350.621036 -54.253628 
L 349.22304 -53.949992 
L 347.825044 -53.720642 
L 346.427049 -53.514513 
L 345.029053 -53.693789 
L 343.631057 -52.954464 
L 342.233061 -53.152405 
L 340.835066 -52.746783 
L 339.43707 -52.40078 
L 338.039074 -52.146834 
L 336.641079 -54.862474 
L 335.243083 -54.233026 
L 333.845087 -54.980687 
L 332.447092 -51.951383 
L 331.049096 -52.863983 
L 329.6511 -54.904059 
L 328.253104 -55.507996 
L 326.855109 -54.70775 
L 325.457113 -55.343188 
L 324.059117 -54.778663 
L 322.661122 -55.29078 
L 321.263126 -53.068238 
L 319.86513 -52.796017 
L 318.467134 -57.304058 
L 317.069139 -56.816332 
L 315.671143 -57.063436 
L 314.273147 -53.655275 
L 312.875152 -53.968695 
L 311.477156 -53.875817 
L 310.07916 -54.052361 
L 308.681165 -54.243629 
L 307.283169 -53.934715 
L 305.885173 -54.396124 
L 304.487177 -55.771272 
L 303.089182 -53.458835 
L 301.691186 -56.242589 
L 300.29319 -55.836813 
L 298.895195 -55.649673 
L 297.497199 -58.865503 
L 296.099203 -55.748572 
L 294.701207 -56.177886 
L 293.303212 -56.274875 
L 291.905216 -56.162001 
L 290.50722 -56.199698 
L 289.109225 -55.840781 
L 287.711229 -56.628238 
L 286.313233 -60.449594 
L 284.915238 -60.446909 
L 283.517242 -60.328554 
L 282.119246 -56.472852 
L 280.72125 -59.971399 
L 279.323255 -63.783643 
L 277.925259 -60.171699 
L 276.527263 -59.627498 
L 275.129268 -63.141593 
L 273.731272 -64.923479 
L 272.333276 -64.107376 
L 270.935281 -64.086079 
L 269.537285 -64.273576 
L 268.139289 -64.460293 
L 266.741293 -65.010927 
L 265.343298 -63.698007 
L 263.945302 -63.812171 
L 262.547306 -66.781043 
L 261.149311 -67.72596 
L 259.751315 -68.831797 
L 258.353319 -70.065146 
L 256.955323 -68.693012 
L 255.557328 -69.09432 
L 254.159332 -69.518407 
L 252.761336 -76.302302 
L 251.363341 -79.811795 
L 249.965345 -81.650846 
L 248.567349 -87.395005 
L 247.169354 -83.577966 
L 245.771358 -87.195494 
L 244.373362 -88.764471 
L 242.975366 -90.405607 
L 241.577371 -96.093807 
L 240.179375 -97.724082 
L 238.781379 -103.648752 
L 237.383384 -104.500686 
L 235.985388 -106.141025 
L 234.587392 -110.252988 
L 233.189396 -117.135439 
L 231.791401 -110.887066 
L 230.393405 -117.980891 
L 228.995409 -119.500817 
L 227.597414 -119.023865 
L 226.199418 -120.331233 
L 224.801422 -114.538064 
L 223.403427 -115.74363 
L 222.005431 -121.105023 
L 220.607435 -121.250729 
L 219.209439 -123.225708 
L 217.811444 -120.981708 
L 216.413448 -121.427964 
L 215.015452 -114.879202 
L 213.617457 -122.20108 
L 212.219461 -124.638075 
L 210.821465 -127.09218 
L 209.423469 -128.871669 
L 208.025474 -127.414757 
L 206.627478 -129.270938 
L 205.229482 -128.18286 
L 203.831487 -129.685957 
L 202.433491 -130.834831 
L 201.035495 -129.565903 
L 199.6375 -123.493893 
L 198.239504 -138.062828 
L 196.841508 -135.877207 
L 195.443512 -131.531855 
L 194.045517 -128.288721 
L 192.647521 -123.330155 
L 191.249525 -114.110433 
L 189.85153 -110.946666 
L 188.453534 -115.328705 
L 187.055538 -113.56515 
L 185.657543 -114.510742 
L 184.259547 -105.387644 
L 182.861551 -103.690386 
L 181.463555 -104.150377 
L 180.06556 -100.033275 
L 178.667564 -105.002159 
L 177.269568 -97.829846 
L 175.871573 -100.106363 
L 174.473577 -94.42634 
L 173.075581 -94.552192 
L 171.677585 -93.268668 
L 170.27959 -93.526727 
L 168.881594 -91.268021 
L 167.483598 -91.923862 
L 166.085603 -91.899523 
L 164.687607 -97.090582 
L 163.289611 -90.82948 
L 161.891616 -91.022366 
L 160.49362 -90.875709 
L 159.095624 -91.062372 
L 157.697628 -93.850265 
L 156.299633 -92.324476 
L 154.901637 -86.788285 
L 153.503641 -87.113305 
L 152.105646 -85.854857 
L 150.70765 -86.5354 
L 149.309654 -91.250976 
L 147.911658 -84.121847 
L 146.513663 -83.212963 
L 145.115667 -83.72227 
L 143.717671 -83.273193 
L 142.319676 -82.388685 
L 140.92168 -85.820471 
L 139.523684 -84.813068 
L 138.125689 -78.60073 
L 136.727693 -78.071621 
L 135.329697 -72.86397 
L 133.931701 -68.549569 
L 132.533706 -66.591113 
L 131.13571 -63.35045 
L 129.737714 -67.405529 
L 128.339719 -68.921377 
L 126.941723 -69.738579 
L 125.543727 -69.569542 
L 124.145731 -77.712011 
L 122.747736 -76.666348 
L 121.34974 -74.081351 
L 119.951744 -75.978809 
L 118.553749 -78.125675 
L 117.155753 -77.794346 
L 115.757757 -76.348134 
L 114.359762 -78.196802 
L 112.961766 -69.635432 
L 111.56377 -63.837728 
L 110.165774 -69.625918 
L 108.767779 -65.311771 
L 107.369783 -58.355188 
L 105.971787 -57.900623 
L 104.573792 -57.727251 
L 103.175796 -57.873492 
L 101.7778 -56.946252 
L 100.379804 -57.459435 
L 98.981809 -56.881931 
L 97.583813 -55.779574 
L 96.185817 -55.257393 
L 94.787822 -54.631985 
L 93.389826 -55.33418 
L 91.99183 -56.021368 
L 90.593835 -54.73505 
L 89.195839 -54.79321 
L 87.797843 -53.763083 
L 86.399847 -54.056074 
L 85.001852 -50.222015 
L 83.603856 -47.142143 
L 82.20586 -47.218989 
L 80.807865 -47.002401 
L 79.409869 -46.887628 
L 78.011873 -46.926439 
L 76.613878 -47.209039 
L 75.215882 -47.261611 
L 73.817886 -47.010878 
L 72.41989 -46.330391 
L 71.021895 -46.34604 
L 69.623899 -43.17597 
L 68.225903 -42.008667 
L 66.827908 -41.283364 
L 65.429912 -42.321557 
L 64.031916 -42.039107 
L 62.63392 -41.364292 
z
" style="stroke: #0db14b; stroke-opacity: 0.5; stroke-width: 0.5"/>
    </defs>
    <g clip-path="url(#pa93bcc5336)">
     <use xlink:href="#mb4bb22aa81" x="0" y="199.980699" style="fill: #0db14b; fill-opacity: 0.5; stroke: #0db14b; stroke-opacity: 0.5; stroke-width: 0.5"/>
    </g>
   </g>
   <g id="line2d_23">
    <path d="M 62.63392 156.718004 
L 64.031916 155.917574 
L 65.429912 155.956052 
L 66.827908 156.681396 
L 68.225903 156.20345 
L 69.623899 154.433961 
L 71.021895 151.547428 
L 72.41989 151.531547 
L 73.817886 150.674045 
L 75.215882 150.76919 
L 76.613878 150.709318 
L 78.011873 150.877652 
L 79.409869 150.76426 
L 80.807865 150.933476 
L 82.20586 150.694491 
L 83.603856 150.297676 
L 85.001852 147.307903 
L 86.399847 143.259094 
L 87.797843 143.123105 
L 89.195839 142.366535 
L 90.593835 142.198496 
L 91.99183 141.489323 
L 93.389826 141.332112 
L 94.787822 142.179989 
L 97.583813 141.143247 
L 98.981809 139.990889 
L 100.379804 139.648517 
L 101.7778 140.082618 
L 103.175796 139.080834 
L 104.573792 139.130776 
L 107.369783 138.73912 
L 108.767779 131.716469 
L 110.165774 126.817307 
L 111.56377 133.073385 
L 112.961766 126.903973 
L 114.359762 117.824306 
L 115.757757 119.343267 
L 117.155753 118.368987 
L 118.553749 118.368577 
L 119.951744 119.591006 
L 121.34974 122.468382 
L 122.747736 119.532146 
L 124.145731 118.942968 
L 125.543727 126.91093 
L 126.941723 126.857403 
L 128.339719 127.794553 
L 129.737714 129.397743 
L 131.13571 133.134666 
L 132.533706 129.729184 
L 133.931701 127.744127 
L 135.329697 122.981826 
L 136.727693 117.598229 
L 138.125689 117.104996 
L 139.523684 110.95154 
L 140.92168 110.24431 
L 142.319676 114.022634 
L 143.717671 112.489721 
L 146.513663 111.906328 
L 147.911658 110.727554 
L 149.309654 103.751846 
L 150.70765 108.081239 
L 152.105646 109.115369 
L 153.503641 107.604418 
L 154.901637 108.615525 
L 156.299633 103.005665 
L 157.697628 100.722195 
L 159.095624 103.783346 
L 160.49362 104.133577 
L 161.891616 103.342223 
L 163.289611 103.226453 
L 164.687607 97.301468 
L 166.085603 101.802839 
L 167.483598 102.502402 
L 168.881594 102.991436 
L 170.27959 100.770571 
L 171.677585 100.753525 
L 173.075581 99.386751 
L 174.473577 100.318478 
L 175.871573 93.3736 
L 177.269568 96.341842 
L 178.667564 88.953558 
L 180.06556 94.013357 
L 181.463555 90.241432 
L 182.861551 90.861374 
L 184.259547 89.026898 
L 185.657543 80.375358 
L 187.055538 80.692765 
L 188.453534 78.742877 
L 189.85153 82.873653 
L 191.249525 80.356487 
L 192.647521 70.543078 
L 194.045517 64.204903 
L 195.443512 62.564859 
L 196.841508 57.181353 
L 198.239504 55.435811 
L 199.6375 69.874326 
L 201.035495 64.777991 
L 202.433491 63.388783 
L 203.831487 64.275372 
L 205.229482 66.114334 
L 206.627478 64.730871 
L 208.025474 67.47564 
L 209.423469 65.491175 
L 210.821465 66.953618 
L 212.219461 69.594183 
L 213.617457 72.513808 
L 215.015452 79.453235 
L 216.413448 73.123594 
L 217.811444 72.882965 
L 219.209439 70.884244 
L 220.607435 72.728898 
L 222.005431 74.133987 
L 223.403427 79.173637 
L 224.801422 79.805275 
L 226.199418 74.220953 
L 227.597414 74.94025 
L 228.995409 75.394515 
L 230.393405 76.551609 
L 231.791401 83.696843 
L 233.189396 76.819581 
L 234.587392 84.289262 
L 235.985388 88.754474 
L 237.383384 90.591266 
L 238.781379 91.416871 
L 240.179375 97.10418 
L 241.577371 99.236889 
L 242.975366 104.49285 
L 244.373362 106.981728 
L 245.771358 108.465074 
L 247.169354 112.013014 
L 248.567349 108.392711 
L 249.965345 113.489017 
L 251.363341 115.659792 
L 252.761336 119.005652 
L 254.159332 126.748392 
L 255.557328 126.943411 
L 256.955323 127.797978 
L 258.353319 127.052986 
L 259.751315 127.392506 
L 261.149311 128.926145 
L 262.547306 129.304796 
L 263.945302 132.566541 
L 265.343298 132.897147 
L 266.741293 131.984182 
L 268.139289 131.536729 
L 269.537285 131.904536 
L 270.935281 132.474353 
L 272.333276 132.442351 
L 273.731272 131.404719 
L 275.129268 132.71828 
L 276.527263 136.772323 
L 277.925259 136.098955 
L 279.323255 132.083985 
L 280.72125 136.791699 
L 282.119246 140.269824 
L 283.517242 136.049819 
L 286.313233 135.823985 
L 287.711229 140.468602 
L 289.109225 141.291898 
L 290.50722 140.583891 
L 291.905216 140.501591 
L 293.303212 140.722289 
L 294.701207 140.360937 
L 296.099203 140.89066 
L 297.497199 137.25989 
L 298.895195 141.209959 
L 301.691186 140.636828 
L 303.089182 143.153076 
L 304.487177 141.027593 
L 305.885173 142.680039 
L 310.07916 142.819416 
L 311.477156 143.040018 
L 312.875152 143.062261 
L 314.273147 143.40106 
L 315.671143 139.653578 
L 317.069139 139.754891 
L 318.467134 139.398604 
L 319.86513 144.319744 
L 321.263126 143.953407 
L 322.661122 141.474622 
L 324.059117 142.169143 
L 325.457113 141.675908 
L 326.855109 142.171379 
L 328.253104 141.702082 
L 329.6511 142.273804 
L 331.049096 144.289312 
L 332.447092 145.384474 
L 333.845087 142.203093 
L 335.243083 142.380177 
L 336.641079 141.989005 
L 338.039074 144.813477 
L 339.43707 144.496508 
L 340.835066 144.493573 
L 343.631057 144.143374 
L 345.029053 143.239747 
L 346.427049 143.550217 
L 347.825044 143.624012 
L 349.22304 143.3133 
L 350.621036 142.742455 
L 352.019031 141.46677 
L 353.417027 138.357083 
L 354.815023 137.635412 
L 357.611014 136.420722 
L 359.00901 136.412105 
L 360.407006 134.908589 
L 361.805001 128.943334 
L 363.202997 122.250339 
L 364.600993 122.581812 
L 365.998988 121.070166 
L 367.396984 117.900067 
L 368.79498 116.662217 
L 370.192976 113.577626 
L 371.590971 112.741665 
L 372.988967 105.668077 
L 374.386963 102.180487 
L 375.784958 102.259032 
L 378.58095 96.222807 
L 379.978946 94.088997 
L 381.376941 83.33656 
L 382.774937 75.867024 
L 384.172933 62.155127 
L 385.570928 65.620458 
L 386.968924 53.627663 
L 389.764915 47.178099 
L 391.162911 46.191036 
L 392.560907 45.39161 
L 393.958903 38.029944 
L 395.356898 41.757118 
L 396.754894 33.445003 
L 398.15289 34.04971 
L 399.550885 26.67269 
L 400.948881 25.827302 
L 402.346877 24.743659 
L 403.744872 25.644201 
L 405.142868 17.726381 
L 406.540864 16.560484 
L 407.93886 18.457653 
L 409.336855 18.297512 
L 410.734851 17.172686 
L 412.132847 15.272887 
L 413.530842 17.449353 
L 414.928838 44.624735 
L 416.326834 31.498542 
L 417.72483 31.988298 
L 417.72483 31.988298 
" clip-path="url(#pa93bcc5336)" style="fill: none; stroke: #0db14b; stroke-width: 3; stroke-linecap: square"/>
    <defs>
     <path id="m0ecf774e81" d="M 0 1.5 
C 0.397805 1.5 0.77937 1.341951 1.06066 1.06066 
C 1.341951 0.77937 1.5 0.397805 1.5 0 
C 1.5 -0.397805 1.341951 -0.77937 1.06066 -1.06066 
C 0.77937 -1.341951 0.397805 -1.5 0 -1.5 
C -0.397805 -1.5 -0.77937 -1.341951 -1.06066 -1.06066 
C -1.341951 -0.77937 -1.5 -0.397805 -1.5 0 
C -1.5 0.397805 -1.341951 0.77937 -1.06066 1.06066 
C -0.77937 1.341951 -0.397805 1.5 0 1.5 
z
" style="stroke: #0db14b"/>
    </defs>
    <g clip-path="url(#pa93bcc5336)">
     <use xlink:href="#m0ecf774e81" x="62.63392" y="156.718004" style="fill: #0db14b; stroke: #0db14b"/>
     <use xlink:href="#m0ecf774e81" x="64.031916" y="155.917574" style="fill: #0db14b; stroke: #0db14b"/>
     <use xlink:href="#m0ecf774e81" x="65.429912" y="155.956052" style="fill: #0db14b; stroke: #0db14b"/>
     <use xlink:href="#m0ecf774e81" x="66.827908" y="156.681396" style="fill: #0db14b; stroke: #0db14b"/>
     <use xlink:href="#m0ecf774e81" x="68.225903" y="156.20345" style="fill: #0db14b; stroke: #0db14b"/>
     <use xlink:href="#m0ecf774e81" x="69.623899" y="154.433961" style="fill: #0db14b; stroke: #0db14b"/>
     <use xlink:href="#m0ecf774e81" x="71.021895" y="151.547428" style="fill: #0db14b; stroke: #0db14b"/>
     <use xlink:href="#m0ecf774e81" x="72.41989" y="151.531547" style="fill: #0db14b; stroke: #0db14b"/>
     <use xlink:href="#m0ecf774e81" x="73.817886" y="150.674045" style="fill: #0db14b; stroke: #0db14b"/>
     <use xlink:href="#m0ecf774e81" x="75.215882" y="150.76919" style="fill: #0db14b; stroke: #0db14b"/>
     <use xlink:href="#m0ecf774e81" x="76.613878" y="150.709318" style="fill: #0db14b; stroke: #0db14b"/>
     <use xlink:href="#m0ecf774e81" x="78.011873" y="150.877652" style="fill: #0db14b; stroke: #0db14b"/>
     <use xlink:href="#m0ecf774e81" x="79.409869" y="150.76426" style="fill: #0db14b; stroke: #0db14b"/>
     <use xlink:href="#m0ecf774e81" x="80.807865" y="150.933476" style="fill: #0db14b; stroke: #0db14b"/>
     <use xlink:href="#m0ecf774e81" x="82.20586" y="150.694491" style="fill: #0db14b; stroke: #0db14b"/>
     <use xlink:href="#m0ecf774e81" x="83.603856" y="150.297676" style="fill: #0db14b; stroke: #0db14b"/>
     <use xlink:href="#m0ecf774e81" x="85.001852" y="147.307903" style="fill: #0db14b; stroke: #0db14b"/>
     <use xlink:href="#m0ecf774e81" x="86.399847" y="143.259094" style="fill: #0db14b; stroke: #0db14b"/>
     <use xlink:href="#m0ecf774e81" x="87.797843" y="143.123105" style="fill: #0db14b; stroke: #0db14b"/>
     <use xlink:href="#m0ecf774e81" x="89.195839" y="142.366535" style="fill: #0db14b; stroke: #0db14b"/>
     <use xlink:href="#m0ecf774e81" x="90.593835" y="142.198496" style="fill: #0db14b; stroke: #0db14b"/>
     <use xlink:href="#m0ecf774e81" x="91.99183" y="141.489323" style="fill: #0db14b; stroke: #0db14b"/>
     <use xlink:href="#m0ecf774e81" x="93.389826" y="141.332112" style="fill: #0db14b; stroke: #0db14b"/>
     <use xlink:href="#m0ecf774e81" x="94.787822" y="142.179989" style="fill: #0db14b; stroke: #0db14b"/>
     <use xlink:href="#m0ecf774e81" x="96.185817" y="141.720041" style="fill: #0db14b; stroke: #0db14b"/>
     <use xlink:href="#m0ecf774e81" x="97.583813" y="141.143247" style="fill: #0db14b; stroke: #0db14b"/>
     <use xlink:href="#m0ecf774e81" x="98.981809" y="139.990889" style="fill: #0db14b; stroke: #0db14b"/>
     <use xlink:href="#m0ecf774e81" x="100.379804" y="139.648517" style="fill: #0db14b; stroke: #0db14b"/>
     <use xlink:href="#m0ecf774e81" x="101.7778" y="140.082618" style="fill: #0db14b; stroke: #0db14b"/>
     <use xlink:href="#m0ecf774e81" x="103.175796" y="139.080834" style="fill: #0db14b; stroke: #0db14b"/>
     <use xlink:href="#m0ecf774e81" x="104.573792" y="139.130776" style="fill: #0db14b; stroke: #0db14b"/>
     <use xlink:href="#m0ecf774e81" x="105.971787" y="138.954422" style="fill: #0db14b; stroke: #0db14b"/>
     <use xlink:href="#m0ecf774e81" x="107.369783" y="138.73912" style="fill: #0db14b; stroke: #0db14b"/>
     <use xlink:href="#m0ecf774e81" x="108.767779" y="131.716469" style="fill: #0db14b; stroke: #0db14b"/>
     <use xlink:href="#m0ecf774e81" x="110.165774" y="126.817307" style="fill: #0db14b; stroke: #0db14b"/>
     <use xlink:href="#m0ecf774e81" x="111.56377" y="133.073385" style="fill: #0db14b; stroke: #0db14b"/>
     <use xlink:href="#m0ecf774e81" x="112.961766" y="126.903973" style="fill: #0db14b; stroke: #0db14b"/>
     <use xlink:href="#m0ecf774e81" x="114.359762" y="117.824306" style="fill: #0db14b; stroke: #0db14b"/>
     <use xlink:href="#m0ecf774e81" x="115.757757" y="119.343267" style="fill: #0db14b; stroke: #0db14b"/>
     <use xlink:href="#m0ecf774e81" x="117.155753" y="118.368987" style="fill: #0db14b; stroke: #0db14b"/>
     <use xlink:href="#m0ecf774e81" x="118.553749" y="118.368577" style="fill: #0db14b; stroke: #0db14b"/>
     <use xlink:href="#m0ecf774e81" x="119.951744" y="119.591006" style="fill: #0db14b; stroke: #0db14b"/>
     <use xlink:href="#m0ecf774e81" x="121.34974" y="122.468382" style="fill: #0db14b; stroke: #0db14b"/>
     <use xlink:href="#m0ecf774e81" x="122.747736" y="119.532146" style="fill: #0db14b; stroke: #0db14b"/>
     <use xlink:href="#m0ecf774e81" x="124.145731" y="118.942968" style="fill: #0db14b; stroke: #0db14b"/>
     <use xlink:href="#m0ecf774e81" x="125.543727" y="126.91093" style="fill: #0db14b; stroke: #0db14b"/>
     <use xlink:href="#m0ecf774e81" x="126.941723" y="126.857403" style="fill: #0db14b; stroke: #0db14b"/>
     <use xlink:href="#m0ecf774e81" x="128.339719" y="127.794553" style="fill: #0db14b; stroke: #0db14b"/>
     <use xlink:href="#m0ecf774e81" x="129.737714" y="129.397743" style="fill: #0db14b; stroke: #0db14b"/>
     <use xlink:href="#m0ecf774e81" x="131.13571" y="133.134666" style="fill: #0db14b; stroke: #0db14b"/>
     <use xlink:href="#m0ecf774e81" x="132.533706" y="129.729184" style="fill: #0db14b; stroke: #0db14b"/>
     <use xlink:href="#m0ecf774e81" x="133.931701" y="127.744127" style="fill: #0db14b; stroke: #0db14b"/>
     <use xlink:href="#m0ecf774e81" x="135.329697" y="122.981826" style="fill: #0db14b; stroke: #0db14b"/>
     <use xlink:href="#m0ecf774e81" x="136.727693" y="117.598229" style="fill: #0db14b; stroke: #0db14b"/>
     <use xlink:href="#m0ecf774e81" x="138.125689" y="117.104996" style="fill: #0db14b; stroke: #0db14b"/>
     <use xlink:href="#m0ecf774e81" x="139.523684" y="110.95154" style="fill: #0db14b; stroke: #0db14b"/>
     <use xlink:href="#m0ecf774e81" x="140.92168" y="110.24431" style="fill: #0db14b; stroke: #0db14b"/>
     <use xlink:href="#m0ecf774e81" x="142.319676" y="114.022634" style="fill: #0db14b; stroke: #0db14b"/>
     <use xlink:href="#m0ecf774e81" x="143.717671" y="112.489721" style="fill: #0db14b; stroke: #0db14b"/>
     <use xlink:href="#m0ecf774e81" x="145.115667" y="112.144566" style="fill: #0db14b; stroke: #0db14b"/>
     <use xlink:href="#m0ecf774e81" x="146.513663" y="111.906328" style="fill: #0db14b; stroke: #0db14b"/>
     <use xlink:href="#m0ecf774e81" x="147.911658" y="110.727554" style="fill: #0db14b; stroke: #0db14b"/>
     <use xlink:href="#m0ecf774e81" x="149.309654" y="103.751846" style="fill: #0db14b; stroke: #0db14b"/>
     <use xlink:href="#m0ecf774e81" x="150.70765" y="108.081239" style="fill: #0db14b; stroke: #0db14b"/>
     <use xlink:href="#m0ecf774e81" x="152.105646" y="109.115369" style="fill: #0db14b; stroke: #0db14b"/>
     <use xlink:href="#m0ecf774e81" x="153.503641" y="107.604418" style="fill: #0db14b; stroke: #0db14b"/>
     <use xlink:href="#m0ecf774e81" x="154.901637" y="108.615525" style="fill: #0db14b; stroke: #0db14b"/>
     <use xlink:href="#m0ecf774e81" x="156.299633" y="103.005665" style="fill: #0db14b; stroke: #0db14b"/>
     <use xlink:href="#m0ecf774e81" x="157.697628" y="100.722195" style="fill: #0db14b; stroke: #0db14b"/>
     <use xlink:href="#m0ecf774e81" x="159.095624" y="103.783346" style="fill: #0db14b; stroke: #0db14b"/>
     <use xlink:href="#m0ecf774e81" x="160.49362" y="104.133577" style="fill: #0db14b; stroke: #0db14b"/>
     <use xlink:href="#m0ecf774e81" x="161.891616" y="103.342223" style="fill: #0db14b; stroke: #0db14b"/>
     <use xlink:href="#m0ecf774e81" x="163.289611" y="103.226453" style="fill: #0db14b; stroke: #0db14b"/>
     <use xlink:href="#m0ecf774e81" x="164.687607" y="97.301468" style="fill: #0db14b; stroke: #0db14b"/>
     <use xlink:href="#m0ecf774e81" x="166.085603" y="101.802839" style="fill: #0db14b; stroke: #0db14b"/>
     <use xlink:href="#m0ecf774e81" x="167.483598" y="102.502402" style="fill: #0db14b; stroke: #0db14b"/>
     <use xlink:href="#m0ecf774e81" x="168.881594" y="102.991436" style="fill: #0db14b; stroke: #0db14b"/>
     <use xlink:href="#m0ecf774e81" x="170.27959" y="100.770571" style="fill: #0db14b; stroke: #0db14b"/>
     <use xlink:href="#m0ecf774e81" x="171.677585" y="100.753525" style="fill: #0db14b; stroke: #0db14b"/>
     <use xlink:href="#m0ecf774e81" x="173.075581" y="99.386751" style="fill: #0db14b; stroke: #0db14b"/>
     <use xlink:href="#m0ecf774e81" x="174.473577" y="100.318478" style="fill: #0db14b; stroke: #0db14b"/>
     <use xlink:href="#m0ecf774e81" x="175.871573" y="93.3736" style="fill: #0db14b; stroke: #0db14b"/>
     <use xlink:href="#m0ecf774e81" x="177.269568" y="96.341842" style="fill: #0db14b; stroke: #0db14b"/>
     <use xlink:href="#m0ecf774e81" x="178.667564" y="88.953558" style="fill: #0db14b; stroke: #0db14b"/>
     <use xlink:href="#m0ecf774e81" x="180.06556" y="94.013357" style="fill: #0db14b; stroke: #0db14b"/>
     <use xlink:href="#m0ecf774e81" x="181.463555" y="90.241432" style="fill: #0db14b; stroke: #0db14b"/>
     <use xlink:href="#m0ecf774e81" x="182.861551" y="90.861374" style="fill: #0db14b; stroke: #0db14b"/>
     <use xlink:href="#m0ecf774e81" x="184.259547" y="89.026898" style="fill: #0db14b; stroke: #0db14b"/>
     <use xlink:href="#m0ecf774e81" x="185.657543" y="80.375358" style="fill: #0db14b; stroke: #0db14b"/>
     <use xlink:href="#m0ecf774e81" x="187.055538" y="80.692765" style="fill: #0db14b; stroke: #0db14b"/>
     <use xlink:href="#m0ecf774e81" x="188.453534" y="78.742877" style="fill: #0db14b; stroke: #0db14b"/>
     <use xlink:href="#m0ecf774e81" x="189.85153" y="82.873653" style="fill: #0db14b; stroke: #0db14b"/>
     <use xlink:href="#m0ecf774e81" x="191.249525" y="80.356487" style="fill: #0db14b; stroke: #0db14b"/>
     <use xlink:href="#m0ecf774e81" x="192.647521" y="70.543078" style="fill: #0db14b; stroke: #0db14b"/>
     <use xlink:href="#m0ecf774e81" x="194.045517" y="64.204903" style="fill: #0db14b; stroke: #0db14b"/>
     <use xlink:href="#m0ecf774e81" x="195.443512" y="62.564859" style="fill: #0db14b; stroke: #0db14b"/>
     <use xlink:href="#m0ecf774e81" x="196.841508" y="57.181353" style="fill: #0db14b; stroke: #0db14b"/>
     <use xlink:href="#m0ecf774e81" x="198.239504" y="55.435811" style="fill: #0db14b; stroke: #0db14b"/>
     <use xlink:href="#m0ecf774e81" x="199.6375" y="69.874326" style="fill: #0db14b; stroke: #0db14b"/>
     <use xlink:href="#m0ecf774e81" x="201.035495" y="64.777991" style="fill: #0db14b; stroke: #0db14b"/>
     <use xlink:href="#m0ecf774e81" x="202.433491" y="63.388783" style="fill: #0db14b; stroke: #0db14b"/>
     <use xlink:href="#m0ecf774e81" x="203.831487" y="64.275372" style="fill: #0db14b; stroke: #0db14b"/>
     <use xlink:href="#m0ecf774e81" x="205.229482" y="66.114334" style="fill: #0db14b; stroke: #0db14b"/>
     <use xlink:href="#m0ecf774e81" x="206.627478" y="64.730871" style="fill: #0db14b; stroke: #0db14b"/>
     <use xlink:href="#m0ecf774e81" x="208.025474" y="67.47564" style="fill: #0db14b; stroke: #0db14b"/>
     <use xlink:href="#m0ecf774e81" x="209.423469" y="65.491175" style="fill: #0db14b; stroke: #0db14b"/>
     <use xlink:href="#m0ecf774e81" x="210.821465" y="66.953618" style="fill: #0db14b; stroke: #0db14b"/>
     <use xlink:href="#m0ecf774e81" x="212.219461" y="69.594183" style="fill: #0db14b; stroke: #0db14b"/>
     <use xlink:href="#m0ecf774e81" x="213.617457" y="72.513808" style="fill: #0db14b; stroke: #0db14b"/>
     <use xlink:href="#m0ecf774e81" x="215.015452" y="79.453235" style="fill: #0db14b; stroke: #0db14b"/>
     <use xlink:href="#m0ecf774e81" x="216.413448" y="73.123594" style="fill: #0db14b; stroke: #0db14b"/>
     <use xlink:href="#m0ecf774e81" x="217.811444" y="72.882965" style="fill: #0db14b; stroke: #0db14b"/>
     <use xlink:href="#m0ecf774e81" x="219.209439" y="70.884244" style="fill: #0db14b; stroke: #0db14b"/>
     <use xlink:href="#m0ecf774e81" x="220.607435" y="72.728898" style="fill: #0db14b; stroke: #0db14b"/>
     <use xlink:href="#m0ecf774e81" x="222.005431" y="74.133987" style="fill: #0db14b; stroke: #0db14b"/>
     <use xlink:href="#m0ecf774e81" x="223.403427" y="79.173637" style="fill: #0db14b; stroke: #0db14b"/>
     <use xlink:href="#m0ecf774e81" x="224.801422" y="79.805275" style="fill: #0db14b; stroke: #0db14b"/>
     <use xlink:href="#m0ecf774e81" x="226.199418" y="74.220953" style="fill: #0db14b; stroke: #0db14b"/>
     <use xlink:href="#m0ecf774e81" x="227.597414" y="74.94025" style="fill: #0db14b; stroke: #0db14b"/>
     <use xlink:href="#m0ecf774e81" x="228.995409" y="75.394515" style="fill: #0db14b; stroke: #0db14b"/>
     <use xlink:href="#m0ecf774e81" x="230.393405" y="76.551609" style="fill: #0db14b; stroke: #0db14b"/>
     <use xlink:href="#m0ecf774e81" x="231.791401" y="83.696843" style="fill: #0db14b; stroke: #0db14b"/>
     <use xlink:href="#m0ecf774e81" x="233.189396" y="76.819581" style="fill: #0db14b; stroke: #0db14b"/>
     <use xlink:href="#m0ecf774e81" x="234.587392" y="84.289262" style="fill: #0db14b; stroke: #0db14b"/>
     <use xlink:href="#m0ecf774e81" x="235.985388" y="88.754474" style="fill: #0db14b; stroke: #0db14b"/>
     <use xlink:href="#m0ecf774e81" x="237.383384" y="90.591266" style="fill: #0db14b; stroke: #0db14b"/>
     <use xlink:href="#m0ecf774e81" x="238.781379" y="91.416871" style="fill: #0db14b; stroke: #0db14b"/>
     <use xlink:href="#m0ecf774e81" x="240.179375" y="97.10418" style="fill: #0db14b; stroke: #0db14b"/>
     <use xlink:href="#m0ecf774e81" x="241.577371" y="99.236889" style="fill: #0db14b; stroke: #0db14b"/>
     <use xlink:href="#m0ecf774e81" x="242.975366" y="104.49285" style="fill: #0db14b; stroke: #0db14b"/>
     <use xlink:href="#m0ecf774e81" x="244.373362" y="106.981728" style="fill: #0db14b; stroke: #0db14b"/>
     <use xlink:href="#m0ecf774e81" x="245.771358" y="108.465074" style="fill: #0db14b; stroke: #0db14b"/>
     <use xlink:href="#m0ecf774e81" x="247.169354" y="112.013014" style="fill: #0db14b; stroke: #0db14b"/>
     <use xlink:href="#m0ecf774e81" x="248.567349" y="108.392711" style="fill: #0db14b; stroke: #0db14b"/>
     <use xlink:href="#m0ecf774e81" x="249.965345" y="113.489017" style="fill: #0db14b; stroke: #0db14b"/>
     <use xlink:href="#m0ecf774e81" x="251.363341" y="115.659792" style="fill: #0db14b; stroke: #0db14b"/>
     <use xlink:href="#m0ecf774e81" x="252.761336" y="119.005652" style="fill: #0db14b; stroke: #0db14b"/>
     <use xlink:href="#m0ecf774e81" x="254.159332" y="126.748392" style="fill: #0db14b; stroke: #0db14b"/>
     <use xlink:href="#m0ecf774e81" x="255.557328" y="126.943411" style="fill: #0db14b; stroke: #0db14b"/>
     <use xlink:href="#m0ecf774e81" x="256.955323" y="127.797978" style="fill: #0db14b; stroke: #0db14b"/>
     <use xlink:href="#m0ecf774e81" x="258.353319" y="127.052986" style="fill: #0db14b; stroke: #0db14b"/>
     <use xlink:href="#m0ecf774e81" x="259.751315" y="127.392506" style="fill: #0db14b; stroke: #0db14b"/>
     <use xlink:href="#m0ecf774e81" x="261.149311" y="128.926145" style="fill: #0db14b; stroke: #0db14b"/>
     <use xlink:href="#m0ecf774e81" x="262.547306" y="129.304796" style="fill: #0db14b; stroke: #0db14b"/>
     <use xlink:href="#m0ecf774e81" x="263.945302" y="132.566541" style="fill: #0db14b; stroke: #0db14b"/>
     <use xlink:href="#m0ecf774e81" x="265.343298" y="132.897147" style="fill: #0db14b; stroke: #0db14b"/>
     <use xlink:href="#m0ecf774e81" x="266.741293" y="131.984182" style="fill: #0db14b; stroke: #0db14b"/>
     <use xlink:href="#m0ecf774e81" x="268.139289" y="131.536729" style="fill: #0db14b; stroke: #0db14b"/>
     <use xlink:href="#m0ecf774e81" x="269.537285" y="131.904536" style="fill: #0db14b; stroke: #0db14b"/>
     <use xlink:href="#m0ecf774e81" x="270.935281" y="132.474353" style="fill: #0db14b; stroke: #0db14b"/>
     <use xlink:href="#m0ecf774e81" x="272.333276" y="132.442351" style="fill: #0db14b; stroke: #0db14b"/>
     <use xlink:href="#m0ecf774e81" x="273.731272" y="131.404719" style="fill: #0db14b; stroke: #0db14b"/>
     <use xlink:href="#m0ecf774e81" x="275.129268" y="132.71828" style="fill: #0db14b; stroke: #0db14b"/>
     <use xlink:href="#m0ecf774e81" x="276.527263" y="136.772323" style="fill: #0db14b; stroke: #0db14b"/>
     <use xlink:href="#m0ecf774e81" x="277.925259" y="136.098955" style="fill: #0db14b; stroke: #0db14b"/>
     <use xlink:href="#m0ecf774e81" x="279.323255" y="132.083985" style="fill: #0db14b; stroke: #0db14b"/>
     <use xlink:href="#m0ecf774e81" x="280.72125" y="136.791699" style="fill: #0db14b; stroke: #0db14b"/>
     <use xlink:href="#m0ecf774e81" x="282.119246" y="140.269824" style="fill: #0db14b; stroke: #0db14b"/>
     <use xlink:href="#m0ecf774e81" x="283.517242" y="136.049819" style="fill: #0db14b; stroke: #0db14b"/>
     <use xlink:href="#m0ecf774e81" x="284.915238" y="135.938949" style="fill: #0db14b; stroke: #0db14b"/>
     <use xlink:href="#m0ecf774e81" x="286.313233" y="135.823985" style="fill: #0db14b; stroke: #0db14b"/>
     <use xlink:href="#m0ecf774e81" x="287.711229" y="140.468602" style="fill: #0db14b; stroke: #0db14b"/>
     <use xlink:href="#m0ecf774e81" x="289.109225" y="141.291898" style="fill: #0db14b; stroke: #0db14b"/>
     <use xlink:href="#m0ecf774e81" x="290.50722" y="140.583891" style="fill: #0db14b; stroke: #0db14b"/>
     <use xlink:href="#m0ecf774e81" x="291.905216" y="140.501591" style="fill: #0db14b; stroke: #0db14b"/>
     <use xlink:href="#m0ecf774e81" x="293.303212" y="140.722289" style="fill: #0db14b; stroke: #0db14b"/>
     <use xlink:href="#m0ecf774e81" x="294.701207" y="140.360937" style="fill: #0db14b; stroke: #0db14b"/>
     <use xlink:href="#m0ecf774e81" x="296.099203" y="140.89066" style="fill: #0db14b; stroke: #0db14b"/>
     <use xlink:href="#m0ecf774e81" x="297.497199" y="137.25989" style="fill: #0db14b; stroke: #0db14b"/>
     <use xlink:href="#m0ecf774e81" x="298.895195" y="141.209959" style="fill: #0db14b; stroke: #0db14b"/>
     <use xlink:href="#m0ecf774e81" x="300.29319" y="140.91371" style="fill: #0db14b; stroke: #0db14b"/>
     <use xlink:href="#m0ecf774e81" x="301.691186" y="140.636828" style="fill: #0db14b; stroke: #0db14b"/>
     <use xlink:href="#m0ecf774e81" x="303.089182" y="143.153076" style="fill: #0db14b; stroke: #0db14b"/>
     <use xlink:href="#m0ecf774e81" x="304.487177" y="141.027593" style="fill: #0db14b; stroke: #0db14b"/>
     <use xlink:href="#m0ecf774e81" x="305.885173" y="142.680039" style="fill: #0db14b; stroke: #0db14b"/>
     <use xlink:href="#m0ecf774e81" x="307.283169" y="142.707377" style="fill: #0db14b; stroke: #0db14b"/>
     <use xlink:href="#m0ecf774e81" x="308.681165" y="142.667834" style="fill: #0db14b; stroke: #0db14b"/>
     <use xlink:href="#m0ecf774e81" x="310.07916" y="142.819416" style="fill: #0db14b; stroke: #0db14b"/>
     <use xlink:href="#m0ecf774e81" x="311.477156" y="143.040018" style="fill: #0db14b; stroke: #0db14b"/>
     <use xlink:href="#m0ecf774e81" x="312.875152" y="143.062261" style="fill: #0db14b; stroke: #0db14b"/>
     <use xlink:href="#m0ecf774e81" x="314.273147" y="143.40106" style="fill: #0db14b; stroke: #0db14b"/>
     <use xlink:href="#m0ecf774e81" x="315.671143" y="139.653578" style="fill: #0db14b; stroke: #0db14b"/>
     <use xlink:href="#m0ecf774e81" x="317.069139" y="139.754891" style="fill: #0db14b; stroke: #0db14b"/>
     <use xlink:href="#m0ecf774e81" x="318.467134" y="139.398604" style="fill: #0db14b; stroke: #0db14b"/>
     <use xlink:href="#m0ecf774e81" x="319.86513" y="144.319744" style="fill: #0db14b; stroke: #0db14b"/>
     <use xlink:href="#m0ecf774e81" x="321.263126" y="143.953407" style="fill: #0db14b; stroke: #0db14b"/>
     <use xlink:href="#m0ecf774e81" x="322.661122" y="141.474622" style="fill: #0db14b; stroke: #0db14b"/>
     <use xlink:href="#m0ecf774e81" x="324.059117" y="142.169143" style="fill: #0db14b; stroke: #0db14b"/>
     <use xlink:href="#m0ecf774e81" x="325.457113" y="141.675908" style="fill: #0db14b; stroke: #0db14b"/>
     <use xlink:href="#m0ecf774e81" x="326.855109" y="142.171379" style="fill: #0db14b; stroke: #0db14b"/>
     <use xlink:href="#m0ecf774e81" x="328.253104" y="141.702082" style="fill: #0db14b; stroke: #0db14b"/>
     <use xlink:href="#m0ecf774e81" x="329.6511" y="142.273804" style="fill: #0db14b; stroke: #0db14b"/>
     <use xlink:href="#m0ecf774e81" x="331.049096" y="144.289312" style="fill: #0db14b; stroke: #0db14b"/>
     <use xlink:href="#m0ecf774e81" x="332.447092" y="145.384474" style="fill: #0db14b; stroke: #0db14b"/>
     <use xlink:href="#m0ecf774e81" x="333.845087" y="142.203093" style="fill: #0db14b; stroke: #0db14b"/>
     <use xlink:href="#m0ecf774e81" x="335.243083" y="142.380177" style="fill: #0db14b; stroke: #0db14b"/>
     <use xlink:href="#m0ecf774e81" x="336.641079" y="141.989005" style="fill: #0db14b; stroke: #0db14b"/>
     <use xlink:href="#m0ecf774e81" x="338.039074" y="144.813477" style="fill: #0db14b; stroke: #0db14b"/>
     <use xlink:href="#m0ecf774e81" x="339.43707" y="144.496508" style="fill: #0db14b; stroke: #0db14b"/>
     <use xlink:href="#m0ecf774e81" x="340.835066" y="144.493573" style="fill: #0db14b; stroke: #0db14b"/>
     <use xlink:href="#m0ecf774e81" x="342.233061" y="144.323588" style="fill: #0db14b; stroke: #0db14b"/>
     <use xlink:href="#m0ecf774e81" x="343.631057" y="144.143374" style="fill: #0db14b; stroke: #0db14b"/>
     <use xlink:href="#m0ecf774e81" x="345.029053" y="143.239747" style="fill: #0db14b; stroke: #0db14b"/>
     <use xlink:href="#m0ecf774e81" x="346.427049" y="143.550217" style="fill: #0db14b; stroke: #0db14b"/>
     <use xlink:href="#m0ecf774e81" x="347.825044" y="143.624012" style="fill: #0db14b; stroke: #0db14b"/>
     <use xlink:href="#m0ecf774e81" x="349.22304" y="143.3133" style="fill: #0db14b; stroke: #0db14b"/>
     <use xlink:href="#m0ecf774e81" x="350.621036" y="142.742455" style="fill: #0db14b; stroke: #0db14b"/>
     <use xlink:href="#m0ecf774e81" x="352.019031" y="141.46677" style="fill: #0db14b; stroke: #0db14b"/>
     <use xlink:href="#m0ecf774e81" x="353.417027" y="138.357083" style="fill: #0db14b; stroke: #0db14b"/>
     <use xlink:href="#m0ecf774e81" x="354.815023" y="137.635412" style="fill: #0db14b; stroke: #0db14b"/>
     <use xlink:href="#m0ecf774e81" x="356.213019" y="137.07588" style="fill: #0db14b; stroke: #0db14b"/>
     <use xlink:href="#m0ecf774e81" x="357.611014" y="136.420722" style="fill: #0db14b; stroke: #0db14b"/>
     <use xlink:href="#m0ecf774e81" x="359.00901" y="136.412105" style="fill: #0db14b; stroke: #0db14b"/>
     <use xlink:href="#m0ecf774e81" x="360.407006" y="134.908589" style="fill: #0db14b; stroke: #0db14b"/>
     <use xlink:href="#m0ecf774e81" x="361.805001" y="128.943334" style="fill: #0db14b; stroke: #0db14b"/>
     <use xlink:href="#m0ecf774e81" x="363.202997" y="122.250339" style="fill: #0db14b; stroke: #0db14b"/>
     <use xlink:href="#m0ecf774e81" x="364.600993" y="122.581812" style="fill: #0db14b; stroke: #0db14b"/>
     <use xlink:href="#m0ecf774e81" x="365.998988" y="121.070166" style="fill: #0db14b; stroke: #0db14b"/>
     <use xlink:href="#m0ecf774e81" x="367.396984" y="117.900067" style="fill: #0db14b; stroke: #0db14b"/>
     <use xlink:href="#m0ecf774e81" x="368.79498" y="116.662217" style="fill: #0db14b; stroke: #0db14b"/>
     <use xlink:href="#m0ecf774e81" x="370.192976" y="113.577626" style="fill: #0db14b; stroke: #0db14b"/>
     <use xlink:href="#m0ecf774e81" x="371.590971" y="112.741665" style="fill: #0db14b; stroke: #0db14b"/>
     <use xlink:href="#m0ecf774e81" x="372.988967" y="105.668077" style="fill: #0db14b; stroke: #0db14b"/>
     <use xlink:href="#m0ecf774e81" x="374.386963" y="102.180487" style="fill: #0db14b; stroke: #0db14b"/>
     <use xlink:href="#m0ecf774e81" x="375.784958" y="102.259032" style="fill: #0db14b; stroke: #0db14b"/>
     <use xlink:href="#m0ecf774e81" x="377.182954" y="99.24654" style="fill: #0db14b; stroke: #0db14b"/>
     <use xlink:href="#m0ecf774e81" x="378.58095" y="96.222807" style="fill: #0db14b; stroke: #0db14b"/>
     <use xlink:href="#m0ecf774e81" x="379.978946" y="94.088997" style="fill: #0db14b; stroke: #0db14b"/>
     <use xlink:href="#m0ecf774e81" x="381.376941" y="83.33656" style="fill: #0db14b; stroke: #0db14b"/>
     <use xlink:href="#m0ecf774e81" x="382.774937" y="75.867024" style="fill: #0db14b; stroke: #0db14b"/>
     <use xlink:href="#m0ecf774e81" x="384.172933" y="62.155127" style="fill: #0db14b; stroke: #0db14b"/>
     <use xlink:href="#m0ecf774e81" x="385.570928" y="65.620458" style="fill: #0db14b; stroke: #0db14b"/>
     <use xlink:href="#m0ecf774e81" x="386.968924" y="53.627663" style="fill: #0db14b; stroke: #0db14b"/>
     <use xlink:href="#m0ecf774e81" x="388.36692" y="50.41963" style="fill: #0db14b; stroke: #0db14b"/>
     <use xlink:href="#m0ecf774e81" x="389.764915" y="47.178099" style="fill: #0db14b; stroke: #0db14b"/>
     <use xlink:href="#m0ecf774e81" x="391.162911" y="46.191036" style="fill: #0db14b; stroke: #0db14b"/>
     <use xlink:href="#m0ecf774e81" x="392.560907" y="45.39161" style="fill: #0db14b; stroke: #0db14b"/>
     <use xlink:href="#m0ecf774e81" x="393.958903" y="38.029944" style="fill: #0db14b; stroke: #0db14b"/>
     <use xlink:href="#m0ecf774e81" x="395.356898" y="41.757118" style="fill: #0db14b; stroke: #0db14b"/>
     <use xlink:href="#m0ecf774e81" x="396.754894" y="33.445003" style="fill: #0db14b; stroke: #0db14b"/>
     <use xlink:href="#m0ecf774e81" x="398.15289" y="34.04971" style="fill: #0db14b; stroke: #0db14b"/>
     <use xlink:href="#m0ecf774e81" x="399.550885" y="26.67269" style="fill: #0db14b; stroke: #0db14b"/>
     <use xlink:href="#m0ecf774e81" x="400.948881" y="25.827302" style="fill: #0db14b; stroke: #0db14b"/>
     <use xlink:href="#m0ecf774e81" x="402.346877" y="24.743659" style="fill: #0db14b; stroke: #0db14b"/>
     <use xlink:href="#m0ecf774e81" x="403.744872" y="25.644201" style="fill: #0db14b; stroke: #0db14b"/>
     <use xlink:href="#m0ecf774e81" x="405.142868" y="17.726381" style="fill: #0db14b; stroke: #0db14b"/>
     <use xlink:href="#m0ecf774e81" x="406.540864" y="16.560484" style="fill: #0db14b; stroke: #0db14b"/>
     <use xlink:href="#m0ecf774e81" x="407.93886" y="18.457653" style="fill: #0db14b; stroke: #0db14b"/>
     <use xlink:href="#m0ecf774e81" x="409.336855" y="18.297512" style="fill: #0db14b; stroke: #0db14b"/>
     <use xlink:href="#m0ecf774e81" x="410.734851" y="17.172686" style="fill: #0db14b; stroke: #0db14b"/>
     <use xlink:href="#m0ecf774e81" x="412.132847" y="15.272887" style="fill: #0db14b; stroke: #0db14b"/>
     <use xlink:href="#m0ecf774e81" x="413.530842" y="17.449353" style="fill: #0db14b; stroke: #0db14b"/>
     <use xlink:href="#m0ecf774e81" x="414.928838" y="44.624735" style="fill: #0db14b; stroke: #0db14b"/>
     <use xlink:href="#m0ecf774e81" x="416.326834" y="31.498542" style="fill: #0db14b; stroke: #0db14b"/>
     <use xlink:href="#m0ecf774e81" x="417.72483" y="31.988298" style="fill: #0db14b; stroke: #0db14b"/>
    </g>
   </g>
   <g id="line2d_24">
    <path d="M 62.63392 160.128824 
L 64.031916 159.357425 
L 65.429912 158.791288 
L 66.827908 159.573524 
L 69.623899 158.140066 
L 72.41989 156.824871 
L 75.215882 156.696872 
L 78.011873 156.103648 
L 79.409869 156.788082 
L 80.807865 154.543876 
L 82.20586 153.47984 
L 83.603856 152.18038 
L 85.001852 151.09832 
L 86.399847 147.733529 
L 89.195839 145.971923 
L 90.593835 145.934799 
L 91.99183 142.787736 
L 93.389826 142.261374 
L 94.787822 144.660245 
L 96.185817 143.50699 
L 97.583813 141.587102 
L 98.981809 137.245685 
L 101.7778 140.128969 
L 103.175796 138.546293 
L 104.573792 138.529295 
L 107.369783 135.731672 
L 110.165774 128.957093 
L 111.56377 132.925702 
L 112.961766 129.588912 
L 114.359762 120.748063 
L 115.757757 121.646171 
L 117.155753 121.483126 
L 118.553749 123.132441 
L 119.951744 124.956855 
L 121.34974 125.490288 
L 122.747736 124.699735 
L 124.145731 124.847316 
L 125.543727 126.999949 
L 126.941723 127.135552 
L 128.339719 128.732969 
L 129.737714 128.879939 
L 131.13571 128.481708 
L 132.533706 127.275552 
L 133.931701 126.507056 
L 135.329697 124.586946 
L 136.727693 124.013376 
L 138.125689 122.373615 
L 139.523684 117.894273 
L 140.92168 117.19195 
L 142.319676 117.697205 
L 143.717671 115.35454 
L 145.115667 114.546528 
L 146.513663 115.973336 
L 147.911658 114.264801 
L 149.309654 105.395182 
L 150.70765 114.310084 
L 152.105646 113.874633 
L 153.503641 112.798146 
L 154.901637 112.548 
L 156.299633 109.126467 
L 157.697628 107.57139 
L 159.095624 107.410654 
L 160.49362 108.292558 
L 161.891616 106.114678 
L 163.289611 106.392984 
L 164.687607 102.185919 
L 166.085603 103.458392 
L 167.483598 103.774838 
L 168.881594 106.147343 
L 170.27959 100.997318 
L 173.075581 99.774329 
L 174.473577 98.040153 
L 175.871573 97.271308 
L 177.269568 97.780139 
L 178.667564 92.676665 
L 180.06556 96.578069 
L 181.463555 92.145569 
L 182.861551 91.575005 
L 184.259547 92.077393 
L 185.657543 88.014711 
L 187.055538 87.379351 
L 188.453534 82.73763 
L 189.85153 88.479561 
L 192.647521 73.518178 
L 194.045517 69.462245 
L 195.443512 67.144088 
L 196.841508 63.978351 
L 198.239504 62.455789 
L 199.6375 70.235875 
L 201.035495 63.50607 
L 202.433491 61.130042 
L 203.831487 63.689794 
L 205.229482 67.135311 
L 206.627478 65.903896 
L 208.025474 68.970928 
L 209.423469 69.095711 
L 210.821465 68.648918 
L 212.219461 72.497168 
L 213.617457 77.787867 
L 215.015452 78.917723 
L 216.413448 76.603807 
L 217.811444 76.176967 
L 219.209439 73.176532 
L 220.607435 76.449389 
L 222.005431 77.634333 
L 223.403427 77.010547 
L 224.801422 76.120628 
L 226.199418 77.371177 
L 227.597414 79.010574 
L 228.995409 80.32849 
L 230.393405 83.083601 
L 233.189396 81.449484 
L 234.587392 83.213327 
L 235.985388 88.743801 
L 237.383384 93.476767 
L 238.781379 94.11157 
L 240.179375 96.98214 
L 241.577371 98.327701 
L 244.373362 103.7529 
L 245.771358 106.902473 
L 247.169354 109.264307 
L 248.567349 108.829985 
L 251.363341 116.860969 
L 252.761336 118.839341 
L 254.159332 123.976417 
L 255.557328 125.220882 
L 256.955323 124.578881 
L 258.353319 124.384208 
L 259.751315 127.556427 
L 261.149311 129.411015 
L 262.547306 130.11758 
L 263.945302 134.554519 
L 265.343298 135.582726 
L 266.741293 136.209101 
L 268.139289 136.554799 
L 269.537285 136.355464 
L 270.935281 137.536668 
L 272.333276 137.540458 
L 273.731272 136.137784 
L 275.129268 137.352488 
L 276.527263 140.49149 
L 277.925259 141.231916 
L 279.323255 140.081206 
L 280.72125 141.282949 
L 282.119246 142.023614 
L 283.517242 139.879339 
L 284.915238 140.508993 
L 286.313233 141.443075 
L 287.711229 141.826346 
L 289.109225 142.758358 
L 291.905216 143.554588 
L 293.303212 143.522657 
L 294.701207 143.333047 
L 296.099203 143.586923 
L 297.497199 143.122588 
L 298.895195 144.73911 
L 301.691186 144.040172 
L 303.089182 144.567009 
L 304.487177 144.150411 
L 305.885173 145.034204 
L 307.283169 144.473142 
L 310.07916 144.887932 
L 311.477156 145.490532 
L 312.875152 145.258565 
L 314.273147 145.85282 
L 315.671143 145.533698 
L 317.069139 145.069883 
L 318.467134 145.327588 
L 321.263126 147.197132 
L 324.059117 147.737182 
L 326.855109 146.818441 
L 328.253104 148.137159 
L 329.6511 147.912012 
L 331.049096 148.757705 
L 332.447092 149.375814 
L 333.845087 148.567004 
L 335.243083 149.086178 
L 336.641079 148.806453 
L 338.039074 148.952599 
L 339.43707 147.963754 
L 340.835066 147.525272 
L 342.233061 146.949511 
L 343.631057 147.131618 
L 345.029053 145.719425 
L 346.427049 146.031811 
L 347.825044 144.333476 
L 349.22304 143.946781 
L 350.621036 142.950818 
L 352.019031 142.750358 
L 353.417027 142.175387 
L 354.815023 139.754603 
L 356.213019 139.571737 
L 357.611014 138.589522 
L 359.00901 138.32235 
L 360.407006 135.376905 
L 361.805001 133.400946 
L 363.202997 130.097522 
L 364.600993 128.943303 
L 365.998988 127.416016 
L 367.396984 124.570908 
L 368.79498 120.77813 
L 370.192976 115.35047 
L 371.590971 111.977177 
L 372.988967 105.782552 
L 374.386963 103.944408 
L 375.784958 103.512047 
L 377.182954 95.728067 
L 378.58095 90.582593 
L 379.978946 86.583051 
L 381.376941 80.397218 
L 384.172933 69.936679 
L 385.570928 72.088694 
L 386.968924 63.925514 
L 388.36692 57.914347 
L 389.764915 52.956803 
L 391.162911 49.255526 
L 392.560907 48.745167 
L 393.958903 40.629415 
L 395.356898 43.09102 
L 396.754894 35.225611 
L 398.15289 33.863572 
L 399.550885 28.412081 
L 400.948881 28.798562 
L 402.346877 27.273778 
L 403.744872 27.165117 
L 405.142868 27.415162 
L 406.540864 21.624168 
L 407.93886 23.902598 
L 409.336855 23.335565 
L 410.734851 22.441146 
L 412.132847 19.384684 
L 413.530842 24.41105 
L 414.928838 47.185171 
L 416.326834 32.550359 
L 417.72483 31.411617 
L 417.72483 31.411617 
" clip-path="url(#pa93bcc5336)" style="fill: none; stroke-dasharray: 5.55,2.4; stroke-dashoffset: 0; stroke: #000000; stroke-width: 1.5"/>
   </g>
   <g id="patch_3">
    <path d="M 44.879375 167.688824 
L 44.879375 1.368824 
" style="fill: none; stroke: #ffffff; stroke-linejoin: miter; stroke-linecap: square"/>
   </g>
   <g id="patch_4">
    <path d="M 435.479375 167.688824 
L 435.479375 1.368824 
" style="fill: none; stroke: #ffffff; stroke-linejoin: miter; stroke-linecap: square"/>
   </g>
   <g id="patch_5">
    <path d="M 44.879375 167.688824 
L 435.479375 167.688824 
" style="fill: none; stroke: #ffffff; stroke-linejoin: miter; stroke-linecap: square"/>
   </g>
   <g id="patch_6">
    <path d="M 44.879375 1.368824 
L 435.479375 1.368824 
" style="fill: none; stroke: #ffffff; stroke-linejoin: miter; stroke-linecap: square"/>
   </g>
   <g id="legend_1">
    <g id="patch_7">
     <path d="M 51.879375 61.746949 
L 203.92625 61.746949 
Q 205.92625 61.746949 205.92625 59.746949 
L 205.92625 8.368824 
Q 205.92625 6.368824 203.92625 6.368824 
L 51.879375 6.368824 
Q 49.879375 6.368824 49.879375 8.368824 
L 49.879375 59.746949 
Q 49.879375 61.746949 51.879375 61.746949 
z
" style="fill: #e5e5e5; opacity: 0.8; stroke: #cccccc; stroke-width: 0.5; stroke-linejoin: miter"/>
    </g>
    <g id="line2d_25">
     <path d="M 53.879375 16.868824 
L 63.879375 16.868824 
L 73.879375 16.868824 
" style="fill: none; stroke: #0db14b; stroke-width: 3; stroke-linecap: square"/>
     <g>
      <use xlink:href="#m0ecf774e81" x="63.879375" y="16.868824" style="fill: #0db14b; stroke: #0db14b"/>
     </g>
    </g>
    <g id="text_14">
     <!-- Private Value $\tilde{R}_{\chi_2,\chi_1}^t$ -->
     <g transform="translate(81.879375 20.368824) scale(0.1 -0.1)">
      <defs>
       <path id="DejaVuSans-50" d="M 1259 4147 
L 1259 2394 
L 2053 2394 
Q 2494 2394 2734 2622 
Q 2975 2850 2975 3272 
Q 2975 3691 2734 3919 
Q 2494 4147 2053 4147 
L 1259 4147 
z
M 628 4666 
L 2053 4666 
Q 2838 4666 3239 4311 
Q 3641 3956 3641 3272 
Q 3641 2581 3239 2228 
Q 2838 1875 2053 1875 
L 1259 1875 
L 1259 0 
L 628 0 
L 628 4666 
z
" transform="scale(0.015625)"/>
       <path id="DejaVuSans-72" d="M 2631 2963 
Q 2534 3019 2420 3045 
Q 2306 3072 2169 3072 
Q 1681 3072 1420 2755 
Q 1159 2438 1159 1844 
L 1159 0 
L 581 0 
L 581 3500 
L 1159 3500 
L 1159 2956 
Q 1341 3275 1631 3429 
Q 1922 3584 2338 3584 
Q 2397 3584 2469 3576 
Q 2541 3569 2628 3553 
L 2631 2963 
z
" transform="scale(0.015625)"/>
       <path id="DejaVuSans-69" d="M 603 3500 
L 1178 3500 
L 1178 0 
L 603 0 
L 603 3500 
z
M 603 4863 
L 1178 4863 
L 1178 4134 
L 603 4134 
L 603 4863 
z
" transform="scale(0.015625)"/>
       <path id="DejaVuSans-76" d="M 191 3500 
L 800 3500 
L 1894 563 
L 2988 3500 
L 3597 3500 
L 2284 0 
L 1503 0 
L 191 3500 
z
" transform="scale(0.015625)"/>
       <path id="DejaVuSans-20" transform="scale(0.015625)"/>
       <path id="DejaVuSans-303" d="M -1621 4281 
L -1799 4453 
Q -1867 4516 -1919 4545 
Q -1971 4575 -2011 4575 
Q -2130 4575 -2186 4461 
Q -2242 4347 -2249 4091 
L -2639 4091 
Q -2633 4513 -2473 4742 
Q -2314 4972 -2030 4972 
Q -1911 4972 -1811 4928 
Q -1711 4884 -1596 4781 
L -1417 4609 
Q -1349 4547 -1297 4517 
Q -1246 4488 -1205 4488 
Q -1086 4488 -1030 4602 
Q -974 4716 -967 4972 
L -577 4972 
Q -583 4550 -742 4320 
Q -902 4091 -1186 4091 
Q -1305 4091 -1405 4134 
Q -1505 4178 -1621 4281 
z
" transform="scale(0.015625)"/>
       <path id="DejaVuSans-Oblique-52" d="M 1613 4147 
L 1294 2491 
L 2106 2491 
Q 2584 2491 2879 2755 
Q 3175 3019 3175 3444 
Q 3175 3784 2976 3965 
Q 2778 4147 2406 4147 
L 1613 4147 
z
M 2772 2241 
Q 2972 2194 3105 2009 
Q 3238 1825 3413 1275 
L 3809 0 
L 3144 0 
L 2778 1197 
Q 2638 1659 2453 1815 
Q 2269 1972 1888 1972 
L 1191 1972 
L 806 0 
L 172 0 
L 1081 4666 
L 2503 4666 
Q 3150 4666 3495 4373 
Q 3841 4081 3841 3531 
Q 3841 3044 3547 2687 
Q 3253 2331 2772 2241 
z
" transform="scale(0.015625)"/>
       <path id="DejaVuSans-Oblique-74" d="M 2706 3500 
L 2619 3053 
L 1472 3053 
L 1100 1153 
Q 1081 1047 1072 975 
Q 1063 903 1063 863 
Q 1063 663 1183 572 
Q 1303 481 1569 481 
L 2150 481 
L 2053 0 
L 1503 0 
Q 991 0 739 200 
Q 488 400 488 806 
Q 488 878 497 964 
Q 506 1050 525 1153 
L 897 3053 
L 409 3053 
L 500 3500 
L 978 3500 
L 1172 4494 
L 1747 4494 
L 1556 3500 
L 2706 3500 
z
" transform="scale(0.015625)"/>
       <path id="DejaVuSans-Oblique-3c7" d="M 1922 -781 
L 1691 416 
L 394 -1334 
L -284 -1334 
L 1553 1141 
L 1269 2613 
Q 1194 3006 713 3006 
L 559 3006 
L 653 3500 
L 872 3494 
Q 1675 3472 1775 2950 
L 2006 1753 
L 3303 3503 
L 3981 3503 
L 2144 1028 
L 2428 -444 
Q 2503 -838 2984 -838 
L 3138 -838 
L 3044 -1331 
L 2825 -1325 
Q 2022 -1303 1922 -781 
z
" transform="scale(0.015625)"/>
       <path id="DejaVuSans-2c" d="M 750 794 
L 1409 794 
L 1409 256 
L 897 -744 
L 494 -744 
L 750 256 
L 750 794 
z
" transform="scale(0.015625)"/>
      </defs>
      <use xlink:href="#DejaVuSans-50" transform="translate(0 0.828125)"/>
      <use xlink:href="#DejaVuSans-72" transform="translate(60.302734 0.828125)"/>
      <use xlink:href="#DejaVuSans-69" transform="translate(101.416016 0.828125)"/>
      <use xlink:href="#DejaVuSans-76" transform="translate(129.199219 0.828125)"/>
      <use xlink:href="#DejaVuSans-61" transform="translate(188.378906 0.828125)"/>
      <use xlink:href="#DejaVuSans-74" transform="translate(249.658203 0.828125)"/>
      <use xlink:href="#DejaVuSans-65" transform="translate(288.867188 0.828125)"/>
      <use xlink:href="#DejaVuSans-20" transform="translate(350.390625 0.828125)"/>
      <use xlink:href="#DejaVuSans-56" transform="translate(382.177734 0.828125)"/>
      <use xlink:href="#DejaVuSans-61" transform="translate(450.585938 0.828125)"/>
      <use xlink:href="#DejaVuSans-6c" transform="translate(511.865234 0.828125)"/>
      <use xlink:href="#DejaVuSans-75" transform="translate(539.648438 0.828125)"/>
      <use xlink:href="#DejaVuSans-65" transform="translate(603.027344 0.828125)"/>
      <use xlink:href="#DejaVuSans-20" transform="translate(664.550781 0.828125)"/>
      <use xlink:href="#DejaVuSans-303" transform="translate(764.942871 22.3125)"/>
      <use xlink:href="#DejaVuSans-Oblique-52" transform="translate(696.337891 0.828125)"/>
      <use xlink:href="#DejaVuSans-Oblique-74" transform="translate(766.777344 39.109375) scale(0.7)"/>
      <use xlink:href="#DejaVuSans-Oblique-3c7" transform="translate(766.777344 -26.515625) scale(0.7)"/>
      <use xlink:href="#DejaVuSans-32" transform="translate(808.203125 -38) scale(0.49)"/>
      <use xlink:href="#DejaVuSans-2c" transform="translate(841.29248 -26.515625) scale(0.7)"/>
      <use xlink:href="#DejaVuSans-Oblique-3c7" transform="translate(877.181152 -26.515625) scale(0.7)"/>
      <use xlink:href="#DejaVuSans-31" transform="translate(918.606934 -38) scale(0.49)"/>
     </g>
    </g>
    <g id="line2d_26">
     <path d="M 53.879375 35.368824 
L 63.879375 35.368824 
L 73.879375 35.368824 
" style="fill: none; stroke-dasharray: 5.55,2.4; stroke-dashoffset: 0; stroke: #000000; stroke-width: 1.5"/>
    </g>
    <g id="text_15">
     <!-- Original Value $\bar{R}_{\chi_2,\chi_1}^t$ -->
     <g transform="translate(81.879375 38.868824) scale(0.1 -0.1)">
      <defs>
       <path id="DejaVuSans-4f" d="M 2522 4238 
Q 1834 4238 1429 3725 
Q 1025 3213 1025 2328 
Q 1025 1447 1429 934 
Q 1834 422 2522 422 
Q 3209 422 3611 934 
Q 4013 1447 4013 2328 
Q 4013 3213 3611 3725 
Q 3209 4238 2522 4238 
z
M 2522 4750 
Q 3503 4750 4090 4092 
Q 4678 3434 4678 2328 
Q 4678 1225 4090 567 
Q 3503 -91 2522 -91 
Q 1538 -91 948 565 
Q 359 1222 359 2328 
Q 359 3434 948 4092 
Q 1538 4750 2522 4750 
z
" transform="scale(0.015625)"/>
       <path id="DejaVuSans-67" d="M 2906 1791 
Q 2906 2416 2648 2759 
Q 2391 3103 1925 3103 
Q 1463 3103 1205 2759 
Q 947 2416 947 1791 
Q 947 1169 1205 825 
Q 1463 481 1925 481 
Q 2391 481 2648 825 
Q 2906 1169 2906 1791 
z
M 3481 434 
Q 3481 -459 3084 -895 
Q 2688 -1331 1869 -1331 
Q 1566 -1331 1297 -1286 
Q 1028 -1241 775 -1147 
L 775 -588 
Q 1028 -725 1275 -790 
Q 1522 -856 1778 -856 
Q 2344 -856 2625 -561 
Q 2906 -266 2906 331 
L 2906 616 
Q 2728 306 2450 153 
Q 2172 0 1784 0 
Q 1141 0 747 490 
Q 353 981 353 1791 
Q 353 2603 747 3093 
Q 1141 3584 1784 3584 
Q 2172 3584 2450 3431 
Q 2728 3278 2906 2969 
L 2906 3500 
L 3481 3500 
L 3481 434 
z
" transform="scale(0.015625)"/>
       <path id="DejaVuSans-6e" d="M 3513 2113 
L 3513 0 
L 2938 0 
L 2938 2094 
Q 2938 2591 2744 2837 
Q 2550 3084 2163 3084 
Q 1697 3084 1428 2787 
Q 1159 2491 1159 1978 
L 1159 0 
L 581 0 
L 581 3500 
L 1159 3500 
L 1159 2956 
Q 1366 3272 1645 3428 
Q 1925 3584 2291 3584 
Q 2894 3584 3203 3211 
Q 3513 2838 3513 2113 
z
" transform="scale(0.015625)"/>
       <path id="DejaVuSans-304" d="M -2518 4769 
L -650 4769 
L -650 4306 
L -2518 4306 
L -2518 4769 
z
" transform="scale(0.015625)"/>
      </defs>
      <use xlink:href="#DejaVuSans-4f" transform="translate(0 0.359375)"/>
      <use xlink:href="#DejaVuSans-72" transform="translate(78.710938 0.359375)"/>
      <use xlink:href="#DejaVuSans-69" transform="translate(119.824219 0.359375)"/>
      <use xlink:href="#DejaVuSans-67" transform="translate(147.607422 0.359375)"/>
      <use xlink:href="#DejaVuSans-69" transform="translate(211.083984 0.359375)"/>
      <use xlink:href="#DejaVuSans-6e" transform="translate(238.867188 0.359375)"/>
      <use xlink:href="#DejaVuSans-61" transform="translate(302.246094 0.359375)"/>
      <use xlink:href="#DejaVuSans-6c" transform="translate(363.525391 0.359375)"/>
      <use xlink:href="#DejaVuSans-20" transform="translate(391.308594 0.359375)"/>
      <use xlink:href="#DejaVuSans-56" transform="translate(423.095703 0.359375)"/>
      <use xlink:href="#DejaVuSans-61" transform="translate(491.503906 0.359375)"/>
      <use xlink:href="#DejaVuSans-6c" transform="translate(552.783203 0.359375)"/>
      <use xlink:href="#DejaVuSans-75" transform="translate(580.566406 0.359375)"/>
      <use xlink:href="#DejaVuSans-65" transform="translate(643.945312 0.359375)"/>
      <use xlink:href="#DejaVuSans-20" transform="translate(705.46875 0.359375)"/>
      <use xlink:href="#DejaVuSans-304" transform="translate(804.970215 18.484375)"/>
      <use xlink:href="#DejaVuSans-Oblique-52" transform="translate(737.255859 0.359375)"/>
      <use xlink:href="#DejaVuSans-Oblique-74" transform="translate(807.695312 38.640625) scale(0.7)"/>
      <use xlink:href="#DejaVuSans-Oblique-3c7" transform="translate(807.695312 -26.984375) scale(0.7)"/>
      <use xlink:href="#DejaVuSans-32" transform="translate(849.121094 -38.46875) scale(0.49)"/>
      <use xlink:href="#DejaVuSans-2c" transform="translate(882.210449 -26.984375) scale(0.7)"/>
      <use xlink:href="#DejaVuSans-Oblique-3c7" transform="translate(918.099121 -26.984375) scale(0.7)"/>
      <use xlink:href="#DejaVuSans-31" transform="translate(959.524902 -38.46875) scale(0.49)"/>
     </g>
    </g>
    <g id="patch_8">
     <path d="M 53.879375 55.667261 
L 73.879375 55.667261 
L 73.879375 48.667261 
L 53.879375 48.667261 
z
" style="fill: #0db14b; fill-opacity: 0.5; stroke: #0db14b; stroke-opacity: 0.5; stroke-width: 0.5; stroke-linejoin: miter"/>
    </g>
    <g id="text_16">
     <!-- One Standard Deviation -->
     <g transform="translate(81.879375 55.667261) scale(0.1 -0.1)">
      <defs>
       <path id="DejaVuSans-53" d="M 3425 4513 
L 3425 3897 
Q 3066 4069 2747 4153 
Q 2428 4238 2131 4238 
Q 1616 4238 1336 4038 
Q 1056 3838 1056 3469 
Q 1056 3159 1242 3001 
Q 1428 2844 1947 2747 
L 2328 2669 
Q 3034 2534 3370 2195 
Q 3706 1856 3706 1288 
Q 3706 609 3251 259 
Q 2797 -91 1919 -91 
Q 1588 -91 1214 -16 
Q 841 59 441 206 
L 441 856 
Q 825 641 1194 531 
Q 1563 422 1919 422 
Q 2459 422 2753 634 
Q 3047 847 3047 1241 
Q 3047 1584 2836 1778 
Q 2625 1972 2144 2069 
L 1759 2144 
Q 1053 2284 737 2584 
Q 422 2884 422 3419 
Q 422 4038 858 4394 
Q 1294 4750 2059 4750 
Q 2388 4750 2728 4690 
Q 3069 4631 3425 4513 
z
" transform="scale(0.015625)"/>
       <path id="DejaVuSans-64" d="M 2906 2969 
L 2906 4863 
L 3481 4863 
L 3481 0 
L 2906 0 
L 2906 525 
Q 2725 213 2448 61 
Q 2172 -91 1784 -91 
Q 1150 -91 751 415 
Q 353 922 353 1747 
Q 353 2572 751 3078 
Q 1150 3584 1784 3584 
Q 2172 3584 2448 3432 
Q 2725 3281 2906 2969 
z
M 947 1747 
Q 947 1113 1208 752 
Q 1469 391 1925 391 
Q 2381 391 2643 752 
Q 2906 1113 2906 1747 
Q 2906 2381 2643 2742 
Q 2381 3103 1925 3103 
Q 1469 3103 1208 2742 
Q 947 2381 947 1747 
z
" transform="scale(0.015625)"/>
       <path id="DejaVuSans-6f" d="M 1959 3097 
Q 1497 3097 1228 2736 
Q 959 2375 959 1747 
Q 959 1119 1226 758 
Q 1494 397 1959 397 
Q 2419 397 2687 759 
Q 2956 1122 2956 1747 
Q 2956 2369 2687 2733 
Q 2419 3097 1959 3097 
z
M 1959 3584 
Q 2709 3584 3137 3096 
Q 3566 2609 3566 1747 
Q 3566 888 3137 398 
Q 2709 -91 1959 -91 
Q 1206 -91 779 398 
Q 353 888 353 1747 
Q 353 2609 779 3096 
Q 1206 3584 1959 3584 
z
" transform="scale(0.015625)"/>
      </defs>
      <use xlink:href="#DejaVuSans-4f"/>
      <use xlink:href="#DejaVuSans-6e" x="78.710938"/>
      <use xlink:href="#DejaVuSans-65" x="142.089844"/>
      <use xlink:href="#DejaVuSans-20" x="203.613281"/>
      <use xlink:href="#DejaVuSans-53" x="235.400391"/>
      <use xlink:href="#DejaVuSans-74" x="298.876953"/>
      <use xlink:href="#DejaVuSans-61" x="338.085938"/>
      <use xlink:href="#DejaVuSans-6e" x="399.365234"/>
      <use xlink:href="#DejaVuSans-64" x="462.744141"/>
      <use xlink:href="#DejaVuSans-61" x="526.220703"/>
      <use xlink:href="#DejaVuSans-72" x="587.5"/>
      <use xlink:href="#DejaVuSans-64" x="626.863281"/>
      <use xlink:href="#DejaVuSans-20" x="690.339844"/>
      <use xlink:href="#DejaVuSans-44" x="722.126953"/>
      <use xlink:href="#DejaVuSans-65" x="799.128906"/>
      <use xlink:href="#DejaVuSans-76" x="860.652344"/>
      <use xlink:href="#DejaVuSans-69" x="919.832031"/>
      <use xlink:href="#DejaVuSans-61" x="947.615234"/>
      <use xlink:href="#DejaVuSans-74" x="1008.894531"/>
      <use xlink:href="#DejaVuSans-69" x="1048.103516"/>
      <use xlink:href="#DejaVuSans-6f" x="1075.886719"/>
      <use xlink:href="#DejaVuSans-6e" x="1137.068359"/>
     </g>
    </g>
   </g>
  </g>
 </g>
 <defs>
  <clipPath id="pa93bcc5336">
   <rect x="44.879375" y="1.368824" width="390.6" height="166.32"/>
  </clipPath>
 </defs>
</svg>
