<?xml version="1.0" encoding="utf-8" standalone="no"?>
<!DOCTYPE svg PUBLIC "-//W3C//DTD SVG 1.1//EN"
  "http://www.w3.org/Graphics/SVG/1.1/DTD/svg11.dtd">
<svg xmlns:xlink="http://www.w3.org/1999/xlink" width="444.375067pt" height="198.611875pt" viewBox="0 0 444.375067 198.611875" xmlns="http://www.w3.org/2000/svg" version="1.1">
 <metadata>
  <rdf:RDF xmlns:dc="http://purl.org/dc/elements/1.1/" xmlns:cc="http://creativecommons.org/ns#" xmlns:rdf="http://www.w3.org/1999/02/22-rdf-syntax-ns#">
   <cc:Work>
    <dc:type rdf:resource="http://purl.org/dc/dcmitype/StillImage"/>
    <dc:date>2024-09-18T15:47:42.390828</dc:date>
    <dc:format>image/svg+xml</dc:format>
    <dc:creator>
     <cc:Agent>
      <dc:title>Matplotlib v3.7.5, https://matplotlib.org/</dc:title>
     </cc:Agent>
    </dc:creator>
   </cc:Work>
  </rdf:RDF>
 </metadata>
 <defs>
  <style type="text/css">*{stroke-linejoin: round; stroke-linecap: butt}</style>
 </defs>
 <g id="figure_1">
  <g id="patch_1">
   <path d="M 0 198.611875 
L 444.375067 198.611875 
L 444.375067 0 
L 0 0 
z
" style="fill: #ffffff"/>
  </g>
  <g id="axes_1">
   <g id="patch_2">
    <path d="M 44.879375 166.32 
L 435.479375 166.32 
L 435.479375 0 
L 44.879375 0 
z
" style="fill: #e5e5e5"/>
   </g>
   <g id="matplotlib.axis_1">
    <g id="xtick_1">
     <g id="line2d_1">
      <path d="M 72.41989 166.32 
L 72.41989 0 
" clip-path="url(#p015a9c668c)" style="fill: none; stroke: #ffffff; stroke-width: 0.8; stroke-linecap: square"/>
     </g>
     <g id="line2d_2">
      <defs>
       <path id="m22a68e5528" d="M 0 0 
L 0 3.5 
" style="stroke: #555555; stroke-width: 0.8"/>
      </defs>
      <g>
       <use xlink:href="#m22a68e5528" x="72.41989" y="166.32" style="fill: #555555; stroke: #555555; stroke-width: 0.8"/>
      </g>
     </g>
     <g id="text_1">
      <!-- 08/16/20 -->
      <g style="fill: #555555" transform="translate(49.96364 180.918438) scale(0.1 -0.1)">
       <defs>
        <path id="DejaVuSans-30" d="M 2034 4250 
Q 1547 4250 1301 3770 
Q 1056 3291 1056 2328 
Q 1056 1369 1301 889 
Q 1547 409 2034 409 
Q 2525 409 2770 889 
Q 3016 1369 3016 2328 
Q 3016 3291 2770 3770 
Q 2525 4250 2034 4250 
z
M 2034 4750 
Q 2819 4750 3233 4129 
Q 3647 3509 3647 2328 
Q 3647 1150 3233 529 
Q 2819 -91 2034 -91 
Q 1250 -91 836 529 
Q 422 1150 422 2328 
Q 422 3509 836 4129 
Q 1250 4750 2034 4750 
z
" transform="scale(0.015625)"/>
        <path id="DejaVuSans-38" d="M 2034 2216 
Q 1584 2216 1326 1975 
Q 1069 1734 1069 1313 
Q 1069 891 1326 650 
Q 1584 409 2034 409 
Q 2484 409 2743 651 
Q 3003 894 3003 1313 
Q 3003 1734 2745 1975 
Q 2488 2216 2034 2216 
z
M 1403 2484 
Q 997 2584 770 2862 
Q 544 3141 544 3541 
Q 544 4100 942 4425 
Q 1341 4750 2034 4750 
Q 2731 4750 3128 4425 
Q 3525 4100 3525 3541 
Q 3525 3141 3298 2862 
Q 3072 2584 2669 2484 
Q 3125 2378 3379 2068 
Q 3634 1759 3634 1313 
Q 3634 634 3220 271 
Q 2806 -91 2034 -91 
Q 1263 -91 848 271 
Q 434 634 434 1313 
Q 434 1759 690 2068 
Q 947 2378 1403 2484 
z
M 1172 3481 
Q 1172 3119 1398 2916 
Q 1625 2713 2034 2713 
Q 2441 2713 2670 2916 
Q 2900 3119 2900 3481 
Q 2900 3844 2670 4047 
Q 2441 4250 2034 4250 
Q 1625 4250 1398 4047 
Q 1172 3844 1172 3481 
z
" transform="scale(0.015625)"/>
        <path id="DejaVuSans-2f" d="M 1625 4666 
L 2156 4666 
L 531 -594 
L 0 -594 
L 1625 4666 
z
" transform="scale(0.015625)"/>
        <path id="DejaVuSans-31" d="M 794 531 
L 1825 531 
L 1825 4091 
L 703 3866 
L 703 4441 
L 1819 4666 
L 2450 4666 
L 2450 531 
L 3481 531 
L 3481 0 
L 794 0 
L 794 531 
z
" transform="scale(0.015625)"/>
        <path id="DejaVuSans-36" d="M 2113 2584 
Q 1688 2584 1439 2293 
Q 1191 2003 1191 1497 
Q 1191 994 1439 701 
Q 1688 409 2113 409 
Q 2538 409 2786 701 
Q 3034 994 3034 1497 
Q 3034 2003 2786 2293 
Q 2538 2584 2113 2584 
z
M 3366 4563 
L 3366 3988 
Q 3128 4100 2886 4159 
Q 2644 4219 2406 4219 
Q 1781 4219 1451 3797 
Q 1122 3375 1075 2522 
Q 1259 2794 1537 2939 
Q 1816 3084 2150 3084 
Q 2853 3084 3261 2657 
Q 3669 2231 3669 1497 
Q 3669 778 3244 343 
Q 2819 -91 2113 -91 
Q 1303 -91 875 529 
Q 447 1150 447 2328 
Q 447 3434 972 4092 
Q 1497 4750 2381 4750 
Q 2619 4750 2861 4703 
Q 3103 4656 3366 4563 
z
" transform="scale(0.015625)"/>
        <path id="DejaVuSans-32" d="M 1228 531 
L 3431 531 
L 3431 0 
L 469 0 
L 469 531 
Q 828 903 1448 1529 
Q 2069 2156 2228 2338 
Q 2531 2678 2651 2914 
Q 2772 3150 2772 3378 
Q 2772 3750 2511 3984 
Q 2250 4219 1831 4219 
Q 1534 4219 1204 4116 
Q 875 4013 500 3803 
L 500 4441 
Q 881 4594 1212 4672 
Q 1544 4750 1819 4750 
Q 2544 4750 2975 4387 
Q 3406 4025 3406 3419 
Q 3406 3131 3298 2873 
Q 3191 2616 2906 2266 
Q 2828 2175 2409 1742 
Q 1991 1309 1228 531 
z
" transform="scale(0.015625)"/>
       </defs>
       <use xlink:href="#DejaVuSans-30"/>
       <use xlink:href="#DejaVuSans-38" x="63.623047"/>
       <use xlink:href="#DejaVuSans-2f" x="127.246094"/>
       <use xlink:href="#DejaVuSans-31" x="160.9375"/>
       <use xlink:href="#DejaVuSans-36" x="224.560547"/>
       <use xlink:href="#DejaVuSans-2f" x="288.183594"/>
       <use xlink:href="#DejaVuSans-32" x="321.875"/>
       <use xlink:href="#DejaVuSans-30" x="385.498047"/>
      </g>
     </g>
    </g>
    <g id="xtick_2">
     <g id="line2d_3">
      <path d="M 142.319676 166.32 
L 142.319676 0 
" clip-path="url(#p015a9c668c)" style="fill: none; stroke: #ffffff; stroke-width: 0.8; stroke-linecap: square"/>
     </g>
     <g id="line2d_4">
      <g>
       <use xlink:href="#m22a68e5528" x="142.319676" y="166.32" style="fill: #555555; stroke: #555555; stroke-width: 0.8"/>
      </g>
     </g>
     <g id="text_2">
      <!-- 10/05/20 -->
      <g style="fill: #555555" transform="translate(119.863426 180.918438) scale(0.1 -0.1)">
       <defs>
        <path id="DejaVuSans-35" d="M 691 4666 
L 3169 4666 
L 3169 4134 
L 1269 4134 
L 1269 2991 
Q 1406 3038 1543 3061 
Q 1681 3084 1819 3084 
Q 2600 3084 3056 2656 
Q 3513 2228 3513 1497 
Q 3513 744 3044 326 
Q 2575 -91 1722 -91 
Q 1428 -91 1123 -41 
Q 819 9 494 109 
L 494 744 
Q 775 591 1075 516 
Q 1375 441 1709 441 
Q 2250 441 2565 725 
Q 2881 1009 2881 1497 
Q 2881 1984 2565 2268 
Q 2250 2553 1709 2553 
Q 1456 2553 1204 2497 
Q 953 2441 691 2322 
L 691 4666 
z
" transform="scale(0.015625)"/>
       </defs>
       <use xlink:href="#DejaVuSans-31"/>
       <use xlink:href="#DejaVuSans-30" x="63.623047"/>
       <use xlink:href="#DejaVuSans-2f" x="127.246094"/>
       <use xlink:href="#DejaVuSans-30" x="160.9375"/>
       <use xlink:href="#DejaVuSans-35" x="224.560547"/>
       <use xlink:href="#DejaVuSans-2f" x="288.183594"/>
       <use xlink:href="#DejaVuSans-32" x="321.875"/>
       <use xlink:href="#DejaVuSans-30" x="385.498047"/>
      </g>
     </g>
    </g>
    <g id="xtick_3">
     <g id="line2d_5">
      <path d="M 212.219461 166.32 
L 212.219461 0 
" clip-path="url(#p015a9c668c)" style="fill: none; stroke: #ffffff; stroke-width: 0.8; stroke-linecap: square"/>
     </g>
     <g id="line2d_6">
      <g>
       <use xlink:href="#m22a68e5528" x="212.219461" y="166.32" style="fill: #555555; stroke: #555555; stroke-width: 0.8"/>
      </g>
     </g>
     <g id="text_3">
      <!-- 11/24/20 -->
      <g style="fill: #555555" transform="translate(189.763211 180.918438) scale(0.1 -0.1)">
       <defs>
        <path id="DejaVuSans-34" d="M 2419 4116 
L 825 1625 
L 2419 1625 
L 2419 4116 
z
M 2253 4666 
L 3047 4666 
L 3047 1625 
L 3713 1625 
L 3713 1100 
L 3047 1100 
L 3047 0 
L 2419 0 
L 2419 1100 
L 313 1100 
L 313 1709 
L 2253 4666 
z
" transform="scale(0.015625)"/>
       </defs>
       <use xlink:href="#DejaVuSans-31"/>
       <use xlink:href="#DejaVuSans-31" x="63.623047"/>
       <use xlink:href="#DejaVuSans-2f" x="127.246094"/>
       <use xlink:href="#DejaVuSans-32" x="160.9375"/>
       <use xlink:href="#DejaVuSans-34" x="224.560547"/>
       <use xlink:href="#DejaVuSans-2f" x="288.183594"/>
       <use xlink:href="#DejaVuSans-32" x="321.875"/>
       <use xlink:href="#DejaVuSans-30" x="385.498047"/>
      </g>
     </g>
    </g>
    <g id="xtick_4">
     <g id="line2d_7">
      <path d="M 282.119246 166.32 
L 282.119246 0 
" clip-path="url(#p015a9c668c)" style="fill: none; stroke: #ffffff; stroke-width: 0.8; stroke-linecap: square"/>
     </g>
     <g id="line2d_8">
      <g>
       <use xlink:href="#m22a68e5528" x="282.119246" y="166.32" style="fill: #555555; stroke: #555555; stroke-width: 0.8"/>
      </g>
     </g>
     <g id="text_4">
      <!-- 01/13/21 -->
      <g style="fill: #555555" transform="translate(259.662996 180.918438) scale(0.1 -0.1)">
       <defs>
        <path id="DejaVuSans-33" d="M 2597 2516 
Q 3050 2419 3304 2112 
Q 3559 1806 3559 1356 
Q 3559 666 3084 287 
Q 2609 -91 1734 -91 
Q 1441 -91 1130 -33 
Q 819 25 488 141 
L 488 750 
Q 750 597 1062 519 
Q 1375 441 1716 441 
Q 2309 441 2620 675 
Q 2931 909 2931 1356 
Q 2931 1769 2642 2001 
Q 2353 2234 1838 2234 
L 1294 2234 
L 1294 2753 
L 1863 2753 
Q 2328 2753 2575 2939 
Q 2822 3125 2822 3475 
Q 2822 3834 2567 4026 
Q 2313 4219 1838 4219 
Q 1578 4219 1281 4162 
Q 984 4106 628 3988 
L 628 4550 
Q 988 4650 1302 4700 
Q 1616 4750 1894 4750 
Q 2613 4750 3031 4423 
Q 3450 4097 3450 3541 
Q 3450 3153 3228 2886 
Q 3006 2619 2597 2516 
z
" transform="scale(0.015625)"/>
       </defs>
       <use xlink:href="#DejaVuSans-30"/>
       <use xlink:href="#DejaVuSans-31" x="63.623047"/>
       <use xlink:href="#DejaVuSans-2f" x="127.246094"/>
       <use xlink:href="#DejaVuSans-31" x="160.9375"/>
       <use xlink:href="#DejaVuSans-33" x="224.560547"/>
       <use xlink:href="#DejaVuSans-2f" x="288.183594"/>
       <use xlink:href="#DejaVuSans-32" x="321.875"/>
       <use xlink:href="#DejaVuSans-31" x="385.498047"/>
      </g>
     </g>
    </g>
    <g id="xtick_5">
     <g id="line2d_9">
      <path d="M 352.019031 166.32 
L 352.019031 0 
" clip-path="url(#p015a9c668c)" style="fill: none; stroke: #ffffff; stroke-width: 0.8; stroke-linecap: square"/>
     </g>
     <g id="line2d_10">
      <g>
       <use xlink:href="#m22a68e5528" x="352.019031" y="166.32" style="fill: #555555; stroke: #555555; stroke-width: 0.8"/>
      </g>
     </g>
     <g id="text_5">
      <!-- 03/04/21 -->
      <g style="fill: #555555" transform="translate(329.562781 180.918438) scale(0.1 -0.1)">
       <use xlink:href="#DejaVuSans-30"/>
       <use xlink:href="#DejaVuSans-33" x="63.623047"/>
       <use xlink:href="#DejaVuSans-2f" x="127.246094"/>
       <use xlink:href="#DejaVuSans-30" x="160.9375"/>
       <use xlink:href="#DejaVuSans-34" x="224.560547"/>
       <use xlink:href="#DejaVuSans-2f" x="288.183594"/>
       <use xlink:href="#DejaVuSans-32" x="321.875"/>
       <use xlink:href="#DejaVuSans-31" x="385.498047"/>
      </g>
     </g>
    </g>
    <g id="xtick_6">
     <g id="line2d_11">
      <path d="M 421.918817 166.32 
L 421.918817 0 
" clip-path="url(#p015a9c668c)" style="fill: none; stroke: #ffffff; stroke-width: 0.8; stroke-linecap: square"/>
     </g>
     <g id="line2d_12">
      <g>
       <use xlink:href="#m22a68e5528" x="421.918817" y="166.32" style="fill: #555555; stroke: #555555; stroke-width: 0.8"/>
      </g>
     </g>
     <g id="text_6">
      <!-- 04/23/21 -->
      <g style="fill: #555555" transform="translate(399.462567 180.918438) scale(0.1 -0.1)">
       <use xlink:href="#DejaVuSans-30"/>
       <use xlink:href="#DejaVuSans-34" x="63.623047"/>
       <use xlink:href="#DejaVuSans-2f" x="127.246094"/>
       <use xlink:href="#DejaVuSans-32" x="160.9375"/>
       <use xlink:href="#DejaVuSans-33" x="224.560547"/>
       <use xlink:href="#DejaVuSans-2f" x="288.183594"/>
       <use xlink:href="#DejaVuSans-32" x="321.875"/>
       <use xlink:href="#DejaVuSans-31" x="385.498047"/>
      </g>
     </g>
    </g>
    <g id="text_7">
     <!-- Date -->
     <g style="fill: #555555" transform="translate(225.838438 196.11625) scale(0.12 -0.12)">
      <defs>
       <path id="DejaVuSans-44" d="M 1259 4147 
L 1259 519 
L 2022 519 
Q 2988 519 3436 956 
Q 3884 1394 3884 2338 
Q 3884 3275 3436 3711 
Q 2988 4147 2022 4147 
L 1259 4147 
z
M 628 4666 
L 1925 4666 
Q 3281 4666 3915 4102 
Q 4550 3538 4550 2338 
Q 4550 1131 3912 565 
Q 3275 0 1925 0 
L 628 0 
L 628 4666 
z
" transform="scale(0.015625)"/>
       <path id="DejaVuSans-61" d="M 2194 1759 
Q 1497 1759 1228 1600 
Q 959 1441 959 1056 
Q 959 750 1161 570 
Q 1363 391 1709 391 
Q 2188 391 2477 730 
Q 2766 1069 2766 1631 
L 2766 1759 
L 2194 1759 
z
M 3341 1997 
L 3341 0 
L 2766 0 
L 2766 531 
Q 2569 213 2275 61 
Q 1981 -91 1556 -91 
Q 1019 -91 701 211 
Q 384 513 384 1019 
Q 384 1609 779 1909 
Q 1175 2209 1959 2209 
L 2766 2209 
L 2766 2266 
Q 2766 2663 2505 2880 
Q 2244 3097 1772 3097 
Q 1472 3097 1187 3025 
Q 903 2953 641 2809 
L 641 3341 
Q 956 3463 1253 3523 
Q 1550 3584 1831 3584 
Q 2591 3584 2966 3190 
Q 3341 2797 3341 1997 
z
" transform="scale(0.015625)"/>
       <path id="DejaVuSans-74" d="M 1172 4494 
L 1172 3500 
L 2356 3500 
L 2356 3053 
L 1172 3053 
L 1172 1153 
Q 1172 725 1289 603 
Q 1406 481 1766 481 
L 2356 481 
L 2356 0 
L 1766 0 
Q 1100 0 847 248 
Q 594 497 594 1153 
L 594 3053 
L 172 3053 
L 172 3500 
L 594 3500 
L 594 4494 
L 1172 4494 
z
" transform="scale(0.015625)"/>
       <path id="DejaVuSans-65" d="M 3597 1894 
L 3597 1613 
L 953 1613 
Q 991 1019 1311 708 
Q 1631 397 2203 397 
Q 2534 397 2845 478 
Q 3156 559 3463 722 
L 3463 178 
Q 3153 47 2828 -22 
Q 2503 -91 2169 -91 
Q 1331 -91 842 396 
Q 353 884 353 1716 
Q 353 2575 817 3079 
Q 1281 3584 2069 3584 
Q 2775 3584 3186 3129 
Q 3597 2675 3597 1894 
z
M 3022 2063 
Q 3016 2534 2758 2815 
Q 2500 3097 2075 3097 
Q 1594 3097 1305 2825 
Q 1016 2553 972 2059 
L 3022 2063 
z
" transform="scale(0.015625)"/>
      </defs>
      <use xlink:href="#DejaVuSans-44"/>
      <use xlink:href="#DejaVuSans-61" x="77.001953"/>
      <use xlink:href="#DejaVuSans-74" x="138.28125"/>
      <use xlink:href="#DejaVuSans-65" x="177.490234"/>
     </g>
    </g>
   </g>
   <g id="matplotlib.axis_2">
    <g id="ytick_1">
     <g id="line2d_13">
      <path d="M 44.879375 138.616563 
L 435.479375 138.616563 
" clip-path="url(#p015a9c668c)" style="fill: none; stroke: #ffffff; stroke-width: 0.8; stroke-linecap: square"/>
     </g>
     <g id="line2d_14">
      <defs>
       <path id="m58f25a7af4" d="M 0 0 
L -3.5 0 
" style="stroke: #555555; stroke-width: 0.8"/>
      </defs>
      <g>
       <use xlink:href="#m58f25a7af4" x="44.879375" y="138.616563" style="fill: #555555; stroke: #555555; stroke-width: 0.8"/>
      </g>
     </g>
     <g id="text_8">
      <!-- 0.05 -->
      <g style="fill: #555555" transform="translate(15.61375 142.415782) scale(0.1 -0.1)">
       <defs>
        <path id="DejaVuSans-2e" d="M 684 794 
L 1344 794 
L 1344 0 
L 684 0 
L 684 794 
z
" transform="scale(0.015625)"/>
       </defs>
       <use xlink:href="#DejaVuSans-30"/>
       <use xlink:href="#DejaVuSans-2e" x="63.623047"/>
       <use xlink:href="#DejaVuSans-30" x="95.410156"/>
       <use xlink:href="#DejaVuSans-35" x="159.033203"/>
      </g>
     </g>
    </g>
    <g id="ytick_2">
     <g id="line2d_15">
      <path d="M 44.879375 105.36736 
L 435.479375 105.36736 
" clip-path="url(#p015a9c668c)" style="fill: none; stroke: #ffffff; stroke-width: 0.8; stroke-linecap: square"/>
     </g>
     <g id="line2d_16">
      <g>
       <use xlink:href="#m58f25a7af4" x="44.879375" y="105.36736" style="fill: #555555; stroke: #555555; stroke-width: 0.8"/>
      </g>
     </g>
     <g id="text_9">
      <!-- 0.10 -->
      <g style="fill: #555555" transform="translate(15.61375 109.166579) scale(0.1 -0.1)">
       <use xlink:href="#DejaVuSans-30"/>
       <use xlink:href="#DejaVuSans-2e" x="63.623047"/>
       <use xlink:href="#DejaVuSans-31" x="95.410156"/>
       <use xlink:href="#DejaVuSans-30" x="159.033203"/>
      </g>
     </g>
    </g>
    <g id="ytick_3">
     <g id="line2d_17">
      <path d="M 44.879375 72.118156 
L 435.479375 72.118156 
" clip-path="url(#p015a9c668c)" style="fill: none; stroke: #ffffff; stroke-width: 0.8; stroke-linecap: square"/>
     </g>
     <g id="line2d_18">
      <g>
       <use xlink:href="#m58f25a7af4" x="44.879375" y="72.118156" style="fill: #555555; stroke: #555555; stroke-width: 0.8"/>
      </g>
     </g>
     <g id="text_10">
      <!-- 0.15 -->
      <g style="fill: #555555" transform="translate(15.61375 75.917375) scale(0.1 -0.1)">
       <use xlink:href="#DejaVuSans-30"/>
       <use xlink:href="#DejaVuSans-2e" x="63.623047"/>
       <use xlink:href="#DejaVuSans-31" x="95.410156"/>
       <use xlink:href="#DejaVuSans-35" x="159.033203"/>
      </g>
     </g>
    </g>
    <g id="ytick_4">
     <g id="line2d_19">
      <path d="M 44.879375 38.868953 
L 435.479375 38.868953 
" clip-path="url(#p015a9c668c)" style="fill: none; stroke: #ffffff; stroke-width: 0.8; stroke-linecap: square"/>
     </g>
     <g id="line2d_20">
      <g>
       <use xlink:href="#m58f25a7af4" x="44.879375" y="38.868953" style="fill: #555555; stroke: #555555; stroke-width: 0.8"/>
      </g>
     </g>
     <g id="text_11">
      <!-- 0.20 -->
      <g style="fill: #555555" transform="translate(15.61375 42.668172) scale(0.1 -0.1)">
       <use xlink:href="#DejaVuSans-30"/>
       <use xlink:href="#DejaVuSans-2e" x="63.623047"/>
       <use xlink:href="#DejaVuSans-32" x="95.410156"/>
       <use xlink:href="#DejaVuSans-30" x="159.033203"/>
      </g>
     </g>
    </g>
    <g id="ytick_5">
     <g id="line2d_21">
      <path d="M 44.879375 5.619749 
L 435.479375 5.619749 
" clip-path="url(#p015a9c668c)" style="fill: none; stroke: #ffffff; stroke-width: 0.8; stroke-linecap: square"/>
     </g>
     <g id="line2d_22">
      <g>
       <use xlink:href="#m58f25a7af4" x="44.879375" y="5.619749" style="fill: #555555; stroke: #555555; stroke-width: 0.8"/>
      </g>
     </g>
     <g id="text_12">
      <!-- 0.25 -->
      <g style="fill: #555555" transform="translate(15.61375 9.418968) scale(0.1 -0.1)">
       <use xlink:href="#DejaVuSans-30"/>
       <use xlink:href="#DejaVuSans-2e" x="63.623047"/>
       <use xlink:href="#DejaVuSans-32" x="95.410156"/>
       <use xlink:href="#DejaVuSans-35" x="159.033203"/>
      </g>
     </g>
    </g>
    <g id="text_13">
     <!-- Value -->
     <g style="fill: #555555" transform="translate(9.118125 99.6375) rotate(-90) scale(0.12 -0.12)">
      <defs>
       <path id="DejaVuSans-56" d="M 1831 0 
L 50 4666 
L 709 4666 
L 2188 738 
L 3669 4666 
L 4325 4666 
L 2547 0 
L 1831 0 
z
" transform="scale(0.015625)"/>
       <path id="DejaVuSans-6c" d="M 603 4863 
L 1178 4863 
L 1178 0 
L 603 0 
L 603 4863 
z
" transform="scale(0.015625)"/>
       <path id="DejaVuSans-75" d="M 544 1381 
L 544 3500 
L 1119 3500 
L 1119 1403 
Q 1119 906 1312 657 
Q 1506 409 1894 409 
Q 2359 409 2629 706 
Q 2900 1003 2900 1516 
L 2900 3500 
L 3475 3500 
L 3475 0 
L 2900 0 
L 2900 538 
Q 2691 219 2414 64 
Q 2138 -91 1772 -91 
Q 1169 -91 856 284 
Q 544 659 544 1381 
z
M 1991 3584 
L 1991 3584 
z
" transform="scale(0.015625)"/>
      </defs>
      <use xlink:href="#DejaVuSans-56"/>
      <use xlink:href="#DejaVuSans-61" x="60.658203"/>
      <use xlink:href="#DejaVuSans-6c" x="121.9375"/>
      <use xlink:href="#DejaVuSans-75" x="149.720703"/>
      <use xlink:href="#DejaVuSans-65" x="213.099609"/>
     </g>
    </g>
   </g>
   <g id="PolyCollection_1">
    <defs>
     <path id="m721e3af8fc" d="M 62.63392 -41.077625 
L 62.63392 -44.69311 
L 64.031916 -46.556454 
L 65.429912 -46.119299 
L 66.827908 -44.670601 
L 68.225903 -45.399625 
L 69.623899 -47.224707 
L 71.021895 -50.203071 
L 72.41989 -50.160363 
L 73.817886 -51.283819 
L 75.215882 -51.472558 
L 76.613878 -51.033514 
L 78.011873 -51.800174 
L 79.409869 -50.865156 
L 80.807865 -51.586857 
L 82.20586 -51.098952 
L 83.603856 -51.292102 
L 85.001852 -55.47418 
L 86.399847 -59.578606 
L 87.797843 -59.341942 
L 89.195839 -59.723265 
L 90.593835 -60.244587 
L 91.99183 -61.227992 
L 93.389826 -61.402386 
L 94.787822 -60.064499 
L 96.185817 -61.001738 
L 97.583813 -61.818837 
L 98.981809 -62.918604 
L 100.379804 -62.575147 
L 101.7778 -63.28497 
L 103.175796 -64.124694 
L 104.573792 -63.097448 
L 105.971787 -63.557784 
L 107.369783 -63.785165 
L 108.767779 -71.734964 
L 110.165774 -77.336981 
L 111.56377 -68.9508 
L 112.961766 -75.042575 
L 114.359762 -85.061201 
L 115.757757 -85.609575 
L 117.155753 -85.071017 
L 118.553749 -83.882276 
L 119.951744 -83.850518 
L 121.34974 -82.402831 
L 122.747736 -84.473305 
L 124.145731 -83.401888 
L 125.543727 -76.523905 
L 126.941723 -75.603505 
L 128.339719 -74.570587 
L 129.737714 -73.510609 
L 131.13571 -69.535877 
L 132.533706 -73.294714 
L 133.931701 -75.345788 
L 135.329697 -80.700143 
L 136.727693 -86.290542 
L 138.125689 -86.967897 
L 139.523684 -94.001565 
L 140.92168 -93.933638 
L 142.319676 -89.965835 
L 143.717671 -90.79307 
L 145.115667 -89.923164 
L 146.513663 -92.054552 
L 147.911658 -94.599202 
L 149.309654 -100.718939 
L 150.70765 -95.736267 
L 152.105646 -95.03021 
L 153.503641 -95.363198 
L 154.901637 -97.085663 
L 156.299633 -102.167887 
L 157.697628 -104.479965 
L 159.095624 -100.544304 
L 160.49362 -100.86602 
L 161.891616 -103.1902 
L 163.289611 -102.311558 
L 164.687607 -105.979803 
L 166.085603 -103.364454 
L 167.483598 -102.692866 
L 168.881594 -103.200582 
L 170.27959 -103.909842 
L 171.677585 -104.589188 
L 173.075581 -104.456986 
L 174.473577 -105.205279 
L 175.871573 -111.361949 
L 177.269568 -108.733442 
L 178.667564 -115.728947 
L 180.06556 -112.531217 
L 181.463555 -113.056059 
L 182.861551 -113.728531 
L 184.259547 -114.434076 
L 185.657543 -124.656808 
L 187.055538 -124.203366 
L 188.453534 -125.101486 
L 189.85153 -121.33502 
L 191.249525 -125.115007 
L 192.647521 -134.704513 
L 194.045517 -143.241652 
L 195.443512 -143.753249 
L 196.841508 -148.589935 
L 198.239504 -148.522203 
L 199.6375 -135.404715 
L 201.035495 -141.413808 
L 202.433491 -141.673788 
L 203.831487 -139.112474 
L 205.229482 -138.445849 
L 206.627478 -141.39027 
L 208.025474 -138.709696 
L 209.423469 -138.352798 
L 210.821465 -136.637686 
L 212.219461 -136.209952 
L 213.617457 -131.33573 
L 215.015452 -124.436097 
L 216.413448 -132.120997 
L 217.811444 -132.634997 
L 219.209439 -133.492205 
L 220.607435 -130.311377 
L 222.005431 -130.678496 
L 223.403427 -124.100994 
L 224.801422 -123.300997 
L 226.199418 -129.740429 
L 227.597414 -129.932189 
L 228.995409 -128.817487 
L 230.393405 -128.534238 
L 231.791401 -120.805159 
L 233.189396 -128.709576 
L 234.587392 -118.42827 
L 235.985388 -114.576604 
L 237.383384 -112.798798 
L 238.781379 -112.811367 
L 240.179375 -106.602377 
L 241.577371 -104.37142 
L 242.975366 -98.782241 
L 244.373362 -98.467518 
L 245.771358 -94.820232 
L 247.169354 -92.452493 
L 248.567349 -95.780022 
L 249.965345 -89.930401 
L 251.363341 -88.525072 
L 252.761336 -84.754634 
L 254.159332 -75.933285 
L 255.557328 -75.192643 
L 256.955323 -74.201939 
L 258.353319 -74.436858 
L 259.751315 -75.037265 
L 261.149311 -74.224246 
L 262.547306 -74.705764 
L 263.945302 -71.686922 
L 265.343298 -70.070343 
L 266.741293 -70.571898 
L 268.139289 -71.727656 
L 269.537285 -71.139573 
L 270.935281 -70.784064 
L 272.333276 -70.330387 
L 273.731272 -71.743426 
L 275.129268 -71.951854 
L 276.527263 -66.184936 
L 277.925259 -66.647908 
L 279.323255 -70.96064 
L 280.72125 -66.663785 
L 282.119246 -62.665016 
L 283.517242 -66.706116 
L 284.915238 -67.985416 
L 286.313233 -66.889615 
L 287.711229 -61.676348 
L 289.109225 -62.220549 
L 290.50722 -61.920139 
L 291.905216 -61.570874 
L 293.303212 -61.524181 
L 294.701207 -61.854015 
L 296.099203 -61.83805 
L 297.497199 -66.361965 
L 298.895195 -61.368855 
L 300.29319 -61.739135 
L 301.691186 -61.578821 
L 303.089182 -59.666457 
L 304.487177 -61.654328 
L 305.885173 -60.174824 
L 307.283169 -59.628425 
L 308.681165 -59.74249 
L 310.07916 -59.535837 
L 311.477156 -59.497138 
L 312.875152 -59.223226 
L 314.273147 -59.111494 
L 315.671143 -62.908517 
L 317.069139 -63.250978 
L 318.467134 -62.809872 
L 319.86513 -58.766449 
L 321.263126 -58.592972 
L 322.661122 -61.281657 
L 324.059117 -60.794529 
L 325.457113 -61.119166 
L 326.855109 -60.998746 
L 328.253104 -61.232997 
L 329.6511 -60.637171 
L 331.049096 -58.295533 
L 332.447092 -58.365619 
L 333.845087 -61.038657 
L 335.243083 -60.725589 
L 336.641079 -60.620625 
L 338.039074 -57.326916 
L 339.43707 -57.919643 
L 340.835066 -58.116176 
L 342.233061 -57.619828 
L 343.631057 -58.531785 
L 345.029053 -58.621269 
L 346.427049 -58.944661 
L 347.825044 -59.440576 
L 349.22304 -59.788211 
L 350.621036 -58.632393 
L 352.019031 -60.410861 
L 353.417027 -65.148975 
L 354.815023 -65.581901 
L 356.213019 -65.223332 
L 357.611014 -66.092936 
L 359.00901 -65.762802 
L 360.407006 -68.165556 
L 361.805001 -75.112274 
L 363.202997 -81.821258 
L 364.600993 -81.302938 
L 365.998988 -82.643229 
L 367.396984 -86.12142 
L 368.79498 -87.542646 
L 370.192976 -88.913643 
L 371.590971 -91.437094 
L 372.988967 -98.911468 
L 374.386963 -101.439065 
L 375.784958 -102.284908 
L 377.182954 -105.660852 
L 378.58095 -107.470836 
L 379.978946 -109.442019 
L 381.376941 -119.981438 
L 382.774937 -129.071141 
L 384.172933 -142.060928 
L 385.570928 -139.416347 
L 386.968924 -150.957127 
L 388.36692 -154.676144 
L 389.764915 -155.903677 
L 391.162911 -157.579241 
L 392.560907 -159.952902 
L 393.958903 -168.754453 
L 395.356898 -162.762093 
L 396.754894 -170.93853 
L 398.15289 -170.792708 
L 399.550885 -178.087232 
L 400.948881 -178.432534 
L 402.346877 -180.028028 
L 403.744872 -179.301635 
L 405.142868 -186.886954 
L 406.540864 -191.051875 
L 407.93886 -188.696211 
L 409.336855 -186.072553 
L 410.734851 -188.485681 
L 412.132847 -190.010624 
L 413.530842 -186.225003 
L 414.928838 -157.563928 
L 416.326834 -171.914878 
L 417.72483 -173.127902 
L 417.72483 -158.899415 
L 417.72483 -158.899415 
L 416.326834 -158.598788 
L 414.928838 -146.738873 
L 413.530842 -172.377873 
L 412.132847 -175.96573 
L 410.734851 -174.345054 
L 409.336855 -174.040216 
L 407.93886 -175.164656 
L 406.540864 -176.763986 
L 405.142868 -173.368534 
L 403.744872 -164.591191 
L 402.346877 -167.099721 
L 400.948881 -165.539131 
L 399.550885 -164.248959 
L 398.15289 -158.478889 
L 396.754894 -157.350851 
L 395.356898 -148.859913 
L 393.958903 -154.618056 
L 392.560907 -146.878035 
L 391.162911 -145.46535 
L 389.764915 -143.572604 
L 388.36692 -143.056827 
L 386.968924 -138.282453 
L 385.570928 -127.619385 
L 384.172933 -131.542489 
L 382.774937 -116.16346 
L 381.376941 -108.415043 
L 379.978946 -99.438374 
L 378.58095 -96.979436 
L 377.182954 -95.906636 
L 375.784958 -91.242409 
L 374.386963 -92.706857 
L 372.988967 -89.507312 
L 371.590971 -82.291397 
L 370.192976 -80.727046 
L 368.79498 -78.743679 
L 367.396984 -77.414354 
L 365.998988 -74.459001 
L 364.600993 -74.008422 
L 363.202997 -72.877106 
L 361.805001 -67.069669 
L 360.407006 -62.685938 
L 359.00901 -59.793849 
L 357.611014 -59.953505 
L 356.213019 -59.698145 
L 354.815023 -59.550897 
L 353.417027 -58.647256 
L 352.019031 -55.584399 
L 350.621036 -53.557544 
L 349.22304 -53.544793 
L 347.825044 -53.446739 
L 346.427049 -53.134569 
L 345.029053 -53.315505 
L 343.631057 -53.095671 
L 342.233061 -52.476545 
L 340.835066 -52.798009 
L 339.43707 -52.284669 
L 338.039074 -52.249331 
L 336.641079 -54.070104 
L 335.243083 -54.780253 
L 333.845087 -54.94974 
L 332.447092 -52.552884 
L 331.049096 -53.036031 
L 329.6511 -54.652422 
L 328.253104 -54.729807 
L 326.855109 -54.937775 
L 325.457113 -55.204644 
L 324.059117 -55.199001 
L 322.661122 -55.249646 
L 321.263126 -52.719482 
L 319.86513 -53.102649 
L 318.467134 -56.532955 
L 317.069139 -56.17477 
L 315.671143 -56.525563 
L 314.273147 -52.823221 
L 312.875152 -53.581523 
L 311.477156 -54.106689 
L 310.07916 -53.683819 
L 308.681165 -53.866935 
L 307.283169 -53.653502 
L 305.885173 -54.159578 
L 304.487177 -55.440872 
L 303.089182 -53.768984 
L 301.691186 -55.773611 
L 300.29319 -55.777961 
L 298.895195 -55.737042 
L 297.497199 -59.241677 
L 296.099203 -55.681159 
L 294.701207 -56.110286 
L 293.303212 -55.496126 
L 291.905216 -56.327623 
L 290.50722 -56.505344 
L 289.109225 -56.071973 
L 287.711229 -56.173137 
L 286.313233 -60.182965 
L 284.915238 -61.156722 
L 283.517242 -60.485026 
L 282.119246 -55.963285 
L 280.72125 -59.805169 
L 279.323255 -63.513661 
L 277.925259 -60.14725 
L 276.527263 -59.089239 
L 275.129268 -64.015084 
L 273.731272 -64.590793 
L 272.333276 -62.912625 
L 270.935281 -63.368248 
L 269.537285 -63.826345 
L 268.139289 -64.083501 
L 266.741293 -63.655633 
L 265.343298 -63.513153 
L 263.945302 -63.866472 
L 262.547306 -67.291282 
L 261.149311 -66.685425 
L 259.751315 -67.298446 
L 258.353319 -67.597693 
L 256.955323 -67.085115 
L 255.557328 -68.064299 
L 254.159332 -68.284504 
L 252.761336 -76.016257 
L 251.363341 -79.028149 
L 249.965345 -80.07049 
L 248.567349 -86.7201 
L 247.169354 -83.890988 
L 245.771358 -84.391776 
L 244.373362 -87.988678 
L 242.975366 -89.315435 
L 241.577371 -94.088401 
L 240.179375 -95.075465 
L 238.781379 -102.639731 
L 237.383384 -102.266732 
L 235.985388 -103.849307 
L 234.587392 -108.357447 
L 233.189396 -116.503832 
L 231.791401 -109.861441 
L 230.393405 -116.590706 
L 228.995409 -117.570678 
L 227.597414 -118.509715 
L 226.199418 -118.553437 
L 224.801422 -112.296543 
L 223.403427 -113.015576 
L 222.005431 -118.939311 
L 220.607435 -120.00787 
L 219.209439 -121.101505 
L 217.811444 -120.906599 
L 216.413448 -119.938925 
L 215.015452 -113.457858 
L 213.617457 -119.658723 
L 212.219461 -122.585938 
L 210.821465 -124.635367 
L 209.423469 -125.228094 
L 208.025474 -126.554718 
L 206.627478 -126.927653 
L 205.229482 -125.041313 
L 203.831487 -126.122919 
L 202.433491 -129.746642 
L 201.035495 -128.011647 
L 199.6375 -121.639446 
L 198.239504 -134.21285 
L 196.841508 -135.162657 
L 195.443512 -130.863938 
L 194.045517 -129.042852 
L 192.647521 -122.056368 
L 191.249525 -112.932822 
L 189.85153 -109.263077 
L 188.453534 -113.230266 
L 187.055538 -111.792846 
L 185.657543 -113.104351 
L 184.259547 -102.906079 
L 182.861551 -102.309314 
L 181.463555 -102.326995 
L 180.06556 -99.882311 
L 178.667564 -102.885729 
L 177.269568 -96.488599 
L 175.871573 -98.952539 
L 174.473577 -91.824991 
L 173.075581 -92.717948 
L 171.677585 -92.588964 
L 170.27959 -92.358448 
L 168.881594 -90.079349 
L 167.483598 -90.144284 
L 166.085603 -92.03351 
L 164.687607 -94.121809 
L 163.289611 -90.72336 
L 161.891616 -91.115955 
L 160.49362 -90.55474 
L 159.095624 -90.57351 
L 157.697628 -93.223106 
L 156.299633 -92.198972 
L 154.901637 -85.785517 
L 153.503641 -86.271278 
L 152.105646 -84.259927 
L 150.70765 -85.591197 
L 149.309654 -89.791607 
L 147.911658 -84.545877 
L 146.513663 -82.837662 
L 145.115667 -81.786563 
L 143.717671 -81.877537 
L 142.319676 -80.881255 
L 140.92168 -84.714525 
L 139.523684 -84.908595 
L 138.125689 -78.970644 
L 136.727693 -79.101847 
L 135.329697 -73.678081 
L 133.931701 -68.395311 
L 132.533706 -66.649325 
L 131.13571 -63.522538 
L 129.737714 -66.968996 
L 128.339719 -67.672709 
L 126.941723 -68.253173 
L 125.543727 -68.966318 
L 124.145731 -75.675957 
L 122.747736 -77.037583 
L 121.34974 -74.939088 
L 119.951744 -76.214685 
L 118.553749 -76.410915 
L 117.155753 -77.160509 
L 115.757757 -77.52764 
L 114.359762 -76.255733 
L 112.961766 -68.900127 
L 111.56377 -62.751423 
L 110.165774 -69.504656 
L 108.767779 -65.268289 
L 107.369783 -57.237062 
L 105.971787 -57.37786 
L 104.573792 -57.061101 
L 103.175796 -56.734146 
L 101.7778 -56.305581 
L 100.379804 -56.38972 
L 98.981809 -56.556961 
L 97.583813 -55.508503 
L 96.185817 -55.120806 
L 94.787822 -54.429197 
L 93.389826 -55.647526 
L 91.99183 -54.84601 
L 90.593835 -54.966476 
L 89.195839 -53.852971 
L 87.797843 -54.267058 
L 86.399847 -53.432426 
L 85.001852 -50.482383 
L 83.603856 -46.967325 
L 82.20586 -46.923585 
L 80.807865 -47.117194 
L 79.409869 -46.493813 
L 78.011873 -46.899045 
L 76.613878 -46.96187 
L 75.215882 -47.375197 
L 73.817886 -47.303196 
L 72.41989 -45.960377 
L 71.021895 -45.869387 
L 69.623899 -43.357165 
L 68.225903 -41.797323 
L 66.827908 -41.275463 
L 65.429912 -42.596674 
L 64.031916 -42.350893 
L 62.63392 -41.077625 
z
" style="stroke: #0db14b; stroke-opacity: 0.5; stroke-width: 0.5"/>
    </defs>
    <g clip-path="url(#p015a9c668c)">
     <use xlink:href="#m721e3af8fc" x="0" y="198.611875" style="fill: #0db14b; fill-opacity: 0.5; stroke: #0db14b; stroke-opacity: 0.5; stroke-width: 0.5"/>
    </g>
   </g>
   <g id="line2d_23">
    <path d="M 62.63392 155.726508 
L 64.031916 154.158202 
L 65.429912 154.253888 
L 66.827908 155.638843 
L 68.225903 155.013401 
L 69.623899 153.320939 
L 71.021895 150.575646 
L 72.41989 150.551505 
L 73.817886 149.318367 
L 75.215882 149.187997 
L 76.613878 149.614183 
L 78.011873 149.262265 
L 79.409869 149.93239 
L 80.807865 149.259849 
L 82.20586 149.600607 
L 83.603856 149.482162 
L 86.399847 142.106359 
L 87.797843 141.807375 
L 89.195839 141.823757 
L 90.593835 141.006344 
L 93.389826 140.086919 
L 94.787822 141.365027 
L 96.185817 140.550603 
L 97.583813 139.948205 
L 98.981809 138.874092 
L 100.379804 139.129441 
L 101.7778 138.8166 
L 103.175796 138.182455 
L 104.573792 138.532601 
L 105.971787 138.144053 
L 107.369783 138.100762 
L 108.767779 130.110248 
L 110.165774 125.191056 
L 111.56377 132.760763 
L 112.961766 126.640524 
L 114.359762 117.953408 
L 115.757757 117.043268 
L 117.155753 117.496112 
L 118.553749 118.465279 
L 119.951744 118.579274 
L 121.34974 119.940916 
L 122.747736 117.856431 
L 124.145731 119.072953 
L 125.543727 125.866764 
L 129.737714 128.372073 
L 131.13571 132.082668 
L 132.533706 128.639856 
L 133.931701 126.741326 
L 136.727693 115.91568 
L 138.125689 115.642604 
L 139.523684 109.156795 
L 140.92168 109.287793 
L 142.319676 113.18833 
L 143.717671 112.276571 
L 145.115667 112.757012 
L 146.513663 111.165768 
L 147.911658 109.039336 
L 149.309654 103.356602 
L 150.70765 107.948143 
L 152.105646 108.966806 
L 153.503641 107.794637 
L 154.901637 107.176285 
L 156.299633 101.428446 
L 157.697628 99.760339 
L 159.095624 103.052968 
L 160.49362 102.901495 
L 161.891616 101.458797 
L 163.289611 102.094416 
L 164.687607 98.561069 
L 166.085603 100.912893 
L 167.483598 102.1933 
L 168.881594 101.971909 
L 170.27959 100.47773 
L 171.677585 100.022799 
L 174.473577 100.09674 
L 175.871573 93.454631 
L 177.269568 96.000855 
L 178.667564 89.304537 
L 180.06556 92.405111 
L 181.463555 90.920348 
L 182.861551 90.592952 
L 184.259547 89.941797 
L 185.657543 79.731295 
L 187.055538 80.613769 
L 188.453534 79.445999 
L 189.85153 83.312827 
L 191.249525 79.58796 
L 192.647521 70.231434 
L 194.045517 62.469623 
L 195.443512 61.303281 
L 196.841508 56.735579 
L 198.239504 57.244348 
L 199.6375 70.089794 
L 201.035495 63.899148 
L 202.433491 62.90166 
L 203.831487 65.994178 
L 205.229482 66.868294 
L 206.627478 64.452913 
L 208.025474 65.979668 
L 209.423469 66.821429 
L 212.219461 69.21393 
L 213.617457 73.114648 
L 215.015452 79.664897 
L 216.413448 72.581914 
L 217.811444 71.841077 
L 219.209439 71.31502 
L 220.607435 73.452252 
L 222.005431 73.802971 
L 223.403427 80.05359 
L 224.801422 80.813105 
L 226.199418 74.464942 
L 227.597414 74.390923 
L 228.995409 75.417792 
L 230.393405 76.049403 
L 231.791401 83.278575 
L 233.189396 76.005171 
L 234.587392 85.219017 
L 235.985388 89.39892 
L 237.383384 91.07911 
L 238.781379 90.886326 
L 240.179375 97.772954 
L 241.577371 99.381965 
L 242.975366 104.563037 
L 244.373362 105.383777 
L 245.771358 109.005871 
L 247.169354 110.440135 
L 248.567349 107.361814 
L 249.965345 113.611429 
L 251.363341 114.835265 
L 252.761336 118.226429 
L 254.159332 126.50298 
L 255.557328 126.983404 
L 256.955323 127.968348 
L 258.353319 127.5946 
L 259.751315 127.44402 
L 261.149311 128.15704 
L 262.547306 127.613352 
L 263.945302 130.835178 
L 265.343298 131.820127 
L 266.741293 131.49811 
L 268.139289 130.706296 
L 272.333276 131.990369 
L 273.731272 130.444765 
L 275.129268 130.628406 
L 276.527263 135.974788 
L 277.925259 135.214296 
L 279.323255 131.374725 
L 282.119246 139.297724 
L 283.517242 135.016304 
L 284.915238 134.040806 
L 286.313233 135.075585 
L 287.711229 139.687133 
L 289.109225 139.465614 
L 290.50722 139.399133 
L 291.905216 139.662627 
L 293.303212 140.101722 
L 294.701207 139.629725 
L 296.099203 139.85227 
L 297.497199 135.810054 
L 298.895195 140.058927 
L 300.29319 139.853327 
L 301.691186 139.935659 
L 303.089182 141.894155 
L 304.487177 140.064275 
L 305.885173 141.444674 
L 307.283169 141.970911 
L 308.681165 141.807163 
L 310.07916 142.002047 
L 311.477156 141.809962 
L 314.273147 142.644518 
L 315.671143 138.894835 
L 318.467134 138.940461 
L 319.86513 142.677326 
L 321.263126 142.955648 
L 322.661122 140.346223 
L 324.059117 140.61511 
L 325.457113 140.44997 
L 326.855109 140.643615 
L 328.253104 140.630473 
L 329.6511 140.967079 
L 331.049096 142.946093 
L 332.447092 143.152623 
L 333.845087 140.617676 
L 335.243083 140.858954 
L 336.641079 141.26651 
L 338.039074 143.823752 
L 340.835066 143.154783 
L 342.233061 143.563689 
L 343.631057 142.798147 
L 346.427049 142.57226 
L 347.825044 142.168218 
L 349.22304 141.945373 
L 350.621036 142.516906 
L 352.019031 140.614245 
L 353.417027 136.71376 
L 354.815023 136.045476 
L 356.213019 136.151136 
L 357.611014 135.588654 
L 359.00901 135.83355 
L 360.407006 133.186128 
L 361.805001 127.520903 
L 363.202997 121.262693 
L 364.600993 120.956195 
L 365.998988 120.06076 
L 367.396984 116.843988 
L 368.79498 115.468712 
L 370.192976 113.791531 
L 371.590971 111.747629 
L 372.988967 104.402485 
L 374.386963 101.538914 
L 375.784958 101.848217 
L 377.182954 97.828131 
L 378.58095 96.386739 
L 379.978946 94.171678 
L 381.376941 84.413635 
L 382.774937 75.994574 
L 384.172933 61.810167 
L 385.570928 65.094009 
L 386.968924 53.992085 
L 388.36692 49.745389 
L 389.764915 48.873735 
L 392.560907 45.196407 
L 393.958903 36.92562 
L 395.356898 42.800872 
L 396.754894 34.467184 
L 398.15289 33.976077 
L 399.550885 27.44378 
L 400.948881 26.626043 
L 402.346877 25.048001 
L 403.744872 26.665462 
L 405.142868 18.484131 
L 406.540864 14.703945 
L 409.336855 18.55549 
L 410.734851 17.196508 
L 412.132847 15.623698 
L 413.530842 19.310437 
L 414.928838 46.460475 
L 416.326834 33.355042 
L 417.72483 32.598216 
L 417.72483 32.598216 
" clip-path="url(#p015a9c668c)" style="fill: none; stroke: #0db14b; stroke-width: 3; stroke-linecap: square"/>
    <defs>
     <path id="m57bb8c3453" d="M 0 1.5 
C 0.397805 1.5 0.77937 1.341951 1.06066 1.06066 
C 1.341951 0.77937 1.5 0.397805 1.5 0 
C 1.5 -0.397805 1.341951 -0.77937 1.06066 -1.06066 
C 0.77937 -1.341951 0.397805 -1.5 0 -1.5 
C -0.397805 -1.5 -0.77937 -1.341951 -1.06066 -1.06066 
C -1.341951 -0.77937 -1.5 -0.397805 -1.5 0 
C -1.5 0.397805 -1.341951 0.77937 -1.06066 1.06066 
C -0.77937 1.341951 -0.397805 1.5 0 1.5 
z
" style="stroke: #0db14b"/>
    </defs>
    <g clip-path="url(#p015a9c668c)">
     <use xlink:href="#m57bb8c3453" x="62.63392" y="155.726508" style="fill: #0db14b; stroke: #0db14b"/>
     <use xlink:href="#m57bb8c3453" x="64.031916" y="154.158202" style="fill: #0db14b; stroke: #0db14b"/>
     <use xlink:href="#m57bb8c3453" x="65.429912" y="154.253888" style="fill: #0db14b; stroke: #0db14b"/>
     <use xlink:href="#m57bb8c3453" x="66.827908" y="155.638843" style="fill: #0db14b; stroke: #0db14b"/>
     <use xlink:href="#m57bb8c3453" x="68.225903" y="155.013401" style="fill: #0db14b; stroke: #0db14b"/>
     <use xlink:href="#m57bb8c3453" x="69.623899" y="153.320939" style="fill: #0db14b; stroke: #0db14b"/>
     <use xlink:href="#m57bb8c3453" x="71.021895" y="150.575646" style="fill: #0db14b; stroke: #0db14b"/>
     <use xlink:href="#m57bb8c3453" x="72.41989" y="150.551505" style="fill: #0db14b; stroke: #0db14b"/>
     <use xlink:href="#m57bb8c3453" x="73.817886" y="149.318367" style="fill: #0db14b; stroke: #0db14b"/>
     <use xlink:href="#m57bb8c3453" x="75.215882" y="149.187997" style="fill: #0db14b; stroke: #0db14b"/>
     <use xlink:href="#m57bb8c3453" x="76.613878" y="149.614183" style="fill: #0db14b; stroke: #0db14b"/>
     <use xlink:href="#m57bb8c3453" x="78.011873" y="149.262265" style="fill: #0db14b; stroke: #0db14b"/>
     <use xlink:href="#m57bb8c3453" x="79.409869" y="149.93239" style="fill: #0db14b; stroke: #0db14b"/>
     <use xlink:href="#m57bb8c3453" x="80.807865" y="149.259849" style="fill: #0db14b; stroke: #0db14b"/>
     <use xlink:href="#m57bb8c3453" x="82.20586" y="149.600607" style="fill: #0db14b; stroke: #0db14b"/>
     <use xlink:href="#m57bb8c3453" x="83.603856" y="149.482162" style="fill: #0db14b; stroke: #0db14b"/>
     <use xlink:href="#m57bb8c3453" x="85.001852" y="145.633593" style="fill: #0db14b; stroke: #0db14b"/>
     <use xlink:href="#m57bb8c3453" x="86.399847" y="142.106359" style="fill: #0db14b; stroke: #0db14b"/>
     <use xlink:href="#m57bb8c3453" x="87.797843" y="141.807375" style="fill: #0db14b; stroke: #0db14b"/>
     <use xlink:href="#m57bb8c3453" x="89.195839" y="141.823757" style="fill: #0db14b; stroke: #0db14b"/>
     <use xlink:href="#m57bb8c3453" x="90.593835" y="141.006344" style="fill: #0db14b; stroke: #0db14b"/>
     <use xlink:href="#m57bb8c3453" x="91.99183" y="140.574874" style="fill: #0db14b; stroke: #0db14b"/>
     <use xlink:href="#m57bb8c3453" x="93.389826" y="140.086919" style="fill: #0db14b; stroke: #0db14b"/>
     <use xlink:href="#m57bb8c3453" x="94.787822" y="141.365027" style="fill: #0db14b; stroke: #0db14b"/>
     <use xlink:href="#m57bb8c3453" x="96.185817" y="140.550603" style="fill: #0db14b; stroke: #0db14b"/>
     <use xlink:href="#m57bb8c3453" x="97.583813" y="139.948205" style="fill: #0db14b; stroke: #0db14b"/>
     <use xlink:href="#m57bb8c3453" x="98.981809" y="138.874092" style="fill: #0db14b; stroke: #0db14b"/>
     <use xlink:href="#m57bb8c3453" x="100.379804" y="139.129441" style="fill: #0db14b; stroke: #0db14b"/>
     <use xlink:href="#m57bb8c3453" x="101.7778" y="138.8166" style="fill: #0db14b; stroke: #0db14b"/>
     <use xlink:href="#m57bb8c3453" x="103.175796" y="138.182455" style="fill: #0db14b; stroke: #0db14b"/>
     <use xlink:href="#m57bb8c3453" x="104.573792" y="138.532601" style="fill: #0db14b; stroke: #0db14b"/>
     <use xlink:href="#m57bb8c3453" x="105.971787" y="138.144053" style="fill: #0db14b; stroke: #0db14b"/>
     <use xlink:href="#m57bb8c3453" x="107.369783" y="138.100762" style="fill: #0db14b; stroke: #0db14b"/>
     <use xlink:href="#m57bb8c3453" x="108.767779" y="130.110248" style="fill: #0db14b; stroke: #0db14b"/>
     <use xlink:href="#m57bb8c3453" x="110.165774" y="125.191056" style="fill: #0db14b; stroke: #0db14b"/>
     <use xlink:href="#m57bb8c3453" x="111.56377" y="132.760763" style="fill: #0db14b; stroke: #0db14b"/>
     <use xlink:href="#m57bb8c3453" x="112.961766" y="126.640524" style="fill: #0db14b; stroke: #0db14b"/>
     <use xlink:href="#m57bb8c3453" x="114.359762" y="117.953408" style="fill: #0db14b; stroke: #0db14b"/>
     <use xlink:href="#m57bb8c3453" x="115.757757" y="117.043268" style="fill: #0db14b; stroke: #0db14b"/>
     <use xlink:href="#m57bb8c3453" x="117.155753" y="117.496112" style="fill: #0db14b; stroke: #0db14b"/>
     <use xlink:href="#m57bb8c3453" x="118.553749" y="118.465279" style="fill: #0db14b; stroke: #0db14b"/>
     <use xlink:href="#m57bb8c3453" x="119.951744" y="118.579274" style="fill: #0db14b; stroke: #0db14b"/>
     <use xlink:href="#m57bb8c3453" x="121.34974" y="119.940916" style="fill: #0db14b; stroke: #0db14b"/>
     <use xlink:href="#m57bb8c3453" x="122.747736" y="117.856431" style="fill: #0db14b; stroke: #0db14b"/>
     <use xlink:href="#m57bb8c3453" x="124.145731" y="119.072953" style="fill: #0db14b; stroke: #0db14b"/>
     <use xlink:href="#m57bb8c3453" x="125.543727" y="125.866764" style="fill: #0db14b; stroke: #0db14b"/>
     <use xlink:href="#m57bb8c3453" x="126.941723" y="126.683536" style="fill: #0db14b; stroke: #0db14b"/>
     <use xlink:href="#m57bb8c3453" x="128.339719" y="127.490227" style="fill: #0db14b; stroke: #0db14b"/>
     <use xlink:href="#m57bb8c3453" x="129.737714" y="128.372073" style="fill: #0db14b; stroke: #0db14b"/>
     <use xlink:href="#m57bb8c3453" x="131.13571" y="132.082668" style="fill: #0db14b; stroke: #0db14b"/>
     <use xlink:href="#m57bb8c3453" x="132.533706" y="128.639856" style="fill: #0db14b; stroke: #0db14b"/>
     <use xlink:href="#m57bb8c3453" x="133.931701" y="126.741326" style="fill: #0db14b; stroke: #0db14b"/>
     <use xlink:href="#m57bb8c3453" x="135.329697" y="121.422763" style="fill: #0db14b; stroke: #0db14b"/>
     <use xlink:href="#m57bb8c3453" x="136.727693" y="115.91568" style="fill: #0db14b; stroke: #0db14b"/>
     <use xlink:href="#m57bb8c3453" x="138.125689" y="115.642604" style="fill: #0db14b; stroke: #0db14b"/>
     <use xlink:href="#m57bb8c3453" x="139.523684" y="109.156795" style="fill: #0db14b; stroke: #0db14b"/>
     <use xlink:href="#m57bb8c3453" x="140.92168" y="109.287793" style="fill: #0db14b; stroke: #0db14b"/>
     <use xlink:href="#m57bb8c3453" x="142.319676" y="113.18833" style="fill: #0db14b; stroke: #0db14b"/>
     <use xlink:href="#m57bb8c3453" x="143.717671" y="112.276571" style="fill: #0db14b; stroke: #0db14b"/>
     <use xlink:href="#m57bb8c3453" x="145.115667" y="112.757012" style="fill: #0db14b; stroke: #0db14b"/>
     <use xlink:href="#m57bb8c3453" x="146.513663" y="111.165768" style="fill: #0db14b; stroke: #0db14b"/>
     <use xlink:href="#m57bb8c3453" x="147.911658" y="109.039336" style="fill: #0db14b; stroke: #0db14b"/>
     <use xlink:href="#m57bb8c3453" x="149.309654" y="103.356602" style="fill: #0db14b; stroke: #0db14b"/>
     <use xlink:href="#m57bb8c3453" x="150.70765" y="107.948143" style="fill: #0db14b; stroke: #0db14b"/>
     <use xlink:href="#m57bb8c3453" x="152.105646" y="108.966806" style="fill: #0db14b; stroke: #0db14b"/>
     <use xlink:href="#m57bb8c3453" x="153.503641" y="107.794637" style="fill: #0db14b; stroke: #0db14b"/>
     <use xlink:href="#m57bb8c3453" x="154.901637" y="107.176285" style="fill: #0db14b; stroke: #0db14b"/>
     <use xlink:href="#m57bb8c3453" x="156.299633" y="101.428446" style="fill: #0db14b; stroke: #0db14b"/>
     <use xlink:href="#m57bb8c3453" x="157.697628" y="99.760339" style="fill: #0db14b; stroke: #0db14b"/>
     <use xlink:href="#m57bb8c3453" x="159.095624" y="103.052968" style="fill: #0db14b; stroke: #0db14b"/>
     <use xlink:href="#m57bb8c3453" x="160.49362" y="102.901495" style="fill: #0db14b; stroke: #0db14b"/>
     <use xlink:href="#m57bb8c3453" x="161.891616" y="101.458797" style="fill: #0db14b; stroke: #0db14b"/>
     <use xlink:href="#m57bb8c3453" x="163.289611" y="102.094416" style="fill: #0db14b; stroke: #0db14b"/>
     <use xlink:href="#m57bb8c3453" x="164.687607" y="98.561069" style="fill: #0db14b; stroke: #0db14b"/>
     <use xlink:href="#m57bb8c3453" x="166.085603" y="100.912893" style="fill: #0db14b; stroke: #0db14b"/>
     <use xlink:href="#m57bb8c3453" x="167.483598" y="102.1933" style="fill: #0db14b; stroke: #0db14b"/>
     <use xlink:href="#m57bb8c3453" x="168.881594" y="101.971909" style="fill: #0db14b; stroke: #0db14b"/>
     <use xlink:href="#m57bb8c3453" x="170.27959" y="100.47773" style="fill: #0db14b; stroke: #0db14b"/>
     <use xlink:href="#m57bb8c3453" x="171.677585" y="100.022799" style="fill: #0db14b; stroke: #0db14b"/>
     <use xlink:href="#m57bb8c3453" x="173.075581" y="100.024408" style="fill: #0db14b; stroke: #0db14b"/>
     <use xlink:href="#m57bb8c3453" x="174.473577" y="100.09674" style="fill: #0db14b; stroke: #0db14b"/>
     <use xlink:href="#m57bb8c3453" x="175.871573" y="93.454631" style="fill: #0db14b; stroke: #0db14b"/>
     <use xlink:href="#m57bb8c3453" x="177.269568" y="96.000855" style="fill: #0db14b; stroke: #0db14b"/>
     <use xlink:href="#m57bb8c3453" x="178.667564" y="89.304537" style="fill: #0db14b; stroke: #0db14b"/>
     <use xlink:href="#m57bb8c3453" x="180.06556" y="92.405111" style="fill: #0db14b; stroke: #0db14b"/>
     <use xlink:href="#m57bb8c3453" x="181.463555" y="90.920348" style="fill: #0db14b; stroke: #0db14b"/>
     <use xlink:href="#m57bb8c3453" x="182.861551" y="90.592952" style="fill: #0db14b; stroke: #0db14b"/>
     <use xlink:href="#m57bb8c3453" x="184.259547" y="89.941797" style="fill: #0db14b; stroke: #0db14b"/>
     <use xlink:href="#m57bb8c3453" x="185.657543" y="79.731295" style="fill: #0db14b; stroke: #0db14b"/>
     <use xlink:href="#m57bb8c3453" x="187.055538" y="80.613769" style="fill: #0db14b; stroke: #0db14b"/>
     <use xlink:href="#m57bb8c3453" x="188.453534" y="79.445999" style="fill: #0db14b; stroke: #0db14b"/>
     <use xlink:href="#m57bb8c3453" x="189.85153" y="83.312827" style="fill: #0db14b; stroke: #0db14b"/>
     <use xlink:href="#m57bb8c3453" x="191.249525" y="79.58796" style="fill: #0db14b; stroke: #0db14b"/>
     <use xlink:href="#m57bb8c3453" x="192.647521" y="70.231434" style="fill: #0db14b; stroke: #0db14b"/>
     <use xlink:href="#m57bb8c3453" x="194.045517" y="62.469623" style="fill: #0db14b; stroke: #0db14b"/>
     <use xlink:href="#m57bb8c3453" x="195.443512" y="61.303281" style="fill: #0db14b; stroke: #0db14b"/>
     <use xlink:href="#m57bb8c3453" x="196.841508" y="56.735579" style="fill: #0db14b; stroke: #0db14b"/>
     <use xlink:href="#m57bb8c3453" x="198.239504" y="57.244348" style="fill: #0db14b; stroke: #0db14b"/>
     <use xlink:href="#m57bb8c3453" x="199.6375" y="70.089794" style="fill: #0db14b; stroke: #0db14b"/>
     <use xlink:href="#m57bb8c3453" x="201.035495" y="63.899148" style="fill: #0db14b; stroke: #0db14b"/>
     <use xlink:href="#m57bb8c3453" x="202.433491" y="62.90166" style="fill: #0db14b; stroke: #0db14b"/>
     <use xlink:href="#m57bb8c3453" x="203.831487" y="65.994178" style="fill: #0db14b; stroke: #0db14b"/>
     <use xlink:href="#m57bb8c3453" x="205.229482" y="66.868294" style="fill: #0db14b; stroke: #0db14b"/>
     <use xlink:href="#m57bb8c3453" x="206.627478" y="64.452913" style="fill: #0db14b; stroke: #0db14b"/>
     <use xlink:href="#m57bb8c3453" x="208.025474" y="65.979668" style="fill: #0db14b; stroke: #0db14b"/>
     <use xlink:href="#m57bb8c3453" x="209.423469" y="66.821429" style="fill: #0db14b; stroke: #0db14b"/>
     <use xlink:href="#m57bb8c3453" x="210.821465" y="67.975349" style="fill: #0db14b; stroke: #0db14b"/>
     <use xlink:href="#m57bb8c3453" x="212.219461" y="69.21393" style="fill: #0db14b; stroke: #0db14b"/>
     <use xlink:href="#m57bb8c3453" x="213.617457" y="73.114648" style="fill: #0db14b; stroke: #0db14b"/>
     <use xlink:href="#m57bb8c3453" x="215.015452" y="79.664897" style="fill: #0db14b; stroke: #0db14b"/>
     <use xlink:href="#m57bb8c3453" x="216.413448" y="72.581914" style="fill: #0db14b; stroke: #0db14b"/>
     <use xlink:href="#m57bb8c3453" x="217.811444" y="71.841077" style="fill: #0db14b; stroke: #0db14b"/>
     <use xlink:href="#m57bb8c3453" x="219.209439" y="71.31502" style="fill: #0db14b; stroke: #0db14b"/>
     <use xlink:href="#m57bb8c3453" x="220.607435" y="73.452252" style="fill: #0db14b; stroke: #0db14b"/>
     <use xlink:href="#m57bb8c3453" x="222.005431" y="73.802971" style="fill: #0db14b; stroke: #0db14b"/>
     <use xlink:href="#m57bb8c3453" x="223.403427" y="80.05359" style="fill: #0db14b; stroke: #0db14b"/>
     <use xlink:href="#m57bb8c3453" x="224.801422" y="80.813105" style="fill: #0db14b; stroke: #0db14b"/>
     <use xlink:href="#m57bb8c3453" x="226.199418" y="74.464942" style="fill: #0db14b; stroke: #0db14b"/>
     <use xlink:href="#m57bb8c3453" x="227.597414" y="74.390923" style="fill: #0db14b; stroke: #0db14b"/>
     <use xlink:href="#m57bb8c3453" x="228.995409" y="75.417792" style="fill: #0db14b; stroke: #0db14b"/>
     <use xlink:href="#m57bb8c3453" x="230.393405" y="76.049403" style="fill: #0db14b; stroke: #0db14b"/>
     <use xlink:href="#m57bb8c3453" x="231.791401" y="83.278575" style="fill: #0db14b; stroke: #0db14b"/>
     <use xlink:href="#m57bb8c3453" x="233.189396" y="76.005171" style="fill: #0db14b; stroke: #0db14b"/>
     <use xlink:href="#m57bb8c3453" x="234.587392" y="85.219017" style="fill: #0db14b; stroke: #0db14b"/>
     <use xlink:href="#m57bb8c3453" x="235.985388" y="89.39892" style="fill: #0db14b; stroke: #0db14b"/>
     <use xlink:href="#m57bb8c3453" x="237.383384" y="91.07911" style="fill: #0db14b; stroke: #0db14b"/>
     <use xlink:href="#m57bb8c3453" x="238.781379" y="90.886326" style="fill: #0db14b; stroke: #0db14b"/>
     <use xlink:href="#m57bb8c3453" x="240.179375" y="97.772954" style="fill: #0db14b; stroke: #0db14b"/>
     <use xlink:href="#m57bb8c3453" x="241.577371" y="99.381965" style="fill: #0db14b; stroke: #0db14b"/>
     <use xlink:href="#m57bb8c3453" x="242.975366" y="104.563037" style="fill: #0db14b; stroke: #0db14b"/>
     <use xlink:href="#m57bb8c3453" x="244.373362" y="105.383777" style="fill: #0db14b; stroke: #0db14b"/>
     <use xlink:href="#m57bb8c3453" x="245.771358" y="109.005871" style="fill: #0db14b; stroke: #0db14b"/>
     <use xlink:href="#m57bb8c3453" x="247.169354" y="110.440135" style="fill: #0db14b; stroke: #0db14b"/>
     <use xlink:href="#m57bb8c3453" x="248.567349" y="107.361814" style="fill: #0db14b; stroke: #0db14b"/>
     <use xlink:href="#m57bb8c3453" x="249.965345" y="113.611429" style="fill: #0db14b; stroke: #0db14b"/>
     <use xlink:href="#m57bb8c3453" x="251.363341" y="114.835265" style="fill: #0db14b; stroke: #0db14b"/>
     <use xlink:href="#m57bb8c3453" x="252.761336" y="118.226429" style="fill: #0db14b; stroke: #0db14b"/>
     <use xlink:href="#m57bb8c3453" x="254.159332" y="126.50298" style="fill: #0db14b; stroke: #0db14b"/>
     <use xlink:href="#m57bb8c3453" x="255.557328" y="126.983404" style="fill: #0db14b; stroke: #0db14b"/>
     <use xlink:href="#m57bb8c3453" x="256.955323" y="127.968348" style="fill: #0db14b; stroke: #0db14b"/>
     <use xlink:href="#m57bb8c3453" x="258.353319" y="127.5946" style="fill: #0db14b; stroke: #0db14b"/>
     <use xlink:href="#m57bb8c3453" x="259.751315" y="127.44402" style="fill: #0db14b; stroke: #0db14b"/>
     <use xlink:href="#m57bb8c3453" x="261.149311" y="128.15704" style="fill: #0db14b; stroke: #0db14b"/>
     <use xlink:href="#m57bb8c3453" x="262.547306" y="127.613352" style="fill: #0db14b; stroke: #0db14b"/>
     <use xlink:href="#m57bb8c3453" x="263.945302" y="130.835178" style="fill: #0db14b; stroke: #0db14b"/>
     <use xlink:href="#m57bb8c3453" x="265.343298" y="131.820127" style="fill: #0db14b; stroke: #0db14b"/>
     <use xlink:href="#m57bb8c3453" x="266.741293" y="131.49811" style="fill: #0db14b; stroke: #0db14b"/>
     <use xlink:href="#m57bb8c3453" x="268.139289" y="130.706296" style="fill: #0db14b; stroke: #0db14b"/>
     <use xlink:href="#m57bb8c3453" x="269.537285" y="131.128916" style="fill: #0db14b; stroke: #0db14b"/>
     <use xlink:href="#m57bb8c3453" x="270.935281" y="131.535719" style="fill: #0db14b; stroke: #0db14b"/>
     <use xlink:href="#m57bb8c3453" x="272.333276" y="131.990369" style="fill: #0db14b; stroke: #0db14b"/>
     <use xlink:href="#m57bb8c3453" x="273.731272" y="130.444765" style="fill: #0db14b; stroke: #0db14b"/>
     <use xlink:href="#m57bb8c3453" x="275.129268" y="130.628406" style="fill: #0db14b; stroke: #0db14b"/>
     <use xlink:href="#m57bb8c3453" x="276.527263" y="135.974788" style="fill: #0db14b; stroke: #0db14b"/>
     <use xlink:href="#m57bb8c3453" x="277.925259" y="135.214296" style="fill: #0db14b; stroke: #0db14b"/>
     <use xlink:href="#m57bb8c3453" x="279.323255" y="131.374725" style="fill: #0db14b; stroke: #0db14b"/>
     <use xlink:href="#m57bb8c3453" x="280.72125" y="135.377398" style="fill: #0db14b; stroke: #0db14b"/>
     <use xlink:href="#m57bb8c3453" x="282.119246" y="139.297724" style="fill: #0db14b; stroke: #0db14b"/>
     <use xlink:href="#m57bb8c3453" x="283.517242" y="135.016304" style="fill: #0db14b; stroke: #0db14b"/>
     <use xlink:href="#m57bb8c3453" x="284.915238" y="134.040806" style="fill: #0db14b; stroke: #0db14b"/>
     <use xlink:href="#m57bb8c3453" x="286.313233" y="135.075585" style="fill: #0db14b; stroke: #0db14b"/>
     <use xlink:href="#m57bb8c3453" x="287.711229" y="139.687133" style="fill: #0db14b; stroke: #0db14b"/>
     <use xlink:href="#m57bb8c3453" x="289.109225" y="139.465614" style="fill: #0db14b; stroke: #0db14b"/>
     <use xlink:href="#m57bb8c3453" x="290.50722" y="139.399133" style="fill: #0db14b; stroke: #0db14b"/>
     <use xlink:href="#m57bb8c3453" x="291.905216" y="139.662627" style="fill: #0db14b; stroke: #0db14b"/>
     <use xlink:href="#m57bb8c3453" x="293.303212" y="140.101722" style="fill: #0db14b; stroke: #0db14b"/>
     <use xlink:href="#m57bb8c3453" x="294.701207" y="139.629725" style="fill: #0db14b; stroke: #0db14b"/>
     <use xlink:href="#m57bb8c3453" x="296.099203" y="139.85227" style="fill: #0db14b; stroke: #0db14b"/>
     <use xlink:href="#m57bb8c3453" x="297.497199" y="135.810054" style="fill: #0db14b; stroke: #0db14b"/>
     <use xlink:href="#m57bb8c3453" x="298.895195" y="140.058927" style="fill: #0db14b; stroke: #0db14b"/>
     <use xlink:href="#m57bb8c3453" x="300.29319" y="139.853327" style="fill: #0db14b; stroke: #0db14b"/>
     <use xlink:href="#m57bb8c3453" x="301.691186" y="139.935659" style="fill: #0db14b; stroke: #0db14b"/>
     <use xlink:href="#m57bb8c3453" x="303.089182" y="141.894155" style="fill: #0db14b; stroke: #0db14b"/>
     <use xlink:href="#m57bb8c3453" x="304.487177" y="140.064275" style="fill: #0db14b; stroke: #0db14b"/>
     <use xlink:href="#m57bb8c3453" x="305.885173" y="141.444674" style="fill: #0db14b; stroke: #0db14b"/>
     <use xlink:href="#m57bb8c3453" x="307.283169" y="141.970911" style="fill: #0db14b; stroke: #0db14b"/>
     <use xlink:href="#m57bb8c3453" x="308.681165" y="141.807163" style="fill: #0db14b; stroke: #0db14b"/>
     <use xlink:href="#m57bb8c3453" x="310.07916" y="142.002047" style="fill: #0db14b; stroke: #0db14b"/>
     <use xlink:href="#m57bb8c3453" x="311.477156" y="141.809962" style="fill: #0db14b; stroke: #0db14b"/>
     <use xlink:href="#m57bb8c3453" x="312.875152" y="142.2095" style="fill: #0db14b; stroke: #0db14b"/>
     <use xlink:href="#m57bb8c3453" x="314.273147" y="142.644518" style="fill: #0db14b; stroke: #0db14b"/>
     <use xlink:href="#m57bb8c3453" x="315.671143" y="138.894835" style="fill: #0db14b; stroke: #0db14b"/>
     <use xlink:href="#m57bb8c3453" x="317.069139" y="138.899001" style="fill: #0db14b; stroke: #0db14b"/>
     <use xlink:href="#m57bb8c3453" x="318.467134" y="138.940461" style="fill: #0db14b; stroke: #0db14b"/>
     <use xlink:href="#m57bb8c3453" x="319.86513" y="142.677326" style="fill: #0db14b; stroke: #0db14b"/>
     <use xlink:href="#m57bb8c3453" x="321.263126" y="142.955648" style="fill: #0db14b; stroke: #0db14b"/>
     <use xlink:href="#m57bb8c3453" x="322.661122" y="140.346223" style="fill: #0db14b; stroke: #0db14b"/>
     <use xlink:href="#m57bb8c3453" x="324.059117" y="140.61511" style="fill: #0db14b; stroke: #0db14b"/>
     <use xlink:href="#m57bb8c3453" x="325.457113" y="140.44997" style="fill: #0db14b; stroke: #0db14b"/>
     <use xlink:href="#m57bb8c3453" x="326.855109" y="140.643615" style="fill: #0db14b; stroke: #0db14b"/>
     <use xlink:href="#m57bb8c3453" x="328.253104" y="140.630473" style="fill: #0db14b; stroke: #0db14b"/>
     <use xlink:href="#m57bb8c3453" x="329.6511" y="140.967079" style="fill: #0db14b; stroke: #0db14b"/>
     <use xlink:href="#m57bb8c3453" x="331.049096" y="142.946093" style="fill: #0db14b; stroke: #0db14b"/>
     <use xlink:href="#m57bb8c3453" x="332.447092" y="143.152623" style="fill: #0db14b; stroke: #0db14b"/>
     <use xlink:href="#m57bb8c3453" x="333.845087" y="140.617676" style="fill: #0db14b; stroke: #0db14b"/>
     <use xlink:href="#m57bb8c3453" x="335.243083" y="140.858954" style="fill: #0db14b; stroke: #0db14b"/>
     <use xlink:href="#m57bb8c3453" x="336.641079" y="141.26651" style="fill: #0db14b; stroke: #0db14b"/>
     <use xlink:href="#m57bb8c3453" x="338.039074" y="143.823752" style="fill: #0db14b; stroke: #0db14b"/>
     <use xlink:href="#m57bb8c3453" x="339.43707" y="143.509719" style="fill: #0db14b; stroke: #0db14b"/>
     <use xlink:href="#m57bb8c3453" x="340.835066" y="143.154783" style="fill: #0db14b; stroke: #0db14b"/>
     <use xlink:href="#m57bb8c3453" x="342.233061" y="143.563689" style="fill: #0db14b; stroke: #0db14b"/>
     <use xlink:href="#m57bb8c3453" x="343.631057" y="142.798147" style="fill: #0db14b; stroke: #0db14b"/>
     <use xlink:href="#m57bb8c3453" x="345.029053" y="142.643488" style="fill: #0db14b; stroke: #0db14b"/>
     <use xlink:href="#m57bb8c3453" x="346.427049" y="142.57226" style="fill: #0db14b; stroke: #0db14b"/>
     <use xlink:href="#m57bb8c3453" x="347.825044" y="142.168218" style="fill: #0db14b; stroke: #0db14b"/>
     <use xlink:href="#m57bb8c3453" x="349.22304" y="141.945373" style="fill: #0db14b; stroke: #0db14b"/>
     <use xlink:href="#m57bb8c3453" x="350.621036" y="142.516906" style="fill: #0db14b; stroke: #0db14b"/>
     <use xlink:href="#m57bb8c3453" x="352.019031" y="140.614245" style="fill: #0db14b; stroke: #0db14b"/>
     <use xlink:href="#m57bb8c3453" x="353.417027" y="136.71376" style="fill: #0db14b; stroke: #0db14b"/>
     <use xlink:href="#m57bb8c3453" x="354.815023" y="136.045476" style="fill: #0db14b; stroke: #0db14b"/>
     <use xlink:href="#m57bb8c3453" x="356.213019" y="136.151136" style="fill: #0db14b; stroke: #0db14b"/>
     <use xlink:href="#m57bb8c3453" x="357.611014" y="135.588654" style="fill: #0db14b; stroke: #0db14b"/>
     <use xlink:href="#m57bb8c3453" x="359.00901" y="135.83355" style="fill: #0db14b; stroke: #0db14b"/>
     <use xlink:href="#m57bb8c3453" x="360.407006" y="133.186128" style="fill: #0db14b; stroke: #0db14b"/>
     <use xlink:href="#m57bb8c3453" x="361.805001" y="127.520903" style="fill: #0db14b; stroke: #0db14b"/>
     <use xlink:href="#m57bb8c3453" x="363.202997" y="121.262693" style="fill: #0db14b; stroke: #0db14b"/>
     <use xlink:href="#m57bb8c3453" x="364.600993" y="120.956195" style="fill: #0db14b; stroke: #0db14b"/>
     <use xlink:href="#m57bb8c3453" x="365.998988" y="120.06076" style="fill: #0db14b; stroke: #0db14b"/>
     <use xlink:href="#m57bb8c3453" x="367.396984" y="116.843988" style="fill: #0db14b; stroke: #0db14b"/>
     <use xlink:href="#m57bb8c3453" x="368.79498" y="115.468712" style="fill: #0db14b; stroke: #0db14b"/>
     <use xlink:href="#m57bb8c3453" x="370.192976" y="113.791531" style="fill: #0db14b; stroke: #0db14b"/>
     <use xlink:href="#m57bb8c3453" x="371.590971" y="111.747629" style="fill: #0db14b; stroke: #0db14b"/>
     <use xlink:href="#m57bb8c3453" x="372.988967" y="104.402485" style="fill: #0db14b; stroke: #0db14b"/>
     <use xlink:href="#m57bb8c3453" x="374.386963" y="101.538914" style="fill: #0db14b; stroke: #0db14b"/>
     <use xlink:href="#m57bb8c3453" x="375.784958" y="101.848217" style="fill: #0db14b; stroke: #0db14b"/>
     <use xlink:href="#m57bb8c3453" x="377.182954" y="97.828131" style="fill: #0db14b; stroke: #0db14b"/>
     <use xlink:href="#m57bb8c3453" x="378.58095" y="96.386739" style="fill: #0db14b; stroke: #0db14b"/>
     <use xlink:href="#m57bb8c3453" x="379.978946" y="94.171678" style="fill: #0db14b; stroke: #0db14b"/>
     <use xlink:href="#m57bb8c3453" x="381.376941" y="84.413635" style="fill: #0db14b; stroke: #0db14b"/>
     <use xlink:href="#m57bb8c3453" x="382.774937" y="75.994574" style="fill: #0db14b; stroke: #0db14b"/>
     <use xlink:href="#m57bb8c3453" x="384.172933" y="61.810167" style="fill: #0db14b; stroke: #0db14b"/>
     <use xlink:href="#m57bb8c3453" x="385.570928" y="65.094009" style="fill: #0db14b; stroke: #0db14b"/>
     <use xlink:href="#m57bb8c3453" x="386.968924" y="53.992085" style="fill: #0db14b; stroke: #0db14b"/>
     <use xlink:href="#m57bb8c3453" x="388.36692" y="49.745389" style="fill: #0db14b; stroke: #0db14b"/>
     <use xlink:href="#m57bb8c3453" x="389.764915" y="48.873735" style="fill: #0db14b; stroke: #0db14b"/>
     <use xlink:href="#m57bb8c3453" x="391.162911" y="47.089579" style="fill: #0db14b; stroke: #0db14b"/>
     <use xlink:href="#m57bb8c3453" x="392.560907" y="45.196407" style="fill: #0db14b; stroke: #0db14b"/>
     <use xlink:href="#m57bb8c3453" x="393.958903" y="36.92562" style="fill: #0db14b; stroke: #0db14b"/>
     <use xlink:href="#m57bb8c3453" x="395.356898" y="42.800872" style="fill: #0db14b; stroke: #0db14b"/>
     <use xlink:href="#m57bb8c3453" x="396.754894" y="34.467184" style="fill: #0db14b; stroke: #0db14b"/>
     <use xlink:href="#m57bb8c3453" x="398.15289" y="33.976077" style="fill: #0db14b; stroke: #0db14b"/>
     <use xlink:href="#m57bb8c3453" x="399.550885" y="27.44378" style="fill: #0db14b; stroke: #0db14b"/>
     <use xlink:href="#m57bb8c3453" x="400.948881" y="26.626043" style="fill: #0db14b; stroke: #0db14b"/>
     <use xlink:href="#m57bb8c3453" x="402.346877" y="25.048001" style="fill: #0db14b; stroke: #0db14b"/>
     <use xlink:href="#m57bb8c3453" x="403.744872" y="26.665462" style="fill: #0db14b; stroke: #0db14b"/>
     <use xlink:href="#m57bb8c3453" x="405.142868" y="18.484131" style="fill: #0db14b; stroke: #0db14b"/>
     <use xlink:href="#m57bb8c3453" x="406.540864" y="14.703945" style="fill: #0db14b; stroke: #0db14b"/>
     <use xlink:href="#m57bb8c3453" x="407.93886" y="16.681442" style="fill: #0db14b; stroke: #0db14b"/>
     <use xlink:href="#m57bb8c3453" x="409.336855" y="18.55549" style="fill: #0db14b; stroke: #0db14b"/>
     <use xlink:href="#m57bb8c3453" x="410.734851" y="17.196508" style="fill: #0db14b; stroke: #0db14b"/>
     <use xlink:href="#m57bb8c3453" x="412.132847" y="15.623698" style="fill: #0db14b; stroke: #0db14b"/>
     <use xlink:href="#m57bb8c3453" x="413.530842" y="19.310437" style="fill: #0db14b; stroke: #0db14b"/>
     <use xlink:href="#m57bb8c3453" x="414.928838" y="46.460475" style="fill: #0db14b; stroke: #0db14b"/>
     <use xlink:href="#m57bb8c3453" x="416.326834" y="33.355042" style="fill: #0db14b; stroke: #0db14b"/>
     <use xlink:href="#m57bb8c3453" x="417.72483" y="32.598216" style="fill: #0db14b; stroke: #0db14b"/>
    </g>
   </g>
   <g id="line2d_24">
    <path d="M 62.63392 158.76 
L 64.031916 158.004339 
L 65.429912 157.449752 
L 66.827908 158.216029 
L 69.623899 156.811816 
L 72.41989 155.523453 
L 75.215882 155.398065 
L 78.011873 154.816944 
L 79.409869 155.487415 
L 80.807865 153.288994 
L 82.20586 152.246666 
L 83.603856 150.973716 
L 85.001852 149.913732 
L 86.399847 146.617587 
L 89.195839 144.891921 
L 90.593835 144.855554 
L 91.99183 141.772696 
L 93.389826 141.257073 
L 94.787822 143.607003 
L 96.185817 142.477276 
L 97.583813 140.596557 
L 98.981809 136.343711 
L 101.7778 139.168172 
L 103.175796 137.617785 
L 104.573792 137.601133 
L 107.369783 134.860586 
L 110.165774 128.224219 
L 111.56377 132.111863 
L 112.961766 128.843148 
L 114.359762 120.182665 
L 115.757757 121.06245 
L 117.155753 120.902731 
L 118.553749 122.518398 
L 119.951744 124.305591 
L 121.34974 124.828142 
L 122.747736 124.053717 
L 124.145731 124.198287 
L 125.543727 126.307004 
L 126.941723 126.43984 
L 128.339719 128.004667 
L 129.737714 128.148639 
L 131.13571 127.758533 
L 132.533706 126.576983 
L 133.931701 125.824166 
L 135.329697 123.943229 
L 136.727693 123.381361 
L 138.125689 121.775053 
L 139.523684 117.387096 
L 140.92168 116.699102 
L 142.319676 117.194049 
L 143.717671 114.899177 
L 145.115667 114.10765 
L 146.513663 115.50535 
L 147.911658 113.831671 
L 149.309654 105.143005 
L 150.70765 113.87603 
L 152.105646 113.449463 
L 153.503641 112.394938 
L 154.901637 112.149895 
L 156.299633 108.798166 
L 157.697628 107.274815 
L 159.095624 107.117358 
L 160.49362 107.98127 
L 161.891616 105.847822 
L 163.289611 106.120451 
L 164.687607 101.999216 
L 166.085603 103.245729 
L 167.483598 103.555719 
L 168.881594 105.879821 
L 170.27959 100.834864 
L 173.075581 99.636826 
L 174.473577 97.93803 
L 175.871573 97.18487 
L 177.269568 97.683321 
L 178.667564 92.683965 
L 180.06556 96.505775 
L 181.463555 92.163704 
L 182.861551 91.60478 
L 184.259547 92.096919 
L 185.657543 88.117121 
L 187.055538 87.494724 
L 188.453534 82.9477 
L 189.85153 88.572488 
L 192.647521 73.916339 
L 194.045517 69.943153 
L 195.443512 67.67229 
L 196.841508 64.571139 
L 198.239504 63.079639 
L 199.6375 70.701 
L 201.035495 64.108492 
L 202.433491 61.780939 
L 203.831487 64.288469 
L 205.229482 67.663692 
L 206.627478 66.4574 
L 208.025474 69.46186 
L 209.423469 69.584097 
L 210.821465 69.14642 
L 212.219461 72.916159 
L 213.617457 78.09892 
L 215.015452 79.205726 
L 216.413448 76.939017 
L 217.811444 76.520885 
L 219.209439 73.581663 
L 220.607435 76.787749 
L 222.005431 77.948518 
L 223.403427 77.337459 
L 224.801422 76.465696 
L 226.199418 77.690731 
L 227.597414 79.296683 
L 228.995409 80.587711 
L 230.393405 83.286613 
L 233.189396 81.685835 
L 234.587392 83.413693 
L 235.985388 88.831337 
L 237.383384 93.467743 
L 238.781379 94.089596 
L 240.179375 96.901601 
L 241.577371 98.219711 
L 244.373362 103.534228 
L 245.771358 106.619545 
L 247.169354 108.933194 
L 248.567349 108.507733 
L 251.363341 116.374874 
L 252.761336 118.312884 
L 254.159332 123.345155 
L 255.557328 124.564232 
L 256.955323 123.935329 
L 258.353319 123.744627 
L 259.751315 126.852128 
L 261.149311 128.66888 
L 262.547306 129.36103 
L 263.945302 133.707449 
L 265.343298 134.714679 
L 266.741293 135.328275 
L 268.139289 135.666921 
L 269.537285 135.471652 
L 270.935281 136.628758 
L 272.333276 136.63247 
L 273.731272 135.258413 
L 275.129268 136.448335 
L 276.527263 139.523297 
L 277.925259 140.248617 
L 279.323255 139.121383 
L 280.72125 140.298609 
L 282.119246 141.024164 
L 283.517242 138.923635 
L 284.915238 139.540443 
L 286.313233 140.455468 
L 287.711229 140.83092 
L 289.109225 141.743917 
L 291.905216 142.523903 
L 293.303212 142.492623 
L 294.701207 142.306882 
L 296.099203 142.555578 
L 297.497199 142.100717 
L 298.895195 143.68426 
L 301.691186 142.999581 
L 303.089182 143.51567 
L 304.487177 143.10757 
L 305.885173 143.973333 
L 307.283169 143.423718 
L 310.07916 143.830045 
L 311.477156 144.420351 
L 312.875152 144.193116 
L 314.273147 144.775248 
L 315.671143 144.462636 
L 317.069139 144.008284 
L 318.467134 144.260732 
L 321.263126 146.092134 
L 324.059117 146.621166 
L 326.855109 145.721169 
L 328.253104 147.012983 
L 329.6511 146.792429 
L 331.049096 147.620869 
L 332.447092 148.226368 
L 333.845087 147.434059 
L 335.243083 147.94264 
L 336.641079 147.668622 
L 338.039074 147.811787 
L 339.43707 146.843115 
L 340.835066 146.41358 
L 342.233061 145.849565 
L 343.631057 146.027957 
L 345.029053 144.644574 
L 346.427049 144.950587 
L 347.825044 143.286901 
L 349.22304 142.908095 
L 350.621036 141.932451 
L 352.019031 141.736081 
L 353.417027 141.17284 
L 354.815023 138.801444 
L 356.213019 138.622308 
L 357.611014 137.660132 
L 359.00901 137.39841 
L 360.407006 134.513057 
L 361.805001 132.577411 
L 363.202997 129.341382 
L 364.600993 128.21071 
L 365.998988 126.714582 
L 367.396984 123.927518 
L 368.79498 120.212118 
L 370.192976 114.89519 
L 371.590971 111.590718 
L 372.988967 105.522472 
L 374.386963 103.72183 
L 375.784958 103.298289 
L 377.182954 95.673113 
L 378.58095 90.632615 
L 379.978946 86.71467 
L 381.376941 80.655037 
L 384.172933 70.407908 
L 385.570928 72.516018 
L 386.968924 64.51938 
L 388.36692 58.630849 
L 389.764915 53.774446 
L 391.162911 50.14868 
L 392.560907 49.648734 
L 393.958903 41.698555 
L 395.356898 44.10994 
L 396.754894 36.404997 
L 398.15289 35.070745 
L 399.550885 29.730473 
L 400.948881 30.109069 
L 402.346877 28.615393 
L 403.744872 28.508949 
L 405.142868 28.753892 
L 406.540864 23.081043 
L 407.93886 25.31299 
L 409.336855 24.757525 
L 410.734851 23.881354 
L 412.132847 20.887248 
L 413.530842 25.811069 
L 414.928838 48.120564 
L 416.326834 33.784324 
L 417.72483 32.668814 
L 417.72483 32.668814 
" clip-path="url(#p015a9c668c)" style="fill: none; stroke-dasharray: 5.55,2.4; stroke-dashoffset: 0; stroke: #000000; stroke-width: 1.5"/>
   </g>
   <g id="patch_3">
    <path d="M 44.879375 166.32 
L 44.879375 -0 
" style="fill: none; stroke: #ffffff; stroke-linejoin: miter; stroke-linecap: square"/>
   </g>
   <g id="patch_4">
    <path d="M 435.479375 166.32 
L 435.479375 -0 
" style="fill: none; stroke: #ffffff; stroke-linejoin: miter; stroke-linecap: square"/>
   </g>
   <g id="patch_5">
    <path d="M 44.879375 166.32 
L 435.479375 166.32 
" style="fill: none; stroke: #ffffff; stroke-linejoin: miter; stroke-linecap: square"/>
   </g>
   <g id="patch_6">
    <path d="M 44.879375 0 
L 435.479375 0 
" style="fill: none; stroke: #ffffff; stroke-linejoin: miter; stroke-linecap: square"/>
   </g>
   <g id="legend_1">
    <g id="patch_7">
     <path d="M 51.879375 60.378125 
L 203.92625 60.378125 
Q 205.92625 60.378125 205.92625 58.378125 
L 205.92625 7 
Q 205.92625 5 203.92625 5 
L 51.879375 5 
Q 49.879375 5 49.879375 7 
L 49.879375 58.378125 
Q 49.879375 60.378125 51.879375 60.378125 
z
" style="fill: #e5e5e5; opacity: 0.8; stroke: #cccccc; stroke-width: 0.5; stroke-linejoin: miter"/>
    </g>
    <g id="line2d_25">
     <path d="M 53.879375 15.5 
L 63.879375 15.5 
L 73.879375 15.5 
" style="fill: none; stroke: #0db14b; stroke-width: 3; stroke-linecap: square"/>
     <g>
      <use xlink:href="#m57bb8c3453" x="63.879375" y="15.5" style="fill: #0db14b; stroke: #0db14b"/>
     </g>
    </g>
    <g id="text_14">
     <!-- Private Value $\tilde{R}_{\chi_2,\chi_1}^t$ -->
     <g transform="translate(81.879375 19) scale(0.1 -0.1)">
      <defs>
       <path id="DejaVuSans-50" d="M 1259 4147 
L 1259 2394 
L 2053 2394 
Q 2494 2394 2734 2622 
Q 2975 2850 2975 3272 
Q 2975 3691 2734 3919 
Q 2494 4147 2053 4147 
L 1259 4147 
z
M 628 4666 
L 2053 4666 
Q 2838 4666 3239 4311 
Q 3641 3956 3641 3272 
Q 3641 2581 3239 2228 
Q 2838 1875 2053 1875 
L 1259 1875 
L 1259 0 
L 628 0 
L 628 4666 
z
" transform="scale(0.015625)"/>
       <path id="DejaVuSans-72" d="M 2631 2963 
Q 2534 3019 2420 3045 
Q 2306 3072 2169 3072 
Q 1681 3072 1420 2755 
Q 1159 2438 1159 1844 
L 1159 0 
L 581 0 
L 581 3500 
L 1159 3500 
L 1159 2956 
Q 1341 3275 1631 3429 
Q 1922 3584 2338 3584 
Q 2397 3584 2469 3576 
Q 2541 3569 2628 3553 
L 2631 2963 
z
" transform="scale(0.015625)"/>
       <path id="DejaVuSans-69" d="M 603 3500 
L 1178 3500 
L 1178 0 
L 603 0 
L 603 3500 
z
M 603 4863 
L 1178 4863 
L 1178 4134 
L 603 4134 
L 603 4863 
z
" transform="scale(0.015625)"/>
       <path id="DejaVuSans-76" d="M 191 3500 
L 800 3500 
L 1894 563 
L 2988 3500 
L 3597 3500 
L 2284 0 
L 1503 0 
L 191 3500 
z
" transform="scale(0.015625)"/>
       <path id="DejaVuSans-20" transform="scale(0.015625)"/>
       <path id="DejaVuSans-303" d="M -1621 4281 
L -1799 4453 
Q -1867 4516 -1919 4545 
Q -1971 4575 -2011 4575 
Q -2130 4575 -2186 4461 
Q -2242 4347 -2249 4091 
L -2639 4091 
Q -2633 4513 -2473 4742 
Q -2314 4972 -2030 4972 
Q -1911 4972 -1811 4928 
Q -1711 4884 -1596 4781 
L -1417 4609 
Q -1349 4547 -1297 4517 
Q -1246 4488 -1205 4488 
Q -1086 4488 -1030 4602 
Q -974 4716 -967 4972 
L -577 4972 
Q -583 4550 -742 4320 
Q -902 4091 -1186 4091 
Q -1305 4091 -1405 4134 
Q -1505 4178 -1621 4281 
z
" transform="scale(0.015625)"/>
       <path id="DejaVuSans-Oblique-52" d="M 1613 4147 
L 1294 2491 
L 2106 2491 
Q 2584 2491 2879 2755 
Q 3175 3019 3175 3444 
Q 3175 3784 2976 3965 
Q 2778 4147 2406 4147 
L 1613 4147 
z
M 2772 2241 
Q 2972 2194 3105 2009 
Q 3238 1825 3413 1275 
L 3809 0 
L 3144 0 
L 2778 1197 
Q 2638 1659 2453 1815 
Q 2269 1972 1888 1972 
L 1191 1972 
L 806 0 
L 172 0 
L 1081 4666 
L 2503 4666 
Q 3150 4666 3495 4373 
Q 3841 4081 3841 3531 
Q 3841 3044 3547 2687 
Q 3253 2331 2772 2241 
z
" transform="scale(0.015625)"/>
       <path id="DejaVuSans-Oblique-74" d="M 2706 3500 
L 2619 3053 
L 1472 3053 
L 1100 1153 
Q 1081 1047 1072 975 
Q 1063 903 1063 863 
Q 1063 663 1183 572 
Q 1303 481 1569 481 
L 2150 481 
L 2053 0 
L 1503 0 
Q 991 0 739 200 
Q 488 400 488 806 
Q 488 878 497 964 
Q 506 1050 525 1153 
L 897 3053 
L 409 3053 
L 500 3500 
L 978 3500 
L 1172 4494 
L 1747 4494 
L 1556 3500 
L 2706 3500 
z
" transform="scale(0.015625)"/>
       <path id="DejaVuSans-Oblique-3c7" d="M 1922 -781 
L 1691 416 
L 394 -1334 
L -284 -1334 
L 1553 1141 
L 1269 2613 
Q 1194 3006 713 3006 
L 559 3006 
L 653 3500 
L 872 3494 
Q 1675 3472 1775 2950 
L 2006 1753 
L 3303 3503 
L 3981 3503 
L 2144 1028 
L 2428 -444 
Q 2503 -838 2984 -838 
L 3138 -838 
L 3044 -1331 
L 2825 -1325 
Q 2022 -1303 1922 -781 
z
" transform="scale(0.015625)"/>
       <path id="DejaVuSans-2c" d="M 750 794 
L 1409 794 
L 1409 256 
L 897 -744 
L 494 -744 
L 750 256 
L 750 794 
z
" transform="scale(0.015625)"/>
      </defs>
      <use xlink:href="#DejaVuSans-50" transform="translate(0 0.828125)"/>
      <use xlink:href="#DejaVuSans-72" transform="translate(60.302734 0.828125)"/>
      <use xlink:href="#DejaVuSans-69" transform="translate(101.416016 0.828125)"/>
      <use xlink:href="#DejaVuSans-76" transform="translate(129.199219 0.828125)"/>
      <use xlink:href="#DejaVuSans-61" transform="translate(188.378906 0.828125)"/>
      <use xlink:href="#DejaVuSans-74" transform="translate(249.658203 0.828125)"/>
      <use xlink:href="#DejaVuSans-65" transform="translate(288.867188 0.828125)"/>
      <use xlink:href="#DejaVuSans-20" transform="translate(350.390625 0.828125)"/>
      <use xlink:href="#DejaVuSans-56" transform="translate(382.177734 0.828125)"/>
      <use xlink:href="#DejaVuSans-61" transform="translate(450.585938 0.828125)"/>
      <use xlink:href="#DejaVuSans-6c" transform="translate(511.865234 0.828125)"/>
      <use xlink:href="#DejaVuSans-75" transform="translate(539.648438 0.828125)"/>
      <use xlink:href="#DejaVuSans-65" transform="translate(603.027344 0.828125)"/>
      <use xlink:href="#DejaVuSans-20" transform="translate(664.550781 0.828125)"/>
      <use xlink:href="#DejaVuSans-303" transform="translate(764.942871 22.3125)"/>
      <use xlink:href="#DejaVuSans-Oblique-52" transform="translate(696.337891 0.828125)"/>
      <use xlink:href="#DejaVuSans-Oblique-74" transform="translate(766.777344 39.109375) scale(0.7)"/>
      <use xlink:href="#DejaVuSans-Oblique-3c7" transform="translate(766.777344 -26.515625) scale(0.7)"/>
      <use xlink:href="#DejaVuSans-32" transform="translate(808.203125 -38) scale(0.49)"/>
      <use xlink:href="#DejaVuSans-2c" transform="translate(841.29248 -26.515625) scale(0.7)"/>
      <use xlink:href="#DejaVuSans-Oblique-3c7" transform="translate(877.181152 -26.515625) scale(0.7)"/>
      <use xlink:href="#DejaVuSans-31" transform="translate(918.606934 -38) scale(0.49)"/>
     </g>
    </g>
    <g id="line2d_26">
     <path d="M 53.879375 34 
L 63.879375 34 
L 73.879375 34 
" style="fill: none; stroke-dasharray: 5.55,2.4; stroke-dashoffset: 0; stroke: #000000; stroke-width: 1.5"/>
    </g>
    <g id="text_15">
     <!-- Original Value $\bar{R}_{\chi_2,\chi_1}^t$ -->
     <g transform="translate(81.879375 37.5) scale(0.1 -0.1)">
      <defs>
       <path id="DejaVuSans-4f" d="M 2522 4238 
Q 1834 4238 1429 3725 
Q 1025 3213 1025 2328 
Q 1025 1447 1429 934 
Q 1834 422 2522 422 
Q 3209 422 3611 934 
Q 4013 1447 4013 2328 
Q 4013 3213 3611 3725 
Q 3209 4238 2522 4238 
z
M 2522 4750 
Q 3503 4750 4090 4092 
Q 4678 3434 4678 2328 
Q 4678 1225 4090 567 
Q 3503 -91 2522 -91 
Q 1538 -91 948 565 
Q 359 1222 359 2328 
Q 359 3434 948 4092 
Q 1538 4750 2522 4750 
z
" transform="scale(0.015625)"/>
       <path id="DejaVuSans-67" d="M 2906 1791 
Q 2906 2416 2648 2759 
Q 2391 3103 1925 3103 
Q 1463 3103 1205 2759 
Q 947 2416 947 1791 
Q 947 1169 1205 825 
Q 1463 481 1925 481 
Q 2391 481 2648 825 
Q 2906 1169 2906 1791 
z
M 3481 434 
Q 3481 -459 3084 -895 
Q 2688 -1331 1869 -1331 
Q 1566 -1331 1297 -1286 
Q 1028 -1241 775 -1147 
L 775 -588 
Q 1028 -725 1275 -790 
Q 1522 -856 1778 -856 
Q 2344 -856 2625 -561 
Q 2906 -266 2906 331 
L 2906 616 
Q 2728 306 2450 153 
Q 2172 0 1784 0 
Q 1141 0 747 490 
Q 353 981 353 1791 
Q 353 2603 747 3093 
Q 1141 3584 1784 3584 
Q 2172 3584 2450 3431 
Q 2728 3278 2906 2969 
L 2906 3500 
L 3481 3500 
L 3481 434 
z
" transform="scale(0.015625)"/>
       <path id="DejaVuSans-6e" d="M 3513 2113 
L 3513 0 
L 2938 0 
L 2938 2094 
Q 2938 2591 2744 2837 
Q 2550 3084 2163 3084 
Q 1697 3084 1428 2787 
Q 1159 2491 1159 1978 
L 1159 0 
L 581 0 
L 581 3500 
L 1159 3500 
L 1159 2956 
Q 1366 3272 1645 3428 
Q 1925 3584 2291 3584 
Q 2894 3584 3203 3211 
Q 3513 2838 3513 2113 
z
" transform="scale(0.015625)"/>
       <path id="DejaVuSans-304" d="M -2518 4769 
L -650 4769 
L -650 4306 
L -2518 4306 
L -2518 4769 
z
" transform="scale(0.015625)"/>
      </defs>
      <use xlink:href="#DejaVuSans-4f" transform="translate(0 0.359375)"/>
      <use xlink:href="#DejaVuSans-72" transform="translate(78.710938 0.359375)"/>
      <use xlink:href="#DejaVuSans-69" transform="translate(119.824219 0.359375)"/>
      <use xlink:href="#DejaVuSans-67" transform="translate(147.607422 0.359375)"/>
      <use xlink:href="#DejaVuSans-69" transform="translate(211.083984 0.359375)"/>
      <use xlink:href="#DejaVuSans-6e" transform="translate(238.867188 0.359375)"/>
      <use xlink:href="#DejaVuSans-61" transform="translate(302.246094 0.359375)"/>
      <use xlink:href="#DejaVuSans-6c" transform="translate(363.525391 0.359375)"/>
      <use xlink:href="#DejaVuSans-20" transform="translate(391.308594 0.359375)"/>
      <use xlink:href="#DejaVuSans-56" transform="translate(423.095703 0.359375)"/>
      <use xlink:href="#DejaVuSans-61" transform="translate(491.503906 0.359375)"/>
      <use xlink:href="#DejaVuSans-6c" transform="translate(552.783203 0.359375)"/>
      <use xlink:href="#DejaVuSans-75" transform="translate(580.566406 0.359375)"/>
      <use xlink:href="#DejaVuSans-65" transform="translate(643.945312 0.359375)"/>
      <use xlink:href="#DejaVuSans-20" transform="translate(705.46875 0.359375)"/>
      <use xlink:href="#DejaVuSans-304" transform="translate(804.970215 18.484375)"/>
      <use xlink:href="#DejaVuSans-Oblique-52" transform="translate(737.255859 0.359375)"/>
      <use xlink:href="#DejaVuSans-Oblique-74" transform="translate(807.695312 38.640625) scale(0.7)"/>
      <use xlink:href="#DejaVuSans-Oblique-3c7" transform="translate(807.695312 -26.984375) scale(0.7)"/>
      <use xlink:href="#DejaVuSans-32" transform="translate(849.121094 -38.46875) scale(0.49)"/>
      <use xlink:href="#DejaVuSans-2c" transform="translate(882.210449 -26.984375) scale(0.7)"/>
      <use xlink:href="#DejaVuSans-Oblique-3c7" transform="translate(918.099121 -26.984375) scale(0.7)"/>
      <use xlink:href="#DejaVuSans-31" transform="translate(959.524902 -38.46875) scale(0.49)"/>
     </g>
    </g>
    <g id="patch_8">
     <path d="M 53.879375 54.298438 
L 73.879375 54.298438 
L 73.879375 47.298438 
L 53.879375 47.298438 
z
" style="fill: #0db14b; fill-opacity: 0.5; stroke: #0db14b; stroke-opacity: 0.5; stroke-width: 0.5; stroke-linejoin: miter"/>
    </g>
    <g id="text_16">
     <!-- One Standard Deviation -->
     <g transform="translate(81.879375 54.298438) scale(0.1 -0.1)">
      <defs>
       <path id="DejaVuSans-53" d="M 3425 4513 
L 3425 3897 
Q 3066 4069 2747 4153 
Q 2428 4238 2131 4238 
Q 1616 4238 1336 4038 
Q 1056 3838 1056 3469 
Q 1056 3159 1242 3001 
Q 1428 2844 1947 2747 
L 2328 2669 
Q 3034 2534 3370 2195 
Q 3706 1856 3706 1288 
Q 3706 609 3251 259 
Q 2797 -91 1919 -91 
Q 1588 -91 1214 -16 
Q 841 59 441 206 
L 441 856 
Q 825 641 1194 531 
Q 1563 422 1919 422 
Q 2459 422 2753 634 
Q 3047 847 3047 1241 
Q 3047 1584 2836 1778 
Q 2625 1972 2144 2069 
L 1759 2144 
Q 1053 2284 737 2584 
Q 422 2884 422 3419 
Q 422 4038 858 4394 
Q 1294 4750 2059 4750 
Q 2388 4750 2728 4690 
Q 3069 4631 3425 4513 
z
" transform="scale(0.015625)"/>
       <path id="DejaVuSans-64" d="M 2906 2969 
L 2906 4863 
L 3481 4863 
L 3481 0 
L 2906 0 
L 2906 525 
Q 2725 213 2448 61 
Q 2172 -91 1784 -91 
Q 1150 -91 751 415 
Q 353 922 353 1747 
Q 353 2572 751 3078 
Q 1150 3584 1784 3584 
Q 2172 3584 2448 3432 
Q 2725 3281 2906 2969 
z
M 947 1747 
Q 947 1113 1208 752 
Q 1469 391 1925 391 
Q 2381 391 2643 752 
Q 2906 1113 2906 1747 
Q 2906 2381 2643 2742 
Q 2381 3103 1925 3103 
Q 1469 3103 1208 2742 
Q 947 2381 947 1747 
z
" transform="scale(0.015625)"/>
       <path id="DejaVuSans-6f" d="M 1959 3097 
Q 1497 3097 1228 2736 
Q 959 2375 959 1747 
Q 959 1119 1226 758 
Q 1494 397 1959 397 
Q 2419 397 2687 759 
Q 2956 1122 2956 1747 
Q 2956 2369 2687 2733 
Q 2419 3097 1959 3097 
z
M 1959 3584 
Q 2709 3584 3137 3096 
Q 3566 2609 3566 1747 
Q 3566 888 3137 398 
Q 2709 -91 1959 -91 
Q 1206 -91 779 398 
Q 353 888 353 1747 
Q 353 2609 779 3096 
Q 1206 3584 1959 3584 
z
" transform="scale(0.015625)"/>
      </defs>
      <use xlink:href="#DejaVuSans-4f"/>
      <use xlink:href="#DejaVuSans-6e" x="78.710938"/>
      <use xlink:href="#DejaVuSans-65" x="142.089844"/>
      <use xlink:href="#DejaVuSans-20" x="203.613281"/>
      <use xlink:href="#DejaVuSans-53" x="235.400391"/>
      <use xlink:href="#DejaVuSans-74" x="298.876953"/>
      <use xlink:href="#DejaVuSans-61" x="338.085938"/>
      <use xlink:href="#DejaVuSans-6e" x="399.365234"/>
      <use xlink:href="#DejaVuSans-64" x="462.744141"/>
      <use xlink:href="#DejaVuSans-61" x="526.220703"/>
      <use xlink:href="#DejaVuSans-72" x="587.5"/>
      <use xlink:href="#DejaVuSans-64" x="626.863281"/>
      <use xlink:href="#DejaVuSans-20" x="690.339844"/>
      <use xlink:href="#DejaVuSans-44" x="722.126953"/>
      <use xlink:href="#DejaVuSans-65" x="799.128906"/>
      <use xlink:href="#DejaVuSans-76" x="860.652344"/>
      <use xlink:href="#DejaVuSans-69" x="919.832031"/>
      <use xlink:href="#DejaVuSans-61" x="947.615234"/>
      <use xlink:href="#DejaVuSans-74" x="1008.894531"/>
      <use xlink:href="#DejaVuSans-69" x="1048.103516"/>
      <use xlink:href="#DejaVuSans-6f" x="1075.886719"/>
      <use xlink:href="#DejaVuSans-6e" x="1137.068359"/>
     </g>
    </g>
   </g>
  </g>
 </g>
 <defs>
  <clipPath id="p015a9c668c">
   <rect x="44.879375" y="0" width="390.6" height="166.32"/>
  </clipPath>
 </defs>
</svg>
