<?xml version="1.0" encoding="utf-8" standalone="no"?>
<!DOCTYPE svg PUBLIC "-//W3C//DTD SVG 1.1//EN"
  "http://www.w3.org/Graphics/SVG/1.1/DTD/svg11.dtd">
<svg xmlns:xlink="http://www.w3.org/1999/xlink" width="444.375067pt" height="198.611875pt" viewBox="0 0 444.375067 198.611875" xmlns="http://www.w3.org/2000/svg" version="1.1">
 <metadata>
  <rdf:RDF xmlns:dc="http://purl.org/dc/elements/1.1/" xmlns:cc="http://creativecommons.org/ns#" xmlns:rdf="http://www.w3.org/1999/02/22-rdf-syntax-ns#">
   <cc:Work>
    <dc:type rdf:resource="http://purl.org/dc/dcmitype/StillImage"/>
    <dc:date>2024-09-18T15:47:45.724363</dc:date>
    <dc:format>image/svg+xml</dc:format>
    <dc:creator>
     <cc:Agent>
      <dc:title>Matplotlib v3.7.5, https://matplotlib.org/</dc:title>
     </cc:Agent>
    </dc:creator>
   </cc:Work>
  </rdf:RDF>
 </metadata>
 <defs>
  <style type="text/css">*{stroke-linejoin: round; stroke-linecap: butt}</style>
 </defs>
 <g id="figure_1">
  <g id="patch_1">
   <path d="M 0 198.611875 
L 444.375067 198.611875 
L 444.375067 0 
L 0 0 
z
" style="fill: #ffffff"/>
  </g>
  <g id="axes_1">
   <g id="patch_2">
    <path d="M 44.879375 166.32 
L 435.479375 166.32 
L 435.479375 -0 
L 44.879375 -0 
z
" style="fill: #e5e5e5"/>
   </g>
   <g id="matplotlib.axis_1">
    <g id="xtick_1">
     <g id="line2d_1">
      <path d="M 72.41989 166.32 
L 72.41989 -0 
" clip-path="url(#p38a651fd17)" style="fill: none; stroke: #ffffff; stroke-width: 0.8; stroke-linecap: square"/>
     </g>
     <g id="line2d_2">
      <defs>
       <path id="m3f52c10caa" d="M 0 0 
L 0 3.5 
" style="stroke: #555555; stroke-width: 0.8"/>
      </defs>
      <g>
       <use xlink:href="#m3f52c10caa" x="72.41989" y="166.32" style="fill: #555555; stroke: #555555; stroke-width: 0.8"/>
      </g>
     </g>
     <g id="text_1">
      <!-- 08/16/20 -->
      <g style="fill: #555555" transform="translate(49.96364 180.918437) scale(0.1 -0.1)">
       <defs>
        <path id="DejaVuSans-30" d="M 2034 4250 
Q 1547 4250 1301 3770 
Q 1056 3291 1056 2328 
Q 1056 1369 1301 889 
Q 1547 409 2034 409 
Q 2525 409 2770 889 
Q 3016 1369 3016 2328 
Q 3016 3291 2770 3770 
Q 2525 4250 2034 4250 
z
M 2034 4750 
Q 2819 4750 3233 4129 
Q 3647 3509 3647 2328 
Q 3647 1150 3233 529 
Q 2819 -91 2034 -91 
Q 1250 -91 836 529 
Q 422 1150 422 2328 
Q 422 3509 836 4129 
Q 1250 4750 2034 4750 
z
" transform="scale(0.015625)"/>
        <path id="DejaVuSans-38" d="M 2034 2216 
Q 1584 2216 1326 1975 
Q 1069 1734 1069 1313 
Q 1069 891 1326 650 
Q 1584 409 2034 409 
Q 2484 409 2743 651 
Q 3003 894 3003 1313 
Q 3003 1734 2745 1975 
Q 2488 2216 2034 2216 
z
M 1403 2484 
Q 997 2584 770 2862 
Q 544 3141 544 3541 
Q 544 4100 942 4425 
Q 1341 4750 2034 4750 
Q 2731 4750 3128 4425 
Q 3525 4100 3525 3541 
Q 3525 3141 3298 2862 
Q 3072 2584 2669 2484 
Q 3125 2378 3379 2068 
Q 3634 1759 3634 1313 
Q 3634 634 3220 271 
Q 2806 -91 2034 -91 
Q 1263 -91 848 271 
Q 434 634 434 1313 
Q 434 1759 690 2068 
Q 947 2378 1403 2484 
z
M 1172 3481 
Q 1172 3119 1398 2916 
Q 1625 2713 2034 2713 
Q 2441 2713 2670 2916 
Q 2900 3119 2900 3481 
Q 2900 3844 2670 4047 
Q 2441 4250 2034 4250 
Q 1625 4250 1398 4047 
Q 1172 3844 1172 3481 
z
" transform="scale(0.015625)"/>
        <path id="DejaVuSans-2f" d="M 1625 4666 
L 2156 4666 
L 531 -594 
L 0 -594 
L 1625 4666 
z
" transform="scale(0.015625)"/>
        <path id="DejaVuSans-31" d="M 794 531 
L 1825 531 
L 1825 4091 
L 703 3866 
L 703 4441 
L 1819 4666 
L 2450 4666 
L 2450 531 
L 3481 531 
L 3481 0 
L 794 0 
L 794 531 
z
" transform="scale(0.015625)"/>
        <path id="DejaVuSans-36" d="M 2113 2584 
Q 1688 2584 1439 2293 
Q 1191 2003 1191 1497 
Q 1191 994 1439 701 
Q 1688 409 2113 409 
Q 2538 409 2786 701 
Q 3034 994 3034 1497 
Q 3034 2003 2786 2293 
Q 2538 2584 2113 2584 
z
M 3366 4563 
L 3366 3988 
Q 3128 4100 2886 4159 
Q 2644 4219 2406 4219 
Q 1781 4219 1451 3797 
Q 1122 3375 1075 2522 
Q 1259 2794 1537 2939 
Q 1816 3084 2150 3084 
Q 2853 3084 3261 2657 
Q 3669 2231 3669 1497 
Q 3669 778 3244 343 
Q 2819 -91 2113 -91 
Q 1303 -91 875 529 
Q 447 1150 447 2328 
Q 447 3434 972 4092 
Q 1497 4750 2381 4750 
Q 2619 4750 2861 4703 
Q 3103 4656 3366 4563 
z
" transform="scale(0.015625)"/>
        <path id="DejaVuSans-32" d="M 1228 531 
L 3431 531 
L 3431 0 
L 469 0 
L 469 531 
Q 828 903 1448 1529 
Q 2069 2156 2228 2338 
Q 2531 2678 2651 2914 
Q 2772 3150 2772 3378 
Q 2772 3750 2511 3984 
Q 2250 4219 1831 4219 
Q 1534 4219 1204 4116 
Q 875 4013 500 3803 
L 500 4441 
Q 881 4594 1212 4672 
Q 1544 4750 1819 4750 
Q 2544 4750 2975 4387 
Q 3406 4025 3406 3419 
Q 3406 3131 3298 2873 
Q 3191 2616 2906 2266 
Q 2828 2175 2409 1742 
Q 1991 1309 1228 531 
z
" transform="scale(0.015625)"/>
       </defs>
       <use xlink:href="#DejaVuSans-30"/>
       <use xlink:href="#DejaVuSans-38" x="63.623047"/>
       <use xlink:href="#DejaVuSans-2f" x="127.246094"/>
       <use xlink:href="#DejaVuSans-31" x="160.9375"/>
       <use xlink:href="#DejaVuSans-36" x="224.560547"/>
       <use xlink:href="#DejaVuSans-2f" x="288.183594"/>
       <use xlink:href="#DejaVuSans-32" x="321.875"/>
       <use xlink:href="#DejaVuSans-30" x="385.498047"/>
      </g>
     </g>
    </g>
    <g id="xtick_2">
     <g id="line2d_3">
      <path d="M 142.319676 166.32 
L 142.319676 -0 
" clip-path="url(#p38a651fd17)" style="fill: none; stroke: #ffffff; stroke-width: 0.8; stroke-linecap: square"/>
     </g>
     <g id="line2d_4">
      <g>
       <use xlink:href="#m3f52c10caa" x="142.319676" y="166.32" style="fill: #555555; stroke: #555555; stroke-width: 0.8"/>
      </g>
     </g>
     <g id="text_2">
      <!-- 10/05/20 -->
      <g style="fill: #555555" transform="translate(119.863426 180.918437) scale(0.1 -0.1)">
       <defs>
        <path id="DejaVuSans-35" d="M 691 4666 
L 3169 4666 
L 3169 4134 
L 1269 4134 
L 1269 2991 
Q 1406 3038 1543 3061 
Q 1681 3084 1819 3084 
Q 2600 3084 3056 2656 
Q 3513 2228 3513 1497 
Q 3513 744 3044 326 
Q 2575 -91 1722 -91 
Q 1428 -91 1123 -41 
Q 819 9 494 109 
L 494 744 
Q 775 591 1075 516 
Q 1375 441 1709 441 
Q 2250 441 2565 725 
Q 2881 1009 2881 1497 
Q 2881 1984 2565 2268 
Q 2250 2553 1709 2553 
Q 1456 2553 1204 2497 
Q 953 2441 691 2322 
L 691 4666 
z
" transform="scale(0.015625)"/>
       </defs>
       <use xlink:href="#DejaVuSans-31"/>
       <use xlink:href="#DejaVuSans-30" x="63.623047"/>
       <use xlink:href="#DejaVuSans-2f" x="127.246094"/>
       <use xlink:href="#DejaVuSans-30" x="160.9375"/>
       <use xlink:href="#DejaVuSans-35" x="224.560547"/>
       <use xlink:href="#DejaVuSans-2f" x="288.183594"/>
       <use xlink:href="#DejaVuSans-32" x="321.875"/>
       <use xlink:href="#DejaVuSans-30" x="385.498047"/>
      </g>
     </g>
    </g>
    <g id="xtick_3">
     <g id="line2d_5">
      <path d="M 212.219461 166.32 
L 212.219461 -0 
" clip-path="url(#p38a651fd17)" style="fill: none; stroke: #ffffff; stroke-width: 0.8; stroke-linecap: square"/>
     </g>
     <g id="line2d_6">
      <g>
       <use xlink:href="#m3f52c10caa" x="212.219461" y="166.32" style="fill: #555555; stroke: #555555; stroke-width: 0.8"/>
      </g>
     </g>
     <g id="text_3">
      <!-- 11/24/20 -->
      <g style="fill: #555555" transform="translate(189.763211 180.918437) scale(0.1 -0.1)">
       <defs>
        <path id="DejaVuSans-34" d="M 2419 4116 
L 825 1625 
L 2419 1625 
L 2419 4116 
z
M 2253 4666 
L 3047 4666 
L 3047 1625 
L 3713 1625 
L 3713 1100 
L 3047 1100 
L 3047 0 
L 2419 0 
L 2419 1100 
L 313 1100 
L 313 1709 
L 2253 4666 
z
" transform="scale(0.015625)"/>
       </defs>
       <use xlink:href="#DejaVuSans-31"/>
       <use xlink:href="#DejaVuSans-31" x="63.623047"/>
       <use xlink:href="#DejaVuSans-2f" x="127.246094"/>
       <use xlink:href="#DejaVuSans-32" x="160.9375"/>
       <use xlink:href="#DejaVuSans-34" x="224.560547"/>
       <use xlink:href="#DejaVuSans-2f" x="288.183594"/>
       <use xlink:href="#DejaVuSans-32" x="321.875"/>
       <use xlink:href="#DejaVuSans-30" x="385.498047"/>
      </g>
     </g>
    </g>
    <g id="xtick_4">
     <g id="line2d_7">
      <path d="M 282.119246 166.32 
L 282.119246 -0 
" clip-path="url(#p38a651fd17)" style="fill: none; stroke: #ffffff; stroke-width: 0.8; stroke-linecap: square"/>
     </g>
     <g id="line2d_8">
      <g>
       <use xlink:href="#m3f52c10caa" x="282.119246" y="166.32" style="fill: #555555; stroke: #555555; stroke-width: 0.8"/>
      </g>
     </g>
     <g id="text_4">
      <!-- 01/13/21 -->
      <g style="fill: #555555" transform="translate(259.662996 180.918437) scale(0.1 -0.1)">
       <defs>
        <path id="DejaVuSans-33" d="M 2597 2516 
Q 3050 2419 3304 2112 
Q 3559 1806 3559 1356 
Q 3559 666 3084 287 
Q 2609 -91 1734 -91 
Q 1441 -91 1130 -33 
Q 819 25 488 141 
L 488 750 
Q 750 597 1062 519 
Q 1375 441 1716 441 
Q 2309 441 2620 675 
Q 2931 909 2931 1356 
Q 2931 1769 2642 2001 
Q 2353 2234 1838 2234 
L 1294 2234 
L 1294 2753 
L 1863 2753 
Q 2328 2753 2575 2939 
Q 2822 3125 2822 3475 
Q 2822 3834 2567 4026 
Q 2313 4219 1838 4219 
Q 1578 4219 1281 4162 
Q 984 4106 628 3988 
L 628 4550 
Q 988 4650 1302 4700 
Q 1616 4750 1894 4750 
Q 2613 4750 3031 4423 
Q 3450 4097 3450 3541 
Q 3450 3153 3228 2886 
Q 3006 2619 2597 2516 
z
" transform="scale(0.015625)"/>
       </defs>
       <use xlink:href="#DejaVuSans-30"/>
       <use xlink:href="#DejaVuSans-31" x="63.623047"/>
       <use xlink:href="#DejaVuSans-2f" x="127.246094"/>
       <use xlink:href="#DejaVuSans-31" x="160.9375"/>
       <use xlink:href="#DejaVuSans-33" x="224.560547"/>
       <use xlink:href="#DejaVuSans-2f" x="288.183594"/>
       <use xlink:href="#DejaVuSans-32" x="321.875"/>
       <use xlink:href="#DejaVuSans-31" x="385.498047"/>
      </g>
     </g>
    </g>
    <g id="xtick_5">
     <g id="line2d_9">
      <path d="M 352.019031 166.32 
L 352.019031 -0 
" clip-path="url(#p38a651fd17)" style="fill: none; stroke: #ffffff; stroke-width: 0.8; stroke-linecap: square"/>
     </g>
     <g id="line2d_10">
      <g>
       <use xlink:href="#m3f52c10caa" x="352.019031" y="166.32" style="fill: #555555; stroke: #555555; stroke-width: 0.8"/>
      </g>
     </g>
     <g id="text_5">
      <!-- 03/04/21 -->
      <g style="fill: #555555" transform="translate(329.562781 180.918437) scale(0.1 -0.1)">
       <use xlink:href="#DejaVuSans-30"/>
       <use xlink:href="#DejaVuSans-33" x="63.623047"/>
       <use xlink:href="#DejaVuSans-2f" x="127.246094"/>
       <use xlink:href="#DejaVuSans-30" x="160.9375"/>
       <use xlink:href="#DejaVuSans-34" x="224.560547"/>
       <use xlink:href="#DejaVuSans-2f" x="288.183594"/>
       <use xlink:href="#DejaVuSans-32" x="321.875"/>
       <use xlink:href="#DejaVuSans-31" x="385.498047"/>
      </g>
     </g>
    </g>
    <g id="xtick_6">
     <g id="line2d_11">
      <path d="M 421.918817 166.32 
L 421.918817 -0 
" clip-path="url(#p38a651fd17)" style="fill: none; stroke: #ffffff; stroke-width: 0.8; stroke-linecap: square"/>
     </g>
     <g id="line2d_12">
      <g>
       <use xlink:href="#m3f52c10caa" x="421.918817" y="166.32" style="fill: #555555; stroke: #555555; stroke-width: 0.8"/>
      </g>
     </g>
     <g id="text_6">
      <!-- 04/23/21 -->
      <g style="fill: #555555" transform="translate(399.462567 180.918437) scale(0.1 -0.1)">
       <use xlink:href="#DejaVuSans-30"/>
       <use xlink:href="#DejaVuSans-34" x="63.623047"/>
       <use xlink:href="#DejaVuSans-2f" x="127.246094"/>
       <use xlink:href="#DejaVuSans-32" x="160.9375"/>
       <use xlink:href="#DejaVuSans-33" x="224.560547"/>
       <use xlink:href="#DejaVuSans-2f" x="288.183594"/>
       <use xlink:href="#DejaVuSans-32" x="321.875"/>
       <use xlink:href="#DejaVuSans-31" x="385.498047"/>
      </g>
     </g>
    </g>
    <g id="text_7">
     <!-- Date -->
     <g style="fill: #555555" transform="translate(225.838438 196.11625) scale(0.12 -0.12)">
      <defs>
       <path id="DejaVuSans-44" d="M 1259 4147 
L 1259 519 
L 2022 519 
Q 2988 519 3436 956 
Q 3884 1394 3884 2338 
Q 3884 3275 3436 3711 
Q 2988 4147 2022 4147 
L 1259 4147 
z
M 628 4666 
L 1925 4666 
Q 3281 4666 3915 4102 
Q 4550 3538 4550 2338 
Q 4550 1131 3912 565 
Q 3275 0 1925 0 
L 628 0 
L 628 4666 
z
" transform="scale(0.015625)"/>
       <path id="DejaVuSans-61" d="M 2194 1759 
Q 1497 1759 1228 1600 
Q 959 1441 959 1056 
Q 959 750 1161 570 
Q 1363 391 1709 391 
Q 2188 391 2477 730 
Q 2766 1069 2766 1631 
L 2766 1759 
L 2194 1759 
z
M 3341 1997 
L 3341 0 
L 2766 0 
L 2766 531 
Q 2569 213 2275 61 
Q 1981 -91 1556 -91 
Q 1019 -91 701 211 
Q 384 513 384 1019 
Q 384 1609 779 1909 
Q 1175 2209 1959 2209 
L 2766 2209 
L 2766 2266 
Q 2766 2663 2505 2880 
Q 2244 3097 1772 3097 
Q 1472 3097 1187 3025 
Q 903 2953 641 2809 
L 641 3341 
Q 956 3463 1253 3523 
Q 1550 3584 1831 3584 
Q 2591 3584 2966 3190 
Q 3341 2797 3341 1997 
z
" transform="scale(0.015625)"/>
       <path id="DejaVuSans-74" d="M 1172 4494 
L 1172 3500 
L 2356 3500 
L 2356 3053 
L 1172 3053 
L 1172 1153 
Q 1172 725 1289 603 
Q 1406 481 1766 481 
L 2356 481 
L 2356 0 
L 1766 0 
Q 1100 0 847 248 
Q 594 497 594 1153 
L 594 3053 
L 172 3053 
L 172 3500 
L 594 3500 
L 594 4494 
L 1172 4494 
z
" transform="scale(0.015625)"/>
       <path id="DejaVuSans-65" d="M 3597 1894 
L 3597 1613 
L 953 1613 
Q 991 1019 1311 708 
Q 1631 397 2203 397 
Q 2534 397 2845 478 
Q 3156 559 3463 722 
L 3463 178 
Q 3153 47 2828 -22 
Q 2503 -91 2169 -91 
Q 1331 -91 842 396 
Q 353 884 353 1716 
Q 353 2575 817 3079 
Q 1281 3584 2069 3584 
Q 2775 3584 3186 3129 
Q 3597 2675 3597 1894 
z
M 3022 2063 
Q 3016 2534 2758 2815 
Q 2500 3097 2075 3097 
Q 1594 3097 1305 2825 
Q 1016 2553 972 2059 
L 3022 2063 
z
" transform="scale(0.015625)"/>
      </defs>
      <use xlink:href="#DejaVuSans-44"/>
      <use xlink:href="#DejaVuSans-61" x="77.001953"/>
      <use xlink:href="#DejaVuSans-74" x="138.28125"/>
      <use xlink:href="#DejaVuSans-65" x="177.490234"/>
     </g>
    </g>
   </g>
   <g id="matplotlib.axis_2">
    <g id="ytick_1">
     <g id="line2d_13">
      <path d="M 44.879375 163.181023 
L 435.479375 163.181023 
" clip-path="url(#p38a651fd17)" style="fill: none; stroke: #ffffff; stroke-width: 0.8; stroke-linecap: square"/>
     </g>
     <g id="line2d_14">
      <defs>
       <path id="m7eb9dee8c7" d="M 0 0 
L -3.5 0 
" style="stroke: #555555; stroke-width: 0.8"/>
      </defs>
      <g>
       <use xlink:href="#m7eb9dee8c7" x="44.879375" y="163.181023" style="fill: #555555; stroke: #555555; stroke-width: 0.8"/>
      </g>
     </g>
     <g id="text_8">
      <!-- 0.00 -->
      <g style="fill: #555555" transform="translate(15.61375 166.980242) scale(0.1 -0.1)">
       <defs>
        <path id="DejaVuSans-2e" d="M 684 794 
L 1344 794 
L 1344 0 
L 684 0 
L 684 794 
z
" transform="scale(0.015625)"/>
       </defs>
       <use xlink:href="#DejaVuSans-30"/>
       <use xlink:href="#DejaVuSans-2e" x="63.623047"/>
       <use xlink:href="#DejaVuSans-30" x="95.410156"/>
       <use xlink:href="#DejaVuSans-30" x="159.033203"/>
      </g>
     </g>
    </g>
    <g id="ytick_2">
     <g id="line2d_15">
      <path d="M 44.879375 140.576944 
L 435.479375 140.576944 
" clip-path="url(#p38a651fd17)" style="fill: none; stroke: #ffffff; stroke-width: 0.8; stroke-linecap: square"/>
     </g>
     <g id="line2d_16">
      <g>
       <use xlink:href="#m7eb9dee8c7" x="44.879375" y="140.576944" style="fill: #555555; stroke: #555555; stroke-width: 0.8"/>
      </g>
     </g>
     <g id="text_9">
      <!-- 0.02 -->
      <g style="fill: #555555" transform="translate(15.61375 144.376163) scale(0.1 -0.1)">
       <use xlink:href="#DejaVuSans-30"/>
       <use xlink:href="#DejaVuSans-2e" x="63.623047"/>
       <use xlink:href="#DejaVuSans-30" x="95.410156"/>
       <use xlink:href="#DejaVuSans-32" x="159.033203"/>
      </g>
     </g>
    </g>
    <g id="ytick_3">
     <g id="line2d_17">
      <path d="M 44.879375 117.972865 
L 435.479375 117.972865 
" clip-path="url(#p38a651fd17)" style="fill: none; stroke: #ffffff; stroke-width: 0.8; stroke-linecap: square"/>
     </g>
     <g id="line2d_18">
      <g>
       <use xlink:href="#m7eb9dee8c7" x="44.879375" y="117.972865" style="fill: #555555; stroke: #555555; stroke-width: 0.8"/>
      </g>
     </g>
     <g id="text_10">
      <!-- 0.04 -->
      <g style="fill: #555555" transform="translate(15.61375 121.772084) scale(0.1 -0.1)">
       <use xlink:href="#DejaVuSans-30"/>
       <use xlink:href="#DejaVuSans-2e" x="63.623047"/>
       <use xlink:href="#DejaVuSans-30" x="95.410156"/>
       <use xlink:href="#DejaVuSans-34" x="159.033203"/>
      </g>
     </g>
    </g>
    <g id="ytick_4">
     <g id="line2d_19">
      <path d="M 44.879375 95.368786 
L 435.479375 95.368786 
" clip-path="url(#p38a651fd17)" style="fill: none; stroke: #ffffff; stroke-width: 0.8; stroke-linecap: square"/>
     </g>
     <g id="line2d_20">
      <g>
       <use xlink:href="#m7eb9dee8c7" x="44.879375" y="95.368786" style="fill: #555555; stroke: #555555; stroke-width: 0.8"/>
      </g>
     </g>
     <g id="text_11">
      <!-- 0.06 -->
      <g style="fill: #555555" transform="translate(15.61375 99.168005) scale(0.1 -0.1)">
       <use xlink:href="#DejaVuSans-30"/>
       <use xlink:href="#DejaVuSans-2e" x="63.623047"/>
       <use xlink:href="#DejaVuSans-30" x="95.410156"/>
       <use xlink:href="#DejaVuSans-36" x="159.033203"/>
      </g>
     </g>
    </g>
    <g id="ytick_5">
     <g id="line2d_21">
      <path d="M 44.879375 72.764707 
L 435.479375 72.764707 
" clip-path="url(#p38a651fd17)" style="fill: none; stroke: #ffffff; stroke-width: 0.8; stroke-linecap: square"/>
     </g>
     <g id="line2d_22">
      <g>
       <use xlink:href="#m7eb9dee8c7" x="44.879375" y="72.764707" style="fill: #555555; stroke: #555555; stroke-width: 0.8"/>
      </g>
     </g>
     <g id="text_12">
      <!-- 0.08 -->
      <g style="fill: #555555" transform="translate(15.61375 76.563926) scale(0.1 -0.1)">
       <use xlink:href="#DejaVuSans-30"/>
       <use xlink:href="#DejaVuSans-2e" x="63.623047"/>
       <use xlink:href="#DejaVuSans-30" x="95.410156"/>
       <use xlink:href="#DejaVuSans-38" x="159.033203"/>
      </g>
     </g>
    </g>
    <g id="ytick_6">
     <g id="line2d_23">
      <path d="M 44.879375 50.160628 
L 435.479375 50.160628 
" clip-path="url(#p38a651fd17)" style="fill: none; stroke: #ffffff; stroke-width: 0.8; stroke-linecap: square"/>
     </g>
     <g id="line2d_24">
      <g>
       <use xlink:href="#m7eb9dee8c7" x="44.879375" y="50.160628" style="fill: #555555; stroke: #555555; stroke-width: 0.8"/>
      </g>
     </g>
     <g id="text_13">
      <!-- 0.10 -->
      <g style="fill: #555555" transform="translate(15.61375 53.959847) scale(0.1 -0.1)">
       <use xlink:href="#DejaVuSans-30"/>
       <use xlink:href="#DejaVuSans-2e" x="63.623047"/>
       <use xlink:href="#DejaVuSans-31" x="95.410156"/>
       <use xlink:href="#DejaVuSans-30" x="159.033203"/>
      </g>
     </g>
    </g>
    <g id="ytick_7">
     <g id="line2d_25">
      <path d="M 44.879375 27.556549 
L 435.479375 27.556549 
" clip-path="url(#p38a651fd17)" style="fill: none; stroke: #ffffff; stroke-width: 0.8; stroke-linecap: square"/>
     </g>
     <g id="line2d_26">
      <g>
       <use xlink:href="#m7eb9dee8c7" x="44.879375" y="27.556549" style="fill: #555555; stroke: #555555; stroke-width: 0.8"/>
      </g>
     </g>
     <g id="text_14">
      <!-- 0.12 -->
      <g style="fill: #555555" transform="translate(15.61375 31.355768) scale(0.1 -0.1)">
       <use xlink:href="#DejaVuSans-30"/>
       <use xlink:href="#DejaVuSans-2e" x="63.623047"/>
       <use xlink:href="#DejaVuSans-31" x="95.410156"/>
       <use xlink:href="#DejaVuSans-32" x="159.033203"/>
      </g>
     </g>
    </g>
    <g id="ytick_8">
     <g id="line2d_27">
      <path d="M 44.879375 4.95247 
L 435.479375 4.95247 
" clip-path="url(#p38a651fd17)" style="fill: none; stroke: #ffffff; stroke-width: 0.8; stroke-linecap: square"/>
     </g>
     <g id="line2d_28">
      <g>
       <use xlink:href="#m7eb9dee8c7" x="44.879375" y="4.95247" style="fill: #555555; stroke: #555555; stroke-width: 0.8"/>
      </g>
     </g>
     <g id="text_15">
      <!-- 0.14 -->
      <g style="fill: #555555" transform="translate(15.61375 8.751689) scale(0.1 -0.1)">
       <use xlink:href="#DejaVuSans-30"/>
       <use xlink:href="#DejaVuSans-2e" x="63.623047"/>
       <use xlink:href="#DejaVuSans-31" x="95.410156"/>
       <use xlink:href="#DejaVuSans-34" x="159.033203"/>
      </g>
     </g>
    </g>
    <g id="text_16">
     <!-- Value -->
     <g style="fill: #555555" transform="translate(9.118125 99.6375) rotate(-90) scale(0.12 -0.12)">
      <defs>
       <path id="DejaVuSans-56" d="M 1831 0 
L 50 4666 
L 709 4666 
L 2188 738 
L 3669 4666 
L 4325 4666 
L 2547 0 
L 1831 0 
z
" transform="scale(0.015625)"/>
       <path id="DejaVuSans-6c" d="M 603 4863 
L 1178 4863 
L 1178 0 
L 603 0 
L 603 4863 
z
" transform="scale(0.015625)"/>
       <path id="DejaVuSans-75" d="M 544 1381 
L 544 3500 
L 1119 3500 
L 1119 1403 
Q 1119 906 1312 657 
Q 1506 409 1894 409 
Q 2359 409 2629 706 
Q 2900 1003 2900 1516 
L 2900 3500 
L 3475 3500 
L 3475 0 
L 2900 0 
L 2900 538 
Q 2691 219 2414 64 
Q 2138 -91 1772 -91 
Q 1169 -91 856 284 
Q 544 659 544 1381 
z
M 1991 3584 
L 1991 3584 
z
" transform="scale(0.015625)"/>
      </defs>
      <use xlink:href="#DejaVuSans-56"/>
      <use xlink:href="#DejaVuSans-61" x="60.658203"/>
      <use xlink:href="#DejaVuSans-6c" x="121.9375"/>
      <use xlink:href="#DejaVuSans-75" x="149.720703"/>
      <use xlink:href="#DejaVuSans-65" x="213.099609"/>
     </g>
    </g>
   </g>
   <g id="PolyCollection_1">
    <defs>
     <path id="mfb243e263d" d="M 62.63392 -56.939244 
L 62.63392 -70.424138 
L 64.031916 -68.840778 
L 65.429912 -68.504505 
L 66.827908 -68.812944 
L 68.225903 -67.607807 
L 69.623899 -69.379144 
L 71.021895 -70.810753 
L 72.41989 -69.241923 
L 73.817886 -70.795515 
L 75.215882 -69.162923 
L 76.613878 -70.304664 
L 78.011873 -71.626431 
L 79.409869 -69.137497 
L 80.807865 -70.648249 
L 82.20586 -67.797177 
L 83.603856 -70.491134 
L 85.001852 -77.711149 
L 86.399847 -77.458433 
L 87.797843 -77.511588 
L 89.195839 -77.760579 
L 90.593835 -83.064862 
L 91.99183 -86.898644 
L 93.389826 -87.539293 
L 94.787822 -93.938822 
L 96.185817 -96.619484 
L 97.583813 -104.5682 
L 98.981809 -105.462886 
L 100.379804 -94.592716 
L 101.7778 -92.345522 
L 103.175796 -94.945158 
L 104.573792 -89.929216 
L 105.971787 -88.4699 
L 107.369783 -66.713493 
L 108.767779 -67.963312 
L 110.165774 -72.884477 
L 111.56377 -67.235304 
L 112.961766 -70.86173 
L 114.359762 -68.01882 
L 115.757757 -65.233608 
L 117.155753 -67.205902 
L 118.553749 -70.097312 
L 119.951744 -69.431206 
L 121.34974 -71.000332 
L 122.747736 -69.793026 
L 124.145731 -70.264899 
L 125.543727 -71.606376 
L 126.941723 -70.273465 
L 128.339719 -69.938941 
L 129.737714 -69.505413 
L 131.13571 -70.556937 
L 132.533706 -71.725844 
L 133.931701 -72.385852 
L 135.329697 -72.193924 
L 136.727693 -70.907975 
L 138.125689 -70.857171 
L 139.523684 -71.850783 
L 140.92168 -74.14687 
L 142.319676 -74.514777 
L 143.717671 -74.241371 
L 145.115667 -74.697568 
L 146.513663 -73.495567 
L 147.911658 -73.866809 
L 149.309654 -75.82548 
L 150.70765 -75.133375 
L 152.105646 -78.268492 
L 153.503641 -78.227038 
L 154.901637 -77.803597 
L 156.299633 -80.955234 
L 157.697628 -79.523015 
L 159.095624 -81.767677 
L 160.49362 -83.705645 
L 161.891616 -81.683337 
L 163.289611 -79.542812 
L 164.687607 -80.559527 
L 166.085603 -83.622044 
L 167.483598 -82.33678 
L 168.881594 -82.271804 
L 170.27959 -52.824236 
L 171.677585 -51.907358 
L 173.075581 -51.240189 
L 174.473577 -50.94846 
L 175.871573 -50.515442 
L 177.269568 -50.804088 
L 178.667564 -51.30074 
L 180.06556 -82.64724 
L 181.463555 -84.825893 
L 182.861551 -84.646848 
L 184.259547 -86.311618 
L 185.657543 -86.480563 
L 187.055538 -84.608301 
L 188.453534 -86.923012 
L 189.85153 -86.441072 
L 191.249525 -88.170791 
L 192.647521 -87.888511 
L 194.045517 -87.948864 
L 195.443512 -89.364752 
L 196.841508 -89.474289 
L 198.239504 -83.498886 
L 199.6375 -88.616118 
L 201.035495 -54.453002 
L 202.433491 -87.832546 
L 203.831487 -87.750759 
L 205.229482 -52.815288 
L 206.627478 -52.351026 
L 208.025474 -51.577373 
L 209.423469 -51.07682 
L 210.821465 -51.776739 
L 212.219461 -51.474009 
L 213.617457 -51.353586 
L 215.015452 -50.940492 
L 216.413448 -51.355863 
L 217.811444 -51.848556 
L 219.209439 -51.813392 
L 220.607435 -52.475606 
L 222.005431 -51.727807 
L 223.403427 -51.622284 
L 224.801422 -52.68693 
L 226.199418 -52.905885 
L 227.597414 -52.837929 
L 228.995409 -53.938676 
L 230.393405 -53.043017 
L 231.791401 -53.540146 
L 233.189396 -54.313856 
L 234.587392 -88.616527 
L 235.985388 -91.025074 
L 237.383384 -83.481323 
L 238.781379 -86.705664 
L 240.179375 -53.974083 
L 241.577371 -54.057395 
L 242.975366 -55.036375 
L 244.373362 -87.016612 
L 245.771358 -89.656995 
L 247.169354 -89.18767 
L 248.567349 -89.158857 
L 249.965345 -87.116609 
L 251.363341 -87.518869 
L 252.761336 -84.055064 
L 254.159332 -53.505099 
L 255.557328 -85.016536 
L 256.955323 -83.077501 
L 258.353319 -85.656719 
L 259.751315 -87.251756 
L 261.149311 -85.536883 
L 262.547306 -88.752648 
L 263.945302 -54.624343 
L 265.343298 -52.988645 
L 266.741293 -87.172106 
L 268.139289 -89.984587 
L 269.537285 -88.17626 
L 270.935281 -88.390287 
L 272.333276 -95.136774 
L 273.731272 -98.116746 
L 275.129268 -94.756147 
L 276.527263 -95.390061 
L 277.925259 -96.868934 
L 279.323255 -97.574143 
L 280.72125 -99.774535 
L 282.119246 -138.894158 
L 283.517242 -184.88031 
L 284.915238 -191.051875 
L 286.313233 -141.812358 
L 287.711229 -140.763384 
L 289.109225 -137.768387 
L 290.50722 -134.716431 
L 291.905216 -104.362513 
L 293.303212 -98.963382 
L 294.701207 -100.063396 
L 296.099203 -99.224585 
L 297.497199 -98.337479 
L 298.895195 -100.636885 
L 300.29319 -96.073045 
L 301.691186 -91.886026 
L 303.089182 -91.47129 
L 304.487177 -88.477736 
L 305.885173 -85.442431 
L 307.283169 -85.183295 
L 308.681165 -84.877281 
L 310.07916 -86.190581 
L 311.477156 -52.058995 
L 312.875152 -52.26455 
L 314.273147 -52.382084 
L 315.671143 -83.115235 
L 317.069139 -52.950854 
L 318.467134 -53.042971 
L 319.86513 -52.305239 
L 321.263126 -53.978339 
L 322.661122 -81.634394 
L 324.059117 -54.464733 
L 325.457113 -85.073183 
L 326.855109 -82.384283 
L 328.253104 -83.320247 
L 329.6511 -82.234486 
L 331.049096 -105.491092 
L 332.447092 -87.650731 
L 333.845087 -85.904173 
L 335.243083 -85.882643 
L 336.641079 -86.35738 
L 338.039074 -87.047984 
L 339.43707 -104.995857 
L 340.835066 -85.850756 
L 342.233061 -83.644857 
L 343.631057 -84.902736 
L 345.029053 -84.76765 
L 346.427049 -83.98622 
L 347.825044 -54.640719 
L 349.22304 -83.5246 
L 350.621036 -82.759836 
L 352.019031 -44.37792 
L 353.417027 -44.037258 
L 354.815023 -44.18187 
L 356.213019 -44.278099 
L 357.611014 -43.676555 
L 359.00901 -43.641283 
L 360.407006 -43.38379 
L 361.805001 -43.365712 
L 363.202997 -43.49696 
L 364.600993 -43.133389 
L 365.998988 -43.435002 
L 367.396984 -42.267858 
L 368.79498 -43.548102 
L 370.192976 -44.096154 
L 371.590971 -45.497935 
L 372.988967 -44.764378 
L 374.386963 -44.713497 
L 375.784958 -45.077065 
L 377.182954 -44.437817 
L 378.58095 -44.662449 
L 379.978946 -50.114329 
L 381.376941 -49.841141 
L 382.774937 -50.20517 
L 384.172933 -50.6328 
L 385.570928 -50.752599 
L 386.968924 -55.741986 
L 388.36692 -54.947161 
L 389.764915 -92.464322 
L 391.162911 -90.935243 
L 392.560907 -92.31166 
L 393.958903 -92.172478 
L 395.356898 -92.192908 
L 396.754894 -97.211864 
L 398.15289 -95.3382 
L 399.550885 -96.911798 
L 400.948881 -104.460992 
L 402.346877 -101.774476 
L 403.744872 -105.279689 
L 405.142868 -106.405773 
L 406.540864 -109.074721 
L 407.93886 -118.824312 
L 409.336855 -116.211387 
L 410.734851 -167.768789 
L 412.132847 -171.791876 
L 413.530842 -167.653727 
L 414.928838 -119.513283 
L 416.326834 -118.023697 
L 417.72483 -118.733503 
L 417.72483 -99.766747 
L 417.72483 -99.766747 
L 416.326834 -97.034004 
L 414.928838 -97.537602 
L 413.530842 -139.81919 
L 412.132847 -147.152713 
L 410.734851 -143.148142 
L 409.336855 -92.782715 
L 407.93886 -96.458421 
L 406.540864 -84.107701 
L 405.142868 -83.358943 
L 403.744872 -82.16402 
L 402.346877 -78.227013 
L 400.948881 -80.333237 
L 399.550885 -73.596488 
L 398.15289 -74.401131 
L 396.754894 -71.941053 
L 395.356898 -67.825355 
L 393.958903 -68.251639 
L 392.560907 -67.107698 
L 391.162911 -65.225676 
L 389.764915 -66.882232 
L 388.36692 -51.297221 
L 386.968924 -52.123097 
L 385.570928 -47.712439 
L 384.172933 -47.403224 
L 382.774937 -46.643415 
L 381.376941 -46.513367 
L 379.978946 -46.945098 
L 378.58095 -41.78485 
L 377.182954 -41.954039 
L 375.784958 -42.23892 
L 374.386963 -41.995257 
L 372.988967 -42.181469 
L 371.590971 -42.592052 
L 370.192976 -41.506959 
L 368.79498 -40.808006 
L 367.396984 -39.851875 
L 365.998988 -40.757407 
L 364.600993 -40.479504 
L 363.202997 -40.702224 
L 361.805001 -40.876248 
L 360.407006 -40.720578 
L 359.00901 -40.87825 
L 357.611014 -41.123427 
L 356.213019 -41.380437 
L 354.815023 -41.419106 
L 353.417027 -41.338677 
L 352.019031 -41.633096 
L 350.621036 -62.816122 
L 349.22304 -63.625058 
L 347.825044 -50.287969 
L 346.427049 -66.199114 
L 345.029053 -67.095138 
L 343.631057 -65.414025 
L 342.233061 -68.604749 
L 340.835066 -70.422113 
L 339.43707 -91.363827 
L 338.039074 -73.67351 
L 336.641079 -72.530256 
L 335.243083 -72.310549 
L 333.845087 -71.020986 
L 332.447092 -71.983426 
L 331.049096 -90.322259 
L 329.6511 -64.513237 
L 328.253104 -64.344866 
L 326.855109 -64.726443 
L 325.457113 -63.577105 
L 324.059117 -50.102207 
L 322.661122 -61.360285 
L 321.263126 -49.529367 
L 319.86513 -48.87598 
L 318.467134 -49.231098 
L 317.069139 -49.250752 
L 315.671143 -60.245552 
L 314.273147 -48.773582 
L 312.875152 -48.25561 
L 311.477156 -48.333105 
L 310.07916 -62.770784 
L 308.681165 -63.006582 
L 307.283169 -62.346396 
L 305.885173 -63.441172 
L 304.487177 -67.355299 
L 303.089182 -69.448182 
L 301.691186 -70.164243 
L 300.29319 -78.607387 
L 298.895195 -80.913368 
L 297.497199 -79.993681 
L 296.099203 -80.058094 
L 294.701207 -80.39551 
L 293.303212 -80.723518 
L 291.905216 -87.399574 
L 290.50722 -114.515075 
L 289.109225 -114.60586 
L 287.711229 -118.339785 
L 286.313233 -123.187972 
L 284.915238 -157.445979 
L 283.517242 -156.802523 
L 282.119246 -118.672124 
L 280.72125 -83.273836 
L 279.323255 -75.800184 
L 277.925259 -76.868747 
L 276.527263 -74.055453 
L 275.129268 -74.600928 
L 273.731272 -79.944653 
L 272.333276 -73.584961 
L 270.935281 -66.66472 
L 269.537285 -68.200719 
L 268.139289 -67.318548 
L 266.741293 -65.912292 
L 265.343298 -49.467427 
L 263.945302 -51.157897 
L 262.547306 -64.753493 
L 261.149311 -62.360331 
L 259.751315 -63.490603 
L 258.353319 -62.931783 
L 256.955323 -61.55198 
L 255.557328 -62.061906 
L 254.159332 -49.717056 
L 252.761336 -60.968624 
L 251.363341 -63.171229 
L 249.965345 -63.918325 
L 248.567349 -65.534048 
L 247.169354 -66.236389 
L 245.771358 -65.57948 
L 244.373362 -63.739657 
L 242.975366 -51.283772 
L 241.577371 -50.376564 
L 240.179375 -50.768361 
L 238.781379 -62.632612 
L 237.383384 -61.222185 
L 235.985388 -64.694014 
L 234.587392 -63.697714 
L 233.189396 -50.571981 
L 231.791401 -49.871929 
L 230.393405 -50.066967 
L 228.995409 -50.04924 
L 227.597414 -49.544963 
L 226.199418 -49.477461 
L 224.801422 -49.093704 
L 223.403427 -48.243003 
L 222.005431 -48.579095 
L 220.607435 -49.181695 
L 219.209439 -48.531079 
L 217.811444 -48.627574 
L 216.413448 -48.205736 
L 215.015452 -47.242678 
L 213.617457 -47.972242 
L 212.219461 -48.337296 
L 210.821465 -48.140064 
L 209.423469 -47.968975 
L 208.025474 -48.449735 
L 206.627478 -48.815335 
L 205.229482 -49.357932 
L 203.831487 -63.359536 
L 202.433491 -63.837914 
L 201.035495 -51.054629 
L 199.6375 -63.445239 
L 198.239504 -61.155881 
L 196.841508 -63.312832 
L 195.443512 -65.18752 
L 194.045517 -63.038471 
L 192.647521 -65.237797 
L 191.249525 -63.562815 
L 189.85153 -63.877056 
L 188.453534 -64.671934 
L 187.055538 -63.522737 
L 185.657543 -64.178852 
L 184.259547 -63.96649 
L 182.861551 -60.941594 
L 181.463555 -61.615501 
L 180.06556 -59.957125 
L 178.667564 -48.180084 
L 177.269568 -46.995343 
L 175.871573 -47.227975 
L 174.473577 -47.398807 
L 173.075581 -48.082359 
L 171.677585 -48.169765 
L 170.27959 -48.974145 
L 168.881594 -62.66908 
L 167.483598 -59.1424 
L 166.085603 -63.215397 
L 164.687607 -60.279087 
L 163.289611 -61.767158 
L 161.891616 -61.563319 
L 160.49362 -62.438441 
L 159.095624 -61.072022 
L 157.697628 -59.526311 
L 156.299633 -62.63171 
L 154.901637 -61.703943 
L 153.503641 -60.636125 
L 152.105646 -61.689588 
L 150.70765 -59.318586 
L 149.309654 -58.553682 
L 147.911658 -58.813075 
L 146.513663 -55.353364 
L 145.115667 -57.980889 
L 143.717671 -55.391998 
L 142.319676 -55.552481 
L 140.92168 -54.991353 
L 139.523684 -55.763367 
L 138.125689 -55.942424 
L 136.727693 -56.42391 
L 135.329697 -55.064283 
L 133.931701 -57.80958 
L 132.533706 -54.496958 
L 131.13571 -55.102608 
L 129.737714 -55.9736 
L 128.339719 -55.363813 
L 126.941723 -56.175396 
L 125.543727 -55.153784 
L 124.145731 -56.113372 
L 122.747736 -55.539483 
L 121.34974 -57.620767 
L 119.951744 -56.336103 
L 118.553749 -57.720193 
L 117.155753 -56.833775 
L 115.757757 -56.838318 
L 114.359762 -56.964481 
L 112.961766 -58.422948 
L 111.56377 -56.662427 
L 110.165774 -59.924511 
L 108.767779 -56.838271 
L 107.369783 -57.630918 
L 105.971787 -76.024059 
L 104.573792 -77.274455 
L 103.175796 -79.924474 
L 101.7778 -78.611096 
L 100.379804 -80.82752 
L 98.981809 -89.403224 
L 97.583813 -89.666726 
L 96.185817 -81.642975 
L 94.787822 -81.153008 
L 93.389826 -75.438868 
L 91.99183 -75.54825 
L 90.593835 -72.070894 
L 89.195839 -64.680003 
L 87.797843 -64.235964 
L 86.399847 -64.512042 
L 85.001852 -66.428585 
L 83.603856 -58.963646 
L 82.20586 -57.054009 
L 80.807865 -56.997654 
L 79.409869 -57.869555 
L 78.011873 -57.208515 
L 76.613878 -56.28025 
L 75.215882 -55.721543 
L 73.817886 -57.164103 
L 72.41989 -56.092309 
L 71.021895 -58.44777 
L 69.623899 -57.971225 
L 68.225903 -56.59437 
L 66.827908 -58.740234 
L 65.429912 -57.982464 
L 64.031916 -57.210429 
L 62.63392 -56.939244 
z
" style="stroke: #ffb612; stroke-opacity: 0.5; stroke-width: 0.5"/>
    </defs>
    <g clip-path="url(#p38a651fd17)">
     <use xlink:href="#mfb243e263d" x="0" y="198.611875" style="fill: #ffb612; fill-opacity: 0.5; stroke: #ffb612; stroke-opacity: 0.5; stroke-width: 0.5"/>
    </g>
   </g>
   <g id="line2d_29">
    <path d="M 62.63392 134.930184 
L 64.031916 135.586272 
L 65.429912 135.36839 
L 66.827908 134.835286 
L 68.225903 136.510787 
L 69.623899 134.93669 
L 71.021895 133.982613 
L 72.41989 135.944759 
L 73.817886 134.632066 
L 75.215882 136.169642 
L 76.613878 135.319418 
L 78.011873 134.194402 
L 79.409869 135.108349 
L 80.807865 134.788923 
L 82.20586 136.186282 
L 83.603856 133.884485 
L 85.001852 126.542008 
L 86.399847 127.626637 
L 87.797843 127.738099 
L 89.195839 127.391584 
L 90.593835 121.043997 
L 91.99183 117.388428 
L 93.389826 117.122794 
L 94.787822 111.06596 
L 96.185817 109.480646 
L 97.583813 101.494412 
L 98.981809 101.17882 
L 100.379804 110.901757 
L 101.7778 113.133566 
L 103.175796 111.177059 
L 104.573792 115.010039 
L 105.971787 116.364896 
L 107.369783 136.439669 
L 108.767779 136.211083 
L 110.165774 132.207381 
L 111.56377 136.663009 
L 112.961766 133.969536 
L 114.359762 136.120224 
L 115.757757 137.575912 
L 117.155753 136.592037 
L 118.553749 134.703122 
L 119.951744 135.728221 
L 121.34974 134.301326 
L 122.747736 135.945621 
L 124.145731 135.42274 
L 125.543727 135.231795 
L 126.941723 135.387445 
L 128.339719 135.960498 
L 131.13571 135.782103 
L 132.533706 135.500474 
L 133.931701 133.514159 
L 135.329697 134.982772 
L 136.727693 134.945932 
L 138.125689 135.212077 
L 139.523684 134.8048 
L 140.92168 134.042764 
L 142.319676 133.578246 
L 143.717671 133.795191 
L 145.115667 132.272647 
L 146.513663 134.187409 
L 147.911658 132.271933 
L 149.309654 131.422294 
L 150.70765 131.385894 
L 152.105646 128.632835 
L 153.503641 129.180293 
L 154.901637 128.858105 
L 156.299633 126.818403 
L 157.697628 129.087212 
L 159.095624 127.192025 
L 160.49362 125.539832 
L 161.891616 126.988547 
L 163.289611 127.95689 
L 164.687607 128.192568 
L 166.085603 125.193154 
L 167.483598 127.872285 
L 168.881594 126.141433 
L 170.27959 147.712685 
L 171.677585 148.573313 
L 175.871573 149.740167 
L 177.269568 149.712159 
L 178.667564 148.871463 
L 180.06556 127.309692 
L 181.463555 125.391178 
L 182.861551 125.817654 
L 184.259547 123.472821 
L 185.657543 123.282167 
L 187.055538 124.546356 
L 188.453534 122.814402 
L 189.85153 123.452811 
L 192.647521 122.048721 
L 194.045517 123.118207 
L 195.443512 121.335739 
L 196.841508 122.218315 
L 198.239504 126.284491 
L 199.6375 122.581196 
L 201.035495 145.85806 
L 202.433491 122.776645 
L 203.831487 123.056727 
L 205.229482 147.525265 
L 209.423469 149.088978 
L 210.821465 148.653474 
L 212.219461 148.706223 
L 213.617457 148.948961 
L 215.015452 149.52029 
L 216.413448 148.831076 
L 217.811444 148.37381 
L 219.209439 148.439639 
L 220.607435 147.783225 
L 222.005431 148.458424 
L 223.403427 148.679232 
L 224.801422 147.721558 
L 226.199418 147.420202 
L 227.597414 147.420429 
L 228.995409 146.617917 
L 230.393405 147.056883 
L 231.791401 146.905837 
L 233.189396 146.168957 
L 234.587392 122.454755 
L 235.985388 120.752331 
L 237.383384 126.260121 
L 238.781379 123.942737 
L 240.179375 146.240653 
L 241.577371 146.394896 
L 242.975366 145.451802 
L 244.373362 123.233741 
L 245.771358 120.993637 
L 247.169354 120.899845 
L 248.567349 121.265423 
L 249.965345 123.094408 
L 251.363341 123.266826 
L 252.761336 126.100031 
L 254.159332 147.000798 
L 255.557328 125.072654 
L 256.955323 126.297135 
L 258.353319 124.317624 
L 259.751315 123.240695 
L 261.149311 124.663268 
L 262.547306 121.858805 
L 263.945302 145.720755 
L 265.343298 147.383839 
L 266.741293 122.069676 
L 268.139289 119.960308 
L 269.537285 120.423385 
L 270.935281 121.084371 
L 272.333276 114.251007 
L 273.731272 109.581175 
L 275.129268 113.933338 
L 276.527263 113.889118 
L 277.925259 111.743035 
L 279.323255 111.924711 
L 280.72125 107.087689 
L 282.119246 69.828734 
L 283.517242 27.770458 
L 284.915238 24.362948 
L 286.313233 66.11171 
L 287.711229 69.060291 
L 289.109225 72.424752 
L 290.50722 73.996122 
L 291.905216 102.730831 
L 293.303212 108.768425 
L 294.701207 108.382422 
L 297.497199 109.446295 
L 298.895195 107.836749 
L 300.29319 111.271659 
L 301.691186 117.58674 
L 303.089182 118.152139 
L 304.487177 120.695358 
L 305.885173 124.170073 
L 307.283169 124.84703 
L 308.681165 124.669943 
L 310.07916 124.131193 
L 311.477156 148.415825 
L 312.875152 148.351795 
L 314.273147 148.034042 
L 315.671143 126.931482 
L 317.069139 147.511072 
L 318.467134 147.474841 
L 319.86513 148.021265 
L 321.263126 146.858022 
L 322.661122 127.114535 
L 324.059117 146.328405 
L 325.457113 124.286731 
L 326.855109 125.056512 
L 328.253104 124.779318 
L 329.6511 125.238014 
L 331.049096 100.7052 
L 332.447092 118.794797 
L 333.845087 120.149296 
L 335.243083 119.515279 
L 336.641079 119.168057 
L 338.039074 118.251128 
L 339.43707 100.432033 
L 340.835066 120.47544 
L 342.233061 122.487072 
L 343.631057 123.453494 
L 345.029053 122.680481 
L 346.427049 123.519208 
L 347.825044 146.147531 
L 349.22304 125.037046 
L 350.621036 125.823896 
L 352.019031 155.606367 
L 353.417027 155.923908 
L 356.213019 155.782607 
L 357.611014 156.211884 
L 360.407006 156.559691 
L 363.202997 156.512283 
L 364.600993 156.805429 
L 365.998988 156.51567 
L 367.396984 157.552008 
L 368.79498 156.433821 
L 370.192976 155.810318 
L 371.590971 154.566881 
L 372.988967 155.138952 
L 374.386963 155.257498 
L 375.784958 154.953883 
L 377.182954 155.415947 
L 378.58095 155.388226 
L 379.978946 150.082162 
L 381.376941 150.434621 
L 382.774937 150.187582 
L 384.172933 149.593863 
L 385.570928 149.379356 
L 386.968924 144.679333 
L 388.36692 145.489684 
L 389.764915 118.938598 
L 391.162911 120.531416 
L 392.560907 118.902196 
L 393.958903 118.399816 
L 395.356898 118.602743 
L 396.754894 114.035416 
L 399.550885 113.357732 
L 400.948881 106.21476 
L 402.346877 108.611131 
L 403.744872 104.89002 
L 405.142868 103.729517 
L 406.540864 102.020664 
L 407.93886 90.970509 
L 409.336855 94.114824 
L 410.734851 43.15341 
L 412.132847 39.139581 
L 413.530842 44.875416 
L 414.928838 90.086432 
L 416.326834 91.083024 
L 417.72483 89.36175 
L 417.72483 89.36175 
" clip-path="url(#p38a651fd17)" style="fill: none; stroke: #ffb612; stroke-width: 3; stroke-linecap: square"/>
    <defs>
     <path id="mb44a1accb6" d="M 0 1.5 
C 0.397805 1.5 0.77937 1.341951 1.06066 1.06066 
C 1.341951 0.77937 1.5 0.397805 1.5 0 
C 1.5 -0.397805 1.341951 -0.77937 1.06066 -1.06066 
C 0.77937 -1.341951 0.397805 -1.5 0 -1.5 
C -0.397805 -1.5 -0.77937 -1.341951 -1.06066 -1.06066 
C -1.341951 -0.77937 -1.5 -0.397805 -1.5 0 
C -1.5 0.397805 -1.341951 0.77937 -1.06066 1.06066 
C -0.77937 1.341951 -0.397805 1.5 0 1.5 
z
" style="stroke: #ffb612"/>
    </defs>
    <g clip-path="url(#p38a651fd17)">
     <use xlink:href="#mb44a1accb6" x="62.63392" y="134.930184" style="fill: #ffb612; stroke: #ffb612"/>
     <use xlink:href="#mb44a1accb6" x="64.031916" y="135.586272" style="fill: #ffb612; stroke: #ffb612"/>
     <use xlink:href="#mb44a1accb6" x="65.429912" y="135.36839" style="fill: #ffb612; stroke: #ffb612"/>
     <use xlink:href="#mb44a1accb6" x="66.827908" y="134.835286" style="fill: #ffb612; stroke: #ffb612"/>
     <use xlink:href="#mb44a1accb6" x="68.225903" y="136.510787" style="fill: #ffb612; stroke: #ffb612"/>
     <use xlink:href="#mb44a1accb6" x="69.623899" y="134.93669" style="fill: #ffb612; stroke: #ffb612"/>
     <use xlink:href="#mb44a1accb6" x="71.021895" y="133.982613" style="fill: #ffb612; stroke: #ffb612"/>
     <use xlink:href="#mb44a1accb6" x="72.41989" y="135.944759" style="fill: #ffb612; stroke: #ffb612"/>
     <use xlink:href="#mb44a1accb6" x="73.817886" y="134.632066" style="fill: #ffb612; stroke: #ffb612"/>
     <use xlink:href="#mb44a1accb6" x="75.215882" y="136.169642" style="fill: #ffb612; stroke: #ffb612"/>
     <use xlink:href="#mb44a1accb6" x="76.613878" y="135.319418" style="fill: #ffb612; stroke: #ffb612"/>
     <use xlink:href="#mb44a1accb6" x="78.011873" y="134.194402" style="fill: #ffb612; stroke: #ffb612"/>
     <use xlink:href="#mb44a1accb6" x="79.409869" y="135.108349" style="fill: #ffb612; stroke: #ffb612"/>
     <use xlink:href="#mb44a1accb6" x="80.807865" y="134.788923" style="fill: #ffb612; stroke: #ffb612"/>
     <use xlink:href="#mb44a1accb6" x="82.20586" y="136.186282" style="fill: #ffb612; stroke: #ffb612"/>
     <use xlink:href="#mb44a1accb6" x="83.603856" y="133.884485" style="fill: #ffb612; stroke: #ffb612"/>
     <use xlink:href="#mb44a1accb6" x="85.001852" y="126.542008" style="fill: #ffb612; stroke: #ffb612"/>
     <use xlink:href="#mb44a1accb6" x="86.399847" y="127.626637" style="fill: #ffb612; stroke: #ffb612"/>
     <use xlink:href="#mb44a1accb6" x="87.797843" y="127.738099" style="fill: #ffb612; stroke: #ffb612"/>
     <use xlink:href="#mb44a1accb6" x="89.195839" y="127.391584" style="fill: #ffb612; stroke: #ffb612"/>
     <use xlink:href="#mb44a1accb6" x="90.593835" y="121.043997" style="fill: #ffb612; stroke: #ffb612"/>
     <use xlink:href="#mb44a1accb6" x="91.99183" y="117.388428" style="fill: #ffb612; stroke: #ffb612"/>
     <use xlink:href="#mb44a1accb6" x="93.389826" y="117.122794" style="fill: #ffb612; stroke: #ffb612"/>
     <use xlink:href="#mb44a1accb6" x="94.787822" y="111.06596" style="fill: #ffb612; stroke: #ffb612"/>
     <use xlink:href="#mb44a1accb6" x="96.185817" y="109.480646" style="fill: #ffb612; stroke: #ffb612"/>
     <use xlink:href="#mb44a1accb6" x="97.583813" y="101.494412" style="fill: #ffb612; stroke: #ffb612"/>
     <use xlink:href="#mb44a1accb6" x="98.981809" y="101.17882" style="fill: #ffb612; stroke: #ffb612"/>
     <use xlink:href="#mb44a1accb6" x="100.379804" y="110.901757" style="fill: #ffb612; stroke: #ffb612"/>
     <use xlink:href="#mb44a1accb6" x="101.7778" y="113.133566" style="fill: #ffb612; stroke: #ffb612"/>
     <use xlink:href="#mb44a1accb6" x="103.175796" y="111.177059" style="fill: #ffb612; stroke: #ffb612"/>
     <use xlink:href="#mb44a1accb6" x="104.573792" y="115.010039" style="fill: #ffb612; stroke: #ffb612"/>
     <use xlink:href="#mb44a1accb6" x="105.971787" y="116.364896" style="fill: #ffb612; stroke: #ffb612"/>
     <use xlink:href="#mb44a1accb6" x="107.369783" y="136.439669" style="fill: #ffb612; stroke: #ffb612"/>
     <use xlink:href="#mb44a1accb6" x="108.767779" y="136.211083" style="fill: #ffb612; stroke: #ffb612"/>
     <use xlink:href="#mb44a1accb6" x="110.165774" y="132.207381" style="fill: #ffb612; stroke: #ffb612"/>
     <use xlink:href="#mb44a1accb6" x="111.56377" y="136.663009" style="fill: #ffb612; stroke: #ffb612"/>
     <use xlink:href="#mb44a1accb6" x="112.961766" y="133.969536" style="fill: #ffb612; stroke: #ffb612"/>
     <use xlink:href="#mb44a1accb6" x="114.359762" y="136.120224" style="fill: #ffb612; stroke: #ffb612"/>
     <use xlink:href="#mb44a1accb6" x="115.757757" y="137.575912" style="fill: #ffb612; stroke: #ffb612"/>
     <use xlink:href="#mb44a1accb6" x="117.155753" y="136.592037" style="fill: #ffb612; stroke: #ffb612"/>
     <use xlink:href="#mb44a1accb6" x="118.553749" y="134.703122" style="fill: #ffb612; stroke: #ffb612"/>
     <use xlink:href="#mb44a1accb6" x="119.951744" y="135.728221" style="fill: #ffb612; stroke: #ffb612"/>
     <use xlink:href="#mb44a1accb6" x="121.34974" y="134.301326" style="fill: #ffb612; stroke: #ffb612"/>
     <use xlink:href="#mb44a1accb6" x="122.747736" y="135.945621" style="fill: #ffb612; stroke: #ffb612"/>
     <use xlink:href="#mb44a1accb6" x="124.145731" y="135.42274" style="fill: #ffb612; stroke: #ffb612"/>
     <use xlink:href="#mb44a1accb6" x="125.543727" y="135.231795" style="fill: #ffb612; stroke: #ffb612"/>
     <use xlink:href="#mb44a1accb6" x="126.941723" y="135.387445" style="fill: #ffb612; stroke: #ffb612"/>
     <use xlink:href="#mb44a1accb6" x="128.339719" y="135.960498" style="fill: #ffb612; stroke: #ffb612"/>
     <use xlink:href="#mb44a1accb6" x="129.737714" y="135.872369" style="fill: #ffb612; stroke: #ffb612"/>
     <use xlink:href="#mb44a1accb6" x="131.13571" y="135.782103" style="fill: #ffb612; stroke: #ffb612"/>
     <use xlink:href="#mb44a1accb6" x="132.533706" y="135.500474" style="fill: #ffb612; stroke: #ffb612"/>
     <use xlink:href="#mb44a1accb6" x="133.931701" y="133.514159" style="fill: #ffb612; stroke: #ffb612"/>
     <use xlink:href="#mb44a1accb6" x="135.329697" y="134.982772" style="fill: #ffb612; stroke: #ffb612"/>
     <use xlink:href="#mb44a1accb6" x="136.727693" y="134.945932" style="fill: #ffb612; stroke: #ffb612"/>
     <use xlink:href="#mb44a1accb6" x="138.125689" y="135.212077" style="fill: #ffb612; stroke: #ffb612"/>
     <use xlink:href="#mb44a1accb6" x="139.523684" y="134.8048" style="fill: #ffb612; stroke: #ffb612"/>
     <use xlink:href="#mb44a1accb6" x="140.92168" y="134.042764" style="fill: #ffb612; stroke: #ffb612"/>
     <use xlink:href="#mb44a1accb6" x="142.319676" y="133.578246" style="fill: #ffb612; stroke: #ffb612"/>
     <use xlink:href="#mb44a1accb6" x="143.717671" y="133.795191" style="fill: #ffb612; stroke: #ffb612"/>
     <use xlink:href="#mb44a1accb6" x="145.115667" y="132.272647" style="fill: #ffb612; stroke: #ffb612"/>
     <use xlink:href="#mb44a1accb6" x="146.513663" y="134.187409" style="fill: #ffb612; stroke: #ffb612"/>
     <use xlink:href="#mb44a1accb6" x="147.911658" y="132.271933" style="fill: #ffb612; stroke: #ffb612"/>
     <use xlink:href="#mb44a1accb6" x="149.309654" y="131.422294" style="fill: #ffb612; stroke: #ffb612"/>
     <use xlink:href="#mb44a1accb6" x="150.70765" y="131.385894" style="fill: #ffb612; stroke: #ffb612"/>
     <use xlink:href="#mb44a1accb6" x="152.105646" y="128.632835" style="fill: #ffb612; stroke: #ffb612"/>
     <use xlink:href="#mb44a1accb6" x="153.503641" y="129.180293" style="fill: #ffb612; stroke: #ffb612"/>
     <use xlink:href="#mb44a1accb6" x="154.901637" y="128.858105" style="fill: #ffb612; stroke: #ffb612"/>
     <use xlink:href="#mb44a1accb6" x="156.299633" y="126.818403" style="fill: #ffb612; stroke: #ffb612"/>
     <use xlink:href="#mb44a1accb6" x="157.697628" y="129.087212" style="fill: #ffb612; stroke: #ffb612"/>
     <use xlink:href="#mb44a1accb6" x="159.095624" y="127.192025" style="fill: #ffb612; stroke: #ffb612"/>
     <use xlink:href="#mb44a1accb6" x="160.49362" y="125.539832" style="fill: #ffb612; stroke: #ffb612"/>
     <use xlink:href="#mb44a1accb6" x="161.891616" y="126.988547" style="fill: #ffb612; stroke: #ffb612"/>
     <use xlink:href="#mb44a1accb6" x="163.289611" y="127.95689" style="fill: #ffb612; stroke: #ffb612"/>
     <use xlink:href="#mb44a1accb6" x="164.687607" y="128.192568" style="fill: #ffb612; stroke: #ffb612"/>
     <use xlink:href="#mb44a1accb6" x="166.085603" y="125.193154" style="fill: #ffb612; stroke: #ffb612"/>
     <use xlink:href="#mb44a1accb6" x="167.483598" y="127.872285" style="fill: #ffb612; stroke: #ffb612"/>
     <use xlink:href="#mb44a1accb6" x="168.881594" y="126.141433" style="fill: #ffb612; stroke: #ffb612"/>
     <use xlink:href="#mb44a1accb6" x="170.27959" y="147.712685" style="fill: #ffb612; stroke: #ffb612"/>
     <use xlink:href="#mb44a1accb6" x="171.677585" y="148.573313" style="fill: #ffb612; stroke: #ffb612"/>
     <use xlink:href="#mb44a1accb6" x="173.075581" y="148.950601" style="fill: #ffb612; stroke: #ffb612"/>
     <use xlink:href="#mb44a1accb6" x="174.473577" y="149.438241" style="fill: #ffb612; stroke: #ffb612"/>
     <use xlink:href="#mb44a1accb6" x="175.871573" y="149.740167" style="fill: #ffb612; stroke: #ffb612"/>
     <use xlink:href="#mb44a1accb6" x="177.269568" y="149.712159" style="fill: #ffb612; stroke: #ffb612"/>
     <use xlink:href="#mb44a1accb6" x="178.667564" y="148.871463" style="fill: #ffb612; stroke: #ffb612"/>
     <use xlink:href="#mb44a1accb6" x="180.06556" y="127.309692" style="fill: #ffb612; stroke: #ffb612"/>
     <use xlink:href="#mb44a1accb6" x="181.463555" y="125.391178" style="fill: #ffb612; stroke: #ffb612"/>
     <use xlink:href="#mb44a1accb6" x="182.861551" y="125.817654" style="fill: #ffb612; stroke: #ffb612"/>
     <use xlink:href="#mb44a1accb6" x="184.259547" y="123.472821" style="fill: #ffb612; stroke: #ffb612"/>
     <use xlink:href="#mb44a1accb6" x="185.657543" y="123.282167" style="fill: #ffb612; stroke: #ffb612"/>
     <use xlink:href="#mb44a1accb6" x="187.055538" y="124.546356" style="fill: #ffb612; stroke: #ffb612"/>
     <use xlink:href="#mb44a1accb6" x="188.453534" y="122.814402" style="fill: #ffb612; stroke: #ffb612"/>
     <use xlink:href="#mb44a1accb6" x="189.85153" y="123.452811" style="fill: #ffb612; stroke: #ffb612"/>
     <use xlink:href="#mb44a1accb6" x="191.249525" y="122.745072" style="fill: #ffb612; stroke: #ffb612"/>
     <use xlink:href="#mb44a1accb6" x="192.647521" y="122.048721" style="fill: #ffb612; stroke: #ffb612"/>
     <use xlink:href="#mb44a1accb6" x="194.045517" y="123.118207" style="fill: #ffb612; stroke: #ffb612"/>
     <use xlink:href="#mb44a1accb6" x="195.443512" y="121.335739" style="fill: #ffb612; stroke: #ffb612"/>
     <use xlink:href="#mb44a1accb6" x="196.841508" y="122.218315" style="fill: #ffb612; stroke: #ffb612"/>
     <use xlink:href="#mb44a1accb6" x="198.239504" y="126.284491" style="fill: #ffb612; stroke: #ffb612"/>
     <use xlink:href="#mb44a1accb6" x="199.6375" y="122.581196" style="fill: #ffb612; stroke: #ffb612"/>
     <use xlink:href="#mb44a1accb6" x="201.035495" y="145.85806" style="fill: #ffb612; stroke: #ffb612"/>
     <use xlink:href="#mb44a1accb6" x="202.433491" y="122.776645" style="fill: #ffb612; stroke: #ffb612"/>
     <use xlink:href="#mb44a1accb6" x="203.831487" y="123.056727" style="fill: #ffb612; stroke: #ffb612"/>
     <use xlink:href="#mb44a1accb6" x="205.229482" y="147.525265" style="fill: #ffb612; stroke: #ffb612"/>
     <use xlink:href="#mb44a1accb6" x="206.627478" y="148.028694" style="fill: #ffb612; stroke: #ffb612"/>
     <use xlink:href="#mb44a1accb6" x="208.025474" y="148.598321" style="fill: #ffb612; stroke: #ffb612"/>
     <use xlink:href="#mb44a1accb6" x="209.423469" y="149.088978" style="fill: #ffb612; stroke: #ffb612"/>
     <use xlink:href="#mb44a1accb6" x="210.821465" y="148.653474" style="fill: #ffb612; stroke: #ffb612"/>
     <use xlink:href="#mb44a1accb6" x="212.219461" y="148.706223" style="fill: #ffb612; stroke: #ffb612"/>
     <use xlink:href="#mb44a1accb6" x="213.617457" y="148.948961" style="fill: #ffb612; stroke: #ffb612"/>
     <use xlink:href="#mb44a1accb6" x="215.015452" y="149.52029" style="fill: #ffb612; stroke: #ffb612"/>
     <use xlink:href="#mb44a1accb6" x="216.413448" y="148.831076" style="fill: #ffb612; stroke: #ffb612"/>
     <use xlink:href="#mb44a1accb6" x="217.811444" y="148.37381" style="fill: #ffb612; stroke: #ffb612"/>
     <use xlink:href="#mb44a1accb6" x="219.209439" y="148.439639" style="fill: #ffb612; stroke: #ffb612"/>
     <use xlink:href="#mb44a1accb6" x="220.607435" y="147.783225" style="fill: #ffb612; stroke: #ffb612"/>
     <use xlink:href="#mb44a1accb6" x="222.005431" y="148.458424" style="fill: #ffb612; stroke: #ffb612"/>
     <use xlink:href="#mb44a1accb6" x="223.403427" y="148.679232" style="fill: #ffb612; stroke: #ffb612"/>
     <use xlink:href="#mb44a1accb6" x="224.801422" y="147.721558" style="fill: #ffb612; stroke: #ffb612"/>
     <use xlink:href="#mb44a1accb6" x="226.199418" y="147.420202" style="fill: #ffb612; stroke: #ffb612"/>
     <use xlink:href="#mb44a1accb6" x="227.597414" y="147.420429" style="fill: #ffb612; stroke: #ffb612"/>
     <use xlink:href="#mb44a1accb6" x="228.995409" y="146.617917" style="fill: #ffb612; stroke: #ffb612"/>
     <use xlink:href="#mb44a1accb6" x="230.393405" y="147.056883" style="fill: #ffb612; stroke: #ffb612"/>
     <use xlink:href="#mb44a1accb6" x="231.791401" y="146.905837" style="fill: #ffb612; stroke: #ffb612"/>
     <use xlink:href="#mb44a1accb6" x="233.189396" y="146.168957" style="fill: #ffb612; stroke: #ffb612"/>
     <use xlink:href="#mb44a1accb6" x="234.587392" y="122.454755" style="fill: #ffb612; stroke: #ffb612"/>
     <use xlink:href="#mb44a1accb6" x="235.985388" y="120.752331" style="fill: #ffb612; stroke: #ffb612"/>
     <use xlink:href="#mb44a1accb6" x="237.383384" y="126.260121" style="fill: #ffb612; stroke: #ffb612"/>
     <use xlink:href="#mb44a1accb6" x="238.781379" y="123.942737" style="fill: #ffb612; stroke: #ffb612"/>
     <use xlink:href="#mb44a1accb6" x="240.179375" y="146.240653" style="fill: #ffb612; stroke: #ffb612"/>
     <use xlink:href="#mb44a1accb6" x="241.577371" y="146.394896" style="fill: #ffb612; stroke: #ffb612"/>
     <use xlink:href="#mb44a1accb6" x="242.975366" y="145.451802" style="fill: #ffb612; stroke: #ffb612"/>
     <use xlink:href="#mb44a1accb6" x="244.373362" y="123.233741" style="fill: #ffb612; stroke: #ffb612"/>
     <use xlink:href="#mb44a1accb6" x="245.771358" y="120.993637" style="fill: #ffb612; stroke: #ffb612"/>
     <use xlink:href="#mb44a1accb6" x="247.169354" y="120.899845" style="fill: #ffb612; stroke: #ffb612"/>
     <use xlink:href="#mb44a1accb6" x="248.567349" y="121.265423" style="fill: #ffb612; stroke: #ffb612"/>
     <use xlink:href="#mb44a1accb6" x="249.965345" y="123.094408" style="fill: #ffb612; stroke: #ffb612"/>
     <use xlink:href="#mb44a1accb6" x="251.363341" y="123.266826" style="fill: #ffb612; stroke: #ffb612"/>
     <use xlink:href="#mb44a1accb6" x="252.761336" y="126.100031" style="fill: #ffb612; stroke: #ffb612"/>
     <use xlink:href="#mb44a1accb6" x="254.159332" y="147.000798" style="fill: #ffb612; stroke: #ffb612"/>
     <use xlink:href="#mb44a1accb6" x="255.557328" y="125.072654" style="fill: #ffb612; stroke: #ffb612"/>
     <use xlink:href="#mb44a1accb6" x="256.955323" y="126.297135" style="fill: #ffb612; stroke: #ffb612"/>
     <use xlink:href="#mb44a1accb6" x="258.353319" y="124.317624" style="fill: #ffb612; stroke: #ffb612"/>
     <use xlink:href="#mb44a1accb6" x="259.751315" y="123.240695" style="fill: #ffb612; stroke: #ffb612"/>
     <use xlink:href="#mb44a1accb6" x="261.149311" y="124.663268" style="fill: #ffb612; stroke: #ffb612"/>
     <use xlink:href="#mb44a1accb6" x="262.547306" y="121.858805" style="fill: #ffb612; stroke: #ffb612"/>
     <use xlink:href="#mb44a1accb6" x="263.945302" y="145.720755" style="fill: #ffb612; stroke: #ffb612"/>
     <use xlink:href="#mb44a1accb6" x="265.343298" y="147.383839" style="fill: #ffb612; stroke: #ffb612"/>
     <use xlink:href="#mb44a1accb6" x="266.741293" y="122.069676" style="fill: #ffb612; stroke: #ffb612"/>
     <use xlink:href="#mb44a1accb6" x="268.139289" y="119.960308" style="fill: #ffb612; stroke: #ffb612"/>
     <use xlink:href="#mb44a1accb6" x="269.537285" y="120.423385" style="fill: #ffb612; stroke: #ffb612"/>
     <use xlink:href="#mb44a1accb6" x="270.935281" y="121.084371" style="fill: #ffb612; stroke: #ffb612"/>
     <use xlink:href="#mb44a1accb6" x="272.333276" y="114.251007" style="fill: #ffb612; stroke: #ffb612"/>
     <use xlink:href="#mb44a1accb6" x="273.731272" y="109.581175" style="fill: #ffb612; stroke: #ffb612"/>
     <use xlink:href="#mb44a1accb6" x="275.129268" y="113.933338" style="fill: #ffb612; stroke: #ffb612"/>
     <use xlink:href="#mb44a1accb6" x="276.527263" y="113.889118" style="fill: #ffb612; stroke: #ffb612"/>
     <use xlink:href="#mb44a1accb6" x="277.925259" y="111.743035" style="fill: #ffb612; stroke: #ffb612"/>
     <use xlink:href="#mb44a1accb6" x="279.323255" y="111.924711" style="fill: #ffb612; stroke: #ffb612"/>
     <use xlink:href="#mb44a1accb6" x="280.72125" y="107.087689" style="fill: #ffb612; stroke: #ffb612"/>
     <use xlink:href="#mb44a1accb6" x="282.119246" y="69.828734" style="fill: #ffb612; stroke: #ffb612"/>
     <use xlink:href="#mb44a1accb6" x="283.517242" y="27.770458" style="fill: #ffb612; stroke: #ffb612"/>
     <use xlink:href="#mb44a1accb6" x="284.915238" y="24.362948" style="fill: #ffb612; stroke: #ffb612"/>
     <use xlink:href="#mb44a1accb6" x="286.313233" y="66.11171" style="fill: #ffb612; stroke: #ffb612"/>
     <use xlink:href="#mb44a1accb6" x="287.711229" y="69.060291" style="fill: #ffb612; stroke: #ffb612"/>
     <use xlink:href="#mb44a1accb6" x="289.109225" y="72.424752" style="fill: #ffb612; stroke: #ffb612"/>
     <use xlink:href="#mb44a1accb6" x="290.50722" y="73.996122" style="fill: #ffb612; stroke: #ffb612"/>
     <use xlink:href="#mb44a1accb6" x="291.905216" y="102.730831" style="fill: #ffb612; stroke: #ffb612"/>
     <use xlink:href="#mb44a1accb6" x="293.303212" y="108.768425" style="fill: #ffb612; stroke: #ffb612"/>
     <use xlink:href="#mb44a1accb6" x="294.701207" y="108.382422" style="fill: #ffb612; stroke: #ffb612"/>
     <use xlink:href="#mb44a1accb6" x="296.099203" y="108.970535" style="fill: #ffb612; stroke: #ffb612"/>
     <use xlink:href="#mb44a1accb6" x="297.497199" y="109.446295" style="fill: #ffb612; stroke: #ffb612"/>
     <use xlink:href="#mb44a1accb6" x="298.895195" y="107.836749" style="fill: #ffb612; stroke: #ffb612"/>
     <use xlink:href="#mb44a1accb6" x="300.29319" y="111.271659" style="fill: #ffb612; stroke: #ffb612"/>
     <use xlink:href="#mb44a1accb6" x="301.691186" y="117.58674" style="fill: #ffb612; stroke: #ffb612"/>
     <use xlink:href="#mb44a1accb6" x="303.089182" y="118.152139" style="fill: #ffb612; stroke: #ffb612"/>
     <use xlink:href="#mb44a1accb6" x="304.487177" y="120.695358" style="fill: #ffb612; stroke: #ffb612"/>
     <use xlink:href="#mb44a1accb6" x="305.885173" y="124.170073" style="fill: #ffb612; stroke: #ffb612"/>
     <use xlink:href="#mb44a1accb6" x="307.283169" y="124.84703" style="fill: #ffb612; stroke: #ffb612"/>
     <use xlink:href="#mb44a1accb6" x="308.681165" y="124.669943" style="fill: #ffb612; stroke: #ffb612"/>
     <use xlink:href="#mb44a1accb6" x="310.07916" y="124.131193" style="fill: #ffb612; stroke: #ffb612"/>
     <use xlink:href="#mb44a1accb6" x="311.477156" y="148.415825" style="fill: #ffb612; stroke: #ffb612"/>
     <use xlink:href="#mb44a1accb6" x="312.875152" y="148.351795" style="fill: #ffb612; stroke: #ffb612"/>
     <use xlink:href="#mb44a1accb6" x="314.273147" y="148.034042" style="fill: #ffb612; stroke: #ffb612"/>
     <use xlink:href="#mb44a1accb6" x="315.671143" y="126.931482" style="fill: #ffb612; stroke: #ffb612"/>
     <use xlink:href="#mb44a1accb6" x="317.069139" y="147.511072" style="fill: #ffb612; stroke: #ffb612"/>
     <use xlink:href="#mb44a1accb6" x="318.467134" y="147.474841" style="fill: #ffb612; stroke: #ffb612"/>
     <use xlink:href="#mb44a1accb6" x="319.86513" y="148.021265" style="fill: #ffb612; stroke: #ffb612"/>
     <use xlink:href="#mb44a1accb6" x="321.263126" y="146.858022" style="fill: #ffb612; stroke: #ffb612"/>
     <use xlink:href="#mb44a1accb6" x="322.661122" y="127.114535" style="fill: #ffb612; stroke: #ffb612"/>
     <use xlink:href="#mb44a1accb6" x="324.059117" y="146.328405" style="fill: #ffb612; stroke: #ffb612"/>
     <use xlink:href="#mb44a1accb6" x="325.457113" y="124.286731" style="fill: #ffb612; stroke: #ffb612"/>
     <use xlink:href="#mb44a1accb6" x="326.855109" y="125.056512" style="fill: #ffb612; stroke: #ffb612"/>
     <use xlink:href="#mb44a1accb6" x="328.253104" y="124.779318" style="fill: #ffb612; stroke: #ffb612"/>
     <use xlink:href="#mb44a1accb6" x="329.6511" y="125.238014" style="fill: #ffb612; stroke: #ffb612"/>
     <use xlink:href="#mb44a1accb6" x="331.049096" y="100.7052" style="fill: #ffb612; stroke: #ffb612"/>
     <use xlink:href="#mb44a1accb6" x="332.447092" y="118.794797" style="fill: #ffb612; stroke: #ffb612"/>
     <use xlink:href="#mb44a1accb6" x="333.845087" y="120.149296" style="fill: #ffb612; stroke: #ffb612"/>
     <use xlink:href="#mb44a1accb6" x="335.243083" y="119.515279" style="fill: #ffb612; stroke: #ffb612"/>
     <use xlink:href="#mb44a1accb6" x="336.641079" y="119.168057" style="fill: #ffb612; stroke: #ffb612"/>
     <use xlink:href="#mb44a1accb6" x="338.039074" y="118.251128" style="fill: #ffb612; stroke: #ffb612"/>
     <use xlink:href="#mb44a1accb6" x="339.43707" y="100.432033" style="fill: #ffb612; stroke: #ffb612"/>
     <use xlink:href="#mb44a1accb6" x="340.835066" y="120.47544" style="fill: #ffb612; stroke: #ffb612"/>
     <use xlink:href="#mb44a1accb6" x="342.233061" y="122.487072" style="fill: #ffb612; stroke: #ffb612"/>
     <use xlink:href="#mb44a1accb6" x="343.631057" y="123.453494" style="fill: #ffb612; stroke: #ffb612"/>
     <use xlink:href="#mb44a1accb6" x="345.029053" y="122.680481" style="fill: #ffb612; stroke: #ffb612"/>
     <use xlink:href="#mb44a1accb6" x="346.427049" y="123.519208" style="fill: #ffb612; stroke: #ffb612"/>
     <use xlink:href="#mb44a1accb6" x="347.825044" y="146.147531" style="fill: #ffb612; stroke: #ffb612"/>
     <use xlink:href="#mb44a1accb6" x="349.22304" y="125.037046" style="fill: #ffb612; stroke: #ffb612"/>
     <use xlink:href="#mb44a1accb6" x="350.621036" y="125.823896" style="fill: #ffb612; stroke: #ffb612"/>
     <use xlink:href="#mb44a1accb6" x="352.019031" y="155.606367" style="fill: #ffb612; stroke: #ffb612"/>
     <use xlink:href="#mb44a1accb6" x="353.417027" y="155.923908" style="fill: #ffb612; stroke: #ffb612"/>
     <use xlink:href="#mb44a1accb6" x="354.815023" y="155.811387" style="fill: #ffb612; stroke: #ffb612"/>
     <use xlink:href="#mb44a1accb6" x="356.213019" y="155.782607" style="fill: #ffb612; stroke: #ffb612"/>
     <use xlink:href="#mb44a1accb6" x="357.611014" y="156.211884" style="fill: #ffb612; stroke: #ffb612"/>
     <use xlink:href="#mb44a1accb6" x="359.00901" y="156.352109" style="fill: #ffb612; stroke: #ffb612"/>
     <use xlink:href="#mb44a1accb6" x="360.407006" y="156.559691" style="fill: #ffb612; stroke: #ffb612"/>
     <use xlink:href="#mb44a1accb6" x="361.805001" y="156.490895" style="fill: #ffb612; stroke: #ffb612"/>
     <use xlink:href="#mb44a1accb6" x="363.202997" y="156.512283" style="fill: #ffb612; stroke: #ffb612"/>
     <use xlink:href="#mb44a1accb6" x="364.600993" y="156.805429" style="fill: #ffb612; stroke: #ffb612"/>
     <use xlink:href="#mb44a1accb6" x="365.998988" y="156.51567" style="fill: #ffb612; stroke: #ffb612"/>
     <use xlink:href="#mb44a1accb6" x="367.396984" y="157.552008" style="fill: #ffb612; stroke: #ffb612"/>
     <use xlink:href="#mb44a1accb6" x="368.79498" y="156.433821" style="fill: #ffb612; stroke: #ffb612"/>
     <use xlink:href="#mb44a1accb6" x="370.192976" y="155.810318" style="fill: #ffb612; stroke: #ffb612"/>
     <use xlink:href="#mb44a1accb6" x="371.590971" y="154.566881" style="fill: #ffb612; stroke: #ffb612"/>
     <use xlink:href="#mb44a1accb6" x="372.988967" y="155.138952" style="fill: #ffb612; stroke: #ffb612"/>
     <use xlink:href="#mb44a1accb6" x="374.386963" y="155.257498" style="fill: #ffb612; stroke: #ffb612"/>
     <use xlink:href="#mb44a1accb6" x="375.784958" y="154.953883" style="fill: #ffb612; stroke: #ffb612"/>
     <use xlink:href="#mb44a1accb6" x="377.182954" y="155.415947" style="fill: #ffb612; stroke: #ffb612"/>
     <use xlink:href="#mb44a1accb6" x="378.58095" y="155.388226" style="fill: #ffb612; stroke: #ffb612"/>
     <use xlink:href="#mb44a1accb6" x="379.978946" y="150.082162" style="fill: #ffb612; stroke: #ffb612"/>
     <use xlink:href="#mb44a1accb6" x="381.376941" y="150.434621" style="fill: #ffb612; stroke: #ffb612"/>
     <use xlink:href="#mb44a1accb6" x="382.774937" y="150.187582" style="fill: #ffb612; stroke: #ffb612"/>
     <use xlink:href="#mb44a1accb6" x="384.172933" y="149.593863" style="fill: #ffb612; stroke: #ffb612"/>
     <use xlink:href="#mb44a1accb6" x="385.570928" y="149.379356" style="fill: #ffb612; stroke: #ffb612"/>
     <use xlink:href="#mb44a1accb6" x="386.968924" y="144.679333" style="fill: #ffb612; stroke: #ffb612"/>
     <use xlink:href="#mb44a1accb6" x="388.36692" y="145.489684" style="fill: #ffb612; stroke: #ffb612"/>
     <use xlink:href="#mb44a1accb6" x="389.764915" y="118.938598" style="fill: #ffb612; stroke: #ffb612"/>
     <use xlink:href="#mb44a1accb6" x="391.162911" y="120.531416" style="fill: #ffb612; stroke: #ffb612"/>
     <use xlink:href="#mb44a1accb6" x="392.560907" y="118.902196" style="fill: #ffb612; stroke: #ffb612"/>
     <use xlink:href="#mb44a1accb6" x="393.958903" y="118.399816" style="fill: #ffb612; stroke: #ffb612"/>
     <use xlink:href="#mb44a1accb6" x="395.356898" y="118.602743" style="fill: #ffb612; stroke: #ffb612"/>
     <use xlink:href="#mb44a1accb6" x="396.754894" y="114.035416" style="fill: #ffb612; stroke: #ffb612"/>
     <use xlink:href="#mb44a1accb6" x="398.15289" y="113.74221" style="fill: #ffb612; stroke: #ffb612"/>
     <use xlink:href="#mb44a1accb6" x="399.550885" y="113.357732" style="fill: #ffb612; stroke: #ffb612"/>
     <use xlink:href="#mb44a1accb6" x="400.948881" y="106.21476" style="fill: #ffb612; stroke: #ffb612"/>
     <use xlink:href="#mb44a1accb6" x="402.346877" y="108.611131" style="fill: #ffb612; stroke: #ffb612"/>
     <use xlink:href="#mb44a1accb6" x="403.744872" y="104.89002" style="fill: #ffb612; stroke: #ffb612"/>
     <use xlink:href="#mb44a1accb6" x="405.142868" y="103.729517" style="fill: #ffb612; stroke: #ffb612"/>
     <use xlink:href="#mb44a1accb6" x="406.540864" y="102.020664" style="fill: #ffb612; stroke: #ffb612"/>
     <use xlink:href="#mb44a1accb6" x="407.93886" y="90.970509" style="fill: #ffb612; stroke: #ffb612"/>
     <use xlink:href="#mb44a1accb6" x="409.336855" y="94.114824" style="fill: #ffb612; stroke: #ffb612"/>
     <use xlink:href="#mb44a1accb6" x="410.734851" y="43.15341" style="fill: #ffb612; stroke: #ffb612"/>
     <use xlink:href="#mb44a1accb6" x="412.132847" y="39.139581" style="fill: #ffb612; stroke: #ffb612"/>
     <use xlink:href="#mb44a1accb6" x="413.530842" y="44.875416" style="fill: #ffb612; stroke: #ffb612"/>
     <use xlink:href="#mb44a1accb6" x="414.928838" y="90.086432" style="fill: #ffb612; stroke: #ffb612"/>
     <use xlink:href="#mb44a1accb6" x="416.326834" y="91.083024" style="fill: #ffb612; stroke: #ffb612"/>
     <use xlink:href="#mb44a1accb6" x="417.72483" y="89.36175" style="fill: #ffb612; stroke: #ffb612"/>
    </g>
   </g>
   <g id="line2d_30">
    <path d="M 62.63392 134.892535 
L 64.031916 134.502659 
L 65.429912 130.101559 
L 66.827908 131.919833 
L 68.225903 131.356552 
L 69.623899 131.485156 
L 71.021895 134.86452 
L 72.41989 134.357832 
L 73.817886 134.958313 
L 75.215882 135.270454 
L 76.613878 137.988603 
L 78.011873 138.34544 
L 79.409869 137.391668 
L 80.807865 135.311208 
L 82.20586 130.569448 
L 83.603856 129.653033 
L 85.001852 129.346932 
L 86.399847 128.287067 
L 87.797843 129.13892 
L 89.195839 129.52181 
L 90.593835 127.331077 
L 91.99183 124.633259 
L 93.389826 124.931757 
L 94.787822 124.215376 
L 96.185817 117.317136 
L 97.583813 115.778873 
L 98.981809 113.097267 
L 100.379804 116.976585 
L 101.7778 120.055024 
L 103.175796 119.21529 
L 104.573792 121.309351 
L 105.971787 121.811221 
L 107.369783 129.250353 
L 108.767779 133.509371 
L 110.165774 131.870923 
L 111.56377 135.774505 
L 112.961766 133.660529 
L 114.359762 135.019272 
L 115.757757 130.781924 
L 117.155753 136.21368 
L 118.553749 139.775552 
L 119.951744 140.484771 
L 122.747736 140.545262 
L 124.145731 140.497748 
L 125.543727 145.470404 
L 126.941723 143.325923 
L 128.339719 143.712245 
L 129.737714 143.361167 
L 131.13571 145.229518 
L 132.533706 145.396013 
L 133.931701 144.472859 
L 135.329697 145.496307 
L 136.727693 143.379329 
L 138.125689 140.631754 
L 139.523684 141.700402 
L 140.92168 147.805875 
L 142.319676 148.874471 
L 143.717671 148.214109 
L 145.115667 145.356057 
L 146.513663 145.005659 
L 147.911658 142.78621 
L 149.309654 141.835301 
L 150.70765 139.96423 
L 152.105646 139.175569 
L 153.503641 139.074369 
L 154.901637 135.474997 
L 156.299633 138.286808 
L 157.697628 138.823295 
L 159.095624 146.032511 
L 160.49362 146.025288 
L 161.891616 143.983732 
L 163.289611 143.264655 
L 164.687607 144.340992 
L 166.085603 144.73634 
L 167.483598 144.53913 
L 168.881594 143.173543 
L 170.27959 147.002107 
L 171.677585 147.454947 
L 173.075581 147.172983 
L 174.473577 148.079547 
L 175.871573 148.530721 
L 177.269568 148.3378 
L 178.667564 145.263329 
L 180.06556 144.675653 
L 181.463555 142.197061 
L 182.861551 142.604348 
L 184.259547 141.547529 
L 185.657543 139.336001 
L 187.055538 139.387279 
L 188.453534 140.270019 
L 189.85153 139.638909 
L 191.249525 137.899044 
L 192.647521 137.008233 
L 194.045517 140.384045 
L 195.443512 137.884097 
L 196.841508 141.479737 
L 198.239504 142.949322 
L 199.6375 143.508547 
L 201.035495 144.227939 
L 202.433491 142.347331 
L 203.831487 143.850084 
L 205.229482 147.090467 
L 206.627478 147.82983 
L 209.423469 150.144808 
L 210.821465 149.35534 
L 213.617457 149.855716 
L 215.015452 151.786988 
L 216.413448 149.802695 
L 217.811444 148.930293 
L 219.209439 148.859161 
L 220.607435 148.120307 
L 222.005431 148.766174 
L 223.403427 148.45725 
L 224.801422 146.886388 
L 226.199418 146.526528 
L 227.597414 146.381985 
L 228.995409 143.948676 
L 230.393405 145.342156 
L 231.791401 145.096658 
L 233.189396 144.010438 
L 234.587392 140.611465 
L 235.985388 142.997333 
L 237.383384 142.868714 
L 238.781379 142.09744 
L 240.179375 145.171719 
L 241.577371 145.141461 
L 242.975366 144.463618 
L 244.373362 143.140273 
L 245.771358 142.120871 
L 247.169354 140.922544 
L 248.567349 140.546245 
L 249.965345 140.428888 
L 251.363341 140.058704 
L 252.761336 143.08165 
L 254.159332 144.195748 
L 255.557328 143.887231 
L 256.955323 143.35923 
L 258.353319 143.799454 
L 259.751315 140.877597 
L 261.149311 141.434746 
L 262.547306 140.937524 
L 263.945302 144.572248 
L 265.343298 145.321843 
L 266.741293 137.663449 
L 268.139289 137.697879 
L 269.537285 135.357229 
L 270.935281 135.647455 
L 272.333276 116.386224 
L 273.731272 105.070114 
L 275.129268 110.799032 
L 276.527263 115.299228 
L 277.925259 109.29841 
L 279.323255 106.255058 
L 280.72125 94.386424 
L 282.119246 65.639411 
L 283.517242 29.498282 
L 284.915238 21.186894 
L 286.313233 53.834114 
L 287.711229 66.089572 
L 289.109225 87.228008 
L 290.50722 83.151572 
L 291.905216 92.933582 
L 293.303212 100.98765 
L 294.701207 102.775697 
L 296.099203 108.778376 
L 297.497199 108.849322 
L 298.895195 112.240978 
L 300.29319 116.583962 
L 301.691186 129.790099 
L 303.089182 133.742433 
L 304.487177 134.561819 
L 305.885173 140.436132 
L 307.283169 141.329733 
L 310.07916 141.453218 
L 311.477156 145.515209 
L 312.875152 145.474226 
L 314.273147 144.875285 
L 315.671143 144.100312 
L 317.069139 144.151427 
L 318.467134 144.9622 
L 319.86513 146.716165 
L 321.263126 145.221019 
L 322.661122 144.459676 
L 324.059117 145.028791 
L 325.457113 140.150839 
L 326.855109 136.897086 
L 328.253104 136.679312 
L 329.6511 136.952761 
L 331.049096 108.53501 
L 332.447092 124.458947 
L 333.845087 119.398886 
L 335.243083 119.907086 
L 336.641079 119.94462 
L 338.039074 120.732202 
L 339.43707 111.541927 
L 340.835066 118.299215 
L 342.233061 127.464791 
L 343.631057 134.41163 
L 345.029053 133.326191 
L 346.427049 133.341312 
L 347.825044 146.190359 
L 349.22304 142.279868 
L 350.621036 144.503016 
L 352.019031 154.699316 
L 353.417027 155.210923 
L 354.815023 154.779446 
L 356.213019 154.799236 
L 357.611014 155.378509 
L 359.00901 155.564714 
L 360.407006 155.875228 
L 361.805001 155.563042 
L 363.202997 155.5193 
L 364.600993 155.339149 
L 365.998988 155.355255 
L 367.396984 156.143796 
L 368.79498 156.349708 
L 370.192976 156.333947 
L 371.590971 154.226081 
L 372.988967 154.556819 
L 374.386963 154.183524 
L 375.784958 154.195202 
L 378.58095 153.225553 
L 379.978946 152.12777 
L 381.376941 151.756869 
L 384.172933 150.130891 
L 385.570928 150.137187 
L 386.968924 143.576894 
L 388.36692 144.3555 
L 389.764915 140.681023 
L 391.162911 139.039784 
L 392.560907 133.595718 
L 393.958903 131.241117 
L 395.356898 131.267163 
L 396.754894 124.133134 
L 398.15289 119.883176 
L 399.550885 116.430491 
L 402.346877 100.409838 
L 403.744872 99.170855 
L 405.142868 99.172192 
L 406.540864 100.533155 
L 407.93886 75.517971 
L 409.336855 83.987356 
L 410.734851 58.194916 
L 412.132847 55.376024 
L 413.530842 59.347856 
L 414.928838 74.168515 
L 416.326834 74.787551 
L 417.72483 74.953242 
L 417.72483 74.953242 
" clip-path="url(#p38a651fd17)" style="fill: none; stroke-dasharray: 5.55,2.4; stroke-dashoffset: 0; stroke: #000000; stroke-width: 1.5"/>
   </g>
   <g id="patch_3">
    <path d="M 44.879375 166.32 
L 44.879375 -0 
" style="fill: none; stroke: #ffffff; stroke-linejoin: miter; stroke-linecap: square"/>
   </g>
   <g id="patch_4">
    <path d="M 435.479375 166.32 
L 435.479375 -0 
" style="fill: none; stroke: #ffffff; stroke-linejoin: miter; stroke-linecap: square"/>
   </g>
   <g id="patch_5">
    <path d="M 44.879375 166.32 
L 435.479375 166.32 
" style="fill: none; stroke: #ffffff; stroke-linejoin: miter; stroke-linecap: square"/>
   </g>
   <g id="patch_6">
    <path d="M 44.879375 -0 
L 435.479375 -0 
" style="fill: none; stroke: #ffffff; stroke-linejoin: miter; stroke-linecap: square"/>
   </g>
   <g id="legend_1">
    <g id="patch_7">
     <path d="M 51.879375 60.378125 
L 203.92625 60.378125 
Q 205.92625 60.378125 205.92625 58.378125 
L 205.92625 7 
Q 205.92625 5 203.92625 5 
L 51.879375 5 
Q 49.879375 5 49.879375 7 
L 49.879375 58.378125 
Q 49.879375 60.378125 51.879375 60.378125 
z
" style="fill: #e5e5e5; opacity: 0.8; stroke: #cccccc; stroke-width: 0.5; stroke-linejoin: miter"/>
    </g>
    <g id="line2d_31">
     <path d="M 53.879375 15.5 
L 63.879375 15.5 
L 73.879375 15.5 
" style="fill: none; stroke: #ffb612; stroke-width: 3; stroke-linecap: square"/>
     <g>
      <use xlink:href="#mb44a1accb6" x="63.879375" y="15.5" style="fill: #ffb612; stroke: #ffb612"/>
     </g>
    </g>
    <g id="text_17">
     <!-- Private Value $\tilde{R}_{\chi_3,\chi_1}^t$ -->
     <g transform="translate(81.879375 19) scale(0.1 -0.1)">
      <defs>
       <path id="DejaVuSans-50" d="M 1259 4147 
L 1259 2394 
L 2053 2394 
Q 2494 2394 2734 2622 
Q 2975 2850 2975 3272 
Q 2975 3691 2734 3919 
Q 2494 4147 2053 4147 
L 1259 4147 
z
M 628 4666 
L 2053 4666 
Q 2838 4666 3239 4311 
Q 3641 3956 3641 3272 
Q 3641 2581 3239 2228 
Q 2838 1875 2053 1875 
L 1259 1875 
L 1259 0 
L 628 0 
L 628 4666 
z
" transform="scale(0.015625)"/>
       <path id="DejaVuSans-72" d="M 2631 2963 
Q 2534 3019 2420 3045 
Q 2306 3072 2169 3072 
Q 1681 3072 1420 2755 
Q 1159 2438 1159 1844 
L 1159 0 
L 581 0 
L 581 3500 
L 1159 3500 
L 1159 2956 
Q 1341 3275 1631 3429 
Q 1922 3584 2338 3584 
Q 2397 3584 2469 3576 
Q 2541 3569 2628 3553 
L 2631 2963 
z
" transform="scale(0.015625)"/>
       <path id="DejaVuSans-69" d="M 603 3500 
L 1178 3500 
L 1178 0 
L 603 0 
L 603 3500 
z
M 603 4863 
L 1178 4863 
L 1178 4134 
L 603 4134 
L 603 4863 
z
" transform="scale(0.015625)"/>
       <path id="DejaVuSans-76" d="M 191 3500 
L 800 3500 
L 1894 563 
L 2988 3500 
L 3597 3500 
L 2284 0 
L 1503 0 
L 191 3500 
z
" transform="scale(0.015625)"/>
       <path id="DejaVuSans-20" transform="scale(0.015625)"/>
       <path id="DejaVuSans-303" d="M -1621 4281 
L -1799 4453 
Q -1867 4516 -1919 4545 
Q -1971 4575 -2011 4575 
Q -2130 4575 -2186 4461 
Q -2242 4347 -2249 4091 
L -2639 4091 
Q -2633 4513 -2473 4742 
Q -2314 4972 -2030 4972 
Q -1911 4972 -1811 4928 
Q -1711 4884 -1596 4781 
L -1417 4609 
Q -1349 4547 -1297 4517 
Q -1246 4488 -1205 4488 
Q -1086 4488 -1030 4602 
Q -974 4716 -967 4972 
L -577 4972 
Q -583 4550 -742 4320 
Q -902 4091 -1186 4091 
Q -1305 4091 -1405 4134 
Q -1505 4178 -1621 4281 
z
" transform="scale(0.015625)"/>
       <path id="DejaVuSans-Oblique-52" d="M 1613 4147 
L 1294 2491 
L 2106 2491 
Q 2584 2491 2879 2755 
Q 3175 3019 3175 3444 
Q 3175 3784 2976 3965 
Q 2778 4147 2406 4147 
L 1613 4147 
z
M 2772 2241 
Q 2972 2194 3105 2009 
Q 3238 1825 3413 1275 
L 3809 0 
L 3144 0 
L 2778 1197 
Q 2638 1659 2453 1815 
Q 2269 1972 1888 1972 
L 1191 1972 
L 806 0 
L 172 0 
L 1081 4666 
L 2503 4666 
Q 3150 4666 3495 4373 
Q 3841 4081 3841 3531 
Q 3841 3044 3547 2687 
Q 3253 2331 2772 2241 
z
" transform="scale(0.015625)"/>
       <path id="DejaVuSans-Oblique-74" d="M 2706 3500 
L 2619 3053 
L 1472 3053 
L 1100 1153 
Q 1081 1047 1072 975 
Q 1063 903 1063 863 
Q 1063 663 1183 572 
Q 1303 481 1569 481 
L 2150 481 
L 2053 0 
L 1503 0 
Q 991 0 739 200 
Q 488 400 488 806 
Q 488 878 497 964 
Q 506 1050 525 1153 
L 897 3053 
L 409 3053 
L 500 3500 
L 978 3500 
L 1172 4494 
L 1747 4494 
L 1556 3500 
L 2706 3500 
z
" transform="scale(0.015625)"/>
       <path id="DejaVuSans-Oblique-3c7" d="M 1922 -781 
L 1691 416 
L 394 -1334 
L -284 -1334 
L 1553 1141 
L 1269 2613 
Q 1194 3006 713 3006 
L 559 3006 
L 653 3500 
L 872 3494 
Q 1675 3472 1775 2950 
L 2006 1753 
L 3303 3503 
L 3981 3503 
L 2144 1028 
L 2428 -444 
Q 2503 -838 2984 -838 
L 3138 -838 
L 3044 -1331 
L 2825 -1325 
Q 2022 -1303 1922 -781 
z
" transform="scale(0.015625)"/>
       <path id="DejaVuSans-2c" d="M 750 794 
L 1409 794 
L 1409 256 
L 897 -744 
L 494 -744 
L 750 256 
L 750 794 
z
" transform="scale(0.015625)"/>
      </defs>
      <use xlink:href="#DejaVuSans-50" transform="translate(0 0.828125)"/>
      <use xlink:href="#DejaVuSans-72" transform="translate(60.302734 0.828125)"/>
      <use xlink:href="#DejaVuSans-69" transform="translate(101.416016 0.828125)"/>
      <use xlink:href="#DejaVuSans-76" transform="translate(129.199219 0.828125)"/>
      <use xlink:href="#DejaVuSans-61" transform="translate(188.378906 0.828125)"/>
      <use xlink:href="#DejaVuSans-74" transform="translate(249.658203 0.828125)"/>
      <use xlink:href="#DejaVuSans-65" transform="translate(288.867188 0.828125)"/>
      <use xlink:href="#DejaVuSans-20" transform="translate(350.390625 0.828125)"/>
      <use xlink:href="#DejaVuSans-56" transform="translate(382.177734 0.828125)"/>
      <use xlink:href="#DejaVuSans-61" transform="translate(450.585938 0.828125)"/>
      <use xlink:href="#DejaVuSans-6c" transform="translate(511.865234 0.828125)"/>
      <use xlink:href="#DejaVuSans-75" transform="translate(539.648438 0.828125)"/>
      <use xlink:href="#DejaVuSans-65" transform="translate(603.027344 0.828125)"/>
      <use xlink:href="#DejaVuSans-20" transform="translate(664.550781 0.828125)"/>
      <use xlink:href="#DejaVuSans-303" transform="translate(764.942871 22.3125)"/>
      <use xlink:href="#DejaVuSans-Oblique-52" transform="translate(696.337891 0.828125)"/>
      <use xlink:href="#DejaVuSans-Oblique-74" transform="translate(766.777344 39.109375) scale(0.7)"/>
      <use xlink:href="#DejaVuSans-Oblique-3c7" transform="translate(766.777344 -26.515625) scale(0.7)"/>
      <use xlink:href="#DejaVuSans-33" transform="translate(808.203125 -38) scale(0.49)"/>
      <use xlink:href="#DejaVuSans-2c" transform="translate(841.29248 -26.515625) scale(0.7)"/>
      <use xlink:href="#DejaVuSans-Oblique-3c7" transform="translate(877.181152 -26.515625) scale(0.7)"/>
      <use xlink:href="#DejaVuSans-31" transform="translate(918.606934 -38) scale(0.49)"/>
     </g>
    </g>
    <g id="line2d_32">
     <path d="M 53.879375 34 
L 63.879375 34 
L 73.879375 34 
" style="fill: none; stroke-dasharray: 5.55,2.4; stroke-dashoffset: 0; stroke: #000000; stroke-width: 1.5"/>
    </g>
    <g id="text_18">
     <!-- Original Value $\bar{R}_{\chi_3,\chi_1}^t$ -->
     <g transform="translate(81.879375 37.5) scale(0.1 -0.1)">
      <defs>
       <path id="DejaVuSans-4f" d="M 2522 4238 
Q 1834 4238 1429 3725 
Q 1025 3213 1025 2328 
Q 1025 1447 1429 934 
Q 1834 422 2522 422 
Q 3209 422 3611 934 
Q 4013 1447 4013 2328 
Q 4013 3213 3611 3725 
Q 3209 4238 2522 4238 
z
M 2522 4750 
Q 3503 4750 4090 4092 
Q 4678 3434 4678 2328 
Q 4678 1225 4090 567 
Q 3503 -91 2522 -91 
Q 1538 -91 948 565 
Q 359 1222 359 2328 
Q 359 3434 948 4092 
Q 1538 4750 2522 4750 
z
" transform="scale(0.015625)"/>
       <path id="DejaVuSans-67" d="M 2906 1791 
Q 2906 2416 2648 2759 
Q 2391 3103 1925 3103 
Q 1463 3103 1205 2759 
Q 947 2416 947 1791 
Q 947 1169 1205 825 
Q 1463 481 1925 481 
Q 2391 481 2648 825 
Q 2906 1169 2906 1791 
z
M 3481 434 
Q 3481 -459 3084 -895 
Q 2688 -1331 1869 -1331 
Q 1566 -1331 1297 -1286 
Q 1028 -1241 775 -1147 
L 775 -588 
Q 1028 -725 1275 -790 
Q 1522 -856 1778 -856 
Q 2344 -856 2625 -561 
Q 2906 -266 2906 331 
L 2906 616 
Q 2728 306 2450 153 
Q 2172 0 1784 0 
Q 1141 0 747 490 
Q 353 981 353 1791 
Q 353 2603 747 3093 
Q 1141 3584 1784 3584 
Q 2172 3584 2450 3431 
Q 2728 3278 2906 2969 
L 2906 3500 
L 3481 3500 
L 3481 434 
z
" transform="scale(0.015625)"/>
       <path id="DejaVuSans-6e" d="M 3513 2113 
L 3513 0 
L 2938 0 
L 2938 2094 
Q 2938 2591 2744 2837 
Q 2550 3084 2163 3084 
Q 1697 3084 1428 2787 
Q 1159 2491 1159 1978 
L 1159 0 
L 581 0 
L 581 3500 
L 1159 3500 
L 1159 2956 
Q 1366 3272 1645 3428 
Q 1925 3584 2291 3584 
Q 2894 3584 3203 3211 
Q 3513 2838 3513 2113 
z
" transform="scale(0.015625)"/>
       <path id="DejaVuSans-304" d="M -2518 4769 
L -650 4769 
L -650 4306 
L -2518 4306 
L -2518 4769 
z
" transform="scale(0.015625)"/>
      </defs>
      <use xlink:href="#DejaVuSans-4f" transform="translate(0 0.359375)"/>
      <use xlink:href="#DejaVuSans-72" transform="translate(78.710938 0.359375)"/>
      <use xlink:href="#DejaVuSans-69" transform="translate(119.824219 0.359375)"/>
      <use xlink:href="#DejaVuSans-67" transform="translate(147.607422 0.359375)"/>
      <use xlink:href="#DejaVuSans-69" transform="translate(211.083984 0.359375)"/>
      <use xlink:href="#DejaVuSans-6e" transform="translate(238.867188 0.359375)"/>
      <use xlink:href="#DejaVuSans-61" transform="translate(302.246094 0.359375)"/>
      <use xlink:href="#DejaVuSans-6c" transform="translate(363.525391 0.359375)"/>
      <use xlink:href="#DejaVuSans-20" transform="translate(391.308594 0.359375)"/>
      <use xlink:href="#DejaVuSans-56" transform="translate(423.095703 0.359375)"/>
      <use xlink:href="#DejaVuSans-61" transform="translate(491.503906 0.359375)"/>
      <use xlink:href="#DejaVuSans-6c" transform="translate(552.783203 0.359375)"/>
      <use xlink:href="#DejaVuSans-75" transform="translate(580.566406 0.359375)"/>
      <use xlink:href="#DejaVuSans-65" transform="translate(643.945312 0.359375)"/>
      <use xlink:href="#DejaVuSans-20" transform="translate(705.46875 0.359375)"/>
      <use xlink:href="#DejaVuSans-304" transform="translate(804.970215 18.484375)"/>
      <use xlink:href="#DejaVuSans-Oblique-52" transform="translate(737.255859 0.359375)"/>
      <use xlink:href="#DejaVuSans-Oblique-74" transform="translate(807.695312 38.640625) scale(0.7)"/>
      <use xlink:href="#DejaVuSans-Oblique-3c7" transform="translate(807.695312 -26.984375) scale(0.7)"/>
      <use xlink:href="#DejaVuSans-33" transform="translate(849.121094 -38.46875) scale(0.49)"/>
      <use xlink:href="#DejaVuSans-2c" transform="translate(882.210449 -26.984375) scale(0.7)"/>
      <use xlink:href="#DejaVuSans-Oblique-3c7" transform="translate(918.099121 -26.984375) scale(0.7)"/>
      <use xlink:href="#DejaVuSans-31" transform="translate(959.524902 -38.46875) scale(0.49)"/>
     </g>
    </g>
    <g id="patch_8">
     <path d="M 53.879375 54.298437 
L 73.879375 54.298437 
L 73.879375 47.298437 
L 53.879375 47.298437 
z
" style="fill: #ffb612; fill-opacity: 0.5; stroke: #ffb612; stroke-opacity: 0.5; stroke-width: 0.5; stroke-linejoin: miter"/>
    </g>
    <g id="text_19">
     <!-- One Standard Deviation -->
     <g transform="translate(81.879375 54.298437) scale(0.1 -0.1)">
      <defs>
       <path id="DejaVuSans-53" d="M 3425 4513 
L 3425 3897 
Q 3066 4069 2747 4153 
Q 2428 4238 2131 4238 
Q 1616 4238 1336 4038 
Q 1056 3838 1056 3469 
Q 1056 3159 1242 3001 
Q 1428 2844 1947 2747 
L 2328 2669 
Q 3034 2534 3370 2195 
Q 3706 1856 3706 1288 
Q 3706 609 3251 259 
Q 2797 -91 1919 -91 
Q 1588 -91 1214 -16 
Q 841 59 441 206 
L 441 856 
Q 825 641 1194 531 
Q 1563 422 1919 422 
Q 2459 422 2753 634 
Q 3047 847 3047 1241 
Q 3047 1584 2836 1778 
Q 2625 1972 2144 2069 
L 1759 2144 
Q 1053 2284 737 2584 
Q 422 2884 422 3419 
Q 422 4038 858 4394 
Q 1294 4750 2059 4750 
Q 2388 4750 2728 4690 
Q 3069 4631 3425 4513 
z
" transform="scale(0.015625)"/>
       <path id="DejaVuSans-64" d="M 2906 2969 
L 2906 4863 
L 3481 4863 
L 3481 0 
L 2906 0 
L 2906 525 
Q 2725 213 2448 61 
Q 2172 -91 1784 -91 
Q 1150 -91 751 415 
Q 353 922 353 1747 
Q 353 2572 751 3078 
Q 1150 3584 1784 3584 
Q 2172 3584 2448 3432 
Q 2725 3281 2906 2969 
z
M 947 1747 
Q 947 1113 1208 752 
Q 1469 391 1925 391 
Q 2381 391 2643 752 
Q 2906 1113 2906 1747 
Q 2906 2381 2643 2742 
Q 2381 3103 1925 3103 
Q 1469 3103 1208 2742 
Q 947 2381 947 1747 
z
" transform="scale(0.015625)"/>
       <path id="DejaVuSans-6f" d="M 1959 3097 
Q 1497 3097 1228 2736 
Q 959 2375 959 1747 
Q 959 1119 1226 758 
Q 1494 397 1959 397 
Q 2419 397 2687 759 
Q 2956 1122 2956 1747 
Q 2956 2369 2687 2733 
Q 2419 3097 1959 3097 
z
M 1959 3584 
Q 2709 3584 3137 3096 
Q 3566 2609 3566 1747 
Q 3566 888 3137 398 
Q 2709 -91 1959 -91 
Q 1206 -91 779 398 
Q 353 888 353 1747 
Q 353 2609 779 3096 
Q 1206 3584 1959 3584 
z
" transform="scale(0.015625)"/>
      </defs>
      <use xlink:href="#DejaVuSans-4f"/>
      <use xlink:href="#DejaVuSans-6e" x="78.710938"/>
      <use xlink:href="#DejaVuSans-65" x="142.089844"/>
      <use xlink:href="#DejaVuSans-20" x="203.613281"/>
      <use xlink:href="#DejaVuSans-53" x="235.400391"/>
      <use xlink:href="#DejaVuSans-74" x="298.876953"/>
      <use xlink:href="#DejaVuSans-61" x="338.085938"/>
      <use xlink:href="#DejaVuSans-6e" x="399.365234"/>
      <use xlink:href="#DejaVuSans-64" x="462.744141"/>
      <use xlink:href="#DejaVuSans-61" x="526.220703"/>
      <use xlink:href="#DejaVuSans-72" x="587.5"/>
      <use xlink:href="#DejaVuSans-64" x="626.863281"/>
      <use xlink:href="#DejaVuSans-20" x="690.339844"/>
      <use xlink:href="#DejaVuSans-44" x="722.126953"/>
      <use xlink:href="#DejaVuSans-65" x="799.128906"/>
      <use xlink:href="#DejaVuSans-76" x="860.652344"/>
      <use xlink:href="#DejaVuSans-69" x="919.832031"/>
      <use xlink:href="#DejaVuSans-61" x="947.615234"/>
      <use xlink:href="#DejaVuSans-74" x="1008.894531"/>
      <use xlink:href="#DejaVuSans-69" x="1048.103516"/>
      <use xlink:href="#DejaVuSans-6f" x="1075.886719"/>
      <use xlink:href="#DejaVuSans-6e" x="1137.068359"/>
     </g>
    </g>
   </g>
  </g>
 </g>
 <defs>
  <clipPath id="p38a651fd17">
   <rect x="44.879375" y="-0" width="390.6" height="166.32"/>
  </clipPath>
 </defs>
</svg>
