<?xml version="1.0" encoding="utf-8" standalone="no"?>
<!DOCTYPE svg PUBLIC "-//W3C//DTD SVG 1.1//EN"
  "http://www.w3.org/Graphics/SVG/1.1/DTD/svg11.dtd">
<svg xmlns:xlink="http://www.w3.org/1999/xlink" width="444.375067pt" height="198.611875pt" viewBox="0 0 444.375067 198.611875" xmlns="http://www.w3.org/2000/svg" version="1.1">
 <metadata>
  <rdf:RDF xmlns:dc="http://purl.org/dc/elements/1.1/" xmlns:cc="http://creativecommons.org/ns#" xmlns:rdf="http://www.w3.org/1999/02/22-rdf-syntax-ns#">
   <cc:Work>
    <dc:type rdf:resource="http://purl.org/dc/dcmitype/StillImage"/>
    <dc:date>2024-09-18T15:47:51.913023</dc:date>
    <dc:format>image/svg+xml</dc:format>
    <dc:creator>
     <cc:Agent>
      <dc:title>Matplotlib v3.7.5, https://matplotlib.org/</dc:title>
     </cc:Agent>
    </dc:creator>
   </cc:Work>
  </rdf:RDF>
 </metadata>
 <defs>
  <style type="text/css">*{stroke-linejoin: round; stroke-linecap: butt}</style>
 </defs>
 <g id="figure_1">
  <g id="patch_1">
   <path d="M 0 198.611875 
L 444.375067 198.611875 
L 444.375067 0 
L 0 0 
z
" style="fill: #ffffff"/>
  </g>
  <g id="axes_1">
   <g id="patch_2">
    <path d="M 44.879375 166.32 
L 435.479375 166.32 
L 435.479375 -0 
L 44.879375 -0 
z
" style="fill: #e5e5e5"/>
   </g>
   <g id="matplotlib.axis_1">
    <g id="xtick_1">
     <g id="line2d_1">
      <path d="M 72.41989 166.32 
L 72.41989 -0 
" clip-path="url(#p0025f9f99d)" style="fill: none; stroke: #ffffff; stroke-width: 0.8; stroke-linecap: square"/>
     </g>
     <g id="line2d_2">
      <defs>
       <path id="me86a4dcfae" d="M 0 0 
L 0 3.5 
" style="stroke: #555555; stroke-width: 0.8"/>
      </defs>
      <g>
       <use xlink:href="#me86a4dcfae" x="72.41989" y="166.32" style="fill: #555555; stroke: #555555; stroke-width: 0.8"/>
      </g>
     </g>
     <g id="text_1">
      <!-- 08/16/20 -->
      <g style="fill: #555555" transform="translate(49.96364 180.918437) scale(0.1 -0.1)">
       <defs>
        <path id="DejaVuSans-30" d="M 2034 4250 
Q 1547 4250 1301 3770 
Q 1056 3291 1056 2328 
Q 1056 1369 1301 889 
Q 1547 409 2034 409 
Q 2525 409 2770 889 
Q 3016 1369 3016 2328 
Q 3016 3291 2770 3770 
Q 2525 4250 2034 4250 
z
M 2034 4750 
Q 2819 4750 3233 4129 
Q 3647 3509 3647 2328 
Q 3647 1150 3233 529 
Q 2819 -91 2034 -91 
Q 1250 -91 836 529 
Q 422 1150 422 2328 
Q 422 3509 836 4129 
Q 1250 4750 2034 4750 
z
" transform="scale(0.015625)"/>
        <path id="DejaVuSans-38" d="M 2034 2216 
Q 1584 2216 1326 1975 
Q 1069 1734 1069 1313 
Q 1069 891 1326 650 
Q 1584 409 2034 409 
Q 2484 409 2743 651 
Q 3003 894 3003 1313 
Q 3003 1734 2745 1975 
Q 2488 2216 2034 2216 
z
M 1403 2484 
Q 997 2584 770 2862 
Q 544 3141 544 3541 
Q 544 4100 942 4425 
Q 1341 4750 2034 4750 
Q 2731 4750 3128 4425 
Q 3525 4100 3525 3541 
Q 3525 3141 3298 2862 
Q 3072 2584 2669 2484 
Q 3125 2378 3379 2068 
Q 3634 1759 3634 1313 
Q 3634 634 3220 271 
Q 2806 -91 2034 -91 
Q 1263 -91 848 271 
Q 434 634 434 1313 
Q 434 1759 690 2068 
Q 947 2378 1403 2484 
z
M 1172 3481 
Q 1172 3119 1398 2916 
Q 1625 2713 2034 2713 
Q 2441 2713 2670 2916 
Q 2900 3119 2900 3481 
Q 2900 3844 2670 4047 
Q 2441 4250 2034 4250 
Q 1625 4250 1398 4047 
Q 1172 3844 1172 3481 
z
" transform="scale(0.015625)"/>
        <path id="DejaVuSans-2f" d="M 1625 4666 
L 2156 4666 
L 531 -594 
L 0 -594 
L 1625 4666 
z
" transform="scale(0.015625)"/>
        <path id="DejaVuSans-31" d="M 794 531 
L 1825 531 
L 1825 4091 
L 703 3866 
L 703 4441 
L 1819 4666 
L 2450 4666 
L 2450 531 
L 3481 531 
L 3481 0 
L 794 0 
L 794 531 
z
" transform="scale(0.015625)"/>
        <path id="DejaVuSans-36" d="M 2113 2584 
Q 1688 2584 1439 2293 
Q 1191 2003 1191 1497 
Q 1191 994 1439 701 
Q 1688 409 2113 409 
Q 2538 409 2786 701 
Q 3034 994 3034 1497 
Q 3034 2003 2786 2293 
Q 2538 2584 2113 2584 
z
M 3366 4563 
L 3366 3988 
Q 3128 4100 2886 4159 
Q 2644 4219 2406 4219 
Q 1781 4219 1451 3797 
Q 1122 3375 1075 2522 
Q 1259 2794 1537 2939 
Q 1816 3084 2150 3084 
Q 2853 3084 3261 2657 
Q 3669 2231 3669 1497 
Q 3669 778 3244 343 
Q 2819 -91 2113 -91 
Q 1303 -91 875 529 
Q 447 1150 447 2328 
Q 447 3434 972 4092 
Q 1497 4750 2381 4750 
Q 2619 4750 2861 4703 
Q 3103 4656 3366 4563 
z
" transform="scale(0.015625)"/>
        <path id="DejaVuSans-32" d="M 1228 531 
L 3431 531 
L 3431 0 
L 469 0 
L 469 531 
Q 828 903 1448 1529 
Q 2069 2156 2228 2338 
Q 2531 2678 2651 2914 
Q 2772 3150 2772 3378 
Q 2772 3750 2511 3984 
Q 2250 4219 1831 4219 
Q 1534 4219 1204 4116 
Q 875 4013 500 3803 
L 500 4441 
Q 881 4594 1212 4672 
Q 1544 4750 1819 4750 
Q 2544 4750 2975 4387 
Q 3406 4025 3406 3419 
Q 3406 3131 3298 2873 
Q 3191 2616 2906 2266 
Q 2828 2175 2409 1742 
Q 1991 1309 1228 531 
z
" transform="scale(0.015625)"/>
       </defs>
       <use xlink:href="#DejaVuSans-30"/>
       <use xlink:href="#DejaVuSans-38" x="63.623047"/>
       <use xlink:href="#DejaVuSans-2f" x="127.246094"/>
       <use xlink:href="#DejaVuSans-31" x="160.9375"/>
       <use xlink:href="#DejaVuSans-36" x="224.560547"/>
       <use xlink:href="#DejaVuSans-2f" x="288.183594"/>
       <use xlink:href="#DejaVuSans-32" x="321.875"/>
       <use xlink:href="#DejaVuSans-30" x="385.498047"/>
      </g>
     </g>
    </g>
    <g id="xtick_2">
     <g id="line2d_3">
      <path d="M 142.319676 166.32 
L 142.319676 -0 
" clip-path="url(#p0025f9f99d)" style="fill: none; stroke: #ffffff; stroke-width: 0.8; stroke-linecap: square"/>
     </g>
     <g id="line2d_4">
      <g>
       <use xlink:href="#me86a4dcfae" x="142.319676" y="166.32" style="fill: #555555; stroke: #555555; stroke-width: 0.8"/>
      </g>
     </g>
     <g id="text_2">
      <!-- 10/05/20 -->
      <g style="fill: #555555" transform="translate(119.863426 180.918437) scale(0.1 -0.1)">
       <defs>
        <path id="DejaVuSans-35" d="M 691 4666 
L 3169 4666 
L 3169 4134 
L 1269 4134 
L 1269 2991 
Q 1406 3038 1543 3061 
Q 1681 3084 1819 3084 
Q 2600 3084 3056 2656 
Q 3513 2228 3513 1497 
Q 3513 744 3044 326 
Q 2575 -91 1722 -91 
Q 1428 -91 1123 -41 
Q 819 9 494 109 
L 494 744 
Q 775 591 1075 516 
Q 1375 441 1709 441 
Q 2250 441 2565 725 
Q 2881 1009 2881 1497 
Q 2881 1984 2565 2268 
Q 2250 2553 1709 2553 
Q 1456 2553 1204 2497 
Q 953 2441 691 2322 
L 691 4666 
z
" transform="scale(0.015625)"/>
       </defs>
       <use xlink:href="#DejaVuSans-31"/>
       <use xlink:href="#DejaVuSans-30" x="63.623047"/>
       <use xlink:href="#DejaVuSans-2f" x="127.246094"/>
       <use xlink:href="#DejaVuSans-30" x="160.9375"/>
       <use xlink:href="#DejaVuSans-35" x="224.560547"/>
       <use xlink:href="#DejaVuSans-2f" x="288.183594"/>
       <use xlink:href="#DejaVuSans-32" x="321.875"/>
       <use xlink:href="#DejaVuSans-30" x="385.498047"/>
      </g>
     </g>
    </g>
    <g id="xtick_3">
     <g id="line2d_5">
      <path d="M 212.219461 166.32 
L 212.219461 -0 
" clip-path="url(#p0025f9f99d)" style="fill: none; stroke: #ffffff; stroke-width: 0.8; stroke-linecap: square"/>
     </g>
     <g id="line2d_6">
      <g>
       <use xlink:href="#me86a4dcfae" x="212.219461" y="166.32" style="fill: #555555; stroke: #555555; stroke-width: 0.8"/>
      </g>
     </g>
     <g id="text_3">
      <!-- 11/24/20 -->
      <g style="fill: #555555" transform="translate(189.763211 180.918437) scale(0.1 -0.1)">
       <defs>
        <path id="DejaVuSans-34" d="M 2419 4116 
L 825 1625 
L 2419 1625 
L 2419 4116 
z
M 2253 4666 
L 3047 4666 
L 3047 1625 
L 3713 1625 
L 3713 1100 
L 3047 1100 
L 3047 0 
L 2419 0 
L 2419 1100 
L 313 1100 
L 313 1709 
L 2253 4666 
z
" transform="scale(0.015625)"/>
       </defs>
       <use xlink:href="#DejaVuSans-31"/>
       <use xlink:href="#DejaVuSans-31" x="63.623047"/>
       <use xlink:href="#DejaVuSans-2f" x="127.246094"/>
       <use xlink:href="#DejaVuSans-32" x="160.9375"/>
       <use xlink:href="#DejaVuSans-34" x="224.560547"/>
       <use xlink:href="#DejaVuSans-2f" x="288.183594"/>
       <use xlink:href="#DejaVuSans-32" x="321.875"/>
       <use xlink:href="#DejaVuSans-30" x="385.498047"/>
      </g>
     </g>
    </g>
    <g id="xtick_4">
     <g id="line2d_7">
      <path d="M 282.119246 166.32 
L 282.119246 -0 
" clip-path="url(#p0025f9f99d)" style="fill: none; stroke: #ffffff; stroke-width: 0.8; stroke-linecap: square"/>
     </g>
     <g id="line2d_8">
      <g>
       <use xlink:href="#me86a4dcfae" x="282.119246" y="166.32" style="fill: #555555; stroke: #555555; stroke-width: 0.8"/>
      </g>
     </g>
     <g id="text_4">
      <!-- 01/13/21 -->
      <g style="fill: #555555" transform="translate(259.662996 180.918437) scale(0.1 -0.1)">
       <defs>
        <path id="DejaVuSans-33" d="M 2597 2516 
Q 3050 2419 3304 2112 
Q 3559 1806 3559 1356 
Q 3559 666 3084 287 
Q 2609 -91 1734 -91 
Q 1441 -91 1130 -33 
Q 819 25 488 141 
L 488 750 
Q 750 597 1062 519 
Q 1375 441 1716 441 
Q 2309 441 2620 675 
Q 2931 909 2931 1356 
Q 2931 1769 2642 2001 
Q 2353 2234 1838 2234 
L 1294 2234 
L 1294 2753 
L 1863 2753 
Q 2328 2753 2575 2939 
Q 2822 3125 2822 3475 
Q 2822 3834 2567 4026 
Q 2313 4219 1838 4219 
Q 1578 4219 1281 4162 
Q 984 4106 628 3988 
L 628 4550 
Q 988 4650 1302 4700 
Q 1616 4750 1894 4750 
Q 2613 4750 3031 4423 
Q 3450 4097 3450 3541 
Q 3450 3153 3228 2886 
Q 3006 2619 2597 2516 
z
" transform="scale(0.015625)"/>
       </defs>
       <use xlink:href="#DejaVuSans-30"/>
       <use xlink:href="#DejaVuSans-31" x="63.623047"/>
       <use xlink:href="#DejaVuSans-2f" x="127.246094"/>
       <use xlink:href="#DejaVuSans-31" x="160.9375"/>
       <use xlink:href="#DejaVuSans-33" x="224.560547"/>
       <use xlink:href="#DejaVuSans-2f" x="288.183594"/>
       <use xlink:href="#DejaVuSans-32" x="321.875"/>
       <use xlink:href="#DejaVuSans-31" x="385.498047"/>
      </g>
     </g>
    </g>
    <g id="xtick_5">
     <g id="line2d_9">
      <path d="M 352.019031 166.32 
L 352.019031 -0 
" clip-path="url(#p0025f9f99d)" style="fill: none; stroke: #ffffff; stroke-width: 0.8; stroke-linecap: square"/>
     </g>
     <g id="line2d_10">
      <g>
       <use xlink:href="#me86a4dcfae" x="352.019031" y="166.32" style="fill: #555555; stroke: #555555; stroke-width: 0.8"/>
      </g>
     </g>
     <g id="text_5">
      <!-- 03/04/21 -->
      <g style="fill: #555555" transform="translate(329.562781 180.918437) scale(0.1 -0.1)">
       <use xlink:href="#DejaVuSans-30"/>
       <use xlink:href="#DejaVuSans-33" x="63.623047"/>
       <use xlink:href="#DejaVuSans-2f" x="127.246094"/>
       <use xlink:href="#DejaVuSans-30" x="160.9375"/>
       <use xlink:href="#DejaVuSans-34" x="224.560547"/>
       <use xlink:href="#DejaVuSans-2f" x="288.183594"/>
       <use xlink:href="#DejaVuSans-32" x="321.875"/>
       <use xlink:href="#DejaVuSans-31" x="385.498047"/>
      </g>
     </g>
    </g>
    <g id="xtick_6">
     <g id="line2d_11">
      <path d="M 421.918817 166.32 
L 421.918817 -0 
" clip-path="url(#p0025f9f99d)" style="fill: none; stroke: #ffffff; stroke-width: 0.8; stroke-linecap: square"/>
     </g>
     <g id="line2d_12">
      <g>
       <use xlink:href="#me86a4dcfae" x="421.918817" y="166.32" style="fill: #555555; stroke: #555555; stroke-width: 0.8"/>
      </g>
     </g>
     <g id="text_6">
      <!-- 04/23/21 -->
      <g style="fill: #555555" transform="translate(399.462567 180.918437) scale(0.1 -0.1)">
       <use xlink:href="#DejaVuSans-30"/>
       <use xlink:href="#DejaVuSans-34" x="63.623047"/>
       <use xlink:href="#DejaVuSans-2f" x="127.246094"/>
       <use xlink:href="#DejaVuSans-32" x="160.9375"/>
       <use xlink:href="#DejaVuSans-33" x="224.560547"/>
       <use xlink:href="#DejaVuSans-2f" x="288.183594"/>
       <use xlink:href="#DejaVuSans-32" x="321.875"/>
       <use xlink:href="#DejaVuSans-31" x="385.498047"/>
      </g>
     </g>
    </g>
    <g id="text_7">
     <!-- Date -->
     <g style="fill: #555555" transform="translate(225.838438 196.11625) scale(0.12 -0.12)">
      <defs>
       <path id="DejaVuSans-44" d="M 1259 4147 
L 1259 519 
L 2022 519 
Q 2988 519 3436 956 
Q 3884 1394 3884 2338 
Q 3884 3275 3436 3711 
Q 2988 4147 2022 4147 
L 1259 4147 
z
M 628 4666 
L 1925 4666 
Q 3281 4666 3915 4102 
Q 4550 3538 4550 2338 
Q 4550 1131 3912 565 
Q 3275 0 1925 0 
L 628 0 
L 628 4666 
z
" transform="scale(0.015625)"/>
       <path id="DejaVuSans-61" d="M 2194 1759 
Q 1497 1759 1228 1600 
Q 959 1441 959 1056 
Q 959 750 1161 570 
Q 1363 391 1709 391 
Q 2188 391 2477 730 
Q 2766 1069 2766 1631 
L 2766 1759 
L 2194 1759 
z
M 3341 1997 
L 3341 0 
L 2766 0 
L 2766 531 
Q 2569 213 2275 61 
Q 1981 -91 1556 -91 
Q 1019 -91 701 211 
Q 384 513 384 1019 
Q 384 1609 779 1909 
Q 1175 2209 1959 2209 
L 2766 2209 
L 2766 2266 
Q 2766 2663 2505 2880 
Q 2244 3097 1772 3097 
Q 1472 3097 1187 3025 
Q 903 2953 641 2809 
L 641 3341 
Q 956 3463 1253 3523 
Q 1550 3584 1831 3584 
Q 2591 3584 2966 3190 
Q 3341 2797 3341 1997 
z
" transform="scale(0.015625)"/>
       <path id="DejaVuSans-74" d="M 1172 4494 
L 1172 3500 
L 2356 3500 
L 2356 3053 
L 1172 3053 
L 1172 1153 
Q 1172 725 1289 603 
Q 1406 481 1766 481 
L 2356 481 
L 2356 0 
L 1766 0 
Q 1100 0 847 248 
Q 594 497 594 1153 
L 594 3053 
L 172 3053 
L 172 3500 
L 594 3500 
L 594 4494 
L 1172 4494 
z
" transform="scale(0.015625)"/>
       <path id="DejaVuSans-65" d="M 3597 1894 
L 3597 1613 
L 953 1613 
Q 991 1019 1311 708 
Q 1631 397 2203 397 
Q 2534 397 2845 478 
Q 3156 559 3463 722 
L 3463 178 
Q 3153 47 2828 -22 
Q 2503 -91 2169 -91 
Q 1331 -91 842 396 
Q 353 884 353 1716 
Q 353 2575 817 3079 
Q 1281 3584 2069 3584 
Q 2775 3584 3186 3129 
Q 3597 2675 3597 1894 
z
M 3022 2063 
Q 3016 2534 2758 2815 
Q 2500 3097 2075 3097 
Q 1594 3097 1305 2825 
Q 1016 2553 972 2059 
L 3022 2063 
z
" transform="scale(0.015625)"/>
      </defs>
      <use xlink:href="#DejaVuSans-44"/>
      <use xlink:href="#DejaVuSans-61" x="77.001953"/>
      <use xlink:href="#DejaVuSans-74" x="138.28125"/>
      <use xlink:href="#DejaVuSans-65" x="177.490234"/>
     </g>
    </g>
   </g>
   <g id="matplotlib.axis_2">
    <g id="ytick_1">
     <g id="line2d_13">
      <path d="M 44.879375 163.309337 
L 435.479375 163.309337 
" clip-path="url(#p0025f9f99d)" style="fill: none; stroke: #ffffff; stroke-width: 0.8; stroke-linecap: square"/>
     </g>
     <g id="line2d_14">
      <defs>
       <path id="mb34f5991fd" d="M 0 0 
L -3.5 0 
" style="stroke: #555555; stroke-width: 0.8"/>
      </defs>
      <g>
       <use xlink:href="#mb34f5991fd" x="44.879375" y="163.309337" style="fill: #555555; stroke: #555555; stroke-width: 0.8"/>
      </g>
     </g>
     <g id="text_8">
      <!-- 0.00 -->
      <g style="fill: #555555" transform="translate(15.61375 167.108556) scale(0.1 -0.1)">
       <defs>
        <path id="DejaVuSans-2e" d="M 684 794 
L 1344 794 
L 1344 0 
L 684 0 
L 684 794 
z
" transform="scale(0.015625)"/>
       </defs>
       <use xlink:href="#DejaVuSans-30"/>
       <use xlink:href="#DejaVuSans-2e" x="63.623047"/>
       <use xlink:href="#DejaVuSans-30" x="95.410156"/>
       <use xlink:href="#DejaVuSans-30" x="159.033203"/>
      </g>
     </g>
    </g>
    <g id="ytick_2">
     <g id="line2d_15">
      <path d="M 44.879375 140.956193 
L 435.479375 140.956193 
" clip-path="url(#p0025f9f99d)" style="fill: none; stroke: #ffffff; stroke-width: 0.8; stroke-linecap: square"/>
     </g>
     <g id="line2d_16">
      <g>
       <use xlink:href="#mb34f5991fd" x="44.879375" y="140.956193" style="fill: #555555; stroke: #555555; stroke-width: 0.8"/>
      </g>
     </g>
     <g id="text_9">
      <!-- 0.02 -->
      <g style="fill: #555555" transform="translate(15.61375 144.755412) scale(0.1 -0.1)">
       <use xlink:href="#DejaVuSans-30"/>
       <use xlink:href="#DejaVuSans-2e" x="63.623047"/>
       <use xlink:href="#DejaVuSans-30" x="95.410156"/>
       <use xlink:href="#DejaVuSans-32" x="159.033203"/>
      </g>
     </g>
    </g>
    <g id="ytick_3">
     <g id="line2d_17">
      <path d="M 44.879375 118.603048 
L 435.479375 118.603048 
" clip-path="url(#p0025f9f99d)" style="fill: none; stroke: #ffffff; stroke-width: 0.8; stroke-linecap: square"/>
     </g>
     <g id="line2d_18">
      <g>
       <use xlink:href="#mb34f5991fd" x="44.879375" y="118.603048" style="fill: #555555; stroke: #555555; stroke-width: 0.8"/>
      </g>
     </g>
     <g id="text_10">
      <!-- 0.04 -->
      <g style="fill: #555555" transform="translate(15.61375 122.402267) scale(0.1 -0.1)">
       <use xlink:href="#DejaVuSans-30"/>
       <use xlink:href="#DejaVuSans-2e" x="63.623047"/>
       <use xlink:href="#DejaVuSans-30" x="95.410156"/>
       <use xlink:href="#DejaVuSans-34" x="159.033203"/>
      </g>
     </g>
    </g>
    <g id="ytick_4">
     <g id="line2d_19">
      <path d="M 44.879375 96.249904 
L 435.479375 96.249904 
" clip-path="url(#p0025f9f99d)" style="fill: none; stroke: #ffffff; stroke-width: 0.8; stroke-linecap: square"/>
     </g>
     <g id="line2d_20">
      <g>
       <use xlink:href="#mb34f5991fd" x="44.879375" y="96.249904" style="fill: #555555; stroke: #555555; stroke-width: 0.8"/>
      </g>
     </g>
     <g id="text_11">
      <!-- 0.06 -->
      <g style="fill: #555555" transform="translate(15.61375 100.049122) scale(0.1 -0.1)">
       <use xlink:href="#DejaVuSans-30"/>
       <use xlink:href="#DejaVuSans-2e" x="63.623047"/>
       <use xlink:href="#DejaVuSans-30" x="95.410156"/>
       <use xlink:href="#DejaVuSans-36" x="159.033203"/>
      </g>
     </g>
    </g>
    <g id="ytick_5">
     <g id="line2d_21">
      <path d="M 44.879375 73.896759 
L 435.479375 73.896759 
" clip-path="url(#p0025f9f99d)" style="fill: none; stroke: #ffffff; stroke-width: 0.8; stroke-linecap: square"/>
     </g>
     <g id="line2d_22">
      <g>
       <use xlink:href="#mb34f5991fd" x="44.879375" y="73.896759" style="fill: #555555; stroke: #555555; stroke-width: 0.8"/>
      </g>
     </g>
     <g id="text_12">
      <!-- 0.08 -->
      <g style="fill: #555555" transform="translate(15.61375 77.695978) scale(0.1 -0.1)">
       <use xlink:href="#DejaVuSans-30"/>
       <use xlink:href="#DejaVuSans-2e" x="63.623047"/>
       <use xlink:href="#DejaVuSans-30" x="95.410156"/>
       <use xlink:href="#DejaVuSans-38" x="159.033203"/>
      </g>
     </g>
    </g>
    <g id="ytick_6">
     <g id="line2d_23">
      <path d="M 44.879375 51.543614 
L 435.479375 51.543614 
" clip-path="url(#p0025f9f99d)" style="fill: none; stroke: #ffffff; stroke-width: 0.8; stroke-linecap: square"/>
     </g>
     <g id="line2d_24">
      <g>
       <use xlink:href="#mb34f5991fd" x="44.879375" y="51.543614" style="fill: #555555; stroke: #555555; stroke-width: 0.8"/>
      </g>
     </g>
     <g id="text_13">
      <!-- 0.10 -->
      <g style="fill: #555555" transform="translate(15.61375 55.342833) scale(0.1 -0.1)">
       <use xlink:href="#DejaVuSans-30"/>
       <use xlink:href="#DejaVuSans-2e" x="63.623047"/>
       <use xlink:href="#DejaVuSans-31" x="95.410156"/>
       <use xlink:href="#DejaVuSans-30" x="159.033203"/>
      </g>
     </g>
    </g>
    <g id="ytick_7">
     <g id="line2d_25">
      <path d="M 44.879375 29.19047 
L 435.479375 29.19047 
" clip-path="url(#p0025f9f99d)" style="fill: none; stroke: #ffffff; stroke-width: 0.8; stroke-linecap: square"/>
     </g>
     <g id="line2d_26">
      <g>
       <use xlink:href="#mb34f5991fd" x="44.879375" y="29.19047" style="fill: #555555; stroke: #555555; stroke-width: 0.8"/>
      </g>
     </g>
     <g id="text_14">
      <!-- 0.12 -->
      <g style="fill: #555555" transform="translate(15.61375 32.989689) scale(0.1 -0.1)">
       <use xlink:href="#DejaVuSans-30"/>
       <use xlink:href="#DejaVuSans-2e" x="63.623047"/>
       <use xlink:href="#DejaVuSans-31" x="95.410156"/>
       <use xlink:href="#DejaVuSans-32" x="159.033203"/>
      </g>
     </g>
    </g>
    <g id="ytick_8">
     <g id="line2d_27">
      <path d="M 44.879375 6.837325 
L 435.479375 6.837325 
" clip-path="url(#p0025f9f99d)" style="fill: none; stroke: #ffffff; stroke-width: 0.8; stroke-linecap: square"/>
     </g>
     <g id="line2d_28">
      <g>
       <use xlink:href="#mb34f5991fd" x="44.879375" y="6.837325" style="fill: #555555; stroke: #555555; stroke-width: 0.8"/>
      </g>
     </g>
     <g id="text_15">
      <!-- 0.14 -->
      <g style="fill: #555555" transform="translate(15.61375 10.636544) scale(0.1 -0.1)">
       <use xlink:href="#DejaVuSans-30"/>
       <use xlink:href="#DejaVuSans-2e" x="63.623047"/>
       <use xlink:href="#DejaVuSans-31" x="95.410156"/>
       <use xlink:href="#DejaVuSans-34" x="159.033203"/>
      </g>
     </g>
    </g>
    <g id="text_16">
     <!-- Value -->
     <g style="fill: #555555" transform="translate(9.118125 99.6375) rotate(-90) scale(0.12 -0.12)">
      <defs>
       <path id="DejaVuSans-56" d="M 1831 0 
L 50 4666 
L 709 4666 
L 2188 738 
L 3669 4666 
L 4325 4666 
L 2547 0 
L 1831 0 
z
" transform="scale(0.015625)"/>
       <path id="DejaVuSans-6c" d="M 603 4863 
L 1178 4863 
L 1178 0 
L 603 0 
L 603 4863 
z
" transform="scale(0.015625)"/>
       <path id="DejaVuSans-75" d="M 544 1381 
L 544 3500 
L 1119 3500 
L 1119 1403 
Q 1119 906 1312 657 
Q 1506 409 1894 409 
Q 2359 409 2629 706 
Q 2900 1003 2900 1516 
L 2900 3500 
L 3475 3500 
L 3475 0 
L 2900 0 
L 2900 538 
Q 2691 219 2414 64 
Q 2138 -91 1772 -91 
Q 1169 -91 856 284 
Q 544 659 544 1381 
z
M 1991 3584 
L 1991 3584 
z
" transform="scale(0.015625)"/>
      </defs>
      <use xlink:href="#DejaVuSans-56"/>
      <use xlink:href="#DejaVuSans-61" x="60.658203"/>
      <use xlink:href="#DejaVuSans-6c" x="121.9375"/>
      <use xlink:href="#DejaVuSans-75" x="149.720703"/>
      <use xlink:href="#DejaVuSans-65" x="213.099609"/>
     </g>
    </g>
   </g>
   <g id="PolyCollection_1">
    <defs>
     <path id="m2a1c1ab0fb" d="M 62.63392 -55.699995 
L 62.63392 -69.918588 
L 64.031916 -70.060379 
L 65.429912 -68.403153 
L 66.827908 -67.790319 
L 68.225903 -67.560451 
L 69.623899 -68.329894 
L 71.021895 -69.331194 
L 72.41989 -68.76485 
L 73.817886 -69.224506 
L 75.215882 -69.767583 
L 76.613878 -71.0703 
L 78.011873 -71.110653 
L 79.409869 -69.657707 
L 80.807865 -69.295121 
L 82.20586 -67.231086 
L 83.603856 -67.782592 
L 85.001852 -77.015022 
L 86.399847 -76.553274 
L 87.797843 -77.339905 
L 89.195839 -77.124594 
L 90.593835 -82.722815 
L 91.99183 -85.455368 
L 93.389826 -84.615949 
L 94.787822 -92.883219 
L 96.185817 -91.951001 
L 97.583813 -101.851263 
L 98.981809 -106.580628 
L 100.379804 -93.168796 
L 101.7778 -88.469097 
L 103.175796 -93.144036 
L 104.573792 -89.408138 
L 105.971787 -88.074339 
L 107.369783 -65.65267 
L 108.767779 -67.611575 
L 110.165774 -70.579376 
L 111.56377 -67.263817 
L 112.961766 -69.776105 
L 114.359762 -68.112673 
L 115.757757 -65.789711 
L 117.155753 -67.144214 
L 118.553749 -68.817299 
L 119.951744 -69.167763 
L 121.34974 -68.970779 
L 122.747736 -68.329353 
L 124.145731 -68.344799 
L 125.543727 -71.027412 
L 126.941723 -70.053431 
L 128.339719 -69.918675 
L 129.737714 -69.391426 
L 131.13571 -70.596785 
L 132.533706 -70.730982 
L 133.931701 -69.756589 
L 135.329697 -71.177908 
L 136.727693 -71.505804 
L 138.125689 -70.286022 
L 139.523684 -70.68454 
L 140.92168 -74.539381 
L 142.319676 -74.142389 
L 143.717671 -72.295039 
L 145.115667 -72.881359 
L 146.513663 -73.466557 
L 147.911658 -71.935071 
L 149.309654 -75.590256 
L 150.70765 -75.462449 
L 152.105646 -77.937012 
L 153.503641 -76.787615 
L 154.901637 -76.350003 
L 156.299633 -77.590594 
L 157.697628 -78.052736 
L 159.095624 -81.667863 
L 160.49362 -80.991629 
L 161.891616 -83.128557 
L 163.289611 -82.609176 
L 164.687607 -80.935332 
L 166.085603 -79.375631 
L 167.483598 -79.479195 
L 168.881594 -82.18646 
L 170.27959 -52.810971 
L 171.677585 -51.141177 
L 173.075581 -51.535519 
L 174.473577 -50.641271 
L 175.871573 -50.282936 
L 177.269568 -50.498441 
L 178.667564 -50.541788 
L 180.06556 -83.101704 
L 181.463555 -82.369571 
L 182.861551 -83.076275 
L 184.259547 -85.589985 
L 185.657543 -85.166676 
L 187.055538 -85.26877 
L 188.453534 -83.008314 
L 189.85153 -86.531041 
L 191.249525 -86.208324 
L 192.647521 -86.938205 
L 194.045517 -84.061509 
L 195.443512 -88.130245 
L 196.841508 -87.317909 
L 198.239504 -84.624076 
L 199.6375 -84.890209 
L 201.035495 -54.001469 
L 202.433491 -88.661341 
L 203.831487 -86.170046 
L 205.229482 -52.713489 
L 206.627478 -51.639281 
L 208.025474 -51.151916 
L 209.423469 -51.048439 
L 210.821465 -51.532534 
L 212.219461 -51.247646 
L 213.617457 -51.121033 
L 215.015452 -50.516953 
L 216.413448 -51.090426 
L 217.811444 -51.596801 
L 219.209439 -51.2558 
L 220.607435 -51.82847 
L 222.005431 -51.400732 
L 223.403427 -52.044473 
L 224.801422 -52.511755 
L 226.199418 -52.562525 
L 227.597414 -52.824474 
L 228.995409 -53.945839 
L 230.393405 -53.242062 
L 231.791401 -53.436458 
L 233.189396 -53.690498 
L 234.587392 -87.197694 
L 235.985388 -84.338559 
L 237.383384 -86.014669 
L 238.781379 -87.904456 
L 240.179375 -54.119971 
L 241.577371 -53.725641 
L 242.975366 -53.855056 
L 244.373362 -86.934373 
L 245.771358 -87.92396 
L 247.169354 -85.68802 
L 248.567349 -88.380244 
L 249.965345 -84.789002 
L 251.363341 -84.75575 
L 252.761336 -84.972957 
L 254.159332 -53.045866 
L 255.557328 -85.795971 
L 256.955323 -86.340403 
L 258.353319 -85.937703 
L 259.751315 -85.775199 
L 261.149311 -84.729861 
L 262.547306 -84.316923 
L 263.945302 -54.245947 
L 265.343298 -52.416677 
L 266.741293 -85.669104 
L 268.139289 -85.7508 
L 269.537285 -89.97784 
L 270.935281 -88.298504 
L 272.333276 -93.728685 
L 273.731272 -98.177986 
L 275.129268 -95.528272 
L 276.527263 -93.615193 
L 277.925259 -96.088204 
L 279.323255 -95.424512 
L 280.72125 -100.732728 
L 282.119246 -139.321274 
L 283.517242 -181.246495 
L 284.915238 -191.051875 
L 286.313233 -140.121221 
L 287.711229 -139.270834 
L 289.109225 -130.653406 
L 290.50722 -134.328552 
L 291.905216 -101.681701 
L 293.303212 -100.408749 
L 294.701207 -99.260209 
L 296.099203 -96.290658 
L 297.497199 -99.229057 
L 298.895195 -97.16236 
L 300.29319 -92.74849 
L 301.691186 -91.42117 
L 303.089182 -88.203103 
L 304.487177 -87.175471 
L 305.885173 -85.386686 
L 307.283169 -86.09751 
L 308.681165 -84.558572 
L 310.07916 -85.303729 
L 311.477156 -51.551969 
L 312.875152 -51.691704 
L 314.273147 -52.492608 
L 315.671143 -81.560107 
L 317.069139 -53.003885 
L 318.467134 -52.925481 
L 319.86513 -52.607829 
L 321.263126 -53.693474 
L 322.661122 -82.836724 
L 324.059117 -53.787056 
L 325.457113 -82.998198 
L 326.855109 -81.619466 
L 328.253104 -83.322287 
L 329.6511 -81.417349 
L 331.049096 -104.164474 
L 332.447092 -85.608933 
L 333.845087 -85.842928 
L 335.243083 -87.203149 
L 336.641079 -86.967457 
L 338.039074 -85.376719 
L 339.43707 -103.802711 
L 340.835066 -87.132749 
L 342.233061 -83.827659 
L 343.631057 -82.195429 
L 345.029053 -84.402775 
L 346.427049 -81.519608 
L 347.825044 -54.19118 
L 349.22304 -80.007991 
L 350.621036 -79.494865 
L 352.019031 -44.420537 
L 353.417027 -43.952112 
L 354.815023 -43.962525 
L 356.213019 -43.876187 
L 357.611014 -43.382347 
L 359.00901 -43.729797 
L 360.407006 -43.264612 
L 361.805001 -43.044239 
L 363.202997 -43.164119 
L 364.600993 -43.232771 
L 365.998988 -43.24061 
L 367.396984 -42.336704 
L 368.79498 -43.209054 
L 370.192976 -43.707336 
L 371.590971 -44.674528 
L 372.988967 -44.457242 
L 374.386963 -44.378038 
L 375.784958 -44.450451 
L 377.182954 -44.485859 
L 378.58095 -44.215575 
L 379.978946 -49.81749 
L 381.376941 -49.672871 
L 382.774937 -49.713951 
L 384.172933 -50.45658 
L 385.570928 -50.206079 
L 386.968924 -55.332406 
L 388.36692 -54.638832 
L 389.764915 -85.09782 
L 391.162911 -87.577593 
L 392.560907 -91.347964 
L 393.958903 -90.58083 
L 395.356898 -90.565448 
L 396.754894 -93.004849 
L 398.15289 -98.280227 
L 399.550885 -96.405056 
L 400.948881 -99.776522 
L 402.346877 -104.238825 
L 403.744872 -104.547087 
L 405.142868 -108.076011 
L 406.540864 -107.129491 
L 407.93886 -117.365621 
L 409.336855 -112.232911 
L 410.734851 -166.491419 
L 412.132847 -171.57748 
L 413.530842 -167.105868 
L 414.928838 -119.421898 
L 416.326834 -119.550907 
L 417.72483 -118.60239 
L 417.72483 -97.61409 
L 417.72483 -97.61409 
L 416.326834 -98.396527 
L 414.928838 -97.127014 
L 413.530842 -139.701623 
L 412.132847 -144.164769 
L 410.734851 -140.898171 
L 409.336855 -91.12421 
L 407.93886 -96.185373 
L 406.540864 -85.542918 
L 405.142868 -83.55656 
L 403.744872 -81.99685 
L 402.346877 -81.677658 
L 400.948881 -76.609443 
L 399.550885 -73.69209 
L 398.15289 -75.276742 
L 396.754894 -71.729605 
L 395.356898 -67.885809 
L 393.958903 -66.591183 
L 392.560907 -66.882735 
L 391.162911 -64.721529 
L 389.764915 -63.175007 
L 388.36692 -51.106244 
L 386.968924 -51.960219 
L 385.570928 -46.903265 
L 384.172933 -47.104799 
L 382.774937 -46.40488 
L 381.376941 -46.518866 
L 379.978946 -46.415096 
L 378.58095 -41.594479 
L 377.182954 -41.814912 
L 375.784958 -42.00069 
L 374.386963 -41.666404 
L 372.988967 -41.927497 
L 371.590971 -41.980731 
L 370.192976 -40.892632 
L 368.79498 -40.541747 
L 367.396984 -39.851875 
L 365.998988 -40.509307 
L 364.600993 -40.750584 
L 363.202997 -40.401141 
L 361.805001 -40.649224 
L 360.407006 -40.670792 
L 359.00901 -41.068397 
L 357.611014 -41.08929 
L 356.213019 -41.232911 
L 354.815023 -41.129682 
L 353.417027 -41.25096 
L 352.019031 -41.59246 
L 350.621036 -60.726857 
L 349.22304 -60.425549 
L 347.825044 -50.48925 
L 346.427049 -65.133829 
L 345.029053 -66.79788 
L 343.631057 -65.286088 
L 342.233061 -68.351754 
L 340.835066 -72.820884 
L 339.43707 -90.03036 
L 338.039074 -71.560304 
L 336.641079 -71.923915 
L 335.243083 -72.648993 
L 333.845087 -70.890422 
L 332.447092 -70.06467 
L 331.049096 -89.575703 
L 329.6511 -64.037844 
L 328.253104 -63.954737 
L 326.855109 -62.903077 
L 325.457113 -63.11482 
L 324.059117 -50.072736 
L 322.661122 -61.900709 
L 321.263126 -48.89877 
L 319.86513 -48.807805 
L 318.467134 -49.104436 
L 317.069139 -49.04888 
L 315.671143 -59.167485 
L 314.273147 -48.961531 
L 312.875152 -48.142316 
L 311.477156 -47.962597 
L 310.07916 -64.016222 
L 308.681165 -62.442908 
L 307.283169 -64.388842 
L 305.885173 -62.411962 
L 304.487177 -65.944779 
L 303.089182 -68.105027 
L 301.691186 -70.667706 
L 300.29319 -74.195793 
L 298.895195 -76.68552 
L 297.497199 -79.655171 
L 296.099203 -78.928605 
L 294.701207 -82.092621 
L 293.303212 -82.629723 
L 291.905216 -83.589931 
L 290.50722 -114.609073 
L 289.109225 -111.435054 
L 287.711229 -117.317663 
L 286.313233 -120.338645 
L 284.915238 -157.659869 
L 283.517242 -152.195536 
L 282.119246 -117.446585 
L 280.72125 -82.023955 
L 279.323255 -75.990349 
L 277.925259 -75.327838 
L 276.527263 -72.441546 
L 275.129268 -75.208464 
L 273.731272 -78.739763 
L 272.333276 -73.01841 
L 270.935281 -66.661431 
L 269.537285 -67.16176 
L 268.139289 -65.251342 
L 266.741293 -63.176999 
L 265.343298 -48.71339 
L 263.945302 -50.843181 
L 262.547306 -61.060426 
L 261.149311 -60.793688 
L 259.751315 -63.716961 
L 258.353319 -61.863569 
L 256.955323 -62.874249 
L 255.557328 -62.513385 
L 254.159332 -49.485652 
L 252.761336 -60.311265 
L 251.363341 -62.25063 
L 249.965345 -61.471143 
L 248.567349 -64.123388 
L 247.169354 -62.413625 
L 245.771358 -65.447633 
L 244.373362 -64.241922 
L 242.975366 -50.7546 
L 241.577371 -50.249001 
L 240.179375 -50.59894 
L 238.781379 -63.689183 
L 237.383384 -59.883588 
L 235.985388 -62.007132 
L 234.587392 -62.607846 
L 233.189396 -50.294117 
L 231.791401 -50.028938 
L 230.393405 -49.573143 
L 228.995409 -50.59605 
L 227.597414 -49.249043 
L 226.199418 -49.378695 
L 224.801422 -49.304291 
L 223.403427 -48.306946 
L 222.005431 -48.171573 
L 220.607435 -48.463672 
L 219.209439 -48.213151 
L 217.811444 -48.108047 
L 216.413448 -47.82817 
L 215.015452 -47.266309 
L 213.617457 -47.855988 
L 212.219461 -47.715565 
L 210.821465 -47.803962 
L 209.423469 -47.56666 
L 208.025474 -47.957082 
L 206.627478 -48.108966 
L 205.229482 -49.190465 
L 203.831487 -62.817116 
L 202.433491 -66.536227 
L 201.035495 -50.613791 
L 199.6375 -62.72115 
L 198.239504 -61.482269 
L 196.841508 -63.305984 
L 195.443512 -65.852305 
L 194.045517 -60.893482 
L 192.647521 -64.273407 
L 191.249525 -63.729642 
L 189.85153 -62.075783 
L 188.453534 -62.340535 
L 187.055538 -64.201018 
L 185.657543 -63.387099 
L 184.259547 -61.494593 
L 182.861551 -60.463721 
L 181.463555 -60.698742 
L 180.06556 -58.745512 
L 178.667564 -47.452083 
L 177.269568 -46.908657 
L 175.871573 -46.850095 
L 174.473577 -47.120533 
L 173.075581 -47.79291 
L 171.677585 -47.667973 
L 170.27959 -48.874587 
L 168.881594 -61.270333 
L 167.483598 -57.809573 
L 166.085603 -59.436847 
L 164.687607 -59.817608 
L 163.289611 -61.838608 
L 161.891616 -62.171786 
L 160.49362 -61.899989 
L 159.095624 -61.191981 
L 157.697628 -59.717058 
L 156.299633 -60.512417 
L 154.901637 -60.59812 
L 153.503641 -61.503092 
L 152.105646 -62.184981 
L 150.70765 -58.2822 
L 149.309654 -57.723243 
L 147.911658 -55.613569 
L 146.513663 -56.509639 
L 145.115667 -55.317744 
L 143.717671 -54.190993 
L 142.319676 -55.770134 
L 140.92168 -55.45942 
L 139.523684 -55.976648 
L 138.125689 -55.674896 
L 136.727693 -57.103187 
L 135.329697 -55.301569 
L 133.931701 -54.95226 
L 132.533706 -55.704606 
L 131.13571 -55.19596 
L 129.737714 -55.310517 
L 128.339719 -55.127477 
L 126.941723 -55.15136 
L 125.543727 -55.204093 
L 124.145731 -56.962419 
L 122.747736 -54.729767 
L 121.34974 -55.770157 
L 119.951744 -55.718709 
L 118.553749 -56.113253 
L 117.155753 -55.876744 
L 115.757757 -57.100224 
L 114.359762 -56.926491 
L 112.961766 -59.571179 
L 111.56377 -56.164003 
L 110.165774 -59.734821 
L 108.767779 -56.818958 
L 107.369783 -56.716263 
L 105.971787 -76.899532 
L 104.573792 -76.170811 
L 103.175796 -79.847417 
L 101.7778 -77.019169 
L 100.379804 -80.327404 
L 98.981809 -89.969574 
L 97.583813 -87.783829 
L 96.185817 -80.023793 
L 94.787822 -80.374282 
L 93.389826 -73.700034 
L 91.99183 -73.419741 
L 90.593835 -70.686186 
L 89.195839 -64.155947 
L 87.797843 -65.586942 
L 86.399847 -64.247328 
L 85.001852 -64.036782 
L 83.603856 -56.337818 
L 82.20586 -55.707282 
L 80.807865 -57.199145 
L 79.409869 -57.378672 
L 78.011873 -56.830319 
L 76.613878 -56.856623 
L 75.215882 -57.330637 
L 73.817886 -56.842275 
L 72.41989 -57.072979 
L 71.021895 -56.116202 
L 69.623899 -56.532545 
L 68.225903 -56.628288 
L 66.827908 -56.660302 
L 65.429912 -57.789698 
L 64.031916 -56.908094 
L 62.63392 -55.699995 
z
" style="stroke: #ffb612; stroke-opacity: 0.5; stroke-width: 0.5"/>
    </defs>
    <g clip-path="url(#p0025f9f99d)">
     <use xlink:href="#m2a1c1ab0fb" x="0" y="198.611875" style="fill: #ffb612; fill-opacity: 0.5; stroke: #ffb612; stroke-opacity: 0.5; stroke-width: 0.5"/>
    </g>
   </g>
   <g id="line2d_29">
    <path d="M 62.63392 135.802584 
L 64.031916 135.127639 
L 65.429912 135.515449 
L 66.827908 136.386565 
L 68.225903 136.517506 
L 71.021895 135.888177 
L 73.817886 135.578485 
L 76.613878 134.648413 
L 78.011873 134.641389 
L 79.409869 135.093685 
L 80.807865 135.364742 
L 82.20586 137.142691 
L 83.603856 136.55167 
L 85.001852 128.085973 
L 86.399847 128.211574 
L 87.797843 127.148451 
L 89.195839 127.971605 
L 90.593835 121.907374 
L 91.99183 119.17432 
L 93.389826 119.453883 
L 94.787822 111.983125 
L 96.185817 112.624478 
L 97.583813 103.794329 
L 98.981809 100.336774 
L 100.379804 111.863775 
L 101.7778 115.867742 
L 103.175796 112.116149 
L 104.573792 115.822401 
L 105.971787 116.12494 
L 107.369783 137.427408 
L 108.767779 136.396608 
L 110.165774 133.454776 
L 111.56377 136.897965 
L 112.961766 133.938233 
L 114.359762 136.092293 
L 115.757757 137.166908 
L 117.155753 137.101396 
L 118.553749 136.146599 
L 121.34974 136.241407 
L 122.747736 137.082315 
L 124.145731 135.958266 
L 125.543727 135.496123 
L 126.941723 136.00948 
L 129.737714 136.260904 
L 131.13571 135.715502 
L 132.533706 135.394081 
L 133.931701 136.257451 
L 135.329697 135.372137 
L 136.727693 134.307379 
L 138.125689 135.631416 
L 139.523684 135.281281 
L 140.92168 133.612475 
L 142.319676 133.655613 
L 143.717671 135.368859 
L 146.513663 133.623777 
L 147.911658 134.837555 
L 149.309654 131.955126 
L 150.70765 131.739551 
L 152.105646 128.550878 
L 153.503641 129.466522 
L 154.901637 130.137813 
L 156.299633 129.56037 
L 157.697628 129.726978 
L 159.095624 127.181953 
L 160.49362 127.166066 
L 161.891616 125.961703 
L 163.289611 126.387983 
L 164.687607 128.235405 
L 166.085603 129.205636 
L 167.483598 129.967491 
L 168.881594 126.883479 
L 170.27959 147.769096 
L 171.677585 149.2073 
L 173.075581 148.947661 
L 174.473577 149.730973 
L 175.871573 150.045359 
L 177.269568 149.908326 
L 178.667564 149.614939 
L 180.06556 127.688267 
L 181.463555 127.077719 
L 182.861551 126.841877 
L 184.259547 125.069586 
L 185.657543 124.334988 
L 187.055538 123.876981 
L 188.453534 125.93745 
L 189.85153 124.308463 
L 192.647521 123.006069 
L 194.045517 126.134379 
L 195.443512 121.6206 
L 196.841508 123.299928 
L 198.239504 125.558702 
L 199.6375 124.806195 
L 201.035495 146.304245 
L 202.433491 121.013091 
L 203.831487 124.118294 
L 205.229482 147.659898 
L 206.627478 148.737751 
L 209.423469 149.304326 
L 210.821465 148.943627 
L 212.219461 149.130269 
L 213.617457 149.123365 
L 215.015452 149.720244 
L 216.413448 149.152577 
L 217.811444 148.759451 
L 219.209439 148.877399 
L 220.607435 148.465804 
L 222.005431 148.825723 
L 223.403427 148.436165 
L 224.801422 147.703852 
L 227.597414 147.575116 
L 228.995409 146.34093 
L 230.393405 147.204272 
L 233.189396 146.619568 
L 234.587392 123.709105 
L 235.985388 125.439029 
L 237.383384 125.662747 
L 238.781379 122.815056 
L 240.179375 146.252419 
L 241.577371 146.624554 
L 242.975366 146.307047 
L 244.373362 123.023727 
L 245.771358 121.926078 
L 247.169354 124.561052 
L 248.567349 122.360059 
L 249.965345 125.481803 
L 251.363341 125.108685 
L 252.761336 125.969764 
L 254.159332 147.346116 
L 255.557328 124.457197 
L 256.955323 124.004549 
L 258.353319 124.711239 
L 259.751315 123.865795 
L 261.149311 125.8501 
L 262.547306 125.923201 
L 263.945302 146.067311 
L 265.343298 148.046841 
L 266.741293 124.188824 
L 268.139289 123.110804 
L 269.537285 120.042075 
L 270.935281 121.131907 
L 272.333276 115.238327 
L 273.731272 110.153 
L 275.129268 113.243507 
L 276.527263 115.583505 
L 277.925259 112.903854 
L 279.323255 112.904445 
L 280.72125 107.233533 
L 283.517242 31.89086 
L 284.915238 24.256003 
L 286.313233 68.381942 
L 287.711229 70.317627 
L 289.109225 77.567645 
L 290.50722 74.143062 
L 291.905216 105.976059 
L 293.303212 107.092639 
L 294.701207 107.93546 
L 296.099203 111.002243 
L 297.497199 109.169761 
L 298.895195 111.687935 
L 300.29319 115.139734 
L 301.691186 117.567437 
L 303.089182 120.45781 
L 304.487177 122.05175 
L 305.885173 124.712551 
L 307.283169 123.368699 
L 308.681165 125.111135 
L 310.07916 123.951899 
L 311.477156 148.854592 
L 312.875152 148.694865 
L 314.273147 147.884805 
L 315.671143 128.248079 
L 317.069139 147.585492 
L 318.467134 147.596916 
L 319.86513 147.904058 
L 321.263126 147.315753 
L 322.661122 126.243158 
L 324.059117 146.681979 
L 325.457113 125.555366 
L 326.855109 126.350604 
L 328.253104 124.973363 
L 329.6511 125.884279 
L 331.049096 101.741787 
L 332.447092 120.775074 
L 333.845087 120.2452 
L 335.243083 118.685804 
L 336.641079 119.166189 
L 338.039074 120.143364 
L 339.43707 101.695339 
L 340.835066 118.635058 
L 342.233061 122.522168 
L 343.631057 124.871116 
L 345.029053 123.011547 
L 346.427049 125.285156 
L 347.825044 146.27166 
L 349.22304 128.395105 
L 350.621036 128.501014 
L 352.019031 155.605376 
L 353.417027 156.010339 
L 356.213019 156.057326 
L 357.611014 156.376056 
L 359.00901 156.212778 
L 360.407006 156.644173 
L 363.202997 156.829245 
L 364.600993 156.620197 
L 365.998988 156.736917 
L 367.396984 157.517585 
L 368.79498 156.736475 
L 370.192976 156.311891 
L 371.590971 155.284245 
L 374.386963 155.589654 
L 375.784958 155.386304 
L 377.182954 155.46149 
L 378.58095 155.706848 
L 379.978946 150.495582 
L 382.774937 150.55246 
L 384.172933 149.831186 
L 385.570928 150.057203 
L 386.968924 144.965563 
L 388.36692 145.739337 
L 389.764915 124.475462 
L 391.162911 122.462314 
L 392.560907 119.496526 
L 393.958903 120.025869 
L 395.356898 119.386247 
L 396.754894 116.244648 
L 398.15289 111.83339 
L 399.550885 113.563302 
L 400.948881 110.418892 
L 402.346877 105.653633 
L 403.744872 105.339907 
L 405.142868 102.795589 
L 406.540864 102.27567 
L 407.93886 91.836378 
L 409.336855 96.933314 
L 410.734851 44.91708 
L 412.132847 40.74075 
L 413.530842 45.20813 
L 414.928838 90.337419 
L 416.326834 89.638158 
L 417.72483 90.503635 
L 417.72483 90.503635 
" clip-path="url(#p0025f9f99d)" style="fill: none; stroke: #ffb612; stroke-width: 3; stroke-linecap: square"/>
    <defs>
     <path id="ma967ac8646" d="M 0 1.5 
C 0.397805 1.5 0.77937 1.341951 1.06066 1.06066 
C 1.341951 0.77937 1.5 0.397805 1.5 0 
C 1.5 -0.397805 1.341951 -0.77937 1.06066 -1.06066 
C 0.77937 -1.341951 0.397805 -1.5 0 -1.5 
C -0.397805 -1.5 -0.77937 -1.341951 -1.06066 -1.06066 
C -1.341951 -0.77937 -1.5 -0.397805 -1.5 0 
C -1.5 0.397805 -1.341951 0.77937 -1.06066 1.06066 
C -0.77937 1.341951 -0.397805 1.5 0 1.5 
z
" style="stroke: #ffb612"/>
    </defs>
    <g clip-path="url(#p0025f9f99d)">
     <use xlink:href="#ma967ac8646" x="62.63392" y="135.802584" style="fill: #ffb612; stroke: #ffb612"/>
     <use xlink:href="#ma967ac8646" x="64.031916" y="135.127639" style="fill: #ffb612; stroke: #ffb612"/>
     <use xlink:href="#ma967ac8646" x="65.429912" y="135.515449" style="fill: #ffb612; stroke: #ffb612"/>
     <use xlink:href="#ma967ac8646" x="66.827908" y="136.386565" style="fill: #ffb612; stroke: #ffb612"/>
     <use xlink:href="#ma967ac8646" x="68.225903" y="136.517506" style="fill: #ffb612; stroke: #ffb612"/>
     <use xlink:href="#ma967ac8646" x="69.623899" y="136.180655" style="fill: #ffb612; stroke: #ffb612"/>
     <use xlink:href="#ma967ac8646" x="71.021895" y="135.888177" style="fill: #ffb612; stroke: #ffb612"/>
     <use xlink:href="#ma967ac8646" x="72.41989" y="135.692961" style="fill: #ffb612; stroke: #ffb612"/>
     <use xlink:href="#ma967ac8646" x="73.817886" y="135.578485" style="fill: #ffb612; stroke: #ffb612"/>
     <use xlink:href="#ma967ac8646" x="75.215882" y="135.062765" style="fill: #ffb612; stroke: #ffb612"/>
     <use xlink:href="#ma967ac8646" x="76.613878" y="134.648413" style="fill: #ffb612; stroke: #ffb612"/>
     <use xlink:href="#ma967ac8646" x="78.011873" y="134.641389" style="fill: #ffb612; stroke: #ffb612"/>
     <use xlink:href="#ma967ac8646" x="79.409869" y="135.093685" style="fill: #ffb612; stroke: #ffb612"/>
     <use xlink:href="#ma967ac8646" x="80.807865" y="135.364742" style="fill: #ffb612; stroke: #ffb612"/>
     <use xlink:href="#ma967ac8646" x="82.20586" y="137.142691" style="fill: #ffb612; stroke: #ffb612"/>
     <use xlink:href="#ma967ac8646" x="83.603856" y="136.55167" style="fill: #ffb612; stroke: #ffb612"/>
     <use xlink:href="#ma967ac8646" x="85.001852" y="128.085973" style="fill: #ffb612; stroke: #ffb612"/>
     <use xlink:href="#ma967ac8646" x="86.399847" y="128.211574" style="fill: #ffb612; stroke: #ffb612"/>
     <use xlink:href="#ma967ac8646" x="87.797843" y="127.148451" style="fill: #ffb612; stroke: #ffb612"/>
     <use xlink:href="#ma967ac8646" x="89.195839" y="127.971605" style="fill: #ffb612; stroke: #ffb612"/>
     <use xlink:href="#ma967ac8646" x="90.593835" y="121.907374" style="fill: #ffb612; stroke: #ffb612"/>
     <use xlink:href="#ma967ac8646" x="91.99183" y="119.17432" style="fill: #ffb612; stroke: #ffb612"/>
     <use xlink:href="#ma967ac8646" x="93.389826" y="119.453883" style="fill: #ffb612; stroke: #ffb612"/>
     <use xlink:href="#ma967ac8646" x="94.787822" y="111.983125" style="fill: #ffb612; stroke: #ffb612"/>
     <use xlink:href="#ma967ac8646" x="96.185817" y="112.624478" style="fill: #ffb612; stroke: #ffb612"/>
     <use xlink:href="#ma967ac8646" x="97.583813" y="103.794329" style="fill: #ffb612; stroke: #ffb612"/>
     <use xlink:href="#ma967ac8646" x="98.981809" y="100.336774" style="fill: #ffb612; stroke: #ffb612"/>
     <use xlink:href="#ma967ac8646" x="100.379804" y="111.863775" style="fill: #ffb612; stroke: #ffb612"/>
     <use xlink:href="#ma967ac8646" x="101.7778" y="115.867742" style="fill: #ffb612; stroke: #ffb612"/>
     <use xlink:href="#ma967ac8646" x="103.175796" y="112.116149" style="fill: #ffb612; stroke: #ffb612"/>
     <use xlink:href="#ma967ac8646" x="104.573792" y="115.822401" style="fill: #ffb612; stroke: #ffb612"/>
     <use xlink:href="#ma967ac8646" x="105.971787" y="116.12494" style="fill: #ffb612; stroke: #ffb612"/>
     <use xlink:href="#ma967ac8646" x="107.369783" y="137.427408" style="fill: #ffb612; stroke: #ffb612"/>
     <use xlink:href="#ma967ac8646" x="108.767779" y="136.396608" style="fill: #ffb612; stroke: #ffb612"/>
     <use xlink:href="#ma967ac8646" x="110.165774" y="133.454776" style="fill: #ffb612; stroke: #ffb612"/>
     <use xlink:href="#ma967ac8646" x="111.56377" y="136.897965" style="fill: #ffb612; stroke: #ffb612"/>
     <use xlink:href="#ma967ac8646" x="112.961766" y="133.938233" style="fill: #ffb612; stroke: #ffb612"/>
     <use xlink:href="#ma967ac8646" x="114.359762" y="136.092293" style="fill: #ffb612; stroke: #ffb612"/>
     <use xlink:href="#ma967ac8646" x="115.757757" y="137.166908" style="fill: #ffb612; stroke: #ffb612"/>
     <use xlink:href="#ma967ac8646" x="117.155753" y="137.101396" style="fill: #ffb612; stroke: #ffb612"/>
     <use xlink:href="#ma967ac8646" x="118.553749" y="136.146599" style="fill: #ffb612; stroke: #ffb612"/>
     <use xlink:href="#ma967ac8646" x="119.951744" y="136.168639" style="fill: #ffb612; stroke: #ffb612"/>
     <use xlink:href="#ma967ac8646" x="121.34974" y="136.241407" style="fill: #ffb612; stroke: #ffb612"/>
     <use xlink:href="#ma967ac8646" x="122.747736" y="137.082315" style="fill: #ffb612; stroke: #ffb612"/>
     <use xlink:href="#ma967ac8646" x="124.145731" y="135.958266" style="fill: #ffb612; stroke: #ffb612"/>
     <use xlink:href="#ma967ac8646" x="125.543727" y="135.496123" style="fill: #ffb612; stroke: #ffb612"/>
     <use xlink:href="#ma967ac8646" x="126.941723" y="136.00948" style="fill: #ffb612; stroke: #ffb612"/>
     <use xlink:href="#ma967ac8646" x="128.339719" y="136.088799" style="fill: #ffb612; stroke: #ffb612"/>
     <use xlink:href="#ma967ac8646" x="129.737714" y="136.260904" style="fill: #ffb612; stroke: #ffb612"/>
     <use xlink:href="#ma967ac8646" x="131.13571" y="135.715502" style="fill: #ffb612; stroke: #ffb612"/>
     <use xlink:href="#ma967ac8646" x="132.533706" y="135.394081" style="fill: #ffb612; stroke: #ffb612"/>
     <use xlink:href="#ma967ac8646" x="133.931701" y="136.257451" style="fill: #ffb612; stroke: #ffb612"/>
     <use xlink:href="#ma967ac8646" x="135.329697" y="135.372137" style="fill: #ffb612; stroke: #ffb612"/>
     <use xlink:href="#ma967ac8646" x="136.727693" y="134.307379" style="fill: #ffb612; stroke: #ffb612"/>
     <use xlink:href="#ma967ac8646" x="138.125689" y="135.631416" style="fill: #ffb612; stroke: #ffb612"/>
     <use xlink:href="#ma967ac8646" x="139.523684" y="135.281281" style="fill: #ffb612; stroke: #ffb612"/>
     <use xlink:href="#ma967ac8646" x="140.92168" y="133.612475" style="fill: #ffb612; stroke: #ffb612"/>
     <use xlink:href="#ma967ac8646" x="142.319676" y="133.655613" style="fill: #ffb612; stroke: #ffb612"/>
     <use xlink:href="#ma967ac8646" x="143.717671" y="135.368859" style="fill: #ffb612; stroke: #ffb612"/>
     <use xlink:href="#ma967ac8646" x="145.115667" y="134.512323" style="fill: #ffb612; stroke: #ffb612"/>
     <use xlink:href="#ma967ac8646" x="146.513663" y="133.623777" style="fill: #ffb612; stroke: #ffb612"/>
     <use xlink:href="#ma967ac8646" x="147.911658" y="134.837555" style="fill: #ffb612; stroke: #ffb612"/>
     <use xlink:href="#ma967ac8646" x="149.309654" y="131.955126" style="fill: #ffb612; stroke: #ffb612"/>
     <use xlink:href="#ma967ac8646" x="150.70765" y="131.739551" style="fill: #ffb612; stroke: #ffb612"/>
     <use xlink:href="#ma967ac8646" x="152.105646" y="128.550878" style="fill: #ffb612; stroke: #ffb612"/>
     <use xlink:href="#ma967ac8646" x="153.503641" y="129.466522" style="fill: #ffb612; stroke: #ffb612"/>
     <use xlink:href="#ma967ac8646" x="154.901637" y="130.137813" style="fill: #ffb612; stroke: #ffb612"/>
     <use xlink:href="#ma967ac8646" x="156.299633" y="129.56037" style="fill: #ffb612; stroke: #ffb612"/>
     <use xlink:href="#ma967ac8646" x="157.697628" y="129.726978" style="fill: #ffb612; stroke: #ffb612"/>
     <use xlink:href="#ma967ac8646" x="159.095624" y="127.181953" style="fill: #ffb612; stroke: #ffb612"/>
     <use xlink:href="#ma967ac8646" x="160.49362" y="127.166066" style="fill: #ffb612; stroke: #ffb612"/>
     <use xlink:href="#ma967ac8646" x="161.891616" y="125.961703" style="fill: #ffb612; stroke: #ffb612"/>
     <use xlink:href="#ma967ac8646" x="163.289611" y="126.387983" style="fill: #ffb612; stroke: #ffb612"/>
     <use xlink:href="#ma967ac8646" x="164.687607" y="128.235405" style="fill: #ffb612; stroke: #ffb612"/>
     <use xlink:href="#ma967ac8646" x="166.085603" y="129.205636" style="fill: #ffb612; stroke: #ffb612"/>
     <use xlink:href="#ma967ac8646" x="167.483598" y="129.967491" style="fill: #ffb612; stroke: #ffb612"/>
     <use xlink:href="#ma967ac8646" x="168.881594" y="126.883479" style="fill: #ffb612; stroke: #ffb612"/>
     <use xlink:href="#ma967ac8646" x="170.27959" y="147.769096" style="fill: #ffb612; stroke: #ffb612"/>
     <use xlink:href="#ma967ac8646" x="171.677585" y="149.2073" style="fill: #ffb612; stroke: #ffb612"/>
     <use xlink:href="#ma967ac8646" x="173.075581" y="148.947661" style="fill: #ffb612; stroke: #ffb612"/>
     <use xlink:href="#ma967ac8646" x="174.473577" y="149.730973" style="fill: #ffb612; stroke: #ffb612"/>
     <use xlink:href="#ma967ac8646" x="175.871573" y="150.045359" style="fill: #ffb612; stroke: #ffb612"/>
     <use xlink:href="#ma967ac8646" x="177.269568" y="149.908326" style="fill: #ffb612; stroke: #ffb612"/>
     <use xlink:href="#ma967ac8646" x="178.667564" y="149.614939" style="fill: #ffb612; stroke: #ffb612"/>
     <use xlink:href="#ma967ac8646" x="180.06556" y="127.688267" style="fill: #ffb612; stroke: #ffb612"/>
     <use xlink:href="#ma967ac8646" x="181.463555" y="127.077719" style="fill: #ffb612; stroke: #ffb612"/>
     <use xlink:href="#ma967ac8646" x="182.861551" y="126.841877" style="fill: #ffb612; stroke: #ffb612"/>
     <use xlink:href="#ma967ac8646" x="184.259547" y="125.069586" style="fill: #ffb612; stroke: #ffb612"/>
     <use xlink:href="#ma967ac8646" x="185.657543" y="124.334988" style="fill: #ffb612; stroke: #ffb612"/>
     <use xlink:href="#ma967ac8646" x="187.055538" y="123.876981" style="fill: #ffb612; stroke: #ffb612"/>
     <use xlink:href="#ma967ac8646" x="188.453534" y="125.93745" style="fill: #ffb612; stroke: #ffb612"/>
     <use xlink:href="#ma967ac8646" x="189.85153" y="124.308463" style="fill: #ffb612; stroke: #ffb612"/>
     <use xlink:href="#ma967ac8646" x="191.249525" y="123.642892" style="fill: #ffb612; stroke: #ffb612"/>
     <use xlink:href="#ma967ac8646" x="192.647521" y="123.006069" style="fill: #ffb612; stroke: #ffb612"/>
     <use xlink:href="#ma967ac8646" x="194.045517" y="126.134379" style="fill: #ffb612; stroke: #ffb612"/>
     <use xlink:href="#ma967ac8646" x="195.443512" y="121.6206" style="fill: #ffb612; stroke: #ffb612"/>
     <use xlink:href="#ma967ac8646" x="196.841508" y="123.299928" style="fill: #ffb612; stroke: #ffb612"/>
     <use xlink:href="#ma967ac8646" x="198.239504" y="125.558702" style="fill: #ffb612; stroke: #ffb612"/>
     <use xlink:href="#ma967ac8646" x="199.6375" y="124.806195" style="fill: #ffb612; stroke: #ffb612"/>
     <use xlink:href="#ma967ac8646" x="201.035495" y="146.304245" style="fill: #ffb612; stroke: #ffb612"/>
     <use xlink:href="#ma967ac8646" x="202.433491" y="121.013091" style="fill: #ffb612; stroke: #ffb612"/>
     <use xlink:href="#ma967ac8646" x="203.831487" y="124.118294" style="fill: #ffb612; stroke: #ffb612"/>
     <use xlink:href="#ma967ac8646" x="205.229482" y="147.659898" style="fill: #ffb612; stroke: #ffb612"/>
     <use xlink:href="#ma967ac8646" x="206.627478" y="148.737751" style="fill: #ffb612; stroke: #ffb612"/>
     <use xlink:href="#ma967ac8646" x="208.025474" y="149.057376" style="fill: #ffb612; stroke: #ffb612"/>
     <use xlink:href="#ma967ac8646" x="209.423469" y="149.304326" style="fill: #ffb612; stroke: #ffb612"/>
     <use xlink:href="#ma967ac8646" x="210.821465" y="148.943627" style="fill: #ffb612; stroke: #ffb612"/>
     <use xlink:href="#ma967ac8646" x="212.219461" y="149.130269" style="fill: #ffb612; stroke: #ffb612"/>
     <use xlink:href="#ma967ac8646" x="213.617457" y="149.123365" style="fill: #ffb612; stroke: #ffb612"/>
     <use xlink:href="#ma967ac8646" x="215.015452" y="149.720244" style="fill: #ffb612; stroke: #ffb612"/>
     <use xlink:href="#ma967ac8646" x="216.413448" y="149.152577" style="fill: #ffb612; stroke: #ffb612"/>
     <use xlink:href="#ma967ac8646" x="217.811444" y="148.759451" style="fill: #ffb612; stroke: #ffb612"/>
     <use xlink:href="#ma967ac8646" x="219.209439" y="148.877399" style="fill: #ffb612; stroke: #ffb612"/>
     <use xlink:href="#ma967ac8646" x="220.607435" y="148.465804" style="fill: #ffb612; stroke: #ffb612"/>
     <use xlink:href="#ma967ac8646" x="222.005431" y="148.825723" style="fill: #ffb612; stroke: #ffb612"/>
     <use xlink:href="#ma967ac8646" x="223.403427" y="148.436165" style="fill: #ffb612; stroke: #ffb612"/>
     <use xlink:href="#ma967ac8646" x="224.801422" y="147.703852" style="fill: #ffb612; stroke: #ffb612"/>
     <use xlink:href="#ma967ac8646" x="226.199418" y="147.641265" style="fill: #ffb612; stroke: #ffb612"/>
     <use xlink:href="#ma967ac8646" x="227.597414" y="147.575116" style="fill: #ffb612; stroke: #ffb612"/>
     <use xlink:href="#ma967ac8646" x="228.995409" y="146.34093" style="fill: #ffb612; stroke: #ffb612"/>
     <use xlink:href="#ma967ac8646" x="230.393405" y="147.204272" style="fill: #ffb612; stroke: #ffb612"/>
     <use xlink:href="#ma967ac8646" x="231.791401" y="146.879177" style="fill: #ffb612; stroke: #ffb612"/>
     <use xlink:href="#ma967ac8646" x="233.189396" y="146.619568" style="fill: #ffb612; stroke: #ffb612"/>
     <use xlink:href="#ma967ac8646" x="234.587392" y="123.709105" style="fill: #ffb612; stroke: #ffb612"/>
     <use xlink:href="#ma967ac8646" x="235.985388" y="125.439029" style="fill: #ffb612; stroke: #ffb612"/>
     <use xlink:href="#ma967ac8646" x="237.383384" y="125.662747" style="fill: #ffb612; stroke: #ffb612"/>
     <use xlink:href="#ma967ac8646" x="238.781379" y="122.815056" style="fill: #ffb612; stroke: #ffb612"/>
     <use xlink:href="#ma967ac8646" x="240.179375" y="146.252419" style="fill: #ffb612; stroke: #ffb612"/>
     <use xlink:href="#ma967ac8646" x="241.577371" y="146.624554" style="fill: #ffb612; stroke: #ffb612"/>
     <use xlink:href="#ma967ac8646" x="242.975366" y="146.307047" style="fill: #ffb612; stroke: #ffb612"/>
     <use xlink:href="#ma967ac8646" x="244.373362" y="123.023727" style="fill: #ffb612; stroke: #ffb612"/>
     <use xlink:href="#ma967ac8646" x="245.771358" y="121.926078" style="fill: #ffb612; stroke: #ffb612"/>
     <use xlink:href="#ma967ac8646" x="247.169354" y="124.561052" style="fill: #ffb612; stroke: #ffb612"/>
     <use xlink:href="#ma967ac8646" x="248.567349" y="122.360059" style="fill: #ffb612; stroke: #ffb612"/>
     <use xlink:href="#ma967ac8646" x="249.965345" y="125.481803" style="fill: #ffb612; stroke: #ffb612"/>
     <use xlink:href="#ma967ac8646" x="251.363341" y="125.108685" style="fill: #ffb612; stroke: #ffb612"/>
     <use xlink:href="#ma967ac8646" x="252.761336" y="125.969764" style="fill: #ffb612; stroke: #ffb612"/>
     <use xlink:href="#ma967ac8646" x="254.159332" y="147.346116" style="fill: #ffb612; stroke: #ffb612"/>
     <use xlink:href="#ma967ac8646" x="255.557328" y="124.457197" style="fill: #ffb612; stroke: #ffb612"/>
     <use xlink:href="#ma967ac8646" x="256.955323" y="124.004549" style="fill: #ffb612; stroke: #ffb612"/>
     <use xlink:href="#ma967ac8646" x="258.353319" y="124.711239" style="fill: #ffb612; stroke: #ffb612"/>
     <use xlink:href="#ma967ac8646" x="259.751315" y="123.865795" style="fill: #ffb612; stroke: #ffb612"/>
     <use xlink:href="#ma967ac8646" x="261.149311" y="125.8501" style="fill: #ffb612; stroke: #ffb612"/>
     <use xlink:href="#ma967ac8646" x="262.547306" y="125.923201" style="fill: #ffb612; stroke: #ffb612"/>
     <use xlink:href="#ma967ac8646" x="263.945302" y="146.067311" style="fill: #ffb612; stroke: #ffb612"/>
     <use xlink:href="#ma967ac8646" x="265.343298" y="148.046841" style="fill: #ffb612; stroke: #ffb612"/>
     <use xlink:href="#ma967ac8646" x="266.741293" y="124.188824" style="fill: #ffb612; stroke: #ffb612"/>
     <use xlink:href="#ma967ac8646" x="268.139289" y="123.110804" style="fill: #ffb612; stroke: #ffb612"/>
     <use xlink:href="#ma967ac8646" x="269.537285" y="120.042075" style="fill: #ffb612; stroke: #ffb612"/>
     <use xlink:href="#ma967ac8646" x="270.935281" y="121.131907" style="fill: #ffb612; stroke: #ffb612"/>
     <use xlink:href="#ma967ac8646" x="272.333276" y="115.238327" style="fill: #ffb612; stroke: #ffb612"/>
     <use xlink:href="#ma967ac8646" x="273.731272" y="110.153" style="fill: #ffb612; stroke: #ffb612"/>
     <use xlink:href="#ma967ac8646" x="275.129268" y="113.243507" style="fill: #ffb612; stroke: #ffb612"/>
     <use xlink:href="#ma967ac8646" x="276.527263" y="115.583505" style="fill: #ffb612; stroke: #ffb612"/>
     <use xlink:href="#ma967ac8646" x="277.925259" y="112.903854" style="fill: #ffb612; stroke: #ffb612"/>
     <use xlink:href="#ma967ac8646" x="279.323255" y="112.904445" style="fill: #ffb612; stroke: #ffb612"/>
     <use xlink:href="#ma967ac8646" x="280.72125" y="107.233533" style="fill: #ffb612; stroke: #ffb612"/>
     <use xlink:href="#ma967ac8646" x="282.119246" y="70.227946" style="fill: #ffb612; stroke: #ffb612"/>
     <use xlink:href="#ma967ac8646" x="283.517242" y="31.89086" style="fill: #ffb612; stroke: #ffb612"/>
     <use xlink:href="#ma967ac8646" x="284.915238" y="24.256003" style="fill: #ffb612; stroke: #ffb612"/>
     <use xlink:href="#ma967ac8646" x="286.313233" y="68.381942" style="fill: #ffb612; stroke: #ffb612"/>
     <use xlink:href="#ma967ac8646" x="287.711229" y="70.317627" style="fill: #ffb612; stroke: #ffb612"/>
     <use xlink:href="#ma967ac8646" x="289.109225" y="77.567645" style="fill: #ffb612; stroke: #ffb612"/>
     <use xlink:href="#ma967ac8646" x="290.50722" y="74.143062" style="fill: #ffb612; stroke: #ffb612"/>
     <use xlink:href="#ma967ac8646" x="291.905216" y="105.976059" style="fill: #ffb612; stroke: #ffb612"/>
     <use xlink:href="#ma967ac8646" x="293.303212" y="107.092639" style="fill: #ffb612; stroke: #ffb612"/>
     <use xlink:href="#ma967ac8646" x="294.701207" y="107.93546" style="fill: #ffb612; stroke: #ffb612"/>
     <use xlink:href="#ma967ac8646" x="296.099203" y="111.002243" style="fill: #ffb612; stroke: #ffb612"/>
     <use xlink:href="#ma967ac8646" x="297.497199" y="109.169761" style="fill: #ffb612; stroke: #ffb612"/>
     <use xlink:href="#ma967ac8646" x="298.895195" y="111.687935" style="fill: #ffb612; stroke: #ffb612"/>
     <use xlink:href="#ma967ac8646" x="300.29319" y="115.139734" style="fill: #ffb612; stroke: #ffb612"/>
     <use xlink:href="#ma967ac8646" x="301.691186" y="117.567437" style="fill: #ffb612; stroke: #ffb612"/>
     <use xlink:href="#ma967ac8646" x="303.089182" y="120.45781" style="fill: #ffb612; stroke: #ffb612"/>
     <use xlink:href="#ma967ac8646" x="304.487177" y="122.05175" style="fill: #ffb612; stroke: #ffb612"/>
     <use xlink:href="#ma967ac8646" x="305.885173" y="124.712551" style="fill: #ffb612; stroke: #ffb612"/>
     <use xlink:href="#ma967ac8646" x="307.283169" y="123.368699" style="fill: #ffb612; stroke: #ffb612"/>
     <use xlink:href="#ma967ac8646" x="308.681165" y="125.111135" style="fill: #ffb612; stroke: #ffb612"/>
     <use xlink:href="#ma967ac8646" x="310.07916" y="123.951899" style="fill: #ffb612; stroke: #ffb612"/>
     <use xlink:href="#ma967ac8646" x="311.477156" y="148.854592" style="fill: #ffb612; stroke: #ffb612"/>
     <use xlink:href="#ma967ac8646" x="312.875152" y="148.694865" style="fill: #ffb612; stroke: #ffb612"/>
     <use xlink:href="#ma967ac8646" x="314.273147" y="147.884805" style="fill: #ffb612; stroke: #ffb612"/>
     <use xlink:href="#ma967ac8646" x="315.671143" y="128.248079" style="fill: #ffb612; stroke: #ffb612"/>
     <use xlink:href="#ma967ac8646" x="317.069139" y="147.585492" style="fill: #ffb612; stroke: #ffb612"/>
     <use xlink:href="#ma967ac8646" x="318.467134" y="147.596916" style="fill: #ffb612; stroke: #ffb612"/>
     <use xlink:href="#ma967ac8646" x="319.86513" y="147.904058" style="fill: #ffb612; stroke: #ffb612"/>
     <use xlink:href="#ma967ac8646" x="321.263126" y="147.315753" style="fill: #ffb612; stroke: #ffb612"/>
     <use xlink:href="#ma967ac8646" x="322.661122" y="126.243158" style="fill: #ffb612; stroke: #ffb612"/>
     <use xlink:href="#ma967ac8646" x="324.059117" y="146.681979" style="fill: #ffb612; stroke: #ffb612"/>
     <use xlink:href="#ma967ac8646" x="325.457113" y="125.555366" style="fill: #ffb612; stroke: #ffb612"/>
     <use xlink:href="#ma967ac8646" x="326.855109" y="126.350604" style="fill: #ffb612; stroke: #ffb612"/>
     <use xlink:href="#ma967ac8646" x="328.253104" y="124.973363" style="fill: #ffb612; stroke: #ffb612"/>
     <use xlink:href="#ma967ac8646" x="329.6511" y="125.884279" style="fill: #ffb612; stroke: #ffb612"/>
     <use xlink:href="#ma967ac8646" x="331.049096" y="101.741787" style="fill: #ffb612; stroke: #ffb612"/>
     <use xlink:href="#ma967ac8646" x="332.447092" y="120.775074" style="fill: #ffb612; stroke: #ffb612"/>
     <use xlink:href="#ma967ac8646" x="333.845087" y="120.2452" style="fill: #ffb612; stroke: #ffb612"/>
     <use xlink:href="#ma967ac8646" x="335.243083" y="118.685804" style="fill: #ffb612; stroke: #ffb612"/>
     <use xlink:href="#ma967ac8646" x="336.641079" y="119.166189" style="fill: #ffb612; stroke: #ffb612"/>
     <use xlink:href="#ma967ac8646" x="338.039074" y="120.143364" style="fill: #ffb612; stroke: #ffb612"/>
     <use xlink:href="#ma967ac8646" x="339.43707" y="101.695339" style="fill: #ffb612; stroke: #ffb612"/>
     <use xlink:href="#ma967ac8646" x="340.835066" y="118.635058" style="fill: #ffb612; stroke: #ffb612"/>
     <use xlink:href="#ma967ac8646" x="342.233061" y="122.522168" style="fill: #ffb612; stroke: #ffb612"/>
     <use xlink:href="#ma967ac8646" x="343.631057" y="124.871116" style="fill: #ffb612; stroke: #ffb612"/>
     <use xlink:href="#ma967ac8646" x="345.029053" y="123.011547" style="fill: #ffb612; stroke: #ffb612"/>
     <use xlink:href="#ma967ac8646" x="346.427049" y="125.285156" style="fill: #ffb612; stroke: #ffb612"/>
     <use xlink:href="#ma967ac8646" x="347.825044" y="146.27166" style="fill: #ffb612; stroke: #ffb612"/>
     <use xlink:href="#ma967ac8646" x="349.22304" y="128.395105" style="fill: #ffb612; stroke: #ffb612"/>
     <use xlink:href="#ma967ac8646" x="350.621036" y="128.501014" style="fill: #ffb612; stroke: #ffb612"/>
     <use xlink:href="#ma967ac8646" x="352.019031" y="155.605376" style="fill: #ffb612; stroke: #ffb612"/>
     <use xlink:href="#ma967ac8646" x="353.417027" y="156.010339" style="fill: #ffb612; stroke: #ffb612"/>
     <use xlink:href="#ma967ac8646" x="354.815023" y="156.065771" style="fill: #ffb612; stroke: #ffb612"/>
     <use xlink:href="#ma967ac8646" x="356.213019" y="156.057326" style="fill: #ffb612; stroke: #ffb612"/>
     <use xlink:href="#ma967ac8646" x="357.611014" y="156.376056" style="fill: #ffb612; stroke: #ffb612"/>
     <use xlink:href="#ma967ac8646" x="359.00901" y="156.212778" style="fill: #ffb612; stroke: #ffb612"/>
     <use xlink:href="#ma967ac8646" x="360.407006" y="156.644173" style="fill: #ffb612; stroke: #ffb612"/>
     <use xlink:href="#ma967ac8646" x="361.805001" y="156.765143" style="fill: #ffb612; stroke: #ffb612"/>
     <use xlink:href="#ma967ac8646" x="363.202997" y="156.829245" style="fill: #ffb612; stroke: #ffb612"/>
     <use xlink:href="#ma967ac8646" x="364.600993" y="156.620197" style="fill: #ffb612; stroke: #ffb612"/>
     <use xlink:href="#ma967ac8646" x="365.998988" y="156.736917" style="fill: #ffb612; stroke: #ffb612"/>
     <use xlink:href="#ma967ac8646" x="367.396984" y="157.517585" style="fill: #ffb612; stroke: #ffb612"/>
     <use xlink:href="#ma967ac8646" x="368.79498" y="156.736475" style="fill: #ffb612; stroke: #ffb612"/>
     <use xlink:href="#ma967ac8646" x="370.192976" y="156.311891" style="fill: #ffb612; stroke: #ffb612"/>
     <use xlink:href="#ma967ac8646" x="371.590971" y="155.284245" style="fill: #ffb612; stroke: #ffb612"/>
     <use xlink:href="#ma967ac8646" x="372.988967" y="155.419505" style="fill: #ffb612; stroke: #ffb612"/>
     <use xlink:href="#ma967ac8646" x="374.386963" y="155.589654" style="fill: #ffb612; stroke: #ffb612"/>
     <use xlink:href="#ma967ac8646" x="375.784958" y="155.386304" style="fill: #ffb612; stroke: #ffb612"/>
     <use xlink:href="#ma967ac8646" x="377.182954" y="155.46149" style="fill: #ffb612; stroke: #ffb612"/>
     <use xlink:href="#ma967ac8646" x="378.58095" y="155.706848" style="fill: #ffb612; stroke: #ffb612"/>
     <use xlink:href="#ma967ac8646" x="379.978946" y="150.495582" style="fill: #ffb612; stroke: #ffb612"/>
     <use xlink:href="#ma967ac8646" x="381.376941" y="150.516007" style="fill: #ffb612; stroke: #ffb612"/>
     <use xlink:href="#ma967ac8646" x="382.774937" y="150.55246" style="fill: #ffb612; stroke: #ffb612"/>
     <use xlink:href="#ma967ac8646" x="384.172933" y="149.831186" style="fill: #ffb612; stroke: #ffb612"/>
     <use xlink:href="#ma967ac8646" x="385.570928" y="150.057203" style="fill: #ffb612; stroke: #ffb612"/>
     <use xlink:href="#ma967ac8646" x="386.968924" y="144.965563" style="fill: #ffb612; stroke: #ffb612"/>
     <use xlink:href="#ma967ac8646" x="388.36692" y="145.739337" style="fill: #ffb612; stroke: #ffb612"/>
     <use xlink:href="#ma967ac8646" x="389.764915" y="124.475462" style="fill: #ffb612; stroke: #ffb612"/>
     <use xlink:href="#ma967ac8646" x="391.162911" y="122.462314" style="fill: #ffb612; stroke: #ffb612"/>
     <use xlink:href="#ma967ac8646" x="392.560907" y="119.496526" style="fill: #ffb612; stroke: #ffb612"/>
     <use xlink:href="#ma967ac8646" x="393.958903" y="120.025869" style="fill: #ffb612; stroke: #ffb612"/>
     <use xlink:href="#ma967ac8646" x="395.356898" y="119.386247" style="fill: #ffb612; stroke: #ffb612"/>
     <use xlink:href="#ma967ac8646" x="396.754894" y="116.244648" style="fill: #ffb612; stroke: #ffb612"/>
     <use xlink:href="#ma967ac8646" x="398.15289" y="111.83339" style="fill: #ffb612; stroke: #ffb612"/>
     <use xlink:href="#ma967ac8646" x="399.550885" y="113.563302" style="fill: #ffb612; stroke: #ffb612"/>
     <use xlink:href="#ma967ac8646" x="400.948881" y="110.418892" style="fill: #ffb612; stroke: #ffb612"/>
     <use xlink:href="#ma967ac8646" x="402.346877" y="105.653633" style="fill: #ffb612; stroke: #ffb612"/>
     <use xlink:href="#ma967ac8646" x="403.744872" y="105.339907" style="fill: #ffb612; stroke: #ffb612"/>
     <use xlink:href="#ma967ac8646" x="405.142868" y="102.795589" style="fill: #ffb612; stroke: #ffb612"/>
     <use xlink:href="#ma967ac8646" x="406.540864" y="102.27567" style="fill: #ffb612; stroke: #ffb612"/>
     <use xlink:href="#ma967ac8646" x="407.93886" y="91.836378" style="fill: #ffb612; stroke: #ffb612"/>
     <use xlink:href="#ma967ac8646" x="409.336855" y="96.933314" style="fill: #ffb612; stroke: #ffb612"/>
     <use xlink:href="#ma967ac8646" x="410.734851" y="44.91708" style="fill: #ffb612; stroke: #ffb612"/>
     <use xlink:href="#ma967ac8646" x="412.132847" y="40.74075" style="fill: #ffb612; stroke: #ffb612"/>
     <use xlink:href="#ma967ac8646" x="413.530842" y="45.20813" style="fill: #ffb612; stroke: #ffb612"/>
     <use xlink:href="#ma967ac8646" x="414.928838" y="90.337419" style="fill: #ffb612; stroke: #ffb612"/>
     <use xlink:href="#ma967ac8646" x="416.326834" y="89.638158" style="fill: #ffb612; stroke: #ffb612"/>
     <use xlink:href="#ma967ac8646" x="417.72483" y="90.503635" style="fill: #ffb612; stroke: #ffb612"/>
    </g>
   </g>
   <g id="line2d_30">
    <path d="M 62.63392 135.334887 
L 64.031916 134.94934 
L 65.429912 130.597098 
L 66.827908 132.395186 
L 68.225903 131.838159 
L 69.623899 131.965335 
L 71.021895 135.307184 
L 72.41989 134.806121 
L 73.817886 135.399935 
L 75.215882 135.708611 
L 76.613878 138.396585 
L 78.011873 138.749461 
L 79.409869 137.806277 
L 80.807865 135.748913 
L 82.20586 131.059792 
L 83.603856 130.153551 
L 85.001852 129.850848 
L 86.399847 128.802749 
L 87.797843 129.645146 
L 89.195839 130.023785 
L 90.593835 127.857372 
L 91.99183 125.189503 
L 93.389826 125.484687 
L 94.787822 124.776259 
L 96.185817 117.954598 
L 97.583813 116.433412 
L 98.981809 113.781575 
L 100.379804 117.617828 
L 101.7778 120.662093 
L 103.175796 119.83168 
L 104.573792 121.902495 
L 105.971787 122.398793 
L 107.369783 129.755341 
L 108.767779 133.967079 
L 110.165774 132.346819 
L 111.56377 136.207067 
L 112.961766 134.116559 
L 114.359762 135.460218 
L 115.757757 131.26991 
L 117.155753 136.641366 
L 118.553749 140.163697 
L 119.951744 140.865043 
L 122.747736 140.924862 
L 124.145731 140.877876 
L 125.543727 145.795329 
L 126.941723 143.674654 
L 128.339719 144.056687 
L 129.737714 143.709507 
L 131.13571 145.557117 
L 132.533706 145.721763 
L 133.931701 144.808858 
L 135.329697 145.820944 
L 136.727693 143.727467 
L 138.125689 141.010394 
L 139.523684 142.067179 
L 140.92168 148.104873 
L 142.319676 149.161606 
L 143.717671 148.508575 
L 145.115667 145.682251 
L 146.513663 145.335743 
L 147.911658 143.140933 
L 149.309654 142.20058 
L 150.70765 140.350281 
L 152.105646 139.570375 
L 153.503641 139.470298 
L 154.901637 135.910883 
L 156.299633 138.69148 
L 157.697628 139.222012 
L 159.095624 146.351195 
L 160.49362 146.344053 
L 161.891616 144.32516 
L 163.289611 143.614067 
L 164.687607 144.678455 
L 166.085603 145.069413 
L 167.483598 144.874393 
L 168.881594 143.523966 
L 170.27959 147.310028 
L 171.677585 147.757841 
L 173.075581 147.479007 
L 174.473577 148.375507 
L 175.871573 148.821673 
L 177.269568 148.630893 
L 178.667564 145.590553 
L 180.06556 145.009401 
L 181.463555 142.558324 
L 182.861551 142.96109 
L 184.259547 141.916003 
L 185.657543 139.729025 
L 187.055538 139.779734 
L 188.453534 140.652675 
L 189.85153 140.028571 
L 191.249525 138.30802 
L 192.647521 137.427099 
L 194.045517 140.765434 
L 195.443512 138.29324 
L 196.841508 141.848963 
L 198.239504 143.302234 
L 199.6375 143.85525 
L 201.035495 144.566656 
L 202.433491 142.706926 
L 203.831487 144.192996 
L 205.229482 147.397407 
L 206.627478 148.128562 
L 209.423469 150.417841 
L 210.821465 149.637136 
L 213.617457 150.131958 
L 215.015452 152.041791 
L 216.413448 150.079526 
L 217.811444 149.216809 
L 219.209439 149.146466 
L 220.607435 148.415814 
L 222.005431 149.054511 
L 223.403427 148.749017 
L 224.801422 147.195594 
L 226.199418 146.839728 
L 227.597414 146.69679 
L 228.995409 144.290494 
L 230.393405 145.668505 
L 231.791401 145.425732 
L 233.189396 144.35157 
L 234.587392 140.990331 
L 235.985388 143.349712 
L 237.383384 143.222521 
L 238.781379 142.459809 
L 240.179375 145.49996 
L 241.577371 145.470038 
L 242.975366 144.799719 
L 244.373362 143.491065 
L 245.771358 142.48298 
L 247.169354 141.297956 
L 248.567349 140.925835 
L 249.965345 140.80978 
L 251.363341 140.443706 
L 252.761336 143.433093 
L 254.159332 144.534824 
L 255.557328 144.229731 
L 256.955323 143.707592 
L 258.353319 144.142929 
L 259.751315 141.253508 
L 261.149311 141.804472 
L 262.547306 141.31277 
L 263.945302 144.907143 
L 265.343298 145.648417 
L 266.741293 138.075041 
L 268.139289 138.109089 
L 269.537285 135.794423 
L 270.935281 136.081427 
L 272.333276 117.034021 
L 273.731272 105.843534 
L 275.129268 111.508854 
L 276.527263 115.959092 
L 277.925259 110.024891 
L 279.323255 107.015323 
L 280.72125 95.278447 
L 282.119246 66.850563 
L 283.517242 31.110648 
L 284.915238 22.891526 
L 286.313233 55.17632 
L 287.711229 67.295726 
L 289.109225 88.199498 
L 290.50722 84.168316 
L 291.905216 93.841734 
L 293.303212 101.806391 
L 294.701207 103.574588 
L 296.099203 109.51063 
L 297.497199 109.580789 
L 298.895195 112.934793 
L 300.29319 117.229564 
L 301.691186 130.289096 
L 303.089182 134.197553 
L 304.487177 135.007844 
L 305.885173 140.816944 
L 307.283169 141.700624 
L 310.07916 141.822739 
L 311.477156 145.839636 
L 312.875152 145.799108 
L 314.273147 145.206816 
L 315.671143 144.440446 
L 317.069139 144.490994 
L 318.467134 145.292767 
L 319.86513 147.02726 
L 321.263126 145.548713 
L 322.661122 144.795821 
L 324.059117 145.358619 
L 325.457113 140.534818 
L 326.855109 137.317186 
L 328.253104 137.10183 
L 329.6511 137.372243 
L 331.049096 109.269966 
L 332.447092 125.017127 
L 333.845087 120.013238 
L 335.243083 120.515796 
L 336.641079 120.552914 
L 338.039074 121.331752 
L 339.43707 112.243502 
L 340.835066 118.925775 
L 342.233061 127.989602 
L 343.631057 134.859321 
L 345.029053 133.785932 
L 346.427049 133.800885 
L 347.825044 146.507291 
L 349.22304 142.640212 
L 350.621036 144.83868 
L 352.019031 154.921788 
L 353.417027 155.427716 
L 354.815023 155.001028 
L 356.213019 155.020599 
L 357.611014 155.593441 
L 359.00901 155.777578 
L 360.407006 156.084646 
L 361.805001 155.775926 
L 363.202997 155.732669 
L 364.600993 155.554518 
L 365.998988 155.570445 
L 367.396984 156.350233 
L 368.79498 156.553858 
L 370.192976 156.538272 
L 371.590971 154.453807 
L 372.988967 154.780873 
L 374.386963 154.411722 
L 375.784958 154.42327 
L 378.58095 153.464386 
L 379.978946 152.37879 
L 381.376941 152.012006 
L 384.172933 150.404079 
L 385.570928 150.410304 
L 386.968924 143.922839 
L 388.36692 144.692802 
L 389.764915 141.059116 
L 391.162911 139.436097 
L 392.560907 134.052467 
L 393.958903 131.724005 
L 395.356898 131.749762 
L 396.754894 124.69493 
L 398.15289 120.492152 
L 399.550885 117.077797 
L 402.346877 101.234993 
L 403.744872 100.009765 
L 405.142868 100.011087 
L 406.540864 101.356942 
L 407.93886 76.619458 
L 409.336855 84.994822 
L 410.734851 59.488712 
L 412.132847 56.701113 
L 413.530842 60.628852 
L 414.928838 75.284983 
L 416.326834 75.897147 
L 417.72483 76.060999 
L 417.72483 76.060999 
" clip-path="url(#p0025f9f99d)" style="fill: none; stroke-dasharray: 5.55,2.4; stroke-dashoffset: 0; stroke: #000000; stroke-width: 1.5"/>
   </g>
   <g id="patch_3">
    <path d="M 44.879375 166.32 
L 44.879375 -0 
" style="fill: none; stroke: #ffffff; stroke-linejoin: miter; stroke-linecap: square"/>
   </g>
   <g id="patch_4">
    <path d="M 435.479375 166.32 
L 435.479375 -0 
" style="fill: none; stroke: #ffffff; stroke-linejoin: miter; stroke-linecap: square"/>
   </g>
   <g id="patch_5">
    <path d="M 44.879375 166.32 
L 435.479375 166.32 
" style="fill: none; stroke: #ffffff; stroke-linejoin: miter; stroke-linecap: square"/>
   </g>
   <g id="patch_6">
    <path d="M 44.879375 -0 
L 435.479375 -0 
" style="fill: none; stroke: #ffffff; stroke-linejoin: miter; stroke-linecap: square"/>
   </g>
   <g id="legend_1">
    <g id="patch_7">
     <path d="M 51.879375 60.378125 
L 203.92625 60.378125 
Q 205.92625 60.378125 205.92625 58.378125 
L 205.92625 7 
Q 205.92625 5 203.92625 5 
L 51.879375 5 
Q 49.879375 5 49.879375 7 
L 49.879375 58.378125 
Q 49.879375 60.378125 51.879375 60.378125 
z
" style="fill: #e5e5e5; opacity: 0.8; stroke: #cccccc; stroke-width: 0.5; stroke-linejoin: miter"/>
    </g>
    <g id="line2d_31">
     <path d="M 53.879375 15.5 
L 63.879375 15.5 
L 73.879375 15.5 
" style="fill: none; stroke: #ffb612; stroke-width: 3; stroke-linecap: square"/>
     <g>
      <use xlink:href="#ma967ac8646" x="63.879375" y="15.5" style="fill: #ffb612; stroke: #ffb612"/>
     </g>
    </g>
    <g id="text_17">
     <!-- Private Value $\tilde{R}_{\chi_3,\chi_1}^t$ -->
     <g transform="translate(81.879375 19) scale(0.1 -0.1)">
      <defs>
       <path id="DejaVuSans-50" d="M 1259 4147 
L 1259 2394 
L 2053 2394 
Q 2494 2394 2734 2622 
Q 2975 2850 2975 3272 
Q 2975 3691 2734 3919 
Q 2494 4147 2053 4147 
L 1259 4147 
z
M 628 4666 
L 2053 4666 
Q 2838 4666 3239 4311 
Q 3641 3956 3641 3272 
Q 3641 2581 3239 2228 
Q 2838 1875 2053 1875 
L 1259 1875 
L 1259 0 
L 628 0 
L 628 4666 
z
" transform="scale(0.015625)"/>
       <path id="DejaVuSans-72" d="M 2631 2963 
Q 2534 3019 2420 3045 
Q 2306 3072 2169 3072 
Q 1681 3072 1420 2755 
Q 1159 2438 1159 1844 
L 1159 0 
L 581 0 
L 581 3500 
L 1159 3500 
L 1159 2956 
Q 1341 3275 1631 3429 
Q 1922 3584 2338 3584 
Q 2397 3584 2469 3576 
Q 2541 3569 2628 3553 
L 2631 2963 
z
" transform="scale(0.015625)"/>
       <path id="DejaVuSans-69" d="M 603 3500 
L 1178 3500 
L 1178 0 
L 603 0 
L 603 3500 
z
M 603 4863 
L 1178 4863 
L 1178 4134 
L 603 4134 
L 603 4863 
z
" transform="scale(0.015625)"/>
       <path id="DejaVuSans-76" d="M 191 3500 
L 800 3500 
L 1894 563 
L 2988 3500 
L 3597 3500 
L 2284 0 
L 1503 0 
L 191 3500 
z
" transform="scale(0.015625)"/>
       <path id="DejaVuSans-20" transform="scale(0.015625)"/>
       <path id="DejaVuSans-303" d="M -1621 4281 
L -1799 4453 
Q -1867 4516 -1919 4545 
Q -1971 4575 -2011 4575 
Q -2130 4575 -2186 4461 
Q -2242 4347 -2249 4091 
L -2639 4091 
Q -2633 4513 -2473 4742 
Q -2314 4972 -2030 4972 
Q -1911 4972 -1811 4928 
Q -1711 4884 -1596 4781 
L -1417 4609 
Q -1349 4547 -1297 4517 
Q -1246 4488 -1205 4488 
Q -1086 4488 -1030 4602 
Q -974 4716 -967 4972 
L -577 4972 
Q -583 4550 -742 4320 
Q -902 4091 -1186 4091 
Q -1305 4091 -1405 4134 
Q -1505 4178 -1621 4281 
z
" transform="scale(0.015625)"/>
       <path id="DejaVuSans-Oblique-52" d="M 1613 4147 
L 1294 2491 
L 2106 2491 
Q 2584 2491 2879 2755 
Q 3175 3019 3175 3444 
Q 3175 3784 2976 3965 
Q 2778 4147 2406 4147 
L 1613 4147 
z
M 2772 2241 
Q 2972 2194 3105 2009 
Q 3238 1825 3413 1275 
L 3809 0 
L 3144 0 
L 2778 1197 
Q 2638 1659 2453 1815 
Q 2269 1972 1888 1972 
L 1191 1972 
L 806 0 
L 172 0 
L 1081 4666 
L 2503 4666 
Q 3150 4666 3495 4373 
Q 3841 4081 3841 3531 
Q 3841 3044 3547 2687 
Q 3253 2331 2772 2241 
z
" transform="scale(0.015625)"/>
       <path id="DejaVuSans-Oblique-74" d="M 2706 3500 
L 2619 3053 
L 1472 3053 
L 1100 1153 
Q 1081 1047 1072 975 
Q 1063 903 1063 863 
Q 1063 663 1183 572 
Q 1303 481 1569 481 
L 2150 481 
L 2053 0 
L 1503 0 
Q 991 0 739 200 
Q 488 400 488 806 
Q 488 878 497 964 
Q 506 1050 525 1153 
L 897 3053 
L 409 3053 
L 500 3500 
L 978 3500 
L 1172 4494 
L 1747 4494 
L 1556 3500 
L 2706 3500 
z
" transform="scale(0.015625)"/>
       <path id="DejaVuSans-Oblique-3c7" d="M 1922 -781 
L 1691 416 
L 394 -1334 
L -284 -1334 
L 1553 1141 
L 1269 2613 
Q 1194 3006 713 3006 
L 559 3006 
L 653 3500 
L 872 3494 
Q 1675 3472 1775 2950 
L 2006 1753 
L 3303 3503 
L 3981 3503 
L 2144 1028 
L 2428 -444 
Q 2503 -838 2984 -838 
L 3138 -838 
L 3044 -1331 
L 2825 -1325 
Q 2022 -1303 1922 -781 
z
" transform="scale(0.015625)"/>
       <path id="DejaVuSans-2c" d="M 750 794 
L 1409 794 
L 1409 256 
L 897 -744 
L 494 -744 
L 750 256 
L 750 794 
z
" transform="scale(0.015625)"/>
      </defs>
      <use xlink:href="#DejaVuSans-50" transform="translate(0 0.828125)"/>
      <use xlink:href="#DejaVuSans-72" transform="translate(60.302734 0.828125)"/>
      <use xlink:href="#DejaVuSans-69" transform="translate(101.416016 0.828125)"/>
      <use xlink:href="#DejaVuSans-76" transform="translate(129.199219 0.828125)"/>
      <use xlink:href="#DejaVuSans-61" transform="translate(188.378906 0.828125)"/>
      <use xlink:href="#DejaVuSans-74" transform="translate(249.658203 0.828125)"/>
      <use xlink:href="#DejaVuSans-65" transform="translate(288.867188 0.828125)"/>
      <use xlink:href="#DejaVuSans-20" transform="translate(350.390625 0.828125)"/>
      <use xlink:href="#DejaVuSans-56" transform="translate(382.177734 0.828125)"/>
      <use xlink:href="#DejaVuSans-61" transform="translate(450.585938 0.828125)"/>
      <use xlink:href="#DejaVuSans-6c" transform="translate(511.865234 0.828125)"/>
      <use xlink:href="#DejaVuSans-75" transform="translate(539.648438 0.828125)"/>
      <use xlink:href="#DejaVuSans-65" transform="translate(603.027344 0.828125)"/>
      <use xlink:href="#DejaVuSans-20" transform="translate(664.550781 0.828125)"/>
      <use xlink:href="#DejaVuSans-303" transform="translate(764.942871 22.3125)"/>
      <use xlink:href="#DejaVuSans-Oblique-52" transform="translate(696.337891 0.828125)"/>
      <use xlink:href="#DejaVuSans-Oblique-74" transform="translate(766.777344 39.109375) scale(0.7)"/>
      <use xlink:href="#DejaVuSans-Oblique-3c7" transform="translate(766.777344 -26.515625) scale(0.7)"/>
      <use xlink:href="#DejaVuSans-33" transform="translate(808.203125 -38) scale(0.49)"/>
      <use xlink:href="#DejaVuSans-2c" transform="translate(841.29248 -26.515625) scale(0.7)"/>
      <use xlink:href="#DejaVuSans-Oblique-3c7" transform="translate(877.181152 -26.515625) scale(0.7)"/>
      <use xlink:href="#DejaVuSans-31" transform="translate(918.606934 -38) scale(0.49)"/>
     </g>
    </g>
    <g id="line2d_32">
     <path d="M 53.879375 34 
L 63.879375 34 
L 73.879375 34 
" style="fill: none; stroke-dasharray: 5.55,2.4; stroke-dashoffset: 0; stroke: #000000; stroke-width: 1.5"/>
    </g>
    <g id="text_18">
     <!-- Original Value $\bar{R}_{\chi_3,\chi_1}^t$ -->
     <g transform="translate(81.879375 37.5) scale(0.1 -0.1)">
      <defs>
       <path id="DejaVuSans-4f" d="M 2522 4238 
Q 1834 4238 1429 3725 
Q 1025 3213 1025 2328 
Q 1025 1447 1429 934 
Q 1834 422 2522 422 
Q 3209 422 3611 934 
Q 4013 1447 4013 2328 
Q 4013 3213 3611 3725 
Q 3209 4238 2522 4238 
z
M 2522 4750 
Q 3503 4750 4090 4092 
Q 4678 3434 4678 2328 
Q 4678 1225 4090 567 
Q 3503 -91 2522 -91 
Q 1538 -91 948 565 
Q 359 1222 359 2328 
Q 359 3434 948 4092 
Q 1538 4750 2522 4750 
z
" transform="scale(0.015625)"/>
       <path id="DejaVuSans-67" d="M 2906 1791 
Q 2906 2416 2648 2759 
Q 2391 3103 1925 3103 
Q 1463 3103 1205 2759 
Q 947 2416 947 1791 
Q 947 1169 1205 825 
Q 1463 481 1925 481 
Q 2391 481 2648 825 
Q 2906 1169 2906 1791 
z
M 3481 434 
Q 3481 -459 3084 -895 
Q 2688 -1331 1869 -1331 
Q 1566 -1331 1297 -1286 
Q 1028 -1241 775 -1147 
L 775 -588 
Q 1028 -725 1275 -790 
Q 1522 -856 1778 -856 
Q 2344 -856 2625 -561 
Q 2906 -266 2906 331 
L 2906 616 
Q 2728 306 2450 153 
Q 2172 0 1784 0 
Q 1141 0 747 490 
Q 353 981 353 1791 
Q 353 2603 747 3093 
Q 1141 3584 1784 3584 
Q 2172 3584 2450 3431 
Q 2728 3278 2906 2969 
L 2906 3500 
L 3481 3500 
L 3481 434 
z
" transform="scale(0.015625)"/>
       <path id="DejaVuSans-6e" d="M 3513 2113 
L 3513 0 
L 2938 0 
L 2938 2094 
Q 2938 2591 2744 2837 
Q 2550 3084 2163 3084 
Q 1697 3084 1428 2787 
Q 1159 2491 1159 1978 
L 1159 0 
L 581 0 
L 581 3500 
L 1159 3500 
L 1159 2956 
Q 1366 3272 1645 3428 
Q 1925 3584 2291 3584 
Q 2894 3584 3203 3211 
Q 3513 2838 3513 2113 
z
" transform="scale(0.015625)"/>
       <path id="DejaVuSans-304" d="M -2518 4769 
L -650 4769 
L -650 4306 
L -2518 4306 
L -2518 4769 
z
" transform="scale(0.015625)"/>
      </defs>
      <use xlink:href="#DejaVuSans-4f" transform="translate(0 0.359375)"/>
      <use xlink:href="#DejaVuSans-72" transform="translate(78.710938 0.359375)"/>
      <use xlink:href="#DejaVuSans-69" transform="translate(119.824219 0.359375)"/>
      <use xlink:href="#DejaVuSans-67" transform="translate(147.607422 0.359375)"/>
      <use xlink:href="#DejaVuSans-69" transform="translate(211.083984 0.359375)"/>
      <use xlink:href="#DejaVuSans-6e" transform="translate(238.867188 0.359375)"/>
      <use xlink:href="#DejaVuSans-61" transform="translate(302.246094 0.359375)"/>
      <use xlink:href="#DejaVuSans-6c" transform="translate(363.525391 0.359375)"/>
      <use xlink:href="#DejaVuSans-20" transform="translate(391.308594 0.359375)"/>
      <use xlink:href="#DejaVuSans-56" transform="translate(423.095703 0.359375)"/>
      <use xlink:href="#DejaVuSans-61" transform="translate(491.503906 0.359375)"/>
      <use xlink:href="#DejaVuSans-6c" transform="translate(552.783203 0.359375)"/>
      <use xlink:href="#DejaVuSans-75" transform="translate(580.566406 0.359375)"/>
      <use xlink:href="#DejaVuSans-65" transform="translate(643.945312 0.359375)"/>
      <use xlink:href="#DejaVuSans-20" transform="translate(705.46875 0.359375)"/>
      <use xlink:href="#DejaVuSans-304" transform="translate(804.970215 18.484375)"/>
      <use xlink:href="#DejaVuSans-Oblique-52" transform="translate(737.255859 0.359375)"/>
      <use xlink:href="#DejaVuSans-Oblique-74" transform="translate(807.695312 38.640625) scale(0.7)"/>
      <use xlink:href="#DejaVuSans-Oblique-3c7" transform="translate(807.695312 -26.984375) scale(0.7)"/>
      <use xlink:href="#DejaVuSans-33" transform="translate(849.121094 -38.46875) scale(0.49)"/>
      <use xlink:href="#DejaVuSans-2c" transform="translate(882.210449 -26.984375) scale(0.7)"/>
      <use xlink:href="#DejaVuSans-Oblique-3c7" transform="translate(918.099121 -26.984375) scale(0.7)"/>
      <use xlink:href="#DejaVuSans-31" transform="translate(959.524902 -38.46875) scale(0.49)"/>
     </g>
    </g>
    <g id="patch_8">
     <path d="M 53.879375 54.298437 
L 73.879375 54.298437 
L 73.879375 47.298437 
L 53.879375 47.298437 
z
" style="fill: #ffb612; fill-opacity: 0.5; stroke: #ffb612; stroke-opacity: 0.5; stroke-width: 0.5; stroke-linejoin: miter"/>
    </g>
    <g id="text_19">
     <!-- One Standard Deviation -->
     <g transform="translate(81.879375 54.298437) scale(0.1 -0.1)">
      <defs>
       <path id="DejaVuSans-53" d="M 3425 4513 
L 3425 3897 
Q 3066 4069 2747 4153 
Q 2428 4238 2131 4238 
Q 1616 4238 1336 4038 
Q 1056 3838 1056 3469 
Q 1056 3159 1242 3001 
Q 1428 2844 1947 2747 
L 2328 2669 
Q 3034 2534 3370 2195 
Q 3706 1856 3706 1288 
Q 3706 609 3251 259 
Q 2797 -91 1919 -91 
Q 1588 -91 1214 -16 
Q 841 59 441 206 
L 441 856 
Q 825 641 1194 531 
Q 1563 422 1919 422 
Q 2459 422 2753 634 
Q 3047 847 3047 1241 
Q 3047 1584 2836 1778 
Q 2625 1972 2144 2069 
L 1759 2144 
Q 1053 2284 737 2584 
Q 422 2884 422 3419 
Q 422 4038 858 4394 
Q 1294 4750 2059 4750 
Q 2388 4750 2728 4690 
Q 3069 4631 3425 4513 
z
" transform="scale(0.015625)"/>
       <path id="DejaVuSans-64" d="M 2906 2969 
L 2906 4863 
L 3481 4863 
L 3481 0 
L 2906 0 
L 2906 525 
Q 2725 213 2448 61 
Q 2172 -91 1784 -91 
Q 1150 -91 751 415 
Q 353 922 353 1747 
Q 353 2572 751 3078 
Q 1150 3584 1784 3584 
Q 2172 3584 2448 3432 
Q 2725 3281 2906 2969 
z
M 947 1747 
Q 947 1113 1208 752 
Q 1469 391 1925 391 
Q 2381 391 2643 752 
Q 2906 1113 2906 1747 
Q 2906 2381 2643 2742 
Q 2381 3103 1925 3103 
Q 1469 3103 1208 2742 
Q 947 2381 947 1747 
z
" transform="scale(0.015625)"/>
       <path id="DejaVuSans-6f" d="M 1959 3097 
Q 1497 3097 1228 2736 
Q 959 2375 959 1747 
Q 959 1119 1226 758 
Q 1494 397 1959 397 
Q 2419 397 2687 759 
Q 2956 1122 2956 1747 
Q 2956 2369 2687 2733 
Q 2419 3097 1959 3097 
z
M 1959 3584 
Q 2709 3584 3137 3096 
Q 3566 2609 3566 1747 
Q 3566 888 3137 398 
Q 2709 -91 1959 -91 
Q 1206 -91 779 398 
Q 353 888 353 1747 
Q 353 2609 779 3096 
Q 1206 3584 1959 3584 
z
" transform="scale(0.015625)"/>
      </defs>
      <use xlink:href="#DejaVuSans-4f"/>
      <use xlink:href="#DejaVuSans-6e" x="78.710938"/>
      <use xlink:href="#DejaVuSans-65" x="142.089844"/>
      <use xlink:href="#DejaVuSans-20" x="203.613281"/>
      <use xlink:href="#DejaVuSans-53" x="235.400391"/>
      <use xlink:href="#DejaVuSans-74" x="298.876953"/>
      <use xlink:href="#DejaVuSans-61" x="338.085938"/>
      <use xlink:href="#DejaVuSans-6e" x="399.365234"/>
      <use xlink:href="#DejaVuSans-64" x="462.744141"/>
      <use xlink:href="#DejaVuSans-61" x="526.220703"/>
      <use xlink:href="#DejaVuSans-72" x="587.5"/>
      <use xlink:href="#DejaVuSans-64" x="626.863281"/>
      <use xlink:href="#DejaVuSans-20" x="690.339844"/>
      <use xlink:href="#DejaVuSans-44" x="722.126953"/>
      <use xlink:href="#DejaVuSans-65" x="799.128906"/>
      <use xlink:href="#DejaVuSans-76" x="860.652344"/>
      <use xlink:href="#DejaVuSans-69" x="919.832031"/>
      <use xlink:href="#DejaVuSans-61" x="947.615234"/>
      <use xlink:href="#DejaVuSans-74" x="1008.894531"/>
      <use xlink:href="#DejaVuSans-69" x="1048.103516"/>
      <use xlink:href="#DejaVuSans-6f" x="1075.886719"/>
      <use xlink:href="#DejaVuSans-6e" x="1137.068359"/>
     </g>
    </g>
   </g>
  </g>
 </g>
 <defs>
  <clipPath id="p0025f9f99d">
   <rect x="44.879375" y="-0" width="390.6" height="166.32"/>
  </clipPath>
 </defs>
</svg>
