<?xml version="1.0" encoding="utf-8" standalone="no"?>
<!DOCTYPE svg PUBLIC "-//W3C//DTD SVG 1.1//EN"
  "http://www.w3.org/Graphics/SVG/1.1/DTD/svg11.dtd">
<svg xmlns:xlink="http://www.w3.org/1999/xlink" width="444.375067pt" height="199.211464pt" viewBox="0 0 444.375067 199.211464" xmlns="http://www.w3.org/2000/svg" version="1.1">
 <metadata>
  <rdf:RDF xmlns:dc="http://purl.org/dc/elements/1.1/" xmlns:cc="http://creativecommons.org/ns#" xmlns:rdf="http://www.w3.org/1999/02/22-rdf-syntax-ns#">
   <cc:Work>
    <dc:type rdf:resource="http://purl.org/dc/dcmitype/StillImage"/>
    <dc:date>2024-09-18T15:47:46.539911</dc:date>
    <dc:format>image/svg+xml</dc:format>
    <dc:creator>
     <cc:Agent>
      <dc:title>Matplotlib v3.7.5, https://matplotlib.org/</dc:title>
     </cc:Agent>
    </dc:creator>
   </cc:Work>
  </rdf:RDF>
 </metadata>
 <defs>
  <style type="text/css">*{stroke-linejoin: round; stroke-linecap: butt}</style>
 </defs>
 <g id="figure_1">
  <g id="patch_1">
   <path d="M 0 199.211464 
L 444.375067 199.211464 
L 444.375067 0 
L 0 0 
z
" style="fill: #ffffff"/>
  </g>
  <g id="axes_1">
   <g id="patch_2">
    <path d="M 44.879375 166.919589 
L 435.479375 166.919589 
L 435.479375 0.599589 
L 44.879375 0.599589 
z
" style="fill: #e5e5e5"/>
   </g>
   <g id="matplotlib.axis_1">
    <g id="xtick_1">
     <g id="line2d_1">
      <path d="M 72.41989 166.919589 
L 72.41989 0.599589 
" clip-path="url(#p3f66f79a7a)" style="fill: none; stroke: #ffffff; stroke-width: 0.8; stroke-linecap: square"/>
     </g>
     <g id="line2d_2">
      <defs>
       <path id="m99606f5d24" d="M 0 0 
L 0 3.5 
" style="stroke: #555555; stroke-width: 0.8"/>
      </defs>
      <g>
       <use xlink:href="#m99606f5d24" x="72.41989" y="166.919589" style="fill: #555555; stroke: #555555; stroke-width: 0.8"/>
      </g>
     </g>
     <g id="text_1">
      <!-- 08/16/20 -->
      <g style="fill: #555555" transform="translate(49.96364 181.518027) scale(0.1 -0.1)">
       <defs>
        <path id="DejaVuSans-30" d="M 2034 4250 
Q 1547 4250 1301 3770 
Q 1056 3291 1056 2328 
Q 1056 1369 1301 889 
Q 1547 409 2034 409 
Q 2525 409 2770 889 
Q 3016 1369 3016 2328 
Q 3016 3291 2770 3770 
Q 2525 4250 2034 4250 
z
M 2034 4750 
Q 2819 4750 3233 4129 
Q 3647 3509 3647 2328 
Q 3647 1150 3233 529 
Q 2819 -91 2034 -91 
Q 1250 -91 836 529 
Q 422 1150 422 2328 
Q 422 3509 836 4129 
Q 1250 4750 2034 4750 
z
" transform="scale(0.015625)"/>
        <path id="DejaVuSans-38" d="M 2034 2216 
Q 1584 2216 1326 1975 
Q 1069 1734 1069 1313 
Q 1069 891 1326 650 
Q 1584 409 2034 409 
Q 2484 409 2743 651 
Q 3003 894 3003 1313 
Q 3003 1734 2745 1975 
Q 2488 2216 2034 2216 
z
M 1403 2484 
Q 997 2584 770 2862 
Q 544 3141 544 3541 
Q 544 4100 942 4425 
Q 1341 4750 2034 4750 
Q 2731 4750 3128 4425 
Q 3525 4100 3525 3541 
Q 3525 3141 3298 2862 
Q 3072 2584 2669 2484 
Q 3125 2378 3379 2068 
Q 3634 1759 3634 1313 
Q 3634 634 3220 271 
Q 2806 -91 2034 -91 
Q 1263 -91 848 271 
Q 434 634 434 1313 
Q 434 1759 690 2068 
Q 947 2378 1403 2484 
z
M 1172 3481 
Q 1172 3119 1398 2916 
Q 1625 2713 2034 2713 
Q 2441 2713 2670 2916 
Q 2900 3119 2900 3481 
Q 2900 3844 2670 4047 
Q 2441 4250 2034 4250 
Q 1625 4250 1398 4047 
Q 1172 3844 1172 3481 
z
" transform="scale(0.015625)"/>
        <path id="DejaVuSans-2f" d="M 1625 4666 
L 2156 4666 
L 531 -594 
L 0 -594 
L 1625 4666 
z
" transform="scale(0.015625)"/>
        <path id="DejaVuSans-31" d="M 794 531 
L 1825 531 
L 1825 4091 
L 703 3866 
L 703 4441 
L 1819 4666 
L 2450 4666 
L 2450 531 
L 3481 531 
L 3481 0 
L 794 0 
L 794 531 
z
" transform="scale(0.015625)"/>
        <path id="DejaVuSans-36" d="M 2113 2584 
Q 1688 2584 1439 2293 
Q 1191 2003 1191 1497 
Q 1191 994 1439 701 
Q 1688 409 2113 409 
Q 2538 409 2786 701 
Q 3034 994 3034 1497 
Q 3034 2003 2786 2293 
Q 2538 2584 2113 2584 
z
M 3366 4563 
L 3366 3988 
Q 3128 4100 2886 4159 
Q 2644 4219 2406 4219 
Q 1781 4219 1451 3797 
Q 1122 3375 1075 2522 
Q 1259 2794 1537 2939 
Q 1816 3084 2150 3084 
Q 2853 3084 3261 2657 
Q 3669 2231 3669 1497 
Q 3669 778 3244 343 
Q 2819 -91 2113 -91 
Q 1303 -91 875 529 
Q 447 1150 447 2328 
Q 447 3434 972 4092 
Q 1497 4750 2381 4750 
Q 2619 4750 2861 4703 
Q 3103 4656 3366 4563 
z
" transform="scale(0.015625)"/>
        <path id="DejaVuSans-32" d="M 1228 531 
L 3431 531 
L 3431 0 
L 469 0 
L 469 531 
Q 828 903 1448 1529 
Q 2069 2156 2228 2338 
Q 2531 2678 2651 2914 
Q 2772 3150 2772 3378 
Q 2772 3750 2511 3984 
Q 2250 4219 1831 4219 
Q 1534 4219 1204 4116 
Q 875 4013 500 3803 
L 500 4441 
Q 881 4594 1212 4672 
Q 1544 4750 1819 4750 
Q 2544 4750 2975 4387 
Q 3406 4025 3406 3419 
Q 3406 3131 3298 2873 
Q 3191 2616 2906 2266 
Q 2828 2175 2409 1742 
Q 1991 1309 1228 531 
z
" transform="scale(0.015625)"/>
       </defs>
       <use xlink:href="#DejaVuSans-30"/>
       <use xlink:href="#DejaVuSans-38" x="63.623047"/>
       <use xlink:href="#DejaVuSans-2f" x="127.246094"/>
       <use xlink:href="#DejaVuSans-31" x="160.9375"/>
       <use xlink:href="#DejaVuSans-36" x="224.560547"/>
       <use xlink:href="#DejaVuSans-2f" x="288.183594"/>
       <use xlink:href="#DejaVuSans-32" x="321.875"/>
       <use xlink:href="#DejaVuSans-30" x="385.498047"/>
      </g>
     </g>
    </g>
    <g id="xtick_2">
     <g id="line2d_3">
      <path d="M 142.319676 166.919589 
L 142.319676 0.599589 
" clip-path="url(#p3f66f79a7a)" style="fill: none; stroke: #ffffff; stroke-width: 0.8; stroke-linecap: square"/>
     </g>
     <g id="line2d_4">
      <g>
       <use xlink:href="#m99606f5d24" x="142.319676" y="166.919589" style="fill: #555555; stroke: #555555; stroke-width: 0.8"/>
      </g>
     </g>
     <g id="text_2">
      <!-- 10/05/20 -->
      <g style="fill: #555555" transform="translate(119.863426 181.518027) scale(0.1 -0.1)">
       <defs>
        <path id="DejaVuSans-35" d="M 691 4666 
L 3169 4666 
L 3169 4134 
L 1269 4134 
L 1269 2991 
Q 1406 3038 1543 3061 
Q 1681 3084 1819 3084 
Q 2600 3084 3056 2656 
Q 3513 2228 3513 1497 
Q 3513 744 3044 326 
Q 2575 -91 1722 -91 
Q 1428 -91 1123 -41 
Q 819 9 494 109 
L 494 744 
Q 775 591 1075 516 
Q 1375 441 1709 441 
Q 2250 441 2565 725 
Q 2881 1009 2881 1497 
Q 2881 1984 2565 2268 
Q 2250 2553 1709 2553 
Q 1456 2553 1204 2497 
Q 953 2441 691 2322 
L 691 4666 
z
" transform="scale(0.015625)"/>
       </defs>
       <use xlink:href="#DejaVuSans-31"/>
       <use xlink:href="#DejaVuSans-30" x="63.623047"/>
       <use xlink:href="#DejaVuSans-2f" x="127.246094"/>
       <use xlink:href="#DejaVuSans-30" x="160.9375"/>
       <use xlink:href="#DejaVuSans-35" x="224.560547"/>
       <use xlink:href="#DejaVuSans-2f" x="288.183594"/>
       <use xlink:href="#DejaVuSans-32" x="321.875"/>
       <use xlink:href="#DejaVuSans-30" x="385.498047"/>
      </g>
     </g>
    </g>
    <g id="xtick_3">
     <g id="line2d_5">
      <path d="M 212.219461 166.919589 
L 212.219461 0.599589 
" clip-path="url(#p3f66f79a7a)" style="fill: none; stroke: #ffffff; stroke-width: 0.8; stroke-linecap: square"/>
     </g>
     <g id="line2d_6">
      <g>
       <use xlink:href="#m99606f5d24" x="212.219461" y="166.919589" style="fill: #555555; stroke: #555555; stroke-width: 0.8"/>
      </g>
     </g>
     <g id="text_3">
      <!-- 11/24/20 -->
      <g style="fill: #555555" transform="translate(189.763211 181.518027) scale(0.1 -0.1)">
       <defs>
        <path id="DejaVuSans-34" d="M 2419 4116 
L 825 1625 
L 2419 1625 
L 2419 4116 
z
M 2253 4666 
L 3047 4666 
L 3047 1625 
L 3713 1625 
L 3713 1100 
L 3047 1100 
L 3047 0 
L 2419 0 
L 2419 1100 
L 313 1100 
L 313 1709 
L 2253 4666 
z
" transform="scale(0.015625)"/>
       </defs>
       <use xlink:href="#DejaVuSans-31"/>
       <use xlink:href="#DejaVuSans-31" x="63.623047"/>
       <use xlink:href="#DejaVuSans-2f" x="127.246094"/>
       <use xlink:href="#DejaVuSans-32" x="160.9375"/>
       <use xlink:href="#DejaVuSans-34" x="224.560547"/>
       <use xlink:href="#DejaVuSans-2f" x="288.183594"/>
       <use xlink:href="#DejaVuSans-32" x="321.875"/>
       <use xlink:href="#DejaVuSans-30" x="385.498047"/>
      </g>
     </g>
    </g>
    <g id="xtick_4">
     <g id="line2d_7">
      <path d="M 282.119246 166.919589 
L 282.119246 0.599589 
" clip-path="url(#p3f66f79a7a)" style="fill: none; stroke: #ffffff; stroke-width: 0.8; stroke-linecap: square"/>
     </g>
     <g id="line2d_8">
      <g>
       <use xlink:href="#m99606f5d24" x="282.119246" y="166.919589" style="fill: #555555; stroke: #555555; stroke-width: 0.8"/>
      </g>
     </g>
     <g id="text_4">
      <!-- 01/13/21 -->
      <g style="fill: #555555" transform="translate(259.662996 181.518027) scale(0.1 -0.1)">
       <defs>
        <path id="DejaVuSans-33" d="M 2597 2516 
Q 3050 2419 3304 2112 
Q 3559 1806 3559 1356 
Q 3559 666 3084 287 
Q 2609 -91 1734 -91 
Q 1441 -91 1130 -33 
Q 819 25 488 141 
L 488 750 
Q 750 597 1062 519 
Q 1375 441 1716 441 
Q 2309 441 2620 675 
Q 2931 909 2931 1356 
Q 2931 1769 2642 2001 
Q 2353 2234 1838 2234 
L 1294 2234 
L 1294 2753 
L 1863 2753 
Q 2328 2753 2575 2939 
Q 2822 3125 2822 3475 
Q 2822 3834 2567 4026 
Q 2313 4219 1838 4219 
Q 1578 4219 1281 4162 
Q 984 4106 628 3988 
L 628 4550 
Q 988 4650 1302 4700 
Q 1616 4750 1894 4750 
Q 2613 4750 3031 4423 
Q 3450 4097 3450 3541 
Q 3450 3153 3228 2886 
Q 3006 2619 2597 2516 
z
" transform="scale(0.015625)"/>
       </defs>
       <use xlink:href="#DejaVuSans-30"/>
       <use xlink:href="#DejaVuSans-31" x="63.623047"/>
       <use xlink:href="#DejaVuSans-2f" x="127.246094"/>
       <use xlink:href="#DejaVuSans-31" x="160.9375"/>
       <use xlink:href="#DejaVuSans-33" x="224.560547"/>
       <use xlink:href="#DejaVuSans-2f" x="288.183594"/>
       <use xlink:href="#DejaVuSans-32" x="321.875"/>
       <use xlink:href="#DejaVuSans-31" x="385.498047"/>
      </g>
     </g>
    </g>
    <g id="xtick_5">
     <g id="line2d_9">
      <path d="M 352.019031 166.919589 
L 352.019031 0.599589 
" clip-path="url(#p3f66f79a7a)" style="fill: none; stroke: #ffffff; stroke-width: 0.8; stroke-linecap: square"/>
     </g>
     <g id="line2d_10">
      <g>
       <use xlink:href="#m99606f5d24" x="352.019031" y="166.919589" style="fill: #555555; stroke: #555555; stroke-width: 0.8"/>
      </g>
     </g>
     <g id="text_5">
      <!-- 03/04/21 -->
      <g style="fill: #555555" transform="translate(329.562781 181.518027) scale(0.1 -0.1)">
       <use xlink:href="#DejaVuSans-30"/>
       <use xlink:href="#DejaVuSans-33" x="63.623047"/>
       <use xlink:href="#DejaVuSans-2f" x="127.246094"/>
       <use xlink:href="#DejaVuSans-30" x="160.9375"/>
       <use xlink:href="#DejaVuSans-34" x="224.560547"/>
       <use xlink:href="#DejaVuSans-2f" x="288.183594"/>
       <use xlink:href="#DejaVuSans-32" x="321.875"/>
       <use xlink:href="#DejaVuSans-31" x="385.498047"/>
      </g>
     </g>
    </g>
    <g id="xtick_6">
     <g id="line2d_11">
      <path d="M 421.918817 166.919589 
L 421.918817 0.599589 
" clip-path="url(#p3f66f79a7a)" style="fill: none; stroke: #ffffff; stroke-width: 0.8; stroke-linecap: square"/>
     </g>
     <g id="line2d_12">
      <g>
       <use xlink:href="#m99606f5d24" x="421.918817" y="166.919589" style="fill: #555555; stroke: #555555; stroke-width: 0.8"/>
      </g>
     </g>
     <g id="text_6">
      <!-- 04/23/21 -->
      <g style="fill: #555555" transform="translate(399.462567 181.518027) scale(0.1 -0.1)">
       <use xlink:href="#DejaVuSans-30"/>
       <use xlink:href="#DejaVuSans-34" x="63.623047"/>
       <use xlink:href="#DejaVuSans-2f" x="127.246094"/>
       <use xlink:href="#DejaVuSans-32" x="160.9375"/>
       <use xlink:href="#DejaVuSans-33" x="224.560547"/>
       <use xlink:href="#DejaVuSans-2f" x="288.183594"/>
       <use xlink:href="#DejaVuSans-32" x="321.875"/>
       <use xlink:href="#DejaVuSans-31" x="385.498047"/>
      </g>
     </g>
    </g>
    <g id="text_7">
     <!-- Date -->
     <g style="fill: #555555" transform="translate(225.838438 196.715839) scale(0.12 -0.12)">
      <defs>
       <path id="DejaVuSans-44" d="M 1259 4147 
L 1259 519 
L 2022 519 
Q 2988 519 3436 956 
Q 3884 1394 3884 2338 
Q 3884 3275 3436 3711 
Q 2988 4147 2022 4147 
L 1259 4147 
z
M 628 4666 
L 1925 4666 
Q 3281 4666 3915 4102 
Q 4550 3538 4550 2338 
Q 4550 1131 3912 565 
Q 3275 0 1925 0 
L 628 0 
L 628 4666 
z
" transform="scale(0.015625)"/>
       <path id="DejaVuSans-61" d="M 2194 1759 
Q 1497 1759 1228 1600 
Q 959 1441 959 1056 
Q 959 750 1161 570 
Q 1363 391 1709 391 
Q 2188 391 2477 730 
Q 2766 1069 2766 1631 
L 2766 1759 
L 2194 1759 
z
M 3341 1997 
L 3341 0 
L 2766 0 
L 2766 531 
Q 2569 213 2275 61 
Q 1981 -91 1556 -91 
Q 1019 -91 701 211 
Q 384 513 384 1019 
Q 384 1609 779 1909 
Q 1175 2209 1959 2209 
L 2766 2209 
L 2766 2266 
Q 2766 2663 2505 2880 
Q 2244 3097 1772 3097 
Q 1472 3097 1187 3025 
Q 903 2953 641 2809 
L 641 3341 
Q 956 3463 1253 3523 
Q 1550 3584 1831 3584 
Q 2591 3584 2966 3190 
Q 3341 2797 3341 1997 
z
" transform="scale(0.015625)"/>
       <path id="DejaVuSans-74" d="M 1172 4494 
L 1172 3500 
L 2356 3500 
L 2356 3053 
L 1172 3053 
L 1172 1153 
Q 1172 725 1289 603 
Q 1406 481 1766 481 
L 2356 481 
L 2356 0 
L 1766 0 
Q 1100 0 847 248 
Q 594 497 594 1153 
L 594 3053 
L 172 3053 
L 172 3500 
L 594 3500 
L 594 4494 
L 1172 4494 
z
" transform="scale(0.015625)"/>
       <path id="DejaVuSans-65" d="M 3597 1894 
L 3597 1613 
L 953 1613 
Q 991 1019 1311 708 
Q 1631 397 2203 397 
Q 2534 397 2845 478 
Q 3156 559 3463 722 
L 3463 178 
Q 3153 47 2828 -22 
Q 2503 -91 2169 -91 
Q 1331 -91 842 396 
Q 353 884 353 1716 
Q 353 2575 817 3079 
Q 1281 3584 2069 3584 
Q 2775 3584 3186 3129 
Q 3597 2675 3597 1894 
z
M 3022 2063 
Q 3016 2534 2758 2815 
Q 2500 3097 2075 3097 
Q 1594 3097 1305 2825 
Q 1016 2553 972 2059 
L 3022 2063 
z
" transform="scale(0.015625)"/>
      </defs>
      <use xlink:href="#DejaVuSans-44"/>
      <use xlink:href="#DejaVuSans-61" x="77.001953"/>
      <use xlink:href="#DejaVuSans-74" x="138.28125"/>
      <use xlink:href="#DejaVuSans-65" x="177.490234"/>
     </g>
    </g>
   </g>
   <g id="matplotlib.axis_2">
    <g id="ytick_1">
     <g id="line2d_13">
      <path d="M 44.879375 138.89782 
L 435.479375 138.89782 
" clip-path="url(#p3f66f79a7a)" style="fill: none; stroke: #ffffff; stroke-width: 0.8; stroke-linecap: square"/>
     </g>
     <g id="line2d_14">
      <defs>
       <path id="m069d366680" d="M 0 0 
L -3.5 0 
" style="stroke: #555555; stroke-width: 0.8"/>
      </defs>
      <g>
       <use xlink:href="#m069d366680" x="44.879375" y="138.89782" style="fill: #555555; stroke: #555555; stroke-width: 0.8"/>
      </g>
     </g>
     <g id="text_8">
      <!-- 0.05 -->
      <g style="fill: #555555" transform="translate(15.61375 142.697039) scale(0.1 -0.1)">
       <defs>
        <path id="DejaVuSans-2e" d="M 684 794 
L 1344 794 
L 1344 0 
L 684 0 
L 684 794 
z
" transform="scale(0.015625)"/>
       </defs>
       <use xlink:href="#DejaVuSans-30"/>
       <use xlink:href="#DejaVuSans-2e" x="63.623047"/>
       <use xlink:href="#DejaVuSans-30" x="95.410156"/>
       <use xlink:href="#DejaVuSans-35" x="159.033203"/>
      </g>
     </g>
    </g>
    <g id="ytick_2">
     <g id="line2d_15">
      <path d="M 44.879375 105.12317 
L 435.479375 105.12317 
" clip-path="url(#p3f66f79a7a)" style="fill: none; stroke: #ffffff; stroke-width: 0.8; stroke-linecap: square"/>
     </g>
     <g id="line2d_16">
      <g>
       <use xlink:href="#m069d366680" x="44.879375" y="105.12317" style="fill: #555555; stroke: #555555; stroke-width: 0.8"/>
      </g>
     </g>
     <g id="text_9">
      <!-- 0.10 -->
      <g style="fill: #555555" transform="translate(15.61375 108.922389) scale(0.1 -0.1)">
       <use xlink:href="#DejaVuSans-30"/>
       <use xlink:href="#DejaVuSans-2e" x="63.623047"/>
       <use xlink:href="#DejaVuSans-31" x="95.410156"/>
       <use xlink:href="#DejaVuSans-30" x="159.033203"/>
      </g>
     </g>
    </g>
    <g id="ytick_3">
     <g id="line2d_17">
      <path d="M 44.879375 71.348519 
L 435.479375 71.348519 
" clip-path="url(#p3f66f79a7a)" style="fill: none; stroke: #ffffff; stroke-width: 0.8; stroke-linecap: square"/>
     </g>
     <g id="line2d_18">
      <g>
       <use xlink:href="#m069d366680" x="44.879375" y="71.348519" style="fill: #555555; stroke: #555555; stroke-width: 0.8"/>
      </g>
     </g>
     <g id="text_10">
      <!-- 0.15 -->
      <g style="fill: #555555" transform="translate(15.61375 75.147738) scale(0.1 -0.1)">
       <use xlink:href="#DejaVuSans-30"/>
       <use xlink:href="#DejaVuSans-2e" x="63.623047"/>
       <use xlink:href="#DejaVuSans-31" x="95.410156"/>
       <use xlink:href="#DejaVuSans-35" x="159.033203"/>
      </g>
     </g>
    </g>
    <g id="ytick_4">
     <g id="line2d_19">
      <path d="M 44.879375 37.573869 
L 435.479375 37.573869 
" clip-path="url(#p3f66f79a7a)" style="fill: none; stroke: #ffffff; stroke-width: 0.8; stroke-linecap: square"/>
     </g>
     <g id="line2d_20">
      <g>
       <use xlink:href="#m069d366680" x="44.879375" y="37.573869" style="fill: #555555; stroke: #555555; stroke-width: 0.8"/>
      </g>
     </g>
     <g id="text_11">
      <!-- 0.20 -->
      <g style="fill: #555555" transform="translate(15.61375 41.373088) scale(0.1 -0.1)">
       <use xlink:href="#DejaVuSans-30"/>
       <use xlink:href="#DejaVuSans-2e" x="63.623047"/>
       <use xlink:href="#DejaVuSans-32" x="95.410156"/>
       <use xlink:href="#DejaVuSans-30" x="159.033203"/>
      </g>
     </g>
    </g>
    <g id="ytick_5">
     <g id="line2d_21">
      <path d="M 44.879375 3.799219 
L 435.479375 3.799219 
" clip-path="url(#p3f66f79a7a)" style="fill: none; stroke: #ffffff; stroke-width: 0.8; stroke-linecap: square"/>
     </g>
     <g id="line2d_22">
      <g>
       <use xlink:href="#m069d366680" x="44.879375" y="3.799219" style="fill: #555555; stroke: #555555; stroke-width: 0.8"/>
      </g>
     </g>
     <g id="text_12">
      <!-- 0.25 -->
      <g style="fill: #555555" transform="translate(15.61375 7.598437) scale(0.1 -0.1)">
       <use xlink:href="#DejaVuSans-30"/>
       <use xlink:href="#DejaVuSans-2e" x="63.623047"/>
       <use xlink:href="#DejaVuSans-32" x="95.410156"/>
       <use xlink:href="#DejaVuSans-35" x="159.033203"/>
      </g>
     </g>
    </g>
    <g id="text_13">
     <!-- Value -->
     <g style="fill: #555555" transform="translate(9.118125 100.237089) rotate(-90) scale(0.12 -0.12)">
      <defs>
       <path id="DejaVuSans-56" d="M 1831 0 
L 50 4666 
L 709 4666 
L 2188 738 
L 3669 4666 
L 4325 4666 
L 2547 0 
L 1831 0 
z
" transform="scale(0.015625)"/>
       <path id="DejaVuSans-6c" d="M 603 4863 
L 1178 4863 
L 1178 0 
L 603 0 
L 603 4863 
z
" transform="scale(0.015625)"/>
       <path id="DejaVuSans-75" d="M 544 1381 
L 544 3500 
L 1119 3500 
L 1119 1403 
Q 1119 906 1312 657 
Q 1506 409 1894 409 
Q 2359 409 2629 706 
Q 2900 1003 2900 1516 
L 2900 3500 
L 3475 3500 
L 3475 0 
L 2900 0 
L 2900 538 
Q 2691 219 2414 64 
Q 2138 -91 1772 -91 
Q 1169 -91 856 284 
Q 544 659 544 1381 
z
M 1991 3584 
L 1991 3584 
z
" transform="scale(0.015625)"/>
      </defs>
      <use xlink:href="#DejaVuSans-56"/>
      <use xlink:href="#DejaVuSans-61" x="60.658203"/>
      <use xlink:href="#DejaVuSans-6c" x="121.9375"/>
      <use xlink:href="#DejaVuSans-75" x="149.720703"/>
      <use xlink:href="#DejaVuSans-65" x="213.099609"/>
     </g>
    </g>
   </g>
   <g id="PolyCollection_1">
    <defs>
     <path id="m00d0a75a9e" d="M 62.63392 -40.979785 
L 62.63392 -45.000121 
L 64.031916 -46.115032 
L 65.429912 -46.125063 
L 66.827908 -45.104613 
L 68.225903 -45.461009 
L 69.623899 -46.935403 
L 71.021895 -50.262247 
L 72.41989 -49.891193 
L 73.817886 -51.861822 
L 75.215882 -51.505282 
L 76.613878 -51.277939 
L 78.011873 -51.38765 
L 79.409869 -51.468967 
L 80.807865 -51.210291 
L 82.20586 -51.523835 
L 83.603856 -51.538497 
L 85.001852 -55.502886 
L 86.399847 -59.320314 
L 87.797843 -59.482926 
L 89.195839 -60.207503 
L 90.593835 -60.652817 
L 91.99183 -61.392931 
L 93.389826 -62.044431 
L 94.787822 -61.190704 
L 96.185817 -60.916834 
L 97.583813 -61.497452 
L 98.981809 -63.44741 
L 100.379804 -63.033203 
L 101.7778 -62.590892 
L 103.175796 -64.218362 
L 104.573792 -63.382417 
L 105.971787 -64.34414 
L 107.369783 -63.87245 
L 108.767779 -72.113859 
L 110.165774 -76.901626 
L 111.56377 -68.789763 
L 112.961766 -77.08771 
L 114.359762 -85.293572 
L 115.757757 -84.052252 
L 117.155753 -86.42734 
L 118.553749 -84.207836 
L 119.951744 -83.925248 
L 121.34974 -82.326165 
L 122.747736 -83.961977 
L 124.145731 -84.939372 
L 125.543727 -76.210935 
L 126.941723 -76.64466 
L 128.339719 -75.062788 
L 129.737714 -73.200367 
L 131.13571 -70.167603 
L 132.533706 -74.232885 
L 133.931701 -75.957229 
L 135.329697 -81.420179 
L 136.727693 -86.547671 
L 138.125689 -86.227818 
L 139.523684 -93.665496 
L 140.92168 -93.839641 
L 142.319676 -89.278776 
L 143.717671 -91.205875 
L 145.115667 -92.674891 
L 146.513663 -91.821018 
L 147.911658 -94.403039 
L 149.309654 -102.367696 
L 150.70765 -95.428856 
L 152.105646 -95.424966 
L 153.503641 -96.811942 
L 154.901637 -97.242399 
L 156.299633 -102.548429 
L 157.697628 -104.06658 
L 159.095624 -101.70023 
L 160.49362 -101.053681 
L 161.891616 -102.191949 
L 163.289611 -102.251211 
L 164.687607 -107.699493 
L 166.085603 -102.915801 
L 167.483598 -102.95385 
L 168.881594 -102.17999 
L 170.27959 -105.222815 
L 171.677585 -104.809303 
L 173.075581 -106.581709 
L 174.473577 -105.267051 
L 175.871573 -111.306849 
L 177.269568 -109.270519 
L 178.667564 -116.559151 
L 180.06556 -113.241726 
L 181.463555 -114.228377 
L 182.861551 -114.658541 
L 184.259547 -114.951057 
L 185.657543 -124.871936 
L 187.055538 -125.043936 
L 188.453534 -127.485555 
L 189.85153 -121.249187 
L 191.249525 -124.725912 
L 192.647521 -136.206037 
L 194.045517 -143.203188 
L 195.443512 -143.63714 
L 196.841508 -150.037261 
L 198.239504 -149.066284 
L 199.6375 -136.111715 
L 201.035495 -143.241921 
L 202.433491 -143.65824 
L 203.831487 -140.276798 
L 205.229482 -139.611828 
L 206.627478 -142.231483 
L 208.025474 -140.027709 
L 209.423469 -138.590393 
L 210.821465 -140.050152 
L 212.219461 -136.507773 
L 213.617457 -133.163935 
L 215.015452 -126.323557 
L 216.413448 -130.513789 
L 217.811444 -133.57597 
L 219.209439 -133.113035 
L 220.607435 -131.405752 
L 222.005431 -131.49899 
L 223.403427 -126.046691 
L 224.801422 -123.56349 
L 226.199418 -132.701237 
L 227.597414 -130.180666 
L 228.995409 -130.082048 
L 230.393405 -129.20464 
L 231.791401 -120.988325 
L 233.189396 -129.931096 
L 234.587392 -121.257541 
L 235.985388 -115.557138 
L 237.383384 -112.973235 
L 238.781379 -113.464262 
L 240.179375 -107.439738 
L 241.577371 -104.236526 
L 242.975366 -99.105577 
L 244.373362 -98.393967 
L 245.771358 -96.771413 
L 247.169354 -91.307696 
L 248.567349 -95.851325 
L 249.965345 -90.108043 
L 251.363341 -89.715138 
L 252.761336 -85.414168 
L 254.159332 -75.853266 
L 255.557328 -75.957287 
L 256.955323 -75.364954 
L 258.353319 -75.556864 
L 259.751315 -75.71252 
L 261.149311 -74.421369 
L 262.547306 -74.76284 
L 263.945302 -70.426445 
L 265.343298 -70.820346 
L 266.741293 -70.930796 
L 268.139289 -71.51568 
L 269.537285 -71.965363 
L 270.935281 -70.724148 
L 272.333276 -70.144727 
L 273.731272 -71.636857 
L 275.129268 -71.823788 
L 276.527263 -67.177579 
L 277.925259 -66.918244 
L 279.323255 -71.274916 
L 280.72125 -67.206369 
L 282.119246 -62.013233 
L 283.517242 -68.243125 
L 284.915238 -68.260824 
L 286.313233 -67.397108 
L 287.711229 -61.867419 
L 289.109225 -61.751993 
L 290.50722 -61.518474 
L 291.905216 -61.896432 
L 293.303212 -62.187167 
L 294.701207 -62.409394 
L 296.099203 -62.164213 
L 297.497199 -66.987046 
L 298.895195 -62.02043 
L 300.29319 -61.690787 
L 301.691186 -61.167376 
L 303.089182 -60.454075 
L 304.487177 -61.768776 
L 305.885173 -59.959437 
L 307.283169 -60.773447 
L 308.681165 -60.745258 
L 310.07916 -60.441326 
L 311.477156 -60.505823 
L 312.875152 -60.354602 
L 314.273147 -59.171399 
L 315.671143 -62.771195 
L 317.069139 -63.616225 
L 318.467134 -63.880105 
L 319.86513 -58.570421 
L 321.263126 -57.944449 
L 322.661122 -61.00454 
L 324.059117 -61.794102 
L 325.457113 -60.722119 
L 326.855109 -60.798906 
L 328.253104 -61.609732 
L 329.6511 -61.578998 
L 331.049096 -58.596494 
L 332.447092 -58.682281 
L 333.845087 -61.010733 
L 335.243083 -61.189609 
L 336.641079 -60.98771 
L 338.039074 -57.751475 
L 339.43707 -58.180964 
L 340.835066 -58.17784 
L 342.233061 -58.469886 
L 343.631057 -59.245281 
L 345.029053 -59.199442 
L 346.427049 -58.936108 
L 347.825044 -58.986308 
L 349.22304 -59.779641 
L 350.621036 -59.999749 
L 352.019031 -60.929461 
L 353.417027 -64.602089 
L 354.815023 -65.460788 
L 356.213019 -65.605471 
L 357.611014 -65.655462 
L 359.00901 -65.866146 
L 360.407006 -68.151165 
L 361.805001 -74.669392 
L 363.202997 -82.184972 
L 364.600993 -82.253764 
L 365.998988 -82.072844 
L 367.396984 -87.419467 
L 368.79498 -87.605605 
L 370.192976 -90.154692 
L 371.590971 -91.964751 
L 372.988967 -97.975206 
L 374.386963 -102.009986 
L 375.784958 -102.115443 
L 377.182954 -105.136542 
L 378.58095 -107.960022 
L 379.978946 -110.642832 
L 381.376941 -120.560167 
L 382.774937 -128.298458 
L 384.172933 -145.310683 
L 385.570928 -138.890066 
L 386.968924 -151.016285 
L 388.36692 -156.165218 
L 389.764915 -157.702447 
L 391.162911 -158.035441 
L 392.560907 -161.155794 
L 393.958903 -168.891699 
L 395.356898 -162.747069 
L 396.754894 -172.804356 
L 398.15289 -173.653814 
L 399.550885 -180.810715 
L 400.948881 -179.872598 
L 402.346877 -179.917161 
L 403.744872 -181.101188 
L 405.142868 -187.857126 
L 406.540864 -190.985536 
L 407.93886 -188.414271 
L 409.336855 -187.467878 
L 410.734851 -189.333458 
L 412.132847 -191.051875 
L 413.530842 -187.983208 
L 414.928838 -161.726716 
L 416.326834 -172.608726 
L 417.72483 -173.725945 
L 417.72483 -161.737417 
L 417.72483 -161.737417 
L 416.326834 -160.951946 
L 414.928838 -150.102378 
L 413.530842 -174.348213 
L 412.132847 -177.45403 
L 410.734851 -175.683448 
L 409.336855 -175.561626 
L 407.93886 -174.125685 
L 406.540864 -177.674254 
L 405.142868 -175.255419 
L 403.744872 -168.010548 
L 402.346877 -167.058579 
L 400.948881 -167.174743 
L 399.550885 -165.824156 
L 398.15289 -159.417703 
L 396.754894 -158.609359 
L 395.356898 -149.520165 
L 393.958903 -156.62331 
L 392.560907 -147.929252 
L 391.162911 -146.00259 
L 389.764915 -145.522828 
L 388.36692 -142.276506 
L 386.968924 -138.529966 
L 385.570928 -128.833686 
L 384.172933 -132.853332 
L 382.774937 -118.307766 
L 381.376941 -110.157209 
L 379.978946 -100.40496 
L 378.58095 -98.231552 
L 377.182954 -95.251293 
L 375.784958 -93.055158 
L 374.386963 -92.883356 
L 372.988967 -89.734003 
L 371.590971 -84.055715 
L 370.192976 -80.827942 
L 368.79498 -79.645177 
L 367.396984 -77.448456 
L 365.998988 -74.368665 
L 364.600993 -73.456936 
L 363.202997 -73.478543 
L 361.805001 -67.415637 
L 360.407006 -62.320791 
L 359.00901 -60.232919 
L 357.611014 -60.223959 
L 356.213019 -59.614372 
L 354.815023 -60.062422 
L 353.417027 -59.213239 
L 352.019031 -55.689518 
L 350.621036 -53.677793 
L 349.22304 -54.44878 
L 347.825044 -53.712517 
L 346.427049 -53.193063 
L 345.029053 -53.686535 
L 343.631057 -52.997748 
L 342.233061 -53.400888 
L 340.835066 -52.11528 
L 339.43707 -52.925268 
L 338.039074 -52.221125 
L 336.641079 -54.365142 
L 335.243083 -55.476137 
L 333.845087 -54.918311 
L 332.447092 -52.758937 
L 331.049096 -52.991433 
L 329.6511 -55.375335 
L 328.253104 -55.804376 
L 326.855109 -54.268695 
L 325.457113 -54.702893 
L 324.059117 -55.066117 
L 322.661122 -55.273775 
L 321.263126 -52.486004 
L 319.86513 -52.37478 
L 318.467134 -56.7278 
L 317.069139 -56.24112 
L 315.671143 -56.488346 
L 314.273147 -53.173057 
L 312.875152 -54.291817 
L 311.477156 -54.52318 
L 310.07916 -53.632844 
L 308.681165 -53.992795 
L 307.283169 -54.7095 
L 305.885173 -54.04486 
L 304.487177 -55.846301 
L 303.089182 -54.522916 
L 301.691186 -55.176165 
L 300.29319 -55.485573 
L 298.895195 -55.580782 
L 297.497199 -60.232718 
L 296.099203 -56.506819 
L 294.701207 -56.091884 
L 293.303212 -55.553524 
L 291.905216 -55.590227 
L 290.50722 -55.842923 
L 289.109225 -55.982343 
L 287.711229 -56.336946 
L 286.313233 -60.440119 
L 284.915238 -60.752106 
L 283.517242 -60.073277 
L 282.119246 -56.404513 
L 280.72125 -59.658571 
L 279.323255 -63.566953 
L 277.925259 -59.730827 
L 276.527263 -59.920729 
L 275.129268 -64.709287 
L 273.731272 -63.921902 
L 272.333276 -63.479616 
L 270.935281 -64.288996 
L 269.537285 -64.739585 
L 268.139289 -64.567514 
L 266.741293 -64.274737 
L 265.343298 -63.691651 
L 263.945302 -63.304333 
L 262.547306 -66.681347 
L 261.149311 -67.57443 
L 259.751315 -68.081614 
L 258.353319 -67.900654 
L 256.955323 -68.487062 
L 255.557328 -68.55756 
L 254.159332 -68.791548 
L 252.761336 -76.672962 
L 251.363341 -80.574425 
L 249.965345 -81.185931 
L 248.567349 -86.639928 
L 247.169354 -83.83386 
L 245.771358 -86.823121 
L 244.373362 -88.17675 
L 242.975366 -89.377174 
L 241.577371 -94.565256 
L 240.179375 -97.12988 
L 238.781379 -102.781373 
L 237.383384 -103.196048 
L 235.985388 -105.771456 
L 234.587392 -109.911532 
L 233.189396 -117.368723 
L 231.791401 -111.020228 
L 230.393405 -117.419437 
L 228.995409 -118.474925 
L 227.597414 -118.762093 
L 226.199418 -120.421781 
L 224.801422 -112.865847 
L 223.403427 -114.36608 
L 222.005431 -120.269608 
L 220.607435 -120.535659 
L 219.209439 -123.852548 
L 217.811444 -121.171318 
L 216.413448 -119.8675 
L 215.015452 -115.072159 
L 213.617457 -121.673641 
L 212.219461 -125.133591 
L 210.821465 -127.926823 
L 209.423469 -126.903791 
L 208.025474 -126.82795 
L 206.627478 -127.44204 
L 205.229482 -128.190705 
L 203.831487 -128.303156 
L 202.433491 -130.942151 
L 201.035495 -131.83892 
L 199.6375 -123.944086 
L 198.239504 -134.003237 
L 196.841508 -134.676874 
L 195.443512 -131.511397 
L 194.045517 -130.070399 
L 192.647521 -122.555713 
L 191.249525 -112.283637 
L 189.85153 -110.257632 
L 188.453534 -114.693912 
L 187.055538 -112.722025 
L 185.657543 -112.350175 
L 184.259547 -101.637087 
L 182.861551 -103.796304 
L 181.463555 -103.19471 
L 180.06556 -100.182509 
L 178.667564 -103.30469 
L 177.269568 -98.597635 
L 175.871573 -99.362728 
L 174.473577 -93.62618 
L 173.075581 -93.657284 
L 171.677585 -94.14432 
L 170.27959 -93.032413 
L 168.881594 -90.879962 
L 167.483598 -91.175395 
L 166.085603 -92.549718 
L 164.687607 -95.896872 
L 163.289611 -91.400449 
L 161.891616 -90.839116 
L 160.49362 -90.606616 
L 159.095624 -90.70137 
L 157.697628 -92.531175 
L 156.299633 -91.366248 
L 154.901637 -86.913965 
L 153.503641 -86.751158 
L 152.105646 -86.004858 
L 150.70765 -85.458661 
L 149.309654 -92.655864 
L 147.911658 -85.078002 
L 146.513663 -83.983607 
L 145.115667 -82.950757 
L 143.717671 -82.789218 
L 142.319676 -81.588851 
L 140.92168 -84.991695 
L 139.523684 -84.382624 
L 138.125689 -78.693099 
L 136.727693 -78.138882 
L 135.329697 -73.734546 
L 133.931701 -68.640109 
L 132.533706 -67.468105 
L 131.13571 -63.822695 
L 129.737714 -67.433491 
L 128.339719 -68.537047 
L 126.941723 -69.233603 
L 125.543727 -68.929118 
L 124.145731 -76.735841 
L 122.747736 -76.698654 
L 121.34974 -74.25545 
L 119.951744 -76.8562 
L 118.553749 -76.477029 
L 117.155753 -77.673116 
L 115.757757 -76.517654 
L 114.359762 -77.787537 
L 112.961766 -69.700786 
L 111.56377 -63.456455 
L 110.165774 -70.225412 
L 108.767779 -65.740881 
L 107.369783 -57.470127 
L 105.971787 -58.170245 
L 104.573792 -57.339718 
L 103.175796 -57.639803 
L 101.7778 -56.498576 
L 100.379804 -57.066259 
L 98.981809 -56.916356 
L 97.583813 -55.664643 
L 96.185817 -54.942313 
L 94.787822 -55.178225 
L 93.389826 -55.948513 
L 91.99183 -55.214683 
L 90.593835 -55.191254 
L 89.195839 -53.671377 
L 87.797843 -54.10291 
L 86.399847 -53.786327 
L 85.001852 -49.701842 
L 83.603856 -47.379343 
L 82.20586 -47.216346 
L 80.807865 -47.136693 
L 79.409869 -46.894644 
L 78.011873 -46.816807 
L 76.613878 -47.207079 
L 75.215882 -46.86315 
L 73.817886 -47.677073 
L 72.41989 -45.983339 
L 71.021895 -45.789008 
L 69.623899 -43.033986 
L 68.225903 -42.11253 
L 66.827908 -41.260338 
L 65.429912 -42.316408 
L 64.031916 -42.608143 
L 62.63392 -40.979785 
z
" style="stroke: #0db14b; stroke-opacity: 0.5; stroke-width: 0.5"/>
    </defs>
    <g clip-path="url(#p3f66f79a7a)">
     <use xlink:href="#m00d0a75a9e" x="0" y="199.211464" style="fill: #0db14b; fill-opacity: 0.5; stroke: #0db14b; stroke-opacity: 0.5; stroke-width: 0.5"/>
    </g>
   </g>
   <g id="line2d_23">
    <path d="M 62.63392 156.221512 
L 64.031916 154.849877 
L 65.429912 154.990729 
L 66.827908 156.028989 
L 68.225903 155.424695 
L 69.623899 154.22677 
L 71.021895 151.185837 
L 72.41989 151.274198 
L 73.817886 149.442017 
L 75.215882 150.027248 
L 76.613878 149.968955 
L 78.011873 150.109236 
L 83.603856 149.752544 
L 85.001852 146.609101 
L 86.399847 142.658144 
L 89.195839 142.272024 
L 90.593835 141.289429 
L 91.99183 140.907657 
L 93.389826 140.214992 
L 94.787822 141.026999 
L 96.185817 141.281891 
L 97.583813 140.630417 
L 98.981809 139.029581 
L 100.379804 139.161733 
L 101.7778 139.66673 
L 103.175796 138.282382 
L 104.573792 138.850397 
L 105.971787 137.954272 
L 107.369783 138.540176 
L 108.767779 130.284094 
L 110.165774 125.647945 
L 111.56377 133.088355 
L 112.961766 125.817216 
L 114.359762 117.67091 
L 115.757757 118.926511 
L 117.155753 117.161236 
L 118.553749 118.869032 
L 119.951744 118.82074 
L 121.34974 120.920657 
L 122.747736 118.881149 
L 124.145731 118.373858 
L 125.543727 126.641438 
L 126.941723 126.272333 
L 128.339719 127.411547 
L 129.737714 128.894535 
L 131.13571 132.216315 
L 132.533706 128.360969 
L 133.931701 126.912795 
L 135.329697 121.634102 
L 136.727693 116.868188 
L 138.125689 116.751005 
L 139.523684 110.187404 
L 140.92168 109.795796 
L 142.319676 113.777651 
L 143.717671 112.213918 
L 145.115667 111.39864 
L 146.513663 111.309152 
L 147.911658 109.470943 
L 149.309654 101.699684 
L 150.70765 108.767706 
L 152.105646 108.496552 
L 153.503641 107.429914 
L 154.901637 107.133282 
L 156.299633 102.254126 
L 157.697628 100.912587 
L 159.095624 103.010664 
L 160.49362 103.381316 
L 161.891616 102.695932 
L 163.289611 102.385634 
L 164.687607 97.413282 
L 166.085603 101.478705 
L 167.483598 102.146842 
L 168.881594 102.681489 
L 170.27959 100.08385 
L 171.677585 99.734652 
L 173.075581 99.091968 
L 174.473577 99.764849 
L 175.871573 93.876676 
L 177.269568 95.277388 
L 178.667564 89.279544 
L 180.06556 92.499347 
L 181.463555 90.499921 
L 182.861551 89.984041 
L 184.259547 90.917393 
L 185.657543 80.600409 
L 187.055538 80.328484 
L 188.453534 78.121731 
L 189.85153 83.458054 
L 191.249525 80.706689 
L 192.647521 69.830589 
L 194.045517 62.574671 
L 195.443512 61.637196 
L 196.841508 56.854397 
L 198.239504 57.676704 
L 199.6375 69.183564 
L 201.035495 61.671044 
L 202.433491 61.911269 
L 203.831487 64.921487 
L 205.229482 65.310198 
L 206.627478 64.374703 
L 208.025474 65.783635 
L 209.423469 66.464372 
L 210.821465 65.222976 
L 213.617457 71.792676 
L 215.015452 78.513606 
L 216.413448 74.02082 
L 217.811444 71.83782 
L 219.209439 70.728673 
L 220.607435 73.240759 
L 222.005431 73.327165 
L 223.403427 79.005079 
L 224.801422 80.996796 
L 226.199418 72.649955 
L 227.597414 74.740085 
L 228.995409 74.932978 
L 230.393405 75.899425 
L 231.791401 83.207188 
L 233.189396 75.561555 
L 234.587392 83.626928 
L 235.985388 88.547167 
L 237.383384 91.126823 
L 238.781379 91.088646 
L 240.179375 96.926655 
L 241.577371 99.810573 
L 242.975366 104.970089 
L 244.373362 105.926105 
L 245.771358 107.414197 
L 247.169354 111.640686 
L 248.567349 107.965838 
L 249.965345 113.564477 
L 251.363341 114.066683 
L 252.761336 118.167899 
L 254.159332 126.889057 
L 255.557328 126.954041 
L 256.955323 127.285457 
L 258.353319 127.482706 
L 259.751315 127.314397 
L 261.149311 128.213565 
L 262.547306 128.489371 
L 263.945302 132.346075 
L 269.537285 130.85899 
L 270.935281 131.704892 
L 272.333276 132.399293 
L 273.731272 131.432085 
L 275.129268 130.944927 
L 276.527263 135.66231 
L 277.925259 135.886929 
L 279.323255 131.79053 
L 282.119246 140.002591 
L 283.517242 135.053263 
L 284.915238 134.704999 
L 286.313233 135.29285 
L 287.711229 140.109281 
L 290.50722 140.530766 
L 293.303212 140.341119 
L 294.701207 139.960825 
L 296.099203 139.875948 
L 297.497199 135.601582 
L 298.895195 140.410858 
L 300.29319 140.623285 
L 301.691186 141.039693 
L 303.089182 141.722969 
L 304.487177 140.403926 
L 305.885173 142.209316 
L 307.283169 141.469991 
L 310.07916 142.174379 
L 311.477156 141.696962 
L 312.875152 141.888255 
L 314.273147 143.039236 
L 315.671143 139.581694 
L 318.467134 138.907512 
L 319.86513 143.738864 
L 321.263126 143.996238 
L 322.661122 141.072306 
L 324.059117 140.781355 
L 325.457113 141.498959 
L 326.855109 141.677664 
L 328.253104 140.50441 
L 329.6511 140.734298 
L 331.049096 143.4175 
L 332.447092 143.490855 
L 333.845087 141.246942 
L 335.243083 140.878591 
L 336.641079 141.535038 
L 338.039074 144.225164 
L 339.43707 143.658348 
L 340.835066 144.064904 
L 342.233061 143.276077 
L 343.631057 143.08995 
L 345.029053 142.768475 
L 346.427049 143.146879 
L 347.825044 142.862052 
L 349.22304 142.097254 
L 350.621036 142.372694 
L 352.019031 140.901975 
L 353.417027 137.3038 
L 354.815023 136.449859 
L 356.213019 136.601543 
L 357.611014 136.271754 
L 359.00901 136.161932 
L 360.407006 133.975486 
L 361.805001 128.16895 
L 363.202997 121.379707 
L 364.600993 121.356114 
L 365.998988 120.99071 
L 367.396984 116.777503 
L 368.79498 115.586073 
L 370.192976 113.720147 
L 371.590971 111.201231 
L 372.988967 105.35686 
L 374.386963 101.764794 
L 375.784958 101.626164 
L 377.182954 99.017547 
L 378.58095 96.115677 
L 379.978946 93.687568 
L 381.376941 83.852776 
L 382.774937 75.908352 
L 384.172933 60.129457 
L 385.570928 65.349588 
L 386.968924 54.438339 
L 388.36692 49.990602 
L 389.764915 47.598827 
L 391.162911 47.192449 
L 392.560907 44.668941 
L 393.958903 36.45396 
L 395.356898 43.077847 
L 396.754894 33.504607 
L 398.15289 32.675706 
L 399.550885 25.894029 
L 400.948881 25.687794 
L 402.346877 25.723595 
L 403.744872 24.655596 
L 405.142868 17.655192 
L 406.540864 14.88157 
L 407.93886 17.941486 
L 409.336855 17.696712 
L 410.734851 16.703011 
L 412.132847 14.958512 
L 413.530842 18.045754 
L 414.928838 43.296917 
L 416.326834 32.431128 
L 417.72483 31.479783 
L 417.72483 31.479783 
" clip-path="url(#p3f66f79a7a)" style="fill: none; stroke: #0db14b; stroke-width: 3; stroke-linecap: square"/>
    <defs>
     <path id="m1f0a18799c" d="M 0 1.5 
C 0.397805 1.5 0.77937 1.341951 1.06066 1.06066 
C 1.341951 0.77937 1.5 0.397805 1.5 0 
C 1.5 -0.397805 1.341951 -0.77937 1.06066 -1.06066 
C 0.77937 -1.341951 0.397805 -1.5 0 -1.5 
C -0.397805 -1.5 -0.77937 -1.341951 -1.06066 -1.06066 
C -1.341951 -0.77937 -1.5 -0.397805 -1.5 0 
C -1.5 0.397805 -1.341951 0.77937 -1.06066 1.06066 
C -0.77937 1.341951 -0.397805 1.5 0 1.5 
z
" style="stroke: #0db14b"/>
    </defs>
    <g clip-path="url(#p3f66f79a7a)">
     <use xlink:href="#m1f0a18799c" x="62.63392" y="156.221512" style="fill: #0db14b; stroke: #0db14b"/>
     <use xlink:href="#m1f0a18799c" x="64.031916" y="154.849877" style="fill: #0db14b; stroke: #0db14b"/>
     <use xlink:href="#m1f0a18799c" x="65.429912" y="154.990729" style="fill: #0db14b; stroke: #0db14b"/>
     <use xlink:href="#m1f0a18799c" x="66.827908" y="156.028989" style="fill: #0db14b; stroke: #0db14b"/>
     <use xlink:href="#m1f0a18799c" x="68.225903" y="155.424695" style="fill: #0db14b; stroke: #0db14b"/>
     <use xlink:href="#m1f0a18799c" x="69.623899" y="154.22677" style="fill: #0db14b; stroke: #0db14b"/>
     <use xlink:href="#m1f0a18799c" x="71.021895" y="151.185837" style="fill: #0db14b; stroke: #0db14b"/>
     <use xlink:href="#m1f0a18799c" x="72.41989" y="151.274198" style="fill: #0db14b; stroke: #0db14b"/>
     <use xlink:href="#m1f0a18799c" x="73.817886" y="149.442017" style="fill: #0db14b; stroke: #0db14b"/>
     <use xlink:href="#m1f0a18799c" x="75.215882" y="150.027248" style="fill: #0db14b; stroke: #0db14b"/>
     <use xlink:href="#m1f0a18799c" x="76.613878" y="149.968955" style="fill: #0db14b; stroke: #0db14b"/>
     <use xlink:href="#m1f0a18799c" x="78.011873" y="150.109236" style="fill: #0db14b; stroke: #0db14b"/>
     <use xlink:href="#m1f0a18799c" x="79.409869" y="150.029659" style="fill: #0db14b; stroke: #0db14b"/>
     <use xlink:href="#m1f0a18799c" x="80.807865" y="150.037972" style="fill: #0db14b; stroke: #0db14b"/>
     <use xlink:href="#m1f0a18799c" x="82.20586" y="149.841374" style="fill: #0db14b; stroke: #0db14b"/>
     <use xlink:href="#m1f0a18799c" x="83.603856" y="149.752544" style="fill: #0db14b; stroke: #0db14b"/>
     <use xlink:href="#m1f0a18799c" x="85.001852" y="146.609101" style="fill: #0db14b; stroke: #0db14b"/>
     <use xlink:href="#m1f0a18799c" x="86.399847" y="142.658144" style="fill: #0db14b; stroke: #0db14b"/>
     <use xlink:href="#m1f0a18799c" x="87.797843" y="142.418546" style="fill: #0db14b; stroke: #0db14b"/>
     <use xlink:href="#m1f0a18799c" x="89.195839" y="142.272024" style="fill: #0db14b; stroke: #0db14b"/>
     <use xlink:href="#m1f0a18799c" x="90.593835" y="141.289429" style="fill: #0db14b; stroke: #0db14b"/>
     <use xlink:href="#m1f0a18799c" x="91.99183" y="140.907657" style="fill: #0db14b; stroke: #0db14b"/>
     <use xlink:href="#m1f0a18799c" x="93.389826" y="140.214992" style="fill: #0db14b; stroke: #0db14b"/>
     <use xlink:href="#m1f0a18799c" x="94.787822" y="141.026999" style="fill: #0db14b; stroke: #0db14b"/>
     <use xlink:href="#m1f0a18799c" x="96.185817" y="141.281891" style="fill: #0db14b; stroke: #0db14b"/>
     <use xlink:href="#m1f0a18799c" x="97.583813" y="140.630417" style="fill: #0db14b; stroke: #0db14b"/>
     <use xlink:href="#m1f0a18799c" x="98.981809" y="139.029581" style="fill: #0db14b; stroke: #0db14b"/>
     <use xlink:href="#m1f0a18799c" x="100.379804" y="139.161733" style="fill: #0db14b; stroke: #0db14b"/>
     <use xlink:href="#m1f0a18799c" x="101.7778" y="139.66673" style="fill: #0db14b; stroke: #0db14b"/>
     <use xlink:href="#m1f0a18799c" x="103.175796" y="138.282382" style="fill: #0db14b; stroke: #0db14b"/>
     <use xlink:href="#m1f0a18799c" x="104.573792" y="138.850397" style="fill: #0db14b; stroke: #0db14b"/>
     <use xlink:href="#m1f0a18799c" x="105.971787" y="137.954272" style="fill: #0db14b; stroke: #0db14b"/>
     <use xlink:href="#m1f0a18799c" x="107.369783" y="138.540176" style="fill: #0db14b; stroke: #0db14b"/>
     <use xlink:href="#m1f0a18799c" x="108.767779" y="130.284094" style="fill: #0db14b; stroke: #0db14b"/>
     <use xlink:href="#m1f0a18799c" x="110.165774" y="125.647945" style="fill: #0db14b; stroke: #0db14b"/>
     <use xlink:href="#m1f0a18799c" x="111.56377" y="133.088355" style="fill: #0db14b; stroke: #0db14b"/>
     <use xlink:href="#m1f0a18799c" x="112.961766" y="125.817216" style="fill: #0db14b; stroke: #0db14b"/>
     <use xlink:href="#m1f0a18799c" x="114.359762" y="117.67091" style="fill: #0db14b; stroke: #0db14b"/>
     <use xlink:href="#m1f0a18799c" x="115.757757" y="118.926511" style="fill: #0db14b; stroke: #0db14b"/>
     <use xlink:href="#m1f0a18799c" x="117.155753" y="117.161236" style="fill: #0db14b; stroke: #0db14b"/>
     <use xlink:href="#m1f0a18799c" x="118.553749" y="118.869032" style="fill: #0db14b; stroke: #0db14b"/>
     <use xlink:href="#m1f0a18799c" x="119.951744" y="118.82074" style="fill: #0db14b; stroke: #0db14b"/>
     <use xlink:href="#m1f0a18799c" x="121.34974" y="120.920657" style="fill: #0db14b; stroke: #0db14b"/>
     <use xlink:href="#m1f0a18799c" x="122.747736" y="118.881149" style="fill: #0db14b; stroke: #0db14b"/>
     <use xlink:href="#m1f0a18799c" x="124.145731" y="118.373858" style="fill: #0db14b; stroke: #0db14b"/>
     <use xlink:href="#m1f0a18799c" x="125.543727" y="126.641438" style="fill: #0db14b; stroke: #0db14b"/>
     <use xlink:href="#m1f0a18799c" x="126.941723" y="126.272333" style="fill: #0db14b; stroke: #0db14b"/>
     <use xlink:href="#m1f0a18799c" x="128.339719" y="127.411547" style="fill: #0db14b; stroke: #0db14b"/>
     <use xlink:href="#m1f0a18799c" x="129.737714" y="128.894535" style="fill: #0db14b; stroke: #0db14b"/>
     <use xlink:href="#m1f0a18799c" x="131.13571" y="132.216315" style="fill: #0db14b; stroke: #0db14b"/>
     <use xlink:href="#m1f0a18799c" x="132.533706" y="128.360969" style="fill: #0db14b; stroke: #0db14b"/>
     <use xlink:href="#m1f0a18799c" x="133.931701" y="126.912795" style="fill: #0db14b; stroke: #0db14b"/>
     <use xlink:href="#m1f0a18799c" x="135.329697" y="121.634102" style="fill: #0db14b; stroke: #0db14b"/>
     <use xlink:href="#m1f0a18799c" x="136.727693" y="116.868188" style="fill: #0db14b; stroke: #0db14b"/>
     <use xlink:href="#m1f0a18799c" x="138.125689" y="116.751005" style="fill: #0db14b; stroke: #0db14b"/>
     <use xlink:href="#m1f0a18799c" x="139.523684" y="110.187404" style="fill: #0db14b; stroke: #0db14b"/>
     <use xlink:href="#m1f0a18799c" x="140.92168" y="109.795796" style="fill: #0db14b; stroke: #0db14b"/>
     <use xlink:href="#m1f0a18799c" x="142.319676" y="113.777651" style="fill: #0db14b; stroke: #0db14b"/>
     <use xlink:href="#m1f0a18799c" x="143.717671" y="112.213918" style="fill: #0db14b; stroke: #0db14b"/>
     <use xlink:href="#m1f0a18799c" x="145.115667" y="111.39864" style="fill: #0db14b; stroke: #0db14b"/>
     <use xlink:href="#m1f0a18799c" x="146.513663" y="111.309152" style="fill: #0db14b; stroke: #0db14b"/>
     <use xlink:href="#m1f0a18799c" x="147.911658" y="109.470943" style="fill: #0db14b; stroke: #0db14b"/>
     <use xlink:href="#m1f0a18799c" x="149.309654" y="101.699684" style="fill: #0db14b; stroke: #0db14b"/>
     <use xlink:href="#m1f0a18799c" x="150.70765" y="108.767706" style="fill: #0db14b; stroke: #0db14b"/>
     <use xlink:href="#m1f0a18799c" x="152.105646" y="108.496552" style="fill: #0db14b; stroke: #0db14b"/>
     <use xlink:href="#m1f0a18799c" x="153.503641" y="107.429914" style="fill: #0db14b; stroke: #0db14b"/>
     <use xlink:href="#m1f0a18799c" x="154.901637" y="107.133282" style="fill: #0db14b; stroke: #0db14b"/>
     <use xlink:href="#m1f0a18799c" x="156.299633" y="102.254126" style="fill: #0db14b; stroke: #0db14b"/>
     <use xlink:href="#m1f0a18799c" x="157.697628" y="100.912587" style="fill: #0db14b; stroke: #0db14b"/>
     <use xlink:href="#m1f0a18799c" x="159.095624" y="103.010664" style="fill: #0db14b; stroke: #0db14b"/>
     <use xlink:href="#m1f0a18799c" x="160.49362" y="103.381316" style="fill: #0db14b; stroke: #0db14b"/>
     <use xlink:href="#m1f0a18799c" x="161.891616" y="102.695932" style="fill: #0db14b; stroke: #0db14b"/>
     <use xlink:href="#m1f0a18799c" x="163.289611" y="102.385634" style="fill: #0db14b; stroke: #0db14b"/>
     <use xlink:href="#m1f0a18799c" x="164.687607" y="97.413282" style="fill: #0db14b; stroke: #0db14b"/>
     <use xlink:href="#m1f0a18799c" x="166.085603" y="101.478705" style="fill: #0db14b; stroke: #0db14b"/>
     <use xlink:href="#m1f0a18799c" x="167.483598" y="102.146842" style="fill: #0db14b; stroke: #0db14b"/>
     <use xlink:href="#m1f0a18799c" x="168.881594" y="102.681489" style="fill: #0db14b; stroke: #0db14b"/>
     <use xlink:href="#m1f0a18799c" x="170.27959" y="100.08385" style="fill: #0db14b; stroke: #0db14b"/>
     <use xlink:href="#m1f0a18799c" x="171.677585" y="99.734652" style="fill: #0db14b; stroke: #0db14b"/>
     <use xlink:href="#m1f0a18799c" x="173.075581" y="99.091968" style="fill: #0db14b; stroke: #0db14b"/>
     <use xlink:href="#m1f0a18799c" x="174.473577" y="99.764849" style="fill: #0db14b; stroke: #0db14b"/>
     <use xlink:href="#m1f0a18799c" x="175.871573" y="93.876676" style="fill: #0db14b; stroke: #0db14b"/>
     <use xlink:href="#m1f0a18799c" x="177.269568" y="95.277388" style="fill: #0db14b; stroke: #0db14b"/>
     <use xlink:href="#m1f0a18799c" x="178.667564" y="89.279544" style="fill: #0db14b; stroke: #0db14b"/>
     <use xlink:href="#m1f0a18799c" x="180.06556" y="92.499347" style="fill: #0db14b; stroke: #0db14b"/>
     <use xlink:href="#m1f0a18799c" x="181.463555" y="90.499921" style="fill: #0db14b; stroke: #0db14b"/>
     <use xlink:href="#m1f0a18799c" x="182.861551" y="89.984041" style="fill: #0db14b; stroke: #0db14b"/>
     <use xlink:href="#m1f0a18799c" x="184.259547" y="90.917393" style="fill: #0db14b; stroke: #0db14b"/>
     <use xlink:href="#m1f0a18799c" x="185.657543" y="80.600409" style="fill: #0db14b; stroke: #0db14b"/>
     <use xlink:href="#m1f0a18799c" x="187.055538" y="80.328484" style="fill: #0db14b; stroke: #0db14b"/>
     <use xlink:href="#m1f0a18799c" x="188.453534" y="78.121731" style="fill: #0db14b; stroke: #0db14b"/>
     <use xlink:href="#m1f0a18799c" x="189.85153" y="83.458054" style="fill: #0db14b; stroke: #0db14b"/>
     <use xlink:href="#m1f0a18799c" x="191.249525" y="80.706689" style="fill: #0db14b; stroke: #0db14b"/>
     <use xlink:href="#m1f0a18799c" x="192.647521" y="69.830589" style="fill: #0db14b; stroke: #0db14b"/>
     <use xlink:href="#m1f0a18799c" x="194.045517" y="62.574671" style="fill: #0db14b; stroke: #0db14b"/>
     <use xlink:href="#m1f0a18799c" x="195.443512" y="61.637196" style="fill: #0db14b; stroke: #0db14b"/>
     <use xlink:href="#m1f0a18799c" x="196.841508" y="56.854397" style="fill: #0db14b; stroke: #0db14b"/>
     <use xlink:href="#m1f0a18799c" x="198.239504" y="57.676704" style="fill: #0db14b; stroke: #0db14b"/>
     <use xlink:href="#m1f0a18799c" x="199.6375" y="69.183564" style="fill: #0db14b; stroke: #0db14b"/>
     <use xlink:href="#m1f0a18799c" x="201.035495" y="61.671044" style="fill: #0db14b; stroke: #0db14b"/>
     <use xlink:href="#m1f0a18799c" x="202.433491" y="61.911269" style="fill: #0db14b; stroke: #0db14b"/>
     <use xlink:href="#m1f0a18799c" x="203.831487" y="64.921487" style="fill: #0db14b; stroke: #0db14b"/>
     <use xlink:href="#m1f0a18799c" x="205.229482" y="65.310198" style="fill: #0db14b; stroke: #0db14b"/>
     <use xlink:href="#m1f0a18799c" x="206.627478" y="64.374703" style="fill: #0db14b; stroke: #0db14b"/>
     <use xlink:href="#m1f0a18799c" x="208.025474" y="65.783635" style="fill: #0db14b; stroke: #0db14b"/>
     <use xlink:href="#m1f0a18799c" x="209.423469" y="66.464372" style="fill: #0db14b; stroke: #0db14b"/>
     <use xlink:href="#m1f0a18799c" x="210.821465" y="65.222976" style="fill: #0db14b; stroke: #0db14b"/>
     <use xlink:href="#m1f0a18799c" x="212.219461" y="68.390783" style="fill: #0db14b; stroke: #0db14b"/>
     <use xlink:href="#m1f0a18799c" x="213.617457" y="71.792676" style="fill: #0db14b; stroke: #0db14b"/>
     <use xlink:href="#m1f0a18799c" x="215.015452" y="78.513606" style="fill: #0db14b; stroke: #0db14b"/>
     <use xlink:href="#m1f0a18799c" x="216.413448" y="74.02082" style="fill: #0db14b; stroke: #0db14b"/>
     <use xlink:href="#m1f0a18799c" x="217.811444" y="71.83782" style="fill: #0db14b; stroke: #0db14b"/>
     <use xlink:href="#m1f0a18799c" x="219.209439" y="70.728673" style="fill: #0db14b; stroke: #0db14b"/>
     <use xlink:href="#m1f0a18799c" x="220.607435" y="73.240759" style="fill: #0db14b; stroke: #0db14b"/>
     <use xlink:href="#m1f0a18799c" x="222.005431" y="73.327165" style="fill: #0db14b; stroke: #0db14b"/>
     <use xlink:href="#m1f0a18799c" x="223.403427" y="79.005079" style="fill: #0db14b; stroke: #0db14b"/>
     <use xlink:href="#m1f0a18799c" x="224.801422" y="80.996796" style="fill: #0db14b; stroke: #0db14b"/>
     <use xlink:href="#m1f0a18799c" x="226.199418" y="72.649955" style="fill: #0db14b; stroke: #0db14b"/>
     <use xlink:href="#m1f0a18799c" x="227.597414" y="74.740085" style="fill: #0db14b; stroke: #0db14b"/>
     <use xlink:href="#m1f0a18799c" x="228.995409" y="74.932978" style="fill: #0db14b; stroke: #0db14b"/>
     <use xlink:href="#m1f0a18799c" x="230.393405" y="75.899425" style="fill: #0db14b; stroke: #0db14b"/>
     <use xlink:href="#m1f0a18799c" x="231.791401" y="83.207188" style="fill: #0db14b; stroke: #0db14b"/>
     <use xlink:href="#m1f0a18799c" x="233.189396" y="75.561555" style="fill: #0db14b; stroke: #0db14b"/>
     <use xlink:href="#m1f0a18799c" x="234.587392" y="83.626928" style="fill: #0db14b; stroke: #0db14b"/>
     <use xlink:href="#m1f0a18799c" x="235.985388" y="88.547167" style="fill: #0db14b; stroke: #0db14b"/>
     <use xlink:href="#m1f0a18799c" x="237.383384" y="91.126823" style="fill: #0db14b; stroke: #0db14b"/>
     <use xlink:href="#m1f0a18799c" x="238.781379" y="91.088646" style="fill: #0db14b; stroke: #0db14b"/>
     <use xlink:href="#m1f0a18799c" x="240.179375" y="96.926655" style="fill: #0db14b; stroke: #0db14b"/>
     <use xlink:href="#m1f0a18799c" x="241.577371" y="99.810573" style="fill: #0db14b; stroke: #0db14b"/>
     <use xlink:href="#m1f0a18799c" x="242.975366" y="104.970089" style="fill: #0db14b; stroke: #0db14b"/>
     <use xlink:href="#m1f0a18799c" x="244.373362" y="105.926105" style="fill: #0db14b; stroke: #0db14b"/>
     <use xlink:href="#m1f0a18799c" x="245.771358" y="107.414197" style="fill: #0db14b; stroke: #0db14b"/>
     <use xlink:href="#m1f0a18799c" x="247.169354" y="111.640686" style="fill: #0db14b; stroke: #0db14b"/>
     <use xlink:href="#m1f0a18799c" x="248.567349" y="107.965838" style="fill: #0db14b; stroke: #0db14b"/>
     <use xlink:href="#m1f0a18799c" x="249.965345" y="113.564477" style="fill: #0db14b; stroke: #0db14b"/>
     <use xlink:href="#m1f0a18799c" x="251.363341" y="114.066683" style="fill: #0db14b; stroke: #0db14b"/>
     <use xlink:href="#m1f0a18799c" x="252.761336" y="118.167899" style="fill: #0db14b; stroke: #0db14b"/>
     <use xlink:href="#m1f0a18799c" x="254.159332" y="126.889057" style="fill: #0db14b; stroke: #0db14b"/>
     <use xlink:href="#m1f0a18799c" x="255.557328" y="126.954041" style="fill: #0db14b; stroke: #0db14b"/>
     <use xlink:href="#m1f0a18799c" x="256.955323" y="127.285457" style="fill: #0db14b; stroke: #0db14b"/>
     <use xlink:href="#m1f0a18799c" x="258.353319" y="127.482706" style="fill: #0db14b; stroke: #0db14b"/>
     <use xlink:href="#m1f0a18799c" x="259.751315" y="127.314397" style="fill: #0db14b; stroke: #0db14b"/>
     <use xlink:href="#m1f0a18799c" x="261.149311" y="128.213565" style="fill: #0db14b; stroke: #0db14b"/>
     <use xlink:href="#m1f0a18799c" x="262.547306" y="128.489371" style="fill: #0db14b; stroke: #0db14b"/>
     <use xlink:href="#m1f0a18799c" x="263.945302" y="132.346075" style="fill: #0db14b; stroke: #0db14b"/>
     <use xlink:href="#m1f0a18799c" x="265.343298" y="131.955466" style="fill: #0db14b; stroke: #0db14b"/>
     <use xlink:href="#m1f0a18799c" x="266.741293" y="131.608698" style="fill: #0db14b; stroke: #0db14b"/>
     <use xlink:href="#m1f0a18799c" x="268.139289" y="131.169867" style="fill: #0db14b; stroke: #0db14b"/>
     <use xlink:href="#m1f0a18799c" x="269.537285" y="130.85899" style="fill: #0db14b; stroke: #0db14b"/>
     <use xlink:href="#m1f0a18799c" x="270.935281" y="131.704892" style="fill: #0db14b; stroke: #0db14b"/>
     <use xlink:href="#m1f0a18799c" x="272.333276" y="132.399293" style="fill: #0db14b; stroke: #0db14b"/>
     <use xlink:href="#m1f0a18799c" x="273.731272" y="131.432085" style="fill: #0db14b; stroke: #0db14b"/>
     <use xlink:href="#m1f0a18799c" x="275.129268" y="130.944927" style="fill: #0db14b; stroke: #0db14b"/>
     <use xlink:href="#m1f0a18799c" x="276.527263" y="135.66231" style="fill: #0db14b; stroke: #0db14b"/>
     <use xlink:href="#m1f0a18799c" x="277.925259" y="135.886929" style="fill: #0db14b; stroke: #0db14b"/>
     <use xlink:href="#m1f0a18799c" x="279.323255" y="131.79053" style="fill: #0db14b; stroke: #0db14b"/>
     <use xlink:href="#m1f0a18799c" x="280.72125" y="135.778994" style="fill: #0db14b; stroke: #0db14b"/>
     <use xlink:href="#m1f0a18799c" x="282.119246" y="140.002591" style="fill: #0db14b; stroke: #0db14b"/>
     <use xlink:href="#m1f0a18799c" x="283.517242" y="135.053263" style="fill: #0db14b; stroke: #0db14b"/>
     <use xlink:href="#m1f0a18799c" x="284.915238" y="134.704999" style="fill: #0db14b; stroke: #0db14b"/>
     <use xlink:href="#m1f0a18799c" x="286.313233" y="135.29285" style="fill: #0db14b; stroke: #0db14b"/>
     <use xlink:href="#m1f0a18799c" x="287.711229" y="140.109281" style="fill: #0db14b; stroke: #0db14b"/>
     <use xlink:href="#m1f0a18799c" x="289.109225" y="140.344296" style="fill: #0db14b; stroke: #0db14b"/>
     <use xlink:href="#m1f0a18799c" x="290.50722" y="140.530766" style="fill: #0db14b; stroke: #0db14b"/>
     <use xlink:href="#m1f0a18799c" x="291.905216" y="140.468135" style="fill: #0db14b; stroke: #0db14b"/>
     <use xlink:href="#m1f0a18799c" x="293.303212" y="140.341119" style="fill: #0db14b; stroke: #0db14b"/>
     <use xlink:href="#m1f0a18799c" x="294.701207" y="139.960825" style="fill: #0db14b; stroke: #0db14b"/>
     <use xlink:href="#m1f0a18799c" x="296.099203" y="139.875948" style="fill: #0db14b; stroke: #0db14b"/>
     <use xlink:href="#m1f0a18799c" x="297.497199" y="135.601582" style="fill: #0db14b; stroke: #0db14b"/>
     <use xlink:href="#m1f0a18799c" x="298.895195" y="140.410858" style="fill: #0db14b; stroke: #0db14b"/>
     <use xlink:href="#m1f0a18799c" x="300.29319" y="140.623285" style="fill: #0db14b; stroke: #0db14b"/>
     <use xlink:href="#m1f0a18799c" x="301.691186" y="141.039693" style="fill: #0db14b; stroke: #0db14b"/>
     <use xlink:href="#m1f0a18799c" x="303.089182" y="141.722969" style="fill: #0db14b; stroke: #0db14b"/>
     <use xlink:href="#m1f0a18799c" x="304.487177" y="140.403926" style="fill: #0db14b; stroke: #0db14b"/>
     <use xlink:href="#m1f0a18799c" x="305.885173" y="142.209316" style="fill: #0db14b; stroke: #0db14b"/>
     <use xlink:href="#m1f0a18799c" x="307.283169" y="141.469991" style="fill: #0db14b; stroke: #0db14b"/>
     <use xlink:href="#m1f0a18799c" x="308.681165" y="141.842438" style="fill: #0db14b; stroke: #0db14b"/>
     <use xlink:href="#m1f0a18799c" x="310.07916" y="142.174379" style="fill: #0db14b; stroke: #0db14b"/>
     <use xlink:href="#m1f0a18799c" x="311.477156" y="141.696962" style="fill: #0db14b; stroke: #0db14b"/>
     <use xlink:href="#m1f0a18799c" x="312.875152" y="141.888255" style="fill: #0db14b; stroke: #0db14b"/>
     <use xlink:href="#m1f0a18799c" x="314.273147" y="143.039236" style="fill: #0db14b; stroke: #0db14b"/>
     <use xlink:href="#m1f0a18799c" x="315.671143" y="139.581694" style="fill: #0db14b; stroke: #0db14b"/>
     <use xlink:href="#m1f0a18799c" x="317.069139" y="139.282792" style="fill: #0db14b; stroke: #0db14b"/>
     <use xlink:href="#m1f0a18799c" x="318.467134" y="138.907512" style="fill: #0db14b; stroke: #0db14b"/>
     <use xlink:href="#m1f0a18799c" x="319.86513" y="143.738864" style="fill: #0db14b; stroke: #0db14b"/>
     <use xlink:href="#m1f0a18799c" x="321.263126" y="143.996238" style="fill: #0db14b; stroke: #0db14b"/>
     <use xlink:href="#m1f0a18799c" x="322.661122" y="141.072306" style="fill: #0db14b; stroke: #0db14b"/>
     <use xlink:href="#m1f0a18799c" x="324.059117" y="140.781355" style="fill: #0db14b; stroke: #0db14b"/>
     <use xlink:href="#m1f0a18799c" x="325.457113" y="141.498959" style="fill: #0db14b; stroke: #0db14b"/>
     <use xlink:href="#m1f0a18799c" x="326.855109" y="141.677664" style="fill: #0db14b; stroke: #0db14b"/>
     <use xlink:href="#m1f0a18799c" x="328.253104" y="140.50441" style="fill: #0db14b; stroke: #0db14b"/>
     <use xlink:href="#m1f0a18799c" x="329.6511" y="140.734298" style="fill: #0db14b; stroke: #0db14b"/>
     <use xlink:href="#m1f0a18799c" x="331.049096" y="143.4175" style="fill: #0db14b; stroke: #0db14b"/>
     <use xlink:href="#m1f0a18799c" x="332.447092" y="143.490855" style="fill: #0db14b; stroke: #0db14b"/>
     <use xlink:href="#m1f0a18799c" x="333.845087" y="141.246942" style="fill: #0db14b; stroke: #0db14b"/>
     <use xlink:href="#m1f0a18799c" x="335.243083" y="140.878591" style="fill: #0db14b; stroke: #0db14b"/>
     <use xlink:href="#m1f0a18799c" x="336.641079" y="141.535038" style="fill: #0db14b; stroke: #0db14b"/>
     <use xlink:href="#m1f0a18799c" x="338.039074" y="144.225164" style="fill: #0db14b; stroke: #0db14b"/>
     <use xlink:href="#m1f0a18799c" x="339.43707" y="143.658348" style="fill: #0db14b; stroke: #0db14b"/>
     <use xlink:href="#m1f0a18799c" x="340.835066" y="144.064904" style="fill: #0db14b; stroke: #0db14b"/>
     <use xlink:href="#m1f0a18799c" x="342.233061" y="143.276077" style="fill: #0db14b; stroke: #0db14b"/>
     <use xlink:href="#m1f0a18799c" x="343.631057" y="143.08995" style="fill: #0db14b; stroke: #0db14b"/>
     <use xlink:href="#m1f0a18799c" x="345.029053" y="142.768475" style="fill: #0db14b; stroke: #0db14b"/>
     <use xlink:href="#m1f0a18799c" x="346.427049" y="143.146879" style="fill: #0db14b; stroke: #0db14b"/>
     <use xlink:href="#m1f0a18799c" x="347.825044" y="142.862052" style="fill: #0db14b; stroke: #0db14b"/>
     <use xlink:href="#m1f0a18799c" x="349.22304" y="142.097254" style="fill: #0db14b; stroke: #0db14b"/>
     <use xlink:href="#m1f0a18799c" x="350.621036" y="142.372694" style="fill: #0db14b; stroke: #0db14b"/>
     <use xlink:href="#m1f0a18799c" x="352.019031" y="140.901975" style="fill: #0db14b; stroke: #0db14b"/>
     <use xlink:href="#m1f0a18799c" x="353.417027" y="137.3038" style="fill: #0db14b; stroke: #0db14b"/>
     <use xlink:href="#m1f0a18799c" x="354.815023" y="136.449859" style="fill: #0db14b; stroke: #0db14b"/>
     <use xlink:href="#m1f0a18799c" x="356.213019" y="136.601543" style="fill: #0db14b; stroke: #0db14b"/>
     <use xlink:href="#m1f0a18799c" x="357.611014" y="136.271754" style="fill: #0db14b; stroke: #0db14b"/>
     <use xlink:href="#m1f0a18799c" x="359.00901" y="136.161932" style="fill: #0db14b; stroke: #0db14b"/>
     <use xlink:href="#m1f0a18799c" x="360.407006" y="133.975486" style="fill: #0db14b; stroke: #0db14b"/>
     <use xlink:href="#m1f0a18799c" x="361.805001" y="128.16895" style="fill: #0db14b; stroke: #0db14b"/>
     <use xlink:href="#m1f0a18799c" x="363.202997" y="121.379707" style="fill: #0db14b; stroke: #0db14b"/>
     <use xlink:href="#m1f0a18799c" x="364.600993" y="121.356114" style="fill: #0db14b; stroke: #0db14b"/>
     <use xlink:href="#m1f0a18799c" x="365.998988" y="120.99071" style="fill: #0db14b; stroke: #0db14b"/>
     <use xlink:href="#m1f0a18799c" x="367.396984" y="116.777503" style="fill: #0db14b; stroke: #0db14b"/>
     <use xlink:href="#m1f0a18799c" x="368.79498" y="115.586073" style="fill: #0db14b; stroke: #0db14b"/>
     <use xlink:href="#m1f0a18799c" x="370.192976" y="113.720147" style="fill: #0db14b; stroke: #0db14b"/>
     <use xlink:href="#m1f0a18799c" x="371.590971" y="111.201231" style="fill: #0db14b; stroke: #0db14b"/>
     <use xlink:href="#m1f0a18799c" x="372.988967" y="105.35686" style="fill: #0db14b; stroke: #0db14b"/>
     <use xlink:href="#m1f0a18799c" x="374.386963" y="101.764794" style="fill: #0db14b; stroke: #0db14b"/>
     <use xlink:href="#m1f0a18799c" x="375.784958" y="101.626164" style="fill: #0db14b; stroke: #0db14b"/>
     <use xlink:href="#m1f0a18799c" x="377.182954" y="99.017547" style="fill: #0db14b; stroke: #0db14b"/>
     <use xlink:href="#m1f0a18799c" x="378.58095" y="96.115677" style="fill: #0db14b; stroke: #0db14b"/>
     <use xlink:href="#m1f0a18799c" x="379.978946" y="93.687568" style="fill: #0db14b; stroke: #0db14b"/>
     <use xlink:href="#m1f0a18799c" x="381.376941" y="83.852776" style="fill: #0db14b; stroke: #0db14b"/>
     <use xlink:href="#m1f0a18799c" x="382.774937" y="75.908352" style="fill: #0db14b; stroke: #0db14b"/>
     <use xlink:href="#m1f0a18799c" x="384.172933" y="60.129457" style="fill: #0db14b; stroke: #0db14b"/>
     <use xlink:href="#m1f0a18799c" x="385.570928" y="65.349588" style="fill: #0db14b; stroke: #0db14b"/>
     <use xlink:href="#m1f0a18799c" x="386.968924" y="54.438339" style="fill: #0db14b; stroke: #0db14b"/>
     <use xlink:href="#m1f0a18799c" x="388.36692" y="49.990602" style="fill: #0db14b; stroke: #0db14b"/>
     <use xlink:href="#m1f0a18799c" x="389.764915" y="47.598827" style="fill: #0db14b; stroke: #0db14b"/>
     <use xlink:href="#m1f0a18799c" x="391.162911" y="47.192449" style="fill: #0db14b; stroke: #0db14b"/>
     <use xlink:href="#m1f0a18799c" x="392.560907" y="44.668941" style="fill: #0db14b; stroke: #0db14b"/>
     <use xlink:href="#m1f0a18799c" x="393.958903" y="36.45396" style="fill: #0db14b; stroke: #0db14b"/>
     <use xlink:href="#m1f0a18799c" x="395.356898" y="43.077847" style="fill: #0db14b; stroke: #0db14b"/>
     <use xlink:href="#m1f0a18799c" x="396.754894" y="33.504607" style="fill: #0db14b; stroke: #0db14b"/>
     <use xlink:href="#m1f0a18799c" x="398.15289" y="32.675706" style="fill: #0db14b; stroke: #0db14b"/>
     <use xlink:href="#m1f0a18799c" x="399.550885" y="25.894029" style="fill: #0db14b; stroke: #0db14b"/>
     <use xlink:href="#m1f0a18799c" x="400.948881" y="25.687794" style="fill: #0db14b; stroke: #0db14b"/>
     <use xlink:href="#m1f0a18799c" x="402.346877" y="25.723595" style="fill: #0db14b; stroke: #0db14b"/>
     <use xlink:href="#m1f0a18799c" x="403.744872" y="24.655596" style="fill: #0db14b; stroke: #0db14b"/>
     <use xlink:href="#m1f0a18799c" x="405.142868" y="17.655192" style="fill: #0db14b; stroke: #0db14b"/>
     <use xlink:href="#m1f0a18799c" x="406.540864" y="14.88157" style="fill: #0db14b; stroke: #0db14b"/>
     <use xlink:href="#m1f0a18799c" x="407.93886" y="17.941486" style="fill: #0db14b; stroke: #0db14b"/>
     <use xlink:href="#m1f0a18799c" x="409.336855" y="17.696712" style="fill: #0db14b; stroke: #0db14b"/>
     <use xlink:href="#m1f0a18799c" x="410.734851" y="16.703011" style="fill: #0db14b; stroke: #0db14b"/>
     <use xlink:href="#m1f0a18799c" x="412.132847" y="14.958512" style="fill: #0db14b; stroke: #0db14b"/>
     <use xlink:href="#m1f0a18799c" x="413.530842" y="18.045754" style="fill: #0db14b; stroke: #0db14b"/>
     <use xlink:href="#m1f0a18799c" x="414.928838" y="43.296917" style="fill: #0db14b; stroke: #0db14b"/>
     <use xlink:href="#m1f0a18799c" x="416.326834" y="32.431128" style="fill: #0db14b; stroke: #0db14b"/>
     <use xlink:href="#m1f0a18799c" x="417.72483" y="31.479783" style="fill: #0db14b; stroke: #0db14b"/>
    </g>
   </g>
   <g id="line2d_24">
    <path d="M 62.63392 159.359589 
L 64.031916 158.591986 
L 65.429912 158.028635 
L 66.827908 158.807022 
L 69.623899 157.380617 
L 72.41989 156.071894 
L 75.215882 155.944525 
L 78.011873 155.35422 
L 79.409869 156.035286 
L 80.807865 153.802123 
L 82.20586 152.743323 
L 83.603856 151.450256 
L 85.001852 150.373521 
L 86.399847 147.025287 
L 89.195839 145.272349 
L 90.593835 145.235407 
L 91.99183 142.10383 
L 93.389826 141.580059 
L 94.787822 143.967125 
L 96.185817 142.819545 
L 97.583813 140.909104 
L 98.981809 136.58905 
L 101.7778 139.458146 
L 103.175796 137.883258 
L 104.573792 137.866343 
L 107.369783 135.082486 
L 110.165774 128.341242 
L 111.56377 132.290324 
L 112.961766 128.969952 
L 114.359762 120.172605 
L 115.757757 121.066294 
L 117.155753 120.904051 
L 118.553749 122.545251 
L 119.951744 124.360687 
L 121.34974 124.891496 
L 122.747736 124.104833 
L 124.145731 124.251688 
L 125.543727 126.393729 
L 126.941723 126.528665 
L 128.339719 128.118221 
L 129.737714 128.264468 
L 131.13571 127.868197 
L 132.533706 126.667975 
L 133.931701 125.903261 
L 135.329697 123.992599 
L 136.727693 123.421851 
L 138.125689 121.790159 
L 139.523684 117.332858 
L 140.92168 116.633991 
L 142.319676 117.13676 
L 143.717671 114.805621 
L 145.115667 114.001585 
L 146.513663 115.421373 
L 147.911658 113.721245 
L 149.309654 104.89527 
L 150.70765 113.766305 
L 152.105646 113.332997 
L 153.503641 112.261806 
L 154.901637 112.012892 
L 156.299633 108.608194 
L 157.697628 107.060769 
L 159.095624 106.900824 
L 160.49362 107.778389 
L 161.891616 105.611225 
L 163.289611 105.888162 
L 164.687607 101.701798 
L 166.085603 102.96801 
L 167.483598 103.282899 
L 168.881594 105.643729 
L 170.27959 100.519045 
L 173.075581 99.302075 
L 174.473577 97.576432 
L 175.871573 96.81137 
L 177.269568 97.317697 
L 178.667564 92.239336 
L 180.06556 96.121542 
L 181.463555 91.710852 
L 182.861551 91.143096 
L 184.259547 91.643012 
L 185.657543 87.600321 
L 187.055538 86.968087 
L 188.453534 82.349206 
L 189.85153 88.062884 
L 192.647521 73.175119 
L 194.045517 69.139144 
L 195.443512 66.832394 
L 196.841508 63.682234 
L 198.239504 62.167164 
L 199.6375 69.908967 
L 201.035495 63.212276 
L 202.433491 60.84794 
L 203.831487 63.395097 
L 205.229482 66.82366 
L 206.627478 65.598304 
L 208.025474 68.650245 
L 209.423469 68.774414 
L 210.821465 68.329819 
L 212.219461 72.159133 
L 213.617457 77.423799 
L 215.015452 78.548096 
L 216.413448 76.245565 
L 217.811444 75.820825 
L 219.209439 72.835155 
L 220.607435 76.091907 
L 222.005431 77.27102 
L 223.403427 76.650304 
L 224.801422 75.764764 
L 226.199418 77.009159 
L 227.597414 78.64049 
L 228.995409 79.951921 
L 230.393405 82.693474 
L 233.189396 81.067399 
L 234.587392 82.822563 
L 235.985388 88.325824 
L 237.383384 93.0355 
L 238.781379 93.66718 
L 240.179375 96.523624 
L 241.577371 97.862564 
L 244.373362 103.261069 
L 245.771358 106.395144 
L 247.169354 108.745356 
L 248.567349 108.313171 
L 251.363341 116.304638 
L 252.761336 118.273276 
L 254.159332 123.385073 
L 255.557328 124.623415 
L 256.955323 123.984574 
L 258.353319 123.790858 
L 259.751315 126.947468 
L 261.149311 128.792931 
L 262.547306 129.496019 
L 263.945302 133.911126 
L 265.343298 134.934273 
L 266.741293 135.557566 
L 268.139289 135.901563 
L 269.537285 135.703208 
L 270.935281 136.878601 
L 272.333276 136.882371 
L 273.731272 135.4866 
L 275.129268 136.695326 
L 276.527263 139.818883 
L 277.925259 140.555666 
L 279.323255 139.410618 
L 280.72125 140.606447 
L 282.119246 141.343468 
L 283.517242 139.209744 
L 284.915238 139.8363 
L 286.313233 140.765786 
L 287.711229 141.14717 
L 289.109225 142.074597 
L 291.905216 142.866908 
L 293.303212 142.835135 
L 294.701207 142.646458 
L 296.099203 142.899084 
L 297.497199 142.437034 
L 298.895195 144.045603 
L 301.691186 143.350103 
L 303.089182 143.874348 
L 304.487177 143.4598 
L 305.885173 144.339244 
L 307.283169 143.780943 
L 310.07916 144.193692 
L 311.477156 144.793326 
L 312.875152 144.562501 
L 314.273147 145.153832 
L 315.671143 144.83628 
L 317.069139 144.374748 
L 318.467134 144.631185 
L 321.263126 146.491529 
L 324.059117 147.028922 
L 326.855109 146.114702 
L 328.253104 147.426931 
L 329.6511 147.202892 
L 331.049096 148.044423 
L 332.447092 148.659491 
L 333.845087 147.854661 
L 335.243083 148.37128 
L 336.641079 148.092931 
L 338.039074 148.238359 
L 339.43707 147.254379 
L 340.835066 146.818055 
L 342.233061 146.245127 
L 343.631057 146.426338 
L 345.029053 145.021093 
L 346.427049 145.331942 
L 347.825044 143.641965 
L 349.22304 143.257172 
L 350.621036 142.26611 
L 352.019031 142.066636 
L 353.417027 141.494494 
L 354.815023 139.085622 
L 356.213019 138.903656 
L 357.611014 137.926274 
L 359.00901 137.660416 
L 360.407006 134.729465 
L 361.805001 132.763229 
L 363.202997 129.47606 
L 364.600993 128.32752 
L 365.998988 126.807748 
L 367.396984 123.976639 
L 368.79498 120.202524 
L 370.192976 114.801571 
L 371.590971 111.444878 
L 372.988967 105.280733 
L 374.386963 103.451635 
L 375.784958 103.021401 
L 377.182954 95.275722 
L 378.58095 90.155567 
L 379.978946 86.175706 
L 381.376941 80.020311 
L 384.172933 69.611244 
L 385.570928 71.752669 
L 386.968924 63.629657 
L 388.36692 57.648069 
L 389.764915 52.714918 
L 391.162911 49.031854 
L 392.560907 48.524007 
L 393.958903 40.448189 
L 395.356898 42.897681 
L 396.754894 35.070974 
L 398.15289 33.715637 
L 399.550885 28.290971 
L 400.948881 28.675551 
L 402.346877 27.158269 
L 403.744872 27.050143 
L 405.142868 27.298957 
L 406.540864 21.536458 
L 407.93886 23.803678 
L 409.336855 23.239434 
L 410.734851 22.349416 
L 412.132847 19.307995 
L 413.530842 24.309628 
L 414.928838 46.971686 
L 416.326834 32.408886 
L 417.72483 31.275748 
L 417.72483 31.275748 
" clip-path="url(#p3f66f79a7a)" style="fill: none; stroke-dasharray: 5.55,2.4; stroke-dashoffset: 0; stroke: #000000; stroke-width: 1.5"/>
   </g>
   <g id="patch_3">
    <path d="M 44.879375 166.919589 
L 44.879375 0.599589 
" style="fill: none; stroke: #ffffff; stroke-linejoin: miter; stroke-linecap: square"/>
   </g>
   <g id="patch_4">
    <path d="M 435.479375 166.919589 
L 435.479375 0.599589 
" style="fill: none; stroke: #ffffff; stroke-linejoin: miter; stroke-linecap: square"/>
   </g>
   <g id="patch_5">
    <path d="M 44.879375 166.919589 
L 435.479375 166.919589 
" style="fill: none; stroke: #ffffff; stroke-linejoin: miter; stroke-linecap: square"/>
   </g>
   <g id="patch_6">
    <path d="M 44.879375 0.599589 
L 435.479375 0.599589 
" style="fill: none; stroke: #ffffff; stroke-linejoin: miter; stroke-linecap: square"/>
   </g>
   <g id="legend_1">
    <g id="patch_7">
     <path d="M 51.879375 60.977714 
L 203.92625 60.977714 
Q 205.92625 60.977714 205.92625 58.977714 
L 205.92625 7.599589 
Q 205.92625 5.599589 203.92625 5.599589 
L 51.879375 5.599589 
Q 49.879375 5.599589 49.879375 7.599589 
L 49.879375 58.977714 
Q 49.879375 60.977714 51.879375 60.977714 
z
" style="fill: #e5e5e5; opacity: 0.8; stroke: #cccccc; stroke-width: 0.5; stroke-linejoin: miter"/>
    </g>
    <g id="line2d_25">
     <path d="M 53.879375 16.099589 
L 63.879375 16.099589 
L 73.879375 16.099589 
" style="fill: none; stroke: #0db14b; stroke-width: 3; stroke-linecap: square"/>
     <g>
      <use xlink:href="#m1f0a18799c" x="63.879375" y="16.099589" style="fill: #0db14b; stroke: #0db14b"/>
     </g>
    </g>
    <g id="text_14">
     <!-- Private Value $\tilde{R}_{\chi_2,\chi_1}^t$ -->
     <g transform="translate(81.879375 19.599589) scale(0.1 -0.1)">
      <defs>
       <path id="DejaVuSans-50" d="M 1259 4147 
L 1259 2394 
L 2053 2394 
Q 2494 2394 2734 2622 
Q 2975 2850 2975 3272 
Q 2975 3691 2734 3919 
Q 2494 4147 2053 4147 
L 1259 4147 
z
M 628 4666 
L 2053 4666 
Q 2838 4666 3239 4311 
Q 3641 3956 3641 3272 
Q 3641 2581 3239 2228 
Q 2838 1875 2053 1875 
L 1259 1875 
L 1259 0 
L 628 0 
L 628 4666 
z
" transform="scale(0.015625)"/>
       <path id="DejaVuSans-72" d="M 2631 2963 
Q 2534 3019 2420 3045 
Q 2306 3072 2169 3072 
Q 1681 3072 1420 2755 
Q 1159 2438 1159 1844 
L 1159 0 
L 581 0 
L 581 3500 
L 1159 3500 
L 1159 2956 
Q 1341 3275 1631 3429 
Q 1922 3584 2338 3584 
Q 2397 3584 2469 3576 
Q 2541 3569 2628 3553 
L 2631 2963 
z
" transform="scale(0.015625)"/>
       <path id="DejaVuSans-69" d="M 603 3500 
L 1178 3500 
L 1178 0 
L 603 0 
L 603 3500 
z
M 603 4863 
L 1178 4863 
L 1178 4134 
L 603 4134 
L 603 4863 
z
" transform="scale(0.015625)"/>
       <path id="DejaVuSans-76" d="M 191 3500 
L 800 3500 
L 1894 563 
L 2988 3500 
L 3597 3500 
L 2284 0 
L 1503 0 
L 191 3500 
z
" transform="scale(0.015625)"/>
       <path id="DejaVuSans-20" transform="scale(0.015625)"/>
       <path id="DejaVuSans-303" d="M -1621 4281 
L -1799 4453 
Q -1867 4516 -1919 4545 
Q -1971 4575 -2011 4575 
Q -2130 4575 -2186 4461 
Q -2242 4347 -2249 4091 
L -2639 4091 
Q -2633 4513 -2473 4742 
Q -2314 4972 -2030 4972 
Q -1911 4972 -1811 4928 
Q -1711 4884 -1596 4781 
L -1417 4609 
Q -1349 4547 -1297 4517 
Q -1246 4488 -1205 4488 
Q -1086 4488 -1030 4602 
Q -974 4716 -967 4972 
L -577 4972 
Q -583 4550 -742 4320 
Q -902 4091 -1186 4091 
Q -1305 4091 -1405 4134 
Q -1505 4178 -1621 4281 
z
" transform="scale(0.015625)"/>
       <path id="DejaVuSans-Oblique-52" d="M 1613 4147 
L 1294 2491 
L 2106 2491 
Q 2584 2491 2879 2755 
Q 3175 3019 3175 3444 
Q 3175 3784 2976 3965 
Q 2778 4147 2406 4147 
L 1613 4147 
z
M 2772 2241 
Q 2972 2194 3105 2009 
Q 3238 1825 3413 1275 
L 3809 0 
L 3144 0 
L 2778 1197 
Q 2638 1659 2453 1815 
Q 2269 1972 1888 1972 
L 1191 1972 
L 806 0 
L 172 0 
L 1081 4666 
L 2503 4666 
Q 3150 4666 3495 4373 
Q 3841 4081 3841 3531 
Q 3841 3044 3547 2687 
Q 3253 2331 2772 2241 
z
" transform="scale(0.015625)"/>
       <path id="DejaVuSans-Oblique-74" d="M 2706 3500 
L 2619 3053 
L 1472 3053 
L 1100 1153 
Q 1081 1047 1072 975 
Q 1063 903 1063 863 
Q 1063 663 1183 572 
Q 1303 481 1569 481 
L 2150 481 
L 2053 0 
L 1503 0 
Q 991 0 739 200 
Q 488 400 488 806 
Q 488 878 497 964 
Q 506 1050 525 1153 
L 897 3053 
L 409 3053 
L 500 3500 
L 978 3500 
L 1172 4494 
L 1747 4494 
L 1556 3500 
L 2706 3500 
z
" transform="scale(0.015625)"/>
       <path id="DejaVuSans-Oblique-3c7" d="M 1922 -781 
L 1691 416 
L 394 -1334 
L -284 -1334 
L 1553 1141 
L 1269 2613 
Q 1194 3006 713 3006 
L 559 3006 
L 653 3500 
L 872 3494 
Q 1675 3472 1775 2950 
L 2006 1753 
L 3303 3503 
L 3981 3503 
L 2144 1028 
L 2428 -444 
Q 2503 -838 2984 -838 
L 3138 -838 
L 3044 -1331 
L 2825 -1325 
Q 2022 -1303 1922 -781 
z
" transform="scale(0.015625)"/>
       <path id="DejaVuSans-2c" d="M 750 794 
L 1409 794 
L 1409 256 
L 897 -744 
L 494 -744 
L 750 256 
L 750 794 
z
" transform="scale(0.015625)"/>
      </defs>
      <use xlink:href="#DejaVuSans-50" transform="translate(0 0.828125)"/>
      <use xlink:href="#DejaVuSans-72" transform="translate(60.302734 0.828125)"/>
      <use xlink:href="#DejaVuSans-69" transform="translate(101.416016 0.828125)"/>
      <use xlink:href="#DejaVuSans-76" transform="translate(129.199219 0.828125)"/>
      <use xlink:href="#DejaVuSans-61" transform="translate(188.378906 0.828125)"/>
      <use xlink:href="#DejaVuSans-74" transform="translate(249.658203 0.828125)"/>
      <use xlink:href="#DejaVuSans-65" transform="translate(288.867188 0.828125)"/>
      <use xlink:href="#DejaVuSans-20" transform="translate(350.390625 0.828125)"/>
      <use xlink:href="#DejaVuSans-56" transform="translate(382.177734 0.828125)"/>
      <use xlink:href="#DejaVuSans-61" transform="translate(450.585938 0.828125)"/>
      <use xlink:href="#DejaVuSans-6c" transform="translate(511.865234 0.828125)"/>
      <use xlink:href="#DejaVuSans-75" transform="translate(539.648438 0.828125)"/>
      <use xlink:href="#DejaVuSans-65" transform="translate(603.027344 0.828125)"/>
      <use xlink:href="#DejaVuSans-20" transform="translate(664.550781 0.828125)"/>
      <use xlink:href="#DejaVuSans-303" transform="translate(764.942871 22.3125)"/>
      <use xlink:href="#DejaVuSans-Oblique-52" transform="translate(696.337891 0.828125)"/>
      <use xlink:href="#DejaVuSans-Oblique-74" transform="translate(766.777344 39.109375) scale(0.7)"/>
      <use xlink:href="#DejaVuSans-Oblique-3c7" transform="translate(766.777344 -26.515625) scale(0.7)"/>
      <use xlink:href="#DejaVuSans-32" transform="translate(808.203125 -38) scale(0.49)"/>
      <use xlink:href="#DejaVuSans-2c" transform="translate(841.29248 -26.515625) scale(0.7)"/>
      <use xlink:href="#DejaVuSans-Oblique-3c7" transform="translate(877.181152 -26.515625) scale(0.7)"/>
      <use xlink:href="#DejaVuSans-31" transform="translate(918.606934 -38) scale(0.49)"/>
     </g>
    </g>
    <g id="line2d_26">
     <path d="M 53.879375 34.599589 
L 63.879375 34.599589 
L 73.879375 34.599589 
" style="fill: none; stroke-dasharray: 5.55,2.4; stroke-dashoffset: 0; stroke: #000000; stroke-width: 1.5"/>
    </g>
    <g id="text_15">
     <!-- Original Value $\bar{R}_{\chi_2,\chi_1}^t$ -->
     <g transform="translate(81.879375 38.099589) scale(0.1 -0.1)">
      <defs>
       <path id="DejaVuSans-4f" d="M 2522 4238 
Q 1834 4238 1429 3725 
Q 1025 3213 1025 2328 
Q 1025 1447 1429 934 
Q 1834 422 2522 422 
Q 3209 422 3611 934 
Q 4013 1447 4013 2328 
Q 4013 3213 3611 3725 
Q 3209 4238 2522 4238 
z
M 2522 4750 
Q 3503 4750 4090 4092 
Q 4678 3434 4678 2328 
Q 4678 1225 4090 567 
Q 3503 -91 2522 -91 
Q 1538 -91 948 565 
Q 359 1222 359 2328 
Q 359 3434 948 4092 
Q 1538 4750 2522 4750 
z
" transform="scale(0.015625)"/>
       <path id="DejaVuSans-67" d="M 2906 1791 
Q 2906 2416 2648 2759 
Q 2391 3103 1925 3103 
Q 1463 3103 1205 2759 
Q 947 2416 947 1791 
Q 947 1169 1205 825 
Q 1463 481 1925 481 
Q 2391 481 2648 825 
Q 2906 1169 2906 1791 
z
M 3481 434 
Q 3481 -459 3084 -895 
Q 2688 -1331 1869 -1331 
Q 1566 -1331 1297 -1286 
Q 1028 -1241 775 -1147 
L 775 -588 
Q 1028 -725 1275 -790 
Q 1522 -856 1778 -856 
Q 2344 -856 2625 -561 
Q 2906 -266 2906 331 
L 2906 616 
Q 2728 306 2450 153 
Q 2172 0 1784 0 
Q 1141 0 747 490 
Q 353 981 353 1791 
Q 353 2603 747 3093 
Q 1141 3584 1784 3584 
Q 2172 3584 2450 3431 
Q 2728 3278 2906 2969 
L 2906 3500 
L 3481 3500 
L 3481 434 
z
" transform="scale(0.015625)"/>
       <path id="DejaVuSans-6e" d="M 3513 2113 
L 3513 0 
L 2938 0 
L 2938 2094 
Q 2938 2591 2744 2837 
Q 2550 3084 2163 3084 
Q 1697 3084 1428 2787 
Q 1159 2491 1159 1978 
L 1159 0 
L 581 0 
L 581 3500 
L 1159 3500 
L 1159 2956 
Q 1366 3272 1645 3428 
Q 1925 3584 2291 3584 
Q 2894 3584 3203 3211 
Q 3513 2838 3513 2113 
z
" transform="scale(0.015625)"/>
       <path id="DejaVuSans-304" d="M -2518 4769 
L -650 4769 
L -650 4306 
L -2518 4306 
L -2518 4769 
z
" transform="scale(0.015625)"/>
      </defs>
      <use xlink:href="#DejaVuSans-4f" transform="translate(0 0.359375)"/>
      <use xlink:href="#DejaVuSans-72" transform="translate(78.710938 0.359375)"/>
      <use xlink:href="#DejaVuSans-69" transform="translate(119.824219 0.359375)"/>
      <use xlink:href="#DejaVuSans-67" transform="translate(147.607422 0.359375)"/>
      <use xlink:href="#DejaVuSans-69" transform="translate(211.083984 0.359375)"/>
      <use xlink:href="#DejaVuSans-6e" transform="translate(238.867188 0.359375)"/>
      <use xlink:href="#DejaVuSans-61" transform="translate(302.246094 0.359375)"/>
      <use xlink:href="#DejaVuSans-6c" transform="translate(363.525391 0.359375)"/>
      <use xlink:href="#DejaVuSans-20" transform="translate(391.308594 0.359375)"/>
      <use xlink:href="#DejaVuSans-56" transform="translate(423.095703 0.359375)"/>
      <use xlink:href="#DejaVuSans-61" transform="translate(491.503906 0.359375)"/>
      <use xlink:href="#DejaVuSans-6c" transform="translate(552.783203 0.359375)"/>
      <use xlink:href="#DejaVuSans-75" transform="translate(580.566406 0.359375)"/>
      <use xlink:href="#DejaVuSans-65" transform="translate(643.945312 0.359375)"/>
      <use xlink:href="#DejaVuSans-20" transform="translate(705.46875 0.359375)"/>
      <use xlink:href="#DejaVuSans-304" transform="translate(804.970215 18.484375)"/>
      <use xlink:href="#DejaVuSans-Oblique-52" transform="translate(737.255859 0.359375)"/>
      <use xlink:href="#DejaVuSans-Oblique-74" transform="translate(807.695312 38.640625) scale(0.7)"/>
      <use xlink:href="#DejaVuSans-Oblique-3c7" transform="translate(807.695312 -26.984375) scale(0.7)"/>
      <use xlink:href="#DejaVuSans-32" transform="translate(849.121094 -38.46875) scale(0.49)"/>
      <use xlink:href="#DejaVuSans-2c" transform="translate(882.210449 -26.984375) scale(0.7)"/>
      <use xlink:href="#DejaVuSans-Oblique-3c7" transform="translate(918.099121 -26.984375) scale(0.7)"/>
      <use xlink:href="#DejaVuSans-31" transform="translate(959.524902 -38.46875) scale(0.49)"/>
     </g>
    </g>
    <g id="patch_8">
     <path d="M 53.879375 54.898027 
L 73.879375 54.898027 
L 73.879375 47.898027 
L 53.879375 47.898027 
z
" style="fill: #0db14b; fill-opacity: 0.5; stroke: #0db14b; stroke-opacity: 0.5; stroke-width: 0.5; stroke-linejoin: miter"/>
    </g>
    <g id="text_16">
     <!-- One Standard Deviation -->
     <g transform="translate(81.879375 54.898027) scale(0.1 -0.1)">
      <defs>
       <path id="DejaVuSans-53" d="M 3425 4513 
L 3425 3897 
Q 3066 4069 2747 4153 
Q 2428 4238 2131 4238 
Q 1616 4238 1336 4038 
Q 1056 3838 1056 3469 
Q 1056 3159 1242 3001 
Q 1428 2844 1947 2747 
L 2328 2669 
Q 3034 2534 3370 2195 
Q 3706 1856 3706 1288 
Q 3706 609 3251 259 
Q 2797 -91 1919 -91 
Q 1588 -91 1214 -16 
Q 841 59 441 206 
L 441 856 
Q 825 641 1194 531 
Q 1563 422 1919 422 
Q 2459 422 2753 634 
Q 3047 847 3047 1241 
Q 3047 1584 2836 1778 
Q 2625 1972 2144 2069 
L 1759 2144 
Q 1053 2284 737 2584 
Q 422 2884 422 3419 
Q 422 4038 858 4394 
Q 1294 4750 2059 4750 
Q 2388 4750 2728 4690 
Q 3069 4631 3425 4513 
z
" transform="scale(0.015625)"/>
       <path id="DejaVuSans-64" d="M 2906 2969 
L 2906 4863 
L 3481 4863 
L 3481 0 
L 2906 0 
L 2906 525 
Q 2725 213 2448 61 
Q 2172 -91 1784 -91 
Q 1150 -91 751 415 
Q 353 922 353 1747 
Q 353 2572 751 3078 
Q 1150 3584 1784 3584 
Q 2172 3584 2448 3432 
Q 2725 3281 2906 2969 
z
M 947 1747 
Q 947 1113 1208 752 
Q 1469 391 1925 391 
Q 2381 391 2643 752 
Q 2906 1113 2906 1747 
Q 2906 2381 2643 2742 
Q 2381 3103 1925 3103 
Q 1469 3103 1208 2742 
Q 947 2381 947 1747 
z
" transform="scale(0.015625)"/>
       <path id="DejaVuSans-6f" d="M 1959 3097 
Q 1497 3097 1228 2736 
Q 959 2375 959 1747 
Q 959 1119 1226 758 
Q 1494 397 1959 397 
Q 2419 397 2687 759 
Q 2956 1122 2956 1747 
Q 2956 2369 2687 2733 
Q 2419 3097 1959 3097 
z
M 1959 3584 
Q 2709 3584 3137 3096 
Q 3566 2609 3566 1747 
Q 3566 888 3137 398 
Q 2709 -91 1959 -91 
Q 1206 -91 779 398 
Q 353 888 353 1747 
Q 353 2609 779 3096 
Q 1206 3584 1959 3584 
z
" transform="scale(0.015625)"/>
      </defs>
      <use xlink:href="#DejaVuSans-4f"/>
      <use xlink:href="#DejaVuSans-6e" x="78.710938"/>
      <use xlink:href="#DejaVuSans-65" x="142.089844"/>
      <use xlink:href="#DejaVuSans-20" x="203.613281"/>
      <use xlink:href="#DejaVuSans-53" x="235.400391"/>
      <use xlink:href="#DejaVuSans-74" x="298.876953"/>
      <use xlink:href="#DejaVuSans-61" x="338.085938"/>
      <use xlink:href="#DejaVuSans-6e" x="399.365234"/>
      <use xlink:href="#DejaVuSans-64" x="462.744141"/>
      <use xlink:href="#DejaVuSans-61" x="526.220703"/>
      <use xlink:href="#DejaVuSans-72" x="587.5"/>
      <use xlink:href="#DejaVuSans-64" x="626.863281"/>
      <use xlink:href="#DejaVuSans-20" x="690.339844"/>
      <use xlink:href="#DejaVuSans-44" x="722.126953"/>
      <use xlink:href="#DejaVuSans-65" x="799.128906"/>
      <use xlink:href="#DejaVuSans-76" x="860.652344"/>
      <use xlink:href="#DejaVuSans-69" x="919.832031"/>
      <use xlink:href="#DejaVuSans-61" x="947.615234"/>
      <use xlink:href="#DejaVuSans-74" x="1008.894531"/>
      <use xlink:href="#DejaVuSans-69" x="1048.103516"/>
      <use xlink:href="#DejaVuSans-6f" x="1075.886719"/>
      <use xlink:href="#DejaVuSans-6e" x="1137.068359"/>
     </g>
    </g>
   </g>
  </g>
 </g>
 <defs>
  <clipPath id="p3f66f79a7a">
   <rect x="44.879375" y="0.599589" width="390.6" height="166.32"/>
  </clipPath>
 </defs>
</svg>
