<?xml version="1.0" encoding="utf-8" standalone="no"?>
<!DOCTYPE svg PUBLIC "-//W3C//DTD SVG 1.1//EN"
  "http://www.w3.org/Graphics/SVG/1.1/DTD/svg11.dtd">
<svg xmlns:xlink="http://www.w3.org/1999/xlink" width="444.375067pt" height="198.611875pt" viewBox="0 0 444.375067 198.611875" xmlns="http://www.w3.org/2000/svg" version="1.1">
 <metadata>
  <rdf:RDF xmlns:dc="http://purl.org/dc/elements/1.1/" xmlns:cc="http://creativecommons.org/ns#" xmlns:rdf="http://www.w3.org/1999/02/22-rdf-syntax-ns#">
   <cc:Work>
    <dc:type rdf:resource="http://purl.org/dc/dcmitype/StillImage"/>
    <dc:date>2024-09-18T15:47:44.549543</dc:date>
    <dc:format>image/svg+xml</dc:format>
    <dc:creator>
     <cc:Agent>
      <dc:title>Matplotlib v3.7.5, https://matplotlib.org/</dc:title>
     </cc:Agent>
    </dc:creator>
   </cc:Work>
  </rdf:RDF>
 </metadata>
 <defs>
  <style type="text/css">*{stroke-linejoin: round; stroke-linecap: butt}</style>
 </defs>
 <g id="figure_1">
  <g id="patch_1">
   <path d="M 0 198.611875 
L 444.375067 198.611875 
L 444.375067 0 
L 0 0 
z
" style="fill: #ffffff"/>
  </g>
  <g id="axes_1">
   <g id="patch_2">
    <path d="M 44.879375 166.32 
L 435.479375 166.32 
L 435.479375 0 
L 44.879375 0 
z
" style="fill: #e5e5e5"/>
   </g>
   <g id="matplotlib.axis_1">
    <g id="xtick_1">
     <g id="line2d_1">
      <path d="M 72.41989 166.32 
L 72.41989 0 
" clip-path="url(#p4dd966fda4)" style="fill: none; stroke: #ffffff; stroke-width: 0.8; stroke-linecap: square"/>
     </g>
     <g id="line2d_2">
      <defs>
       <path id="m4faf1e68bd" d="M 0 0 
L 0 3.5 
" style="stroke: #555555; stroke-width: 0.8"/>
      </defs>
      <g>
       <use xlink:href="#m4faf1e68bd" x="72.41989" y="166.32" style="fill: #555555; stroke: #555555; stroke-width: 0.8"/>
      </g>
     </g>
     <g id="text_1">
      <!-- 08/16/20 -->
      <g style="fill: #555555" transform="translate(49.96364 180.918438) scale(0.1 -0.1)">
       <defs>
        <path id="DejaVuSans-30" d="M 2034 4250 
Q 1547 4250 1301 3770 
Q 1056 3291 1056 2328 
Q 1056 1369 1301 889 
Q 1547 409 2034 409 
Q 2525 409 2770 889 
Q 3016 1369 3016 2328 
Q 3016 3291 2770 3770 
Q 2525 4250 2034 4250 
z
M 2034 4750 
Q 2819 4750 3233 4129 
Q 3647 3509 3647 2328 
Q 3647 1150 3233 529 
Q 2819 -91 2034 -91 
Q 1250 -91 836 529 
Q 422 1150 422 2328 
Q 422 3509 836 4129 
Q 1250 4750 2034 4750 
z
" transform="scale(0.015625)"/>
        <path id="DejaVuSans-38" d="M 2034 2216 
Q 1584 2216 1326 1975 
Q 1069 1734 1069 1313 
Q 1069 891 1326 650 
Q 1584 409 2034 409 
Q 2484 409 2743 651 
Q 3003 894 3003 1313 
Q 3003 1734 2745 1975 
Q 2488 2216 2034 2216 
z
M 1403 2484 
Q 997 2584 770 2862 
Q 544 3141 544 3541 
Q 544 4100 942 4425 
Q 1341 4750 2034 4750 
Q 2731 4750 3128 4425 
Q 3525 4100 3525 3541 
Q 3525 3141 3298 2862 
Q 3072 2584 2669 2484 
Q 3125 2378 3379 2068 
Q 3634 1759 3634 1313 
Q 3634 634 3220 271 
Q 2806 -91 2034 -91 
Q 1263 -91 848 271 
Q 434 634 434 1313 
Q 434 1759 690 2068 
Q 947 2378 1403 2484 
z
M 1172 3481 
Q 1172 3119 1398 2916 
Q 1625 2713 2034 2713 
Q 2441 2713 2670 2916 
Q 2900 3119 2900 3481 
Q 2900 3844 2670 4047 
Q 2441 4250 2034 4250 
Q 1625 4250 1398 4047 
Q 1172 3844 1172 3481 
z
" transform="scale(0.015625)"/>
        <path id="DejaVuSans-2f" d="M 1625 4666 
L 2156 4666 
L 531 -594 
L 0 -594 
L 1625 4666 
z
" transform="scale(0.015625)"/>
        <path id="DejaVuSans-31" d="M 794 531 
L 1825 531 
L 1825 4091 
L 703 3866 
L 703 4441 
L 1819 4666 
L 2450 4666 
L 2450 531 
L 3481 531 
L 3481 0 
L 794 0 
L 794 531 
z
" transform="scale(0.015625)"/>
        <path id="DejaVuSans-36" d="M 2113 2584 
Q 1688 2584 1439 2293 
Q 1191 2003 1191 1497 
Q 1191 994 1439 701 
Q 1688 409 2113 409 
Q 2538 409 2786 701 
Q 3034 994 3034 1497 
Q 3034 2003 2786 2293 
Q 2538 2584 2113 2584 
z
M 3366 4563 
L 3366 3988 
Q 3128 4100 2886 4159 
Q 2644 4219 2406 4219 
Q 1781 4219 1451 3797 
Q 1122 3375 1075 2522 
Q 1259 2794 1537 2939 
Q 1816 3084 2150 3084 
Q 2853 3084 3261 2657 
Q 3669 2231 3669 1497 
Q 3669 778 3244 343 
Q 2819 -91 2113 -91 
Q 1303 -91 875 529 
Q 447 1150 447 2328 
Q 447 3434 972 4092 
Q 1497 4750 2381 4750 
Q 2619 4750 2861 4703 
Q 3103 4656 3366 4563 
z
" transform="scale(0.015625)"/>
        <path id="DejaVuSans-32" d="M 1228 531 
L 3431 531 
L 3431 0 
L 469 0 
L 469 531 
Q 828 903 1448 1529 
Q 2069 2156 2228 2338 
Q 2531 2678 2651 2914 
Q 2772 3150 2772 3378 
Q 2772 3750 2511 3984 
Q 2250 4219 1831 4219 
Q 1534 4219 1204 4116 
Q 875 4013 500 3803 
L 500 4441 
Q 881 4594 1212 4672 
Q 1544 4750 1819 4750 
Q 2544 4750 2975 4387 
Q 3406 4025 3406 3419 
Q 3406 3131 3298 2873 
Q 3191 2616 2906 2266 
Q 2828 2175 2409 1742 
Q 1991 1309 1228 531 
z
" transform="scale(0.015625)"/>
       </defs>
       <use xlink:href="#DejaVuSans-30"/>
       <use xlink:href="#DejaVuSans-38" x="63.623047"/>
       <use xlink:href="#DejaVuSans-2f" x="127.246094"/>
       <use xlink:href="#DejaVuSans-31" x="160.9375"/>
       <use xlink:href="#DejaVuSans-36" x="224.560547"/>
       <use xlink:href="#DejaVuSans-2f" x="288.183594"/>
       <use xlink:href="#DejaVuSans-32" x="321.875"/>
       <use xlink:href="#DejaVuSans-30" x="385.498047"/>
      </g>
     </g>
    </g>
    <g id="xtick_2">
     <g id="line2d_3">
      <path d="M 142.319676 166.32 
L 142.319676 0 
" clip-path="url(#p4dd966fda4)" style="fill: none; stroke: #ffffff; stroke-width: 0.8; stroke-linecap: square"/>
     </g>
     <g id="line2d_4">
      <g>
       <use xlink:href="#m4faf1e68bd" x="142.319676" y="166.32" style="fill: #555555; stroke: #555555; stroke-width: 0.8"/>
      </g>
     </g>
     <g id="text_2">
      <!-- 10/05/20 -->
      <g style="fill: #555555" transform="translate(119.863426 180.918438) scale(0.1 -0.1)">
       <defs>
        <path id="DejaVuSans-35" d="M 691 4666 
L 3169 4666 
L 3169 4134 
L 1269 4134 
L 1269 2991 
Q 1406 3038 1543 3061 
Q 1681 3084 1819 3084 
Q 2600 3084 3056 2656 
Q 3513 2228 3513 1497 
Q 3513 744 3044 326 
Q 2575 -91 1722 -91 
Q 1428 -91 1123 -41 
Q 819 9 494 109 
L 494 744 
Q 775 591 1075 516 
Q 1375 441 1709 441 
Q 2250 441 2565 725 
Q 2881 1009 2881 1497 
Q 2881 1984 2565 2268 
Q 2250 2553 1709 2553 
Q 1456 2553 1204 2497 
Q 953 2441 691 2322 
L 691 4666 
z
" transform="scale(0.015625)"/>
       </defs>
       <use xlink:href="#DejaVuSans-31"/>
       <use xlink:href="#DejaVuSans-30" x="63.623047"/>
       <use xlink:href="#DejaVuSans-2f" x="127.246094"/>
       <use xlink:href="#DejaVuSans-30" x="160.9375"/>
       <use xlink:href="#DejaVuSans-35" x="224.560547"/>
       <use xlink:href="#DejaVuSans-2f" x="288.183594"/>
       <use xlink:href="#DejaVuSans-32" x="321.875"/>
       <use xlink:href="#DejaVuSans-30" x="385.498047"/>
      </g>
     </g>
    </g>
    <g id="xtick_3">
     <g id="line2d_5">
      <path d="M 212.219461 166.32 
L 212.219461 0 
" clip-path="url(#p4dd966fda4)" style="fill: none; stroke: #ffffff; stroke-width: 0.8; stroke-linecap: square"/>
     </g>
     <g id="line2d_6">
      <g>
       <use xlink:href="#m4faf1e68bd" x="212.219461" y="166.32" style="fill: #555555; stroke: #555555; stroke-width: 0.8"/>
      </g>
     </g>
     <g id="text_3">
      <!-- 11/24/20 -->
      <g style="fill: #555555" transform="translate(189.763211 180.918438) scale(0.1 -0.1)">
       <defs>
        <path id="DejaVuSans-34" d="M 2419 4116 
L 825 1625 
L 2419 1625 
L 2419 4116 
z
M 2253 4666 
L 3047 4666 
L 3047 1625 
L 3713 1625 
L 3713 1100 
L 3047 1100 
L 3047 0 
L 2419 0 
L 2419 1100 
L 313 1100 
L 313 1709 
L 2253 4666 
z
" transform="scale(0.015625)"/>
       </defs>
       <use xlink:href="#DejaVuSans-31"/>
       <use xlink:href="#DejaVuSans-31" x="63.623047"/>
       <use xlink:href="#DejaVuSans-2f" x="127.246094"/>
       <use xlink:href="#DejaVuSans-32" x="160.9375"/>
       <use xlink:href="#DejaVuSans-34" x="224.560547"/>
       <use xlink:href="#DejaVuSans-2f" x="288.183594"/>
       <use xlink:href="#DejaVuSans-32" x="321.875"/>
       <use xlink:href="#DejaVuSans-30" x="385.498047"/>
      </g>
     </g>
    </g>
    <g id="xtick_4">
     <g id="line2d_7">
      <path d="M 282.119246 166.32 
L 282.119246 0 
" clip-path="url(#p4dd966fda4)" style="fill: none; stroke: #ffffff; stroke-width: 0.8; stroke-linecap: square"/>
     </g>
     <g id="line2d_8">
      <g>
       <use xlink:href="#m4faf1e68bd" x="282.119246" y="166.32" style="fill: #555555; stroke: #555555; stroke-width: 0.8"/>
      </g>
     </g>
     <g id="text_4">
      <!-- 01/13/21 -->
      <g style="fill: #555555" transform="translate(259.662996 180.918438) scale(0.1 -0.1)">
       <defs>
        <path id="DejaVuSans-33" d="M 2597 2516 
Q 3050 2419 3304 2112 
Q 3559 1806 3559 1356 
Q 3559 666 3084 287 
Q 2609 -91 1734 -91 
Q 1441 -91 1130 -33 
Q 819 25 488 141 
L 488 750 
Q 750 597 1062 519 
Q 1375 441 1716 441 
Q 2309 441 2620 675 
Q 2931 909 2931 1356 
Q 2931 1769 2642 2001 
Q 2353 2234 1838 2234 
L 1294 2234 
L 1294 2753 
L 1863 2753 
Q 2328 2753 2575 2939 
Q 2822 3125 2822 3475 
Q 2822 3834 2567 4026 
Q 2313 4219 1838 4219 
Q 1578 4219 1281 4162 
Q 984 4106 628 3988 
L 628 4550 
Q 988 4650 1302 4700 
Q 1616 4750 1894 4750 
Q 2613 4750 3031 4423 
Q 3450 4097 3450 3541 
Q 3450 3153 3228 2886 
Q 3006 2619 2597 2516 
z
" transform="scale(0.015625)"/>
       </defs>
       <use xlink:href="#DejaVuSans-30"/>
       <use xlink:href="#DejaVuSans-31" x="63.623047"/>
       <use xlink:href="#DejaVuSans-2f" x="127.246094"/>
       <use xlink:href="#DejaVuSans-31" x="160.9375"/>
       <use xlink:href="#DejaVuSans-33" x="224.560547"/>
       <use xlink:href="#DejaVuSans-2f" x="288.183594"/>
       <use xlink:href="#DejaVuSans-32" x="321.875"/>
       <use xlink:href="#DejaVuSans-31" x="385.498047"/>
      </g>
     </g>
    </g>
    <g id="xtick_5">
     <g id="line2d_9">
      <path d="M 352.019031 166.32 
L 352.019031 0 
" clip-path="url(#p4dd966fda4)" style="fill: none; stroke: #ffffff; stroke-width: 0.8; stroke-linecap: square"/>
     </g>
     <g id="line2d_10">
      <g>
       <use xlink:href="#m4faf1e68bd" x="352.019031" y="166.32" style="fill: #555555; stroke: #555555; stroke-width: 0.8"/>
      </g>
     </g>
     <g id="text_5">
      <!-- 03/04/21 -->
      <g style="fill: #555555" transform="translate(329.562781 180.918438) scale(0.1 -0.1)">
       <use xlink:href="#DejaVuSans-30"/>
       <use xlink:href="#DejaVuSans-33" x="63.623047"/>
       <use xlink:href="#DejaVuSans-2f" x="127.246094"/>
       <use xlink:href="#DejaVuSans-30" x="160.9375"/>
       <use xlink:href="#DejaVuSans-34" x="224.560547"/>
       <use xlink:href="#DejaVuSans-2f" x="288.183594"/>
       <use xlink:href="#DejaVuSans-32" x="321.875"/>
       <use xlink:href="#DejaVuSans-31" x="385.498047"/>
      </g>
     </g>
    </g>
    <g id="xtick_6">
     <g id="line2d_11">
      <path d="M 421.918817 166.32 
L 421.918817 0 
" clip-path="url(#p4dd966fda4)" style="fill: none; stroke: #ffffff; stroke-width: 0.8; stroke-linecap: square"/>
     </g>
     <g id="line2d_12">
      <g>
       <use xlink:href="#m4faf1e68bd" x="421.918817" y="166.32" style="fill: #555555; stroke: #555555; stroke-width: 0.8"/>
      </g>
     </g>
     <g id="text_6">
      <!-- 04/23/21 -->
      <g style="fill: #555555" transform="translate(399.462567 180.918438) scale(0.1 -0.1)">
       <use xlink:href="#DejaVuSans-30"/>
       <use xlink:href="#DejaVuSans-34" x="63.623047"/>
       <use xlink:href="#DejaVuSans-2f" x="127.246094"/>
       <use xlink:href="#DejaVuSans-32" x="160.9375"/>
       <use xlink:href="#DejaVuSans-33" x="224.560547"/>
       <use xlink:href="#DejaVuSans-2f" x="288.183594"/>
       <use xlink:href="#DejaVuSans-32" x="321.875"/>
       <use xlink:href="#DejaVuSans-31" x="385.498047"/>
      </g>
     </g>
    </g>
    <g id="text_7">
     <!-- Date -->
     <g style="fill: #555555" transform="translate(225.838438 196.11625) scale(0.12 -0.12)">
      <defs>
       <path id="DejaVuSans-44" d="M 1259 4147 
L 1259 519 
L 2022 519 
Q 2988 519 3436 956 
Q 3884 1394 3884 2338 
Q 3884 3275 3436 3711 
Q 2988 4147 2022 4147 
L 1259 4147 
z
M 628 4666 
L 1925 4666 
Q 3281 4666 3915 4102 
Q 4550 3538 4550 2338 
Q 4550 1131 3912 565 
Q 3275 0 1925 0 
L 628 0 
L 628 4666 
z
" transform="scale(0.015625)"/>
       <path id="DejaVuSans-61" d="M 2194 1759 
Q 1497 1759 1228 1600 
Q 959 1441 959 1056 
Q 959 750 1161 570 
Q 1363 391 1709 391 
Q 2188 391 2477 730 
Q 2766 1069 2766 1631 
L 2766 1759 
L 2194 1759 
z
M 3341 1997 
L 3341 0 
L 2766 0 
L 2766 531 
Q 2569 213 2275 61 
Q 1981 -91 1556 -91 
Q 1019 -91 701 211 
Q 384 513 384 1019 
Q 384 1609 779 1909 
Q 1175 2209 1959 2209 
L 2766 2209 
L 2766 2266 
Q 2766 2663 2505 2880 
Q 2244 3097 1772 3097 
Q 1472 3097 1187 3025 
Q 903 2953 641 2809 
L 641 3341 
Q 956 3463 1253 3523 
Q 1550 3584 1831 3584 
Q 2591 3584 2966 3190 
Q 3341 2797 3341 1997 
z
" transform="scale(0.015625)"/>
       <path id="DejaVuSans-74" d="M 1172 4494 
L 1172 3500 
L 2356 3500 
L 2356 3053 
L 1172 3053 
L 1172 1153 
Q 1172 725 1289 603 
Q 1406 481 1766 481 
L 2356 481 
L 2356 0 
L 1766 0 
Q 1100 0 847 248 
Q 594 497 594 1153 
L 594 3053 
L 172 3053 
L 172 3500 
L 594 3500 
L 594 4494 
L 1172 4494 
z
" transform="scale(0.015625)"/>
       <path id="DejaVuSans-65" d="M 3597 1894 
L 3597 1613 
L 953 1613 
Q 991 1019 1311 708 
Q 1631 397 2203 397 
Q 2534 397 2845 478 
Q 3156 559 3463 722 
L 3463 178 
Q 3153 47 2828 -22 
Q 2503 -91 2169 -91 
Q 1331 -91 842 396 
Q 353 884 353 1716 
Q 353 2575 817 3079 
Q 1281 3584 2069 3584 
Q 2775 3584 3186 3129 
Q 3597 2675 3597 1894 
z
M 3022 2063 
Q 3016 2534 2758 2815 
Q 2500 3097 2075 3097 
Q 1594 3097 1305 2825 
Q 1016 2553 972 2059 
L 3022 2063 
z
" transform="scale(0.015625)"/>
      </defs>
      <use xlink:href="#DejaVuSans-44"/>
      <use xlink:href="#DejaVuSans-61" x="77.001953"/>
      <use xlink:href="#DejaVuSans-74" x="138.28125"/>
      <use xlink:href="#DejaVuSans-65" x="177.490234"/>
     </g>
    </g>
   </g>
   <g id="matplotlib.axis_2">
    <g id="ytick_1">
     <g id="line2d_13">
      <path d="M 44.879375 163.29277 
L 435.479375 163.29277 
" clip-path="url(#p4dd966fda4)" style="fill: none; stroke: #ffffff; stroke-width: 0.8; stroke-linecap: square"/>
     </g>
     <g id="line2d_14">
      <defs>
       <path id="m45760daba5" d="M 0 0 
L -3.5 0 
" style="stroke: #555555; stroke-width: 0.8"/>
      </defs>
      <g>
       <use xlink:href="#m45760daba5" x="44.879375" y="163.29277" style="fill: #555555; stroke: #555555; stroke-width: 0.8"/>
      </g>
     </g>
     <g id="text_8">
      <!-- 0.00 -->
      <g style="fill: #555555" transform="translate(15.61375 167.091989) scale(0.1 -0.1)">
       <defs>
        <path id="DejaVuSans-2e" d="M 684 794 
L 1344 794 
L 1344 0 
L 684 0 
L 684 794 
z
" transform="scale(0.015625)"/>
       </defs>
       <use xlink:href="#DejaVuSans-30"/>
       <use xlink:href="#DejaVuSans-2e" x="63.623047"/>
       <use xlink:href="#DejaVuSans-30" x="95.410156"/>
       <use xlink:href="#DejaVuSans-30" x="159.033203"/>
      </g>
     </g>
    </g>
    <g id="ytick_2">
     <g id="line2d_15">
      <path d="M 44.879375 141.059003 
L 435.479375 141.059003 
" clip-path="url(#p4dd966fda4)" style="fill: none; stroke: #ffffff; stroke-width: 0.8; stroke-linecap: square"/>
     </g>
     <g id="line2d_16">
      <g>
       <use xlink:href="#m45760daba5" x="44.879375" y="141.059003" style="fill: #555555; stroke: #555555; stroke-width: 0.8"/>
      </g>
     </g>
     <g id="text_9">
      <!-- 0.02 -->
      <g style="fill: #555555" transform="translate(15.61375 144.858222) scale(0.1 -0.1)">
       <use xlink:href="#DejaVuSans-30"/>
       <use xlink:href="#DejaVuSans-2e" x="63.623047"/>
       <use xlink:href="#DejaVuSans-30" x="95.410156"/>
       <use xlink:href="#DejaVuSans-32" x="159.033203"/>
      </g>
     </g>
    </g>
    <g id="ytick_3">
     <g id="line2d_17">
      <path d="M 44.879375 118.825236 
L 435.479375 118.825236 
" clip-path="url(#p4dd966fda4)" style="fill: none; stroke: #ffffff; stroke-width: 0.8; stroke-linecap: square"/>
     </g>
     <g id="line2d_18">
      <g>
       <use xlink:href="#m45760daba5" x="44.879375" y="118.825236" style="fill: #555555; stroke: #555555; stroke-width: 0.8"/>
      </g>
     </g>
     <g id="text_10">
      <!-- 0.04 -->
      <g style="fill: #555555" transform="translate(15.61375 122.624454) scale(0.1 -0.1)">
       <use xlink:href="#DejaVuSans-30"/>
       <use xlink:href="#DejaVuSans-2e" x="63.623047"/>
       <use xlink:href="#DejaVuSans-30" x="95.410156"/>
       <use xlink:href="#DejaVuSans-34" x="159.033203"/>
      </g>
     </g>
    </g>
    <g id="ytick_4">
     <g id="line2d_19">
      <path d="M 44.879375 96.591469 
L 435.479375 96.591469 
" clip-path="url(#p4dd966fda4)" style="fill: none; stroke: #ffffff; stroke-width: 0.8; stroke-linecap: square"/>
     </g>
     <g id="line2d_20">
      <g>
       <use xlink:href="#m45760daba5" x="44.879375" y="96.591469" style="fill: #555555; stroke: #555555; stroke-width: 0.8"/>
      </g>
     </g>
     <g id="text_11">
      <!-- 0.06 -->
      <g style="fill: #555555" transform="translate(15.61375 100.390687) scale(0.1 -0.1)">
       <use xlink:href="#DejaVuSans-30"/>
       <use xlink:href="#DejaVuSans-2e" x="63.623047"/>
       <use xlink:href="#DejaVuSans-30" x="95.410156"/>
       <use xlink:href="#DejaVuSans-36" x="159.033203"/>
      </g>
     </g>
    </g>
    <g id="ytick_5">
     <g id="line2d_21">
      <path d="M 44.879375 74.357701 
L 435.479375 74.357701 
" clip-path="url(#p4dd966fda4)" style="fill: none; stroke: #ffffff; stroke-width: 0.8; stroke-linecap: square"/>
     </g>
     <g id="line2d_22">
      <g>
       <use xlink:href="#m45760daba5" x="44.879375" y="74.357701" style="fill: #555555; stroke: #555555; stroke-width: 0.8"/>
      </g>
     </g>
     <g id="text_12">
      <!-- 0.08 -->
      <g style="fill: #555555" transform="translate(15.61375 78.15692) scale(0.1 -0.1)">
       <use xlink:href="#DejaVuSans-30"/>
       <use xlink:href="#DejaVuSans-2e" x="63.623047"/>
       <use xlink:href="#DejaVuSans-30" x="95.410156"/>
       <use xlink:href="#DejaVuSans-38" x="159.033203"/>
      </g>
     </g>
    </g>
    <g id="ytick_6">
     <g id="line2d_23">
      <path d="M 44.879375 52.123934 
L 435.479375 52.123934 
" clip-path="url(#p4dd966fda4)" style="fill: none; stroke: #ffffff; stroke-width: 0.8; stroke-linecap: square"/>
     </g>
     <g id="line2d_24">
      <g>
       <use xlink:href="#m45760daba5" x="44.879375" y="52.123934" style="fill: #555555; stroke: #555555; stroke-width: 0.8"/>
      </g>
     </g>
     <g id="text_13">
      <!-- 0.10 -->
      <g style="fill: #555555" transform="translate(15.61375 55.923153) scale(0.1 -0.1)">
       <use xlink:href="#DejaVuSans-30"/>
       <use xlink:href="#DejaVuSans-2e" x="63.623047"/>
       <use xlink:href="#DejaVuSans-31" x="95.410156"/>
       <use xlink:href="#DejaVuSans-30" x="159.033203"/>
      </g>
     </g>
    </g>
    <g id="ytick_7">
     <g id="line2d_25">
      <path d="M 44.879375 29.890167 
L 435.479375 29.890167 
" clip-path="url(#p4dd966fda4)" style="fill: none; stroke: #ffffff; stroke-width: 0.8; stroke-linecap: square"/>
     </g>
     <g id="line2d_26">
      <g>
       <use xlink:href="#m45760daba5" x="44.879375" y="29.890167" style="fill: #555555; stroke: #555555; stroke-width: 0.8"/>
      </g>
     </g>
     <g id="text_14">
      <!-- 0.12 -->
      <g style="fill: #555555" transform="translate(15.61375 33.689386) scale(0.1 -0.1)">
       <use xlink:href="#DejaVuSans-30"/>
       <use xlink:href="#DejaVuSans-2e" x="63.623047"/>
       <use xlink:href="#DejaVuSans-31" x="95.410156"/>
       <use xlink:href="#DejaVuSans-32" x="159.033203"/>
      </g>
     </g>
    </g>
    <g id="ytick_8">
     <g id="line2d_27">
      <path d="M 44.879375 7.6564 
L 435.479375 7.6564 
" clip-path="url(#p4dd966fda4)" style="fill: none; stroke: #ffffff; stroke-width: 0.8; stroke-linecap: square"/>
     </g>
     <g id="line2d_28">
      <g>
       <use xlink:href="#m45760daba5" x="44.879375" y="7.6564" style="fill: #555555; stroke: #555555; stroke-width: 0.8"/>
      </g>
     </g>
     <g id="text_15">
      <!-- 0.14 -->
      <g style="fill: #555555" transform="translate(15.61375 11.455619) scale(0.1 -0.1)">
       <use xlink:href="#DejaVuSans-30"/>
       <use xlink:href="#DejaVuSans-2e" x="63.623047"/>
       <use xlink:href="#DejaVuSans-31" x="95.410156"/>
       <use xlink:href="#DejaVuSans-34" x="159.033203"/>
      </g>
     </g>
    </g>
    <g id="text_16">
     <!-- Value -->
     <g style="fill: #555555" transform="translate(9.118125 99.6375) rotate(-90) scale(0.12 -0.12)">
      <defs>
       <path id="DejaVuSans-56" d="M 1831 0 
L 50 4666 
L 709 4666 
L 2188 738 
L 3669 4666 
L 4325 4666 
L 2547 0 
L 1831 0 
z
" transform="scale(0.015625)"/>
       <path id="DejaVuSans-6c" d="M 603 4863 
L 1178 4863 
L 1178 0 
L 603 0 
L 603 4863 
z
" transform="scale(0.015625)"/>
       <path id="DejaVuSans-75" d="M 544 1381 
L 544 3500 
L 1119 3500 
L 1119 1403 
Q 1119 906 1312 657 
Q 1506 409 1894 409 
Q 2359 409 2629 706 
Q 2900 1003 2900 1516 
L 2900 3500 
L 3475 3500 
L 3475 0 
L 2900 0 
L 2900 538 
Q 2691 219 2414 64 
Q 2138 -91 1772 -91 
Q 1169 -91 856 284 
Q 544 659 544 1381 
z
M 1991 3584 
L 1991 3584 
z
" transform="scale(0.015625)"/>
      </defs>
      <use xlink:href="#DejaVuSans-56"/>
      <use xlink:href="#DejaVuSans-61" x="60.658203"/>
      <use xlink:href="#DejaVuSans-6c" x="121.9375"/>
      <use xlink:href="#DejaVuSans-75" x="149.720703"/>
      <use xlink:href="#DejaVuSans-65" x="213.099609"/>
     </g>
    </g>
   </g>
   <g id="PolyCollection_1">
    <defs>
     <path id="m2703150fca" d="M 62.63392 -56.466518 
L 62.63392 -69.308127 
L 64.031916 -69.439709 
L 65.429912 -68.525218 
L 66.827908 -68.184647 
L 68.225903 -67.473576 
L 69.623899 -66.773796 
L 71.021895 -68.484192 
L 72.41989 -68.976543 
L 73.817886 -69.606872 
L 75.215882 -69.443519 
L 76.613878 -70.471965 
L 78.011873 -69.823047 
L 79.409869 -68.778442 
L 80.807865 -69.624957 
L 82.20586 -68.205972 
L 83.603856 -66.4577 
L 85.001852 -76.829696 
L 86.399847 -78.369342 
L 87.797843 -76.433641 
L 89.195839 -76.71478 
L 90.593835 -81.244612 
L 91.99183 -85.940394 
L 93.389826 -86.243447 
L 94.787822 -92.96314 
L 96.185817 -94.954081 
L 97.583813 -105.937805 
L 98.981809 -106.230985 
L 100.379804 -96.023319 
L 101.7778 -89.013561 
L 103.175796 -94.148518 
L 104.573792 -88.448665 
L 105.971787 -87.98664 
L 107.369783 -66.045599 
L 108.767779 -68.117469 
L 110.165774 -70.974116 
L 111.56377 -67.877025 
L 112.961766 -70.662375 
L 114.359762 -68.441793 
L 115.757757 -65.457558 
L 117.155753 -67.470312 
L 118.553749 -69.823641 
L 119.951744 -68.085302 
L 121.34974 -69.492906 
L 122.747736 -69.032588 
L 124.145731 -67.441998 
L 125.543727 -71.008037 
L 126.941723 -71.334295 
L 128.339719 -67.937171 
L 129.737714 -70.808095 
L 131.13571 -71.854213 
L 132.533706 -70.365771 
L 133.931701 -70.526726 
L 135.329697 -73.051211 
L 136.727693 -68.806781 
L 138.125689 -70.544715 
L 139.523684 -71.990561 
L 140.92168 -73.797115 
L 142.319676 -71.044969 
L 143.717671 -72.790375 
L 145.115667 -73.426034 
L 146.513663 -72.929118 
L 147.911658 -73.712784 
L 149.309654 -76.130199 
L 150.70765 -74.902187 
L 152.105646 -76.102097 
L 153.503641 -77.179869 
L 154.901637 -76.49267 
L 156.299633 -77.606661 
L 157.697628 -79.053664 
L 159.095624 -81.769769 
L 160.49362 -80.728681 
L 161.891616 -82.612574 
L 163.289611 -81.04536 
L 164.687607 -80.938097 
L 166.085603 -79.530682 
L 167.483598 -79.33672 
L 168.881594 -79.530331 
L 170.27959 -52.417037 
L 171.677585 -51.606609 
L 173.075581 -51.578134 
L 174.473577 -50.217518 
L 175.871573 -50.155277 
L 177.269568 -49.987002 
L 178.667564 -51.150918 
L 180.06556 -80.41593 
L 181.463555 -83.96637 
L 182.861551 -82.404831 
L 184.259547 -87.217019 
L 185.657543 -85.962846 
L 187.055538 -86.487941 
L 188.453534 -85.574589 
L 189.85153 -85.755022 
L 191.249525 -86.096481 
L 192.647521 -87.760757 
L 194.045517 -87.812016 
L 195.443512 -86.667631 
L 196.841508 -85.27566 
L 198.239504 -85.926025 
L 199.6375 -85.632288 
L 201.035495 -54.167406 
L 202.433491 -87.90281 
L 203.831487 -86.382251 
L 205.229482 -52.621329 
L 206.627478 -51.65781 
L 208.025474 -51.262007 
L 209.423469 -50.851018 
L 210.821465 -51.31923 
L 212.219461 -50.998844 
L 213.617457 -51.348799 
L 215.015452 -50.466199 
L 216.413448 -50.591214 
L 217.811444 -51.13 
L 219.209439 -51.336083 
L 220.607435 -51.458506 
L 222.005431 -51.55354 
L 223.403427 -51.832491 
L 224.801422 -52.187243 
L 226.199418 -52.740666 
L 227.597414 -52.852081 
L 228.995409 -54.014506 
L 230.393405 -53.237708 
L 231.791401 -53.107375 
L 233.189396 -53.68101 
L 234.587392 -85.487939 
L 235.985388 -84.991296 
L 237.383384 -87.546031 
L 238.781379 -87.198931 
L 240.179375 -53.515592 
L 241.577371 -53.500843 
L 242.975366 -53.996658 
L 244.373362 -86.944264 
L 245.771358 -87.955644 
L 247.169354 -88.129397 
L 248.567349 -88.870371 
L 249.965345 -88.641453 
L 251.363341 -85.618246 
L 252.761336 -85.30301 
L 254.159332 -53.266846 
L 255.557328 -84.853942 
L 256.955323 -84.576171 
L 258.353319 -85.366367 
L 259.751315 -85.785993 
L 261.149311 -85.839767 
L 262.547306 -85.113789 
L 263.945302 -54.596572 
L 265.343298 -52.810377 
L 266.741293 -86.183271 
L 268.139289 -86.680902 
L 269.537285 -86.258478 
L 270.935281 -87.614863 
L 272.333276 -92.937249 
L 273.731272 -96.255763 
L 275.129268 -95.792788 
L 276.527263 -95.0234 
L 277.925259 -96.247908 
L 279.323255 -96.789226 
L 280.72125 -98.540151 
L 282.119246 -137.142467 
L 283.517242 -184.531137 
L 284.915238 -191.051875 
L 286.313233 -139.772878 
L 287.711229 -135.942516 
L 289.109225 -131.699102 
L 290.50722 -134.726824 
L 291.905216 -101.774685 
L 293.303212 -96.652091 
L 294.701207 -97.210494 
L 296.099203 -96.581403 
L 297.497199 -97.246115 
L 298.895195 -97.695691 
L 300.29319 -94.417744 
L 301.691186 -91.56648 
L 303.089182 -90.412397 
L 304.487177 -88.485605 
L 305.885173 -85.161593 
L 307.283169 -84.116606 
L 308.681165 -83.648514 
L 310.07916 -86.439026 
L 311.477156 -51.560964 
L 312.875152 -51.814158 
L 314.273147 -52.014859 
L 315.671143 -81.092881 
L 317.069139 -52.820287 
L 318.467134 -52.509672 
L 319.86513 -52.203063 
L 321.263126 -52.645072 
L 322.661122 -81.459652 
L 324.059117 -54.419595 
L 325.457113 -82.440027 
L 326.855109 -81.432293 
L 328.253104 -81.969998 
L 329.6511 -83.203535 
L 331.049096 -103.974571 
L 332.447092 -85.353185 
L 333.845087 -86.066439 
L 335.243083 -85.517195 
L 336.641079 -86.04952 
L 338.039074 -83.999205 
L 339.43707 -103.557097 
L 340.835066 -87.590363 
L 342.233061 -83.721503 
L 343.631057 -82.583535 
L 345.029053 -82.56515 
L 346.427049 -84.410536 
L 347.825044 -54.087463 
L 349.22304 -80.76673 
L 350.621036 -83.364304 
L 352.019031 -44.288272 
L 353.417027 -43.905777 
L 354.815023 -43.738729 
L 356.213019 -43.79921 
L 357.611014 -43.549303 
L 359.00901 -43.392863 
L 360.407006 -43.159231 
L 361.805001 -43.343493 
L 363.202997 -42.852772 
L 364.600993 -42.756699 
L 365.998988 -43.206331 
L 367.396984 -42.371519 
L 368.79498 -43.236289 
L 370.192976 -43.919643 
L 371.590971 -45.203439 
L 372.988967 -44.700599 
L 374.386963 -44.440644 
L 375.784958 -44.572121 
L 377.182954 -44.397914 
L 378.58095 -44.361184 
L 379.978946 -49.546224 
L 381.376941 -49.726625 
L 382.774937 -49.912909 
L 384.172933 -50.164636 
L 385.570928 -50.263814 
L 386.968924 -55.419271 
L 388.36692 -54.784538 
L 389.764915 -90.166491 
L 391.162911 -88.948295 
L 392.560907 -89.53339 
L 393.958903 -91.459717 
L 395.356898 -91.71238 
L 396.754894 -94.613938 
L 398.15289 -96.735345 
L 399.550885 -97.463984 
L 400.948881 -104.222996 
L 402.346877 -105.297354 
L 403.744872 -105.238641 
L 405.142868 -101.834567 
L 406.540864 -105.525257 
L 407.93886 -117.663103 
L 409.336855 -114.381885 
L 410.734851 -164.822921 
L 412.132847 -171.566788 
L 413.530842 -167.551407 
L 414.928838 -117.309767 
L 416.326834 -119.511802 
L 417.72483 -118.069494 
L 417.72483 -94.866191 
L 417.72483 -94.866191 
L 416.326834 -95.582948 
L 414.928838 -95.649726 
L 413.530842 -141.82641 
L 412.132847 -146.531148 
L 410.734851 -138.300679 
L 409.336855 -91.202359 
L 407.93886 -96.713268 
L 406.540864 -82.608189 
L 405.142868 -79.844878 
L 403.744872 -84.003721 
L 402.346877 -82.546422 
L 400.948881 -80.960673 
L 399.550885 -72.305214 
L 398.15289 -74.258422 
L 396.754894 -71.979798 
L 395.356898 -67.254825 
L 393.958903 -68.563205 
L 392.560907 -66.316942 
L 391.162911 -65.142756 
L 389.764915 -65.592731 
L 388.36692 -51.354559 
L 386.968924 -52.079276 
L 385.570928 -46.973434 
L 384.172933 -46.950366 
L 382.774937 -46.922177 
L 381.376941 -46.327318 
L 379.978946 -46.274727 
L 378.58095 -41.63886 
L 377.182954 -41.715141 
L 375.784958 -41.829757 
L 374.386963 -41.844197 
L 372.988967 -41.931149 
L 371.590971 -42.209338 
L 370.192976 -40.98331 
L 368.79498 -40.370042 
L 367.396984 -39.851875 
L 365.998988 -40.322825 
L 364.600993 -40.223745 
L 363.202997 -40.42761 
L 361.805001 -40.838418 
L 360.407006 -40.522349 
L 359.00901 -40.522156 
L 357.611014 -41.012539 
L 356.213019 -41.173743 
L 354.815023 -40.986908 
L 353.417027 -41.196515 
L 352.019031 -41.526727 
L 350.621036 -63.014474 
L 349.22304 -61.289896 
L 347.825044 -49.983897 
L 346.427049 -67.158726 
L 345.029053 -66.404975 
L 343.631057 -65.774765 
L 342.233061 -68.117722 
L 340.835066 -73.526178 
L 339.43707 -88.52667 
L 338.039074 -71.406664 
L 336.641079 -71.910453 
L 335.243083 -71.969176 
L 333.845087 -70.622632 
L 332.447092 -70.677643 
L 331.049096 -88.842893 
L 329.6511 -64.804712 
L 328.253104 -64.44109 
L 326.855109 -63.678015 
L 325.457113 -62.030741 
L 324.059117 -49.847305 
L 322.661122 -62.027277 
L 321.263126 -49.219498 
L 319.86513 -48.432486 
L 318.467134 -48.574759 
L 317.069139 -49.00779 
L 315.671143 -59.86887 
L 314.273147 -48.674244 
L 312.875152 -48.489927 
L 311.477156 -48.331907 
L 310.07916 -67.223737 
L 308.681165 -62.616258 
L 307.283169 -62.064876 
L 305.885173 -63.112507 
L 304.487177 -67.829754 
L 303.089182 -67.71761 
L 301.691186 -69.950207 
L 300.29319 -75.748668 
L 298.895195 -79.608004 
L 297.497199 -77.557356 
L 296.099203 -77.990554 
L 294.701207 -79.824779 
L 293.303212 -79.606353 
L 291.905216 -81.931129 
L 290.50722 -114.222838 
L 289.109225 -112.28782 
L 287.711229 -116.673482 
L 286.313233 -120.843571 
L 284.915238 -156.662226 
L 283.517242 -151.336698 
L 282.119246 -117.200891 
L 280.72125 -80.873292 
L 279.323255 -79.472465 
L 277.925259 -75.672362 
L 276.527263 -73.679048 
L 275.129268 -73.653162 
L 273.731272 -78.010214 
L 272.333276 -72.815725 
L 270.935281 -65.395378 
L 269.537285 -65.424804 
L 268.139289 -63.98028 
L 266.741293 -64.848494 
L 265.343298 -49.408103 
L 263.945302 -50.874983 
L 262.547306 -61.393794 
L 261.149311 -63.114779 
L 259.751315 -63.01587 
L 258.353319 -61.773315 
L 256.955323 -61.074626 
L 255.557328 -61.350984 
L 254.159332 -49.343699 
L 252.761336 -62.136363 
L 251.363341 -63.04889 
L 249.965345 -64.329186 
L 248.567349 -64.707932 
L 247.169354 -64.472964 
L 245.771358 -64.397676 
L 244.373362 -64.636044 
L 242.975366 -50.832969 
L 241.577371 -50.273734 
L 240.179375 -50.499227 
L 238.781379 -63.094866 
L 237.383384 -62.310309 
L 235.985388 -61.655351 
L 234.587392 -62.714738 
L 233.189396 -50.134751 
L 231.791401 -49.783228 
L 230.393405 -49.786964 
L 228.995409 -50.416963 
L 227.597414 -49.417349 
L 226.199418 -49.192987 
L 224.801422 -48.659431 
L 223.403427 -48.494764 
L 222.005431 -48.141894 
L 220.607435 -48.546992 
L 219.209439 -48.260354 
L 217.811444 -48.158553 
L 216.413448 -47.425969 
L 215.015452 -47.161266 
L 213.617457 -47.862371 
L 212.219461 -47.771052 
L 210.821465 -47.905648 
L 209.423469 -47.402951 
L 208.025474 -47.965929 
L 206.627478 -48.752277 
L 205.229482 -49.138618 
L 203.831487 -63.377844 
L 202.433491 -63.011068 
L 201.035495 -50.587937 
L 199.6375 -60.607125 
L 198.239504 -63.104552 
L 196.841508 -62.757458 
L 195.443512 -63.282437 
L 194.045517 -63.331118 
L 192.647521 -64.25069 
L 191.249525 -63.437876 
L 189.85153 -60.833004 
L 188.453534 -62.880531 
L 187.055538 -65.730933 
L 185.657543 -63.858878 
L 184.259547 -64.069698 
L 182.861551 -60.30701 
L 181.463555 -61.455232 
L 180.06556 -58.80295 
L 178.667564 -47.713075 
L 177.269568 -46.937125 
L 175.871573 -46.858047 
L 174.473577 -46.980373 
L 173.075581 -48.088898 
L 171.677585 -48.223425 
L 170.27959 -48.492817 
L 168.881594 -59.67847 
L 167.483598 -59.255938 
L 166.085603 -58.907234 
L 164.687607 -60.065456 
L 163.289611 -59.901441 
L 161.891616 -60.595601 
L 160.49362 -61.64643 
L 159.095624 -61.029132 
L 157.697628 -61.652238 
L 156.299633 -61.431168 
L 154.901637 -61.460492 
L 153.503641 -59.914569 
L 152.105646 -60.368704 
L 150.70765 -58.579721 
L 149.309654 -59.323602 
L 147.911658 -55.25876 
L 146.513663 -57.066929 
L 145.115667 -55.059662 
L 143.717671 -55.126055 
L 142.319676 -54.159918 
L 140.92168 -55.96983 
L 139.523684 -56.397238 
L 138.125689 -55.948431 
L 136.727693 -54.350173 
L 135.329697 -56.596352 
L 133.931701 -55.47118 
L 132.533706 -55.756068 
L 131.13571 -55.495796 
L 129.737714 -56.345581 
L 128.339719 -54.594267 
L 126.941723 -56.106828 
L 125.543727 -55.018607 
L 124.145731 -55.885028 
L 122.747736 -56.466951 
L 121.34974 -56.765664 
L 119.951744 -55.59521 
L 118.553749 -56.712512 
L 117.155753 -56.688918 
L 115.757757 -57.111088 
L 114.359762 -56.774186 
L 112.961766 -58.99039 
L 111.56377 -56.847194 
L 110.165774 -58.927082 
L 108.767779 -56.459205 
L 107.369783 -57.00458 
L 105.971787 -75.580985 
L 104.573792 -76.477568 
L 103.175796 -80.139197 
L 101.7778 -75.945372 
L 100.379804 -80.050596 
L 98.981809 -90.124937 
L 97.583813 -88.460233 
L 96.185817 -80.759144 
L 94.787822 -79.373988 
L 93.389826 -74.929612 
L 91.99183 -74.207861 
L 90.593835 -69.92568 
L 89.195839 -63.748349 
L 87.797843 -63.82698 
L 86.399847 -65.505558 
L 85.001852 -65.752449 
L 83.603856 -56.339245 
L 82.20586 -57.105429 
L 80.807865 -56.500015 
L 79.409869 -56.576838 
L 78.011873 -55.410094 
L 76.613878 -56.018824 
L 75.215882 -56.906823 
L 73.817886 -57.137771 
L 72.41989 -56.603145 
L 71.021895 -55.006244 
L 69.623899 -56.944971 
L 68.225903 -56.095142 
L 66.827908 -56.350223 
L 65.429912 -56.720604 
L 64.031916 -56.454458 
L 62.63392 -56.466518 
z
" style="stroke: #ffb612; stroke-opacity: 0.5; stroke-width: 0.5"/>
    </defs>
    <g clip-path="url(#p4dd966fda4)">
     <use xlink:href="#m2703150fca" x="0" y="198.611875" style="fill: #ffb612; fill-opacity: 0.5; stroke: #ffb612; stroke-opacity: 0.5; stroke-width: 0.5"/>
    </g>
   </g>
   <g id="line2d_29">
    <path d="M 62.63392 135.724553 
L 64.031916 135.664791 
L 66.827908 136.34444 
L 68.225903 136.827516 
L 69.623899 136.752492 
L 71.021895 136.866657 
L 72.41989 135.822031 
L 73.817886 135.239553 
L 75.215882 135.436704 
L 76.613878 135.36648 
L 78.011873 135.995305 
L 79.409869 135.934235 
L 80.807865 135.549389 
L 82.20586 135.956175 
L 83.603856 137.213402 
L 85.001852 127.320803 
L 86.399847 126.674425 
L 87.797843 128.481565 
L 89.195839 128.38031 
L 90.593835 123.026729 
L 91.99183 118.537747 
L 93.389826 118.025345 
L 94.787822 112.443311 
L 96.185817 110.755262 
L 97.583813 101.412856 
L 98.981809 100.433914 
L 100.379804 110.574917 
L 101.7778 116.132409 
L 103.175796 111.468017 
L 104.573792 116.148759 
L 105.971787 116.828062 
L 107.369783 137.086785 
L 108.767779 136.323538 
L 110.165774 133.661276 
L 111.56377 136.249766 
L 112.961766 133.785493 
L 114.359762 136.003885 
L 115.757757 137.327552 
L 117.155753 136.53226 
L 118.553749 135.343798 
L 119.951744 136.771619 
L 121.34974 135.48259 
L 122.747736 135.862105 
L 124.145731 136.948362 
L 125.543727 135.598553 
L 126.941723 134.891314 
L 128.339719 137.346156 
L 129.737714 135.035037 
L 131.13571 134.936871 
L 132.533706 135.550955 
L 133.931701 135.612922 
L 135.329697 133.788093 
L 136.727693 137.033398 
L 138.125689 135.365302 
L 139.523684 134.417976 
L 140.92168 133.728403 
L 142.319676 136.009432 
L 143.717671 134.65366 
L 145.115667 134.369027 
L 146.513663 133.613852 
L 147.911658 134.126103 
L 149.309654 130.884974 
L 150.70765 131.870921 
L 152.105646 130.376474 
L 153.503641 130.064656 
L 156.299633 129.09296 
L 157.697628 128.258924 
L 159.095624 127.212425 
L 160.49362 127.42432 
L 161.891616 127.007787 
L 163.289611 128.138474 
L 164.687607 128.110098 
L 166.085603 129.392917 
L 167.483598 129.315546 
L 168.881594 129.007474 
L 170.27959 148.156948 
L 171.677585 148.696858 
L 173.075581 148.778359 
L 174.473577 150.012929 
L 177.269568 150.149811 
L 178.667564 149.179878 
L 180.06556 129.002435 
L 181.463555 125.901074 
L 182.861551 127.255954 
L 184.259547 122.968517 
L 185.657543 123.701013 
L 187.055538 122.502438 
L 188.453534 124.384315 
L 189.85153 125.317862 
L 191.249525 123.844697 
L 192.647521 122.606152 
L 194.045517 123.040308 
L 195.443512 123.636841 
L 196.841508 124.595316 
L 198.239504 124.096586 
L 199.6375 125.492169 
L 201.035495 146.234204 
L 202.433491 123.154936 
L 203.831487 123.731828 
L 205.229482 147.731902 
L 208.025474 148.997907 
L 209.423469 149.484891 
L 210.821465 148.999436 
L 212.219461 149.226927 
L 213.617457 149.00629 
L 215.015452 149.798143 
L 216.413448 149.603283 
L 217.811444 148.967598 
L 220.607435 148.609126 
L 222.005431 148.764158 
L 224.801422 148.188538 
L 226.199418 147.645048 
L 227.597414 147.47716 
L 228.995409 146.39614 
L 230.393405 147.099539 
L 231.791401 147.166574 
L 233.189396 146.703994 
L 234.587392 124.510537 
L 235.985388 125.288551 
L 237.383384 123.683705 
L 238.781379 123.464977 
L 240.179375 146.604466 
L 241.577371 146.724586 
L 242.975366 146.197061 
L 244.373362 122.821721 
L 245.771358 122.435215 
L 247.169354 122.310695 
L 248.567349 121.822723 
L 249.965345 122.126556 
L 251.363341 124.278307 
L 252.761336 124.892189 
L 254.159332 147.306602 
L 255.557328 125.509412 
L 256.955323 125.786476 
L 259.751315 124.210944 
L 261.149311 124.134602 
L 262.547306 125.358084 
L 263.945302 145.876098 
L 265.343298 147.502635 
L 266.741293 123.095992 
L 268.139289 123.281284 
L 269.537285 122.770234 
L 270.935281 122.106754 
L 272.333276 115.735388 
L 273.731272 111.478886 
L 275.129268 113.8889 
L 276.527263 114.260651 
L 277.925259 112.65174 
L 279.323255 110.48103 
L 280.72125 108.905153 
L 282.119246 71.440196 
L 283.517242 30.677958 
L 284.915238 24.754824 
L 286.313233 68.303651 
L 289.109225 76.618414 
L 290.50722 74.137044 
L 291.905216 106.758968 
L 293.303212 110.482653 
L 294.701207 110.094239 
L 296.099203 111.325897 
L 297.497199 111.21014 
L 298.895195 109.960027 
L 300.29319 113.528669 
L 301.691186 117.853531 
L 303.089182 119.546872 
L 304.487177 120.454196 
L 305.885173 124.474825 
L 307.283169 125.521134 
L 308.681165 125.479489 
L 310.07916 121.780494 
L 311.477156 148.665439 
L 314.273147 148.267323 
L 315.671143 128.130999 
L 317.069139 147.697836 
L 318.467134 148.069659 
L 319.86513 148.294101 
L 321.263126 147.67959 
L 322.661122 126.86841 
L 324.059117 146.478425 
L 325.457113 126.376491 
L 326.855109 126.056721 
L 328.253104 125.406331 
L 329.6511 124.607752 
L 331.049096 102.203143 
L 332.447092 120.596461 
L 336.641079 119.631888 
L 338.039074 120.908941 
L 339.43707 102.569991 
L 340.835066 118.053604 
L 342.233061 122.692262 
L 343.631057 124.432725 
L 345.029053 124.126813 
L 346.427049 122.827244 
L 347.825044 146.576195 
L 349.22304 127.583562 
L 350.621036 125.422486 
L 352.019031 155.704376 
L 353.417027 156.060729 
L 354.815023 156.249057 
L 356.213019 156.125398 
L 357.611014 156.330954 
L 359.00901 156.654365 
L 360.407006 156.771085 
L 361.805001 156.52092 
L 363.202997 156.971684 
L 364.600993 157.121653 
L 365.998988 156.847297 
L 367.396984 157.500178 
L 370.192976 156.160398 
L 371.590971 154.905487 
L 372.988967 155.296001 
L 374.386963 155.469454 
L 375.784958 155.410936 
L 378.58095 155.611853 
L 379.978946 150.701399 
L 381.376941 150.584903 
L 382.774937 150.194332 
L 385.570928 149.993251 
L 386.968924 144.862601 
L 388.36692 145.542326 
L 389.764915 120.732264 
L 391.162911 121.56635 
L 392.560907 120.686709 
L 393.958903 118.600414 
L 395.356898 119.128273 
L 396.754894 115.315007 
L 398.15289 113.114992 
L 399.550885 113.727276 
L 400.948881 106.020041 
L 402.346877 104.689987 
L 403.744872 103.990694 
L 405.142868 107.772152 
L 406.540864 104.545152 
L 407.93886 91.42369 
L 409.336855 95.819753 
L 410.734851 47.050075 
L 412.132847 39.562907 
L 413.530842 43.922966 
L 414.928838 92.132128 
L 416.326834 91.0645 
L 417.72483 92.144033 
L 417.72483 92.144033 
" clip-path="url(#p4dd966fda4)" style="fill: none; stroke: #ffb612; stroke-width: 3; stroke-linecap: square"/>
    <defs>
     <path id="m972961ddf2" d="M 0 1.5 
C 0.397805 1.5 0.77937 1.341951 1.06066 1.06066 
C 1.341951 0.77937 1.5 0.397805 1.5 0 
C 1.5 -0.397805 1.341951 -0.77937 1.06066 -1.06066 
C 0.77937 -1.341951 0.397805 -1.5 0 -1.5 
C -0.397805 -1.5 -0.77937 -1.341951 -1.06066 -1.06066 
C -1.341951 -0.77937 -1.5 -0.397805 -1.5 0 
C -1.5 0.397805 -1.341951 0.77937 -1.06066 1.06066 
C -0.77937 1.341951 -0.397805 1.5 0 1.5 
z
" style="stroke: #ffb612"/>
    </defs>
    <g clip-path="url(#p4dd966fda4)">
     <use xlink:href="#m972961ddf2" x="62.63392" y="135.724553" style="fill: #ffb612; stroke: #ffb612"/>
     <use xlink:href="#m972961ddf2" x="64.031916" y="135.664791" style="fill: #ffb612; stroke: #ffb612"/>
     <use xlink:href="#m972961ddf2" x="65.429912" y="135.988964" style="fill: #ffb612; stroke: #ffb612"/>
     <use xlink:href="#m972961ddf2" x="66.827908" y="136.34444" style="fill: #ffb612; stroke: #ffb612"/>
     <use xlink:href="#m972961ddf2" x="68.225903" y="136.827516" style="fill: #ffb612; stroke: #ffb612"/>
     <use xlink:href="#m972961ddf2" x="69.623899" y="136.752492" style="fill: #ffb612; stroke: #ffb612"/>
     <use xlink:href="#m972961ddf2" x="71.021895" y="136.866657" style="fill: #ffb612; stroke: #ffb612"/>
     <use xlink:href="#m972961ddf2" x="72.41989" y="135.822031" style="fill: #ffb612; stroke: #ffb612"/>
     <use xlink:href="#m972961ddf2" x="73.817886" y="135.239553" style="fill: #ffb612; stroke: #ffb612"/>
     <use xlink:href="#m972961ddf2" x="75.215882" y="135.436704" style="fill: #ffb612; stroke: #ffb612"/>
     <use xlink:href="#m972961ddf2" x="76.613878" y="135.36648" style="fill: #ffb612; stroke: #ffb612"/>
     <use xlink:href="#m972961ddf2" x="78.011873" y="135.995305" style="fill: #ffb612; stroke: #ffb612"/>
     <use xlink:href="#m972961ddf2" x="79.409869" y="135.934235" style="fill: #ffb612; stroke: #ffb612"/>
     <use xlink:href="#m972961ddf2" x="80.807865" y="135.549389" style="fill: #ffb612; stroke: #ffb612"/>
     <use xlink:href="#m972961ddf2" x="82.20586" y="135.956175" style="fill: #ffb612; stroke: #ffb612"/>
     <use xlink:href="#m972961ddf2" x="83.603856" y="137.213402" style="fill: #ffb612; stroke: #ffb612"/>
     <use xlink:href="#m972961ddf2" x="85.001852" y="127.320803" style="fill: #ffb612; stroke: #ffb612"/>
     <use xlink:href="#m972961ddf2" x="86.399847" y="126.674425" style="fill: #ffb612; stroke: #ffb612"/>
     <use xlink:href="#m972961ddf2" x="87.797843" y="128.481565" style="fill: #ffb612; stroke: #ffb612"/>
     <use xlink:href="#m972961ddf2" x="89.195839" y="128.38031" style="fill: #ffb612; stroke: #ffb612"/>
     <use xlink:href="#m972961ddf2" x="90.593835" y="123.026729" style="fill: #ffb612; stroke: #ffb612"/>
     <use xlink:href="#m972961ddf2" x="91.99183" y="118.537747" style="fill: #ffb612; stroke: #ffb612"/>
     <use xlink:href="#m972961ddf2" x="93.389826" y="118.025345" style="fill: #ffb612; stroke: #ffb612"/>
     <use xlink:href="#m972961ddf2" x="94.787822" y="112.443311" style="fill: #ffb612; stroke: #ffb612"/>
     <use xlink:href="#m972961ddf2" x="96.185817" y="110.755262" style="fill: #ffb612; stroke: #ffb612"/>
     <use xlink:href="#m972961ddf2" x="97.583813" y="101.412856" style="fill: #ffb612; stroke: #ffb612"/>
     <use xlink:href="#m972961ddf2" x="98.981809" y="100.433914" style="fill: #ffb612; stroke: #ffb612"/>
     <use xlink:href="#m972961ddf2" x="100.379804" y="110.574917" style="fill: #ffb612; stroke: #ffb612"/>
     <use xlink:href="#m972961ddf2" x="101.7778" y="116.132409" style="fill: #ffb612; stroke: #ffb612"/>
     <use xlink:href="#m972961ddf2" x="103.175796" y="111.468017" style="fill: #ffb612; stroke: #ffb612"/>
     <use xlink:href="#m972961ddf2" x="104.573792" y="116.148759" style="fill: #ffb612; stroke: #ffb612"/>
     <use xlink:href="#m972961ddf2" x="105.971787" y="116.828062" style="fill: #ffb612; stroke: #ffb612"/>
     <use xlink:href="#m972961ddf2" x="107.369783" y="137.086785" style="fill: #ffb612; stroke: #ffb612"/>
     <use xlink:href="#m972961ddf2" x="108.767779" y="136.323538" style="fill: #ffb612; stroke: #ffb612"/>
     <use xlink:href="#m972961ddf2" x="110.165774" y="133.661276" style="fill: #ffb612; stroke: #ffb612"/>
     <use xlink:href="#m972961ddf2" x="111.56377" y="136.249766" style="fill: #ffb612; stroke: #ffb612"/>
     <use xlink:href="#m972961ddf2" x="112.961766" y="133.785493" style="fill: #ffb612; stroke: #ffb612"/>
     <use xlink:href="#m972961ddf2" x="114.359762" y="136.003885" style="fill: #ffb612; stroke: #ffb612"/>
     <use xlink:href="#m972961ddf2" x="115.757757" y="137.327552" style="fill: #ffb612; stroke: #ffb612"/>
     <use xlink:href="#m972961ddf2" x="117.155753" y="136.53226" style="fill: #ffb612; stroke: #ffb612"/>
     <use xlink:href="#m972961ddf2" x="118.553749" y="135.343798" style="fill: #ffb612; stroke: #ffb612"/>
     <use xlink:href="#m972961ddf2" x="119.951744" y="136.771619" style="fill: #ffb612; stroke: #ffb612"/>
     <use xlink:href="#m972961ddf2" x="121.34974" y="135.48259" style="fill: #ffb612; stroke: #ffb612"/>
     <use xlink:href="#m972961ddf2" x="122.747736" y="135.862105" style="fill: #ffb612; stroke: #ffb612"/>
     <use xlink:href="#m972961ddf2" x="124.145731" y="136.948362" style="fill: #ffb612; stroke: #ffb612"/>
     <use xlink:href="#m972961ddf2" x="125.543727" y="135.598553" style="fill: #ffb612; stroke: #ffb612"/>
     <use xlink:href="#m972961ddf2" x="126.941723" y="134.891314" style="fill: #ffb612; stroke: #ffb612"/>
     <use xlink:href="#m972961ddf2" x="128.339719" y="137.346156" style="fill: #ffb612; stroke: #ffb612"/>
     <use xlink:href="#m972961ddf2" x="129.737714" y="135.035037" style="fill: #ffb612; stroke: #ffb612"/>
     <use xlink:href="#m972961ddf2" x="131.13571" y="134.936871" style="fill: #ffb612; stroke: #ffb612"/>
     <use xlink:href="#m972961ddf2" x="132.533706" y="135.550955" style="fill: #ffb612; stroke: #ffb612"/>
     <use xlink:href="#m972961ddf2" x="133.931701" y="135.612922" style="fill: #ffb612; stroke: #ffb612"/>
     <use xlink:href="#m972961ddf2" x="135.329697" y="133.788093" style="fill: #ffb612; stroke: #ffb612"/>
     <use xlink:href="#m972961ddf2" x="136.727693" y="137.033398" style="fill: #ffb612; stroke: #ffb612"/>
     <use xlink:href="#m972961ddf2" x="138.125689" y="135.365302" style="fill: #ffb612; stroke: #ffb612"/>
     <use xlink:href="#m972961ddf2" x="139.523684" y="134.417976" style="fill: #ffb612; stroke: #ffb612"/>
     <use xlink:href="#m972961ddf2" x="140.92168" y="133.728403" style="fill: #ffb612; stroke: #ffb612"/>
     <use xlink:href="#m972961ddf2" x="142.319676" y="136.009432" style="fill: #ffb612; stroke: #ffb612"/>
     <use xlink:href="#m972961ddf2" x="143.717671" y="134.65366" style="fill: #ffb612; stroke: #ffb612"/>
     <use xlink:href="#m972961ddf2" x="145.115667" y="134.369027" style="fill: #ffb612; stroke: #ffb612"/>
     <use xlink:href="#m972961ddf2" x="146.513663" y="133.613852" style="fill: #ffb612; stroke: #ffb612"/>
     <use xlink:href="#m972961ddf2" x="147.911658" y="134.126103" style="fill: #ffb612; stroke: #ffb612"/>
     <use xlink:href="#m972961ddf2" x="149.309654" y="130.884974" style="fill: #ffb612; stroke: #ffb612"/>
     <use xlink:href="#m972961ddf2" x="150.70765" y="131.870921" style="fill: #ffb612; stroke: #ffb612"/>
     <use xlink:href="#m972961ddf2" x="152.105646" y="130.376474" style="fill: #ffb612; stroke: #ffb612"/>
     <use xlink:href="#m972961ddf2" x="153.503641" y="130.064656" style="fill: #ffb612; stroke: #ffb612"/>
     <use xlink:href="#m972961ddf2" x="154.901637" y="129.635294" style="fill: #ffb612; stroke: #ffb612"/>
     <use xlink:href="#m972961ddf2" x="156.299633" y="129.09296" style="fill: #ffb612; stroke: #ffb612"/>
     <use xlink:href="#m972961ddf2" x="157.697628" y="128.258924" style="fill: #ffb612; stroke: #ffb612"/>
     <use xlink:href="#m972961ddf2" x="159.095624" y="127.212425" style="fill: #ffb612; stroke: #ffb612"/>
     <use xlink:href="#m972961ddf2" x="160.49362" y="127.42432" style="fill: #ffb612; stroke: #ffb612"/>
     <use xlink:href="#m972961ddf2" x="161.891616" y="127.007787" style="fill: #ffb612; stroke: #ffb612"/>
     <use xlink:href="#m972961ddf2" x="163.289611" y="128.138474" style="fill: #ffb612; stroke: #ffb612"/>
     <use xlink:href="#m972961ddf2" x="164.687607" y="128.110098" style="fill: #ffb612; stroke: #ffb612"/>
     <use xlink:href="#m972961ddf2" x="166.085603" y="129.392917" style="fill: #ffb612; stroke: #ffb612"/>
     <use xlink:href="#m972961ddf2" x="167.483598" y="129.315546" style="fill: #ffb612; stroke: #ffb612"/>
     <use xlink:href="#m972961ddf2" x="168.881594" y="129.007474" style="fill: #ffb612; stroke: #ffb612"/>
     <use xlink:href="#m972961ddf2" x="170.27959" y="148.156948" style="fill: #ffb612; stroke: #ffb612"/>
     <use xlink:href="#m972961ddf2" x="171.677585" y="148.696858" style="fill: #ffb612; stroke: #ffb612"/>
     <use xlink:href="#m972961ddf2" x="173.075581" y="148.778359" style="fill: #ffb612; stroke: #ffb612"/>
     <use xlink:href="#m972961ddf2" x="174.473577" y="150.012929" style="fill: #ffb612; stroke: #ffb612"/>
     <use xlink:href="#m972961ddf2" x="175.871573" y="150.105213" style="fill: #ffb612; stroke: #ffb612"/>
     <use xlink:href="#m972961ddf2" x="177.269568" y="150.149811" style="fill: #ffb612; stroke: #ffb612"/>
     <use xlink:href="#m972961ddf2" x="178.667564" y="149.179878" style="fill: #ffb612; stroke: #ffb612"/>
     <use xlink:href="#m972961ddf2" x="180.06556" y="129.002435" style="fill: #ffb612; stroke: #ffb612"/>
     <use xlink:href="#m972961ddf2" x="181.463555" y="125.901074" style="fill: #ffb612; stroke: #ffb612"/>
     <use xlink:href="#m972961ddf2" x="182.861551" y="127.255954" style="fill: #ffb612; stroke: #ffb612"/>
     <use xlink:href="#m972961ddf2" x="184.259547" y="122.968517" style="fill: #ffb612; stroke: #ffb612"/>
     <use xlink:href="#m972961ddf2" x="185.657543" y="123.701013" style="fill: #ffb612; stroke: #ffb612"/>
     <use xlink:href="#m972961ddf2" x="187.055538" y="122.502438" style="fill: #ffb612; stroke: #ffb612"/>
     <use xlink:href="#m972961ddf2" x="188.453534" y="124.384315" style="fill: #ffb612; stroke: #ffb612"/>
     <use xlink:href="#m972961ddf2" x="189.85153" y="125.317862" style="fill: #ffb612; stroke: #ffb612"/>
     <use xlink:href="#m972961ddf2" x="191.249525" y="123.844697" style="fill: #ffb612; stroke: #ffb612"/>
     <use xlink:href="#m972961ddf2" x="192.647521" y="122.606152" style="fill: #ffb612; stroke: #ffb612"/>
     <use xlink:href="#m972961ddf2" x="194.045517" y="123.040308" style="fill: #ffb612; stroke: #ffb612"/>
     <use xlink:href="#m972961ddf2" x="195.443512" y="123.636841" style="fill: #ffb612; stroke: #ffb612"/>
     <use xlink:href="#m972961ddf2" x="196.841508" y="124.595316" style="fill: #ffb612; stroke: #ffb612"/>
     <use xlink:href="#m972961ddf2" x="198.239504" y="124.096586" style="fill: #ffb612; stroke: #ffb612"/>
     <use xlink:href="#m972961ddf2" x="199.6375" y="125.492169" style="fill: #ffb612; stroke: #ffb612"/>
     <use xlink:href="#m972961ddf2" x="201.035495" y="146.234204" style="fill: #ffb612; stroke: #ffb612"/>
     <use xlink:href="#m972961ddf2" x="202.433491" y="123.154936" style="fill: #ffb612; stroke: #ffb612"/>
     <use xlink:href="#m972961ddf2" x="203.831487" y="123.731828" style="fill: #ffb612; stroke: #ffb612"/>
     <use xlink:href="#m972961ddf2" x="205.229482" y="147.731902" style="fill: #ffb612; stroke: #ffb612"/>
     <use xlink:href="#m972961ddf2" x="206.627478" y="148.406832" style="fill: #ffb612; stroke: #ffb612"/>
     <use xlink:href="#m972961ddf2" x="208.025474" y="148.997907" style="fill: #ffb612; stroke: #ffb612"/>
     <use xlink:href="#m972961ddf2" x="209.423469" y="149.484891" style="fill: #ffb612; stroke: #ffb612"/>
     <use xlink:href="#m972961ddf2" x="210.821465" y="148.999436" style="fill: #ffb612; stroke: #ffb612"/>
     <use xlink:href="#m972961ddf2" x="212.219461" y="149.226927" style="fill: #ffb612; stroke: #ffb612"/>
     <use xlink:href="#m972961ddf2" x="213.617457" y="149.00629" style="fill: #ffb612; stroke: #ffb612"/>
     <use xlink:href="#m972961ddf2" x="215.015452" y="149.798143" style="fill: #ffb612; stroke: #ffb612"/>
     <use xlink:href="#m972961ddf2" x="216.413448" y="149.603283" style="fill: #ffb612; stroke: #ffb612"/>
     <use xlink:href="#m972961ddf2" x="217.811444" y="148.967598" style="fill: #ffb612; stroke: #ffb612"/>
     <use xlink:href="#m972961ddf2" x="219.209439" y="148.813656" style="fill: #ffb612; stroke: #ffb612"/>
     <use xlink:href="#m972961ddf2" x="220.607435" y="148.609126" style="fill: #ffb612; stroke: #ffb612"/>
     <use xlink:href="#m972961ddf2" x="222.005431" y="148.764158" style="fill: #ffb612; stroke: #ffb612"/>
     <use xlink:href="#m972961ddf2" x="223.403427" y="148.448247" style="fill: #ffb612; stroke: #ffb612"/>
     <use xlink:href="#m972961ddf2" x="224.801422" y="148.188538" style="fill: #ffb612; stroke: #ffb612"/>
     <use xlink:href="#m972961ddf2" x="226.199418" y="147.645048" style="fill: #ffb612; stroke: #ffb612"/>
     <use xlink:href="#m972961ddf2" x="227.597414" y="147.47716" style="fill: #ffb612; stroke: #ffb612"/>
     <use xlink:href="#m972961ddf2" x="228.995409" y="146.39614" style="fill: #ffb612; stroke: #ffb612"/>
     <use xlink:href="#m972961ddf2" x="230.393405" y="147.099539" style="fill: #ffb612; stroke: #ffb612"/>
     <use xlink:href="#m972961ddf2" x="231.791401" y="147.166574" style="fill: #ffb612; stroke: #ffb612"/>
     <use xlink:href="#m972961ddf2" x="233.189396" y="146.703994" style="fill: #ffb612; stroke: #ffb612"/>
     <use xlink:href="#m972961ddf2" x="234.587392" y="124.510537" style="fill: #ffb612; stroke: #ffb612"/>
     <use xlink:href="#m972961ddf2" x="235.985388" y="125.288551" style="fill: #ffb612; stroke: #ffb612"/>
     <use xlink:href="#m972961ddf2" x="237.383384" y="123.683705" style="fill: #ffb612; stroke: #ffb612"/>
     <use xlink:href="#m972961ddf2" x="238.781379" y="123.464977" style="fill: #ffb612; stroke: #ffb612"/>
     <use xlink:href="#m972961ddf2" x="240.179375" y="146.604466" style="fill: #ffb612; stroke: #ffb612"/>
     <use xlink:href="#m972961ddf2" x="241.577371" y="146.724586" style="fill: #ffb612; stroke: #ffb612"/>
     <use xlink:href="#m972961ddf2" x="242.975366" y="146.197061" style="fill: #ffb612; stroke: #ffb612"/>
     <use xlink:href="#m972961ddf2" x="244.373362" y="122.821721" style="fill: #ffb612; stroke: #ffb612"/>
     <use xlink:href="#m972961ddf2" x="245.771358" y="122.435215" style="fill: #ffb612; stroke: #ffb612"/>
     <use xlink:href="#m972961ddf2" x="247.169354" y="122.310695" style="fill: #ffb612; stroke: #ffb612"/>
     <use xlink:href="#m972961ddf2" x="248.567349" y="121.822723" style="fill: #ffb612; stroke: #ffb612"/>
     <use xlink:href="#m972961ddf2" x="249.965345" y="122.126556" style="fill: #ffb612; stroke: #ffb612"/>
     <use xlink:href="#m972961ddf2" x="251.363341" y="124.278307" style="fill: #ffb612; stroke: #ffb612"/>
     <use xlink:href="#m972961ddf2" x="252.761336" y="124.892189" style="fill: #ffb612; stroke: #ffb612"/>
     <use xlink:href="#m972961ddf2" x="254.159332" y="147.306602" style="fill: #ffb612; stroke: #ffb612"/>
     <use xlink:href="#m972961ddf2" x="255.557328" y="125.509412" style="fill: #ffb612; stroke: #ffb612"/>
     <use xlink:href="#m972961ddf2" x="256.955323" y="125.786476" style="fill: #ffb612; stroke: #ffb612"/>
     <use xlink:href="#m972961ddf2" x="258.353319" y="125.042034" style="fill: #ffb612; stroke: #ffb612"/>
     <use xlink:href="#m972961ddf2" x="259.751315" y="124.210944" style="fill: #ffb612; stroke: #ffb612"/>
     <use xlink:href="#m972961ddf2" x="261.149311" y="124.134602" style="fill: #ffb612; stroke: #ffb612"/>
     <use xlink:href="#m972961ddf2" x="262.547306" y="125.358084" style="fill: #ffb612; stroke: #ffb612"/>
     <use xlink:href="#m972961ddf2" x="263.945302" y="145.876098" style="fill: #ffb612; stroke: #ffb612"/>
     <use xlink:href="#m972961ddf2" x="265.343298" y="147.502635" style="fill: #ffb612; stroke: #ffb612"/>
     <use xlink:href="#m972961ddf2" x="266.741293" y="123.095992" style="fill: #ffb612; stroke: #ffb612"/>
     <use xlink:href="#m972961ddf2" x="268.139289" y="123.281284" style="fill: #ffb612; stroke: #ffb612"/>
     <use xlink:href="#m972961ddf2" x="269.537285" y="122.770234" style="fill: #ffb612; stroke: #ffb612"/>
     <use xlink:href="#m972961ddf2" x="270.935281" y="122.106754" style="fill: #ffb612; stroke: #ffb612"/>
     <use xlink:href="#m972961ddf2" x="272.333276" y="115.735388" style="fill: #ffb612; stroke: #ffb612"/>
     <use xlink:href="#m972961ddf2" x="273.731272" y="111.478886" style="fill: #ffb612; stroke: #ffb612"/>
     <use xlink:href="#m972961ddf2" x="275.129268" y="113.8889" style="fill: #ffb612; stroke: #ffb612"/>
     <use xlink:href="#m972961ddf2" x="276.527263" y="114.260651" style="fill: #ffb612; stroke: #ffb612"/>
     <use xlink:href="#m972961ddf2" x="277.925259" y="112.65174" style="fill: #ffb612; stroke: #ffb612"/>
     <use xlink:href="#m972961ddf2" x="279.323255" y="110.48103" style="fill: #ffb612; stroke: #ffb612"/>
     <use xlink:href="#m972961ddf2" x="280.72125" y="108.905153" style="fill: #ffb612; stroke: #ffb612"/>
     <use xlink:href="#m972961ddf2" x="282.119246" y="71.440196" style="fill: #ffb612; stroke: #ffb612"/>
     <use xlink:href="#m972961ddf2" x="283.517242" y="30.677958" style="fill: #ffb612; stroke: #ffb612"/>
     <use xlink:href="#m972961ddf2" x="284.915238" y="24.754824" style="fill: #ffb612; stroke: #ffb612"/>
     <use xlink:href="#m972961ddf2" x="286.313233" y="68.303651" style="fill: #ffb612; stroke: #ffb612"/>
     <use xlink:href="#m972961ddf2" x="287.711229" y="72.303876" style="fill: #ffb612; stroke: #ffb612"/>
     <use xlink:href="#m972961ddf2" x="289.109225" y="76.618414" style="fill: #ffb612; stroke: #ffb612"/>
     <use xlink:href="#m972961ddf2" x="290.50722" y="74.137044" style="fill: #ffb612; stroke: #ffb612"/>
     <use xlink:href="#m972961ddf2" x="291.905216" y="106.758968" style="fill: #ffb612; stroke: #ffb612"/>
     <use xlink:href="#m972961ddf2" x="293.303212" y="110.482653" style="fill: #ffb612; stroke: #ffb612"/>
     <use xlink:href="#m972961ddf2" x="294.701207" y="110.094239" style="fill: #ffb612; stroke: #ffb612"/>
     <use xlink:href="#m972961ddf2" x="296.099203" y="111.325897" style="fill: #ffb612; stroke: #ffb612"/>
     <use xlink:href="#m972961ddf2" x="297.497199" y="111.21014" style="fill: #ffb612; stroke: #ffb612"/>
     <use xlink:href="#m972961ddf2" x="298.895195" y="109.960027" style="fill: #ffb612; stroke: #ffb612"/>
     <use xlink:href="#m972961ddf2" x="300.29319" y="113.528669" style="fill: #ffb612; stroke: #ffb612"/>
     <use xlink:href="#m972961ddf2" x="301.691186" y="117.853531" style="fill: #ffb612; stroke: #ffb612"/>
     <use xlink:href="#m972961ddf2" x="303.089182" y="119.546872" style="fill: #ffb612; stroke: #ffb612"/>
     <use xlink:href="#m972961ddf2" x="304.487177" y="120.454196" style="fill: #ffb612; stroke: #ffb612"/>
     <use xlink:href="#m972961ddf2" x="305.885173" y="124.474825" style="fill: #ffb612; stroke: #ffb612"/>
     <use xlink:href="#m972961ddf2" x="307.283169" y="125.521134" style="fill: #ffb612; stroke: #ffb612"/>
     <use xlink:href="#m972961ddf2" x="308.681165" y="125.479489" style="fill: #ffb612; stroke: #ffb612"/>
     <use xlink:href="#m972961ddf2" x="310.07916" y="121.780494" style="fill: #ffb612; stroke: #ffb612"/>
     <use xlink:href="#m972961ddf2" x="311.477156" y="148.665439" style="fill: #ffb612; stroke: #ffb612"/>
     <use xlink:href="#m972961ddf2" x="312.875152" y="148.459832" style="fill: #ffb612; stroke: #ffb612"/>
     <use xlink:href="#m972961ddf2" x="314.273147" y="148.267323" style="fill: #ffb612; stroke: #ffb612"/>
     <use xlink:href="#m972961ddf2" x="315.671143" y="128.130999" style="fill: #ffb612; stroke: #ffb612"/>
     <use xlink:href="#m972961ddf2" x="317.069139" y="147.697836" style="fill: #ffb612; stroke: #ffb612"/>
     <use xlink:href="#m972961ddf2" x="318.467134" y="148.069659" style="fill: #ffb612; stroke: #ffb612"/>
     <use xlink:href="#m972961ddf2" x="319.86513" y="148.294101" style="fill: #ffb612; stroke: #ffb612"/>
     <use xlink:href="#m972961ddf2" x="321.263126" y="147.67959" style="fill: #ffb612; stroke: #ffb612"/>
     <use xlink:href="#m972961ddf2" x="322.661122" y="126.86841" style="fill: #ffb612; stroke: #ffb612"/>
     <use xlink:href="#m972961ddf2" x="324.059117" y="146.478425" style="fill: #ffb612; stroke: #ffb612"/>
     <use xlink:href="#m972961ddf2" x="325.457113" y="126.376491" style="fill: #ffb612; stroke: #ffb612"/>
     <use xlink:href="#m972961ddf2" x="326.855109" y="126.056721" style="fill: #ffb612; stroke: #ffb612"/>
     <use xlink:href="#m972961ddf2" x="328.253104" y="125.406331" style="fill: #ffb612; stroke: #ffb612"/>
     <use xlink:href="#m972961ddf2" x="329.6511" y="124.607752" style="fill: #ffb612; stroke: #ffb612"/>
     <use xlink:href="#m972961ddf2" x="331.049096" y="102.203143" style="fill: #ffb612; stroke: #ffb612"/>
     <use xlink:href="#m972961ddf2" x="332.447092" y="120.596461" style="fill: #ffb612; stroke: #ffb612"/>
     <use xlink:href="#m972961ddf2" x="333.845087" y="120.26734" style="fill: #ffb612; stroke: #ffb612"/>
     <use xlink:href="#m972961ddf2" x="335.243083" y="119.86869" style="fill: #ffb612; stroke: #ffb612"/>
     <use xlink:href="#m972961ddf2" x="336.641079" y="119.631888" style="fill: #ffb612; stroke: #ffb612"/>
     <use xlink:href="#m972961ddf2" x="338.039074" y="120.908941" style="fill: #ffb612; stroke: #ffb612"/>
     <use xlink:href="#m972961ddf2" x="339.43707" y="102.569991" style="fill: #ffb612; stroke: #ffb612"/>
     <use xlink:href="#m972961ddf2" x="340.835066" y="118.053604" style="fill: #ffb612; stroke: #ffb612"/>
     <use xlink:href="#m972961ddf2" x="342.233061" y="122.692262" style="fill: #ffb612; stroke: #ffb612"/>
     <use xlink:href="#m972961ddf2" x="343.631057" y="124.432725" style="fill: #ffb612; stroke: #ffb612"/>
     <use xlink:href="#m972961ddf2" x="345.029053" y="124.126813" style="fill: #ffb612; stroke: #ffb612"/>
     <use xlink:href="#m972961ddf2" x="346.427049" y="122.827244" style="fill: #ffb612; stroke: #ffb612"/>
     <use xlink:href="#m972961ddf2" x="347.825044" y="146.576195" style="fill: #ffb612; stroke: #ffb612"/>
     <use xlink:href="#m972961ddf2" x="349.22304" y="127.583562" style="fill: #ffb612; stroke: #ffb612"/>
     <use xlink:href="#m972961ddf2" x="350.621036" y="125.422486" style="fill: #ffb612; stroke: #ffb612"/>
     <use xlink:href="#m972961ddf2" x="352.019031" y="155.704376" style="fill: #ffb612; stroke: #ffb612"/>
     <use xlink:href="#m972961ddf2" x="353.417027" y="156.060729" style="fill: #ffb612; stroke: #ffb612"/>
     <use xlink:href="#m972961ddf2" x="354.815023" y="156.249057" style="fill: #ffb612; stroke: #ffb612"/>
     <use xlink:href="#m972961ddf2" x="356.213019" y="156.125398" style="fill: #ffb612; stroke: #ffb612"/>
     <use xlink:href="#m972961ddf2" x="357.611014" y="156.330954" style="fill: #ffb612; stroke: #ffb612"/>
     <use xlink:href="#m972961ddf2" x="359.00901" y="156.654365" style="fill: #ffb612; stroke: #ffb612"/>
     <use xlink:href="#m972961ddf2" x="360.407006" y="156.771085" style="fill: #ffb612; stroke: #ffb612"/>
     <use xlink:href="#m972961ddf2" x="361.805001" y="156.52092" style="fill: #ffb612; stroke: #ffb612"/>
     <use xlink:href="#m972961ddf2" x="363.202997" y="156.971684" style="fill: #ffb612; stroke: #ffb612"/>
     <use xlink:href="#m972961ddf2" x="364.600993" y="157.121653" style="fill: #ffb612; stroke: #ffb612"/>
     <use xlink:href="#m972961ddf2" x="365.998988" y="156.847297" style="fill: #ffb612; stroke: #ffb612"/>
     <use xlink:href="#m972961ddf2" x="367.396984" y="157.500178" style="fill: #ffb612; stroke: #ffb612"/>
     <use xlink:href="#m972961ddf2" x="368.79498" y="156.80871" style="fill: #ffb612; stroke: #ffb612"/>
     <use xlink:href="#m972961ddf2" x="370.192976" y="156.160398" style="fill: #ffb612; stroke: #ffb612"/>
     <use xlink:href="#m972961ddf2" x="371.590971" y="154.905487" style="fill: #ffb612; stroke: #ffb612"/>
     <use xlink:href="#m972961ddf2" x="372.988967" y="155.296001" style="fill: #ffb612; stroke: #ffb612"/>
     <use xlink:href="#m972961ddf2" x="374.386963" y="155.469454" style="fill: #ffb612; stroke: #ffb612"/>
     <use xlink:href="#m972961ddf2" x="375.784958" y="155.410936" style="fill: #ffb612; stroke: #ffb612"/>
     <use xlink:href="#m972961ddf2" x="377.182954" y="155.555347" style="fill: #ffb612; stroke: #ffb612"/>
     <use xlink:href="#m972961ddf2" x="378.58095" y="155.611853" style="fill: #ffb612; stroke: #ffb612"/>
     <use xlink:href="#m972961ddf2" x="379.978946" y="150.701399" style="fill: #ffb612; stroke: #ffb612"/>
     <use xlink:href="#m972961ddf2" x="381.376941" y="150.584903" style="fill: #ffb612; stroke: #ffb612"/>
     <use xlink:href="#m972961ddf2" x="382.774937" y="150.194332" style="fill: #ffb612; stroke: #ffb612"/>
     <use xlink:href="#m972961ddf2" x="384.172933" y="150.054374" style="fill: #ffb612; stroke: #ffb612"/>
     <use xlink:href="#m972961ddf2" x="385.570928" y="149.993251" style="fill: #ffb612; stroke: #ffb612"/>
     <use xlink:href="#m972961ddf2" x="386.968924" y="144.862601" style="fill: #ffb612; stroke: #ffb612"/>
     <use xlink:href="#m972961ddf2" x="388.36692" y="145.542326" style="fill: #ffb612; stroke: #ffb612"/>
     <use xlink:href="#m972961ddf2" x="389.764915" y="120.732264" style="fill: #ffb612; stroke: #ffb612"/>
     <use xlink:href="#m972961ddf2" x="391.162911" y="121.56635" style="fill: #ffb612; stroke: #ffb612"/>
     <use xlink:href="#m972961ddf2" x="392.560907" y="120.686709" style="fill: #ffb612; stroke: #ffb612"/>
     <use xlink:href="#m972961ddf2" x="393.958903" y="118.600414" style="fill: #ffb612; stroke: #ffb612"/>
     <use xlink:href="#m972961ddf2" x="395.356898" y="119.128273" style="fill: #ffb612; stroke: #ffb612"/>
     <use xlink:href="#m972961ddf2" x="396.754894" y="115.315007" style="fill: #ffb612; stroke: #ffb612"/>
     <use xlink:href="#m972961ddf2" x="398.15289" y="113.114992" style="fill: #ffb612; stroke: #ffb612"/>
     <use xlink:href="#m972961ddf2" x="399.550885" y="113.727276" style="fill: #ffb612; stroke: #ffb612"/>
     <use xlink:href="#m972961ddf2" x="400.948881" y="106.020041" style="fill: #ffb612; stroke: #ffb612"/>
     <use xlink:href="#m972961ddf2" x="402.346877" y="104.689987" style="fill: #ffb612; stroke: #ffb612"/>
     <use xlink:href="#m972961ddf2" x="403.744872" y="103.990694" style="fill: #ffb612; stroke: #ffb612"/>
     <use xlink:href="#m972961ddf2" x="405.142868" y="107.772152" style="fill: #ffb612; stroke: #ffb612"/>
     <use xlink:href="#m972961ddf2" x="406.540864" y="104.545152" style="fill: #ffb612; stroke: #ffb612"/>
     <use xlink:href="#m972961ddf2" x="407.93886" y="91.42369" style="fill: #ffb612; stroke: #ffb612"/>
     <use xlink:href="#m972961ddf2" x="409.336855" y="95.819753" style="fill: #ffb612; stroke: #ffb612"/>
     <use xlink:href="#m972961ddf2" x="410.734851" y="47.050075" style="fill: #ffb612; stroke: #ffb612"/>
     <use xlink:href="#m972961ddf2" x="412.132847" y="39.562907" style="fill: #ffb612; stroke: #ffb612"/>
     <use xlink:href="#m972961ddf2" x="413.530842" y="43.922966" style="fill: #ffb612; stroke: #ffb612"/>
     <use xlink:href="#m972961ddf2" x="414.928838" y="92.132128" style="fill: #ffb612; stroke: #ffb612"/>
     <use xlink:href="#m972961ddf2" x="416.326834" y="91.0645" style="fill: #ffb612; stroke: #ffb612"/>
     <use xlink:href="#m972961ddf2" x="417.72483" y="92.144033" style="fill: #ffb612; stroke: #ffb612"/>
    </g>
   </g>
   <g id="line2d_30">
    <path d="M 62.63392 135.467718 
L 64.031916 135.084229 
L 65.429912 130.755231 
L 66.827908 132.543716 
L 68.225903 131.989664 
L 69.623899 132.116161 
L 71.021895 135.440163 
L 72.41989 134.941775 
L 73.817886 135.532419 
L 75.215882 135.839446 
L 76.613878 138.513065 
L 78.011873 138.864056 
L 79.409869 137.92591 
L 80.807865 135.879533 
L 82.20586 131.215454 
L 83.603856 130.314053 
L 85.001852 130.012966 
L 86.399847 128.970465 
L 87.797843 129.808363 
L 89.195839 130.18498 
L 90.593835 128.030137 
L 91.99183 125.376515 
L 93.389826 125.670123 
L 94.787822 124.965478 
L 96.185817 118.180249 
L 97.583813 116.667186 
L 98.981809 114.029512 
L 100.379804 117.845277 
L 101.7778 120.873284 
L 103.175796 120.047306 
L 104.573792 122.107062 
L 105.971787 122.600709 
L 107.369783 129.917969 
L 108.767779 134.107215 
L 110.165774 132.495608 
L 111.56377 136.33524 
L 112.961766 134.255896 
L 114.359762 135.59238 
L 115.757757 131.42445 
L 117.155753 136.76722 
L 118.553749 140.270739 
L 119.951744 140.96834 
L 122.747736 141.02784 
L 124.145731 140.981104 
L 125.543727 145.872295 
L 126.941723 143.762946 
L 128.339719 144.142939 
L 129.737714 143.797613 
L 131.13571 145.635356 
L 132.533706 145.799123 
L 133.931701 144.891093 
L 135.329697 145.897774 
L 136.727693 143.815477 
L 138.125689 141.112915 
L 139.523684 142.164056 
L 140.92168 148.169506 
L 142.319676 149.220595 
L 143.717671 148.571052 
L 145.115667 145.759821 
L 146.513663 145.415164 
L 147.911658 143.232075 
L 149.309654 142.296745 
L 150.70765 140.456327 
L 152.105646 139.680586 
L 153.503641 139.581044 
L 154.901637 136.040638 
L 156.299633 138.806385 
L 157.697628 139.334083 
L 159.095624 146.425193 
L 160.49362 146.418089 
L 161.891616 144.409978 
L 163.289611 143.702682 
L 164.687607 144.761386 
L 166.085603 145.150257 
L 167.483598 144.956278 
L 168.881594 143.613062 
L 170.27959 147.378905 
L 171.677585 147.824326 
L 173.075581 147.546981 
L 174.473577 148.438694 
L 175.871573 148.882477 
L 177.269568 148.692716 
L 178.667564 145.668613 
L 180.06556 145.090565 
L 181.463555 142.652578 
L 182.861551 143.053193 
L 184.259547 142.013687 
L 185.657543 139.838389 
L 187.055538 139.888827 
L 188.453534 140.757106 
L 189.85153 140.136335 
L 191.249525 138.424973 
L 192.647521 137.548756 
L 194.045517 140.869263 
L 195.443512 138.410271 
L 196.841508 141.947005 
L 198.239504 143.392515 
L 199.6375 143.942578 
L 201.035495 144.650185 
L 202.433491 142.800386 
L 203.831487 144.27852 
L 205.229482 147.465817 
L 206.627478 148.193068 
L 209.423469 150.470121 
L 210.821465 149.693586 
L 213.617457 150.185764 
L 215.015452 152.085398 
L 216.413448 150.133612 
L 217.811444 149.275503 
L 219.209439 149.205536 
L 220.607435 148.478786 
L 222.005431 149.114072 
L 223.403427 148.81021 
L 224.801422 147.265082 
L 226.199418 146.911117 
L 227.597414 146.768942 
L 228.995409 144.375497 
L 230.393405 145.746149 
L 231.791401 145.504672 
L 233.189396 144.436247 
L 234.587392 141.092958 
L 235.985388 143.439739 
L 237.383384 143.313227 
L 238.781379 142.554589 
L 240.179375 145.578504 
L 241.577371 145.548741 
L 242.975366 144.882003 
L 244.373362 143.580337 
L 245.771358 142.577636 
L 247.169354 141.398941 
L 248.567349 141.028807 
L 249.965345 140.913372 
L 251.363341 140.549253 
L 252.761336 143.522675 
L 254.159332 144.618522 
L 255.557328 144.315059 
L 256.955323 143.795708 
L 258.353319 144.22872 
L 259.751315 141.354731 
L 261.149311 141.902752 
L 262.547306 141.413675 
L 263.945302 144.988853 
L 265.343298 145.726168 
L 266.741293 138.193238 
L 268.139289 138.227104 
L 269.537285 135.9248 
L 270.935281 136.210271 
L 272.333276 117.264588 
L 273.731272 106.133864 
L 275.129268 111.768928 
L 276.527263 116.195399 
L 277.925259 110.29289 
L 279.323255 107.299395 
L 280.72125 95.6252 
L 282.119246 67.349136 
L 283.517242 31.80009 
L 284.915238 23.624863 
L 286.313233 55.737239 
L 287.711229 67.791922 
L 289.109225 88.584057 
L 290.50722 84.574403 
L 291.905216 94.196159 
L 293.303212 102.118281 
L 294.701207 103.877035 
L 296.099203 109.781375 
L 297.497199 109.85116 
L 298.895195 113.187252 
L 300.29319 117.459086 
L 301.691186 130.448874 
L 303.089182 134.336458 
L 304.487177 135.142421 
L 305.885173 140.920497 
L 307.283169 141.799459 
L 310.07916 141.920921 
L 311.477156 145.916366 
L 312.875152 145.876054 
L 314.273147 145.286925 
L 315.671143 144.524648 
L 317.069139 144.574926 
L 318.467134 145.372417 
L 319.86513 147.097647 
L 321.263126 145.626996 
L 322.661122 144.878125 
L 324.059117 145.437917 
L 325.457113 140.639879 
L 326.855109 137.43943 
L 328.253104 137.225224 
L 329.6511 137.494193 
L 331.049096 109.541997 
L 332.447092 125.205059 
L 333.845087 120.227895 
L 335.243083 120.727769 
L 336.641079 120.764688 
L 338.039074 121.539367 
L 339.43707 112.499652 
L 340.835066 119.146239 
L 342.233061 128.16166 
L 343.631057 134.994692 
L 345.029053 133.927035 
L 346.427049 133.941908 
L 347.825044 146.580455 
L 349.22304 142.734028 
L 350.621036 144.920756 
L 352.019031 154.950015 
L 353.417027 155.45324 
L 354.815023 155.028832 
L 356.213019 155.048298 
L 357.611014 155.618081 
L 359.00901 155.801234 
L 360.407006 156.106662 
L 361.805001 155.799591 
L 363.202997 155.756565 
L 364.600993 155.579365 
L 365.998988 155.595207 
L 367.396984 156.37083 
L 368.79498 156.573368 
L 370.192976 156.557866 
L 371.590971 154.484533 
L 372.988967 154.809852 
L 374.386963 154.442673 
L 375.784958 154.454159 
L 378.58095 153.500395 
L 379.978946 152.420597 
L 381.376941 152.055772 
L 384.172933 150.456432 
L 385.570928 150.462624 
L 386.968924 144.009805 
L 388.36692 144.775656 
L 389.764915 141.161376 
L 391.162911 139.547025 
L 392.560907 134.192147 
L 393.958903 131.87612 
L 395.356898 131.901739 
L 396.754894 124.884584 
L 398.15289 120.704251 
L 399.550885 117.30813 
L 402.346877 101.549935 
L 403.744872 100.33125 
L 405.142868 100.332565 
L 406.540864 101.671232 
L 407.93886 77.065859 
L 409.336855 85.396495 
L 410.734851 60.026601 
L 412.132847 57.253889 
L 413.530842 61.160652 
L 414.928838 75.738511 
L 416.326834 76.347406 
L 417.72483 76.510383 
L 417.72483 76.510383 
" clip-path="url(#p4dd966fda4)" style="fill: none; stroke-dasharray: 5.55,2.4; stroke-dashoffset: 0; stroke: #000000; stroke-width: 1.5"/>
   </g>
   <g id="patch_3">
    <path d="M 44.879375 166.32 
L 44.879375 0 
" style="fill: none; stroke: #ffffff; stroke-linejoin: miter; stroke-linecap: square"/>
   </g>
   <g id="patch_4">
    <path d="M 435.479375 166.32 
L 435.479375 0 
" style="fill: none; stroke: #ffffff; stroke-linejoin: miter; stroke-linecap: square"/>
   </g>
   <g id="patch_5">
    <path d="M 44.879375 166.32 
L 435.479375 166.32 
" style="fill: none; stroke: #ffffff; stroke-linejoin: miter; stroke-linecap: square"/>
   </g>
   <g id="patch_6">
    <path d="M 44.879375 0 
L 435.479375 0 
" style="fill: none; stroke: #ffffff; stroke-linejoin: miter; stroke-linecap: square"/>
   </g>
   <g id="legend_1">
    <g id="patch_7">
     <path d="M 51.879375 60.378125 
L 203.92625 60.378125 
Q 205.92625 60.378125 205.92625 58.378125 
L 205.92625 7 
Q 205.92625 5 203.92625 5 
L 51.879375 5 
Q 49.879375 5 49.879375 7 
L 49.879375 58.378125 
Q 49.879375 60.378125 51.879375 60.378125 
z
" style="fill: #e5e5e5; opacity: 0.8; stroke: #cccccc; stroke-width: 0.5; stroke-linejoin: miter"/>
    </g>
    <g id="line2d_31">
     <path d="M 53.879375 15.5 
L 63.879375 15.5 
L 73.879375 15.5 
" style="fill: none; stroke: #ffb612; stroke-width: 3; stroke-linecap: square"/>
     <g>
      <use xlink:href="#m972961ddf2" x="63.879375" y="15.5" style="fill: #ffb612; stroke: #ffb612"/>
     </g>
    </g>
    <g id="text_17">
     <!-- Private Value $\tilde{R}_{\chi_3,\chi_1}^t$ -->
     <g transform="translate(81.879375 19) scale(0.1 -0.1)">
      <defs>
       <path id="DejaVuSans-50" d="M 1259 4147 
L 1259 2394 
L 2053 2394 
Q 2494 2394 2734 2622 
Q 2975 2850 2975 3272 
Q 2975 3691 2734 3919 
Q 2494 4147 2053 4147 
L 1259 4147 
z
M 628 4666 
L 2053 4666 
Q 2838 4666 3239 4311 
Q 3641 3956 3641 3272 
Q 3641 2581 3239 2228 
Q 2838 1875 2053 1875 
L 1259 1875 
L 1259 0 
L 628 0 
L 628 4666 
z
" transform="scale(0.015625)"/>
       <path id="DejaVuSans-72" d="M 2631 2963 
Q 2534 3019 2420 3045 
Q 2306 3072 2169 3072 
Q 1681 3072 1420 2755 
Q 1159 2438 1159 1844 
L 1159 0 
L 581 0 
L 581 3500 
L 1159 3500 
L 1159 2956 
Q 1341 3275 1631 3429 
Q 1922 3584 2338 3584 
Q 2397 3584 2469 3576 
Q 2541 3569 2628 3553 
L 2631 2963 
z
" transform="scale(0.015625)"/>
       <path id="DejaVuSans-69" d="M 603 3500 
L 1178 3500 
L 1178 0 
L 603 0 
L 603 3500 
z
M 603 4863 
L 1178 4863 
L 1178 4134 
L 603 4134 
L 603 4863 
z
" transform="scale(0.015625)"/>
       <path id="DejaVuSans-76" d="M 191 3500 
L 800 3500 
L 1894 563 
L 2988 3500 
L 3597 3500 
L 2284 0 
L 1503 0 
L 191 3500 
z
" transform="scale(0.015625)"/>
       <path id="DejaVuSans-20" transform="scale(0.015625)"/>
       <path id="DejaVuSans-303" d="M -1621 4281 
L -1799 4453 
Q -1867 4516 -1919 4545 
Q -1971 4575 -2011 4575 
Q -2130 4575 -2186 4461 
Q -2242 4347 -2249 4091 
L -2639 4091 
Q -2633 4513 -2473 4742 
Q -2314 4972 -2030 4972 
Q -1911 4972 -1811 4928 
Q -1711 4884 -1596 4781 
L -1417 4609 
Q -1349 4547 -1297 4517 
Q -1246 4488 -1205 4488 
Q -1086 4488 -1030 4602 
Q -974 4716 -967 4972 
L -577 4972 
Q -583 4550 -742 4320 
Q -902 4091 -1186 4091 
Q -1305 4091 -1405 4134 
Q -1505 4178 -1621 4281 
z
" transform="scale(0.015625)"/>
       <path id="DejaVuSans-Oblique-52" d="M 1613 4147 
L 1294 2491 
L 2106 2491 
Q 2584 2491 2879 2755 
Q 3175 3019 3175 3444 
Q 3175 3784 2976 3965 
Q 2778 4147 2406 4147 
L 1613 4147 
z
M 2772 2241 
Q 2972 2194 3105 2009 
Q 3238 1825 3413 1275 
L 3809 0 
L 3144 0 
L 2778 1197 
Q 2638 1659 2453 1815 
Q 2269 1972 1888 1972 
L 1191 1972 
L 806 0 
L 172 0 
L 1081 4666 
L 2503 4666 
Q 3150 4666 3495 4373 
Q 3841 4081 3841 3531 
Q 3841 3044 3547 2687 
Q 3253 2331 2772 2241 
z
" transform="scale(0.015625)"/>
       <path id="DejaVuSans-Oblique-74" d="M 2706 3500 
L 2619 3053 
L 1472 3053 
L 1100 1153 
Q 1081 1047 1072 975 
Q 1063 903 1063 863 
Q 1063 663 1183 572 
Q 1303 481 1569 481 
L 2150 481 
L 2053 0 
L 1503 0 
Q 991 0 739 200 
Q 488 400 488 806 
Q 488 878 497 964 
Q 506 1050 525 1153 
L 897 3053 
L 409 3053 
L 500 3500 
L 978 3500 
L 1172 4494 
L 1747 4494 
L 1556 3500 
L 2706 3500 
z
" transform="scale(0.015625)"/>
       <path id="DejaVuSans-Oblique-3c7" d="M 1922 -781 
L 1691 416 
L 394 -1334 
L -284 -1334 
L 1553 1141 
L 1269 2613 
Q 1194 3006 713 3006 
L 559 3006 
L 653 3500 
L 872 3494 
Q 1675 3472 1775 2950 
L 2006 1753 
L 3303 3503 
L 3981 3503 
L 2144 1028 
L 2428 -444 
Q 2503 -838 2984 -838 
L 3138 -838 
L 3044 -1331 
L 2825 -1325 
Q 2022 -1303 1922 -781 
z
" transform="scale(0.015625)"/>
       <path id="DejaVuSans-2c" d="M 750 794 
L 1409 794 
L 1409 256 
L 897 -744 
L 494 -744 
L 750 256 
L 750 794 
z
" transform="scale(0.015625)"/>
      </defs>
      <use xlink:href="#DejaVuSans-50" transform="translate(0 0.828125)"/>
      <use xlink:href="#DejaVuSans-72" transform="translate(60.302734 0.828125)"/>
      <use xlink:href="#DejaVuSans-69" transform="translate(101.416016 0.828125)"/>
      <use xlink:href="#DejaVuSans-76" transform="translate(129.199219 0.828125)"/>
      <use xlink:href="#DejaVuSans-61" transform="translate(188.378906 0.828125)"/>
      <use xlink:href="#DejaVuSans-74" transform="translate(249.658203 0.828125)"/>
      <use xlink:href="#DejaVuSans-65" transform="translate(288.867188 0.828125)"/>
      <use xlink:href="#DejaVuSans-20" transform="translate(350.390625 0.828125)"/>
      <use xlink:href="#DejaVuSans-56" transform="translate(382.177734 0.828125)"/>
      <use xlink:href="#DejaVuSans-61" transform="translate(450.585938 0.828125)"/>
      <use xlink:href="#DejaVuSans-6c" transform="translate(511.865234 0.828125)"/>
      <use xlink:href="#DejaVuSans-75" transform="translate(539.648438 0.828125)"/>
      <use xlink:href="#DejaVuSans-65" transform="translate(603.027344 0.828125)"/>
      <use xlink:href="#DejaVuSans-20" transform="translate(664.550781 0.828125)"/>
      <use xlink:href="#DejaVuSans-303" transform="translate(764.942871 22.3125)"/>
      <use xlink:href="#DejaVuSans-Oblique-52" transform="translate(696.337891 0.828125)"/>
      <use xlink:href="#DejaVuSans-Oblique-74" transform="translate(766.777344 39.109375) scale(0.7)"/>
      <use xlink:href="#DejaVuSans-Oblique-3c7" transform="translate(766.777344 -26.515625) scale(0.7)"/>
      <use xlink:href="#DejaVuSans-33" transform="translate(808.203125 -38) scale(0.49)"/>
      <use xlink:href="#DejaVuSans-2c" transform="translate(841.29248 -26.515625) scale(0.7)"/>
      <use xlink:href="#DejaVuSans-Oblique-3c7" transform="translate(877.181152 -26.515625) scale(0.7)"/>
      <use xlink:href="#DejaVuSans-31" transform="translate(918.606934 -38) scale(0.49)"/>
     </g>
    </g>
    <g id="line2d_32">
     <path d="M 53.879375 34 
L 63.879375 34 
L 73.879375 34 
" style="fill: none; stroke-dasharray: 5.55,2.4; stroke-dashoffset: 0; stroke: #000000; stroke-width: 1.5"/>
    </g>
    <g id="text_18">
     <!-- Original Value $\bar{R}_{\chi_3,\chi_1}^t$ -->
     <g transform="translate(81.879375 37.5) scale(0.1 -0.1)">
      <defs>
       <path id="DejaVuSans-4f" d="M 2522 4238 
Q 1834 4238 1429 3725 
Q 1025 3213 1025 2328 
Q 1025 1447 1429 934 
Q 1834 422 2522 422 
Q 3209 422 3611 934 
Q 4013 1447 4013 2328 
Q 4013 3213 3611 3725 
Q 3209 4238 2522 4238 
z
M 2522 4750 
Q 3503 4750 4090 4092 
Q 4678 3434 4678 2328 
Q 4678 1225 4090 567 
Q 3503 -91 2522 -91 
Q 1538 -91 948 565 
Q 359 1222 359 2328 
Q 359 3434 948 4092 
Q 1538 4750 2522 4750 
z
" transform="scale(0.015625)"/>
       <path id="DejaVuSans-67" d="M 2906 1791 
Q 2906 2416 2648 2759 
Q 2391 3103 1925 3103 
Q 1463 3103 1205 2759 
Q 947 2416 947 1791 
Q 947 1169 1205 825 
Q 1463 481 1925 481 
Q 2391 481 2648 825 
Q 2906 1169 2906 1791 
z
M 3481 434 
Q 3481 -459 3084 -895 
Q 2688 -1331 1869 -1331 
Q 1566 -1331 1297 -1286 
Q 1028 -1241 775 -1147 
L 775 -588 
Q 1028 -725 1275 -790 
Q 1522 -856 1778 -856 
Q 2344 -856 2625 -561 
Q 2906 -266 2906 331 
L 2906 616 
Q 2728 306 2450 153 
Q 2172 0 1784 0 
Q 1141 0 747 490 
Q 353 981 353 1791 
Q 353 2603 747 3093 
Q 1141 3584 1784 3584 
Q 2172 3584 2450 3431 
Q 2728 3278 2906 2969 
L 2906 3500 
L 3481 3500 
L 3481 434 
z
" transform="scale(0.015625)"/>
       <path id="DejaVuSans-6e" d="M 3513 2113 
L 3513 0 
L 2938 0 
L 2938 2094 
Q 2938 2591 2744 2837 
Q 2550 3084 2163 3084 
Q 1697 3084 1428 2787 
Q 1159 2491 1159 1978 
L 1159 0 
L 581 0 
L 581 3500 
L 1159 3500 
L 1159 2956 
Q 1366 3272 1645 3428 
Q 1925 3584 2291 3584 
Q 2894 3584 3203 3211 
Q 3513 2838 3513 2113 
z
" transform="scale(0.015625)"/>
       <path id="DejaVuSans-304" d="M -2518 4769 
L -650 4769 
L -650 4306 
L -2518 4306 
L -2518 4769 
z
" transform="scale(0.015625)"/>
      </defs>
      <use xlink:href="#DejaVuSans-4f" transform="translate(0 0.359375)"/>
      <use xlink:href="#DejaVuSans-72" transform="translate(78.710938 0.359375)"/>
      <use xlink:href="#DejaVuSans-69" transform="translate(119.824219 0.359375)"/>
      <use xlink:href="#DejaVuSans-67" transform="translate(147.607422 0.359375)"/>
      <use xlink:href="#DejaVuSans-69" transform="translate(211.083984 0.359375)"/>
      <use xlink:href="#DejaVuSans-6e" transform="translate(238.867188 0.359375)"/>
      <use xlink:href="#DejaVuSans-61" transform="translate(302.246094 0.359375)"/>
      <use xlink:href="#DejaVuSans-6c" transform="translate(363.525391 0.359375)"/>
      <use xlink:href="#DejaVuSans-20" transform="translate(391.308594 0.359375)"/>
      <use xlink:href="#DejaVuSans-56" transform="translate(423.095703 0.359375)"/>
      <use xlink:href="#DejaVuSans-61" transform="translate(491.503906 0.359375)"/>
      <use xlink:href="#DejaVuSans-6c" transform="translate(552.783203 0.359375)"/>
      <use xlink:href="#DejaVuSans-75" transform="translate(580.566406 0.359375)"/>
      <use xlink:href="#DejaVuSans-65" transform="translate(643.945312 0.359375)"/>
      <use xlink:href="#DejaVuSans-20" transform="translate(705.46875 0.359375)"/>
      <use xlink:href="#DejaVuSans-304" transform="translate(804.970215 18.484375)"/>
      <use xlink:href="#DejaVuSans-Oblique-52" transform="translate(737.255859 0.359375)"/>
      <use xlink:href="#DejaVuSans-Oblique-74" transform="translate(807.695312 38.640625) scale(0.7)"/>
      <use xlink:href="#DejaVuSans-Oblique-3c7" transform="translate(807.695312 -26.984375) scale(0.7)"/>
      <use xlink:href="#DejaVuSans-33" transform="translate(849.121094 -38.46875) scale(0.49)"/>
      <use xlink:href="#DejaVuSans-2c" transform="translate(882.210449 -26.984375) scale(0.7)"/>
      <use xlink:href="#DejaVuSans-Oblique-3c7" transform="translate(918.099121 -26.984375) scale(0.7)"/>
      <use xlink:href="#DejaVuSans-31" transform="translate(959.524902 -38.46875) scale(0.49)"/>
     </g>
    </g>
    <g id="patch_8">
     <path d="M 53.879375 54.298438 
L 73.879375 54.298438 
L 73.879375 47.298438 
L 53.879375 47.298438 
z
" style="fill: #ffb612; fill-opacity: 0.5; stroke: #ffb612; stroke-opacity: 0.5; stroke-width: 0.5; stroke-linejoin: miter"/>
    </g>
    <g id="text_19">
     <!-- One Standard Deviation -->
     <g transform="translate(81.879375 54.298438) scale(0.1 -0.1)">
      <defs>
       <path id="DejaVuSans-53" d="M 3425 4513 
L 3425 3897 
Q 3066 4069 2747 4153 
Q 2428 4238 2131 4238 
Q 1616 4238 1336 4038 
Q 1056 3838 1056 3469 
Q 1056 3159 1242 3001 
Q 1428 2844 1947 2747 
L 2328 2669 
Q 3034 2534 3370 2195 
Q 3706 1856 3706 1288 
Q 3706 609 3251 259 
Q 2797 -91 1919 -91 
Q 1588 -91 1214 -16 
Q 841 59 441 206 
L 441 856 
Q 825 641 1194 531 
Q 1563 422 1919 422 
Q 2459 422 2753 634 
Q 3047 847 3047 1241 
Q 3047 1584 2836 1778 
Q 2625 1972 2144 2069 
L 1759 2144 
Q 1053 2284 737 2584 
Q 422 2884 422 3419 
Q 422 4038 858 4394 
Q 1294 4750 2059 4750 
Q 2388 4750 2728 4690 
Q 3069 4631 3425 4513 
z
" transform="scale(0.015625)"/>
       <path id="DejaVuSans-64" d="M 2906 2969 
L 2906 4863 
L 3481 4863 
L 3481 0 
L 2906 0 
L 2906 525 
Q 2725 213 2448 61 
Q 2172 -91 1784 -91 
Q 1150 -91 751 415 
Q 353 922 353 1747 
Q 353 2572 751 3078 
Q 1150 3584 1784 3584 
Q 2172 3584 2448 3432 
Q 2725 3281 2906 2969 
z
M 947 1747 
Q 947 1113 1208 752 
Q 1469 391 1925 391 
Q 2381 391 2643 752 
Q 2906 1113 2906 1747 
Q 2906 2381 2643 2742 
Q 2381 3103 1925 3103 
Q 1469 3103 1208 2742 
Q 947 2381 947 1747 
z
" transform="scale(0.015625)"/>
       <path id="DejaVuSans-6f" d="M 1959 3097 
Q 1497 3097 1228 2736 
Q 959 2375 959 1747 
Q 959 1119 1226 758 
Q 1494 397 1959 397 
Q 2419 397 2687 759 
Q 2956 1122 2956 1747 
Q 2956 2369 2687 2733 
Q 2419 3097 1959 3097 
z
M 1959 3584 
Q 2709 3584 3137 3096 
Q 3566 2609 3566 1747 
Q 3566 888 3137 398 
Q 2709 -91 1959 -91 
Q 1206 -91 779 398 
Q 353 888 353 1747 
Q 353 2609 779 3096 
Q 1206 3584 1959 3584 
z
" transform="scale(0.015625)"/>
      </defs>
      <use xlink:href="#DejaVuSans-4f"/>
      <use xlink:href="#DejaVuSans-6e" x="78.710938"/>
      <use xlink:href="#DejaVuSans-65" x="142.089844"/>
      <use xlink:href="#DejaVuSans-20" x="203.613281"/>
      <use xlink:href="#DejaVuSans-53" x="235.400391"/>
      <use xlink:href="#DejaVuSans-74" x="298.876953"/>
      <use xlink:href="#DejaVuSans-61" x="338.085938"/>
      <use xlink:href="#DejaVuSans-6e" x="399.365234"/>
      <use xlink:href="#DejaVuSans-64" x="462.744141"/>
      <use xlink:href="#DejaVuSans-61" x="526.220703"/>
      <use xlink:href="#DejaVuSans-72" x="587.5"/>
      <use xlink:href="#DejaVuSans-64" x="626.863281"/>
      <use xlink:href="#DejaVuSans-20" x="690.339844"/>
      <use xlink:href="#DejaVuSans-44" x="722.126953"/>
      <use xlink:href="#DejaVuSans-65" x="799.128906"/>
      <use xlink:href="#DejaVuSans-76" x="860.652344"/>
      <use xlink:href="#DejaVuSans-69" x="919.832031"/>
      <use xlink:href="#DejaVuSans-61" x="947.615234"/>
      <use xlink:href="#DejaVuSans-74" x="1008.894531"/>
      <use xlink:href="#DejaVuSans-69" x="1048.103516"/>
      <use xlink:href="#DejaVuSans-6f" x="1075.886719"/>
      <use xlink:href="#DejaVuSans-6e" x="1137.068359"/>
     </g>
    </g>
   </g>
  </g>
 </g>
 <defs>
  <clipPath id="p4dd966fda4">
   <rect x="44.879375" y="0" width="390.6" height="166.32"/>
  </clipPath>
 </defs>
</svg>
