<?xml version="1.0" encoding="utf-8" standalone="no"?>
<!DOCTYPE svg PUBLIC "-//W3C//DTD SVG 1.1//EN"
  "http://www.w3.org/Graphics/SVG/1.1/DTD/svg11.dtd">
<svg xmlns:xlink="http://www.w3.org/1999/xlink" width="444.375067pt" height="199.836743pt" viewBox="0 0 444.375067 199.836743" xmlns="http://www.w3.org/2000/svg" version="1.1">
 <metadata>
  <rdf:RDF xmlns:dc="http://purl.org/dc/elements/1.1/" xmlns:cc="http://creativecommons.org/ns#" xmlns:rdf="http://www.w3.org/1999/02/22-rdf-syntax-ns#">
   <cc:Work>
    <dc:type rdf:resource="http://purl.org/dc/dcmitype/StillImage"/>
    <dc:date>2024-09-18T15:47:54.470324</dc:date>
    <dc:format>image/svg+xml</dc:format>
    <dc:creator>
     <cc:Agent>
      <dc:title>Matplotlib v3.7.5, https://matplotlib.org/</dc:title>
     </cc:Agent>
    </dc:creator>
   </cc:Work>
  </rdf:RDF>
 </metadata>
 <defs>
  <style type="text/css">*{stroke-linejoin: round; stroke-linecap: butt}</style>
 </defs>
 <g id="figure_1">
  <g id="patch_1">
   <path d="M 0 199.836743 
L 444.375067 199.836743 
L 444.375067 0 
L 0 0 
z
" style="fill: #ffffff"/>
  </g>
  <g id="axes_1">
   <g id="patch_2">
    <path d="M 44.879375 167.544868 
L 435.479375 167.544868 
L 435.479375 1.224868 
L 44.879375 1.224868 
z
" style="fill: #e5e5e5"/>
   </g>
   <g id="matplotlib.axis_1">
    <g id="xtick_1">
     <g id="line2d_1">
      <path d="M 72.41989 167.544868 
L 72.41989 1.224868 
" clip-path="url(#p33caa3c003)" style="fill: none; stroke: #ffffff; stroke-width: 0.8; stroke-linecap: square"/>
     </g>
     <g id="line2d_2">
      <defs>
       <path id="mcb9311816d" d="M 0 0 
L 0 3.5 
" style="stroke: #555555; stroke-width: 0.8"/>
      </defs>
      <g>
       <use xlink:href="#mcb9311816d" x="72.41989" y="167.544868" style="fill: #555555; stroke: #555555; stroke-width: 0.8"/>
      </g>
     </g>
     <g id="text_1">
      <!-- 08/16/20 -->
      <g style="fill: #555555" transform="translate(49.96364 182.143305) scale(0.1 -0.1)">
       <defs>
        <path id="DejaVuSans-30" d="M 2034 4250 
Q 1547 4250 1301 3770 
Q 1056 3291 1056 2328 
Q 1056 1369 1301 889 
Q 1547 409 2034 409 
Q 2525 409 2770 889 
Q 3016 1369 3016 2328 
Q 3016 3291 2770 3770 
Q 2525 4250 2034 4250 
z
M 2034 4750 
Q 2819 4750 3233 4129 
Q 3647 3509 3647 2328 
Q 3647 1150 3233 529 
Q 2819 -91 2034 -91 
Q 1250 -91 836 529 
Q 422 1150 422 2328 
Q 422 3509 836 4129 
Q 1250 4750 2034 4750 
z
" transform="scale(0.015625)"/>
        <path id="DejaVuSans-38" d="M 2034 2216 
Q 1584 2216 1326 1975 
Q 1069 1734 1069 1313 
Q 1069 891 1326 650 
Q 1584 409 2034 409 
Q 2484 409 2743 651 
Q 3003 894 3003 1313 
Q 3003 1734 2745 1975 
Q 2488 2216 2034 2216 
z
M 1403 2484 
Q 997 2584 770 2862 
Q 544 3141 544 3541 
Q 544 4100 942 4425 
Q 1341 4750 2034 4750 
Q 2731 4750 3128 4425 
Q 3525 4100 3525 3541 
Q 3525 3141 3298 2862 
Q 3072 2584 2669 2484 
Q 3125 2378 3379 2068 
Q 3634 1759 3634 1313 
Q 3634 634 3220 271 
Q 2806 -91 2034 -91 
Q 1263 -91 848 271 
Q 434 634 434 1313 
Q 434 1759 690 2068 
Q 947 2378 1403 2484 
z
M 1172 3481 
Q 1172 3119 1398 2916 
Q 1625 2713 2034 2713 
Q 2441 2713 2670 2916 
Q 2900 3119 2900 3481 
Q 2900 3844 2670 4047 
Q 2441 4250 2034 4250 
Q 1625 4250 1398 4047 
Q 1172 3844 1172 3481 
z
" transform="scale(0.015625)"/>
        <path id="DejaVuSans-2f" d="M 1625 4666 
L 2156 4666 
L 531 -594 
L 0 -594 
L 1625 4666 
z
" transform="scale(0.015625)"/>
        <path id="DejaVuSans-31" d="M 794 531 
L 1825 531 
L 1825 4091 
L 703 3866 
L 703 4441 
L 1819 4666 
L 2450 4666 
L 2450 531 
L 3481 531 
L 3481 0 
L 794 0 
L 794 531 
z
" transform="scale(0.015625)"/>
        <path id="DejaVuSans-36" d="M 2113 2584 
Q 1688 2584 1439 2293 
Q 1191 2003 1191 1497 
Q 1191 994 1439 701 
Q 1688 409 2113 409 
Q 2538 409 2786 701 
Q 3034 994 3034 1497 
Q 3034 2003 2786 2293 
Q 2538 2584 2113 2584 
z
M 3366 4563 
L 3366 3988 
Q 3128 4100 2886 4159 
Q 2644 4219 2406 4219 
Q 1781 4219 1451 3797 
Q 1122 3375 1075 2522 
Q 1259 2794 1537 2939 
Q 1816 3084 2150 3084 
Q 2853 3084 3261 2657 
Q 3669 2231 3669 1497 
Q 3669 778 3244 343 
Q 2819 -91 2113 -91 
Q 1303 -91 875 529 
Q 447 1150 447 2328 
Q 447 3434 972 4092 
Q 1497 4750 2381 4750 
Q 2619 4750 2861 4703 
Q 3103 4656 3366 4563 
z
" transform="scale(0.015625)"/>
        <path id="DejaVuSans-32" d="M 1228 531 
L 3431 531 
L 3431 0 
L 469 0 
L 469 531 
Q 828 903 1448 1529 
Q 2069 2156 2228 2338 
Q 2531 2678 2651 2914 
Q 2772 3150 2772 3378 
Q 2772 3750 2511 3984 
Q 2250 4219 1831 4219 
Q 1534 4219 1204 4116 
Q 875 4013 500 3803 
L 500 4441 
Q 881 4594 1212 4672 
Q 1544 4750 1819 4750 
Q 2544 4750 2975 4387 
Q 3406 4025 3406 3419 
Q 3406 3131 3298 2873 
Q 3191 2616 2906 2266 
Q 2828 2175 2409 1742 
Q 1991 1309 1228 531 
z
" transform="scale(0.015625)"/>
       </defs>
       <use xlink:href="#DejaVuSans-30"/>
       <use xlink:href="#DejaVuSans-38" x="63.623047"/>
       <use xlink:href="#DejaVuSans-2f" x="127.246094"/>
       <use xlink:href="#DejaVuSans-31" x="160.9375"/>
       <use xlink:href="#DejaVuSans-36" x="224.560547"/>
       <use xlink:href="#DejaVuSans-2f" x="288.183594"/>
       <use xlink:href="#DejaVuSans-32" x="321.875"/>
       <use xlink:href="#DejaVuSans-30" x="385.498047"/>
      </g>
     </g>
    </g>
    <g id="xtick_2">
     <g id="line2d_3">
      <path d="M 142.319676 167.544868 
L 142.319676 1.224868 
" clip-path="url(#p33caa3c003)" style="fill: none; stroke: #ffffff; stroke-width: 0.8; stroke-linecap: square"/>
     </g>
     <g id="line2d_4">
      <g>
       <use xlink:href="#mcb9311816d" x="142.319676" y="167.544868" style="fill: #555555; stroke: #555555; stroke-width: 0.8"/>
      </g>
     </g>
     <g id="text_2">
      <!-- 10/05/20 -->
      <g style="fill: #555555" transform="translate(119.863426 182.143305) scale(0.1 -0.1)">
       <defs>
        <path id="DejaVuSans-35" d="M 691 4666 
L 3169 4666 
L 3169 4134 
L 1269 4134 
L 1269 2991 
Q 1406 3038 1543 3061 
Q 1681 3084 1819 3084 
Q 2600 3084 3056 2656 
Q 3513 2228 3513 1497 
Q 3513 744 3044 326 
Q 2575 -91 1722 -91 
Q 1428 -91 1123 -41 
Q 819 9 494 109 
L 494 744 
Q 775 591 1075 516 
Q 1375 441 1709 441 
Q 2250 441 2565 725 
Q 2881 1009 2881 1497 
Q 2881 1984 2565 2268 
Q 2250 2553 1709 2553 
Q 1456 2553 1204 2497 
Q 953 2441 691 2322 
L 691 4666 
z
" transform="scale(0.015625)"/>
       </defs>
       <use xlink:href="#DejaVuSans-31"/>
       <use xlink:href="#DejaVuSans-30" x="63.623047"/>
       <use xlink:href="#DejaVuSans-2f" x="127.246094"/>
       <use xlink:href="#DejaVuSans-30" x="160.9375"/>
       <use xlink:href="#DejaVuSans-35" x="224.560547"/>
       <use xlink:href="#DejaVuSans-2f" x="288.183594"/>
       <use xlink:href="#DejaVuSans-32" x="321.875"/>
       <use xlink:href="#DejaVuSans-30" x="385.498047"/>
      </g>
     </g>
    </g>
    <g id="xtick_3">
     <g id="line2d_5">
      <path d="M 212.219461 167.544868 
L 212.219461 1.224868 
" clip-path="url(#p33caa3c003)" style="fill: none; stroke: #ffffff; stroke-width: 0.8; stroke-linecap: square"/>
     </g>
     <g id="line2d_6">
      <g>
       <use xlink:href="#mcb9311816d" x="212.219461" y="167.544868" style="fill: #555555; stroke: #555555; stroke-width: 0.8"/>
      </g>
     </g>
     <g id="text_3">
      <!-- 11/24/20 -->
      <g style="fill: #555555" transform="translate(189.763211 182.143305) scale(0.1 -0.1)">
       <defs>
        <path id="DejaVuSans-34" d="M 2419 4116 
L 825 1625 
L 2419 1625 
L 2419 4116 
z
M 2253 4666 
L 3047 4666 
L 3047 1625 
L 3713 1625 
L 3713 1100 
L 3047 1100 
L 3047 0 
L 2419 0 
L 2419 1100 
L 313 1100 
L 313 1709 
L 2253 4666 
z
" transform="scale(0.015625)"/>
       </defs>
       <use xlink:href="#DejaVuSans-31"/>
       <use xlink:href="#DejaVuSans-31" x="63.623047"/>
       <use xlink:href="#DejaVuSans-2f" x="127.246094"/>
       <use xlink:href="#DejaVuSans-32" x="160.9375"/>
       <use xlink:href="#DejaVuSans-34" x="224.560547"/>
       <use xlink:href="#DejaVuSans-2f" x="288.183594"/>
       <use xlink:href="#DejaVuSans-32" x="321.875"/>
       <use xlink:href="#DejaVuSans-30" x="385.498047"/>
      </g>
     </g>
    </g>
    <g id="xtick_4">
     <g id="line2d_7">
      <path d="M 282.119246 167.544868 
L 282.119246 1.224868 
" clip-path="url(#p33caa3c003)" style="fill: none; stroke: #ffffff; stroke-width: 0.8; stroke-linecap: square"/>
     </g>
     <g id="line2d_8">
      <g>
       <use xlink:href="#mcb9311816d" x="282.119246" y="167.544868" style="fill: #555555; stroke: #555555; stroke-width: 0.8"/>
      </g>
     </g>
     <g id="text_4">
      <!-- 01/13/21 -->
      <g style="fill: #555555" transform="translate(259.662996 182.143305) scale(0.1 -0.1)">
       <defs>
        <path id="DejaVuSans-33" d="M 2597 2516 
Q 3050 2419 3304 2112 
Q 3559 1806 3559 1356 
Q 3559 666 3084 287 
Q 2609 -91 1734 -91 
Q 1441 -91 1130 -33 
Q 819 25 488 141 
L 488 750 
Q 750 597 1062 519 
Q 1375 441 1716 441 
Q 2309 441 2620 675 
Q 2931 909 2931 1356 
Q 2931 1769 2642 2001 
Q 2353 2234 1838 2234 
L 1294 2234 
L 1294 2753 
L 1863 2753 
Q 2328 2753 2575 2939 
Q 2822 3125 2822 3475 
Q 2822 3834 2567 4026 
Q 2313 4219 1838 4219 
Q 1578 4219 1281 4162 
Q 984 4106 628 3988 
L 628 4550 
Q 988 4650 1302 4700 
Q 1616 4750 1894 4750 
Q 2613 4750 3031 4423 
Q 3450 4097 3450 3541 
Q 3450 3153 3228 2886 
Q 3006 2619 2597 2516 
z
" transform="scale(0.015625)"/>
       </defs>
       <use xlink:href="#DejaVuSans-30"/>
       <use xlink:href="#DejaVuSans-31" x="63.623047"/>
       <use xlink:href="#DejaVuSans-2f" x="127.246094"/>
       <use xlink:href="#DejaVuSans-31" x="160.9375"/>
       <use xlink:href="#DejaVuSans-33" x="224.560547"/>
       <use xlink:href="#DejaVuSans-2f" x="288.183594"/>
       <use xlink:href="#DejaVuSans-32" x="321.875"/>
       <use xlink:href="#DejaVuSans-31" x="385.498047"/>
      </g>
     </g>
    </g>
    <g id="xtick_5">
     <g id="line2d_9">
      <path d="M 352.019031 167.544868 
L 352.019031 1.224868 
" clip-path="url(#p33caa3c003)" style="fill: none; stroke: #ffffff; stroke-width: 0.8; stroke-linecap: square"/>
     </g>
     <g id="line2d_10">
      <g>
       <use xlink:href="#mcb9311816d" x="352.019031" y="167.544868" style="fill: #555555; stroke: #555555; stroke-width: 0.8"/>
      </g>
     </g>
     <g id="text_5">
      <!-- 03/04/21 -->
      <g style="fill: #555555" transform="translate(329.562781 182.143305) scale(0.1 -0.1)">
       <use xlink:href="#DejaVuSans-30"/>
       <use xlink:href="#DejaVuSans-33" x="63.623047"/>
       <use xlink:href="#DejaVuSans-2f" x="127.246094"/>
       <use xlink:href="#DejaVuSans-30" x="160.9375"/>
       <use xlink:href="#DejaVuSans-34" x="224.560547"/>
       <use xlink:href="#DejaVuSans-2f" x="288.183594"/>
       <use xlink:href="#DejaVuSans-32" x="321.875"/>
       <use xlink:href="#DejaVuSans-31" x="385.498047"/>
      </g>
     </g>
    </g>
    <g id="xtick_6">
     <g id="line2d_11">
      <path d="M 421.918817 167.544868 
L 421.918817 1.224868 
" clip-path="url(#p33caa3c003)" style="fill: none; stroke: #ffffff; stroke-width: 0.8; stroke-linecap: square"/>
     </g>
     <g id="line2d_12">
      <g>
       <use xlink:href="#mcb9311816d" x="421.918817" y="167.544868" style="fill: #555555; stroke: #555555; stroke-width: 0.8"/>
      </g>
     </g>
     <g id="text_6">
      <!-- 04/23/21 -->
      <g style="fill: #555555" transform="translate(399.462567 182.143305) scale(0.1 -0.1)">
       <use xlink:href="#DejaVuSans-30"/>
       <use xlink:href="#DejaVuSans-34" x="63.623047"/>
       <use xlink:href="#DejaVuSans-2f" x="127.246094"/>
       <use xlink:href="#DejaVuSans-32" x="160.9375"/>
       <use xlink:href="#DejaVuSans-33" x="224.560547"/>
       <use xlink:href="#DejaVuSans-2f" x="288.183594"/>
       <use xlink:href="#DejaVuSans-32" x="321.875"/>
       <use xlink:href="#DejaVuSans-31" x="385.498047"/>
      </g>
     </g>
    </g>
    <g id="text_7">
     <!-- Date -->
     <g style="fill: #555555" transform="translate(225.838438 197.341118) scale(0.12 -0.12)">
      <defs>
       <path id="DejaVuSans-44" d="M 1259 4147 
L 1259 519 
L 2022 519 
Q 2988 519 3436 956 
Q 3884 1394 3884 2338 
Q 3884 3275 3436 3711 
Q 2988 4147 2022 4147 
L 1259 4147 
z
M 628 4666 
L 1925 4666 
Q 3281 4666 3915 4102 
Q 4550 3538 4550 2338 
Q 4550 1131 3912 565 
Q 3275 0 1925 0 
L 628 0 
L 628 4666 
z
" transform="scale(0.015625)"/>
       <path id="DejaVuSans-61" d="M 2194 1759 
Q 1497 1759 1228 1600 
Q 959 1441 959 1056 
Q 959 750 1161 570 
Q 1363 391 1709 391 
Q 2188 391 2477 730 
Q 2766 1069 2766 1631 
L 2766 1759 
L 2194 1759 
z
M 3341 1997 
L 3341 0 
L 2766 0 
L 2766 531 
Q 2569 213 2275 61 
Q 1981 -91 1556 -91 
Q 1019 -91 701 211 
Q 384 513 384 1019 
Q 384 1609 779 1909 
Q 1175 2209 1959 2209 
L 2766 2209 
L 2766 2266 
Q 2766 2663 2505 2880 
Q 2244 3097 1772 3097 
Q 1472 3097 1187 3025 
Q 903 2953 641 2809 
L 641 3341 
Q 956 3463 1253 3523 
Q 1550 3584 1831 3584 
Q 2591 3584 2966 3190 
Q 3341 2797 3341 1997 
z
" transform="scale(0.015625)"/>
       <path id="DejaVuSans-74" d="M 1172 4494 
L 1172 3500 
L 2356 3500 
L 2356 3053 
L 1172 3053 
L 1172 1153 
Q 1172 725 1289 603 
Q 1406 481 1766 481 
L 2356 481 
L 2356 0 
L 1766 0 
Q 1100 0 847 248 
Q 594 497 594 1153 
L 594 3053 
L 172 3053 
L 172 3500 
L 594 3500 
L 594 4494 
L 1172 4494 
z
" transform="scale(0.015625)"/>
       <path id="DejaVuSans-65" d="M 3597 1894 
L 3597 1613 
L 953 1613 
Q 991 1019 1311 708 
Q 1631 397 2203 397 
Q 2534 397 2845 478 
Q 3156 559 3463 722 
L 3463 178 
Q 3153 47 2828 -22 
Q 2503 -91 2169 -91 
Q 1331 -91 842 396 
Q 353 884 353 1716 
Q 353 2575 817 3079 
Q 1281 3584 2069 3584 
Q 2775 3584 3186 3129 
Q 3597 2675 3597 1894 
z
M 3022 2063 
Q 3016 2534 2758 2815 
Q 2500 3097 2075 3097 
Q 1594 3097 1305 2825 
Q 1016 2553 972 2059 
L 3022 2063 
z
" transform="scale(0.015625)"/>
      </defs>
      <use xlink:href="#DejaVuSans-44"/>
      <use xlink:href="#DejaVuSans-61" x="77.001953"/>
      <use xlink:href="#DejaVuSans-74" x="138.28125"/>
      <use xlink:href="#DejaVuSans-65" x="177.490234"/>
     </g>
    </g>
   </g>
   <g id="matplotlib.axis_2">
    <g id="ytick_1">
     <g id="line2d_13">
      <path d="M 44.879375 139.440852 
L 435.479375 139.440852 
" clip-path="url(#p33caa3c003)" style="fill: none; stroke: #ffffff; stroke-width: 0.8; stroke-linecap: square"/>
     </g>
     <g id="line2d_14">
      <defs>
       <path id="m22a52663e2" d="M 0 0 
L -3.5 0 
" style="stroke: #555555; stroke-width: 0.8"/>
      </defs>
      <g>
       <use xlink:href="#m22a52663e2" x="44.879375" y="139.440852" style="fill: #555555; stroke: #555555; stroke-width: 0.8"/>
      </g>
     </g>
     <g id="text_8">
      <!-- 0.05 -->
      <g style="fill: #555555" transform="translate(15.61375 143.240071) scale(0.1 -0.1)">
       <defs>
        <path id="DejaVuSans-2e" d="M 684 794 
L 1344 794 
L 1344 0 
L 684 0 
L 684 794 
z
" transform="scale(0.015625)"/>
       </defs>
       <use xlink:href="#DejaVuSans-30"/>
       <use xlink:href="#DejaVuSans-2e" x="63.623047"/>
       <use xlink:href="#DejaVuSans-30" x="95.410156"/>
       <use xlink:href="#DejaVuSans-35" x="159.033203"/>
      </g>
     </g>
    </g>
    <g id="ytick_2">
     <g id="line2d_15">
      <path d="M 44.879375 105.530444 
L 435.479375 105.530444 
" clip-path="url(#p33caa3c003)" style="fill: none; stroke: #ffffff; stroke-width: 0.8; stroke-linecap: square"/>
     </g>
     <g id="line2d_16">
      <g>
       <use xlink:href="#m22a52663e2" x="44.879375" y="105.530444" style="fill: #555555; stroke: #555555; stroke-width: 0.8"/>
      </g>
     </g>
     <g id="text_9">
      <!-- 0.10 -->
      <g style="fill: #555555" transform="translate(15.61375 109.329662) scale(0.1 -0.1)">
       <use xlink:href="#DejaVuSans-30"/>
       <use xlink:href="#DejaVuSans-2e" x="63.623047"/>
       <use xlink:href="#DejaVuSans-31" x="95.410156"/>
       <use xlink:href="#DejaVuSans-30" x="159.033203"/>
      </g>
     </g>
    </g>
    <g id="ytick_3">
     <g id="line2d_17">
      <path d="M 44.879375 71.620035 
L 435.479375 71.620035 
" clip-path="url(#p33caa3c003)" style="fill: none; stroke: #ffffff; stroke-width: 0.8; stroke-linecap: square"/>
     </g>
     <g id="line2d_18">
      <g>
       <use xlink:href="#m22a52663e2" x="44.879375" y="71.620035" style="fill: #555555; stroke: #555555; stroke-width: 0.8"/>
      </g>
     </g>
     <g id="text_10">
      <!-- 0.15 -->
      <g style="fill: #555555" transform="translate(15.61375 75.419254) scale(0.1 -0.1)">
       <use xlink:href="#DejaVuSans-30"/>
       <use xlink:href="#DejaVuSans-2e" x="63.623047"/>
       <use xlink:href="#DejaVuSans-31" x="95.410156"/>
       <use xlink:href="#DejaVuSans-35" x="159.033203"/>
      </g>
     </g>
    </g>
    <g id="ytick_4">
     <g id="line2d_19">
      <path d="M 44.879375 37.709627 
L 435.479375 37.709627 
" clip-path="url(#p33caa3c003)" style="fill: none; stroke: #ffffff; stroke-width: 0.8; stroke-linecap: square"/>
     </g>
     <g id="line2d_20">
      <g>
       <use xlink:href="#m22a52663e2" x="44.879375" y="37.709627" style="fill: #555555; stroke: #555555; stroke-width: 0.8"/>
      </g>
     </g>
     <g id="text_11">
      <!-- 0.20 -->
      <g style="fill: #555555" transform="translate(15.61375 41.508846) scale(0.1 -0.1)">
       <use xlink:href="#DejaVuSans-30"/>
       <use xlink:href="#DejaVuSans-2e" x="63.623047"/>
       <use xlink:href="#DejaVuSans-32" x="95.410156"/>
       <use xlink:href="#DejaVuSans-30" x="159.033203"/>
      </g>
     </g>
    </g>
    <g id="ytick_5">
     <g id="line2d_21">
      <path d="M 44.879375 3.799219 
L 435.479375 3.799219 
" clip-path="url(#p33caa3c003)" style="fill: none; stroke: #ffffff; stroke-width: 0.8; stroke-linecap: square"/>
     </g>
     <g id="line2d_22">
      <g>
       <use xlink:href="#m22a52663e2" x="44.879375" y="3.799219" style="fill: #555555; stroke: #555555; stroke-width: 0.8"/>
      </g>
     </g>
     <g id="text_12">
      <!-- 0.25 -->
      <g style="fill: #555555" transform="translate(15.61375 7.598437) scale(0.1 -0.1)">
       <use xlink:href="#DejaVuSans-30"/>
       <use xlink:href="#DejaVuSans-2e" x="63.623047"/>
       <use xlink:href="#DejaVuSans-32" x="95.410156"/>
       <use xlink:href="#DejaVuSans-35" x="159.033203"/>
      </g>
     </g>
    </g>
    <g id="text_13">
     <!-- Value -->
     <g style="fill: #555555" transform="translate(9.118125 100.862368) rotate(-90) scale(0.12 -0.12)">
      <defs>
       <path id="DejaVuSans-56" d="M 1831 0 
L 50 4666 
L 709 4666 
L 2188 738 
L 3669 4666 
L 4325 4666 
L 2547 0 
L 1831 0 
z
" transform="scale(0.015625)"/>
       <path id="DejaVuSans-6c" d="M 603 4863 
L 1178 4863 
L 1178 0 
L 603 0 
L 603 4863 
z
" transform="scale(0.015625)"/>
       <path id="DejaVuSans-75" d="M 544 1381 
L 544 3500 
L 1119 3500 
L 1119 1403 
Q 1119 906 1312 657 
Q 1506 409 1894 409 
Q 2359 409 2629 706 
Q 2900 1003 2900 1516 
L 2900 3500 
L 3475 3500 
L 3475 0 
L 2900 0 
L 2900 538 
Q 2691 219 2414 64 
Q 2138 -91 1772 -91 
Q 1169 -91 856 284 
Q 544 659 544 1381 
z
M 1991 3584 
L 1991 3584 
z
" transform="scale(0.015625)"/>
      </defs>
      <use xlink:href="#DejaVuSans-56"/>
      <use xlink:href="#DejaVuSans-61" x="60.658203"/>
      <use xlink:href="#DejaVuSans-6c" x="121.9375"/>
      <use xlink:href="#DejaVuSans-75" x="149.720703"/>
      <use xlink:href="#DejaVuSans-65" x="213.099609"/>
     </g>
    </g>
   </g>
   <g id="PolyCollection_1">
    <defs>
     <path id="m890974de36" d="M 62.63392 -40.960875 
L 62.63392 -44.681342 
L 64.031916 -46.279428 
L 65.429912 -45.704092 
L 66.827908 -44.619048 
L 68.225903 -45.946024 
L 69.623899 -47.382237 
L 71.021895 -50.236858 
L 72.41989 -50.083353 
L 73.817886 -51.806769 
L 75.215882 -51.635244 
L 76.613878 -51.31143 
L 78.011873 -51.276781 
L 79.409869 -51.23357 
L 80.807865 -51.486275 
L 82.20586 -51.197819 
L 83.603856 -51.785487 
L 85.001852 -55.425258 
L 86.399847 -60.120711 
L 87.797843 -59.716922 
L 89.195839 -60.85219 
L 90.593835 -60.780321 
L 91.99183 -61.705123 
L 93.389826 -61.230507 
L 94.787822 -60.758227 
L 96.185817 -61.606114 
L 97.583813 -62.456012 
L 98.981809 -63.619701 
L 100.379804 -63.028881 
L 101.7778 -63.075712 
L 103.175796 -64.040961 
L 104.573792 -63.79872 
L 105.971787 -64.766668 
L 107.369783 -64.403201 
L 108.767779 -70.700292 
L 110.165774 -76.308369 
L 111.56377 -70.216664 
L 112.961766 -75.652581 
L 114.359762 -85.437006 
L 115.757757 -83.48689 
L 117.155753 -84.974794 
L 118.553749 -84.710614 
L 119.951744 -83.163746 
L 121.34974 -80.616036 
L 122.747736 -84.932297 
L 124.145731 -83.211853 
L 125.543727 -76.581768 
L 126.941723 -76.17554 
L 128.339719 -75.530521 
L 129.737714 -73.052474 
L 131.13571 -70.142901 
L 132.533706 -73.924187 
L 133.931701 -75.335097 
L 135.329697 -81.493586 
L 136.727693 -86.394577 
L 138.125689 -86.815022 
L 139.523684 -93.102593 
L 140.92168 -93.989661 
L 142.319676 -89.092377 
L 143.717671 -90.789766 
L 145.115667 -91.477333 
L 146.513663 -92.178195 
L 147.911658 -94.476436 
L 149.309654 -100.026487 
L 150.70765 -95.85291 
L 152.105646 -94.136346 
L 153.503641 -97.462485 
L 154.901637 -97.236444 
L 156.299633 -102.474988 
L 157.697628 -103.930996 
L 159.095624 -101.221817 
L 160.49362 -100.787259 
L 161.891616 -102.92392 
L 163.289611 -99.62082 
L 164.687607 -106.804584 
L 166.085603 -103.894157 
L 167.483598 -102.593154 
L 168.881594 -102.404835 
L 170.27959 -104.735393 
L 171.677585 -104.377499 
L 173.075581 -104.509741 
L 174.473577 -105.733189 
L 175.871573 -112.10384 
L 177.269568 -110.358809 
L 178.667564 -116.096543 
L 180.06556 -112.654652 
L 181.463555 -114.98237 
L 182.861551 -114.674024 
L 184.259547 -115.775104 
L 185.657543 -124.37078 
L 187.055538 -126.067172 
L 188.453534 -126.436736 
L 189.85153 -121.944533 
L 191.249525 -125.737724 
L 192.647521 -135.174298 
L 194.045517 -143.246583 
L 195.443512 -144.232748 
L 196.841508 -149.74958 
L 198.239504 -147.818214 
L 199.6375 -135.515109 
L 201.035495 -142.171308 
L 202.433491 -142.751021 
L 203.831487 -140.051977 
L 205.229482 -137.807754 
L 206.627478 -141.198032 
L 208.025474 -139.036754 
L 209.423469 -138.241449 
L 210.821465 -138.290495 
L 212.219461 -135.264247 
L 213.617457 -132.929502 
L 215.015452 -125.123346 
L 216.413448 -131.545813 
L 217.811444 -134.291053 
L 219.209439 -132.853079 
L 220.607435 -131.363658 
L 222.005431 -130.950927 
L 223.403427 -124.657696 
L 224.801422 -126.008114 
L 226.199418 -130.23972 
L 227.597414 -131.62293 
L 228.995409 -129.343178 
L 230.393405 -128.017068 
L 231.791401 -121.875893 
L 233.189396 -128.349139 
L 234.587392 -120.694266 
L 235.985388 -115.548271 
L 237.383384 -114.741131 
L 238.781379 -113.807561 
L 240.179375 -106.279834 
L 241.577371 -106.074959 
L 242.975366 -99.748465 
L 244.373362 -97.846957 
L 245.771358 -96.631592 
L 247.169354 -92.505121 
L 248.567349 -95.207909 
L 249.965345 -91.020726 
L 251.363341 -88.035869 
L 252.761336 -85.694832 
L 254.159332 -77.015845 
L 255.557328 -76.33057 
L 256.955323 -75.642442 
L 258.353319 -75.655679 
L 259.751315 -75.705815 
L 261.149311 -74.863797 
L 262.547306 -74.07102 
L 263.945302 -70.462066 
L 265.343298 -69.836337 
L 266.741293 -70.852018 
L 268.139289 -71.073421 
L 269.537285 -71.030416 
L 270.935281 -71.777753 
L 272.333276 -71.005887 
L 273.731272 -71.292209 
L 275.129268 -70.510706 
L 276.527263 -67.739194 
L 277.925259 -67.680937 
L 279.323255 -71.086726 
L 280.72125 -66.499794 
L 282.119246 -62.178823 
L 283.517242 -67.514961 
L 284.915238 -67.865629 
L 286.313233 -67.172528 
L 287.711229 -61.513824 
L 289.109225 -62.422417 
L 290.50722 -62.552141 
L 291.905216 -61.7084 
L 293.303212 -62.008711 
L 294.701207 -62.721698 
L 296.099203 -62.095546 
L 297.497199 -66.835826 
L 298.895195 -62.103481 
L 300.29319 -61.633612 
L 301.691186 -61.695946 
L 303.089182 -59.789072 
L 304.487177 -61.822468 
L 305.885173 -59.589784 
L 307.283169 -60.003998 
L 308.681165 -59.389209 
L 310.07916 -59.947922 
L 311.477156 -59.881893 
L 312.875152 -59.678086 
L 314.273147 -59.076191 
L 315.671143 -63.44307 
L 317.069139 -64.332195 
L 318.467134 -63.127456 
L 319.86513 -58.65252 
L 321.263126 -58.741012 
L 322.661122 -62.057034 
L 324.059117 -61.483404 
L 325.457113 -60.89388 
L 326.855109 -60.235694 
L 328.253104 -61.12538 
L 329.6511 -61.548243 
L 331.049096 -58.532465 
L 332.447092 -58.392222 
L 333.845087 -61.497417 
L 335.243083 -60.604331 
L 336.641079 -60.740574 
L 338.039074 -57.783799 
L 339.43707 -57.847178 
L 340.835066 -58.540839 
L 342.233061 -58.597649 
L 343.631057 -59.513046 
L 345.029053 -59.605695 
L 346.427049 -58.781791 
L 347.825044 -59.358775 
L 349.22304 -60.696696 
L 350.621036 -60.05404 
L 352.019031 -61.402366 
L 353.417027 -64.368714 
L 354.815023 -65.677782 
L 356.213019 -65.29272 
L 357.611014 -66.280305 
L 359.00901 -65.96554 
L 360.407006 -68.166053 
L 361.805001 -75.259112 
L 363.202997 -79.982784 
L 364.600993 -81.841684 
L 365.998988 -81.975515 
L 367.396984 -86.480419 
L 368.79498 -87.116148 
L 370.192976 -89.837279 
L 371.590971 -92.124711 
L 372.988967 -98.367827 
L 374.386963 -102.006826 
L 375.784958 -103.336146 
L 377.182954 -105.400609 
L 378.58095 -107.989718 
L 379.978946 -111.442134 
L 381.376941 -121.132407 
L 382.774937 -129.412948 
L 384.172933 -143.303156 
L 385.570928 -138.374622 
L 386.968924 -151.387752 
L 388.36692 -156.658564 
L 389.764915 -157.858986 
L 391.162911 -159.412992 
L 392.560907 -159.597702 
L 393.958903 -167.86906 
L 395.356898 -162.890207 
L 396.754894 -172.405434 
L 398.15289 -171.928049 
L 399.550885 -180.539048 
L 400.948881 -179.037977 
L 402.346877 -180.5173 
L 403.744872 -181.148907 
L 405.142868 -186.158579 
L 406.540864 -189.669825 
L 407.93886 -186.267934 
L 409.336855 -189.393843 
L 410.734851 -188.38633 
L 412.132847 -191.051875 
L 413.530842 -188.067588 
L 414.928838 -160.522627 
L 416.326834 -173.512348 
L 417.72483 -173.556573 
L 417.72483 -162.075414 
L 417.72483 -162.075414 
L 416.326834 -160.706768 
L 414.928838 -150.377995 
L 413.530842 -174.351142 
L 412.132847 -177.827647 
L 410.734851 -175.252588 
L 409.336855 -175.976389 
L 407.93886 -175.285627 
L 406.540864 -178.509706 
L 405.142868 -174.783442 
L 403.744872 -167.964591 
L 402.346877 -168.792655 
L 400.948881 -167.674002 
L 399.550885 -167.908343 
L 398.15289 -159.685113 
L 396.754894 -159.513124 
L 395.356898 -151.664034 
L 393.958903 -155.236186 
L 392.560907 -148.30424 
L 391.162911 -147.184717 
L 389.764915 -146.040595 
L 388.36692 -144.770054 
L 386.968924 -140.091103 
L 385.570928 -127.79437 
L 384.172933 -133.561508 
L 382.774937 -120.031078 
L 381.376941 -111.161181 
L 379.978946 -101.851481 
L 378.58095 -98.210163 
L 377.182954 -95.657376 
L 375.784958 -92.608537 
L 374.386963 -92.978682 
L 372.988967 -89.981229 
L 371.590971 -83.935317 
L 370.192976 -81.210471 
L 368.79498 -78.730913 
L 367.396984 -77.592614 
L 365.998988 -73.957545 
L 364.600993 -73.887059 
L 363.202997 -73.119132 
L 361.805001 -67.115954 
L 360.407006 -62.427724 
L 359.00901 -60.637862 
L 357.611014 -60.781699 
L 356.213019 -59.887511 
L 354.815023 -59.975543 
L 353.417027 -58.635544 
L 352.019031 -55.791775 
L 350.621036 -54.114174 
L 349.22304 -54.662278 
L 347.825044 -54.038017 
L 346.427049 -53.638169 
L 345.029053 -53.630507 
L 343.631057 -54.214364 
L 342.233061 -52.557688 
L 340.835066 -53.07739 
L 339.43707 -52.183928 
L 338.039074 -52.42747 
L 336.641079 -55.033027 
L 335.243083 -54.842372 
L 333.845087 -55.32822 
L 332.447092 -52.515438 
L 331.049096 -52.768789 
L 329.6511 -54.119745 
L 328.253104 -54.886016 
L 326.855109 -54.655997 
L 325.457113 -55.003799 
L 324.059117 -54.605698 
L 322.661122 -55.526068 
L 321.263126 -52.823742 
L 319.86513 -52.731895 
L 318.467134 -57.16028 
L 317.069139 -56.964516 
L 315.671143 -56.584374 
L 314.273147 -53.53484 
L 312.875152 -54.099116 
L 311.477156 -54.050294 
L 310.07916 -54.199427 
L 308.681165 -53.709418 
L 307.283169 -54.753576 
L 305.885173 -54.501437 
L 304.487177 -56.072026 
L 303.089182 -53.897831 
L 301.691186 -55.990887 
L 300.29319 -55.344077 
L 298.895195 -56.100804 
L 297.497199 -60.248555 
L 296.099203 -55.73631 
L 294.701207 -55.790629 
L 293.303212 -55.986919 
L 291.905216 -55.974024 
L 290.50722 -56.113934 
L 289.109225 -56.179574 
L 287.711229 -56.06174 
L 286.313233 -59.732769 
L 284.915238 -60.040687 
L 283.517242 -61.390265 
L 282.119246 -56.428487 
L 280.72125 -59.603369 
L 279.323255 -63.710662 
L 277.925259 -60.206917 
L 276.527263 -60.699994 
L 275.129268 -63.633003 
L 273.731272 -64.564957 
L 272.333276 -64.37833 
L 270.935281 -64.000573 
L 269.537285 -64.221352 
L 268.139289 -64.170784 
L 266.741293 -63.069331 
L 265.343298 -63.523157 
L 263.945302 -64.161065 
L 262.547306 -67.441547 
L 261.149311 -67.645679 
L 259.751315 -68.280894 
L 258.353319 -68.05014 
L 256.955323 -68.215072 
L 255.557328 -69.242473 
L 254.159332 -69.480331 
L 252.761336 -76.743131 
L 251.363341 -79.83965 
L 249.965345 -82.359926 
L 248.567349 -86.641667 
L 247.169354 -82.945021 
L 245.771358 -87.82203 
L 244.373362 -88.500404 
L 242.975366 -90.285291 
L 241.577371 -96.536372 
L 240.179375 -97.050971 
L 238.781379 -104.010987 
L 237.383384 -104.202797 
L 235.985388 -105.686495 
L 234.587392 -110.696842 
L 233.189396 -118.69411 
L 231.791401 -110.731448 
L 230.393405 -117.212191 
L 228.995409 -120.10476 
L 227.597414 -120.625398 
L 226.199418 -119.861698 
L 224.801422 -114.64412 
L 223.403427 -114.281905 
L 222.005431 -119.901263 
L 220.607435 -120.245806 
L 219.209439 -122.610532 
L 217.811444 -121.587514 
L 216.413448 -120.038107 
L 215.015452 -113.916914 
L 213.617457 -121.585533 
L 212.219461 -123.862101 
L 210.821465 -126.969284 
L 209.423469 -129.122059 
L 208.025474 -127.28616 
L 206.627478 -129.086513 
L 205.229482 -127.213705 
L 203.831487 -128.954436 
L 202.433491 -132.421212 
L 201.035495 -130.881862 
L 199.6375 -123.676851 
L 198.239504 -134.958688 
L 196.841508 -135.528555 
L 195.443512 -130.35066 
L 194.045517 -129.329045 
L 192.647521 -123.982579 
L 191.249525 -113.965431 
L 189.85153 -111.005951 
L 188.453534 -115.467179 
L 187.055538 -114.043894 
L 185.657543 -113.265884 
L 184.259547 -104.069904 
L 182.861551 -102.878218 
L 181.463555 -103.646318 
L 180.06556 -100.265832 
L 178.667564 -103.728547 
L 177.269568 -98.537343 
L 175.871573 -99.881402 
L 174.473577 -94.12463 
L 173.075581 -93.996446 
L 171.677585 -94.008937 
L 170.27959 -94.149026 
L 168.881594 -90.509596 
L 167.483598 -91.511309 
L 166.085603 -92.804743 
L 164.687607 -95.916642 
L 163.289611 -90.658153 
L 161.891616 -91.292541 
L 160.49362 -89.356586 
L 159.095624 -90.478796 
L 157.697628 -92.540209 
L 156.299633 -91.372772 
L 154.901637 -87.433283 
L 153.503641 -86.774242 
L 152.105646 -85.05661 
L 150.70765 -86.597504 
L 149.309654 -91.508213 
L 147.911658 -85.751987 
L 146.513663 -83.074706 
L 145.115667 -83.366129 
L 143.717671 -82.723502 
L 142.319676 -81.379607 
L 140.92168 -85.026584 
L 139.523684 -85.481586 
L 138.125689 -78.47904 
L 136.727693 -79.19499 
L 135.329697 -74.027941 
L 133.931701 -68.569313 
L 132.533706 -67.442978 
L 131.13571 -63.408858 
L 129.737714 -67.299598 
L 128.339719 -68.785123 
L 126.941723 -69.300035 
L 125.543727 -68.651048 
L 124.145731 -76.542378 
L 122.747736 -75.916568 
L 121.34974 -73.032492 
L 119.951744 -76.307992 
L 118.553749 -78.543945 
L 117.155753 -77.788736 
L 115.757757 -76.294019 
L 114.359762 -77.278605 
L 112.961766 -69.684332 
L 111.56377 -63.311474 
L 110.165774 -69.975914 
L 108.767779 -65.759029 
L 107.369783 -58.638944 
L 105.971787 -58.012064 
L 104.573792 -57.366275 
L 103.175796 -57.910878 
L 101.7778 -57.075972 
L 100.379804 -57.556748 
L 98.981809 -57.765967 
L 97.583813 -56.60798 
L 96.185817 -55.755868 
L 94.787822 -54.819572 
L 93.389826 -56.355688 
L 91.99183 -56.389921 
L 90.593835 -54.082736 
L 89.195839 -54.56772 
L 87.797843 -54.37154 
L 86.399847 -54.445687 
L 85.001852 -50.725551 
L 83.603856 -47.675633 
L 82.20586 -47.312786 
L 80.807865 -47.672243 
L 79.409869 -46.456218 
L 78.011873 -46.925143 
L 76.613878 -46.775992 
L 75.215882 -47.57653 
L 73.817886 -46.95055 
L 72.41989 -45.989891 
L 71.021895 -46.213344 
L 69.623899 -43.115153 
L 68.225903 -42.365376 
L 66.827908 -40.869899 
L 65.429912 -42.109303 
L 64.031916 -42.004631 
L 62.63392 -40.960875 
z
" style="stroke: #0db14b; stroke-opacity: 0.5; stroke-width: 0.5"/>
    </defs>
    <g clip-path="url(#p33caa3c003)">
     <use xlink:href="#m890974de36" x="0" y="199.836743" style="fill: #0db14b; fill-opacity: 0.5; stroke: #0db14b; stroke-opacity: 0.5; stroke-width: 0.5"/>
    </g>
   </g>
   <g id="line2d_23">
    <path d="M 62.63392 157.015634 
L 64.031916 155.694713 
L 65.429912 155.930045 
L 66.827908 157.092269 
L 68.225903 155.681043 
L 69.623899 154.588047 
L 71.021895 151.611641 
L 72.41989 151.80012 
L 73.817886 150.458083 
L 75.215882 150.230856 
L 76.613878 150.793032 
L 78.011873 150.735781 
L 79.409869 150.991848 
L 80.807865 150.257484 
L 82.20586 150.58144 
L 83.603856 150.106182 
L 85.001852 146.761338 
L 86.399847 142.553544 
L 87.797843 142.792512 
L 89.195839 142.126788 
L 90.593835 142.405214 
L 91.99183 140.78922 
L 93.389826 141.043645 
L 94.787822 142.047843 
L 97.583813 140.304746 
L 98.981809 139.143908 
L 100.379804 139.543928 
L 101.7778 139.760901 
L 103.175796 138.860823 
L 104.573792 139.254245 
L 105.971787 138.447376 
L 107.369783 138.31567 
L 108.767779 131.607082 
L 110.165774 126.694601 
L 111.56377 133.072673 
L 112.961766 127.168286 
L 114.359762 118.478937 
L 115.757757 119.946288 
L 117.155753 118.454977 
L 118.553749 118.209463 
L 119.951744 120.100874 
L 121.34974 123.012479 
L 122.747736 119.41231 
L 124.145731 119.959627 
L 125.543727 127.220335 
L 126.941723 127.098955 
L 128.339719 127.678921 
L 129.737714 129.660707 
L 131.13571 133.060863 
L 132.533706 129.15316 
L 133.931701 127.884538 
L 135.329697 122.075979 
L 136.727693 117.041959 
L 138.125689 117.189712 
L 139.523684 110.544653 
L 140.92168 110.32862 
L 142.319676 114.600751 
L 143.717671 113.080109 
L 145.115667 112.415012 
L 146.513663 112.210292 
L 147.911658 109.722531 
L 149.309654 104.069392 
L 150.70765 108.611535 
L 152.105646 110.240265 
L 153.503641 107.718379 
L 154.901637 107.501879 
L 156.299633 102.912862 
L 157.697628 101.60114 
L 159.095624 103.986436 
L 160.49362 104.76482 
L 161.891616 102.728512 
L 163.289611 104.697256 
L 164.687607 98.47613 
L 166.085603 101.487293 
L 167.483598 102.784511 
L 168.881594 103.379527 
L 170.27959 100.394533 
L 171.677585 100.643525 
L 173.075581 100.583649 
L 174.473577 99.907833 
L 175.871573 93.844121 
L 177.269568 95.388667 
L 178.667564 89.924197 
L 180.06556 93.3765 
L 181.463555 90.522399 
L 182.861551 91.060621 
L 184.259547 89.914238 
L 185.657543 81.01841 
L 187.055538 79.78121 
L 188.453534 78.884785 
L 189.85153 83.361501 
L 191.249525 79.985165 
L 192.647521 70.258304 
L 194.045517 63.548928 
L 195.443512 62.545038 
L 196.841508 57.197675 
L 198.239504 58.448291 
L 199.6375 70.240762 
L 201.035495 63.310157 
L 202.433491 62.250626 
L 203.831487 65.333536 
L 205.229482 67.326013 
L 206.627478 64.69447 
L 208.025474 66.675286 
L 209.423469 66.154989 
L 210.821465 67.206853 
L 212.219461 70.273569 
L 213.617457 72.579225 
L 215.015452 80.316612 
L 216.413448 74.044783 
L 217.811444 71.897459 
L 219.209439 72.104937 
L 220.607435 74.032011 
L 222.005431 74.410647 
L 223.403427 80.366942 
L 224.801422 79.510626 
L 226.199418 74.786033 
L 227.597414 73.712578 
L 228.995409 75.112774 
L 230.393405 77.222113 
L 231.791401 83.533072 
L 233.189396 76.315118 
L 234.587392 84.141188 
L 235.985388 89.219359 
L 237.383384 90.364778 
L 238.781379 90.927468 
L 240.179375 98.17134 
L 241.577371 98.531077 
L 242.975366 104.819864 
L 244.373362 106.663062 
L 245.771358 107.609932 
L 247.169354 112.111671 
L 248.567349 108.911955 
L 249.965345 113.146417 
L 252.761336 118.617761 
L 254.159332 126.588655 
L 255.557328 127.050221 
L 256.955323 127.907985 
L 258.353319 127.983833 
L 259.751315 127.843388 
L 261.149311 128.582004 
L 262.547306 129.080459 
L 263.945302 132.525177 
L 265.343298 133.156995 
L 266.741293 132.876068 
L 268.139289 132.21464 
L 269.537285 132.210859 
L 270.935281 131.94758 
L 272.333276 132.144634 
L 273.731272 131.90816 
L 275.129268 132.764888 
L 276.527263 135.617148 
L 277.925259 135.892815 
L 279.323255 132.438048 
L 280.72125 136.785161 
L 282.119246 140.533088 
L 283.517242 135.38413 
L 286.313233 136.384094 
L 287.711229 141.048961 
L 289.109225 140.535747 
L 290.50722 140.503705 
L 291.905216 140.99553 
L 294.701207 140.580579 
L 296.099203 140.920814 
L 297.497199 136.294552 
L 298.895195 140.7346 
L 300.29319 141.347898 
L 301.691186 140.993326 
L 303.089182 142.993291 
L 304.487177 140.889496 
L 305.885173 142.791132 
L 307.283169 142.457955 
L 308.681165 143.287429 
L 310.07916 142.763068 
L 312.875152 142.948141 
L 314.273147 143.531227 
L 315.671143 139.823021 
L 317.069139 139.188387 
L 318.467134 139.692874 
L 319.86513 144.144535 
L 321.263126 144.054366 
L 322.661122 141.045192 
L 324.059117 141.792192 
L 325.457113 141.887903 
L 326.855109 142.390897 
L 328.253104 141.831044 
L 329.6511 142.002749 
L 331.049096 144.186115 
L 332.447092 144.382912 
L 333.845087 141.423924 
L 335.243083 142.113391 
L 336.641079 141.949942 
L 338.039074 144.731108 
L 339.43707 144.82119 
L 340.835066 144.027628 
L 342.233061 144.259074 
L 343.631057 142.973037 
L 345.029053 143.218642 
L 346.427049 143.626763 
L 347.825044 143.138347 
L 349.22304 142.157256 
L 350.621036 142.752636 
L 352.019031 141.239672 
L 353.417027 138.334614 
L 354.815023 137.01008 
L 356.213019 137.246627 
L 357.611014 136.30574 
L 359.00901 136.535041 
L 360.407006 134.539854 
L 361.805001 128.649209 
L 363.202997 123.285785 
L 364.600993 121.972371 
L 365.998988 121.870213 
L 367.396984 117.800226 
L 368.79498 116.913212 
L 371.590971 111.806729 
L 372.988967 105.662215 
L 374.386963 102.343989 
L 375.784958 101.864401 
L 378.58095 96.736802 
L 379.978946 93.189935 
L 381.376941 83.689949 
L 382.774937 75.114729 
L 384.172933 61.40441 
L 385.570928 66.752247 
L 386.968924 54.097315 
L 388.36692 49.122433 
L 391.162911 46.537888 
L 392.560907 45.885772 
L 393.958903 38.28412 
L 395.356898 42.559622 
L 396.754894 33.877463 
L 398.15289 34.030162 
L 399.550885 25.613047 
L 400.948881 26.480753 
L 402.346877 25.181765 
L 403.744872 25.279993 
L 405.142868 19.365732 
L 406.540864 15.746977 
L 407.93886 19.059962 
L 409.336855 17.151627 
L 410.734851 18.017283 
L 412.132847 15.396981 
L 413.530842 18.627378 
L 414.928838 44.386432 
L 416.326834 32.727184 
L 417.72483 32.020749 
L 417.72483 32.020749 
" clip-path="url(#p33caa3c003)" style="fill: none; stroke: #0db14b; stroke-width: 3; stroke-linecap: square"/>
    <defs>
     <path id="m035c85f679" d="M 0 1.5 
C 0.397805 1.5 0.77937 1.341951 1.06066 1.06066 
C 1.341951 0.77937 1.5 0.397805 1.5 0 
C 1.5 -0.397805 1.341951 -0.77937 1.06066 -1.06066 
C 0.77937 -1.341951 0.397805 -1.5 0 -1.5 
C -0.397805 -1.5 -0.77937 -1.341951 -1.06066 -1.06066 
C -1.341951 -0.77937 -1.5 -0.397805 -1.5 0 
C -1.5 0.397805 -1.341951 0.77937 -1.06066 1.06066 
C -0.77937 1.341951 -0.397805 1.5 0 1.5 
z
" style="stroke: #0db14b"/>
    </defs>
    <g clip-path="url(#p33caa3c003)">
     <use xlink:href="#m035c85f679" x="62.63392" y="157.015634" style="fill: #0db14b; stroke: #0db14b"/>
     <use xlink:href="#m035c85f679" x="64.031916" y="155.694713" style="fill: #0db14b; stroke: #0db14b"/>
     <use xlink:href="#m035c85f679" x="65.429912" y="155.930045" style="fill: #0db14b; stroke: #0db14b"/>
     <use xlink:href="#m035c85f679" x="66.827908" y="157.092269" style="fill: #0db14b; stroke: #0db14b"/>
     <use xlink:href="#m035c85f679" x="68.225903" y="155.681043" style="fill: #0db14b; stroke: #0db14b"/>
     <use xlink:href="#m035c85f679" x="69.623899" y="154.588047" style="fill: #0db14b; stroke: #0db14b"/>
     <use xlink:href="#m035c85f679" x="71.021895" y="151.611641" style="fill: #0db14b; stroke: #0db14b"/>
     <use xlink:href="#m035c85f679" x="72.41989" y="151.80012" style="fill: #0db14b; stroke: #0db14b"/>
     <use xlink:href="#m035c85f679" x="73.817886" y="150.458083" style="fill: #0db14b; stroke: #0db14b"/>
     <use xlink:href="#m035c85f679" x="75.215882" y="150.230856" style="fill: #0db14b; stroke: #0db14b"/>
     <use xlink:href="#m035c85f679" x="76.613878" y="150.793032" style="fill: #0db14b; stroke: #0db14b"/>
     <use xlink:href="#m035c85f679" x="78.011873" y="150.735781" style="fill: #0db14b; stroke: #0db14b"/>
     <use xlink:href="#m035c85f679" x="79.409869" y="150.991848" style="fill: #0db14b; stroke: #0db14b"/>
     <use xlink:href="#m035c85f679" x="80.807865" y="150.257484" style="fill: #0db14b; stroke: #0db14b"/>
     <use xlink:href="#m035c85f679" x="82.20586" y="150.58144" style="fill: #0db14b; stroke: #0db14b"/>
     <use xlink:href="#m035c85f679" x="83.603856" y="150.106182" style="fill: #0db14b; stroke: #0db14b"/>
     <use xlink:href="#m035c85f679" x="85.001852" y="146.761338" style="fill: #0db14b; stroke: #0db14b"/>
     <use xlink:href="#m035c85f679" x="86.399847" y="142.553544" style="fill: #0db14b; stroke: #0db14b"/>
     <use xlink:href="#m035c85f679" x="87.797843" y="142.792512" style="fill: #0db14b; stroke: #0db14b"/>
     <use xlink:href="#m035c85f679" x="89.195839" y="142.126788" style="fill: #0db14b; stroke: #0db14b"/>
     <use xlink:href="#m035c85f679" x="90.593835" y="142.405214" style="fill: #0db14b; stroke: #0db14b"/>
     <use xlink:href="#m035c85f679" x="91.99183" y="140.78922" style="fill: #0db14b; stroke: #0db14b"/>
     <use xlink:href="#m035c85f679" x="93.389826" y="141.043645" style="fill: #0db14b; stroke: #0db14b"/>
     <use xlink:href="#m035c85f679" x="94.787822" y="142.047843" style="fill: #0db14b; stroke: #0db14b"/>
     <use xlink:href="#m035c85f679" x="96.185817" y="141.155752" style="fill: #0db14b; stroke: #0db14b"/>
     <use xlink:href="#m035c85f679" x="97.583813" y="140.304746" style="fill: #0db14b; stroke: #0db14b"/>
     <use xlink:href="#m035c85f679" x="98.981809" y="139.143908" style="fill: #0db14b; stroke: #0db14b"/>
     <use xlink:href="#m035c85f679" x="100.379804" y="139.543928" style="fill: #0db14b; stroke: #0db14b"/>
     <use xlink:href="#m035c85f679" x="101.7778" y="139.760901" style="fill: #0db14b; stroke: #0db14b"/>
     <use xlink:href="#m035c85f679" x="103.175796" y="138.860823" style="fill: #0db14b; stroke: #0db14b"/>
     <use xlink:href="#m035c85f679" x="104.573792" y="139.254245" style="fill: #0db14b; stroke: #0db14b"/>
     <use xlink:href="#m035c85f679" x="105.971787" y="138.447376" style="fill: #0db14b; stroke: #0db14b"/>
     <use xlink:href="#m035c85f679" x="107.369783" y="138.31567" style="fill: #0db14b; stroke: #0db14b"/>
     <use xlink:href="#m035c85f679" x="108.767779" y="131.607082" style="fill: #0db14b; stroke: #0db14b"/>
     <use xlink:href="#m035c85f679" x="110.165774" y="126.694601" style="fill: #0db14b; stroke: #0db14b"/>
     <use xlink:href="#m035c85f679" x="111.56377" y="133.072673" style="fill: #0db14b; stroke: #0db14b"/>
     <use xlink:href="#m035c85f679" x="112.961766" y="127.168286" style="fill: #0db14b; stroke: #0db14b"/>
     <use xlink:href="#m035c85f679" x="114.359762" y="118.478937" style="fill: #0db14b; stroke: #0db14b"/>
     <use xlink:href="#m035c85f679" x="115.757757" y="119.946288" style="fill: #0db14b; stroke: #0db14b"/>
     <use xlink:href="#m035c85f679" x="117.155753" y="118.454977" style="fill: #0db14b; stroke: #0db14b"/>
     <use xlink:href="#m035c85f679" x="118.553749" y="118.209463" style="fill: #0db14b; stroke: #0db14b"/>
     <use xlink:href="#m035c85f679" x="119.951744" y="120.100874" style="fill: #0db14b; stroke: #0db14b"/>
     <use xlink:href="#m035c85f679" x="121.34974" y="123.012479" style="fill: #0db14b; stroke: #0db14b"/>
     <use xlink:href="#m035c85f679" x="122.747736" y="119.41231" style="fill: #0db14b; stroke: #0db14b"/>
     <use xlink:href="#m035c85f679" x="124.145731" y="119.959627" style="fill: #0db14b; stroke: #0db14b"/>
     <use xlink:href="#m035c85f679" x="125.543727" y="127.220335" style="fill: #0db14b; stroke: #0db14b"/>
     <use xlink:href="#m035c85f679" x="126.941723" y="127.098955" style="fill: #0db14b; stroke: #0db14b"/>
     <use xlink:href="#m035c85f679" x="128.339719" y="127.678921" style="fill: #0db14b; stroke: #0db14b"/>
     <use xlink:href="#m035c85f679" x="129.737714" y="129.660707" style="fill: #0db14b; stroke: #0db14b"/>
     <use xlink:href="#m035c85f679" x="131.13571" y="133.060863" style="fill: #0db14b; stroke: #0db14b"/>
     <use xlink:href="#m035c85f679" x="132.533706" y="129.15316" style="fill: #0db14b; stroke: #0db14b"/>
     <use xlink:href="#m035c85f679" x="133.931701" y="127.884538" style="fill: #0db14b; stroke: #0db14b"/>
     <use xlink:href="#m035c85f679" x="135.329697" y="122.075979" style="fill: #0db14b; stroke: #0db14b"/>
     <use xlink:href="#m035c85f679" x="136.727693" y="117.041959" style="fill: #0db14b; stroke: #0db14b"/>
     <use xlink:href="#m035c85f679" x="138.125689" y="117.189712" style="fill: #0db14b; stroke: #0db14b"/>
     <use xlink:href="#m035c85f679" x="139.523684" y="110.544653" style="fill: #0db14b; stroke: #0db14b"/>
     <use xlink:href="#m035c85f679" x="140.92168" y="110.32862" style="fill: #0db14b; stroke: #0db14b"/>
     <use xlink:href="#m035c85f679" x="142.319676" y="114.600751" style="fill: #0db14b; stroke: #0db14b"/>
     <use xlink:href="#m035c85f679" x="143.717671" y="113.080109" style="fill: #0db14b; stroke: #0db14b"/>
     <use xlink:href="#m035c85f679" x="145.115667" y="112.415012" style="fill: #0db14b; stroke: #0db14b"/>
     <use xlink:href="#m035c85f679" x="146.513663" y="112.210292" style="fill: #0db14b; stroke: #0db14b"/>
     <use xlink:href="#m035c85f679" x="147.911658" y="109.722531" style="fill: #0db14b; stroke: #0db14b"/>
     <use xlink:href="#m035c85f679" x="149.309654" y="104.069392" style="fill: #0db14b; stroke: #0db14b"/>
     <use xlink:href="#m035c85f679" x="150.70765" y="108.611535" style="fill: #0db14b; stroke: #0db14b"/>
     <use xlink:href="#m035c85f679" x="152.105646" y="110.240265" style="fill: #0db14b; stroke: #0db14b"/>
     <use xlink:href="#m035c85f679" x="153.503641" y="107.718379" style="fill: #0db14b; stroke: #0db14b"/>
     <use xlink:href="#m035c85f679" x="154.901637" y="107.501879" style="fill: #0db14b; stroke: #0db14b"/>
     <use xlink:href="#m035c85f679" x="156.299633" y="102.912862" style="fill: #0db14b; stroke: #0db14b"/>
     <use xlink:href="#m035c85f679" x="157.697628" y="101.60114" style="fill: #0db14b; stroke: #0db14b"/>
     <use xlink:href="#m035c85f679" x="159.095624" y="103.986436" style="fill: #0db14b; stroke: #0db14b"/>
     <use xlink:href="#m035c85f679" x="160.49362" y="104.76482" style="fill: #0db14b; stroke: #0db14b"/>
     <use xlink:href="#m035c85f679" x="161.891616" y="102.728512" style="fill: #0db14b; stroke: #0db14b"/>
     <use xlink:href="#m035c85f679" x="163.289611" y="104.697256" style="fill: #0db14b; stroke: #0db14b"/>
     <use xlink:href="#m035c85f679" x="164.687607" y="98.47613" style="fill: #0db14b; stroke: #0db14b"/>
     <use xlink:href="#m035c85f679" x="166.085603" y="101.487293" style="fill: #0db14b; stroke: #0db14b"/>
     <use xlink:href="#m035c85f679" x="167.483598" y="102.784511" style="fill: #0db14b; stroke: #0db14b"/>
     <use xlink:href="#m035c85f679" x="168.881594" y="103.379527" style="fill: #0db14b; stroke: #0db14b"/>
     <use xlink:href="#m035c85f679" x="170.27959" y="100.394533" style="fill: #0db14b; stroke: #0db14b"/>
     <use xlink:href="#m035c85f679" x="171.677585" y="100.643525" style="fill: #0db14b; stroke: #0db14b"/>
     <use xlink:href="#m035c85f679" x="173.075581" y="100.583649" style="fill: #0db14b; stroke: #0db14b"/>
     <use xlink:href="#m035c85f679" x="174.473577" y="99.907833" style="fill: #0db14b; stroke: #0db14b"/>
     <use xlink:href="#m035c85f679" x="175.871573" y="93.844121" style="fill: #0db14b; stroke: #0db14b"/>
     <use xlink:href="#m035c85f679" x="177.269568" y="95.388667" style="fill: #0db14b; stroke: #0db14b"/>
     <use xlink:href="#m035c85f679" x="178.667564" y="89.924197" style="fill: #0db14b; stroke: #0db14b"/>
     <use xlink:href="#m035c85f679" x="180.06556" y="93.3765" style="fill: #0db14b; stroke: #0db14b"/>
     <use xlink:href="#m035c85f679" x="181.463555" y="90.522399" style="fill: #0db14b; stroke: #0db14b"/>
     <use xlink:href="#m035c85f679" x="182.861551" y="91.060621" style="fill: #0db14b; stroke: #0db14b"/>
     <use xlink:href="#m035c85f679" x="184.259547" y="89.914238" style="fill: #0db14b; stroke: #0db14b"/>
     <use xlink:href="#m035c85f679" x="185.657543" y="81.01841" style="fill: #0db14b; stroke: #0db14b"/>
     <use xlink:href="#m035c85f679" x="187.055538" y="79.78121" style="fill: #0db14b; stroke: #0db14b"/>
     <use xlink:href="#m035c85f679" x="188.453534" y="78.884785" style="fill: #0db14b; stroke: #0db14b"/>
     <use xlink:href="#m035c85f679" x="189.85153" y="83.361501" style="fill: #0db14b; stroke: #0db14b"/>
     <use xlink:href="#m035c85f679" x="191.249525" y="79.985165" style="fill: #0db14b; stroke: #0db14b"/>
     <use xlink:href="#m035c85f679" x="192.647521" y="70.258304" style="fill: #0db14b; stroke: #0db14b"/>
     <use xlink:href="#m035c85f679" x="194.045517" y="63.548928" style="fill: #0db14b; stroke: #0db14b"/>
     <use xlink:href="#m035c85f679" x="195.443512" y="62.545038" style="fill: #0db14b; stroke: #0db14b"/>
     <use xlink:href="#m035c85f679" x="196.841508" y="57.197675" style="fill: #0db14b; stroke: #0db14b"/>
     <use xlink:href="#m035c85f679" x="198.239504" y="58.448291" style="fill: #0db14b; stroke: #0db14b"/>
     <use xlink:href="#m035c85f679" x="199.6375" y="70.240762" style="fill: #0db14b; stroke: #0db14b"/>
     <use xlink:href="#m035c85f679" x="201.035495" y="63.310157" style="fill: #0db14b; stroke: #0db14b"/>
     <use xlink:href="#m035c85f679" x="202.433491" y="62.250626" style="fill: #0db14b; stroke: #0db14b"/>
     <use xlink:href="#m035c85f679" x="203.831487" y="65.333536" style="fill: #0db14b; stroke: #0db14b"/>
     <use xlink:href="#m035c85f679" x="205.229482" y="67.326013" style="fill: #0db14b; stroke: #0db14b"/>
     <use xlink:href="#m035c85f679" x="206.627478" y="64.69447" style="fill: #0db14b; stroke: #0db14b"/>
     <use xlink:href="#m035c85f679" x="208.025474" y="66.675286" style="fill: #0db14b; stroke: #0db14b"/>
     <use xlink:href="#m035c85f679" x="209.423469" y="66.154989" style="fill: #0db14b; stroke: #0db14b"/>
     <use xlink:href="#m035c85f679" x="210.821465" y="67.206853" style="fill: #0db14b; stroke: #0db14b"/>
     <use xlink:href="#m035c85f679" x="212.219461" y="70.273569" style="fill: #0db14b; stroke: #0db14b"/>
     <use xlink:href="#m035c85f679" x="213.617457" y="72.579225" style="fill: #0db14b; stroke: #0db14b"/>
     <use xlink:href="#m035c85f679" x="215.015452" y="80.316612" style="fill: #0db14b; stroke: #0db14b"/>
     <use xlink:href="#m035c85f679" x="216.413448" y="74.044783" style="fill: #0db14b; stroke: #0db14b"/>
     <use xlink:href="#m035c85f679" x="217.811444" y="71.897459" style="fill: #0db14b; stroke: #0db14b"/>
     <use xlink:href="#m035c85f679" x="219.209439" y="72.104937" style="fill: #0db14b; stroke: #0db14b"/>
     <use xlink:href="#m035c85f679" x="220.607435" y="74.032011" style="fill: #0db14b; stroke: #0db14b"/>
     <use xlink:href="#m035c85f679" x="222.005431" y="74.410647" style="fill: #0db14b; stroke: #0db14b"/>
     <use xlink:href="#m035c85f679" x="223.403427" y="80.366942" style="fill: #0db14b; stroke: #0db14b"/>
     <use xlink:href="#m035c85f679" x="224.801422" y="79.510626" style="fill: #0db14b; stroke: #0db14b"/>
     <use xlink:href="#m035c85f679" x="226.199418" y="74.786033" style="fill: #0db14b; stroke: #0db14b"/>
     <use xlink:href="#m035c85f679" x="227.597414" y="73.712578" style="fill: #0db14b; stroke: #0db14b"/>
     <use xlink:href="#m035c85f679" x="228.995409" y="75.112774" style="fill: #0db14b; stroke: #0db14b"/>
     <use xlink:href="#m035c85f679" x="230.393405" y="77.222113" style="fill: #0db14b; stroke: #0db14b"/>
     <use xlink:href="#m035c85f679" x="231.791401" y="83.533072" style="fill: #0db14b; stroke: #0db14b"/>
     <use xlink:href="#m035c85f679" x="233.189396" y="76.315118" style="fill: #0db14b; stroke: #0db14b"/>
     <use xlink:href="#m035c85f679" x="234.587392" y="84.141188" style="fill: #0db14b; stroke: #0db14b"/>
     <use xlink:href="#m035c85f679" x="235.985388" y="89.219359" style="fill: #0db14b; stroke: #0db14b"/>
     <use xlink:href="#m035c85f679" x="237.383384" y="90.364778" style="fill: #0db14b; stroke: #0db14b"/>
     <use xlink:href="#m035c85f679" x="238.781379" y="90.927468" style="fill: #0db14b; stroke: #0db14b"/>
     <use xlink:href="#m035c85f679" x="240.179375" y="98.17134" style="fill: #0db14b; stroke: #0db14b"/>
     <use xlink:href="#m035c85f679" x="241.577371" y="98.531077" style="fill: #0db14b; stroke: #0db14b"/>
     <use xlink:href="#m035c85f679" x="242.975366" y="104.819864" style="fill: #0db14b; stroke: #0db14b"/>
     <use xlink:href="#m035c85f679" x="244.373362" y="106.663062" style="fill: #0db14b; stroke: #0db14b"/>
     <use xlink:href="#m035c85f679" x="245.771358" y="107.609932" style="fill: #0db14b; stroke: #0db14b"/>
     <use xlink:href="#m035c85f679" x="247.169354" y="112.111671" style="fill: #0db14b; stroke: #0db14b"/>
     <use xlink:href="#m035c85f679" x="248.567349" y="108.911955" style="fill: #0db14b; stroke: #0db14b"/>
     <use xlink:href="#m035c85f679" x="249.965345" y="113.146417" style="fill: #0db14b; stroke: #0db14b"/>
     <use xlink:href="#m035c85f679" x="251.363341" y="115.898983" style="fill: #0db14b; stroke: #0db14b"/>
     <use xlink:href="#m035c85f679" x="252.761336" y="118.617761" style="fill: #0db14b; stroke: #0db14b"/>
     <use xlink:href="#m035c85f679" x="254.159332" y="126.588655" style="fill: #0db14b; stroke: #0db14b"/>
     <use xlink:href="#m035c85f679" x="255.557328" y="127.050221" style="fill: #0db14b; stroke: #0db14b"/>
     <use xlink:href="#m035c85f679" x="256.955323" y="127.907985" style="fill: #0db14b; stroke: #0db14b"/>
     <use xlink:href="#m035c85f679" x="258.353319" y="127.983833" style="fill: #0db14b; stroke: #0db14b"/>
     <use xlink:href="#m035c85f679" x="259.751315" y="127.843388" style="fill: #0db14b; stroke: #0db14b"/>
     <use xlink:href="#m035c85f679" x="261.149311" y="128.582004" style="fill: #0db14b; stroke: #0db14b"/>
     <use xlink:href="#m035c85f679" x="262.547306" y="129.080459" style="fill: #0db14b; stroke: #0db14b"/>
     <use xlink:href="#m035c85f679" x="263.945302" y="132.525177" style="fill: #0db14b; stroke: #0db14b"/>
     <use xlink:href="#m035c85f679" x="265.343298" y="133.156995" style="fill: #0db14b; stroke: #0db14b"/>
     <use xlink:href="#m035c85f679" x="266.741293" y="132.876068" style="fill: #0db14b; stroke: #0db14b"/>
     <use xlink:href="#m035c85f679" x="268.139289" y="132.21464" style="fill: #0db14b; stroke: #0db14b"/>
     <use xlink:href="#m035c85f679" x="269.537285" y="132.210859" style="fill: #0db14b; stroke: #0db14b"/>
     <use xlink:href="#m035c85f679" x="270.935281" y="131.94758" style="fill: #0db14b; stroke: #0db14b"/>
     <use xlink:href="#m035c85f679" x="272.333276" y="132.144634" style="fill: #0db14b; stroke: #0db14b"/>
     <use xlink:href="#m035c85f679" x="273.731272" y="131.90816" style="fill: #0db14b; stroke: #0db14b"/>
     <use xlink:href="#m035c85f679" x="275.129268" y="132.764888" style="fill: #0db14b; stroke: #0db14b"/>
     <use xlink:href="#m035c85f679" x="276.527263" y="135.617148" style="fill: #0db14b; stroke: #0db14b"/>
     <use xlink:href="#m035c85f679" x="277.925259" y="135.892815" style="fill: #0db14b; stroke: #0db14b"/>
     <use xlink:href="#m035c85f679" x="279.323255" y="132.438048" style="fill: #0db14b; stroke: #0db14b"/>
     <use xlink:href="#m035c85f679" x="280.72125" y="136.785161" style="fill: #0db14b; stroke: #0db14b"/>
     <use xlink:href="#m035c85f679" x="282.119246" y="140.533088" style="fill: #0db14b; stroke: #0db14b"/>
     <use xlink:href="#m035c85f679" x="283.517242" y="135.38413" style="fill: #0db14b; stroke: #0db14b"/>
     <use xlink:href="#m035c85f679" x="284.915238" y="135.883584" style="fill: #0db14b; stroke: #0db14b"/>
     <use xlink:href="#m035c85f679" x="286.313233" y="136.384094" style="fill: #0db14b; stroke: #0db14b"/>
     <use xlink:href="#m035c85f679" x="287.711229" y="141.048961" style="fill: #0db14b; stroke: #0db14b"/>
     <use xlink:href="#m035c85f679" x="289.109225" y="140.535747" style="fill: #0db14b; stroke: #0db14b"/>
     <use xlink:href="#m035c85f679" x="290.50722" y="140.503705" style="fill: #0db14b; stroke: #0db14b"/>
     <use xlink:href="#m035c85f679" x="291.905216" y="140.99553" style="fill: #0db14b; stroke: #0db14b"/>
     <use xlink:href="#m035c85f679" x="293.303212" y="140.838928" style="fill: #0db14b; stroke: #0db14b"/>
     <use xlink:href="#m035c85f679" x="294.701207" y="140.580579" style="fill: #0db14b; stroke: #0db14b"/>
     <use xlink:href="#m035c85f679" x="296.099203" y="140.920814" style="fill: #0db14b; stroke: #0db14b"/>
     <use xlink:href="#m035c85f679" x="297.497199" y="136.294552" style="fill: #0db14b; stroke: #0db14b"/>
     <use xlink:href="#m035c85f679" x="298.895195" y="140.7346" style="fill: #0db14b; stroke: #0db14b"/>
     <use xlink:href="#m035c85f679" x="300.29319" y="141.347898" style="fill: #0db14b; stroke: #0db14b"/>
     <use xlink:href="#m035c85f679" x="301.691186" y="140.993326" style="fill: #0db14b; stroke: #0db14b"/>
     <use xlink:href="#m035c85f679" x="303.089182" y="142.993291" style="fill: #0db14b; stroke: #0db14b"/>
     <use xlink:href="#m035c85f679" x="304.487177" y="140.889496" style="fill: #0db14b; stroke: #0db14b"/>
     <use xlink:href="#m035c85f679" x="305.885173" y="142.791132" style="fill: #0db14b; stroke: #0db14b"/>
     <use xlink:href="#m035c85f679" x="307.283169" y="142.457955" style="fill: #0db14b; stroke: #0db14b"/>
     <use xlink:href="#m035c85f679" x="308.681165" y="143.287429" style="fill: #0db14b; stroke: #0db14b"/>
     <use xlink:href="#m035c85f679" x="310.07916" y="142.763068" style="fill: #0db14b; stroke: #0db14b"/>
     <use xlink:href="#m035c85f679" x="311.477156" y="142.870649" style="fill: #0db14b; stroke: #0db14b"/>
     <use xlink:href="#m035c85f679" x="312.875152" y="142.948141" style="fill: #0db14b; stroke: #0db14b"/>
     <use xlink:href="#m035c85f679" x="314.273147" y="143.531227" style="fill: #0db14b; stroke: #0db14b"/>
     <use xlink:href="#m035c85f679" x="315.671143" y="139.823021" style="fill: #0db14b; stroke: #0db14b"/>
     <use xlink:href="#m035c85f679" x="317.069139" y="139.188387" style="fill: #0db14b; stroke: #0db14b"/>
     <use xlink:href="#m035c85f679" x="318.467134" y="139.692874" style="fill: #0db14b; stroke: #0db14b"/>
     <use xlink:href="#m035c85f679" x="319.86513" y="144.144535" style="fill: #0db14b; stroke: #0db14b"/>
     <use xlink:href="#m035c85f679" x="321.263126" y="144.054366" style="fill: #0db14b; stroke: #0db14b"/>
     <use xlink:href="#m035c85f679" x="322.661122" y="141.045192" style="fill: #0db14b; stroke: #0db14b"/>
     <use xlink:href="#m035c85f679" x="324.059117" y="141.792192" style="fill: #0db14b; stroke: #0db14b"/>
     <use xlink:href="#m035c85f679" x="325.457113" y="141.887903" style="fill: #0db14b; stroke: #0db14b"/>
     <use xlink:href="#m035c85f679" x="326.855109" y="142.390897" style="fill: #0db14b; stroke: #0db14b"/>
     <use xlink:href="#m035c85f679" x="328.253104" y="141.831044" style="fill: #0db14b; stroke: #0db14b"/>
     <use xlink:href="#m035c85f679" x="329.6511" y="142.002749" style="fill: #0db14b; stroke: #0db14b"/>
     <use xlink:href="#m035c85f679" x="331.049096" y="144.186115" style="fill: #0db14b; stroke: #0db14b"/>
     <use xlink:href="#m035c85f679" x="332.447092" y="144.382912" style="fill: #0db14b; stroke: #0db14b"/>
     <use xlink:href="#m035c85f679" x="333.845087" y="141.423924" style="fill: #0db14b; stroke: #0db14b"/>
     <use xlink:href="#m035c85f679" x="335.243083" y="142.113391" style="fill: #0db14b; stroke: #0db14b"/>
     <use xlink:href="#m035c85f679" x="336.641079" y="141.949942" style="fill: #0db14b; stroke: #0db14b"/>
     <use xlink:href="#m035c85f679" x="338.039074" y="144.731108" style="fill: #0db14b; stroke: #0db14b"/>
     <use xlink:href="#m035c85f679" x="339.43707" y="144.82119" style="fill: #0db14b; stroke: #0db14b"/>
     <use xlink:href="#m035c85f679" x="340.835066" y="144.027628" style="fill: #0db14b; stroke: #0db14b"/>
     <use xlink:href="#m035c85f679" x="342.233061" y="144.259074" style="fill: #0db14b; stroke: #0db14b"/>
     <use xlink:href="#m035c85f679" x="343.631057" y="142.973037" style="fill: #0db14b; stroke: #0db14b"/>
     <use xlink:href="#m035c85f679" x="345.029053" y="143.218642" style="fill: #0db14b; stroke: #0db14b"/>
     <use xlink:href="#m035c85f679" x="346.427049" y="143.626763" style="fill: #0db14b; stroke: #0db14b"/>
     <use xlink:href="#m035c85f679" x="347.825044" y="143.138347" style="fill: #0db14b; stroke: #0db14b"/>
     <use xlink:href="#m035c85f679" x="349.22304" y="142.157256" style="fill: #0db14b; stroke: #0db14b"/>
     <use xlink:href="#m035c85f679" x="350.621036" y="142.752636" style="fill: #0db14b; stroke: #0db14b"/>
     <use xlink:href="#m035c85f679" x="352.019031" y="141.239672" style="fill: #0db14b; stroke: #0db14b"/>
     <use xlink:href="#m035c85f679" x="353.417027" y="138.334614" style="fill: #0db14b; stroke: #0db14b"/>
     <use xlink:href="#m035c85f679" x="354.815023" y="137.01008" style="fill: #0db14b; stroke: #0db14b"/>
     <use xlink:href="#m035c85f679" x="356.213019" y="137.246627" style="fill: #0db14b; stroke: #0db14b"/>
     <use xlink:href="#m035c85f679" x="357.611014" y="136.30574" style="fill: #0db14b; stroke: #0db14b"/>
     <use xlink:href="#m035c85f679" x="359.00901" y="136.535041" style="fill: #0db14b; stroke: #0db14b"/>
     <use xlink:href="#m035c85f679" x="360.407006" y="134.539854" style="fill: #0db14b; stroke: #0db14b"/>
     <use xlink:href="#m035c85f679" x="361.805001" y="128.649209" style="fill: #0db14b; stroke: #0db14b"/>
     <use xlink:href="#m035c85f679" x="363.202997" y="123.285785" style="fill: #0db14b; stroke: #0db14b"/>
     <use xlink:href="#m035c85f679" x="364.600993" y="121.972371" style="fill: #0db14b; stroke: #0db14b"/>
     <use xlink:href="#m035c85f679" x="365.998988" y="121.870213" style="fill: #0db14b; stroke: #0db14b"/>
     <use xlink:href="#m035c85f679" x="367.396984" y="117.800226" style="fill: #0db14b; stroke: #0db14b"/>
     <use xlink:href="#m035c85f679" x="368.79498" y="116.913212" style="fill: #0db14b; stroke: #0db14b"/>
     <use xlink:href="#m035c85f679" x="370.192976" y="114.312867" style="fill: #0db14b; stroke: #0db14b"/>
     <use xlink:href="#m035c85f679" x="371.590971" y="111.806729" style="fill: #0db14b; stroke: #0db14b"/>
     <use xlink:href="#m035c85f679" x="372.988967" y="105.662215" style="fill: #0db14b; stroke: #0db14b"/>
     <use xlink:href="#m035c85f679" x="374.386963" y="102.343989" style="fill: #0db14b; stroke: #0db14b"/>
     <use xlink:href="#m035c85f679" x="375.784958" y="101.864401" style="fill: #0db14b; stroke: #0db14b"/>
     <use xlink:href="#m035c85f679" x="377.182954" y="99.30775" style="fill: #0db14b; stroke: #0db14b"/>
     <use xlink:href="#m035c85f679" x="378.58095" y="96.736802" style="fill: #0db14b; stroke: #0db14b"/>
     <use xlink:href="#m035c85f679" x="379.978946" y="93.189935" style="fill: #0db14b; stroke: #0db14b"/>
     <use xlink:href="#m035c85f679" x="381.376941" y="83.689949" style="fill: #0db14b; stroke: #0db14b"/>
     <use xlink:href="#m035c85f679" x="382.774937" y="75.114729" style="fill: #0db14b; stroke: #0db14b"/>
     <use xlink:href="#m035c85f679" x="384.172933" y="61.40441" style="fill: #0db14b; stroke: #0db14b"/>
     <use xlink:href="#m035c85f679" x="385.570928" y="66.752247" style="fill: #0db14b; stroke: #0db14b"/>
     <use xlink:href="#m035c85f679" x="386.968924" y="54.097315" style="fill: #0db14b; stroke: #0db14b"/>
     <use xlink:href="#m035c85f679" x="388.36692" y="49.122433" style="fill: #0db14b; stroke: #0db14b"/>
     <use xlink:href="#m035c85f679" x="389.764915" y="47.886952" style="fill: #0db14b; stroke: #0db14b"/>
     <use xlink:href="#m035c85f679" x="391.162911" y="46.537888" style="fill: #0db14b; stroke: #0db14b"/>
     <use xlink:href="#m035c85f679" x="392.560907" y="45.885772" style="fill: #0db14b; stroke: #0db14b"/>
     <use xlink:href="#m035c85f679" x="393.958903" y="38.28412" style="fill: #0db14b; stroke: #0db14b"/>
     <use xlink:href="#m035c85f679" x="395.356898" y="42.559622" style="fill: #0db14b; stroke: #0db14b"/>
     <use xlink:href="#m035c85f679" x="396.754894" y="33.877463" style="fill: #0db14b; stroke: #0db14b"/>
     <use xlink:href="#m035c85f679" x="398.15289" y="34.030162" style="fill: #0db14b; stroke: #0db14b"/>
     <use xlink:href="#m035c85f679" x="399.550885" y="25.613047" style="fill: #0db14b; stroke: #0db14b"/>
     <use xlink:href="#m035c85f679" x="400.948881" y="26.480753" style="fill: #0db14b; stroke: #0db14b"/>
     <use xlink:href="#m035c85f679" x="402.346877" y="25.181765" style="fill: #0db14b; stroke: #0db14b"/>
     <use xlink:href="#m035c85f679" x="403.744872" y="25.279993" style="fill: #0db14b; stroke: #0db14b"/>
     <use xlink:href="#m035c85f679" x="405.142868" y="19.365732" style="fill: #0db14b; stroke: #0db14b"/>
     <use xlink:href="#m035c85f679" x="406.540864" y="15.746977" style="fill: #0db14b; stroke: #0db14b"/>
     <use xlink:href="#m035c85f679" x="407.93886" y="19.059962" style="fill: #0db14b; stroke: #0db14b"/>
     <use xlink:href="#m035c85f679" x="409.336855" y="17.151627" style="fill: #0db14b; stroke: #0db14b"/>
     <use xlink:href="#m035c85f679" x="410.734851" y="18.017283" style="fill: #0db14b; stroke: #0db14b"/>
     <use xlink:href="#m035c85f679" x="412.132847" y="15.396981" style="fill: #0db14b; stroke: #0db14b"/>
     <use xlink:href="#m035c85f679" x="413.530842" y="18.627378" style="fill: #0db14b; stroke: #0db14b"/>
     <use xlink:href="#m035c85f679" x="414.928838" y="44.386432" style="fill: #0db14b; stroke: #0db14b"/>
     <use xlink:href="#m035c85f679" x="416.326834" y="32.727184" style="fill: #0db14b; stroke: #0db14b"/>
     <use xlink:href="#m035c85f679" x="417.72483" y="32.020749" style="fill: #0db14b; stroke: #0db14b"/>
    </g>
   </g>
   <g id="line2d_24">
    <path d="M 62.63392 159.984868 
L 64.031916 159.214179 
L 65.429912 158.648564 
L 66.827908 159.430079 
L 69.623899 157.997941 
L 72.41989 156.683957 
L 75.215882 156.556076 
L 78.011873 155.963399 
L 79.409869 156.647203 
L 80.807865 154.405063 
L 82.20586 153.342007 
L 83.603856 152.043743 
L 85.001852 150.96268 
L 86.399847 147.600987 
L 89.195839 145.841003 
L 90.593835 145.803913 
L 91.99183 142.659749 
L 93.389826 142.133872 
L 94.787822 144.530533 
L 96.185817 143.37834 
L 97.583813 141.46022 
L 98.981809 137.122801 
L 101.7778 140.00343 
L 103.175796 138.422212 
L 104.573792 138.405228 
L 107.369783 135.610182 
L 110.165774 128.841841 
L 111.56377 132.806796 
L 112.961766 129.473079 
L 114.359762 120.640371 
L 115.757757 121.537652 
L 117.155753 121.374756 
L 118.553749 123.022553 
L 119.951744 124.845287 
L 121.34974 125.378229 
L 122.747736 124.588404 
L 124.145731 124.735849 
L 125.543727 126.8865 
L 126.941723 127.021978 
L 128.339719 128.617924 
L 129.737714 128.764759 
L 131.13571 128.366895 
L 132.533706 127.161849 
L 133.931701 126.394061 
L 135.329697 124.475719 
L 136.727693 123.902677 
L 138.125689 122.264426 
L 139.523684 117.789209 
L 140.92168 117.087533 
L 142.319676 117.592322 
L 143.717671 115.251814 
L 145.115667 114.444546 
L 146.513663 115.870041 
L 147.911658 114.163079 
L 149.309654 105.301628 
L 150.70765 114.20832 
L 152.105646 113.773271 
L 153.503641 112.697774 
L 154.901637 112.447859 
L 156.299633 109.029476 
L 157.697628 107.475831 
L 159.095624 107.315243 
L 160.49362 108.196335 
L 161.891616 106.020461 
L 163.289611 106.298511 
L 164.687607 102.095319 
L 166.085603 103.366621 
L 167.483598 103.682775 
L 168.881594 106.053095 
L 170.27959 100.907813 
L 173.075581 99.685951 
L 174.473577 97.953371 
L 175.871573 97.185234 
L 177.269568 97.693597 
L 178.667564 92.594822 
L 180.06556 96.492634 
L 181.463555 92.064215 
L 182.861551 91.494177 
L 184.259547 91.996102 
L 185.657543 87.937161 
L 187.055538 87.302386 
L 188.453534 82.664939 
L 189.85153 88.401583 
L 192.647521 73.453977 
L 194.045517 69.401779 
L 195.443512 67.085757 
L 196.841508 63.922935 
L 198.239504 62.401775 
L 199.6375 70.174697 
L 201.035495 63.451089 
L 202.433491 61.077249 
L 203.831487 63.634644 
L 205.229482 67.076988 
L 206.627478 65.846707 
L 208.025474 68.910915 
L 209.423469 69.035583 
L 210.821465 68.589202 
L 212.219461 72.433908 
L 213.617457 77.719734 
L 215.015452 78.848551 
L 216.413448 76.536765 
L 217.811444 76.110318 
L 219.209439 73.112646 
L 220.607435 76.382489 
L 222.005431 77.566342 
L 223.403427 76.94313 
L 224.801422 76.054031 
L 226.199418 77.303428 
L 227.597414 78.941316 
L 228.995409 80.258018 
L 230.393405 83.010592 
L 233.189396 81.37798 
L 234.587392 83.140199 
L 235.985388 88.66558 
L 237.383384 93.394187 
L 238.781379 94.028406 
L 240.179375 96.896332 
L 241.577371 98.240654 
L 244.373362 103.660858 
L 245.771358 106.80753 
L 247.169354 109.167189 
L 248.567349 108.733267 
L 251.363341 116.756856 
L 252.761336 118.733407 
L 254.159332 123.865751 
L 255.557328 125.109071 
L 256.955323 124.467661 
L 258.353319 124.273167 
L 259.751315 127.442465 
L 261.149311 129.295346 
L 262.547306 130.00126 
L 263.945302 134.434113 
L 265.343298 135.461373 
L 266.741293 136.087172 
L 268.139289 136.432552 
L 269.537285 136.233399 
L 270.935281 137.413516 
L 272.333276 137.417302 
L 273.731272 136.01592 
L 275.129268 137.229505 
L 276.527263 140.365617 
L 277.925259 141.105361 
L 279.323255 139.955711 
L 280.72125 141.156347 
L 282.119246 141.896331 
L 283.517242 139.75403 
L 284.915238 140.383104 
L 286.313233 141.316326 
L 287.711229 141.699244 
L 289.109225 142.630398 
L 291.905216 143.425894 
L 293.303212 143.393993 
L 294.701207 143.204557 
L 296.099203 143.458199 
L 297.497199 142.994292 
L 298.895195 144.609326 
L 301.691186 143.911031 
L 303.089182 144.437383 
L 304.487177 144.021168 
L 305.885173 144.904148 
L 307.283169 144.343603 
L 310.07916 144.758011 
L 311.477156 145.360055 
L 312.875152 145.128302 
L 314.273147 145.72201 
L 315.671143 145.403182 
L 317.069139 144.939794 
L 318.467134 145.197262 
L 321.263126 147.065084 
L 324.059117 147.604637 
L 326.855109 146.686742 
L 328.253104 148.004246 
L 329.6511 147.779306 
L 331.049096 148.62422 
L 332.447092 149.24176 
L 333.845087 148.433695 
L 335.243083 148.95239 
L 336.641079 148.672923 
L 338.039074 148.818935 
L 339.43707 147.831 
L 340.835066 147.392922 
L 342.233061 146.817691 
L 343.631057 146.99963 
L 345.029053 145.588738 
L 346.427049 145.900836 
L 347.825044 144.204066 
L 349.22304 143.817726 
L 350.621036 142.822681 
L 352.019031 142.622405 
L 353.417027 142.047963 
L 354.815023 139.629409 
L 356.213019 139.446711 
L 357.611014 138.465401 
L 359.00901 138.198474 
L 360.407006 135.255742 
L 361.805001 133.281603 
L 363.202997 129.981221 
L 364.600993 128.828064 
L 365.998988 127.302183 
L 367.396984 124.459695 
L 368.79498 120.67041 
L 370.192976 115.247748 
L 371.590971 111.877562 
L 372.988967 105.688641 
L 374.386963 103.85219 
L 375.784958 103.420227 
L 377.182954 95.643414 
L 378.58095 90.502678 
L 379.978946 86.50682 
L 381.376941 80.326683 
L 384.172933 69.875777 
L 385.570928 72.025809 
L 386.968924 63.870147 
L 388.36692 57.864515 
L 389.764915 52.911536 
L 391.162911 49.213667 
L 392.560907 48.703779 
L 393.958903 40.5955 
L 395.356898 43.054838 
L 396.754894 35.196672 
L 398.15289 33.835887 
L 399.550885 28.389417 
L 400.948881 28.775542 
L 402.346877 27.252161 
L 403.744872 27.143601 
L 405.142868 27.393415 
L 406.540864 21.607754 
L 407.93886 23.884086 
L 409.336855 23.317575 
L 410.734851 22.423979 
L 412.132847 19.370333 
L 413.530842 24.39207 
L 414.928838 47.145219 
L 416.326834 32.523883 
L 417.72483 31.386191 
L 417.72483 31.386191 
" clip-path="url(#p33caa3c003)" style="fill: none; stroke-dasharray: 5.55,2.4; stroke-dashoffset: 0; stroke: #000000; stroke-width: 1.5"/>
   </g>
   <g id="patch_3">
    <path d="M 44.879375 167.544868 
L 44.879375 1.224868 
" style="fill: none; stroke: #ffffff; stroke-linejoin: miter; stroke-linecap: square"/>
   </g>
   <g id="patch_4">
    <path d="M 435.479375 167.544868 
L 435.479375 1.224868 
" style="fill: none; stroke: #ffffff; stroke-linejoin: miter; stroke-linecap: square"/>
   </g>
   <g id="patch_5">
    <path d="M 44.879375 167.544868 
L 435.479375 167.544868 
" style="fill: none; stroke: #ffffff; stroke-linejoin: miter; stroke-linecap: square"/>
   </g>
   <g id="patch_6">
    <path d="M 44.879375 1.224868 
L 435.479375 1.224868 
" style="fill: none; stroke: #ffffff; stroke-linejoin: miter; stroke-linecap: square"/>
   </g>
   <g id="legend_1">
    <g id="patch_7">
     <path d="M 51.879375 61.602993 
L 203.92625 61.602993 
Q 205.92625 61.602993 205.92625 59.602993 
L 205.92625 8.224868 
Q 205.92625 6.224868 203.92625 6.224868 
L 51.879375 6.224868 
Q 49.879375 6.224868 49.879375 8.224868 
L 49.879375 59.602993 
Q 49.879375 61.602993 51.879375 61.602993 
z
" style="fill: #e5e5e5; opacity: 0.8; stroke: #cccccc; stroke-width: 0.5; stroke-linejoin: miter"/>
    </g>
    <g id="line2d_25">
     <path d="M 53.879375 16.724868 
L 63.879375 16.724868 
L 73.879375 16.724868 
" style="fill: none; stroke: #0db14b; stroke-width: 3; stroke-linecap: square"/>
     <g>
      <use xlink:href="#m035c85f679" x="63.879375" y="16.724868" style="fill: #0db14b; stroke: #0db14b"/>
     </g>
    </g>
    <g id="text_14">
     <!-- Private Value $\tilde{R}_{\chi_2,\chi_1}^t$ -->
     <g transform="translate(81.879375 20.224868) scale(0.1 -0.1)">
      <defs>
       <path id="DejaVuSans-50" d="M 1259 4147 
L 1259 2394 
L 2053 2394 
Q 2494 2394 2734 2622 
Q 2975 2850 2975 3272 
Q 2975 3691 2734 3919 
Q 2494 4147 2053 4147 
L 1259 4147 
z
M 628 4666 
L 2053 4666 
Q 2838 4666 3239 4311 
Q 3641 3956 3641 3272 
Q 3641 2581 3239 2228 
Q 2838 1875 2053 1875 
L 1259 1875 
L 1259 0 
L 628 0 
L 628 4666 
z
" transform="scale(0.015625)"/>
       <path id="DejaVuSans-72" d="M 2631 2963 
Q 2534 3019 2420 3045 
Q 2306 3072 2169 3072 
Q 1681 3072 1420 2755 
Q 1159 2438 1159 1844 
L 1159 0 
L 581 0 
L 581 3500 
L 1159 3500 
L 1159 2956 
Q 1341 3275 1631 3429 
Q 1922 3584 2338 3584 
Q 2397 3584 2469 3576 
Q 2541 3569 2628 3553 
L 2631 2963 
z
" transform="scale(0.015625)"/>
       <path id="DejaVuSans-69" d="M 603 3500 
L 1178 3500 
L 1178 0 
L 603 0 
L 603 3500 
z
M 603 4863 
L 1178 4863 
L 1178 4134 
L 603 4134 
L 603 4863 
z
" transform="scale(0.015625)"/>
       <path id="DejaVuSans-76" d="M 191 3500 
L 800 3500 
L 1894 563 
L 2988 3500 
L 3597 3500 
L 2284 0 
L 1503 0 
L 191 3500 
z
" transform="scale(0.015625)"/>
       <path id="DejaVuSans-20" transform="scale(0.015625)"/>
       <path id="DejaVuSans-303" d="M -1621 4281 
L -1799 4453 
Q -1867 4516 -1919 4545 
Q -1971 4575 -2011 4575 
Q -2130 4575 -2186 4461 
Q -2242 4347 -2249 4091 
L -2639 4091 
Q -2633 4513 -2473 4742 
Q -2314 4972 -2030 4972 
Q -1911 4972 -1811 4928 
Q -1711 4884 -1596 4781 
L -1417 4609 
Q -1349 4547 -1297 4517 
Q -1246 4488 -1205 4488 
Q -1086 4488 -1030 4602 
Q -974 4716 -967 4972 
L -577 4972 
Q -583 4550 -742 4320 
Q -902 4091 -1186 4091 
Q -1305 4091 -1405 4134 
Q -1505 4178 -1621 4281 
z
" transform="scale(0.015625)"/>
       <path id="DejaVuSans-Oblique-52" d="M 1613 4147 
L 1294 2491 
L 2106 2491 
Q 2584 2491 2879 2755 
Q 3175 3019 3175 3444 
Q 3175 3784 2976 3965 
Q 2778 4147 2406 4147 
L 1613 4147 
z
M 2772 2241 
Q 2972 2194 3105 2009 
Q 3238 1825 3413 1275 
L 3809 0 
L 3144 0 
L 2778 1197 
Q 2638 1659 2453 1815 
Q 2269 1972 1888 1972 
L 1191 1972 
L 806 0 
L 172 0 
L 1081 4666 
L 2503 4666 
Q 3150 4666 3495 4373 
Q 3841 4081 3841 3531 
Q 3841 3044 3547 2687 
Q 3253 2331 2772 2241 
z
" transform="scale(0.015625)"/>
       <path id="DejaVuSans-Oblique-74" d="M 2706 3500 
L 2619 3053 
L 1472 3053 
L 1100 1153 
Q 1081 1047 1072 975 
Q 1063 903 1063 863 
Q 1063 663 1183 572 
Q 1303 481 1569 481 
L 2150 481 
L 2053 0 
L 1503 0 
Q 991 0 739 200 
Q 488 400 488 806 
Q 488 878 497 964 
Q 506 1050 525 1153 
L 897 3053 
L 409 3053 
L 500 3500 
L 978 3500 
L 1172 4494 
L 1747 4494 
L 1556 3500 
L 2706 3500 
z
" transform="scale(0.015625)"/>
       <path id="DejaVuSans-Oblique-3c7" d="M 1922 -781 
L 1691 416 
L 394 -1334 
L -284 -1334 
L 1553 1141 
L 1269 2613 
Q 1194 3006 713 3006 
L 559 3006 
L 653 3500 
L 872 3494 
Q 1675 3472 1775 2950 
L 2006 1753 
L 3303 3503 
L 3981 3503 
L 2144 1028 
L 2428 -444 
Q 2503 -838 2984 -838 
L 3138 -838 
L 3044 -1331 
L 2825 -1325 
Q 2022 -1303 1922 -781 
z
" transform="scale(0.015625)"/>
       <path id="DejaVuSans-2c" d="M 750 794 
L 1409 794 
L 1409 256 
L 897 -744 
L 494 -744 
L 750 256 
L 750 794 
z
" transform="scale(0.015625)"/>
      </defs>
      <use xlink:href="#DejaVuSans-50" transform="translate(0 0.828125)"/>
      <use xlink:href="#DejaVuSans-72" transform="translate(60.302734 0.828125)"/>
      <use xlink:href="#DejaVuSans-69" transform="translate(101.416016 0.828125)"/>
      <use xlink:href="#DejaVuSans-76" transform="translate(129.199219 0.828125)"/>
      <use xlink:href="#DejaVuSans-61" transform="translate(188.378906 0.828125)"/>
      <use xlink:href="#DejaVuSans-74" transform="translate(249.658203 0.828125)"/>
      <use xlink:href="#DejaVuSans-65" transform="translate(288.867188 0.828125)"/>
      <use xlink:href="#DejaVuSans-20" transform="translate(350.390625 0.828125)"/>
      <use xlink:href="#DejaVuSans-56" transform="translate(382.177734 0.828125)"/>
      <use xlink:href="#DejaVuSans-61" transform="translate(450.585938 0.828125)"/>
      <use xlink:href="#DejaVuSans-6c" transform="translate(511.865234 0.828125)"/>
      <use xlink:href="#DejaVuSans-75" transform="translate(539.648438 0.828125)"/>
      <use xlink:href="#DejaVuSans-65" transform="translate(603.027344 0.828125)"/>
      <use xlink:href="#DejaVuSans-20" transform="translate(664.550781 0.828125)"/>
      <use xlink:href="#DejaVuSans-303" transform="translate(764.942871 22.3125)"/>
      <use xlink:href="#DejaVuSans-Oblique-52" transform="translate(696.337891 0.828125)"/>
      <use xlink:href="#DejaVuSans-Oblique-74" transform="translate(766.777344 39.109375) scale(0.7)"/>
      <use xlink:href="#DejaVuSans-Oblique-3c7" transform="translate(766.777344 -26.515625) scale(0.7)"/>
      <use xlink:href="#DejaVuSans-32" transform="translate(808.203125 -38) scale(0.49)"/>
      <use xlink:href="#DejaVuSans-2c" transform="translate(841.29248 -26.515625) scale(0.7)"/>
      <use xlink:href="#DejaVuSans-Oblique-3c7" transform="translate(877.181152 -26.515625) scale(0.7)"/>
      <use xlink:href="#DejaVuSans-31" transform="translate(918.606934 -38) scale(0.49)"/>
     </g>
    </g>
    <g id="line2d_26">
     <path d="M 53.879375 35.224868 
L 63.879375 35.224868 
L 73.879375 35.224868 
" style="fill: none; stroke-dasharray: 5.55,2.4; stroke-dashoffset: 0; stroke: #000000; stroke-width: 1.5"/>
    </g>
    <g id="text_15">
     <!-- Original Value $\bar{R}_{\chi_2,\chi_1}^t$ -->
     <g transform="translate(81.879375 38.724868) scale(0.1 -0.1)">
      <defs>
       <path id="DejaVuSans-4f" d="M 2522 4238 
Q 1834 4238 1429 3725 
Q 1025 3213 1025 2328 
Q 1025 1447 1429 934 
Q 1834 422 2522 422 
Q 3209 422 3611 934 
Q 4013 1447 4013 2328 
Q 4013 3213 3611 3725 
Q 3209 4238 2522 4238 
z
M 2522 4750 
Q 3503 4750 4090 4092 
Q 4678 3434 4678 2328 
Q 4678 1225 4090 567 
Q 3503 -91 2522 -91 
Q 1538 -91 948 565 
Q 359 1222 359 2328 
Q 359 3434 948 4092 
Q 1538 4750 2522 4750 
z
" transform="scale(0.015625)"/>
       <path id="DejaVuSans-67" d="M 2906 1791 
Q 2906 2416 2648 2759 
Q 2391 3103 1925 3103 
Q 1463 3103 1205 2759 
Q 947 2416 947 1791 
Q 947 1169 1205 825 
Q 1463 481 1925 481 
Q 2391 481 2648 825 
Q 2906 1169 2906 1791 
z
M 3481 434 
Q 3481 -459 3084 -895 
Q 2688 -1331 1869 -1331 
Q 1566 -1331 1297 -1286 
Q 1028 -1241 775 -1147 
L 775 -588 
Q 1028 -725 1275 -790 
Q 1522 -856 1778 -856 
Q 2344 -856 2625 -561 
Q 2906 -266 2906 331 
L 2906 616 
Q 2728 306 2450 153 
Q 2172 0 1784 0 
Q 1141 0 747 490 
Q 353 981 353 1791 
Q 353 2603 747 3093 
Q 1141 3584 1784 3584 
Q 2172 3584 2450 3431 
Q 2728 3278 2906 2969 
L 2906 3500 
L 3481 3500 
L 3481 434 
z
" transform="scale(0.015625)"/>
       <path id="DejaVuSans-6e" d="M 3513 2113 
L 3513 0 
L 2938 0 
L 2938 2094 
Q 2938 2591 2744 2837 
Q 2550 3084 2163 3084 
Q 1697 3084 1428 2787 
Q 1159 2491 1159 1978 
L 1159 0 
L 581 0 
L 581 3500 
L 1159 3500 
L 1159 2956 
Q 1366 3272 1645 3428 
Q 1925 3584 2291 3584 
Q 2894 3584 3203 3211 
Q 3513 2838 3513 2113 
z
" transform="scale(0.015625)"/>
       <path id="DejaVuSans-304" d="M -2518 4769 
L -650 4769 
L -650 4306 
L -2518 4306 
L -2518 4769 
z
" transform="scale(0.015625)"/>
      </defs>
      <use xlink:href="#DejaVuSans-4f" transform="translate(0 0.359375)"/>
      <use xlink:href="#DejaVuSans-72" transform="translate(78.710938 0.359375)"/>
      <use xlink:href="#DejaVuSans-69" transform="translate(119.824219 0.359375)"/>
      <use xlink:href="#DejaVuSans-67" transform="translate(147.607422 0.359375)"/>
      <use xlink:href="#DejaVuSans-69" transform="translate(211.083984 0.359375)"/>
      <use xlink:href="#DejaVuSans-6e" transform="translate(238.867188 0.359375)"/>
      <use xlink:href="#DejaVuSans-61" transform="translate(302.246094 0.359375)"/>
      <use xlink:href="#DejaVuSans-6c" transform="translate(363.525391 0.359375)"/>
      <use xlink:href="#DejaVuSans-20" transform="translate(391.308594 0.359375)"/>
      <use xlink:href="#DejaVuSans-56" transform="translate(423.095703 0.359375)"/>
      <use xlink:href="#DejaVuSans-61" transform="translate(491.503906 0.359375)"/>
      <use xlink:href="#DejaVuSans-6c" transform="translate(552.783203 0.359375)"/>
      <use xlink:href="#DejaVuSans-75" transform="translate(580.566406 0.359375)"/>
      <use xlink:href="#DejaVuSans-65" transform="translate(643.945312 0.359375)"/>
      <use xlink:href="#DejaVuSans-20" transform="translate(705.46875 0.359375)"/>
      <use xlink:href="#DejaVuSans-304" transform="translate(804.970215 18.484375)"/>
      <use xlink:href="#DejaVuSans-Oblique-52" transform="translate(737.255859 0.359375)"/>
      <use xlink:href="#DejaVuSans-Oblique-74" transform="translate(807.695312 38.640625) scale(0.7)"/>
      <use xlink:href="#DejaVuSans-Oblique-3c7" transform="translate(807.695312 -26.984375) scale(0.7)"/>
      <use xlink:href="#DejaVuSans-32" transform="translate(849.121094 -38.46875) scale(0.49)"/>
      <use xlink:href="#DejaVuSans-2c" transform="translate(882.210449 -26.984375) scale(0.7)"/>
      <use xlink:href="#DejaVuSans-Oblique-3c7" transform="translate(918.099121 -26.984375) scale(0.7)"/>
      <use xlink:href="#DejaVuSans-31" transform="translate(959.524902 -38.46875) scale(0.49)"/>
     </g>
    </g>
    <g id="patch_8">
     <path d="M 53.879375 55.523305 
L 73.879375 55.523305 
L 73.879375 48.523305 
L 53.879375 48.523305 
z
" style="fill: #0db14b; fill-opacity: 0.5; stroke: #0db14b; stroke-opacity: 0.5; stroke-width: 0.5; stroke-linejoin: miter"/>
    </g>
    <g id="text_16">
     <!-- One Standard Deviation -->
     <g transform="translate(81.879375 55.523305) scale(0.1 -0.1)">
      <defs>
       <path id="DejaVuSans-53" d="M 3425 4513 
L 3425 3897 
Q 3066 4069 2747 4153 
Q 2428 4238 2131 4238 
Q 1616 4238 1336 4038 
Q 1056 3838 1056 3469 
Q 1056 3159 1242 3001 
Q 1428 2844 1947 2747 
L 2328 2669 
Q 3034 2534 3370 2195 
Q 3706 1856 3706 1288 
Q 3706 609 3251 259 
Q 2797 -91 1919 -91 
Q 1588 -91 1214 -16 
Q 841 59 441 206 
L 441 856 
Q 825 641 1194 531 
Q 1563 422 1919 422 
Q 2459 422 2753 634 
Q 3047 847 3047 1241 
Q 3047 1584 2836 1778 
Q 2625 1972 2144 2069 
L 1759 2144 
Q 1053 2284 737 2584 
Q 422 2884 422 3419 
Q 422 4038 858 4394 
Q 1294 4750 2059 4750 
Q 2388 4750 2728 4690 
Q 3069 4631 3425 4513 
z
" transform="scale(0.015625)"/>
       <path id="DejaVuSans-64" d="M 2906 2969 
L 2906 4863 
L 3481 4863 
L 3481 0 
L 2906 0 
L 2906 525 
Q 2725 213 2448 61 
Q 2172 -91 1784 -91 
Q 1150 -91 751 415 
Q 353 922 353 1747 
Q 353 2572 751 3078 
Q 1150 3584 1784 3584 
Q 2172 3584 2448 3432 
Q 2725 3281 2906 2969 
z
M 947 1747 
Q 947 1113 1208 752 
Q 1469 391 1925 391 
Q 2381 391 2643 752 
Q 2906 1113 2906 1747 
Q 2906 2381 2643 2742 
Q 2381 3103 1925 3103 
Q 1469 3103 1208 2742 
Q 947 2381 947 1747 
z
" transform="scale(0.015625)"/>
       <path id="DejaVuSans-6f" d="M 1959 3097 
Q 1497 3097 1228 2736 
Q 959 2375 959 1747 
Q 959 1119 1226 758 
Q 1494 397 1959 397 
Q 2419 397 2687 759 
Q 2956 1122 2956 1747 
Q 2956 2369 2687 2733 
Q 2419 3097 1959 3097 
z
M 1959 3584 
Q 2709 3584 3137 3096 
Q 3566 2609 3566 1747 
Q 3566 888 3137 398 
Q 2709 -91 1959 -91 
Q 1206 -91 779 398 
Q 353 888 353 1747 
Q 353 2609 779 3096 
Q 1206 3584 1959 3584 
z
" transform="scale(0.015625)"/>
      </defs>
      <use xlink:href="#DejaVuSans-4f"/>
      <use xlink:href="#DejaVuSans-6e" x="78.710938"/>
      <use xlink:href="#DejaVuSans-65" x="142.089844"/>
      <use xlink:href="#DejaVuSans-20" x="203.613281"/>
      <use xlink:href="#DejaVuSans-53" x="235.400391"/>
      <use xlink:href="#DejaVuSans-74" x="298.876953"/>
      <use xlink:href="#DejaVuSans-61" x="338.085938"/>
      <use xlink:href="#DejaVuSans-6e" x="399.365234"/>
      <use xlink:href="#DejaVuSans-64" x="462.744141"/>
      <use xlink:href="#DejaVuSans-61" x="526.220703"/>
      <use xlink:href="#DejaVuSans-72" x="587.5"/>
      <use xlink:href="#DejaVuSans-64" x="626.863281"/>
      <use xlink:href="#DejaVuSans-20" x="690.339844"/>
      <use xlink:href="#DejaVuSans-44" x="722.126953"/>
      <use xlink:href="#DejaVuSans-65" x="799.128906"/>
      <use xlink:href="#DejaVuSans-76" x="860.652344"/>
      <use xlink:href="#DejaVuSans-69" x="919.832031"/>
      <use xlink:href="#DejaVuSans-61" x="947.615234"/>
      <use xlink:href="#DejaVuSans-74" x="1008.894531"/>
      <use xlink:href="#DejaVuSans-69" x="1048.103516"/>
      <use xlink:href="#DejaVuSans-6f" x="1075.886719"/>
      <use xlink:href="#DejaVuSans-6e" x="1137.068359"/>
     </g>
    </g>
   </g>
  </g>
 </g>
 <defs>
  <clipPath id="p33caa3c003">
   <rect x="44.879375" y="1.224868" width="390.6" height="166.32"/>
  </clipPath>
 </defs>
</svg>
