<?xml version="1.0" encoding="utf-8" standalone="no"?>
<!DOCTYPE svg PUBLIC "-//W3C//DTD SVG 1.1//EN"
  "http://www.w3.org/Graphics/SVG/1.1/DTD/svg11.dtd">
<svg xmlns:xlink="http://www.w3.org/1999/xlink" width="444.375067pt" height="200.3175pt" viewBox="0 0 444.375067 200.3175" xmlns="http://www.w3.org/2000/svg" version="1.1">
 <metadata>
  <rdf:RDF xmlns:dc="http://purl.org/dc/elements/1.1/" xmlns:cc="http://creativecommons.org/ns#" xmlns:rdf="http://www.w3.org/1999/02/22-rdf-syntax-ns#">
   <cc:Work>
    <dc:type rdf:resource="http://purl.org/dc/dcmitype/StillImage"/>
    <dc:date>2024-09-18T15:47:45.184343</dc:date>
    <dc:format>image/svg+xml</dc:format>
    <dc:creator>
     <cc:Agent>
      <dc:title>Matplotlib v3.7.5, https://matplotlib.org/</dc:title>
     </cc:Agent>
    </dc:creator>
   </cc:Work>
  </rdf:RDF>
 </metadata>
 <defs>
  <style type="text/css">*{stroke-linejoin: round; stroke-linecap: butt}</style>
 </defs>
 <g id="figure_1">
  <g id="patch_1">
   <path d="M 0 200.3175 
L 444.375067 200.3175 
L 444.375067 0 
L 0 0 
z
" style="fill: #ffffff"/>
  </g>
  <g id="axes_1">
   <g id="patch_2">
    <path d="M 44.879375 168.025625 
L 435.479375 168.025625 
L 435.479375 1.705625 
L 44.879375 1.705625 
z
" style="fill: #e5e5e5"/>
   </g>
   <g id="matplotlib.axis_1">
    <g id="xtick_1">
     <g id="line2d_1">
      <path d="M 72.41989 168.025625 
L 72.41989 1.705625 
" clip-path="url(#p5134619313)" style="fill: none; stroke: #ffffff; stroke-width: 0.8; stroke-linecap: square"/>
     </g>
     <g id="line2d_2">
      <defs>
       <path id="m25e1bcfcc6" d="M 0 0 
L 0 3.5 
" style="stroke: #555555; stroke-width: 0.8"/>
      </defs>
      <g>
       <use xlink:href="#m25e1bcfcc6" x="72.41989" y="168.025625" style="fill: #555555; stroke: #555555; stroke-width: 0.8"/>
      </g>
     </g>
     <g id="text_1">
      <!-- 08/16/20 -->
      <g style="fill: #555555" transform="translate(49.96364 182.624063) scale(0.1 -0.1)">
       <defs>
        <path id="DejaVuSans-30" d="M 2034 4250 
Q 1547 4250 1301 3770 
Q 1056 3291 1056 2328 
Q 1056 1369 1301 889 
Q 1547 409 2034 409 
Q 2525 409 2770 889 
Q 3016 1369 3016 2328 
Q 3016 3291 2770 3770 
Q 2525 4250 2034 4250 
z
M 2034 4750 
Q 2819 4750 3233 4129 
Q 3647 3509 3647 2328 
Q 3647 1150 3233 529 
Q 2819 -91 2034 -91 
Q 1250 -91 836 529 
Q 422 1150 422 2328 
Q 422 3509 836 4129 
Q 1250 4750 2034 4750 
z
" transform="scale(0.015625)"/>
        <path id="DejaVuSans-38" d="M 2034 2216 
Q 1584 2216 1326 1975 
Q 1069 1734 1069 1313 
Q 1069 891 1326 650 
Q 1584 409 2034 409 
Q 2484 409 2743 651 
Q 3003 894 3003 1313 
Q 3003 1734 2745 1975 
Q 2488 2216 2034 2216 
z
M 1403 2484 
Q 997 2584 770 2862 
Q 544 3141 544 3541 
Q 544 4100 942 4425 
Q 1341 4750 2034 4750 
Q 2731 4750 3128 4425 
Q 3525 4100 3525 3541 
Q 3525 3141 3298 2862 
Q 3072 2584 2669 2484 
Q 3125 2378 3379 2068 
Q 3634 1759 3634 1313 
Q 3634 634 3220 271 
Q 2806 -91 2034 -91 
Q 1263 -91 848 271 
Q 434 634 434 1313 
Q 434 1759 690 2068 
Q 947 2378 1403 2484 
z
M 1172 3481 
Q 1172 3119 1398 2916 
Q 1625 2713 2034 2713 
Q 2441 2713 2670 2916 
Q 2900 3119 2900 3481 
Q 2900 3844 2670 4047 
Q 2441 4250 2034 4250 
Q 1625 4250 1398 4047 
Q 1172 3844 1172 3481 
z
" transform="scale(0.015625)"/>
        <path id="DejaVuSans-2f" d="M 1625 4666 
L 2156 4666 
L 531 -594 
L 0 -594 
L 1625 4666 
z
" transform="scale(0.015625)"/>
        <path id="DejaVuSans-31" d="M 794 531 
L 1825 531 
L 1825 4091 
L 703 3866 
L 703 4441 
L 1819 4666 
L 2450 4666 
L 2450 531 
L 3481 531 
L 3481 0 
L 794 0 
L 794 531 
z
" transform="scale(0.015625)"/>
        <path id="DejaVuSans-36" d="M 2113 2584 
Q 1688 2584 1439 2293 
Q 1191 2003 1191 1497 
Q 1191 994 1439 701 
Q 1688 409 2113 409 
Q 2538 409 2786 701 
Q 3034 994 3034 1497 
Q 3034 2003 2786 2293 
Q 2538 2584 2113 2584 
z
M 3366 4563 
L 3366 3988 
Q 3128 4100 2886 4159 
Q 2644 4219 2406 4219 
Q 1781 4219 1451 3797 
Q 1122 3375 1075 2522 
Q 1259 2794 1537 2939 
Q 1816 3084 2150 3084 
Q 2853 3084 3261 2657 
Q 3669 2231 3669 1497 
Q 3669 778 3244 343 
Q 2819 -91 2113 -91 
Q 1303 -91 875 529 
Q 447 1150 447 2328 
Q 447 3434 972 4092 
Q 1497 4750 2381 4750 
Q 2619 4750 2861 4703 
Q 3103 4656 3366 4563 
z
" transform="scale(0.015625)"/>
        <path id="DejaVuSans-32" d="M 1228 531 
L 3431 531 
L 3431 0 
L 469 0 
L 469 531 
Q 828 903 1448 1529 
Q 2069 2156 2228 2338 
Q 2531 2678 2651 2914 
Q 2772 3150 2772 3378 
Q 2772 3750 2511 3984 
Q 2250 4219 1831 4219 
Q 1534 4219 1204 4116 
Q 875 4013 500 3803 
L 500 4441 
Q 881 4594 1212 4672 
Q 1544 4750 1819 4750 
Q 2544 4750 2975 4387 
Q 3406 4025 3406 3419 
Q 3406 3131 3298 2873 
Q 3191 2616 2906 2266 
Q 2828 2175 2409 1742 
Q 1991 1309 1228 531 
z
" transform="scale(0.015625)"/>
       </defs>
       <use xlink:href="#DejaVuSans-30"/>
       <use xlink:href="#DejaVuSans-38" x="63.623047"/>
       <use xlink:href="#DejaVuSans-2f" x="127.246094"/>
       <use xlink:href="#DejaVuSans-31" x="160.9375"/>
       <use xlink:href="#DejaVuSans-36" x="224.560547"/>
       <use xlink:href="#DejaVuSans-2f" x="288.183594"/>
       <use xlink:href="#DejaVuSans-32" x="321.875"/>
       <use xlink:href="#DejaVuSans-30" x="385.498047"/>
      </g>
     </g>
    </g>
    <g id="xtick_2">
     <g id="line2d_3">
      <path d="M 142.319676 168.025625 
L 142.319676 1.705625 
" clip-path="url(#p5134619313)" style="fill: none; stroke: #ffffff; stroke-width: 0.8; stroke-linecap: square"/>
     </g>
     <g id="line2d_4">
      <g>
       <use xlink:href="#m25e1bcfcc6" x="142.319676" y="168.025625" style="fill: #555555; stroke: #555555; stroke-width: 0.8"/>
      </g>
     </g>
     <g id="text_2">
      <!-- 10/05/20 -->
      <g style="fill: #555555" transform="translate(119.863426 182.624063) scale(0.1 -0.1)">
       <defs>
        <path id="DejaVuSans-35" d="M 691 4666 
L 3169 4666 
L 3169 4134 
L 1269 4134 
L 1269 2991 
Q 1406 3038 1543 3061 
Q 1681 3084 1819 3084 
Q 2600 3084 3056 2656 
Q 3513 2228 3513 1497 
Q 3513 744 3044 326 
Q 2575 -91 1722 -91 
Q 1428 -91 1123 -41 
Q 819 9 494 109 
L 494 744 
Q 775 591 1075 516 
Q 1375 441 1709 441 
Q 2250 441 2565 725 
Q 2881 1009 2881 1497 
Q 2881 1984 2565 2268 
Q 2250 2553 1709 2553 
Q 1456 2553 1204 2497 
Q 953 2441 691 2322 
L 691 4666 
z
" transform="scale(0.015625)"/>
       </defs>
       <use xlink:href="#DejaVuSans-31"/>
       <use xlink:href="#DejaVuSans-30" x="63.623047"/>
       <use xlink:href="#DejaVuSans-2f" x="127.246094"/>
       <use xlink:href="#DejaVuSans-30" x="160.9375"/>
       <use xlink:href="#DejaVuSans-35" x="224.560547"/>
       <use xlink:href="#DejaVuSans-2f" x="288.183594"/>
       <use xlink:href="#DejaVuSans-32" x="321.875"/>
       <use xlink:href="#DejaVuSans-30" x="385.498047"/>
      </g>
     </g>
    </g>
    <g id="xtick_3">
     <g id="line2d_5">
      <path d="M 212.219461 168.025625 
L 212.219461 1.705625 
" clip-path="url(#p5134619313)" style="fill: none; stroke: #ffffff; stroke-width: 0.8; stroke-linecap: square"/>
     </g>
     <g id="line2d_6">
      <g>
       <use xlink:href="#m25e1bcfcc6" x="212.219461" y="168.025625" style="fill: #555555; stroke: #555555; stroke-width: 0.8"/>
      </g>
     </g>
     <g id="text_3">
      <!-- 11/24/20 -->
      <g style="fill: #555555" transform="translate(189.763211 182.624063) scale(0.1 -0.1)">
       <defs>
        <path id="DejaVuSans-34" d="M 2419 4116 
L 825 1625 
L 2419 1625 
L 2419 4116 
z
M 2253 4666 
L 3047 4666 
L 3047 1625 
L 3713 1625 
L 3713 1100 
L 3047 1100 
L 3047 0 
L 2419 0 
L 2419 1100 
L 313 1100 
L 313 1709 
L 2253 4666 
z
" transform="scale(0.015625)"/>
       </defs>
       <use xlink:href="#DejaVuSans-31"/>
       <use xlink:href="#DejaVuSans-31" x="63.623047"/>
       <use xlink:href="#DejaVuSans-2f" x="127.246094"/>
       <use xlink:href="#DejaVuSans-32" x="160.9375"/>
       <use xlink:href="#DejaVuSans-34" x="224.560547"/>
       <use xlink:href="#DejaVuSans-2f" x="288.183594"/>
       <use xlink:href="#DejaVuSans-32" x="321.875"/>
       <use xlink:href="#DejaVuSans-30" x="385.498047"/>
      </g>
     </g>
    </g>
    <g id="xtick_4">
     <g id="line2d_7">
      <path d="M 282.119246 168.025625 
L 282.119246 1.705625 
" clip-path="url(#p5134619313)" style="fill: none; stroke: #ffffff; stroke-width: 0.8; stroke-linecap: square"/>
     </g>
     <g id="line2d_8">
      <g>
       <use xlink:href="#m25e1bcfcc6" x="282.119246" y="168.025625" style="fill: #555555; stroke: #555555; stroke-width: 0.8"/>
      </g>
     </g>
     <g id="text_4">
      <!-- 01/13/21 -->
      <g style="fill: #555555" transform="translate(259.662996 182.624063) scale(0.1 -0.1)">
       <defs>
        <path id="DejaVuSans-33" d="M 2597 2516 
Q 3050 2419 3304 2112 
Q 3559 1806 3559 1356 
Q 3559 666 3084 287 
Q 2609 -91 1734 -91 
Q 1441 -91 1130 -33 
Q 819 25 488 141 
L 488 750 
Q 750 597 1062 519 
Q 1375 441 1716 441 
Q 2309 441 2620 675 
Q 2931 909 2931 1356 
Q 2931 1769 2642 2001 
Q 2353 2234 1838 2234 
L 1294 2234 
L 1294 2753 
L 1863 2753 
Q 2328 2753 2575 2939 
Q 2822 3125 2822 3475 
Q 2822 3834 2567 4026 
Q 2313 4219 1838 4219 
Q 1578 4219 1281 4162 
Q 984 4106 628 3988 
L 628 4550 
Q 988 4650 1302 4700 
Q 1616 4750 1894 4750 
Q 2613 4750 3031 4423 
Q 3450 4097 3450 3541 
Q 3450 3153 3228 2886 
Q 3006 2619 2597 2516 
z
" transform="scale(0.015625)"/>
       </defs>
       <use xlink:href="#DejaVuSans-30"/>
       <use xlink:href="#DejaVuSans-31" x="63.623047"/>
       <use xlink:href="#DejaVuSans-2f" x="127.246094"/>
       <use xlink:href="#DejaVuSans-31" x="160.9375"/>
       <use xlink:href="#DejaVuSans-33" x="224.560547"/>
       <use xlink:href="#DejaVuSans-2f" x="288.183594"/>
       <use xlink:href="#DejaVuSans-32" x="321.875"/>
       <use xlink:href="#DejaVuSans-31" x="385.498047"/>
      </g>
     </g>
    </g>
    <g id="xtick_5">
     <g id="line2d_9">
      <path d="M 352.019031 168.025625 
L 352.019031 1.705625 
" clip-path="url(#p5134619313)" style="fill: none; stroke: #ffffff; stroke-width: 0.8; stroke-linecap: square"/>
     </g>
     <g id="line2d_10">
      <g>
       <use xlink:href="#m25e1bcfcc6" x="352.019031" y="168.025625" style="fill: #555555; stroke: #555555; stroke-width: 0.8"/>
      </g>
     </g>
     <g id="text_5">
      <!-- 03/04/21 -->
      <g style="fill: #555555" transform="translate(329.562781 182.624063) scale(0.1 -0.1)">
       <use xlink:href="#DejaVuSans-30"/>
       <use xlink:href="#DejaVuSans-33" x="63.623047"/>
       <use xlink:href="#DejaVuSans-2f" x="127.246094"/>
       <use xlink:href="#DejaVuSans-30" x="160.9375"/>
       <use xlink:href="#DejaVuSans-34" x="224.560547"/>
       <use xlink:href="#DejaVuSans-2f" x="288.183594"/>
       <use xlink:href="#DejaVuSans-32" x="321.875"/>
       <use xlink:href="#DejaVuSans-31" x="385.498047"/>
      </g>
     </g>
    </g>
    <g id="xtick_6">
     <g id="line2d_11">
      <path d="M 421.918817 168.025625 
L 421.918817 1.705625 
" clip-path="url(#p5134619313)" style="fill: none; stroke: #ffffff; stroke-width: 0.8; stroke-linecap: square"/>
     </g>
     <g id="line2d_12">
      <g>
       <use xlink:href="#m25e1bcfcc6" x="421.918817" y="168.025625" style="fill: #555555; stroke: #555555; stroke-width: 0.8"/>
      </g>
     </g>
     <g id="text_6">
      <!-- 04/23/21 -->
      <g style="fill: #555555" transform="translate(399.462567 182.624063) scale(0.1 -0.1)">
       <use xlink:href="#DejaVuSans-30"/>
       <use xlink:href="#DejaVuSans-34" x="63.623047"/>
       <use xlink:href="#DejaVuSans-2f" x="127.246094"/>
       <use xlink:href="#DejaVuSans-32" x="160.9375"/>
       <use xlink:href="#DejaVuSans-33" x="224.560547"/>
       <use xlink:href="#DejaVuSans-2f" x="288.183594"/>
       <use xlink:href="#DejaVuSans-32" x="321.875"/>
       <use xlink:href="#DejaVuSans-31" x="385.498047"/>
      </g>
     </g>
    </g>
    <g id="text_7">
     <!-- Date -->
     <g style="fill: #555555" transform="translate(225.838438 197.821875) scale(0.12 -0.12)">
      <defs>
       <path id="DejaVuSans-44" d="M 1259 4147 
L 1259 519 
L 2022 519 
Q 2988 519 3436 956 
Q 3884 1394 3884 2338 
Q 3884 3275 3436 3711 
Q 2988 4147 2022 4147 
L 1259 4147 
z
M 628 4666 
L 1925 4666 
Q 3281 4666 3915 4102 
Q 4550 3538 4550 2338 
Q 4550 1131 3912 565 
Q 3275 0 1925 0 
L 628 0 
L 628 4666 
z
" transform="scale(0.015625)"/>
       <path id="DejaVuSans-61" d="M 2194 1759 
Q 1497 1759 1228 1600 
Q 959 1441 959 1056 
Q 959 750 1161 570 
Q 1363 391 1709 391 
Q 2188 391 2477 730 
Q 2766 1069 2766 1631 
L 2766 1759 
L 2194 1759 
z
M 3341 1997 
L 3341 0 
L 2766 0 
L 2766 531 
Q 2569 213 2275 61 
Q 1981 -91 1556 -91 
Q 1019 -91 701 211 
Q 384 513 384 1019 
Q 384 1609 779 1909 
Q 1175 2209 1959 2209 
L 2766 2209 
L 2766 2266 
Q 2766 2663 2505 2880 
Q 2244 3097 1772 3097 
Q 1472 3097 1187 3025 
Q 903 2953 641 2809 
L 641 3341 
Q 956 3463 1253 3523 
Q 1550 3584 1831 3584 
Q 2591 3584 2966 3190 
Q 3341 2797 3341 1997 
z
" transform="scale(0.015625)"/>
       <path id="DejaVuSans-74" d="M 1172 4494 
L 1172 3500 
L 2356 3500 
L 2356 3053 
L 1172 3053 
L 1172 1153 
Q 1172 725 1289 603 
Q 1406 481 1766 481 
L 2356 481 
L 2356 0 
L 1766 0 
Q 1100 0 847 248 
Q 594 497 594 1153 
L 594 3053 
L 172 3053 
L 172 3500 
L 594 3500 
L 594 4494 
L 1172 4494 
z
" transform="scale(0.015625)"/>
       <path id="DejaVuSans-65" d="M 3597 1894 
L 3597 1613 
L 953 1613 
Q 991 1019 1311 708 
Q 1631 397 2203 397 
Q 2534 397 2845 478 
Q 3156 559 3463 722 
L 3463 178 
Q 3153 47 2828 -22 
Q 2503 -91 2169 -91 
Q 1331 -91 842 396 
Q 353 884 353 1716 
Q 353 2575 817 3079 
Q 1281 3584 2069 3584 
Q 2775 3584 3186 3129 
Q 3597 2675 3597 1894 
z
M 3022 2063 
Q 3016 2534 2758 2815 
Q 2500 3097 2075 3097 
Q 1594 3097 1305 2825 
Q 1016 2553 972 2059 
L 3022 2063 
z
" transform="scale(0.015625)"/>
      </defs>
      <use xlink:href="#DejaVuSans-44"/>
      <use xlink:href="#DejaVuSans-61" x="77.001953"/>
      <use xlink:href="#DejaVuSans-74" x="138.28125"/>
      <use xlink:href="#DejaVuSans-65" x="177.490234"/>
     </g>
    </g>
   </g>
   <g id="matplotlib.axis_2">
    <g id="ytick_1">
     <g id="line2d_13">
      <path d="M 44.879375 139.858373 
L 435.479375 139.858373 
" clip-path="url(#p5134619313)" style="fill: none; stroke: #ffffff; stroke-width: 0.8; stroke-linecap: square"/>
     </g>
     <g id="line2d_14">
      <defs>
       <path id="m2189182035" d="M 0 0 
L -3.5 0 
" style="stroke: #555555; stroke-width: 0.8"/>
      </defs>
      <g>
       <use xlink:href="#m2189182035" x="44.879375" y="139.858373" style="fill: #555555; stroke: #555555; stroke-width: 0.8"/>
      </g>
     </g>
     <g id="text_8">
      <!-- 0.05 -->
      <g style="fill: #555555" transform="translate(15.61375 143.657591) scale(0.1 -0.1)">
       <defs>
        <path id="DejaVuSans-2e" d="M 684 794 
L 1344 794 
L 1344 0 
L 684 0 
L 684 794 
z
" transform="scale(0.015625)"/>
       </defs>
       <use xlink:href="#DejaVuSans-30"/>
       <use xlink:href="#DejaVuSans-2e" x="63.623047"/>
       <use xlink:href="#DejaVuSans-30" x="95.410156"/>
       <use xlink:href="#DejaVuSans-35" x="159.033203"/>
      </g>
     </g>
    </g>
    <g id="ytick_2">
     <g id="line2d_15">
      <path d="M 44.879375 105.843584 
L 435.479375 105.843584 
" clip-path="url(#p5134619313)" style="fill: none; stroke: #ffffff; stroke-width: 0.8; stroke-linecap: square"/>
     </g>
     <g id="line2d_16">
      <g>
       <use xlink:href="#m2189182035" x="44.879375" y="105.843584" style="fill: #555555; stroke: #555555; stroke-width: 0.8"/>
      </g>
     </g>
     <g id="text_9">
      <!-- 0.10 -->
      <g style="fill: #555555" transform="translate(15.61375 109.642803) scale(0.1 -0.1)">
       <use xlink:href="#DejaVuSans-30"/>
       <use xlink:href="#DejaVuSans-2e" x="63.623047"/>
       <use xlink:href="#DejaVuSans-31" x="95.410156"/>
       <use xlink:href="#DejaVuSans-30" x="159.033203"/>
      </g>
     </g>
    </g>
    <g id="ytick_3">
     <g id="line2d_17">
      <path d="M 44.879375 71.828796 
L 435.479375 71.828796 
" clip-path="url(#p5134619313)" style="fill: none; stroke: #ffffff; stroke-width: 0.8; stroke-linecap: square"/>
     </g>
     <g id="line2d_18">
      <g>
       <use xlink:href="#m2189182035" x="44.879375" y="71.828796" style="fill: #555555; stroke: #555555; stroke-width: 0.8"/>
      </g>
     </g>
     <g id="text_10">
      <!-- 0.15 -->
      <g style="fill: #555555" transform="translate(15.61375 75.628014) scale(0.1 -0.1)">
       <use xlink:href="#DejaVuSans-30"/>
       <use xlink:href="#DejaVuSans-2e" x="63.623047"/>
       <use xlink:href="#DejaVuSans-31" x="95.410156"/>
       <use xlink:href="#DejaVuSans-35" x="159.033203"/>
      </g>
     </g>
    </g>
    <g id="ytick_4">
     <g id="line2d_19">
      <path d="M 44.879375 37.814007 
L 435.479375 37.814007 
" clip-path="url(#p5134619313)" style="fill: none; stroke: #ffffff; stroke-width: 0.8; stroke-linecap: square"/>
     </g>
     <g id="line2d_20">
      <g>
       <use xlink:href="#m2189182035" x="44.879375" y="37.814007" style="fill: #555555; stroke: #555555; stroke-width: 0.8"/>
      </g>
     </g>
     <g id="text_11">
      <!-- 0.20 -->
      <g style="fill: #555555" transform="translate(15.61375 41.613226) scale(0.1 -0.1)">
       <use xlink:href="#DejaVuSans-30"/>
       <use xlink:href="#DejaVuSans-2e" x="63.623047"/>
       <use xlink:href="#DejaVuSans-32" x="95.410156"/>
       <use xlink:href="#DejaVuSans-30" x="159.033203"/>
      </g>
     </g>
    </g>
    <g id="ytick_5">
     <g id="line2d_21">
      <path d="M 44.879375 3.799219 
L 435.479375 3.799219 
" clip-path="url(#p5134619313)" style="fill: none; stroke: #ffffff; stroke-width: 0.8; stroke-linecap: square"/>
     </g>
     <g id="line2d_22">
      <g>
       <use xlink:href="#m2189182035" x="44.879375" y="3.799219" style="fill: #555555; stroke: #555555; stroke-width: 0.8"/>
      </g>
     </g>
     <g id="text_12">
      <!-- 0.25 -->
      <g style="fill: #555555" transform="translate(15.61375 7.598437) scale(0.1 -0.1)">
       <use xlink:href="#DejaVuSans-30"/>
       <use xlink:href="#DejaVuSans-2e" x="63.623047"/>
       <use xlink:href="#DejaVuSans-32" x="95.410156"/>
       <use xlink:href="#DejaVuSans-35" x="159.033203"/>
      </g>
     </g>
    </g>
    <g id="text_13">
     <!-- Value -->
     <g style="fill: #555555" transform="translate(9.118125 101.343125) rotate(-90) scale(0.12 -0.12)">
      <defs>
       <path id="DejaVuSans-56" d="M 1831 0 
L 50 4666 
L 709 4666 
L 2188 738 
L 3669 4666 
L 4325 4666 
L 2547 0 
L 1831 0 
z
" transform="scale(0.015625)"/>
       <path id="DejaVuSans-6c" d="M 603 4863 
L 1178 4863 
L 1178 0 
L 603 0 
L 603 4863 
z
" transform="scale(0.015625)"/>
       <path id="DejaVuSans-75" d="M 544 1381 
L 544 3500 
L 1119 3500 
L 1119 1403 
Q 1119 906 1312 657 
Q 1506 409 1894 409 
Q 2359 409 2629 706 
Q 2900 1003 2900 1516 
L 2900 3500 
L 3475 3500 
L 3475 0 
L 2900 0 
L 2900 538 
Q 2691 219 2414 64 
Q 2138 -91 1772 -91 
Q 1169 -91 856 284 
Q 544 659 544 1381 
z
M 1991 3584 
L 1991 3584 
z
" transform="scale(0.015625)"/>
      </defs>
      <use xlink:href="#DejaVuSans-56"/>
      <use xlink:href="#DejaVuSans-61" x="60.658203"/>
      <use xlink:href="#DejaVuSans-6c" x="121.9375"/>
      <use xlink:href="#DejaVuSans-75" x="149.720703"/>
      <use xlink:href="#DejaVuSans-65" x="213.099609"/>
     </g>
    </g>
   </g>
   <g id="PolyCollection_1">
    <defs>
     <path id="mf903aabb0a" d="M 62.63392 -41.092081 
L 62.63392 -45.042629 
L 64.031916 -46.313286 
L 65.429912 -46.582237 
L 66.827908 -45.062944 
L 68.225903 -45.60853 
L 69.623899 -47.753991 
L 71.021895 -50.932136 
L 72.41989 -50.21725 
L 73.817886 -51.80599 
L 75.215882 -51.807325 
L 76.613878 -51.36538 
L 78.011873 -51.794194 
L 79.409869 -51.211494 
L 80.807865 -51.514251 
L 82.20586 -51.912289 
L 83.603856 -51.248985 
L 85.001852 -55.98087 
L 86.399847 -59.736981 
L 87.797843 -60.638561 
L 89.195839 -60.362304 
L 90.593835 -60.5246 
L 91.99183 -61.890883 
L 93.389826 -61.477385 
L 94.787822 -61.06771 
L 96.185817 -61.298338 
L 97.583813 -62.348513 
L 98.981809 -63.606821 
L 100.379804 -62.470865 
L 101.7778 -63.305761 
L 103.175796 -64.014112 
L 104.573792 -63.890161 
L 105.971787 -64.206638 
L 107.369783 -63.895709 
L 108.767779 -71.9233 
L 110.165774 -77.225783 
L 111.56377 -69.297387 
L 112.961766 -77.120777 
L 114.359762 -86.053 
L 115.757757 -85.364425 
L 117.155753 -85.537756 
L 118.553749 -85.407443 
L 119.951744 -84.554181 
L 121.34974 -82.074181 
L 122.747736 -85.010189 
L 124.145731 -84.600914 
L 125.543727 -77.124173 
L 126.941723 -76.888896 
L 128.339719 -76.077146 
L 129.737714 -73.58965 
L 131.13571 -70.834415 
L 132.533706 -74.275187 
L 133.931701 -75.672708 
L 135.329697 -81.775334 
L 136.727693 -86.556311 
L 138.125689 -87.786398 
L 139.523684 -93.796124 
L 140.92168 -94.349299 
L 142.319676 -89.922434 
L 143.717671 -91.749875 
L 145.115667 -91.501386 
L 146.513663 -92.998996 
L 147.911658 -95.415256 
L 149.309654 -101.178724 
L 150.70765 -96.71186 
L 152.105646 -96.212925 
L 153.503641 -98.344761 
L 154.901637 -97.61927 
L 156.299633 -103.519993 
L 157.697628 -104.417913 
L 159.095624 -103.640569 
L 160.49362 -102.02559 
L 161.891616 -102.938032 
L 163.289611 -102.877768 
L 164.687607 -109.168606 
L 166.085603 -104.204356 
L 167.483598 -103.138606 
L 168.881594 -102.524271 
L 170.27959 -105.664257 
L 171.677585 -105.566455 
L 173.075581 -104.43601 
L 174.473577 -106.424322 
L 175.871573 -111.272982 
L 177.269568 -111.122067 
L 178.667564 -116.269972 
L 180.06556 -112.145785 
L 181.463555 -115.484939 
L 182.861551 -115.506003 
L 184.259547 -117.240424 
L 185.657543 -126.620961 
L 187.055538 -126.460269 
L 188.453534 -127.692369 
L 189.85153 -122.365849 
L 191.249525 -126.009764 
L 192.647521 -135.706005 
L 194.045517 -143.823062 
L 195.443512 -145.682903 
L 196.841508 -150.867937 
L 198.239504 -150.44794 
L 199.6375 -136.624495 
L 201.035495 -143.510803 
L 202.433491 -143.501599 
L 203.831487 -141.331635 
L 205.229482 -140.989844 
L 206.627478 -142.138132 
L 208.025474 -140.488652 
L 209.423469 -139.612903 
L 210.821465 -138.635805 
L 212.219461 -136.231586 
L 213.617457 -133.691059 
L 215.015452 -127.103958 
L 216.413448 -132.654582 
L 217.811444 -133.904135 
L 219.209439 -135.55769 
L 220.607435 -133.221045 
L 222.005431 -132.789239 
L 223.403427 -124.932937 
L 224.801422 -124.730042 
L 226.199418 -132.321905 
L 227.597414 -130.633477 
L 228.995409 -130.887212 
L 230.393405 -128.161642 
L 231.791401 -121.864484 
L 233.189396 -130.789966 
L 234.587392 -120.801423 
L 235.985388 -115.933517 
L 237.383384 -113.901484 
L 238.781379 -115.261453 
L 240.179375 -107.377215 
L 241.577371 -105.301934 
L 242.975366 -99.791556 
L 244.373362 -97.53112 
L 245.771358 -97.169996 
L 247.169354 -92.704081 
L 248.567349 -96.525677 
L 249.965345 -91.447547 
L 251.363341 -89.45431 
L 252.761336 -85.024098 
L 254.159332 -76.875749 
L 255.557328 -75.815773 
L 256.955323 -75.335088 
L 258.353319 -76.637192 
L 259.751315 -75.789433 
L 261.149311 -75.560936 
L 262.547306 -74.333248 
L 263.945302 -70.985564 
L 265.343298 -70.534936 
L 266.741293 -71.678456 
L 268.139289 -72.383647 
L 269.537285 -71.307199 
L 270.935281 -72.044338 
L 272.333276 -71.776198 
L 273.731272 -72.28975 
L 275.129268 -71.828804 
L 276.527263 -67.04232 
L 277.925259 -67.210793 
L 279.323255 -71.678757 
L 280.72125 -67.384044 
L 282.119246 -62.302701 
L 283.517242 -67.642022 
L 284.915238 -68.813088 
L 286.313233 -67.275257 
L 287.711229 -62.577841 
L 289.109225 -62.49497 
L 290.50722 -62.489207 
L 291.905216 -62.75089 
L 293.303212 -61.949475 
L 294.701207 -61.958957 
L 296.099203 -62.008947 
L 297.497199 -66.698421 
L 298.895195 -62.20051 
L 300.29319 -61.511736 
L 301.691186 -61.56714 
L 303.089182 -59.942779 
L 304.487177 -62.352281 
L 305.885173 -59.940121 
L 307.283169 -60.356031 
L 308.681165 -60.211127 
L 310.07916 -60.032266 
L 311.477156 -59.60145 
L 312.875152 -60.050888 
L 314.273147 -58.886363 
L 315.671143 -64.689825 
L 317.069139 -63.643043 
L 318.467134 -63.645578 
L 319.86513 -58.741292 
L 321.263126 -57.804991 
L 322.661122 -61.512191 
L 324.059117 -61.597487 
L 325.457113 -61.230256 
L 326.855109 -60.803856 
L 328.253104 -61.248822 
L 329.6511 -61.209408 
L 331.049096 -58.451373 
L 332.447092 -58.763994 
L 333.845087 -61.375756 
L 335.243083 -60.791887 
L 336.641079 -61.669661 
L 338.039074 -57.476157 
L 339.43707 -58.578646 
L 340.835066 -59.085535 
L 342.233061 -58.515793 
L 343.631057 -59.037598 
L 345.029053 -59.119489 
L 346.427049 -59.261343 
L 347.825044 -59.562785 
L 349.22304 -59.757606 
L 350.621036 -59.880253 
L 352.019031 -60.708629 
L 353.417027 -64.76069 
L 354.815023 -65.056236 
L 356.213019 -65.060805 
L 357.611014 -66.340096 
L 359.00901 -66.059565 
L 360.407006 -68.453333 
L 361.805001 -75.169872 
L 363.202997 -82.418269 
L 364.600993 -82.70891 
L 365.998988 -82.796934 
L 367.396984 -86.28379 
L 368.79498 -87.931382 
L 370.192976 -89.654562 
L 371.590971 -92.495742 
L 372.988967 -99.278261 
L 374.386963 -104.542481 
L 375.784958 -102.987652 
L 377.182954 -106.312196 
L 378.58095 -109.896922 
L 379.978946 -110.911246 
L 381.376941 -122.817072 
L 382.774937 -129.511095 
L 384.172933 -143.26479 
L 385.570928 -139.879107 
L 386.968924 -152.022199 
L 388.36692 -156.866392 
L 389.764915 -159.895066 
L 391.162911 -161.414654 
L 392.560907 -162.513869 
L 393.958903 -170.93796 
L 395.356898 -164.780667 
L 396.754894 -174.097427 
L 398.15289 -172.95712 
L 399.550885 -181.074694 
L 400.948881 -181.153216 
L 402.346877 -181.437488 
L 403.744872 -182.002324 
L 405.142868 -188.969848 
L 406.540864 -190.109833 
L 407.93886 -190.104814 
L 409.336855 -190.377178 
L 410.734851 -191.051875 
L 412.132847 -190.247858 
L 413.530842 -188.402513 
L 414.928838 -161.487589 
L 416.326834 -173.665447 
L 417.72483 -175.462471 
L 417.72483 -162.435256 
L 417.72483 -162.435256 
L 416.326834 -162.077444 
L 414.928838 -149.655094 
L 413.530842 -175.693072 
L 412.132847 -178.017648 
L 410.734851 -177.154373 
L 409.336855 -177.313157 
L 407.93886 -174.784006 
L 406.540864 -177.574362 
L 405.142868 -174.945896 
L 403.744872 -168.48862 
L 402.346877 -168.099158 
L 400.948881 -168.052304 
L 399.550885 -167.799014 
L 398.15289 -159.540652 
L 396.754894 -160.151185 
L 395.356898 -152.008813 
L 393.958903 -156.242765 
L 392.560907 -149.190871 
L 391.162911 -146.500216 
L 389.764915 -146.403065 
L 388.36692 -145.091846 
L 386.968924 -140.207579 
L 385.570928 -129.128928 
L 384.172933 -132.818909 
L 382.774937 -119.238448 
L 381.376941 -111.18156 
L 379.978946 -100.543927 
L 378.58095 -99.735722 
L 377.182954 -96.386204 
L 375.784958 -93.423057 
L 374.386963 -93.831645 
L 372.988967 -89.802534 
L 371.590971 -84.001694 
L 370.192976 -81.074305 
L 368.79498 -79.167779 
L 367.396984 -77.78879 
L 365.998988 -75.564106 
L 364.600993 -74.481715 
L 363.202997 -74.021724 
L 361.805001 -67.259602 
L 360.407006 -62.100448 
L 359.00901 -60.108901 
L 357.611014 -60.819708 
L 356.213019 -59.534151 
L 354.815023 -59.186548 
L 353.417027 -59.388927 
L 352.019031 -55.4244 
L 350.621036 -54.220753 
L 349.22304 -54.302867 
L 347.825044 -53.92765 
L 346.427049 -53.241755 
L 345.029053 -53.588743 
L 343.631057 -53.319509 
L 342.233061 -52.963383 
L 340.835066 -53.155594 
L 339.43707 -52.344326 
L 338.039074 -52.39665 
L 336.641079 -55.613942 
L 335.243083 -55.510392 
L 333.845087 -54.52144 
L 332.447092 -52.16114 
L 331.049096 -52.340436 
L 329.6511 -54.785863 
L 328.253104 -55.652948 
L 326.855109 -55.375774 
L 325.457113 -54.921534 
L 324.059117 -55.776107 
L 322.661122 -55.621757 
L 321.263126 -52.218015 
L 319.86513 -52.974919 
L 318.467134 -56.827176 
L 317.069139 -56.986049 
L 315.671143 -56.650942 
L 314.273147 -53.289316 
L 312.875152 -54.572506 
L 311.477156 -53.577737 
L 310.07916 -54.154433 
L 308.681165 -54.951225 
L 307.283169 -54.382361 
L 305.885173 -53.68737 
L 304.487177 -56.171919 
L 303.089182 -53.846002 
L 301.691186 -55.892858 
L 300.29319 -55.522237 
L 298.895195 -55.642208 
L 297.497199 -59.711029 
L 296.099203 -56.081042 
L 294.701207 -55.976873 
L 293.303212 -56.097507 
L 291.905216 -56.561367 
L 290.50722 -56.468281 
L 289.109225 -55.89705 
L 287.711229 -56.453659 
L 286.313233 -60.320257 
L 284.915238 -61.13657 
L 283.517242 -60.524824 
L 282.119246 -56.310727 
L 280.72125 -60.583042 
L 279.323255 -63.248238 
L 277.925259 -59.821376 
L 276.527263 -59.614332 
L 275.129268 -64.068738 
L 273.731272 -64.70204 
L 272.333276 -63.718052 
L 270.935281 -64.781226 
L 269.537285 -64.167431 
L 268.139289 -64.796044 
L 266.741293 -64.196027 
L 265.343298 -63.65906 
L 263.945302 -64.192531 
L 262.547306 -67.529164 
L 261.149311 -67.855186 
L 259.751315 -68.557157 
L 258.353319 -68.797263 
L 256.955323 -67.407859 
L 255.557328 -68.232229 
L 254.159332 -69.134187 
L 252.761336 -76.486653 
L 251.363341 -81.991674 
L 249.965345 -82.041502 
L 248.567349 -87.403847 
L 247.169354 -83.167778 
L 245.771358 -88.248894 
L 244.373362 -89.011475 
L 242.975366 -90.291622 
L 241.577371 -94.95742 
L 240.179375 -97.546734 
L 238.781379 -103.559588 
L 237.383384 -103.57398 
L 235.985388 -104.938884 
L 234.587392 -110.484806 
L 233.189396 -119.161816 
L 231.791401 -110.263115 
L 230.393405 -117.389189 
L 228.995409 -118.789256 
L 227.597414 -119.272473 
L 226.199418 -121.403404 
L 224.801422 -113.850365 
L 223.403427 -113.761223 
L 222.005431 -121.549462 
L 220.607435 -121.46536 
L 219.209439 -123.139952 
L 217.811444 -122.490441 
L 216.413448 -123.508504 
L 215.015452 -116.559448 
L 213.617457 -120.858222 
L 212.219461 -124.938005 
L 210.821465 -127.789344 
L 209.423469 -127.282474 
L 208.025474 -127.524181 
L 206.627478 -128.241556 
L 205.229482 -128.053283 
L 203.831487 -129.900204 
L 202.433491 -130.619178 
L 201.035495 -130.631905 
L 199.6375 -122.77965 
L 198.239504 -136.929844 
L 196.841508 -135.611357 
L 195.443512 -131.14299 
L 194.045517 -130.406876 
L 192.647521 -123.804905 
L 191.249525 -114.560151 
L 189.85153 -110.086489 
L 188.453534 -115.795464 
L 187.055538 -114.262609 
L 185.657543 -113.980749 
L 184.259547 -104.146003 
L 182.861551 -103.410174 
L 181.463555 -103.318569 
L 180.06556 -100.8827 
L 178.667564 -103.100394 
L 177.269568 -98.855266 
L 175.871573 -100.372256 
L 174.473577 -93.292865 
L 173.075581 -93.719077 
L 171.677585 -93.236198 
L 170.27959 -92.764444 
L 168.881594 -91.037892 
L 167.483598 -92.869987 
L 166.085603 -91.526101 
L 164.687607 -97.091554 
L 163.289611 -91.438833 
L 161.891616 -92.047706 
L 160.49362 -91.523786 
L 159.095624 -92.218754 
L 157.697628 -93.822933 
L 156.299633 -92.140289 
L 154.901637 -87.406634 
L 153.503641 -88.082633 
L 152.105646 -86.680336 
L 150.70765 -87.12644 
L 149.309654 -91.373376 
L 147.911658 -85.627233 
L 146.513663 -83.909011 
L 145.115667 -83.075193 
L 143.717671 -83.491157 
L 142.319676 -81.239361 
L 140.92168 -86.627254 
L 139.523684 -85.374746 
L 138.125689 -79.221381 
L 136.727693 -80.084694 
L 135.329697 -74.711024 
L 133.931701 -69.127749 
L 132.533706 -67.378365 
L 131.13571 -63.854338 
L 129.737714 -67.567566 
L 128.339719 -69.184121 
L 126.941723 -69.75071 
L 125.543727 -69.987475 
L 124.145731 -77.473771 
L 122.747736 -76.981609 
L 121.34974 -74.272163 
L 119.951744 -76.955028 
L 118.553749 -78.420562 
L 117.155753 -77.925877 
L 115.757757 -78.047003 
L 114.359762 -78.413948 
L 112.961766 -70.119883 
L 111.56377 -63.65751 
L 110.165774 -70.102089 
L 108.767779 -65.837277 
L 107.369783 -57.837342 
L 105.971787 -57.894063 
L 104.573792 -57.346491 
L 103.175796 -58.161675 
L 101.7778 -56.741099 
L 100.379804 -56.388225 
L 98.981809 -57.809979 
L 97.583813 -56.354624 
L 96.185817 -55.38703 
L 94.787822 -54.71885 
L 93.389826 -55.781646 
L 91.99183 -55.765951 
L 90.593835 -54.558552 
L 89.195839 -54.445217 
L 87.797843 -53.636935 
L 86.399847 -54.07448 
L 85.001852 -50.220131 
L 83.603856 -47.325548 
L 82.20586 -47.770157 
L 80.807865 -46.72247 
L 79.409869 -46.593911 
L 78.011873 -47.171469 
L 76.613878 -47.265512 
L 75.215882 -47.148034 
L 73.817886 -47.233204 
L 72.41989 -46.03737 
L 71.021895 -46.271709 
L 69.623899 -43.525165 
L 68.225903 -42.022618 
L 66.827908 -41.043265 
L 65.429912 -42.026828 
L 64.031916 -42.132757 
L 62.63392 -41.092081 
z
" style="stroke: #0db14b; stroke-opacity: 0.5; stroke-width: 0.5"/>
    </defs>
    <g clip-path="url(#p5134619313)">
     <use xlink:href="#mf903aabb0a" x="0" y="200.3175" style="fill: #0db14b; fill-opacity: 0.5; stroke: #0db14b; stroke-opacity: 0.5; stroke-width: 0.5"/>
    </g>
   </g>
   <g id="line2d_23">
    <path d="M 62.63392 157.250145 
L 64.031916 156.094479 
L 65.429912 156.012968 
L 66.827908 157.264396 
L 68.225903 156.501926 
L 69.623899 154.677922 
L 71.021895 151.715578 
L 72.41989 152.19019 
L 73.817886 150.797903 
L 75.215882 150.839821 
L 76.613878 151.002054 
L 78.011873 150.834669 
L 79.409869 151.414798 
L 80.807865 151.19914 
L 82.20586 150.476277 
L 83.603856 151.030234 
L 86.399847 143.411769 
L 90.593835 142.775924 
L 91.99183 141.489083 
L 93.389826 141.687985 
L 94.787822 142.42422 
L 96.185817 141.974816 
L 97.583813 140.965932 
L 98.981809 139.6091 
L 100.379804 140.887955 
L 101.7778 140.29407 
L 103.175796 139.229607 
L 104.573792 139.699174 
L 105.971787 139.26715 
L 107.369783 139.450975 
L 108.767779 131.437212 
L 110.165774 126.653564 
L 111.56377 133.840052 
L 112.961766 126.69717 
L 114.359762 118.084026 
L 115.757757 118.611786 
L 117.155753 118.585684 
L 118.553749 118.403497 
L 119.951744 119.562896 
L 121.34974 122.144328 
L 122.747736 119.321601 
L 124.145731 119.280157 
L 125.543727 126.761676 
L 126.941723 126.997697 
L 128.339719 127.686867 
L 129.737714 129.738892 
L 131.13571 132.973123 
L 132.533706 129.490724 
L 133.931701 127.917272 
L 135.329697 122.074321 
L 136.727693 116.996998 
L 138.125689 116.813611 
L 139.523684 110.732065 
L 140.92168 109.829224 
L 142.319676 114.736602 
L 143.717671 112.696984 
L 145.115667 113.029211 
L 146.513663 111.863496 
L 147.911658 109.796255 
L 149.309654 104.04145 
L 150.70765 108.39835 
L 152.105646 108.87087 
L 153.503641 107.103803 
L 154.901637 107.804548 
L 156.299633 102.487359 
L 157.697628 101.197077 
L 160.49362 103.542812 
L 161.891616 102.824631 
L 163.289611 103.1592 
L 164.687607 97.18742 
L 166.085603 102.452272 
L 167.483598 102.313204 
L 168.881594 103.536419 
L 170.27959 101.10315 
L 171.677585 100.916173 
L 173.075581 101.239957 
L 174.473577 100.458906 
L 175.871573 94.494881 
L 177.269568 95.328834 
L 178.667564 90.632317 
L 180.06556 93.803258 
L 181.463555 90.915746 
L 182.861551 90.859411 
L 184.259547 89.624286 
L 185.657543 80.016645 
L 187.055538 79.956061 
L 188.453534 78.573583 
L 189.85153 84.091331 
L 191.249525 80.032543 
L 192.647521 70.562045 
L 194.045517 63.202531 
L 195.443512 61.904554 
L 196.841508 57.077853 
L 198.239504 56.628608 
L 199.6375 70.615427 
L 201.035495 63.246146 
L 202.433491 63.257112 
L 203.831487 64.70158 
L 205.229482 65.795936 
L 206.627478 65.127656 
L 208.025474 66.311084 
L 209.423469 66.869812 
L 210.821465 67.104926 
L 212.219461 69.732705 
L 213.617457 73.04286 
L 215.015452 78.485797 
L 216.413448 72.235957 
L 217.811444 72.120212 
L 219.209439 70.968679 
L 220.607435 72.974298 
L 222.005431 73.14815 
L 223.403427 80.97042 
L 224.801422 81.027297 
L 226.199418 73.454845 
L 227.597414 75.364525 
L 228.995409 75.479266 
L 230.393405 77.542084 
L 231.791401 84.253701 
L 233.189396 75.341609 
L 234.587392 84.674386 
L 235.985388 89.881299 
L 237.383384 91.579768 
L 238.781379 90.90698 
L 240.179375 97.855526 
L 241.577371 100.187823 
L 242.975366 105.275911 
L 244.373362 107.046202 
L 245.771358 107.608055 
L 247.169354 112.381571 
L 248.567349 108.352738 
L 249.965345 113.572975 
L 251.363341 114.594508 
L 252.761336 119.562125 
L 254.159332 127.312532 
L 255.557328 128.293499 
L 256.955323 128.946027 
L 258.353319 127.600273 
L 261.149311 128.609439 
L 262.547306 129.386294 
L 263.945302 132.728452 
L 265.343298 133.220502 
L 266.741293 132.380258 
L 268.139289 131.727655 
L 269.537285 132.580185 
L 270.935281 131.904718 
L 272.333276 132.570375 
L 273.731272 131.821605 
L 275.129268 132.368729 
L 276.527263 136.989174 
L 277.925259 136.801415 
L 279.323255 132.854003 
L 280.72125 136.333957 
L 282.119246 141.010786 
L 283.517242 136.234077 
L 284.915238 135.342671 
L 286.313233 136.519743 
L 287.711229 140.80175 
L 289.109225 141.12149 
L 291.905216 140.661372 
L 293.303212 141.294009 
L 294.701207 141.349585 
L 296.099203 141.272505 
L 297.497199 137.112775 
L 298.895195 141.396141 
L 300.29319 141.800513 
L 301.691186 141.587501 
L 303.089182 143.42311 
L 304.487177 141.0554 
L 305.885173 143.503755 
L 307.283169 142.948304 
L 308.681165 142.736324 
L 311.477156 143.727907 
L 312.875152 143.005803 
L 314.273147 144.229661 
L 315.671143 139.647116 
L 317.069139 140.002954 
L 318.467134 140.081123 
L 319.86513 144.459395 
L 321.263126 145.305997 
L 322.661122 141.750526 
L 324.059117 141.630703 
L 325.457113 142.241605 
L 326.855109 142.227685 
L 328.253104 141.866615 
L 329.6511 142.319865 
L 331.049096 144.921595 
L 332.447092 144.854933 
L 333.845087 142.368902 
L 335.243083 142.16636 
L 336.641079 141.675699 
L 338.039074 145.381097 
L 339.43707 144.856014 
L 340.835066 144.196936 
L 342.233061 144.577912 
L 343.631057 144.138946 
L 345.029053 143.963384 
L 346.427049 144.065951 
L 347.825044 143.572282 
L 349.22304 143.287264 
L 350.621036 143.266997 
L 352.019031 142.250985 
L 353.417027 138.242692 
L 354.815023 138.196108 
L 356.213019 138.020022 
L 357.611014 136.737598 
L 359.00901 137.233267 
L 360.407006 135.040609 
L 361.805001 129.102763 
L 363.202997 122.097504 
L 364.600993 121.722188 
L 365.998988 121.13698 
L 367.396984 118.28121 
L 368.79498 116.76792 
L 370.192976 114.953067 
L 371.590971 112.068782 
L 372.988967 105.777103 
L 374.386963 101.130437 
L 375.784958 102.112145 
L 377.182954 98.9683 
L 378.58095 95.501178 
L 379.978946 94.589914 
L 381.376941 83.318184 
L 382.774937 75.942729 
L 384.172933 62.275651 
L 385.570928 65.813483 
L 386.968924 54.202611 
L 388.36692 49.338381 
L 389.764915 47.168435 
L 391.162911 46.360065 
L 392.560907 44.46513 
L 393.958903 36.727138 
L 395.356898 41.92276 
L 396.754894 33.193194 
L 398.15289 34.068614 
L 399.550885 25.880646 
L 402.346877 25.549177 
L 403.744872 25.072028 
L 405.142868 18.359628 
L 406.540864 16.475403 
L 407.93886 17.87309 
L 409.336855 16.472333 
L 410.734851 16.214376 
L 412.132847 16.184747 
L 413.530842 18.269708 
L 414.928838 44.746158 
L 416.326834 32.446055 
L 417.72483 31.368636 
L 417.72483 31.368636 
" clip-path="url(#p5134619313)" style="fill: none; stroke: #0db14b; stroke-width: 3; stroke-linecap: square"/>
    <defs>
     <path id="m6afa9a5cdb" d="M 0 1.5 
C 0.397805 1.5 0.77937 1.341951 1.06066 1.06066 
C 1.341951 0.77937 1.5 0.397805 1.5 0 
C 1.5 -0.397805 1.341951 -0.77937 1.06066 -1.06066 
C 0.77937 -1.341951 0.397805 -1.5 0 -1.5 
C -0.397805 -1.5 -0.77937 -1.341951 -1.06066 -1.06066 
C -1.341951 -0.77937 -1.5 -0.397805 -1.5 0 
C -1.5 0.397805 -1.341951 0.77937 -1.06066 1.06066 
C -0.77937 1.341951 -0.397805 1.5 0 1.5 
z
" style="stroke: #0db14b"/>
    </defs>
    <g clip-path="url(#p5134619313)">
     <use xlink:href="#m6afa9a5cdb" x="62.63392" y="157.250145" style="fill: #0db14b; stroke: #0db14b"/>
     <use xlink:href="#m6afa9a5cdb" x="64.031916" y="156.094479" style="fill: #0db14b; stroke: #0db14b"/>
     <use xlink:href="#m6afa9a5cdb" x="65.429912" y="156.012968" style="fill: #0db14b; stroke: #0db14b"/>
     <use xlink:href="#m6afa9a5cdb" x="66.827908" y="157.264396" style="fill: #0db14b; stroke: #0db14b"/>
     <use xlink:href="#m6afa9a5cdb" x="68.225903" y="156.501926" style="fill: #0db14b; stroke: #0db14b"/>
     <use xlink:href="#m6afa9a5cdb" x="69.623899" y="154.677922" style="fill: #0db14b; stroke: #0db14b"/>
     <use xlink:href="#m6afa9a5cdb" x="71.021895" y="151.715578" style="fill: #0db14b; stroke: #0db14b"/>
     <use xlink:href="#m6afa9a5cdb" x="72.41989" y="152.19019" style="fill: #0db14b; stroke: #0db14b"/>
     <use xlink:href="#m6afa9a5cdb" x="73.817886" y="150.797903" style="fill: #0db14b; stroke: #0db14b"/>
     <use xlink:href="#m6afa9a5cdb" x="75.215882" y="150.839821" style="fill: #0db14b; stroke: #0db14b"/>
     <use xlink:href="#m6afa9a5cdb" x="76.613878" y="151.002054" style="fill: #0db14b; stroke: #0db14b"/>
     <use xlink:href="#m6afa9a5cdb" x="78.011873" y="150.834669" style="fill: #0db14b; stroke: #0db14b"/>
     <use xlink:href="#m6afa9a5cdb" x="79.409869" y="151.414798" style="fill: #0db14b; stroke: #0db14b"/>
     <use xlink:href="#m6afa9a5cdb" x="80.807865" y="151.19914" style="fill: #0db14b; stroke: #0db14b"/>
     <use xlink:href="#m6afa9a5cdb" x="82.20586" y="150.476277" style="fill: #0db14b; stroke: #0db14b"/>
     <use xlink:href="#m6afa9a5cdb" x="83.603856" y="151.030234" style="fill: #0db14b; stroke: #0db14b"/>
     <use xlink:href="#m6afa9a5cdb" x="85.001852" y="147.217" style="fill: #0db14b; stroke: #0db14b"/>
     <use xlink:href="#m6afa9a5cdb" x="86.399847" y="143.411769" style="fill: #0db14b; stroke: #0db14b"/>
     <use xlink:href="#m6afa9a5cdb" x="87.797843" y="143.179752" style="fill: #0db14b; stroke: #0db14b"/>
     <use xlink:href="#m6afa9a5cdb" x="89.195839" y="142.913739" style="fill: #0db14b; stroke: #0db14b"/>
     <use xlink:href="#m6afa9a5cdb" x="90.593835" y="142.775924" style="fill: #0db14b; stroke: #0db14b"/>
     <use xlink:href="#m6afa9a5cdb" x="91.99183" y="141.489083" style="fill: #0db14b; stroke: #0db14b"/>
     <use xlink:href="#m6afa9a5cdb" x="93.389826" y="141.687985" style="fill: #0db14b; stroke: #0db14b"/>
     <use xlink:href="#m6afa9a5cdb" x="94.787822" y="142.42422" style="fill: #0db14b; stroke: #0db14b"/>
     <use xlink:href="#m6afa9a5cdb" x="96.185817" y="141.974816" style="fill: #0db14b; stroke: #0db14b"/>
     <use xlink:href="#m6afa9a5cdb" x="97.583813" y="140.965932" style="fill: #0db14b; stroke: #0db14b"/>
     <use xlink:href="#m6afa9a5cdb" x="98.981809" y="139.6091" style="fill: #0db14b; stroke: #0db14b"/>
     <use xlink:href="#m6afa9a5cdb" x="100.379804" y="140.887955" style="fill: #0db14b; stroke: #0db14b"/>
     <use xlink:href="#m6afa9a5cdb" x="101.7778" y="140.29407" style="fill: #0db14b; stroke: #0db14b"/>
     <use xlink:href="#m6afa9a5cdb" x="103.175796" y="139.229607" style="fill: #0db14b; stroke: #0db14b"/>
     <use xlink:href="#m6afa9a5cdb" x="104.573792" y="139.699174" style="fill: #0db14b; stroke: #0db14b"/>
     <use xlink:href="#m6afa9a5cdb" x="105.971787" y="139.26715" style="fill: #0db14b; stroke: #0db14b"/>
     <use xlink:href="#m6afa9a5cdb" x="107.369783" y="139.450975" style="fill: #0db14b; stroke: #0db14b"/>
     <use xlink:href="#m6afa9a5cdb" x="108.767779" y="131.437212" style="fill: #0db14b; stroke: #0db14b"/>
     <use xlink:href="#m6afa9a5cdb" x="110.165774" y="126.653564" style="fill: #0db14b; stroke: #0db14b"/>
     <use xlink:href="#m6afa9a5cdb" x="111.56377" y="133.840052" style="fill: #0db14b; stroke: #0db14b"/>
     <use xlink:href="#m6afa9a5cdb" x="112.961766" y="126.69717" style="fill: #0db14b; stroke: #0db14b"/>
     <use xlink:href="#m6afa9a5cdb" x="114.359762" y="118.084026" style="fill: #0db14b; stroke: #0db14b"/>
     <use xlink:href="#m6afa9a5cdb" x="115.757757" y="118.611786" style="fill: #0db14b; stroke: #0db14b"/>
     <use xlink:href="#m6afa9a5cdb" x="117.155753" y="118.585684" style="fill: #0db14b; stroke: #0db14b"/>
     <use xlink:href="#m6afa9a5cdb" x="118.553749" y="118.403497" style="fill: #0db14b; stroke: #0db14b"/>
     <use xlink:href="#m6afa9a5cdb" x="119.951744" y="119.562896" style="fill: #0db14b; stroke: #0db14b"/>
     <use xlink:href="#m6afa9a5cdb" x="121.34974" y="122.144328" style="fill: #0db14b; stroke: #0db14b"/>
     <use xlink:href="#m6afa9a5cdb" x="122.747736" y="119.321601" style="fill: #0db14b; stroke: #0db14b"/>
     <use xlink:href="#m6afa9a5cdb" x="124.145731" y="119.280157" style="fill: #0db14b; stroke: #0db14b"/>
     <use xlink:href="#m6afa9a5cdb" x="125.543727" y="126.761676" style="fill: #0db14b; stroke: #0db14b"/>
     <use xlink:href="#m6afa9a5cdb" x="126.941723" y="126.997697" style="fill: #0db14b; stroke: #0db14b"/>
     <use xlink:href="#m6afa9a5cdb" x="128.339719" y="127.686867" style="fill: #0db14b; stroke: #0db14b"/>
     <use xlink:href="#m6afa9a5cdb" x="129.737714" y="129.738892" style="fill: #0db14b; stroke: #0db14b"/>
     <use xlink:href="#m6afa9a5cdb" x="131.13571" y="132.973123" style="fill: #0db14b; stroke: #0db14b"/>
     <use xlink:href="#m6afa9a5cdb" x="132.533706" y="129.490724" style="fill: #0db14b; stroke: #0db14b"/>
     <use xlink:href="#m6afa9a5cdb" x="133.931701" y="127.917272" style="fill: #0db14b; stroke: #0db14b"/>
     <use xlink:href="#m6afa9a5cdb" x="135.329697" y="122.074321" style="fill: #0db14b; stroke: #0db14b"/>
     <use xlink:href="#m6afa9a5cdb" x="136.727693" y="116.996998" style="fill: #0db14b; stroke: #0db14b"/>
     <use xlink:href="#m6afa9a5cdb" x="138.125689" y="116.813611" style="fill: #0db14b; stroke: #0db14b"/>
     <use xlink:href="#m6afa9a5cdb" x="139.523684" y="110.732065" style="fill: #0db14b; stroke: #0db14b"/>
     <use xlink:href="#m6afa9a5cdb" x="140.92168" y="109.829224" style="fill: #0db14b; stroke: #0db14b"/>
     <use xlink:href="#m6afa9a5cdb" x="142.319676" y="114.736602" style="fill: #0db14b; stroke: #0db14b"/>
     <use xlink:href="#m6afa9a5cdb" x="143.717671" y="112.696984" style="fill: #0db14b; stroke: #0db14b"/>
     <use xlink:href="#m6afa9a5cdb" x="145.115667" y="113.029211" style="fill: #0db14b; stroke: #0db14b"/>
     <use xlink:href="#m6afa9a5cdb" x="146.513663" y="111.863496" style="fill: #0db14b; stroke: #0db14b"/>
     <use xlink:href="#m6afa9a5cdb" x="147.911658" y="109.796255" style="fill: #0db14b; stroke: #0db14b"/>
     <use xlink:href="#m6afa9a5cdb" x="149.309654" y="104.04145" style="fill: #0db14b; stroke: #0db14b"/>
     <use xlink:href="#m6afa9a5cdb" x="150.70765" y="108.39835" style="fill: #0db14b; stroke: #0db14b"/>
     <use xlink:href="#m6afa9a5cdb" x="152.105646" y="108.87087" style="fill: #0db14b; stroke: #0db14b"/>
     <use xlink:href="#m6afa9a5cdb" x="153.503641" y="107.103803" style="fill: #0db14b; stroke: #0db14b"/>
     <use xlink:href="#m6afa9a5cdb" x="154.901637" y="107.804548" style="fill: #0db14b; stroke: #0db14b"/>
     <use xlink:href="#m6afa9a5cdb" x="156.299633" y="102.487359" style="fill: #0db14b; stroke: #0db14b"/>
     <use xlink:href="#m6afa9a5cdb" x="157.697628" y="101.197077" style="fill: #0db14b; stroke: #0db14b"/>
     <use xlink:href="#m6afa9a5cdb" x="159.095624" y="102.387839" style="fill: #0db14b; stroke: #0db14b"/>
     <use xlink:href="#m6afa9a5cdb" x="160.49362" y="103.542812" style="fill: #0db14b; stroke: #0db14b"/>
     <use xlink:href="#m6afa9a5cdb" x="161.891616" y="102.824631" style="fill: #0db14b; stroke: #0db14b"/>
     <use xlink:href="#m6afa9a5cdb" x="163.289611" y="103.1592" style="fill: #0db14b; stroke: #0db14b"/>
     <use xlink:href="#m6afa9a5cdb" x="164.687607" y="97.18742" style="fill: #0db14b; stroke: #0db14b"/>
     <use xlink:href="#m6afa9a5cdb" x="166.085603" y="102.452272" style="fill: #0db14b; stroke: #0db14b"/>
     <use xlink:href="#m6afa9a5cdb" x="167.483598" y="102.313204" style="fill: #0db14b; stroke: #0db14b"/>
     <use xlink:href="#m6afa9a5cdb" x="168.881594" y="103.536419" style="fill: #0db14b; stroke: #0db14b"/>
     <use xlink:href="#m6afa9a5cdb" x="170.27959" y="101.10315" style="fill: #0db14b; stroke: #0db14b"/>
     <use xlink:href="#m6afa9a5cdb" x="171.677585" y="100.916173" style="fill: #0db14b; stroke: #0db14b"/>
     <use xlink:href="#m6afa9a5cdb" x="173.075581" y="101.239957" style="fill: #0db14b; stroke: #0db14b"/>
     <use xlink:href="#m6afa9a5cdb" x="174.473577" y="100.458906" style="fill: #0db14b; stroke: #0db14b"/>
     <use xlink:href="#m6afa9a5cdb" x="175.871573" y="94.494881" style="fill: #0db14b; stroke: #0db14b"/>
     <use xlink:href="#m6afa9a5cdb" x="177.269568" y="95.328834" style="fill: #0db14b; stroke: #0db14b"/>
     <use xlink:href="#m6afa9a5cdb" x="178.667564" y="90.632317" style="fill: #0db14b; stroke: #0db14b"/>
     <use xlink:href="#m6afa9a5cdb" x="180.06556" y="93.803258" style="fill: #0db14b; stroke: #0db14b"/>
     <use xlink:href="#m6afa9a5cdb" x="181.463555" y="90.915746" style="fill: #0db14b; stroke: #0db14b"/>
     <use xlink:href="#m6afa9a5cdb" x="182.861551" y="90.859411" style="fill: #0db14b; stroke: #0db14b"/>
     <use xlink:href="#m6afa9a5cdb" x="184.259547" y="89.624286" style="fill: #0db14b; stroke: #0db14b"/>
     <use xlink:href="#m6afa9a5cdb" x="185.657543" y="80.016645" style="fill: #0db14b; stroke: #0db14b"/>
     <use xlink:href="#m6afa9a5cdb" x="187.055538" y="79.956061" style="fill: #0db14b; stroke: #0db14b"/>
     <use xlink:href="#m6afa9a5cdb" x="188.453534" y="78.573583" style="fill: #0db14b; stroke: #0db14b"/>
     <use xlink:href="#m6afa9a5cdb" x="189.85153" y="84.091331" style="fill: #0db14b; stroke: #0db14b"/>
     <use xlink:href="#m6afa9a5cdb" x="191.249525" y="80.032543" style="fill: #0db14b; stroke: #0db14b"/>
     <use xlink:href="#m6afa9a5cdb" x="192.647521" y="70.562045" style="fill: #0db14b; stroke: #0db14b"/>
     <use xlink:href="#m6afa9a5cdb" x="194.045517" y="63.202531" style="fill: #0db14b; stroke: #0db14b"/>
     <use xlink:href="#m6afa9a5cdb" x="195.443512" y="61.904554" style="fill: #0db14b; stroke: #0db14b"/>
     <use xlink:href="#m6afa9a5cdb" x="196.841508" y="57.077853" style="fill: #0db14b; stroke: #0db14b"/>
     <use xlink:href="#m6afa9a5cdb" x="198.239504" y="56.628608" style="fill: #0db14b; stroke: #0db14b"/>
     <use xlink:href="#m6afa9a5cdb" x="199.6375" y="70.615427" style="fill: #0db14b; stroke: #0db14b"/>
     <use xlink:href="#m6afa9a5cdb" x="201.035495" y="63.246146" style="fill: #0db14b; stroke: #0db14b"/>
     <use xlink:href="#m6afa9a5cdb" x="202.433491" y="63.257112" style="fill: #0db14b; stroke: #0db14b"/>
     <use xlink:href="#m6afa9a5cdb" x="203.831487" y="64.70158" style="fill: #0db14b; stroke: #0db14b"/>
     <use xlink:href="#m6afa9a5cdb" x="205.229482" y="65.795936" style="fill: #0db14b; stroke: #0db14b"/>
     <use xlink:href="#m6afa9a5cdb" x="206.627478" y="65.127656" style="fill: #0db14b; stroke: #0db14b"/>
     <use xlink:href="#m6afa9a5cdb" x="208.025474" y="66.311084" style="fill: #0db14b; stroke: #0db14b"/>
     <use xlink:href="#m6afa9a5cdb" x="209.423469" y="66.869812" style="fill: #0db14b; stroke: #0db14b"/>
     <use xlink:href="#m6afa9a5cdb" x="210.821465" y="67.104926" style="fill: #0db14b; stroke: #0db14b"/>
     <use xlink:href="#m6afa9a5cdb" x="212.219461" y="69.732705" style="fill: #0db14b; stroke: #0db14b"/>
     <use xlink:href="#m6afa9a5cdb" x="213.617457" y="73.04286" style="fill: #0db14b; stroke: #0db14b"/>
     <use xlink:href="#m6afa9a5cdb" x="215.015452" y="78.485797" style="fill: #0db14b; stroke: #0db14b"/>
     <use xlink:href="#m6afa9a5cdb" x="216.413448" y="72.235957" style="fill: #0db14b; stroke: #0db14b"/>
     <use xlink:href="#m6afa9a5cdb" x="217.811444" y="72.120212" style="fill: #0db14b; stroke: #0db14b"/>
     <use xlink:href="#m6afa9a5cdb" x="219.209439" y="70.968679" style="fill: #0db14b; stroke: #0db14b"/>
     <use xlink:href="#m6afa9a5cdb" x="220.607435" y="72.974298" style="fill: #0db14b; stroke: #0db14b"/>
     <use xlink:href="#m6afa9a5cdb" x="222.005431" y="73.14815" style="fill: #0db14b; stroke: #0db14b"/>
     <use xlink:href="#m6afa9a5cdb" x="223.403427" y="80.97042" style="fill: #0db14b; stroke: #0db14b"/>
     <use xlink:href="#m6afa9a5cdb" x="224.801422" y="81.027297" style="fill: #0db14b; stroke: #0db14b"/>
     <use xlink:href="#m6afa9a5cdb" x="226.199418" y="73.454845" style="fill: #0db14b; stroke: #0db14b"/>
     <use xlink:href="#m6afa9a5cdb" x="227.597414" y="75.364525" style="fill: #0db14b; stroke: #0db14b"/>
     <use xlink:href="#m6afa9a5cdb" x="228.995409" y="75.479266" style="fill: #0db14b; stroke: #0db14b"/>
     <use xlink:href="#m6afa9a5cdb" x="230.393405" y="77.542084" style="fill: #0db14b; stroke: #0db14b"/>
     <use xlink:href="#m6afa9a5cdb" x="231.791401" y="84.253701" style="fill: #0db14b; stroke: #0db14b"/>
     <use xlink:href="#m6afa9a5cdb" x="233.189396" y="75.341609" style="fill: #0db14b; stroke: #0db14b"/>
     <use xlink:href="#m6afa9a5cdb" x="234.587392" y="84.674386" style="fill: #0db14b; stroke: #0db14b"/>
     <use xlink:href="#m6afa9a5cdb" x="235.985388" y="89.881299" style="fill: #0db14b; stroke: #0db14b"/>
     <use xlink:href="#m6afa9a5cdb" x="237.383384" y="91.579768" style="fill: #0db14b; stroke: #0db14b"/>
     <use xlink:href="#m6afa9a5cdb" x="238.781379" y="90.90698" style="fill: #0db14b; stroke: #0db14b"/>
     <use xlink:href="#m6afa9a5cdb" x="240.179375" y="97.855526" style="fill: #0db14b; stroke: #0db14b"/>
     <use xlink:href="#m6afa9a5cdb" x="241.577371" y="100.187823" style="fill: #0db14b; stroke: #0db14b"/>
     <use xlink:href="#m6afa9a5cdb" x="242.975366" y="105.275911" style="fill: #0db14b; stroke: #0db14b"/>
     <use xlink:href="#m6afa9a5cdb" x="244.373362" y="107.046202" style="fill: #0db14b; stroke: #0db14b"/>
     <use xlink:href="#m6afa9a5cdb" x="245.771358" y="107.608055" style="fill: #0db14b; stroke: #0db14b"/>
     <use xlink:href="#m6afa9a5cdb" x="247.169354" y="112.381571" style="fill: #0db14b; stroke: #0db14b"/>
     <use xlink:href="#m6afa9a5cdb" x="248.567349" y="108.352738" style="fill: #0db14b; stroke: #0db14b"/>
     <use xlink:href="#m6afa9a5cdb" x="249.965345" y="113.572975" style="fill: #0db14b; stroke: #0db14b"/>
     <use xlink:href="#m6afa9a5cdb" x="251.363341" y="114.594508" style="fill: #0db14b; stroke: #0db14b"/>
     <use xlink:href="#m6afa9a5cdb" x="252.761336" y="119.562125" style="fill: #0db14b; stroke: #0db14b"/>
     <use xlink:href="#m6afa9a5cdb" x="254.159332" y="127.312532" style="fill: #0db14b; stroke: #0db14b"/>
     <use xlink:href="#m6afa9a5cdb" x="255.557328" y="128.293499" style="fill: #0db14b; stroke: #0db14b"/>
     <use xlink:href="#m6afa9a5cdb" x="256.955323" y="128.946027" style="fill: #0db14b; stroke: #0db14b"/>
     <use xlink:href="#m6afa9a5cdb" x="258.353319" y="127.600273" style="fill: #0db14b; stroke: #0db14b"/>
     <use xlink:href="#m6afa9a5cdb" x="259.751315" y="128.144205" style="fill: #0db14b; stroke: #0db14b"/>
     <use xlink:href="#m6afa9a5cdb" x="261.149311" y="128.609439" style="fill: #0db14b; stroke: #0db14b"/>
     <use xlink:href="#m6afa9a5cdb" x="262.547306" y="129.386294" style="fill: #0db14b; stroke: #0db14b"/>
     <use xlink:href="#m6afa9a5cdb" x="263.945302" y="132.728452" style="fill: #0db14b; stroke: #0db14b"/>
     <use xlink:href="#m6afa9a5cdb" x="265.343298" y="133.220502" style="fill: #0db14b; stroke: #0db14b"/>
     <use xlink:href="#m6afa9a5cdb" x="266.741293" y="132.380258" style="fill: #0db14b; stroke: #0db14b"/>
     <use xlink:href="#m6afa9a5cdb" x="268.139289" y="131.727655" style="fill: #0db14b; stroke: #0db14b"/>
     <use xlink:href="#m6afa9a5cdb" x="269.537285" y="132.580185" style="fill: #0db14b; stroke: #0db14b"/>
     <use xlink:href="#m6afa9a5cdb" x="270.935281" y="131.904718" style="fill: #0db14b; stroke: #0db14b"/>
     <use xlink:href="#m6afa9a5cdb" x="272.333276" y="132.570375" style="fill: #0db14b; stroke: #0db14b"/>
     <use xlink:href="#m6afa9a5cdb" x="273.731272" y="131.821605" style="fill: #0db14b; stroke: #0db14b"/>
     <use xlink:href="#m6afa9a5cdb" x="275.129268" y="132.368729" style="fill: #0db14b; stroke: #0db14b"/>
     <use xlink:href="#m6afa9a5cdb" x="276.527263" y="136.989174" style="fill: #0db14b; stroke: #0db14b"/>
     <use xlink:href="#m6afa9a5cdb" x="277.925259" y="136.801415" style="fill: #0db14b; stroke: #0db14b"/>
     <use xlink:href="#m6afa9a5cdb" x="279.323255" y="132.854003" style="fill: #0db14b; stroke: #0db14b"/>
     <use xlink:href="#m6afa9a5cdb" x="280.72125" y="136.333957" style="fill: #0db14b; stroke: #0db14b"/>
     <use xlink:href="#m6afa9a5cdb" x="282.119246" y="141.010786" style="fill: #0db14b; stroke: #0db14b"/>
     <use xlink:href="#m6afa9a5cdb" x="283.517242" y="136.234077" style="fill: #0db14b; stroke: #0db14b"/>
     <use xlink:href="#m6afa9a5cdb" x="284.915238" y="135.342671" style="fill: #0db14b; stroke: #0db14b"/>
     <use xlink:href="#m6afa9a5cdb" x="286.313233" y="136.519743" style="fill: #0db14b; stroke: #0db14b"/>
     <use xlink:href="#m6afa9a5cdb" x="287.711229" y="140.80175" style="fill: #0db14b; stroke: #0db14b"/>
     <use xlink:href="#m6afa9a5cdb" x="289.109225" y="141.12149" style="fill: #0db14b; stroke: #0db14b"/>
     <use xlink:href="#m6afa9a5cdb" x="290.50722" y="140.838756" style="fill: #0db14b; stroke: #0db14b"/>
     <use xlink:href="#m6afa9a5cdb" x="291.905216" y="140.661372" style="fill: #0db14b; stroke: #0db14b"/>
     <use xlink:href="#m6afa9a5cdb" x="293.303212" y="141.294009" style="fill: #0db14b; stroke: #0db14b"/>
     <use xlink:href="#m6afa9a5cdb" x="294.701207" y="141.349585" style="fill: #0db14b; stroke: #0db14b"/>
     <use xlink:href="#m6afa9a5cdb" x="296.099203" y="141.272505" style="fill: #0db14b; stroke: #0db14b"/>
     <use xlink:href="#m6afa9a5cdb" x="297.497199" y="137.112775" style="fill: #0db14b; stroke: #0db14b"/>
     <use xlink:href="#m6afa9a5cdb" x="298.895195" y="141.396141" style="fill: #0db14b; stroke: #0db14b"/>
     <use xlink:href="#m6afa9a5cdb" x="300.29319" y="141.800513" style="fill: #0db14b; stroke: #0db14b"/>
     <use xlink:href="#m6afa9a5cdb" x="301.691186" y="141.587501" style="fill: #0db14b; stroke: #0db14b"/>
     <use xlink:href="#m6afa9a5cdb" x="303.089182" y="143.42311" style="fill: #0db14b; stroke: #0db14b"/>
     <use xlink:href="#m6afa9a5cdb" x="304.487177" y="141.0554" style="fill: #0db14b; stroke: #0db14b"/>
     <use xlink:href="#m6afa9a5cdb" x="305.885173" y="143.503755" style="fill: #0db14b; stroke: #0db14b"/>
     <use xlink:href="#m6afa9a5cdb" x="307.283169" y="142.948304" style="fill: #0db14b; stroke: #0db14b"/>
     <use xlink:href="#m6afa9a5cdb" x="308.681165" y="142.736324" style="fill: #0db14b; stroke: #0db14b"/>
     <use xlink:href="#m6afa9a5cdb" x="310.07916" y="143.22415" style="fill: #0db14b; stroke: #0db14b"/>
     <use xlink:href="#m6afa9a5cdb" x="311.477156" y="143.727907" style="fill: #0db14b; stroke: #0db14b"/>
     <use xlink:href="#m6afa9a5cdb" x="312.875152" y="143.005803" style="fill: #0db14b; stroke: #0db14b"/>
     <use xlink:href="#m6afa9a5cdb" x="314.273147" y="144.229661" style="fill: #0db14b; stroke: #0db14b"/>
     <use xlink:href="#m6afa9a5cdb" x="315.671143" y="139.647116" style="fill: #0db14b; stroke: #0db14b"/>
     <use xlink:href="#m6afa9a5cdb" x="317.069139" y="140.002954" style="fill: #0db14b; stroke: #0db14b"/>
     <use xlink:href="#m6afa9a5cdb" x="318.467134" y="140.081123" style="fill: #0db14b; stroke: #0db14b"/>
     <use xlink:href="#m6afa9a5cdb" x="319.86513" y="144.459395" style="fill: #0db14b; stroke: #0db14b"/>
     <use xlink:href="#m6afa9a5cdb" x="321.263126" y="145.305997" style="fill: #0db14b; stroke: #0db14b"/>
     <use xlink:href="#m6afa9a5cdb" x="322.661122" y="141.750526" style="fill: #0db14b; stroke: #0db14b"/>
     <use xlink:href="#m6afa9a5cdb" x="324.059117" y="141.630703" style="fill: #0db14b; stroke: #0db14b"/>
     <use xlink:href="#m6afa9a5cdb" x="325.457113" y="142.241605" style="fill: #0db14b; stroke: #0db14b"/>
     <use xlink:href="#m6afa9a5cdb" x="326.855109" y="142.227685" style="fill: #0db14b; stroke: #0db14b"/>
     <use xlink:href="#m6afa9a5cdb" x="328.253104" y="141.866615" style="fill: #0db14b; stroke: #0db14b"/>
     <use xlink:href="#m6afa9a5cdb" x="329.6511" y="142.319865" style="fill: #0db14b; stroke: #0db14b"/>
     <use xlink:href="#m6afa9a5cdb" x="331.049096" y="144.921595" style="fill: #0db14b; stroke: #0db14b"/>
     <use xlink:href="#m6afa9a5cdb" x="332.447092" y="144.854933" style="fill: #0db14b; stroke: #0db14b"/>
     <use xlink:href="#m6afa9a5cdb" x="333.845087" y="142.368902" style="fill: #0db14b; stroke: #0db14b"/>
     <use xlink:href="#m6afa9a5cdb" x="335.243083" y="142.16636" style="fill: #0db14b; stroke: #0db14b"/>
     <use xlink:href="#m6afa9a5cdb" x="336.641079" y="141.675699" style="fill: #0db14b; stroke: #0db14b"/>
     <use xlink:href="#m6afa9a5cdb" x="338.039074" y="145.381097" style="fill: #0db14b; stroke: #0db14b"/>
     <use xlink:href="#m6afa9a5cdb" x="339.43707" y="144.856014" style="fill: #0db14b; stroke: #0db14b"/>
     <use xlink:href="#m6afa9a5cdb" x="340.835066" y="144.196936" style="fill: #0db14b; stroke: #0db14b"/>
     <use xlink:href="#m6afa9a5cdb" x="342.233061" y="144.577912" style="fill: #0db14b; stroke: #0db14b"/>
     <use xlink:href="#m6afa9a5cdb" x="343.631057" y="144.138946" style="fill: #0db14b; stroke: #0db14b"/>
     <use xlink:href="#m6afa9a5cdb" x="345.029053" y="143.963384" style="fill: #0db14b; stroke: #0db14b"/>
     <use xlink:href="#m6afa9a5cdb" x="346.427049" y="144.065951" style="fill: #0db14b; stroke: #0db14b"/>
     <use xlink:href="#m6afa9a5cdb" x="347.825044" y="143.572282" style="fill: #0db14b; stroke: #0db14b"/>
     <use xlink:href="#m6afa9a5cdb" x="349.22304" y="143.287264" style="fill: #0db14b; stroke: #0db14b"/>
     <use xlink:href="#m6afa9a5cdb" x="350.621036" y="143.266997" style="fill: #0db14b; stroke: #0db14b"/>
     <use xlink:href="#m6afa9a5cdb" x="352.019031" y="142.250985" style="fill: #0db14b; stroke: #0db14b"/>
     <use xlink:href="#m6afa9a5cdb" x="353.417027" y="138.242692" style="fill: #0db14b; stroke: #0db14b"/>
     <use xlink:href="#m6afa9a5cdb" x="354.815023" y="138.196108" style="fill: #0db14b; stroke: #0db14b"/>
     <use xlink:href="#m6afa9a5cdb" x="356.213019" y="138.020022" style="fill: #0db14b; stroke: #0db14b"/>
     <use xlink:href="#m6afa9a5cdb" x="357.611014" y="136.737598" style="fill: #0db14b; stroke: #0db14b"/>
     <use xlink:href="#m6afa9a5cdb" x="359.00901" y="137.233267" style="fill: #0db14b; stroke: #0db14b"/>
     <use xlink:href="#m6afa9a5cdb" x="360.407006" y="135.040609" style="fill: #0db14b; stroke: #0db14b"/>
     <use xlink:href="#m6afa9a5cdb" x="361.805001" y="129.102763" style="fill: #0db14b; stroke: #0db14b"/>
     <use xlink:href="#m6afa9a5cdb" x="363.202997" y="122.097504" style="fill: #0db14b; stroke: #0db14b"/>
     <use xlink:href="#m6afa9a5cdb" x="364.600993" y="121.722188" style="fill: #0db14b; stroke: #0db14b"/>
     <use xlink:href="#m6afa9a5cdb" x="365.998988" y="121.13698" style="fill: #0db14b; stroke: #0db14b"/>
     <use xlink:href="#m6afa9a5cdb" x="367.396984" y="118.28121" style="fill: #0db14b; stroke: #0db14b"/>
     <use xlink:href="#m6afa9a5cdb" x="368.79498" y="116.76792" style="fill: #0db14b; stroke: #0db14b"/>
     <use xlink:href="#m6afa9a5cdb" x="370.192976" y="114.953067" style="fill: #0db14b; stroke: #0db14b"/>
     <use xlink:href="#m6afa9a5cdb" x="371.590971" y="112.068782" style="fill: #0db14b; stroke: #0db14b"/>
     <use xlink:href="#m6afa9a5cdb" x="372.988967" y="105.777103" style="fill: #0db14b; stroke: #0db14b"/>
     <use xlink:href="#m6afa9a5cdb" x="374.386963" y="101.130437" style="fill: #0db14b; stroke: #0db14b"/>
     <use xlink:href="#m6afa9a5cdb" x="375.784958" y="102.112145" style="fill: #0db14b; stroke: #0db14b"/>
     <use xlink:href="#m6afa9a5cdb" x="377.182954" y="98.9683" style="fill: #0db14b; stroke: #0db14b"/>
     <use xlink:href="#m6afa9a5cdb" x="378.58095" y="95.501178" style="fill: #0db14b; stroke: #0db14b"/>
     <use xlink:href="#m6afa9a5cdb" x="379.978946" y="94.589914" style="fill: #0db14b; stroke: #0db14b"/>
     <use xlink:href="#m6afa9a5cdb" x="381.376941" y="83.318184" style="fill: #0db14b; stroke: #0db14b"/>
     <use xlink:href="#m6afa9a5cdb" x="382.774937" y="75.942729" style="fill: #0db14b; stroke: #0db14b"/>
     <use xlink:href="#m6afa9a5cdb" x="384.172933" y="62.275651" style="fill: #0db14b; stroke: #0db14b"/>
     <use xlink:href="#m6afa9a5cdb" x="385.570928" y="65.813483" style="fill: #0db14b; stroke: #0db14b"/>
     <use xlink:href="#m6afa9a5cdb" x="386.968924" y="54.202611" style="fill: #0db14b; stroke: #0db14b"/>
     <use xlink:href="#m6afa9a5cdb" x="388.36692" y="49.338381" style="fill: #0db14b; stroke: #0db14b"/>
     <use xlink:href="#m6afa9a5cdb" x="389.764915" y="47.168435" style="fill: #0db14b; stroke: #0db14b"/>
     <use xlink:href="#m6afa9a5cdb" x="391.162911" y="46.360065" style="fill: #0db14b; stroke: #0db14b"/>
     <use xlink:href="#m6afa9a5cdb" x="392.560907" y="44.46513" style="fill: #0db14b; stroke: #0db14b"/>
     <use xlink:href="#m6afa9a5cdb" x="393.958903" y="36.727138" style="fill: #0db14b; stroke: #0db14b"/>
     <use xlink:href="#m6afa9a5cdb" x="395.356898" y="41.92276" style="fill: #0db14b; stroke: #0db14b"/>
     <use xlink:href="#m6afa9a5cdb" x="396.754894" y="33.193194" style="fill: #0db14b; stroke: #0db14b"/>
     <use xlink:href="#m6afa9a5cdb" x="398.15289" y="34.068614" style="fill: #0db14b; stroke: #0db14b"/>
     <use xlink:href="#m6afa9a5cdb" x="399.550885" y="25.880646" style="fill: #0db14b; stroke: #0db14b"/>
     <use xlink:href="#m6afa9a5cdb" x="400.948881" y="25.71474" style="fill: #0db14b; stroke: #0db14b"/>
     <use xlink:href="#m6afa9a5cdb" x="402.346877" y="25.549177" style="fill: #0db14b; stroke: #0db14b"/>
     <use xlink:href="#m6afa9a5cdb" x="403.744872" y="25.072028" style="fill: #0db14b; stroke: #0db14b"/>
     <use xlink:href="#m6afa9a5cdb" x="405.142868" y="18.359628" style="fill: #0db14b; stroke: #0db14b"/>
     <use xlink:href="#m6afa9a5cdb" x="406.540864" y="16.475403" style="fill: #0db14b; stroke: #0db14b"/>
     <use xlink:href="#m6afa9a5cdb" x="407.93886" y="17.87309" style="fill: #0db14b; stroke: #0db14b"/>
     <use xlink:href="#m6afa9a5cdb" x="409.336855" y="16.472333" style="fill: #0db14b; stroke: #0db14b"/>
     <use xlink:href="#m6afa9a5cdb" x="410.734851" y="16.214376" style="fill: #0db14b; stroke: #0db14b"/>
     <use xlink:href="#m6afa9a5cdb" x="412.132847" y="16.184747" style="fill: #0db14b; stroke: #0db14b"/>
     <use xlink:href="#m6afa9a5cdb" x="413.530842" y="18.269708" style="fill: #0db14b; stroke: #0db14b"/>
     <use xlink:href="#m6afa9a5cdb" x="414.928838" y="44.746158" style="fill: #0db14b; stroke: #0db14b"/>
     <use xlink:href="#m6afa9a5cdb" x="416.326834" y="32.446055" style="fill: #0db14b; stroke: #0db14b"/>
     <use xlink:href="#m6afa9a5cdb" x="417.72483" y="31.368636" style="fill: #0db14b; stroke: #0db14b"/>
    </g>
   </g>
   <g id="line2d_24">
    <path d="M 62.63392 160.465625 
L 64.031916 159.692564 
L 65.429912 159.125208 
L 66.827908 159.909129 
L 69.623899 158.472583 
L 72.41989 157.154554 
L 75.215882 157.02628 
L 78.011873 156.431778 
L 79.409869 157.117686 
L 80.807865 154.868646 
L 82.20586 153.802317 
L 83.603856 152.500057 
L 85.001852 151.415666 
L 86.399847 148.043625 
L 89.195839 146.278224 
L 90.593835 146.24102 
L 91.99183 143.087177 
L 93.389826 142.559682 
L 94.787822 144.96372 
L 96.185817 143.807981 
L 97.583813 141.883956 
L 98.981809 137.533187 
L 101.7778 140.422683 
L 103.175796 138.836597 
L 104.573792 138.819561 
L 107.369783 136.015911 
L 110.165774 129.226737 
L 111.56377 133.203897 
L 112.961766 129.859918 
L 114.359762 121.000021 
L 115.757757 121.900064 
L 117.155753 121.736668 
L 118.553749 123.389537 
L 119.951744 125.217881 
L 121.34974 125.752464 
L 122.747736 124.960207 
L 124.145731 125.108106 
L 125.543727 127.265377 
L 126.941723 127.401272 
L 128.339719 129.00213 
L 129.737714 129.149417 
L 131.13571 128.750328 
L 132.533706 127.541573 
L 133.931701 126.771422 
L 135.329697 124.847175 
L 136.727693 124.272369 
L 138.125689 122.629075 
L 139.523684 118.140083 
L 140.92168 117.436247 
L 142.319676 117.942591 
L 143.717671 115.594878 
L 145.115667 114.785125 
L 146.513663 116.215008 
L 147.911658 114.502792 
L 149.309654 105.614064 
L 150.70765 114.548172 
L 152.105646 114.111783 
L 153.503641 113.032976 
L 154.901637 112.782292 
L 156.299633 109.353387 
L 157.697628 107.79496 
L 159.095624 107.633877 
L 160.49362 108.517682 
L 161.891616 106.33511 
L 163.289611 106.614016 
L 164.687607 102.397886 
L 166.085603 103.673101 
L 167.483598 103.990229 
L 168.881594 106.367845 
L 170.27959 101.206724 
L 173.075581 99.981101 
L 174.473577 98.243189 
L 175.871573 97.472687 
L 177.269568 97.982615 
L 178.667564 92.868146 
L 180.06556 96.777955 
L 181.463555 92.335905 
L 182.861551 91.764112 
L 184.259547 92.267582 
L 185.657543 88.196147 
L 187.055538 87.559419 
L 188.453534 82.907697 
L 189.85153 88.661999 
L 192.647521 73.668382 
L 194.045517 69.603712 
L 195.443512 67.28056 
L 196.841508 64.108003 
L 198.239504 62.582161 
L 199.6375 70.379008 
L 201.035495 63.634704 
L 202.433491 61.253557 
L 203.831487 63.818824 
L 205.229482 67.271764 
L 206.627478 66.037696 
L 208.025474 69.111336 
L 209.423469 69.236388 
L 210.821465 68.788633 
L 212.219461 72.645173 
L 213.617457 77.94727 
L 215.015452 79.079561 
L 216.413448 76.760659 
L 217.811444 76.3329 
L 219.209439 73.326001 
L 220.607435 76.605908 
L 222.005431 77.793406 
L 223.403427 77.168276 
L 224.801422 76.27644 
L 226.199418 77.529682 
L 227.597414 79.172612 
L 228.995409 80.493367 
L 230.393405 83.254413 
L 233.189396 81.616777 
L 234.587392 83.384419 
L 235.985388 88.926809 
L 237.383384 93.669971 
L 238.781379 94.306142 
L 240.179375 97.182896 
L 241.577371 98.531356 
L 244.373362 103.968243 
L 245.771358 107.124602 
L 247.169354 109.491524 
L 248.567349 109.056266 
L 251.363341 117.104553 
L 252.761336 119.087187 
L 254.159332 124.23533 
L 255.557328 125.482477 
L 256.955323 124.839093 
L 258.353319 124.644 
L 259.751315 127.823053 
L 261.149311 129.681638 
L 262.547306 130.389725 
L 263.945302 134.836223 
L 265.343298 135.866645 
L 266.741293 136.494369 
L 268.139289 136.840812 
L 269.537285 136.641047 
L 270.935281 137.824796 
L 272.333276 137.828594 
L 273.731272 136.422899 
L 275.129268 137.640219 
L 276.527263 140.785985 
L 277.925259 141.528006 
L 279.323255 140.374816 
L 280.72125 141.579148 
L 282.119246 142.32141 
L 283.517242 140.172514 
L 284.915238 140.803525 
L 286.313233 141.73962 
L 287.711229 142.123716 
L 289.109225 143.057736 
L 291.905216 143.855681 
L 293.303212 143.823681 
L 294.701207 143.633663 
L 296.099203 143.888086 
L 297.497199 143.422751 
L 298.895195 145.042756 
L 301.691186 144.342312 
L 303.089182 144.870284 
L 304.487177 144.452788 
L 305.885173 145.338485 
L 307.283169 144.776215 
L 310.07916 145.191898 
L 311.477156 145.795796 
L 312.875152 145.563329 
L 314.273147 146.158865 
L 315.671143 145.839055 
L 317.069139 145.374241 
L 318.467134 145.632501 
L 321.263126 147.506073 
L 324.059117 148.047287 
L 326.855109 147.126567 
L 328.253104 148.448125 
L 329.6511 148.222493 
L 331.049096 149.070008 
L 332.447092 149.689449 
L 333.845087 148.878897 
L 335.243083 149.399189 
L 336.641079 149.118861 
L 338.039074 149.265322 
L 339.43707 148.274346 
L 340.835066 147.83492 
L 342.233061 147.257919 
L 343.631057 147.440418 
L 345.029053 146.025182 
L 346.427049 146.338241 
L 347.825044 144.636248 
L 349.22304 144.248719 
L 350.621036 143.250611 
L 352.019031 143.049719 
L 353.417027 142.473509 
L 354.815023 140.04751 
L 356.213019 139.86425 
L 357.611014 138.879919 
L 359.00901 138.612171 
L 360.407006 135.66038 
L 361.805001 133.680165 
L 363.202997 130.369624 
L 364.600993 129.212918 
L 365.998988 127.68234 
L 367.396984 124.831102 
L 368.79498 121.030153 
L 370.192976 115.590799 
L 371.590971 112.210239 
L 372.988967 106.002268 
L 374.386963 104.160164 
L 375.784958 103.726872 
L 377.182954 95.926121 
L 378.58095 90.769562 
L 379.978946 86.761404 
L 381.376941 80.562243 
L 384.172933 70.079168 
L 385.570928 72.235819 
L 386.968924 64.055052 
L 388.36692 58.030935 
L 389.764915 53.062709 
L 391.162911 49.353458 
L 392.560907 48.842 
L 393.958903 40.708763 
L 395.356898 43.175671 
L 396.754894 35.293317 
L 398.15289 33.928343 
L 399.550885 28.465108 
L 400.948881 28.852422 
L 402.346877 27.324352 
L 403.744872 27.215457 
L 405.142868 27.466041 
L 406.540864 21.66257 
L 407.93886 23.945909 
L 409.336855 23.377654 
L 410.734851 22.481309 
L 412.132847 19.418262 
L 413.530842 24.455457 
L 414.928838 47.278643 
L 416.326834 32.612301 
L 417.72483 31.471107 
L 417.72483 31.471107 
" clip-path="url(#p5134619313)" style="fill: none; stroke-dasharray: 5.55,2.4; stroke-dashoffset: 0; stroke: #000000; stroke-width: 1.5"/>
   </g>
   <g id="patch_3">
    <path d="M 44.879375 168.025625 
L 44.879375 1.705625 
" style="fill: none; stroke: #ffffff; stroke-linejoin: miter; stroke-linecap: square"/>
   </g>
   <g id="patch_4">
    <path d="M 435.479375 168.025625 
L 435.479375 1.705625 
" style="fill: none; stroke: #ffffff; stroke-linejoin: miter; stroke-linecap: square"/>
   </g>
   <g id="patch_5">
    <path d="M 44.879375 168.025625 
L 435.479375 168.025625 
" style="fill: none; stroke: #ffffff; stroke-linejoin: miter; stroke-linecap: square"/>
   </g>
   <g id="patch_6">
    <path d="M 44.879375 1.705625 
L 435.479375 1.705625 
" style="fill: none; stroke: #ffffff; stroke-linejoin: miter; stroke-linecap: square"/>
   </g>
   <g id="legend_1">
    <g id="patch_7">
     <path d="M 51.879375 62.08375 
L 203.92625 62.08375 
Q 205.92625 62.08375 205.92625 60.08375 
L 205.92625 8.705625 
Q 205.92625 6.705625 203.92625 6.705625 
L 51.879375 6.705625 
Q 49.879375 6.705625 49.879375 8.705625 
L 49.879375 60.08375 
Q 49.879375 62.08375 51.879375 62.08375 
z
" style="fill: #e5e5e5; opacity: 0.8; stroke: #cccccc; stroke-width: 0.5; stroke-linejoin: miter"/>
    </g>
    <g id="line2d_25">
     <path d="M 53.879375 17.205625 
L 63.879375 17.205625 
L 73.879375 17.205625 
" style="fill: none; stroke: #0db14b; stroke-width: 3; stroke-linecap: square"/>
     <g>
      <use xlink:href="#m6afa9a5cdb" x="63.879375" y="17.205625" style="fill: #0db14b; stroke: #0db14b"/>
     </g>
    </g>
    <g id="text_14">
     <!-- Private Value $\tilde{R}_{\chi_2,\chi_1}^t$ -->
     <g transform="translate(81.879375 20.705625) scale(0.1 -0.1)">
      <defs>
       <path id="DejaVuSans-50" d="M 1259 4147 
L 1259 2394 
L 2053 2394 
Q 2494 2394 2734 2622 
Q 2975 2850 2975 3272 
Q 2975 3691 2734 3919 
Q 2494 4147 2053 4147 
L 1259 4147 
z
M 628 4666 
L 2053 4666 
Q 2838 4666 3239 4311 
Q 3641 3956 3641 3272 
Q 3641 2581 3239 2228 
Q 2838 1875 2053 1875 
L 1259 1875 
L 1259 0 
L 628 0 
L 628 4666 
z
" transform="scale(0.015625)"/>
       <path id="DejaVuSans-72" d="M 2631 2963 
Q 2534 3019 2420 3045 
Q 2306 3072 2169 3072 
Q 1681 3072 1420 2755 
Q 1159 2438 1159 1844 
L 1159 0 
L 581 0 
L 581 3500 
L 1159 3500 
L 1159 2956 
Q 1341 3275 1631 3429 
Q 1922 3584 2338 3584 
Q 2397 3584 2469 3576 
Q 2541 3569 2628 3553 
L 2631 2963 
z
" transform="scale(0.015625)"/>
       <path id="DejaVuSans-69" d="M 603 3500 
L 1178 3500 
L 1178 0 
L 603 0 
L 603 3500 
z
M 603 4863 
L 1178 4863 
L 1178 4134 
L 603 4134 
L 603 4863 
z
" transform="scale(0.015625)"/>
       <path id="DejaVuSans-76" d="M 191 3500 
L 800 3500 
L 1894 563 
L 2988 3500 
L 3597 3500 
L 2284 0 
L 1503 0 
L 191 3500 
z
" transform="scale(0.015625)"/>
       <path id="DejaVuSans-20" transform="scale(0.015625)"/>
       <path id="DejaVuSans-303" d="M -1621 4281 
L -1799 4453 
Q -1867 4516 -1919 4545 
Q -1971 4575 -2011 4575 
Q -2130 4575 -2186 4461 
Q -2242 4347 -2249 4091 
L -2639 4091 
Q -2633 4513 -2473 4742 
Q -2314 4972 -2030 4972 
Q -1911 4972 -1811 4928 
Q -1711 4884 -1596 4781 
L -1417 4609 
Q -1349 4547 -1297 4517 
Q -1246 4488 -1205 4488 
Q -1086 4488 -1030 4602 
Q -974 4716 -967 4972 
L -577 4972 
Q -583 4550 -742 4320 
Q -902 4091 -1186 4091 
Q -1305 4091 -1405 4134 
Q -1505 4178 -1621 4281 
z
" transform="scale(0.015625)"/>
       <path id="DejaVuSans-Oblique-52" d="M 1613 4147 
L 1294 2491 
L 2106 2491 
Q 2584 2491 2879 2755 
Q 3175 3019 3175 3444 
Q 3175 3784 2976 3965 
Q 2778 4147 2406 4147 
L 1613 4147 
z
M 2772 2241 
Q 2972 2194 3105 2009 
Q 3238 1825 3413 1275 
L 3809 0 
L 3144 0 
L 2778 1197 
Q 2638 1659 2453 1815 
Q 2269 1972 1888 1972 
L 1191 1972 
L 806 0 
L 172 0 
L 1081 4666 
L 2503 4666 
Q 3150 4666 3495 4373 
Q 3841 4081 3841 3531 
Q 3841 3044 3547 2687 
Q 3253 2331 2772 2241 
z
" transform="scale(0.015625)"/>
       <path id="DejaVuSans-Oblique-74" d="M 2706 3500 
L 2619 3053 
L 1472 3053 
L 1100 1153 
Q 1081 1047 1072 975 
Q 1063 903 1063 863 
Q 1063 663 1183 572 
Q 1303 481 1569 481 
L 2150 481 
L 2053 0 
L 1503 0 
Q 991 0 739 200 
Q 488 400 488 806 
Q 488 878 497 964 
Q 506 1050 525 1153 
L 897 3053 
L 409 3053 
L 500 3500 
L 978 3500 
L 1172 4494 
L 1747 4494 
L 1556 3500 
L 2706 3500 
z
" transform="scale(0.015625)"/>
       <path id="DejaVuSans-Oblique-3c7" d="M 1922 -781 
L 1691 416 
L 394 -1334 
L -284 -1334 
L 1553 1141 
L 1269 2613 
Q 1194 3006 713 3006 
L 559 3006 
L 653 3500 
L 872 3494 
Q 1675 3472 1775 2950 
L 2006 1753 
L 3303 3503 
L 3981 3503 
L 2144 1028 
L 2428 -444 
Q 2503 -838 2984 -838 
L 3138 -838 
L 3044 -1331 
L 2825 -1325 
Q 2022 -1303 1922 -781 
z
" transform="scale(0.015625)"/>
       <path id="DejaVuSans-2c" d="M 750 794 
L 1409 794 
L 1409 256 
L 897 -744 
L 494 -744 
L 750 256 
L 750 794 
z
" transform="scale(0.015625)"/>
      </defs>
      <use xlink:href="#DejaVuSans-50" transform="translate(0 0.828125)"/>
      <use xlink:href="#DejaVuSans-72" transform="translate(60.302734 0.828125)"/>
      <use xlink:href="#DejaVuSans-69" transform="translate(101.416016 0.828125)"/>
      <use xlink:href="#DejaVuSans-76" transform="translate(129.199219 0.828125)"/>
      <use xlink:href="#DejaVuSans-61" transform="translate(188.378906 0.828125)"/>
      <use xlink:href="#DejaVuSans-74" transform="translate(249.658203 0.828125)"/>
      <use xlink:href="#DejaVuSans-65" transform="translate(288.867188 0.828125)"/>
      <use xlink:href="#DejaVuSans-20" transform="translate(350.390625 0.828125)"/>
      <use xlink:href="#DejaVuSans-56" transform="translate(382.177734 0.828125)"/>
      <use xlink:href="#DejaVuSans-61" transform="translate(450.585938 0.828125)"/>
      <use xlink:href="#DejaVuSans-6c" transform="translate(511.865234 0.828125)"/>
      <use xlink:href="#DejaVuSans-75" transform="translate(539.648438 0.828125)"/>
      <use xlink:href="#DejaVuSans-65" transform="translate(603.027344 0.828125)"/>
      <use xlink:href="#DejaVuSans-20" transform="translate(664.550781 0.828125)"/>
      <use xlink:href="#DejaVuSans-303" transform="translate(764.942871 22.3125)"/>
      <use xlink:href="#DejaVuSans-Oblique-52" transform="translate(696.337891 0.828125)"/>
      <use xlink:href="#DejaVuSans-Oblique-74" transform="translate(766.777344 39.109375) scale(0.7)"/>
      <use xlink:href="#DejaVuSans-Oblique-3c7" transform="translate(766.777344 -26.515625) scale(0.7)"/>
      <use xlink:href="#DejaVuSans-32" transform="translate(808.203125 -38) scale(0.49)"/>
      <use xlink:href="#DejaVuSans-2c" transform="translate(841.29248 -26.515625) scale(0.7)"/>
      <use xlink:href="#DejaVuSans-Oblique-3c7" transform="translate(877.181152 -26.515625) scale(0.7)"/>
      <use xlink:href="#DejaVuSans-31" transform="translate(918.606934 -38) scale(0.49)"/>
     </g>
    </g>
    <g id="line2d_26">
     <path d="M 53.879375 35.705625 
L 63.879375 35.705625 
L 73.879375 35.705625 
" style="fill: none; stroke-dasharray: 5.55,2.4; stroke-dashoffset: 0; stroke: #000000; stroke-width: 1.5"/>
    </g>
    <g id="text_15">
     <!-- Original Value $\bar{R}_{\chi_2,\chi_1}^t$ -->
     <g transform="translate(81.879375 39.205625) scale(0.1 -0.1)">
      <defs>
       <path id="DejaVuSans-4f" d="M 2522 4238 
Q 1834 4238 1429 3725 
Q 1025 3213 1025 2328 
Q 1025 1447 1429 934 
Q 1834 422 2522 422 
Q 3209 422 3611 934 
Q 4013 1447 4013 2328 
Q 4013 3213 3611 3725 
Q 3209 4238 2522 4238 
z
M 2522 4750 
Q 3503 4750 4090 4092 
Q 4678 3434 4678 2328 
Q 4678 1225 4090 567 
Q 3503 -91 2522 -91 
Q 1538 -91 948 565 
Q 359 1222 359 2328 
Q 359 3434 948 4092 
Q 1538 4750 2522 4750 
z
" transform="scale(0.015625)"/>
       <path id="DejaVuSans-67" d="M 2906 1791 
Q 2906 2416 2648 2759 
Q 2391 3103 1925 3103 
Q 1463 3103 1205 2759 
Q 947 2416 947 1791 
Q 947 1169 1205 825 
Q 1463 481 1925 481 
Q 2391 481 2648 825 
Q 2906 1169 2906 1791 
z
M 3481 434 
Q 3481 -459 3084 -895 
Q 2688 -1331 1869 -1331 
Q 1566 -1331 1297 -1286 
Q 1028 -1241 775 -1147 
L 775 -588 
Q 1028 -725 1275 -790 
Q 1522 -856 1778 -856 
Q 2344 -856 2625 -561 
Q 2906 -266 2906 331 
L 2906 616 
Q 2728 306 2450 153 
Q 2172 0 1784 0 
Q 1141 0 747 490 
Q 353 981 353 1791 
Q 353 2603 747 3093 
Q 1141 3584 1784 3584 
Q 2172 3584 2450 3431 
Q 2728 3278 2906 2969 
L 2906 3500 
L 3481 3500 
L 3481 434 
z
" transform="scale(0.015625)"/>
       <path id="DejaVuSans-6e" d="M 3513 2113 
L 3513 0 
L 2938 0 
L 2938 2094 
Q 2938 2591 2744 2837 
Q 2550 3084 2163 3084 
Q 1697 3084 1428 2787 
Q 1159 2491 1159 1978 
L 1159 0 
L 581 0 
L 581 3500 
L 1159 3500 
L 1159 2956 
Q 1366 3272 1645 3428 
Q 1925 3584 2291 3584 
Q 2894 3584 3203 3211 
Q 3513 2838 3513 2113 
z
" transform="scale(0.015625)"/>
       <path id="DejaVuSans-304" d="M -2518 4769 
L -650 4769 
L -650 4306 
L -2518 4306 
L -2518 4769 
z
" transform="scale(0.015625)"/>
      </defs>
      <use xlink:href="#DejaVuSans-4f" transform="translate(0 0.359375)"/>
      <use xlink:href="#DejaVuSans-72" transform="translate(78.710938 0.359375)"/>
      <use xlink:href="#DejaVuSans-69" transform="translate(119.824219 0.359375)"/>
      <use xlink:href="#DejaVuSans-67" transform="translate(147.607422 0.359375)"/>
      <use xlink:href="#DejaVuSans-69" transform="translate(211.083984 0.359375)"/>
      <use xlink:href="#DejaVuSans-6e" transform="translate(238.867188 0.359375)"/>
      <use xlink:href="#DejaVuSans-61" transform="translate(302.246094 0.359375)"/>
      <use xlink:href="#DejaVuSans-6c" transform="translate(363.525391 0.359375)"/>
      <use xlink:href="#DejaVuSans-20" transform="translate(391.308594 0.359375)"/>
      <use xlink:href="#DejaVuSans-56" transform="translate(423.095703 0.359375)"/>
      <use xlink:href="#DejaVuSans-61" transform="translate(491.503906 0.359375)"/>
      <use xlink:href="#DejaVuSans-6c" transform="translate(552.783203 0.359375)"/>
      <use xlink:href="#DejaVuSans-75" transform="translate(580.566406 0.359375)"/>
      <use xlink:href="#DejaVuSans-65" transform="translate(643.945312 0.359375)"/>
      <use xlink:href="#DejaVuSans-20" transform="translate(705.46875 0.359375)"/>
      <use xlink:href="#DejaVuSans-304" transform="translate(804.970215 18.484375)"/>
      <use xlink:href="#DejaVuSans-Oblique-52" transform="translate(737.255859 0.359375)"/>
      <use xlink:href="#DejaVuSans-Oblique-74" transform="translate(807.695312 38.640625) scale(0.7)"/>
      <use xlink:href="#DejaVuSans-Oblique-3c7" transform="translate(807.695312 -26.984375) scale(0.7)"/>
      <use xlink:href="#DejaVuSans-32" transform="translate(849.121094 -38.46875) scale(0.49)"/>
      <use xlink:href="#DejaVuSans-2c" transform="translate(882.210449 -26.984375) scale(0.7)"/>
      <use xlink:href="#DejaVuSans-Oblique-3c7" transform="translate(918.099121 -26.984375) scale(0.7)"/>
      <use xlink:href="#DejaVuSans-31" transform="translate(959.524902 -38.46875) scale(0.49)"/>
     </g>
    </g>
    <g id="patch_8">
     <path d="M 53.879375 56.004063 
L 73.879375 56.004063 
L 73.879375 49.004063 
L 53.879375 49.004063 
z
" style="fill: #0db14b; fill-opacity: 0.5; stroke: #0db14b; stroke-opacity: 0.5; stroke-width: 0.5; stroke-linejoin: miter"/>
    </g>
    <g id="text_16">
     <!-- One Standard Deviation -->
     <g transform="translate(81.879375 56.004063) scale(0.1 -0.1)">
      <defs>
       <path id="DejaVuSans-53" d="M 3425 4513 
L 3425 3897 
Q 3066 4069 2747 4153 
Q 2428 4238 2131 4238 
Q 1616 4238 1336 4038 
Q 1056 3838 1056 3469 
Q 1056 3159 1242 3001 
Q 1428 2844 1947 2747 
L 2328 2669 
Q 3034 2534 3370 2195 
Q 3706 1856 3706 1288 
Q 3706 609 3251 259 
Q 2797 -91 1919 -91 
Q 1588 -91 1214 -16 
Q 841 59 441 206 
L 441 856 
Q 825 641 1194 531 
Q 1563 422 1919 422 
Q 2459 422 2753 634 
Q 3047 847 3047 1241 
Q 3047 1584 2836 1778 
Q 2625 1972 2144 2069 
L 1759 2144 
Q 1053 2284 737 2584 
Q 422 2884 422 3419 
Q 422 4038 858 4394 
Q 1294 4750 2059 4750 
Q 2388 4750 2728 4690 
Q 3069 4631 3425 4513 
z
" transform="scale(0.015625)"/>
       <path id="DejaVuSans-64" d="M 2906 2969 
L 2906 4863 
L 3481 4863 
L 3481 0 
L 2906 0 
L 2906 525 
Q 2725 213 2448 61 
Q 2172 -91 1784 -91 
Q 1150 -91 751 415 
Q 353 922 353 1747 
Q 353 2572 751 3078 
Q 1150 3584 1784 3584 
Q 2172 3584 2448 3432 
Q 2725 3281 2906 2969 
z
M 947 1747 
Q 947 1113 1208 752 
Q 1469 391 1925 391 
Q 2381 391 2643 752 
Q 2906 1113 2906 1747 
Q 2906 2381 2643 2742 
Q 2381 3103 1925 3103 
Q 1469 3103 1208 2742 
Q 947 2381 947 1747 
z
" transform="scale(0.015625)"/>
       <path id="DejaVuSans-6f" d="M 1959 3097 
Q 1497 3097 1228 2736 
Q 959 2375 959 1747 
Q 959 1119 1226 758 
Q 1494 397 1959 397 
Q 2419 397 2687 759 
Q 2956 1122 2956 1747 
Q 2956 2369 2687 2733 
Q 2419 3097 1959 3097 
z
M 1959 3584 
Q 2709 3584 3137 3096 
Q 3566 2609 3566 1747 
Q 3566 888 3137 398 
Q 2709 -91 1959 -91 
Q 1206 -91 779 398 
Q 353 888 353 1747 
Q 353 2609 779 3096 
Q 1206 3584 1959 3584 
z
" transform="scale(0.015625)"/>
      </defs>
      <use xlink:href="#DejaVuSans-4f"/>
      <use xlink:href="#DejaVuSans-6e" x="78.710938"/>
      <use xlink:href="#DejaVuSans-65" x="142.089844"/>
      <use xlink:href="#DejaVuSans-20" x="203.613281"/>
      <use xlink:href="#DejaVuSans-53" x="235.400391"/>
      <use xlink:href="#DejaVuSans-74" x="298.876953"/>
      <use xlink:href="#DejaVuSans-61" x="338.085938"/>
      <use xlink:href="#DejaVuSans-6e" x="399.365234"/>
      <use xlink:href="#DejaVuSans-64" x="462.744141"/>
      <use xlink:href="#DejaVuSans-61" x="526.220703"/>
      <use xlink:href="#DejaVuSans-72" x="587.5"/>
      <use xlink:href="#DejaVuSans-64" x="626.863281"/>
      <use xlink:href="#DejaVuSans-20" x="690.339844"/>
      <use xlink:href="#DejaVuSans-44" x="722.126953"/>
      <use xlink:href="#DejaVuSans-65" x="799.128906"/>
      <use xlink:href="#DejaVuSans-76" x="860.652344"/>
      <use xlink:href="#DejaVuSans-69" x="919.832031"/>
      <use xlink:href="#DejaVuSans-61" x="947.615234"/>
      <use xlink:href="#DejaVuSans-74" x="1008.894531"/>
      <use xlink:href="#DejaVuSans-69" x="1048.103516"/>
      <use xlink:href="#DejaVuSans-6f" x="1075.886719"/>
      <use xlink:href="#DejaVuSans-6e" x="1137.068359"/>
     </g>
    </g>
   </g>
  </g>
 </g>
 <defs>
  <clipPath id="p5134619313">
   <rect x="44.879375" y="1.705625" width="390.6" height="166.32"/>
  </clipPath>
 </defs>
</svg>
