<?xml version="1.0" encoding="utf-8" standalone="no"?>
<!DOCTYPE svg PUBLIC "-//W3C//DTD SVG 1.1//EN"
  "http://www.w3.org/Graphics/SVG/1.1/DTD/svg11.dtd">
<svg xmlns:xlink="http://www.w3.org/1999/xlink" width="444.375067pt" height="200.19572pt" viewBox="0 0 444.375067 200.19572" xmlns="http://www.w3.org/2000/svg" version="1.1">
 <metadata>
  <rdf:RDF xmlns:dc="http://purl.org/dc/elements/1.1/" xmlns:cc="http://creativecommons.org/ns#" xmlns:rdf="http://www.w3.org/1999/02/22-rdf-syntax-ns#">
   <cc:Work>
    <dc:type rdf:resource="http://purl.org/dc/dcmitype/StillImage"/>
    <dc:date>2024-09-18T15:47:51.334684</dc:date>
    <dc:format>image/svg+xml</dc:format>
    <dc:creator>
     <cc:Agent>
      <dc:title>Matplotlib v3.7.5, https://matplotlib.org/</dc:title>
     </cc:Agent>
    </dc:creator>
   </cc:Work>
  </rdf:RDF>
 </metadata>
 <defs>
  <style type="text/css">*{stroke-linejoin: round; stroke-linecap: butt}</style>
 </defs>
 <g id="figure_1">
  <g id="patch_1">
   <path d="M 0 200.19572 
L 444.375067 200.19572 
L 444.375067 0 
L 0 0 
z
" style="fill: #ffffff"/>
  </g>
  <g id="axes_1">
   <g id="patch_2">
    <path d="M 44.879375 167.903845 
L 435.479375 167.903845 
L 435.479375 1.583845 
L 44.879375 1.583845 
z
" style="fill: #e5e5e5"/>
   </g>
   <g id="matplotlib.axis_1">
    <g id="xtick_1">
     <g id="line2d_1">
      <path d="M 72.41989 167.903845 
L 72.41989 1.583845 
" clip-path="url(#p0657f60773)" style="fill: none; stroke: #ffffff; stroke-width: 0.8; stroke-linecap: square"/>
     </g>
     <g id="line2d_2">
      <defs>
       <path id="m15ee7349af" d="M 0 0 
L 0 3.5 
" style="stroke: #555555; stroke-width: 0.8"/>
      </defs>
      <g>
       <use xlink:href="#m15ee7349af" x="72.41989" y="167.903845" style="fill: #555555; stroke: #555555; stroke-width: 0.8"/>
      </g>
     </g>
     <g id="text_1">
      <!-- 08/16/20 -->
      <g style="fill: #555555" transform="translate(49.96364 182.502283) scale(0.1 -0.1)">
       <defs>
        <path id="DejaVuSans-30" d="M 2034 4250 
Q 1547 4250 1301 3770 
Q 1056 3291 1056 2328 
Q 1056 1369 1301 889 
Q 1547 409 2034 409 
Q 2525 409 2770 889 
Q 3016 1369 3016 2328 
Q 3016 3291 2770 3770 
Q 2525 4250 2034 4250 
z
M 2034 4750 
Q 2819 4750 3233 4129 
Q 3647 3509 3647 2328 
Q 3647 1150 3233 529 
Q 2819 -91 2034 -91 
Q 1250 -91 836 529 
Q 422 1150 422 2328 
Q 422 3509 836 4129 
Q 1250 4750 2034 4750 
z
" transform="scale(0.015625)"/>
        <path id="DejaVuSans-38" d="M 2034 2216 
Q 1584 2216 1326 1975 
Q 1069 1734 1069 1313 
Q 1069 891 1326 650 
Q 1584 409 2034 409 
Q 2484 409 2743 651 
Q 3003 894 3003 1313 
Q 3003 1734 2745 1975 
Q 2488 2216 2034 2216 
z
M 1403 2484 
Q 997 2584 770 2862 
Q 544 3141 544 3541 
Q 544 4100 942 4425 
Q 1341 4750 2034 4750 
Q 2731 4750 3128 4425 
Q 3525 4100 3525 3541 
Q 3525 3141 3298 2862 
Q 3072 2584 2669 2484 
Q 3125 2378 3379 2068 
Q 3634 1759 3634 1313 
Q 3634 634 3220 271 
Q 2806 -91 2034 -91 
Q 1263 -91 848 271 
Q 434 634 434 1313 
Q 434 1759 690 2068 
Q 947 2378 1403 2484 
z
M 1172 3481 
Q 1172 3119 1398 2916 
Q 1625 2713 2034 2713 
Q 2441 2713 2670 2916 
Q 2900 3119 2900 3481 
Q 2900 3844 2670 4047 
Q 2441 4250 2034 4250 
Q 1625 4250 1398 4047 
Q 1172 3844 1172 3481 
z
" transform="scale(0.015625)"/>
        <path id="DejaVuSans-2f" d="M 1625 4666 
L 2156 4666 
L 531 -594 
L 0 -594 
L 1625 4666 
z
" transform="scale(0.015625)"/>
        <path id="DejaVuSans-31" d="M 794 531 
L 1825 531 
L 1825 4091 
L 703 3866 
L 703 4441 
L 1819 4666 
L 2450 4666 
L 2450 531 
L 3481 531 
L 3481 0 
L 794 0 
L 794 531 
z
" transform="scale(0.015625)"/>
        <path id="DejaVuSans-36" d="M 2113 2584 
Q 1688 2584 1439 2293 
Q 1191 2003 1191 1497 
Q 1191 994 1439 701 
Q 1688 409 2113 409 
Q 2538 409 2786 701 
Q 3034 994 3034 1497 
Q 3034 2003 2786 2293 
Q 2538 2584 2113 2584 
z
M 3366 4563 
L 3366 3988 
Q 3128 4100 2886 4159 
Q 2644 4219 2406 4219 
Q 1781 4219 1451 3797 
Q 1122 3375 1075 2522 
Q 1259 2794 1537 2939 
Q 1816 3084 2150 3084 
Q 2853 3084 3261 2657 
Q 3669 2231 3669 1497 
Q 3669 778 3244 343 
Q 2819 -91 2113 -91 
Q 1303 -91 875 529 
Q 447 1150 447 2328 
Q 447 3434 972 4092 
Q 1497 4750 2381 4750 
Q 2619 4750 2861 4703 
Q 3103 4656 3366 4563 
z
" transform="scale(0.015625)"/>
        <path id="DejaVuSans-32" d="M 1228 531 
L 3431 531 
L 3431 0 
L 469 0 
L 469 531 
Q 828 903 1448 1529 
Q 2069 2156 2228 2338 
Q 2531 2678 2651 2914 
Q 2772 3150 2772 3378 
Q 2772 3750 2511 3984 
Q 2250 4219 1831 4219 
Q 1534 4219 1204 4116 
Q 875 4013 500 3803 
L 500 4441 
Q 881 4594 1212 4672 
Q 1544 4750 1819 4750 
Q 2544 4750 2975 4387 
Q 3406 4025 3406 3419 
Q 3406 3131 3298 2873 
Q 3191 2616 2906 2266 
Q 2828 2175 2409 1742 
Q 1991 1309 1228 531 
z
" transform="scale(0.015625)"/>
       </defs>
       <use xlink:href="#DejaVuSans-30"/>
       <use xlink:href="#DejaVuSans-38" x="63.623047"/>
       <use xlink:href="#DejaVuSans-2f" x="127.246094"/>
       <use xlink:href="#DejaVuSans-31" x="160.9375"/>
       <use xlink:href="#DejaVuSans-36" x="224.560547"/>
       <use xlink:href="#DejaVuSans-2f" x="288.183594"/>
       <use xlink:href="#DejaVuSans-32" x="321.875"/>
       <use xlink:href="#DejaVuSans-30" x="385.498047"/>
      </g>
     </g>
    </g>
    <g id="xtick_2">
     <g id="line2d_3">
      <path d="M 142.319676 167.903845 
L 142.319676 1.583845 
" clip-path="url(#p0657f60773)" style="fill: none; stroke: #ffffff; stroke-width: 0.8; stroke-linecap: square"/>
     </g>
     <g id="line2d_4">
      <g>
       <use xlink:href="#m15ee7349af" x="142.319676" y="167.903845" style="fill: #555555; stroke: #555555; stroke-width: 0.8"/>
      </g>
     </g>
     <g id="text_2">
      <!-- 10/05/20 -->
      <g style="fill: #555555" transform="translate(119.863426 182.502283) scale(0.1 -0.1)">
       <defs>
        <path id="DejaVuSans-35" d="M 691 4666 
L 3169 4666 
L 3169 4134 
L 1269 4134 
L 1269 2991 
Q 1406 3038 1543 3061 
Q 1681 3084 1819 3084 
Q 2600 3084 3056 2656 
Q 3513 2228 3513 1497 
Q 3513 744 3044 326 
Q 2575 -91 1722 -91 
Q 1428 -91 1123 -41 
Q 819 9 494 109 
L 494 744 
Q 775 591 1075 516 
Q 1375 441 1709 441 
Q 2250 441 2565 725 
Q 2881 1009 2881 1497 
Q 2881 1984 2565 2268 
Q 2250 2553 1709 2553 
Q 1456 2553 1204 2497 
Q 953 2441 691 2322 
L 691 4666 
z
" transform="scale(0.015625)"/>
       </defs>
       <use xlink:href="#DejaVuSans-31"/>
       <use xlink:href="#DejaVuSans-30" x="63.623047"/>
       <use xlink:href="#DejaVuSans-2f" x="127.246094"/>
       <use xlink:href="#DejaVuSans-30" x="160.9375"/>
       <use xlink:href="#DejaVuSans-35" x="224.560547"/>
       <use xlink:href="#DejaVuSans-2f" x="288.183594"/>
       <use xlink:href="#DejaVuSans-32" x="321.875"/>
       <use xlink:href="#DejaVuSans-30" x="385.498047"/>
      </g>
     </g>
    </g>
    <g id="xtick_3">
     <g id="line2d_5">
      <path d="M 212.219461 167.903845 
L 212.219461 1.583845 
" clip-path="url(#p0657f60773)" style="fill: none; stroke: #ffffff; stroke-width: 0.8; stroke-linecap: square"/>
     </g>
     <g id="line2d_6">
      <g>
       <use xlink:href="#m15ee7349af" x="212.219461" y="167.903845" style="fill: #555555; stroke: #555555; stroke-width: 0.8"/>
      </g>
     </g>
     <g id="text_3">
      <!-- 11/24/20 -->
      <g style="fill: #555555" transform="translate(189.763211 182.502283) scale(0.1 -0.1)">
       <defs>
        <path id="DejaVuSans-34" d="M 2419 4116 
L 825 1625 
L 2419 1625 
L 2419 4116 
z
M 2253 4666 
L 3047 4666 
L 3047 1625 
L 3713 1625 
L 3713 1100 
L 3047 1100 
L 3047 0 
L 2419 0 
L 2419 1100 
L 313 1100 
L 313 1709 
L 2253 4666 
z
" transform="scale(0.015625)"/>
       </defs>
       <use xlink:href="#DejaVuSans-31"/>
       <use xlink:href="#DejaVuSans-31" x="63.623047"/>
       <use xlink:href="#DejaVuSans-2f" x="127.246094"/>
       <use xlink:href="#DejaVuSans-32" x="160.9375"/>
       <use xlink:href="#DejaVuSans-34" x="224.560547"/>
       <use xlink:href="#DejaVuSans-2f" x="288.183594"/>
       <use xlink:href="#DejaVuSans-32" x="321.875"/>
       <use xlink:href="#DejaVuSans-30" x="385.498047"/>
      </g>
     </g>
    </g>
    <g id="xtick_4">
     <g id="line2d_7">
      <path d="M 282.119246 167.903845 
L 282.119246 1.583845 
" clip-path="url(#p0657f60773)" style="fill: none; stroke: #ffffff; stroke-width: 0.8; stroke-linecap: square"/>
     </g>
     <g id="line2d_8">
      <g>
       <use xlink:href="#m15ee7349af" x="282.119246" y="167.903845" style="fill: #555555; stroke: #555555; stroke-width: 0.8"/>
      </g>
     </g>
     <g id="text_4">
      <!-- 01/13/21 -->
      <g style="fill: #555555" transform="translate(259.662996 182.502283) scale(0.1 -0.1)">
       <defs>
        <path id="DejaVuSans-33" d="M 2597 2516 
Q 3050 2419 3304 2112 
Q 3559 1806 3559 1356 
Q 3559 666 3084 287 
Q 2609 -91 1734 -91 
Q 1441 -91 1130 -33 
Q 819 25 488 141 
L 488 750 
Q 750 597 1062 519 
Q 1375 441 1716 441 
Q 2309 441 2620 675 
Q 2931 909 2931 1356 
Q 2931 1769 2642 2001 
Q 2353 2234 1838 2234 
L 1294 2234 
L 1294 2753 
L 1863 2753 
Q 2328 2753 2575 2939 
Q 2822 3125 2822 3475 
Q 2822 3834 2567 4026 
Q 2313 4219 1838 4219 
Q 1578 4219 1281 4162 
Q 984 4106 628 3988 
L 628 4550 
Q 988 4650 1302 4700 
Q 1616 4750 1894 4750 
Q 2613 4750 3031 4423 
Q 3450 4097 3450 3541 
Q 3450 3153 3228 2886 
Q 3006 2619 2597 2516 
z
" transform="scale(0.015625)"/>
       </defs>
       <use xlink:href="#DejaVuSans-30"/>
       <use xlink:href="#DejaVuSans-31" x="63.623047"/>
       <use xlink:href="#DejaVuSans-2f" x="127.246094"/>
       <use xlink:href="#DejaVuSans-31" x="160.9375"/>
       <use xlink:href="#DejaVuSans-33" x="224.560547"/>
       <use xlink:href="#DejaVuSans-2f" x="288.183594"/>
       <use xlink:href="#DejaVuSans-32" x="321.875"/>
       <use xlink:href="#DejaVuSans-31" x="385.498047"/>
      </g>
     </g>
    </g>
    <g id="xtick_5">
     <g id="line2d_9">
      <path d="M 352.019031 167.903845 
L 352.019031 1.583845 
" clip-path="url(#p0657f60773)" style="fill: none; stroke: #ffffff; stroke-width: 0.8; stroke-linecap: square"/>
     </g>
     <g id="line2d_10">
      <g>
       <use xlink:href="#m15ee7349af" x="352.019031" y="167.903845" style="fill: #555555; stroke: #555555; stroke-width: 0.8"/>
      </g>
     </g>
     <g id="text_5">
      <!-- 03/04/21 -->
      <g style="fill: #555555" transform="translate(329.562781 182.502283) scale(0.1 -0.1)">
       <use xlink:href="#DejaVuSans-30"/>
       <use xlink:href="#DejaVuSans-33" x="63.623047"/>
       <use xlink:href="#DejaVuSans-2f" x="127.246094"/>
       <use xlink:href="#DejaVuSans-30" x="160.9375"/>
       <use xlink:href="#DejaVuSans-34" x="224.560547"/>
       <use xlink:href="#DejaVuSans-2f" x="288.183594"/>
       <use xlink:href="#DejaVuSans-32" x="321.875"/>
       <use xlink:href="#DejaVuSans-31" x="385.498047"/>
      </g>
     </g>
    </g>
    <g id="xtick_6">
     <g id="line2d_11">
      <path d="M 421.918817 167.903845 
L 421.918817 1.583845 
" clip-path="url(#p0657f60773)" style="fill: none; stroke: #ffffff; stroke-width: 0.8; stroke-linecap: square"/>
     </g>
     <g id="line2d_12">
      <g>
       <use xlink:href="#m15ee7349af" x="421.918817" y="167.903845" style="fill: #555555; stroke: #555555; stroke-width: 0.8"/>
      </g>
     </g>
     <g id="text_6">
      <!-- 04/23/21 -->
      <g style="fill: #555555" transform="translate(399.462567 182.502283) scale(0.1 -0.1)">
       <use xlink:href="#DejaVuSans-30"/>
       <use xlink:href="#DejaVuSans-34" x="63.623047"/>
       <use xlink:href="#DejaVuSans-2f" x="127.246094"/>
       <use xlink:href="#DejaVuSans-32" x="160.9375"/>
       <use xlink:href="#DejaVuSans-33" x="224.560547"/>
       <use xlink:href="#DejaVuSans-2f" x="288.183594"/>
       <use xlink:href="#DejaVuSans-32" x="321.875"/>
       <use xlink:href="#DejaVuSans-31" x="385.498047"/>
      </g>
     </g>
    </g>
    <g id="text_7">
     <!-- Date -->
     <g style="fill: #555555" transform="translate(225.838438 197.700095) scale(0.12 -0.12)">
      <defs>
       <path id="DejaVuSans-44" d="M 1259 4147 
L 1259 519 
L 2022 519 
Q 2988 519 3436 956 
Q 3884 1394 3884 2338 
Q 3884 3275 3436 3711 
Q 2988 4147 2022 4147 
L 1259 4147 
z
M 628 4666 
L 1925 4666 
Q 3281 4666 3915 4102 
Q 4550 3538 4550 2338 
Q 4550 1131 3912 565 
Q 3275 0 1925 0 
L 628 0 
L 628 4666 
z
" transform="scale(0.015625)"/>
       <path id="DejaVuSans-61" d="M 2194 1759 
Q 1497 1759 1228 1600 
Q 959 1441 959 1056 
Q 959 750 1161 570 
Q 1363 391 1709 391 
Q 2188 391 2477 730 
Q 2766 1069 2766 1631 
L 2766 1759 
L 2194 1759 
z
M 3341 1997 
L 3341 0 
L 2766 0 
L 2766 531 
Q 2569 213 2275 61 
Q 1981 -91 1556 -91 
Q 1019 -91 701 211 
Q 384 513 384 1019 
Q 384 1609 779 1909 
Q 1175 2209 1959 2209 
L 2766 2209 
L 2766 2266 
Q 2766 2663 2505 2880 
Q 2244 3097 1772 3097 
Q 1472 3097 1187 3025 
Q 903 2953 641 2809 
L 641 3341 
Q 956 3463 1253 3523 
Q 1550 3584 1831 3584 
Q 2591 3584 2966 3190 
Q 3341 2797 3341 1997 
z
" transform="scale(0.015625)"/>
       <path id="DejaVuSans-74" d="M 1172 4494 
L 1172 3500 
L 2356 3500 
L 2356 3053 
L 1172 3053 
L 1172 1153 
Q 1172 725 1289 603 
Q 1406 481 1766 481 
L 2356 481 
L 2356 0 
L 1766 0 
Q 1100 0 847 248 
Q 594 497 594 1153 
L 594 3053 
L 172 3053 
L 172 3500 
L 594 3500 
L 594 4494 
L 1172 4494 
z
" transform="scale(0.015625)"/>
       <path id="DejaVuSans-65" d="M 3597 1894 
L 3597 1613 
L 953 1613 
Q 991 1019 1311 708 
Q 1631 397 2203 397 
Q 2534 397 2845 478 
Q 3156 559 3463 722 
L 3463 178 
Q 3153 47 2828 -22 
Q 2503 -91 2169 -91 
Q 1331 -91 842 396 
Q 353 884 353 1716 
Q 353 2575 817 3079 
Q 1281 3584 2069 3584 
Q 2775 3584 3186 3129 
Q 3597 2675 3597 1894 
z
M 3022 2063 
Q 3016 2534 2758 2815 
Q 2500 3097 2075 3097 
Q 1594 3097 1305 2825 
Q 1016 2553 972 2059 
L 3022 2063 
z
" transform="scale(0.015625)"/>
      </defs>
      <use xlink:href="#DejaVuSans-44"/>
      <use xlink:href="#DejaVuSans-61" x="77.001953"/>
      <use xlink:href="#DejaVuSans-74" x="138.28125"/>
      <use xlink:href="#DejaVuSans-65" x="177.490234"/>
     </g>
    </g>
   </g>
   <g id="matplotlib.axis_2">
    <g id="ytick_1">
     <g id="line2d_13">
      <path d="M 44.879375 139.752611 
L 435.479375 139.752611 
" clip-path="url(#p0657f60773)" style="fill: none; stroke: #ffffff; stroke-width: 0.8; stroke-linecap: square"/>
     </g>
     <g id="line2d_14">
      <defs>
       <path id="md9dcef5197" d="M 0 0 
L -3.5 0 
" style="stroke: #555555; stroke-width: 0.8"/>
      </defs>
      <g>
       <use xlink:href="#md9dcef5197" x="44.879375" y="139.752611" style="fill: #555555; stroke: #555555; stroke-width: 0.8"/>
      </g>
     </g>
     <g id="text_8">
      <!-- 0.05 -->
      <g style="fill: #555555" transform="translate(15.61375 143.55183) scale(0.1 -0.1)">
       <defs>
        <path id="DejaVuSans-2e" d="M 684 794 
L 1344 794 
L 1344 0 
L 684 0 
L 684 794 
z
" transform="scale(0.015625)"/>
       </defs>
       <use xlink:href="#DejaVuSans-30"/>
       <use xlink:href="#DejaVuSans-2e" x="63.623047"/>
       <use xlink:href="#DejaVuSans-30" x="95.410156"/>
       <use xlink:href="#DejaVuSans-35" x="159.033203"/>
      </g>
     </g>
    </g>
    <g id="ytick_2">
     <g id="line2d_15">
      <path d="M 44.879375 105.764263 
L 435.479375 105.764263 
" clip-path="url(#p0657f60773)" style="fill: none; stroke: #ffffff; stroke-width: 0.8; stroke-linecap: square"/>
     </g>
     <g id="line2d_16">
      <g>
       <use xlink:href="#md9dcef5197" x="44.879375" y="105.764263" style="fill: #555555; stroke: #555555; stroke-width: 0.8"/>
      </g>
     </g>
     <g id="text_9">
      <!-- 0.10 -->
      <g style="fill: #555555" transform="translate(15.61375 109.563482) scale(0.1 -0.1)">
       <use xlink:href="#DejaVuSans-30"/>
       <use xlink:href="#DejaVuSans-2e" x="63.623047"/>
       <use xlink:href="#DejaVuSans-31" x="95.410156"/>
       <use xlink:href="#DejaVuSans-30" x="159.033203"/>
      </g>
     </g>
    </g>
    <g id="ytick_3">
     <g id="line2d_17">
      <path d="M 44.879375 71.775915 
L 435.479375 71.775915 
" clip-path="url(#p0657f60773)" style="fill: none; stroke: #ffffff; stroke-width: 0.8; stroke-linecap: square"/>
     </g>
     <g id="line2d_18">
      <g>
       <use xlink:href="#md9dcef5197" x="44.879375" y="71.775915" style="fill: #555555; stroke: #555555; stroke-width: 0.8"/>
      </g>
     </g>
     <g id="text_10">
      <!-- 0.15 -->
      <g style="fill: #555555" transform="translate(15.61375 75.575134) scale(0.1 -0.1)">
       <use xlink:href="#DejaVuSans-30"/>
       <use xlink:href="#DejaVuSans-2e" x="63.623047"/>
       <use xlink:href="#DejaVuSans-31" x="95.410156"/>
       <use xlink:href="#DejaVuSans-35" x="159.033203"/>
      </g>
     </g>
    </g>
    <g id="ytick_4">
     <g id="line2d_19">
      <path d="M 44.879375 37.787567 
L 435.479375 37.787567 
" clip-path="url(#p0657f60773)" style="fill: none; stroke: #ffffff; stroke-width: 0.8; stroke-linecap: square"/>
     </g>
     <g id="line2d_20">
      <g>
       <use xlink:href="#md9dcef5197" x="44.879375" y="37.787567" style="fill: #555555; stroke: #555555; stroke-width: 0.8"/>
      </g>
     </g>
     <g id="text_11">
      <!-- 0.20 -->
      <g style="fill: #555555" transform="translate(15.61375 41.586786) scale(0.1 -0.1)">
       <use xlink:href="#DejaVuSans-30"/>
       <use xlink:href="#DejaVuSans-2e" x="63.623047"/>
       <use xlink:href="#DejaVuSans-32" x="95.410156"/>
       <use xlink:href="#DejaVuSans-30" x="159.033203"/>
      </g>
     </g>
    </g>
    <g id="ytick_5">
     <g id="line2d_21">
      <path d="M 44.879375 3.799219 
L 435.479375 3.799219 
" clip-path="url(#p0657f60773)" style="fill: none; stroke: #ffffff; stroke-width: 0.8; stroke-linecap: square"/>
     </g>
     <g id="line2d_22">
      <g>
       <use xlink:href="#md9dcef5197" x="44.879375" y="3.799219" style="fill: #555555; stroke: #555555; stroke-width: 0.8"/>
      </g>
     </g>
     <g id="text_12">
      <!-- 0.25 -->
      <g style="fill: #555555" transform="translate(15.61375 7.598437) scale(0.1 -0.1)">
       <use xlink:href="#DejaVuSans-30"/>
       <use xlink:href="#DejaVuSans-2e" x="63.623047"/>
       <use xlink:href="#DejaVuSans-32" x="95.410156"/>
       <use xlink:href="#DejaVuSans-35" x="159.033203"/>
      </g>
     </g>
    </g>
    <g id="text_13">
     <!-- Value -->
     <g style="fill: #555555" transform="translate(9.118125 101.221345) rotate(-90) scale(0.12 -0.12)">
      <defs>
       <path id="DejaVuSans-56" d="M 1831 0 
L 50 4666 
L 709 4666 
L 2188 738 
L 3669 4666 
L 4325 4666 
L 2547 0 
L 1831 0 
z
" transform="scale(0.015625)"/>
       <path id="DejaVuSans-6c" d="M 603 4863 
L 1178 4863 
L 1178 0 
L 603 0 
L 603 4863 
z
" transform="scale(0.015625)"/>
       <path id="DejaVuSans-75" d="M 544 1381 
L 544 3500 
L 1119 3500 
L 1119 1403 
Q 1119 906 1312 657 
Q 1506 409 1894 409 
Q 2359 409 2629 706 
Q 2900 1003 2900 1516 
L 2900 3500 
L 3475 3500 
L 3475 0 
L 2900 0 
L 2900 538 
Q 2691 219 2414 64 
Q 2138 -91 1772 -91 
Q 1169 -91 856 284 
Q 544 659 544 1381 
z
M 1991 3584 
L 1991 3584 
z
" transform="scale(0.015625)"/>
      </defs>
      <use xlink:href="#DejaVuSans-56"/>
      <use xlink:href="#DejaVuSans-61" x="60.658203"/>
      <use xlink:href="#DejaVuSans-6c" x="121.9375"/>
      <use xlink:href="#DejaVuSans-75" x="149.720703"/>
      <use xlink:href="#DejaVuSans-65" x="213.099609"/>
     </g>
    </g>
   </g>
   <g id="PolyCollection_1">
    <defs>
     <path id="m071f9174b7" d="M 62.63392 -41.266919 
L 62.63392 -44.859779 
L 64.031916 -46.392007 
L 65.429912 -46.291414 
L 66.827908 -44.580161 
L 68.225903 -45.726763 
L 69.623899 -47.783138 
L 71.021895 -50.069277 
L 72.41989 -50.198116 
L 73.817886 -51.343657 
L 75.215882 -51.67902 
L 76.613878 -51.420849 
L 78.011873 -51.887391 
L 79.409869 -51.285368 
L 80.807865 -51.722644 
L 82.20586 -51.431256 
L 83.603856 -51.621255 
L 85.001852 -56.177789 
L 86.399847 -59.371314 
L 87.797843 -59.385896 
L 89.195839 -60.6555 
L 90.593835 -60.12331 
L 91.99183 -61.910732 
L 93.389826 -61.351173 
L 94.787822 -61.311358 
L 96.185817 -61.684117 
L 97.583813 -61.992217 
L 98.981809 -63.075945 
L 100.379804 -63.252975 
L 101.7778 -62.612288 
L 103.175796 -63.336537 
L 104.573792 -63.569854 
L 105.971787 -64.364251 
L 107.369783 -64.511471 
L 108.767779 -72.097459 
L 110.165774 -76.972408 
L 111.56377 -69.936221 
L 112.961766 -76.17458 
L 114.359762 -84.748414 
L 115.757757 -84.18881 
L 117.155753 -85.512072 
L 118.553749 -85.4725 
L 119.951744 -84.702152 
L 121.34974 -81.56148 
L 122.747736 -83.804554 
L 124.145731 -83.593645 
L 125.543727 -76.148074 
L 126.941723 -76.513889 
L 128.339719 -75.842987 
L 129.737714 -74.017194 
L 131.13571 -70.190143 
L 132.533706 -74.878231 
L 133.931701 -75.963956 
L 135.329697 -80.456283 
L 136.727693 -86.666787 
L 138.125689 -85.938566 
L 139.523684 -92.60668 
L 140.92168 -95.080762 
L 142.319676 -89.614842 
L 143.717671 -91.285702 
L 145.115667 -92.314356 
L 146.513663 -92.856297 
L 147.911658 -94.442084 
L 149.309654 -101.154727 
L 150.70765 -95.532556 
L 152.105646 -95.801766 
L 153.503641 -96.343377 
L 154.901637 -96.735433 
L 156.299633 -101.818493 
L 157.697628 -104.107082 
L 159.095624 -101.699428 
L 160.49362 -101.636141 
L 161.891616 -101.597275 
L 163.289611 -104.065474 
L 164.687607 -108.146239 
L 166.085603 -102.967141 
L 167.483598 -103.790669 
L 168.881594 -101.589246 
L 170.27959 -104.345638 
L 171.677585 -104.685732 
L 173.075581 -105.858028 
L 174.473577 -105.251143 
L 175.871573 -111.640267 
L 177.269568 -111.557943 
L 178.667564 -116.063961 
L 180.06556 -112.559313 
L 181.463555 -115.649431 
L 182.861551 -115.587192 
L 184.259547 -114.976536 
L 185.657543 -124.405574 
L 187.055538 -125.690589 
L 188.453534 -126.820211 
L 189.85153 -122.758882 
L 191.249525 -125.613096 
L 192.647521 -135.539334 
L 194.045517 -142.553776 
L 195.443512 -142.143699 
L 196.841508 -148.13672 
L 198.239504 -150.827392 
L 199.6375 -136.47387 
L 201.035495 -143.093476 
L 202.433491 -143.700931 
L 203.831487 -140.155216 
L 205.229482 -139.002753 
L 206.627478 -140.242935 
L 208.025474 -139.924772 
L 209.423469 -138.861129 
L 210.821465 -137.898296 
L 212.219461 -136.157551 
L 213.617457 -133.016044 
L 215.015452 -127.268043 
L 216.413448 -133.573146 
L 217.811444 -132.10012 
L 219.209439 -135.216732 
L 220.607435 -132.337637 
L 222.005431 -131.099215 
L 223.403427 -125.891141 
L 224.801422 -125.541618 
L 226.199418 -131.501751 
L 227.597414 -129.581382 
L 228.995409 -130.506782 
L 230.393405 -127.903704 
L 231.791401 -122.254826 
L 233.189396 -130.054819 
L 234.587392 -120.35593 
L 235.985388 -117.083152 
L 237.383384 -113.516712 
L 238.781379 -111.935571 
L 240.179375 -107.353853 
L 241.577371 -105.41741 
L 242.975366 -100.506025 
L 244.373362 -98.222157 
L 245.771358 -96.848231 
L 247.169354 -92.750996 
L 248.567349 -96.073211 
L 249.965345 -90.770728 
L 251.363341 -89.114717 
L 252.761336 -84.353334 
L 254.159332 -76.464156 
L 255.557328 -76.160137 
L 256.955323 -75.531167 
L 258.353319 -75.95014 
L 259.751315 -74.67658 
L 261.149311 -74.427623 
L 262.547306 -74.744433 
L 263.945302 -71.547902 
L 265.343298 -69.816458 
L 266.741293 -71.232141 
L 268.139289 -71.485048 
L 269.537285 -71.563125 
L 270.935281 -71.122522 
L 272.333276 -70.192847 
L 273.731272 -72.187434 
L 275.129268 -70.796305 
L 276.527263 -67.499597 
L 277.925259 -67.537917 
L 279.323255 -71.138163 
L 280.72125 -66.548664 
L 282.119246 -62.389262 
L 283.517242 -67.72454 
L 284.915238 -67.19122 
L 286.313233 -67.143988 
L 287.711229 -62.575151 
L 289.109225 -62.003223 
L 290.50722 -61.655907 
L 291.905216 -62.220668 
L 293.303212 -61.858551 
L 294.701207 -62.513337 
L 296.099203 -61.594514 
L 297.497199 -67.18869 
L 298.895195 -61.468177 
L 300.29319 -62.143153 
L 301.691186 -62.549697 
L 303.089182 -59.775455 
L 304.487177 -62.293356 
L 305.885173 -60.189473 
L 307.283169 -60.191652 
L 308.681165 -60.414591 
L 310.07916 -60.137164 
L 311.477156 -60.532032 
L 312.875152 -59.654941 
L 314.273147 -59.561039 
L 315.671143 -62.785333 
L 317.069139 -63.303249 
L 318.467134 -62.182834 
L 319.86513 -58.734187 
L 321.263126 -58.454978 
L 322.661122 -61.883271 
L 324.059117 -61.587059 
L 325.457113 -60.941449 
L 326.855109 -60.86364 
L 328.253104 -61.148282 
L 329.6511 -60.665667 
L 331.049096 -58.933574 
L 332.447092 -58.117195 
L 333.845087 -61.786945 
L 335.243083 -60.913829 
L 336.641079 -61.363936 
L 338.039074 -58.743789 
L 339.43707 -57.528246 
L 340.835066 -58.173609 
L 342.233061 -58.9216 
L 343.631057 -59.062749 
L 345.029053 -60.440736 
L 346.427049 -59.631441 
L 347.825044 -59.25247 
L 349.22304 -59.80762 
L 350.621036 -59.78826 
L 352.019031 -61.053551 
L 353.417027 -65.492126 
L 354.815023 -64.935699 
L 356.213019 -66.047816 
L 357.611014 -66.975336 
L 359.00901 -66.6531 
L 360.407006 -68.547656 
L 361.805001 -74.681987 
L 363.202997 -81.121257 
L 364.600993 -81.827232 
L 365.998988 -81.843283 
L 367.396984 -87.167627 
L 368.79498 -87.710125 
L 370.192976 -89.664915 
L 371.590971 -91.655849 
L 372.988967 -98.149653 
L 374.386963 -102.97959 
L 375.784958 -102.552996 
L 377.182954 -105.537619 
L 378.58095 -109.308217 
L 379.978946 -111.48454 
L 381.376941 -122.415979 
L 382.774937 -126.959043 
L 384.172933 -143.743479 
L 385.570928 -139.3068 
L 386.968924 -152.315784 
L 388.36692 -155.359653 
L 389.764915 -158.702284 
L 391.162911 -158.721721 
L 392.560907 -160.150915 
L 393.958903 -169.135006 
L 395.356898 -163.982161 
L 396.754894 -173.082552 
L 398.15289 -173.038353 
L 399.550885 -181.565779 
L 400.948881 -181.184739 
L 402.346877 -181.199593 
L 403.744872 -180.159198 
L 405.142868 -188.13985 
L 406.540864 -190.789171 
L 407.93886 -187.581589 
L 409.336855 -188.773889 
L 410.734851 -189.708525 
L 412.132847 -191.051875 
L 413.530842 -186.885548 
L 414.928838 -161.185149 
L 416.326834 -174.618568 
L 417.72483 -174.749114 
L 417.72483 -162.604421 
L 417.72483 -162.604421 
L 416.326834 -162.6868 
L 414.928838 -150.376075 
L 413.530842 -175.013602 
L 412.132847 -179.16018 
L 410.734851 -175.251138 
L 409.336855 -177.358955 
L 407.93886 -176.581228 
L 406.540864 -179.011188 
L 405.142868 -175.571388 
L 403.744872 -167.310149 
L 402.346877 -168.667124 
L 400.948881 -169.423051 
L 399.550885 -167.793327 
L 398.15289 -159.390914 
L 396.754894 -160.196833 
L 395.356898 -150.878843 
L 393.958903 -157.430124 
L 392.560907 -149.012351 
L 391.162911 -146.943405 
L 389.764915 -146.077897 
L 388.36692 -143.259248 
L 386.968924 -141.196333 
L 385.570928 -127.636646 
L 384.172933 -132.918121 
L 382.774937 -118.437272 
L 381.376941 -111.143381 
L 379.978946 -102.254072 
L 378.58095 -98.621487 
L 377.182954 -95.346986 
L 375.784958 -93.361479 
L 374.386963 -93.308405 
L 372.988967 -89.344009 
L 371.590971 -83.942577 
L 370.192976 -81.05489 
L 368.79498 -79.316104 
L 367.396984 -78.034842 
L 365.998988 -74.67226 
L 364.600993 -73.98049 
L 363.202997 -72.769935 
L 361.805001 -67.38477 
L 360.407006 -62.943234 
L 359.00901 -60.800176 
L 357.611014 -60.97921 
L 356.213019 -59.672232 
L 354.815023 -59.416662 
L 353.417027 -59.297747 
L 352.019031 -55.844637 
L 350.621036 -53.806574 
L 349.22304 -53.973088 
L 347.825044 -54.398193 
L 346.427049 -53.865862 
L 345.029053 -54.631279 
L 343.631057 -53.191705 
L 342.233061 -53.356402 
L 340.835066 -52.559814 
L 339.43707 -52.315977 
L 338.039074 -52.818188 
L 336.641079 -54.6684 
L 335.243083 -55.214358 
L 333.845087 -54.880173 
L 332.447092 -52.97065 
L 331.049096 -52.425443 
L 329.6511 -54.575474 
L 328.253104 -54.482263 
L 326.855109 -54.756037 
L 325.457113 -54.534724 
L 324.059117 -55.77968 
L 322.661122 -55.798783 
L 321.263126 -52.974179 
L 319.86513 -53.383474 
L 318.467134 -56.580362 
L 317.069139 -56.809471 
L 315.671143 -56.652181 
L 314.273147 -53.425592 
L 312.875152 -53.735156 
L 311.477156 -53.852144 
L 310.07916 -54.286363 
L 308.681165 -54.547249 
L 307.283169 -54.251064 
L 305.885173 -54.342096 
L 304.487177 -56.131079 
L 303.089182 -53.995393 
L 301.691186 -56.234544 
L 300.29319 -56.122426 
L 298.895195 -56.198338 
L 297.497199 -60.338273 
L 296.099203 -55.647746 
L 294.701207 -56.266102 
L 293.303212 -56.338958 
L 291.905216 -55.659586 
L 290.50722 -55.866851 
L 289.109225 -55.568514 
L 287.711229 -55.876691 
L 286.313233 -60.191653 
L 284.915238 -59.957414 
L 283.517242 -61.174376 
L 282.119246 -56.372165 
L 280.72125 -60.139515 
L 279.323255 -64.266626 
L 277.925259 -59.879799 
L 276.527263 -60.208367 
L 275.129268 -64.133681 
L 273.731272 -65.163693 
L 272.333276 -63.760292 
L 270.935281 -63.879365 
L 269.537285 -64.975446 
L 268.139289 -63.936564 
L 266.741293 -63.115038 
L 265.343298 -63.641542 
L 263.945302 -64.625378 
L 262.547306 -67.864018 
L 261.149311 -67.617293 
L 259.751315 -68.050017 
L 258.353319 -69.277922 
L 256.955323 -68.599581 
L 255.557328 -68.711242 
L 254.159332 -68.775498 
L 252.761336 -76.445587 
L 251.363341 -80.646606 
L 249.965345 -81.819656 
L 248.567349 -86.997159 
L 247.169354 -82.639238 
L 245.771358 -87.718797 
L 244.373362 -88.164468 
L 242.975366 -90.535727 
L 241.577371 -95.97703 
L 240.179375 -97.406563 
L 238.781379 -103.241756 
L 237.383384 -103.765326 
L 235.985388 -105.518235 
L 234.587392 -109.916985 
L 233.189396 -119.001526 
L 231.791401 -111.356551 
L 230.393405 -118.221233 
L 228.995409 -119.076522 
L 227.597414 -118.927519 
L 226.199418 -119.94642 
L 224.801422 -114.876634 
L 223.403427 -114.751326 
L 222.005431 -119.618636 
L 220.607435 -121.227804 
L 219.209439 -123.07196 
L 217.811444 -122.405647 
L 216.413448 -121.482362 
L 215.015452 -115.456544 
L 213.617457 -121.730691 
L 212.219461 -124.113329 
L 210.821465 -126.49185 
L 209.423469 -127.861083 
L 208.025474 -127.531142 
L 206.627478 -127.633666 
L 205.229482 -127.189012 
L 203.831487 -129.476319 
L 202.433491 -130.954913 
L 201.035495 -130.236444 
L 199.6375 -124.646116 
L 198.239504 -135.63192 
L 196.841508 -135.225193 
L 195.443512 -130.053488 
L 194.045517 -129.42807 
L 192.647521 -123.327454 
L 191.249525 -113.469939 
L 189.85153 -111.806153 
L 188.453534 -114.41619 
L 187.055538 -114.675464 
L 185.657543 -113.07381 
L 184.259547 -103.414054 
L 182.861551 -103.07118 
L 181.463555 -102.44523 
L 180.06556 -99.393286 
L 178.667564 -104.163137 
L 177.269568 -99.731469 
L 175.871573 -98.981944 
L 174.473577 -95.114393 
L 173.075581 -93.279467 
L 171.677585 -93.927929 
L 170.27959 -93.344645 
L 168.881594 -90.165122 
L 167.483598 -92.556094 
L 166.085603 -91.301247 
L 164.687607 -97.768255 
L 163.289611 -92.149089 
L 161.891616 -90.579228 
L 160.49362 -90.879239 
L 159.095624 -90.156848 
L 157.697628 -93.912514 
L 156.299633 -91.259172 
L 154.901637 -87.145692 
L 153.503641 -86.945694 
L 152.105646 -85.791436 
L 150.70765 -86.150237 
L 149.309654 -92.300292 
L 147.911658 -84.694227 
L 146.513663 -84.653733 
L 145.115667 -84.109543 
L 143.717671 -82.812824 
L 142.319676 -81.352599 
L 140.92168 -85.851005 
L 139.523684 -85.246255 
L 138.125689 -78.71394 
L 136.727693 -78.83045 
L 135.329697 -73.633972 
L 133.931701 -68.311472 
L 132.533706 -68.192862 
L 131.13571 -63.802894 
L 129.737714 -66.531769 
L 128.339719 -68.587897 
L 126.941723 -69.362458 
L 125.543727 -69.202329 
L 124.145731 -77.055923 
L 122.747736 -76.408713 
L 121.34974 -74.327805 
L 119.951744 -76.840564 
L 118.553749 -77.965673 
L 117.155753 -78.393764 
L 115.757757 -76.910934 
L 114.359762 -78.200282 
L 112.961766 -69.697192 
L 111.56377 -63.579937 
L 110.165774 -70.392378 
L 108.767779 -65.975347 
L 107.369783 -58.809559 
L 105.971787 -57.710914 
L 104.573792 -57.766994 
L 103.175796 -57.222826 
L 101.7778 -57.091808 
L 100.379804 -57.500465 
L 98.981809 -57.394924 
L 97.583813 -56.034339 
L 96.185817 -55.994733 
L 94.787822 -54.361444 
L 93.389826 -56.11457 
L 91.99183 -55.67233 
L 90.593835 -53.985265 
L 89.195839 -54.725472 
L 87.797843 -54.104614 
L 86.399847 -53.76883 
L 85.001852 -50.855788 
L 83.603856 -47.571862 
L 82.20586 -47.396011 
L 80.807865 -46.780833 
L 79.409869 -46.929942 
L 78.011873 -46.944105 
L 76.613878 -47.259002 
L 75.215882 -47.208955 
L 73.817886 -47.062382 
L 72.41989 -45.886236 
L 71.021895 -46.056644 
L 69.623899 -43.772446 
L 68.225903 -41.68424 
L 66.827908 -40.868576 
L 65.429912 -42.614432 
L 64.031916 -42.219886 
L 62.63392 -41.266919 
z
" style="stroke: #0db14b; stroke-opacity: 0.5; stroke-width: 0.5"/>
    </defs>
    <g clip-path="url(#p0657f60773)">
     <use xlink:href="#m071f9174b7" x="0" y="200.19572" style="fill: #0db14b; fill-opacity: 0.5; stroke: #0db14b; stroke-opacity: 0.5; stroke-width: 0.5"/>
    </g>
   </g>
   <g id="line2d_23">
    <path d="M 62.63392 157.132371 
L 64.031916 155.889773 
L 65.429912 155.742797 
L 66.827908 157.471351 
L 68.225903 156.490218 
L 69.623899 154.417928 
L 71.021895 152.13276 
L 72.41989 152.153544 
L 73.817886 150.992701 
L 75.215882 150.751733 
L 76.613878 150.855794 
L 78.011873 150.779972 
L 79.409869 151.088065 
L 83.603856 150.599161 
L 85.001852 146.678932 
L 86.399847 143.625648 
L 87.797843 143.450465 
L 89.195839 142.505234 
L 90.593835 143.141433 
L 91.99183 141.404189 
L 93.389826 141.462848 
L 94.787822 142.359319 
L 96.185817 141.356295 
L 97.583813 141.182442 
L 98.981809 139.960286 
L 100.379804 139.819 
L 101.7778 140.343672 
L 107.369783 138.535206 
L 108.767779 131.159317 
L 110.165774 126.513327 
L 111.56377 133.437641 
L 112.961766 127.259834 
L 114.359762 118.721372 
L 115.757757 119.645848 
L 117.155753 118.242802 
L 118.553749 118.476634 
L 119.951744 119.424362 
L 121.34974 122.251078 
L 122.747736 120.089087 
L 124.145731 119.870936 
L 125.543727 127.520518 
L 126.941723 127.257546 
L 128.339719 127.980278 
L 129.737714 129.921239 
L 131.13571 133.199201 
L 132.533706 128.660173 
L 133.931701 128.058006 
L 135.329697 123.150593 
L 136.727693 117.447102 
L 138.125689 117.869467 
L 139.523684 111.269253 
L 140.92168 109.729837 
L 142.319676 114.712 
L 143.717671 113.146457 
L 145.115667 111.983771 
L 146.513663 111.440706 
L 147.911658 110.627565 
L 149.309654 103.468211 
L 150.70765 109.354323 
L 152.105646 109.399119 
L 153.503641 108.551185 
L 154.901637 108.255158 
L 156.299633 103.656888 
L 157.697628 101.185923 
L 159.095624 104.267582 
L 160.49362 103.93803 
L 161.891616 104.107469 
L 163.289611 102.088438 
L 164.687607 97.238473 
L 166.085603 103.061526 
L 167.483598 102.022339 
L 168.881594 104.318536 
L 170.27959 101.350579 
L 171.677585 100.88889 
L 173.075581 100.626973 
L 174.473577 100.012952 
L 175.871573 94.884614 
L 177.269568 94.551014 
L 178.667564 90.082171 
L 180.06556 94.21942 
L 181.463555 91.14839 
L 182.861551 90.866534 
L 184.259547 91.000425 
L 185.657543 81.456028 
L 187.055538 80.012693 
L 188.453534 79.57752 
L 189.85153 82.913203 
L 191.249525 80.654202 
L 192.647521 70.762326 
L 194.045517 64.204797 
L 195.443512 64.097127 
L 196.841508 58.514763 
L 198.239504 56.966064 
L 199.6375 69.635727 
L 201.035495 63.53076 
L 202.433491 62.867798 
L 203.831487 65.379953 
L 205.229482 67.099838 
L 206.627478 66.25742 
L 208.025474 66.467763 
L 209.423469 66.834614 
L 210.821465 68.000647 
L 212.219461 70.06028 
L 213.617457 72.822353 
L 215.015452 78.833426 
L 216.413448 72.667966 
L 217.811444 72.942837 
L 219.209439 71.051374 
L 220.607435 73.413 
L 222.005431 74.836795 
L 223.403427 79.874487 
L 224.801422 79.986594 
L 226.199418 74.471635 
L 227.597414 75.94127 
L 228.995409 75.404068 
L 230.393405 77.133252 
L 231.791401 83.390032 
L 233.189396 75.667548 
L 234.587392 85.059263 
L 235.985388 88.895027 
L 237.383384 91.554701 
L 238.781379 92.607057 
L 240.179375 97.815512 
L 241.577371 99.4985 
L 242.975366 104.674844 
L 244.373362 107.002408 
L 245.771358 107.912206 
L 247.169354 112.500603 
L 248.567349 108.660535 
L 249.965345 113.900528 
L 251.363341 115.315058 
L 252.761336 119.796259 
L 254.159332 127.575893 
L 255.557328 127.76003 
L 256.955323 128.130346 
L 258.353319 127.581689 
L 259.751315 128.832421 
L 261.149311 129.173262 
L 262.547306 128.891495 
L 263.945302 132.10908 
L 265.343298 133.46672 
L 268.139289 132.484914 
L 269.537285 131.926435 
L 270.935281 132.694777 
L 272.333276 133.219151 
L 273.731272 131.520157 
L 275.129268 132.730727 
L 276.527263 136.341738 
L 277.925259 136.486862 
L 279.323255 132.493326 
L 280.72125 136.85163 
L 282.119246 140.815007 
L 283.517242 135.746262 
L 284.915238 136.621403 
L 286.313233 136.527899 
L 287.711229 140.969799 
L 289.109225 141.409852 
L 290.50722 141.434341 
L 294.701207 140.806001 
L 296.099203 141.57459 
L 297.497199 136.432239 
L 298.895195 141.362463 
L 301.691186 140.8036 
L 303.089182 143.310296 
L 304.487177 140.983503 
L 305.885173 142.929935 
L 307.283169 142.974362 
L 308.681165 142.7148 
L 310.07916 142.983957 
L 311.477156 143.003632 
L 312.875152 143.500671 
L 314.273147 143.702405 
L 315.671143 140.476963 
L 317.069139 140.13936 
L 318.467134 140.814122 
L 319.86513 144.136889 
L 321.263126 144.481142 
L 322.661122 141.354693 
L 324.059117 141.512351 
L 325.457113 142.457634 
L 328.253104 142.380448 
L 329.6511 142.57515 
L 331.049096 144.516211 
L 332.447092 144.651797 
L 333.845087 141.862161 
L 335.243083 142.131626 
L 336.641079 142.179552 
L 338.039074 144.414732 
L 339.43707 145.273609 
L 340.835066 144.829009 
L 342.233061 144.056719 
L 343.631057 144.068493 
L 345.029053 142.659712 
L 346.427049 143.447068 
L 349.22304 143.305366 
L 350.621036 143.398303 
L 352.019031 141.746626 
L 353.417027 137.800784 
L 354.815023 138.01954 
L 356.213019 137.335697 
L 357.611014 136.218447 
L 359.00901 136.469082 
L 360.407006 134.450275 
L 361.805001 129.162341 
L 363.202997 123.250124 
L 364.600993 122.291859 
L 365.998988 121.937949 
L 367.396984 117.594486 
L 368.79498 116.682606 
L 370.192976 114.835818 
L 371.590971 112.396507 
L 372.988967 106.448889 
L 374.386963 102.051723 
L 375.784958 102.238483 
L 377.182954 99.753418 
L 378.58095 96.230868 
L 379.978946 93.326415 
L 381.376941 83.41604 
L 382.774937 77.497562 
L 384.172933 61.86492 
L 385.570928 66.723997 
L 386.968924 53.439661 
L 388.36692 50.886269 
L 389.764915 47.80563 
L 391.162911 47.363157 
L 392.560907 45.614087 
L 393.958903 36.913155 
L 395.356898 42.765218 
L 396.754894 33.556027 
L 398.15289 33.981086 
L 399.550885 25.516167 
L 400.948881 24.891825 
L 402.346877 25.262362 
L 403.744872 26.461046 
L 405.142868 18.340101 
L 406.540864 15.295541 
L 407.93886 18.114312 
L 409.336855 17.129298 
L 410.734851 17.715889 
L 412.132847 15.089693 
L 413.530842 19.246145 
L 414.928838 44.415108 
L 416.326834 31.543036 
L 417.72483 31.518953 
L 417.72483 31.518953 
" clip-path="url(#p0657f60773)" style="fill: none; stroke: #0db14b; stroke-width: 3; stroke-linecap: square"/>
    <defs>
     <path id="md163d1c409" d="M 0 1.5 
C 0.397805 1.5 0.77937 1.341951 1.06066 1.06066 
C 1.341951 0.77937 1.5 0.397805 1.5 0 
C 1.5 -0.397805 1.341951 -0.77937 1.06066 -1.06066 
C 0.77937 -1.341951 0.397805 -1.5 0 -1.5 
C -0.397805 -1.5 -0.77937 -1.341951 -1.06066 -1.06066 
C -1.341951 -0.77937 -1.5 -0.397805 -1.5 0 
C -1.5 0.397805 -1.341951 0.77937 -1.06066 1.06066 
C -0.77937 1.341951 -0.397805 1.5 0 1.5 
z
" style="stroke: #0db14b"/>
    </defs>
    <g clip-path="url(#p0657f60773)">
     <use xlink:href="#md163d1c409" x="62.63392" y="157.132371" style="fill: #0db14b; stroke: #0db14b"/>
     <use xlink:href="#md163d1c409" x="64.031916" y="155.889773" style="fill: #0db14b; stroke: #0db14b"/>
     <use xlink:href="#md163d1c409" x="65.429912" y="155.742797" style="fill: #0db14b; stroke: #0db14b"/>
     <use xlink:href="#md163d1c409" x="66.827908" y="157.471351" style="fill: #0db14b; stroke: #0db14b"/>
     <use xlink:href="#md163d1c409" x="68.225903" y="156.490218" style="fill: #0db14b; stroke: #0db14b"/>
     <use xlink:href="#md163d1c409" x="69.623899" y="154.417928" style="fill: #0db14b; stroke: #0db14b"/>
     <use xlink:href="#md163d1c409" x="71.021895" y="152.13276" style="fill: #0db14b; stroke: #0db14b"/>
     <use xlink:href="#md163d1c409" x="72.41989" y="152.153544" style="fill: #0db14b; stroke: #0db14b"/>
     <use xlink:href="#md163d1c409" x="73.817886" y="150.992701" style="fill: #0db14b; stroke: #0db14b"/>
     <use xlink:href="#md163d1c409" x="75.215882" y="150.751733" style="fill: #0db14b; stroke: #0db14b"/>
     <use xlink:href="#md163d1c409" x="76.613878" y="150.855794" style="fill: #0db14b; stroke: #0db14b"/>
     <use xlink:href="#md163d1c409" x="78.011873" y="150.779972" style="fill: #0db14b; stroke: #0db14b"/>
     <use xlink:href="#md163d1c409" x="79.409869" y="151.088065" style="fill: #0db14b; stroke: #0db14b"/>
     <use xlink:href="#md163d1c409" x="80.807865" y="150.943981" style="fill: #0db14b; stroke: #0db14b"/>
     <use xlink:href="#md163d1c409" x="82.20586" y="150.782087" style="fill: #0db14b; stroke: #0db14b"/>
     <use xlink:href="#md163d1c409" x="83.603856" y="150.599161" style="fill: #0db14b; stroke: #0db14b"/>
     <use xlink:href="#md163d1c409" x="85.001852" y="146.678932" style="fill: #0db14b; stroke: #0db14b"/>
     <use xlink:href="#md163d1c409" x="86.399847" y="143.625648" style="fill: #0db14b; stroke: #0db14b"/>
     <use xlink:href="#md163d1c409" x="87.797843" y="143.450465" style="fill: #0db14b; stroke: #0db14b"/>
     <use xlink:href="#md163d1c409" x="89.195839" y="142.505234" style="fill: #0db14b; stroke: #0db14b"/>
     <use xlink:href="#md163d1c409" x="90.593835" y="143.141433" style="fill: #0db14b; stroke: #0db14b"/>
     <use xlink:href="#md163d1c409" x="91.99183" y="141.404189" style="fill: #0db14b; stroke: #0db14b"/>
     <use xlink:href="#md163d1c409" x="93.389826" y="141.462848" style="fill: #0db14b; stroke: #0db14b"/>
     <use xlink:href="#md163d1c409" x="94.787822" y="142.359319" style="fill: #0db14b; stroke: #0db14b"/>
     <use xlink:href="#md163d1c409" x="96.185817" y="141.356295" style="fill: #0db14b; stroke: #0db14b"/>
     <use xlink:href="#md163d1c409" x="97.583813" y="141.182442" style="fill: #0db14b; stroke: #0db14b"/>
     <use xlink:href="#md163d1c409" x="98.981809" y="139.960286" style="fill: #0db14b; stroke: #0db14b"/>
     <use xlink:href="#md163d1c409" x="100.379804" y="139.819" style="fill: #0db14b; stroke: #0db14b"/>
     <use xlink:href="#md163d1c409" x="101.7778" y="140.343672" style="fill: #0db14b; stroke: #0db14b"/>
     <use xlink:href="#md163d1c409" x="103.175796" y="139.916038" style="fill: #0db14b; stroke: #0db14b"/>
     <use xlink:href="#md163d1c409" x="104.573792" y="139.527296" style="fill: #0db14b; stroke: #0db14b"/>
     <use xlink:href="#md163d1c409" x="105.971787" y="139.158138" style="fill: #0db14b; stroke: #0db14b"/>
     <use xlink:href="#md163d1c409" x="107.369783" y="138.535206" style="fill: #0db14b; stroke: #0db14b"/>
     <use xlink:href="#md163d1c409" x="108.767779" y="131.159317" style="fill: #0db14b; stroke: #0db14b"/>
     <use xlink:href="#md163d1c409" x="110.165774" y="126.513327" style="fill: #0db14b; stroke: #0db14b"/>
     <use xlink:href="#md163d1c409" x="111.56377" y="133.437641" style="fill: #0db14b; stroke: #0db14b"/>
     <use xlink:href="#md163d1c409" x="112.961766" y="127.259834" style="fill: #0db14b; stroke: #0db14b"/>
     <use xlink:href="#md163d1c409" x="114.359762" y="118.721372" style="fill: #0db14b; stroke: #0db14b"/>
     <use xlink:href="#md163d1c409" x="115.757757" y="119.645848" style="fill: #0db14b; stroke: #0db14b"/>
     <use xlink:href="#md163d1c409" x="117.155753" y="118.242802" style="fill: #0db14b; stroke: #0db14b"/>
     <use xlink:href="#md163d1c409" x="118.553749" y="118.476634" style="fill: #0db14b; stroke: #0db14b"/>
     <use xlink:href="#md163d1c409" x="119.951744" y="119.424362" style="fill: #0db14b; stroke: #0db14b"/>
     <use xlink:href="#md163d1c409" x="121.34974" y="122.251078" style="fill: #0db14b; stroke: #0db14b"/>
     <use xlink:href="#md163d1c409" x="122.747736" y="120.089087" style="fill: #0db14b; stroke: #0db14b"/>
     <use xlink:href="#md163d1c409" x="124.145731" y="119.870936" style="fill: #0db14b; stroke: #0db14b"/>
     <use xlink:href="#md163d1c409" x="125.543727" y="127.520518" style="fill: #0db14b; stroke: #0db14b"/>
     <use xlink:href="#md163d1c409" x="126.941723" y="127.257546" style="fill: #0db14b; stroke: #0db14b"/>
     <use xlink:href="#md163d1c409" x="128.339719" y="127.980278" style="fill: #0db14b; stroke: #0db14b"/>
     <use xlink:href="#md163d1c409" x="129.737714" y="129.921239" style="fill: #0db14b; stroke: #0db14b"/>
     <use xlink:href="#md163d1c409" x="131.13571" y="133.199201" style="fill: #0db14b; stroke: #0db14b"/>
     <use xlink:href="#md163d1c409" x="132.533706" y="128.660173" style="fill: #0db14b; stroke: #0db14b"/>
     <use xlink:href="#md163d1c409" x="133.931701" y="128.058006" style="fill: #0db14b; stroke: #0db14b"/>
     <use xlink:href="#md163d1c409" x="135.329697" y="123.150593" style="fill: #0db14b; stroke: #0db14b"/>
     <use xlink:href="#md163d1c409" x="136.727693" y="117.447102" style="fill: #0db14b; stroke: #0db14b"/>
     <use xlink:href="#md163d1c409" x="138.125689" y="117.869467" style="fill: #0db14b; stroke: #0db14b"/>
     <use xlink:href="#md163d1c409" x="139.523684" y="111.269253" style="fill: #0db14b; stroke: #0db14b"/>
     <use xlink:href="#md163d1c409" x="140.92168" y="109.729837" style="fill: #0db14b; stroke: #0db14b"/>
     <use xlink:href="#md163d1c409" x="142.319676" y="114.712" style="fill: #0db14b; stroke: #0db14b"/>
     <use xlink:href="#md163d1c409" x="143.717671" y="113.146457" style="fill: #0db14b; stroke: #0db14b"/>
     <use xlink:href="#md163d1c409" x="145.115667" y="111.983771" style="fill: #0db14b; stroke: #0db14b"/>
     <use xlink:href="#md163d1c409" x="146.513663" y="111.440706" style="fill: #0db14b; stroke: #0db14b"/>
     <use xlink:href="#md163d1c409" x="147.911658" y="110.627565" style="fill: #0db14b; stroke: #0db14b"/>
     <use xlink:href="#md163d1c409" x="149.309654" y="103.468211" style="fill: #0db14b; stroke: #0db14b"/>
     <use xlink:href="#md163d1c409" x="150.70765" y="109.354323" style="fill: #0db14b; stroke: #0db14b"/>
     <use xlink:href="#md163d1c409" x="152.105646" y="109.399119" style="fill: #0db14b; stroke: #0db14b"/>
     <use xlink:href="#md163d1c409" x="153.503641" y="108.551185" style="fill: #0db14b; stroke: #0db14b"/>
     <use xlink:href="#md163d1c409" x="154.901637" y="108.255158" style="fill: #0db14b; stroke: #0db14b"/>
     <use xlink:href="#md163d1c409" x="156.299633" y="103.656888" style="fill: #0db14b; stroke: #0db14b"/>
     <use xlink:href="#md163d1c409" x="157.697628" y="101.185923" style="fill: #0db14b; stroke: #0db14b"/>
     <use xlink:href="#md163d1c409" x="159.095624" y="104.267582" style="fill: #0db14b; stroke: #0db14b"/>
     <use xlink:href="#md163d1c409" x="160.49362" y="103.93803" style="fill: #0db14b; stroke: #0db14b"/>
     <use xlink:href="#md163d1c409" x="161.891616" y="104.107469" style="fill: #0db14b; stroke: #0db14b"/>
     <use xlink:href="#md163d1c409" x="163.289611" y="102.088438" style="fill: #0db14b; stroke: #0db14b"/>
     <use xlink:href="#md163d1c409" x="164.687607" y="97.238473" style="fill: #0db14b; stroke: #0db14b"/>
     <use xlink:href="#md163d1c409" x="166.085603" y="103.061526" style="fill: #0db14b; stroke: #0db14b"/>
     <use xlink:href="#md163d1c409" x="167.483598" y="102.022339" style="fill: #0db14b; stroke: #0db14b"/>
     <use xlink:href="#md163d1c409" x="168.881594" y="104.318536" style="fill: #0db14b; stroke: #0db14b"/>
     <use xlink:href="#md163d1c409" x="170.27959" y="101.350579" style="fill: #0db14b; stroke: #0db14b"/>
     <use xlink:href="#md163d1c409" x="171.677585" y="100.88889" style="fill: #0db14b; stroke: #0db14b"/>
     <use xlink:href="#md163d1c409" x="173.075581" y="100.626973" style="fill: #0db14b; stroke: #0db14b"/>
     <use xlink:href="#md163d1c409" x="174.473577" y="100.012952" style="fill: #0db14b; stroke: #0db14b"/>
     <use xlink:href="#md163d1c409" x="175.871573" y="94.884614" style="fill: #0db14b; stroke: #0db14b"/>
     <use xlink:href="#md163d1c409" x="177.269568" y="94.551014" style="fill: #0db14b; stroke: #0db14b"/>
     <use xlink:href="#md163d1c409" x="178.667564" y="90.082171" style="fill: #0db14b; stroke: #0db14b"/>
     <use xlink:href="#md163d1c409" x="180.06556" y="94.21942" style="fill: #0db14b; stroke: #0db14b"/>
     <use xlink:href="#md163d1c409" x="181.463555" y="91.14839" style="fill: #0db14b; stroke: #0db14b"/>
     <use xlink:href="#md163d1c409" x="182.861551" y="90.866534" style="fill: #0db14b; stroke: #0db14b"/>
     <use xlink:href="#md163d1c409" x="184.259547" y="91.000425" style="fill: #0db14b; stroke: #0db14b"/>
     <use xlink:href="#md163d1c409" x="185.657543" y="81.456028" style="fill: #0db14b; stroke: #0db14b"/>
     <use xlink:href="#md163d1c409" x="187.055538" y="80.012693" style="fill: #0db14b; stroke: #0db14b"/>
     <use xlink:href="#md163d1c409" x="188.453534" y="79.57752" style="fill: #0db14b; stroke: #0db14b"/>
     <use xlink:href="#md163d1c409" x="189.85153" y="82.913203" style="fill: #0db14b; stroke: #0db14b"/>
     <use xlink:href="#md163d1c409" x="191.249525" y="80.654202" style="fill: #0db14b; stroke: #0db14b"/>
     <use xlink:href="#md163d1c409" x="192.647521" y="70.762326" style="fill: #0db14b; stroke: #0db14b"/>
     <use xlink:href="#md163d1c409" x="194.045517" y="64.204797" style="fill: #0db14b; stroke: #0db14b"/>
     <use xlink:href="#md163d1c409" x="195.443512" y="64.097127" style="fill: #0db14b; stroke: #0db14b"/>
     <use xlink:href="#md163d1c409" x="196.841508" y="58.514763" style="fill: #0db14b; stroke: #0db14b"/>
     <use xlink:href="#md163d1c409" x="198.239504" y="56.966064" style="fill: #0db14b; stroke: #0db14b"/>
     <use xlink:href="#md163d1c409" x="199.6375" y="69.635727" style="fill: #0db14b; stroke: #0db14b"/>
     <use xlink:href="#md163d1c409" x="201.035495" y="63.53076" style="fill: #0db14b; stroke: #0db14b"/>
     <use xlink:href="#md163d1c409" x="202.433491" y="62.867798" style="fill: #0db14b; stroke: #0db14b"/>
     <use xlink:href="#md163d1c409" x="203.831487" y="65.379953" style="fill: #0db14b; stroke: #0db14b"/>
     <use xlink:href="#md163d1c409" x="205.229482" y="67.099838" style="fill: #0db14b; stroke: #0db14b"/>
     <use xlink:href="#md163d1c409" x="206.627478" y="66.25742" style="fill: #0db14b; stroke: #0db14b"/>
     <use xlink:href="#md163d1c409" x="208.025474" y="66.467763" style="fill: #0db14b; stroke: #0db14b"/>
     <use xlink:href="#md163d1c409" x="209.423469" y="66.834614" style="fill: #0db14b; stroke: #0db14b"/>
     <use xlink:href="#md163d1c409" x="210.821465" y="68.000647" style="fill: #0db14b; stroke: #0db14b"/>
     <use xlink:href="#md163d1c409" x="212.219461" y="70.06028" style="fill: #0db14b; stroke: #0db14b"/>
     <use xlink:href="#md163d1c409" x="213.617457" y="72.822353" style="fill: #0db14b; stroke: #0db14b"/>
     <use xlink:href="#md163d1c409" x="215.015452" y="78.833426" style="fill: #0db14b; stroke: #0db14b"/>
     <use xlink:href="#md163d1c409" x="216.413448" y="72.667966" style="fill: #0db14b; stroke: #0db14b"/>
     <use xlink:href="#md163d1c409" x="217.811444" y="72.942837" style="fill: #0db14b; stroke: #0db14b"/>
     <use xlink:href="#md163d1c409" x="219.209439" y="71.051374" style="fill: #0db14b; stroke: #0db14b"/>
     <use xlink:href="#md163d1c409" x="220.607435" y="73.413" style="fill: #0db14b; stroke: #0db14b"/>
     <use xlink:href="#md163d1c409" x="222.005431" y="74.836795" style="fill: #0db14b; stroke: #0db14b"/>
     <use xlink:href="#md163d1c409" x="223.403427" y="79.874487" style="fill: #0db14b; stroke: #0db14b"/>
     <use xlink:href="#md163d1c409" x="224.801422" y="79.986594" style="fill: #0db14b; stroke: #0db14b"/>
     <use xlink:href="#md163d1c409" x="226.199418" y="74.471635" style="fill: #0db14b; stroke: #0db14b"/>
     <use xlink:href="#md163d1c409" x="227.597414" y="75.94127" style="fill: #0db14b; stroke: #0db14b"/>
     <use xlink:href="#md163d1c409" x="228.995409" y="75.404068" style="fill: #0db14b; stroke: #0db14b"/>
     <use xlink:href="#md163d1c409" x="230.393405" y="77.133252" style="fill: #0db14b; stroke: #0db14b"/>
     <use xlink:href="#md163d1c409" x="231.791401" y="83.390032" style="fill: #0db14b; stroke: #0db14b"/>
     <use xlink:href="#md163d1c409" x="233.189396" y="75.667548" style="fill: #0db14b; stroke: #0db14b"/>
     <use xlink:href="#md163d1c409" x="234.587392" y="85.059263" style="fill: #0db14b; stroke: #0db14b"/>
     <use xlink:href="#md163d1c409" x="235.985388" y="88.895027" style="fill: #0db14b; stroke: #0db14b"/>
     <use xlink:href="#md163d1c409" x="237.383384" y="91.554701" style="fill: #0db14b; stroke: #0db14b"/>
     <use xlink:href="#md163d1c409" x="238.781379" y="92.607057" style="fill: #0db14b; stroke: #0db14b"/>
     <use xlink:href="#md163d1c409" x="240.179375" y="97.815512" style="fill: #0db14b; stroke: #0db14b"/>
     <use xlink:href="#md163d1c409" x="241.577371" y="99.4985" style="fill: #0db14b; stroke: #0db14b"/>
     <use xlink:href="#md163d1c409" x="242.975366" y="104.674844" style="fill: #0db14b; stroke: #0db14b"/>
     <use xlink:href="#md163d1c409" x="244.373362" y="107.002408" style="fill: #0db14b; stroke: #0db14b"/>
     <use xlink:href="#md163d1c409" x="245.771358" y="107.912206" style="fill: #0db14b; stroke: #0db14b"/>
     <use xlink:href="#md163d1c409" x="247.169354" y="112.500603" style="fill: #0db14b; stroke: #0db14b"/>
     <use xlink:href="#md163d1c409" x="248.567349" y="108.660535" style="fill: #0db14b; stroke: #0db14b"/>
     <use xlink:href="#md163d1c409" x="249.965345" y="113.900528" style="fill: #0db14b; stroke: #0db14b"/>
     <use xlink:href="#md163d1c409" x="251.363341" y="115.315058" style="fill: #0db14b; stroke: #0db14b"/>
     <use xlink:href="#md163d1c409" x="252.761336" y="119.796259" style="fill: #0db14b; stroke: #0db14b"/>
     <use xlink:href="#md163d1c409" x="254.159332" y="127.575893" style="fill: #0db14b; stroke: #0db14b"/>
     <use xlink:href="#md163d1c409" x="255.557328" y="127.76003" style="fill: #0db14b; stroke: #0db14b"/>
     <use xlink:href="#md163d1c409" x="256.955323" y="128.130346" style="fill: #0db14b; stroke: #0db14b"/>
     <use xlink:href="#md163d1c409" x="258.353319" y="127.581689" style="fill: #0db14b; stroke: #0db14b"/>
     <use xlink:href="#md163d1c409" x="259.751315" y="128.832421" style="fill: #0db14b; stroke: #0db14b"/>
     <use xlink:href="#md163d1c409" x="261.149311" y="129.173262" style="fill: #0db14b; stroke: #0db14b"/>
     <use xlink:href="#md163d1c409" x="262.547306" y="128.891495" style="fill: #0db14b; stroke: #0db14b"/>
     <use xlink:href="#md163d1c409" x="263.945302" y="132.10908" style="fill: #0db14b; stroke: #0db14b"/>
     <use xlink:href="#md163d1c409" x="265.343298" y="133.46672" style="fill: #0db14b; stroke: #0db14b"/>
     <use xlink:href="#md163d1c409" x="266.741293" y="133.022131" style="fill: #0db14b; stroke: #0db14b"/>
     <use xlink:href="#md163d1c409" x="268.139289" y="132.484914" style="fill: #0db14b; stroke: #0db14b"/>
     <use xlink:href="#md163d1c409" x="269.537285" y="131.926435" style="fill: #0db14b; stroke: #0db14b"/>
     <use xlink:href="#md163d1c409" x="270.935281" y="132.694777" style="fill: #0db14b; stroke: #0db14b"/>
     <use xlink:href="#md163d1c409" x="272.333276" y="133.219151" style="fill: #0db14b; stroke: #0db14b"/>
     <use xlink:href="#md163d1c409" x="273.731272" y="131.520157" style="fill: #0db14b; stroke: #0db14b"/>
     <use xlink:href="#md163d1c409" x="275.129268" y="132.730727" style="fill: #0db14b; stroke: #0db14b"/>
     <use xlink:href="#md163d1c409" x="276.527263" y="136.341738" style="fill: #0db14b; stroke: #0db14b"/>
     <use xlink:href="#md163d1c409" x="277.925259" y="136.486862" style="fill: #0db14b; stroke: #0db14b"/>
     <use xlink:href="#md163d1c409" x="279.323255" y="132.493326" style="fill: #0db14b; stroke: #0db14b"/>
     <use xlink:href="#md163d1c409" x="280.72125" y="136.85163" style="fill: #0db14b; stroke: #0db14b"/>
     <use xlink:href="#md163d1c409" x="282.119246" y="140.815007" style="fill: #0db14b; stroke: #0db14b"/>
     <use xlink:href="#md163d1c409" x="283.517242" y="135.746262" style="fill: #0db14b; stroke: #0db14b"/>
     <use xlink:href="#md163d1c409" x="284.915238" y="136.621403" style="fill: #0db14b; stroke: #0db14b"/>
     <use xlink:href="#md163d1c409" x="286.313233" y="136.527899" style="fill: #0db14b; stroke: #0db14b"/>
     <use xlink:href="#md163d1c409" x="287.711229" y="140.969799" style="fill: #0db14b; stroke: #0db14b"/>
     <use xlink:href="#md163d1c409" x="289.109225" y="141.409852" style="fill: #0db14b; stroke: #0db14b"/>
     <use xlink:href="#md163d1c409" x="290.50722" y="141.434341" style="fill: #0db14b; stroke: #0db14b"/>
     <use xlink:href="#md163d1c409" x="291.905216" y="141.255593" style="fill: #0db14b; stroke: #0db14b"/>
     <use xlink:href="#md163d1c409" x="293.303212" y="141.096966" style="fill: #0db14b; stroke: #0db14b"/>
     <use xlink:href="#md163d1c409" x="294.701207" y="140.806001" style="fill: #0db14b; stroke: #0db14b"/>
     <use xlink:href="#md163d1c409" x="296.099203" y="141.57459" style="fill: #0db14b; stroke: #0db14b"/>
     <use xlink:href="#md163d1c409" x="297.497199" y="136.432239" style="fill: #0db14b; stroke: #0db14b"/>
     <use xlink:href="#md163d1c409" x="298.895195" y="141.362463" style="fill: #0db14b; stroke: #0db14b"/>
     <use xlink:href="#md163d1c409" x="300.29319" y="141.062931" style="fill: #0db14b; stroke: #0db14b"/>
     <use xlink:href="#md163d1c409" x="301.691186" y="140.8036" style="fill: #0db14b; stroke: #0db14b"/>
     <use xlink:href="#md163d1c409" x="303.089182" y="143.310296" style="fill: #0db14b; stroke: #0db14b"/>
     <use xlink:href="#md163d1c409" x="304.487177" y="140.983503" style="fill: #0db14b; stroke: #0db14b"/>
     <use xlink:href="#md163d1c409" x="305.885173" y="142.929935" style="fill: #0db14b; stroke: #0db14b"/>
     <use xlink:href="#md163d1c409" x="307.283169" y="142.974362" style="fill: #0db14b; stroke: #0db14b"/>
     <use xlink:href="#md163d1c409" x="308.681165" y="142.7148" style="fill: #0db14b; stroke: #0db14b"/>
     <use xlink:href="#md163d1c409" x="310.07916" y="142.983957" style="fill: #0db14b; stroke: #0db14b"/>
     <use xlink:href="#md163d1c409" x="311.477156" y="143.003632" style="fill: #0db14b; stroke: #0db14b"/>
     <use xlink:href="#md163d1c409" x="312.875152" y="143.500671" style="fill: #0db14b; stroke: #0db14b"/>
     <use xlink:href="#md163d1c409" x="314.273147" y="143.702405" style="fill: #0db14b; stroke: #0db14b"/>
     <use xlink:href="#md163d1c409" x="315.671143" y="140.476963" style="fill: #0db14b; stroke: #0db14b"/>
     <use xlink:href="#md163d1c409" x="317.069139" y="140.13936" style="fill: #0db14b; stroke: #0db14b"/>
     <use xlink:href="#md163d1c409" x="318.467134" y="140.814122" style="fill: #0db14b; stroke: #0db14b"/>
     <use xlink:href="#md163d1c409" x="319.86513" y="144.136889" style="fill: #0db14b; stroke: #0db14b"/>
     <use xlink:href="#md163d1c409" x="321.263126" y="144.481142" style="fill: #0db14b; stroke: #0db14b"/>
     <use xlink:href="#md163d1c409" x="322.661122" y="141.354693" style="fill: #0db14b; stroke: #0db14b"/>
     <use xlink:href="#md163d1c409" x="324.059117" y="141.512351" style="fill: #0db14b; stroke: #0db14b"/>
     <use xlink:href="#md163d1c409" x="325.457113" y="142.457634" style="fill: #0db14b; stroke: #0db14b"/>
     <use xlink:href="#md163d1c409" x="326.855109" y="142.385882" style="fill: #0db14b; stroke: #0db14b"/>
     <use xlink:href="#md163d1c409" x="328.253104" y="142.380448" style="fill: #0db14b; stroke: #0db14b"/>
     <use xlink:href="#md163d1c409" x="329.6511" y="142.57515" style="fill: #0db14b; stroke: #0db14b"/>
     <use xlink:href="#md163d1c409" x="331.049096" y="144.516211" style="fill: #0db14b; stroke: #0db14b"/>
     <use xlink:href="#md163d1c409" x="332.447092" y="144.651797" style="fill: #0db14b; stroke: #0db14b"/>
     <use xlink:href="#md163d1c409" x="333.845087" y="141.862161" style="fill: #0db14b; stroke: #0db14b"/>
     <use xlink:href="#md163d1c409" x="335.243083" y="142.131626" style="fill: #0db14b; stroke: #0db14b"/>
     <use xlink:href="#md163d1c409" x="336.641079" y="142.179552" style="fill: #0db14b; stroke: #0db14b"/>
     <use xlink:href="#md163d1c409" x="338.039074" y="144.414732" style="fill: #0db14b; stroke: #0db14b"/>
     <use xlink:href="#md163d1c409" x="339.43707" y="145.273609" style="fill: #0db14b; stroke: #0db14b"/>
     <use xlink:href="#md163d1c409" x="340.835066" y="144.829009" style="fill: #0db14b; stroke: #0db14b"/>
     <use xlink:href="#md163d1c409" x="342.233061" y="144.056719" style="fill: #0db14b; stroke: #0db14b"/>
     <use xlink:href="#md163d1c409" x="343.631057" y="144.068493" style="fill: #0db14b; stroke: #0db14b"/>
     <use xlink:href="#md163d1c409" x="345.029053" y="142.659712" style="fill: #0db14b; stroke: #0db14b"/>
     <use xlink:href="#md163d1c409" x="346.427049" y="143.447068" style="fill: #0db14b; stroke: #0db14b"/>
     <use xlink:href="#md163d1c409" x="347.825044" y="143.370389" style="fill: #0db14b; stroke: #0db14b"/>
     <use xlink:href="#md163d1c409" x="349.22304" y="143.305366" style="fill: #0db14b; stroke: #0db14b"/>
     <use xlink:href="#md163d1c409" x="350.621036" y="143.398303" style="fill: #0db14b; stroke: #0db14b"/>
     <use xlink:href="#md163d1c409" x="352.019031" y="141.746626" style="fill: #0db14b; stroke: #0db14b"/>
     <use xlink:href="#md163d1c409" x="353.417027" y="137.800784" style="fill: #0db14b; stroke: #0db14b"/>
     <use xlink:href="#md163d1c409" x="354.815023" y="138.01954" style="fill: #0db14b; stroke: #0db14b"/>
     <use xlink:href="#md163d1c409" x="356.213019" y="137.335697" style="fill: #0db14b; stroke: #0db14b"/>
     <use xlink:href="#md163d1c409" x="357.611014" y="136.218447" style="fill: #0db14b; stroke: #0db14b"/>
     <use xlink:href="#md163d1c409" x="359.00901" y="136.469082" style="fill: #0db14b; stroke: #0db14b"/>
     <use xlink:href="#md163d1c409" x="360.407006" y="134.450275" style="fill: #0db14b; stroke: #0db14b"/>
     <use xlink:href="#md163d1c409" x="361.805001" y="129.162341" style="fill: #0db14b; stroke: #0db14b"/>
     <use xlink:href="#md163d1c409" x="363.202997" y="123.250124" style="fill: #0db14b; stroke: #0db14b"/>
     <use xlink:href="#md163d1c409" x="364.600993" y="122.291859" style="fill: #0db14b; stroke: #0db14b"/>
     <use xlink:href="#md163d1c409" x="365.998988" y="121.937949" style="fill: #0db14b; stroke: #0db14b"/>
     <use xlink:href="#md163d1c409" x="367.396984" y="117.594486" style="fill: #0db14b; stroke: #0db14b"/>
     <use xlink:href="#md163d1c409" x="368.79498" y="116.682606" style="fill: #0db14b; stroke: #0db14b"/>
     <use xlink:href="#md163d1c409" x="370.192976" y="114.835818" style="fill: #0db14b; stroke: #0db14b"/>
     <use xlink:href="#md163d1c409" x="371.590971" y="112.396507" style="fill: #0db14b; stroke: #0db14b"/>
     <use xlink:href="#md163d1c409" x="372.988967" y="106.448889" style="fill: #0db14b; stroke: #0db14b"/>
     <use xlink:href="#md163d1c409" x="374.386963" y="102.051723" style="fill: #0db14b; stroke: #0db14b"/>
     <use xlink:href="#md163d1c409" x="375.784958" y="102.238483" style="fill: #0db14b; stroke: #0db14b"/>
     <use xlink:href="#md163d1c409" x="377.182954" y="99.753418" style="fill: #0db14b; stroke: #0db14b"/>
     <use xlink:href="#md163d1c409" x="378.58095" y="96.230868" style="fill: #0db14b; stroke: #0db14b"/>
     <use xlink:href="#md163d1c409" x="379.978946" y="93.326415" style="fill: #0db14b; stroke: #0db14b"/>
     <use xlink:href="#md163d1c409" x="381.376941" y="83.41604" style="fill: #0db14b; stroke: #0db14b"/>
     <use xlink:href="#md163d1c409" x="382.774937" y="77.497562" style="fill: #0db14b; stroke: #0db14b"/>
     <use xlink:href="#md163d1c409" x="384.172933" y="61.86492" style="fill: #0db14b; stroke: #0db14b"/>
     <use xlink:href="#md163d1c409" x="385.570928" y="66.723997" style="fill: #0db14b; stroke: #0db14b"/>
     <use xlink:href="#md163d1c409" x="386.968924" y="53.439661" style="fill: #0db14b; stroke: #0db14b"/>
     <use xlink:href="#md163d1c409" x="388.36692" y="50.886269" style="fill: #0db14b; stroke: #0db14b"/>
     <use xlink:href="#md163d1c409" x="389.764915" y="47.80563" style="fill: #0db14b; stroke: #0db14b"/>
     <use xlink:href="#md163d1c409" x="391.162911" y="47.363157" style="fill: #0db14b; stroke: #0db14b"/>
     <use xlink:href="#md163d1c409" x="392.560907" y="45.614087" style="fill: #0db14b; stroke: #0db14b"/>
     <use xlink:href="#md163d1c409" x="393.958903" y="36.913155" style="fill: #0db14b; stroke: #0db14b"/>
     <use xlink:href="#md163d1c409" x="395.356898" y="42.765218" style="fill: #0db14b; stroke: #0db14b"/>
     <use xlink:href="#md163d1c409" x="396.754894" y="33.556027" style="fill: #0db14b; stroke: #0db14b"/>
     <use xlink:href="#md163d1c409" x="398.15289" y="33.981086" style="fill: #0db14b; stroke: #0db14b"/>
     <use xlink:href="#md163d1c409" x="399.550885" y="25.516167" style="fill: #0db14b; stroke: #0db14b"/>
     <use xlink:href="#md163d1c409" x="400.948881" y="24.891825" style="fill: #0db14b; stroke: #0db14b"/>
     <use xlink:href="#md163d1c409" x="402.346877" y="25.262362" style="fill: #0db14b; stroke: #0db14b"/>
     <use xlink:href="#md163d1c409" x="403.744872" y="26.461046" style="fill: #0db14b; stroke: #0db14b"/>
     <use xlink:href="#md163d1c409" x="405.142868" y="18.340101" style="fill: #0db14b; stroke: #0db14b"/>
     <use xlink:href="#md163d1c409" x="406.540864" y="15.295541" style="fill: #0db14b; stroke: #0db14b"/>
     <use xlink:href="#md163d1c409" x="407.93886" y="18.114312" style="fill: #0db14b; stroke: #0db14b"/>
     <use xlink:href="#md163d1c409" x="409.336855" y="17.129298" style="fill: #0db14b; stroke: #0db14b"/>
     <use xlink:href="#md163d1c409" x="410.734851" y="17.715889" style="fill: #0db14b; stroke: #0db14b"/>
     <use xlink:href="#md163d1c409" x="412.132847" y="15.089693" style="fill: #0db14b; stroke: #0db14b"/>
     <use xlink:href="#md163d1c409" x="413.530842" y="19.246145" style="fill: #0db14b; stroke: #0db14b"/>
     <use xlink:href="#md163d1c409" x="414.928838" y="44.415108" style="fill: #0db14b; stroke: #0db14b"/>
     <use xlink:href="#md163d1c409" x="416.326834" y="31.543036" style="fill: #0db14b; stroke: #0db14b"/>
     <use xlink:href="#md163d1c409" x="417.72483" y="31.518953" style="fill: #0db14b; stroke: #0db14b"/>
    </g>
   </g>
   <g id="line2d_24">
    <path d="M 62.63392 160.343845 
L 64.031916 159.571385 
L 65.429912 159.00447 
L 66.827908 159.787781 
L 69.623899 158.352352 
L 72.41989 157.035348 
L 75.215882 156.907173 
L 78.011873 156.313134 
L 79.409869 156.998509 
L 80.807865 154.751216 
L 82.20586 153.685716 
L 83.603856 152.384468 
L 85.001852 151.300921 
L 86.399847 147.931501 
L 89.195839 146.167473 
L 90.593835 146.130297 
L 91.99183 142.978906 
L 93.389826 142.45182 
L 94.787822 144.85399 
L 96.185817 143.699149 
L 97.583813 141.77662 
L 98.981809 137.429233 
L 101.7778 140.316482 
L 103.175796 138.731629 
L 104.573792 138.714607 
L 107.369783 135.913136 
L 110.165774 129.12924 
L 111.56377 133.103308 
L 112.961766 129.761928 
L 114.359762 120.908919 
L 115.757757 121.808262 
L 117.155753 121.644992 
L 118.553749 123.296577 
L 119.951744 125.1235 
L 121.34974 125.657667 
L 122.747736 124.866027 
L 124.145731 125.01381 
L 125.543727 127.169404 
L 126.941723 127.305194 
L 128.339719 128.904808 
L 129.737714 129.05198 
L 131.13571 128.653201 
L 132.533706 127.445386 
L 133.931701 126.675833 
L 135.329697 124.753082 
L 136.727693 124.178723 
L 138.125689 122.536706 
L 139.523684 118.051204 
L 140.92168 117.347915 
L 142.319676 117.853865 
L 143.717671 115.507977 
L 145.115667 114.698853 
L 146.513663 116.127625 
L 147.911658 114.41674 
L 149.309654 105.534921 
L 150.70765 114.462085 
L 152.105646 114.026035 
L 153.503641 112.948067 
L 154.901637 112.697577 
L 156.299633 109.271338 
L 157.697628 107.714122 
L 159.095624 107.553165 
L 160.49362 108.436282 
L 161.891616 106.255406 
L 163.289611 106.534096 
L 164.687607 102.321243 
L 166.085603 103.595467 
L 167.483598 103.912348 
L 168.881594 106.288116 
L 170.27959 101.131007 
L 173.075581 99.906337 
L 174.473577 98.169776 
L 175.871573 97.399873 
L 177.269568 97.909404 
L 178.667564 92.798911 
L 180.06556 96.705681 
L 181.463555 92.267083 
L 182.861551 91.695735 
L 184.259547 92.198814 
L 185.657543 88.130544 
L 187.055538 87.49431 
L 188.453534 82.846204 
L 189.85153 88.596034 
L 192.647521 73.614072 
L 194.045517 69.552561 
L 195.443512 67.231215 
L 196.841508 64.061124 
L 198.239504 62.536467 
L 199.6375 70.327254 
L 201.035495 63.588193 
L 202.433491 61.208897 
L 203.831487 63.77217 
L 205.229482 67.222426 
L 206.627478 65.989317 
L 208.025474 69.060568 
L 209.423469 69.185523 
L 210.821465 68.738115 
L 212.219461 72.591658 
L 213.617457 77.889634 
L 215.015452 79.021044 
L 216.413448 76.703945 
L 217.811444 76.276518 
L 219.209439 73.271956 
L 220.607435 76.549314 
L 222.005431 77.735888 
L 223.403427 77.111245 
L 224.801422 76.220102 
L 226.199418 77.47237 
L 227.597414 79.114023 
L 228.995409 80.433751 
L 230.393405 83.192651 
L 233.189396 81.556287 
L 234.587392 83.322556 
L 235.985388 88.860637 
L 237.383384 93.600113 
L 238.781379 94.235789 
L 240.179375 97.110307 
L 241.577371 98.457719 
L 244.373362 103.89038 
L 245.771358 107.044285 
L 247.169354 109.409367 
L 248.567349 108.974448 
L 251.363341 117.016479 
L 252.761336 118.997572 
L 254.159332 124.141713 
L 255.557328 125.38789 
L 256.955323 124.745006 
L 258.353319 124.550065 
L 259.751315 127.726647 
L 261.149311 129.583787 
L 262.547306 130.291323 
L 263.945302 134.734365 
L 265.343298 135.763986 
L 266.741293 136.391223 
L 268.139289 136.737396 
L 269.537285 136.537787 
L 270.935281 137.720616 
L 272.333276 137.72441 
L 273.731272 136.319808 
L 275.129268 137.536182 
L 276.527263 140.679502 
L 277.925259 141.420946 
L 279.323255 140.268653 
L 280.72125 141.472049 
L 282.119246 142.213733 
L 283.517242 140.066509 
L 284.915238 140.697029 
L 286.313233 141.632396 
L 287.711229 142.016193 
L 289.109225 142.949488 
L 291.905216 143.746812 
L 293.303212 143.714838 
L 294.701207 143.524967 
L 296.099203 143.779192 
L 297.497199 143.314219 
L 298.895195 144.932964 
L 301.691186 144.233065 
L 303.089182 144.760627 
L 304.487177 144.343455 
L 305.885173 145.228464 
L 307.283169 144.66663 
L 310.07916 145.081991 
L 311.477156 145.685419 
L 312.875152 145.453133 
L 314.273147 146.048206 
L 315.671143 145.728645 
L 317.069139 145.264192 
L 318.467134 145.522252 
L 321.263126 147.394366 
L 324.059117 147.93516 
L 326.855109 147.015155 
L 328.253104 148.335687 
L 329.6511 148.11023 
L 331.049096 148.957086 
L 332.447092 149.576045 
L 333.845087 148.766123 
L 335.243083 149.286011 
L 336.641079 149.005901 
L 338.039074 149.152249 
L 339.43707 148.162043 
L 340.835066 147.722958 
L 342.233061 147.146405 
L 343.631057 147.328763 
L 345.029053 145.914627 
L 346.427049 146.227443 
L 347.825044 144.526772 
L 349.22304 144.139545 
L 350.621036 143.142213 
L 352.019031 142.941476 
L 353.417027 142.365715 
L 354.815023 139.941601 
L 356.213019 139.758484 
L 357.611014 138.774918 
L 359.00901 138.507378 
L 360.407006 135.557882 
L 361.805001 133.579205 
L 363.202997 130.271238 
L 364.600993 129.115431 
L 365.998988 127.586043 
L 367.396984 124.737022 
L 368.79498 120.939027 
L 370.192976 115.503901 
L 371.590971 112.125969 
L 372.988967 105.922824 
L 374.386963 104.082152 
L 375.784958 103.649196 
L 377.182954 95.854509 
L 378.58095 90.701958 
L 379.978946 86.696915 
L 381.376941 80.502574 
L 384.172933 70.027647 
L 385.570928 72.182622 
L 386.968924 64.008214 
L 388.36692 57.988779 
L 389.764915 53.024416 
L 391.162911 49.318048 
L 392.560907 48.806988 
L 393.958903 40.680073 
L 395.356898 43.145063 
L 396.754894 35.268836 
L 398.15289 33.904923 
L 399.550885 28.445935 
L 400.948881 28.832947 
L 402.346877 27.306066 
L 403.744872 27.197255 
L 405.142868 27.447644 
L 406.540864 21.648685 
L 407.93886 23.930249 
L 409.336855 23.362436 
L 410.734851 22.466787 
L 412.132847 19.406121 
L 413.530842 24.4394 
L 414.928838 47.244845 
L 416.326834 32.589904 
L 417.72483 31.449597 
L 417.72483 31.449597 
" clip-path="url(#p0657f60773)" style="fill: none; stroke-dasharray: 5.55,2.4; stroke-dashoffset: 0; stroke: #000000; stroke-width: 1.5"/>
   </g>
   <g id="patch_3">
    <path d="M 44.879375 167.903845 
L 44.879375 1.583845 
" style="fill: none; stroke: #ffffff; stroke-linejoin: miter; stroke-linecap: square"/>
   </g>
   <g id="patch_4">
    <path d="M 435.479375 167.903845 
L 435.479375 1.583845 
" style="fill: none; stroke: #ffffff; stroke-linejoin: miter; stroke-linecap: square"/>
   </g>
   <g id="patch_5">
    <path d="M 44.879375 167.903845 
L 435.479375 167.903845 
" style="fill: none; stroke: #ffffff; stroke-linejoin: miter; stroke-linecap: square"/>
   </g>
   <g id="patch_6">
    <path d="M 44.879375 1.583845 
L 435.479375 1.583845 
" style="fill: none; stroke: #ffffff; stroke-linejoin: miter; stroke-linecap: square"/>
   </g>
   <g id="legend_1">
    <g id="patch_7">
     <path d="M 51.879375 61.96197 
L 203.92625 61.96197 
Q 205.92625 61.96197 205.92625 59.96197 
L 205.92625 8.583845 
Q 205.92625 6.583845 203.92625 6.583845 
L 51.879375 6.583845 
Q 49.879375 6.583845 49.879375 8.583845 
L 49.879375 59.96197 
Q 49.879375 61.96197 51.879375 61.96197 
z
" style="fill: #e5e5e5; opacity: 0.8; stroke: #cccccc; stroke-width: 0.5; stroke-linejoin: miter"/>
    </g>
    <g id="line2d_25">
     <path d="M 53.879375 17.083845 
L 63.879375 17.083845 
L 73.879375 17.083845 
" style="fill: none; stroke: #0db14b; stroke-width: 3; stroke-linecap: square"/>
     <g>
      <use xlink:href="#md163d1c409" x="63.879375" y="17.083845" style="fill: #0db14b; stroke: #0db14b"/>
     </g>
    </g>
    <g id="text_14">
     <!-- Private Value $\tilde{R}_{\chi_2,\chi_1}^t$ -->
     <g transform="translate(81.879375 20.583845) scale(0.1 -0.1)">
      <defs>
       <path id="DejaVuSans-50" d="M 1259 4147 
L 1259 2394 
L 2053 2394 
Q 2494 2394 2734 2622 
Q 2975 2850 2975 3272 
Q 2975 3691 2734 3919 
Q 2494 4147 2053 4147 
L 1259 4147 
z
M 628 4666 
L 2053 4666 
Q 2838 4666 3239 4311 
Q 3641 3956 3641 3272 
Q 3641 2581 3239 2228 
Q 2838 1875 2053 1875 
L 1259 1875 
L 1259 0 
L 628 0 
L 628 4666 
z
" transform="scale(0.015625)"/>
       <path id="DejaVuSans-72" d="M 2631 2963 
Q 2534 3019 2420 3045 
Q 2306 3072 2169 3072 
Q 1681 3072 1420 2755 
Q 1159 2438 1159 1844 
L 1159 0 
L 581 0 
L 581 3500 
L 1159 3500 
L 1159 2956 
Q 1341 3275 1631 3429 
Q 1922 3584 2338 3584 
Q 2397 3584 2469 3576 
Q 2541 3569 2628 3553 
L 2631 2963 
z
" transform="scale(0.015625)"/>
       <path id="DejaVuSans-69" d="M 603 3500 
L 1178 3500 
L 1178 0 
L 603 0 
L 603 3500 
z
M 603 4863 
L 1178 4863 
L 1178 4134 
L 603 4134 
L 603 4863 
z
" transform="scale(0.015625)"/>
       <path id="DejaVuSans-76" d="M 191 3500 
L 800 3500 
L 1894 563 
L 2988 3500 
L 3597 3500 
L 2284 0 
L 1503 0 
L 191 3500 
z
" transform="scale(0.015625)"/>
       <path id="DejaVuSans-20" transform="scale(0.015625)"/>
       <path id="DejaVuSans-303" d="M -1621 4281 
L -1799 4453 
Q -1867 4516 -1919 4545 
Q -1971 4575 -2011 4575 
Q -2130 4575 -2186 4461 
Q -2242 4347 -2249 4091 
L -2639 4091 
Q -2633 4513 -2473 4742 
Q -2314 4972 -2030 4972 
Q -1911 4972 -1811 4928 
Q -1711 4884 -1596 4781 
L -1417 4609 
Q -1349 4547 -1297 4517 
Q -1246 4488 -1205 4488 
Q -1086 4488 -1030 4602 
Q -974 4716 -967 4972 
L -577 4972 
Q -583 4550 -742 4320 
Q -902 4091 -1186 4091 
Q -1305 4091 -1405 4134 
Q -1505 4178 -1621 4281 
z
" transform="scale(0.015625)"/>
       <path id="DejaVuSans-Oblique-52" d="M 1613 4147 
L 1294 2491 
L 2106 2491 
Q 2584 2491 2879 2755 
Q 3175 3019 3175 3444 
Q 3175 3784 2976 3965 
Q 2778 4147 2406 4147 
L 1613 4147 
z
M 2772 2241 
Q 2972 2194 3105 2009 
Q 3238 1825 3413 1275 
L 3809 0 
L 3144 0 
L 2778 1197 
Q 2638 1659 2453 1815 
Q 2269 1972 1888 1972 
L 1191 1972 
L 806 0 
L 172 0 
L 1081 4666 
L 2503 4666 
Q 3150 4666 3495 4373 
Q 3841 4081 3841 3531 
Q 3841 3044 3547 2687 
Q 3253 2331 2772 2241 
z
" transform="scale(0.015625)"/>
       <path id="DejaVuSans-Oblique-74" d="M 2706 3500 
L 2619 3053 
L 1472 3053 
L 1100 1153 
Q 1081 1047 1072 975 
Q 1063 903 1063 863 
Q 1063 663 1183 572 
Q 1303 481 1569 481 
L 2150 481 
L 2053 0 
L 1503 0 
Q 991 0 739 200 
Q 488 400 488 806 
Q 488 878 497 964 
Q 506 1050 525 1153 
L 897 3053 
L 409 3053 
L 500 3500 
L 978 3500 
L 1172 4494 
L 1747 4494 
L 1556 3500 
L 2706 3500 
z
" transform="scale(0.015625)"/>
       <path id="DejaVuSans-Oblique-3c7" d="M 1922 -781 
L 1691 416 
L 394 -1334 
L -284 -1334 
L 1553 1141 
L 1269 2613 
Q 1194 3006 713 3006 
L 559 3006 
L 653 3500 
L 872 3494 
Q 1675 3472 1775 2950 
L 2006 1753 
L 3303 3503 
L 3981 3503 
L 2144 1028 
L 2428 -444 
Q 2503 -838 2984 -838 
L 3138 -838 
L 3044 -1331 
L 2825 -1325 
Q 2022 -1303 1922 -781 
z
" transform="scale(0.015625)"/>
       <path id="DejaVuSans-2c" d="M 750 794 
L 1409 794 
L 1409 256 
L 897 -744 
L 494 -744 
L 750 256 
L 750 794 
z
" transform="scale(0.015625)"/>
      </defs>
      <use xlink:href="#DejaVuSans-50" transform="translate(0 0.828125)"/>
      <use xlink:href="#DejaVuSans-72" transform="translate(60.302734 0.828125)"/>
      <use xlink:href="#DejaVuSans-69" transform="translate(101.416016 0.828125)"/>
      <use xlink:href="#DejaVuSans-76" transform="translate(129.199219 0.828125)"/>
      <use xlink:href="#DejaVuSans-61" transform="translate(188.378906 0.828125)"/>
      <use xlink:href="#DejaVuSans-74" transform="translate(249.658203 0.828125)"/>
      <use xlink:href="#DejaVuSans-65" transform="translate(288.867188 0.828125)"/>
      <use xlink:href="#DejaVuSans-20" transform="translate(350.390625 0.828125)"/>
      <use xlink:href="#DejaVuSans-56" transform="translate(382.177734 0.828125)"/>
      <use xlink:href="#DejaVuSans-61" transform="translate(450.585938 0.828125)"/>
      <use xlink:href="#DejaVuSans-6c" transform="translate(511.865234 0.828125)"/>
      <use xlink:href="#DejaVuSans-75" transform="translate(539.648438 0.828125)"/>
      <use xlink:href="#DejaVuSans-65" transform="translate(603.027344 0.828125)"/>
      <use xlink:href="#DejaVuSans-20" transform="translate(664.550781 0.828125)"/>
      <use xlink:href="#DejaVuSans-303" transform="translate(764.942871 22.3125)"/>
      <use xlink:href="#DejaVuSans-Oblique-52" transform="translate(696.337891 0.828125)"/>
      <use xlink:href="#DejaVuSans-Oblique-74" transform="translate(766.777344 39.109375) scale(0.7)"/>
      <use xlink:href="#DejaVuSans-Oblique-3c7" transform="translate(766.777344 -26.515625) scale(0.7)"/>
      <use xlink:href="#DejaVuSans-32" transform="translate(808.203125 -38) scale(0.49)"/>
      <use xlink:href="#DejaVuSans-2c" transform="translate(841.29248 -26.515625) scale(0.7)"/>
      <use xlink:href="#DejaVuSans-Oblique-3c7" transform="translate(877.181152 -26.515625) scale(0.7)"/>
      <use xlink:href="#DejaVuSans-31" transform="translate(918.606934 -38) scale(0.49)"/>
     </g>
    </g>
    <g id="line2d_26">
     <path d="M 53.879375 35.583845 
L 63.879375 35.583845 
L 73.879375 35.583845 
" style="fill: none; stroke-dasharray: 5.55,2.4; stroke-dashoffset: 0; stroke: #000000; stroke-width: 1.5"/>
    </g>
    <g id="text_15">
     <!-- Original Value $\bar{R}_{\chi_2,\chi_1}^t$ -->
     <g transform="translate(81.879375 39.083845) scale(0.1 -0.1)">
      <defs>
       <path id="DejaVuSans-4f" d="M 2522 4238 
Q 1834 4238 1429 3725 
Q 1025 3213 1025 2328 
Q 1025 1447 1429 934 
Q 1834 422 2522 422 
Q 3209 422 3611 934 
Q 4013 1447 4013 2328 
Q 4013 3213 3611 3725 
Q 3209 4238 2522 4238 
z
M 2522 4750 
Q 3503 4750 4090 4092 
Q 4678 3434 4678 2328 
Q 4678 1225 4090 567 
Q 3503 -91 2522 -91 
Q 1538 -91 948 565 
Q 359 1222 359 2328 
Q 359 3434 948 4092 
Q 1538 4750 2522 4750 
z
" transform="scale(0.015625)"/>
       <path id="DejaVuSans-67" d="M 2906 1791 
Q 2906 2416 2648 2759 
Q 2391 3103 1925 3103 
Q 1463 3103 1205 2759 
Q 947 2416 947 1791 
Q 947 1169 1205 825 
Q 1463 481 1925 481 
Q 2391 481 2648 825 
Q 2906 1169 2906 1791 
z
M 3481 434 
Q 3481 -459 3084 -895 
Q 2688 -1331 1869 -1331 
Q 1566 -1331 1297 -1286 
Q 1028 -1241 775 -1147 
L 775 -588 
Q 1028 -725 1275 -790 
Q 1522 -856 1778 -856 
Q 2344 -856 2625 -561 
Q 2906 -266 2906 331 
L 2906 616 
Q 2728 306 2450 153 
Q 2172 0 1784 0 
Q 1141 0 747 490 
Q 353 981 353 1791 
Q 353 2603 747 3093 
Q 1141 3584 1784 3584 
Q 2172 3584 2450 3431 
Q 2728 3278 2906 2969 
L 2906 3500 
L 3481 3500 
L 3481 434 
z
" transform="scale(0.015625)"/>
       <path id="DejaVuSans-6e" d="M 3513 2113 
L 3513 0 
L 2938 0 
L 2938 2094 
Q 2938 2591 2744 2837 
Q 2550 3084 2163 3084 
Q 1697 3084 1428 2787 
Q 1159 2491 1159 1978 
L 1159 0 
L 581 0 
L 581 3500 
L 1159 3500 
L 1159 2956 
Q 1366 3272 1645 3428 
Q 1925 3584 2291 3584 
Q 2894 3584 3203 3211 
Q 3513 2838 3513 2113 
z
" transform="scale(0.015625)"/>
       <path id="DejaVuSans-304" d="M -2518 4769 
L -650 4769 
L -650 4306 
L -2518 4306 
L -2518 4769 
z
" transform="scale(0.015625)"/>
      </defs>
      <use xlink:href="#DejaVuSans-4f" transform="translate(0 0.359375)"/>
      <use xlink:href="#DejaVuSans-72" transform="translate(78.710938 0.359375)"/>
      <use xlink:href="#DejaVuSans-69" transform="translate(119.824219 0.359375)"/>
      <use xlink:href="#DejaVuSans-67" transform="translate(147.607422 0.359375)"/>
      <use xlink:href="#DejaVuSans-69" transform="translate(211.083984 0.359375)"/>
      <use xlink:href="#DejaVuSans-6e" transform="translate(238.867188 0.359375)"/>
      <use xlink:href="#DejaVuSans-61" transform="translate(302.246094 0.359375)"/>
      <use xlink:href="#DejaVuSans-6c" transform="translate(363.525391 0.359375)"/>
      <use xlink:href="#DejaVuSans-20" transform="translate(391.308594 0.359375)"/>
      <use xlink:href="#DejaVuSans-56" transform="translate(423.095703 0.359375)"/>
      <use xlink:href="#DejaVuSans-61" transform="translate(491.503906 0.359375)"/>
      <use xlink:href="#DejaVuSans-6c" transform="translate(552.783203 0.359375)"/>
      <use xlink:href="#DejaVuSans-75" transform="translate(580.566406 0.359375)"/>
      <use xlink:href="#DejaVuSans-65" transform="translate(643.945312 0.359375)"/>
      <use xlink:href="#DejaVuSans-20" transform="translate(705.46875 0.359375)"/>
      <use xlink:href="#DejaVuSans-304" transform="translate(804.970215 18.484375)"/>
      <use xlink:href="#DejaVuSans-Oblique-52" transform="translate(737.255859 0.359375)"/>
      <use xlink:href="#DejaVuSans-Oblique-74" transform="translate(807.695312 38.640625) scale(0.7)"/>
      <use xlink:href="#DejaVuSans-Oblique-3c7" transform="translate(807.695312 -26.984375) scale(0.7)"/>
      <use xlink:href="#DejaVuSans-32" transform="translate(849.121094 -38.46875) scale(0.49)"/>
      <use xlink:href="#DejaVuSans-2c" transform="translate(882.210449 -26.984375) scale(0.7)"/>
      <use xlink:href="#DejaVuSans-Oblique-3c7" transform="translate(918.099121 -26.984375) scale(0.7)"/>
      <use xlink:href="#DejaVuSans-31" transform="translate(959.524902 -38.46875) scale(0.49)"/>
     </g>
    </g>
    <g id="patch_8">
     <path d="M 53.879375 55.882283 
L 73.879375 55.882283 
L 73.879375 48.882283 
L 53.879375 48.882283 
z
" style="fill: #0db14b; fill-opacity: 0.5; stroke: #0db14b; stroke-opacity: 0.5; stroke-width: 0.5; stroke-linejoin: miter"/>
    </g>
    <g id="text_16">
     <!-- One Standard Deviation -->
     <g transform="translate(81.879375 55.882283) scale(0.1 -0.1)">
      <defs>
       <path id="DejaVuSans-53" d="M 3425 4513 
L 3425 3897 
Q 3066 4069 2747 4153 
Q 2428 4238 2131 4238 
Q 1616 4238 1336 4038 
Q 1056 3838 1056 3469 
Q 1056 3159 1242 3001 
Q 1428 2844 1947 2747 
L 2328 2669 
Q 3034 2534 3370 2195 
Q 3706 1856 3706 1288 
Q 3706 609 3251 259 
Q 2797 -91 1919 -91 
Q 1588 -91 1214 -16 
Q 841 59 441 206 
L 441 856 
Q 825 641 1194 531 
Q 1563 422 1919 422 
Q 2459 422 2753 634 
Q 3047 847 3047 1241 
Q 3047 1584 2836 1778 
Q 2625 1972 2144 2069 
L 1759 2144 
Q 1053 2284 737 2584 
Q 422 2884 422 3419 
Q 422 4038 858 4394 
Q 1294 4750 2059 4750 
Q 2388 4750 2728 4690 
Q 3069 4631 3425 4513 
z
" transform="scale(0.015625)"/>
       <path id="DejaVuSans-64" d="M 2906 2969 
L 2906 4863 
L 3481 4863 
L 3481 0 
L 2906 0 
L 2906 525 
Q 2725 213 2448 61 
Q 2172 -91 1784 -91 
Q 1150 -91 751 415 
Q 353 922 353 1747 
Q 353 2572 751 3078 
Q 1150 3584 1784 3584 
Q 2172 3584 2448 3432 
Q 2725 3281 2906 2969 
z
M 947 1747 
Q 947 1113 1208 752 
Q 1469 391 1925 391 
Q 2381 391 2643 752 
Q 2906 1113 2906 1747 
Q 2906 2381 2643 2742 
Q 2381 3103 1925 3103 
Q 1469 3103 1208 2742 
Q 947 2381 947 1747 
z
" transform="scale(0.015625)"/>
       <path id="DejaVuSans-6f" d="M 1959 3097 
Q 1497 3097 1228 2736 
Q 959 2375 959 1747 
Q 959 1119 1226 758 
Q 1494 397 1959 397 
Q 2419 397 2687 759 
Q 2956 1122 2956 1747 
Q 2956 2369 2687 2733 
Q 2419 3097 1959 3097 
z
M 1959 3584 
Q 2709 3584 3137 3096 
Q 3566 2609 3566 1747 
Q 3566 888 3137 398 
Q 2709 -91 1959 -91 
Q 1206 -91 779 398 
Q 353 888 353 1747 
Q 353 2609 779 3096 
Q 1206 3584 1959 3584 
z
" transform="scale(0.015625)"/>
      </defs>
      <use xlink:href="#DejaVuSans-4f"/>
      <use xlink:href="#DejaVuSans-6e" x="78.710938"/>
      <use xlink:href="#DejaVuSans-65" x="142.089844"/>
      <use xlink:href="#DejaVuSans-20" x="203.613281"/>
      <use xlink:href="#DejaVuSans-53" x="235.400391"/>
      <use xlink:href="#DejaVuSans-74" x="298.876953"/>
      <use xlink:href="#DejaVuSans-61" x="338.085938"/>
      <use xlink:href="#DejaVuSans-6e" x="399.365234"/>
      <use xlink:href="#DejaVuSans-64" x="462.744141"/>
      <use xlink:href="#DejaVuSans-61" x="526.220703"/>
      <use xlink:href="#DejaVuSans-72" x="587.5"/>
      <use xlink:href="#DejaVuSans-64" x="626.863281"/>
      <use xlink:href="#DejaVuSans-20" x="690.339844"/>
      <use xlink:href="#DejaVuSans-44" x="722.126953"/>
      <use xlink:href="#DejaVuSans-65" x="799.128906"/>
      <use xlink:href="#DejaVuSans-76" x="860.652344"/>
      <use xlink:href="#DejaVuSans-69" x="919.832031"/>
      <use xlink:href="#DejaVuSans-61" x="947.615234"/>
      <use xlink:href="#DejaVuSans-74" x="1008.894531"/>
      <use xlink:href="#DejaVuSans-69" x="1048.103516"/>
      <use xlink:href="#DejaVuSans-6f" x="1075.886719"/>
      <use xlink:href="#DejaVuSans-6e" x="1137.068359"/>
     </g>
    </g>
   </g>
  </g>
 </g>
 <defs>
  <clipPath id="p0657f60773">
   <rect x="44.879375" y="1.583845" width="390.6" height="166.32"/>
  </clipPath>
 </defs>
</svg>
