<?xml version="1.0" encoding="utf-8" standalone="no"?>
<!DOCTYPE svg PUBLIC "-//W3C//DTD SVG 1.1//EN"
  "http://www.w3.org/Graphics/SVG/1.1/DTD/svg11.dtd">
<svg xmlns:xlink="http://www.w3.org/1999/xlink" width="444.375067pt" height="198.611875pt" viewBox="0 0 444.375067 198.611875" xmlns="http://www.w3.org/2000/svg" version="1.1">
 <metadata>
  <rdf:RDF xmlns:dc="http://purl.org/dc/elements/1.1/" xmlns:cc="http://creativecommons.org/ns#" xmlns:rdf="http://www.w3.org/1999/02/22-rdf-syntax-ns#">
   <cc:Work>
    <dc:type rdf:resource="http://purl.org/dc/dcmitype/StillImage"/>
    <dc:date>2024-09-18T15:47:43.474771</dc:date>
    <dc:format>image/svg+xml</dc:format>
    <dc:creator>
     <cc:Agent>
      <dc:title>Matplotlib v3.7.5, https://matplotlib.org/</dc:title>
     </cc:Agent>
    </dc:creator>
   </cc:Work>
  </rdf:RDF>
 </metadata>
 <defs>
  <style type="text/css">*{stroke-linejoin: round; stroke-linecap: butt}</style>
 </defs>
 <g id="figure_1">
  <g id="patch_1">
   <path d="M 0 198.611875 
L 444.375067 198.611875 
L 444.375067 0 
L 0 0 
z
" style="fill: #ffffff"/>
  </g>
  <g id="axes_1">
   <g id="patch_2">
    <path d="M 44.879375 166.32 
L 435.479375 166.32 
L 435.479375 0 
L 44.879375 0 
z
" style="fill: #e5e5e5"/>
   </g>
   <g id="matplotlib.axis_1">
    <g id="xtick_1">
     <g id="line2d_1">
      <path d="M 72.41989 166.32 
L 72.41989 0 
" clip-path="url(#p85624195f4)" style="fill: none; stroke: #ffffff; stroke-width: 0.8; stroke-linecap: square"/>
     </g>
     <g id="line2d_2">
      <defs>
       <path id="m546e4bc6f1" d="M 0 0 
L 0 3.5 
" style="stroke: #555555; stroke-width: 0.8"/>
      </defs>
      <g>
       <use xlink:href="#m546e4bc6f1" x="72.41989" y="166.32" style="fill: #555555; stroke: #555555; stroke-width: 0.8"/>
      </g>
     </g>
     <g id="text_1">
      <!-- 08/16/20 -->
      <g style="fill: #555555" transform="translate(49.96364 180.918438) scale(0.1 -0.1)">
       <defs>
        <path id="DejaVuSans-30" d="M 2034 4250 
Q 1547 4250 1301 3770 
Q 1056 3291 1056 2328 
Q 1056 1369 1301 889 
Q 1547 409 2034 409 
Q 2525 409 2770 889 
Q 3016 1369 3016 2328 
Q 3016 3291 2770 3770 
Q 2525 4250 2034 4250 
z
M 2034 4750 
Q 2819 4750 3233 4129 
Q 3647 3509 3647 2328 
Q 3647 1150 3233 529 
Q 2819 -91 2034 -91 
Q 1250 -91 836 529 
Q 422 1150 422 2328 
Q 422 3509 836 4129 
Q 1250 4750 2034 4750 
z
" transform="scale(0.015625)"/>
        <path id="DejaVuSans-38" d="M 2034 2216 
Q 1584 2216 1326 1975 
Q 1069 1734 1069 1313 
Q 1069 891 1326 650 
Q 1584 409 2034 409 
Q 2484 409 2743 651 
Q 3003 894 3003 1313 
Q 3003 1734 2745 1975 
Q 2488 2216 2034 2216 
z
M 1403 2484 
Q 997 2584 770 2862 
Q 544 3141 544 3541 
Q 544 4100 942 4425 
Q 1341 4750 2034 4750 
Q 2731 4750 3128 4425 
Q 3525 4100 3525 3541 
Q 3525 3141 3298 2862 
Q 3072 2584 2669 2484 
Q 3125 2378 3379 2068 
Q 3634 1759 3634 1313 
Q 3634 634 3220 271 
Q 2806 -91 2034 -91 
Q 1263 -91 848 271 
Q 434 634 434 1313 
Q 434 1759 690 2068 
Q 947 2378 1403 2484 
z
M 1172 3481 
Q 1172 3119 1398 2916 
Q 1625 2713 2034 2713 
Q 2441 2713 2670 2916 
Q 2900 3119 2900 3481 
Q 2900 3844 2670 4047 
Q 2441 4250 2034 4250 
Q 1625 4250 1398 4047 
Q 1172 3844 1172 3481 
z
" transform="scale(0.015625)"/>
        <path id="DejaVuSans-2f" d="M 1625 4666 
L 2156 4666 
L 531 -594 
L 0 -594 
L 1625 4666 
z
" transform="scale(0.015625)"/>
        <path id="DejaVuSans-31" d="M 794 531 
L 1825 531 
L 1825 4091 
L 703 3866 
L 703 4441 
L 1819 4666 
L 2450 4666 
L 2450 531 
L 3481 531 
L 3481 0 
L 794 0 
L 794 531 
z
" transform="scale(0.015625)"/>
        <path id="DejaVuSans-36" d="M 2113 2584 
Q 1688 2584 1439 2293 
Q 1191 2003 1191 1497 
Q 1191 994 1439 701 
Q 1688 409 2113 409 
Q 2538 409 2786 701 
Q 3034 994 3034 1497 
Q 3034 2003 2786 2293 
Q 2538 2584 2113 2584 
z
M 3366 4563 
L 3366 3988 
Q 3128 4100 2886 4159 
Q 2644 4219 2406 4219 
Q 1781 4219 1451 3797 
Q 1122 3375 1075 2522 
Q 1259 2794 1537 2939 
Q 1816 3084 2150 3084 
Q 2853 3084 3261 2657 
Q 3669 2231 3669 1497 
Q 3669 778 3244 343 
Q 2819 -91 2113 -91 
Q 1303 -91 875 529 
Q 447 1150 447 2328 
Q 447 3434 972 4092 
Q 1497 4750 2381 4750 
Q 2619 4750 2861 4703 
Q 3103 4656 3366 4563 
z
" transform="scale(0.015625)"/>
        <path id="DejaVuSans-32" d="M 1228 531 
L 3431 531 
L 3431 0 
L 469 0 
L 469 531 
Q 828 903 1448 1529 
Q 2069 2156 2228 2338 
Q 2531 2678 2651 2914 
Q 2772 3150 2772 3378 
Q 2772 3750 2511 3984 
Q 2250 4219 1831 4219 
Q 1534 4219 1204 4116 
Q 875 4013 500 3803 
L 500 4441 
Q 881 4594 1212 4672 
Q 1544 4750 1819 4750 
Q 2544 4750 2975 4387 
Q 3406 4025 3406 3419 
Q 3406 3131 3298 2873 
Q 3191 2616 2906 2266 
Q 2828 2175 2409 1742 
Q 1991 1309 1228 531 
z
" transform="scale(0.015625)"/>
       </defs>
       <use xlink:href="#DejaVuSans-30"/>
       <use xlink:href="#DejaVuSans-38" x="63.623047"/>
       <use xlink:href="#DejaVuSans-2f" x="127.246094"/>
       <use xlink:href="#DejaVuSans-31" x="160.9375"/>
       <use xlink:href="#DejaVuSans-36" x="224.560547"/>
       <use xlink:href="#DejaVuSans-2f" x="288.183594"/>
       <use xlink:href="#DejaVuSans-32" x="321.875"/>
       <use xlink:href="#DejaVuSans-30" x="385.498047"/>
      </g>
     </g>
    </g>
    <g id="xtick_2">
     <g id="line2d_3">
      <path d="M 142.319676 166.32 
L 142.319676 0 
" clip-path="url(#p85624195f4)" style="fill: none; stroke: #ffffff; stroke-width: 0.8; stroke-linecap: square"/>
     </g>
     <g id="line2d_4">
      <g>
       <use xlink:href="#m546e4bc6f1" x="142.319676" y="166.32" style="fill: #555555; stroke: #555555; stroke-width: 0.8"/>
      </g>
     </g>
     <g id="text_2">
      <!-- 10/05/20 -->
      <g style="fill: #555555" transform="translate(119.863426 180.918438) scale(0.1 -0.1)">
       <defs>
        <path id="DejaVuSans-35" d="M 691 4666 
L 3169 4666 
L 3169 4134 
L 1269 4134 
L 1269 2991 
Q 1406 3038 1543 3061 
Q 1681 3084 1819 3084 
Q 2600 3084 3056 2656 
Q 3513 2228 3513 1497 
Q 3513 744 3044 326 
Q 2575 -91 1722 -91 
Q 1428 -91 1123 -41 
Q 819 9 494 109 
L 494 744 
Q 775 591 1075 516 
Q 1375 441 1709 441 
Q 2250 441 2565 725 
Q 2881 1009 2881 1497 
Q 2881 1984 2565 2268 
Q 2250 2553 1709 2553 
Q 1456 2553 1204 2497 
Q 953 2441 691 2322 
L 691 4666 
z
" transform="scale(0.015625)"/>
       </defs>
       <use xlink:href="#DejaVuSans-31"/>
       <use xlink:href="#DejaVuSans-30" x="63.623047"/>
       <use xlink:href="#DejaVuSans-2f" x="127.246094"/>
       <use xlink:href="#DejaVuSans-30" x="160.9375"/>
       <use xlink:href="#DejaVuSans-35" x="224.560547"/>
       <use xlink:href="#DejaVuSans-2f" x="288.183594"/>
       <use xlink:href="#DejaVuSans-32" x="321.875"/>
       <use xlink:href="#DejaVuSans-30" x="385.498047"/>
      </g>
     </g>
    </g>
    <g id="xtick_3">
     <g id="line2d_5">
      <path d="M 212.219461 166.32 
L 212.219461 0 
" clip-path="url(#p85624195f4)" style="fill: none; stroke: #ffffff; stroke-width: 0.8; stroke-linecap: square"/>
     </g>
     <g id="line2d_6">
      <g>
       <use xlink:href="#m546e4bc6f1" x="212.219461" y="166.32" style="fill: #555555; stroke: #555555; stroke-width: 0.8"/>
      </g>
     </g>
     <g id="text_3">
      <!-- 11/24/20 -->
      <g style="fill: #555555" transform="translate(189.763211 180.918438) scale(0.1 -0.1)">
       <defs>
        <path id="DejaVuSans-34" d="M 2419 4116 
L 825 1625 
L 2419 1625 
L 2419 4116 
z
M 2253 4666 
L 3047 4666 
L 3047 1625 
L 3713 1625 
L 3713 1100 
L 3047 1100 
L 3047 0 
L 2419 0 
L 2419 1100 
L 313 1100 
L 313 1709 
L 2253 4666 
z
" transform="scale(0.015625)"/>
       </defs>
       <use xlink:href="#DejaVuSans-31"/>
       <use xlink:href="#DejaVuSans-31" x="63.623047"/>
       <use xlink:href="#DejaVuSans-2f" x="127.246094"/>
       <use xlink:href="#DejaVuSans-32" x="160.9375"/>
       <use xlink:href="#DejaVuSans-34" x="224.560547"/>
       <use xlink:href="#DejaVuSans-2f" x="288.183594"/>
       <use xlink:href="#DejaVuSans-32" x="321.875"/>
       <use xlink:href="#DejaVuSans-30" x="385.498047"/>
      </g>
     </g>
    </g>
    <g id="xtick_4">
     <g id="line2d_7">
      <path d="M 282.119246 166.32 
L 282.119246 0 
" clip-path="url(#p85624195f4)" style="fill: none; stroke: #ffffff; stroke-width: 0.8; stroke-linecap: square"/>
     </g>
     <g id="line2d_8">
      <g>
       <use xlink:href="#m546e4bc6f1" x="282.119246" y="166.32" style="fill: #555555; stroke: #555555; stroke-width: 0.8"/>
      </g>
     </g>
     <g id="text_4">
      <!-- 01/13/21 -->
      <g style="fill: #555555" transform="translate(259.662996 180.918438) scale(0.1 -0.1)">
       <defs>
        <path id="DejaVuSans-33" d="M 2597 2516 
Q 3050 2419 3304 2112 
Q 3559 1806 3559 1356 
Q 3559 666 3084 287 
Q 2609 -91 1734 -91 
Q 1441 -91 1130 -33 
Q 819 25 488 141 
L 488 750 
Q 750 597 1062 519 
Q 1375 441 1716 441 
Q 2309 441 2620 675 
Q 2931 909 2931 1356 
Q 2931 1769 2642 2001 
Q 2353 2234 1838 2234 
L 1294 2234 
L 1294 2753 
L 1863 2753 
Q 2328 2753 2575 2939 
Q 2822 3125 2822 3475 
Q 2822 3834 2567 4026 
Q 2313 4219 1838 4219 
Q 1578 4219 1281 4162 
Q 984 4106 628 3988 
L 628 4550 
Q 988 4650 1302 4700 
Q 1616 4750 1894 4750 
Q 2613 4750 3031 4423 
Q 3450 4097 3450 3541 
Q 3450 3153 3228 2886 
Q 3006 2619 2597 2516 
z
" transform="scale(0.015625)"/>
       </defs>
       <use xlink:href="#DejaVuSans-30"/>
       <use xlink:href="#DejaVuSans-31" x="63.623047"/>
       <use xlink:href="#DejaVuSans-2f" x="127.246094"/>
       <use xlink:href="#DejaVuSans-31" x="160.9375"/>
       <use xlink:href="#DejaVuSans-33" x="224.560547"/>
       <use xlink:href="#DejaVuSans-2f" x="288.183594"/>
       <use xlink:href="#DejaVuSans-32" x="321.875"/>
       <use xlink:href="#DejaVuSans-31" x="385.498047"/>
      </g>
     </g>
    </g>
    <g id="xtick_5">
     <g id="line2d_9">
      <path d="M 352.019031 166.32 
L 352.019031 0 
" clip-path="url(#p85624195f4)" style="fill: none; stroke: #ffffff; stroke-width: 0.8; stroke-linecap: square"/>
     </g>
     <g id="line2d_10">
      <g>
       <use xlink:href="#m546e4bc6f1" x="352.019031" y="166.32" style="fill: #555555; stroke: #555555; stroke-width: 0.8"/>
      </g>
     </g>
     <g id="text_5">
      <!-- 03/04/21 -->
      <g style="fill: #555555" transform="translate(329.562781 180.918438) scale(0.1 -0.1)">
       <use xlink:href="#DejaVuSans-30"/>
       <use xlink:href="#DejaVuSans-33" x="63.623047"/>
       <use xlink:href="#DejaVuSans-2f" x="127.246094"/>
       <use xlink:href="#DejaVuSans-30" x="160.9375"/>
       <use xlink:href="#DejaVuSans-34" x="224.560547"/>
       <use xlink:href="#DejaVuSans-2f" x="288.183594"/>
       <use xlink:href="#DejaVuSans-32" x="321.875"/>
       <use xlink:href="#DejaVuSans-31" x="385.498047"/>
      </g>
     </g>
    </g>
    <g id="xtick_6">
     <g id="line2d_11">
      <path d="M 421.918817 166.32 
L 421.918817 0 
" clip-path="url(#p85624195f4)" style="fill: none; stroke: #ffffff; stroke-width: 0.8; stroke-linecap: square"/>
     </g>
     <g id="line2d_12">
      <g>
       <use xlink:href="#m546e4bc6f1" x="421.918817" y="166.32" style="fill: #555555; stroke: #555555; stroke-width: 0.8"/>
      </g>
     </g>
     <g id="text_6">
      <!-- 04/23/21 -->
      <g style="fill: #555555" transform="translate(399.462567 180.918438) scale(0.1 -0.1)">
       <use xlink:href="#DejaVuSans-30"/>
       <use xlink:href="#DejaVuSans-34" x="63.623047"/>
       <use xlink:href="#DejaVuSans-2f" x="127.246094"/>
       <use xlink:href="#DejaVuSans-32" x="160.9375"/>
       <use xlink:href="#DejaVuSans-33" x="224.560547"/>
       <use xlink:href="#DejaVuSans-2f" x="288.183594"/>
       <use xlink:href="#DejaVuSans-32" x="321.875"/>
       <use xlink:href="#DejaVuSans-31" x="385.498047"/>
      </g>
     </g>
    </g>
    <g id="text_7">
     <!-- Date -->
     <g style="fill: #555555" transform="translate(225.838438 196.11625) scale(0.12 -0.12)">
      <defs>
       <path id="DejaVuSans-44" d="M 1259 4147 
L 1259 519 
L 2022 519 
Q 2988 519 3436 956 
Q 3884 1394 3884 2338 
Q 3884 3275 3436 3711 
Q 2988 4147 2022 4147 
L 1259 4147 
z
M 628 4666 
L 1925 4666 
Q 3281 4666 3915 4102 
Q 4550 3538 4550 2338 
Q 4550 1131 3912 565 
Q 3275 0 1925 0 
L 628 0 
L 628 4666 
z
" transform="scale(0.015625)"/>
       <path id="DejaVuSans-61" d="M 2194 1759 
Q 1497 1759 1228 1600 
Q 959 1441 959 1056 
Q 959 750 1161 570 
Q 1363 391 1709 391 
Q 2188 391 2477 730 
Q 2766 1069 2766 1631 
L 2766 1759 
L 2194 1759 
z
M 3341 1997 
L 3341 0 
L 2766 0 
L 2766 531 
Q 2569 213 2275 61 
Q 1981 -91 1556 -91 
Q 1019 -91 701 211 
Q 384 513 384 1019 
Q 384 1609 779 1909 
Q 1175 2209 1959 2209 
L 2766 2209 
L 2766 2266 
Q 2766 2663 2505 2880 
Q 2244 3097 1772 3097 
Q 1472 3097 1187 3025 
Q 903 2953 641 2809 
L 641 3341 
Q 956 3463 1253 3523 
Q 1550 3584 1831 3584 
Q 2591 3584 2966 3190 
Q 3341 2797 3341 1997 
z
" transform="scale(0.015625)"/>
       <path id="DejaVuSans-74" d="M 1172 4494 
L 1172 3500 
L 2356 3500 
L 2356 3053 
L 1172 3053 
L 1172 1153 
Q 1172 725 1289 603 
Q 1406 481 1766 481 
L 2356 481 
L 2356 0 
L 1766 0 
Q 1100 0 847 248 
Q 594 497 594 1153 
L 594 3053 
L 172 3053 
L 172 3500 
L 594 3500 
L 594 4494 
L 1172 4494 
z
" transform="scale(0.015625)"/>
       <path id="DejaVuSans-65" d="M 3597 1894 
L 3597 1613 
L 953 1613 
Q 991 1019 1311 708 
Q 1631 397 2203 397 
Q 2534 397 2845 478 
Q 3156 559 3463 722 
L 3463 178 
Q 3153 47 2828 -22 
Q 2503 -91 2169 -91 
Q 1331 -91 842 396 
Q 353 884 353 1716 
Q 353 2575 817 3079 
Q 1281 3584 2069 3584 
Q 2775 3584 3186 3129 
Q 3597 2675 3597 1894 
z
M 3022 2063 
Q 3016 2534 2758 2815 
Q 2500 3097 2075 3097 
Q 1594 3097 1305 2825 
Q 1016 2553 972 2059 
L 3022 2063 
z
" transform="scale(0.015625)"/>
      </defs>
      <use xlink:href="#DejaVuSans-44"/>
      <use xlink:href="#DejaVuSans-61" x="77.001953"/>
      <use xlink:href="#DejaVuSans-74" x="138.28125"/>
      <use xlink:href="#DejaVuSans-65" x="177.490234"/>
     </g>
    </g>
   </g>
   <g id="matplotlib.axis_2">
    <g id="ytick_1">
     <g id="line2d_13">
      <path d="M 44.879375 146.973515 
L 435.479375 146.973515 
" clip-path="url(#p85624195f4)" style="fill: none; stroke: #ffffff; stroke-width: 0.8; stroke-linecap: square"/>
     </g>
     <g id="line2d_14">
      <defs>
       <path id="m0c10764c46" d="M 0 0 
L -3.5 0 
" style="stroke: #555555; stroke-width: 0.8"/>
      </defs>
      <g>
       <use xlink:href="#m0c10764c46" x="44.879375" y="146.973515" style="fill: #555555; stroke: #555555; stroke-width: 0.8"/>
      </g>
     </g>
     <g id="text_8">
      <!-- 0.05 -->
      <g style="fill: #555555" transform="translate(15.61375 150.772734) scale(0.1 -0.1)">
       <defs>
        <path id="DejaVuSans-2e" d="M 684 794 
L 1344 794 
L 1344 0 
L 684 0 
L 684 794 
z
" transform="scale(0.015625)"/>
       </defs>
       <use xlink:href="#DejaVuSans-30"/>
       <use xlink:href="#DejaVuSans-2e" x="63.623047"/>
       <use xlink:href="#DejaVuSans-30" x="95.410156"/>
       <use xlink:href="#DejaVuSans-35" x="159.033203"/>
      </g>
     </g>
    </g>
    <g id="ytick_2">
     <g id="line2d_15">
      <path d="M 44.879375 125.833476 
L 435.479375 125.833476 
" clip-path="url(#p85624195f4)" style="fill: none; stroke: #ffffff; stroke-width: 0.8; stroke-linecap: square"/>
     </g>
     <g id="line2d_16">
      <g>
       <use xlink:href="#m0c10764c46" x="44.879375" y="125.833476" style="fill: #555555; stroke: #555555; stroke-width: 0.8"/>
      </g>
     </g>
     <g id="text_9">
      <!-- 0.10 -->
      <g style="fill: #555555" transform="translate(15.61375 129.632694) scale(0.1 -0.1)">
       <use xlink:href="#DejaVuSans-30"/>
       <use xlink:href="#DejaVuSans-2e" x="63.623047"/>
       <use xlink:href="#DejaVuSans-31" x="95.410156"/>
       <use xlink:href="#DejaVuSans-30" x="159.033203"/>
      </g>
     </g>
    </g>
    <g id="ytick_3">
     <g id="line2d_17">
      <path d="M 44.879375 104.693436 
L 435.479375 104.693436 
" clip-path="url(#p85624195f4)" style="fill: none; stroke: #ffffff; stroke-width: 0.8; stroke-linecap: square"/>
     </g>
     <g id="line2d_18">
      <g>
       <use xlink:href="#m0c10764c46" x="44.879375" y="104.693436" style="fill: #555555; stroke: #555555; stroke-width: 0.8"/>
      </g>
     </g>
     <g id="text_10">
      <!-- 0.15 -->
      <g style="fill: #555555" transform="translate(15.61375 108.492654) scale(0.1 -0.1)">
       <use xlink:href="#DejaVuSans-30"/>
       <use xlink:href="#DejaVuSans-2e" x="63.623047"/>
       <use xlink:href="#DejaVuSans-31" x="95.410156"/>
       <use xlink:href="#DejaVuSans-35" x="159.033203"/>
      </g>
     </g>
    </g>
    <g id="ytick_4">
     <g id="line2d_19">
      <path d="M 44.879375 83.553396 
L 435.479375 83.553396 
" clip-path="url(#p85624195f4)" style="fill: none; stroke: #ffffff; stroke-width: 0.8; stroke-linecap: square"/>
     </g>
     <g id="line2d_20">
      <g>
       <use xlink:href="#m0c10764c46" x="44.879375" y="83.553396" style="fill: #555555; stroke: #555555; stroke-width: 0.8"/>
      </g>
     </g>
     <g id="text_11">
      <!-- 0.20 -->
      <g style="fill: #555555" transform="translate(15.61375 87.352615) scale(0.1 -0.1)">
       <use xlink:href="#DejaVuSans-30"/>
       <use xlink:href="#DejaVuSans-2e" x="63.623047"/>
       <use xlink:href="#DejaVuSans-32" x="95.410156"/>
       <use xlink:href="#DejaVuSans-30" x="159.033203"/>
      </g>
     </g>
    </g>
    <g id="ytick_5">
     <g id="line2d_21">
      <path d="M 44.879375 62.413356 
L 435.479375 62.413356 
" clip-path="url(#p85624195f4)" style="fill: none; stroke: #ffffff; stroke-width: 0.8; stroke-linecap: square"/>
     </g>
     <g id="line2d_22">
      <g>
       <use xlink:href="#m0c10764c46" x="44.879375" y="62.413356" style="fill: #555555; stroke: #555555; stroke-width: 0.8"/>
      </g>
     </g>
     <g id="text_12">
      <!-- 0.25 -->
      <g style="fill: #555555" transform="translate(15.61375 66.212575) scale(0.1 -0.1)">
       <use xlink:href="#DejaVuSans-30"/>
       <use xlink:href="#DejaVuSans-2e" x="63.623047"/>
       <use xlink:href="#DejaVuSans-32" x="95.410156"/>
       <use xlink:href="#DejaVuSans-35" x="159.033203"/>
      </g>
     </g>
    </g>
    <g id="ytick_6">
     <g id="line2d_23">
      <path d="M 44.879375 41.273316 
L 435.479375 41.273316 
" clip-path="url(#p85624195f4)" style="fill: none; stroke: #ffffff; stroke-width: 0.8; stroke-linecap: square"/>
     </g>
     <g id="line2d_24">
      <g>
       <use xlink:href="#m0c10764c46" x="44.879375" y="41.273316" style="fill: #555555; stroke: #555555; stroke-width: 0.8"/>
      </g>
     </g>
     <g id="text_13">
      <!-- 0.30 -->
      <g style="fill: #555555" transform="translate(15.61375 45.072535) scale(0.1 -0.1)">
       <use xlink:href="#DejaVuSans-30"/>
       <use xlink:href="#DejaVuSans-2e" x="63.623047"/>
       <use xlink:href="#DejaVuSans-33" x="95.410156"/>
       <use xlink:href="#DejaVuSans-30" x="159.033203"/>
      </g>
     </g>
    </g>
    <g id="ytick_7">
     <g id="line2d_25">
      <path d="M 44.879375 20.133276 
L 435.479375 20.133276 
" clip-path="url(#p85624195f4)" style="fill: none; stroke: #ffffff; stroke-width: 0.8; stroke-linecap: square"/>
     </g>
     <g id="line2d_26">
      <g>
       <use xlink:href="#m0c10764c46" x="44.879375" y="20.133276" style="fill: #555555; stroke: #555555; stroke-width: 0.8"/>
      </g>
     </g>
     <g id="text_14">
      <!-- 0.35 -->
      <g style="fill: #555555" transform="translate(15.61375 23.932495) scale(0.1 -0.1)">
       <use xlink:href="#DejaVuSans-30"/>
       <use xlink:href="#DejaVuSans-2e" x="63.623047"/>
       <use xlink:href="#DejaVuSans-33" x="95.410156"/>
       <use xlink:href="#DejaVuSans-35" x="159.033203"/>
      </g>
     </g>
    </g>
    <g id="text_15">
     <!-- Value -->
     <g style="fill: #555555" transform="translate(9.118125 99.6375) rotate(-90) scale(0.12 -0.12)">
      <defs>
       <path id="DejaVuSans-56" d="M 1831 0 
L 50 4666 
L 709 4666 
L 2188 738 
L 3669 4666 
L 4325 4666 
L 2547 0 
L 1831 0 
z
" transform="scale(0.015625)"/>
       <path id="DejaVuSans-6c" d="M 603 4863 
L 1178 4863 
L 1178 0 
L 603 0 
L 603 4863 
z
" transform="scale(0.015625)"/>
       <path id="DejaVuSans-75" d="M 544 1381 
L 544 3500 
L 1119 3500 
L 1119 1403 
Q 1119 906 1312 657 
Q 1506 409 1894 409 
Q 2359 409 2629 706 
Q 2900 1003 2900 1516 
L 2900 3500 
L 3475 3500 
L 3475 0 
L 2900 0 
L 2900 538 
Q 2691 219 2414 64 
Q 2138 -91 1772 -91 
Q 1169 -91 856 284 
Q 544 659 544 1381 
z
M 1991 3584 
L 1991 3584 
z
" transform="scale(0.015625)"/>
      </defs>
      <use xlink:href="#DejaVuSans-56"/>
      <use xlink:href="#DejaVuSans-61" x="60.658203"/>
      <use xlink:href="#DejaVuSans-6c" x="121.9375"/>
      <use xlink:href="#DejaVuSans-75" x="149.720703"/>
      <use xlink:href="#DejaVuSans-65" x="213.099609"/>
     </g>
    </g>
   </g>
   <g id="PolyCollection_1">
    <defs>
     <path id="m516c1367d4" d="M 62.63392 -177.977357 
L 62.63392 -191.051875 
L 64.031916 -189.741147 
L 65.429912 -177.70499 
L 66.827908 -183.99682 
L 68.225903 -176.103627 
L 69.623899 -168.1757 
L 71.021895 -163.839265 
L 72.41989 -151.449244 
L 73.817886 -157.178211 
L 75.215882 -157.840796 
L 76.613878 -154.63803 
L 78.011873 -154.09473 
L 79.409869 -155.433332 
L 80.807865 -144.225203 
L 82.20586 -134.890697 
L 83.603856 -126.296039 
L 85.001852 -121.908784 
L 86.399847 -116.980093 
L 87.797843 -116.581889 
L 89.195839 -115.515495 
L 90.593835 -116.594309 
L 91.99183 -105.809913 
L 93.389826 -106.141631 
L 94.787822 -111.211673 
L 96.185817 -109.882284 
L 97.583813 -104.922553 
L 98.981809 -96.653982 
L 100.379804 -99.408306 
L 101.7778 -98.681796 
L 103.175796 -99.563577 
L 104.573792 -99.809603 
L 105.971787 -100.791351 
L 107.369783 -91.046301 
L 108.767779 -89.208864 
L 110.165774 -84.473428 
L 111.56377 -87.308454 
L 112.961766 -84.609585 
L 114.359762 -76.287734 
L 115.757757 -74.910195 
L 117.155753 -73.647613 
L 118.553749 -75.390304 
L 119.951744 -75.421594 
L 121.34974 -75.451749 
L 122.747736 -76.426121 
L 124.145731 -75.759434 
L 125.543727 -77.625752 
L 126.941723 -78.466701 
L 128.339719 -78.458346 
L 129.737714 -78.880439 
L 131.13571 -78.136342 
L 132.533706 -77.688371 
L 133.931701 -79.556189 
L 135.329697 -74.728623 
L 136.727693 -73.764059 
L 138.125689 -73.268494 
L 139.523684 -72.634634 
L 140.92168 -71.979486 
L 142.319676 -70.66459 
L 143.717671 -71.036345 
L 145.115667 -70.405801 
L 146.513663 -70.6232 
L 147.911658 -70.560903 
L 149.309654 -69.533803 
L 150.70765 -72.14987 
L 152.105646 -71.843317 
L 153.503641 -72.195694 
L 154.901637 -71.305539 
L 156.299633 -71.014879 
L 157.697628 -72.696992 
L 159.095624 -71.267237 
L 160.49362 -72.309879 
L 161.891616 -70.929824 
L 163.289611 -71.408055 
L 164.687607 -68.806836 
L 166.085603 -69.403466 
L 167.483598 -70.811185 
L 168.881594 -70.557713 
L 170.27959 -67.793245 
L 171.677585 -67.646519 
L 173.075581 -67.36084 
L 174.473577 -66.80963 
L 175.871573 -64.779442 
L 177.269568 -66.601231 
L 178.667564 -64.348265 
L 180.06556 -64.414401 
L 181.463555 -64.171222 
L 182.861551 -63.762225 
L 184.259547 -62.586687 
L 185.657543 -62.726946 
L 187.055538 -62.470279 
L 188.453534 -62.407849 
L 189.85153 -62.881858 
L 191.249525 -60.771586 
L 192.647521 -54.188067 
L 194.045517 -54.159392 
L 195.443512 -54.131249 
L 196.841508 -52.927796 
L 198.239504 -52.819151 
L 199.6375 -54.166837 
L 201.035495 -50.501521 
L 202.433491 -50.38304 
L 203.831487 -50.645182 
L 205.229482 -51.893406 
L 206.627478 -51.607141 
L 208.025474 -51.314737 
L 209.423469 -51.622783 
L 210.821465 -51.833016 
L 212.219461 -52.235934 
L 213.617457 -54.17082 
L 215.015452 -54.13028 
L 216.413448 -52.767455 
L 217.811444 -51.605547 
L 219.209439 -51.658283 
L 220.607435 -51.532099 
L 222.005431 -52.889701 
L 223.403427 -52.815335 
L 224.801422 -52.596635 
L 226.199418 -52.571218 
L 227.597414 -53.883224 
L 228.995409 -53.967249 
L 230.393405 -53.690671 
L 231.791401 -54.019413 
L 233.189396 -53.444436 
L 234.587392 -53.705774 
L 235.985388 -58.40343 
L 237.383384 -58.014754 
L 238.781379 -57.698358 
L 240.179375 -57.67764 
L 241.577371 -58.953811 
L 242.975366 -57.969461 
L 244.373362 -59.927327 
L 245.771358 -60.305157 
L 247.169354 -60.345601 
L 248.567349 -60.288738 
L 249.965345 -61.413813 
L 251.363341 -61.445199 
L 252.761336 -63.768817 
L 254.159332 -66.942015 
L 255.557328 -66.994492 
L 256.955323 -67.105665 
L 258.353319 -67.521163 
L 259.751315 -68.070096 
L 261.149311 -69.466486 
L 262.547306 -72.373439 
L 263.945302 -81.94781 
L 265.343298 -84.403959 
L 266.741293 -86.964088 
L 268.139289 -86.902763 
L 269.537285 -86.611674 
L 270.935281 -90.68196 
L 272.333276 -88.339859 
L 273.731272 -88.140421 
L 275.129268 -88.590437 
L 276.527263 -91.871749 
L 277.925259 -92.139044 
L 279.323255 -91.08844 
L 280.72125 -90.870685 
L 282.119246 -91.591187 
L 283.517242 -90.399891 
L 284.915238 -89.242149 
L 286.313233 -89.23471 
L 287.711229 -90.103726 
L 289.109225 -89.737049 
L 290.50722 -93.339897 
L 291.905216 -93.160046 
L 293.303212 -93.472132 
L 294.701207 -94.221211 
L 296.099203 -94.731869 
L 297.497199 -94.506288 
L 298.895195 -94.631656 
L 300.29319 -94.780413 
L 301.691186 -95.252136 
L 303.089182 -96.491185 
L 304.487177 -95.780481 
L 305.885173 -99.118665 
L 307.283169 -99.354274 
L 308.681165 -97.217151 
L 310.07916 -97.184167 
L 311.477156 -99.160175 
L 312.875152 -99.953328 
L 314.273147 -99.170765 
L 315.671143 -100.410538 
L 317.069139 -99.392456 
L 318.467134 -99.477193 
L 319.86513 -99.915873 
L 321.263126 -102.268084 
L 322.661122 -101.566931 
L 324.059117 -101.483356 
L 325.457113 -101.551332 
L 326.855109 -101.488943 
L 328.253104 -102.502549 
L 329.6511 -101.414695 
L 331.049096 -102.658308 
L 332.447092 -103.003263 
L 333.845087 -102.487596 
L 335.243083 -101.9558 
L 336.641079 -103.417277 
L 338.039074 -105.39802 
L 339.43707 -101.802505 
L 340.835066 -98.937607 
L 342.233061 -96.341906 
L 343.631057 -96.970125 
L 345.029053 -99.884703 
L 346.427049 -98.996377 
L 347.825044 -98.832037 
L 349.22304 -97.958433 
L 350.621036 -97.547872 
L 352.019031 -96.493475 
L 353.417027 -94.311435 
L 354.815023 -90.031373 
L 356.213019 -89.95488 
L 357.611014 -86.91107 
L 359.00901 -87.89939 
L 360.407006 -84.910235 
L 361.805001 -80.451582 
L 363.202997 -71.546099 
L 364.600993 -70.862894 
L 365.998988 -70.627764 
L 367.396984 -68.066782 
L 368.79498 -67.882037 
L 370.192976 -65.149298 
L 371.590971 -65.292176 
L 372.988967 -61.829989 
L 374.386963 -57.101573 
L 375.784958 -56.432486 
L 377.182954 -54.773653 
L 378.58095 -53.735489 
L 379.978946 -53.302186 
L 381.376941 -50.953165 
L 382.774937 -49.585225 
L 384.172933 -49.688 
L 385.570928 -49.876188 
L 386.968924 -49.885524 
L 388.36692 -49.870937 
L 389.764915 -47.106632 
L 391.162911 -46.961367 
L 392.560907 -47.147434 
L 393.958903 -46.745479 
L 395.356898 -46.835787 
L 396.754894 -46.680106 
L 398.15289 -47.031653 
L 399.550885 -43.647024 
L 400.948881 -43.353395 
L 402.346877 -43.499936 
L 403.744872 -43.315411 
L 405.142868 -43.083369 
L 406.540864 -43.218336 
L 407.93886 -42.990099 
L 409.336855 -42.975621 
L 410.734851 -43.344864 
L 412.132847 -43.156327 
L 413.530842 -43.300667 
L 414.928838 -43.208934 
L 416.326834 -43.283708 
L 417.72483 -43.130385 
L 417.72483 -41.06029 
L 417.72483 -41.06029 
L 416.326834 -41.164331 
L 414.928838 -40.940703 
L 413.530842 -41.229207 
L 412.132847 -40.846774 
L 410.734851 -41.281781 
L 409.336855 -40.719187 
L 407.93886 -41.086109 
L 406.540864 -40.998758 
L 405.142868 -40.989276 
L 403.744872 -40.895164 
L 402.346877 -41.112697 
L 400.948881 -41.208029 
L 399.550885 -41.196769 
L 398.15289 -43.971773 
L 396.754894 -44.116613 
L 395.356898 -44.010288 
L 393.958903 -43.954217 
L 392.560907 -44.182648 
L 391.162911 -44.055288 
L 389.764915 -44.522792 
L 388.36692 -46.62083 
L 386.968924 -46.887671 
L 385.570928 -46.707286 
L 384.172933 -47.02343 
L 382.774937 -46.83352 
L 381.376941 -48.283383 
L 379.978946 -50.231545 
L 378.58095 -50.476454 
L 377.182954 -51.856148 
L 375.784958 -53.547019 
L 374.386963 -53.245319 
L 372.988967 -57.655395 
L 371.590971 -61.530046 
L 370.192976 -60.799371 
L 368.79498 -63.250459 
L 367.396984 -63.880609 
L 365.998988 -66.208187 
L 364.600993 -66.077812 
L 363.202997 -66.332681 
L 361.805001 -74.527879 
L 360.407006 -77.747491 
L 359.00901 -81.61275 
L 357.611014 -80.143903 
L 356.213019 -82.894557 
L 354.815023 -82.752036 
L 353.417027 -86.664893 
L 352.019031 -88.763843 
L 350.621036 -89.185098 
L 349.22304 -89.963404 
L 347.825044 -90.854689 
L 346.427049 -91.676276 
L 345.029053 -91.239417 
L 343.631057 -88.208366 
L 342.233061 -88.69251 
L 340.835066 -90.775661 
L 339.43707 -93.012871 
L 338.039074 -97.542074 
L 336.641079 -95.40291 
L 335.243083 -95.067823 
L 333.845087 -94.65571 
L 332.447092 -95.317145 
L 331.049096 -94.4279 
L 329.6511 -94.522069 
L 328.253104 -93.953923 
L 326.855109 -94.21139 
L 325.457113 -93.164603 
L 324.059117 -93.735356 
L 322.661122 -92.95882 
L 321.263126 -94.278955 
L 319.86513 -92.935346 
L 318.467134 -92.098672 
L 317.069139 -90.893185 
L 315.671143 -91.973024 
L 314.273147 -90.918469 
L 312.875152 -92.066014 
L 311.477156 -91.126976 
L 310.07916 -88.403911 
L 308.681165 -89.464643 
L 307.283169 -91.475489 
L 305.885173 -92.099817 
L 304.487177 -88.830135 
L 303.089182 -88.985454 
L 301.691186 -87.754419 
L 300.29319 -87.160763 
L 298.895195 -87.54585 
L 297.497199 -86.600004 
L 296.099203 -86.537636 
L 294.701207 -86.147094 
L 293.303212 -85.350327 
L 291.905216 -85.789609 
L 290.50722 -85.900371 
L 289.109225 -82.696767 
L 287.711229 -82.667915 
L 286.313233 -82.011847 
L 284.915238 -82.134291 
L 283.517242 -82.618669 
L 282.119246 -84.905058 
L 280.72125 -84.222138 
L 279.323255 -84.226621 
L 277.925259 -84.756101 
L 276.527263 -84.395455 
L 275.129268 -80.879321 
L 273.731272 -81.297819 
L 272.333276 -82.057452 
L 270.935281 -82.569744 
L 269.537285 -80.721577 
L 268.139289 -80.634452 
L 266.741293 -80.597612 
L 265.343298 -77.801548 
L 263.945302 -75.548944 
L 262.547306 -67.261982 
L 261.149311 -65.331851 
L 259.751315 -62.957787 
L 258.353319 -63.161171 
L 256.955323 -62.678883 
L 255.557328 -62.657634 
L 254.159332 -62.352654 
L 252.761336 -59.441791 
L 251.363341 -57.528915 
L 249.965345 -57.984635 
L 248.567349 -56.795939 
L 247.169354 -56.489984 
L 245.771358 -56.818712 
L 244.373362 -56.456735 
L 242.975366 -54.447316 
L 241.577371 -55.231713 
L 240.179375 -54.166039 
L 238.781379 -54.399701 
L 237.383384 -54.653833 
L 235.985388 -54.621318 
L 234.587392 -50.8023 
L 233.189396 -50.420054 
L 231.791401 -50.709532 
L 230.393405 -50.537701 
L 228.995409 -50.593576 
L 227.597414 -50.343842 
L 226.199418 -49.637505 
L 224.801422 -49.635434 
L 223.403427 -49.569977 
L 222.005431 -49.891924 
L 220.607435 -48.546977 
L 219.209439 -48.715569 
L 217.811444 -48.857369 
L 216.413448 -49.654696 
L 215.015452 -51.066203 
L 213.617457 -51.341076 
L 212.219461 -48.89892 
L 210.821465 -48.550968 
L 209.423469 -48.615166 
L 208.025474 -48.744041 
L 206.627478 -48.510318 
L 205.229482 -48.812509 
L 203.831487 -47.655866 
L 202.433491 -47.710068 
L 201.035495 -47.64858 
L 199.6375 -51.427212 
L 198.239504 -49.54119 
L 196.841508 -49.708537 
L 195.443512 -51.034475 
L 194.045517 -51.068729 
L 192.647521 -51.335388 
L 191.249525 -56.624539 
L 189.85153 -58.217535 
L 188.453534 -58.353279 
L 187.055538 -58.779509 
L 185.657543 -58.644173 
L 184.259547 -58.65871 
L 182.861551 -59.474279 
L 181.463555 -59.732984 
L 180.06556 -60.660321 
L 178.667564 -60.2284 
L 177.269568 -61.92964 
L 175.871573 -60.885034 
L 174.473577 -62.651879 
L 173.075581 -62.581108 
L 171.677585 -63.261068 
L 170.27959 -63.084468 
L 168.881594 -65.81222 
L 167.483598 -65.873308 
L 166.085603 -64.532228 
L 164.687607 -64.214963 
L 163.289611 -66.362869 
L 161.891616 -66.20642 
L 160.49362 -67.923774 
L 159.095624 -66.506354 
L 157.697628 -67.985197 
L 156.299633 -65.961888 
L 154.901637 -66.48794 
L 153.503641 -67.489721 
L 152.105646 -67.224937 
L 150.70765 -67.345306 
L 149.309654 -65.369282 
L 147.911658 -65.715071 
L 146.513663 -66.122412 
L 145.115667 -65.671376 
L 143.717671 -66.13045 
L 142.319676 -65.982975 
L 140.92168 -67.551093 
L 139.523684 -67.716581 
L 138.125689 -68.222972 
L 136.727693 -68.733283 
L 135.329697 -69.649684 
L 133.931701 -74.105441 
L 132.533706 -71.412099 
L 131.13571 -73.477956 
L 129.737714 -73.685949 
L 128.339719 -73.110967 
L 126.941723 -73.367209 
L 125.543727 -72.308508 
L 124.145731 -70.974008 
L 122.747736 -71.551959 
L 121.34974 -70.350188 
L 119.951744 -70.043961 
L 118.553749 -70.495263 
L 117.155753 -68.533917 
L 115.757757 -68.912887 
L 114.359762 -70.913831 
L 112.961766 -78.323426 
L 111.56377 -81.218961 
L 110.165774 -78.408062 
L 108.767779 -82.259852 
L 107.369783 -83.893128 
L 105.971787 -92.79134 
L 104.573792 -90.801494 
L 103.175796 -91.7372 
L 101.7778 -90.627733 
L 100.379804 -91.700897 
L 98.981809 -89.398668 
L 97.583813 -96.453632 
L 96.185817 -101.758143 
L 94.787822 -102.195755 
L 93.389826 -97.361639 
L 91.99183 -97.360217 
L 90.593835 -106.644166 
L 89.195839 -106.560526 
L 87.797843 -108.142418 
L 86.399847 -107.659764 
L 85.001852 -112.416147 
L 83.603856 -116.131266 
L 82.20586 -124.448513 
L 80.807865 -133.228909 
L 79.409869 -144.948872 
L 78.011873 -143.077494 
L 76.613878 -143.682134 
L 75.215882 -146.920545 
L 73.817886 -144.998749 
L 72.41989 -140.675224 
L 71.021895 -152.69668 
L 69.623899 -155.476055 
L 68.225903 -164.930996 
L 66.827908 -171.107842 
L 65.429912 -165.693575 
L 64.031916 -175.558841 
L 62.63392 -177.977357 
z
" style="stroke: #134a8e; stroke-opacity: 0.5; stroke-width: 0.5"/>
    </defs>
    <g clip-path="url(#p85624195f4)">
     <use xlink:href="#m516c1367d4" x="0" y="198.611875" style="fill: #134a8e; fill-opacity: 0.5; stroke: #134a8e; stroke-opacity: 0.5; stroke-width: 0.5"/>
    </g>
   </g>
   <g id="line2d_27">
    <path d="M 62.63392 14.097259 
L 64.031916 15.961881 
L 65.429912 26.912592 
L 66.827908 21.059544 
L 68.225903 28.094564 
L 69.623899 36.785997 
L 71.021895 40.343903 
L 72.41989 52.549641 
L 73.817886 47.523395 
L 75.215882 46.231204 
L 76.613878 49.451793 
L 78.011873 50.025763 
L 79.409869 48.420773 
L 80.807865 59.884819 
L 83.603856 77.398223 
L 85.001852 81.449409 
L 86.399847 86.291947 
L 87.797843 86.249722 
L 89.195839 87.573865 
L 90.593835 86.992637 
L 91.99183 97.02681 
L 93.389826 96.86024 
L 94.787822 91.908161 
L 96.185817 92.791661 
L 97.583813 97.923783 
L 98.981809 105.58555 
L 100.379804 103.057273 
L 101.7778 103.95711 
L 103.175796 102.961486 
L 104.573792 103.306327 
L 105.971787 101.82053 
L 107.369783 111.142161 
L 108.767779 112.877517 
L 110.165774 117.17113 
L 111.56377 114.348167 
L 112.961766 117.14537 
L 114.359762 125.011093 
L 115.757757 126.700334 
L 117.155753 127.52111 
L 118.553749 125.669091 
L 119.951744 125.879097 
L 121.34974 125.710906 
L 122.747736 124.622835 
L 124.145731 125.245154 
L 125.543727 123.644745 
L 126.941723 122.69492 
L 128.339719 122.827218 
L 129.737714 122.328681 
L 131.13571 122.804726 
L 132.533706 124.06164 
L 133.931701 121.78106 
L 135.329697 126.422722 
L 136.727693 127.363204 
L 140.92168 128.846585 
L 142.319676 130.288093 
L 143.717671 130.028478 
L 145.115667 130.573286 
L 146.513663 130.239069 
L 147.911658 130.473888 
L 149.309654 131.160333 
L 150.70765 128.864287 
L 152.105646 129.077748 
L 153.503641 128.769167 
L 154.901637 129.715136 
L 156.299633 130.123491 
L 157.697628 128.27078 
L 159.095624 129.725079 
L 160.49362 128.495048 
L 161.891616 130.043753 
L 163.289611 129.726413 
L 164.687607 132.100976 
L 166.085603 131.644028 
L 167.483598 130.269628 
L 168.881594 130.426908 
L 170.27959 133.173018 
L 171.677585 133.158081 
L 173.075581 133.640901 
L 174.473577 133.881121 
L 175.871573 135.779637 
L 177.269568 134.34644 
L 178.667564 136.323542 
L 180.06556 136.074514 
L 181.463555 136.659772 
L 182.861551 136.993623 
L 184.259547 137.989177 
L 185.657543 137.926316 
L 187.055538 137.986981 
L 188.453534 138.231311 
L 189.85153 138.062179 
L 191.249525 139.913812 
L 192.647521 145.850148 
L 194.045517 145.997815 
L 195.443512 146.029013 
L 196.841508 147.293708 
L 198.239504 147.431705 
L 199.6375 145.814851 
L 201.035495 149.536825 
L 202.433491 149.565321 
L 203.831487 149.461351 
L 205.229482 148.258917 
L 206.627478 148.553146 
L 208.025474 148.582486 
L 210.821465 148.419883 
L 212.219461 148.044448 
L 213.617457 145.855927 
L 215.015452 146.013633 
L 216.413448 147.400799 
L 217.811444 148.380417 
L 220.607435 148.572337 
L 222.005431 147.221062 
L 223.403427 147.419219 
L 226.199418 147.507514 
L 227.597414 146.498342 
L 228.995409 146.331462 
L 230.393405 146.497689 
L 231.791401 146.247402 
L 233.189396 146.67963 
L 234.587392 146.357838 
L 235.985388 142.099501 
L 240.179375 142.690036 
L 241.577371 141.519113 
L 242.975366 142.403487 
L 244.373362 140.419844 
L 245.771358 140.04994 
L 247.169354 140.194082 
L 248.567349 140.069536 
L 249.965345 138.912651 
L 251.363341 139.124818 
L 252.761336 137.006571 
L 254.159332 133.964541 
L 255.557328 133.785812 
L 256.955323 133.719601 
L 258.353319 133.270708 
L 259.751315 133.097934 
L 261.149311 131.212706 
L 262.547306 128.794164 
L 263.945302 119.863498 
L 265.343298 117.509121 
L 266.741293 114.831025 
L 269.537285 114.945249 
L 270.935281 111.986023 
L 272.333276 113.413219 
L 273.731272 113.892755 
L 275.129268 113.876996 
L 276.527263 110.478273 
L 277.925259 110.164303 
L 279.323255 110.954344 
L 280.72125 111.065464 
L 282.119246 110.363753 
L 283.517242 112.102595 
L 284.915238 112.923655 
L 286.313233 112.988597 
L 287.711229 112.226055 
L 289.109225 112.394967 
L 290.50722 108.991741 
L 293.303212 109.200646 
L 294.701207 108.427722 
L 296.099203 107.977123 
L 297.497199 108.058729 
L 298.895195 107.523122 
L 300.29319 107.641287 
L 301.691186 107.108597 
L 303.089182 105.873555 
L 304.487177 106.306567 
L 305.885173 103.002634 
L 307.283169 103.196994 
L 308.681165 105.270978 
L 310.07916 105.817836 
L 311.477156 103.4683 
L 312.875152 102.602204 
L 314.273147 103.567258 
L 315.671143 102.420094 
L 317.069139 103.469055 
L 319.86513 102.186265 
L 321.263126 100.338356 
L 322.661122 101.348999 
L 324.059117 101.002519 
L 325.457113 101.253908 
L 328.253104 100.383639 
L 329.6511 100.643493 
L 332.447092 99.451671 
L 333.845087 100.040222 
L 335.243083 100.100063 
L 336.641079 99.201781 
L 338.039074 97.141828 
L 339.43707 101.204187 
L 342.233061 106.094667 
L 343.631057 106.02263 
L 345.029053 103.049815 
L 346.427049 103.275548 
L 347.825044 103.768512 
L 349.22304 104.650956 
L 350.621036 105.24539 
L 352.019031 105.983216 
L 353.417027 108.123711 
L 354.815023 112.220171 
L 356.213019 112.187156 
L 357.611014 115.084388 
L 359.00901 113.855805 
L 360.407006 117.283012 
L 361.805001 121.122144 
L 363.202997 129.672485 
L 364.600993 130.141522 
L 365.998988 130.193899 
L 367.396984 132.63818 
L 368.79498 133.045627 
L 370.192976 135.637541 
L 371.590971 135.200764 
L 372.988967 138.869183 
L 374.386963 143.438429 
L 375.784958 143.622123 
L 377.182954 145.296974 
L 378.58095 146.505904 
L 379.978946 146.84501 
L 381.376941 148.993601 
L 382.774937 150.402502 
L 384.172933 150.25616 
L 385.570928 150.320138 
L 386.968924 150.225277 
L 388.36692 150.365991 
L 389.764915 152.797163 
L 391.162911 153.103547 
L 392.560907 152.946834 
L 393.958903 153.262027 
L 398.15289 153.110162 
L 399.550885 156.189978 
L 400.948881 156.331163 
L 402.346877 156.305558 
L 403.744872 156.506587 
L 405.142868 156.575553 
L 406.540864 156.503328 
L 407.93886 156.573771 
L 409.336855 156.764471 
L 410.734851 156.298552 
L 412.132847 156.610325 
L 413.530842 156.346938 
L 414.928838 156.537056 
L 416.326834 156.387856 
L 417.72483 156.516538 
L 417.72483 156.516538 
" clip-path="url(#p85624195f4)" style="fill: none; stroke: #134a8e; stroke-width: 3; stroke-linecap: square"/>
    <defs>
     <path id="mc058406d3d" d="M 0 1.5 
C 0.397805 1.5 0.77937 1.341951 1.06066 1.06066 
C 1.341951 0.77937 1.5 0.397805 1.5 0 
C 1.5 -0.397805 1.341951 -0.77937 1.06066 -1.06066 
C 0.77937 -1.341951 0.397805 -1.5 0 -1.5 
C -0.397805 -1.5 -0.77937 -1.341951 -1.06066 -1.06066 
C -1.341951 -0.77937 -1.5 -0.397805 -1.5 0 
C -1.5 0.397805 -1.341951 0.77937 -1.06066 1.06066 
C -0.77937 1.341951 -0.397805 1.5 0 1.5 
z
" style="stroke: #134a8e"/>
    </defs>
    <g clip-path="url(#p85624195f4)">
     <use xlink:href="#mc058406d3d" x="62.63392" y="14.097259" style="fill: #134a8e; stroke: #134a8e"/>
     <use xlink:href="#mc058406d3d" x="64.031916" y="15.961881" style="fill: #134a8e; stroke: #134a8e"/>
     <use xlink:href="#mc058406d3d" x="65.429912" y="26.912592" style="fill: #134a8e; stroke: #134a8e"/>
     <use xlink:href="#mc058406d3d" x="66.827908" y="21.059544" style="fill: #134a8e; stroke: #134a8e"/>
     <use xlink:href="#mc058406d3d" x="68.225903" y="28.094564" style="fill: #134a8e; stroke: #134a8e"/>
     <use xlink:href="#mc058406d3d" x="69.623899" y="36.785997" style="fill: #134a8e; stroke: #134a8e"/>
     <use xlink:href="#mc058406d3d" x="71.021895" y="40.343903" style="fill: #134a8e; stroke: #134a8e"/>
     <use xlink:href="#mc058406d3d" x="72.41989" y="52.549641" style="fill: #134a8e; stroke: #134a8e"/>
     <use xlink:href="#mc058406d3d" x="73.817886" y="47.523395" style="fill: #134a8e; stroke: #134a8e"/>
     <use xlink:href="#mc058406d3d" x="75.215882" y="46.231204" style="fill: #134a8e; stroke: #134a8e"/>
     <use xlink:href="#mc058406d3d" x="76.613878" y="49.451793" style="fill: #134a8e; stroke: #134a8e"/>
     <use xlink:href="#mc058406d3d" x="78.011873" y="50.025763" style="fill: #134a8e; stroke: #134a8e"/>
     <use xlink:href="#mc058406d3d" x="79.409869" y="48.420773" style="fill: #134a8e; stroke: #134a8e"/>
     <use xlink:href="#mc058406d3d" x="80.807865" y="59.884819" style="fill: #134a8e; stroke: #134a8e"/>
     <use xlink:href="#mc058406d3d" x="82.20586" y="68.94227" style="fill: #134a8e; stroke: #134a8e"/>
     <use xlink:href="#mc058406d3d" x="83.603856" y="77.398223" style="fill: #134a8e; stroke: #134a8e"/>
     <use xlink:href="#mc058406d3d" x="85.001852" y="81.449409" style="fill: #134a8e; stroke: #134a8e"/>
     <use xlink:href="#mc058406d3d" x="86.399847" y="86.291947" style="fill: #134a8e; stroke: #134a8e"/>
     <use xlink:href="#mc058406d3d" x="87.797843" y="86.249722" style="fill: #134a8e; stroke: #134a8e"/>
     <use xlink:href="#mc058406d3d" x="89.195839" y="87.573865" style="fill: #134a8e; stroke: #134a8e"/>
     <use xlink:href="#mc058406d3d" x="90.593835" y="86.992637" style="fill: #134a8e; stroke: #134a8e"/>
     <use xlink:href="#mc058406d3d" x="91.99183" y="97.02681" style="fill: #134a8e; stroke: #134a8e"/>
     <use xlink:href="#mc058406d3d" x="93.389826" y="96.86024" style="fill: #134a8e; stroke: #134a8e"/>
     <use xlink:href="#mc058406d3d" x="94.787822" y="91.908161" style="fill: #134a8e; stroke: #134a8e"/>
     <use xlink:href="#mc058406d3d" x="96.185817" y="92.791661" style="fill: #134a8e; stroke: #134a8e"/>
     <use xlink:href="#mc058406d3d" x="97.583813" y="97.923783" style="fill: #134a8e; stroke: #134a8e"/>
     <use xlink:href="#mc058406d3d" x="98.981809" y="105.58555" style="fill: #134a8e; stroke: #134a8e"/>
     <use xlink:href="#mc058406d3d" x="100.379804" y="103.057273" style="fill: #134a8e; stroke: #134a8e"/>
     <use xlink:href="#mc058406d3d" x="101.7778" y="103.95711" style="fill: #134a8e; stroke: #134a8e"/>
     <use xlink:href="#mc058406d3d" x="103.175796" y="102.961486" style="fill: #134a8e; stroke: #134a8e"/>
     <use xlink:href="#mc058406d3d" x="104.573792" y="103.306327" style="fill: #134a8e; stroke: #134a8e"/>
     <use xlink:href="#mc058406d3d" x="105.971787" y="101.82053" style="fill: #134a8e; stroke: #134a8e"/>
     <use xlink:href="#mc058406d3d" x="107.369783" y="111.142161" style="fill: #134a8e; stroke: #134a8e"/>
     <use xlink:href="#mc058406d3d" x="108.767779" y="112.877517" style="fill: #134a8e; stroke: #134a8e"/>
     <use xlink:href="#mc058406d3d" x="110.165774" y="117.17113" style="fill: #134a8e; stroke: #134a8e"/>
     <use xlink:href="#mc058406d3d" x="111.56377" y="114.348167" style="fill: #134a8e; stroke: #134a8e"/>
     <use xlink:href="#mc058406d3d" x="112.961766" y="117.14537" style="fill: #134a8e; stroke: #134a8e"/>
     <use xlink:href="#mc058406d3d" x="114.359762" y="125.011093" style="fill: #134a8e; stroke: #134a8e"/>
     <use xlink:href="#mc058406d3d" x="115.757757" y="126.700334" style="fill: #134a8e; stroke: #134a8e"/>
     <use xlink:href="#mc058406d3d" x="117.155753" y="127.52111" style="fill: #134a8e; stroke: #134a8e"/>
     <use xlink:href="#mc058406d3d" x="118.553749" y="125.669091" style="fill: #134a8e; stroke: #134a8e"/>
     <use xlink:href="#mc058406d3d" x="119.951744" y="125.879097" style="fill: #134a8e; stroke: #134a8e"/>
     <use xlink:href="#mc058406d3d" x="121.34974" y="125.710906" style="fill: #134a8e; stroke: #134a8e"/>
     <use xlink:href="#mc058406d3d" x="122.747736" y="124.622835" style="fill: #134a8e; stroke: #134a8e"/>
     <use xlink:href="#mc058406d3d" x="124.145731" y="125.245154" style="fill: #134a8e; stroke: #134a8e"/>
     <use xlink:href="#mc058406d3d" x="125.543727" y="123.644745" style="fill: #134a8e; stroke: #134a8e"/>
     <use xlink:href="#mc058406d3d" x="126.941723" y="122.69492" style="fill: #134a8e; stroke: #134a8e"/>
     <use xlink:href="#mc058406d3d" x="128.339719" y="122.827218" style="fill: #134a8e; stroke: #134a8e"/>
     <use xlink:href="#mc058406d3d" x="129.737714" y="122.328681" style="fill: #134a8e; stroke: #134a8e"/>
     <use xlink:href="#mc058406d3d" x="131.13571" y="122.804726" style="fill: #134a8e; stroke: #134a8e"/>
     <use xlink:href="#mc058406d3d" x="132.533706" y="124.06164" style="fill: #134a8e; stroke: #134a8e"/>
     <use xlink:href="#mc058406d3d" x="133.931701" y="121.78106" style="fill: #134a8e; stroke: #134a8e"/>
     <use xlink:href="#mc058406d3d" x="135.329697" y="126.422722" style="fill: #134a8e; stroke: #134a8e"/>
     <use xlink:href="#mc058406d3d" x="136.727693" y="127.363204" style="fill: #134a8e; stroke: #134a8e"/>
     <use xlink:href="#mc058406d3d" x="138.125689" y="127.866142" style="fill: #134a8e; stroke: #134a8e"/>
     <use xlink:href="#mc058406d3d" x="139.523684" y="128.436268" style="fill: #134a8e; stroke: #134a8e"/>
     <use xlink:href="#mc058406d3d" x="140.92168" y="128.846585" style="fill: #134a8e; stroke: #134a8e"/>
     <use xlink:href="#mc058406d3d" x="142.319676" y="130.288093" style="fill: #134a8e; stroke: #134a8e"/>
     <use xlink:href="#mc058406d3d" x="143.717671" y="130.028478" style="fill: #134a8e; stroke: #134a8e"/>
     <use xlink:href="#mc058406d3d" x="145.115667" y="130.573286" style="fill: #134a8e; stroke: #134a8e"/>
     <use xlink:href="#mc058406d3d" x="146.513663" y="130.239069" style="fill: #134a8e; stroke: #134a8e"/>
     <use xlink:href="#mc058406d3d" x="147.911658" y="130.473888" style="fill: #134a8e; stroke: #134a8e"/>
     <use xlink:href="#mc058406d3d" x="149.309654" y="131.160333" style="fill: #134a8e; stroke: #134a8e"/>
     <use xlink:href="#mc058406d3d" x="150.70765" y="128.864287" style="fill: #134a8e; stroke: #134a8e"/>
     <use xlink:href="#mc058406d3d" x="152.105646" y="129.077748" style="fill: #134a8e; stroke: #134a8e"/>
     <use xlink:href="#mc058406d3d" x="153.503641" y="128.769167" style="fill: #134a8e; stroke: #134a8e"/>
     <use xlink:href="#mc058406d3d" x="154.901637" y="129.715136" style="fill: #134a8e; stroke: #134a8e"/>
     <use xlink:href="#mc058406d3d" x="156.299633" y="130.123491" style="fill: #134a8e; stroke: #134a8e"/>
     <use xlink:href="#mc058406d3d" x="157.697628" y="128.27078" style="fill: #134a8e; stroke: #134a8e"/>
     <use xlink:href="#mc058406d3d" x="159.095624" y="129.725079" style="fill: #134a8e; stroke: #134a8e"/>
     <use xlink:href="#mc058406d3d" x="160.49362" y="128.495048" style="fill: #134a8e; stroke: #134a8e"/>
     <use xlink:href="#mc058406d3d" x="161.891616" y="130.043753" style="fill: #134a8e; stroke: #134a8e"/>
     <use xlink:href="#mc058406d3d" x="163.289611" y="129.726413" style="fill: #134a8e; stroke: #134a8e"/>
     <use xlink:href="#mc058406d3d" x="164.687607" y="132.100976" style="fill: #134a8e; stroke: #134a8e"/>
     <use xlink:href="#mc058406d3d" x="166.085603" y="131.644028" style="fill: #134a8e; stroke: #134a8e"/>
     <use xlink:href="#mc058406d3d" x="167.483598" y="130.269628" style="fill: #134a8e; stroke: #134a8e"/>
     <use xlink:href="#mc058406d3d" x="168.881594" y="130.426908" style="fill: #134a8e; stroke: #134a8e"/>
     <use xlink:href="#mc058406d3d" x="170.27959" y="133.173018" style="fill: #134a8e; stroke: #134a8e"/>
     <use xlink:href="#mc058406d3d" x="171.677585" y="133.158081" style="fill: #134a8e; stroke: #134a8e"/>
     <use xlink:href="#mc058406d3d" x="173.075581" y="133.640901" style="fill: #134a8e; stroke: #134a8e"/>
     <use xlink:href="#mc058406d3d" x="174.473577" y="133.881121" style="fill: #134a8e; stroke: #134a8e"/>
     <use xlink:href="#mc058406d3d" x="175.871573" y="135.779637" style="fill: #134a8e; stroke: #134a8e"/>
     <use xlink:href="#mc058406d3d" x="177.269568" y="134.34644" style="fill: #134a8e; stroke: #134a8e"/>
     <use xlink:href="#mc058406d3d" x="178.667564" y="136.323542" style="fill: #134a8e; stroke: #134a8e"/>
     <use xlink:href="#mc058406d3d" x="180.06556" y="136.074514" style="fill: #134a8e; stroke: #134a8e"/>
     <use xlink:href="#mc058406d3d" x="181.463555" y="136.659772" style="fill: #134a8e; stroke: #134a8e"/>
     <use xlink:href="#mc058406d3d" x="182.861551" y="136.993623" style="fill: #134a8e; stroke: #134a8e"/>
     <use xlink:href="#mc058406d3d" x="184.259547" y="137.989177" style="fill: #134a8e; stroke: #134a8e"/>
     <use xlink:href="#mc058406d3d" x="185.657543" y="137.926316" style="fill: #134a8e; stroke: #134a8e"/>
     <use xlink:href="#mc058406d3d" x="187.055538" y="137.986981" style="fill: #134a8e; stroke: #134a8e"/>
     <use xlink:href="#mc058406d3d" x="188.453534" y="138.231311" style="fill: #134a8e; stroke: #134a8e"/>
     <use xlink:href="#mc058406d3d" x="189.85153" y="138.062179" style="fill: #134a8e; stroke: #134a8e"/>
     <use xlink:href="#mc058406d3d" x="191.249525" y="139.913812" style="fill: #134a8e; stroke: #134a8e"/>
     <use xlink:href="#mc058406d3d" x="192.647521" y="145.850148" style="fill: #134a8e; stroke: #134a8e"/>
     <use xlink:href="#mc058406d3d" x="194.045517" y="145.997815" style="fill: #134a8e; stroke: #134a8e"/>
     <use xlink:href="#mc058406d3d" x="195.443512" y="146.029013" style="fill: #134a8e; stroke: #134a8e"/>
     <use xlink:href="#mc058406d3d" x="196.841508" y="147.293708" style="fill: #134a8e; stroke: #134a8e"/>
     <use xlink:href="#mc058406d3d" x="198.239504" y="147.431705" style="fill: #134a8e; stroke: #134a8e"/>
     <use xlink:href="#mc058406d3d" x="199.6375" y="145.814851" style="fill: #134a8e; stroke: #134a8e"/>
     <use xlink:href="#mc058406d3d" x="201.035495" y="149.536825" style="fill: #134a8e; stroke: #134a8e"/>
     <use xlink:href="#mc058406d3d" x="202.433491" y="149.565321" style="fill: #134a8e; stroke: #134a8e"/>
     <use xlink:href="#mc058406d3d" x="203.831487" y="149.461351" style="fill: #134a8e; stroke: #134a8e"/>
     <use xlink:href="#mc058406d3d" x="205.229482" y="148.258917" style="fill: #134a8e; stroke: #134a8e"/>
     <use xlink:href="#mc058406d3d" x="206.627478" y="148.553146" style="fill: #134a8e; stroke: #134a8e"/>
     <use xlink:href="#mc058406d3d" x="208.025474" y="148.582486" style="fill: #134a8e; stroke: #134a8e"/>
     <use xlink:href="#mc058406d3d" x="209.423469" y="148.492901" style="fill: #134a8e; stroke: #134a8e"/>
     <use xlink:href="#mc058406d3d" x="210.821465" y="148.419883" style="fill: #134a8e; stroke: #134a8e"/>
     <use xlink:href="#mc058406d3d" x="212.219461" y="148.044448" style="fill: #134a8e; stroke: #134a8e"/>
     <use xlink:href="#mc058406d3d" x="213.617457" y="145.855927" style="fill: #134a8e; stroke: #134a8e"/>
     <use xlink:href="#mc058406d3d" x="215.015452" y="146.013633" style="fill: #134a8e; stroke: #134a8e"/>
     <use xlink:href="#mc058406d3d" x="216.413448" y="147.400799" style="fill: #134a8e; stroke: #134a8e"/>
     <use xlink:href="#mc058406d3d" x="217.811444" y="148.380417" style="fill: #134a8e; stroke: #134a8e"/>
     <use xlink:href="#mc058406d3d" x="219.209439" y="148.424949" style="fill: #134a8e; stroke: #134a8e"/>
     <use xlink:href="#mc058406d3d" x="220.607435" y="148.572337" style="fill: #134a8e; stroke: #134a8e"/>
     <use xlink:href="#mc058406d3d" x="222.005431" y="147.221062" style="fill: #134a8e; stroke: #134a8e"/>
     <use xlink:href="#mc058406d3d" x="223.403427" y="147.419219" style="fill: #134a8e; stroke: #134a8e"/>
     <use xlink:href="#mc058406d3d" x="224.801422" y="147.495841" style="fill: #134a8e; stroke: #134a8e"/>
     <use xlink:href="#mc058406d3d" x="226.199418" y="147.507514" style="fill: #134a8e; stroke: #134a8e"/>
     <use xlink:href="#mc058406d3d" x="227.597414" y="146.498342" style="fill: #134a8e; stroke: #134a8e"/>
     <use xlink:href="#mc058406d3d" x="228.995409" y="146.331462" style="fill: #134a8e; stroke: #134a8e"/>
     <use xlink:href="#mc058406d3d" x="230.393405" y="146.497689" style="fill: #134a8e; stroke: #134a8e"/>
     <use xlink:href="#mc058406d3d" x="231.791401" y="146.247402" style="fill: #134a8e; stroke: #134a8e"/>
     <use xlink:href="#mc058406d3d" x="233.189396" y="146.67963" style="fill: #134a8e; stroke: #134a8e"/>
     <use xlink:href="#mc058406d3d" x="234.587392" y="146.357838" style="fill: #134a8e; stroke: #134a8e"/>
     <use xlink:href="#mc058406d3d" x="235.985388" y="142.099501" style="fill: #134a8e; stroke: #134a8e"/>
     <use xlink:href="#mc058406d3d" x="237.383384" y="142.277582" style="fill: #134a8e; stroke: #134a8e"/>
     <use xlink:href="#mc058406d3d" x="238.781379" y="142.562845" style="fill: #134a8e; stroke: #134a8e"/>
     <use xlink:href="#mc058406d3d" x="240.179375" y="142.690036" style="fill: #134a8e; stroke: #134a8e"/>
     <use xlink:href="#mc058406d3d" x="241.577371" y="141.519113" style="fill: #134a8e; stroke: #134a8e"/>
     <use xlink:href="#mc058406d3d" x="242.975366" y="142.403487" style="fill: #134a8e; stroke: #134a8e"/>
     <use xlink:href="#mc058406d3d" x="244.373362" y="140.419844" style="fill: #134a8e; stroke: #134a8e"/>
     <use xlink:href="#mc058406d3d" x="245.771358" y="140.04994" style="fill: #134a8e; stroke: #134a8e"/>
     <use xlink:href="#mc058406d3d" x="247.169354" y="140.194082" style="fill: #134a8e; stroke: #134a8e"/>
     <use xlink:href="#mc058406d3d" x="248.567349" y="140.069536" style="fill: #134a8e; stroke: #134a8e"/>
     <use xlink:href="#mc058406d3d" x="249.965345" y="138.912651" style="fill: #134a8e; stroke: #134a8e"/>
     <use xlink:href="#mc058406d3d" x="251.363341" y="139.124818" style="fill: #134a8e; stroke: #134a8e"/>
     <use xlink:href="#mc058406d3d" x="252.761336" y="137.006571" style="fill: #134a8e; stroke: #134a8e"/>
     <use xlink:href="#mc058406d3d" x="254.159332" y="133.964541" style="fill: #134a8e; stroke: #134a8e"/>
     <use xlink:href="#mc058406d3d" x="255.557328" y="133.785812" style="fill: #134a8e; stroke: #134a8e"/>
     <use xlink:href="#mc058406d3d" x="256.955323" y="133.719601" style="fill: #134a8e; stroke: #134a8e"/>
     <use xlink:href="#mc058406d3d" x="258.353319" y="133.270708" style="fill: #134a8e; stroke: #134a8e"/>
     <use xlink:href="#mc058406d3d" x="259.751315" y="133.097934" style="fill: #134a8e; stroke: #134a8e"/>
     <use xlink:href="#mc058406d3d" x="261.149311" y="131.212706" style="fill: #134a8e; stroke: #134a8e"/>
     <use xlink:href="#mc058406d3d" x="262.547306" y="128.794164" style="fill: #134a8e; stroke: #134a8e"/>
     <use xlink:href="#mc058406d3d" x="263.945302" y="119.863498" style="fill: #134a8e; stroke: #134a8e"/>
     <use xlink:href="#mc058406d3d" x="265.343298" y="117.509121" style="fill: #134a8e; stroke: #134a8e"/>
     <use xlink:href="#mc058406d3d" x="266.741293" y="114.831025" style="fill: #134a8e; stroke: #134a8e"/>
     <use xlink:href="#mc058406d3d" x="268.139289" y="114.843268" style="fill: #134a8e; stroke: #134a8e"/>
     <use xlink:href="#mc058406d3d" x="269.537285" y="114.945249" style="fill: #134a8e; stroke: #134a8e"/>
     <use xlink:href="#mc058406d3d" x="270.935281" y="111.986023" style="fill: #134a8e; stroke: #134a8e"/>
     <use xlink:href="#mc058406d3d" x="272.333276" y="113.413219" style="fill: #134a8e; stroke: #134a8e"/>
     <use xlink:href="#mc058406d3d" x="273.731272" y="113.892755" style="fill: #134a8e; stroke: #134a8e"/>
     <use xlink:href="#mc058406d3d" x="275.129268" y="113.876996" style="fill: #134a8e; stroke: #134a8e"/>
     <use xlink:href="#mc058406d3d" x="276.527263" y="110.478273" style="fill: #134a8e; stroke: #134a8e"/>
     <use xlink:href="#mc058406d3d" x="277.925259" y="110.164303" style="fill: #134a8e; stroke: #134a8e"/>
     <use xlink:href="#mc058406d3d" x="279.323255" y="110.954344" style="fill: #134a8e; stroke: #134a8e"/>
     <use xlink:href="#mc058406d3d" x="280.72125" y="111.065464" style="fill: #134a8e; stroke: #134a8e"/>
     <use xlink:href="#mc058406d3d" x="282.119246" y="110.363753" style="fill: #134a8e; stroke: #134a8e"/>
     <use xlink:href="#mc058406d3d" x="283.517242" y="112.102595" style="fill: #134a8e; stroke: #134a8e"/>
     <use xlink:href="#mc058406d3d" x="284.915238" y="112.923655" style="fill: #134a8e; stroke: #134a8e"/>
     <use xlink:href="#mc058406d3d" x="286.313233" y="112.988597" style="fill: #134a8e; stroke: #134a8e"/>
     <use xlink:href="#mc058406d3d" x="287.711229" y="112.226055" style="fill: #134a8e; stroke: #134a8e"/>
     <use xlink:href="#mc058406d3d" x="289.109225" y="112.394967" style="fill: #134a8e; stroke: #134a8e"/>
     <use xlink:href="#mc058406d3d" x="290.50722" y="108.991741" style="fill: #134a8e; stroke: #134a8e"/>
     <use xlink:href="#mc058406d3d" x="291.905216" y="109.137047" style="fill: #134a8e; stroke: #134a8e"/>
     <use xlink:href="#mc058406d3d" x="293.303212" y="109.200646" style="fill: #134a8e; stroke: #134a8e"/>
     <use xlink:href="#mc058406d3d" x="294.701207" y="108.427722" style="fill: #134a8e; stroke: #134a8e"/>
     <use xlink:href="#mc058406d3d" x="296.099203" y="107.977123" style="fill: #134a8e; stroke: #134a8e"/>
     <use xlink:href="#mc058406d3d" x="297.497199" y="108.058729" style="fill: #134a8e; stroke: #134a8e"/>
     <use xlink:href="#mc058406d3d" x="298.895195" y="107.523122" style="fill: #134a8e; stroke: #134a8e"/>
     <use xlink:href="#mc058406d3d" x="300.29319" y="107.641287" style="fill: #134a8e; stroke: #134a8e"/>
     <use xlink:href="#mc058406d3d" x="301.691186" y="107.108597" style="fill: #134a8e; stroke: #134a8e"/>
     <use xlink:href="#mc058406d3d" x="303.089182" y="105.873555" style="fill: #134a8e; stroke: #134a8e"/>
     <use xlink:href="#mc058406d3d" x="304.487177" y="106.306567" style="fill: #134a8e; stroke: #134a8e"/>
     <use xlink:href="#mc058406d3d" x="305.885173" y="103.002634" style="fill: #134a8e; stroke: #134a8e"/>
     <use xlink:href="#mc058406d3d" x="307.283169" y="103.196994" style="fill: #134a8e; stroke: #134a8e"/>
     <use xlink:href="#mc058406d3d" x="308.681165" y="105.270978" style="fill: #134a8e; stroke: #134a8e"/>
     <use xlink:href="#mc058406d3d" x="310.07916" y="105.817836" style="fill: #134a8e; stroke: #134a8e"/>
     <use xlink:href="#mc058406d3d" x="311.477156" y="103.4683" style="fill: #134a8e; stroke: #134a8e"/>
     <use xlink:href="#mc058406d3d" x="312.875152" y="102.602204" style="fill: #134a8e; stroke: #134a8e"/>
     <use xlink:href="#mc058406d3d" x="314.273147" y="103.567258" style="fill: #134a8e; stroke: #134a8e"/>
     <use xlink:href="#mc058406d3d" x="315.671143" y="102.420094" style="fill: #134a8e; stroke: #134a8e"/>
     <use xlink:href="#mc058406d3d" x="317.069139" y="103.469055" style="fill: #134a8e; stroke: #134a8e"/>
     <use xlink:href="#mc058406d3d" x="318.467134" y="102.823943" style="fill: #134a8e; stroke: #134a8e"/>
     <use xlink:href="#mc058406d3d" x="319.86513" y="102.186265" style="fill: #134a8e; stroke: #134a8e"/>
     <use xlink:href="#mc058406d3d" x="321.263126" y="100.338356" style="fill: #134a8e; stroke: #134a8e"/>
     <use xlink:href="#mc058406d3d" x="322.661122" y="101.348999" style="fill: #134a8e; stroke: #134a8e"/>
     <use xlink:href="#mc058406d3d" x="324.059117" y="101.002519" style="fill: #134a8e; stroke: #134a8e"/>
     <use xlink:href="#mc058406d3d" x="325.457113" y="101.253908" style="fill: #134a8e; stroke: #134a8e"/>
     <use xlink:href="#mc058406d3d" x="326.855109" y="100.761709" style="fill: #134a8e; stroke: #134a8e"/>
     <use xlink:href="#mc058406d3d" x="328.253104" y="100.383639" style="fill: #134a8e; stroke: #134a8e"/>
     <use xlink:href="#mc058406d3d" x="329.6511" y="100.643493" style="fill: #134a8e; stroke: #134a8e"/>
     <use xlink:href="#mc058406d3d" x="331.049096" y="100.068771" style="fill: #134a8e; stroke: #134a8e"/>
     <use xlink:href="#mc058406d3d" x="332.447092" y="99.451671" style="fill: #134a8e; stroke: #134a8e"/>
     <use xlink:href="#mc058406d3d" x="333.845087" y="100.040222" style="fill: #134a8e; stroke: #134a8e"/>
     <use xlink:href="#mc058406d3d" x="335.243083" y="100.100063" style="fill: #134a8e; stroke: #134a8e"/>
     <use xlink:href="#mc058406d3d" x="336.641079" y="99.201781" style="fill: #134a8e; stroke: #134a8e"/>
     <use xlink:href="#mc058406d3d" x="338.039074" y="97.141828" style="fill: #134a8e; stroke: #134a8e"/>
     <use xlink:href="#mc058406d3d" x="339.43707" y="101.204187" style="fill: #134a8e; stroke: #134a8e"/>
     <use xlink:href="#mc058406d3d" x="340.835066" y="103.755241" style="fill: #134a8e; stroke: #134a8e"/>
     <use xlink:href="#mc058406d3d" x="342.233061" y="106.094667" style="fill: #134a8e; stroke: #134a8e"/>
     <use xlink:href="#mc058406d3d" x="343.631057" y="106.02263" style="fill: #134a8e; stroke: #134a8e"/>
     <use xlink:href="#mc058406d3d" x="345.029053" y="103.049815" style="fill: #134a8e; stroke: #134a8e"/>
     <use xlink:href="#mc058406d3d" x="346.427049" y="103.275548" style="fill: #134a8e; stroke: #134a8e"/>
     <use xlink:href="#mc058406d3d" x="347.825044" y="103.768512" style="fill: #134a8e; stroke: #134a8e"/>
     <use xlink:href="#mc058406d3d" x="349.22304" y="104.650956" style="fill: #134a8e; stroke: #134a8e"/>
     <use xlink:href="#mc058406d3d" x="350.621036" y="105.24539" style="fill: #134a8e; stroke: #134a8e"/>
     <use xlink:href="#mc058406d3d" x="352.019031" y="105.983216" style="fill: #134a8e; stroke: #134a8e"/>
     <use xlink:href="#mc058406d3d" x="353.417027" y="108.123711" style="fill: #134a8e; stroke: #134a8e"/>
     <use xlink:href="#mc058406d3d" x="354.815023" y="112.220171" style="fill: #134a8e; stroke: #134a8e"/>
     <use xlink:href="#mc058406d3d" x="356.213019" y="112.187156" style="fill: #134a8e; stroke: #134a8e"/>
     <use xlink:href="#mc058406d3d" x="357.611014" y="115.084388" style="fill: #134a8e; stroke: #134a8e"/>
     <use xlink:href="#mc058406d3d" x="359.00901" y="113.855805" style="fill: #134a8e; stroke: #134a8e"/>
     <use xlink:href="#mc058406d3d" x="360.407006" y="117.283012" style="fill: #134a8e; stroke: #134a8e"/>
     <use xlink:href="#mc058406d3d" x="361.805001" y="121.122144" style="fill: #134a8e; stroke: #134a8e"/>
     <use xlink:href="#mc058406d3d" x="363.202997" y="129.672485" style="fill: #134a8e; stroke: #134a8e"/>
     <use xlink:href="#mc058406d3d" x="364.600993" y="130.141522" style="fill: #134a8e; stroke: #134a8e"/>
     <use xlink:href="#mc058406d3d" x="365.998988" y="130.193899" style="fill: #134a8e; stroke: #134a8e"/>
     <use xlink:href="#mc058406d3d" x="367.396984" y="132.63818" style="fill: #134a8e; stroke: #134a8e"/>
     <use xlink:href="#mc058406d3d" x="368.79498" y="133.045627" style="fill: #134a8e; stroke: #134a8e"/>
     <use xlink:href="#mc058406d3d" x="370.192976" y="135.637541" style="fill: #134a8e; stroke: #134a8e"/>
     <use xlink:href="#mc058406d3d" x="371.590971" y="135.200764" style="fill: #134a8e; stroke: #134a8e"/>
     <use xlink:href="#mc058406d3d" x="372.988967" y="138.869183" style="fill: #134a8e; stroke: #134a8e"/>
     <use xlink:href="#mc058406d3d" x="374.386963" y="143.438429" style="fill: #134a8e; stroke: #134a8e"/>
     <use xlink:href="#mc058406d3d" x="375.784958" y="143.622123" style="fill: #134a8e; stroke: #134a8e"/>
     <use xlink:href="#mc058406d3d" x="377.182954" y="145.296974" style="fill: #134a8e; stroke: #134a8e"/>
     <use xlink:href="#mc058406d3d" x="378.58095" y="146.505904" style="fill: #134a8e; stroke: #134a8e"/>
     <use xlink:href="#mc058406d3d" x="379.978946" y="146.84501" style="fill: #134a8e; stroke: #134a8e"/>
     <use xlink:href="#mc058406d3d" x="381.376941" y="148.993601" style="fill: #134a8e; stroke: #134a8e"/>
     <use xlink:href="#mc058406d3d" x="382.774937" y="150.402502" style="fill: #134a8e; stroke: #134a8e"/>
     <use xlink:href="#mc058406d3d" x="384.172933" y="150.25616" style="fill: #134a8e; stroke: #134a8e"/>
     <use xlink:href="#mc058406d3d" x="385.570928" y="150.320138" style="fill: #134a8e; stroke: #134a8e"/>
     <use xlink:href="#mc058406d3d" x="386.968924" y="150.225277" style="fill: #134a8e; stroke: #134a8e"/>
     <use xlink:href="#mc058406d3d" x="388.36692" y="150.365991" style="fill: #134a8e; stroke: #134a8e"/>
     <use xlink:href="#mc058406d3d" x="389.764915" y="152.797163" style="fill: #134a8e; stroke: #134a8e"/>
     <use xlink:href="#mc058406d3d" x="391.162911" y="153.103547" style="fill: #134a8e; stroke: #134a8e"/>
     <use xlink:href="#mc058406d3d" x="392.560907" y="152.946834" style="fill: #134a8e; stroke: #134a8e"/>
     <use xlink:href="#mc058406d3d" x="393.958903" y="153.262027" style="fill: #134a8e; stroke: #134a8e"/>
     <use xlink:href="#mc058406d3d" x="395.356898" y="153.188837" style="fill: #134a8e; stroke: #134a8e"/>
     <use xlink:href="#mc058406d3d" x="396.754894" y="153.213515" style="fill: #134a8e; stroke: #134a8e"/>
     <use xlink:href="#mc058406d3d" x="398.15289" y="153.110162" style="fill: #134a8e; stroke: #134a8e"/>
     <use xlink:href="#mc058406d3d" x="399.550885" y="156.189978" style="fill: #134a8e; stroke: #134a8e"/>
     <use xlink:href="#mc058406d3d" x="400.948881" y="156.331163" style="fill: #134a8e; stroke: #134a8e"/>
     <use xlink:href="#mc058406d3d" x="402.346877" y="156.305558" style="fill: #134a8e; stroke: #134a8e"/>
     <use xlink:href="#mc058406d3d" x="403.744872" y="156.506587" style="fill: #134a8e; stroke: #134a8e"/>
     <use xlink:href="#mc058406d3d" x="405.142868" y="156.575553" style="fill: #134a8e; stroke: #134a8e"/>
     <use xlink:href="#mc058406d3d" x="406.540864" y="156.503328" style="fill: #134a8e; stroke: #134a8e"/>
     <use xlink:href="#mc058406d3d" x="407.93886" y="156.573771" style="fill: #134a8e; stroke: #134a8e"/>
     <use xlink:href="#mc058406d3d" x="409.336855" y="156.764471" style="fill: #134a8e; stroke: #134a8e"/>
     <use xlink:href="#mc058406d3d" x="410.734851" y="156.298552" style="fill: #134a8e; stroke: #134a8e"/>
     <use xlink:href="#mc058406d3d" x="412.132847" y="156.610325" style="fill: #134a8e; stroke: #134a8e"/>
     <use xlink:href="#mc058406d3d" x="413.530842" y="156.346938" style="fill: #134a8e; stroke: #134a8e"/>
     <use xlink:href="#mc058406d3d" x="414.928838" y="156.537056" style="fill: #134a8e; stroke: #134a8e"/>
     <use xlink:href="#mc058406d3d" x="416.326834" y="156.387856" style="fill: #134a8e; stroke: #134a8e"/>
     <use xlink:href="#mc058406d3d" x="417.72483" y="156.516538" style="fill: #134a8e; stroke: #134a8e"/>
    </g>
   </g>
   <g id="line2d_28">
    <path d="M 62.63392 18.332717 
L 64.031916 23.569178 
L 65.429912 28.122784 
L 66.827908 22.359736 
L 68.225903 30.060827 
L 69.623899 39.036339 
L 71.021895 42.733537 
L 72.41989 48.04904 
L 73.817886 50.062666 
L 75.215882 50.122737 
L 76.613878 52.45068 
L 78.011873 54.404817 
L 79.409869 49.614039 
L 80.807865 66.292064 
L 82.20586 71.494368 
L 83.603856 77.823919 
L 85.001852 81.487382 
L 86.399847 90.132544 
L 89.195839 94.870548 
L 90.593835 94.120535 
L 91.99183 101.12229 
L 93.389826 102.270186 
L 94.787822 96.908513 
L 96.185817 99.85992 
L 97.583813 103.854235 
L 98.981809 111.284202 
L 101.7778 105.756856 
L 103.175796 107.917748 
L 104.573792 108.23656 
L 105.971787 109.758518 
L 107.369783 112.682935 
L 108.767779 116.336733 
L 110.165774 120.630563 
L 111.56377 116.50499 
L 112.961766 120.212359 
L 114.359762 128.066868 
L 115.757757 128.158016 
L 117.155753 128.038717 
L 118.553749 126.951277 
L 119.951744 126.098116 
L 121.34974 125.528737 
L 122.747736 126.122702 
L 124.145731 126.005556 
L 125.543727 124.019227 
L 126.941723 123.549419 
L 129.737714 122.97897 
L 131.13571 123.745586 
L 132.533706 125.278706 
L 133.931701 125.888036 
L 135.329697 127.154323 
L 136.727693 128.034558 
L 138.125689 129.622111 
L 139.523684 131.806982 
L 140.92168 132.24092 
L 142.319676 131.792142 
L 143.717671 132.934536 
L 145.115667 133.062399 
L 146.513663 131.562975 
L 147.911658 131.718227 
L 149.309654 136.117741 
L 150.70765 130.508019 
L 152.105646 131.132713 
L 153.503641 131.012745 
L 154.901637 131.067742 
L 156.299633 132.323125 
L 159.095624 132.050471 
L 160.49362 131.715503 
L 161.891616 132.631385 
L 163.289611 132.498659 
L 164.687607 134.402862 
L 166.085603 134.200075 
L 167.483598 134.178343 
L 168.881594 133.329519 
L 170.27959 135.618157 
L 173.075581 136.474351 
L 175.871573 137.869022 
L 177.269568 137.864121 
L 178.667564 139.974982 
L 180.06556 138.850885 
L 181.463555 140.784086 
L 182.861551 141.08544 
L 184.259547 141.172166 
L 185.657543 142.52783 
L 187.055538 142.902841 
L 188.453534 144.379398 
L 189.85153 143.343445 
L 191.249525 145.280475 
L 192.647521 146.942326 
L 195.443512 147.997973 
L 196.841508 148.884558 
L 198.239504 149.328612 
L 199.6375 148.251808 
L 201.035495 149.556111 
L 202.433491 150.216234 
L 203.831487 149.901196 
L 205.229482 149.391142 
L 206.627478 149.469906 
L 208.025474 149.140454 
L 209.423469 149.126955 
L 210.821465 149.538182 
L 212.219461 149.015581 
L 213.617457 148.328793 
L 215.015452 148.082574 
L 216.413448 148.792748 
L 217.811444 148.748388 
L 219.209439 149.328326 
L 220.607435 148.899362 
L 222.005431 148.803542 
L 223.403427 148.978897 
L 226.199418 149.503077 
L 228.995409 148.995015 
L 230.393405 148.435332 
L 233.189396 148.982016 
L 234.587392 148.67028 
L 235.985388 147.363885 
L 237.383384 146.484625 
L 238.781379 146.432238 
L 240.179375 145.853298 
L 241.577371 145.545055 
L 242.975366 145.073868 
L 244.373362 144.397208 
L 245.771358 143.394414 
L 247.169354 142.562953 
L 248.567349 143.023477 
L 249.965345 141.33459 
L 251.363341 139.833065 
L 252.761336 139.087062 
L 254.159332 136.440754 
L 255.557328 135.666423 
L 256.955323 136.643244 
L 258.353319 136.482365 
L 259.751315 133.686322 
L 261.149311 132.315822 
L 262.547306 131.68052 
L 263.945302 127.88281 
L 265.343298 126.651205 
L 266.741293 125.636476 
L 268.139289 124.451709 
L 269.537285 124.515279 
L 270.935281 123.120408 
L 272.333276 122.932804 
L 273.731272 124.563875 
L 275.129268 123.272083 
L 276.527263 118.394402 
L 277.925259 117.191905 
L 279.323255 119.548093 
L 280.72125 118.142191 
L 282.119246 116.457372 
L 283.517242 119.51337 
L 284.915238 118.831689 
L 286.313233 117.037698 
L 287.711229 117.127013 
L 289.109225 115.998991 
L 290.50722 114.698561 
L 291.905216 113.812302 
L 294.701207 114.013569 
L 296.099203 113.616033 
L 297.497199 114.839842 
L 298.895195 111.875698 
L 300.29319 111.935105 
L 301.691186 112.83368 
L 303.089182 111.487887 
L 304.487177 112.377917 
L 305.885173 111.06703 
L 307.283169 111.541043 
L 308.681165 110.986748 
L 310.07916 110.67519 
L 311.477156 108.71801 
L 312.875152 108.959541 
L 314.273147 108.564555 
L 315.671143 108.940033 
L 317.069139 109.90701 
L 318.467134 109.181399 
L 319.86513 107.751632 
L 321.263126 105.401473 
L 322.661122 105.200368 
L 324.059117 104.878272 
L 326.855109 107.335701 
L 328.253104 103.257626 
L 329.6511 104.957369 
L 331.049096 103.180923 
L 332.447092 101.106823 
L 333.845087 102.669548 
L 335.243083 101.098468 
L 336.641079 101.87044 
L 338.039074 101.388122 
L 339.43707 102.151379 
L 340.835066 103.75844 
L 342.233061 105.127481 
L 343.631057 104.151729 
L 345.029053 106.712857 
L 346.427049 106.23799 
L 347.825044 110.070457 
L 349.22304 110.451122 
L 350.621036 112.991427 
L 352.019031 113.622716 
L 353.417027 114.776215 
L 354.815023 118.440135 
L 356.213019 118.715692 
L 357.611014 119.854764 
L 359.00901 120.56731 
L 360.407006 124.214063 
L 361.805001 126.074437 
L 363.202997 129.367985 
L 365.998988 131.65449 
L 367.396984 133.902284 
L 370.192976 139.152824 
L 371.590971 140.488323 
L 372.988967 143.052427 
L 374.386963 143.631042 
L 375.784958 143.768838 
L 377.182954 146.240092 
L 378.58095 147.702593 
L 379.978946 148.539838 
L 381.376941 149.903984 
L 382.774937 150.860029 
L 384.172933 151.555048 
L 385.570928 151.151903 
L 386.968924 152.323261 
L 388.36692 153.138231 
L 391.162911 154.355924 
L 392.560907 154.280663 
L 393.958903 155.146752 
L 395.356898 154.824718 
L 396.754894 155.632024 
L 398.15289 155.918599 
L 399.550885 156.456661 
L 400.948881 156.477036 
L 402.346877 156.693028 
L 405.142868 156.78261 
L 406.540864 157.356824 
L 407.93886 157.252148 
L 410.734851 157.376292 
L 412.132847 157.668265 
L 413.530842 157.366498 
L 414.928838 158.76 
L 416.326834 156.885201 
L 417.72483 156.93956 
L 417.72483 156.93956 
" clip-path="url(#p85624195f4)" style="fill: none; stroke-dasharray: 5.55,2.4; stroke-dashoffset: 0; stroke: #000000; stroke-width: 1.5"/>
   </g>
   <g id="patch_3">
    <path d="M 44.879375 166.32 
L 44.879375 -0 
" style="fill: none; stroke: #ffffff; stroke-linejoin: miter; stroke-linecap: square"/>
   </g>
   <g id="patch_4">
    <path d="M 435.479375 166.32 
L 435.479375 -0 
" style="fill: none; stroke: #ffffff; stroke-linejoin: miter; stroke-linecap: square"/>
   </g>
   <g id="patch_5">
    <path d="M 44.879375 166.32 
L 435.479375 166.32 
" style="fill: none; stroke: #ffffff; stroke-linejoin: miter; stroke-linecap: square"/>
   </g>
   <g id="patch_6">
    <path d="M 44.879375 0 
L 435.479375 0 
" style="fill: none; stroke: #ffffff; stroke-linejoin: miter; stroke-linecap: square"/>
   </g>
   <g id="legend_1">
    <g id="patch_7">
     <path d="M 276.4325 60.378125 
L 428.479375 60.378125 
Q 430.479375 60.378125 430.479375 58.378125 
L 430.479375 7 
Q 430.479375 5 428.479375 5 
L 276.4325 5 
Q 274.4325 5 274.4325 7 
L 274.4325 58.378125 
Q 274.4325 60.378125 276.4325 60.378125 
z
" style="fill: #e5e5e5; opacity: 0.8; stroke: #cccccc; stroke-width: 0.5; stroke-linejoin: miter"/>
    </g>
    <g id="line2d_29">
     <path d="M 278.4325 15.5 
L 288.4325 15.5 
L 298.4325 15.5 
" style="fill: none; stroke: #134a8e; stroke-width: 3; stroke-linecap: square"/>
     <g>
      <use xlink:href="#mc058406d3d" x="288.4325" y="15.5" style="fill: #134a8e; stroke: #134a8e"/>
     </g>
    </g>
    <g id="text_16">
     <!-- Private Value $\tilde{R}_{\chi_1,\chi_2}^t$ -->
     <g transform="translate(306.4325 19) scale(0.1 -0.1)">
      <defs>
       <path id="DejaVuSans-50" d="M 1259 4147 
L 1259 2394 
L 2053 2394 
Q 2494 2394 2734 2622 
Q 2975 2850 2975 3272 
Q 2975 3691 2734 3919 
Q 2494 4147 2053 4147 
L 1259 4147 
z
M 628 4666 
L 2053 4666 
Q 2838 4666 3239 4311 
Q 3641 3956 3641 3272 
Q 3641 2581 3239 2228 
Q 2838 1875 2053 1875 
L 1259 1875 
L 1259 0 
L 628 0 
L 628 4666 
z
" transform="scale(0.015625)"/>
       <path id="DejaVuSans-72" d="M 2631 2963 
Q 2534 3019 2420 3045 
Q 2306 3072 2169 3072 
Q 1681 3072 1420 2755 
Q 1159 2438 1159 1844 
L 1159 0 
L 581 0 
L 581 3500 
L 1159 3500 
L 1159 2956 
Q 1341 3275 1631 3429 
Q 1922 3584 2338 3584 
Q 2397 3584 2469 3576 
Q 2541 3569 2628 3553 
L 2631 2963 
z
" transform="scale(0.015625)"/>
       <path id="DejaVuSans-69" d="M 603 3500 
L 1178 3500 
L 1178 0 
L 603 0 
L 603 3500 
z
M 603 4863 
L 1178 4863 
L 1178 4134 
L 603 4134 
L 603 4863 
z
" transform="scale(0.015625)"/>
       <path id="DejaVuSans-76" d="M 191 3500 
L 800 3500 
L 1894 563 
L 2988 3500 
L 3597 3500 
L 2284 0 
L 1503 0 
L 191 3500 
z
" transform="scale(0.015625)"/>
       <path id="DejaVuSans-20" transform="scale(0.015625)"/>
       <path id="DejaVuSans-303" d="M -1621 4281 
L -1799 4453 
Q -1867 4516 -1919 4545 
Q -1971 4575 -2011 4575 
Q -2130 4575 -2186 4461 
Q -2242 4347 -2249 4091 
L -2639 4091 
Q -2633 4513 -2473 4742 
Q -2314 4972 -2030 4972 
Q -1911 4972 -1811 4928 
Q -1711 4884 -1596 4781 
L -1417 4609 
Q -1349 4547 -1297 4517 
Q -1246 4488 -1205 4488 
Q -1086 4488 -1030 4602 
Q -974 4716 -967 4972 
L -577 4972 
Q -583 4550 -742 4320 
Q -902 4091 -1186 4091 
Q -1305 4091 -1405 4134 
Q -1505 4178 -1621 4281 
z
" transform="scale(0.015625)"/>
       <path id="DejaVuSans-Oblique-52" d="M 1613 4147 
L 1294 2491 
L 2106 2491 
Q 2584 2491 2879 2755 
Q 3175 3019 3175 3444 
Q 3175 3784 2976 3965 
Q 2778 4147 2406 4147 
L 1613 4147 
z
M 2772 2241 
Q 2972 2194 3105 2009 
Q 3238 1825 3413 1275 
L 3809 0 
L 3144 0 
L 2778 1197 
Q 2638 1659 2453 1815 
Q 2269 1972 1888 1972 
L 1191 1972 
L 806 0 
L 172 0 
L 1081 4666 
L 2503 4666 
Q 3150 4666 3495 4373 
Q 3841 4081 3841 3531 
Q 3841 3044 3547 2687 
Q 3253 2331 2772 2241 
z
" transform="scale(0.015625)"/>
       <path id="DejaVuSans-Oblique-74" d="M 2706 3500 
L 2619 3053 
L 1472 3053 
L 1100 1153 
Q 1081 1047 1072 975 
Q 1063 903 1063 863 
Q 1063 663 1183 572 
Q 1303 481 1569 481 
L 2150 481 
L 2053 0 
L 1503 0 
Q 991 0 739 200 
Q 488 400 488 806 
Q 488 878 497 964 
Q 506 1050 525 1153 
L 897 3053 
L 409 3053 
L 500 3500 
L 978 3500 
L 1172 4494 
L 1747 4494 
L 1556 3500 
L 2706 3500 
z
" transform="scale(0.015625)"/>
       <path id="DejaVuSans-Oblique-3c7" d="M 1922 -781 
L 1691 416 
L 394 -1334 
L -284 -1334 
L 1553 1141 
L 1269 2613 
Q 1194 3006 713 3006 
L 559 3006 
L 653 3500 
L 872 3494 
Q 1675 3472 1775 2950 
L 2006 1753 
L 3303 3503 
L 3981 3503 
L 2144 1028 
L 2428 -444 
Q 2503 -838 2984 -838 
L 3138 -838 
L 3044 -1331 
L 2825 -1325 
Q 2022 -1303 1922 -781 
z
" transform="scale(0.015625)"/>
       <path id="DejaVuSans-2c" d="M 750 794 
L 1409 794 
L 1409 256 
L 897 -744 
L 494 -744 
L 750 256 
L 750 794 
z
" transform="scale(0.015625)"/>
      </defs>
      <use xlink:href="#DejaVuSans-50" transform="translate(0 0.828125)"/>
      <use xlink:href="#DejaVuSans-72" transform="translate(60.302734 0.828125)"/>
      <use xlink:href="#DejaVuSans-69" transform="translate(101.416016 0.828125)"/>
      <use xlink:href="#DejaVuSans-76" transform="translate(129.199219 0.828125)"/>
      <use xlink:href="#DejaVuSans-61" transform="translate(188.378906 0.828125)"/>
      <use xlink:href="#DejaVuSans-74" transform="translate(249.658203 0.828125)"/>
      <use xlink:href="#DejaVuSans-65" transform="translate(288.867188 0.828125)"/>
      <use xlink:href="#DejaVuSans-20" transform="translate(350.390625 0.828125)"/>
      <use xlink:href="#DejaVuSans-56" transform="translate(382.177734 0.828125)"/>
      <use xlink:href="#DejaVuSans-61" transform="translate(450.585938 0.828125)"/>
      <use xlink:href="#DejaVuSans-6c" transform="translate(511.865234 0.828125)"/>
      <use xlink:href="#DejaVuSans-75" transform="translate(539.648438 0.828125)"/>
      <use xlink:href="#DejaVuSans-65" transform="translate(603.027344 0.828125)"/>
      <use xlink:href="#DejaVuSans-20" transform="translate(664.550781 0.828125)"/>
      <use xlink:href="#DejaVuSans-303" transform="translate(764.942871 22.3125)"/>
      <use xlink:href="#DejaVuSans-Oblique-52" transform="translate(696.337891 0.828125)"/>
      <use xlink:href="#DejaVuSans-Oblique-74" transform="translate(766.777344 39.109375) scale(0.7)"/>
      <use xlink:href="#DejaVuSans-Oblique-3c7" transform="translate(766.777344 -26.515625) scale(0.7)"/>
      <use xlink:href="#DejaVuSans-31" transform="translate(808.203125 -38) scale(0.49)"/>
      <use xlink:href="#DejaVuSans-2c" transform="translate(841.29248 -26.515625) scale(0.7)"/>
      <use xlink:href="#DejaVuSans-Oblique-3c7" transform="translate(877.181152 -26.515625) scale(0.7)"/>
      <use xlink:href="#DejaVuSans-32" transform="translate(918.606934 -38) scale(0.49)"/>
     </g>
    </g>
    <g id="line2d_30">
     <path d="M 278.4325 34 
L 288.4325 34 
L 298.4325 34 
" style="fill: none; stroke-dasharray: 5.55,2.4; stroke-dashoffset: 0; stroke: #000000; stroke-width: 1.5"/>
    </g>
    <g id="text_17">
     <!-- Original Value $\bar{R}_{\chi_1,\chi_2}^t$ -->
     <g transform="translate(306.4325 37.5) scale(0.1 -0.1)">
      <defs>
       <path id="DejaVuSans-4f" d="M 2522 4238 
Q 1834 4238 1429 3725 
Q 1025 3213 1025 2328 
Q 1025 1447 1429 934 
Q 1834 422 2522 422 
Q 3209 422 3611 934 
Q 4013 1447 4013 2328 
Q 4013 3213 3611 3725 
Q 3209 4238 2522 4238 
z
M 2522 4750 
Q 3503 4750 4090 4092 
Q 4678 3434 4678 2328 
Q 4678 1225 4090 567 
Q 3503 -91 2522 -91 
Q 1538 -91 948 565 
Q 359 1222 359 2328 
Q 359 3434 948 4092 
Q 1538 4750 2522 4750 
z
" transform="scale(0.015625)"/>
       <path id="DejaVuSans-67" d="M 2906 1791 
Q 2906 2416 2648 2759 
Q 2391 3103 1925 3103 
Q 1463 3103 1205 2759 
Q 947 2416 947 1791 
Q 947 1169 1205 825 
Q 1463 481 1925 481 
Q 2391 481 2648 825 
Q 2906 1169 2906 1791 
z
M 3481 434 
Q 3481 -459 3084 -895 
Q 2688 -1331 1869 -1331 
Q 1566 -1331 1297 -1286 
Q 1028 -1241 775 -1147 
L 775 -588 
Q 1028 -725 1275 -790 
Q 1522 -856 1778 -856 
Q 2344 -856 2625 -561 
Q 2906 -266 2906 331 
L 2906 616 
Q 2728 306 2450 153 
Q 2172 0 1784 0 
Q 1141 0 747 490 
Q 353 981 353 1791 
Q 353 2603 747 3093 
Q 1141 3584 1784 3584 
Q 2172 3584 2450 3431 
Q 2728 3278 2906 2969 
L 2906 3500 
L 3481 3500 
L 3481 434 
z
" transform="scale(0.015625)"/>
       <path id="DejaVuSans-6e" d="M 3513 2113 
L 3513 0 
L 2938 0 
L 2938 2094 
Q 2938 2591 2744 2837 
Q 2550 3084 2163 3084 
Q 1697 3084 1428 2787 
Q 1159 2491 1159 1978 
L 1159 0 
L 581 0 
L 581 3500 
L 1159 3500 
L 1159 2956 
Q 1366 3272 1645 3428 
Q 1925 3584 2291 3584 
Q 2894 3584 3203 3211 
Q 3513 2838 3513 2113 
z
" transform="scale(0.015625)"/>
       <path id="DejaVuSans-304" d="M -2518 4769 
L -650 4769 
L -650 4306 
L -2518 4306 
L -2518 4769 
z
" transform="scale(0.015625)"/>
      </defs>
      <use xlink:href="#DejaVuSans-4f" transform="translate(0 0.359375)"/>
      <use xlink:href="#DejaVuSans-72" transform="translate(78.710938 0.359375)"/>
      <use xlink:href="#DejaVuSans-69" transform="translate(119.824219 0.359375)"/>
      <use xlink:href="#DejaVuSans-67" transform="translate(147.607422 0.359375)"/>
      <use xlink:href="#DejaVuSans-69" transform="translate(211.083984 0.359375)"/>
      <use xlink:href="#DejaVuSans-6e" transform="translate(238.867188 0.359375)"/>
      <use xlink:href="#DejaVuSans-61" transform="translate(302.246094 0.359375)"/>
      <use xlink:href="#DejaVuSans-6c" transform="translate(363.525391 0.359375)"/>
      <use xlink:href="#DejaVuSans-20" transform="translate(391.308594 0.359375)"/>
      <use xlink:href="#DejaVuSans-56" transform="translate(423.095703 0.359375)"/>
      <use xlink:href="#DejaVuSans-61" transform="translate(491.503906 0.359375)"/>
      <use xlink:href="#DejaVuSans-6c" transform="translate(552.783203 0.359375)"/>
      <use xlink:href="#DejaVuSans-75" transform="translate(580.566406 0.359375)"/>
      <use xlink:href="#DejaVuSans-65" transform="translate(643.945312 0.359375)"/>
      <use xlink:href="#DejaVuSans-20" transform="translate(705.46875 0.359375)"/>
      <use xlink:href="#DejaVuSans-304" transform="translate(804.970215 18.484375)"/>
      <use xlink:href="#DejaVuSans-Oblique-52" transform="translate(737.255859 0.359375)"/>
      <use xlink:href="#DejaVuSans-Oblique-74" transform="translate(807.695312 38.640625) scale(0.7)"/>
      <use xlink:href="#DejaVuSans-Oblique-3c7" transform="translate(807.695312 -26.984375) scale(0.7)"/>
      <use xlink:href="#DejaVuSans-31" transform="translate(849.121094 -38.46875) scale(0.49)"/>
      <use xlink:href="#DejaVuSans-2c" transform="translate(882.210449 -26.984375) scale(0.7)"/>
      <use xlink:href="#DejaVuSans-Oblique-3c7" transform="translate(918.099121 -26.984375) scale(0.7)"/>
      <use xlink:href="#DejaVuSans-32" transform="translate(959.524902 -38.46875) scale(0.49)"/>
     </g>
    </g>
    <g id="patch_8">
     <path d="M 278.4325 54.298438 
L 298.4325 54.298438 
L 298.4325 47.298438 
L 278.4325 47.298438 
z
" style="fill: #134a8e; fill-opacity: 0.5; stroke: #134a8e; stroke-opacity: 0.5; stroke-width: 0.5; stroke-linejoin: miter"/>
    </g>
    <g id="text_18">
     <!-- One Standard Deviation -->
     <g transform="translate(306.4325 54.298438) scale(0.1 -0.1)">
      <defs>
       <path id="DejaVuSans-53" d="M 3425 4513 
L 3425 3897 
Q 3066 4069 2747 4153 
Q 2428 4238 2131 4238 
Q 1616 4238 1336 4038 
Q 1056 3838 1056 3469 
Q 1056 3159 1242 3001 
Q 1428 2844 1947 2747 
L 2328 2669 
Q 3034 2534 3370 2195 
Q 3706 1856 3706 1288 
Q 3706 609 3251 259 
Q 2797 -91 1919 -91 
Q 1588 -91 1214 -16 
Q 841 59 441 206 
L 441 856 
Q 825 641 1194 531 
Q 1563 422 1919 422 
Q 2459 422 2753 634 
Q 3047 847 3047 1241 
Q 3047 1584 2836 1778 
Q 2625 1972 2144 2069 
L 1759 2144 
Q 1053 2284 737 2584 
Q 422 2884 422 3419 
Q 422 4038 858 4394 
Q 1294 4750 2059 4750 
Q 2388 4750 2728 4690 
Q 3069 4631 3425 4513 
z
" transform="scale(0.015625)"/>
       <path id="DejaVuSans-64" d="M 2906 2969 
L 2906 4863 
L 3481 4863 
L 3481 0 
L 2906 0 
L 2906 525 
Q 2725 213 2448 61 
Q 2172 -91 1784 -91 
Q 1150 -91 751 415 
Q 353 922 353 1747 
Q 353 2572 751 3078 
Q 1150 3584 1784 3584 
Q 2172 3584 2448 3432 
Q 2725 3281 2906 2969 
z
M 947 1747 
Q 947 1113 1208 752 
Q 1469 391 1925 391 
Q 2381 391 2643 752 
Q 2906 1113 2906 1747 
Q 2906 2381 2643 2742 
Q 2381 3103 1925 3103 
Q 1469 3103 1208 2742 
Q 947 2381 947 1747 
z
" transform="scale(0.015625)"/>
       <path id="DejaVuSans-6f" d="M 1959 3097 
Q 1497 3097 1228 2736 
Q 959 2375 959 1747 
Q 959 1119 1226 758 
Q 1494 397 1959 397 
Q 2419 397 2687 759 
Q 2956 1122 2956 1747 
Q 2956 2369 2687 2733 
Q 2419 3097 1959 3097 
z
M 1959 3584 
Q 2709 3584 3137 3096 
Q 3566 2609 3566 1747 
Q 3566 888 3137 398 
Q 2709 -91 1959 -91 
Q 1206 -91 779 398 
Q 353 888 353 1747 
Q 353 2609 779 3096 
Q 1206 3584 1959 3584 
z
" transform="scale(0.015625)"/>
      </defs>
      <use xlink:href="#DejaVuSans-4f"/>
      <use xlink:href="#DejaVuSans-6e" x="78.710938"/>
      <use xlink:href="#DejaVuSans-65" x="142.089844"/>
      <use xlink:href="#DejaVuSans-20" x="203.613281"/>
      <use xlink:href="#DejaVuSans-53" x="235.400391"/>
      <use xlink:href="#DejaVuSans-74" x="298.876953"/>
      <use xlink:href="#DejaVuSans-61" x="338.085938"/>
      <use xlink:href="#DejaVuSans-6e" x="399.365234"/>
      <use xlink:href="#DejaVuSans-64" x="462.744141"/>
      <use xlink:href="#DejaVuSans-61" x="526.220703"/>
      <use xlink:href="#DejaVuSans-72" x="587.5"/>
      <use xlink:href="#DejaVuSans-64" x="626.863281"/>
      <use xlink:href="#DejaVuSans-20" x="690.339844"/>
      <use xlink:href="#DejaVuSans-44" x="722.126953"/>
      <use xlink:href="#DejaVuSans-65" x="799.128906"/>
      <use xlink:href="#DejaVuSans-76" x="860.652344"/>
      <use xlink:href="#DejaVuSans-69" x="919.832031"/>
      <use xlink:href="#DejaVuSans-61" x="947.615234"/>
      <use xlink:href="#DejaVuSans-74" x="1008.894531"/>
      <use xlink:href="#DejaVuSans-69" x="1048.103516"/>
      <use xlink:href="#DejaVuSans-6f" x="1075.886719"/>
      <use xlink:href="#DejaVuSans-6e" x="1137.068359"/>
     </g>
    </g>
   </g>
  </g>
 </g>
 <defs>
  <clipPath id="p85624195f4">
   <rect x="44.879375" y="0" width="390.6" height="166.32"/>
  </clipPath>
 </defs>
</svg>
