<?xml version="1.0" encoding="utf-8" standalone="no"?>
<!DOCTYPE svg PUBLIC "-//W3C//DTD SVG 1.1//EN"
  "http://www.w3.org/Graphics/SVG/1.1/DTD/svg11.dtd">
<svg xmlns:xlink="http://www.w3.org/1999/xlink" width="444.375067pt" height="198.611875pt" viewBox="0 0 444.375067 198.611875" xmlns="http://www.w3.org/2000/svg" version="1.1">
 <metadata>
  <rdf:RDF xmlns:dc="http://purl.org/dc/elements/1.1/" xmlns:cc="http://creativecommons.org/ns#" xmlns:rdf="http://www.w3.org/1999/02/22-rdf-syntax-ns#">
   <cc:Work>
    <dc:type rdf:resource="http://purl.org/dc/dcmitype/StillImage"/>
    <dc:date>2024-09-18T15:47:52.613201</dc:date>
    <dc:format>image/svg+xml</dc:format>
    <dc:creator>
     <cc:Agent>
      <dc:title>Matplotlib v3.7.5, https://matplotlib.org/</dc:title>
     </cc:Agent>
    </dc:creator>
   </cc:Work>
  </rdf:RDF>
 </metadata>
 <defs>
  <style type="text/css">*{stroke-linejoin: round; stroke-linecap: butt}</style>
 </defs>
 <g id="figure_1">
  <g id="patch_1">
   <path d="M 0 198.611875 
L 444.375067 198.611875 
L 444.375067 0 
L 0 0 
z
" style="fill: #ffffff"/>
  </g>
  <g id="axes_1">
   <g id="patch_2">
    <path d="M 44.879375 166.32 
L 435.479375 166.32 
L 435.479375 0 
L 44.879375 0 
z
" style="fill: #e5e5e5"/>
   </g>
   <g id="matplotlib.axis_1">
    <g id="xtick_1">
     <g id="line2d_1">
      <path d="M 72.41989 166.32 
L 72.41989 0 
" clip-path="url(#pde7711c6d0)" style="fill: none; stroke: #ffffff; stroke-width: 0.8; stroke-linecap: square"/>
     </g>
     <g id="line2d_2">
      <defs>
       <path id="med5734d808" d="M 0 0 
L 0 3.5 
" style="stroke: #555555; stroke-width: 0.8"/>
      </defs>
      <g>
       <use xlink:href="#med5734d808" x="72.41989" y="166.32" style="fill: #555555; stroke: #555555; stroke-width: 0.8"/>
      </g>
     </g>
     <g id="text_1">
      <!-- 08/16/20 -->
      <g style="fill: #555555" transform="translate(49.96364 180.918438) scale(0.1 -0.1)">
       <defs>
        <path id="DejaVuSans-30" d="M 2034 4250 
Q 1547 4250 1301 3770 
Q 1056 3291 1056 2328 
Q 1056 1369 1301 889 
Q 1547 409 2034 409 
Q 2525 409 2770 889 
Q 3016 1369 3016 2328 
Q 3016 3291 2770 3770 
Q 2525 4250 2034 4250 
z
M 2034 4750 
Q 2819 4750 3233 4129 
Q 3647 3509 3647 2328 
Q 3647 1150 3233 529 
Q 2819 -91 2034 -91 
Q 1250 -91 836 529 
Q 422 1150 422 2328 
Q 422 3509 836 4129 
Q 1250 4750 2034 4750 
z
" transform="scale(0.015625)"/>
        <path id="DejaVuSans-38" d="M 2034 2216 
Q 1584 2216 1326 1975 
Q 1069 1734 1069 1313 
Q 1069 891 1326 650 
Q 1584 409 2034 409 
Q 2484 409 2743 651 
Q 3003 894 3003 1313 
Q 3003 1734 2745 1975 
Q 2488 2216 2034 2216 
z
M 1403 2484 
Q 997 2584 770 2862 
Q 544 3141 544 3541 
Q 544 4100 942 4425 
Q 1341 4750 2034 4750 
Q 2731 4750 3128 4425 
Q 3525 4100 3525 3541 
Q 3525 3141 3298 2862 
Q 3072 2584 2669 2484 
Q 3125 2378 3379 2068 
Q 3634 1759 3634 1313 
Q 3634 634 3220 271 
Q 2806 -91 2034 -91 
Q 1263 -91 848 271 
Q 434 634 434 1313 
Q 434 1759 690 2068 
Q 947 2378 1403 2484 
z
M 1172 3481 
Q 1172 3119 1398 2916 
Q 1625 2713 2034 2713 
Q 2441 2713 2670 2916 
Q 2900 3119 2900 3481 
Q 2900 3844 2670 4047 
Q 2441 4250 2034 4250 
Q 1625 4250 1398 4047 
Q 1172 3844 1172 3481 
z
" transform="scale(0.015625)"/>
        <path id="DejaVuSans-2f" d="M 1625 4666 
L 2156 4666 
L 531 -594 
L 0 -594 
L 1625 4666 
z
" transform="scale(0.015625)"/>
        <path id="DejaVuSans-31" d="M 794 531 
L 1825 531 
L 1825 4091 
L 703 3866 
L 703 4441 
L 1819 4666 
L 2450 4666 
L 2450 531 
L 3481 531 
L 3481 0 
L 794 0 
L 794 531 
z
" transform="scale(0.015625)"/>
        <path id="DejaVuSans-36" d="M 2113 2584 
Q 1688 2584 1439 2293 
Q 1191 2003 1191 1497 
Q 1191 994 1439 701 
Q 1688 409 2113 409 
Q 2538 409 2786 701 
Q 3034 994 3034 1497 
Q 3034 2003 2786 2293 
Q 2538 2584 2113 2584 
z
M 3366 4563 
L 3366 3988 
Q 3128 4100 2886 4159 
Q 2644 4219 2406 4219 
Q 1781 4219 1451 3797 
Q 1122 3375 1075 2522 
Q 1259 2794 1537 2939 
Q 1816 3084 2150 3084 
Q 2853 3084 3261 2657 
Q 3669 2231 3669 1497 
Q 3669 778 3244 343 
Q 2819 -91 2113 -91 
Q 1303 -91 875 529 
Q 447 1150 447 2328 
Q 447 3434 972 4092 
Q 1497 4750 2381 4750 
Q 2619 4750 2861 4703 
Q 3103 4656 3366 4563 
z
" transform="scale(0.015625)"/>
        <path id="DejaVuSans-32" d="M 1228 531 
L 3431 531 
L 3431 0 
L 469 0 
L 469 531 
Q 828 903 1448 1529 
Q 2069 2156 2228 2338 
Q 2531 2678 2651 2914 
Q 2772 3150 2772 3378 
Q 2772 3750 2511 3984 
Q 2250 4219 1831 4219 
Q 1534 4219 1204 4116 
Q 875 4013 500 3803 
L 500 4441 
Q 881 4594 1212 4672 
Q 1544 4750 1819 4750 
Q 2544 4750 2975 4387 
Q 3406 4025 3406 3419 
Q 3406 3131 3298 2873 
Q 3191 2616 2906 2266 
Q 2828 2175 2409 1742 
Q 1991 1309 1228 531 
z
" transform="scale(0.015625)"/>
       </defs>
       <use xlink:href="#DejaVuSans-30"/>
       <use xlink:href="#DejaVuSans-38" x="63.623047"/>
       <use xlink:href="#DejaVuSans-2f" x="127.246094"/>
       <use xlink:href="#DejaVuSans-31" x="160.9375"/>
       <use xlink:href="#DejaVuSans-36" x="224.560547"/>
       <use xlink:href="#DejaVuSans-2f" x="288.183594"/>
       <use xlink:href="#DejaVuSans-32" x="321.875"/>
       <use xlink:href="#DejaVuSans-30" x="385.498047"/>
      </g>
     </g>
    </g>
    <g id="xtick_2">
     <g id="line2d_3">
      <path d="M 142.319676 166.32 
L 142.319676 0 
" clip-path="url(#pde7711c6d0)" style="fill: none; stroke: #ffffff; stroke-width: 0.8; stroke-linecap: square"/>
     </g>
     <g id="line2d_4">
      <g>
       <use xlink:href="#med5734d808" x="142.319676" y="166.32" style="fill: #555555; stroke: #555555; stroke-width: 0.8"/>
      </g>
     </g>
     <g id="text_2">
      <!-- 10/05/20 -->
      <g style="fill: #555555" transform="translate(119.863426 180.918438) scale(0.1 -0.1)">
       <defs>
        <path id="DejaVuSans-35" d="M 691 4666 
L 3169 4666 
L 3169 4134 
L 1269 4134 
L 1269 2991 
Q 1406 3038 1543 3061 
Q 1681 3084 1819 3084 
Q 2600 3084 3056 2656 
Q 3513 2228 3513 1497 
Q 3513 744 3044 326 
Q 2575 -91 1722 -91 
Q 1428 -91 1123 -41 
Q 819 9 494 109 
L 494 744 
Q 775 591 1075 516 
Q 1375 441 1709 441 
Q 2250 441 2565 725 
Q 2881 1009 2881 1497 
Q 2881 1984 2565 2268 
Q 2250 2553 1709 2553 
Q 1456 2553 1204 2497 
Q 953 2441 691 2322 
L 691 4666 
z
" transform="scale(0.015625)"/>
       </defs>
       <use xlink:href="#DejaVuSans-31"/>
       <use xlink:href="#DejaVuSans-30" x="63.623047"/>
       <use xlink:href="#DejaVuSans-2f" x="127.246094"/>
       <use xlink:href="#DejaVuSans-30" x="160.9375"/>
       <use xlink:href="#DejaVuSans-35" x="224.560547"/>
       <use xlink:href="#DejaVuSans-2f" x="288.183594"/>
       <use xlink:href="#DejaVuSans-32" x="321.875"/>
       <use xlink:href="#DejaVuSans-30" x="385.498047"/>
      </g>
     </g>
    </g>
    <g id="xtick_3">
     <g id="line2d_5">
      <path d="M 212.219461 166.32 
L 212.219461 0 
" clip-path="url(#pde7711c6d0)" style="fill: none; stroke: #ffffff; stroke-width: 0.8; stroke-linecap: square"/>
     </g>
     <g id="line2d_6">
      <g>
       <use xlink:href="#med5734d808" x="212.219461" y="166.32" style="fill: #555555; stroke: #555555; stroke-width: 0.8"/>
      </g>
     </g>
     <g id="text_3">
      <!-- 11/24/20 -->
      <g style="fill: #555555" transform="translate(189.763211 180.918438) scale(0.1 -0.1)">
       <defs>
        <path id="DejaVuSans-34" d="M 2419 4116 
L 825 1625 
L 2419 1625 
L 2419 4116 
z
M 2253 4666 
L 3047 4666 
L 3047 1625 
L 3713 1625 
L 3713 1100 
L 3047 1100 
L 3047 0 
L 2419 0 
L 2419 1100 
L 313 1100 
L 313 1709 
L 2253 4666 
z
" transform="scale(0.015625)"/>
       </defs>
       <use xlink:href="#DejaVuSans-31"/>
       <use xlink:href="#DejaVuSans-31" x="63.623047"/>
       <use xlink:href="#DejaVuSans-2f" x="127.246094"/>
       <use xlink:href="#DejaVuSans-32" x="160.9375"/>
       <use xlink:href="#DejaVuSans-34" x="224.560547"/>
       <use xlink:href="#DejaVuSans-2f" x="288.183594"/>
       <use xlink:href="#DejaVuSans-32" x="321.875"/>
       <use xlink:href="#DejaVuSans-30" x="385.498047"/>
      </g>
     </g>
    </g>
    <g id="xtick_4">
     <g id="line2d_7">
      <path d="M 282.119246 166.32 
L 282.119246 0 
" clip-path="url(#pde7711c6d0)" style="fill: none; stroke: #ffffff; stroke-width: 0.8; stroke-linecap: square"/>
     </g>
     <g id="line2d_8">
      <g>
       <use xlink:href="#med5734d808" x="282.119246" y="166.32" style="fill: #555555; stroke: #555555; stroke-width: 0.8"/>
      </g>
     </g>
     <g id="text_4">
      <!-- 01/13/21 -->
      <g style="fill: #555555" transform="translate(259.662996 180.918438) scale(0.1 -0.1)">
       <defs>
        <path id="DejaVuSans-33" d="M 2597 2516 
Q 3050 2419 3304 2112 
Q 3559 1806 3559 1356 
Q 3559 666 3084 287 
Q 2609 -91 1734 -91 
Q 1441 -91 1130 -33 
Q 819 25 488 141 
L 488 750 
Q 750 597 1062 519 
Q 1375 441 1716 441 
Q 2309 441 2620 675 
Q 2931 909 2931 1356 
Q 2931 1769 2642 2001 
Q 2353 2234 1838 2234 
L 1294 2234 
L 1294 2753 
L 1863 2753 
Q 2328 2753 2575 2939 
Q 2822 3125 2822 3475 
Q 2822 3834 2567 4026 
Q 2313 4219 1838 4219 
Q 1578 4219 1281 4162 
Q 984 4106 628 3988 
L 628 4550 
Q 988 4650 1302 4700 
Q 1616 4750 1894 4750 
Q 2613 4750 3031 4423 
Q 3450 4097 3450 3541 
Q 3450 3153 3228 2886 
Q 3006 2619 2597 2516 
z
" transform="scale(0.015625)"/>
       </defs>
       <use xlink:href="#DejaVuSans-30"/>
       <use xlink:href="#DejaVuSans-31" x="63.623047"/>
       <use xlink:href="#DejaVuSans-2f" x="127.246094"/>
       <use xlink:href="#DejaVuSans-31" x="160.9375"/>
       <use xlink:href="#DejaVuSans-33" x="224.560547"/>
       <use xlink:href="#DejaVuSans-2f" x="288.183594"/>
       <use xlink:href="#DejaVuSans-32" x="321.875"/>
       <use xlink:href="#DejaVuSans-31" x="385.498047"/>
      </g>
     </g>
    </g>
    <g id="xtick_5">
     <g id="line2d_9">
      <path d="M 352.019031 166.32 
L 352.019031 0 
" clip-path="url(#pde7711c6d0)" style="fill: none; stroke: #ffffff; stroke-width: 0.8; stroke-linecap: square"/>
     </g>
     <g id="line2d_10">
      <g>
       <use xlink:href="#med5734d808" x="352.019031" y="166.32" style="fill: #555555; stroke: #555555; stroke-width: 0.8"/>
      </g>
     </g>
     <g id="text_5">
      <!-- 03/04/21 -->
      <g style="fill: #555555" transform="translate(329.562781 180.918438) scale(0.1 -0.1)">
       <use xlink:href="#DejaVuSans-30"/>
       <use xlink:href="#DejaVuSans-33" x="63.623047"/>
       <use xlink:href="#DejaVuSans-2f" x="127.246094"/>
       <use xlink:href="#DejaVuSans-30" x="160.9375"/>
       <use xlink:href="#DejaVuSans-34" x="224.560547"/>
       <use xlink:href="#DejaVuSans-2f" x="288.183594"/>
       <use xlink:href="#DejaVuSans-32" x="321.875"/>
       <use xlink:href="#DejaVuSans-31" x="385.498047"/>
      </g>
     </g>
    </g>
    <g id="xtick_6">
     <g id="line2d_11">
      <path d="M 421.918817 166.32 
L 421.918817 0 
" clip-path="url(#pde7711c6d0)" style="fill: none; stroke: #ffffff; stroke-width: 0.8; stroke-linecap: square"/>
     </g>
     <g id="line2d_12">
      <g>
       <use xlink:href="#med5734d808" x="421.918817" y="166.32" style="fill: #555555; stroke: #555555; stroke-width: 0.8"/>
      </g>
     </g>
     <g id="text_6">
      <!-- 04/23/21 -->
      <g style="fill: #555555" transform="translate(399.462567 180.918438) scale(0.1 -0.1)">
       <use xlink:href="#DejaVuSans-30"/>
       <use xlink:href="#DejaVuSans-34" x="63.623047"/>
       <use xlink:href="#DejaVuSans-2f" x="127.246094"/>
       <use xlink:href="#DejaVuSans-32" x="160.9375"/>
       <use xlink:href="#DejaVuSans-33" x="224.560547"/>
       <use xlink:href="#DejaVuSans-2f" x="288.183594"/>
       <use xlink:href="#DejaVuSans-32" x="321.875"/>
       <use xlink:href="#DejaVuSans-31" x="385.498047"/>
      </g>
     </g>
    </g>
    <g id="text_7">
     <!-- Date -->
     <g style="fill: #555555" transform="translate(225.838438 196.11625) scale(0.12 -0.12)">
      <defs>
       <path id="DejaVuSans-44" d="M 1259 4147 
L 1259 519 
L 2022 519 
Q 2988 519 3436 956 
Q 3884 1394 3884 2338 
Q 3884 3275 3436 3711 
Q 2988 4147 2022 4147 
L 1259 4147 
z
M 628 4666 
L 1925 4666 
Q 3281 4666 3915 4102 
Q 4550 3538 4550 2338 
Q 4550 1131 3912 565 
Q 3275 0 1925 0 
L 628 0 
L 628 4666 
z
" transform="scale(0.015625)"/>
       <path id="DejaVuSans-61" d="M 2194 1759 
Q 1497 1759 1228 1600 
Q 959 1441 959 1056 
Q 959 750 1161 570 
Q 1363 391 1709 391 
Q 2188 391 2477 730 
Q 2766 1069 2766 1631 
L 2766 1759 
L 2194 1759 
z
M 3341 1997 
L 3341 0 
L 2766 0 
L 2766 531 
Q 2569 213 2275 61 
Q 1981 -91 1556 -91 
Q 1019 -91 701 211 
Q 384 513 384 1019 
Q 384 1609 779 1909 
Q 1175 2209 1959 2209 
L 2766 2209 
L 2766 2266 
Q 2766 2663 2505 2880 
Q 2244 3097 1772 3097 
Q 1472 3097 1187 3025 
Q 903 2953 641 2809 
L 641 3341 
Q 956 3463 1253 3523 
Q 1550 3584 1831 3584 
Q 2591 3584 2966 3190 
Q 3341 2797 3341 1997 
z
" transform="scale(0.015625)"/>
       <path id="DejaVuSans-74" d="M 1172 4494 
L 1172 3500 
L 2356 3500 
L 2356 3053 
L 1172 3053 
L 1172 1153 
Q 1172 725 1289 603 
Q 1406 481 1766 481 
L 2356 481 
L 2356 0 
L 1766 0 
Q 1100 0 847 248 
Q 594 497 594 1153 
L 594 3053 
L 172 3053 
L 172 3500 
L 594 3500 
L 594 4494 
L 1172 4494 
z
" transform="scale(0.015625)"/>
       <path id="DejaVuSans-65" d="M 3597 1894 
L 3597 1613 
L 953 1613 
Q 991 1019 1311 708 
Q 1631 397 2203 397 
Q 2534 397 2845 478 
Q 3156 559 3463 722 
L 3463 178 
Q 3153 47 2828 -22 
Q 2503 -91 2169 -91 
Q 1331 -91 842 396 
Q 353 884 353 1716 
Q 353 2575 817 3079 
Q 1281 3584 2069 3584 
Q 2775 3584 3186 3129 
Q 3597 2675 3597 1894 
z
M 3022 2063 
Q 3016 2534 2758 2815 
Q 2500 3097 2075 3097 
Q 1594 3097 1305 2825 
Q 1016 2553 972 2059 
L 3022 2063 
z
" transform="scale(0.015625)"/>
      </defs>
      <use xlink:href="#DejaVuSans-44"/>
      <use xlink:href="#DejaVuSans-61" x="77.001953"/>
      <use xlink:href="#DejaVuSans-74" x="138.28125"/>
      <use xlink:href="#DejaVuSans-65" x="177.490234"/>
     </g>
    </g>
   </g>
   <g id="matplotlib.axis_2">
    <g id="ytick_1">
     <g id="line2d_13">
      <path d="M 44.879375 146.962057 
L 435.479375 146.962057 
" clip-path="url(#pde7711c6d0)" style="fill: none; stroke: #ffffff; stroke-width: 0.8; stroke-linecap: square"/>
     </g>
     <g id="line2d_14">
      <defs>
       <path id="md0901559f4" d="M 0 0 
L -3.5 0 
" style="stroke: #555555; stroke-width: 0.8"/>
      </defs>
      <g>
       <use xlink:href="#md0901559f4" x="44.879375" y="146.962057" style="fill: #555555; stroke: #555555; stroke-width: 0.8"/>
      </g>
     </g>
     <g id="text_8">
      <!-- 0.05 -->
      <g style="fill: #555555" transform="translate(15.61375 150.761276) scale(0.1 -0.1)">
       <defs>
        <path id="DejaVuSans-2e" d="M 684 794 
L 1344 794 
L 1344 0 
L 684 0 
L 684 794 
z
" transform="scale(0.015625)"/>
       </defs>
       <use xlink:href="#DejaVuSans-30"/>
       <use xlink:href="#DejaVuSans-2e" x="63.623047"/>
       <use xlink:href="#DejaVuSans-30" x="95.410156"/>
       <use xlink:href="#DejaVuSans-35" x="159.033203"/>
      </g>
     </g>
    </g>
    <g id="ytick_2">
     <g id="line2d_15">
      <path d="M 44.879375 125.801465 
L 435.479375 125.801465 
" clip-path="url(#pde7711c6d0)" style="fill: none; stroke: #ffffff; stroke-width: 0.8; stroke-linecap: square"/>
     </g>
     <g id="line2d_16">
      <g>
       <use xlink:href="#md0901559f4" x="44.879375" y="125.801465" style="fill: #555555; stroke: #555555; stroke-width: 0.8"/>
      </g>
     </g>
     <g id="text_9">
      <!-- 0.10 -->
      <g style="fill: #555555" transform="translate(15.61375 129.600684) scale(0.1 -0.1)">
       <use xlink:href="#DejaVuSans-30"/>
       <use xlink:href="#DejaVuSans-2e" x="63.623047"/>
       <use xlink:href="#DejaVuSans-31" x="95.410156"/>
       <use xlink:href="#DejaVuSans-30" x="159.033203"/>
      </g>
     </g>
    </g>
    <g id="ytick_3">
     <g id="line2d_17">
      <path d="M 44.879375 104.640874 
L 435.479375 104.640874 
" clip-path="url(#pde7711c6d0)" style="fill: none; stroke: #ffffff; stroke-width: 0.8; stroke-linecap: square"/>
     </g>
     <g id="line2d_18">
      <g>
       <use xlink:href="#md0901559f4" x="44.879375" y="104.640874" style="fill: #555555; stroke: #555555; stroke-width: 0.8"/>
      </g>
     </g>
     <g id="text_10">
      <!-- 0.15 -->
      <g style="fill: #555555" transform="translate(15.61375 108.440093) scale(0.1 -0.1)">
       <use xlink:href="#DejaVuSans-30"/>
       <use xlink:href="#DejaVuSans-2e" x="63.623047"/>
       <use xlink:href="#DejaVuSans-31" x="95.410156"/>
       <use xlink:href="#DejaVuSans-35" x="159.033203"/>
      </g>
     </g>
    </g>
    <g id="ytick_4">
     <g id="line2d_19">
      <path d="M 44.879375 83.480282 
L 435.479375 83.480282 
" clip-path="url(#pde7711c6d0)" style="fill: none; stroke: #ffffff; stroke-width: 0.8; stroke-linecap: square"/>
     </g>
     <g id="line2d_20">
      <g>
       <use xlink:href="#md0901559f4" x="44.879375" y="83.480282" style="fill: #555555; stroke: #555555; stroke-width: 0.8"/>
      </g>
     </g>
     <g id="text_11">
      <!-- 0.20 -->
      <g style="fill: #555555" transform="translate(15.61375 87.279501) scale(0.1 -0.1)">
       <use xlink:href="#DejaVuSans-30"/>
       <use xlink:href="#DejaVuSans-2e" x="63.623047"/>
       <use xlink:href="#DejaVuSans-32" x="95.410156"/>
       <use xlink:href="#DejaVuSans-30" x="159.033203"/>
      </g>
     </g>
    </g>
    <g id="ytick_5">
     <g id="line2d_21">
      <path d="M 44.879375 62.319691 
L 435.479375 62.319691 
" clip-path="url(#pde7711c6d0)" style="fill: none; stroke: #ffffff; stroke-width: 0.8; stroke-linecap: square"/>
     </g>
     <g id="line2d_22">
      <g>
       <use xlink:href="#md0901559f4" x="44.879375" y="62.319691" style="fill: #555555; stroke: #555555; stroke-width: 0.8"/>
      </g>
     </g>
     <g id="text_12">
      <!-- 0.25 -->
      <g style="fill: #555555" transform="translate(15.61375 66.118909) scale(0.1 -0.1)">
       <use xlink:href="#DejaVuSans-30"/>
       <use xlink:href="#DejaVuSans-2e" x="63.623047"/>
       <use xlink:href="#DejaVuSans-32" x="95.410156"/>
       <use xlink:href="#DejaVuSans-35" x="159.033203"/>
      </g>
     </g>
    </g>
    <g id="ytick_6">
     <g id="line2d_23">
      <path d="M 44.879375 41.159099 
L 435.479375 41.159099 
" clip-path="url(#pde7711c6d0)" style="fill: none; stroke: #ffffff; stroke-width: 0.8; stroke-linecap: square"/>
     </g>
     <g id="line2d_24">
      <g>
       <use xlink:href="#md0901559f4" x="44.879375" y="41.159099" style="fill: #555555; stroke: #555555; stroke-width: 0.8"/>
      </g>
     </g>
     <g id="text_13">
      <!-- 0.30 -->
      <g style="fill: #555555" transform="translate(15.61375 44.958318) scale(0.1 -0.1)">
       <use xlink:href="#DejaVuSans-30"/>
       <use xlink:href="#DejaVuSans-2e" x="63.623047"/>
       <use xlink:href="#DejaVuSans-33" x="95.410156"/>
       <use xlink:href="#DejaVuSans-30" x="159.033203"/>
      </g>
     </g>
    </g>
    <g id="ytick_7">
     <g id="line2d_25">
      <path d="M 44.879375 19.998508 
L 435.479375 19.998508 
" clip-path="url(#pde7711c6d0)" style="fill: none; stroke: #ffffff; stroke-width: 0.8; stroke-linecap: square"/>
     </g>
     <g id="line2d_26">
      <g>
       <use xlink:href="#md0901559f4" x="44.879375" y="19.998508" style="fill: #555555; stroke: #555555; stroke-width: 0.8"/>
      </g>
     </g>
     <g id="text_14">
      <!-- 0.35 -->
      <g style="fill: #555555" transform="translate(15.61375 23.797726) scale(0.1 -0.1)">
       <use xlink:href="#DejaVuSans-30"/>
       <use xlink:href="#DejaVuSans-2e" x="63.623047"/>
       <use xlink:href="#DejaVuSans-33" x="95.410156"/>
       <use xlink:href="#DejaVuSans-35" x="159.033203"/>
      </g>
     </g>
    </g>
    <g id="text_15">
     <!-- Value -->
     <g style="fill: #555555" transform="translate(9.118125 99.6375) rotate(-90) scale(0.12 -0.12)">
      <defs>
       <path id="DejaVuSans-56" d="M 1831 0 
L 50 4666 
L 709 4666 
L 2188 738 
L 3669 4666 
L 4325 4666 
L 2547 0 
L 1831 0 
z
" transform="scale(0.015625)"/>
       <path id="DejaVuSans-6c" d="M 603 4863 
L 1178 4863 
L 1178 0 
L 603 0 
L 603 4863 
z
" transform="scale(0.015625)"/>
       <path id="DejaVuSans-75" d="M 544 1381 
L 544 3500 
L 1119 3500 
L 1119 1403 
Q 1119 906 1312 657 
Q 1506 409 1894 409 
Q 2359 409 2629 706 
Q 2900 1003 2900 1516 
L 2900 3500 
L 3475 3500 
L 3475 0 
L 2900 0 
L 2900 538 
Q 2691 219 2414 64 
Q 2138 -91 1772 -91 
Q 1169 -91 856 284 
Q 544 659 544 1381 
z
M 1991 3584 
L 1991 3584 
z
" transform="scale(0.015625)"/>
      </defs>
      <use xlink:href="#DejaVuSans-56"/>
      <use xlink:href="#DejaVuSans-61" x="60.658203"/>
      <use xlink:href="#DejaVuSans-6c" x="121.9375"/>
      <use xlink:href="#DejaVuSans-75" x="149.720703"/>
      <use xlink:href="#DejaVuSans-65" x="213.099609"/>
     </g>
    </g>
   </g>
   <g id="PolyCollection_1">
    <defs>
     <path id="m354bce3b10" d="M 62.63392 -178.456976 
L 62.63392 -191.051875 
L 64.031916 -189.670479 
L 65.429912 -178.42927 
L 66.827908 -181.481314 
L 68.225903 -174.656731 
L 69.623899 -169.123044 
L 71.021895 -164.720266 
L 72.41989 -151.393747 
L 73.817886 -155.05915 
L 75.215882 -158.735421 
L 76.613878 -154.269577 
L 78.011873 -152.704157 
L 79.409869 -154.622941 
L 80.807865 -142.319 
L 82.20586 -134.195779 
L 83.603856 -125.793193 
L 85.001852 -121.372375 
L 86.399847 -117.190689 
L 87.797843 -116.61499 
L 89.195839 -113.58128 
L 90.593835 -115.71535 
L 91.99183 -105.643449 
L 93.389826 -105.387536 
L 94.787822 -111.859084 
L 96.185817 -110.468088 
L 97.583813 -104.624009 
L 98.981809 -96.04855 
L 100.379804 -99.080091 
L 101.7778 -99.048088 
L 103.175796 -98.314754 
L 104.573792 -98.212961 
L 105.971787 -99.628792 
L 107.369783 -91.653417 
L 108.767779 -88.641388 
L 110.165774 -84.004335 
L 111.56377 -86.948998 
L 112.961766 -83.542974 
L 114.359762 -75.087017 
L 115.757757 -74.123819 
L 117.155753 -73.911357 
L 118.553749 -75.039468 
L 119.951744 -75.514913 
L 121.34974 -74.786445 
L 122.747736 -77.08458 
L 124.145731 -76.514787 
L 125.543727 -77.470606 
L 126.941723 -78.195227 
L 128.339719 -77.76359 
L 129.737714 -78.875473 
L 131.13571 -78.301832 
L 132.533706 -76.732743 
L 133.931701 -79.637621 
L 135.329697 -74.344854 
L 136.727693 -73.365295 
L 138.125689 -73.170828 
L 139.523684 -72.801022 
L 140.92168 -71.82883 
L 142.319676 -70.583996 
L 143.717671 -69.896123 
L 145.115667 -70.656333 
L 146.513663 -70.942919 
L 147.911658 -70.683972 
L 149.309654 -69.344267 
L 150.70765 -72.257396 
L 152.105646 -71.623068 
L 153.503641 -71.888122 
L 154.901637 -71.169271 
L 156.299633 -70.575661 
L 157.697628 -72.036266 
L 159.095624 -70.592981 
L 160.49362 -72.171483 
L 161.891616 -71.453889 
L 163.289611 -70.863054 
L 164.687607 -69.074386 
L 166.085603 -69.099456 
L 167.483598 -70.296163 
L 168.881594 -71.148392 
L 170.27959 -67.763846 
L 171.677585 -67.238413 
L 173.075581 -66.711929 
L 174.473577 -66.649507 
L 175.871573 -64.818207 
L 177.269568 -66.17805 
L 178.667564 -64.159925 
L 180.06556 -64.091768 
L 181.463555 -63.687956 
L 182.861551 -63.487393 
L 184.259547 -62.374525 
L 185.657543 -62.326418 
L 187.055538 -62.16073 
L 188.453534 -61.914171 
L 189.85153 -62.048078 
L 191.249525 -60.897043 
L 192.647521 -54.258257 
L 194.045517 -54.032218 
L 195.443512 -54.302943 
L 196.841508 -53.010183 
L 198.239504 -52.89452 
L 199.6375 -54.382003 
L 201.035495 -50.457527 
L 202.433491 -50.609311 
L 203.831487 -50.451 
L 205.229482 -51.835762 
L 206.627478 -51.594732 
L 208.025474 -51.806835 
L 209.423469 -51.649296 
L 210.821465 -51.628056 
L 212.219461 -51.740772 
L 213.617457 -54.339888 
L 215.015452 -54.309033 
L 216.413448 -52.85835 
L 217.811444 -51.70855 
L 219.209439 -51.857053 
L 220.607435 -51.823948 
L 222.005431 -53.059113 
L 223.403427 -52.781992 
L 224.801422 -52.661572 
L 226.199418 -52.760013 
L 227.597414 -54.036225 
L 228.995409 -53.655006 
L 230.393405 -53.803323 
L 231.791401 -53.877834 
L 233.189396 -53.710344 
L 234.587392 -53.682475 
L 235.985388 -57.948773 
L 237.383384 -57.943579 
L 238.781379 -58.08928 
L 240.179375 -57.38938 
L 241.577371 -58.654517 
L 242.975366 -57.459555 
L 244.373362 -59.849147 
L 245.771358 -60.2903 
L 247.169354 -60.692764 
L 248.567349 -60.368819 
L 249.965345 -61.406573 
L 251.363341 -61.18396 
L 252.761336 -63.63704 
L 254.159332 -66.533784 
L 255.557328 -66.905995 
L 256.955323 -67.171643 
L 258.353319 -66.615736 
L 259.751315 -67.198517 
L 261.149311 -69.69986 
L 262.547306 -71.705091 
L 263.945302 -80.958884 
L 265.343298 -83.366816 
L 266.741293 -86.175213 
L 268.139289 -86.64859 
L 269.537285 -86.69425 
L 270.935281 -89.185528 
L 272.333276 -87.811167 
L 273.731272 -87.760238 
L 275.129268 -88.236573 
L 276.527263 -89.789453 
L 277.925259 -91.854663 
L 279.323255 -90.540137 
L 280.72125 -89.81915 
L 282.119246 -90.800484 
L 283.517242 -88.824865 
L 284.915238 -88.958315 
L 286.313233 -89.276755 
L 287.711229 -88.840799 
L 289.109225 -88.955337 
L 290.50722 -93.150771 
L 291.905216 -92.958445 
L 293.303212 -92.846339 
L 294.701207 -92.657301 
L 296.099203 -93.279565 
L 297.497199 -92.475685 
L 298.895195 -93.653865 
L 300.29319 -93.78026 
L 301.691186 -94.294875 
L 303.089182 -96.165353 
L 304.487177 -96.293334 
L 305.885173 -98.638425 
L 307.283169 -98.544208 
L 308.681165 -95.254326 
L 310.07916 -96.285383 
L 311.477156 -99.031161 
L 312.875152 -98.924691 
L 314.273147 -98.600238 
L 315.671143 -98.805134 
L 317.069139 -98.931885 
L 318.467134 -99.56208 
L 319.86513 -99.2201 
L 321.263126 -100.414206 
L 322.661122 -100.941832 
L 324.059117 -101.161592 
L 325.457113 -100.990422 
L 326.855109 -100.507121 
L 328.253104 -101.117572 
L 329.6511 -101.656005 
L 331.049096 -102.214665 
L 332.447092 -102.589887 
L 333.845087 -101.951004 
L 335.243083 -102.801519 
L 336.641079 -101.80387 
L 338.039074 -103.87975 
L 339.43707 -101.377698 
L 340.835066 -99.005082 
L 342.233061 -97.245636 
L 343.631057 -97.597973 
L 345.029053 -98.378244 
L 346.427049 -99.849356 
L 347.825044 -97.494402 
L 349.22304 -97.640988 
L 350.621036 -96.071056 
L 352.019031 -95.600451 
L 353.417027 -92.904315 
L 354.815023 -89.133341 
L 356.213019 -89.153194 
L 357.611014 -85.96794 
L 359.00901 -88.062571 
L 360.407006 -84.06745 
L 361.805001 -79.916513 
L 363.202997 -71.684333 
L 364.600993 -70.572473 
L 365.998988 -70.428149 
L 367.396984 -67.186432 
L 368.79498 -66.981904 
L 370.192976 -65.030132 
L 371.590971 -64.937251 
L 372.988967 -61.868617 
L 374.386963 -56.439032 
L 375.784958 -56.722845 
L 377.182954 -54.695671 
L 378.58095 -53.894168 
L 379.978946 -53.324625 
L 381.376941 -50.895631 
L 382.774937 -49.714523 
L 384.172933 -49.556503 
L 385.570928 -50.172795 
L 386.968924 -49.986152 
L 388.36692 -49.573019 
L 389.764915 -47.094404 
L 391.162911 -46.997316 
L 392.560907 -47.243791 
L 393.958903 -46.952866 
L 395.356898 -46.97331 
L 396.754894 -47.265737 
L 398.15289 -47.106529 
L 399.550885 -43.423266 
L 400.948881 -43.736526 
L 402.346877 -43.453824 
L 403.744872 -43.008067 
L 405.142868 -43.554509 
L 406.540864 -43.253527 
L 407.93886 -43.2388 
L 409.336855 -43.180404 
L 410.734851 -43.08684 
L 412.132847 -43.318493 
L 413.530842 -43.442874 
L 414.928838 -43.263863 
L 416.326834 -43.381769 
L 417.72483 -43.534328 
L 417.72483 -41.2046 
L 417.72483 -41.2046 
L 416.326834 -41.09158 
L 414.928838 -41.055642 
L 413.530842 -41.229324 
L 412.132847 -41.080875 
L 410.734851 -40.944205 
L 409.336855 -40.953318 
L 407.93886 -40.79337 
L 406.540864 -40.953804 
L 405.142868 -41.21021 
L 403.744872 -40.896805 
L 402.346877 -41.065795 
L 400.948881 -41.439971 
L 399.550885 -41.142747 
L 398.15289 -43.996602 
L 396.754894 -44.100031 
L 395.356898 -44.182419 
L 393.958903 -43.992505 
L 392.560907 -44.034716 
L 391.162911 -44.136629 
L 389.764915 -44.215219 
L 388.36692 -46.771898 
L 386.968924 -46.793319 
L 385.570928 -46.880936 
L 384.172933 -46.620323 
L 382.774937 -46.997112 
L 381.376941 -47.888494 
L 379.978946 -50.063635 
L 378.58095 -50.693939 
L 377.182954 -51.486538 
L 375.784958 -53.102306 
L 374.386963 -52.965214 
L 372.988967 -57.50062 
L 371.590971 -60.760966 
L 370.192976 -60.828748 
L 368.79498 -62.546352 
L 367.396984 -62.7946 
L 365.998988 -65.640014 
L 364.600993 -66.313727 
L 363.202997 -66.318952 
L 361.805001 -74.250779 
L 360.407006 -77.847626 
L 359.00901 -81.577299 
L 357.611014 -79.506512 
L 356.213019 -83.122041 
L 354.815023 -82.822445 
L 353.417027 -85.910017 
L 352.019031 -89.185952 
L 350.621036 -89.047882 
L 349.22304 -89.810701 
L 347.825044 -89.558192 
L 346.427049 -92.044641 
L 345.029053 -91.155443 
L 343.631057 -89.607697 
L 342.233061 -89.032695 
L 340.835066 -91.589965 
L 339.43707 -94.112543 
L 338.039074 -96.663792 
L 336.641079 -94.159889 
L 335.243083 -94.598496 
L 333.845087 -95.070966 
L 332.447092 -94.433419 
L 331.049096 -94.487904 
L 329.6511 -94.075662 
L 328.253104 -93.440248 
L 326.855109 -92.769861 
L 325.457113 -92.967298 
L 324.059117 -93.880078 
L 322.661122 -93.370921 
L 321.263126 -92.663576 
L 319.86513 -91.381487 
L 318.467134 -91.872361 
L 317.069139 -91.646168 
L 315.671143 -91.4408 
L 314.273147 -91.062038 
L 312.875152 -91.503884 
L 311.477156 -91.310794 
L 310.07916 -89.257594 
L 308.681165 -88.42575 
L 307.283169 -91.454878 
L 305.885173 -91.211584 
L 304.487177 -88.890151 
L 303.089182 -88.362835 
L 301.691186 -86.715314 
L 300.29319 -86.744199 
L 298.895195 -87.124056 
L 297.497199 -85.675836 
L 296.099203 -86.659015 
L 294.701207 -85.529783 
L 293.303212 -85.778463 
L 291.905216 -84.520186 
L 290.50722 -85.51596 
L 289.109225 -82.259821 
L 287.711229 -82.335757 
L 286.313233 -82.740613 
L 284.915238 -81.897627 
L 283.517242 -81.897005 
L 282.119246 -83.577961 
L 280.72125 -83.148142 
L 279.323255 -83.982103 
L 277.925259 -83.96377 
L 276.527263 -82.993488 
L 275.129268 -81.796704 
L 273.731272 -81.230839 
L 272.333276 -80.793393 
L 270.935281 -81.683915 
L 269.537285 -80.152207 
L 268.139289 -80.029416 
L 266.741293 -79.51198 
L 265.343298 -76.385267 
L 263.945302 -74.61671 
L 262.547306 -66.894145 
L 261.149311 -64.853774 
L 259.751315 -63.341601 
L 258.353319 -62.588243 
L 256.955323 -63.029783 
L 255.557328 -62.430762 
L 254.159332 -62.57424 
L 252.761336 -59.567453 
L 251.363341 -57.959309 
L 249.965345 -57.689423 
L 248.567349 -56.899723 
L 247.169354 -57.103856 
L 245.771358 -56.431787 
L 244.373362 -56.18527 
L 242.975366 -53.928307 
L 241.577371 -54.999763 
L 240.179375 -53.714852 
L 238.781379 -54.503512 
L 237.383384 -54.343677 
L 235.985388 -54.123137 
L 234.587392 -50.790999 
L 233.189396 -50.611193 
L 231.791401 -50.52657 
L 230.393405 -50.479474 
L 228.995409 -50.682563 
L 227.597414 -50.810754 
L 226.199418 -49.51108 
L 224.801422 -49.495965 
L 223.403427 -49.65786 
L 222.005431 -49.807475 
L 220.607435 -48.539188 
L 219.209439 -48.767232 
L 217.811444 -48.606823 
L 216.413448 -49.672219 
L 215.015452 -51.189595 
L 213.617457 -51.158589 
L 212.219461 -48.679854 
L 210.821465 -48.528672 
L 209.423469 -48.574323 
L 208.025474 -48.214722 
L 206.627478 -48.659368 
L 205.229482 -48.730019 
L 203.831487 -47.76091 
L 202.433491 -47.493413 
L 201.035495 -47.409266 
L 199.6375 -51.096828 
L 198.239504 -49.730893 
L 196.841508 -49.933093 
L 195.443512 -51.210442 
L 194.045517 -50.86938 
L 192.647521 -51.12 
L 191.249525 -56.878081 
L 189.85153 -58.210067 
L 188.453534 -58.011265 
L 187.055538 -58.45912 
L 185.657543 -58.527061 
L 184.259547 -57.985144 
L 182.861551 -59.824881 
L 181.463555 -59.981786 
L 180.06556 -59.763273 
L 178.667564 -60.513656 
L 177.269568 -61.841075 
L 175.871573 -60.436734 
L 174.473577 -62.734281 
L 173.075581 -62.485503 
L 171.677585 -62.750722 
L 170.27959 -62.970315 
L 168.881594 -65.849918 
L 167.483598 -65.380848 
L 166.085603 -64.258291 
L 164.687607 -63.948853 
L 163.289611 -66.464172 
L 161.891616 -65.89202 
L 160.49362 -67.375043 
L 159.095624 -66.422055 
L 157.697628 -66.670024 
L 156.299633 -65.804931 
L 154.901637 -66.091001 
L 153.503641 -67.204768 
L 152.105646 -67.305759 
L 150.70765 -66.995603 
L 149.309654 -64.718689 
L 147.911658 -66.193296 
L 146.513663 -65.732809 
L 145.115667 -65.788115 
L 143.717671 -65.964882 
L 142.319676 -66.028185 
L 140.92168 -67.187709 
L 139.523684 -67.539034 
L 138.125689 -68.336992 
L 136.727693 -68.445207 
L 135.329697 -69.367384 
L 133.931701 -74.249455 
L 132.533706 -71.603545 
L 131.13571 -73.187259 
L 129.737714 -73.605692 
L 128.339719 -73.276573 
L 126.941723 -72.675016 
L 125.543727 -72.30194 
L 124.145731 -71.635081 
L 122.747736 -71.704825 
L 121.34974 -69.881483 
L 119.951744 -70.748987 
L 118.553749 -69.978053 
L 117.155753 -69.04615 
L 115.757757 -68.899326 
L 114.359762 -70.418416 
L 112.961766 -77.91009 
L 111.56377 -80.391765 
L 110.165774 -77.740479 
L 108.767779 -82.40001 
L 107.369783 -83.819989 
L 105.971787 -91.825466 
L 104.573792 -90.868749 
L 103.175796 -91.037499 
L 101.7778 -90.156257 
L 100.379804 -90.871385 
L 98.981809 -88.200547 
L 97.583813 -97.22325 
L 96.185817 -101.620352 
L 94.787822 -102.728451 
L 93.389826 -96.619683 
L 91.99183 -96.281418 
L 90.593835 -107.216408 
L 89.195839 -104.74112 
L 87.797843 -106.827471 
L 86.399847 -108.077335 
L 85.001852 -112.83896 
L 83.603856 -115.72794 
L 82.20586 -125.20263 
L 80.807865 -132.625066 
L 79.409869 -145.228705 
L 78.011873 -142.432499 
L 76.613878 -143.988417 
L 75.215882 -147.363987 
L 73.817886 -145.041466 
L 72.41989 -141.987188 
L 71.021895 -153.551859 
L 69.623899 -156.650881 
L 68.225903 -162.962692 
L 66.827908 -169.981858 
L 65.429912 -165.850236 
L 64.031916 -175.006825 
L 62.63392 -178.456976 
z
" style="stroke: #134a8e; stroke-opacity: 0.5; stroke-width: 0.5"/>
    </defs>
    <g clip-path="url(#pde7711c6d0)">
     <use xlink:href="#m354bce3b10" x="0" y="198.611875" style="fill: #134a8e; fill-opacity: 0.5; stroke: #134a8e; stroke-opacity: 0.5; stroke-width: 0.5"/>
    </g>
   </g>
   <g id="line2d_27">
    <path d="M 62.63392 13.85745 
L 64.031916 16.273223 
L 65.429912 26.472122 
L 66.827908 22.880289 
L 68.225903 29.802164 
L 69.623899 35.724912 
L 71.021895 39.475812 
L 72.41989 51.921407 
L 73.817886 48.561567 
L 75.215882 45.562171 
L 76.613878 49.482878 
L 78.011873 51.043547 
L 79.409869 48.686052 
L 80.807865 61.139842 
L 82.20586 68.91267 
L 83.603856 77.851308 
L 85.001852 81.506207 
L 86.399847 85.977863 
L 87.797843 86.890644 
L 89.195839 89.450675 
L 90.593835 87.145996 
L 91.99183 97.649442 
L 93.389826 97.608266 
L 94.787822 91.318108 
L 96.185817 92.567655 
L 97.583813 97.688246 
L 98.981809 106.487327 
L 100.379804 103.636137 
L 101.7778 104.009702 
L 103.175796 103.935749 
L 104.573792 104.07102 
L 105.971787 102.884746 
L 107.369783 110.875172 
L 108.767779 113.091176 
L 110.165774 117.739468 
L 111.56377 114.941494 
L 112.961766 117.885343 
L 114.359762 125.859158 
L 115.757757 127.100303 
L 117.155753 127.133121 
L 118.553749 126.103115 
L 119.951744 125.479925 
L 121.34974 126.277911 
L 122.747736 124.217172 
L 124.145731 124.536941 
L 125.543727 123.725602 
L 126.941723 123.176753 
L 128.339719 123.091794 
L 129.737714 122.371293 
L 131.13571 122.867329 
L 132.533706 124.443731 
L 133.931701 121.668337 
L 135.329697 126.755756 
L 136.727693 127.706624 
L 138.125689 127.857965 
L 140.92168 129.103606 
L 142.319676 130.305785 
L 143.717671 130.681372 
L 145.115667 130.389651 
L 147.911658 130.173241 
L 149.309654 131.580397 
L 150.70765 128.985375 
L 152.105646 129.147462 
L 153.503641 129.06543 
L 154.901637 129.981739 
L 156.299633 130.421579 
L 157.697628 129.25873 
L 159.095624 130.104357 
L 160.49362 128.838612 
L 161.891616 129.938921 
L 163.289611 129.948262 
L 164.687607 132.100256 
L 166.085603 131.933001 
L 167.483598 130.773369 
L 168.881594 130.11272 
L 170.27959 133.244794 
L 173.075581 134.013159 
L 174.473577 133.919981 
L 175.871573 135.984404 
L 177.269568 134.602312 
L 178.667564 136.275084 
L 180.06556 136.684355 
L 182.861551 136.955738 
L 184.259547 138.432041 
L 185.657543 138.185135 
L 187.055538 138.30195 
L 188.453534 138.649157 
L 189.85153 138.482802 
L 191.249525 139.724313 
L 192.647521 145.922746 
L 194.045517 146.161076 
L 195.443512 145.855182 
L 196.841508 147.140237 
L 198.239504 147.299168 
L 199.6375 145.87246 
L 201.035495 149.678478 
L 203.831487 149.50592 
L 205.229482 148.328985 
L 208.025474 148.601097 
L 209.423469 148.500065 
L 210.821465 148.533511 
L 212.219461 148.401562 
L 213.617457 145.862637 
L 215.015452 145.862561 
L 216.413448 147.346591 
L 217.811444 148.454188 
L 219.209439 148.299733 
L 220.607435 148.430307 
L 222.005431 147.178581 
L 224.801422 147.533107 
L 226.199418 147.476329 
L 227.597414 146.188385 
L 228.995409 146.443091 
L 233.189396 146.451107 
L 234.587392 146.375138 
L 235.985388 142.57592 
L 238.781379 142.315479 
L 240.179375 143.059759 
L 241.577371 141.784735 
L 242.975366 142.917944 
L 244.373362 140.594667 
L 245.771358 140.250831 
L 247.169354 139.713565 
L 248.567349 139.977604 
L 249.965345 139.063877 
L 251.363341 139.04024 
L 252.761336 137.009628 
L 254.159332 134.057863 
L 255.557328 133.943496 
L 256.955323 133.511162 
L 258.353319 134.009885 
L 259.751315 133.341816 
L 262.547306 129.312257 
L 263.945302 120.824078 
L 265.343298 118.735833 
L 266.741293 115.768278 
L 268.139289 115.272872 
L 269.537285 115.188647 
L 270.935281 113.177154 
L 272.333276 114.309595 
L 273.731272 114.116336 
L 275.129268 113.595237 
L 277.925259 110.702659 
L 279.323255 111.350755 
L 280.72125 112.128229 
L 282.119246 111.422653 
L 283.517242 113.25094 
L 284.915238 113.183904 
L 286.313233 112.603191 
L 287.711229 113.023597 
L 289.109225 113.004296 
L 290.50722 109.27851 
L 291.905216 109.87256 
L 293.303212 109.299474 
L 294.701207 109.518333 
L 296.099203 108.642585 
L 297.497199 109.536114 
L 298.895195 108.222914 
L 300.29319 108.349646 
L 301.691186 108.10678 
L 303.089182 106.347781 
L 304.487177 106.020132 
L 305.885173 103.686871 
L 307.283169 103.612332 
L 308.681165 106.771837 
L 310.07916 105.840387 
L 311.477156 103.440897 
L 312.875152 103.397587 
L 314.273147 103.780737 
L 315.671143 103.488908 
L 317.069139 103.322848 
L 318.467134 102.894654 
L 319.86513 103.311082 
L 321.263126 102.072984 
L 322.661122 101.455499 
L 324.059117 101.09104 
L 325.457113 101.633015 
L 326.855109 101.973384 
L 329.6511 100.746042 
L 331.049096 100.260591 
L 332.447092 100.100222 
L 333.845087 100.10089 
L 335.243083 99.911867 
L 336.641079 100.629996 
L 338.039074 98.340104 
L 340.835066 103.314352 
L 342.233061 105.47271 
L 343.631057 105.00904 
L 346.427049 102.664877 
L 347.825044 105.085578 
L 349.22304 104.88603 
L 350.621036 106.052406 
L 352.019031 106.218673 
L 353.417027 109.204709 
L 354.815023 112.633982 
L 356.213019 112.474258 
L 357.611014 115.874649 
L 359.00901 113.79194 
L 361.805001 121.528229 
L 363.202997 129.610233 
L 364.600993 130.168775 
L 365.998988 130.577793 
L 367.396984 133.621359 
L 368.79498 133.847747 
L 370.192976 135.682435 
L 371.590971 135.762767 
L 372.988967 138.927257 
L 374.386963 143.909752 
L 375.784958 143.699299 
L 377.182954 145.52077 
L 378.58095 146.317821 
L 379.978946 146.917745 
L 381.376941 149.219813 
L 382.774937 150.256057 
L 384.172933 150.523462 
L 385.570928 150.085009 
L 388.36692 150.439416 
L 389.764915 152.957064 
L 391.162911 153.044902 
L 392.560907 152.972622 
L 393.958903 153.139189 
L 396.754894 152.928991 
L 398.15289 153.060309 
L 399.550885 156.328868 
L 400.948881 156.023627 
L 403.744872 156.659439 
L 405.142868 156.229515 
L 406.540864 156.50821 
L 407.93886 156.59579 
L 412.132847 156.412191 
L 413.530842 156.275776 
L 414.928838 156.452123 
L 417.72483 156.242411 
L 417.72483 156.242411 
" clip-path="url(#pde7711c6d0)" style="fill: none; stroke: #134a8e; stroke-width: 3; stroke-linecap: square"/>
    <defs>
     <path id="m12d7de592f" d="M 0 1.5 
C 0.397805 1.5 0.77937 1.341951 1.06066 1.06066 
C 1.341951 0.77937 1.5 0.397805 1.5 0 
C 1.5 -0.397805 1.341951 -0.77937 1.06066 -1.06066 
C 0.77937 -1.341951 0.397805 -1.5 0 -1.5 
C -0.397805 -1.5 -0.77937 -1.341951 -1.06066 -1.06066 
C -1.341951 -0.77937 -1.5 -0.397805 -1.5 0 
C -1.5 0.397805 -1.341951 0.77937 -1.06066 1.06066 
C -0.77937 1.341951 -0.397805 1.5 0 1.5 
z
" style="stroke: #134a8e"/>
    </defs>
    <g clip-path="url(#pde7711c6d0)">
     <use xlink:href="#m12d7de592f" x="62.63392" y="13.85745" style="fill: #134a8e; stroke: #134a8e"/>
     <use xlink:href="#m12d7de592f" x="64.031916" y="16.273223" style="fill: #134a8e; stroke: #134a8e"/>
     <use xlink:href="#m12d7de592f" x="65.429912" y="26.472122" style="fill: #134a8e; stroke: #134a8e"/>
     <use xlink:href="#m12d7de592f" x="66.827908" y="22.880289" style="fill: #134a8e; stroke: #134a8e"/>
     <use xlink:href="#m12d7de592f" x="68.225903" y="29.802164" style="fill: #134a8e; stroke: #134a8e"/>
     <use xlink:href="#m12d7de592f" x="69.623899" y="35.724912" style="fill: #134a8e; stroke: #134a8e"/>
     <use xlink:href="#m12d7de592f" x="71.021895" y="39.475812" style="fill: #134a8e; stroke: #134a8e"/>
     <use xlink:href="#m12d7de592f" x="72.41989" y="51.921407" style="fill: #134a8e; stroke: #134a8e"/>
     <use xlink:href="#m12d7de592f" x="73.817886" y="48.561567" style="fill: #134a8e; stroke: #134a8e"/>
     <use xlink:href="#m12d7de592f" x="75.215882" y="45.562171" style="fill: #134a8e; stroke: #134a8e"/>
     <use xlink:href="#m12d7de592f" x="76.613878" y="49.482878" style="fill: #134a8e; stroke: #134a8e"/>
     <use xlink:href="#m12d7de592f" x="78.011873" y="51.043547" style="fill: #134a8e; stroke: #134a8e"/>
     <use xlink:href="#m12d7de592f" x="79.409869" y="48.686052" style="fill: #134a8e; stroke: #134a8e"/>
     <use xlink:href="#m12d7de592f" x="80.807865" y="61.139842" style="fill: #134a8e; stroke: #134a8e"/>
     <use xlink:href="#m12d7de592f" x="82.20586" y="68.91267" style="fill: #134a8e; stroke: #134a8e"/>
     <use xlink:href="#m12d7de592f" x="83.603856" y="77.851308" style="fill: #134a8e; stroke: #134a8e"/>
     <use xlink:href="#m12d7de592f" x="85.001852" y="81.506207" style="fill: #134a8e; stroke: #134a8e"/>
     <use xlink:href="#m12d7de592f" x="86.399847" y="85.977863" style="fill: #134a8e; stroke: #134a8e"/>
     <use xlink:href="#m12d7de592f" x="87.797843" y="86.890644" style="fill: #134a8e; stroke: #134a8e"/>
     <use xlink:href="#m12d7de592f" x="89.195839" y="89.450675" style="fill: #134a8e; stroke: #134a8e"/>
     <use xlink:href="#m12d7de592f" x="90.593835" y="87.145996" style="fill: #134a8e; stroke: #134a8e"/>
     <use xlink:href="#m12d7de592f" x="91.99183" y="97.649442" style="fill: #134a8e; stroke: #134a8e"/>
     <use xlink:href="#m12d7de592f" x="93.389826" y="97.608266" style="fill: #134a8e; stroke: #134a8e"/>
     <use xlink:href="#m12d7de592f" x="94.787822" y="91.318108" style="fill: #134a8e; stroke: #134a8e"/>
     <use xlink:href="#m12d7de592f" x="96.185817" y="92.567655" style="fill: #134a8e; stroke: #134a8e"/>
     <use xlink:href="#m12d7de592f" x="97.583813" y="97.688246" style="fill: #134a8e; stroke: #134a8e"/>
     <use xlink:href="#m12d7de592f" x="98.981809" y="106.487327" style="fill: #134a8e; stroke: #134a8e"/>
     <use xlink:href="#m12d7de592f" x="100.379804" y="103.636137" style="fill: #134a8e; stroke: #134a8e"/>
     <use xlink:href="#m12d7de592f" x="101.7778" y="104.009702" style="fill: #134a8e; stroke: #134a8e"/>
     <use xlink:href="#m12d7de592f" x="103.175796" y="103.935749" style="fill: #134a8e; stroke: #134a8e"/>
     <use xlink:href="#m12d7de592f" x="104.573792" y="104.07102" style="fill: #134a8e; stroke: #134a8e"/>
     <use xlink:href="#m12d7de592f" x="105.971787" y="102.884746" style="fill: #134a8e; stroke: #134a8e"/>
     <use xlink:href="#m12d7de592f" x="107.369783" y="110.875172" style="fill: #134a8e; stroke: #134a8e"/>
     <use xlink:href="#m12d7de592f" x="108.767779" y="113.091176" style="fill: #134a8e; stroke: #134a8e"/>
     <use xlink:href="#m12d7de592f" x="110.165774" y="117.739468" style="fill: #134a8e; stroke: #134a8e"/>
     <use xlink:href="#m12d7de592f" x="111.56377" y="114.941494" style="fill: #134a8e; stroke: #134a8e"/>
     <use xlink:href="#m12d7de592f" x="112.961766" y="117.885343" style="fill: #134a8e; stroke: #134a8e"/>
     <use xlink:href="#m12d7de592f" x="114.359762" y="125.859158" style="fill: #134a8e; stroke: #134a8e"/>
     <use xlink:href="#m12d7de592f" x="115.757757" y="127.100303" style="fill: #134a8e; stroke: #134a8e"/>
     <use xlink:href="#m12d7de592f" x="117.155753" y="127.133121" style="fill: #134a8e; stroke: #134a8e"/>
     <use xlink:href="#m12d7de592f" x="118.553749" y="126.103115" style="fill: #134a8e; stroke: #134a8e"/>
     <use xlink:href="#m12d7de592f" x="119.951744" y="125.479925" style="fill: #134a8e; stroke: #134a8e"/>
     <use xlink:href="#m12d7de592f" x="121.34974" y="126.277911" style="fill: #134a8e; stroke: #134a8e"/>
     <use xlink:href="#m12d7de592f" x="122.747736" y="124.217172" style="fill: #134a8e; stroke: #134a8e"/>
     <use xlink:href="#m12d7de592f" x="124.145731" y="124.536941" style="fill: #134a8e; stroke: #134a8e"/>
     <use xlink:href="#m12d7de592f" x="125.543727" y="123.725602" style="fill: #134a8e; stroke: #134a8e"/>
     <use xlink:href="#m12d7de592f" x="126.941723" y="123.176753" style="fill: #134a8e; stroke: #134a8e"/>
     <use xlink:href="#m12d7de592f" x="128.339719" y="123.091794" style="fill: #134a8e; stroke: #134a8e"/>
     <use xlink:href="#m12d7de592f" x="129.737714" y="122.371293" style="fill: #134a8e; stroke: #134a8e"/>
     <use xlink:href="#m12d7de592f" x="131.13571" y="122.867329" style="fill: #134a8e; stroke: #134a8e"/>
     <use xlink:href="#m12d7de592f" x="132.533706" y="124.443731" style="fill: #134a8e; stroke: #134a8e"/>
     <use xlink:href="#m12d7de592f" x="133.931701" y="121.668337" style="fill: #134a8e; stroke: #134a8e"/>
     <use xlink:href="#m12d7de592f" x="135.329697" y="126.755756" style="fill: #134a8e; stroke: #134a8e"/>
     <use xlink:href="#m12d7de592f" x="136.727693" y="127.706624" style="fill: #134a8e; stroke: #134a8e"/>
     <use xlink:href="#m12d7de592f" x="138.125689" y="127.857965" style="fill: #134a8e; stroke: #134a8e"/>
     <use xlink:href="#m12d7de592f" x="139.523684" y="128.441847" style="fill: #134a8e; stroke: #134a8e"/>
     <use xlink:href="#m12d7de592f" x="140.92168" y="129.103606" style="fill: #134a8e; stroke: #134a8e"/>
     <use xlink:href="#m12d7de592f" x="142.319676" y="130.305785" style="fill: #134a8e; stroke: #134a8e"/>
     <use xlink:href="#m12d7de592f" x="143.717671" y="130.681372" style="fill: #134a8e; stroke: #134a8e"/>
     <use xlink:href="#m12d7de592f" x="145.115667" y="130.389651" style="fill: #134a8e; stroke: #134a8e"/>
     <use xlink:href="#m12d7de592f" x="146.513663" y="130.274011" style="fill: #134a8e; stroke: #134a8e"/>
     <use xlink:href="#m12d7de592f" x="147.911658" y="130.173241" style="fill: #134a8e; stroke: #134a8e"/>
     <use xlink:href="#m12d7de592f" x="149.309654" y="131.580397" style="fill: #134a8e; stroke: #134a8e"/>
     <use xlink:href="#m12d7de592f" x="150.70765" y="128.985375" style="fill: #134a8e; stroke: #134a8e"/>
     <use xlink:href="#m12d7de592f" x="152.105646" y="129.147462" style="fill: #134a8e; stroke: #134a8e"/>
     <use xlink:href="#m12d7de592f" x="153.503641" y="129.06543" style="fill: #134a8e; stroke: #134a8e"/>
     <use xlink:href="#m12d7de592f" x="154.901637" y="129.981739" style="fill: #134a8e; stroke: #134a8e"/>
     <use xlink:href="#m12d7de592f" x="156.299633" y="130.421579" style="fill: #134a8e; stroke: #134a8e"/>
     <use xlink:href="#m12d7de592f" x="157.697628" y="129.25873" style="fill: #134a8e; stroke: #134a8e"/>
     <use xlink:href="#m12d7de592f" x="159.095624" y="130.104357" style="fill: #134a8e; stroke: #134a8e"/>
     <use xlink:href="#m12d7de592f" x="160.49362" y="128.838612" style="fill: #134a8e; stroke: #134a8e"/>
     <use xlink:href="#m12d7de592f" x="161.891616" y="129.938921" style="fill: #134a8e; stroke: #134a8e"/>
     <use xlink:href="#m12d7de592f" x="163.289611" y="129.948262" style="fill: #134a8e; stroke: #134a8e"/>
     <use xlink:href="#m12d7de592f" x="164.687607" y="132.100256" style="fill: #134a8e; stroke: #134a8e"/>
     <use xlink:href="#m12d7de592f" x="166.085603" y="131.933001" style="fill: #134a8e; stroke: #134a8e"/>
     <use xlink:href="#m12d7de592f" x="167.483598" y="130.773369" style="fill: #134a8e; stroke: #134a8e"/>
     <use xlink:href="#m12d7de592f" x="168.881594" y="130.11272" style="fill: #134a8e; stroke: #134a8e"/>
     <use xlink:href="#m12d7de592f" x="170.27959" y="133.244794" style="fill: #134a8e; stroke: #134a8e"/>
     <use xlink:href="#m12d7de592f" x="171.677585" y="133.617308" style="fill: #134a8e; stroke: #134a8e"/>
     <use xlink:href="#m12d7de592f" x="173.075581" y="134.013159" style="fill: #134a8e; stroke: #134a8e"/>
     <use xlink:href="#m12d7de592f" x="174.473577" y="133.919981" style="fill: #134a8e; stroke: #134a8e"/>
     <use xlink:href="#m12d7de592f" x="175.871573" y="135.984404" style="fill: #134a8e; stroke: #134a8e"/>
     <use xlink:href="#m12d7de592f" x="177.269568" y="134.602312" style="fill: #134a8e; stroke: #134a8e"/>
     <use xlink:href="#m12d7de592f" x="178.667564" y="136.275084" style="fill: #134a8e; stroke: #134a8e"/>
     <use xlink:href="#m12d7de592f" x="180.06556" y="136.684355" style="fill: #134a8e; stroke: #134a8e"/>
     <use xlink:href="#m12d7de592f" x="181.463555" y="136.777004" style="fill: #134a8e; stroke: #134a8e"/>
     <use xlink:href="#m12d7de592f" x="182.861551" y="136.955738" style="fill: #134a8e; stroke: #134a8e"/>
     <use xlink:href="#m12d7de592f" x="184.259547" y="138.432041" style="fill: #134a8e; stroke: #134a8e"/>
     <use xlink:href="#m12d7de592f" x="185.657543" y="138.185135" style="fill: #134a8e; stroke: #134a8e"/>
     <use xlink:href="#m12d7de592f" x="187.055538" y="138.30195" style="fill: #134a8e; stroke: #134a8e"/>
     <use xlink:href="#m12d7de592f" x="188.453534" y="138.649157" style="fill: #134a8e; stroke: #134a8e"/>
     <use xlink:href="#m12d7de592f" x="189.85153" y="138.482802" style="fill: #134a8e; stroke: #134a8e"/>
     <use xlink:href="#m12d7de592f" x="191.249525" y="139.724313" style="fill: #134a8e; stroke: #134a8e"/>
     <use xlink:href="#m12d7de592f" x="192.647521" y="145.922746" style="fill: #134a8e; stroke: #134a8e"/>
     <use xlink:href="#m12d7de592f" x="194.045517" y="146.161076" style="fill: #134a8e; stroke: #134a8e"/>
     <use xlink:href="#m12d7de592f" x="195.443512" y="145.855182" style="fill: #134a8e; stroke: #134a8e"/>
     <use xlink:href="#m12d7de592f" x="196.841508" y="147.140237" style="fill: #134a8e; stroke: #134a8e"/>
     <use xlink:href="#m12d7de592f" x="198.239504" y="147.299168" style="fill: #134a8e; stroke: #134a8e"/>
     <use xlink:href="#m12d7de592f" x="199.6375" y="145.87246" style="fill: #134a8e; stroke: #134a8e"/>
     <use xlink:href="#m12d7de592f" x="201.035495" y="149.678478" style="fill: #134a8e; stroke: #134a8e"/>
     <use xlink:href="#m12d7de592f" x="202.433491" y="149.560513" style="fill: #134a8e; stroke: #134a8e"/>
     <use xlink:href="#m12d7de592f" x="203.831487" y="149.50592" style="fill: #134a8e; stroke: #134a8e"/>
     <use xlink:href="#m12d7de592f" x="205.229482" y="148.328985" style="fill: #134a8e; stroke: #134a8e"/>
     <use xlink:href="#m12d7de592f" x="206.627478" y="148.484825" style="fill: #134a8e; stroke: #134a8e"/>
     <use xlink:href="#m12d7de592f" x="208.025474" y="148.601097" style="fill: #134a8e; stroke: #134a8e"/>
     <use xlink:href="#m12d7de592f" x="209.423469" y="148.500065" style="fill: #134a8e; stroke: #134a8e"/>
     <use xlink:href="#m12d7de592f" x="210.821465" y="148.533511" style="fill: #134a8e; stroke: #134a8e"/>
     <use xlink:href="#m12d7de592f" x="212.219461" y="148.401562" style="fill: #134a8e; stroke: #134a8e"/>
     <use xlink:href="#m12d7de592f" x="213.617457" y="145.862637" style="fill: #134a8e; stroke: #134a8e"/>
     <use xlink:href="#m12d7de592f" x="215.015452" y="145.862561" style="fill: #134a8e; stroke: #134a8e"/>
     <use xlink:href="#m12d7de592f" x="216.413448" y="147.346591" style="fill: #134a8e; stroke: #134a8e"/>
     <use xlink:href="#m12d7de592f" x="217.811444" y="148.454188" style="fill: #134a8e; stroke: #134a8e"/>
     <use xlink:href="#m12d7de592f" x="219.209439" y="148.299733" style="fill: #134a8e; stroke: #134a8e"/>
     <use xlink:href="#m12d7de592f" x="220.607435" y="148.430307" style="fill: #134a8e; stroke: #134a8e"/>
     <use xlink:href="#m12d7de592f" x="222.005431" y="147.178581" style="fill: #134a8e; stroke: #134a8e"/>
     <use xlink:href="#m12d7de592f" x="223.403427" y="147.391949" style="fill: #134a8e; stroke: #134a8e"/>
     <use xlink:href="#m12d7de592f" x="224.801422" y="147.533107" style="fill: #134a8e; stroke: #134a8e"/>
     <use xlink:href="#m12d7de592f" x="226.199418" y="147.476329" style="fill: #134a8e; stroke: #134a8e"/>
     <use xlink:href="#m12d7de592f" x="227.597414" y="146.188385" style="fill: #134a8e; stroke: #134a8e"/>
     <use xlink:href="#m12d7de592f" x="228.995409" y="146.443091" style="fill: #134a8e; stroke: #134a8e"/>
     <use xlink:href="#m12d7de592f" x="230.393405" y="146.470476" style="fill: #134a8e; stroke: #134a8e"/>
     <use xlink:href="#m12d7de592f" x="231.791401" y="146.409673" style="fill: #134a8e; stroke: #134a8e"/>
     <use xlink:href="#m12d7de592f" x="233.189396" y="146.451107" style="fill: #134a8e; stroke: #134a8e"/>
     <use xlink:href="#m12d7de592f" x="234.587392" y="146.375138" style="fill: #134a8e; stroke: #134a8e"/>
     <use xlink:href="#m12d7de592f" x="235.985388" y="142.57592" style="fill: #134a8e; stroke: #134a8e"/>
     <use xlink:href="#m12d7de592f" x="237.383384" y="142.468247" style="fill: #134a8e; stroke: #134a8e"/>
     <use xlink:href="#m12d7de592f" x="238.781379" y="142.315479" style="fill: #134a8e; stroke: #134a8e"/>
     <use xlink:href="#m12d7de592f" x="240.179375" y="143.059759" style="fill: #134a8e; stroke: #134a8e"/>
     <use xlink:href="#m12d7de592f" x="241.577371" y="141.784735" style="fill: #134a8e; stroke: #134a8e"/>
     <use xlink:href="#m12d7de592f" x="242.975366" y="142.917944" style="fill: #134a8e; stroke: #134a8e"/>
     <use xlink:href="#m12d7de592f" x="244.373362" y="140.594667" style="fill: #134a8e; stroke: #134a8e"/>
     <use xlink:href="#m12d7de592f" x="245.771358" y="140.250831" style="fill: #134a8e; stroke: #134a8e"/>
     <use xlink:href="#m12d7de592f" x="247.169354" y="139.713565" style="fill: #134a8e; stroke: #134a8e"/>
     <use xlink:href="#m12d7de592f" x="248.567349" y="139.977604" style="fill: #134a8e; stroke: #134a8e"/>
     <use xlink:href="#m12d7de592f" x="249.965345" y="139.063877" style="fill: #134a8e; stroke: #134a8e"/>
     <use xlink:href="#m12d7de592f" x="251.363341" y="139.04024" style="fill: #134a8e; stroke: #134a8e"/>
     <use xlink:href="#m12d7de592f" x="252.761336" y="137.009628" style="fill: #134a8e; stroke: #134a8e"/>
     <use xlink:href="#m12d7de592f" x="254.159332" y="134.057863" style="fill: #134a8e; stroke: #134a8e"/>
     <use xlink:href="#m12d7de592f" x="255.557328" y="133.943496" style="fill: #134a8e; stroke: #134a8e"/>
     <use xlink:href="#m12d7de592f" x="256.955323" y="133.511162" style="fill: #134a8e; stroke: #134a8e"/>
     <use xlink:href="#m12d7de592f" x="258.353319" y="134.009885" style="fill: #134a8e; stroke: #134a8e"/>
     <use xlink:href="#m12d7de592f" x="259.751315" y="133.341816" style="fill: #134a8e; stroke: #134a8e"/>
     <use xlink:href="#m12d7de592f" x="261.149311" y="131.335058" style="fill: #134a8e; stroke: #134a8e"/>
     <use xlink:href="#m12d7de592f" x="262.547306" y="129.312257" style="fill: #134a8e; stroke: #134a8e"/>
     <use xlink:href="#m12d7de592f" x="263.945302" y="120.824078" style="fill: #134a8e; stroke: #134a8e"/>
     <use xlink:href="#m12d7de592f" x="265.343298" y="118.735833" style="fill: #134a8e; stroke: #134a8e"/>
     <use xlink:href="#m12d7de592f" x="266.741293" y="115.768278" style="fill: #134a8e; stroke: #134a8e"/>
     <use xlink:href="#m12d7de592f" x="268.139289" y="115.272872" style="fill: #134a8e; stroke: #134a8e"/>
     <use xlink:href="#m12d7de592f" x="269.537285" y="115.188647" style="fill: #134a8e; stroke: #134a8e"/>
     <use xlink:href="#m12d7de592f" x="270.935281" y="113.177154" style="fill: #134a8e; stroke: #134a8e"/>
     <use xlink:href="#m12d7de592f" x="272.333276" y="114.309595" style="fill: #134a8e; stroke: #134a8e"/>
     <use xlink:href="#m12d7de592f" x="273.731272" y="114.116336" style="fill: #134a8e; stroke: #134a8e"/>
     <use xlink:href="#m12d7de592f" x="275.129268" y="113.595237" style="fill: #134a8e; stroke: #134a8e"/>
     <use xlink:href="#m12d7de592f" x="276.527263" y="112.220405" style="fill: #134a8e; stroke: #134a8e"/>
     <use xlink:href="#m12d7de592f" x="277.925259" y="110.702659" style="fill: #134a8e; stroke: #134a8e"/>
     <use xlink:href="#m12d7de592f" x="279.323255" y="111.350755" style="fill: #134a8e; stroke: #134a8e"/>
     <use xlink:href="#m12d7de592f" x="280.72125" y="112.128229" style="fill: #134a8e; stroke: #134a8e"/>
     <use xlink:href="#m12d7de592f" x="282.119246" y="111.422653" style="fill: #134a8e; stroke: #134a8e"/>
     <use xlink:href="#m12d7de592f" x="283.517242" y="113.25094" style="fill: #134a8e; stroke: #134a8e"/>
     <use xlink:href="#m12d7de592f" x="284.915238" y="113.183904" style="fill: #134a8e; stroke: #134a8e"/>
     <use xlink:href="#m12d7de592f" x="286.313233" y="112.603191" style="fill: #134a8e; stroke: #134a8e"/>
     <use xlink:href="#m12d7de592f" x="287.711229" y="113.023597" style="fill: #134a8e; stroke: #134a8e"/>
     <use xlink:href="#m12d7de592f" x="289.109225" y="113.004296" style="fill: #134a8e; stroke: #134a8e"/>
     <use xlink:href="#m12d7de592f" x="290.50722" y="109.27851" style="fill: #134a8e; stroke: #134a8e"/>
     <use xlink:href="#m12d7de592f" x="291.905216" y="109.87256" style="fill: #134a8e; stroke: #134a8e"/>
     <use xlink:href="#m12d7de592f" x="293.303212" y="109.299474" style="fill: #134a8e; stroke: #134a8e"/>
     <use xlink:href="#m12d7de592f" x="294.701207" y="109.518333" style="fill: #134a8e; stroke: #134a8e"/>
     <use xlink:href="#m12d7de592f" x="296.099203" y="108.642585" style="fill: #134a8e; stroke: #134a8e"/>
     <use xlink:href="#m12d7de592f" x="297.497199" y="109.536114" style="fill: #134a8e; stroke: #134a8e"/>
     <use xlink:href="#m12d7de592f" x="298.895195" y="108.222914" style="fill: #134a8e; stroke: #134a8e"/>
     <use xlink:href="#m12d7de592f" x="300.29319" y="108.349646" style="fill: #134a8e; stroke: #134a8e"/>
     <use xlink:href="#m12d7de592f" x="301.691186" y="108.10678" style="fill: #134a8e; stroke: #134a8e"/>
     <use xlink:href="#m12d7de592f" x="303.089182" y="106.347781" style="fill: #134a8e; stroke: #134a8e"/>
     <use xlink:href="#m12d7de592f" x="304.487177" y="106.020132" style="fill: #134a8e; stroke: #134a8e"/>
     <use xlink:href="#m12d7de592f" x="305.885173" y="103.686871" style="fill: #134a8e; stroke: #134a8e"/>
     <use xlink:href="#m12d7de592f" x="307.283169" y="103.612332" style="fill: #134a8e; stroke: #134a8e"/>
     <use xlink:href="#m12d7de592f" x="308.681165" y="106.771837" style="fill: #134a8e; stroke: #134a8e"/>
     <use xlink:href="#m12d7de592f" x="310.07916" y="105.840387" style="fill: #134a8e; stroke: #134a8e"/>
     <use xlink:href="#m12d7de592f" x="311.477156" y="103.440897" style="fill: #134a8e; stroke: #134a8e"/>
     <use xlink:href="#m12d7de592f" x="312.875152" y="103.397587" style="fill: #134a8e; stroke: #134a8e"/>
     <use xlink:href="#m12d7de592f" x="314.273147" y="103.780737" style="fill: #134a8e; stroke: #134a8e"/>
     <use xlink:href="#m12d7de592f" x="315.671143" y="103.488908" style="fill: #134a8e; stroke: #134a8e"/>
     <use xlink:href="#m12d7de592f" x="317.069139" y="103.322848" style="fill: #134a8e; stroke: #134a8e"/>
     <use xlink:href="#m12d7de592f" x="318.467134" y="102.894654" style="fill: #134a8e; stroke: #134a8e"/>
     <use xlink:href="#m12d7de592f" x="319.86513" y="103.311082" style="fill: #134a8e; stroke: #134a8e"/>
     <use xlink:href="#m12d7de592f" x="321.263126" y="102.072984" style="fill: #134a8e; stroke: #134a8e"/>
     <use xlink:href="#m12d7de592f" x="322.661122" y="101.455499" style="fill: #134a8e; stroke: #134a8e"/>
     <use xlink:href="#m12d7de592f" x="324.059117" y="101.09104" style="fill: #134a8e; stroke: #134a8e"/>
     <use xlink:href="#m12d7de592f" x="325.457113" y="101.633015" style="fill: #134a8e; stroke: #134a8e"/>
     <use xlink:href="#m12d7de592f" x="326.855109" y="101.973384" style="fill: #134a8e; stroke: #134a8e"/>
     <use xlink:href="#m12d7de592f" x="328.253104" y="101.332965" style="fill: #134a8e; stroke: #134a8e"/>
     <use xlink:href="#m12d7de592f" x="329.6511" y="100.746042" style="fill: #134a8e; stroke: #134a8e"/>
     <use xlink:href="#m12d7de592f" x="331.049096" y="100.260591" style="fill: #134a8e; stroke: #134a8e"/>
     <use xlink:href="#m12d7de592f" x="332.447092" y="100.100222" style="fill: #134a8e; stroke: #134a8e"/>
     <use xlink:href="#m12d7de592f" x="333.845087" y="100.10089" style="fill: #134a8e; stroke: #134a8e"/>
     <use xlink:href="#m12d7de592f" x="335.243083" y="99.911867" style="fill: #134a8e; stroke: #134a8e"/>
     <use xlink:href="#m12d7de592f" x="336.641079" y="100.629996" style="fill: #134a8e; stroke: #134a8e"/>
     <use xlink:href="#m12d7de592f" x="338.039074" y="98.340104" style="fill: #134a8e; stroke: #134a8e"/>
     <use xlink:href="#m12d7de592f" x="339.43707" y="100.866755" style="fill: #134a8e; stroke: #134a8e"/>
     <use xlink:href="#m12d7de592f" x="340.835066" y="103.314352" style="fill: #134a8e; stroke: #134a8e"/>
     <use xlink:href="#m12d7de592f" x="342.233061" y="105.47271" style="fill: #134a8e; stroke: #134a8e"/>
     <use xlink:href="#m12d7de592f" x="343.631057" y="105.00904" style="fill: #134a8e; stroke: #134a8e"/>
     <use xlink:href="#m12d7de592f" x="345.029053" y="103.845032" style="fill: #134a8e; stroke: #134a8e"/>
     <use xlink:href="#m12d7de592f" x="346.427049" y="102.664877" style="fill: #134a8e; stroke: #134a8e"/>
     <use xlink:href="#m12d7de592f" x="347.825044" y="105.085578" style="fill: #134a8e; stroke: #134a8e"/>
     <use xlink:href="#m12d7de592f" x="349.22304" y="104.88603" style="fill: #134a8e; stroke: #134a8e"/>
     <use xlink:href="#m12d7de592f" x="350.621036" y="106.052406" style="fill: #134a8e; stroke: #134a8e"/>
     <use xlink:href="#m12d7de592f" x="352.019031" y="106.218673" style="fill: #134a8e; stroke: #134a8e"/>
     <use xlink:href="#m12d7de592f" x="353.417027" y="109.204709" style="fill: #134a8e; stroke: #134a8e"/>
     <use xlink:href="#m12d7de592f" x="354.815023" y="112.633982" style="fill: #134a8e; stroke: #134a8e"/>
     <use xlink:href="#m12d7de592f" x="356.213019" y="112.474258" style="fill: #134a8e; stroke: #134a8e"/>
     <use xlink:href="#m12d7de592f" x="357.611014" y="115.874649" style="fill: #134a8e; stroke: #134a8e"/>
     <use xlink:href="#m12d7de592f" x="359.00901" y="113.79194" style="fill: #134a8e; stroke: #134a8e"/>
     <use xlink:href="#m12d7de592f" x="360.407006" y="117.654337" style="fill: #134a8e; stroke: #134a8e"/>
     <use xlink:href="#m12d7de592f" x="361.805001" y="121.528229" style="fill: #134a8e; stroke: #134a8e"/>
     <use xlink:href="#m12d7de592f" x="363.202997" y="129.610233" style="fill: #134a8e; stroke: #134a8e"/>
     <use xlink:href="#m12d7de592f" x="364.600993" y="130.168775" style="fill: #134a8e; stroke: #134a8e"/>
     <use xlink:href="#m12d7de592f" x="365.998988" y="130.577793" style="fill: #134a8e; stroke: #134a8e"/>
     <use xlink:href="#m12d7de592f" x="367.396984" y="133.621359" style="fill: #134a8e; stroke: #134a8e"/>
     <use xlink:href="#m12d7de592f" x="368.79498" y="133.847747" style="fill: #134a8e; stroke: #134a8e"/>
     <use xlink:href="#m12d7de592f" x="370.192976" y="135.682435" style="fill: #134a8e; stroke: #134a8e"/>
     <use xlink:href="#m12d7de592f" x="371.590971" y="135.762767" style="fill: #134a8e; stroke: #134a8e"/>
     <use xlink:href="#m12d7de592f" x="372.988967" y="138.927257" style="fill: #134a8e; stroke: #134a8e"/>
     <use xlink:href="#m12d7de592f" x="374.386963" y="143.909752" style="fill: #134a8e; stroke: #134a8e"/>
     <use xlink:href="#m12d7de592f" x="375.784958" y="143.699299" style="fill: #134a8e; stroke: #134a8e"/>
     <use xlink:href="#m12d7de592f" x="377.182954" y="145.52077" style="fill: #134a8e; stroke: #134a8e"/>
     <use xlink:href="#m12d7de592f" x="378.58095" y="146.317821" style="fill: #134a8e; stroke: #134a8e"/>
     <use xlink:href="#m12d7de592f" x="379.978946" y="146.917745" style="fill: #134a8e; stroke: #134a8e"/>
     <use xlink:href="#m12d7de592f" x="381.376941" y="149.219813" style="fill: #134a8e; stroke: #134a8e"/>
     <use xlink:href="#m12d7de592f" x="382.774937" y="150.256057" style="fill: #134a8e; stroke: #134a8e"/>
     <use xlink:href="#m12d7de592f" x="384.172933" y="150.523462" style="fill: #134a8e; stroke: #134a8e"/>
     <use xlink:href="#m12d7de592f" x="385.570928" y="150.085009" style="fill: #134a8e; stroke: #134a8e"/>
     <use xlink:href="#m12d7de592f" x="386.968924" y="150.22214" style="fill: #134a8e; stroke: #134a8e"/>
     <use xlink:href="#m12d7de592f" x="388.36692" y="150.439416" style="fill: #134a8e; stroke: #134a8e"/>
     <use xlink:href="#m12d7de592f" x="389.764915" y="152.957064" style="fill: #134a8e; stroke: #134a8e"/>
     <use xlink:href="#m12d7de592f" x="391.162911" y="153.044902" style="fill: #134a8e; stroke: #134a8e"/>
     <use xlink:href="#m12d7de592f" x="392.560907" y="152.972622" style="fill: #134a8e; stroke: #134a8e"/>
     <use xlink:href="#m12d7de592f" x="393.958903" y="153.139189" style="fill: #134a8e; stroke: #134a8e"/>
     <use xlink:href="#m12d7de592f" x="395.356898" y="153.03401" style="fill: #134a8e; stroke: #134a8e"/>
     <use xlink:href="#m12d7de592f" x="396.754894" y="152.928991" style="fill: #134a8e; stroke: #134a8e"/>
     <use xlink:href="#m12d7de592f" x="398.15289" y="153.060309" style="fill: #134a8e; stroke: #134a8e"/>
     <use xlink:href="#m12d7de592f" x="399.550885" y="156.328868" style="fill: #134a8e; stroke: #134a8e"/>
     <use xlink:href="#m12d7de592f" x="400.948881" y="156.023627" style="fill: #134a8e; stroke: #134a8e"/>
     <use xlink:href="#m12d7de592f" x="402.346877" y="156.352066" style="fill: #134a8e; stroke: #134a8e"/>
     <use xlink:href="#m12d7de592f" x="403.744872" y="156.659439" style="fill: #134a8e; stroke: #134a8e"/>
     <use xlink:href="#m12d7de592f" x="405.142868" y="156.229515" style="fill: #134a8e; stroke: #134a8e"/>
     <use xlink:href="#m12d7de592f" x="406.540864" y="156.50821" style="fill: #134a8e; stroke: #134a8e"/>
     <use xlink:href="#m12d7de592f" x="407.93886" y="156.59579" style="fill: #134a8e; stroke: #134a8e"/>
     <use xlink:href="#m12d7de592f" x="409.336855" y="156.545014" style="fill: #134a8e; stroke: #134a8e"/>
     <use xlink:href="#m12d7de592f" x="410.734851" y="156.596352" style="fill: #134a8e; stroke: #134a8e"/>
     <use xlink:href="#m12d7de592f" x="412.132847" y="156.412191" style="fill: #134a8e; stroke: #134a8e"/>
     <use xlink:href="#m12d7de592f" x="413.530842" y="156.275776" style="fill: #134a8e; stroke: #134a8e"/>
     <use xlink:href="#m12d7de592f" x="414.928838" y="156.452123" style="fill: #134a8e; stroke: #134a8e"/>
     <use xlink:href="#m12d7de592f" x="416.326834" y="156.375201" style="fill: #134a8e; stroke: #134a8e"/>
     <use xlink:href="#m12d7de592f" x="417.72483" y="156.242411" style="fill: #134a8e; stroke: #134a8e"/>
    </g>
   </g>
   <g id="line2d_28">
    <path d="M 62.63392 18.196197 
L 64.031916 23.43775 
L 65.429912 27.995782 
L 66.827908 22.227132 
L 68.225903 29.935709 
L 69.623899 38.919947 
L 71.021895 42.62074 
L 72.41989 47.94141 
L 73.817886 49.956994 
L 75.215882 50.017124 
L 76.613878 52.347329 
L 78.011873 54.303366 
L 79.409869 49.507931 
L 80.807865 66.202169 
L 82.20586 71.409531 
L 83.603856 77.745235 
L 85.001852 81.41226 
L 86.399847 90.065826 
L 89.195839 94.808436 
L 90.593835 94.057695 
L 91.99183 101.066256 
L 93.389826 102.215269 
L 94.787822 96.848383 
L 96.185817 99.802659 
L 97.583813 103.800857 
L 98.981809 111.238048 
L 101.7778 105.705328 
L 103.175796 107.86832 
L 104.573792 108.187442 
L 105.971787 109.71088 
L 107.369783 112.63814 
L 108.767779 116.295491 
L 110.165774 120.593495 
L 111.56377 116.463911 
L 112.961766 120.174884 
L 114.359762 128.037029 
L 115.757757 128.128266 
L 117.155753 128.008851 
L 118.553749 126.920353 
L 119.951744 126.066363 
L 121.34974 125.49643 
L 122.747736 126.090973 
L 124.145731 125.973714 
L 125.543727 123.985453 
L 126.941723 123.515188 
L 129.737714 122.944185 
L 131.13571 123.711546 
L 132.533706 125.246157 
L 133.931701 125.856079 
L 135.329697 127.123597 
L 136.727693 128.004687 
L 138.125689 129.593784 
L 139.523684 131.780779 
L 140.92168 132.215139 
L 142.319676 131.765924 
L 143.717671 132.90943 
L 145.115667 133.037417 
L 146.513663 131.536535 
L 147.911658 131.691937 
L 149.309654 136.095729 
L 150.70765 130.480554 
L 152.105646 131.105855 
L 153.503641 130.98577 
L 154.901637 131.04082 
L 156.299633 132.297424 
L 159.095624 132.024505 
L 160.49362 131.689211 
L 161.891616 132.605984 
L 163.289611 132.473129 
L 164.687607 134.379183 
L 166.085603 134.176199 
L 167.483598 134.154445 
L 168.881594 133.304796 
L 170.27959 135.595659 
L 173.075581 136.452686 
L 175.871573 137.848712 
L 177.269568 137.843806 
L 178.667564 139.95672 
L 180.06556 138.83153 
L 181.463555 140.766611 
L 182.861551 141.068257 
L 184.259547 141.155068 
L 185.657543 142.51205 
L 187.055538 142.887425 
L 188.453534 144.365418 
L 189.85153 143.328458 
L 191.249525 145.267371 
L 192.647521 146.930837 
L 195.443512 147.98751 
L 196.841508 148.874957 
L 198.239504 149.319444 
L 199.6375 148.241592 
L 201.035495 149.547164 
L 202.433491 150.207928 
L 203.831487 149.892584 
L 205.229482 149.382034 
L 206.627478 149.460874 
L 208.025474 149.131102 
L 209.423469 149.11759 
L 210.821465 149.529216 
L 212.219461 149.006107 
L 213.617457 148.318652 
L 215.015452 148.072193 
L 216.413448 148.783058 
L 217.811444 148.738655 
L 219.209439 149.319157 
L 220.607435 148.889776 
L 222.005431 148.793863 
L 223.403427 148.969388 
L 226.199418 149.494077 
L 228.995409 148.985522 
L 230.393405 148.425294 
L 233.189396 148.97251 
L 234.587392 148.660471 
L 235.985388 147.352806 
L 237.383384 146.472691 
L 238.781379 146.420253 
L 240.179375 145.84075 
L 241.577371 145.532207 
L 242.975366 145.060563 
L 244.373362 144.383245 
L 245.771358 143.379476 
L 247.169354 142.547206 
L 248.567349 143.008179 
L 249.965345 141.31765 
L 251.363341 139.814665 
L 252.761336 139.067936 
L 254.159332 136.419056 
L 255.557328 135.643972 
L 256.955323 136.621742 
L 258.353319 136.460707 
L 259.751315 133.661946 
L 261.149311 132.290114 
L 262.547306 131.654195 
L 263.945302 127.852792 
L 265.343298 126.61999 
L 266.741293 125.604274 
L 268.139289 124.418355 
L 269.537285 124.481987 
L 270.935281 123.08576 
L 272.333276 122.897974 
L 273.731272 124.53063 
L 275.129268 123.237582 
L 276.527263 118.35516 
L 277.925259 117.151494 
L 279.323255 119.509972 
L 280.72125 118.102704 
L 282.119246 116.416247 
L 283.517242 119.475216 
L 284.915238 118.792872 
L 286.313233 116.997136 
L 287.711229 117.086538 
L 289.109225 115.95742 
L 290.50722 114.655726 
L 291.905216 113.768605 
L 294.701207 113.970068 
L 296.099203 113.572145 
L 297.497199 114.797144 
L 298.895195 111.830119 
L 300.29319 111.889583 
L 301.691186 112.789032 
L 303.089182 111.44193 
L 304.487177 112.332826 
L 305.885173 111.020664 
L 307.283169 111.495139 
L 308.681165 110.940305 
L 310.07916 110.628443 
L 311.477156 108.66936 
L 312.875152 108.911127 
L 314.273147 108.515757 
L 315.671143 108.891599 
L 317.069139 109.859517 
L 318.467134 109.1332 
L 319.86513 107.702044 
L 321.263126 105.3496 
L 322.661122 105.148299 
L 324.059117 104.825889 
L 326.855109 107.285708 
L 328.253104 103.203668 
L 329.6511 104.905064 
L 331.049096 103.126891 
L 332.447092 101.050774 
L 333.845087 102.615019 
L 335.243083 101.042411 
L 336.641079 101.815133 
L 338.039074 101.332347 
L 339.43707 102.096345 
L 340.835066 103.704969 
L 342.233061 105.075341 
L 343.631057 104.09864 
L 345.029053 106.662258 
L 346.427049 106.18693 
L 347.825044 110.023123 
L 349.22304 110.404158 
L 350.621036 112.946932 
L 352.019031 113.578835 
L 353.417027 114.733455 
L 354.815023 118.400937 
L 356.213019 118.676762 
L 357.611014 119.816942 
L 359.00901 120.530181 
L 360.407006 124.180479 
L 361.805001 126.042661 
L 363.202997 129.339411 
L 365.998988 131.628139 
L 367.396984 133.878118 
L 370.192976 139.133762 
L 371.590971 140.47056 
L 372.988967 143.037157 
L 374.386963 143.616334 
L 375.784958 143.754264 
L 377.182954 146.227921 
L 378.58095 147.691843 
L 379.978946 148.529902 
L 381.376941 149.895374 
L 382.774937 150.852349 
L 384.172933 151.548043 
L 385.570928 151.144506 
L 386.968924 152.317003 
L 388.36692 153.132766 
L 391.162911 154.351642 
L 392.560907 154.276309 
L 393.958903 155.143239 
L 395.356898 154.820892 
L 396.754894 155.628983 
L 398.15289 155.915837 
L 399.550885 156.454422 
L 400.948881 156.474817 
L 402.346877 156.691018 
L 405.142868 156.780687 
L 406.540864 157.355459 
L 407.93886 157.250682 
L 410.734851 157.374947 
L 412.132847 157.667204 
L 413.530842 157.365143 
L 414.928838 158.76 
L 416.326834 156.883378 
L 417.72483 156.93779 
L 417.72483 156.93779 
" clip-path="url(#pde7711c6d0)" style="fill: none; stroke-dasharray: 5.55,2.4; stroke-dashoffset: 0; stroke: #000000; stroke-width: 1.5"/>
   </g>
   <g id="patch_3">
    <path d="M 44.879375 166.32 
L 44.879375 0 
" style="fill: none; stroke: #ffffff; stroke-linejoin: miter; stroke-linecap: square"/>
   </g>
   <g id="patch_4">
    <path d="M 435.479375 166.32 
L 435.479375 0 
" style="fill: none; stroke: #ffffff; stroke-linejoin: miter; stroke-linecap: square"/>
   </g>
   <g id="patch_5">
    <path d="M 44.879375 166.32 
L 435.479375 166.32 
" style="fill: none; stroke: #ffffff; stroke-linejoin: miter; stroke-linecap: square"/>
   </g>
   <g id="patch_6">
    <path d="M 44.879375 0 
L 435.479375 0 
" style="fill: none; stroke: #ffffff; stroke-linejoin: miter; stroke-linecap: square"/>
   </g>
   <g id="legend_1">
    <g id="patch_7">
     <path d="M 276.4325 60.378125 
L 428.479375 60.378125 
Q 430.479375 60.378125 430.479375 58.378125 
L 430.479375 7 
Q 430.479375 5 428.479375 5 
L 276.4325 5 
Q 274.4325 5 274.4325 7 
L 274.4325 58.378125 
Q 274.4325 60.378125 276.4325 60.378125 
z
" style="fill: #e5e5e5; opacity: 0.8; stroke: #cccccc; stroke-width: 0.5; stroke-linejoin: miter"/>
    </g>
    <g id="line2d_29">
     <path d="M 278.4325 15.5 
L 288.4325 15.5 
L 298.4325 15.5 
" style="fill: none; stroke: #134a8e; stroke-width: 3; stroke-linecap: square"/>
     <g>
      <use xlink:href="#m12d7de592f" x="288.4325" y="15.5" style="fill: #134a8e; stroke: #134a8e"/>
     </g>
    </g>
    <g id="text_16">
     <!-- Private Value $\tilde{R}_{\chi_1,\chi_2}^t$ -->
     <g transform="translate(306.4325 19) scale(0.1 -0.1)">
      <defs>
       <path id="DejaVuSans-50" d="M 1259 4147 
L 1259 2394 
L 2053 2394 
Q 2494 2394 2734 2622 
Q 2975 2850 2975 3272 
Q 2975 3691 2734 3919 
Q 2494 4147 2053 4147 
L 1259 4147 
z
M 628 4666 
L 2053 4666 
Q 2838 4666 3239 4311 
Q 3641 3956 3641 3272 
Q 3641 2581 3239 2228 
Q 2838 1875 2053 1875 
L 1259 1875 
L 1259 0 
L 628 0 
L 628 4666 
z
" transform="scale(0.015625)"/>
       <path id="DejaVuSans-72" d="M 2631 2963 
Q 2534 3019 2420 3045 
Q 2306 3072 2169 3072 
Q 1681 3072 1420 2755 
Q 1159 2438 1159 1844 
L 1159 0 
L 581 0 
L 581 3500 
L 1159 3500 
L 1159 2956 
Q 1341 3275 1631 3429 
Q 1922 3584 2338 3584 
Q 2397 3584 2469 3576 
Q 2541 3569 2628 3553 
L 2631 2963 
z
" transform="scale(0.015625)"/>
       <path id="DejaVuSans-69" d="M 603 3500 
L 1178 3500 
L 1178 0 
L 603 0 
L 603 3500 
z
M 603 4863 
L 1178 4863 
L 1178 4134 
L 603 4134 
L 603 4863 
z
" transform="scale(0.015625)"/>
       <path id="DejaVuSans-76" d="M 191 3500 
L 800 3500 
L 1894 563 
L 2988 3500 
L 3597 3500 
L 2284 0 
L 1503 0 
L 191 3500 
z
" transform="scale(0.015625)"/>
       <path id="DejaVuSans-20" transform="scale(0.015625)"/>
       <path id="DejaVuSans-303" d="M -1621 4281 
L -1799 4453 
Q -1867 4516 -1919 4545 
Q -1971 4575 -2011 4575 
Q -2130 4575 -2186 4461 
Q -2242 4347 -2249 4091 
L -2639 4091 
Q -2633 4513 -2473 4742 
Q -2314 4972 -2030 4972 
Q -1911 4972 -1811 4928 
Q -1711 4884 -1596 4781 
L -1417 4609 
Q -1349 4547 -1297 4517 
Q -1246 4488 -1205 4488 
Q -1086 4488 -1030 4602 
Q -974 4716 -967 4972 
L -577 4972 
Q -583 4550 -742 4320 
Q -902 4091 -1186 4091 
Q -1305 4091 -1405 4134 
Q -1505 4178 -1621 4281 
z
" transform="scale(0.015625)"/>
       <path id="DejaVuSans-Oblique-52" d="M 1613 4147 
L 1294 2491 
L 2106 2491 
Q 2584 2491 2879 2755 
Q 3175 3019 3175 3444 
Q 3175 3784 2976 3965 
Q 2778 4147 2406 4147 
L 1613 4147 
z
M 2772 2241 
Q 2972 2194 3105 2009 
Q 3238 1825 3413 1275 
L 3809 0 
L 3144 0 
L 2778 1197 
Q 2638 1659 2453 1815 
Q 2269 1972 1888 1972 
L 1191 1972 
L 806 0 
L 172 0 
L 1081 4666 
L 2503 4666 
Q 3150 4666 3495 4373 
Q 3841 4081 3841 3531 
Q 3841 3044 3547 2687 
Q 3253 2331 2772 2241 
z
" transform="scale(0.015625)"/>
       <path id="DejaVuSans-Oblique-74" d="M 2706 3500 
L 2619 3053 
L 1472 3053 
L 1100 1153 
Q 1081 1047 1072 975 
Q 1063 903 1063 863 
Q 1063 663 1183 572 
Q 1303 481 1569 481 
L 2150 481 
L 2053 0 
L 1503 0 
Q 991 0 739 200 
Q 488 400 488 806 
Q 488 878 497 964 
Q 506 1050 525 1153 
L 897 3053 
L 409 3053 
L 500 3500 
L 978 3500 
L 1172 4494 
L 1747 4494 
L 1556 3500 
L 2706 3500 
z
" transform="scale(0.015625)"/>
       <path id="DejaVuSans-Oblique-3c7" d="M 1922 -781 
L 1691 416 
L 394 -1334 
L -284 -1334 
L 1553 1141 
L 1269 2613 
Q 1194 3006 713 3006 
L 559 3006 
L 653 3500 
L 872 3494 
Q 1675 3472 1775 2950 
L 2006 1753 
L 3303 3503 
L 3981 3503 
L 2144 1028 
L 2428 -444 
Q 2503 -838 2984 -838 
L 3138 -838 
L 3044 -1331 
L 2825 -1325 
Q 2022 -1303 1922 -781 
z
" transform="scale(0.015625)"/>
       <path id="DejaVuSans-2c" d="M 750 794 
L 1409 794 
L 1409 256 
L 897 -744 
L 494 -744 
L 750 256 
L 750 794 
z
" transform="scale(0.015625)"/>
      </defs>
      <use xlink:href="#DejaVuSans-50" transform="translate(0 0.828125)"/>
      <use xlink:href="#DejaVuSans-72" transform="translate(60.302734 0.828125)"/>
      <use xlink:href="#DejaVuSans-69" transform="translate(101.416016 0.828125)"/>
      <use xlink:href="#DejaVuSans-76" transform="translate(129.199219 0.828125)"/>
      <use xlink:href="#DejaVuSans-61" transform="translate(188.378906 0.828125)"/>
      <use xlink:href="#DejaVuSans-74" transform="translate(249.658203 0.828125)"/>
      <use xlink:href="#DejaVuSans-65" transform="translate(288.867188 0.828125)"/>
      <use xlink:href="#DejaVuSans-20" transform="translate(350.390625 0.828125)"/>
      <use xlink:href="#DejaVuSans-56" transform="translate(382.177734 0.828125)"/>
      <use xlink:href="#DejaVuSans-61" transform="translate(450.585938 0.828125)"/>
      <use xlink:href="#DejaVuSans-6c" transform="translate(511.865234 0.828125)"/>
      <use xlink:href="#DejaVuSans-75" transform="translate(539.648438 0.828125)"/>
      <use xlink:href="#DejaVuSans-65" transform="translate(603.027344 0.828125)"/>
      <use xlink:href="#DejaVuSans-20" transform="translate(664.550781 0.828125)"/>
      <use xlink:href="#DejaVuSans-303" transform="translate(764.942871 22.3125)"/>
      <use xlink:href="#DejaVuSans-Oblique-52" transform="translate(696.337891 0.828125)"/>
      <use xlink:href="#DejaVuSans-Oblique-74" transform="translate(766.777344 39.109375) scale(0.7)"/>
      <use xlink:href="#DejaVuSans-Oblique-3c7" transform="translate(766.777344 -26.515625) scale(0.7)"/>
      <use xlink:href="#DejaVuSans-31" transform="translate(808.203125 -38) scale(0.49)"/>
      <use xlink:href="#DejaVuSans-2c" transform="translate(841.29248 -26.515625) scale(0.7)"/>
      <use xlink:href="#DejaVuSans-Oblique-3c7" transform="translate(877.181152 -26.515625) scale(0.7)"/>
      <use xlink:href="#DejaVuSans-32" transform="translate(918.606934 -38) scale(0.49)"/>
     </g>
    </g>
    <g id="line2d_30">
     <path d="M 278.4325 34 
L 288.4325 34 
L 298.4325 34 
" style="fill: none; stroke-dasharray: 5.55,2.4; stroke-dashoffset: 0; stroke: #000000; stroke-width: 1.5"/>
    </g>
    <g id="text_17">
     <!-- Original Value $\bar{R}_{\chi_1,\chi_2}^t$ -->
     <g transform="translate(306.4325 37.5) scale(0.1 -0.1)">
      <defs>
       <path id="DejaVuSans-4f" d="M 2522 4238 
Q 1834 4238 1429 3725 
Q 1025 3213 1025 2328 
Q 1025 1447 1429 934 
Q 1834 422 2522 422 
Q 3209 422 3611 934 
Q 4013 1447 4013 2328 
Q 4013 3213 3611 3725 
Q 3209 4238 2522 4238 
z
M 2522 4750 
Q 3503 4750 4090 4092 
Q 4678 3434 4678 2328 
Q 4678 1225 4090 567 
Q 3503 -91 2522 -91 
Q 1538 -91 948 565 
Q 359 1222 359 2328 
Q 359 3434 948 4092 
Q 1538 4750 2522 4750 
z
" transform="scale(0.015625)"/>
       <path id="DejaVuSans-67" d="M 2906 1791 
Q 2906 2416 2648 2759 
Q 2391 3103 1925 3103 
Q 1463 3103 1205 2759 
Q 947 2416 947 1791 
Q 947 1169 1205 825 
Q 1463 481 1925 481 
Q 2391 481 2648 825 
Q 2906 1169 2906 1791 
z
M 3481 434 
Q 3481 -459 3084 -895 
Q 2688 -1331 1869 -1331 
Q 1566 -1331 1297 -1286 
Q 1028 -1241 775 -1147 
L 775 -588 
Q 1028 -725 1275 -790 
Q 1522 -856 1778 -856 
Q 2344 -856 2625 -561 
Q 2906 -266 2906 331 
L 2906 616 
Q 2728 306 2450 153 
Q 2172 0 1784 0 
Q 1141 0 747 490 
Q 353 981 353 1791 
Q 353 2603 747 3093 
Q 1141 3584 1784 3584 
Q 2172 3584 2450 3431 
Q 2728 3278 2906 2969 
L 2906 3500 
L 3481 3500 
L 3481 434 
z
" transform="scale(0.015625)"/>
       <path id="DejaVuSans-6e" d="M 3513 2113 
L 3513 0 
L 2938 0 
L 2938 2094 
Q 2938 2591 2744 2837 
Q 2550 3084 2163 3084 
Q 1697 3084 1428 2787 
Q 1159 2491 1159 1978 
L 1159 0 
L 581 0 
L 581 3500 
L 1159 3500 
L 1159 2956 
Q 1366 3272 1645 3428 
Q 1925 3584 2291 3584 
Q 2894 3584 3203 3211 
Q 3513 2838 3513 2113 
z
" transform="scale(0.015625)"/>
       <path id="DejaVuSans-304" d="M -2518 4769 
L -650 4769 
L -650 4306 
L -2518 4306 
L -2518 4769 
z
" transform="scale(0.015625)"/>
      </defs>
      <use xlink:href="#DejaVuSans-4f" transform="translate(0 0.359375)"/>
      <use xlink:href="#DejaVuSans-72" transform="translate(78.710938 0.359375)"/>
      <use xlink:href="#DejaVuSans-69" transform="translate(119.824219 0.359375)"/>
      <use xlink:href="#DejaVuSans-67" transform="translate(147.607422 0.359375)"/>
      <use xlink:href="#DejaVuSans-69" transform="translate(211.083984 0.359375)"/>
      <use xlink:href="#DejaVuSans-6e" transform="translate(238.867188 0.359375)"/>
      <use xlink:href="#DejaVuSans-61" transform="translate(302.246094 0.359375)"/>
      <use xlink:href="#DejaVuSans-6c" transform="translate(363.525391 0.359375)"/>
      <use xlink:href="#DejaVuSans-20" transform="translate(391.308594 0.359375)"/>
      <use xlink:href="#DejaVuSans-56" transform="translate(423.095703 0.359375)"/>
      <use xlink:href="#DejaVuSans-61" transform="translate(491.503906 0.359375)"/>
      <use xlink:href="#DejaVuSans-6c" transform="translate(552.783203 0.359375)"/>
      <use xlink:href="#DejaVuSans-75" transform="translate(580.566406 0.359375)"/>
      <use xlink:href="#DejaVuSans-65" transform="translate(643.945312 0.359375)"/>
      <use xlink:href="#DejaVuSans-20" transform="translate(705.46875 0.359375)"/>
      <use xlink:href="#DejaVuSans-304" transform="translate(804.970215 18.484375)"/>
      <use xlink:href="#DejaVuSans-Oblique-52" transform="translate(737.255859 0.359375)"/>
      <use xlink:href="#DejaVuSans-Oblique-74" transform="translate(807.695312 38.640625) scale(0.7)"/>
      <use xlink:href="#DejaVuSans-Oblique-3c7" transform="translate(807.695312 -26.984375) scale(0.7)"/>
      <use xlink:href="#DejaVuSans-31" transform="translate(849.121094 -38.46875) scale(0.49)"/>
      <use xlink:href="#DejaVuSans-2c" transform="translate(882.210449 -26.984375) scale(0.7)"/>
      <use xlink:href="#DejaVuSans-Oblique-3c7" transform="translate(918.099121 -26.984375) scale(0.7)"/>
      <use xlink:href="#DejaVuSans-32" transform="translate(959.524902 -38.46875) scale(0.49)"/>
     </g>
    </g>
    <g id="patch_8">
     <path d="M 278.4325 54.298438 
L 298.4325 54.298438 
L 298.4325 47.298438 
L 278.4325 47.298438 
z
" style="fill: #134a8e; fill-opacity: 0.5; stroke: #134a8e; stroke-opacity: 0.5; stroke-width: 0.5; stroke-linejoin: miter"/>
    </g>
    <g id="text_18">
     <!-- One Standard Deviation -->
     <g transform="translate(306.4325 54.298438) scale(0.1 -0.1)">
      <defs>
       <path id="DejaVuSans-53" d="M 3425 4513 
L 3425 3897 
Q 3066 4069 2747 4153 
Q 2428 4238 2131 4238 
Q 1616 4238 1336 4038 
Q 1056 3838 1056 3469 
Q 1056 3159 1242 3001 
Q 1428 2844 1947 2747 
L 2328 2669 
Q 3034 2534 3370 2195 
Q 3706 1856 3706 1288 
Q 3706 609 3251 259 
Q 2797 -91 1919 -91 
Q 1588 -91 1214 -16 
Q 841 59 441 206 
L 441 856 
Q 825 641 1194 531 
Q 1563 422 1919 422 
Q 2459 422 2753 634 
Q 3047 847 3047 1241 
Q 3047 1584 2836 1778 
Q 2625 1972 2144 2069 
L 1759 2144 
Q 1053 2284 737 2584 
Q 422 2884 422 3419 
Q 422 4038 858 4394 
Q 1294 4750 2059 4750 
Q 2388 4750 2728 4690 
Q 3069 4631 3425 4513 
z
" transform="scale(0.015625)"/>
       <path id="DejaVuSans-64" d="M 2906 2969 
L 2906 4863 
L 3481 4863 
L 3481 0 
L 2906 0 
L 2906 525 
Q 2725 213 2448 61 
Q 2172 -91 1784 -91 
Q 1150 -91 751 415 
Q 353 922 353 1747 
Q 353 2572 751 3078 
Q 1150 3584 1784 3584 
Q 2172 3584 2448 3432 
Q 2725 3281 2906 2969 
z
M 947 1747 
Q 947 1113 1208 752 
Q 1469 391 1925 391 
Q 2381 391 2643 752 
Q 2906 1113 2906 1747 
Q 2906 2381 2643 2742 
Q 2381 3103 1925 3103 
Q 1469 3103 1208 2742 
Q 947 2381 947 1747 
z
" transform="scale(0.015625)"/>
       <path id="DejaVuSans-6f" d="M 1959 3097 
Q 1497 3097 1228 2736 
Q 959 2375 959 1747 
Q 959 1119 1226 758 
Q 1494 397 1959 397 
Q 2419 397 2687 759 
Q 2956 1122 2956 1747 
Q 2956 2369 2687 2733 
Q 2419 3097 1959 3097 
z
M 1959 3584 
Q 2709 3584 3137 3096 
Q 3566 2609 3566 1747 
Q 3566 888 3137 398 
Q 2709 -91 1959 -91 
Q 1206 -91 779 398 
Q 353 888 353 1747 
Q 353 2609 779 3096 
Q 1206 3584 1959 3584 
z
" transform="scale(0.015625)"/>
      </defs>
      <use xlink:href="#DejaVuSans-4f"/>
      <use xlink:href="#DejaVuSans-6e" x="78.710938"/>
      <use xlink:href="#DejaVuSans-65" x="142.089844"/>
      <use xlink:href="#DejaVuSans-20" x="203.613281"/>
      <use xlink:href="#DejaVuSans-53" x="235.400391"/>
      <use xlink:href="#DejaVuSans-74" x="298.876953"/>
      <use xlink:href="#DejaVuSans-61" x="338.085938"/>
      <use xlink:href="#DejaVuSans-6e" x="399.365234"/>
      <use xlink:href="#DejaVuSans-64" x="462.744141"/>
      <use xlink:href="#DejaVuSans-61" x="526.220703"/>
      <use xlink:href="#DejaVuSans-72" x="587.5"/>
      <use xlink:href="#DejaVuSans-64" x="626.863281"/>
      <use xlink:href="#DejaVuSans-20" x="690.339844"/>
      <use xlink:href="#DejaVuSans-44" x="722.126953"/>
      <use xlink:href="#DejaVuSans-65" x="799.128906"/>
      <use xlink:href="#DejaVuSans-76" x="860.652344"/>
      <use xlink:href="#DejaVuSans-69" x="919.832031"/>
      <use xlink:href="#DejaVuSans-61" x="947.615234"/>
      <use xlink:href="#DejaVuSans-74" x="1008.894531"/>
      <use xlink:href="#DejaVuSans-69" x="1048.103516"/>
      <use xlink:href="#DejaVuSans-6f" x="1075.886719"/>
      <use xlink:href="#DejaVuSans-6e" x="1137.068359"/>
     </g>
    </g>
   </g>
  </g>
 </g>
 <defs>
  <clipPath id="pde7711c6d0">
   <rect x="44.879375" y="0" width="390.6" height="166.32"/>
  </clipPath>
 </defs>
</svg>
