<?xml version="1.0" encoding="utf-8" standalone="no"?>
<!DOCTYPE svg PUBLIC "-//W3C//DTD SVG 1.1//EN"
  "http://www.w3.org/Graphics/SVG/1.1/DTD/svg11.dtd">
<svg xmlns:xlink="http://www.w3.org/1999/xlink" width="444.375067pt" height="200.909439pt" viewBox="0 0 444.375067 200.909439" xmlns="http://www.w3.org/2000/svg" version="1.1">
 <metadata>
  <rdf:RDF xmlns:dc="http://purl.org/dc/elements/1.1/" xmlns:cc="http://creativecommons.org/ns#" xmlns:rdf="http://www.w3.org/1999/02/22-rdf-syntax-ns#">
   <cc:Work>
    <dc:type rdf:resource="http://purl.org/dc/dcmitype/StillImage"/>
    <dc:date>2024-09-18T15:47:47.827852</dc:date>
    <dc:format>image/svg+xml</dc:format>
    <dc:creator>
     <cc:Agent>
      <dc:title>Matplotlib v3.7.5, https://matplotlib.org/</dc:title>
     </cc:Agent>
    </dc:creator>
   </cc:Work>
  </rdf:RDF>
 </metadata>
 <defs>
  <style type="text/css">*{stroke-linejoin: round; stroke-linecap: butt}</style>
 </defs>
 <g id="figure_1">
  <g id="patch_1">
   <path d="M 0 200.909439 
L 444.375067 200.909439 
L 444.375067 0 
L 0 0 
z
" style="fill: #ffffff"/>
  </g>
  <g id="axes_1">
   <g id="patch_2">
    <path d="M 44.879375 168.617564 
L 435.479375 168.617564 
L 435.479375 2.297564 
L 44.879375 2.297564 
z
" style="fill: #e5e5e5"/>
   </g>
   <g id="matplotlib.axis_1">
    <g id="xtick_1">
     <g id="line2d_1">
      <path d="M 72.41989 168.617564 
L 72.41989 2.297564 
" clip-path="url(#p290a06dd22)" style="fill: none; stroke: #ffffff; stroke-width: 0.8; stroke-linecap: square"/>
     </g>
     <g id="line2d_2">
      <defs>
       <path id="m575471d301" d="M 0 0 
L 0 3.5 
" style="stroke: #555555; stroke-width: 0.8"/>
      </defs>
      <g>
       <use xlink:href="#m575471d301" x="72.41989" y="168.617564" style="fill: #555555; stroke: #555555; stroke-width: 0.8"/>
      </g>
     </g>
     <g id="text_1">
      <!-- 08/16/20 -->
      <g style="fill: #555555" transform="translate(49.96364 183.216001) scale(0.1 -0.1)">
       <defs>
        <path id="DejaVuSans-30" d="M 2034 4250 
Q 1547 4250 1301 3770 
Q 1056 3291 1056 2328 
Q 1056 1369 1301 889 
Q 1547 409 2034 409 
Q 2525 409 2770 889 
Q 3016 1369 3016 2328 
Q 3016 3291 2770 3770 
Q 2525 4250 2034 4250 
z
M 2034 4750 
Q 2819 4750 3233 4129 
Q 3647 3509 3647 2328 
Q 3647 1150 3233 529 
Q 2819 -91 2034 -91 
Q 1250 -91 836 529 
Q 422 1150 422 2328 
Q 422 3509 836 4129 
Q 1250 4750 2034 4750 
z
" transform="scale(0.015625)"/>
        <path id="DejaVuSans-38" d="M 2034 2216 
Q 1584 2216 1326 1975 
Q 1069 1734 1069 1313 
Q 1069 891 1326 650 
Q 1584 409 2034 409 
Q 2484 409 2743 651 
Q 3003 894 3003 1313 
Q 3003 1734 2745 1975 
Q 2488 2216 2034 2216 
z
M 1403 2484 
Q 997 2584 770 2862 
Q 544 3141 544 3541 
Q 544 4100 942 4425 
Q 1341 4750 2034 4750 
Q 2731 4750 3128 4425 
Q 3525 4100 3525 3541 
Q 3525 3141 3298 2862 
Q 3072 2584 2669 2484 
Q 3125 2378 3379 2068 
Q 3634 1759 3634 1313 
Q 3634 634 3220 271 
Q 2806 -91 2034 -91 
Q 1263 -91 848 271 
Q 434 634 434 1313 
Q 434 1759 690 2068 
Q 947 2378 1403 2484 
z
M 1172 3481 
Q 1172 3119 1398 2916 
Q 1625 2713 2034 2713 
Q 2441 2713 2670 2916 
Q 2900 3119 2900 3481 
Q 2900 3844 2670 4047 
Q 2441 4250 2034 4250 
Q 1625 4250 1398 4047 
Q 1172 3844 1172 3481 
z
" transform="scale(0.015625)"/>
        <path id="DejaVuSans-2f" d="M 1625 4666 
L 2156 4666 
L 531 -594 
L 0 -594 
L 1625 4666 
z
" transform="scale(0.015625)"/>
        <path id="DejaVuSans-31" d="M 794 531 
L 1825 531 
L 1825 4091 
L 703 3866 
L 703 4441 
L 1819 4666 
L 2450 4666 
L 2450 531 
L 3481 531 
L 3481 0 
L 794 0 
L 794 531 
z
" transform="scale(0.015625)"/>
        <path id="DejaVuSans-36" d="M 2113 2584 
Q 1688 2584 1439 2293 
Q 1191 2003 1191 1497 
Q 1191 994 1439 701 
Q 1688 409 2113 409 
Q 2538 409 2786 701 
Q 3034 994 3034 1497 
Q 3034 2003 2786 2293 
Q 2538 2584 2113 2584 
z
M 3366 4563 
L 3366 3988 
Q 3128 4100 2886 4159 
Q 2644 4219 2406 4219 
Q 1781 4219 1451 3797 
Q 1122 3375 1075 2522 
Q 1259 2794 1537 2939 
Q 1816 3084 2150 3084 
Q 2853 3084 3261 2657 
Q 3669 2231 3669 1497 
Q 3669 778 3244 343 
Q 2819 -91 2113 -91 
Q 1303 -91 875 529 
Q 447 1150 447 2328 
Q 447 3434 972 4092 
Q 1497 4750 2381 4750 
Q 2619 4750 2861 4703 
Q 3103 4656 3366 4563 
z
" transform="scale(0.015625)"/>
        <path id="DejaVuSans-32" d="M 1228 531 
L 3431 531 
L 3431 0 
L 469 0 
L 469 531 
Q 828 903 1448 1529 
Q 2069 2156 2228 2338 
Q 2531 2678 2651 2914 
Q 2772 3150 2772 3378 
Q 2772 3750 2511 3984 
Q 2250 4219 1831 4219 
Q 1534 4219 1204 4116 
Q 875 4013 500 3803 
L 500 4441 
Q 881 4594 1212 4672 
Q 1544 4750 1819 4750 
Q 2544 4750 2975 4387 
Q 3406 4025 3406 3419 
Q 3406 3131 3298 2873 
Q 3191 2616 2906 2266 
Q 2828 2175 2409 1742 
Q 1991 1309 1228 531 
z
" transform="scale(0.015625)"/>
       </defs>
       <use xlink:href="#DejaVuSans-30"/>
       <use xlink:href="#DejaVuSans-38" x="63.623047"/>
       <use xlink:href="#DejaVuSans-2f" x="127.246094"/>
       <use xlink:href="#DejaVuSans-31" x="160.9375"/>
       <use xlink:href="#DejaVuSans-36" x="224.560547"/>
       <use xlink:href="#DejaVuSans-2f" x="288.183594"/>
       <use xlink:href="#DejaVuSans-32" x="321.875"/>
       <use xlink:href="#DejaVuSans-30" x="385.498047"/>
      </g>
     </g>
    </g>
    <g id="xtick_2">
     <g id="line2d_3">
      <path d="M 142.319676 168.617564 
L 142.319676 2.297564 
" clip-path="url(#p290a06dd22)" style="fill: none; stroke: #ffffff; stroke-width: 0.8; stroke-linecap: square"/>
     </g>
     <g id="line2d_4">
      <g>
       <use xlink:href="#m575471d301" x="142.319676" y="168.617564" style="fill: #555555; stroke: #555555; stroke-width: 0.8"/>
      </g>
     </g>
     <g id="text_2">
      <!-- 10/05/20 -->
      <g style="fill: #555555" transform="translate(119.863426 183.216001) scale(0.1 -0.1)">
       <defs>
        <path id="DejaVuSans-35" d="M 691 4666 
L 3169 4666 
L 3169 4134 
L 1269 4134 
L 1269 2991 
Q 1406 3038 1543 3061 
Q 1681 3084 1819 3084 
Q 2600 3084 3056 2656 
Q 3513 2228 3513 1497 
Q 3513 744 3044 326 
Q 2575 -91 1722 -91 
Q 1428 -91 1123 -41 
Q 819 9 494 109 
L 494 744 
Q 775 591 1075 516 
Q 1375 441 1709 441 
Q 2250 441 2565 725 
Q 2881 1009 2881 1497 
Q 2881 1984 2565 2268 
Q 2250 2553 1709 2553 
Q 1456 2553 1204 2497 
Q 953 2441 691 2322 
L 691 4666 
z
" transform="scale(0.015625)"/>
       </defs>
       <use xlink:href="#DejaVuSans-31"/>
       <use xlink:href="#DejaVuSans-30" x="63.623047"/>
       <use xlink:href="#DejaVuSans-2f" x="127.246094"/>
       <use xlink:href="#DejaVuSans-30" x="160.9375"/>
       <use xlink:href="#DejaVuSans-35" x="224.560547"/>
       <use xlink:href="#DejaVuSans-2f" x="288.183594"/>
       <use xlink:href="#DejaVuSans-32" x="321.875"/>
       <use xlink:href="#DejaVuSans-30" x="385.498047"/>
      </g>
     </g>
    </g>
    <g id="xtick_3">
     <g id="line2d_5">
      <path d="M 212.219461 168.617564 
L 212.219461 2.297564 
" clip-path="url(#p290a06dd22)" style="fill: none; stroke: #ffffff; stroke-width: 0.8; stroke-linecap: square"/>
     </g>
     <g id="line2d_6">
      <g>
       <use xlink:href="#m575471d301" x="212.219461" y="168.617564" style="fill: #555555; stroke: #555555; stroke-width: 0.8"/>
      </g>
     </g>
     <g id="text_3">
      <!-- 11/24/20 -->
      <g style="fill: #555555" transform="translate(189.763211 183.216001) scale(0.1 -0.1)">
       <defs>
        <path id="DejaVuSans-34" d="M 2419 4116 
L 825 1625 
L 2419 1625 
L 2419 4116 
z
M 2253 4666 
L 3047 4666 
L 3047 1625 
L 3713 1625 
L 3713 1100 
L 3047 1100 
L 3047 0 
L 2419 0 
L 2419 1100 
L 313 1100 
L 313 1709 
L 2253 4666 
z
" transform="scale(0.015625)"/>
       </defs>
       <use xlink:href="#DejaVuSans-31"/>
       <use xlink:href="#DejaVuSans-31" x="63.623047"/>
       <use xlink:href="#DejaVuSans-2f" x="127.246094"/>
       <use xlink:href="#DejaVuSans-32" x="160.9375"/>
       <use xlink:href="#DejaVuSans-34" x="224.560547"/>
       <use xlink:href="#DejaVuSans-2f" x="288.183594"/>
       <use xlink:href="#DejaVuSans-32" x="321.875"/>
       <use xlink:href="#DejaVuSans-30" x="385.498047"/>
      </g>
     </g>
    </g>
    <g id="xtick_4">
     <g id="line2d_7">
      <path d="M 282.119246 168.617564 
L 282.119246 2.297564 
" clip-path="url(#p290a06dd22)" style="fill: none; stroke: #ffffff; stroke-width: 0.8; stroke-linecap: square"/>
     </g>
     <g id="line2d_8">
      <g>
       <use xlink:href="#m575471d301" x="282.119246" y="168.617564" style="fill: #555555; stroke: #555555; stroke-width: 0.8"/>
      </g>
     </g>
     <g id="text_4">
      <!-- 01/13/21 -->
      <g style="fill: #555555" transform="translate(259.662996 183.216001) scale(0.1 -0.1)">
       <defs>
        <path id="DejaVuSans-33" d="M 2597 2516 
Q 3050 2419 3304 2112 
Q 3559 1806 3559 1356 
Q 3559 666 3084 287 
Q 2609 -91 1734 -91 
Q 1441 -91 1130 -33 
Q 819 25 488 141 
L 488 750 
Q 750 597 1062 519 
Q 1375 441 1716 441 
Q 2309 441 2620 675 
Q 2931 909 2931 1356 
Q 2931 1769 2642 2001 
Q 2353 2234 1838 2234 
L 1294 2234 
L 1294 2753 
L 1863 2753 
Q 2328 2753 2575 2939 
Q 2822 3125 2822 3475 
Q 2822 3834 2567 4026 
Q 2313 4219 1838 4219 
Q 1578 4219 1281 4162 
Q 984 4106 628 3988 
L 628 4550 
Q 988 4650 1302 4700 
Q 1616 4750 1894 4750 
Q 2613 4750 3031 4423 
Q 3450 4097 3450 3541 
Q 3450 3153 3228 2886 
Q 3006 2619 2597 2516 
z
" transform="scale(0.015625)"/>
       </defs>
       <use xlink:href="#DejaVuSans-30"/>
       <use xlink:href="#DejaVuSans-31" x="63.623047"/>
       <use xlink:href="#DejaVuSans-2f" x="127.246094"/>
       <use xlink:href="#DejaVuSans-31" x="160.9375"/>
       <use xlink:href="#DejaVuSans-33" x="224.560547"/>
       <use xlink:href="#DejaVuSans-2f" x="288.183594"/>
       <use xlink:href="#DejaVuSans-32" x="321.875"/>
       <use xlink:href="#DejaVuSans-31" x="385.498047"/>
      </g>
     </g>
    </g>
    <g id="xtick_5">
     <g id="line2d_9">
      <path d="M 352.019031 168.617564 
L 352.019031 2.297564 
" clip-path="url(#p290a06dd22)" style="fill: none; stroke: #ffffff; stroke-width: 0.8; stroke-linecap: square"/>
     </g>
     <g id="line2d_10">
      <g>
       <use xlink:href="#m575471d301" x="352.019031" y="168.617564" style="fill: #555555; stroke: #555555; stroke-width: 0.8"/>
      </g>
     </g>
     <g id="text_5">
      <!-- 03/04/21 -->
      <g style="fill: #555555" transform="translate(329.562781 183.216001) scale(0.1 -0.1)">
       <use xlink:href="#DejaVuSans-30"/>
       <use xlink:href="#DejaVuSans-33" x="63.623047"/>
       <use xlink:href="#DejaVuSans-2f" x="127.246094"/>
       <use xlink:href="#DejaVuSans-30" x="160.9375"/>
       <use xlink:href="#DejaVuSans-34" x="224.560547"/>
       <use xlink:href="#DejaVuSans-2f" x="288.183594"/>
       <use xlink:href="#DejaVuSans-32" x="321.875"/>
       <use xlink:href="#DejaVuSans-31" x="385.498047"/>
      </g>
     </g>
    </g>
    <g id="xtick_6">
     <g id="line2d_11">
      <path d="M 421.918817 168.617564 
L 421.918817 2.297564 
" clip-path="url(#p290a06dd22)" style="fill: none; stroke: #ffffff; stroke-width: 0.8; stroke-linecap: square"/>
     </g>
     <g id="line2d_12">
      <g>
       <use xlink:href="#m575471d301" x="421.918817" y="168.617564" style="fill: #555555; stroke: #555555; stroke-width: 0.8"/>
      </g>
     </g>
     <g id="text_6">
      <!-- 04/23/21 -->
      <g style="fill: #555555" transform="translate(399.462567 183.216001) scale(0.1 -0.1)">
       <use xlink:href="#DejaVuSans-30"/>
       <use xlink:href="#DejaVuSans-34" x="63.623047"/>
       <use xlink:href="#DejaVuSans-2f" x="127.246094"/>
       <use xlink:href="#DejaVuSans-32" x="160.9375"/>
       <use xlink:href="#DejaVuSans-33" x="224.560547"/>
       <use xlink:href="#DejaVuSans-2f" x="288.183594"/>
       <use xlink:href="#DejaVuSans-32" x="321.875"/>
       <use xlink:href="#DejaVuSans-31" x="385.498047"/>
      </g>
     </g>
    </g>
    <g id="text_7">
     <!-- Date -->
     <g style="fill: #555555" transform="translate(225.838438 198.413814) scale(0.12 -0.12)">
      <defs>
       <path id="DejaVuSans-44" d="M 1259 4147 
L 1259 519 
L 2022 519 
Q 2988 519 3436 956 
Q 3884 1394 3884 2338 
Q 3884 3275 3436 3711 
Q 2988 4147 2022 4147 
L 1259 4147 
z
M 628 4666 
L 1925 4666 
Q 3281 4666 3915 4102 
Q 4550 3538 4550 2338 
Q 4550 1131 3912 565 
Q 3275 0 1925 0 
L 628 0 
L 628 4666 
z
" transform="scale(0.015625)"/>
       <path id="DejaVuSans-61" d="M 2194 1759 
Q 1497 1759 1228 1600 
Q 959 1441 959 1056 
Q 959 750 1161 570 
Q 1363 391 1709 391 
Q 2188 391 2477 730 
Q 2766 1069 2766 1631 
L 2766 1759 
L 2194 1759 
z
M 3341 1997 
L 3341 0 
L 2766 0 
L 2766 531 
Q 2569 213 2275 61 
Q 1981 -91 1556 -91 
Q 1019 -91 701 211 
Q 384 513 384 1019 
Q 384 1609 779 1909 
Q 1175 2209 1959 2209 
L 2766 2209 
L 2766 2266 
Q 2766 2663 2505 2880 
Q 2244 3097 1772 3097 
Q 1472 3097 1187 3025 
Q 903 2953 641 2809 
L 641 3341 
Q 956 3463 1253 3523 
Q 1550 3584 1831 3584 
Q 2591 3584 2966 3190 
Q 3341 2797 3341 1997 
z
" transform="scale(0.015625)"/>
       <path id="DejaVuSans-74" d="M 1172 4494 
L 1172 3500 
L 2356 3500 
L 2356 3053 
L 1172 3053 
L 1172 1153 
Q 1172 725 1289 603 
Q 1406 481 1766 481 
L 2356 481 
L 2356 0 
L 1766 0 
Q 1100 0 847 248 
Q 594 497 594 1153 
L 594 3053 
L 172 3053 
L 172 3500 
L 594 3500 
L 594 4494 
L 1172 4494 
z
" transform="scale(0.015625)"/>
       <path id="DejaVuSans-65" d="M 3597 1894 
L 3597 1613 
L 953 1613 
Q 991 1019 1311 708 
Q 1631 397 2203 397 
Q 2534 397 2845 478 
Q 3156 559 3463 722 
L 3463 178 
Q 3153 47 2828 -22 
Q 2503 -91 2169 -91 
Q 1331 -91 842 396 
Q 353 884 353 1716 
Q 353 2575 817 3079 
Q 1281 3584 2069 3584 
Q 2775 3584 3186 3129 
Q 3597 2675 3597 1894 
z
M 3022 2063 
Q 3016 2534 2758 2815 
Q 2500 3097 2075 3097 
Q 1594 3097 1305 2825 
Q 1016 2553 972 2059 
L 3022 2063 
z
" transform="scale(0.015625)"/>
      </defs>
      <use xlink:href="#DejaVuSans-44"/>
      <use xlink:href="#DejaVuSans-61" x="77.001953"/>
      <use xlink:href="#DejaVuSans-74" x="138.28125"/>
      <use xlink:href="#DejaVuSans-65" x="177.490234"/>
     </g>
    </g>
   </g>
   <g id="matplotlib.axis_2">
    <g id="ytick_1">
     <g id="line2d_13">
      <path d="M 44.879375 149.456133 
L 435.479375 149.456133 
" clip-path="url(#p290a06dd22)" style="fill: none; stroke: #ffffff; stroke-width: 0.8; stroke-linecap: square"/>
     </g>
     <g id="line2d_14">
      <defs>
       <path id="m7c1d9e7d72" d="M 0 0 
L -3.5 0 
" style="stroke: #555555; stroke-width: 0.8"/>
      </defs>
      <g>
       <use xlink:href="#m7c1d9e7d72" x="44.879375" y="149.456133" style="fill: #555555; stroke: #555555; stroke-width: 0.8"/>
      </g>
     </g>
     <g id="text_8">
      <!-- 0.05 -->
      <g style="fill: #555555" transform="translate(15.61375 153.255352) scale(0.1 -0.1)">
       <defs>
        <path id="DejaVuSans-2e" d="M 684 794 
L 1344 794 
L 1344 0 
L 684 0 
L 684 794 
z
" transform="scale(0.015625)"/>
       </defs>
       <use xlink:href="#DejaVuSans-30"/>
       <use xlink:href="#DejaVuSans-2e" x="63.623047"/>
       <use xlink:href="#DejaVuSans-30" x="95.410156"/>
       <use xlink:href="#DejaVuSans-35" x="159.033203"/>
      </g>
     </g>
    </g>
    <g id="ytick_2">
     <g id="line2d_15">
      <path d="M 44.879375 128.648002 
L 435.479375 128.648002 
" clip-path="url(#p290a06dd22)" style="fill: none; stroke: #ffffff; stroke-width: 0.8; stroke-linecap: square"/>
     </g>
     <g id="line2d_16">
      <g>
       <use xlink:href="#m7c1d9e7d72" x="44.879375" y="128.648002" style="fill: #555555; stroke: #555555; stroke-width: 0.8"/>
      </g>
     </g>
     <g id="text_9">
      <!-- 0.10 -->
      <g style="fill: #555555" transform="translate(15.61375 132.447221) scale(0.1 -0.1)">
       <use xlink:href="#DejaVuSans-30"/>
       <use xlink:href="#DejaVuSans-2e" x="63.623047"/>
       <use xlink:href="#DejaVuSans-31" x="95.410156"/>
       <use xlink:href="#DejaVuSans-30" x="159.033203"/>
      </g>
     </g>
    </g>
    <g id="ytick_3">
     <g id="line2d_17">
      <path d="M 44.879375 107.839872 
L 435.479375 107.839872 
" clip-path="url(#p290a06dd22)" style="fill: none; stroke: #ffffff; stroke-width: 0.8; stroke-linecap: square"/>
     </g>
     <g id="line2d_18">
      <g>
       <use xlink:href="#m7c1d9e7d72" x="44.879375" y="107.839872" style="fill: #555555; stroke: #555555; stroke-width: 0.8"/>
      </g>
     </g>
     <g id="text_10">
      <!-- 0.15 -->
      <g style="fill: #555555" transform="translate(15.61375 111.639091) scale(0.1 -0.1)">
       <use xlink:href="#DejaVuSans-30"/>
       <use xlink:href="#DejaVuSans-2e" x="63.623047"/>
       <use xlink:href="#DejaVuSans-31" x="95.410156"/>
       <use xlink:href="#DejaVuSans-35" x="159.033203"/>
      </g>
     </g>
    </g>
    <g id="ytick_4">
     <g id="line2d_19">
      <path d="M 44.879375 87.031741 
L 435.479375 87.031741 
" clip-path="url(#p290a06dd22)" style="fill: none; stroke: #ffffff; stroke-width: 0.8; stroke-linecap: square"/>
     </g>
     <g id="line2d_20">
      <g>
       <use xlink:href="#m7c1d9e7d72" x="44.879375" y="87.031741" style="fill: #555555; stroke: #555555; stroke-width: 0.8"/>
      </g>
     </g>
     <g id="text_11">
      <!-- 0.20 -->
      <g style="fill: #555555" transform="translate(15.61375 90.83096) scale(0.1 -0.1)">
       <use xlink:href="#DejaVuSans-30"/>
       <use xlink:href="#DejaVuSans-2e" x="63.623047"/>
       <use xlink:href="#DejaVuSans-32" x="95.410156"/>
       <use xlink:href="#DejaVuSans-30" x="159.033203"/>
      </g>
     </g>
    </g>
    <g id="ytick_5">
     <g id="line2d_21">
      <path d="M 44.879375 66.223611 
L 435.479375 66.223611 
" clip-path="url(#p290a06dd22)" style="fill: none; stroke: #ffffff; stroke-width: 0.8; stroke-linecap: square"/>
     </g>
     <g id="line2d_22">
      <g>
       <use xlink:href="#m7c1d9e7d72" x="44.879375" y="66.223611" style="fill: #555555; stroke: #555555; stroke-width: 0.8"/>
      </g>
     </g>
     <g id="text_12">
      <!-- 0.25 -->
      <g style="fill: #555555" transform="translate(15.61375 70.022829) scale(0.1 -0.1)">
       <use xlink:href="#DejaVuSans-30"/>
       <use xlink:href="#DejaVuSans-2e" x="63.623047"/>
       <use xlink:href="#DejaVuSans-32" x="95.410156"/>
       <use xlink:href="#DejaVuSans-35" x="159.033203"/>
      </g>
     </g>
    </g>
    <g id="ytick_6">
     <g id="line2d_23">
      <path d="M 44.879375 45.41548 
L 435.479375 45.41548 
" clip-path="url(#p290a06dd22)" style="fill: none; stroke: #ffffff; stroke-width: 0.8; stroke-linecap: square"/>
     </g>
     <g id="line2d_24">
      <g>
       <use xlink:href="#m7c1d9e7d72" x="44.879375" y="45.41548" style="fill: #555555; stroke: #555555; stroke-width: 0.8"/>
      </g>
     </g>
     <g id="text_13">
      <!-- 0.30 -->
      <g style="fill: #555555" transform="translate(15.61375 49.214699) scale(0.1 -0.1)">
       <use xlink:href="#DejaVuSans-30"/>
       <use xlink:href="#DejaVuSans-2e" x="63.623047"/>
       <use xlink:href="#DejaVuSans-33" x="95.410156"/>
       <use xlink:href="#DejaVuSans-30" x="159.033203"/>
      </g>
     </g>
    </g>
    <g id="ytick_7">
     <g id="line2d_25">
      <path d="M 44.879375 24.607349 
L 435.479375 24.607349 
" clip-path="url(#p290a06dd22)" style="fill: none; stroke: #ffffff; stroke-width: 0.8; stroke-linecap: square"/>
     </g>
     <g id="line2d_26">
      <g>
       <use xlink:href="#m7c1d9e7d72" x="44.879375" y="24.607349" style="fill: #555555; stroke: #555555; stroke-width: 0.8"/>
      </g>
     </g>
     <g id="text_14">
      <!-- 0.35 -->
      <g style="fill: #555555" transform="translate(15.61375 28.406568) scale(0.1 -0.1)">
       <use xlink:href="#DejaVuSans-30"/>
       <use xlink:href="#DejaVuSans-2e" x="63.623047"/>
       <use xlink:href="#DejaVuSans-33" x="95.410156"/>
       <use xlink:href="#DejaVuSans-35" x="159.033203"/>
      </g>
     </g>
    </g>
    <g id="ytick_8">
     <g id="line2d_27">
      <path d="M 44.879375 3.799219 
L 435.479375 3.799219 
" clip-path="url(#p290a06dd22)" style="fill: none; stroke: #ffffff; stroke-width: 0.8; stroke-linecap: square"/>
     </g>
     <g id="line2d_28">
      <g>
       <use xlink:href="#m7c1d9e7d72" x="44.879375" y="3.799219" style="fill: #555555; stroke: #555555; stroke-width: 0.8"/>
      </g>
     </g>
     <g id="text_15">
      <!-- 0.40 -->
      <g style="fill: #555555" transform="translate(15.61375 7.598437) scale(0.1 -0.1)">
       <use xlink:href="#DejaVuSans-30"/>
       <use xlink:href="#DejaVuSans-2e" x="63.623047"/>
       <use xlink:href="#DejaVuSans-34" x="95.410156"/>
       <use xlink:href="#DejaVuSans-30" x="159.033203"/>
      </g>
     </g>
    </g>
    <g id="text_16">
     <!-- Value -->
     <g style="fill: #555555" transform="translate(9.118125 101.935064) rotate(-90) scale(0.12 -0.12)">
      <defs>
       <path id="DejaVuSans-56" d="M 1831 0 
L 50 4666 
L 709 4666 
L 2188 738 
L 3669 4666 
L 4325 4666 
L 2547 0 
L 1831 0 
z
" transform="scale(0.015625)"/>
       <path id="DejaVuSans-6c" d="M 603 4863 
L 1178 4863 
L 1178 0 
L 603 0 
L 603 4863 
z
" transform="scale(0.015625)"/>
       <path id="DejaVuSans-75" d="M 544 1381 
L 544 3500 
L 1119 3500 
L 1119 1403 
Q 1119 906 1312 657 
Q 1506 409 1894 409 
Q 2359 409 2629 706 
Q 2900 1003 2900 1516 
L 2900 3500 
L 3475 3500 
L 3475 0 
L 2900 0 
L 2900 538 
Q 2691 219 2414 64 
Q 2138 -91 1772 -91 
Q 1169 -91 856 284 
Q 544 659 544 1381 
z
M 1991 3584 
L 1991 3584 
z
" transform="scale(0.015625)"/>
      </defs>
      <use xlink:href="#DejaVuSans-56"/>
      <use xlink:href="#DejaVuSans-61" x="60.658203"/>
      <use xlink:href="#DejaVuSans-6c" x="121.9375"/>
      <use xlink:href="#DejaVuSans-75" x="149.720703"/>
      <use xlink:href="#DejaVuSans-65" x="213.099609"/>
     </g>
    </g>
   </g>
   <g id="PolyCollection_1">
    <defs>
     <path id="maf483ec92a" d="M 62.63392 -176.467809 
L 62.63392 -191.051875 
L 64.031916 -188.533379 
L 65.429912 -177.454493 
L 66.827908 -181.302372 
L 68.225903 -174.163749 
L 69.623899 -166.331383 
L 71.021895 -164.2133 
L 72.41989 -150.015247 
L 73.817886 -154.125493 
L 75.215882 -155.01507 
L 76.613878 -151.917109 
L 78.011873 -151.897546 
L 79.409869 -154.538918 
L 80.807865 -141.388248 
L 82.20586 -134.002233 
L 83.603856 -124.955698 
L 85.001852 -120.702906 
L 86.399847 -116.496005 
L 87.797843 -115.385723 
L 89.195839 -112.587447 
L 90.593835 -113.634235 
L 91.99183 -104.451288 
L 93.389826 -104.661969 
L 94.787822 -110.283449 
L 96.185817 -109.4634 
L 97.583813 -104.445849 
L 98.981809 -94.688507 
L 100.379804 -97.908023 
L 101.7778 -97.345603 
L 103.175796 -97.311121 
L 104.573792 -98.708282 
L 105.971787 -99.417043 
L 107.369783 -90.989371 
L 108.767779 -88.000182 
L 110.165774 -83.860384 
L 111.56377 -86.48299 
L 112.961766 -83.664808 
L 114.359762 -75.524343 
L 115.757757 -73.483571 
L 117.155753 -73.348323 
L 118.553749 -74.300848 
L 119.951744 -75.000469 
L 121.34974 -75.111744 
L 122.747736 -75.15989 
L 124.145731 -75.748047 
L 125.543727 -76.682083 
L 126.941723 -77.360998 
L 128.339719 -77.803906 
L 129.737714 -78.603353 
L 131.13571 -77.595892 
L 132.533706 -76.67243 
L 133.931701 -79.395799 
L 135.329697 -73.782167 
L 136.727693 -72.624513 
L 138.125689 -72.327887 
L 139.523684 -72.003715 
L 140.92168 -71.794302 
L 142.319676 -70.879011 
L 143.717671 -70.566778 
L 145.115667 -70.32174 
L 146.513663 -70.224724 
L 147.911658 -70.213596 
L 149.309654 -69.157362 
L 150.70765 -71.260961 
L 152.105646 -71.319051 
L 153.503641 -71.621832 
L 154.901637 -70.484973 
L 156.299633 -70.027871 
L 157.697628 -71.772451 
L 159.095624 -70.644695 
L 160.49362 -71.7438 
L 161.891616 -70.077734 
L 163.289611 -71.019819 
L 164.687607 -68.449151 
L 166.085603 -67.760502 
L 167.483598 -70.050607 
L 168.881594 -70.391066 
L 170.27959 -67.146087 
L 171.677585 -66.680554 
L 173.075581 -66.431863 
L 174.473577 -66.70578 
L 175.871573 -64.711046 
L 177.269568 -66.318667 
L 178.667564 -63.975596 
L 180.06556 -64.453875 
L 181.463555 -63.653094 
L 182.861551 -63.013925 
L 184.259547 -61.854015 
L 185.657543 -62.077722 
L 187.055538 -62.183217 
L 188.453534 -61.950754 
L 189.85153 -61.984654 
L 191.249525 -60.305444 
L 192.647521 -53.953372 
L 194.045517 -54.076539 
L 195.443512 -53.984544 
L 196.841508 -52.163888 
L 198.239504 -52.388332 
L 199.6375 -54.16167 
L 201.035495 -50.489643 
L 202.433491 -50.595447 
L 203.831487 -50.661028 
L 205.229482 -51.759126 
L 206.627478 -51.49542 
L 208.025474 -51.765232 
L 209.423469 -51.614393 
L 210.821465 -51.607582 
L 212.219461 -51.740373 
L 213.617457 -54.16593 
L 215.015452 -54.21488 
L 216.413448 -52.70096 
L 217.811444 -51.710367 
L 219.209439 -51.609062 
L 220.607435 -51.371664 
L 222.005431 -52.782802 
L 223.403427 -52.665092 
L 224.801422 -52.339806 
L 226.199418 -52.109424 
L 227.597414 -53.361576 
L 228.995409 -53.283893 
L 230.393405 -53.342218 
L 231.791401 -53.395731 
L 233.189396 -53.620743 
L 234.587392 -53.507436 
L 235.985388 -57.662963 
L 237.383384 -57.913421 
L 238.781379 -57.811072 
L 240.179375 -57.491303 
L 241.577371 -58.641273 
L 242.975366 -57.423399 
L 244.373362 -60.492759 
L 245.771358 -60.260569 
L 247.169354 -60.235103 
L 248.567349 -60.123017 
L 249.965345 -61.263175 
L 251.363341 -61.254209 
L 252.761336 -62.883351 
L 254.159332 -66.602198 
L 255.557328 -66.809186 
L 256.955323 -66.362786 
L 258.353319 -66.496887 
L 259.751315 -67.675887 
L 261.149311 -69.377891 
L 262.547306 -71.162436 
L 263.945302 -81.077399 
L 265.343298 -83.067253 
L 266.741293 -86.556835 
L 268.139289 -86.867242 
L 269.537285 -86.858525 
L 270.935281 -89.043257 
L 272.333276 -87.936877 
L 273.731272 -87.839292 
L 275.129268 -87.402125 
L 276.527263 -89.856692 
L 277.925259 -90.709925 
L 279.323255 -89.87597 
L 280.72125 -90.096358 
L 282.119246 -90.013424 
L 283.517242 -88.283816 
L 284.915238 -88.534826 
L 286.313233 -88.204799 
L 287.711229 -89.153564 
L 289.109225 -88.993459 
L 290.50722 -91.690967 
L 291.905216 -92.345679 
L 293.303212 -92.505391 
L 294.701207 -91.790749 
L 296.099203 -93.152835 
L 297.497199 -92.657037 
L 298.895195 -93.731371 
L 300.29319 -93.547534 
L 301.691186 -93.081252 
L 303.089182 -94.533927 
L 304.487177 -95.402707 
L 305.885173 -97.473203 
L 307.283169 -98.098346 
L 308.681165 -95.713826 
L 310.07916 -96.404582 
L 311.477156 -98.890854 
L 312.875152 -98.00579 
L 314.273147 -98.425237 
L 315.671143 -99.412359 
L 317.069139 -98.957156 
L 318.467134 -99.155949 
L 319.86513 -99.433281 
L 321.263126 -100.655529 
L 322.661122 -100.186773 
L 324.059117 -100.712595 
L 325.457113 -100.425942 
L 326.855109 -99.754302 
L 328.253104 -100.729817 
L 329.6511 -99.834483 
L 331.049096 -100.609407 
L 332.447092 -100.885932 
L 333.845087 -101.280684 
L 335.243083 -101.485761 
L 336.641079 -101.806016 
L 338.039074 -102.875389 
L 339.43707 -100.047083 
L 340.835066 -98.167709 
L 342.233061 -95.719758 
L 343.631057 -95.3622 
L 345.029053 -98.249399 
L 346.427049 -98.655622 
L 347.825044 -96.820591 
L 349.22304 -96.445605 
L 350.621036 -96.639554 
L 352.019031 -95.724871 
L 353.417027 -92.555493 
L 354.815023 -88.689262 
L 356.213019 -88.592842 
L 357.611014 -85.175708 
L 359.00901 -86.432211 
L 360.407006 -84.693541 
L 361.805001 -78.91634 
L 363.202997 -70.906281 
L 364.600993 -70.331213 
L 365.998988 -69.76241 
L 367.396984 -67.102097 
L 368.79498 -67.479567 
L 370.192976 -65.179565 
L 371.590971 -64.331458 
L 372.988967 -61.640536 
L 374.386963 -56.207217 
L 375.784958 -56.524182 
L 377.182954 -54.640137 
L 378.58095 -53.496005 
L 379.978946 -53.178708 
L 381.376941 -50.842755 
L 382.774937 -49.606493 
L 384.172933 -49.94309 
L 385.570928 -49.828269 
L 386.968924 -49.746415 
L 388.36692 -49.415492 
L 389.764915 -47.13189 
L 391.162911 -46.974116 
L 392.560907 -47.177239 
L 393.958903 -47.363274 
L 395.356898 -46.888786 
L 396.754894 -46.916095 
L 398.15289 -46.515087 
L 399.550885 -43.419652 
L 400.948881 -43.351394 
L 402.346877 -43.355964 
L 403.744872 -43.182545 
L 405.142868 -43.058552 
L 406.540864 -43.196183 
L 407.93886 -43.065572 
L 409.336855 -43.199481 
L 410.734851 -43.203871 
L 412.132847 -43.209789 
L 413.530842 -43.227975 
L 414.928838 -43.231544 
L 416.326834 -43.22694 
L 417.72483 -43.197818 
L 417.72483 -41.109353 
L 417.72483 -41.109353 
L 416.326834 -41.280912 
L 414.928838 -41.072085 
L 413.530842 -41.138543 
L 412.132847 -40.812099 
L 410.734851 -40.913632 
L 409.336855 -40.919406 
L 407.93886 -40.992745 
L 406.540864 -41.056101 
L 405.142868 -41.025665 
L 403.744872 -40.9403 
L 402.346877 -41.177717 
L 400.948881 -41.248116 
L 399.550885 -41.250854 
L 398.15289 -43.578306 
L 396.754894 -44.493155 
L 395.356898 -44.281683 
L 393.958903 -44.228246 
L 392.560907 -44.202809 
L 391.162911 -44.357302 
L 389.764915 -44.403388 
L 388.36692 -46.610796 
L 386.968924 -46.821345 
L 385.570928 -46.617859 
L 384.172933 -46.539163 
L 382.774937 -46.939248 
L 381.376941 -47.866056 
L 379.978946 -50.167302 
L 378.58095 -50.408485 
L 377.182954 -51.701804 
L 375.784958 -53.118471 
L 374.386963 -53.386453 
L 372.988967 -57.340313 
L 371.590971 -59.918587 
L 370.192976 -60.210231 
L 368.79498 -63.539547 
L 367.396984 -63.190004 
L 365.998988 -66.069916 
L 364.600993 -65.475701 
L 363.202997 -66.528512 
L 361.805001 -73.680143 
L 360.407006 -77.674936 
L 359.00901 -79.643497 
L 357.611014 -79.014314 
L 356.213019 -81.981916 
L 354.815023 -81.469462 
L 353.417027 -85.562229 
L 352.019031 -88.804351 
L 350.621036 -88.880971 
L 349.22304 -89.115215 
L 347.825044 -89.529934 
L 346.427049 -90.606411 
L 345.029053 -91.367631 
L 343.631057 -87.860121 
L 342.233061 -88.308369 
L 340.835066 -90.682214 
L 339.43707 -92.491809 
L 338.039074 -94.782786 
L 336.641079 -94.637129 
L 335.243083 -93.962018 
L 333.845087 -93.553859 
L 332.447092 -92.673594 
L 331.049096 -93.059953 
L 329.6511 -93.013219 
L 328.253104 -92.722085 
L 326.855109 -91.812859 
L 325.457113 -92.403679 
L 324.059117 -93.2196 
L 322.661122 -92.215726 
L 321.263126 -92.855786 
L 319.86513 -91.306428 
L 318.467134 -91.257786 
L 317.069139 -90.454519 
L 315.671143 -91.746533 
L 314.273147 -90.304895 
L 312.875152 -91.329765 
L 311.477156 -90.501796 
L 310.07916 -88.638045 
L 308.681165 -87.752537 
L 307.283169 -89.869583 
L 305.885173 -89.5435 
L 304.487177 -88.107447 
L 303.089182 -88.126791 
L 301.691186 -86.938151 
L 300.29319 -85.91257 
L 298.895195 -85.971162 
L 297.497199 -85.585442 
L 296.099203 -85.462204 
L 294.701207 -84.812754 
L 293.303212 -85.624445 
L 291.905216 -85.261053 
L 290.50722 -85.103464 
L 289.109225 -82.693802 
L 287.711229 -81.439322 
L 286.313233 -81.224173 
L 284.915238 -81.682993 
L 283.517242 -81.16191 
L 282.119246 -82.661864 
L 280.72125 -82.775654 
L 279.323255 -82.504379 
L 277.925259 -83.027625 
L 276.527263 -82.869358 
L 275.129268 -81.217022 
L 273.731272 -80.595737 
L 272.333276 -80.345337 
L 270.935281 -82.077392 
L 269.537285 -79.909694 
L 268.139289 -80.336454 
L 266.741293 -79.719561 
L 265.343298 -76.21135 
L 263.945302 -74.942464 
L 262.547306 -66.487243 
L 261.149311 -64.928612 
L 259.751315 -63.114159 
L 258.353319 -62.28638 
L 256.955323 -62.062166 
L 255.557328 -62.218777 
L 254.159332 -62.22425 
L 252.761336 -59.10714 
L 251.363341 -58.034238 
L 249.965345 -57.249534 
L 248.567349 -56.306616 
L 247.169354 -56.569477 
L 245.771358 -56.344972 
L 244.373362 -56.416169 
L 242.975366 -53.915644 
L 241.577371 -54.913901 
L 240.179375 -54.128779 
L 238.781379 -54.047069 
L 237.383384 -53.895818 
L 235.985388 -53.960713 
L 234.587392 -50.592845 
L 233.189396 -50.452182 
L 231.791401 -50.39304 
L 230.393405 -50.445772 
L 228.995409 -50.519045 
L 227.597414 -50.788523 
L 226.199418 -49.110681 
L 224.801422 -49.328231 
L 223.403427 -49.693509 
L 222.005431 -49.522545 
L 220.607435 -48.676041 
L 219.209439 -48.167769 
L 217.811444 -48.332988 
L 216.413448 -49.595721 
L 215.015452 -50.65742 
L 213.617457 -51.227883 
L 212.219461 -48.226895 
L 210.821465 -48.563736 
L 209.423469 -48.105569 
L 208.025474 -48.333924 
L 206.627478 -48.643316 
L 205.229482 -48.696401 
L 203.831487 -47.709711 
L 202.433491 -47.308263 
L 201.035495 -47.624864 
L 199.6375 -51.107086 
L 198.239504 -49.692435 
L 196.841508 -49.287872 
L 195.443512 -50.928999 
L 194.045517 -50.910106 
L 192.647521 -50.789131 
L 191.249525 -56.090853 
L 189.85153 -57.635303 
L 188.453534 -58.168801 
L 187.055538 -57.813691 
L 185.657543 -58.064099 
L 184.259547 -57.855802 
L 182.861551 -59.265958 
L 181.463555 -59.425806 
L 180.06556 -60.392052 
L 178.667564 -59.554624 
L 177.269568 -61.78276 
L 175.871573 -60.367863 
L 174.473577 -62.475038 
L 173.075581 -62.176182 
L 171.677585 -62.776124 
L 170.27959 -62.958995 
L 168.881594 -65.4345 
L 167.483598 -65.274181 
L 166.085603 -63.875895 
L 164.687607 -63.9439 
L 163.289611 -66.077867 
L 161.891616 -65.577922 
L 160.49362 -66.948785 
L 159.095624 -65.656769 
L 157.697628 -66.625873 
L 156.299633 -65.776279 
L 154.901637 -65.525867 
L 153.503641 -66.323866 
L 152.105646 -66.410946 
L 150.70765 -67.059962 
L 149.309654 -64.633192 
L 147.911658 -65.840618 
L 146.513663 -65.784031 
L 145.115667 -65.700316 
L 143.717671 -65.945423 
L 142.319676 -65.740767 
L 140.92168 -67.353811 
L 139.523684 -67.266976 
L 138.125689 -67.630908 
L 136.727693 -68.03635 
L 135.329697 -69.225379 
L 133.931701 -73.157475 
L 132.533706 -71.187642 
L 131.13571 -72.299002 
L 129.737714 -72.906484 
L 128.339719 -72.486135 
L 126.941723 -72.320197 
L 125.543727 -71.541345 
L 124.145731 -71.019301 
L 122.747736 -70.563409 
L 121.34974 -70.471596 
L 119.951744 -69.909765 
L 118.553749 -69.889118 
L 117.155753 -67.797374 
L 115.757757 -68.448924 
L 114.359762 -70.081755 
L 112.961766 -78.687992 
L 111.56377 -80.535905 
L 110.165774 -77.469377 
L 108.767779 -81.520866 
L 107.369783 -83.484706 
L 105.971787 -91.355846 
L 104.573792 -90.954222 
L 103.175796 -89.821102 
L 101.7778 -90.347075 
L 100.379804 -90.338052 
L 98.981809 -87.67106 
L 97.583813 -94.761792 
L 96.185817 -101.366872 
L 94.787822 -101.416644 
L 93.389826 -96.641509 
L 91.99183 -96.360192 
L 90.593835 -106.023489 
L 89.195839 -104.516246 
L 87.797843 -106.215371 
L 86.399847 -107.867246 
L 85.001852 -111.430665 
L 83.603856 -114.8811 
L 82.20586 -123.84139 
L 80.807865 -130.731434 
L 79.409869 -143.073174 
L 78.011873 -139.650181 
L 76.613878 -141.665099 
L 75.215882 -144.578542 
L 73.817886 -144.000424 
L 72.41989 -140.179379 
L 71.021895 -150.131059 
L 69.623899 -152.983281 
L 68.225903 -162.17547 
L 66.827908 -168.243932 
L 65.429912 -165.836722 
L 64.031916 -174.35687 
L 62.63392 -176.467809 
z
" style="stroke: #134a8e; stroke-opacity: 0.5; stroke-width: 0.5"/>
    </defs>
    <g clip-path="url(#p290a06dd22)">
     <use xlink:href="#maf483ec92a" x="0" y="200.909439" style="fill: #134a8e; fill-opacity: 0.5; stroke: #134a8e; stroke-opacity: 0.5; stroke-width: 0.5"/>
    </g>
   </g>
   <g id="line2d_29">
    <path d="M 62.63392 17.149597 
L 64.031916 19.464315 
L 65.429912 29.263831 
L 66.827908 26.136287 
L 68.225903 32.739829 
L 69.623899 41.252107 
L 71.021895 43.737259 
L 72.41989 55.812126 
L 73.817886 51.846481 
L 75.215882 51.112633 
L 76.613878 54.118335 
L 78.011873 55.135575 
L 79.409869 52.103393 
L 80.807865 64.849598 
L 82.20586 71.987627 
L 83.603856 80.99104 
L 86.399847 88.727813 
L 87.797843 90.108892 
L 89.195839 92.357592 
L 90.593835 91.080577 
L 91.99183 100.503699 
L 93.389826 100.2577 
L 94.787822 95.059392 
L 96.185817 95.494303 
L 97.583813 101.305618 
L 98.981809 109.729655 
L 100.379804 106.786402 
L 103.175796 107.343327 
L 104.573792 106.078187 
L 105.971787 105.522995 
L 107.369783 113.6724 
L 108.767779 116.148915 
L 110.165774 120.244558 
L 111.56377 117.399991 
L 112.961766 119.733039 
L 114.359762 128.10639 
L 115.757757 129.943191 
L 117.155753 130.336591 
L 118.553749 128.814456 
L 121.34974 128.117769 
L 122.747736 128.047789 
L 124.145731 127.525765 
L 126.941723 126.068841 
L 128.339719 125.764418 
L 129.737714 125.154521 
L 131.13571 125.961992 
L 132.533706 126.979403 
L 133.931701 124.632802 
L 135.329697 129.405666 
L 136.727693 130.579007 
L 139.523684 131.274093 
L 140.92168 131.335383 
L 142.319676 132.59955 
L 143.717671 132.653339 
L 145.115667 132.898411 
L 147.911658 132.882332 
L 149.309654 134.014162 
L 150.70765 131.748977 
L 152.105646 132.044441 
L 153.503641 131.93659 
L 154.901637 132.904019 
L 156.299633 133.007364 
L 157.697628 131.710277 
L 159.095624 132.758707 
L 160.49362 131.563146 
L 161.891616 133.081611 
L 163.289611 132.360596 
L 164.687607 134.712913 
L 166.085603 135.091241 
L 167.483598 133.247045 
L 168.881594 132.996656 
L 170.27959 135.856898 
L 173.075581 136.605416 
L 174.473577 136.31903 
L 175.871573 138.369985 
L 177.269568 136.858725 
L 178.667564 139.144329 
L 180.06556 138.486475 
L 181.463555 139.369989 
L 182.861551 139.769498 
L 184.259547 141.05453 
L 185.657543 140.838528 
L 187.055538 140.910985 
L 188.453534 140.849661 
L 189.85153 141.099461 
L 191.249525 142.71129 
L 192.647521 148.538188 
L 194.045517 148.416117 
L 195.443512 148.452667 
L 196.841508 150.183559 
L 198.239504 149.869056 
L 199.6375 148.275061 
L 201.035495 151.852186 
L 202.433491 151.957584 
L 203.831487 151.724069 
L 205.229482 150.681675 
L 206.627478 150.840071 
L 208.025474 150.859861 
L 209.423469 151.049458 
L 210.821465 150.82378 
L 212.219461 150.925805 
L 213.617457 148.212532 
L 215.015452 148.473289 
L 216.413448 149.761099 
L 217.811444 150.887761 
L 219.209439 151.021024 
L 220.607435 150.885586 
L 222.005431 149.756765 
L 223.403427 149.730139 
L 224.801422 150.07542 
L 226.199418 150.299387 
L 227.597414 148.834389 
L 228.995409 149.00797 
L 231.791401 149.015053 
L 233.189396 148.872977 
L 234.587392 148.859298 
L 235.985388 145.097601 
L 238.781379 144.980368 
L 240.179375 145.099398 
L 241.577371 144.131852 
L 242.975366 145.239917 
L 244.373362 142.454975 
L 245.771358 142.606668 
L 247.169354 142.507149 
L 248.567349 142.694623 
L 249.965345 141.653084 
L 251.363341 141.265215 
L 252.761336 139.914194 
L 254.159332 136.496215 
L 255.557328 136.395457 
L 256.955323 136.696963 
L 258.353319 136.517806 
L 259.751315 135.514416 
L 262.547306 132.084599 
L 263.945302 122.899507 
L 265.343298 121.270138 
L 266.741293 117.771241 
L 268.139289 117.307591 
L 269.537285 117.52533 
L 270.935281 115.349115 
L 272.333276 116.768332 
L 275.129268 116.599866 
L 276.527263 114.546414 
L 277.925259 114.040664 
L 279.323255 114.719265 
L 280.72125 114.473433 
L 282.119246 114.571795 
L 283.517242 116.186576 
L 284.915238 115.80053 
L 286.313233 116.194953 
L 289.109225 115.065808 
L 290.50722 112.512223 
L 291.905216 112.106073 
L 293.303212 111.844521 
L 294.701207 112.607688 
L 296.099203 111.601919 
L 297.497199 111.7882 
L 298.895195 111.058172 
L 300.29319 111.179387 
L 301.691186 110.899737 
L 303.089182 109.57908 
L 304.487177 109.154362 
L 305.885173 107.401087 
L 307.283169 106.925474 
L 308.681165 109.176258 
L 310.07916 108.388125 
L 311.477156 106.213114 
L 312.875152 106.241661 
L 314.273147 106.544373 
L 315.671143 105.329993 
L 317.069139 106.203601 
L 318.467134 105.702571 
L 319.86513 105.539585 
L 321.263126 104.153782 
L 322.661122 104.70819 
L 324.059117 103.943341 
L 326.855109 105.125858 
L 328.253104 104.183488 
L 329.6511 104.485588 
L 331.049096 104.074759 
L 332.447092 104.129676 
L 333.845087 103.492167 
L 335.243083 103.185549 
L 338.039074 102.080351 
L 339.43707 104.639993 
L 340.835066 106.484478 
L 342.233061 108.895376 
L 343.631057 109.298279 
L 345.029053 106.100924 
L 346.427049 106.278422 
L 347.825044 107.734176 
L 349.22304 108.129029 
L 350.621036 108.149176 
L 352.019031 108.644828 
L 353.417027 111.850578 
L 354.815023 115.830077 
L 356.213019 115.62206 
L 357.611014 118.814428 
L 359.00901 117.871585 
L 360.407006 119.725201 
L 361.805001 124.611197 
L 363.202997 132.192042 
L 364.600993 133.005982 
L 365.998988 132.993276 
L 367.396984 135.763388 
L 368.79498 135.399882 
L 370.192976 138.214541 
L 371.590971 138.784416 
L 372.988967 141.419014 
L 374.386963 146.112604 
L 375.784958 146.088112 
L 377.182954 147.738468 
L 378.58095 148.957194 
L 379.978946 149.236434 
L 381.376941 151.555033 
L 382.774937 152.636568 
L 386.968924 152.625559 
L 388.36692 152.896295 
L 389.764915 155.1418 
L 391.162911 155.24373 
L 393.958903 155.113679 
L 395.356898 155.324204 
L 396.754894 155.204814 
L 398.15289 155.862742 
L 399.550885 158.574186 
L 402.346877 158.642598 
L 403.744872 158.848016 
L 412.132847 158.898495 
L 413.530842 158.72618 
L 414.928838 158.757624 
L 416.326834 158.655513 
L 417.72483 158.755853 
L 417.72483 158.755853 
" clip-path="url(#p290a06dd22)" style="fill: none; stroke: #134a8e; stroke-width: 3; stroke-linecap: square"/>
    <defs>
     <path id="mfe705406d2" d="M 0 1.5 
C 0.397805 1.5 0.77937 1.341951 1.06066 1.06066 
C 1.341951 0.77937 1.5 0.397805 1.5 0 
C 1.5 -0.397805 1.341951 -0.77937 1.06066 -1.06066 
C 0.77937 -1.341951 0.397805 -1.5 0 -1.5 
C -0.397805 -1.5 -0.77937 -1.341951 -1.06066 -1.06066 
C -1.341951 -0.77937 -1.5 -0.397805 -1.5 0 
C -1.5 0.397805 -1.341951 0.77937 -1.06066 1.06066 
C -0.77937 1.341951 -0.397805 1.5 0 1.5 
z
" style="stroke: #134a8e"/>
    </defs>
    <g clip-path="url(#p290a06dd22)">
     <use xlink:href="#mfe705406d2" x="62.63392" y="17.149597" style="fill: #134a8e; stroke: #134a8e"/>
     <use xlink:href="#mfe705406d2" x="64.031916" y="19.464315" style="fill: #134a8e; stroke: #134a8e"/>
     <use xlink:href="#mfe705406d2" x="65.429912" y="29.263831" style="fill: #134a8e; stroke: #134a8e"/>
     <use xlink:href="#mfe705406d2" x="66.827908" y="26.136287" style="fill: #134a8e; stroke: #134a8e"/>
     <use xlink:href="#mfe705406d2" x="68.225903" y="32.739829" style="fill: #134a8e; stroke: #134a8e"/>
     <use xlink:href="#mfe705406d2" x="69.623899" y="41.252107" style="fill: #134a8e; stroke: #134a8e"/>
     <use xlink:href="#mfe705406d2" x="71.021895" y="43.737259" style="fill: #134a8e; stroke: #134a8e"/>
     <use xlink:href="#mfe705406d2" x="72.41989" y="55.812126" style="fill: #134a8e; stroke: #134a8e"/>
     <use xlink:href="#mfe705406d2" x="73.817886" y="51.846481" style="fill: #134a8e; stroke: #134a8e"/>
     <use xlink:href="#mfe705406d2" x="75.215882" y="51.112633" style="fill: #134a8e; stroke: #134a8e"/>
     <use xlink:href="#mfe705406d2" x="76.613878" y="54.118335" style="fill: #134a8e; stroke: #134a8e"/>
     <use xlink:href="#mfe705406d2" x="78.011873" y="55.135575" style="fill: #134a8e; stroke: #134a8e"/>
     <use xlink:href="#mfe705406d2" x="79.409869" y="52.103393" style="fill: #134a8e; stroke: #134a8e"/>
     <use xlink:href="#mfe705406d2" x="80.807865" y="64.849598" style="fill: #134a8e; stroke: #134a8e"/>
     <use xlink:href="#mfe705406d2" x="82.20586" y="71.987627" style="fill: #134a8e; stroke: #134a8e"/>
     <use xlink:href="#mfe705406d2" x="83.603856" y="80.99104" style="fill: #134a8e; stroke: #134a8e"/>
     <use xlink:href="#mfe705406d2" x="85.001852" y="84.842653" style="fill: #134a8e; stroke: #134a8e"/>
     <use xlink:href="#mfe705406d2" x="86.399847" y="88.727813" style="fill: #134a8e; stroke: #134a8e"/>
     <use xlink:href="#mfe705406d2" x="87.797843" y="90.108892" style="fill: #134a8e; stroke: #134a8e"/>
     <use xlink:href="#mfe705406d2" x="89.195839" y="92.357592" style="fill: #134a8e; stroke: #134a8e"/>
     <use xlink:href="#mfe705406d2" x="90.593835" y="91.080577" style="fill: #134a8e; stroke: #134a8e"/>
     <use xlink:href="#mfe705406d2" x="91.99183" y="100.503699" style="fill: #134a8e; stroke: #134a8e"/>
     <use xlink:href="#mfe705406d2" x="93.389826" y="100.2577" style="fill: #134a8e; stroke: #134a8e"/>
     <use xlink:href="#mfe705406d2" x="94.787822" y="95.059392" style="fill: #134a8e; stroke: #134a8e"/>
     <use xlink:href="#mfe705406d2" x="96.185817" y="95.494303" style="fill: #134a8e; stroke: #134a8e"/>
     <use xlink:href="#mfe705406d2" x="97.583813" y="101.305618" style="fill: #134a8e; stroke: #134a8e"/>
     <use xlink:href="#mfe705406d2" x="98.981809" y="109.729655" style="fill: #134a8e; stroke: #134a8e"/>
     <use xlink:href="#mfe705406d2" x="100.379804" y="106.786402" style="fill: #134a8e; stroke: #134a8e"/>
     <use xlink:href="#mfe705406d2" x="101.7778" y="107.0631" style="fill: #134a8e; stroke: #134a8e"/>
     <use xlink:href="#mfe705406d2" x="103.175796" y="107.343327" style="fill: #134a8e; stroke: #134a8e"/>
     <use xlink:href="#mfe705406d2" x="104.573792" y="106.078187" style="fill: #134a8e; stroke: #134a8e"/>
     <use xlink:href="#mfe705406d2" x="105.971787" y="105.522995" style="fill: #134a8e; stroke: #134a8e"/>
     <use xlink:href="#mfe705406d2" x="107.369783" y="113.6724" style="fill: #134a8e; stroke: #134a8e"/>
     <use xlink:href="#mfe705406d2" x="108.767779" y="116.148915" style="fill: #134a8e; stroke: #134a8e"/>
     <use xlink:href="#mfe705406d2" x="110.165774" y="120.244558" style="fill: #134a8e; stroke: #134a8e"/>
     <use xlink:href="#mfe705406d2" x="111.56377" y="117.399991" style="fill: #134a8e; stroke: #134a8e"/>
     <use xlink:href="#mfe705406d2" x="112.961766" y="119.733039" style="fill: #134a8e; stroke: #134a8e"/>
     <use xlink:href="#mfe705406d2" x="114.359762" y="128.10639" style="fill: #134a8e; stroke: #134a8e"/>
     <use xlink:href="#mfe705406d2" x="115.757757" y="129.943191" style="fill: #134a8e; stroke: #134a8e"/>
     <use xlink:href="#mfe705406d2" x="117.155753" y="130.336591" style="fill: #134a8e; stroke: #134a8e"/>
     <use xlink:href="#mfe705406d2" x="118.553749" y="128.814456" style="fill: #134a8e; stroke: #134a8e"/>
     <use xlink:href="#mfe705406d2" x="119.951744" y="128.454322" style="fill: #134a8e; stroke: #134a8e"/>
     <use xlink:href="#mfe705406d2" x="121.34974" y="128.117769" style="fill: #134a8e; stroke: #134a8e"/>
     <use xlink:href="#mfe705406d2" x="122.747736" y="128.047789" style="fill: #134a8e; stroke: #134a8e"/>
     <use xlink:href="#mfe705406d2" x="124.145731" y="127.525765" style="fill: #134a8e; stroke: #134a8e"/>
     <use xlink:href="#mfe705406d2" x="125.543727" y="126.797725" style="fill: #134a8e; stroke: #134a8e"/>
     <use xlink:href="#mfe705406d2" x="126.941723" y="126.068841" style="fill: #134a8e; stroke: #134a8e"/>
     <use xlink:href="#mfe705406d2" x="128.339719" y="125.764418" style="fill: #134a8e; stroke: #134a8e"/>
     <use xlink:href="#mfe705406d2" x="129.737714" y="125.154521" style="fill: #134a8e; stroke: #134a8e"/>
     <use xlink:href="#mfe705406d2" x="131.13571" y="125.961992" style="fill: #134a8e; stroke: #134a8e"/>
     <use xlink:href="#mfe705406d2" x="132.533706" y="126.979403" style="fill: #134a8e; stroke: #134a8e"/>
     <use xlink:href="#mfe705406d2" x="133.931701" y="124.632802" style="fill: #134a8e; stroke: #134a8e"/>
     <use xlink:href="#mfe705406d2" x="135.329697" y="129.405666" style="fill: #134a8e; stroke: #134a8e"/>
     <use xlink:href="#mfe705406d2" x="136.727693" y="130.579007" style="fill: #134a8e; stroke: #134a8e"/>
     <use xlink:href="#mfe705406d2" x="138.125689" y="130.930041" style="fill: #134a8e; stroke: #134a8e"/>
     <use xlink:href="#mfe705406d2" x="139.523684" y="131.274093" style="fill: #134a8e; stroke: #134a8e"/>
     <use xlink:href="#mfe705406d2" x="140.92168" y="131.335383" style="fill: #134a8e; stroke: #134a8e"/>
     <use xlink:href="#mfe705406d2" x="142.319676" y="132.59955" style="fill: #134a8e; stroke: #134a8e"/>
     <use xlink:href="#mfe705406d2" x="143.717671" y="132.653339" style="fill: #134a8e; stroke: #134a8e"/>
     <use xlink:href="#mfe705406d2" x="145.115667" y="132.898411" style="fill: #134a8e; stroke: #134a8e"/>
     <use xlink:href="#mfe705406d2" x="146.513663" y="132.905061" style="fill: #134a8e; stroke: #134a8e"/>
     <use xlink:href="#mfe705406d2" x="147.911658" y="132.882332" style="fill: #134a8e; stroke: #134a8e"/>
     <use xlink:href="#mfe705406d2" x="149.309654" y="134.014162" style="fill: #134a8e; stroke: #134a8e"/>
     <use xlink:href="#mfe705406d2" x="150.70765" y="131.748977" style="fill: #134a8e; stroke: #134a8e"/>
     <use xlink:href="#mfe705406d2" x="152.105646" y="132.044441" style="fill: #134a8e; stroke: #134a8e"/>
     <use xlink:href="#mfe705406d2" x="153.503641" y="131.93659" style="fill: #134a8e; stroke: #134a8e"/>
     <use xlink:href="#mfe705406d2" x="154.901637" y="132.904019" style="fill: #134a8e; stroke: #134a8e"/>
     <use xlink:href="#mfe705406d2" x="156.299633" y="133.007364" style="fill: #134a8e; stroke: #134a8e"/>
     <use xlink:href="#mfe705406d2" x="157.697628" y="131.710277" style="fill: #134a8e; stroke: #134a8e"/>
     <use xlink:href="#mfe705406d2" x="159.095624" y="132.758707" style="fill: #134a8e; stroke: #134a8e"/>
     <use xlink:href="#mfe705406d2" x="160.49362" y="131.563146" style="fill: #134a8e; stroke: #134a8e"/>
     <use xlink:href="#mfe705406d2" x="161.891616" y="133.081611" style="fill: #134a8e; stroke: #134a8e"/>
     <use xlink:href="#mfe705406d2" x="163.289611" y="132.360596" style="fill: #134a8e; stroke: #134a8e"/>
     <use xlink:href="#mfe705406d2" x="164.687607" y="134.712913" style="fill: #134a8e; stroke: #134a8e"/>
     <use xlink:href="#mfe705406d2" x="166.085603" y="135.091241" style="fill: #134a8e; stroke: #134a8e"/>
     <use xlink:href="#mfe705406d2" x="167.483598" y="133.247045" style="fill: #134a8e; stroke: #134a8e"/>
     <use xlink:href="#mfe705406d2" x="168.881594" y="132.996656" style="fill: #134a8e; stroke: #134a8e"/>
     <use xlink:href="#mfe705406d2" x="170.27959" y="135.856898" style="fill: #134a8e; stroke: #134a8e"/>
     <use xlink:href="#mfe705406d2" x="171.677585" y="136.1811" style="fill: #134a8e; stroke: #134a8e"/>
     <use xlink:href="#mfe705406d2" x="173.075581" y="136.605416" style="fill: #134a8e; stroke: #134a8e"/>
     <use xlink:href="#mfe705406d2" x="174.473577" y="136.31903" style="fill: #134a8e; stroke: #134a8e"/>
     <use xlink:href="#mfe705406d2" x="175.871573" y="138.369985" style="fill: #134a8e; stroke: #134a8e"/>
     <use xlink:href="#mfe705406d2" x="177.269568" y="136.858725" style="fill: #134a8e; stroke: #134a8e"/>
     <use xlink:href="#mfe705406d2" x="178.667564" y="139.144329" style="fill: #134a8e; stroke: #134a8e"/>
     <use xlink:href="#mfe705406d2" x="180.06556" y="138.486475" style="fill: #134a8e; stroke: #134a8e"/>
     <use xlink:href="#mfe705406d2" x="181.463555" y="139.369989" style="fill: #134a8e; stroke: #134a8e"/>
     <use xlink:href="#mfe705406d2" x="182.861551" y="139.769498" style="fill: #134a8e; stroke: #134a8e"/>
     <use xlink:href="#mfe705406d2" x="184.259547" y="141.05453" style="fill: #134a8e; stroke: #134a8e"/>
     <use xlink:href="#mfe705406d2" x="185.657543" y="140.838528" style="fill: #134a8e; stroke: #134a8e"/>
     <use xlink:href="#mfe705406d2" x="187.055538" y="140.910985" style="fill: #134a8e; stroke: #134a8e"/>
     <use xlink:href="#mfe705406d2" x="188.453534" y="140.849661" style="fill: #134a8e; stroke: #134a8e"/>
     <use xlink:href="#mfe705406d2" x="189.85153" y="141.099461" style="fill: #134a8e; stroke: #134a8e"/>
     <use xlink:href="#mfe705406d2" x="191.249525" y="142.71129" style="fill: #134a8e; stroke: #134a8e"/>
     <use xlink:href="#mfe705406d2" x="192.647521" y="148.538188" style="fill: #134a8e; stroke: #134a8e"/>
     <use xlink:href="#mfe705406d2" x="194.045517" y="148.416117" style="fill: #134a8e; stroke: #134a8e"/>
     <use xlink:href="#mfe705406d2" x="195.443512" y="148.452667" style="fill: #134a8e; stroke: #134a8e"/>
     <use xlink:href="#mfe705406d2" x="196.841508" y="150.183559" style="fill: #134a8e; stroke: #134a8e"/>
     <use xlink:href="#mfe705406d2" x="198.239504" y="149.869056" style="fill: #134a8e; stroke: #134a8e"/>
     <use xlink:href="#mfe705406d2" x="199.6375" y="148.275061" style="fill: #134a8e; stroke: #134a8e"/>
     <use xlink:href="#mfe705406d2" x="201.035495" y="151.852186" style="fill: #134a8e; stroke: #134a8e"/>
     <use xlink:href="#mfe705406d2" x="202.433491" y="151.957584" style="fill: #134a8e; stroke: #134a8e"/>
     <use xlink:href="#mfe705406d2" x="203.831487" y="151.724069" style="fill: #134a8e; stroke: #134a8e"/>
     <use xlink:href="#mfe705406d2" x="205.229482" y="150.681675" style="fill: #134a8e; stroke: #134a8e"/>
     <use xlink:href="#mfe705406d2" x="206.627478" y="150.840071" style="fill: #134a8e; stroke: #134a8e"/>
     <use xlink:href="#mfe705406d2" x="208.025474" y="150.859861" style="fill: #134a8e; stroke: #134a8e"/>
     <use xlink:href="#mfe705406d2" x="209.423469" y="151.049458" style="fill: #134a8e; stroke: #134a8e"/>
     <use xlink:href="#mfe705406d2" x="210.821465" y="150.82378" style="fill: #134a8e; stroke: #134a8e"/>
     <use xlink:href="#mfe705406d2" x="212.219461" y="150.925805" style="fill: #134a8e; stroke: #134a8e"/>
     <use xlink:href="#mfe705406d2" x="213.617457" y="148.212532" style="fill: #134a8e; stroke: #134a8e"/>
     <use xlink:href="#mfe705406d2" x="215.015452" y="148.473289" style="fill: #134a8e; stroke: #134a8e"/>
     <use xlink:href="#mfe705406d2" x="216.413448" y="149.761099" style="fill: #134a8e; stroke: #134a8e"/>
     <use xlink:href="#mfe705406d2" x="217.811444" y="150.887761" style="fill: #134a8e; stroke: #134a8e"/>
     <use xlink:href="#mfe705406d2" x="219.209439" y="151.021024" style="fill: #134a8e; stroke: #134a8e"/>
     <use xlink:href="#mfe705406d2" x="220.607435" y="150.885586" style="fill: #134a8e; stroke: #134a8e"/>
     <use xlink:href="#mfe705406d2" x="222.005431" y="149.756765" style="fill: #134a8e; stroke: #134a8e"/>
     <use xlink:href="#mfe705406d2" x="223.403427" y="149.730139" style="fill: #134a8e; stroke: #134a8e"/>
     <use xlink:href="#mfe705406d2" x="224.801422" y="150.07542" style="fill: #134a8e; stroke: #134a8e"/>
     <use xlink:href="#mfe705406d2" x="226.199418" y="150.299387" style="fill: #134a8e; stroke: #134a8e"/>
     <use xlink:href="#mfe705406d2" x="227.597414" y="148.834389" style="fill: #134a8e; stroke: #134a8e"/>
     <use xlink:href="#mfe705406d2" x="228.995409" y="149.00797" style="fill: #134a8e; stroke: #134a8e"/>
     <use xlink:href="#mfe705406d2" x="230.393405" y="149.015444" style="fill: #134a8e; stroke: #134a8e"/>
     <use xlink:href="#mfe705406d2" x="231.791401" y="149.015053" style="fill: #134a8e; stroke: #134a8e"/>
     <use xlink:href="#mfe705406d2" x="233.189396" y="148.872977" style="fill: #134a8e; stroke: #134a8e"/>
     <use xlink:href="#mfe705406d2" x="234.587392" y="148.859298" style="fill: #134a8e; stroke: #134a8e"/>
     <use xlink:href="#mfe705406d2" x="235.985388" y="145.097601" style="fill: #134a8e; stroke: #134a8e"/>
     <use xlink:href="#mfe705406d2" x="237.383384" y="145.004819" style="fill: #134a8e; stroke: #134a8e"/>
     <use xlink:href="#mfe705406d2" x="238.781379" y="144.980368" style="fill: #134a8e; stroke: #134a8e"/>
     <use xlink:href="#mfe705406d2" x="240.179375" y="145.099398" style="fill: #134a8e; stroke: #134a8e"/>
     <use xlink:href="#mfe705406d2" x="241.577371" y="144.131852" style="fill: #134a8e; stroke: #134a8e"/>
     <use xlink:href="#mfe705406d2" x="242.975366" y="145.239917" style="fill: #134a8e; stroke: #134a8e"/>
     <use xlink:href="#mfe705406d2" x="244.373362" y="142.454975" style="fill: #134a8e; stroke: #134a8e"/>
     <use xlink:href="#mfe705406d2" x="245.771358" y="142.606668" style="fill: #134a8e; stroke: #134a8e"/>
     <use xlink:href="#mfe705406d2" x="247.169354" y="142.507149" style="fill: #134a8e; stroke: #134a8e"/>
     <use xlink:href="#mfe705406d2" x="248.567349" y="142.694623" style="fill: #134a8e; stroke: #134a8e"/>
     <use xlink:href="#mfe705406d2" x="249.965345" y="141.653084" style="fill: #134a8e; stroke: #134a8e"/>
     <use xlink:href="#mfe705406d2" x="251.363341" y="141.265215" style="fill: #134a8e; stroke: #134a8e"/>
     <use xlink:href="#mfe705406d2" x="252.761336" y="139.914194" style="fill: #134a8e; stroke: #134a8e"/>
     <use xlink:href="#mfe705406d2" x="254.159332" y="136.496215" style="fill: #134a8e; stroke: #134a8e"/>
     <use xlink:href="#mfe705406d2" x="255.557328" y="136.395457" style="fill: #134a8e; stroke: #134a8e"/>
     <use xlink:href="#mfe705406d2" x="256.955323" y="136.696963" style="fill: #134a8e; stroke: #134a8e"/>
     <use xlink:href="#mfe705406d2" x="258.353319" y="136.517806" style="fill: #134a8e; stroke: #134a8e"/>
     <use xlink:href="#mfe705406d2" x="259.751315" y="135.514416" style="fill: #134a8e; stroke: #134a8e"/>
     <use xlink:href="#mfe705406d2" x="261.149311" y="133.756187" style="fill: #134a8e; stroke: #134a8e"/>
     <use xlink:href="#mfe705406d2" x="262.547306" y="132.084599" style="fill: #134a8e; stroke: #134a8e"/>
     <use xlink:href="#mfe705406d2" x="263.945302" y="122.899507" style="fill: #134a8e; stroke: #134a8e"/>
     <use xlink:href="#mfe705406d2" x="265.343298" y="121.270138" style="fill: #134a8e; stroke: #134a8e"/>
     <use xlink:href="#mfe705406d2" x="266.741293" y="117.771241" style="fill: #134a8e; stroke: #134a8e"/>
     <use xlink:href="#mfe705406d2" x="268.139289" y="117.307591" style="fill: #134a8e; stroke: #134a8e"/>
     <use xlink:href="#mfe705406d2" x="269.537285" y="117.52533" style="fill: #134a8e; stroke: #134a8e"/>
     <use xlink:href="#mfe705406d2" x="270.935281" y="115.349115" style="fill: #134a8e; stroke: #134a8e"/>
     <use xlink:href="#mfe705406d2" x="272.333276" y="116.768332" style="fill: #134a8e; stroke: #134a8e"/>
     <use xlink:href="#mfe705406d2" x="273.731272" y="116.691924" style="fill: #134a8e; stroke: #134a8e"/>
     <use xlink:href="#mfe705406d2" x="275.129268" y="116.599866" style="fill: #134a8e; stroke: #134a8e"/>
     <use xlink:href="#mfe705406d2" x="276.527263" y="114.546414" style="fill: #134a8e; stroke: #134a8e"/>
     <use xlink:href="#mfe705406d2" x="277.925259" y="114.040664" style="fill: #134a8e; stroke: #134a8e"/>
     <use xlink:href="#mfe705406d2" x="279.323255" y="114.719265" style="fill: #134a8e; stroke: #134a8e"/>
     <use xlink:href="#mfe705406d2" x="280.72125" y="114.473433" style="fill: #134a8e; stroke: #134a8e"/>
     <use xlink:href="#mfe705406d2" x="282.119246" y="114.571795" style="fill: #134a8e; stroke: #134a8e"/>
     <use xlink:href="#mfe705406d2" x="283.517242" y="116.186576" style="fill: #134a8e; stroke: #134a8e"/>
     <use xlink:href="#mfe705406d2" x="284.915238" y="115.80053" style="fill: #134a8e; stroke: #134a8e"/>
     <use xlink:href="#mfe705406d2" x="286.313233" y="116.194953" style="fill: #134a8e; stroke: #134a8e"/>
     <use xlink:href="#mfe705406d2" x="287.711229" y="115.612996" style="fill: #134a8e; stroke: #134a8e"/>
     <use xlink:href="#mfe705406d2" x="289.109225" y="115.065808" style="fill: #134a8e; stroke: #134a8e"/>
     <use xlink:href="#mfe705406d2" x="290.50722" y="112.512223" style="fill: #134a8e; stroke: #134a8e"/>
     <use xlink:href="#mfe705406d2" x="291.905216" y="112.106073" style="fill: #134a8e; stroke: #134a8e"/>
     <use xlink:href="#mfe705406d2" x="293.303212" y="111.844521" style="fill: #134a8e; stroke: #134a8e"/>
     <use xlink:href="#mfe705406d2" x="294.701207" y="112.607688" style="fill: #134a8e; stroke: #134a8e"/>
     <use xlink:href="#mfe705406d2" x="296.099203" y="111.601919" style="fill: #134a8e; stroke: #134a8e"/>
     <use xlink:href="#mfe705406d2" x="297.497199" y="111.7882" style="fill: #134a8e; stroke: #134a8e"/>
     <use xlink:href="#mfe705406d2" x="298.895195" y="111.058172" style="fill: #134a8e; stroke: #134a8e"/>
     <use xlink:href="#mfe705406d2" x="300.29319" y="111.179387" style="fill: #134a8e; stroke: #134a8e"/>
     <use xlink:href="#mfe705406d2" x="301.691186" y="110.899737" style="fill: #134a8e; stroke: #134a8e"/>
     <use xlink:href="#mfe705406d2" x="303.089182" y="109.57908" style="fill: #134a8e; stroke: #134a8e"/>
     <use xlink:href="#mfe705406d2" x="304.487177" y="109.154362" style="fill: #134a8e; stroke: #134a8e"/>
     <use xlink:href="#mfe705406d2" x="305.885173" y="107.401087" style="fill: #134a8e; stroke: #134a8e"/>
     <use xlink:href="#mfe705406d2" x="307.283169" y="106.925474" style="fill: #134a8e; stroke: #134a8e"/>
     <use xlink:href="#mfe705406d2" x="308.681165" y="109.176258" style="fill: #134a8e; stroke: #134a8e"/>
     <use xlink:href="#mfe705406d2" x="310.07916" y="108.388125" style="fill: #134a8e; stroke: #134a8e"/>
     <use xlink:href="#mfe705406d2" x="311.477156" y="106.213114" style="fill: #134a8e; stroke: #134a8e"/>
     <use xlink:href="#mfe705406d2" x="312.875152" y="106.241661" style="fill: #134a8e; stroke: #134a8e"/>
     <use xlink:href="#mfe705406d2" x="314.273147" y="106.544373" style="fill: #134a8e; stroke: #134a8e"/>
     <use xlink:href="#mfe705406d2" x="315.671143" y="105.329993" style="fill: #134a8e; stroke: #134a8e"/>
     <use xlink:href="#mfe705406d2" x="317.069139" y="106.203601" style="fill: #134a8e; stroke: #134a8e"/>
     <use xlink:href="#mfe705406d2" x="318.467134" y="105.702571" style="fill: #134a8e; stroke: #134a8e"/>
     <use xlink:href="#mfe705406d2" x="319.86513" y="105.539585" style="fill: #134a8e; stroke: #134a8e"/>
     <use xlink:href="#mfe705406d2" x="321.263126" y="104.153782" style="fill: #134a8e; stroke: #134a8e"/>
     <use xlink:href="#mfe705406d2" x="322.661122" y="104.70819" style="fill: #134a8e; stroke: #134a8e"/>
     <use xlink:href="#mfe705406d2" x="324.059117" y="103.943341" style="fill: #134a8e; stroke: #134a8e"/>
     <use xlink:href="#mfe705406d2" x="325.457113" y="104.494628" style="fill: #134a8e; stroke: #134a8e"/>
     <use xlink:href="#mfe705406d2" x="326.855109" y="105.125858" style="fill: #134a8e; stroke: #134a8e"/>
     <use xlink:href="#mfe705406d2" x="328.253104" y="104.183488" style="fill: #134a8e; stroke: #134a8e"/>
     <use xlink:href="#mfe705406d2" x="329.6511" y="104.485588" style="fill: #134a8e; stroke: #134a8e"/>
     <use xlink:href="#mfe705406d2" x="331.049096" y="104.074759" style="fill: #134a8e; stroke: #134a8e"/>
     <use xlink:href="#mfe705406d2" x="332.447092" y="104.129676" style="fill: #134a8e; stroke: #134a8e"/>
     <use xlink:href="#mfe705406d2" x="333.845087" y="103.492167" style="fill: #134a8e; stroke: #134a8e"/>
     <use xlink:href="#mfe705406d2" x="335.243083" y="103.185549" style="fill: #134a8e; stroke: #134a8e"/>
     <use xlink:href="#mfe705406d2" x="336.641079" y="102.687867" style="fill: #134a8e; stroke: #134a8e"/>
     <use xlink:href="#mfe705406d2" x="338.039074" y="102.080351" style="fill: #134a8e; stroke: #134a8e"/>
     <use xlink:href="#mfe705406d2" x="339.43707" y="104.639993" style="fill: #134a8e; stroke: #134a8e"/>
     <use xlink:href="#mfe705406d2" x="340.835066" y="106.484478" style="fill: #134a8e; stroke: #134a8e"/>
     <use xlink:href="#mfe705406d2" x="342.233061" y="108.895376" style="fill: #134a8e; stroke: #134a8e"/>
     <use xlink:href="#mfe705406d2" x="343.631057" y="109.298279" style="fill: #134a8e; stroke: #134a8e"/>
     <use xlink:href="#mfe705406d2" x="345.029053" y="106.100924" style="fill: #134a8e; stroke: #134a8e"/>
     <use xlink:href="#mfe705406d2" x="346.427049" y="106.278422" style="fill: #134a8e; stroke: #134a8e"/>
     <use xlink:href="#mfe705406d2" x="347.825044" y="107.734176" style="fill: #134a8e; stroke: #134a8e"/>
     <use xlink:href="#mfe705406d2" x="349.22304" y="108.129029" style="fill: #134a8e; stroke: #134a8e"/>
     <use xlink:href="#mfe705406d2" x="350.621036" y="108.149176" style="fill: #134a8e; stroke: #134a8e"/>
     <use xlink:href="#mfe705406d2" x="352.019031" y="108.644828" style="fill: #134a8e; stroke: #134a8e"/>
     <use xlink:href="#mfe705406d2" x="353.417027" y="111.850578" style="fill: #134a8e; stroke: #134a8e"/>
     <use xlink:href="#mfe705406d2" x="354.815023" y="115.830077" style="fill: #134a8e; stroke: #134a8e"/>
     <use xlink:href="#mfe705406d2" x="356.213019" y="115.62206" style="fill: #134a8e; stroke: #134a8e"/>
     <use xlink:href="#mfe705406d2" x="357.611014" y="118.814428" style="fill: #134a8e; stroke: #134a8e"/>
     <use xlink:href="#mfe705406d2" x="359.00901" y="117.871585" style="fill: #134a8e; stroke: #134a8e"/>
     <use xlink:href="#mfe705406d2" x="360.407006" y="119.725201" style="fill: #134a8e; stroke: #134a8e"/>
     <use xlink:href="#mfe705406d2" x="361.805001" y="124.611197" style="fill: #134a8e; stroke: #134a8e"/>
     <use xlink:href="#mfe705406d2" x="363.202997" y="132.192042" style="fill: #134a8e; stroke: #134a8e"/>
     <use xlink:href="#mfe705406d2" x="364.600993" y="133.005982" style="fill: #134a8e; stroke: #134a8e"/>
     <use xlink:href="#mfe705406d2" x="365.998988" y="132.993276" style="fill: #134a8e; stroke: #134a8e"/>
     <use xlink:href="#mfe705406d2" x="367.396984" y="135.763388" style="fill: #134a8e; stroke: #134a8e"/>
     <use xlink:href="#mfe705406d2" x="368.79498" y="135.399882" style="fill: #134a8e; stroke: #134a8e"/>
     <use xlink:href="#mfe705406d2" x="370.192976" y="138.214541" style="fill: #134a8e; stroke: #134a8e"/>
     <use xlink:href="#mfe705406d2" x="371.590971" y="138.784416" style="fill: #134a8e; stroke: #134a8e"/>
     <use xlink:href="#mfe705406d2" x="372.988967" y="141.419014" style="fill: #134a8e; stroke: #134a8e"/>
     <use xlink:href="#mfe705406d2" x="374.386963" y="146.112604" style="fill: #134a8e; stroke: #134a8e"/>
     <use xlink:href="#mfe705406d2" x="375.784958" y="146.088112" style="fill: #134a8e; stroke: #134a8e"/>
     <use xlink:href="#mfe705406d2" x="377.182954" y="147.738468" style="fill: #134a8e; stroke: #134a8e"/>
     <use xlink:href="#mfe705406d2" x="378.58095" y="148.957194" style="fill: #134a8e; stroke: #134a8e"/>
     <use xlink:href="#mfe705406d2" x="379.978946" y="149.236434" style="fill: #134a8e; stroke: #134a8e"/>
     <use xlink:href="#mfe705406d2" x="381.376941" y="151.555033" style="fill: #134a8e; stroke: #134a8e"/>
     <use xlink:href="#mfe705406d2" x="382.774937" y="152.636568" style="fill: #134a8e; stroke: #134a8e"/>
     <use xlink:href="#mfe705406d2" x="384.172933" y="152.668312" style="fill: #134a8e; stroke: #134a8e"/>
     <use xlink:href="#mfe705406d2" x="385.570928" y="152.686375" style="fill: #134a8e; stroke: #134a8e"/>
     <use xlink:href="#mfe705406d2" x="386.968924" y="152.625559" style="fill: #134a8e; stroke: #134a8e"/>
     <use xlink:href="#mfe705406d2" x="388.36692" y="152.896295" style="fill: #134a8e; stroke: #134a8e"/>
     <use xlink:href="#mfe705406d2" x="389.764915" y="155.1418" style="fill: #134a8e; stroke: #134a8e"/>
     <use xlink:href="#mfe705406d2" x="391.162911" y="155.24373" style="fill: #134a8e; stroke: #134a8e"/>
     <use xlink:href="#mfe705406d2" x="392.560907" y="155.219415" style="fill: #134a8e; stroke: #134a8e"/>
     <use xlink:href="#mfe705406d2" x="393.958903" y="155.113679" style="fill: #134a8e; stroke: #134a8e"/>
     <use xlink:href="#mfe705406d2" x="395.356898" y="155.324204" style="fill: #134a8e; stroke: #134a8e"/>
     <use xlink:href="#mfe705406d2" x="396.754894" y="155.204814" style="fill: #134a8e; stroke: #134a8e"/>
     <use xlink:href="#mfe705406d2" x="398.15289" y="155.862742" style="fill: #134a8e; stroke: #134a8e"/>
     <use xlink:href="#mfe705406d2" x="399.550885" y="158.574186" style="fill: #134a8e; stroke: #134a8e"/>
     <use xlink:href="#mfe705406d2" x="400.948881" y="158.609684" style="fill: #134a8e; stroke: #134a8e"/>
     <use xlink:href="#mfe705406d2" x="402.346877" y="158.642598" style="fill: #134a8e; stroke: #134a8e"/>
     <use xlink:href="#mfe705406d2" x="403.744872" y="158.848016" style="fill: #134a8e; stroke: #134a8e"/>
     <use xlink:href="#mfe705406d2" x="405.142868" y="158.86733" style="fill: #134a8e; stroke: #134a8e"/>
     <use xlink:href="#mfe705406d2" x="406.540864" y="158.783297" style="fill: #134a8e; stroke: #134a8e"/>
     <use xlink:href="#mfe705406d2" x="407.93886" y="158.88028" style="fill: #134a8e; stroke: #134a8e"/>
     <use xlink:href="#mfe705406d2" x="409.336855" y="158.849996" style="fill: #134a8e; stroke: #134a8e"/>
     <use xlink:href="#mfe705406d2" x="410.734851" y="158.850687" style="fill: #134a8e; stroke: #134a8e"/>
     <use xlink:href="#mfe705406d2" x="412.132847" y="158.898495" style="fill: #134a8e; stroke: #134a8e"/>
     <use xlink:href="#mfe705406d2" x="413.530842" y="158.72618" style="fill: #134a8e; stroke: #134a8e"/>
     <use xlink:href="#mfe705406d2" x="414.928838" y="158.757624" style="fill: #134a8e; stroke: #134a8e"/>
     <use xlink:href="#mfe705406d2" x="416.326834" y="158.655513" style="fill: #134a8e; stroke: #134a8e"/>
     <use xlink:href="#mfe705406d2" x="417.72483" y="158.755853" style="fill: #134a8e; stroke: #134a8e"/>
    </g>
   </g>
   <g id="line2d_30">
    <path d="M 62.63392 22.835059 
L 64.031916 27.989306 
L 65.429912 32.471417 
L 66.827908 26.798853 
L 68.225903 34.379032 
L 69.623899 43.213624 
L 71.021895 46.852775 
L 72.41989 52.084821 
L 73.817886 54.066833 
L 75.215882 54.125961 
L 76.613878 56.417353 
L 78.011873 58.34081 
L 79.409869 53.62525 
L 80.807865 70.041421 
L 82.20586 75.162046 
L 83.603856 81.39222 
L 85.001852 84.998165 
L 86.399847 93.507593 
L 89.195839 98.171208 
L 90.593835 97.432971 
L 91.99183 104.324795 
L 93.389826 105.454669 
L 94.787822 100.177177 
L 96.185817 103.082245 
L 97.583813 107.013847 
L 98.981809 114.32716 
L 101.7778 108.886596 
L 103.175796 111.01356 
L 104.573792 111.327367 
L 105.971787 112.825429 
L 107.369783 115.703931 
L 108.767779 119.300364 
L 110.165774 123.526778 
L 111.56377 119.465978 
L 112.961766 123.11514 
L 114.359762 130.846329 
L 115.757757 130.936047 
L 117.155753 130.818621 
L 118.553749 129.748254 
L 119.951744 128.908488 
L 121.34974 128.348048 
L 122.747736 128.932688 
L 124.145731 128.817382 
L 125.543727 126.862238 
L 126.941723 126.399806 
L 129.737714 125.838314 
L 131.13571 126.592893 
L 132.533706 128.101943 
L 133.931701 128.701706 
L 135.329697 129.948112 
L 136.727693 130.814526 
L 138.125689 132.377154 
L 139.523684 134.527722 
L 140.92168 134.954847 
L 142.319676 134.513114 
L 143.717671 135.637573 
L 145.115667 135.763428 
L 146.513663 134.287546 
L 147.911658 134.44036 
L 149.309654 138.7708 
L 150.70765 133.249154 
L 152.105646 133.864039 
L 153.503641 133.745955 
L 154.901637 133.800088 
L 156.299633 135.035761 
L 159.095624 134.767388 
L 160.49362 134.437679 
L 161.891616 135.339182 
L 163.289611 135.20854 
L 164.687607 137.082845 
L 166.085603 136.883242 
L 167.483598 136.861851 
L 168.881594 136.026354 
L 170.27959 138.27906 
L 173.075581 139.121811 
L 175.871573 140.494584 
L 177.269568 140.48976 
L 178.667564 142.56748 
L 180.06556 141.461032 
L 181.463555 143.363881 
L 182.861551 143.660503 
L 184.259547 143.745868 
L 185.657543 145.080248 
L 187.055538 145.44937 
L 188.453534 146.902745 
L 189.85153 145.883057 
L 191.249525 147.789675 
L 192.647521 149.425434 
L 195.443512 150.464506 
L 196.841508 151.337171 
L 198.239504 151.774254 
L 199.6375 150.714355 
L 201.035495 151.998181 
L 202.433491 152.64794 
L 203.831487 152.337847 
L 205.229482 151.835801 
L 206.627478 151.913329 
L 208.025474 151.58905 
L 209.423469 151.575762 
L 210.821465 151.980533 
L 212.219461 151.466137 
L 213.617457 150.790132 
L 215.015452 150.547779 
L 216.413448 151.246802 
L 217.811444 151.203139 
L 219.209439 151.773972 
L 220.607435 151.351743 
L 222.005431 151.257427 
L 223.403427 151.430029 
L 226.199418 151.945979 
L 228.995409 151.445894 
L 230.393405 150.894998 
L 233.189396 151.433099 
L 234.587392 151.126257 
L 235.985388 149.840374 
L 237.383384 148.974918 
L 238.781379 148.923354 
L 240.179375 148.353503 
L 241.577371 148.0501 
L 242.975366 147.586311 
L 244.373362 146.920275 
L 245.771358 145.933226 
L 247.169354 145.114818 
L 248.567349 145.568112 
L 249.965345 143.905742 
L 251.363341 142.427791 
L 252.761336 141.693501 
L 254.159332 139.088741 
L 255.557328 138.326567 
L 256.955323 139.288052 
L 258.353319 139.129698 
L 259.751315 136.377555 
L 261.149311 135.028573 
L 262.547306 134.403246 
L 263.945302 130.665161 
L 265.343298 129.452893 
L 266.741293 128.454096 
L 268.139289 127.28793 
L 269.537285 127.350502 
L 270.935281 125.977531 
L 272.333276 125.792873 
L 273.731272 127.398335 
L 275.129268 126.126825 
L 276.527263 121.325726 
L 277.925259 120.142109 
L 279.323255 122.461303 
L 280.72125 121.077475 
L 282.119246 119.419108 
L 283.517242 122.427126 
L 284.915238 121.756147 
L 286.313233 119.990322 
L 287.711229 120.078235 
L 289.109225 118.967924 
L 290.50722 117.687911 
L 291.905216 116.815567 
L 294.701207 117.013675 
L 296.099203 116.62238 
L 297.497199 117.826974 
L 298.895195 114.909369 
L 300.29319 114.967843 
L 301.691186 115.852311 
L 303.089182 114.527647 
L 304.487177 115.403703 
L 305.885173 114.113398 
L 307.283169 114.579969 
L 308.681165 114.034376 
L 310.07916 113.727709 
L 311.477156 111.801258 
L 312.875152 112.038997 
L 314.273147 111.650213 
L 315.671143 112.019795 
L 317.069139 112.971591 
L 318.467134 112.257372 
L 319.86513 110.850053 
L 321.263126 108.536793 
L 322.661122 108.338845 
L 324.059117 108.021806 
L 326.855109 110.440652 
L 328.253104 106.426605 
L 329.6511 108.099661 
L 331.049096 106.351106 
L 332.447092 104.309571 
L 333.845087 105.84776 
L 335.243083 104.301347 
L 336.641079 105.061198 
L 338.039074 104.586453 
L 339.43707 105.337726 
L 340.835066 106.919556 
L 342.233061 108.267102 
L 343.631057 107.30667 
L 345.029053 109.827587 
L 346.427049 109.360176 
L 347.825044 113.132471 
L 349.22304 113.50716 
L 350.621036 116.007581 
L 352.019031 116.628958 
L 353.417027 117.764346 
L 354.815023 121.370741 
L 356.213019 121.641971 
L 357.611014 122.76316 
L 359.00901 123.464519 
L 360.407006 127.054016 
L 361.805001 128.88518 
L 363.202997 132.127019 
L 365.998988 134.377624 
L 367.396984 136.590126 
L 370.192976 141.75823 
L 371.590971 143.072761 
L 372.988967 145.596608 
L 374.386963 146.166138 
L 375.784958 146.301771 
L 377.182954 148.734225 
L 378.58095 150.173763 
L 379.978946 150.997863 
L 381.376941 152.340591 
L 382.774937 153.281626 
L 384.172933 153.965733 
L 385.570928 153.568918 
L 386.968924 154.721885 
L 388.36692 155.524059 
L 391.162911 156.722634 
L 392.560907 156.648555 
L 393.958903 157.501046 
L 395.356898 157.184068 
L 396.754894 157.978698 
L 398.15289 158.260774 
L 399.550885 158.790389 
L 400.948881 158.810444 
L 402.346877 159.023044 
L 405.142868 159.11122 
L 406.540864 159.676418 
L 407.93886 159.573386 
L 410.734851 159.695581 
L 412.132847 159.98297 
L 413.530842 159.68594 
L 414.928838 161.057564 
L 416.326834 159.2122 
L 417.72483 159.265706 
L 417.72483 159.265706 
" clip-path="url(#p290a06dd22)" style="fill: none; stroke-dasharray: 5.55,2.4; stroke-dashoffset: 0; stroke: #000000; stroke-width: 1.5"/>
   </g>
   <g id="patch_3">
    <path d="M 44.879375 168.617564 
L 44.879375 2.297564 
" style="fill: none; stroke: #ffffff; stroke-linejoin: miter; stroke-linecap: square"/>
   </g>
   <g id="patch_4">
    <path d="M 435.479375 168.617564 
L 435.479375 2.297564 
" style="fill: none; stroke: #ffffff; stroke-linejoin: miter; stroke-linecap: square"/>
   </g>
   <g id="patch_5">
    <path d="M 44.879375 168.617564 
L 435.479375 168.617564 
" style="fill: none; stroke: #ffffff; stroke-linejoin: miter; stroke-linecap: square"/>
   </g>
   <g id="patch_6">
    <path d="M 44.879375 2.297564 
L 435.479375 2.297564 
" style="fill: none; stroke: #ffffff; stroke-linejoin: miter; stroke-linecap: square"/>
   </g>
   <g id="legend_1">
    <g id="patch_7">
     <path d="M 276.4325 62.675689 
L 428.479375 62.675689 
Q 430.479375 62.675689 430.479375 60.675689 
L 430.479375 9.297564 
Q 430.479375 7.297564 428.479375 7.297564 
L 276.4325 7.297564 
Q 274.4325 7.297564 274.4325 9.297564 
L 274.4325 60.675689 
Q 274.4325 62.675689 276.4325 62.675689 
z
" style="fill: #e5e5e5; opacity: 0.8; stroke: #cccccc; stroke-width: 0.5; stroke-linejoin: miter"/>
    </g>
    <g id="line2d_31">
     <path d="M 278.4325 17.797564 
L 288.4325 17.797564 
L 298.4325 17.797564 
" style="fill: none; stroke: #134a8e; stroke-width: 3; stroke-linecap: square"/>
     <g>
      <use xlink:href="#mfe705406d2" x="288.4325" y="17.797564" style="fill: #134a8e; stroke: #134a8e"/>
     </g>
    </g>
    <g id="text_17">
     <!-- Private Value $\tilde{R}_{\chi_1,\chi_2}^t$ -->
     <g transform="translate(306.4325 21.297564) scale(0.1 -0.1)">
      <defs>
       <path id="DejaVuSans-50" d="M 1259 4147 
L 1259 2394 
L 2053 2394 
Q 2494 2394 2734 2622 
Q 2975 2850 2975 3272 
Q 2975 3691 2734 3919 
Q 2494 4147 2053 4147 
L 1259 4147 
z
M 628 4666 
L 2053 4666 
Q 2838 4666 3239 4311 
Q 3641 3956 3641 3272 
Q 3641 2581 3239 2228 
Q 2838 1875 2053 1875 
L 1259 1875 
L 1259 0 
L 628 0 
L 628 4666 
z
" transform="scale(0.015625)"/>
       <path id="DejaVuSans-72" d="M 2631 2963 
Q 2534 3019 2420 3045 
Q 2306 3072 2169 3072 
Q 1681 3072 1420 2755 
Q 1159 2438 1159 1844 
L 1159 0 
L 581 0 
L 581 3500 
L 1159 3500 
L 1159 2956 
Q 1341 3275 1631 3429 
Q 1922 3584 2338 3584 
Q 2397 3584 2469 3576 
Q 2541 3569 2628 3553 
L 2631 2963 
z
" transform="scale(0.015625)"/>
       <path id="DejaVuSans-69" d="M 603 3500 
L 1178 3500 
L 1178 0 
L 603 0 
L 603 3500 
z
M 603 4863 
L 1178 4863 
L 1178 4134 
L 603 4134 
L 603 4863 
z
" transform="scale(0.015625)"/>
       <path id="DejaVuSans-76" d="M 191 3500 
L 800 3500 
L 1894 563 
L 2988 3500 
L 3597 3500 
L 2284 0 
L 1503 0 
L 191 3500 
z
" transform="scale(0.015625)"/>
       <path id="DejaVuSans-20" transform="scale(0.015625)"/>
       <path id="DejaVuSans-303" d="M -1621 4281 
L -1799 4453 
Q -1867 4516 -1919 4545 
Q -1971 4575 -2011 4575 
Q -2130 4575 -2186 4461 
Q -2242 4347 -2249 4091 
L -2639 4091 
Q -2633 4513 -2473 4742 
Q -2314 4972 -2030 4972 
Q -1911 4972 -1811 4928 
Q -1711 4884 -1596 4781 
L -1417 4609 
Q -1349 4547 -1297 4517 
Q -1246 4488 -1205 4488 
Q -1086 4488 -1030 4602 
Q -974 4716 -967 4972 
L -577 4972 
Q -583 4550 -742 4320 
Q -902 4091 -1186 4091 
Q -1305 4091 -1405 4134 
Q -1505 4178 -1621 4281 
z
" transform="scale(0.015625)"/>
       <path id="DejaVuSans-Oblique-52" d="M 1613 4147 
L 1294 2491 
L 2106 2491 
Q 2584 2491 2879 2755 
Q 3175 3019 3175 3444 
Q 3175 3784 2976 3965 
Q 2778 4147 2406 4147 
L 1613 4147 
z
M 2772 2241 
Q 2972 2194 3105 2009 
Q 3238 1825 3413 1275 
L 3809 0 
L 3144 0 
L 2778 1197 
Q 2638 1659 2453 1815 
Q 2269 1972 1888 1972 
L 1191 1972 
L 806 0 
L 172 0 
L 1081 4666 
L 2503 4666 
Q 3150 4666 3495 4373 
Q 3841 4081 3841 3531 
Q 3841 3044 3547 2687 
Q 3253 2331 2772 2241 
z
" transform="scale(0.015625)"/>
       <path id="DejaVuSans-Oblique-74" d="M 2706 3500 
L 2619 3053 
L 1472 3053 
L 1100 1153 
Q 1081 1047 1072 975 
Q 1063 903 1063 863 
Q 1063 663 1183 572 
Q 1303 481 1569 481 
L 2150 481 
L 2053 0 
L 1503 0 
Q 991 0 739 200 
Q 488 400 488 806 
Q 488 878 497 964 
Q 506 1050 525 1153 
L 897 3053 
L 409 3053 
L 500 3500 
L 978 3500 
L 1172 4494 
L 1747 4494 
L 1556 3500 
L 2706 3500 
z
" transform="scale(0.015625)"/>
       <path id="DejaVuSans-Oblique-3c7" d="M 1922 -781 
L 1691 416 
L 394 -1334 
L -284 -1334 
L 1553 1141 
L 1269 2613 
Q 1194 3006 713 3006 
L 559 3006 
L 653 3500 
L 872 3494 
Q 1675 3472 1775 2950 
L 2006 1753 
L 3303 3503 
L 3981 3503 
L 2144 1028 
L 2428 -444 
Q 2503 -838 2984 -838 
L 3138 -838 
L 3044 -1331 
L 2825 -1325 
Q 2022 -1303 1922 -781 
z
" transform="scale(0.015625)"/>
       <path id="DejaVuSans-2c" d="M 750 794 
L 1409 794 
L 1409 256 
L 897 -744 
L 494 -744 
L 750 256 
L 750 794 
z
" transform="scale(0.015625)"/>
      </defs>
      <use xlink:href="#DejaVuSans-50" transform="translate(0 0.828125)"/>
      <use xlink:href="#DejaVuSans-72" transform="translate(60.302734 0.828125)"/>
      <use xlink:href="#DejaVuSans-69" transform="translate(101.416016 0.828125)"/>
      <use xlink:href="#DejaVuSans-76" transform="translate(129.199219 0.828125)"/>
      <use xlink:href="#DejaVuSans-61" transform="translate(188.378906 0.828125)"/>
      <use xlink:href="#DejaVuSans-74" transform="translate(249.658203 0.828125)"/>
      <use xlink:href="#DejaVuSans-65" transform="translate(288.867188 0.828125)"/>
      <use xlink:href="#DejaVuSans-20" transform="translate(350.390625 0.828125)"/>
      <use xlink:href="#DejaVuSans-56" transform="translate(382.177734 0.828125)"/>
      <use xlink:href="#DejaVuSans-61" transform="translate(450.585938 0.828125)"/>
      <use xlink:href="#DejaVuSans-6c" transform="translate(511.865234 0.828125)"/>
      <use xlink:href="#DejaVuSans-75" transform="translate(539.648438 0.828125)"/>
      <use xlink:href="#DejaVuSans-65" transform="translate(603.027344 0.828125)"/>
      <use xlink:href="#DejaVuSans-20" transform="translate(664.550781 0.828125)"/>
      <use xlink:href="#DejaVuSans-303" transform="translate(764.942871 22.3125)"/>
      <use xlink:href="#DejaVuSans-Oblique-52" transform="translate(696.337891 0.828125)"/>
      <use xlink:href="#DejaVuSans-Oblique-74" transform="translate(766.777344 39.109375) scale(0.7)"/>
      <use xlink:href="#DejaVuSans-Oblique-3c7" transform="translate(766.777344 -26.515625) scale(0.7)"/>
      <use xlink:href="#DejaVuSans-31" transform="translate(808.203125 -38) scale(0.49)"/>
      <use xlink:href="#DejaVuSans-2c" transform="translate(841.29248 -26.515625) scale(0.7)"/>
      <use xlink:href="#DejaVuSans-Oblique-3c7" transform="translate(877.181152 -26.515625) scale(0.7)"/>
      <use xlink:href="#DejaVuSans-32" transform="translate(918.606934 -38) scale(0.49)"/>
     </g>
    </g>
    <g id="line2d_32">
     <path d="M 278.4325 36.297564 
L 288.4325 36.297564 
L 298.4325 36.297564 
" style="fill: none; stroke-dasharray: 5.55,2.4; stroke-dashoffset: 0; stroke: #000000; stroke-width: 1.5"/>
    </g>
    <g id="text_18">
     <!-- Original Value $\bar{R}_{\chi_1,\chi_2}^t$ -->
     <g transform="translate(306.4325 39.797564) scale(0.1 -0.1)">
      <defs>
       <path id="DejaVuSans-4f" d="M 2522 4238 
Q 1834 4238 1429 3725 
Q 1025 3213 1025 2328 
Q 1025 1447 1429 934 
Q 1834 422 2522 422 
Q 3209 422 3611 934 
Q 4013 1447 4013 2328 
Q 4013 3213 3611 3725 
Q 3209 4238 2522 4238 
z
M 2522 4750 
Q 3503 4750 4090 4092 
Q 4678 3434 4678 2328 
Q 4678 1225 4090 567 
Q 3503 -91 2522 -91 
Q 1538 -91 948 565 
Q 359 1222 359 2328 
Q 359 3434 948 4092 
Q 1538 4750 2522 4750 
z
" transform="scale(0.015625)"/>
       <path id="DejaVuSans-67" d="M 2906 1791 
Q 2906 2416 2648 2759 
Q 2391 3103 1925 3103 
Q 1463 3103 1205 2759 
Q 947 2416 947 1791 
Q 947 1169 1205 825 
Q 1463 481 1925 481 
Q 2391 481 2648 825 
Q 2906 1169 2906 1791 
z
M 3481 434 
Q 3481 -459 3084 -895 
Q 2688 -1331 1869 -1331 
Q 1566 -1331 1297 -1286 
Q 1028 -1241 775 -1147 
L 775 -588 
Q 1028 -725 1275 -790 
Q 1522 -856 1778 -856 
Q 2344 -856 2625 -561 
Q 2906 -266 2906 331 
L 2906 616 
Q 2728 306 2450 153 
Q 2172 0 1784 0 
Q 1141 0 747 490 
Q 353 981 353 1791 
Q 353 2603 747 3093 
Q 1141 3584 1784 3584 
Q 2172 3584 2450 3431 
Q 2728 3278 2906 2969 
L 2906 3500 
L 3481 3500 
L 3481 434 
z
" transform="scale(0.015625)"/>
       <path id="DejaVuSans-6e" d="M 3513 2113 
L 3513 0 
L 2938 0 
L 2938 2094 
Q 2938 2591 2744 2837 
Q 2550 3084 2163 3084 
Q 1697 3084 1428 2787 
Q 1159 2491 1159 1978 
L 1159 0 
L 581 0 
L 581 3500 
L 1159 3500 
L 1159 2956 
Q 1366 3272 1645 3428 
Q 1925 3584 2291 3584 
Q 2894 3584 3203 3211 
Q 3513 2838 3513 2113 
z
" transform="scale(0.015625)"/>
       <path id="DejaVuSans-304" d="M -2518 4769 
L -650 4769 
L -650 4306 
L -2518 4306 
L -2518 4769 
z
" transform="scale(0.015625)"/>
      </defs>
      <use xlink:href="#DejaVuSans-4f" transform="translate(0 0.359375)"/>
      <use xlink:href="#DejaVuSans-72" transform="translate(78.710938 0.359375)"/>
      <use xlink:href="#DejaVuSans-69" transform="translate(119.824219 0.359375)"/>
      <use xlink:href="#DejaVuSans-67" transform="translate(147.607422 0.359375)"/>
      <use xlink:href="#DejaVuSans-69" transform="translate(211.083984 0.359375)"/>
      <use xlink:href="#DejaVuSans-6e" transform="translate(238.867188 0.359375)"/>
      <use xlink:href="#DejaVuSans-61" transform="translate(302.246094 0.359375)"/>
      <use xlink:href="#DejaVuSans-6c" transform="translate(363.525391 0.359375)"/>
      <use xlink:href="#DejaVuSans-20" transform="translate(391.308594 0.359375)"/>
      <use xlink:href="#DejaVuSans-56" transform="translate(423.095703 0.359375)"/>
      <use xlink:href="#DejaVuSans-61" transform="translate(491.503906 0.359375)"/>
      <use xlink:href="#DejaVuSans-6c" transform="translate(552.783203 0.359375)"/>
      <use xlink:href="#DejaVuSans-75" transform="translate(580.566406 0.359375)"/>
      <use xlink:href="#DejaVuSans-65" transform="translate(643.945312 0.359375)"/>
      <use xlink:href="#DejaVuSans-20" transform="translate(705.46875 0.359375)"/>
      <use xlink:href="#DejaVuSans-304" transform="translate(804.970215 18.484375)"/>
      <use xlink:href="#DejaVuSans-Oblique-52" transform="translate(737.255859 0.359375)"/>
      <use xlink:href="#DejaVuSans-Oblique-74" transform="translate(807.695312 38.640625) scale(0.7)"/>
      <use xlink:href="#DejaVuSans-Oblique-3c7" transform="translate(807.695312 -26.984375) scale(0.7)"/>
      <use xlink:href="#DejaVuSans-31" transform="translate(849.121094 -38.46875) scale(0.49)"/>
      <use xlink:href="#DejaVuSans-2c" transform="translate(882.210449 -26.984375) scale(0.7)"/>
      <use xlink:href="#DejaVuSans-Oblique-3c7" transform="translate(918.099121 -26.984375) scale(0.7)"/>
      <use xlink:href="#DejaVuSans-32" transform="translate(959.524902 -38.46875) scale(0.49)"/>
     </g>
    </g>
    <g id="patch_8">
     <path d="M 278.4325 56.596001 
L 298.4325 56.596001 
L 298.4325 49.596001 
L 278.4325 49.596001 
z
" style="fill: #134a8e; fill-opacity: 0.5; stroke: #134a8e; stroke-opacity: 0.5; stroke-width: 0.5; stroke-linejoin: miter"/>
    </g>
    <g id="text_19">
     <!-- One Standard Deviation -->
     <g transform="translate(306.4325 56.596001) scale(0.1 -0.1)">
      <defs>
       <path id="DejaVuSans-53" d="M 3425 4513 
L 3425 3897 
Q 3066 4069 2747 4153 
Q 2428 4238 2131 4238 
Q 1616 4238 1336 4038 
Q 1056 3838 1056 3469 
Q 1056 3159 1242 3001 
Q 1428 2844 1947 2747 
L 2328 2669 
Q 3034 2534 3370 2195 
Q 3706 1856 3706 1288 
Q 3706 609 3251 259 
Q 2797 -91 1919 -91 
Q 1588 -91 1214 -16 
Q 841 59 441 206 
L 441 856 
Q 825 641 1194 531 
Q 1563 422 1919 422 
Q 2459 422 2753 634 
Q 3047 847 3047 1241 
Q 3047 1584 2836 1778 
Q 2625 1972 2144 2069 
L 1759 2144 
Q 1053 2284 737 2584 
Q 422 2884 422 3419 
Q 422 4038 858 4394 
Q 1294 4750 2059 4750 
Q 2388 4750 2728 4690 
Q 3069 4631 3425 4513 
z
" transform="scale(0.015625)"/>
       <path id="DejaVuSans-64" d="M 2906 2969 
L 2906 4863 
L 3481 4863 
L 3481 0 
L 2906 0 
L 2906 525 
Q 2725 213 2448 61 
Q 2172 -91 1784 -91 
Q 1150 -91 751 415 
Q 353 922 353 1747 
Q 353 2572 751 3078 
Q 1150 3584 1784 3584 
Q 2172 3584 2448 3432 
Q 2725 3281 2906 2969 
z
M 947 1747 
Q 947 1113 1208 752 
Q 1469 391 1925 391 
Q 2381 391 2643 752 
Q 2906 1113 2906 1747 
Q 2906 2381 2643 2742 
Q 2381 3103 1925 3103 
Q 1469 3103 1208 2742 
Q 947 2381 947 1747 
z
" transform="scale(0.015625)"/>
       <path id="DejaVuSans-6f" d="M 1959 3097 
Q 1497 3097 1228 2736 
Q 959 2375 959 1747 
Q 959 1119 1226 758 
Q 1494 397 1959 397 
Q 2419 397 2687 759 
Q 2956 1122 2956 1747 
Q 2956 2369 2687 2733 
Q 2419 3097 1959 3097 
z
M 1959 3584 
Q 2709 3584 3137 3096 
Q 3566 2609 3566 1747 
Q 3566 888 3137 398 
Q 2709 -91 1959 -91 
Q 1206 -91 779 398 
Q 353 888 353 1747 
Q 353 2609 779 3096 
Q 1206 3584 1959 3584 
z
" transform="scale(0.015625)"/>
      </defs>
      <use xlink:href="#DejaVuSans-4f"/>
      <use xlink:href="#DejaVuSans-6e" x="78.710938"/>
      <use xlink:href="#DejaVuSans-65" x="142.089844"/>
      <use xlink:href="#DejaVuSans-20" x="203.613281"/>
      <use xlink:href="#DejaVuSans-53" x="235.400391"/>
      <use xlink:href="#DejaVuSans-74" x="298.876953"/>
      <use xlink:href="#DejaVuSans-61" x="338.085938"/>
      <use xlink:href="#DejaVuSans-6e" x="399.365234"/>
      <use xlink:href="#DejaVuSans-64" x="462.744141"/>
      <use xlink:href="#DejaVuSans-61" x="526.220703"/>
      <use xlink:href="#DejaVuSans-72" x="587.5"/>
      <use xlink:href="#DejaVuSans-64" x="626.863281"/>
      <use xlink:href="#DejaVuSans-20" x="690.339844"/>
      <use xlink:href="#DejaVuSans-44" x="722.126953"/>
      <use xlink:href="#DejaVuSans-65" x="799.128906"/>
      <use xlink:href="#DejaVuSans-76" x="860.652344"/>
      <use xlink:href="#DejaVuSans-69" x="919.832031"/>
      <use xlink:href="#DejaVuSans-61" x="947.615234"/>
      <use xlink:href="#DejaVuSans-74" x="1008.894531"/>
      <use xlink:href="#DejaVuSans-69" x="1048.103516"/>
      <use xlink:href="#DejaVuSans-6f" x="1075.886719"/>
      <use xlink:href="#DejaVuSans-6e" x="1137.068359"/>
     </g>
    </g>
   </g>
  </g>
 </g>
 <defs>
  <clipPath id="p290a06dd22">
   <rect x="44.879375" y="2.297564" width="390.6" height="166.32"/>
  </clipPath>
 </defs>
</svg>
