<?xml version="1.0" encoding="utf-8" standalone="no"?>
<!DOCTYPE svg PUBLIC "-//W3C//DTD SVG 1.1//EN"
  "http://www.w3.org/Graphics/SVG/1.1/DTD/svg11.dtd">
<svg xmlns:xlink="http://www.w3.org/1999/xlink" width="444.375067pt" height="198.611875pt" viewBox="0 0 444.375067 198.611875" xmlns="http://www.w3.org/2000/svg" version="1.1">
 <metadata>
  <rdf:RDF xmlns:dc="http://purl.org/dc/elements/1.1/" xmlns:cc="http://creativecommons.org/ns#" xmlns:rdf="http://www.w3.org/1999/02/22-rdf-syntax-ns#">
   <cc:Work>
    <dc:type rdf:resource="http://purl.org/dc/dcmitype/StillImage"/>
    <dc:date>2024-09-18T15:47:54.049195</dc:date>
    <dc:format>image/svg+xml</dc:format>
    <dc:creator>
     <cc:Agent>
      <dc:title>Matplotlib v3.7.5, https://matplotlib.org/</dc:title>
     </cc:Agent>
    </dc:creator>
   </cc:Work>
  </rdf:RDF>
 </metadata>
 <defs>
  <style type="text/css">*{stroke-linejoin: round; stroke-linecap: butt}</style>
 </defs>
 <g id="figure_1">
  <g id="patch_1">
   <path d="M 0 198.611875 
L 444.375067 198.611875 
L 444.375067 0 
L 0 0 
z
" style="fill: #ffffff"/>
  </g>
  <g id="axes_1">
   <g id="patch_2">
    <path d="M 44.879375 166.32 
L 435.479375 166.32 
L 435.479375 -0 
L 44.879375 -0 
z
" style="fill: #e5e5e5"/>
   </g>
   <g id="matplotlib.axis_1">
    <g id="xtick_1">
     <g id="line2d_1">
      <path d="M 72.41989 166.32 
L 72.41989 -0 
" clip-path="url(#p5ada65ab0f)" style="fill: none; stroke: #ffffff; stroke-width: 0.8; stroke-linecap: square"/>
     </g>
     <g id="line2d_2">
      <defs>
       <path id="m2a49f7d212" d="M 0 0 
L 0 3.5 
" style="stroke: #555555; stroke-width: 0.8"/>
      </defs>
      <g>
       <use xlink:href="#m2a49f7d212" x="72.41989" y="166.32" style="fill: #555555; stroke: #555555; stroke-width: 0.8"/>
      </g>
     </g>
     <g id="text_1">
      <!-- 08/16/20 -->
      <g style="fill: #555555" transform="translate(49.96364 180.918437) scale(0.1 -0.1)">
       <defs>
        <path id="DejaVuSans-30" d="M 2034 4250 
Q 1547 4250 1301 3770 
Q 1056 3291 1056 2328 
Q 1056 1369 1301 889 
Q 1547 409 2034 409 
Q 2525 409 2770 889 
Q 3016 1369 3016 2328 
Q 3016 3291 2770 3770 
Q 2525 4250 2034 4250 
z
M 2034 4750 
Q 2819 4750 3233 4129 
Q 3647 3509 3647 2328 
Q 3647 1150 3233 529 
Q 2819 -91 2034 -91 
Q 1250 -91 836 529 
Q 422 1150 422 2328 
Q 422 3509 836 4129 
Q 1250 4750 2034 4750 
z
" transform="scale(0.015625)"/>
        <path id="DejaVuSans-38" d="M 2034 2216 
Q 1584 2216 1326 1975 
Q 1069 1734 1069 1313 
Q 1069 891 1326 650 
Q 1584 409 2034 409 
Q 2484 409 2743 651 
Q 3003 894 3003 1313 
Q 3003 1734 2745 1975 
Q 2488 2216 2034 2216 
z
M 1403 2484 
Q 997 2584 770 2862 
Q 544 3141 544 3541 
Q 544 4100 942 4425 
Q 1341 4750 2034 4750 
Q 2731 4750 3128 4425 
Q 3525 4100 3525 3541 
Q 3525 3141 3298 2862 
Q 3072 2584 2669 2484 
Q 3125 2378 3379 2068 
Q 3634 1759 3634 1313 
Q 3634 634 3220 271 
Q 2806 -91 2034 -91 
Q 1263 -91 848 271 
Q 434 634 434 1313 
Q 434 1759 690 2068 
Q 947 2378 1403 2484 
z
M 1172 3481 
Q 1172 3119 1398 2916 
Q 1625 2713 2034 2713 
Q 2441 2713 2670 2916 
Q 2900 3119 2900 3481 
Q 2900 3844 2670 4047 
Q 2441 4250 2034 4250 
Q 1625 4250 1398 4047 
Q 1172 3844 1172 3481 
z
" transform="scale(0.015625)"/>
        <path id="DejaVuSans-2f" d="M 1625 4666 
L 2156 4666 
L 531 -594 
L 0 -594 
L 1625 4666 
z
" transform="scale(0.015625)"/>
        <path id="DejaVuSans-31" d="M 794 531 
L 1825 531 
L 1825 4091 
L 703 3866 
L 703 4441 
L 1819 4666 
L 2450 4666 
L 2450 531 
L 3481 531 
L 3481 0 
L 794 0 
L 794 531 
z
" transform="scale(0.015625)"/>
        <path id="DejaVuSans-36" d="M 2113 2584 
Q 1688 2584 1439 2293 
Q 1191 2003 1191 1497 
Q 1191 994 1439 701 
Q 1688 409 2113 409 
Q 2538 409 2786 701 
Q 3034 994 3034 1497 
Q 3034 2003 2786 2293 
Q 2538 2584 2113 2584 
z
M 3366 4563 
L 3366 3988 
Q 3128 4100 2886 4159 
Q 2644 4219 2406 4219 
Q 1781 4219 1451 3797 
Q 1122 3375 1075 2522 
Q 1259 2794 1537 2939 
Q 1816 3084 2150 3084 
Q 2853 3084 3261 2657 
Q 3669 2231 3669 1497 
Q 3669 778 3244 343 
Q 2819 -91 2113 -91 
Q 1303 -91 875 529 
Q 447 1150 447 2328 
Q 447 3434 972 4092 
Q 1497 4750 2381 4750 
Q 2619 4750 2861 4703 
Q 3103 4656 3366 4563 
z
" transform="scale(0.015625)"/>
        <path id="DejaVuSans-32" d="M 1228 531 
L 3431 531 
L 3431 0 
L 469 0 
L 469 531 
Q 828 903 1448 1529 
Q 2069 2156 2228 2338 
Q 2531 2678 2651 2914 
Q 2772 3150 2772 3378 
Q 2772 3750 2511 3984 
Q 2250 4219 1831 4219 
Q 1534 4219 1204 4116 
Q 875 4013 500 3803 
L 500 4441 
Q 881 4594 1212 4672 
Q 1544 4750 1819 4750 
Q 2544 4750 2975 4387 
Q 3406 4025 3406 3419 
Q 3406 3131 3298 2873 
Q 3191 2616 2906 2266 
Q 2828 2175 2409 1742 
Q 1991 1309 1228 531 
z
" transform="scale(0.015625)"/>
       </defs>
       <use xlink:href="#DejaVuSans-30"/>
       <use xlink:href="#DejaVuSans-38" x="63.623047"/>
       <use xlink:href="#DejaVuSans-2f" x="127.246094"/>
       <use xlink:href="#DejaVuSans-31" x="160.9375"/>
       <use xlink:href="#DejaVuSans-36" x="224.560547"/>
       <use xlink:href="#DejaVuSans-2f" x="288.183594"/>
       <use xlink:href="#DejaVuSans-32" x="321.875"/>
       <use xlink:href="#DejaVuSans-30" x="385.498047"/>
      </g>
     </g>
    </g>
    <g id="xtick_2">
     <g id="line2d_3">
      <path d="M 142.319676 166.32 
L 142.319676 -0 
" clip-path="url(#p5ada65ab0f)" style="fill: none; stroke: #ffffff; stroke-width: 0.8; stroke-linecap: square"/>
     </g>
     <g id="line2d_4">
      <g>
       <use xlink:href="#m2a49f7d212" x="142.319676" y="166.32" style="fill: #555555; stroke: #555555; stroke-width: 0.8"/>
      </g>
     </g>
     <g id="text_2">
      <!-- 10/05/20 -->
      <g style="fill: #555555" transform="translate(119.863426 180.918437) scale(0.1 -0.1)">
       <defs>
        <path id="DejaVuSans-35" d="M 691 4666 
L 3169 4666 
L 3169 4134 
L 1269 4134 
L 1269 2991 
Q 1406 3038 1543 3061 
Q 1681 3084 1819 3084 
Q 2600 3084 3056 2656 
Q 3513 2228 3513 1497 
Q 3513 744 3044 326 
Q 2575 -91 1722 -91 
Q 1428 -91 1123 -41 
Q 819 9 494 109 
L 494 744 
Q 775 591 1075 516 
Q 1375 441 1709 441 
Q 2250 441 2565 725 
Q 2881 1009 2881 1497 
Q 2881 1984 2565 2268 
Q 2250 2553 1709 2553 
Q 1456 2553 1204 2497 
Q 953 2441 691 2322 
L 691 4666 
z
" transform="scale(0.015625)"/>
       </defs>
       <use xlink:href="#DejaVuSans-31"/>
       <use xlink:href="#DejaVuSans-30" x="63.623047"/>
       <use xlink:href="#DejaVuSans-2f" x="127.246094"/>
       <use xlink:href="#DejaVuSans-30" x="160.9375"/>
       <use xlink:href="#DejaVuSans-35" x="224.560547"/>
       <use xlink:href="#DejaVuSans-2f" x="288.183594"/>
       <use xlink:href="#DejaVuSans-32" x="321.875"/>
       <use xlink:href="#DejaVuSans-30" x="385.498047"/>
      </g>
     </g>
    </g>
    <g id="xtick_3">
     <g id="line2d_5">
      <path d="M 212.219461 166.32 
L 212.219461 -0 
" clip-path="url(#p5ada65ab0f)" style="fill: none; stroke: #ffffff; stroke-width: 0.8; stroke-linecap: square"/>
     </g>
     <g id="line2d_6">
      <g>
       <use xlink:href="#m2a49f7d212" x="212.219461" y="166.32" style="fill: #555555; stroke: #555555; stroke-width: 0.8"/>
      </g>
     </g>
     <g id="text_3">
      <!-- 11/24/20 -->
      <g style="fill: #555555" transform="translate(189.763211 180.918437) scale(0.1 -0.1)">
       <defs>
        <path id="DejaVuSans-34" d="M 2419 4116 
L 825 1625 
L 2419 1625 
L 2419 4116 
z
M 2253 4666 
L 3047 4666 
L 3047 1625 
L 3713 1625 
L 3713 1100 
L 3047 1100 
L 3047 0 
L 2419 0 
L 2419 1100 
L 313 1100 
L 313 1709 
L 2253 4666 
z
" transform="scale(0.015625)"/>
       </defs>
       <use xlink:href="#DejaVuSans-31"/>
       <use xlink:href="#DejaVuSans-31" x="63.623047"/>
       <use xlink:href="#DejaVuSans-2f" x="127.246094"/>
       <use xlink:href="#DejaVuSans-32" x="160.9375"/>
       <use xlink:href="#DejaVuSans-34" x="224.560547"/>
       <use xlink:href="#DejaVuSans-2f" x="288.183594"/>
       <use xlink:href="#DejaVuSans-32" x="321.875"/>
       <use xlink:href="#DejaVuSans-30" x="385.498047"/>
      </g>
     </g>
    </g>
    <g id="xtick_4">
     <g id="line2d_7">
      <path d="M 282.119246 166.32 
L 282.119246 -0 
" clip-path="url(#p5ada65ab0f)" style="fill: none; stroke: #ffffff; stroke-width: 0.8; stroke-linecap: square"/>
     </g>
     <g id="line2d_8">
      <g>
       <use xlink:href="#m2a49f7d212" x="282.119246" y="166.32" style="fill: #555555; stroke: #555555; stroke-width: 0.8"/>
      </g>
     </g>
     <g id="text_4">
      <!-- 01/13/21 -->
      <g style="fill: #555555" transform="translate(259.662996 180.918437) scale(0.1 -0.1)">
       <defs>
        <path id="DejaVuSans-33" d="M 2597 2516 
Q 3050 2419 3304 2112 
Q 3559 1806 3559 1356 
Q 3559 666 3084 287 
Q 2609 -91 1734 -91 
Q 1441 -91 1130 -33 
Q 819 25 488 141 
L 488 750 
Q 750 597 1062 519 
Q 1375 441 1716 441 
Q 2309 441 2620 675 
Q 2931 909 2931 1356 
Q 2931 1769 2642 2001 
Q 2353 2234 1838 2234 
L 1294 2234 
L 1294 2753 
L 1863 2753 
Q 2328 2753 2575 2939 
Q 2822 3125 2822 3475 
Q 2822 3834 2567 4026 
Q 2313 4219 1838 4219 
Q 1578 4219 1281 4162 
Q 984 4106 628 3988 
L 628 4550 
Q 988 4650 1302 4700 
Q 1616 4750 1894 4750 
Q 2613 4750 3031 4423 
Q 3450 4097 3450 3541 
Q 3450 3153 3228 2886 
Q 3006 2619 2597 2516 
z
" transform="scale(0.015625)"/>
       </defs>
       <use xlink:href="#DejaVuSans-30"/>
       <use xlink:href="#DejaVuSans-31" x="63.623047"/>
       <use xlink:href="#DejaVuSans-2f" x="127.246094"/>
       <use xlink:href="#DejaVuSans-31" x="160.9375"/>
       <use xlink:href="#DejaVuSans-33" x="224.560547"/>
       <use xlink:href="#DejaVuSans-2f" x="288.183594"/>
       <use xlink:href="#DejaVuSans-32" x="321.875"/>
       <use xlink:href="#DejaVuSans-31" x="385.498047"/>
      </g>
     </g>
    </g>
    <g id="xtick_5">
     <g id="line2d_9">
      <path d="M 352.019031 166.32 
L 352.019031 -0 
" clip-path="url(#p5ada65ab0f)" style="fill: none; stroke: #ffffff; stroke-width: 0.8; stroke-linecap: square"/>
     </g>
     <g id="line2d_10">
      <g>
       <use xlink:href="#m2a49f7d212" x="352.019031" y="166.32" style="fill: #555555; stroke: #555555; stroke-width: 0.8"/>
      </g>
     </g>
     <g id="text_5">
      <!-- 03/04/21 -->
      <g style="fill: #555555" transform="translate(329.562781 180.918437) scale(0.1 -0.1)">
       <use xlink:href="#DejaVuSans-30"/>
       <use xlink:href="#DejaVuSans-33" x="63.623047"/>
       <use xlink:href="#DejaVuSans-2f" x="127.246094"/>
       <use xlink:href="#DejaVuSans-30" x="160.9375"/>
       <use xlink:href="#DejaVuSans-34" x="224.560547"/>
       <use xlink:href="#DejaVuSans-2f" x="288.183594"/>
       <use xlink:href="#DejaVuSans-32" x="321.875"/>
       <use xlink:href="#DejaVuSans-31" x="385.498047"/>
      </g>
     </g>
    </g>
    <g id="xtick_6">
     <g id="line2d_11">
      <path d="M 421.918817 166.32 
L 421.918817 -0 
" clip-path="url(#p5ada65ab0f)" style="fill: none; stroke: #ffffff; stroke-width: 0.8; stroke-linecap: square"/>
     </g>
     <g id="line2d_12">
      <g>
       <use xlink:href="#m2a49f7d212" x="421.918817" y="166.32" style="fill: #555555; stroke: #555555; stroke-width: 0.8"/>
      </g>
     </g>
     <g id="text_6">
      <!-- 04/23/21 -->
      <g style="fill: #555555" transform="translate(399.462567 180.918437) scale(0.1 -0.1)">
       <use xlink:href="#DejaVuSans-30"/>
       <use xlink:href="#DejaVuSans-34" x="63.623047"/>
       <use xlink:href="#DejaVuSans-2f" x="127.246094"/>
       <use xlink:href="#DejaVuSans-32" x="160.9375"/>
       <use xlink:href="#DejaVuSans-33" x="224.560547"/>
       <use xlink:href="#DejaVuSans-2f" x="288.183594"/>
       <use xlink:href="#DejaVuSans-32" x="321.875"/>
       <use xlink:href="#DejaVuSans-31" x="385.498047"/>
      </g>
     </g>
    </g>
    <g id="text_7">
     <!-- Date -->
     <g style="fill: #555555" transform="translate(225.838438 196.11625) scale(0.12 -0.12)">
      <defs>
       <path id="DejaVuSans-44" d="M 1259 4147 
L 1259 519 
L 2022 519 
Q 2988 519 3436 956 
Q 3884 1394 3884 2338 
Q 3884 3275 3436 3711 
Q 2988 4147 2022 4147 
L 1259 4147 
z
M 628 4666 
L 1925 4666 
Q 3281 4666 3915 4102 
Q 4550 3538 4550 2338 
Q 4550 1131 3912 565 
Q 3275 0 1925 0 
L 628 0 
L 628 4666 
z
" transform="scale(0.015625)"/>
       <path id="DejaVuSans-61" d="M 2194 1759 
Q 1497 1759 1228 1600 
Q 959 1441 959 1056 
Q 959 750 1161 570 
Q 1363 391 1709 391 
Q 2188 391 2477 730 
Q 2766 1069 2766 1631 
L 2766 1759 
L 2194 1759 
z
M 3341 1997 
L 3341 0 
L 2766 0 
L 2766 531 
Q 2569 213 2275 61 
Q 1981 -91 1556 -91 
Q 1019 -91 701 211 
Q 384 513 384 1019 
Q 384 1609 779 1909 
Q 1175 2209 1959 2209 
L 2766 2209 
L 2766 2266 
Q 2766 2663 2505 2880 
Q 2244 3097 1772 3097 
Q 1472 3097 1187 3025 
Q 903 2953 641 2809 
L 641 3341 
Q 956 3463 1253 3523 
Q 1550 3584 1831 3584 
Q 2591 3584 2966 3190 
Q 3341 2797 3341 1997 
z
" transform="scale(0.015625)"/>
       <path id="DejaVuSans-74" d="M 1172 4494 
L 1172 3500 
L 2356 3500 
L 2356 3053 
L 1172 3053 
L 1172 1153 
Q 1172 725 1289 603 
Q 1406 481 1766 481 
L 2356 481 
L 2356 0 
L 1766 0 
Q 1100 0 847 248 
Q 594 497 594 1153 
L 594 3053 
L 172 3053 
L 172 3500 
L 594 3500 
L 594 4494 
L 1172 4494 
z
" transform="scale(0.015625)"/>
       <path id="DejaVuSans-65" d="M 3597 1894 
L 3597 1613 
L 953 1613 
Q 991 1019 1311 708 
Q 1631 397 2203 397 
Q 2534 397 2845 478 
Q 3156 559 3463 722 
L 3463 178 
Q 3153 47 2828 -22 
Q 2503 -91 2169 -91 
Q 1331 -91 842 396 
Q 353 884 353 1716 
Q 353 2575 817 3079 
Q 1281 3584 2069 3584 
Q 2775 3584 3186 3129 
Q 3597 2675 3597 1894 
z
M 3022 2063 
Q 3016 2534 2758 2815 
Q 2500 3097 2075 3097 
Q 1594 3097 1305 2825 
Q 1016 2553 972 2059 
L 3022 2063 
z
" transform="scale(0.015625)"/>
      </defs>
      <use xlink:href="#DejaVuSans-44"/>
      <use xlink:href="#DejaVuSans-61" x="77.001953"/>
      <use xlink:href="#DejaVuSans-74" x="138.28125"/>
      <use xlink:href="#DejaVuSans-65" x="177.490234"/>
     </g>
    </g>
   </g>
   <g id="matplotlib.axis_2">
    <g id="ytick_1">
     <g id="line2d_13">
      <path d="M 44.879375 147.028282 
L 435.479375 147.028282 
" clip-path="url(#p5ada65ab0f)" style="fill: none; stroke: #ffffff; stroke-width: 0.8; stroke-linecap: square"/>
     </g>
     <g id="line2d_14">
      <defs>
       <path id="me0a05ad24a" d="M 0 0 
L -3.5 0 
" style="stroke: #555555; stroke-width: 0.8"/>
      </defs>
      <g>
       <use xlink:href="#me0a05ad24a" x="44.879375" y="147.028282" style="fill: #555555; stroke: #555555; stroke-width: 0.8"/>
      </g>
     </g>
     <g id="text_8">
      <!-- 0.05 -->
      <g style="fill: #555555" transform="translate(15.61375 150.827501) scale(0.1 -0.1)">
       <defs>
        <path id="DejaVuSans-2e" d="M 684 794 
L 1344 794 
L 1344 0 
L 684 0 
L 684 794 
z
" transform="scale(0.015625)"/>
       </defs>
       <use xlink:href="#DejaVuSans-30"/>
       <use xlink:href="#DejaVuSans-2e" x="63.623047"/>
       <use xlink:href="#DejaVuSans-30" x="95.410156"/>
       <use xlink:href="#DejaVuSans-35" x="159.033203"/>
      </g>
     </g>
    </g>
    <g id="ytick_2">
     <g id="line2d_15">
      <path d="M 44.879375 125.986471 
L 435.479375 125.986471 
" clip-path="url(#p5ada65ab0f)" style="fill: none; stroke: #ffffff; stroke-width: 0.8; stroke-linecap: square"/>
     </g>
     <g id="line2d_16">
      <g>
       <use xlink:href="#me0a05ad24a" x="44.879375" y="125.986471" style="fill: #555555; stroke: #555555; stroke-width: 0.8"/>
      </g>
     </g>
     <g id="text_9">
      <!-- 0.10 -->
      <g style="fill: #555555" transform="translate(15.61375 129.78569) scale(0.1 -0.1)">
       <use xlink:href="#DejaVuSans-30"/>
       <use xlink:href="#DejaVuSans-2e" x="63.623047"/>
       <use xlink:href="#DejaVuSans-31" x="95.410156"/>
       <use xlink:href="#DejaVuSans-30" x="159.033203"/>
      </g>
     </g>
    </g>
    <g id="ytick_3">
     <g id="line2d_17">
      <path d="M 44.879375 104.94466 
L 435.479375 104.94466 
" clip-path="url(#p5ada65ab0f)" style="fill: none; stroke: #ffffff; stroke-width: 0.8; stroke-linecap: square"/>
     </g>
     <g id="line2d_18">
      <g>
       <use xlink:href="#me0a05ad24a" x="44.879375" y="104.94466" style="fill: #555555; stroke: #555555; stroke-width: 0.8"/>
      </g>
     </g>
     <g id="text_10">
      <!-- 0.15 -->
      <g style="fill: #555555" transform="translate(15.61375 108.743878) scale(0.1 -0.1)">
       <use xlink:href="#DejaVuSans-30"/>
       <use xlink:href="#DejaVuSans-2e" x="63.623047"/>
       <use xlink:href="#DejaVuSans-31" x="95.410156"/>
       <use xlink:href="#DejaVuSans-35" x="159.033203"/>
      </g>
     </g>
    </g>
    <g id="ytick_4">
     <g id="line2d_19">
      <path d="M 44.879375 83.902848 
L 435.479375 83.902848 
" clip-path="url(#p5ada65ab0f)" style="fill: none; stroke: #ffffff; stroke-width: 0.8; stroke-linecap: square"/>
     </g>
     <g id="line2d_20">
      <g>
       <use xlink:href="#me0a05ad24a" x="44.879375" y="83.902848" style="fill: #555555; stroke: #555555; stroke-width: 0.8"/>
      </g>
     </g>
     <g id="text_11">
      <!-- 0.20 -->
      <g style="fill: #555555" transform="translate(15.61375 87.702067) scale(0.1 -0.1)">
       <use xlink:href="#DejaVuSans-30"/>
       <use xlink:href="#DejaVuSans-2e" x="63.623047"/>
       <use xlink:href="#DejaVuSans-32" x="95.410156"/>
       <use xlink:href="#DejaVuSans-30" x="159.033203"/>
      </g>
     </g>
    </g>
    <g id="ytick_5">
     <g id="line2d_21">
      <path d="M 44.879375 62.861037 
L 435.479375 62.861037 
" clip-path="url(#p5ada65ab0f)" style="fill: none; stroke: #ffffff; stroke-width: 0.8; stroke-linecap: square"/>
     </g>
     <g id="line2d_22">
      <g>
       <use xlink:href="#me0a05ad24a" x="44.879375" y="62.861037" style="fill: #555555; stroke: #555555; stroke-width: 0.8"/>
      </g>
     </g>
     <g id="text_12">
      <!-- 0.25 -->
      <g style="fill: #555555" transform="translate(15.61375 66.660256) scale(0.1 -0.1)">
       <use xlink:href="#DejaVuSans-30"/>
       <use xlink:href="#DejaVuSans-2e" x="63.623047"/>
       <use xlink:href="#DejaVuSans-32" x="95.410156"/>
       <use xlink:href="#DejaVuSans-35" x="159.033203"/>
      </g>
     </g>
    </g>
    <g id="ytick_6">
     <g id="line2d_23">
      <path d="M 44.879375 41.819226 
L 435.479375 41.819226 
" clip-path="url(#p5ada65ab0f)" style="fill: none; stroke: #ffffff; stroke-width: 0.8; stroke-linecap: square"/>
     </g>
     <g id="line2d_24">
      <g>
       <use xlink:href="#me0a05ad24a" x="44.879375" y="41.819226" style="fill: #555555; stroke: #555555; stroke-width: 0.8"/>
      </g>
     </g>
     <g id="text_13">
      <!-- 0.30 -->
      <g style="fill: #555555" transform="translate(15.61375 45.618445) scale(0.1 -0.1)">
       <use xlink:href="#DejaVuSans-30"/>
       <use xlink:href="#DejaVuSans-2e" x="63.623047"/>
       <use xlink:href="#DejaVuSans-33" x="95.410156"/>
       <use xlink:href="#DejaVuSans-30" x="159.033203"/>
      </g>
     </g>
    </g>
    <g id="ytick_7">
     <g id="line2d_25">
      <path d="M 44.879375 20.777415 
L 435.479375 20.777415 
" clip-path="url(#p5ada65ab0f)" style="fill: none; stroke: #ffffff; stroke-width: 0.8; stroke-linecap: square"/>
     </g>
     <g id="line2d_26">
      <g>
       <use xlink:href="#me0a05ad24a" x="44.879375" y="20.777415" style="fill: #555555; stroke: #555555; stroke-width: 0.8"/>
      </g>
     </g>
     <g id="text_14">
      <!-- 0.35 -->
      <g style="fill: #555555" transform="translate(15.61375 24.576634) scale(0.1 -0.1)">
       <use xlink:href="#DejaVuSans-30"/>
       <use xlink:href="#DejaVuSans-2e" x="63.623047"/>
       <use xlink:href="#DejaVuSans-33" x="95.410156"/>
       <use xlink:href="#DejaVuSans-35" x="159.033203"/>
      </g>
     </g>
    </g>
    <g id="text_15">
     <!-- Value -->
     <g style="fill: #555555" transform="translate(9.118125 99.6375) rotate(-90) scale(0.12 -0.12)">
      <defs>
       <path id="DejaVuSans-56" d="M 1831 0 
L 50 4666 
L 709 4666 
L 2188 738 
L 3669 4666 
L 4325 4666 
L 2547 0 
L 1831 0 
z
" transform="scale(0.015625)"/>
       <path id="DejaVuSans-6c" d="M 603 4863 
L 1178 4863 
L 1178 0 
L 603 0 
L 603 4863 
z
" transform="scale(0.015625)"/>
       <path id="DejaVuSans-75" d="M 544 1381 
L 544 3500 
L 1119 3500 
L 1119 1403 
Q 1119 906 1312 657 
Q 1506 409 1894 409 
Q 2359 409 2629 706 
Q 2900 1003 2900 1516 
L 2900 3500 
L 3475 3500 
L 3475 0 
L 2900 0 
L 2900 538 
Q 2691 219 2414 64 
Q 2138 -91 1772 -91 
Q 1169 -91 856 284 
Q 544 659 544 1381 
z
M 1991 3584 
L 1991 3584 
z
" transform="scale(0.015625)"/>
      </defs>
      <use xlink:href="#DejaVuSans-56"/>
      <use xlink:href="#DejaVuSans-61" x="60.658203"/>
      <use xlink:href="#DejaVuSans-6c" x="121.9375"/>
      <use xlink:href="#DejaVuSans-75" x="149.720703"/>
      <use xlink:href="#DejaVuSans-65" x="213.099609"/>
     </g>
    </g>
   </g>
   <g id="PolyCollection_1">
    <defs>
     <path id="m7a2c44ed22" d="M 62.63392 -177.726835 
L 62.63392 -191.051875 
L 64.031916 -188.003708 
L 65.429912 -178.652753 
L 66.827908 -181.57031 
L 68.225903 -174.605669 
L 69.623899 -168.430511 
L 71.021895 -164.073792 
L 72.41989 -150.562983 
L 73.817886 -154.314448 
L 75.215882 -157.066616 
L 76.613878 -152.926497 
L 78.011873 -150.985298 
L 79.409869 -153.76634 
L 80.807865 -141.054267 
L 82.20586 -134.344743 
L 83.603856 -125.471895 
L 85.001852 -120.220296 
L 86.399847 -117.11883 
L 87.797843 -116.826971 
L 89.195839 -114.757791 
L 90.593835 -114.428151 
L 91.99183 -104.342114 
L 93.389826 -104.848306 
L 94.787822 -110.880113 
L 96.185817 -109.463325 
L 97.583813 -104.58118 
L 98.981809 -95.201626 
L 100.379804 -98.779346 
L 101.7778 -98.463518 
L 103.175796 -97.694332 
L 104.573792 -98.530029 
L 105.971787 -100.010206 
L 107.369783 -90.765301 
L 108.767779 -87.367812 
L 110.165774 -82.635474 
L 111.56377 -85.976431 
L 112.961766 -83.599447 
L 114.359762 -75.546509 
L 115.757757 -73.763996 
L 117.155753 -73.680051 
L 118.553749 -75.171653 
L 119.951744 -75.317552 
L 121.34974 -75.526942 
L 122.747736 -75.750305 
L 124.145731 -75.410071 
L 125.543727 -77.140023 
L 126.941723 -77.990156 
L 128.339719 -77.708462 
L 129.737714 -78.300217 
L 131.13571 -78.194967 
L 132.533706 -76.603138 
L 133.931701 -79.383313 
L 135.329697 -74.306858 
L 136.727693 -73.415003 
L 138.125689 -72.627506 
L 139.523684 -71.445426 
L 140.92168 -71.902394 
L 142.319676 -70.899696 
L 143.717671 -69.899281 
L 145.115667 -70.225021 
L 146.513663 -70.220817 
L 147.911658 -70.757829 
L 149.309654 -69.303178 
L 150.70765 -71.725511 
L 152.105646 -71.225871 
L 153.503641 -72.354275 
L 154.901637 -70.677457 
L 156.299633 -70.611247 
L 157.697628 -71.778599 
L 159.095624 -70.409616 
L 160.49362 -72.021537 
L 161.891616 -70.04061 
L 163.289611 -70.288939 
L 164.687607 -68.039685 
L 166.085603 -68.607437 
L 167.483598 -69.864958 
L 168.881594 -70.117918 
L 170.27959 -67.160959 
L 171.677585 -66.783713 
L 173.075581 -66.823139 
L 174.473577 -66.474995 
L 175.871573 -64.623185 
L 177.269568 -66.080891 
L 178.667564 -64.08051 
L 180.06556 -64.144055 
L 181.463555 -63.153226 
L 182.861551 -63.540366 
L 184.259547 -62.21118 
L 185.657543 -62.13624 
L 187.055538 -61.884612 
L 188.453534 -61.783826 
L 189.85153 -62.477279 
L 191.249525 -60.554587 
L 192.647521 -54.283309 
L 194.045517 -54.298253 
L 195.443512 -53.90932 
L 196.841508 -52.809784 
L 198.239504 -52.482749 
L 199.6375 -54.092496 
L 201.035495 -50.432273 
L 202.433491 -50.466877 
L 203.831487 -50.437839 
L 205.229482 -51.680284 
L 206.627478 -51.791393 
L 208.025474 -51.701315 
L 209.423469 -51.681117 
L 210.821465 -51.449692 
L 212.219461 -51.736073 
L 213.617457 -53.977613 
L 215.015452 -54.113877 
L 216.413448 -52.772009 
L 217.811444 -51.436823 
L 219.209439 -51.360371 
L 220.607435 -51.337622 
L 222.005431 -52.715069 
L 223.403427 -52.577658 
L 224.801422 -52.666413 
L 226.199418 -52.413596 
L 227.597414 -53.483831 
L 228.995409 -53.745064 
L 230.393405 -53.636119 
L 231.791401 -53.967068 
L 233.189396 -53.495166 
L 234.587392 -53.897938 
L 235.985388 -57.723917 
L 237.383384 -57.362426 
L 238.781379 -57.906376 
L 240.179375 -57.799297 
L 241.577371 -58.80261 
L 242.975366 -57.573351 
L 244.373362 -60.20963 
L 245.771358 -60.019823 
L 247.169354 -60.631302 
L 248.567349 -59.944443 
L 249.965345 -61.217096 
L 251.363341 -61.48411 
L 252.761336 -63.392672 
L 254.159332 -66.942716 
L 255.557328 -66.732575 
L 256.955323 -67.027927 
L 258.353319 -66.668139 
L 259.751315 -67.313211 
L 261.149311 -69.447884 
L 262.547306 -71.247174 
L 263.945302 -81.590048 
L 265.343298 -83.090814 
L 266.741293 -85.43685 
L 268.139289 -86.277005 
L 269.537285 -86.753633 
L 270.935281 -88.295303 
L 272.333276 -87.949319 
L 273.731272 -87.358523 
L 275.129268 -87.457354 
L 276.527263 -90.283103 
L 277.925259 -90.259426 
L 279.323255 -90.545393 
L 280.72125 -89.282896 
L 282.119246 -89.70271 
L 283.517242 -88.06201 
L 284.915238 -88.99916 
L 286.313233 -89.190002 
L 287.711229 -88.949849 
L 289.109225 -88.672913 
L 290.50722 -92.341485 
L 291.905216 -92.349833 
L 293.303212 -91.836003 
L 294.701207 -93.167602 
L 296.099203 -93.756842 
L 297.497199 -92.638122 
L 298.895195 -93.369546 
L 300.29319 -94.522534 
L 301.691186 -95.070527 
L 303.089182 -95.077994 
L 304.487177 -95.382276 
L 305.885173 -98.936594 
L 307.283169 -97.50914 
L 308.681165 -95.825246 
L 310.07916 -97.177453 
L 311.477156 -98.503793 
L 312.875152 -98.694834 
L 314.273147 -99.090262 
L 315.671143 -97.906381 
L 317.069139 -98.212901 
L 318.467134 -98.395743 
L 319.86513 -99.128485 
L 321.263126 -100.264066 
L 322.661122 -101.285974 
L 324.059117 -100.952352 
L 325.457113 -101.201389 
L 326.855109 -100.923797 
L 328.253104 -101.640005 
L 329.6511 -100.771656 
L 331.049096 -101.388784 
L 332.447092 -103.141578 
L 333.845087 -102.189441 
L 335.243083 -102.995617 
L 336.641079 -101.979145 
L 338.039074 -103.748942 
L 339.43707 -101.279566 
L 340.835066 -98.132317 
L 342.233061 -96.523241 
L 343.631057 -96.384015 
L 345.029053 -98.322536 
L 346.427049 -98.01977 
L 347.825044 -97.183107 
L 349.22304 -97.936724 
L 350.621036 -96.047992 
L 352.019031 -96.82121 
L 353.417027 -92.707078 
L 354.815023 -88.996431 
L 356.213019 -88.66729 
L 357.611014 -86.035411 
L 359.00901 -87.140164 
L 360.407006 -84.215 
L 361.805001 -79.454613 
L 363.202997 -71.036143 
L 364.600993 -70.758454 
L 365.998988 -70.548352 
L 367.396984 -68.087018 
L 368.79498 -67.317269 
L 370.192976 -64.992884 
L 371.590971 -64.597378 
L 372.988967 -61.735204 
L 374.386963 -56.425756 
L 375.784958 -56.601916 
L 377.182954 -54.778494 
L 378.58095 -53.533186 
L 379.978946 -53.013711 
L 381.376941 -51.117959 
L 382.774937 -49.674844 
L 384.172933 -50.216771 
L 385.570928 -49.682358 
L 386.968924 -49.704314 
L 388.36692 -49.653644 
L 389.764915 -46.976317 
L 391.162911 -47.027099 
L 392.560907 -46.783371 
L 393.958903 -47.230945 
L 395.356898 -46.933493 
L 396.754894 -47.183481 
L 398.15289 -47.078269 
L 399.550885 -43.53293 
L 400.948881 -43.599736 
L 402.346877 -43.597769 
L 403.744872 -43.049294 
L 405.142868 -43.017842 
L 406.540864 -42.999764 
L 407.93886 -43.161091 
L 409.336855 -43.150881 
L 410.734851 -43.059419 
L 412.132847 -43.150382 
L 413.530842 -43.104228 
L 414.928838 -43.262918 
L 416.326834 -43.344837 
L 417.72483 -43.190898 
L 417.72483 -40.916157 
L 417.72483 -40.916157 
L 416.326834 -40.964695 
L 414.928838 -41.042039 
L 413.530842 -41.200344 
L 412.132847 -40.92024 
L 410.734851 -41.24694 
L 409.336855 -40.734311 
L 407.93886 -40.906117 
L 406.540864 -41.016819 
L 405.142868 -40.845759 
L 403.744872 -40.861019 
L 402.346877 -41.07996 
L 400.948881 -41.46681 
L 399.550885 -41.280856 
L 398.15289 -44.373888 
L 396.754894 -44.170512 
L 395.356898 -43.968748 
L 393.958903 -44.542116 
L 392.560907 -43.968742 
L 391.162911 -44.026615 
L 389.764915 -44.201277 
L 388.36692 -46.749689 
L 386.968924 -46.451743 
L 385.570928 -46.90599 
L 384.172933 -46.895713 
L 382.774937 -46.862206 
L 381.376941 -48.041822 
L 379.978946 -50.377259 
L 378.58095 -50.497887 
L 377.182954 -51.395125 
L 375.784958 -53.181834 
L 374.386963 -52.841745 
L 372.988967 -57.805268 
L 371.590971 -60.618327 
L 370.192976 -60.592154 
L 368.79498 -63.302559 
L 367.396984 -63.705618 
L 365.998988 -66.180753 
L 364.600993 -65.778527 
L 363.202997 -66.318404 
L 361.805001 -74.211187 
L 360.407006 -77.623259 
L 359.00901 -80.093166 
L 357.611014 -78.959385 
L 356.213019 -81.835159 
L 354.815023 -81.97328 
L 353.417027 -85.505916 
L 352.019031 -89.168143 
L 350.621036 -89.767967 
L 349.22304 -89.475209 
L 347.825044 -91.03646 
L 346.427049 -90.870143 
L 345.029053 -91.166151 
L 343.631057 -89.611009 
L 342.233061 -89.111138 
L 340.835066 -90.522408 
L 339.43707 -93.713003 
L 338.039074 -95.475442 
L 336.641079 -93.980243 
L 335.243083 -95.42527 
L 333.845087 -94.040264 
L 332.447092 -95.17929 
L 331.049096 -94.328904 
L 329.6511 -92.659679 
L 328.253104 -93.437323 
L 326.855109 -92.963804 
L 325.457113 -92.834324 
L 324.059117 -93.134968 
L 322.661122 -93.562475 
L 321.263126 -92.659516 
L 319.86513 -91.431597 
L 318.467134 -91.012613 
L 317.069139 -91.159171 
L 315.671143 -90.816518 
L 314.273147 -91.939184 
L 312.875152 -90.704082 
L 311.477156 -91.405756 
L 310.07916 -89.101392 
L 308.681165 -88.640301 
L 307.283169 -90.403827 
L 305.885173 -91.10475 
L 304.487177 -87.878108 
L 303.089182 -88.419014 
L 301.691186 -86.301453 
L 300.29319 -86.280342 
L 298.895195 -85.98359 
L 297.497199 -85.992802 
L 296.099203 -86.100794 
L 294.701207 -85.240045 
L 293.303212 -85.448873 
L 291.905216 -85.297646 
L 290.50722 -85.532267 
L 289.109225 -82.634142 
L 287.711229 -82.247452 
L 286.313233 -82.216497 
L 284.915238 -81.174315 
L 283.517242 -81.780044 
L 282.119246 -83.263294 
L 280.72125 -82.424261 
L 279.323255 -82.7188 
L 277.925259 -83.036042 
L 276.527263 -83.537238 
L 275.129268 -80.511534 
L 273.731272 -80.694487 
L 272.333276 -80.612006 
L 270.935281 -81.461652 
L 269.537285 -80.064388 
L 268.139289 -79.589464 
L 266.741293 -79.304552 
L 265.343298 -76.216611 
L 263.945302 -75.105656 
L 262.547306 -66.415107 
L 261.149311 -65.266008 
L 259.751315 -63.715596 
L 258.353319 -62.484944 
L 256.955323 -62.388707 
L 255.557328 -62.540279 
L 254.159332 -61.97421 
L 252.761336 -59.549587 
L 251.363341 -57.844258 
L 249.965345 -57.705362 
L 248.567349 -56.441519 
L 247.169354 -56.638444 
L 245.771358 -56.711663 
L 244.373362 -56.165403 
L 242.975366 -54.213459 
L 241.577371 -55.260305 
L 240.179375 -53.991963 
L 238.781379 -54.448616 
L 237.383384 -54.214796 
L 235.985388 -54.00524 
L 234.587392 -50.65934 
L 233.189396 -50.442868 
L 231.791401 -50.684488 
L 230.393405 -50.527257 
L 228.995409 -50.753918 
L 227.597414 -50.791379 
L 226.199418 -49.439689 
L 224.801422 -49.719665 
L 223.403427 -49.390275 
L 222.005431 -49.517244 
L 220.607435 -48.573225 
L 219.209439 -48.078442 
L 217.811444 -48.401956 
L 216.413448 -49.540452 
L 215.015452 -51.10808 
L 213.617457 -50.976922 
L 212.219461 -48.813321 
L 210.821465 -48.679288 
L 209.423469 -48.365513 
L 208.025474 -48.48817 
L 206.627478 -48.896774 
L 205.229482 -48.734963 
L 203.831487 -47.546719 
L 202.433491 -47.719641 
L 201.035495 -47.557249 
L 199.6375 -50.813604 
L 198.239504 -49.816811 
L 196.841508 -49.877401 
L 195.443512 -50.745773 
L 194.045517 -50.584141 
L 192.647521 -51.359696 
L 191.249525 -56.704668 
L 189.85153 -58.728988 
L 188.453534 -57.764295 
L 187.055538 -58.006358 
L 185.657543 -58.412781 
L 184.259547 -58.088073 
L 182.861551 -59.191313 
L 181.463555 -59.631181 
L 180.06556 -59.620555 
L 178.667564 -60.520408 
L 177.269568 -61.673185 
L 175.871573 -60.412402 
L 174.473577 -61.775665 
L 173.075581 -62.320969 
L 171.677585 -62.540705 
L 170.27959 -62.281485 
L 168.881594 -65.907441 
L 167.483598 -65.357976 
L 166.085603 -64.221159 
L 164.687607 -63.667524 
L 163.289611 -66.484048 
L 161.891616 -65.780089 
L 160.49362 -66.842316 
L 159.095624 -65.913014 
L 157.697628 -67.405928 
L 156.299633 -65.974808 
L 154.901637 -66.410019 
L 153.503641 -67.129042 
L 152.105646 -66.587609 
L 150.70765 -67.134747 
L 149.309654 -64.93689 
L 147.911658 -66.381857 
L 146.513663 -66.226584 
L 145.115667 -65.525623 
L 143.717671 -65.407816 
L 142.319676 -66.03433 
L 140.92168 -67.158404 
L 139.523684 -66.956388 
L 138.125689 -68.212325 
L 136.727693 -68.227539 
L 135.329697 -69.266006 
L 133.931701 -73.553203 
L 132.533706 -71.506608 
L 131.13571 -73.03412 
L 129.737714 -73.231804 
L 128.339719 -72.321253 
L 126.941723 -72.853359 
L 125.543727 -71.917109 
L 124.145731 -71.210214 
L 122.747736 -70.763688 
L 121.34974 -70.424108 
L 119.951744 -69.689144 
L 118.553749 -69.906759 
L 117.155753 -68.785749 
L 115.757757 -69.339985 
L 114.359762 -70.228609 
L 112.961766 -78.109691 
L 111.56377 -80.424768 
L 110.165774 -77.408283 
L 108.767779 -82.064015 
L 107.369783 -83.620138 
L 105.971787 -91.21678 
L 104.573792 -91.383561 
L 103.175796 -90.0531 
L 101.7778 -90.684135 
L 100.379804 -90.297675 
L 98.981809 -87.960396 
L 97.583813 -96.429738 
L 96.185817 -100.31577 
L 94.787822 -101.944864 
L 93.389826 -96.324161 
L 91.99183 -96.109009 
L 90.593835 -105.763474 
L 89.195839 -104.603836 
L 87.797843 -106.690194 
L 86.399847 -108.079696 
L 85.001852 -111.121782 
L 83.603856 -115.547591 
L 82.20586 -124.813963 
L 80.807865 -131.440166 
L 79.409869 -143.941726 
L 78.011873 -141.404499 
L 76.613878 -142.136968 
L 75.215882 -146.075322 
L 73.817886 -143.28853 
L 72.41989 -139.88774 
L 71.021895 -150.849393 
L 69.623899 -155.991514 
L 68.225903 -162.845558 
L 66.827908 -170.216708 
L 65.429912 -166.047659 
L 64.031916 -175.053126 
L 62.63392 -177.726835 
z
" style="stroke: #134a8e; stroke-opacity: 0.5; stroke-width: 0.5"/>
    </defs>
    <g clip-path="url(#p5ada65ab0f)">
     <use xlink:href="#m7a2c44ed22" x="0" y="198.611875" style="fill: #134a8e; fill-opacity: 0.5; stroke: #134a8e; stroke-opacity: 0.5; stroke-width: 0.5"/>
    </g>
   </g>
   <g id="line2d_27">
    <path d="M 62.63392 14.22252 
L 64.031916 17.083458 
L 65.429912 26.261669 
L 66.827908 22.718366 
L 68.225903 29.886262 
L 69.623899 36.400862 
L 71.021895 41.150283 
L 72.41989 53.386513 
L 73.817886 49.810386 
L 75.215882 47.040906 
L 76.613878 51.080143 
L 78.011873 52.416977 
L 79.409869 49.757842 
L 80.807865 62.364659 
L 82.20586 69.032522 
L 83.603856 78.102132 
L 85.001852 82.940836 
L 86.399847 86.012612 
L 87.797843 86.853293 
L 89.195839 88.931062 
L 90.593835 88.516062 
L 91.99183 98.386313 
L 93.389826 98.025642 
L 94.787822 92.199387 
L 96.185817 93.722328 
L 97.583813 98.106416 
L 98.981809 107.030864 
L 100.379804 104.073364 
L 101.7778 104.038048 
L 103.175796 104.738159 
L 104.573792 103.65508 
L 105.971787 102.998382 
L 107.369783 111.419156 
L 108.767779 113.895962 
L 110.165774 118.589996 
L 111.56377 115.411276 
L 112.961766 117.757306 
L 114.359762 125.724316 
L 115.757757 127.059885 
L 117.155753 127.378975 
L 118.553749 126.072669 
L 119.951744 126.108527 
L 121.34974 125.63635 
L 122.747736 125.354879 
L 124.145731 125.301732 
L 125.543727 124.083309 
L 126.941723 123.190117 
L 128.339719 123.597018 
L 129.737714 122.845864 
L 131.13571 122.997332 
L 132.533706 124.557002 
L 133.931701 122.143617 
L 135.329697 126.825443 
L 136.727693 127.790604 
L 138.125689 128.19196 
L 139.523684 129.410968 
L 140.92168 129.081476 
L 142.319676 130.144862 
L 143.717671 130.958326 
L 145.115667 130.736553 
L 147.911658 130.042032 
L 149.309654 131.491841 
L 150.70765 129.181746 
L 152.105646 129.705135 
L 153.503641 128.870216 
L 154.901637 130.068137 
L 156.299633 130.318847 
L 157.697628 129.019611 
L 159.095624 130.45056 
L 160.49362 129.179948 
L 161.891616 130.701525 
L 163.289611 130.225382 
L 164.687607 132.758271 
L 166.085603 132.197577 
L 167.483598 131.000408 
L 168.881594 130.599196 
L 170.27959 133.890653 
L 173.075581 134.039821 
L 174.473577 134.486545 
L 175.871573 136.094082 
L 177.269568 134.734837 
L 178.667564 136.311416 
L 181.463555 137.219671 
L 182.861551 137.246035 
L 184.259547 138.462248 
L 185.657543 138.337364 
L 187.055538 138.66639 
L 188.453534 138.837815 
L 189.85153 138.008741 
L 191.249525 139.982247 
L 192.647521 145.790372 
L 194.045517 146.170678 
L 195.443512 146.284328 
L 196.841508 147.268283 
L 198.239504 147.462095 
L 199.6375 146.158825 
L 201.035495 149.617114 
L 202.433491 149.518616 
L 203.831487 149.619596 
L 205.229482 148.404251 
L 206.627478 148.267791 
L 208.025474 148.517133 
L 209.423469 148.58856 
L 210.821465 148.547385 
L 212.219461 148.337178 
L 213.617457 146.134607 
L 215.015452 146.000897 
L 216.413448 147.455644 
L 217.811444 148.692485 
L 219.209439 148.892469 
L 220.607435 148.656452 
L 222.005431 147.495718 
L 223.403427 147.627909 
L 224.801422 147.418836 
L 226.199418 147.685232 
L 227.597414 146.47427 
L 228.995409 146.362384 
L 230.393405 146.530187 
L 231.791401 146.286097 
L 233.189396 146.642858 
L 234.587392 146.333236 
L 235.985388 142.747296 
L 237.383384 142.823264 
L 238.781379 142.434379 
L 240.179375 142.716245 
L 241.577371 141.580417 
L 242.975366 142.71847 
L 244.373362 140.424359 
L 247.169354 139.977002 
L 248.567349 140.418894 
L 249.965345 139.150646 
L 251.363341 138.947691 
L 252.761336 137.140746 
L 254.159332 134.153412 
L 256.955323 133.903558 
L 258.353319 134.035334 
L 259.751315 133.097472 
L 261.149311 131.254929 
L 262.547306 129.780734 
L 263.945302 120.264023 
L 265.343298 118.958162 
L 266.741293 116.241174 
L 269.537285 115.202865 
L 270.935281 113.733397 
L 272.333276 114.331213 
L 273.731272 114.58537 
L 275.129268 114.627431 
L 276.527263 111.701705 
L 277.925259 111.964141 
L 279.323255 111.979778 
L 280.72125 112.758297 
L 282.119246 112.128873 
L 283.517242 113.690848 
L 284.915238 113.525137 
L 286.313233 112.908625 
L 287.711229 113.013225 
L 289.109225 112.958348 
L 290.50722 109.674999 
L 293.303212 109.969437 
L 294.701207 109.408052 
L 296.099203 108.683057 
L 297.497199 109.296413 
L 298.895195 108.935307 
L 300.29319 108.210437 
L 301.691186 107.925885 
L 303.089182 106.863371 
L 304.487177 106.981683 
L 305.885173 103.591203 
L 307.283169 104.655391 
L 308.681165 106.379102 
L 310.07916 105.472453 
L 311.477156 103.6571 
L 312.875152 103.912417 
L 314.273147 103.097152 
L 315.671143 104.250426 
L 317.069139 103.925839 
L 318.467134 103.907697 
L 319.86513 103.331834 
L 321.263126 102.150084 
L 322.661122 101.18765 
L 324.059117 101.568215 
L 326.855109 101.668075 
L 328.253104 101.073211 
L 329.6511 101.896207 
L 331.049096 100.753031 
L 332.447092 99.451441 
L 333.845087 100.497023 
L 335.243083 99.401431 
L 336.641079 100.632181 
L 338.039074 98.999683 
L 339.43707 101.115591 
L 340.835066 104.284512 
L 342.233061 105.794685 
L 343.631057 105.614363 
L 345.029053 103.867532 
L 347.825044 104.502091 
L 349.22304 104.905909 
L 350.621036 105.703896 
L 352.019031 105.617198 
L 354.815023 113.12702 
L 356.213019 113.360651 
L 357.611014 116.114477 
L 359.00901 114.99521 
L 360.407006 117.692745 
L 361.805001 121.778975 
L 363.202997 129.934602 
L 364.600993 130.343384 
L 365.998988 130.247323 
L 367.396984 132.715557 
L 368.79498 133.301961 
L 370.192976 135.819356 
L 371.590971 136.004022 
L 372.988967 138.841639 
L 374.386963 143.978124 
L 375.784958 143.72 
L 377.182954 145.525066 
L 378.58095 146.596339 
L 379.978946 146.91639 
L 381.376941 149.031984 
L 382.774937 150.34335 
L 384.172933 150.055633 
L 386.968924 150.533847 
L 388.36692 150.410209 
L 389.764915 153.023078 
L 392.560907 153.235819 
L 393.958903 152.725344 
L 395.356898 153.160755 
L 396.754894 152.934879 
L 398.15289 152.885796 
L 399.550885 156.204982 
L 400.948881 156.078602 
L 402.346877 156.27301 
L 403.744872 156.656719 
L 406.540864 156.603583 
L 407.93886 156.578271 
L 409.336855 156.669279 
L 410.734851 156.458696 
L 412.132847 156.576564 
L 413.530842 156.459589 
L 417.72483 156.558347 
L 417.72483 156.558347 
" clip-path="url(#p5ada65ab0f)" style="fill: none; stroke: #134a8e; stroke-width: 3; stroke-linecap: square"/>
    <defs>
     <path id="m325c9dee6d" d="M 0 1.5 
C 0.397805 1.5 0.77937 1.341951 1.06066 1.06066 
C 1.341951 0.77937 1.5 0.397805 1.5 0 
C 1.5 -0.397805 1.341951 -0.77937 1.06066 -1.06066 
C 0.77937 -1.341951 0.397805 -1.5 0 -1.5 
C -0.397805 -1.5 -0.77937 -1.341951 -1.06066 -1.06066 
C -1.341951 -0.77937 -1.5 -0.397805 -1.5 0 
C -1.5 0.397805 -1.341951 0.77937 -1.06066 1.06066 
C -0.77937 1.341951 -0.397805 1.5 0 1.5 
z
" style="stroke: #134a8e"/>
    </defs>
    <g clip-path="url(#p5ada65ab0f)">
     <use xlink:href="#m325c9dee6d" x="62.63392" y="14.22252" style="fill: #134a8e; stroke: #134a8e"/>
     <use xlink:href="#m325c9dee6d" x="64.031916" y="17.083458" style="fill: #134a8e; stroke: #134a8e"/>
     <use xlink:href="#m325c9dee6d" x="65.429912" y="26.261669" style="fill: #134a8e; stroke: #134a8e"/>
     <use xlink:href="#m325c9dee6d" x="66.827908" y="22.718366" style="fill: #134a8e; stroke: #134a8e"/>
     <use xlink:href="#m325c9dee6d" x="68.225903" y="29.886262" style="fill: #134a8e; stroke: #134a8e"/>
     <use xlink:href="#m325c9dee6d" x="69.623899" y="36.400862" style="fill: #134a8e; stroke: #134a8e"/>
     <use xlink:href="#m325c9dee6d" x="71.021895" y="41.150283" style="fill: #134a8e; stroke: #134a8e"/>
     <use xlink:href="#m325c9dee6d" x="72.41989" y="53.386513" style="fill: #134a8e; stroke: #134a8e"/>
     <use xlink:href="#m325c9dee6d" x="73.817886" y="49.810386" style="fill: #134a8e; stroke: #134a8e"/>
     <use xlink:href="#m325c9dee6d" x="75.215882" y="47.040906" style="fill: #134a8e; stroke: #134a8e"/>
     <use xlink:href="#m325c9dee6d" x="76.613878" y="51.080143" style="fill: #134a8e; stroke: #134a8e"/>
     <use xlink:href="#m325c9dee6d" x="78.011873" y="52.416977" style="fill: #134a8e; stroke: #134a8e"/>
     <use xlink:href="#m325c9dee6d" x="79.409869" y="49.757842" style="fill: #134a8e; stroke: #134a8e"/>
     <use xlink:href="#m325c9dee6d" x="80.807865" y="62.364659" style="fill: #134a8e; stroke: #134a8e"/>
     <use xlink:href="#m325c9dee6d" x="82.20586" y="69.032522" style="fill: #134a8e; stroke: #134a8e"/>
     <use xlink:href="#m325c9dee6d" x="83.603856" y="78.102132" style="fill: #134a8e; stroke: #134a8e"/>
     <use xlink:href="#m325c9dee6d" x="85.001852" y="82.940836" style="fill: #134a8e; stroke: #134a8e"/>
     <use xlink:href="#m325c9dee6d" x="86.399847" y="86.012612" style="fill: #134a8e; stroke: #134a8e"/>
     <use xlink:href="#m325c9dee6d" x="87.797843" y="86.853293" style="fill: #134a8e; stroke: #134a8e"/>
     <use xlink:href="#m325c9dee6d" x="89.195839" y="88.931062" style="fill: #134a8e; stroke: #134a8e"/>
     <use xlink:href="#m325c9dee6d" x="90.593835" y="88.516062" style="fill: #134a8e; stroke: #134a8e"/>
     <use xlink:href="#m325c9dee6d" x="91.99183" y="98.386313" style="fill: #134a8e; stroke: #134a8e"/>
     <use xlink:href="#m325c9dee6d" x="93.389826" y="98.025642" style="fill: #134a8e; stroke: #134a8e"/>
     <use xlink:href="#m325c9dee6d" x="94.787822" y="92.199387" style="fill: #134a8e; stroke: #134a8e"/>
     <use xlink:href="#m325c9dee6d" x="96.185817" y="93.722328" style="fill: #134a8e; stroke: #134a8e"/>
     <use xlink:href="#m325c9dee6d" x="97.583813" y="98.106416" style="fill: #134a8e; stroke: #134a8e"/>
     <use xlink:href="#m325c9dee6d" x="98.981809" y="107.030864" style="fill: #134a8e; stroke: #134a8e"/>
     <use xlink:href="#m325c9dee6d" x="100.379804" y="104.073364" style="fill: #134a8e; stroke: #134a8e"/>
     <use xlink:href="#m325c9dee6d" x="101.7778" y="104.038048" style="fill: #134a8e; stroke: #134a8e"/>
     <use xlink:href="#m325c9dee6d" x="103.175796" y="104.738159" style="fill: #134a8e; stroke: #134a8e"/>
     <use xlink:href="#m325c9dee6d" x="104.573792" y="103.65508" style="fill: #134a8e; stroke: #134a8e"/>
     <use xlink:href="#m325c9dee6d" x="105.971787" y="102.998382" style="fill: #134a8e; stroke: #134a8e"/>
     <use xlink:href="#m325c9dee6d" x="107.369783" y="111.419156" style="fill: #134a8e; stroke: #134a8e"/>
     <use xlink:href="#m325c9dee6d" x="108.767779" y="113.895962" style="fill: #134a8e; stroke: #134a8e"/>
     <use xlink:href="#m325c9dee6d" x="110.165774" y="118.589996" style="fill: #134a8e; stroke: #134a8e"/>
     <use xlink:href="#m325c9dee6d" x="111.56377" y="115.411276" style="fill: #134a8e; stroke: #134a8e"/>
     <use xlink:href="#m325c9dee6d" x="112.961766" y="117.757306" style="fill: #134a8e; stroke: #134a8e"/>
     <use xlink:href="#m325c9dee6d" x="114.359762" y="125.724316" style="fill: #134a8e; stroke: #134a8e"/>
     <use xlink:href="#m325c9dee6d" x="115.757757" y="127.059885" style="fill: #134a8e; stroke: #134a8e"/>
     <use xlink:href="#m325c9dee6d" x="117.155753" y="127.378975" style="fill: #134a8e; stroke: #134a8e"/>
     <use xlink:href="#m325c9dee6d" x="118.553749" y="126.072669" style="fill: #134a8e; stroke: #134a8e"/>
     <use xlink:href="#m325c9dee6d" x="119.951744" y="126.108527" style="fill: #134a8e; stroke: #134a8e"/>
     <use xlink:href="#m325c9dee6d" x="121.34974" y="125.63635" style="fill: #134a8e; stroke: #134a8e"/>
     <use xlink:href="#m325c9dee6d" x="122.747736" y="125.354879" style="fill: #134a8e; stroke: #134a8e"/>
     <use xlink:href="#m325c9dee6d" x="124.145731" y="125.301732" style="fill: #134a8e; stroke: #134a8e"/>
     <use xlink:href="#m325c9dee6d" x="125.543727" y="124.083309" style="fill: #134a8e; stroke: #134a8e"/>
     <use xlink:href="#m325c9dee6d" x="126.941723" y="123.190117" style="fill: #134a8e; stroke: #134a8e"/>
     <use xlink:href="#m325c9dee6d" x="128.339719" y="123.597018" style="fill: #134a8e; stroke: #134a8e"/>
     <use xlink:href="#m325c9dee6d" x="129.737714" y="122.845864" style="fill: #134a8e; stroke: #134a8e"/>
     <use xlink:href="#m325c9dee6d" x="131.13571" y="122.997332" style="fill: #134a8e; stroke: #134a8e"/>
     <use xlink:href="#m325c9dee6d" x="132.533706" y="124.557002" style="fill: #134a8e; stroke: #134a8e"/>
     <use xlink:href="#m325c9dee6d" x="133.931701" y="122.143617" style="fill: #134a8e; stroke: #134a8e"/>
     <use xlink:href="#m325c9dee6d" x="135.329697" y="126.825443" style="fill: #134a8e; stroke: #134a8e"/>
     <use xlink:href="#m325c9dee6d" x="136.727693" y="127.790604" style="fill: #134a8e; stroke: #134a8e"/>
     <use xlink:href="#m325c9dee6d" x="138.125689" y="128.19196" style="fill: #134a8e; stroke: #134a8e"/>
     <use xlink:href="#m325c9dee6d" x="139.523684" y="129.410968" style="fill: #134a8e; stroke: #134a8e"/>
     <use xlink:href="#m325c9dee6d" x="140.92168" y="129.081476" style="fill: #134a8e; stroke: #134a8e"/>
     <use xlink:href="#m325c9dee6d" x="142.319676" y="130.144862" style="fill: #134a8e; stroke: #134a8e"/>
     <use xlink:href="#m325c9dee6d" x="143.717671" y="130.958326" style="fill: #134a8e; stroke: #134a8e"/>
     <use xlink:href="#m325c9dee6d" x="145.115667" y="130.736553" style="fill: #134a8e; stroke: #134a8e"/>
     <use xlink:href="#m325c9dee6d" x="146.513663" y="130.388174" style="fill: #134a8e; stroke: #134a8e"/>
     <use xlink:href="#m325c9dee6d" x="147.911658" y="130.042032" style="fill: #134a8e; stroke: #134a8e"/>
     <use xlink:href="#m325c9dee6d" x="149.309654" y="131.491841" style="fill: #134a8e; stroke: #134a8e"/>
     <use xlink:href="#m325c9dee6d" x="150.70765" y="129.181746" style="fill: #134a8e; stroke: #134a8e"/>
     <use xlink:href="#m325c9dee6d" x="152.105646" y="129.705135" style="fill: #134a8e; stroke: #134a8e"/>
     <use xlink:href="#m325c9dee6d" x="153.503641" y="128.870216" style="fill: #134a8e; stroke: #134a8e"/>
     <use xlink:href="#m325c9dee6d" x="154.901637" y="130.068137" style="fill: #134a8e; stroke: #134a8e"/>
     <use xlink:href="#m325c9dee6d" x="156.299633" y="130.318847" style="fill: #134a8e; stroke: #134a8e"/>
     <use xlink:href="#m325c9dee6d" x="157.697628" y="129.019611" style="fill: #134a8e; stroke: #134a8e"/>
     <use xlink:href="#m325c9dee6d" x="159.095624" y="130.45056" style="fill: #134a8e; stroke: #134a8e"/>
     <use xlink:href="#m325c9dee6d" x="160.49362" y="129.179948" style="fill: #134a8e; stroke: #134a8e"/>
     <use xlink:href="#m325c9dee6d" x="161.891616" y="130.701525" style="fill: #134a8e; stroke: #134a8e"/>
     <use xlink:href="#m325c9dee6d" x="163.289611" y="130.225382" style="fill: #134a8e; stroke: #134a8e"/>
     <use xlink:href="#m325c9dee6d" x="164.687607" y="132.758271" style="fill: #134a8e; stroke: #134a8e"/>
     <use xlink:href="#m325c9dee6d" x="166.085603" y="132.197577" style="fill: #134a8e; stroke: #134a8e"/>
     <use xlink:href="#m325c9dee6d" x="167.483598" y="131.000408" style="fill: #134a8e; stroke: #134a8e"/>
     <use xlink:href="#m325c9dee6d" x="168.881594" y="130.599196" style="fill: #134a8e; stroke: #134a8e"/>
     <use xlink:href="#m325c9dee6d" x="170.27959" y="133.890653" style="fill: #134a8e; stroke: #134a8e"/>
     <use xlink:href="#m325c9dee6d" x="171.677585" y="133.949666" style="fill: #134a8e; stroke: #134a8e"/>
     <use xlink:href="#m325c9dee6d" x="173.075581" y="134.039821" style="fill: #134a8e; stroke: #134a8e"/>
     <use xlink:href="#m325c9dee6d" x="174.473577" y="134.486545" style="fill: #134a8e; stroke: #134a8e"/>
     <use xlink:href="#m325c9dee6d" x="175.871573" y="136.094082" style="fill: #134a8e; stroke: #134a8e"/>
     <use xlink:href="#m325c9dee6d" x="177.269568" y="134.734837" style="fill: #134a8e; stroke: #134a8e"/>
     <use xlink:href="#m325c9dee6d" x="178.667564" y="136.311416" style="fill: #134a8e; stroke: #134a8e"/>
     <use xlink:href="#m325c9dee6d" x="180.06556" y="136.72957" style="fill: #134a8e; stroke: #134a8e"/>
     <use xlink:href="#m325c9dee6d" x="181.463555" y="137.219671" style="fill: #134a8e; stroke: #134a8e"/>
     <use xlink:href="#m325c9dee6d" x="182.861551" y="137.246035" style="fill: #134a8e; stroke: #134a8e"/>
     <use xlink:href="#m325c9dee6d" x="184.259547" y="138.462248" style="fill: #134a8e; stroke: #134a8e"/>
     <use xlink:href="#m325c9dee6d" x="185.657543" y="138.337364" style="fill: #134a8e; stroke: #134a8e"/>
     <use xlink:href="#m325c9dee6d" x="187.055538" y="138.66639" style="fill: #134a8e; stroke: #134a8e"/>
     <use xlink:href="#m325c9dee6d" x="188.453534" y="138.837815" style="fill: #134a8e; stroke: #134a8e"/>
     <use xlink:href="#m325c9dee6d" x="189.85153" y="138.008741" style="fill: #134a8e; stroke: #134a8e"/>
     <use xlink:href="#m325c9dee6d" x="191.249525" y="139.982247" style="fill: #134a8e; stroke: #134a8e"/>
     <use xlink:href="#m325c9dee6d" x="192.647521" y="145.790372" style="fill: #134a8e; stroke: #134a8e"/>
     <use xlink:href="#m325c9dee6d" x="194.045517" y="146.170678" style="fill: #134a8e; stroke: #134a8e"/>
     <use xlink:href="#m325c9dee6d" x="195.443512" y="146.284328" style="fill: #134a8e; stroke: #134a8e"/>
     <use xlink:href="#m325c9dee6d" x="196.841508" y="147.268283" style="fill: #134a8e; stroke: #134a8e"/>
     <use xlink:href="#m325c9dee6d" x="198.239504" y="147.462095" style="fill: #134a8e; stroke: #134a8e"/>
     <use xlink:href="#m325c9dee6d" x="199.6375" y="146.158825" style="fill: #134a8e; stroke: #134a8e"/>
     <use xlink:href="#m325c9dee6d" x="201.035495" y="149.617114" style="fill: #134a8e; stroke: #134a8e"/>
     <use xlink:href="#m325c9dee6d" x="202.433491" y="149.518616" style="fill: #134a8e; stroke: #134a8e"/>
     <use xlink:href="#m325c9dee6d" x="203.831487" y="149.619596" style="fill: #134a8e; stroke: #134a8e"/>
     <use xlink:href="#m325c9dee6d" x="205.229482" y="148.404251" style="fill: #134a8e; stroke: #134a8e"/>
     <use xlink:href="#m325c9dee6d" x="206.627478" y="148.267791" style="fill: #134a8e; stroke: #134a8e"/>
     <use xlink:href="#m325c9dee6d" x="208.025474" y="148.517133" style="fill: #134a8e; stroke: #134a8e"/>
     <use xlink:href="#m325c9dee6d" x="209.423469" y="148.58856" style="fill: #134a8e; stroke: #134a8e"/>
     <use xlink:href="#m325c9dee6d" x="210.821465" y="148.547385" style="fill: #134a8e; stroke: #134a8e"/>
     <use xlink:href="#m325c9dee6d" x="212.219461" y="148.337178" style="fill: #134a8e; stroke: #134a8e"/>
     <use xlink:href="#m325c9dee6d" x="213.617457" y="146.134607" style="fill: #134a8e; stroke: #134a8e"/>
     <use xlink:href="#m325c9dee6d" x="215.015452" y="146.000897" style="fill: #134a8e; stroke: #134a8e"/>
     <use xlink:href="#m325c9dee6d" x="216.413448" y="147.455644" style="fill: #134a8e; stroke: #134a8e"/>
     <use xlink:href="#m325c9dee6d" x="217.811444" y="148.692485" style="fill: #134a8e; stroke: #134a8e"/>
     <use xlink:href="#m325c9dee6d" x="219.209439" y="148.892469" style="fill: #134a8e; stroke: #134a8e"/>
     <use xlink:href="#m325c9dee6d" x="220.607435" y="148.656452" style="fill: #134a8e; stroke: #134a8e"/>
     <use xlink:href="#m325c9dee6d" x="222.005431" y="147.495718" style="fill: #134a8e; stroke: #134a8e"/>
     <use xlink:href="#m325c9dee6d" x="223.403427" y="147.627909" style="fill: #134a8e; stroke: #134a8e"/>
     <use xlink:href="#m325c9dee6d" x="224.801422" y="147.418836" style="fill: #134a8e; stroke: #134a8e"/>
     <use xlink:href="#m325c9dee6d" x="226.199418" y="147.685232" style="fill: #134a8e; stroke: #134a8e"/>
     <use xlink:href="#m325c9dee6d" x="227.597414" y="146.47427" style="fill: #134a8e; stroke: #134a8e"/>
     <use xlink:href="#m325c9dee6d" x="228.995409" y="146.362384" style="fill: #134a8e; stroke: #134a8e"/>
     <use xlink:href="#m325c9dee6d" x="230.393405" y="146.530187" style="fill: #134a8e; stroke: #134a8e"/>
     <use xlink:href="#m325c9dee6d" x="231.791401" y="146.286097" style="fill: #134a8e; stroke: #134a8e"/>
     <use xlink:href="#m325c9dee6d" x="233.189396" y="146.642858" style="fill: #134a8e; stroke: #134a8e"/>
     <use xlink:href="#m325c9dee6d" x="234.587392" y="146.333236" style="fill: #134a8e; stroke: #134a8e"/>
     <use xlink:href="#m325c9dee6d" x="235.985388" y="142.747296" style="fill: #134a8e; stroke: #134a8e"/>
     <use xlink:href="#m325c9dee6d" x="237.383384" y="142.823264" style="fill: #134a8e; stroke: #134a8e"/>
     <use xlink:href="#m325c9dee6d" x="238.781379" y="142.434379" style="fill: #134a8e; stroke: #134a8e"/>
     <use xlink:href="#m325c9dee6d" x="240.179375" y="142.716245" style="fill: #134a8e; stroke: #134a8e"/>
     <use xlink:href="#m325c9dee6d" x="241.577371" y="141.580417" style="fill: #134a8e; stroke: #134a8e"/>
     <use xlink:href="#m325c9dee6d" x="242.975366" y="142.71847" style="fill: #134a8e; stroke: #134a8e"/>
     <use xlink:href="#m325c9dee6d" x="244.373362" y="140.424359" style="fill: #134a8e; stroke: #134a8e"/>
     <use xlink:href="#m325c9dee6d" x="245.771358" y="140.246132" style="fill: #134a8e; stroke: #134a8e"/>
     <use xlink:href="#m325c9dee6d" x="247.169354" y="139.977002" style="fill: #134a8e; stroke: #134a8e"/>
     <use xlink:href="#m325c9dee6d" x="248.567349" y="140.418894" style="fill: #134a8e; stroke: #134a8e"/>
     <use xlink:href="#m325c9dee6d" x="249.965345" y="139.150646" style="fill: #134a8e; stroke: #134a8e"/>
     <use xlink:href="#m325c9dee6d" x="251.363341" y="138.947691" style="fill: #134a8e; stroke: #134a8e"/>
     <use xlink:href="#m325c9dee6d" x="252.761336" y="137.140746" style="fill: #134a8e; stroke: #134a8e"/>
     <use xlink:href="#m325c9dee6d" x="254.159332" y="134.153412" style="fill: #134a8e; stroke: #134a8e"/>
     <use xlink:href="#m325c9dee6d" x="255.557328" y="133.975448" style="fill: #134a8e; stroke: #134a8e"/>
     <use xlink:href="#m325c9dee6d" x="256.955323" y="133.903558" style="fill: #134a8e; stroke: #134a8e"/>
     <use xlink:href="#m325c9dee6d" x="258.353319" y="134.035334" style="fill: #134a8e; stroke: #134a8e"/>
     <use xlink:href="#m325c9dee6d" x="259.751315" y="133.097472" style="fill: #134a8e; stroke: #134a8e"/>
     <use xlink:href="#m325c9dee6d" x="261.149311" y="131.254929" style="fill: #134a8e; stroke: #134a8e"/>
     <use xlink:href="#m325c9dee6d" x="262.547306" y="129.780734" style="fill: #134a8e; stroke: #134a8e"/>
     <use xlink:href="#m325c9dee6d" x="263.945302" y="120.264023" style="fill: #134a8e; stroke: #134a8e"/>
     <use xlink:href="#m325c9dee6d" x="265.343298" y="118.958162" style="fill: #134a8e; stroke: #134a8e"/>
     <use xlink:href="#m325c9dee6d" x="266.741293" y="116.241174" style="fill: #134a8e; stroke: #134a8e"/>
     <use xlink:href="#m325c9dee6d" x="268.139289" y="115.678641" style="fill: #134a8e; stroke: #134a8e"/>
     <use xlink:href="#m325c9dee6d" x="269.537285" y="115.202865" style="fill: #134a8e; stroke: #134a8e"/>
     <use xlink:href="#m325c9dee6d" x="270.935281" y="113.733397" style="fill: #134a8e; stroke: #134a8e"/>
     <use xlink:href="#m325c9dee6d" x="272.333276" y="114.331213" style="fill: #134a8e; stroke: #134a8e"/>
     <use xlink:href="#m325c9dee6d" x="273.731272" y="114.58537" style="fill: #134a8e; stroke: #134a8e"/>
     <use xlink:href="#m325c9dee6d" x="275.129268" y="114.627431" style="fill: #134a8e; stroke: #134a8e"/>
     <use xlink:href="#m325c9dee6d" x="276.527263" y="111.701705" style="fill: #134a8e; stroke: #134a8e"/>
     <use xlink:href="#m325c9dee6d" x="277.925259" y="111.964141" style="fill: #134a8e; stroke: #134a8e"/>
     <use xlink:href="#m325c9dee6d" x="279.323255" y="111.979778" style="fill: #134a8e; stroke: #134a8e"/>
     <use xlink:href="#m325c9dee6d" x="280.72125" y="112.758297" style="fill: #134a8e; stroke: #134a8e"/>
     <use xlink:href="#m325c9dee6d" x="282.119246" y="112.128873" style="fill: #134a8e; stroke: #134a8e"/>
     <use xlink:href="#m325c9dee6d" x="283.517242" y="113.690848" style="fill: #134a8e; stroke: #134a8e"/>
     <use xlink:href="#m325c9dee6d" x="284.915238" y="113.525137" style="fill: #134a8e; stroke: #134a8e"/>
     <use xlink:href="#m325c9dee6d" x="286.313233" y="112.908625" style="fill: #134a8e; stroke: #134a8e"/>
     <use xlink:href="#m325c9dee6d" x="287.711229" y="113.013225" style="fill: #134a8e; stroke: #134a8e"/>
     <use xlink:href="#m325c9dee6d" x="289.109225" y="112.958348" style="fill: #134a8e; stroke: #134a8e"/>
     <use xlink:href="#m325c9dee6d" x="290.50722" y="109.674999" style="fill: #134a8e; stroke: #134a8e"/>
     <use xlink:href="#m325c9dee6d" x="291.905216" y="109.788136" style="fill: #134a8e; stroke: #134a8e"/>
     <use xlink:href="#m325c9dee6d" x="293.303212" y="109.969437" style="fill: #134a8e; stroke: #134a8e"/>
     <use xlink:href="#m325c9dee6d" x="294.701207" y="109.408052" style="fill: #134a8e; stroke: #134a8e"/>
     <use xlink:href="#m325c9dee6d" x="296.099203" y="108.683057" style="fill: #134a8e; stroke: #134a8e"/>
     <use xlink:href="#m325c9dee6d" x="297.497199" y="109.296413" style="fill: #134a8e; stroke: #134a8e"/>
     <use xlink:href="#m325c9dee6d" x="298.895195" y="108.935307" style="fill: #134a8e; stroke: #134a8e"/>
     <use xlink:href="#m325c9dee6d" x="300.29319" y="108.210437" style="fill: #134a8e; stroke: #134a8e"/>
     <use xlink:href="#m325c9dee6d" x="301.691186" y="107.925885" style="fill: #134a8e; stroke: #134a8e"/>
     <use xlink:href="#m325c9dee6d" x="303.089182" y="106.863371" style="fill: #134a8e; stroke: #134a8e"/>
     <use xlink:href="#m325c9dee6d" x="304.487177" y="106.981683" style="fill: #134a8e; stroke: #134a8e"/>
     <use xlink:href="#m325c9dee6d" x="305.885173" y="103.591203" style="fill: #134a8e; stroke: #134a8e"/>
     <use xlink:href="#m325c9dee6d" x="307.283169" y="104.655391" style="fill: #134a8e; stroke: #134a8e"/>
     <use xlink:href="#m325c9dee6d" x="308.681165" y="106.379102" style="fill: #134a8e; stroke: #134a8e"/>
     <use xlink:href="#m325c9dee6d" x="310.07916" y="105.472453" style="fill: #134a8e; stroke: #134a8e"/>
     <use xlink:href="#m325c9dee6d" x="311.477156" y="103.6571" style="fill: #134a8e; stroke: #134a8e"/>
     <use xlink:href="#m325c9dee6d" x="312.875152" y="103.912417" style="fill: #134a8e; stroke: #134a8e"/>
     <use xlink:href="#m325c9dee6d" x="314.273147" y="103.097152" style="fill: #134a8e; stroke: #134a8e"/>
     <use xlink:href="#m325c9dee6d" x="315.671143" y="104.250426" style="fill: #134a8e; stroke: #134a8e"/>
     <use xlink:href="#m325c9dee6d" x="317.069139" y="103.925839" style="fill: #134a8e; stroke: #134a8e"/>
     <use xlink:href="#m325c9dee6d" x="318.467134" y="103.907697" style="fill: #134a8e; stroke: #134a8e"/>
     <use xlink:href="#m325c9dee6d" x="319.86513" y="103.331834" style="fill: #134a8e; stroke: #134a8e"/>
     <use xlink:href="#m325c9dee6d" x="321.263126" y="102.150084" style="fill: #134a8e; stroke: #134a8e"/>
     <use xlink:href="#m325c9dee6d" x="322.661122" y="101.18765" style="fill: #134a8e; stroke: #134a8e"/>
     <use xlink:href="#m325c9dee6d" x="324.059117" y="101.568215" style="fill: #134a8e; stroke: #134a8e"/>
     <use xlink:href="#m325c9dee6d" x="325.457113" y="101.594019" style="fill: #134a8e; stroke: #134a8e"/>
     <use xlink:href="#m325c9dee6d" x="326.855109" y="101.668075" style="fill: #134a8e; stroke: #134a8e"/>
     <use xlink:href="#m325c9dee6d" x="328.253104" y="101.073211" style="fill: #134a8e; stroke: #134a8e"/>
     <use xlink:href="#m325c9dee6d" x="329.6511" y="101.896207" style="fill: #134a8e; stroke: #134a8e"/>
     <use xlink:href="#m325c9dee6d" x="331.049096" y="100.753031" style="fill: #134a8e; stroke: #134a8e"/>
     <use xlink:href="#m325c9dee6d" x="332.447092" y="99.451441" style="fill: #134a8e; stroke: #134a8e"/>
     <use xlink:href="#m325c9dee6d" x="333.845087" y="100.497023" style="fill: #134a8e; stroke: #134a8e"/>
     <use xlink:href="#m325c9dee6d" x="335.243083" y="99.401431" style="fill: #134a8e; stroke: #134a8e"/>
     <use xlink:href="#m325c9dee6d" x="336.641079" y="100.632181" style="fill: #134a8e; stroke: #134a8e"/>
     <use xlink:href="#m325c9dee6d" x="338.039074" y="98.999683" style="fill: #134a8e; stroke: #134a8e"/>
     <use xlink:href="#m325c9dee6d" x="339.43707" y="101.115591" style="fill: #134a8e; stroke: #134a8e"/>
     <use xlink:href="#m325c9dee6d" x="340.835066" y="104.284512" style="fill: #134a8e; stroke: #134a8e"/>
     <use xlink:href="#m325c9dee6d" x="342.233061" y="105.794685" style="fill: #134a8e; stroke: #134a8e"/>
     <use xlink:href="#m325c9dee6d" x="343.631057" y="105.614363" style="fill: #134a8e; stroke: #134a8e"/>
     <use xlink:href="#m325c9dee6d" x="345.029053" y="103.867532" style="fill: #134a8e; stroke: #134a8e"/>
     <use xlink:href="#m325c9dee6d" x="346.427049" y="104.166919" style="fill: #134a8e; stroke: #134a8e"/>
     <use xlink:href="#m325c9dee6d" x="347.825044" y="104.502091" style="fill: #134a8e; stroke: #134a8e"/>
     <use xlink:href="#m325c9dee6d" x="349.22304" y="104.905909" style="fill: #134a8e; stroke: #134a8e"/>
     <use xlink:href="#m325c9dee6d" x="350.621036" y="105.703896" style="fill: #134a8e; stroke: #134a8e"/>
     <use xlink:href="#m325c9dee6d" x="352.019031" y="105.617198" style="fill: #134a8e; stroke: #134a8e"/>
     <use xlink:href="#m325c9dee6d" x="353.417027" y="109.505378" style="fill: #134a8e; stroke: #134a8e"/>
     <use xlink:href="#m325c9dee6d" x="354.815023" y="113.12702" style="fill: #134a8e; stroke: #134a8e"/>
     <use xlink:href="#m325c9dee6d" x="356.213019" y="113.360651" style="fill: #134a8e; stroke: #134a8e"/>
     <use xlink:href="#m325c9dee6d" x="357.611014" y="116.114477" style="fill: #134a8e; stroke: #134a8e"/>
     <use xlink:href="#m325c9dee6d" x="359.00901" y="114.99521" style="fill: #134a8e; stroke: #134a8e"/>
     <use xlink:href="#m325c9dee6d" x="360.407006" y="117.692745" style="fill: #134a8e; stroke: #134a8e"/>
     <use xlink:href="#m325c9dee6d" x="361.805001" y="121.778975" style="fill: #134a8e; stroke: #134a8e"/>
     <use xlink:href="#m325c9dee6d" x="363.202997" y="129.934602" style="fill: #134a8e; stroke: #134a8e"/>
     <use xlink:href="#m325c9dee6d" x="364.600993" y="130.343384" style="fill: #134a8e; stroke: #134a8e"/>
     <use xlink:href="#m325c9dee6d" x="365.998988" y="130.247323" style="fill: #134a8e; stroke: #134a8e"/>
     <use xlink:href="#m325c9dee6d" x="367.396984" y="132.715557" style="fill: #134a8e; stroke: #134a8e"/>
     <use xlink:href="#m325c9dee6d" x="368.79498" y="133.301961" style="fill: #134a8e; stroke: #134a8e"/>
     <use xlink:href="#m325c9dee6d" x="370.192976" y="135.819356" style="fill: #134a8e; stroke: #134a8e"/>
     <use xlink:href="#m325c9dee6d" x="371.590971" y="136.004022" style="fill: #134a8e; stroke: #134a8e"/>
     <use xlink:href="#m325c9dee6d" x="372.988967" y="138.841639" style="fill: #134a8e; stroke: #134a8e"/>
     <use xlink:href="#m325c9dee6d" x="374.386963" y="143.978124" style="fill: #134a8e; stroke: #134a8e"/>
     <use xlink:href="#m325c9dee6d" x="375.784958" y="143.72" style="fill: #134a8e; stroke: #134a8e"/>
     <use xlink:href="#m325c9dee6d" x="377.182954" y="145.525066" style="fill: #134a8e; stroke: #134a8e"/>
     <use xlink:href="#m325c9dee6d" x="378.58095" y="146.596339" style="fill: #134a8e; stroke: #134a8e"/>
     <use xlink:href="#m325c9dee6d" x="379.978946" y="146.91639" style="fill: #134a8e; stroke: #134a8e"/>
     <use xlink:href="#m325c9dee6d" x="381.376941" y="149.031984" style="fill: #134a8e; stroke: #134a8e"/>
     <use xlink:href="#m325c9dee6d" x="382.774937" y="150.34335" style="fill: #134a8e; stroke: #134a8e"/>
     <use xlink:href="#m325c9dee6d" x="384.172933" y="150.055633" style="fill: #134a8e; stroke: #134a8e"/>
     <use xlink:href="#m325c9dee6d" x="385.570928" y="150.317701" style="fill: #134a8e; stroke: #134a8e"/>
     <use xlink:href="#m325c9dee6d" x="386.968924" y="150.533847" style="fill: #134a8e; stroke: #134a8e"/>
     <use xlink:href="#m325c9dee6d" x="388.36692" y="150.410209" style="fill: #134a8e; stroke: #134a8e"/>
     <use xlink:href="#m325c9dee6d" x="389.764915" y="153.023078" style="fill: #134a8e; stroke: #134a8e"/>
     <use xlink:href="#m325c9dee6d" x="391.162911" y="153.085018" style="fill: #134a8e; stroke: #134a8e"/>
     <use xlink:href="#m325c9dee6d" x="392.560907" y="153.235819" style="fill: #134a8e; stroke: #134a8e"/>
     <use xlink:href="#m325c9dee6d" x="393.958903" y="152.725344" style="fill: #134a8e; stroke: #134a8e"/>
     <use xlink:href="#m325c9dee6d" x="395.356898" y="153.160755" style="fill: #134a8e; stroke: #134a8e"/>
     <use xlink:href="#m325c9dee6d" x="396.754894" y="152.934879" style="fill: #134a8e; stroke: #134a8e"/>
     <use xlink:href="#m325c9dee6d" x="398.15289" y="152.885796" style="fill: #134a8e; stroke: #134a8e"/>
     <use xlink:href="#m325c9dee6d" x="399.550885" y="156.204982" style="fill: #134a8e; stroke: #134a8e"/>
     <use xlink:href="#m325c9dee6d" x="400.948881" y="156.078602" style="fill: #134a8e; stroke: #134a8e"/>
     <use xlink:href="#m325c9dee6d" x="402.346877" y="156.27301" style="fill: #134a8e; stroke: #134a8e"/>
     <use xlink:href="#m325c9dee6d" x="403.744872" y="156.656719" style="fill: #134a8e; stroke: #134a8e"/>
     <use xlink:href="#m325c9dee6d" x="405.142868" y="156.680075" style="fill: #134a8e; stroke: #134a8e"/>
     <use xlink:href="#m325c9dee6d" x="406.540864" y="156.603583" style="fill: #134a8e; stroke: #134a8e"/>
     <use xlink:href="#m325c9dee6d" x="407.93886" y="156.578271" style="fill: #134a8e; stroke: #134a8e"/>
     <use xlink:href="#m325c9dee6d" x="409.336855" y="156.669279" style="fill: #134a8e; stroke: #134a8e"/>
     <use xlink:href="#m325c9dee6d" x="410.734851" y="156.458696" style="fill: #134a8e; stroke: #134a8e"/>
     <use xlink:href="#m325c9dee6d" x="412.132847" y="156.576564" style="fill: #134a8e; stroke: #134a8e"/>
     <use xlink:href="#m325c9dee6d" x="413.530842" y="156.459589" style="fill: #134a8e; stroke: #134a8e"/>
     <use xlink:href="#m325c9dee6d" x="414.928838" y="156.459397" style="fill: #134a8e; stroke: #134a8e"/>
     <use xlink:href="#m325c9dee6d" x="416.326834" y="156.457109" style="fill: #134a8e; stroke: #134a8e"/>
     <use xlink:href="#m325c9dee6d" x="417.72483" y="156.558347" style="fill: #134a8e; stroke: #134a8e"/>
    </g>
   </g>
   <g id="line2d_28">
    <path d="M 62.63392 18.985222 
L 64.031916 24.197351 
L 65.429912 28.729798 
L 66.827908 22.993529 
L 68.225903 30.658836 
L 69.623899 39.592643 
L 71.021895 43.272662 
L 72.41989 48.563466 
L 73.817886 50.567736 
L 75.215882 50.627528 
L 76.613878 52.944653 
L 78.011873 54.889711 
L 79.409869 50.121194 
L 80.807865 66.721722 
L 82.20586 71.899853 
L 83.603856 78.199994 
L 85.001852 81.846434 
L 86.399847 90.451426 
L 89.195839 95.167414 
L 90.593835 94.420887 
L 91.99183 101.390107 
L 93.389826 102.53267 
L 94.787822 97.19591 
L 96.185817 100.133603 
L 97.583813 104.109358 
L 98.981809 111.504802 
L 101.7778 106.003139 
L 103.175796 108.15399 
L 104.573792 108.47132 
L 105.971787 109.986206 
L 107.369783 112.897035 
L 108.767779 116.533856 
L 110.165774 120.807734 
L 111.56377 116.70133 
L 112.961766 120.391473 
L 114.359762 128.209485 
L 115.757757 128.30021 
L 117.155753 128.181466 
L 118.553749 127.099078 
L 119.951744 126.249881 
L 121.34974 125.683148 
L 122.747736 126.274353 
L 124.145731 126.157752 
L 125.543727 124.180652 
L 126.941723 123.713027 
L 129.737714 123.145229 
L 131.13571 123.908283 
L 132.533706 125.434279 
L 133.931701 126.040778 
L 135.329697 127.301181 
L 136.727693 128.177326 
L 138.125689 129.757502 
L 139.523684 131.932221 
L 140.92168 132.364143 
L 142.319676 131.91745 
L 143.717671 133.054536 
L 145.115667 133.181805 
L 146.513663 131.689348 
L 147.911658 131.843878 
L 149.309654 136.22295 
L 150.70765 130.639294 
L 152.105646 131.261085 
L 153.503641 131.141675 
L 154.901637 131.196416 
L 156.299633 132.445966 
L 159.095624 132.174579 
L 160.49362 131.841167 
L 161.891616 132.752794 
L 163.289611 132.620685 
L 164.687607 134.516039 
L 166.085603 134.314194 
L 167.483598 134.292563 
L 168.881594 133.447683 
L 170.27959 135.725687 
L 173.075581 136.577903 
L 175.871573 137.966093 
L 177.269568 137.961215 
L 178.667564 140.062268 
L 180.06556 138.943394 
L 181.463555 140.867613 
L 182.861551 141.167566 
L 184.259547 141.253889 
L 185.657543 142.603254 
L 187.055538 142.976523 
L 188.453534 144.446219 
L 189.85153 143.415079 
L 191.249525 145.343109 
L 192.647521 146.997238 
L 195.443512 148.047979 
L 196.841508 148.930445 
L 198.239504 149.372436 
L 199.6375 148.300635 
L 201.035495 149.598878 
L 202.433491 150.255934 
L 203.831487 149.942359 
L 205.229482 149.434675 
L 206.627478 149.513073 
L 208.025474 149.185152 
L 209.423469 149.171715 
L 210.821465 149.581031 
L 212.219461 149.060859 
L 213.617457 148.377262 
L 215.015452 148.132187 
L 216.413448 148.839061 
L 217.811444 148.794908 
L 219.209439 149.372151 
L 220.607435 148.94518 
L 222.005431 148.849805 
L 223.403427 149.024345 
L 226.199418 149.54609 
L 228.995409 149.040389 
L 230.393405 148.483306 
L 233.189396 149.02745 
L 234.587392 148.717162 
L 235.985388 147.416838 
L 237.383384 146.541663 
L 238.781379 146.48952 
L 240.179375 145.91327 
L 241.577371 145.606459 
L 242.975366 145.137462 
L 244.373362 144.463945 
L 245.771358 143.465812 
L 247.169354 142.638213 
L 248.567349 143.096598 
L 249.965345 141.415559 
L 251.363341 139.92101 
L 252.761336 139.178474 
L 254.159332 136.544462 
L 255.557328 135.773729 
L 256.955323 136.746011 
L 258.353319 136.585879 
L 259.751315 133.802828 
L 261.149311 132.438697 
L 262.547306 131.806347 
L 263.945302 128.026283 
L 265.343298 126.800401 
L 266.741293 125.790387 
L 268.139289 124.611125 
L 269.537285 124.674399 
L 270.935281 123.286009 
L 272.333276 123.099278 
L 273.731272 124.722769 
L 275.129268 123.43698 
L 276.527263 118.581963 
L 277.925259 117.385054 
L 279.323255 119.730294 
L 280.72125 118.330925 
L 282.119246 116.653934 
L 283.517242 119.695732 
L 284.915238 119.017219 
L 286.313233 117.231563 
L 287.711229 117.320463 
L 289.109225 116.197683 
L 290.50722 114.903295 
L 291.905216 114.021155 
L 294.701207 114.221487 
L 296.099203 113.825797 
L 297.497199 115.04392 
L 298.895195 112.093549 
L 300.29319 112.15268 
L 301.691186 113.04708 
L 303.089182 111.70754 
L 304.487177 112.593434 
L 305.885173 111.288639 
L 307.283169 111.76045 
L 308.681165 111.20873 
L 310.07916 110.898619 
L 311.477156 108.950533 
L 312.875152 109.190942 
L 314.273147 108.797792 
L 315.671143 109.171525 
L 317.069139 110.134009 
L 318.467134 109.411769 
L 319.86513 107.988646 
L 321.263126 105.649407 
L 322.661122 105.449237 
L 324.059117 105.128637 
L 326.855109 107.574648 
L 328.253104 103.515521 
L 329.6511 105.207367 
L 331.049096 103.439175 
L 332.447092 101.374712 
L 333.845087 102.930176 
L 335.243083 101.366396 
L 336.641079 102.134781 
L 338.039074 101.654704 
L 339.43707 102.414414 
L 340.835066 104.014008 
L 342.233061 105.376688 
L 343.631057 104.40547 
L 345.029053 106.954698 
L 346.427049 106.482037 
L 347.825044 110.296696 
L 349.22304 110.675593 
L 350.621036 113.204094 
L 352.019031 113.83245 
L 353.417027 114.980588 
L 354.815023 118.627484 
L 356.213019 118.90176 
L 357.611014 120.03554 
L 359.00901 120.744775 
L 360.407006 124.374583 
L 361.805001 126.226312 
L 363.202997 129.504557 
L 365.998988 131.780438 
L 367.396984 134.017787 
L 370.192976 139.24393 
L 371.590971 140.573224 
L 372.988967 143.125413 
L 374.386963 143.70134 
L 375.784958 143.838496 
L 377.182954 146.298267 
L 378.58095 147.753972 
L 379.978946 148.587326 
L 381.376941 149.945134 
L 382.774937 150.896737 
L 384.172933 151.588526 
L 385.570928 151.187254 
L 386.968924 152.35317 
L 388.36692 153.164353 
L 391.162911 154.376388 
L 392.560907 154.301477 
L 393.958903 155.163541 
L 395.356898 154.843003 
L 396.754894 155.646558 
L 398.15289 155.931802 
L 399.550885 156.467364 
L 400.948881 156.487644 
L 402.346877 156.702632 
L 405.142868 156.791798 
L 406.540864 157.363343 
L 407.93886 157.259154 
L 410.734851 157.382722 
L 412.132847 157.673338 
L 413.530842 157.372973 
L 414.928838 158.76 
L 416.326834 156.893912 
L 417.72483 156.948019 
L 417.72483 156.948019 
" clip-path="url(#p5ada65ab0f)" style="fill: none; stroke-dasharray: 5.55,2.4; stroke-dashoffset: 0; stroke: #000000; stroke-width: 1.5"/>
   </g>
   <g id="patch_3">
    <path d="M 44.879375 166.32 
L 44.879375 -0 
" style="fill: none; stroke: #ffffff; stroke-linejoin: miter; stroke-linecap: square"/>
   </g>
   <g id="patch_4">
    <path d="M 435.479375 166.32 
L 435.479375 -0 
" style="fill: none; stroke: #ffffff; stroke-linejoin: miter; stroke-linecap: square"/>
   </g>
   <g id="patch_5">
    <path d="M 44.879375 166.32 
L 435.479375 166.32 
" style="fill: none; stroke: #ffffff; stroke-linejoin: miter; stroke-linecap: square"/>
   </g>
   <g id="patch_6">
    <path d="M 44.879375 -0 
L 435.479375 -0 
" style="fill: none; stroke: #ffffff; stroke-linejoin: miter; stroke-linecap: square"/>
   </g>
   <g id="legend_1">
    <g id="patch_7">
     <path d="M 276.4325 60.378125 
L 428.479375 60.378125 
Q 430.479375 60.378125 430.479375 58.378125 
L 430.479375 7 
Q 430.479375 5 428.479375 5 
L 276.4325 5 
Q 274.4325 5 274.4325 7 
L 274.4325 58.378125 
Q 274.4325 60.378125 276.4325 60.378125 
z
" style="fill: #e5e5e5; opacity: 0.8; stroke: #cccccc; stroke-width: 0.5; stroke-linejoin: miter"/>
    </g>
    <g id="line2d_29">
     <path d="M 278.4325 15.5 
L 288.4325 15.5 
L 298.4325 15.5 
" style="fill: none; stroke: #134a8e; stroke-width: 3; stroke-linecap: square"/>
     <g>
      <use xlink:href="#m325c9dee6d" x="288.4325" y="15.5" style="fill: #134a8e; stroke: #134a8e"/>
     </g>
    </g>
    <g id="text_16">
     <!-- Private Value $\tilde{R}_{\chi_1,\chi_2}^t$ -->
     <g transform="translate(306.4325 19) scale(0.1 -0.1)">
      <defs>
       <path id="DejaVuSans-50" d="M 1259 4147 
L 1259 2394 
L 2053 2394 
Q 2494 2394 2734 2622 
Q 2975 2850 2975 3272 
Q 2975 3691 2734 3919 
Q 2494 4147 2053 4147 
L 1259 4147 
z
M 628 4666 
L 2053 4666 
Q 2838 4666 3239 4311 
Q 3641 3956 3641 3272 
Q 3641 2581 3239 2228 
Q 2838 1875 2053 1875 
L 1259 1875 
L 1259 0 
L 628 0 
L 628 4666 
z
" transform="scale(0.015625)"/>
       <path id="DejaVuSans-72" d="M 2631 2963 
Q 2534 3019 2420 3045 
Q 2306 3072 2169 3072 
Q 1681 3072 1420 2755 
Q 1159 2438 1159 1844 
L 1159 0 
L 581 0 
L 581 3500 
L 1159 3500 
L 1159 2956 
Q 1341 3275 1631 3429 
Q 1922 3584 2338 3584 
Q 2397 3584 2469 3576 
Q 2541 3569 2628 3553 
L 2631 2963 
z
" transform="scale(0.015625)"/>
       <path id="DejaVuSans-69" d="M 603 3500 
L 1178 3500 
L 1178 0 
L 603 0 
L 603 3500 
z
M 603 4863 
L 1178 4863 
L 1178 4134 
L 603 4134 
L 603 4863 
z
" transform="scale(0.015625)"/>
       <path id="DejaVuSans-76" d="M 191 3500 
L 800 3500 
L 1894 563 
L 2988 3500 
L 3597 3500 
L 2284 0 
L 1503 0 
L 191 3500 
z
" transform="scale(0.015625)"/>
       <path id="DejaVuSans-20" transform="scale(0.015625)"/>
       <path id="DejaVuSans-303" d="M -1621 4281 
L -1799 4453 
Q -1867 4516 -1919 4545 
Q -1971 4575 -2011 4575 
Q -2130 4575 -2186 4461 
Q -2242 4347 -2249 4091 
L -2639 4091 
Q -2633 4513 -2473 4742 
Q -2314 4972 -2030 4972 
Q -1911 4972 -1811 4928 
Q -1711 4884 -1596 4781 
L -1417 4609 
Q -1349 4547 -1297 4517 
Q -1246 4488 -1205 4488 
Q -1086 4488 -1030 4602 
Q -974 4716 -967 4972 
L -577 4972 
Q -583 4550 -742 4320 
Q -902 4091 -1186 4091 
Q -1305 4091 -1405 4134 
Q -1505 4178 -1621 4281 
z
" transform="scale(0.015625)"/>
       <path id="DejaVuSans-Oblique-52" d="M 1613 4147 
L 1294 2491 
L 2106 2491 
Q 2584 2491 2879 2755 
Q 3175 3019 3175 3444 
Q 3175 3784 2976 3965 
Q 2778 4147 2406 4147 
L 1613 4147 
z
M 2772 2241 
Q 2972 2194 3105 2009 
Q 3238 1825 3413 1275 
L 3809 0 
L 3144 0 
L 2778 1197 
Q 2638 1659 2453 1815 
Q 2269 1972 1888 1972 
L 1191 1972 
L 806 0 
L 172 0 
L 1081 4666 
L 2503 4666 
Q 3150 4666 3495 4373 
Q 3841 4081 3841 3531 
Q 3841 3044 3547 2687 
Q 3253 2331 2772 2241 
z
" transform="scale(0.015625)"/>
       <path id="DejaVuSans-Oblique-74" d="M 2706 3500 
L 2619 3053 
L 1472 3053 
L 1100 1153 
Q 1081 1047 1072 975 
Q 1063 903 1063 863 
Q 1063 663 1183 572 
Q 1303 481 1569 481 
L 2150 481 
L 2053 0 
L 1503 0 
Q 991 0 739 200 
Q 488 400 488 806 
Q 488 878 497 964 
Q 506 1050 525 1153 
L 897 3053 
L 409 3053 
L 500 3500 
L 978 3500 
L 1172 4494 
L 1747 4494 
L 1556 3500 
L 2706 3500 
z
" transform="scale(0.015625)"/>
       <path id="DejaVuSans-Oblique-3c7" d="M 1922 -781 
L 1691 416 
L 394 -1334 
L -284 -1334 
L 1553 1141 
L 1269 2613 
Q 1194 3006 713 3006 
L 559 3006 
L 653 3500 
L 872 3494 
Q 1675 3472 1775 2950 
L 2006 1753 
L 3303 3503 
L 3981 3503 
L 2144 1028 
L 2428 -444 
Q 2503 -838 2984 -838 
L 3138 -838 
L 3044 -1331 
L 2825 -1325 
Q 2022 -1303 1922 -781 
z
" transform="scale(0.015625)"/>
       <path id="DejaVuSans-2c" d="M 750 794 
L 1409 794 
L 1409 256 
L 897 -744 
L 494 -744 
L 750 256 
L 750 794 
z
" transform="scale(0.015625)"/>
      </defs>
      <use xlink:href="#DejaVuSans-50" transform="translate(0 0.828125)"/>
      <use xlink:href="#DejaVuSans-72" transform="translate(60.302734 0.828125)"/>
      <use xlink:href="#DejaVuSans-69" transform="translate(101.416016 0.828125)"/>
      <use xlink:href="#DejaVuSans-76" transform="translate(129.199219 0.828125)"/>
      <use xlink:href="#DejaVuSans-61" transform="translate(188.378906 0.828125)"/>
      <use xlink:href="#DejaVuSans-74" transform="translate(249.658203 0.828125)"/>
      <use xlink:href="#DejaVuSans-65" transform="translate(288.867188 0.828125)"/>
      <use xlink:href="#DejaVuSans-20" transform="translate(350.390625 0.828125)"/>
      <use xlink:href="#DejaVuSans-56" transform="translate(382.177734 0.828125)"/>
      <use xlink:href="#DejaVuSans-61" transform="translate(450.585938 0.828125)"/>
      <use xlink:href="#DejaVuSans-6c" transform="translate(511.865234 0.828125)"/>
      <use xlink:href="#DejaVuSans-75" transform="translate(539.648438 0.828125)"/>
      <use xlink:href="#DejaVuSans-65" transform="translate(603.027344 0.828125)"/>
      <use xlink:href="#DejaVuSans-20" transform="translate(664.550781 0.828125)"/>
      <use xlink:href="#DejaVuSans-303" transform="translate(764.942871 22.3125)"/>
      <use xlink:href="#DejaVuSans-Oblique-52" transform="translate(696.337891 0.828125)"/>
      <use xlink:href="#DejaVuSans-Oblique-74" transform="translate(766.777344 39.109375) scale(0.7)"/>
      <use xlink:href="#DejaVuSans-Oblique-3c7" transform="translate(766.777344 -26.515625) scale(0.7)"/>
      <use xlink:href="#DejaVuSans-31" transform="translate(808.203125 -38) scale(0.49)"/>
      <use xlink:href="#DejaVuSans-2c" transform="translate(841.29248 -26.515625) scale(0.7)"/>
      <use xlink:href="#DejaVuSans-Oblique-3c7" transform="translate(877.181152 -26.515625) scale(0.7)"/>
      <use xlink:href="#DejaVuSans-32" transform="translate(918.606934 -38) scale(0.49)"/>
     </g>
    </g>
    <g id="line2d_30">
     <path d="M 278.4325 34 
L 288.4325 34 
L 298.4325 34 
" style="fill: none; stroke-dasharray: 5.55,2.4; stroke-dashoffset: 0; stroke: #000000; stroke-width: 1.5"/>
    </g>
    <g id="text_17">
     <!-- Original Value $\bar{R}_{\chi_1,\chi_2}^t$ -->
     <g transform="translate(306.4325 37.5) scale(0.1 -0.1)">
      <defs>
       <path id="DejaVuSans-4f" d="M 2522 4238 
Q 1834 4238 1429 3725 
Q 1025 3213 1025 2328 
Q 1025 1447 1429 934 
Q 1834 422 2522 422 
Q 3209 422 3611 934 
Q 4013 1447 4013 2328 
Q 4013 3213 3611 3725 
Q 3209 4238 2522 4238 
z
M 2522 4750 
Q 3503 4750 4090 4092 
Q 4678 3434 4678 2328 
Q 4678 1225 4090 567 
Q 3503 -91 2522 -91 
Q 1538 -91 948 565 
Q 359 1222 359 2328 
Q 359 3434 948 4092 
Q 1538 4750 2522 4750 
z
" transform="scale(0.015625)"/>
       <path id="DejaVuSans-67" d="M 2906 1791 
Q 2906 2416 2648 2759 
Q 2391 3103 1925 3103 
Q 1463 3103 1205 2759 
Q 947 2416 947 1791 
Q 947 1169 1205 825 
Q 1463 481 1925 481 
Q 2391 481 2648 825 
Q 2906 1169 2906 1791 
z
M 3481 434 
Q 3481 -459 3084 -895 
Q 2688 -1331 1869 -1331 
Q 1566 -1331 1297 -1286 
Q 1028 -1241 775 -1147 
L 775 -588 
Q 1028 -725 1275 -790 
Q 1522 -856 1778 -856 
Q 2344 -856 2625 -561 
Q 2906 -266 2906 331 
L 2906 616 
Q 2728 306 2450 153 
Q 2172 0 1784 0 
Q 1141 0 747 490 
Q 353 981 353 1791 
Q 353 2603 747 3093 
Q 1141 3584 1784 3584 
Q 2172 3584 2450 3431 
Q 2728 3278 2906 2969 
L 2906 3500 
L 3481 3500 
L 3481 434 
z
" transform="scale(0.015625)"/>
       <path id="DejaVuSans-6e" d="M 3513 2113 
L 3513 0 
L 2938 0 
L 2938 2094 
Q 2938 2591 2744 2837 
Q 2550 3084 2163 3084 
Q 1697 3084 1428 2787 
Q 1159 2491 1159 1978 
L 1159 0 
L 581 0 
L 581 3500 
L 1159 3500 
L 1159 2956 
Q 1366 3272 1645 3428 
Q 1925 3584 2291 3584 
Q 2894 3584 3203 3211 
Q 3513 2838 3513 2113 
z
" transform="scale(0.015625)"/>
       <path id="DejaVuSans-304" d="M -2518 4769 
L -650 4769 
L -650 4306 
L -2518 4306 
L -2518 4769 
z
" transform="scale(0.015625)"/>
      </defs>
      <use xlink:href="#DejaVuSans-4f" transform="translate(0 0.359375)"/>
      <use xlink:href="#DejaVuSans-72" transform="translate(78.710938 0.359375)"/>
      <use xlink:href="#DejaVuSans-69" transform="translate(119.824219 0.359375)"/>
      <use xlink:href="#DejaVuSans-67" transform="translate(147.607422 0.359375)"/>
      <use xlink:href="#DejaVuSans-69" transform="translate(211.083984 0.359375)"/>
      <use xlink:href="#DejaVuSans-6e" transform="translate(238.867188 0.359375)"/>
      <use xlink:href="#DejaVuSans-61" transform="translate(302.246094 0.359375)"/>
      <use xlink:href="#DejaVuSans-6c" transform="translate(363.525391 0.359375)"/>
      <use xlink:href="#DejaVuSans-20" transform="translate(391.308594 0.359375)"/>
      <use xlink:href="#DejaVuSans-56" transform="translate(423.095703 0.359375)"/>
      <use xlink:href="#DejaVuSans-61" transform="translate(491.503906 0.359375)"/>
      <use xlink:href="#DejaVuSans-6c" transform="translate(552.783203 0.359375)"/>
      <use xlink:href="#DejaVuSans-75" transform="translate(580.566406 0.359375)"/>
      <use xlink:href="#DejaVuSans-65" transform="translate(643.945312 0.359375)"/>
      <use xlink:href="#DejaVuSans-20" transform="translate(705.46875 0.359375)"/>
      <use xlink:href="#DejaVuSans-304" transform="translate(804.970215 18.484375)"/>
      <use xlink:href="#DejaVuSans-Oblique-52" transform="translate(737.255859 0.359375)"/>
      <use xlink:href="#DejaVuSans-Oblique-74" transform="translate(807.695312 38.640625) scale(0.7)"/>
      <use xlink:href="#DejaVuSans-Oblique-3c7" transform="translate(807.695312 -26.984375) scale(0.7)"/>
      <use xlink:href="#DejaVuSans-31" transform="translate(849.121094 -38.46875) scale(0.49)"/>
      <use xlink:href="#DejaVuSans-2c" transform="translate(882.210449 -26.984375) scale(0.7)"/>
      <use xlink:href="#DejaVuSans-Oblique-3c7" transform="translate(918.099121 -26.984375) scale(0.7)"/>
      <use xlink:href="#DejaVuSans-32" transform="translate(959.524902 -38.46875) scale(0.49)"/>
     </g>
    </g>
    <g id="patch_8">
     <path d="M 278.4325 54.298437 
L 298.4325 54.298437 
L 298.4325 47.298437 
L 278.4325 47.298437 
z
" style="fill: #134a8e; fill-opacity: 0.5; stroke: #134a8e; stroke-opacity: 0.5; stroke-width: 0.5; stroke-linejoin: miter"/>
    </g>
    <g id="text_18">
     <!-- One Standard Deviation -->
     <g transform="translate(306.4325 54.298437) scale(0.1 -0.1)">
      <defs>
       <path id="DejaVuSans-53" d="M 3425 4513 
L 3425 3897 
Q 3066 4069 2747 4153 
Q 2428 4238 2131 4238 
Q 1616 4238 1336 4038 
Q 1056 3838 1056 3469 
Q 1056 3159 1242 3001 
Q 1428 2844 1947 2747 
L 2328 2669 
Q 3034 2534 3370 2195 
Q 3706 1856 3706 1288 
Q 3706 609 3251 259 
Q 2797 -91 1919 -91 
Q 1588 -91 1214 -16 
Q 841 59 441 206 
L 441 856 
Q 825 641 1194 531 
Q 1563 422 1919 422 
Q 2459 422 2753 634 
Q 3047 847 3047 1241 
Q 3047 1584 2836 1778 
Q 2625 1972 2144 2069 
L 1759 2144 
Q 1053 2284 737 2584 
Q 422 2884 422 3419 
Q 422 4038 858 4394 
Q 1294 4750 2059 4750 
Q 2388 4750 2728 4690 
Q 3069 4631 3425 4513 
z
" transform="scale(0.015625)"/>
       <path id="DejaVuSans-64" d="M 2906 2969 
L 2906 4863 
L 3481 4863 
L 3481 0 
L 2906 0 
L 2906 525 
Q 2725 213 2448 61 
Q 2172 -91 1784 -91 
Q 1150 -91 751 415 
Q 353 922 353 1747 
Q 353 2572 751 3078 
Q 1150 3584 1784 3584 
Q 2172 3584 2448 3432 
Q 2725 3281 2906 2969 
z
M 947 1747 
Q 947 1113 1208 752 
Q 1469 391 1925 391 
Q 2381 391 2643 752 
Q 2906 1113 2906 1747 
Q 2906 2381 2643 2742 
Q 2381 3103 1925 3103 
Q 1469 3103 1208 2742 
Q 947 2381 947 1747 
z
" transform="scale(0.015625)"/>
       <path id="DejaVuSans-6f" d="M 1959 3097 
Q 1497 3097 1228 2736 
Q 959 2375 959 1747 
Q 959 1119 1226 758 
Q 1494 397 1959 397 
Q 2419 397 2687 759 
Q 2956 1122 2956 1747 
Q 2956 2369 2687 2733 
Q 2419 3097 1959 3097 
z
M 1959 3584 
Q 2709 3584 3137 3096 
Q 3566 2609 3566 1747 
Q 3566 888 3137 398 
Q 2709 -91 1959 -91 
Q 1206 -91 779 398 
Q 353 888 353 1747 
Q 353 2609 779 3096 
Q 1206 3584 1959 3584 
z
" transform="scale(0.015625)"/>
      </defs>
      <use xlink:href="#DejaVuSans-4f"/>
      <use xlink:href="#DejaVuSans-6e" x="78.710938"/>
      <use xlink:href="#DejaVuSans-65" x="142.089844"/>
      <use xlink:href="#DejaVuSans-20" x="203.613281"/>
      <use xlink:href="#DejaVuSans-53" x="235.400391"/>
      <use xlink:href="#DejaVuSans-74" x="298.876953"/>
      <use xlink:href="#DejaVuSans-61" x="338.085938"/>
      <use xlink:href="#DejaVuSans-6e" x="399.365234"/>
      <use xlink:href="#DejaVuSans-64" x="462.744141"/>
      <use xlink:href="#DejaVuSans-61" x="526.220703"/>
      <use xlink:href="#DejaVuSans-72" x="587.5"/>
      <use xlink:href="#DejaVuSans-64" x="626.863281"/>
      <use xlink:href="#DejaVuSans-20" x="690.339844"/>
      <use xlink:href="#DejaVuSans-44" x="722.126953"/>
      <use xlink:href="#DejaVuSans-65" x="799.128906"/>
      <use xlink:href="#DejaVuSans-76" x="860.652344"/>
      <use xlink:href="#DejaVuSans-69" x="919.832031"/>
      <use xlink:href="#DejaVuSans-61" x="947.615234"/>
      <use xlink:href="#DejaVuSans-74" x="1008.894531"/>
      <use xlink:href="#DejaVuSans-69" x="1048.103516"/>
      <use xlink:href="#DejaVuSans-6f" x="1075.886719"/>
      <use xlink:href="#DejaVuSans-6e" x="1137.068359"/>
     </g>
    </g>
   </g>
  </g>
 </g>
 <defs>
  <clipPath id="p5ada65ab0f">
   <rect x="44.879375" y="-0" width="390.6" height="166.32"/>
  </clipPath>
 </defs>
</svg>
