<?xml version="1.0" encoding="utf-8" standalone="no"?>
<!DOCTYPE svg PUBLIC "-//W3C//DTD SVG 1.1//EN"
  "http://www.w3.org/Graphics/SVG/1.1/DTD/svg11.dtd">
<svg xmlns:xlink="http://www.w3.org/1999/xlink" width="444.375067pt" height="198.611875pt" viewBox="0 0 444.375067 198.611875" xmlns="http://www.w3.org/2000/svg" version="1.1">
 <metadata>
  <rdf:RDF xmlns:dc="http://purl.org/dc/elements/1.1/" xmlns:cc="http://creativecommons.org/ns#" xmlns:rdf="http://www.w3.org/1999/02/22-rdf-syntax-ns#">
   <cc:Work>
    <dc:type rdf:resource="http://purl.org/dc/dcmitype/StillImage"/>
    <dc:date>2024-09-18T15:47:49.568926</dc:date>
    <dc:format>image/svg+xml</dc:format>
    <dc:creator>
     <cc:Agent>
      <dc:title>Matplotlib v3.7.5, https://matplotlib.org/</dc:title>
     </cc:Agent>
    </dc:creator>
   </cc:Work>
  </rdf:RDF>
 </metadata>
 <defs>
  <style type="text/css">*{stroke-linejoin: round; stroke-linecap: butt}</style>
 </defs>
 <g id="figure_1">
  <g id="patch_1">
   <path d="M 0 198.611875 
L 444.375067 198.611875 
L 444.375067 0 
L 0 0 
z
" style="fill: #ffffff"/>
  </g>
  <g id="axes_1">
   <g id="patch_2">
    <path d="M 44.879375 166.32 
L 435.479375 166.32 
L 435.479375 0 
L 44.879375 0 
z
" style="fill: #e5e5e5"/>
   </g>
   <g id="matplotlib.axis_1">
    <g id="xtick_1">
     <g id="line2d_1">
      <path d="M 72.41989 166.32 
L 72.41989 0 
" clip-path="url(#pd3cdf2889c)" style="fill: none; stroke: #ffffff; stroke-width: 0.8; stroke-linecap: square"/>
     </g>
     <g id="line2d_2">
      <defs>
       <path id="mddfad0eddb" d="M 0 0 
L 0 3.5 
" style="stroke: #555555; stroke-width: 0.8"/>
      </defs>
      <g>
       <use xlink:href="#mddfad0eddb" x="72.41989" y="166.32" style="fill: #555555; stroke: #555555; stroke-width: 0.8"/>
      </g>
     </g>
     <g id="text_1">
      <!-- 08/16/20 -->
      <g style="fill: #555555" transform="translate(49.96364 180.918438) scale(0.1 -0.1)">
       <defs>
        <path id="DejaVuSans-30" d="M 2034 4250 
Q 1547 4250 1301 3770 
Q 1056 3291 1056 2328 
Q 1056 1369 1301 889 
Q 1547 409 2034 409 
Q 2525 409 2770 889 
Q 3016 1369 3016 2328 
Q 3016 3291 2770 3770 
Q 2525 4250 2034 4250 
z
M 2034 4750 
Q 2819 4750 3233 4129 
Q 3647 3509 3647 2328 
Q 3647 1150 3233 529 
Q 2819 -91 2034 -91 
Q 1250 -91 836 529 
Q 422 1150 422 2328 
Q 422 3509 836 4129 
Q 1250 4750 2034 4750 
z
" transform="scale(0.015625)"/>
        <path id="DejaVuSans-38" d="M 2034 2216 
Q 1584 2216 1326 1975 
Q 1069 1734 1069 1313 
Q 1069 891 1326 650 
Q 1584 409 2034 409 
Q 2484 409 2743 651 
Q 3003 894 3003 1313 
Q 3003 1734 2745 1975 
Q 2488 2216 2034 2216 
z
M 1403 2484 
Q 997 2584 770 2862 
Q 544 3141 544 3541 
Q 544 4100 942 4425 
Q 1341 4750 2034 4750 
Q 2731 4750 3128 4425 
Q 3525 4100 3525 3541 
Q 3525 3141 3298 2862 
Q 3072 2584 2669 2484 
Q 3125 2378 3379 2068 
Q 3634 1759 3634 1313 
Q 3634 634 3220 271 
Q 2806 -91 2034 -91 
Q 1263 -91 848 271 
Q 434 634 434 1313 
Q 434 1759 690 2068 
Q 947 2378 1403 2484 
z
M 1172 3481 
Q 1172 3119 1398 2916 
Q 1625 2713 2034 2713 
Q 2441 2713 2670 2916 
Q 2900 3119 2900 3481 
Q 2900 3844 2670 4047 
Q 2441 4250 2034 4250 
Q 1625 4250 1398 4047 
Q 1172 3844 1172 3481 
z
" transform="scale(0.015625)"/>
        <path id="DejaVuSans-2f" d="M 1625 4666 
L 2156 4666 
L 531 -594 
L 0 -594 
L 1625 4666 
z
" transform="scale(0.015625)"/>
        <path id="DejaVuSans-31" d="M 794 531 
L 1825 531 
L 1825 4091 
L 703 3866 
L 703 4441 
L 1819 4666 
L 2450 4666 
L 2450 531 
L 3481 531 
L 3481 0 
L 794 0 
L 794 531 
z
" transform="scale(0.015625)"/>
        <path id="DejaVuSans-36" d="M 2113 2584 
Q 1688 2584 1439 2293 
Q 1191 2003 1191 1497 
Q 1191 994 1439 701 
Q 1688 409 2113 409 
Q 2538 409 2786 701 
Q 3034 994 3034 1497 
Q 3034 2003 2786 2293 
Q 2538 2584 2113 2584 
z
M 3366 4563 
L 3366 3988 
Q 3128 4100 2886 4159 
Q 2644 4219 2406 4219 
Q 1781 4219 1451 3797 
Q 1122 3375 1075 2522 
Q 1259 2794 1537 2939 
Q 1816 3084 2150 3084 
Q 2853 3084 3261 2657 
Q 3669 2231 3669 1497 
Q 3669 778 3244 343 
Q 2819 -91 2113 -91 
Q 1303 -91 875 529 
Q 447 1150 447 2328 
Q 447 3434 972 4092 
Q 1497 4750 2381 4750 
Q 2619 4750 2861 4703 
Q 3103 4656 3366 4563 
z
" transform="scale(0.015625)"/>
        <path id="DejaVuSans-32" d="M 1228 531 
L 3431 531 
L 3431 0 
L 469 0 
L 469 531 
Q 828 903 1448 1529 
Q 2069 2156 2228 2338 
Q 2531 2678 2651 2914 
Q 2772 3150 2772 3378 
Q 2772 3750 2511 3984 
Q 2250 4219 1831 4219 
Q 1534 4219 1204 4116 
Q 875 4013 500 3803 
L 500 4441 
Q 881 4594 1212 4672 
Q 1544 4750 1819 4750 
Q 2544 4750 2975 4387 
Q 3406 4025 3406 3419 
Q 3406 3131 3298 2873 
Q 3191 2616 2906 2266 
Q 2828 2175 2409 1742 
Q 1991 1309 1228 531 
z
" transform="scale(0.015625)"/>
       </defs>
       <use xlink:href="#DejaVuSans-30"/>
       <use xlink:href="#DejaVuSans-38" x="63.623047"/>
       <use xlink:href="#DejaVuSans-2f" x="127.246094"/>
       <use xlink:href="#DejaVuSans-31" x="160.9375"/>
       <use xlink:href="#DejaVuSans-36" x="224.560547"/>
       <use xlink:href="#DejaVuSans-2f" x="288.183594"/>
       <use xlink:href="#DejaVuSans-32" x="321.875"/>
       <use xlink:href="#DejaVuSans-30" x="385.498047"/>
      </g>
     </g>
    </g>
    <g id="xtick_2">
     <g id="line2d_3">
      <path d="M 142.319676 166.32 
L 142.319676 0 
" clip-path="url(#pd3cdf2889c)" style="fill: none; stroke: #ffffff; stroke-width: 0.8; stroke-linecap: square"/>
     </g>
     <g id="line2d_4">
      <g>
       <use xlink:href="#mddfad0eddb" x="142.319676" y="166.32" style="fill: #555555; stroke: #555555; stroke-width: 0.8"/>
      </g>
     </g>
     <g id="text_2">
      <!-- 10/05/20 -->
      <g style="fill: #555555" transform="translate(119.863426 180.918438) scale(0.1 -0.1)">
       <defs>
        <path id="DejaVuSans-35" d="M 691 4666 
L 3169 4666 
L 3169 4134 
L 1269 4134 
L 1269 2991 
Q 1406 3038 1543 3061 
Q 1681 3084 1819 3084 
Q 2600 3084 3056 2656 
Q 3513 2228 3513 1497 
Q 3513 744 3044 326 
Q 2575 -91 1722 -91 
Q 1428 -91 1123 -41 
Q 819 9 494 109 
L 494 744 
Q 775 591 1075 516 
Q 1375 441 1709 441 
Q 2250 441 2565 725 
Q 2881 1009 2881 1497 
Q 2881 1984 2565 2268 
Q 2250 2553 1709 2553 
Q 1456 2553 1204 2497 
Q 953 2441 691 2322 
L 691 4666 
z
" transform="scale(0.015625)"/>
       </defs>
       <use xlink:href="#DejaVuSans-31"/>
       <use xlink:href="#DejaVuSans-30" x="63.623047"/>
       <use xlink:href="#DejaVuSans-2f" x="127.246094"/>
       <use xlink:href="#DejaVuSans-30" x="160.9375"/>
       <use xlink:href="#DejaVuSans-35" x="224.560547"/>
       <use xlink:href="#DejaVuSans-2f" x="288.183594"/>
       <use xlink:href="#DejaVuSans-32" x="321.875"/>
       <use xlink:href="#DejaVuSans-30" x="385.498047"/>
      </g>
     </g>
    </g>
    <g id="xtick_3">
     <g id="line2d_5">
      <path d="M 212.219461 166.32 
L 212.219461 0 
" clip-path="url(#pd3cdf2889c)" style="fill: none; stroke: #ffffff; stroke-width: 0.8; stroke-linecap: square"/>
     </g>
     <g id="line2d_6">
      <g>
       <use xlink:href="#mddfad0eddb" x="212.219461" y="166.32" style="fill: #555555; stroke: #555555; stroke-width: 0.8"/>
      </g>
     </g>
     <g id="text_3">
      <!-- 11/24/20 -->
      <g style="fill: #555555" transform="translate(189.763211 180.918438) scale(0.1 -0.1)">
       <defs>
        <path id="DejaVuSans-34" d="M 2419 4116 
L 825 1625 
L 2419 1625 
L 2419 4116 
z
M 2253 4666 
L 3047 4666 
L 3047 1625 
L 3713 1625 
L 3713 1100 
L 3047 1100 
L 3047 0 
L 2419 0 
L 2419 1100 
L 313 1100 
L 313 1709 
L 2253 4666 
z
" transform="scale(0.015625)"/>
       </defs>
       <use xlink:href="#DejaVuSans-31"/>
       <use xlink:href="#DejaVuSans-31" x="63.623047"/>
       <use xlink:href="#DejaVuSans-2f" x="127.246094"/>
       <use xlink:href="#DejaVuSans-32" x="160.9375"/>
       <use xlink:href="#DejaVuSans-34" x="224.560547"/>
       <use xlink:href="#DejaVuSans-2f" x="288.183594"/>
       <use xlink:href="#DejaVuSans-32" x="321.875"/>
       <use xlink:href="#DejaVuSans-30" x="385.498047"/>
      </g>
     </g>
    </g>
    <g id="xtick_4">
     <g id="line2d_7">
      <path d="M 282.119246 166.32 
L 282.119246 0 
" clip-path="url(#pd3cdf2889c)" style="fill: none; stroke: #ffffff; stroke-width: 0.8; stroke-linecap: square"/>
     </g>
     <g id="line2d_8">
      <g>
       <use xlink:href="#mddfad0eddb" x="282.119246" y="166.32" style="fill: #555555; stroke: #555555; stroke-width: 0.8"/>
      </g>
     </g>
     <g id="text_4">
      <!-- 01/13/21 -->
      <g style="fill: #555555" transform="translate(259.662996 180.918438) scale(0.1 -0.1)">
       <defs>
        <path id="DejaVuSans-33" d="M 2597 2516 
Q 3050 2419 3304 2112 
Q 3559 1806 3559 1356 
Q 3559 666 3084 287 
Q 2609 -91 1734 -91 
Q 1441 -91 1130 -33 
Q 819 25 488 141 
L 488 750 
Q 750 597 1062 519 
Q 1375 441 1716 441 
Q 2309 441 2620 675 
Q 2931 909 2931 1356 
Q 2931 1769 2642 2001 
Q 2353 2234 1838 2234 
L 1294 2234 
L 1294 2753 
L 1863 2753 
Q 2328 2753 2575 2939 
Q 2822 3125 2822 3475 
Q 2822 3834 2567 4026 
Q 2313 4219 1838 4219 
Q 1578 4219 1281 4162 
Q 984 4106 628 3988 
L 628 4550 
Q 988 4650 1302 4700 
Q 1616 4750 1894 4750 
Q 2613 4750 3031 4423 
Q 3450 4097 3450 3541 
Q 3450 3153 3228 2886 
Q 3006 2619 2597 2516 
z
" transform="scale(0.015625)"/>
       </defs>
       <use xlink:href="#DejaVuSans-30"/>
       <use xlink:href="#DejaVuSans-31" x="63.623047"/>
       <use xlink:href="#DejaVuSans-2f" x="127.246094"/>
       <use xlink:href="#DejaVuSans-31" x="160.9375"/>
       <use xlink:href="#DejaVuSans-33" x="224.560547"/>
       <use xlink:href="#DejaVuSans-2f" x="288.183594"/>
       <use xlink:href="#DejaVuSans-32" x="321.875"/>
       <use xlink:href="#DejaVuSans-31" x="385.498047"/>
      </g>
     </g>
    </g>
    <g id="xtick_5">
     <g id="line2d_9">
      <path d="M 352.019031 166.32 
L 352.019031 0 
" clip-path="url(#pd3cdf2889c)" style="fill: none; stroke: #ffffff; stroke-width: 0.8; stroke-linecap: square"/>
     </g>
     <g id="line2d_10">
      <g>
       <use xlink:href="#mddfad0eddb" x="352.019031" y="166.32" style="fill: #555555; stroke: #555555; stroke-width: 0.8"/>
      </g>
     </g>
     <g id="text_5">
      <!-- 03/04/21 -->
      <g style="fill: #555555" transform="translate(329.562781 180.918438) scale(0.1 -0.1)">
       <use xlink:href="#DejaVuSans-30"/>
       <use xlink:href="#DejaVuSans-33" x="63.623047"/>
       <use xlink:href="#DejaVuSans-2f" x="127.246094"/>
       <use xlink:href="#DejaVuSans-30" x="160.9375"/>
       <use xlink:href="#DejaVuSans-34" x="224.560547"/>
       <use xlink:href="#DejaVuSans-2f" x="288.183594"/>
       <use xlink:href="#DejaVuSans-32" x="321.875"/>
       <use xlink:href="#DejaVuSans-31" x="385.498047"/>
      </g>
     </g>
    </g>
    <g id="xtick_6">
     <g id="line2d_11">
      <path d="M 421.918817 166.32 
L 421.918817 0 
" clip-path="url(#pd3cdf2889c)" style="fill: none; stroke: #ffffff; stroke-width: 0.8; stroke-linecap: square"/>
     </g>
     <g id="line2d_12">
      <g>
       <use xlink:href="#mddfad0eddb" x="421.918817" y="166.32" style="fill: #555555; stroke: #555555; stroke-width: 0.8"/>
      </g>
     </g>
     <g id="text_6">
      <!-- 04/23/21 -->
      <g style="fill: #555555" transform="translate(399.462567 180.918438) scale(0.1 -0.1)">
       <use xlink:href="#DejaVuSans-30"/>
       <use xlink:href="#DejaVuSans-34" x="63.623047"/>
       <use xlink:href="#DejaVuSans-2f" x="127.246094"/>
       <use xlink:href="#DejaVuSans-32" x="160.9375"/>
       <use xlink:href="#DejaVuSans-33" x="224.560547"/>
       <use xlink:href="#DejaVuSans-2f" x="288.183594"/>
       <use xlink:href="#DejaVuSans-32" x="321.875"/>
       <use xlink:href="#DejaVuSans-31" x="385.498047"/>
      </g>
     </g>
    </g>
    <g id="text_7">
     <!-- Date -->
     <g style="fill: #555555" transform="translate(225.838438 196.11625) scale(0.12 -0.12)">
      <defs>
       <path id="DejaVuSans-44" d="M 1259 4147 
L 1259 519 
L 2022 519 
Q 2988 519 3436 956 
Q 3884 1394 3884 2338 
Q 3884 3275 3436 3711 
Q 2988 4147 2022 4147 
L 1259 4147 
z
M 628 4666 
L 1925 4666 
Q 3281 4666 3915 4102 
Q 4550 3538 4550 2338 
Q 4550 1131 3912 565 
Q 3275 0 1925 0 
L 628 0 
L 628 4666 
z
" transform="scale(0.015625)"/>
       <path id="DejaVuSans-61" d="M 2194 1759 
Q 1497 1759 1228 1600 
Q 959 1441 959 1056 
Q 959 750 1161 570 
Q 1363 391 1709 391 
Q 2188 391 2477 730 
Q 2766 1069 2766 1631 
L 2766 1759 
L 2194 1759 
z
M 3341 1997 
L 3341 0 
L 2766 0 
L 2766 531 
Q 2569 213 2275 61 
Q 1981 -91 1556 -91 
Q 1019 -91 701 211 
Q 384 513 384 1019 
Q 384 1609 779 1909 
Q 1175 2209 1959 2209 
L 2766 2209 
L 2766 2266 
Q 2766 2663 2505 2880 
Q 2244 3097 1772 3097 
Q 1472 3097 1187 3025 
Q 903 2953 641 2809 
L 641 3341 
Q 956 3463 1253 3523 
Q 1550 3584 1831 3584 
Q 2591 3584 2966 3190 
Q 3341 2797 3341 1997 
z
" transform="scale(0.015625)"/>
       <path id="DejaVuSans-74" d="M 1172 4494 
L 1172 3500 
L 2356 3500 
L 2356 3053 
L 1172 3053 
L 1172 1153 
Q 1172 725 1289 603 
Q 1406 481 1766 481 
L 2356 481 
L 2356 0 
L 1766 0 
Q 1100 0 847 248 
Q 594 497 594 1153 
L 594 3053 
L 172 3053 
L 172 3500 
L 594 3500 
L 594 4494 
L 1172 4494 
z
" transform="scale(0.015625)"/>
       <path id="DejaVuSans-65" d="M 3597 1894 
L 3597 1613 
L 953 1613 
Q 991 1019 1311 708 
Q 1631 397 2203 397 
Q 2534 397 2845 478 
Q 3156 559 3463 722 
L 3463 178 
Q 3153 47 2828 -22 
Q 2503 -91 2169 -91 
Q 1331 -91 842 396 
Q 353 884 353 1716 
Q 353 2575 817 3079 
Q 1281 3584 2069 3584 
Q 2775 3584 3186 3129 
Q 3597 2675 3597 1894 
z
M 3022 2063 
Q 3016 2534 2758 2815 
Q 2500 3097 2075 3097 
Q 1594 3097 1305 2825 
Q 1016 2553 972 2059 
L 3022 2063 
z
" transform="scale(0.015625)"/>
      </defs>
      <use xlink:href="#DejaVuSans-44"/>
      <use xlink:href="#DejaVuSans-61" x="77.001953"/>
      <use xlink:href="#DejaVuSans-74" x="138.28125"/>
      <use xlink:href="#DejaVuSans-65" x="177.490234"/>
     </g>
    </g>
   </g>
   <g id="matplotlib.axis_2">
    <g id="ytick_1">
     <g id="line2d_13">
      <path d="M 44.879375 146.942032 
L 435.479375 146.942032 
" clip-path="url(#pd3cdf2889c)" style="fill: none; stroke: #ffffff; stroke-width: 0.8; stroke-linecap: square"/>
     </g>
     <g id="line2d_14">
      <defs>
       <path id="m792ce5282d" d="M 0 0 
L -3.5 0 
" style="stroke: #555555; stroke-width: 0.8"/>
      </defs>
      <g>
       <use xlink:href="#m792ce5282d" x="44.879375" y="146.942032" style="fill: #555555; stroke: #555555; stroke-width: 0.8"/>
      </g>
     </g>
     <g id="text_8">
      <!-- 0.05 -->
      <g style="fill: #555555" transform="translate(15.61375 150.741251) scale(0.1 -0.1)">
       <defs>
        <path id="DejaVuSans-2e" d="M 684 794 
L 1344 794 
L 1344 0 
L 684 0 
L 684 794 
z
" transform="scale(0.015625)"/>
       </defs>
       <use xlink:href="#DejaVuSans-30"/>
       <use xlink:href="#DejaVuSans-2e" x="63.623047"/>
       <use xlink:href="#DejaVuSans-30" x="95.410156"/>
       <use xlink:href="#DejaVuSans-35" x="159.033203"/>
      </g>
     </g>
    </g>
    <g id="ytick_2">
     <g id="line2d_15">
      <path d="M 44.879375 125.745525 
L 435.479375 125.745525 
" clip-path="url(#pd3cdf2889c)" style="fill: none; stroke: #ffffff; stroke-width: 0.8; stroke-linecap: square"/>
     </g>
     <g id="line2d_16">
      <g>
       <use xlink:href="#m792ce5282d" x="44.879375" y="125.745525" style="fill: #555555; stroke: #555555; stroke-width: 0.8"/>
      </g>
     </g>
     <g id="text_9">
      <!-- 0.10 -->
      <g style="fill: #555555" transform="translate(15.61375 129.544743) scale(0.1 -0.1)">
       <use xlink:href="#DejaVuSans-30"/>
       <use xlink:href="#DejaVuSans-2e" x="63.623047"/>
       <use xlink:href="#DejaVuSans-31" x="95.410156"/>
       <use xlink:href="#DejaVuSans-30" x="159.033203"/>
      </g>
     </g>
    </g>
    <g id="ytick_3">
     <g id="line2d_17">
      <path d="M 44.879375 104.549017 
L 435.479375 104.549017 
" clip-path="url(#pd3cdf2889c)" style="fill: none; stroke: #ffffff; stroke-width: 0.8; stroke-linecap: square"/>
     </g>
     <g id="line2d_18">
      <g>
       <use xlink:href="#m792ce5282d" x="44.879375" y="104.549017" style="fill: #555555; stroke: #555555; stroke-width: 0.8"/>
      </g>
     </g>
     <g id="text_10">
      <!-- 0.15 -->
      <g style="fill: #555555" transform="translate(15.61375 108.348236) scale(0.1 -0.1)">
       <use xlink:href="#DejaVuSans-30"/>
       <use xlink:href="#DejaVuSans-2e" x="63.623047"/>
       <use xlink:href="#DejaVuSans-31" x="95.410156"/>
       <use xlink:href="#DejaVuSans-35" x="159.033203"/>
      </g>
     </g>
    </g>
    <g id="ytick_4">
     <g id="line2d_19">
      <path d="M 44.879375 83.352509 
L 435.479375 83.352509 
" clip-path="url(#pd3cdf2889c)" style="fill: none; stroke: #ffffff; stroke-width: 0.8; stroke-linecap: square"/>
     </g>
     <g id="line2d_20">
      <g>
       <use xlink:href="#m792ce5282d" x="44.879375" y="83.352509" style="fill: #555555; stroke: #555555; stroke-width: 0.8"/>
      </g>
     </g>
     <g id="text_11">
      <!-- 0.20 -->
      <g style="fill: #555555" transform="translate(15.61375 87.151728) scale(0.1 -0.1)">
       <use xlink:href="#DejaVuSans-30"/>
       <use xlink:href="#DejaVuSans-2e" x="63.623047"/>
       <use xlink:href="#DejaVuSans-32" x="95.410156"/>
       <use xlink:href="#DejaVuSans-30" x="159.033203"/>
      </g>
     </g>
    </g>
    <g id="ytick_5">
     <g id="line2d_21">
      <path d="M 44.879375 62.156002 
L 435.479375 62.156002 
" clip-path="url(#pd3cdf2889c)" style="fill: none; stroke: #ffffff; stroke-width: 0.8; stroke-linecap: square"/>
     </g>
     <g id="line2d_22">
      <g>
       <use xlink:href="#m792ce5282d" x="44.879375" y="62.156002" style="fill: #555555; stroke: #555555; stroke-width: 0.8"/>
      </g>
     </g>
     <g id="text_12">
      <!-- 0.25 -->
      <g style="fill: #555555" transform="translate(15.61375 65.955221) scale(0.1 -0.1)">
       <use xlink:href="#DejaVuSans-30"/>
       <use xlink:href="#DejaVuSans-2e" x="63.623047"/>
       <use xlink:href="#DejaVuSans-32" x="95.410156"/>
       <use xlink:href="#DejaVuSans-35" x="159.033203"/>
      </g>
     </g>
    </g>
    <g id="ytick_6">
     <g id="line2d_23">
      <path d="M 44.879375 40.959494 
L 435.479375 40.959494 
" clip-path="url(#pd3cdf2889c)" style="fill: none; stroke: #ffffff; stroke-width: 0.8; stroke-linecap: square"/>
     </g>
     <g id="line2d_24">
      <g>
       <use xlink:href="#m792ce5282d" x="44.879375" y="40.959494" style="fill: #555555; stroke: #555555; stroke-width: 0.8"/>
      </g>
     </g>
     <g id="text_13">
      <!-- 0.30 -->
      <g style="fill: #555555" transform="translate(15.61375 44.758713) scale(0.1 -0.1)">
       <use xlink:href="#DejaVuSans-30"/>
       <use xlink:href="#DejaVuSans-2e" x="63.623047"/>
       <use xlink:href="#DejaVuSans-33" x="95.410156"/>
       <use xlink:href="#DejaVuSans-30" x="159.033203"/>
      </g>
     </g>
    </g>
    <g id="ytick_7">
     <g id="line2d_25">
      <path d="M 44.879375 19.762987 
L 435.479375 19.762987 
" clip-path="url(#pd3cdf2889c)" style="fill: none; stroke: #ffffff; stroke-width: 0.8; stroke-linecap: square"/>
     </g>
     <g id="line2d_26">
      <g>
       <use xlink:href="#m792ce5282d" x="44.879375" y="19.762987" style="fill: #555555; stroke: #555555; stroke-width: 0.8"/>
      </g>
     </g>
     <g id="text_14">
      <!-- 0.35 -->
      <g style="fill: #555555" transform="translate(15.61375 23.562206) scale(0.1 -0.1)">
       <use xlink:href="#DejaVuSans-30"/>
       <use xlink:href="#DejaVuSans-2e" x="63.623047"/>
       <use xlink:href="#DejaVuSans-33" x="95.410156"/>
       <use xlink:href="#DejaVuSans-35" x="159.033203"/>
      </g>
     </g>
    </g>
    <g id="text_15">
     <!-- Value -->
     <g style="fill: #555555" transform="translate(9.118125 99.6375) rotate(-90) scale(0.12 -0.12)">
      <defs>
       <path id="DejaVuSans-56" d="M 1831 0 
L 50 4666 
L 709 4666 
L 2188 738 
L 3669 4666 
L 4325 4666 
L 2547 0 
L 1831 0 
z
" transform="scale(0.015625)"/>
       <path id="DejaVuSans-6c" d="M 603 4863 
L 1178 4863 
L 1178 0 
L 603 0 
L 603 4863 
z
" transform="scale(0.015625)"/>
       <path id="DejaVuSans-75" d="M 544 1381 
L 544 3500 
L 1119 3500 
L 1119 1403 
Q 1119 906 1312 657 
Q 1506 409 1894 409 
Q 2359 409 2629 706 
Q 2900 1003 2900 1516 
L 2900 3500 
L 3475 3500 
L 3475 0 
L 2900 0 
L 2900 538 
Q 2691 219 2414 64 
Q 2138 -91 1772 -91 
Q 1169 -91 856 284 
Q 544 659 544 1381 
z
M 1991 3584 
L 1991 3584 
z
" transform="scale(0.015625)"/>
      </defs>
      <use xlink:href="#DejaVuSans-56"/>
      <use xlink:href="#DejaVuSans-61" x="60.658203"/>
      <use xlink:href="#DejaVuSans-6c" x="121.9375"/>
      <use xlink:href="#DejaVuSans-75" x="149.720703"/>
      <use xlink:href="#DejaVuSans-65" x="213.099609"/>
     </g>
    </g>
   </g>
   <g id="PolyCollection_1">
    <defs>
     <path id="m246b91b44d" d="M 62.63392 -177.619127 
L 62.63392 -191.051875 
L 64.031916 -190.657061 
L 65.429912 -178.456463 
L 66.827908 -182.929169 
L 68.225903 -176.336343 
L 69.623899 -168.676531 
L 71.021895 -165.48712 
L 72.41989 -151.177092 
L 73.817886 -154.856481 
L 75.215882 -158.838531 
L 76.613878 -154.343894 
L 78.011873 -154.598817 
L 79.409869 -156.375325 
L 80.807865 -143.02723 
L 82.20586 -136.024312 
L 83.603856 -125.73173 
L 85.001852 -120.34834 
L 86.399847 -117.977677 
L 87.797843 -116.8973 
L 89.195839 -114.325152 
L 90.593835 -114.834298 
L 91.99183 -105.101921 
L 93.389826 -104.356774 
L 94.787822 -111.580576 
L 96.185817 -110.25842 
L 97.583813 -105.788005 
L 98.981809 -96.34738 
L 100.379804 -99.103286 
L 101.7778 -98.532097 
L 103.175796 -99.573432 
L 104.573792 -98.99846 
L 105.971787 -99.906908 
L 107.369783 -92.047936 
L 108.767779 -88.00899 
L 110.165774 -83.669183 
L 111.56377 -87.87045 
L 112.961766 -83.973831 
L 114.359762 -75.493384 
L 115.757757 -74.18713 
L 117.155753 -73.941436 
L 118.553749 -75.390304 
L 119.951744 -75.170907 
L 121.34974 -75.878969 
L 122.747736 -76.420274 
L 124.145731 -76.86754 
L 125.543727 -77.090023 
L 126.941723 -77.78688 
L 128.339719 -78.213306 
L 129.737714 -78.898902 
L 131.13571 -79.155654 
L 132.533706 -76.713619 
L 133.931701 -79.569805 
L 135.329697 -75.000723 
L 136.727693 -73.05267 
L 138.125689 -72.777435 
L 139.523684 -72.75101 
L 140.92168 -72.270865 
L 142.319676 -70.60553 
L 143.717671 -70.861986 
L 145.115667 -70.745935 
L 146.513663 -70.688472 
L 147.911658 -70.499531 
L 149.309654 -70.135011 
L 150.70765 -72.696517 
L 152.105646 -72.352769 
L 153.503641 -72.205716 
L 154.901637 -70.822267 
L 156.299633 -70.711596 
L 157.697628 -72.152946 
L 159.095624 -71.31702 
L 160.49362 -72.549153 
L 161.891616 -71.269442 
L 163.289611 -70.890205 
L 164.687607 -68.617521 
L 166.085603 -69.250162 
L 167.483598 -70.255453 
L 168.881594 -70.916138 
L 170.27959 -67.176168 
L 171.677585 -67.105767 
L 173.075581 -66.984991 
L 174.473577 -66.684949 
L 175.871573 -65.00774 
L 177.269568 -66.319938 
L 178.667564 -64.339662 
L 180.06556 -64.181756 
L 181.463555 -64.076989 
L 182.861551 -63.338446 
L 184.259547 -62.248561 
L 185.657543 -62.695282 
L 187.055538 -62.353394 
L 188.453534 -62.221143 
L 189.85153 -62.369834 
L 191.249525 -60.466351 
L 192.647521 -54.16606 
L 194.045517 -54.388214 
L 195.443512 -54.005602 
L 196.841508 -53.189961 
L 198.239504 -52.572299 
L 199.6375 -53.983701 
L 201.035495 -50.653278 
L 202.433491 -50.564555 
L 203.831487 -50.866336 
L 205.229482 -51.854355 
L 206.627478 -52.135893 
L 208.025474 -51.648671 
L 209.423469 -51.353404 
L 210.821465 -52.206564 
L 212.219461 -51.828959 
L 213.617457 -53.832563 
L 215.015452 -54.389806 
L 216.413448 -52.6421 
L 217.811444 -51.49103 
L 219.209439 -51.548381 
L 220.607435 -51.503034 
L 222.005431 -52.706508 
L 223.403427 -52.603271 
L 224.801422 -52.614315 
L 226.199418 -52.636783 
L 227.597414 -54.218563 
L 228.995409 -53.913059 
L 230.393405 -53.968391 
L 231.791401 -53.487195 
L 233.189396 -53.848789 
L 234.587392 -53.857407 
L 235.985388 -57.951273 
L 237.383384 -58.317253 
L 238.781379 -57.85515 
L 240.179375 -58.011889 
L 241.577371 -59.100436 
L 242.975366 -57.899222 
L 244.373362 -60.17138 
L 245.771358 -60.560213 
L 247.169354 -60.223229 
L 248.567349 -60.653552 
L 249.965345 -61.641262 
L 251.363341 -61.586157 
L 252.761336 -63.638911 
L 254.159332 -66.930942 
L 255.557328 -66.888725 
L 256.955323 -67.116009 
L 258.353319 -67.023599 
L 259.751315 -67.682335 
L 261.149311 -70.068087 
L 262.547306 -71.54476 
L 263.945302 -81.165283 
L 265.343298 -83.258755 
L 266.741293 -86.860008 
L 268.139289 -87.295293 
L 269.537285 -87.022629 
L 270.935281 -89.383056 
L 272.333276 -88.939632 
L 273.731272 -88.156771 
L 275.129268 -88.211309 
L 276.527263 -91.203013 
L 277.925259 -92.112285 
L 279.323255 -90.4171 
L 280.72125 -90.933657 
L 282.119246 -91.882262 
L 283.517242 -88.52126 
L 284.915238 -88.723725 
L 286.313233 -89.895536 
L 287.711229 -88.821475 
L 289.109225 -89.976926 
L 290.50722 -93.409956 
L 291.905216 -93.817289 
L 293.303212 -94.047049 
L 294.701207 -92.540447 
L 296.099203 -93.628403 
L 297.497199 -92.807764 
L 298.895195 -94.096082 
L 300.29319 -94.127852 
L 301.691186 -94.576318 
L 303.089182 -96.339622 
L 304.487177 -96.175039 
L 305.885173 -98.808067 
L 307.283169 -99.227902 
L 308.681165 -96.889951 
L 310.07916 -96.953924 
L 311.477156 -99.327513 
L 312.875152 -99.001178 
L 314.273147 -100.088844 
L 315.671143 -99.295555 
L 317.069139 -99.689398 
L 318.467134 -99.547154 
L 319.86513 -99.774174 
L 321.263126 -101.229853 
L 322.661122 -102.661009 
L 324.059117 -101.220495 
L 325.457113 -101.5255 
L 326.855109 -101.842963 
L 328.253104 -101.924232 
L 329.6511 -101.414025 
L 331.049096 -101.95878 
L 332.447092 -102.677822 
L 333.845087 -102.919798 
L 335.243083 -103.091839 
L 336.641079 -102.086042 
L 338.039074 -103.886418 
L 339.43707 -101.577069 
L 340.835066 -98.92428 
L 342.233061 -96.206884 
L 343.631057 -96.638574 
L 345.029053 -98.968197 
L 346.427049 -99.778715 
L 347.825044 -97.212489 
L 349.22304 -98.006918 
L 350.621036 -96.051802 
L 352.019031 -96.363244 
L 353.417027 -93.375443 
L 354.815023 -89.738707 
L 356.213019 -89.207651 
L 357.611014 -86.127506 
L 359.00901 -88.163714 
L 360.407006 -84.838504 
L 361.805001 -80.362715 
L 363.202997 -71.269958 
L 364.600993 -70.540096 
L 365.998988 -71.147379 
L 367.396984 -67.920313 
L 368.79498 -67.516322 
L 370.192976 -65.288536 
L 371.590971 -65.003311 
L 372.988967 -62.0908 
L 374.386963 -56.797016 
L 375.784958 -56.847236 
L 377.182954 -54.855656 
L 378.58095 -53.724159 
L 379.978946 -53.654463 
L 381.376941 -51.081986 
L 382.774937 -49.938715 
L 384.172933 -50.150173 
L 385.570928 -49.988725 
L 386.968924 -50.268912 
L 388.36692 -49.692726 
L 389.764915 -46.992916 
L 391.162911 -46.994435 
L 392.560907 -46.938041 
L 393.958903 -47.009046 
L 395.356898 -47.004724 
L 396.754894 -47.046506 
L 398.15289 -46.810889 
L 399.550885 -43.452285 
L 400.948881 -43.434097 
L 402.346877 -43.43017 
L 403.744872 -43.036414 
L 405.142868 -43.114 
L 406.540864 -43.23891 
L 407.93886 -43.295158 
L 409.336855 -42.873274 
L 410.734851 -43.474179 
L 412.132847 -43.159929 
L 413.530842 -43.05547 
L 414.928838 -43.227968 
L 416.326834 -43.141362 
L 417.72483 -43.164809 
L 417.72483 -40.871462 
L 417.72483 -40.871462 
L 416.326834 -41.168828 
L 414.928838 -41.145185 
L 413.530842 -40.630751 
L 412.132847 -40.987503 
L 410.734851 -41.181422 
L 409.336855 -40.733617 
L 407.93886 -40.992578 
L 406.540864 -41.218608 
L 405.142868 -40.820235 
L 403.744872 -40.711298 
L 402.346877 -41.471814 
L 400.948881 -41.456148 
L 399.550885 -41.315231 
L 398.15289 -44.044043 
L 396.754894 -43.931113 
L 395.356898 -44.385592 
L 393.958903 -44.206863 
L 392.560907 -44.496655 
L 391.162911 -44.319973 
L 389.764915 -44.232807 
L 388.36692 -46.43114 
L 386.968924 -47.06465 
L 385.570928 -46.783757 
L 384.172933 -47.125653 
L 382.774937 -46.755952 
L 381.376941 -48.172088 
L 379.978946 -50.365474 
L 378.58095 -50.591984 
L 377.182954 -51.600194 
L 375.784958 -53.370237 
L 374.386963 -53.429651 
L 372.988967 -57.520654 
L 371.590971 -60.490748 
L 370.192976 -60.992047 
L 368.79498 -62.93923 
L 367.396984 -63.646285 
L 365.998988 -65.585305 
L 364.600993 -66.190361 
L 363.202997 -66.418118 
L 361.805001 -74.834036 
L 360.407006 -78.097973 
L 359.00901 -80.584999 
L 357.611014 -79.844831 
L 356.213019 -82.043481 
L 354.815023 -82.939503 
L 353.417027 -87.034568 
L 352.019031 -88.898814 
L 350.621036 -89.220627 
L 349.22304 -89.851548 
L 347.825044 -89.823728 
L 346.427049 -90.9638 
L 345.029053 -91.680603 
L 343.631057 -89.289293 
L 342.233061 -88.912511 
L 340.835066 -90.953965 
L 339.43707 -92.989225 
L 338.039074 -96.041705 
L 336.641079 -94.597959 
L 335.243083 -95.007759 
L 333.845087 -95.47034 
L 332.447092 -94.827683 
L 331.049096 -93.584637 
L 329.6511 -94.034099 
L 328.253104 -93.295822 
L 326.855109 -93.336744 
L 325.457113 -93.679584 
L 324.059117 -93.811467 
L 322.661122 -93.96847 
L 321.263126 -94.534995 
L 319.86513 -92.689411 
L 318.467134 -91.80679 
L 317.069139 -92.450867 
L 315.671143 -92.375805 
L 314.273147 -91.702961 
L 312.875152 -91.962511 
L 311.477156 -91.598433 
L 310.07916 -89.556702 
L 308.681165 -88.975907 
L 307.283169 -91.757403 
L 305.885173 -91.541739 
L 304.487177 -88.726738 
L 303.089182 -89.140923 
L 301.691186 -87.168667 
L 300.29319 -86.562765 
L 298.895195 -86.521793 
L 297.497199 -85.644078 
L 296.099203 -86.114151 
L 294.701207 -86.111237 
L 293.303212 -85.78795 
L 291.905216 -85.604619 
L 290.50722 -85.777064 
L 289.109225 -82.896627 
L 287.711229 -82.035209 
L 286.313233 -82.60692 
L 284.915238 -82.164223 
L 283.517242 -81.332194 
L 282.119246 -84.21835 
L 280.72125 -83.365908 
L 279.323255 -84.001025 
L 277.925259 -84.638169 
L 276.527263 -83.488422 
L 275.129268 -81.429206 
L 273.731272 -81.506282 
L 272.333276 -82.232149 
L 270.935281 -82.113618 
L 269.537285 -80.96407 
L 268.139289 -80.081595 
L 266.741293 -80.021448 
L 265.343298 -77.006136 
L 263.945302 -75.863597 
L 262.547306 -66.984907 
L 261.149311 -65.466848 
L 259.751315 -63.461869 
L 258.353319 -62.447508 
L 256.955323 -62.906153 
L 255.557328 -62.366055 
L 254.159332 -62.734209 
L 252.761336 -59.504897 
L 251.363341 -58.163694 
L 249.965345 -58.415795 
L 248.567349 -56.829099 
L 247.169354 -56.998752 
L 245.771358 -56.837447 
L 244.373362 -56.490192 
L 242.975366 -54.446752 
L 241.577371 -55.473729 
L 240.179375 -54.307901 
L 238.781379 -54.131979 
L 237.383384 -54.573168 
L 235.985388 -54.45431 
L 234.587392 -51.200156 
L 233.189396 -50.176337 
L 231.791401 -50.496332 
L 230.393405 -50.663269 
L 228.995409 -50.848159 
L 227.597414 -50.925933 
L 226.199418 -49.814739 
L 224.801422 -49.244061 
L 223.403427 -49.824713 
L 222.005431 -49.374997 
L 220.607435 -48.669504 
L 219.209439 -48.165646 
L 217.811444 -48.270949 
L 216.413448 -49.503003 
L 215.015452 -51.096379 
L 213.617457 -51.260392 
L 212.219461 -48.807074 
L 210.821465 -49.038078 
L 209.423469 -48.55481 
L 208.025474 -48.549446 
L 206.627478 -49.061235 
L 205.229482 -48.807513 
L 203.831487 -47.401585 
L 202.433491 -47.903579 
L 201.035495 -47.862262 
L 199.6375 -51.012597 
L 198.239504 -49.658135 
L 196.841508 -49.777404 
L 195.443512 -50.516595 
L 194.045517 -51.119982 
L 192.647521 -50.944435 
L 191.249525 -56.78118 
L 189.85153 -58.386377 
L 188.453534 -58.136428 
L 187.055538 -58.312338 
L 185.657543 -58.583763 
L 184.259547 -58.728449 
L 182.861551 -59.648381 
L 181.463555 -60.23971 
L 180.06556 -60.361433 
L 178.667564 -60.344778 
L 177.269568 -61.764214 
L 175.871573 -61.035537 
L 174.473577 -62.860432 
L 173.075581 -62.873964 
L 171.677585 -63.128058 
L 170.27959 -62.881965 
L 168.881594 -66.044186 
L 167.483598 -65.395073 
L 166.085603 -64.377377 
L 164.687607 -64.759792 
L 163.289611 -66.367889 
L 161.891616 -65.883181 
L 160.49362 -67.920283 
L 159.095624 -66.25894 
L 157.697628 -67.409747 
L 156.299633 -66.239202 
L 154.901637 -66.74422 
L 153.503641 -67.891802 
L 152.105646 -66.990466 
L 150.70765 -67.973541 
L 149.309654 -65.524143 
L 147.911658 -66.112187 
L 146.513663 -66.038855 
L 145.115667 -66.49902 
L 143.717671 -66.096238 
L 142.319676 -65.868302 
L 140.92168 -67.054385 
L 139.523684 -67.861812 
L 138.125689 -68.277464 
L 136.727693 -68.873342 
L 135.329697 -70.07407 
L 133.931701 -74.039926 
L 132.533706 -72.012083 
L 131.13571 -73.033873 
L 129.737714 -73.681178 
L 128.339719 -73.249191 
L 126.941723 -72.569357 
L 125.543727 -71.343589 
L 124.145731 -71.574372 
L 122.747736 -71.110435 
L 121.34974 -70.187491 
L 119.951744 -70.040421 
L 118.553749 -70.32523 
L 117.155753 -69.137562 
L 115.757757 -69.481685 
L 114.359762 -70.138832 
L 112.961766 -78.754979 
L 111.56377 -81.620108 
L 110.165774 -78.255335 
L 108.767779 -82.738153 
L 107.369783 -83.335642 
L 105.971787 -92.680042 
L 104.573792 -91.348352 
L 103.175796 -91.115704 
L 101.7778 -90.810326 
L 100.379804 -91.447814 
L 98.981809 -88.356769 
L 97.583813 -97.244072 
L 96.185817 -101.27326 
L 94.787822 -102.390361 
L 93.389826 -96.573306 
L 91.99183 -96.464363 
L 90.593835 -107.209752 
L 89.195839 -105.981198 
L 87.797843 -108.490027 
L 86.399847 -108.30495 
L 85.001852 -111.526709 
L 83.603856 -117.250788 
L 82.20586 -125.907523 
L 80.807865 -132.566683 
L 79.409869 -145.024206 
L 78.011873 -142.08751 
L 76.613878 -143.561716 
L 75.215882 -147.370245 
L 73.817886 -144.856412 
L 72.41989 -141.712202 
L 71.021895 -152.119694 
L 69.623899 -157.037528 
L 68.225903 -162.476005 
L 66.827908 -169.020992 
L 65.429912 -167.458847 
L 64.031916 -176.102199 
L 62.63392 -177.619127 
z
" style="stroke: #134a8e; stroke-opacity: 0.5; stroke-width: 0.5"/>
    </defs>
    <g clip-path="url(#pd3cdf2889c)">
     <use xlink:href="#m246b91b44d" x="0" y="198.611875" style="fill: #134a8e; fill-opacity: 0.5; stroke: #134a8e; stroke-opacity: 0.5; stroke-width: 0.5"/>
    </g>
   </g>
   <g id="line2d_27">
    <path d="M 62.63392 14.276374 
L 64.031916 15.232245 
L 65.429912 25.65422 
L 66.827908 22.636795 
L 69.623899 35.754845 
L 71.021895 39.808468 
L 72.41989 52.167228 
L 75.215882 45.507487 
L 76.613878 49.65907 
L 78.011873 50.268711 
L 79.409869 47.91211 
L 80.807865 60.814919 
L 82.20586 67.645958 
L 83.603856 77.120616 
L 85.001852 82.674351 
L 86.399847 85.470561 
L 87.797843 85.918211 
L 89.195839 88.4587 
L 90.593835 87.58985 
L 91.99183 97.828733 
L 93.389826 98.146835 
L 94.787822 91.626407 
L 96.185817 92.846035 
L 97.583813 97.095836 
L 98.981809 106.2598 
L 100.379804 103.336325 
L 101.7778 103.940664 
L 103.175796 103.267307 
L 104.573792 103.438469 
L 105.971787 102.3184 
L 107.369783 110.920086 
L 108.767779 113.238304 
L 110.165774 117.649616 
L 111.56377 113.866596 
L 112.961766 117.24747 
L 114.359762 125.795767 
L 115.757757 126.777467 
L 117.155753 127.072376 
L 118.553749 125.754108 
L 119.951744 126.006211 
L 121.34974 125.578645 
L 122.747736 124.84652 
L 124.145731 124.390919 
L 125.543727 124.395069 
L 126.941723 123.433757 
L 129.737714 122.321835 
L 131.13571 122.517111 
L 132.533706 124.249024 
L 133.931701 121.807009 
L 135.329697 126.074478 
L 136.727693 127.648869 
L 138.125689 128.084425 
L 139.523684 128.305464 
L 140.92168 128.94925 
L 142.319676 130.374959 
L 145.115667 129.989397 
L 146.513663 130.248212 
L 147.911658 130.306016 
L 149.309654 130.782298 
L 150.70765 128.276846 
L 152.105646 128.940258 
L 153.503641 128.563116 
L 154.901637 129.828631 
L 156.299633 130.136476 
L 157.697628 128.830528 
L 159.095624 129.823895 
L 160.49362 128.377157 
L 161.891616 130.035563 
L 163.289611 129.982828 
L 164.687607 131.923218 
L 166.085603 131.798106 
L 167.483598 130.786612 
L 168.881594 130.131713 
L 170.27959 133.582809 
L 171.677585 133.494963 
L 174.473577 133.839184 
L 175.871573 135.590236 
L 177.269568 134.569799 
L 178.667564 136.269655 
L 181.463555 136.453525 
L 182.861551 137.118461 
L 184.259547 138.12337 
L 185.657543 137.972352 
L 187.055538 138.279009 
L 188.453534 138.433089 
L 189.85153 138.233769 
L 191.249525 139.98811 
L 192.647521 146.056628 
L 194.045517 145.857777 
L 195.443512 146.350776 
L 196.841508 147.128192 
L 198.239504 147.496658 
L 199.6375 146.113726 
L 201.035495 149.354105 
L 203.831487 149.477914 
L 205.229482 148.280941 
L 206.627478 148.013311 
L 208.025474 148.512816 
L 209.423469 148.657768 
L 210.821465 147.989554 
L 212.219461 148.293858 
L 213.617457 146.065398 
L 215.015452 145.868782 
L 216.413448 147.539324 
L 217.811444 148.730885 
L 219.209439 148.754862 
L 220.607435 148.525606 
L 222.005431 147.571123 
L 223.403427 147.397883 
L 224.801422 147.682687 
L 226.199418 147.386114 
L 227.597414 146.039627 
L 228.995409 146.231266 
L 230.393405 146.296045 
L 231.791401 146.620111 
L 233.189396 146.599312 
L 234.587392 146.083094 
L 235.985388 142.409083 
L 237.383384 142.166665 
L 238.781379 142.618311 
L 240.179375 142.45198 
L 241.577371 141.324792 
L 242.975366 142.438888 
L 244.373362 140.281089 
L 245.771358 139.913045 
L 247.169354 140.000885 
L 248.567349 139.87055 
L 249.965345 138.583346 
L 251.363341 138.736949 
L 252.761336 137.039971 
L 254.159332 133.779299 
L 255.557328 133.984485 
L 256.955323 133.600794 
L 258.353319 133.876322 
L 259.751315 133.039773 
L 261.149311 130.844407 
L 262.547306 129.347041 
L 263.945302 120.097435 
L 265.343298 118.47943 
L 266.741293 115.171147 
L 269.537285 114.618525 
L 270.935281 112.863538 
L 272.333276 113.025985 
L 273.731272 113.780348 
L 275.129268 113.791618 
L 276.527263 111.266158 
L 277.925259 110.236648 
L 279.323255 111.402813 
L 280.72125 111.462092 
L 282.119246 110.561569 
L 283.517242 113.685148 
L 284.915238 113.167901 
L 286.313233 112.360647 
L 287.711229 113.183533 
L 289.109225 112.175098 
L 290.50722 109.018365 
L 293.303212 108.694376 
L 294.701207 109.286033 
L 296.099203 108.740598 
L 297.497199 109.385954 
L 298.895195 108.302937 
L 300.29319 108.266566 
L 301.691186 107.739382 
L 303.089182 105.871603 
L 304.487177 106.160986 
L 305.885173 103.436972 
L 307.283169 103.119222 
L 308.681165 105.678946 
L 310.07916 105.356562 
L 311.477156 103.148902 
L 312.875152 103.13003 
L 314.273147 102.715972 
L 315.671143 102.776195 
L 317.069139 102.541743 
L 318.467134 102.934903 
L 319.86513 102.380082 
L 321.263126 100.729451 
L 322.661122 100.297135 
L 324.059117 101.095894 
L 326.855109 101.022022 
L 329.6511 100.887813 
L 331.049096 100.840166 
L 332.447092 99.859122 
L 333.845087 99.416806 
L 335.243083 99.562076 
L 336.641079 100.269875 
L 338.039074 98.647813 
L 339.43707 101.328728 
L 342.233061 106.052177 
L 343.631057 105.647942 
L 345.029053 103.287475 
L 346.427049 103.240618 
L 347.825044 105.093767 
L 349.22304 104.682642 
L 350.621036 105.975661 
L 352.019031 105.980846 
L 353.417027 108.406869 
L 354.815023 112.27277 
L 356.213019 112.986309 
L 357.611014 115.625707 
L 359.00901 114.237519 
L 360.407006 117.143637 
L 361.805001 121.013499 
L 363.202997 129.767837 
L 364.600993 130.246647 
L 365.998988 130.245533 
L 367.396984 132.828576 
L 368.79498 133.384099 
L 370.192976 135.471584 
L 371.590971 135.864845 
L 372.988967 138.806148 
L 374.386963 143.498542 
L 375.784958 143.503139 
L 377.182954 145.38395 
L 378.58095 146.453804 
L 379.978946 146.601906 
L 381.376941 148.984838 
L 382.774937 150.264541 
L 384.172933 149.973962 
L 385.570928 150.225634 
L 386.968924 149.945094 
L 388.36692 150.549942 
L 389.764915 152.999013 
L 392.560907 152.894527 
L 393.958903 153.003921 
L 395.356898 152.916717 
L 396.754894 153.123066 
L 398.15289 153.184409 
L 399.550885 156.228117 
L 402.346877 156.160883 
L 403.744872 156.738019 
L 405.142868 156.644757 
L 406.540864 156.383116 
L 407.93886 156.468007 
L 409.336855 156.80843 
L 410.734851 156.284075 
L 413.530842 156.768765 
L 414.928838 156.425299 
L 417.72483 156.59374 
L 417.72483 156.59374 
" clip-path="url(#pd3cdf2889c)" style="fill: none; stroke: #134a8e; stroke-width: 3; stroke-linecap: square"/>
    <defs>
     <path id="m25c6e6045b" d="M 0 1.5 
C 0.397805 1.5 0.77937 1.341951 1.06066 1.06066 
C 1.341951 0.77937 1.5 0.397805 1.5 0 
C 1.5 -0.397805 1.341951 -0.77937 1.06066 -1.06066 
C 0.77937 -1.341951 0.397805 -1.5 0 -1.5 
C -0.397805 -1.5 -0.77937 -1.341951 -1.06066 -1.06066 
C -1.341951 -0.77937 -1.5 -0.397805 -1.5 0 
C -1.5 0.397805 -1.341951 0.77937 -1.06066 1.06066 
C -0.77937 1.341951 -0.397805 1.5 0 1.5 
z
" style="stroke: #134a8e"/>
    </defs>
    <g clip-path="url(#pd3cdf2889c)">
     <use xlink:href="#m25c6e6045b" x="62.63392" y="14.276374" style="fill: #134a8e; stroke: #134a8e"/>
     <use xlink:href="#m25c6e6045b" x="64.031916" y="15.232245" style="fill: #134a8e; stroke: #134a8e"/>
     <use xlink:href="#m25c6e6045b" x="65.429912" y="25.65422" style="fill: #134a8e; stroke: #134a8e"/>
     <use xlink:href="#m25c6e6045b" x="66.827908" y="22.636795" style="fill: #134a8e; stroke: #134a8e"/>
     <use xlink:href="#m25c6e6045b" x="68.225903" y="29.205701" style="fill: #134a8e; stroke: #134a8e"/>
     <use xlink:href="#m25c6e6045b" x="69.623899" y="35.754845" style="fill: #134a8e; stroke: #134a8e"/>
     <use xlink:href="#m25c6e6045b" x="71.021895" y="39.808468" style="fill: #134a8e; stroke: #134a8e"/>
     <use xlink:href="#m25c6e6045b" x="72.41989" y="52.167228" style="fill: #134a8e; stroke: #134a8e"/>
     <use xlink:href="#m25c6e6045b" x="73.817886" y="48.755429" style="fill: #134a8e; stroke: #134a8e"/>
     <use xlink:href="#m25c6e6045b" x="75.215882" y="45.507487" style="fill: #134a8e; stroke: #134a8e"/>
     <use xlink:href="#m25c6e6045b" x="76.613878" y="49.65907" style="fill: #134a8e; stroke: #134a8e"/>
     <use xlink:href="#m25c6e6045b" x="78.011873" y="50.268711" style="fill: #134a8e; stroke: #134a8e"/>
     <use xlink:href="#m25c6e6045b" x="79.409869" y="47.91211" style="fill: #134a8e; stroke: #134a8e"/>
     <use xlink:href="#m25c6e6045b" x="80.807865" y="60.814919" style="fill: #134a8e; stroke: #134a8e"/>
     <use xlink:href="#m25c6e6045b" x="82.20586" y="67.645958" style="fill: #134a8e; stroke: #134a8e"/>
     <use xlink:href="#m25c6e6045b" x="83.603856" y="77.120616" style="fill: #134a8e; stroke: #134a8e"/>
     <use xlink:href="#m25c6e6045b" x="85.001852" y="82.674351" style="fill: #134a8e; stroke: #134a8e"/>
     <use xlink:href="#m25c6e6045b" x="86.399847" y="85.470561" style="fill: #134a8e; stroke: #134a8e"/>
     <use xlink:href="#m25c6e6045b" x="87.797843" y="85.918211" style="fill: #134a8e; stroke: #134a8e"/>
     <use xlink:href="#m25c6e6045b" x="89.195839" y="88.4587" style="fill: #134a8e; stroke: #134a8e"/>
     <use xlink:href="#m25c6e6045b" x="90.593835" y="87.58985" style="fill: #134a8e; stroke: #134a8e"/>
     <use xlink:href="#m25c6e6045b" x="91.99183" y="97.828733" style="fill: #134a8e; stroke: #134a8e"/>
     <use xlink:href="#m25c6e6045b" x="93.389826" y="98.146835" style="fill: #134a8e; stroke: #134a8e"/>
     <use xlink:href="#m25c6e6045b" x="94.787822" y="91.626407" style="fill: #134a8e; stroke: #134a8e"/>
     <use xlink:href="#m25c6e6045b" x="96.185817" y="92.846035" style="fill: #134a8e; stroke: #134a8e"/>
     <use xlink:href="#m25c6e6045b" x="97.583813" y="97.095836" style="fill: #134a8e; stroke: #134a8e"/>
     <use xlink:href="#m25c6e6045b" x="98.981809" y="106.2598" style="fill: #134a8e; stroke: #134a8e"/>
     <use xlink:href="#m25c6e6045b" x="100.379804" y="103.336325" style="fill: #134a8e; stroke: #134a8e"/>
     <use xlink:href="#m25c6e6045b" x="101.7778" y="103.940664" style="fill: #134a8e; stroke: #134a8e"/>
     <use xlink:href="#m25c6e6045b" x="103.175796" y="103.267307" style="fill: #134a8e; stroke: #134a8e"/>
     <use xlink:href="#m25c6e6045b" x="104.573792" y="103.438469" style="fill: #134a8e; stroke: #134a8e"/>
     <use xlink:href="#m25c6e6045b" x="105.971787" y="102.3184" style="fill: #134a8e; stroke: #134a8e"/>
     <use xlink:href="#m25c6e6045b" x="107.369783" y="110.920086" style="fill: #134a8e; stroke: #134a8e"/>
     <use xlink:href="#m25c6e6045b" x="108.767779" y="113.238304" style="fill: #134a8e; stroke: #134a8e"/>
     <use xlink:href="#m25c6e6045b" x="110.165774" y="117.649616" style="fill: #134a8e; stroke: #134a8e"/>
     <use xlink:href="#m25c6e6045b" x="111.56377" y="113.866596" style="fill: #134a8e; stroke: #134a8e"/>
     <use xlink:href="#m25c6e6045b" x="112.961766" y="117.24747" style="fill: #134a8e; stroke: #134a8e"/>
     <use xlink:href="#m25c6e6045b" x="114.359762" y="125.795767" style="fill: #134a8e; stroke: #134a8e"/>
     <use xlink:href="#m25c6e6045b" x="115.757757" y="126.777467" style="fill: #134a8e; stroke: #134a8e"/>
     <use xlink:href="#m25c6e6045b" x="117.155753" y="127.072376" style="fill: #134a8e; stroke: #134a8e"/>
     <use xlink:href="#m25c6e6045b" x="118.553749" y="125.754108" style="fill: #134a8e; stroke: #134a8e"/>
     <use xlink:href="#m25c6e6045b" x="119.951744" y="126.006211" style="fill: #134a8e; stroke: #134a8e"/>
     <use xlink:href="#m25c6e6045b" x="121.34974" y="125.578645" style="fill: #134a8e; stroke: #134a8e"/>
     <use xlink:href="#m25c6e6045b" x="122.747736" y="124.84652" style="fill: #134a8e; stroke: #134a8e"/>
     <use xlink:href="#m25c6e6045b" x="124.145731" y="124.390919" style="fill: #134a8e; stroke: #134a8e"/>
     <use xlink:href="#m25c6e6045b" x="125.543727" y="124.395069" style="fill: #134a8e; stroke: #134a8e"/>
     <use xlink:href="#m25c6e6045b" x="126.941723" y="123.433757" style="fill: #134a8e; stroke: #134a8e"/>
     <use xlink:href="#m25c6e6045b" x="128.339719" y="122.880627" style="fill: #134a8e; stroke: #134a8e"/>
     <use xlink:href="#m25c6e6045b" x="129.737714" y="122.321835" style="fill: #134a8e; stroke: #134a8e"/>
     <use xlink:href="#m25c6e6045b" x="131.13571" y="122.517111" style="fill: #134a8e; stroke: #134a8e"/>
     <use xlink:href="#m25c6e6045b" x="132.533706" y="124.249024" style="fill: #134a8e; stroke: #134a8e"/>
     <use xlink:href="#m25c6e6045b" x="133.931701" y="121.807009" style="fill: #134a8e; stroke: #134a8e"/>
     <use xlink:href="#m25c6e6045b" x="135.329697" y="126.074478" style="fill: #134a8e; stroke: #134a8e"/>
     <use xlink:href="#m25c6e6045b" x="136.727693" y="127.648869" style="fill: #134a8e; stroke: #134a8e"/>
     <use xlink:href="#m25c6e6045b" x="138.125689" y="128.084425" style="fill: #134a8e; stroke: #134a8e"/>
     <use xlink:href="#m25c6e6045b" x="139.523684" y="128.305464" style="fill: #134a8e; stroke: #134a8e"/>
     <use xlink:href="#m25c6e6045b" x="140.92168" y="128.94925" style="fill: #134a8e; stroke: #134a8e"/>
     <use xlink:href="#m25c6e6045b" x="142.319676" y="130.374959" style="fill: #134a8e; stroke: #134a8e"/>
     <use xlink:href="#m25c6e6045b" x="143.717671" y="130.132763" style="fill: #134a8e; stroke: #134a8e"/>
     <use xlink:href="#m25c6e6045b" x="145.115667" y="129.989397" style="fill: #134a8e; stroke: #134a8e"/>
     <use xlink:href="#m25c6e6045b" x="146.513663" y="130.248212" style="fill: #134a8e; stroke: #134a8e"/>
     <use xlink:href="#m25c6e6045b" x="147.911658" y="130.306016" style="fill: #134a8e; stroke: #134a8e"/>
     <use xlink:href="#m25c6e6045b" x="149.309654" y="130.782298" style="fill: #134a8e; stroke: #134a8e"/>
     <use xlink:href="#m25c6e6045b" x="150.70765" y="128.276846" style="fill: #134a8e; stroke: #134a8e"/>
     <use xlink:href="#m25c6e6045b" x="152.105646" y="128.940258" style="fill: #134a8e; stroke: #134a8e"/>
     <use xlink:href="#m25c6e6045b" x="153.503641" y="128.563116" style="fill: #134a8e; stroke: #134a8e"/>
     <use xlink:href="#m25c6e6045b" x="154.901637" y="129.828631" style="fill: #134a8e; stroke: #134a8e"/>
     <use xlink:href="#m25c6e6045b" x="156.299633" y="130.136476" style="fill: #134a8e; stroke: #134a8e"/>
     <use xlink:href="#m25c6e6045b" x="157.697628" y="128.830528" style="fill: #134a8e; stroke: #134a8e"/>
     <use xlink:href="#m25c6e6045b" x="159.095624" y="129.823895" style="fill: #134a8e; stroke: #134a8e"/>
     <use xlink:href="#m25c6e6045b" x="160.49362" y="128.377157" style="fill: #134a8e; stroke: #134a8e"/>
     <use xlink:href="#m25c6e6045b" x="161.891616" y="130.035563" style="fill: #134a8e; stroke: #134a8e"/>
     <use xlink:href="#m25c6e6045b" x="163.289611" y="129.982828" style="fill: #134a8e; stroke: #134a8e"/>
     <use xlink:href="#m25c6e6045b" x="164.687607" y="131.923218" style="fill: #134a8e; stroke: #134a8e"/>
     <use xlink:href="#m25c6e6045b" x="166.085603" y="131.798106" style="fill: #134a8e; stroke: #134a8e"/>
     <use xlink:href="#m25c6e6045b" x="167.483598" y="130.786612" style="fill: #134a8e; stroke: #134a8e"/>
     <use xlink:href="#m25c6e6045b" x="168.881594" y="130.131713" style="fill: #134a8e; stroke: #134a8e"/>
     <use xlink:href="#m25c6e6045b" x="170.27959" y="133.582809" style="fill: #134a8e; stroke: #134a8e"/>
     <use xlink:href="#m25c6e6045b" x="171.677585" y="133.494963" style="fill: #134a8e; stroke: #134a8e"/>
     <use xlink:href="#m25c6e6045b" x="173.075581" y="133.682398" style="fill: #134a8e; stroke: #134a8e"/>
     <use xlink:href="#m25c6e6045b" x="174.473577" y="133.839184" style="fill: #134a8e; stroke: #134a8e"/>
     <use xlink:href="#m25c6e6045b" x="175.871573" y="135.590236" style="fill: #134a8e; stroke: #134a8e"/>
     <use xlink:href="#m25c6e6045b" x="177.269568" y="134.569799" style="fill: #134a8e; stroke: #134a8e"/>
     <use xlink:href="#m25c6e6045b" x="178.667564" y="136.269655" style="fill: #134a8e; stroke: #134a8e"/>
     <use xlink:href="#m25c6e6045b" x="180.06556" y="136.340281" style="fill: #134a8e; stroke: #134a8e"/>
     <use xlink:href="#m25c6e6045b" x="181.463555" y="136.453525" style="fill: #134a8e; stroke: #134a8e"/>
     <use xlink:href="#m25c6e6045b" x="182.861551" y="137.118461" style="fill: #134a8e; stroke: #134a8e"/>
     <use xlink:href="#m25c6e6045b" x="184.259547" y="138.12337" style="fill: #134a8e; stroke: #134a8e"/>
     <use xlink:href="#m25c6e6045b" x="185.657543" y="137.972352" style="fill: #134a8e; stroke: #134a8e"/>
     <use xlink:href="#m25c6e6045b" x="187.055538" y="138.279009" style="fill: #134a8e; stroke: #134a8e"/>
     <use xlink:href="#m25c6e6045b" x="188.453534" y="138.433089" style="fill: #134a8e; stroke: #134a8e"/>
     <use xlink:href="#m25c6e6045b" x="189.85153" y="138.233769" style="fill: #134a8e; stroke: #134a8e"/>
     <use xlink:href="#m25c6e6045b" x="191.249525" y="139.98811" style="fill: #134a8e; stroke: #134a8e"/>
     <use xlink:href="#m25c6e6045b" x="192.647521" y="146.056628" style="fill: #134a8e; stroke: #134a8e"/>
     <use xlink:href="#m25c6e6045b" x="194.045517" y="145.857777" style="fill: #134a8e; stroke: #134a8e"/>
     <use xlink:href="#m25c6e6045b" x="195.443512" y="146.350776" style="fill: #134a8e; stroke: #134a8e"/>
     <use xlink:href="#m25c6e6045b" x="196.841508" y="147.128192" style="fill: #134a8e; stroke: #134a8e"/>
     <use xlink:href="#m25c6e6045b" x="198.239504" y="147.496658" style="fill: #134a8e; stroke: #134a8e"/>
     <use xlink:href="#m25c6e6045b" x="199.6375" y="146.113726" style="fill: #134a8e; stroke: #134a8e"/>
     <use xlink:href="#m25c6e6045b" x="201.035495" y="149.354105" style="fill: #134a8e; stroke: #134a8e"/>
     <use xlink:href="#m25c6e6045b" x="202.433491" y="149.377808" style="fill: #134a8e; stroke: #134a8e"/>
     <use xlink:href="#m25c6e6045b" x="203.831487" y="149.477914" style="fill: #134a8e; stroke: #134a8e"/>
     <use xlink:href="#m25c6e6045b" x="205.229482" y="148.280941" style="fill: #134a8e; stroke: #134a8e"/>
     <use xlink:href="#m25c6e6045b" x="206.627478" y="148.013311" style="fill: #134a8e; stroke: #134a8e"/>
     <use xlink:href="#m25c6e6045b" x="208.025474" y="148.512816" style="fill: #134a8e; stroke: #134a8e"/>
     <use xlink:href="#m25c6e6045b" x="209.423469" y="148.657768" style="fill: #134a8e; stroke: #134a8e"/>
     <use xlink:href="#m25c6e6045b" x="210.821465" y="147.989554" style="fill: #134a8e; stroke: #134a8e"/>
     <use xlink:href="#m25c6e6045b" x="212.219461" y="148.293858" style="fill: #134a8e; stroke: #134a8e"/>
     <use xlink:href="#m25c6e6045b" x="213.617457" y="146.065398" style="fill: #134a8e; stroke: #134a8e"/>
     <use xlink:href="#m25c6e6045b" x="215.015452" y="145.868782" style="fill: #134a8e; stroke: #134a8e"/>
     <use xlink:href="#m25c6e6045b" x="216.413448" y="147.539324" style="fill: #134a8e; stroke: #134a8e"/>
     <use xlink:href="#m25c6e6045b" x="217.811444" y="148.730885" style="fill: #134a8e; stroke: #134a8e"/>
     <use xlink:href="#m25c6e6045b" x="219.209439" y="148.754862" style="fill: #134a8e; stroke: #134a8e"/>
     <use xlink:href="#m25c6e6045b" x="220.607435" y="148.525606" style="fill: #134a8e; stroke: #134a8e"/>
     <use xlink:href="#m25c6e6045b" x="222.005431" y="147.571123" style="fill: #134a8e; stroke: #134a8e"/>
     <use xlink:href="#m25c6e6045b" x="223.403427" y="147.397883" style="fill: #134a8e; stroke: #134a8e"/>
     <use xlink:href="#m25c6e6045b" x="224.801422" y="147.682687" style="fill: #134a8e; stroke: #134a8e"/>
     <use xlink:href="#m25c6e6045b" x="226.199418" y="147.386114" style="fill: #134a8e; stroke: #134a8e"/>
     <use xlink:href="#m25c6e6045b" x="227.597414" y="146.039627" style="fill: #134a8e; stroke: #134a8e"/>
     <use xlink:href="#m25c6e6045b" x="228.995409" y="146.231266" style="fill: #134a8e; stroke: #134a8e"/>
     <use xlink:href="#m25c6e6045b" x="230.393405" y="146.296045" style="fill: #134a8e; stroke: #134a8e"/>
     <use xlink:href="#m25c6e6045b" x="231.791401" y="146.620111" style="fill: #134a8e; stroke: #134a8e"/>
     <use xlink:href="#m25c6e6045b" x="233.189396" y="146.599312" style="fill: #134a8e; stroke: #134a8e"/>
     <use xlink:href="#m25c6e6045b" x="234.587392" y="146.083094" style="fill: #134a8e; stroke: #134a8e"/>
     <use xlink:href="#m25c6e6045b" x="235.985388" y="142.409083" style="fill: #134a8e; stroke: #134a8e"/>
     <use xlink:href="#m25c6e6045b" x="237.383384" y="142.166665" style="fill: #134a8e; stroke: #134a8e"/>
     <use xlink:href="#m25c6e6045b" x="238.781379" y="142.618311" style="fill: #134a8e; stroke: #134a8e"/>
     <use xlink:href="#m25c6e6045b" x="240.179375" y="142.45198" style="fill: #134a8e; stroke: #134a8e"/>
     <use xlink:href="#m25c6e6045b" x="241.577371" y="141.324792" style="fill: #134a8e; stroke: #134a8e"/>
     <use xlink:href="#m25c6e6045b" x="242.975366" y="142.438888" style="fill: #134a8e; stroke: #134a8e"/>
     <use xlink:href="#m25c6e6045b" x="244.373362" y="140.281089" style="fill: #134a8e; stroke: #134a8e"/>
     <use xlink:href="#m25c6e6045b" x="245.771358" y="139.913045" style="fill: #134a8e; stroke: #134a8e"/>
     <use xlink:href="#m25c6e6045b" x="247.169354" y="140.000885" style="fill: #134a8e; stroke: #134a8e"/>
     <use xlink:href="#m25c6e6045b" x="248.567349" y="139.87055" style="fill: #134a8e; stroke: #134a8e"/>
     <use xlink:href="#m25c6e6045b" x="249.965345" y="138.583346" style="fill: #134a8e; stroke: #134a8e"/>
     <use xlink:href="#m25c6e6045b" x="251.363341" y="138.736949" style="fill: #134a8e; stroke: #134a8e"/>
     <use xlink:href="#m25c6e6045b" x="252.761336" y="137.039971" style="fill: #134a8e; stroke: #134a8e"/>
     <use xlink:href="#m25c6e6045b" x="254.159332" y="133.779299" style="fill: #134a8e; stroke: #134a8e"/>
     <use xlink:href="#m25c6e6045b" x="255.557328" y="133.984485" style="fill: #134a8e; stroke: #134a8e"/>
     <use xlink:href="#m25c6e6045b" x="256.955323" y="133.600794" style="fill: #134a8e; stroke: #134a8e"/>
     <use xlink:href="#m25c6e6045b" x="258.353319" y="133.876322" style="fill: #134a8e; stroke: #134a8e"/>
     <use xlink:href="#m25c6e6045b" x="259.751315" y="133.039773" style="fill: #134a8e; stroke: #134a8e"/>
     <use xlink:href="#m25c6e6045b" x="261.149311" y="130.844407" style="fill: #134a8e; stroke: #134a8e"/>
     <use xlink:href="#m25c6e6045b" x="262.547306" y="129.347041" style="fill: #134a8e; stroke: #134a8e"/>
     <use xlink:href="#m25c6e6045b" x="263.945302" y="120.097435" style="fill: #134a8e; stroke: #134a8e"/>
     <use xlink:href="#m25c6e6045b" x="265.343298" y="118.47943" style="fill: #134a8e; stroke: #134a8e"/>
     <use xlink:href="#m25c6e6045b" x="266.741293" y="115.171147" style="fill: #134a8e; stroke: #134a8e"/>
     <use xlink:href="#m25c6e6045b" x="268.139289" y="114.923431" style="fill: #134a8e; stroke: #134a8e"/>
     <use xlink:href="#m25c6e6045b" x="269.537285" y="114.618525" style="fill: #134a8e; stroke: #134a8e"/>
     <use xlink:href="#m25c6e6045b" x="270.935281" y="112.863538" style="fill: #134a8e; stroke: #134a8e"/>
     <use xlink:href="#m25c6e6045b" x="272.333276" y="113.025985" style="fill: #134a8e; stroke: #134a8e"/>
     <use xlink:href="#m25c6e6045b" x="273.731272" y="113.780348" style="fill: #134a8e; stroke: #134a8e"/>
     <use xlink:href="#m25c6e6045b" x="275.129268" y="113.791618" style="fill: #134a8e; stroke: #134a8e"/>
     <use xlink:href="#m25c6e6045b" x="276.527263" y="111.266158" style="fill: #134a8e; stroke: #134a8e"/>
     <use xlink:href="#m25c6e6045b" x="277.925259" y="110.236648" style="fill: #134a8e; stroke: #134a8e"/>
     <use xlink:href="#m25c6e6045b" x="279.323255" y="111.402813" style="fill: #134a8e; stroke: #134a8e"/>
     <use xlink:href="#m25c6e6045b" x="280.72125" y="111.462092" style="fill: #134a8e; stroke: #134a8e"/>
     <use xlink:href="#m25c6e6045b" x="282.119246" y="110.561569" style="fill: #134a8e; stroke: #134a8e"/>
     <use xlink:href="#m25c6e6045b" x="283.517242" y="113.685148" style="fill: #134a8e; stroke: #134a8e"/>
     <use xlink:href="#m25c6e6045b" x="284.915238" y="113.167901" style="fill: #134a8e; stroke: #134a8e"/>
     <use xlink:href="#m25c6e6045b" x="286.313233" y="112.360647" style="fill: #134a8e; stroke: #134a8e"/>
     <use xlink:href="#m25c6e6045b" x="287.711229" y="113.183533" style="fill: #134a8e; stroke: #134a8e"/>
     <use xlink:href="#m25c6e6045b" x="289.109225" y="112.175098" style="fill: #134a8e; stroke: #134a8e"/>
     <use xlink:href="#m25c6e6045b" x="290.50722" y="109.018365" style="fill: #134a8e; stroke: #134a8e"/>
     <use xlink:href="#m25c6e6045b" x="291.905216" y="108.900921" style="fill: #134a8e; stroke: #134a8e"/>
     <use xlink:href="#m25c6e6045b" x="293.303212" y="108.694376" style="fill: #134a8e; stroke: #134a8e"/>
     <use xlink:href="#m25c6e6045b" x="294.701207" y="109.286033" style="fill: #134a8e; stroke: #134a8e"/>
     <use xlink:href="#m25c6e6045b" x="296.099203" y="108.740598" style="fill: #134a8e; stroke: #134a8e"/>
     <use xlink:href="#m25c6e6045b" x="297.497199" y="109.385954" style="fill: #134a8e; stroke: #134a8e"/>
     <use xlink:href="#m25c6e6045b" x="298.895195" y="108.302937" style="fill: #134a8e; stroke: #134a8e"/>
     <use xlink:href="#m25c6e6045b" x="300.29319" y="108.266566" style="fill: #134a8e; stroke: #134a8e"/>
     <use xlink:href="#m25c6e6045b" x="301.691186" y="107.739382" style="fill: #134a8e; stroke: #134a8e"/>
     <use xlink:href="#m25c6e6045b" x="303.089182" y="105.871603" style="fill: #134a8e; stroke: #134a8e"/>
     <use xlink:href="#m25c6e6045b" x="304.487177" y="106.160986" style="fill: #134a8e; stroke: #134a8e"/>
     <use xlink:href="#m25c6e6045b" x="305.885173" y="103.436972" style="fill: #134a8e; stroke: #134a8e"/>
     <use xlink:href="#m25c6e6045b" x="307.283169" y="103.119222" style="fill: #134a8e; stroke: #134a8e"/>
     <use xlink:href="#m25c6e6045b" x="308.681165" y="105.678946" style="fill: #134a8e; stroke: #134a8e"/>
     <use xlink:href="#m25c6e6045b" x="310.07916" y="105.356562" style="fill: #134a8e; stroke: #134a8e"/>
     <use xlink:href="#m25c6e6045b" x="311.477156" y="103.148902" style="fill: #134a8e; stroke: #134a8e"/>
     <use xlink:href="#m25c6e6045b" x="312.875152" y="103.13003" style="fill: #134a8e; stroke: #134a8e"/>
     <use xlink:href="#m25c6e6045b" x="314.273147" y="102.715972" style="fill: #134a8e; stroke: #134a8e"/>
     <use xlink:href="#m25c6e6045b" x="315.671143" y="102.776195" style="fill: #134a8e; stroke: #134a8e"/>
     <use xlink:href="#m25c6e6045b" x="317.069139" y="102.541743" style="fill: #134a8e; stroke: #134a8e"/>
     <use xlink:href="#m25c6e6045b" x="318.467134" y="102.934903" style="fill: #134a8e; stroke: #134a8e"/>
     <use xlink:href="#m25c6e6045b" x="319.86513" y="102.380082" style="fill: #134a8e; stroke: #134a8e"/>
     <use xlink:href="#m25c6e6045b" x="321.263126" y="100.729451" style="fill: #134a8e; stroke: #134a8e"/>
     <use xlink:href="#m25c6e6045b" x="322.661122" y="100.297135" style="fill: #134a8e; stroke: #134a8e"/>
     <use xlink:href="#m25c6e6045b" x="324.059117" y="101.095894" style="fill: #134a8e; stroke: #134a8e"/>
     <use xlink:href="#m25c6e6045b" x="325.457113" y="101.009333" style="fill: #134a8e; stroke: #134a8e"/>
     <use xlink:href="#m25c6e6045b" x="326.855109" y="101.022022" style="fill: #134a8e; stroke: #134a8e"/>
     <use xlink:href="#m25c6e6045b" x="328.253104" y="101.001848" style="fill: #134a8e; stroke: #134a8e"/>
     <use xlink:href="#m25c6e6045b" x="329.6511" y="100.887813" style="fill: #134a8e; stroke: #134a8e"/>
     <use xlink:href="#m25c6e6045b" x="331.049096" y="100.840166" style="fill: #134a8e; stroke: #134a8e"/>
     <use xlink:href="#m25c6e6045b" x="332.447092" y="99.859122" style="fill: #134a8e; stroke: #134a8e"/>
     <use xlink:href="#m25c6e6045b" x="333.845087" y="99.416806" style="fill: #134a8e; stroke: #134a8e"/>
     <use xlink:href="#m25c6e6045b" x="335.243083" y="99.562076" style="fill: #134a8e; stroke: #134a8e"/>
     <use xlink:href="#m25c6e6045b" x="336.641079" y="100.269875" style="fill: #134a8e; stroke: #134a8e"/>
     <use xlink:href="#m25c6e6045b" x="338.039074" y="98.647813" style="fill: #134a8e; stroke: #134a8e"/>
     <use xlink:href="#m25c6e6045b" x="339.43707" y="101.328728" style="fill: #134a8e; stroke: #134a8e"/>
     <use xlink:href="#m25c6e6045b" x="340.835066" y="103.672752" style="fill: #134a8e; stroke: #134a8e"/>
     <use xlink:href="#m25c6e6045b" x="342.233061" y="106.052177" style="fill: #134a8e; stroke: #134a8e"/>
     <use xlink:href="#m25c6e6045b" x="343.631057" y="105.647942" style="fill: #134a8e; stroke: #134a8e"/>
     <use xlink:href="#m25c6e6045b" x="345.029053" y="103.287475" style="fill: #134a8e; stroke: #134a8e"/>
     <use xlink:href="#m25c6e6045b" x="346.427049" y="103.240618" style="fill: #134a8e; stroke: #134a8e"/>
     <use xlink:href="#m25c6e6045b" x="347.825044" y="105.093767" style="fill: #134a8e; stroke: #134a8e"/>
     <use xlink:href="#m25c6e6045b" x="349.22304" y="104.682642" style="fill: #134a8e; stroke: #134a8e"/>
     <use xlink:href="#m25c6e6045b" x="350.621036" y="105.975661" style="fill: #134a8e; stroke: #134a8e"/>
     <use xlink:href="#m25c6e6045b" x="352.019031" y="105.980846" style="fill: #134a8e; stroke: #134a8e"/>
     <use xlink:href="#m25c6e6045b" x="353.417027" y="108.406869" style="fill: #134a8e; stroke: #134a8e"/>
     <use xlink:href="#m25c6e6045b" x="354.815023" y="112.27277" style="fill: #134a8e; stroke: #134a8e"/>
     <use xlink:href="#m25c6e6045b" x="356.213019" y="112.986309" style="fill: #134a8e; stroke: #134a8e"/>
     <use xlink:href="#m25c6e6045b" x="357.611014" y="115.625707" style="fill: #134a8e; stroke: #134a8e"/>
     <use xlink:href="#m25c6e6045b" x="359.00901" y="114.237519" style="fill: #134a8e; stroke: #134a8e"/>
     <use xlink:href="#m25c6e6045b" x="360.407006" y="117.143637" style="fill: #134a8e; stroke: #134a8e"/>
     <use xlink:href="#m25c6e6045b" x="361.805001" y="121.013499" style="fill: #134a8e; stroke: #134a8e"/>
     <use xlink:href="#m25c6e6045b" x="363.202997" y="129.767837" style="fill: #134a8e; stroke: #134a8e"/>
     <use xlink:href="#m25c6e6045b" x="364.600993" y="130.246647" style="fill: #134a8e; stroke: #134a8e"/>
     <use xlink:href="#m25c6e6045b" x="365.998988" y="130.245533" style="fill: #134a8e; stroke: #134a8e"/>
     <use xlink:href="#m25c6e6045b" x="367.396984" y="132.828576" style="fill: #134a8e; stroke: #134a8e"/>
     <use xlink:href="#m25c6e6045b" x="368.79498" y="133.384099" style="fill: #134a8e; stroke: #134a8e"/>
     <use xlink:href="#m25c6e6045b" x="370.192976" y="135.471584" style="fill: #134a8e; stroke: #134a8e"/>
     <use xlink:href="#m25c6e6045b" x="371.590971" y="135.864845" style="fill: #134a8e; stroke: #134a8e"/>
     <use xlink:href="#m25c6e6045b" x="372.988967" y="138.806148" style="fill: #134a8e; stroke: #134a8e"/>
     <use xlink:href="#m25c6e6045b" x="374.386963" y="143.498542" style="fill: #134a8e; stroke: #134a8e"/>
     <use xlink:href="#m25c6e6045b" x="375.784958" y="143.503139" style="fill: #134a8e; stroke: #134a8e"/>
     <use xlink:href="#m25c6e6045b" x="377.182954" y="145.38395" style="fill: #134a8e; stroke: #134a8e"/>
     <use xlink:href="#m25c6e6045b" x="378.58095" y="146.453804" style="fill: #134a8e; stroke: #134a8e"/>
     <use xlink:href="#m25c6e6045b" x="379.978946" y="146.601906" style="fill: #134a8e; stroke: #134a8e"/>
     <use xlink:href="#m25c6e6045b" x="381.376941" y="148.984838" style="fill: #134a8e; stroke: #134a8e"/>
     <use xlink:href="#m25c6e6045b" x="382.774937" y="150.264541" style="fill: #134a8e; stroke: #134a8e"/>
     <use xlink:href="#m25c6e6045b" x="384.172933" y="149.973962" style="fill: #134a8e; stroke: #134a8e"/>
     <use xlink:href="#m25c6e6045b" x="385.570928" y="150.225634" style="fill: #134a8e; stroke: #134a8e"/>
     <use xlink:href="#m25c6e6045b" x="386.968924" y="149.945094" style="fill: #134a8e; stroke: #134a8e"/>
     <use xlink:href="#m25c6e6045b" x="388.36692" y="150.549942" style="fill: #134a8e; stroke: #134a8e"/>
     <use xlink:href="#m25c6e6045b" x="389.764915" y="152.999013" style="fill: #134a8e; stroke: #134a8e"/>
     <use xlink:href="#m25c6e6045b" x="391.162911" y="152.954671" style="fill: #134a8e; stroke: #134a8e"/>
     <use xlink:href="#m25c6e6045b" x="392.560907" y="152.894527" style="fill: #134a8e; stroke: #134a8e"/>
     <use xlink:href="#m25c6e6045b" x="393.958903" y="153.003921" style="fill: #134a8e; stroke: #134a8e"/>
     <use xlink:href="#m25c6e6045b" x="395.356898" y="152.916717" style="fill: #134a8e; stroke: #134a8e"/>
     <use xlink:href="#m25c6e6045b" x="396.754894" y="153.123066" style="fill: #134a8e; stroke: #134a8e"/>
     <use xlink:href="#m25c6e6045b" x="398.15289" y="153.184409" style="fill: #134a8e; stroke: #134a8e"/>
     <use xlink:href="#m25c6e6045b" x="399.550885" y="156.228117" style="fill: #134a8e; stroke: #134a8e"/>
     <use xlink:href="#m25c6e6045b" x="400.948881" y="156.166752" style="fill: #134a8e; stroke: #134a8e"/>
     <use xlink:href="#m25c6e6045b" x="402.346877" y="156.160883" style="fill: #134a8e; stroke: #134a8e"/>
     <use xlink:href="#m25c6e6045b" x="403.744872" y="156.738019" style="fill: #134a8e; stroke: #134a8e"/>
     <use xlink:href="#m25c6e6045b" x="405.142868" y="156.644757" style="fill: #134a8e; stroke: #134a8e"/>
     <use xlink:href="#m25c6e6045b" x="406.540864" y="156.383116" style="fill: #134a8e; stroke: #134a8e"/>
     <use xlink:href="#m25c6e6045b" x="407.93886" y="156.468007" style="fill: #134a8e; stroke: #134a8e"/>
     <use xlink:href="#m25c6e6045b" x="409.336855" y="156.80843" style="fill: #134a8e; stroke: #134a8e"/>
     <use xlink:href="#m25c6e6045b" x="410.734851" y="156.284075" style="fill: #134a8e; stroke: #134a8e"/>
     <use xlink:href="#m25c6e6045b" x="412.132847" y="156.538159" style="fill: #134a8e; stroke: #134a8e"/>
     <use xlink:href="#m25c6e6045b" x="413.530842" y="156.768765" style="fill: #134a8e; stroke: #134a8e"/>
     <use xlink:href="#m25c6e6045b" x="414.928838" y="156.425299" style="fill: #134a8e; stroke: #134a8e"/>
     <use xlink:href="#m25c6e6045b" x="416.326834" y="156.45678" style="fill: #134a8e; stroke: #134a8e"/>
     <use xlink:href="#m25c6e6045b" x="417.72483" y="156.59374" style="fill: #134a8e; stroke: #134a8e"/>
    </g>
   </g>
   <g id="line2d_28">
    <path d="M 62.63392 17.957618 
L 64.031916 23.208066 
L 65.429912 27.773835 
L 66.827908 21.995394 
L 68.225903 29.717055 
L 69.623899 38.716542 
L 71.021895 42.423616 
L 72.41989 47.753317 
L 73.817886 49.772322 
L 75.215882 49.832554 
L 76.613878 52.166714 
L 78.011873 54.126071 
L 79.409869 49.322497 
L 80.807865 66.04507 
L 82.20586 71.26127 
L 83.603856 77.607728 
L 85.001852 81.280977 
L 86.399847 89.949231 
L 89.195839 94.699891 
L 90.593835 93.947875 
L 91.99183 100.968332 
L 93.389826 102.119295 
L 94.787822 96.7433 
L 96.185817 99.70259 
L 97.583813 103.707575 
L 98.981809 111.157388 
L 101.7778 105.615278 
L 103.175796 107.781941 
L 104.573792 108.101605 
L 105.971787 109.627628 
L 107.369783 112.559857 
L 108.767779 116.223416 
L 110.165774 120.528714 
L 111.56377 116.392121 
L 112.961766 120.109394 
L 114.359762 127.984882 
L 115.757757 128.076275 
L 117.155753 127.956657 
L 118.553749 126.866312 
L 119.951744 126.010872 
L 121.34974 125.439972 
L 122.747736 126.035523 
L 124.145731 125.918065 
L 125.543727 123.92643 
L 126.941723 123.455367 
L 129.737714 122.883394 
L 131.13571 123.652058 
L 132.533706 125.189273 
L 133.931701 125.800231 
L 135.329697 127.0699 
L 136.727693 127.952486 
L 138.125689 129.54428 
L 139.523684 131.734987 
L 140.92168 132.170084 
L 142.319676 131.720107 
L 143.717671 132.865553 
L 145.115667 132.993758 
L 146.513663 131.490328 
L 147.911658 131.645995 
L 149.309654 136.057261 
L 150.70765 130.432555 
L 152.105646 131.058917 
L 153.503641 130.938629 
L 154.901637 130.993772 
L 156.299633 132.252509 
L 159.095624 131.979127 
L 160.49362 131.643263 
L 161.891616 132.561593 
L 163.289611 132.428512 
L 164.687607 134.337801 
L 166.085603 134.134472 
L 167.483598 134.112682 
L 168.881594 133.261591 
L 170.27959 135.556342 
L 173.075581 136.414824 
L 175.871573 137.813219 
L 177.269568 137.808305 
L 178.667564 139.924805 
L 180.06556 138.797705 
L 181.463555 140.736071 
L 182.861551 141.038229 
L 184.259547 141.125187 
L 185.657543 142.484472 
L 187.055538 142.860485 
L 188.453534 144.340986 
L 189.85153 143.302266 
L 191.249525 145.24447 
L 192.647521 146.91076 
L 195.443512 147.969226 
L 196.841508 148.858179 
L 198.239504 149.30342 
L 199.6375 148.223739 
L 201.035495 149.531527 
L 202.433491 150.193413 
L 203.831487 149.877533 
L 205.229482 149.366116 
L 206.627478 149.445091 
L 208.025474 149.114759 
L 209.423469 149.101224 
L 210.821465 149.513549 
L 212.219461 148.989552 
L 213.617457 148.30093 
L 215.015452 148.054053 
L 216.413448 148.766124 
L 217.811444 148.721646 
L 219.209439 149.303133 
L 220.607435 148.873023 
L 222.005431 148.776947 
L 223.403427 148.95277 
L 226.199418 149.47835 
L 228.995409 148.968932 
L 230.393405 148.407753 
L 233.189396 148.955898 
L 234.587392 148.643329 
L 235.985388 147.333445 
L 237.383384 146.451836 
L 238.781379 146.399309 
L 240.179375 145.818822 
L 241.577371 145.509756 
L 242.975366 145.037311 
L 244.373362 144.358843 
L 245.771358 143.353371 
L 247.169354 142.519688 
L 248.567349 142.981443 
L 249.965345 141.288045 
L 251.363341 139.782509 
L 252.761336 139.034513 
L 254.159332 136.381136 
L 255.557328 135.604737 
L 256.955323 136.584167 
L 258.353319 136.422858 
L 259.751315 133.619347 
L 261.149311 132.245186 
L 262.547306 131.608188 
L 263.945302 127.800333 
L 265.343298 126.565438 
L 266.741293 125.547999 
L 268.139289 124.360067 
L 269.537285 124.423807 
L 270.935281 123.02521 
L 272.333276 122.837105 
L 273.731272 124.472532 
L 275.129268 123.17729 
L 276.527263 118.28658 
L 277.925259 117.080872 
L 279.323255 119.443353 
L 280.72125 118.033696 
L 282.119246 116.344376 
L 283.517242 119.408538 
L 284.915238 118.725035 
L 286.313233 116.926252 
L 287.711229 117.015806 
L 289.109225 115.884771 
L 290.50722 114.580867 
L 291.905216 113.692241 
L 294.701207 113.894046 
L 296.099203 113.495448 
L 297.497199 114.722526 
L 298.895195 111.750464 
L 300.29319 111.81003 
L 301.691186 112.711005 
L 303.089182 111.361617 
L 304.487177 112.254025 
L 305.885173 110.939636 
L 307.283169 111.414916 
L 308.681165 110.85914 
L 310.07916 110.546749 
L 311.477156 108.584341 
L 312.875152 108.826518 
L 314.273147 108.430477 
L 315.671143 108.806957 
L 317.069139 109.776518 
L 318.467134 109.048968 
L 319.86513 107.615383 
L 321.263126 105.258946 
L 322.661122 105.057304 
L 324.059117 104.734347 
L 326.855109 107.19834 
L 328.253104 103.109372 
L 329.6511 104.813655 
L 331.049096 103.032464 
L 332.447092 100.952824 
L 333.845087 102.519723 
L 335.243083 100.944447 
L 336.641079 101.718481 
L 338.039074 101.234874 
L 339.43707 102.00017 
L 340.835066 103.611524 
L 342.233061 104.984221 
L 343.631057 104.005863 
L 345.029053 106.573833 
L 346.427049 106.097697 
L 347.825044 109.940401 
L 349.22304 110.322083 
L 350.621036 112.869174 
L 352.019031 113.502149 
L 353.417027 114.658728 
L 354.815023 118.332435 
L 356.213019 118.608728 
L 357.611014 119.750844 
L 359.00901 120.465293 
L 360.407006 124.121787 
L 361.805001 125.987129 
L 363.202997 129.289475 
L 365.998988 131.582088 
L 367.396984 133.835886 
L 370.192976 139.10045 
L 371.590971 140.439517 
L 372.988967 143.01047 
L 374.386963 143.590631 
L 375.784958 143.728795 
L 377.182954 146.20665 
L 378.58095 147.673057 
L 379.978946 148.512538 
L 381.376941 149.880328 
L 382.774937 150.838927 
L 384.172933 151.535802 
L 385.570928 151.131581 
L 386.968924 152.306068 
L 388.36692 153.123214 
L 391.162911 154.34416 
L 392.560907 154.268698 
L 393.958903 155.1371 
L 395.356898 154.814206 
L 396.754894 155.623668 
L 398.15289 155.911009 
L 399.550885 156.450509 
L 400.948881 156.470938 
L 402.346877 156.687506 
L 405.142868 156.777328 
L 406.540864 157.353075 
L 407.93886 157.24812 
L 410.734851 157.372596 
L 412.132847 157.665349 
L 413.530842 157.362775 
L 414.928838 158.76 
L 416.326834 156.880193 
L 417.72483 156.934697 
L 417.72483 156.934697 
" clip-path="url(#pd3cdf2889c)" style="fill: none; stroke-dasharray: 5.55,2.4; stroke-dashoffset: 0; stroke: #000000; stroke-width: 1.5"/>
   </g>
   <g id="patch_3">
    <path d="M 44.879375 166.32 
L 44.879375 -0 
" style="fill: none; stroke: #ffffff; stroke-linejoin: miter; stroke-linecap: square"/>
   </g>
   <g id="patch_4">
    <path d="M 435.479375 166.32 
L 435.479375 -0 
" style="fill: none; stroke: #ffffff; stroke-linejoin: miter; stroke-linecap: square"/>
   </g>
   <g id="patch_5">
    <path d="M 44.879375 166.32 
L 435.479375 166.32 
" style="fill: none; stroke: #ffffff; stroke-linejoin: miter; stroke-linecap: square"/>
   </g>
   <g id="patch_6">
    <path d="M 44.879375 0 
L 435.479375 0 
" style="fill: none; stroke: #ffffff; stroke-linejoin: miter; stroke-linecap: square"/>
   </g>
   <g id="legend_1">
    <g id="patch_7">
     <path d="M 276.4325 60.378125 
L 428.479375 60.378125 
Q 430.479375 60.378125 430.479375 58.378125 
L 430.479375 7 
Q 430.479375 5 428.479375 5 
L 276.4325 5 
Q 274.4325 5 274.4325 7 
L 274.4325 58.378125 
Q 274.4325 60.378125 276.4325 60.378125 
z
" style="fill: #e5e5e5; opacity: 0.8; stroke: #cccccc; stroke-width: 0.5; stroke-linejoin: miter"/>
    </g>
    <g id="line2d_29">
     <path d="M 278.4325 15.5 
L 288.4325 15.5 
L 298.4325 15.5 
" style="fill: none; stroke: #134a8e; stroke-width: 3; stroke-linecap: square"/>
     <g>
      <use xlink:href="#m25c6e6045b" x="288.4325" y="15.5" style="fill: #134a8e; stroke: #134a8e"/>
     </g>
    </g>
    <g id="text_16">
     <!-- Private Value $\tilde{R}_{\chi_1,\chi_2}^t$ -->
     <g transform="translate(306.4325 19) scale(0.1 -0.1)">
      <defs>
       <path id="DejaVuSans-50" d="M 1259 4147 
L 1259 2394 
L 2053 2394 
Q 2494 2394 2734 2622 
Q 2975 2850 2975 3272 
Q 2975 3691 2734 3919 
Q 2494 4147 2053 4147 
L 1259 4147 
z
M 628 4666 
L 2053 4666 
Q 2838 4666 3239 4311 
Q 3641 3956 3641 3272 
Q 3641 2581 3239 2228 
Q 2838 1875 2053 1875 
L 1259 1875 
L 1259 0 
L 628 0 
L 628 4666 
z
" transform="scale(0.015625)"/>
       <path id="DejaVuSans-72" d="M 2631 2963 
Q 2534 3019 2420 3045 
Q 2306 3072 2169 3072 
Q 1681 3072 1420 2755 
Q 1159 2438 1159 1844 
L 1159 0 
L 581 0 
L 581 3500 
L 1159 3500 
L 1159 2956 
Q 1341 3275 1631 3429 
Q 1922 3584 2338 3584 
Q 2397 3584 2469 3576 
Q 2541 3569 2628 3553 
L 2631 2963 
z
" transform="scale(0.015625)"/>
       <path id="DejaVuSans-69" d="M 603 3500 
L 1178 3500 
L 1178 0 
L 603 0 
L 603 3500 
z
M 603 4863 
L 1178 4863 
L 1178 4134 
L 603 4134 
L 603 4863 
z
" transform="scale(0.015625)"/>
       <path id="DejaVuSans-76" d="M 191 3500 
L 800 3500 
L 1894 563 
L 2988 3500 
L 3597 3500 
L 2284 0 
L 1503 0 
L 191 3500 
z
" transform="scale(0.015625)"/>
       <path id="DejaVuSans-20" transform="scale(0.015625)"/>
       <path id="DejaVuSans-303" d="M -1621 4281 
L -1799 4453 
Q -1867 4516 -1919 4545 
Q -1971 4575 -2011 4575 
Q -2130 4575 -2186 4461 
Q -2242 4347 -2249 4091 
L -2639 4091 
Q -2633 4513 -2473 4742 
Q -2314 4972 -2030 4972 
Q -1911 4972 -1811 4928 
Q -1711 4884 -1596 4781 
L -1417 4609 
Q -1349 4547 -1297 4517 
Q -1246 4488 -1205 4488 
Q -1086 4488 -1030 4602 
Q -974 4716 -967 4972 
L -577 4972 
Q -583 4550 -742 4320 
Q -902 4091 -1186 4091 
Q -1305 4091 -1405 4134 
Q -1505 4178 -1621 4281 
z
" transform="scale(0.015625)"/>
       <path id="DejaVuSans-Oblique-52" d="M 1613 4147 
L 1294 2491 
L 2106 2491 
Q 2584 2491 2879 2755 
Q 3175 3019 3175 3444 
Q 3175 3784 2976 3965 
Q 2778 4147 2406 4147 
L 1613 4147 
z
M 2772 2241 
Q 2972 2194 3105 2009 
Q 3238 1825 3413 1275 
L 3809 0 
L 3144 0 
L 2778 1197 
Q 2638 1659 2453 1815 
Q 2269 1972 1888 1972 
L 1191 1972 
L 806 0 
L 172 0 
L 1081 4666 
L 2503 4666 
Q 3150 4666 3495 4373 
Q 3841 4081 3841 3531 
Q 3841 3044 3547 2687 
Q 3253 2331 2772 2241 
z
" transform="scale(0.015625)"/>
       <path id="DejaVuSans-Oblique-74" d="M 2706 3500 
L 2619 3053 
L 1472 3053 
L 1100 1153 
Q 1081 1047 1072 975 
Q 1063 903 1063 863 
Q 1063 663 1183 572 
Q 1303 481 1569 481 
L 2150 481 
L 2053 0 
L 1503 0 
Q 991 0 739 200 
Q 488 400 488 806 
Q 488 878 497 964 
Q 506 1050 525 1153 
L 897 3053 
L 409 3053 
L 500 3500 
L 978 3500 
L 1172 4494 
L 1747 4494 
L 1556 3500 
L 2706 3500 
z
" transform="scale(0.015625)"/>
       <path id="DejaVuSans-Oblique-3c7" d="M 1922 -781 
L 1691 416 
L 394 -1334 
L -284 -1334 
L 1553 1141 
L 1269 2613 
Q 1194 3006 713 3006 
L 559 3006 
L 653 3500 
L 872 3494 
Q 1675 3472 1775 2950 
L 2006 1753 
L 3303 3503 
L 3981 3503 
L 2144 1028 
L 2428 -444 
Q 2503 -838 2984 -838 
L 3138 -838 
L 3044 -1331 
L 2825 -1325 
Q 2022 -1303 1922 -781 
z
" transform="scale(0.015625)"/>
       <path id="DejaVuSans-2c" d="M 750 794 
L 1409 794 
L 1409 256 
L 897 -744 
L 494 -744 
L 750 256 
L 750 794 
z
" transform="scale(0.015625)"/>
      </defs>
      <use xlink:href="#DejaVuSans-50" transform="translate(0 0.828125)"/>
      <use xlink:href="#DejaVuSans-72" transform="translate(60.302734 0.828125)"/>
      <use xlink:href="#DejaVuSans-69" transform="translate(101.416016 0.828125)"/>
      <use xlink:href="#DejaVuSans-76" transform="translate(129.199219 0.828125)"/>
      <use xlink:href="#DejaVuSans-61" transform="translate(188.378906 0.828125)"/>
      <use xlink:href="#DejaVuSans-74" transform="translate(249.658203 0.828125)"/>
      <use xlink:href="#DejaVuSans-65" transform="translate(288.867188 0.828125)"/>
      <use xlink:href="#DejaVuSans-20" transform="translate(350.390625 0.828125)"/>
      <use xlink:href="#DejaVuSans-56" transform="translate(382.177734 0.828125)"/>
      <use xlink:href="#DejaVuSans-61" transform="translate(450.585938 0.828125)"/>
      <use xlink:href="#DejaVuSans-6c" transform="translate(511.865234 0.828125)"/>
      <use xlink:href="#DejaVuSans-75" transform="translate(539.648438 0.828125)"/>
      <use xlink:href="#DejaVuSans-65" transform="translate(603.027344 0.828125)"/>
      <use xlink:href="#DejaVuSans-20" transform="translate(664.550781 0.828125)"/>
      <use xlink:href="#DejaVuSans-303" transform="translate(764.942871 22.3125)"/>
      <use xlink:href="#DejaVuSans-Oblique-52" transform="translate(696.337891 0.828125)"/>
      <use xlink:href="#DejaVuSans-Oblique-74" transform="translate(766.777344 39.109375) scale(0.7)"/>
      <use xlink:href="#DejaVuSans-Oblique-3c7" transform="translate(766.777344 -26.515625) scale(0.7)"/>
      <use xlink:href="#DejaVuSans-31" transform="translate(808.203125 -38) scale(0.49)"/>
      <use xlink:href="#DejaVuSans-2c" transform="translate(841.29248 -26.515625) scale(0.7)"/>
      <use xlink:href="#DejaVuSans-Oblique-3c7" transform="translate(877.181152 -26.515625) scale(0.7)"/>
      <use xlink:href="#DejaVuSans-32" transform="translate(918.606934 -38) scale(0.49)"/>
     </g>
    </g>
    <g id="line2d_30">
     <path d="M 278.4325 34 
L 288.4325 34 
L 298.4325 34 
" style="fill: none; stroke-dasharray: 5.55,2.4; stroke-dashoffset: 0; stroke: #000000; stroke-width: 1.5"/>
    </g>
    <g id="text_17">
     <!-- Original Value $\bar{R}_{\chi_1,\chi_2}^t$ -->
     <g transform="translate(306.4325 37.5) scale(0.1 -0.1)">
      <defs>
       <path id="DejaVuSans-4f" d="M 2522 4238 
Q 1834 4238 1429 3725 
Q 1025 3213 1025 2328 
Q 1025 1447 1429 934 
Q 1834 422 2522 422 
Q 3209 422 3611 934 
Q 4013 1447 4013 2328 
Q 4013 3213 3611 3725 
Q 3209 4238 2522 4238 
z
M 2522 4750 
Q 3503 4750 4090 4092 
Q 4678 3434 4678 2328 
Q 4678 1225 4090 567 
Q 3503 -91 2522 -91 
Q 1538 -91 948 565 
Q 359 1222 359 2328 
Q 359 3434 948 4092 
Q 1538 4750 2522 4750 
z
" transform="scale(0.015625)"/>
       <path id="DejaVuSans-67" d="M 2906 1791 
Q 2906 2416 2648 2759 
Q 2391 3103 1925 3103 
Q 1463 3103 1205 2759 
Q 947 2416 947 1791 
Q 947 1169 1205 825 
Q 1463 481 1925 481 
Q 2391 481 2648 825 
Q 2906 1169 2906 1791 
z
M 3481 434 
Q 3481 -459 3084 -895 
Q 2688 -1331 1869 -1331 
Q 1566 -1331 1297 -1286 
Q 1028 -1241 775 -1147 
L 775 -588 
Q 1028 -725 1275 -790 
Q 1522 -856 1778 -856 
Q 2344 -856 2625 -561 
Q 2906 -266 2906 331 
L 2906 616 
Q 2728 306 2450 153 
Q 2172 0 1784 0 
Q 1141 0 747 490 
Q 353 981 353 1791 
Q 353 2603 747 3093 
Q 1141 3584 1784 3584 
Q 2172 3584 2450 3431 
Q 2728 3278 2906 2969 
L 2906 3500 
L 3481 3500 
L 3481 434 
z
" transform="scale(0.015625)"/>
       <path id="DejaVuSans-6e" d="M 3513 2113 
L 3513 0 
L 2938 0 
L 2938 2094 
Q 2938 2591 2744 2837 
Q 2550 3084 2163 3084 
Q 1697 3084 1428 2787 
Q 1159 2491 1159 1978 
L 1159 0 
L 581 0 
L 581 3500 
L 1159 3500 
L 1159 2956 
Q 1366 3272 1645 3428 
Q 1925 3584 2291 3584 
Q 2894 3584 3203 3211 
Q 3513 2838 3513 2113 
z
" transform="scale(0.015625)"/>
       <path id="DejaVuSans-304" d="M -2518 4769 
L -650 4769 
L -650 4306 
L -2518 4306 
L -2518 4769 
z
" transform="scale(0.015625)"/>
      </defs>
      <use xlink:href="#DejaVuSans-4f" transform="translate(0 0.359375)"/>
      <use xlink:href="#DejaVuSans-72" transform="translate(78.710938 0.359375)"/>
      <use xlink:href="#DejaVuSans-69" transform="translate(119.824219 0.359375)"/>
      <use xlink:href="#DejaVuSans-67" transform="translate(147.607422 0.359375)"/>
      <use xlink:href="#DejaVuSans-69" transform="translate(211.083984 0.359375)"/>
      <use xlink:href="#DejaVuSans-6e" transform="translate(238.867188 0.359375)"/>
      <use xlink:href="#DejaVuSans-61" transform="translate(302.246094 0.359375)"/>
      <use xlink:href="#DejaVuSans-6c" transform="translate(363.525391 0.359375)"/>
      <use xlink:href="#DejaVuSans-20" transform="translate(391.308594 0.359375)"/>
      <use xlink:href="#DejaVuSans-56" transform="translate(423.095703 0.359375)"/>
      <use xlink:href="#DejaVuSans-61" transform="translate(491.503906 0.359375)"/>
      <use xlink:href="#DejaVuSans-6c" transform="translate(552.783203 0.359375)"/>
      <use xlink:href="#DejaVuSans-75" transform="translate(580.566406 0.359375)"/>
      <use xlink:href="#DejaVuSans-65" transform="translate(643.945312 0.359375)"/>
      <use xlink:href="#DejaVuSans-20" transform="translate(705.46875 0.359375)"/>
      <use xlink:href="#DejaVuSans-304" transform="translate(804.970215 18.484375)"/>
      <use xlink:href="#DejaVuSans-Oblique-52" transform="translate(737.255859 0.359375)"/>
      <use xlink:href="#DejaVuSans-Oblique-74" transform="translate(807.695312 38.640625) scale(0.7)"/>
      <use xlink:href="#DejaVuSans-Oblique-3c7" transform="translate(807.695312 -26.984375) scale(0.7)"/>
      <use xlink:href="#DejaVuSans-31" transform="translate(849.121094 -38.46875) scale(0.49)"/>
      <use xlink:href="#DejaVuSans-2c" transform="translate(882.210449 -26.984375) scale(0.7)"/>
      <use xlink:href="#DejaVuSans-Oblique-3c7" transform="translate(918.099121 -26.984375) scale(0.7)"/>
      <use xlink:href="#DejaVuSans-32" transform="translate(959.524902 -38.46875) scale(0.49)"/>
     </g>
    </g>
    <g id="patch_8">
     <path d="M 278.4325 54.298438 
L 298.4325 54.298438 
L 298.4325 47.298438 
L 278.4325 47.298438 
z
" style="fill: #134a8e; fill-opacity: 0.5; stroke: #134a8e; stroke-opacity: 0.5; stroke-width: 0.5; stroke-linejoin: miter"/>
    </g>
    <g id="text_18">
     <!-- One Standard Deviation -->
     <g transform="translate(306.4325 54.298438) scale(0.1 -0.1)">
      <defs>
       <path id="DejaVuSans-53" d="M 3425 4513 
L 3425 3897 
Q 3066 4069 2747 4153 
Q 2428 4238 2131 4238 
Q 1616 4238 1336 4038 
Q 1056 3838 1056 3469 
Q 1056 3159 1242 3001 
Q 1428 2844 1947 2747 
L 2328 2669 
Q 3034 2534 3370 2195 
Q 3706 1856 3706 1288 
Q 3706 609 3251 259 
Q 2797 -91 1919 -91 
Q 1588 -91 1214 -16 
Q 841 59 441 206 
L 441 856 
Q 825 641 1194 531 
Q 1563 422 1919 422 
Q 2459 422 2753 634 
Q 3047 847 3047 1241 
Q 3047 1584 2836 1778 
Q 2625 1972 2144 2069 
L 1759 2144 
Q 1053 2284 737 2584 
Q 422 2884 422 3419 
Q 422 4038 858 4394 
Q 1294 4750 2059 4750 
Q 2388 4750 2728 4690 
Q 3069 4631 3425 4513 
z
" transform="scale(0.015625)"/>
       <path id="DejaVuSans-64" d="M 2906 2969 
L 2906 4863 
L 3481 4863 
L 3481 0 
L 2906 0 
L 2906 525 
Q 2725 213 2448 61 
Q 2172 -91 1784 -91 
Q 1150 -91 751 415 
Q 353 922 353 1747 
Q 353 2572 751 3078 
Q 1150 3584 1784 3584 
Q 2172 3584 2448 3432 
Q 2725 3281 2906 2969 
z
M 947 1747 
Q 947 1113 1208 752 
Q 1469 391 1925 391 
Q 2381 391 2643 752 
Q 2906 1113 2906 1747 
Q 2906 2381 2643 2742 
Q 2381 3103 1925 3103 
Q 1469 3103 1208 2742 
Q 947 2381 947 1747 
z
" transform="scale(0.015625)"/>
       <path id="DejaVuSans-6f" d="M 1959 3097 
Q 1497 3097 1228 2736 
Q 959 2375 959 1747 
Q 959 1119 1226 758 
Q 1494 397 1959 397 
Q 2419 397 2687 759 
Q 2956 1122 2956 1747 
Q 2956 2369 2687 2733 
Q 2419 3097 1959 3097 
z
M 1959 3584 
Q 2709 3584 3137 3096 
Q 3566 2609 3566 1747 
Q 3566 888 3137 398 
Q 2709 -91 1959 -91 
Q 1206 -91 779 398 
Q 353 888 353 1747 
Q 353 2609 779 3096 
Q 1206 3584 1959 3584 
z
" transform="scale(0.015625)"/>
      </defs>
      <use xlink:href="#DejaVuSans-4f"/>
      <use xlink:href="#DejaVuSans-6e" x="78.710938"/>
      <use xlink:href="#DejaVuSans-65" x="142.089844"/>
      <use xlink:href="#DejaVuSans-20" x="203.613281"/>
      <use xlink:href="#DejaVuSans-53" x="235.400391"/>
      <use xlink:href="#DejaVuSans-74" x="298.876953"/>
      <use xlink:href="#DejaVuSans-61" x="338.085938"/>
      <use xlink:href="#DejaVuSans-6e" x="399.365234"/>
      <use xlink:href="#DejaVuSans-64" x="462.744141"/>
      <use xlink:href="#DejaVuSans-61" x="526.220703"/>
      <use xlink:href="#DejaVuSans-72" x="587.5"/>
      <use xlink:href="#DejaVuSans-64" x="626.863281"/>
      <use xlink:href="#DejaVuSans-20" x="690.339844"/>
      <use xlink:href="#DejaVuSans-44" x="722.126953"/>
      <use xlink:href="#DejaVuSans-65" x="799.128906"/>
      <use xlink:href="#DejaVuSans-76" x="860.652344"/>
      <use xlink:href="#DejaVuSans-69" x="919.832031"/>
      <use xlink:href="#DejaVuSans-61" x="947.615234"/>
      <use xlink:href="#DejaVuSans-74" x="1008.894531"/>
      <use xlink:href="#DejaVuSans-69" x="1048.103516"/>
      <use xlink:href="#DejaVuSans-6f" x="1075.886719"/>
      <use xlink:href="#DejaVuSans-6e" x="1137.068359"/>
     </g>
    </g>
   </g>
  </g>
 </g>
 <defs>
  <clipPath id="pd3cdf2889c">
   <rect x="44.879375" y="0" width="390.6" height="166.32"/>
  </clipPath>
 </defs>
</svg>
