<?xml version="1.0" encoding="utf-8" standalone="no"?>
<!DOCTYPE svg PUBLIC "-//W3C//DTD SVG 1.1//EN"
  "http://www.w3.org/Graphics/SVG/1.1/DTD/svg11.dtd">
<svg xmlns:xlink="http://www.w3.org/1999/xlink" width="444.375067pt" height="201.063776pt" viewBox="0 0 444.375067 201.063776" xmlns="http://www.w3.org/2000/svg" version="1.1">
 <metadata>
  <rdf:RDF xmlns:dc="http://purl.org/dc/elements/1.1/" xmlns:cc="http://creativecommons.org/ns#" xmlns:rdf="http://www.w3.org/1999/02/22-rdf-syntax-ns#">
   <cc:Work>
    <dc:type rdf:resource="http://purl.org/dc/dcmitype/StillImage"/>
    <dc:date>2024-09-18T15:47:46.182076</dc:date>
    <dc:format>image/svg+xml</dc:format>
    <dc:creator>
     <cc:Agent>
      <dc:title>Matplotlib v3.7.5, https://matplotlib.org/</dc:title>
     </cc:Agent>
    </dc:creator>
   </cc:Work>
  </rdf:RDF>
 </metadata>
 <defs>
  <style type="text/css">*{stroke-linejoin: round; stroke-linecap: butt}</style>
 </defs>
 <g id="figure_1">
  <g id="patch_1">
   <path d="M 0 201.063776 
L 444.375067 201.063776 
L 444.375067 0 
L 0 0 
z
" style="fill: #ffffff"/>
  </g>
  <g id="axes_1">
   <g id="patch_2">
    <path d="M 44.879375 168.771901 
L 435.479375 168.771901 
L 435.479375 2.451901 
L 44.879375 2.451901 
z
" style="fill: #e5e5e5"/>
   </g>
   <g id="matplotlib.axis_1">
    <g id="xtick_1">
     <g id="line2d_1">
      <path d="M 72.41989 168.771901 
L 72.41989 2.451901 
" clip-path="url(#p91a75a1797)" style="fill: none; stroke: #ffffff; stroke-width: 0.8; stroke-linecap: square"/>
     </g>
     <g id="line2d_2">
      <defs>
       <path id="md23c8c167e" d="M 0 0 
L 0 3.5 
" style="stroke: #555555; stroke-width: 0.8"/>
      </defs>
      <g>
       <use xlink:href="#md23c8c167e" x="72.41989" y="168.771901" style="fill: #555555; stroke: #555555; stroke-width: 0.8"/>
      </g>
     </g>
     <g id="text_1">
      <!-- 08/16/20 -->
      <g style="fill: #555555" transform="translate(49.96364 183.370338) scale(0.1 -0.1)">
       <defs>
        <path id="DejaVuSans-30" d="M 2034 4250 
Q 1547 4250 1301 3770 
Q 1056 3291 1056 2328 
Q 1056 1369 1301 889 
Q 1547 409 2034 409 
Q 2525 409 2770 889 
Q 3016 1369 3016 2328 
Q 3016 3291 2770 3770 
Q 2525 4250 2034 4250 
z
M 2034 4750 
Q 2819 4750 3233 4129 
Q 3647 3509 3647 2328 
Q 3647 1150 3233 529 
Q 2819 -91 2034 -91 
Q 1250 -91 836 529 
Q 422 1150 422 2328 
Q 422 3509 836 4129 
Q 1250 4750 2034 4750 
z
" transform="scale(0.015625)"/>
        <path id="DejaVuSans-38" d="M 2034 2216 
Q 1584 2216 1326 1975 
Q 1069 1734 1069 1313 
Q 1069 891 1326 650 
Q 1584 409 2034 409 
Q 2484 409 2743 651 
Q 3003 894 3003 1313 
Q 3003 1734 2745 1975 
Q 2488 2216 2034 2216 
z
M 1403 2484 
Q 997 2584 770 2862 
Q 544 3141 544 3541 
Q 544 4100 942 4425 
Q 1341 4750 2034 4750 
Q 2731 4750 3128 4425 
Q 3525 4100 3525 3541 
Q 3525 3141 3298 2862 
Q 3072 2584 2669 2484 
Q 3125 2378 3379 2068 
Q 3634 1759 3634 1313 
Q 3634 634 3220 271 
Q 2806 -91 2034 -91 
Q 1263 -91 848 271 
Q 434 634 434 1313 
Q 434 1759 690 2068 
Q 947 2378 1403 2484 
z
M 1172 3481 
Q 1172 3119 1398 2916 
Q 1625 2713 2034 2713 
Q 2441 2713 2670 2916 
Q 2900 3119 2900 3481 
Q 2900 3844 2670 4047 
Q 2441 4250 2034 4250 
Q 1625 4250 1398 4047 
Q 1172 3844 1172 3481 
z
" transform="scale(0.015625)"/>
        <path id="DejaVuSans-2f" d="M 1625 4666 
L 2156 4666 
L 531 -594 
L 0 -594 
L 1625 4666 
z
" transform="scale(0.015625)"/>
        <path id="DejaVuSans-31" d="M 794 531 
L 1825 531 
L 1825 4091 
L 703 3866 
L 703 4441 
L 1819 4666 
L 2450 4666 
L 2450 531 
L 3481 531 
L 3481 0 
L 794 0 
L 794 531 
z
" transform="scale(0.015625)"/>
        <path id="DejaVuSans-36" d="M 2113 2584 
Q 1688 2584 1439 2293 
Q 1191 2003 1191 1497 
Q 1191 994 1439 701 
Q 1688 409 2113 409 
Q 2538 409 2786 701 
Q 3034 994 3034 1497 
Q 3034 2003 2786 2293 
Q 2538 2584 2113 2584 
z
M 3366 4563 
L 3366 3988 
Q 3128 4100 2886 4159 
Q 2644 4219 2406 4219 
Q 1781 4219 1451 3797 
Q 1122 3375 1075 2522 
Q 1259 2794 1537 2939 
Q 1816 3084 2150 3084 
Q 2853 3084 3261 2657 
Q 3669 2231 3669 1497 
Q 3669 778 3244 343 
Q 2819 -91 2113 -91 
Q 1303 -91 875 529 
Q 447 1150 447 2328 
Q 447 3434 972 4092 
Q 1497 4750 2381 4750 
Q 2619 4750 2861 4703 
Q 3103 4656 3366 4563 
z
" transform="scale(0.015625)"/>
        <path id="DejaVuSans-32" d="M 1228 531 
L 3431 531 
L 3431 0 
L 469 0 
L 469 531 
Q 828 903 1448 1529 
Q 2069 2156 2228 2338 
Q 2531 2678 2651 2914 
Q 2772 3150 2772 3378 
Q 2772 3750 2511 3984 
Q 2250 4219 1831 4219 
Q 1534 4219 1204 4116 
Q 875 4013 500 3803 
L 500 4441 
Q 881 4594 1212 4672 
Q 1544 4750 1819 4750 
Q 2544 4750 2975 4387 
Q 3406 4025 3406 3419 
Q 3406 3131 3298 2873 
Q 3191 2616 2906 2266 
Q 2828 2175 2409 1742 
Q 1991 1309 1228 531 
z
" transform="scale(0.015625)"/>
       </defs>
       <use xlink:href="#DejaVuSans-30"/>
       <use xlink:href="#DejaVuSans-38" x="63.623047"/>
       <use xlink:href="#DejaVuSans-2f" x="127.246094"/>
       <use xlink:href="#DejaVuSans-31" x="160.9375"/>
       <use xlink:href="#DejaVuSans-36" x="224.560547"/>
       <use xlink:href="#DejaVuSans-2f" x="288.183594"/>
       <use xlink:href="#DejaVuSans-32" x="321.875"/>
       <use xlink:href="#DejaVuSans-30" x="385.498047"/>
      </g>
     </g>
    </g>
    <g id="xtick_2">
     <g id="line2d_3">
      <path d="M 142.319676 168.771901 
L 142.319676 2.451901 
" clip-path="url(#p91a75a1797)" style="fill: none; stroke: #ffffff; stroke-width: 0.8; stroke-linecap: square"/>
     </g>
     <g id="line2d_4">
      <g>
       <use xlink:href="#md23c8c167e" x="142.319676" y="168.771901" style="fill: #555555; stroke: #555555; stroke-width: 0.8"/>
      </g>
     </g>
     <g id="text_2">
      <!-- 10/05/20 -->
      <g style="fill: #555555" transform="translate(119.863426 183.370338) scale(0.1 -0.1)">
       <defs>
        <path id="DejaVuSans-35" d="M 691 4666 
L 3169 4666 
L 3169 4134 
L 1269 4134 
L 1269 2991 
Q 1406 3038 1543 3061 
Q 1681 3084 1819 3084 
Q 2600 3084 3056 2656 
Q 3513 2228 3513 1497 
Q 3513 744 3044 326 
Q 2575 -91 1722 -91 
Q 1428 -91 1123 -41 
Q 819 9 494 109 
L 494 744 
Q 775 591 1075 516 
Q 1375 441 1709 441 
Q 2250 441 2565 725 
Q 2881 1009 2881 1497 
Q 2881 1984 2565 2268 
Q 2250 2553 1709 2553 
Q 1456 2553 1204 2497 
Q 953 2441 691 2322 
L 691 4666 
z
" transform="scale(0.015625)"/>
       </defs>
       <use xlink:href="#DejaVuSans-31"/>
       <use xlink:href="#DejaVuSans-30" x="63.623047"/>
       <use xlink:href="#DejaVuSans-2f" x="127.246094"/>
       <use xlink:href="#DejaVuSans-30" x="160.9375"/>
       <use xlink:href="#DejaVuSans-35" x="224.560547"/>
       <use xlink:href="#DejaVuSans-2f" x="288.183594"/>
       <use xlink:href="#DejaVuSans-32" x="321.875"/>
       <use xlink:href="#DejaVuSans-30" x="385.498047"/>
      </g>
     </g>
    </g>
    <g id="xtick_3">
     <g id="line2d_5">
      <path d="M 212.219461 168.771901 
L 212.219461 2.451901 
" clip-path="url(#p91a75a1797)" style="fill: none; stroke: #ffffff; stroke-width: 0.8; stroke-linecap: square"/>
     </g>
     <g id="line2d_6">
      <g>
       <use xlink:href="#md23c8c167e" x="212.219461" y="168.771901" style="fill: #555555; stroke: #555555; stroke-width: 0.8"/>
      </g>
     </g>
     <g id="text_3">
      <!-- 11/24/20 -->
      <g style="fill: #555555" transform="translate(189.763211 183.370338) scale(0.1 -0.1)">
       <defs>
        <path id="DejaVuSans-34" d="M 2419 4116 
L 825 1625 
L 2419 1625 
L 2419 4116 
z
M 2253 4666 
L 3047 4666 
L 3047 1625 
L 3713 1625 
L 3713 1100 
L 3047 1100 
L 3047 0 
L 2419 0 
L 2419 1100 
L 313 1100 
L 313 1709 
L 2253 4666 
z
" transform="scale(0.015625)"/>
       </defs>
       <use xlink:href="#DejaVuSans-31"/>
       <use xlink:href="#DejaVuSans-31" x="63.623047"/>
       <use xlink:href="#DejaVuSans-2f" x="127.246094"/>
       <use xlink:href="#DejaVuSans-32" x="160.9375"/>
       <use xlink:href="#DejaVuSans-34" x="224.560547"/>
       <use xlink:href="#DejaVuSans-2f" x="288.183594"/>
       <use xlink:href="#DejaVuSans-32" x="321.875"/>
       <use xlink:href="#DejaVuSans-30" x="385.498047"/>
      </g>
     </g>
    </g>
    <g id="xtick_4">
     <g id="line2d_7">
      <path d="M 282.119246 168.771901 
L 282.119246 2.451901 
" clip-path="url(#p91a75a1797)" style="fill: none; stroke: #ffffff; stroke-width: 0.8; stroke-linecap: square"/>
     </g>
     <g id="line2d_8">
      <g>
       <use xlink:href="#md23c8c167e" x="282.119246" y="168.771901" style="fill: #555555; stroke: #555555; stroke-width: 0.8"/>
      </g>
     </g>
     <g id="text_4">
      <!-- 01/13/21 -->
      <g style="fill: #555555" transform="translate(259.662996 183.370338) scale(0.1 -0.1)">
       <defs>
        <path id="DejaVuSans-33" d="M 2597 2516 
Q 3050 2419 3304 2112 
Q 3559 1806 3559 1356 
Q 3559 666 3084 287 
Q 2609 -91 1734 -91 
Q 1441 -91 1130 -33 
Q 819 25 488 141 
L 488 750 
Q 750 597 1062 519 
Q 1375 441 1716 441 
Q 2309 441 2620 675 
Q 2931 909 2931 1356 
Q 2931 1769 2642 2001 
Q 2353 2234 1838 2234 
L 1294 2234 
L 1294 2753 
L 1863 2753 
Q 2328 2753 2575 2939 
Q 2822 3125 2822 3475 
Q 2822 3834 2567 4026 
Q 2313 4219 1838 4219 
Q 1578 4219 1281 4162 
Q 984 4106 628 3988 
L 628 4550 
Q 988 4650 1302 4700 
Q 1616 4750 1894 4750 
Q 2613 4750 3031 4423 
Q 3450 4097 3450 3541 
Q 3450 3153 3228 2886 
Q 3006 2619 2597 2516 
z
" transform="scale(0.015625)"/>
       </defs>
       <use xlink:href="#DejaVuSans-30"/>
       <use xlink:href="#DejaVuSans-31" x="63.623047"/>
       <use xlink:href="#DejaVuSans-2f" x="127.246094"/>
       <use xlink:href="#DejaVuSans-31" x="160.9375"/>
       <use xlink:href="#DejaVuSans-33" x="224.560547"/>
       <use xlink:href="#DejaVuSans-2f" x="288.183594"/>
       <use xlink:href="#DejaVuSans-32" x="321.875"/>
       <use xlink:href="#DejaVuSans-31" x="385.498047"/>
      </g>
     </g>
    </g>
    <g id="xtick_5">
     <g id="line2d_9">
      <path d="M 352.019031 168.771901 
L 352.019031 2.451901 
" clip-path="url(#p91a75a1797)" style="fill: none; stroke: #ffffff; stroke-width: 0.8; stroke-linecap: square"/>
     </g>
     <g id="line2d_10">
      <g>
       <use xlink:href="#md23c8c167e" x="352.019031" y="168.771901" style="fill: #555555; stroke: #555555; stroke-width: 0.8"/>
      </g>
     </g>
     <g id="text_5">
      <!-- 03/04/21 -->
      <g style="fill: #555555" transform="translate(329.562781 183.370338) scale(0.1 -0.1)">
       <use xlink:href="#DejaVuSans-30"/>
       <use xlink:href="#DejaVuSans-33" x="63.623047"/>
       <use xlink:href="#DejaVuSans-2f" x="127.246094"/>
       <use xlink:href="#DejaVuSans-30" x="160.9375"/>
       <use xlink:href="#DejaVuSans-34" x="224.560547"/>
       <use xlink:href="#DejaVuSans-2f" x="288.183594"/>
       <use xlink:href="#DejaVuSans-32" x="321.875"/>
       <use xlink:href="#DejaVuSans-31" x="385.498047"/>
      </g>
     </g>
    </g>
    <g id="xtick_6">
     <g id="line2d_11">
      <path d="M 421.918817 168.771901 
L 421.918817 2.451901 
" clip-path="url(#p91a75a1797)" style="fill: none; stroke: #ffffff; stroke-width: 0.8; stroke-linecap: square"/>
     </g>
     <g id="line2d_12">
      <g>
       <use xlink:href="#md23c8c167e" x="421.918817" y="168.771901" style="fill: #555555; stroke: #555555; stroke-width: 0.8"/>
      </g>
     </g>
     <g id="text_6">
      <!-- 04/23/21 -->
      <g style="fill: #555555" transform="translate(399.462567 183.370338) scale(0.1 -0.1)">
       <use xlink:href="#DejaVuSans-30"/>
       <use xlink:href="#DejaVuSans-34" x="63.623047"/>
       <use xlink:href="#DejaVuSans-2f" x="127.246094"/>
       <use xlink:href="#DejaVuSans-32" x="160.9375"/>
       <use xlink:href="#DejaVuSans-33" x="224.560547"/>
       <use xlink:href="#DejaVuSans-2f" x="288.183594"/>
       <use xlink:href="#DejaVuSans-32" x="321.875"/>
       <use xlink:href="#DejaVuSans-31" x="385.498047"/>
      </g>
     </g>
    </g>
    <g id="text_7">
     <!-- Date -->
     <g style="fill: #555555" transform="translate(225.838438 198.568151) scale(0.12 -0.12)">
      <defs>
       <path id="DejaVuSans-44" d="M 1259 4147 
L 1259 519 
L 2022 519 
Q 2988 519 3436 956 
Q 3884 1394 3884 2338 
Q 3884 3275 3436 3711 
Q 2988 4147 2022 4147 
L 1259 4147 
z
M 628 4666 
L 1925 4666 
Q 3281 4666 3915 4102 
Q 4550 3538 4550 2338 
Q 4550 1131 3912 565 
Q 3275 0 1925 0 
L 628 0 
L 628 4666 
z
" transform="scale(0.015625)"/>
       <path id="DejaVuSans-61" d="M 2194 1759 
Q 1497 1759 1228 1600 
Q 959 1441 959 1056 
Q 959 750 1161 570 
Q 1363 391 1709 391 
Q 2188 391 2477 730 
Q 2766 1069 2766 1631 
L 2766 1759 
L 2194 1759 
z
M 3341 1997 
L 3341 0 
L 2766 0 
L 2766 531 
Q 2569 213 2275 61 
Q 1981 -91 1556 -91 
Q 1019 -91 701 211 
Q 384 513 384 1019 
Q 384 1609 779 1909 
Q 1175 2209 1959 2209 
L 2766 2209 
L 2766 2266 
Q 2766 2663 2505 2880 
Q 2244 3097 1772 3097 
Q 1472 3097 1187 3025 
Q 903 2953 641 2809 
L 641 3341 
Q 956 3463 1253 3523 
Q 1550 3584 1831 3584 
Q 2591 3584 2966 3190 
Q 3341 2797 3341 1997 
z
" transform="scale(0.015625)"/>
       <path id="DejaVuSans-74" d="M 1172 4494 
L 1172 3500 
L 2356 3500 
L 2356 3053 
L 1172 3053 
L 1172 1153 
Q 1172 725 1289 603 
Q 1406 481 1766 481 
L 2356 481 
L 2356 0 
L 1766 0 
Q 1100 0 847 248 
Q 594 497 594 1153 
L 594 3053 
L 172 3053 
L 172 3500 
L 594 3500 
L 594 4494 
L 1172 4494 
z
" transform="scale(0.015625)"/>
       <path id="DejaVuSans-65" d="M 3597 1894 
L 3597 1613 
L 953 1613 
Q 991 1019 1311 708 
Q 1631 397 2203 397 
Q 2534 397 2845 478 
Q 3156 559 3463 722 
L 3463 178 
Q 3153 47 2828 -22 
Q 2503 -91 2169 -91 
Q 1331 -91 842 396 
Q 353 884 353 1716 
Q 353 2575 817 3079 
Q 1281 3584 2069 3584 
Q 2775 3584 3186 3129 
Q 3597 2675 3597 1894 
z
M 3022 2063 
Q 3016 2534 2758 2815 
Q 2500 3097 2075 3097 
Q 1594 3097 1305 2825 
Q 1016 2553 972 2059 
L 3022 2063 
z
" transform="scale(0.015625)"/>
      </defs>
      <use xlink:href="#DejaVuSans-44"/>
      <use xlink:href="#DejaVuSans-61" x="77.001953"/>
      <use xlink:href="#DejaVuSans-74" x="138.28125"/>
      <use xlink:href="#DejaVuSans-65" x="177.490234"/>
     </g>
    </g>
   </g>
   <g id="matplotlib.axis_2">
    <g id="ytick_1">
     <g id="line2d_13">
      <path d="M 44.879375 149.599084 
L 435.479375 149.599084 
" clip-path="url(#p91a75a1797)" style="fill: none; stroke: #ffffff; stroke-width: 0.8; stroke-linecap: square"/>
     </g>
     <g id="line2d_14">
      <defs>
       <path id="md7bc77788f" d="M 0 0 
L -3.5 0 
" style="stroke: #555555; stroke-width: 0.8"/>
      </defs>
      <g>
       <use xlink:href="#md7bc77788f" x="44.879375" y="149.599084" style="fill: #555555; stroke: #555555; stroke-width: 0.8"/>
      </g>
     </g>
     <g id="text_8">
      <!-- 0.05 -->
      <g style="fill: #555555" transform="translate(15.61375 153.398303) scale(0.1 -0.1)">
       <defs>
        <path id="DejaVuSans-2e" d="M 684 794 
L 1344 794 
L 1344 0 
L 684 0 
L 684 794 
z
" transform="scale(0.015625)"/>
       </defs>
       <use xlink:href="#DejaVuSans-30"/>
       <use xlink:href="#DejaVuSans-2e" x="63.623047"/>
       <use xlink:href="#DejaVuSans-30" x="95.410156"/>
       <use xlink:href="#DejaVuSans-35" x="159.033203"/>
      </g>
     </g>
    </g>
    <g id="ytick_2">
     <g id="line2d_15">
      <path d="M 44.879375 128.770532 
L 435.479375 128.770532 
" clip-path="url(#p91a75a1797)" style="fill: none; stroke: #ffffff; stroke-width: 0.8; stroke-linecap: square"/>
     </g>
     <g id="line2d_16">
      <g>
       <use xlink:href="#md7bc77788f" x="44.879375" y="128.770532" style="fill: #555555; stroke: #555555; stroke-width: 0.8"/>
      </g>
     </g>
     <g id="text_9">
      <!-- 0.10 -->
      <g style="fill: #555555" transform="translate(15.61375 132.56975) scale(0.1 -0.1)">
       <use xlink:href="#DejaVuSans-30"/>
       <use xlink:href="#DejaVuSans-2e" x="63.623047"/>
       <use xlink:href="#DejaVuSans-31" x="95.410156"/>
       <use xlink:href="#DejaVuSans-30" x="159.033203"/>
      </g>
     </g>
    </g>
    <g id="ytick_3">
     <g id="line2d_17">
      <path d="M 44.879375 107.94198 
L 435.479375 107.94198 
" clip-path="url(#p91a75a1797)" style="fill: none; stroke: #ffffff; stroke-width: 0.8; stroke-linecap: square"/>
     </g>
     <g id="line2d_18">
      <g>
       <use xlink:href="#md7bc77788f" x="44.879375" y="107.94198" style="fill: #555555; stroke: #555555; stroke-width: 0.8"/>
      </g>
     </g>
     <g id="text_10">
      <!-- 0.15 -->
      <g style="fill: #555555" transform="translate(15.61375 111.741198) scale(0.1 -0.1)">
       <use xlink:href="#DejaVuSans-30"/>
       <use xlink:href="#DejaVuSans-2e" x="63.623047"/>
       <use xlink:href="#DejaVuSans-31" x="95.410156"/>
       <use xlink:href="#DejaVuSans-35" x="159.033203"/>
      </g>
     </g>
    </g>
    <g id="ytick_4">
     <g id="line2d_19">
      <path d="M 44.879375 87.113427 
L 435.479375 87.113427 
" clip-path="url(#p91a75a1797)" style="fill: none; stroke: #ffffff; stroke-width: 0.8; stroke-linecap: square"/>
     </g>
     <g id="line2d_20">
      <g>
       <use xlink:href="#md7bc77788f" x="44.879375" y="87.113427" style="fill: #555555; stroke: #555555; stroke-width: 0.8"/>
      </g>
     </g>
     <g id="text_11">
      <!-- 0.20 -->
      <g style="fill: #555555" transform="translate(15.61375 90.912646) scale(0.1 -0.1)">
       <use xlink:href="#DejaVuSans-30"/>
       <use xlink:href="#DejaVuSans-2e" x="63.623047"/>
       <use xlink:href="#DejaVuSans-32" x="95.410156"/>
       <use xlink:href="#DejaVuSans-30" x="159.033203"/>
      </g>
     </g>
    </g>
    <g id="ytick_5">
     <g id="line2d_21">
      <path d="M 44.879375 66.284875 
L 435.479375 66.284875 
" clip-path="url(#p91a75a1797)" style="fill: none; stroke: #ffffff; stroke-width: 0.8; stroke-linecap: square"/>
     </g>
     <g id="line2d_22">
      <g>
       <use xlink:href="#md7bc77788f" x="44.879375" y="66.284875" style="fill: #555555; stroke: #555555; stroke-width: 0.8"/>
      </g>
     </g>
     <g id="text_12">
      <!-- 0.25 -->
      <g style="fill: #555555" transform="translate(15.61375 70.084094) scale(0.1 -0.1)">
       <use xlink:href="#DejaVuSans-30"/>
       <use xlink:href="#DejaVuSans-2e" x="63.623047"/>
       <use xlink:href="#DejaVuSans-32" x="95.410156"/>
       <use xlink:href="#DejaVuSans-35" x="159.033203"/>
      </g>
     </g>
    </g>
    <g id="ytick_6">
     <g id="line2d_23">
      <path d="M 44.879375 45.456323 
L 435.479375 45.456323 
" clip-path="url(#p91a75a1797)" style="fill: none; stroke: #ffffff; stroke-width: 0.8; stroke-linecap: square"/>
     </g>
     <g id="line2d_24">
      <g>
       <use xlink:href="#md7bc77788f" x="44.879375" y="45.456323" style="fill: #555555; stroke: #555555; stroke-width: 0.8"/>
      </g>
     </g>
     <g id="text_13">
      <!-- 0.30 -->
      <g style="fill: #555555" transform="translate(15.61375 49.255542) scale(0.1 -0.1)">
       <use xlink:href="#DejaVuSans-30"/>
       <use xlink:href="#DejaVuSans-2e" x="63.623047"/>
       <use xlink:href="#DejaVuSans-33" x="95.410156"/>
       <use xlink:href="#DejaVuSans-30" x="159.033203"/>
      </g>
     </g>
    </g>
    <g id="ytick_7">
     <g id="line2d_25">
      <path d="M 44.879375 24.627771 
L 435.479375 24.627771 
" clip-path="url(#p91a75a1797)" style="fill: none; stroke: #ffffff; stroke-width: 0.8; stroke-linecap: square"/>
     </g>
     <g id="line2d_26">
      <g>
       <use xlink:href="#md7bc77788f" x="44.879375" y="24.627771" style="fill: #555555; stroke: #555555; stroke-width: 0.8"/>
      </g>
     </g>
     <g id="text_14">
      <!-- 0.35 -->
      <g style="fill: #555555" transform="translate(15.61375 28.42699) scale(0.1 -0.1)">
       <use xlink:href="#DejaVuSans-30"/>
       <use xlink:href="#DejaVuSans-2e" x="63.623047"/>
       <use xlink:href="#DejaVuSans-33" x="95.410156"/>
       <use xlink:href="#DejaVuSans-35" x="159.033203"/>
      </g>
     </g>
    </g>
    <g id="ytick_8">
     <g id="line2d_27">
      <path d="M 44.879375 3.799219 
L 435.479375 3.799219 
" clip-path="url(#p91a75a1797)" style="fill: none; stroke: #ffffff; stroke-width: 0.8; stroke-linecap: square"/>
     </g>
     <g id="line2d_28">
      <g>
       <use xlink:href="#md7bc77788f" x="44.879375" y="3.799219" style="fill: #555555; stroke: #555555; stroke-width: 0.8"/>
      </g>
     </g>
     <g id="text_15">
      <!-- 0.40 -->
      <g style="fill: #555555" transform="translate(15.61375 7.598437) scale(0.1 -0.1)">
       <use xlink:href="#DejaVuSans-30"/>
       <use xlink:href="#DejaVuSans-2e" x="63.623047"/>
       <use xlink:href="#DejaVuSans-34" x="95.410156"/>
       <use xlink:href="#DejaVuSans-30" x="159.033203"/>
      </g>
     </g>
    </g>
    <g id="text_16">
     <!-- Value -->
     <g style="fill: #555555" transform="translate(9.118125 102.089401) rotate(-90) scale(0.12 -0.12)">
      <defs>
       <path id="DejaVuSans-56" d="M 1831 0 
L 50 4666 
L 709 4666 
L 2188 738 
L 3669 4666 
L 4325 4666 
L 2547 0 
L 1831 0 
z
" transform="scale(0.015625)"/>
       <path id="DejaVuSans-6c" d="M 603 4863 
L 1178 4863 
L 1178 0 
L 603 0 
L 603 4863 
z
" transform="scale(0.015625)"/>
       <path id="DejaVuSans-75" d="M 544 1381 
L 544 3500 
L 1119 3500 
L 1119 1403 
Q 1119 906 1312 657 
Q 1506 409 1894 409 
Q 2359 409 2629 706 
Q 2900 1003 2900 1516 
L 2900 3500 
L 3475 3500 
L 3475 0 
L 2900 0 
L 2900 538 
Q 2691 219 2414 64 
Q 2138 -91 1772 -91 
Q 1169 -91 856 284 
Q 544 659 544 1381 
z
M 1991 3584 
L 1991 3584 
z
" transform="scale(0.015625)"/>
      </defs>
      <use xlink:href="#DejaVuSans-56"/>
      <use xlink:href="#DejaVuSans-61" x="60.658203"/>
      <use xlink:href="#DejaVuSans-6c" x="121.9375"/>
      <use xlink:href="#DejaVuSans-75" x="149.720703"/>
      <use xlink:href="#DejaVuSans-65" x="213.099609"/>
     </g>
    </g>
   </g>
   <g id="PolyCollection_1">
    <defs>
     <path id="m83b1723625" d="M 62.63392 -177.354535 
L 62.63392 -191.051875 
L 64.031916 -186.188365 
L 65.429912 -177.592827 
L 66.827908 -181.686621 
L 68.225903 -173.730092 
L 69.623899 -167.879955 
L 71.021895 -163.386112 
L 72.41989 -149.594068 
L 73.817886 -154.468854 
L 75.215882 -157.620978 
L 76.613878 -152.568036 
L 78.011873 -152.604922 
L 79.409869 -155.605657 
L 80.807865 -141.858879 
L 82.20586 -133.573705 
L 83.603856 -124.927603 
L 85.001852 -119.926226 
L 86.399847 -115.596332 
L 87.797843 -114.786017 
L 89.195839 -113.37576 
L 90.593835 -114.252839 
L 91.99183 -104.198327 
L 93.389826 -105.755747 
L 94.787822 -109.719602 
L 96.185817 -109.090191 
L 97.583813 -103.775055 
L 98.981809 -95.670854 
L 100.379804 -98.144503 
L 101.7778 -98.521942 
L 103.175796 -97.530782 
L 104.573792 -96.862992 
L 105.971787 -99.623181 
L 107.369783 -91.065907 
L 108.767779 -87.372838 
L 110.165774 -83.543724 
L 111.56377 -86.286793 
L 112.961766 -83.029266 
L 114.359762 -75.220276 
L 115.757757 -73.530546 
L 117.155753 -73.291396 
L 118.553749 -74.43876 
L 119.951744 -74.521607 
L 121.34974 -75.094393 
L 122.747736 -76.183849 
L 124.145731 -75.765563 
L 125.543727 -77.036742 
L 126.941723 -77.271745 
L 128.339719 -77.920253 
L 129.737714 -78.26695 
L 131.13571 -77.821143 
L 132.533706 -76.735981 
L 133.931701 -78.735082 
L 135.329697 -73.765082 
L 136.727693 -72.526018 
L 138.125689 -72.529785 
L 139.523684 -71.969525 
L 140.92168 -71.483849 
L 142.319676 -70.295546 
L 143.717671 -71.025454 
L 145.115667 -70.027763 
L 146.513663 -70.027421 
L 147.911658 -70.266088 
L 149.309654 -69.602633 
L 150.70765 -71.64162 
L 152.105646 -71.998056 
L 153.503641 -71.680309 
L 154.901637 -70.507995 
L 156.299633 -70.495331 
L 157.697628 -71.789219 
L 159.095624 -71.034944 
L 160.49362 -71.837221 
L 161.891616 -70.618701 
L 163.289611 -70.93581 
L 164.687607 -68.774989 
L 166.085603 -67.577733 
L 167.483598 -70.300372 
L 168.881594 -69.901682 
L 170.27959 -66.770457 
L 171.677585 -66.813084 
L 173.075581 -66.802046 
L 174.473577 -67.04189 
L 175.871573 -64.798654 
L 177.269568 -65.651059 
L 178.667564 -63.950673 
L 180.06556 -63.920583 
L 181.463555 -63.328765 
L 182.861551 -63.257816 
L 184.259547 -61.774146 
L 185.657543 -62.002183 
L 187.055538 -61.645743 
L 188.453534 -61.781617 
L 189.85153 -61.940805 
L 191.249525 -60.444201 
L 192.647521 -53.932996 
L 194.045517 -54.052775 
L 195.443512 -53.959795 
L 196.841508 -52.780978 
L 198.239504 -52.30494 
L 199.6375 -53.845442 
L 201.035495 -50.516339 
L 202.433491 -50.509466 
L 203.831487 -50.612802 
L 205.229482 -51.904449 
L 206.627478 -51.967254 
L 208.025474 -51.20162 
L 209.423469 -51.653543 
L 210.821465 -51.894762 
L 212.219461 -51.706857 
L 213.617457 -54.044376 
L 215.015452 -53.745579 
L 216.413448 -52.770701 
L 217.811444 -51.493993 
L 219.209439 -51.300857 
L 220.607435 -51.238409 
L 222.005431 -52.38886 
L 223.403427 -52.702627 
L 224.801422 -52.699156 
L 226.199418 -52.207402 
L 227.597414 -53.082878 
L 228.995409 -53.618816 
L 230.393405 -53.655897 
L 231.791401 -53.69388 
L 233.189396 -53.516139 
L 234.587392 -53.620967 
L 235.985388 -57.988754 
L 237.383384 -57.544691 
L 238.781379 -57.692779 
L 240.179375 -57.777782 
L 241.577371 -58.363646 
L 242.975366 -57.614636 
L 244.373362 -59.999457 
L 245.771358 -60.249739 
L 247.169354 -60.166927 
L 248.567349 -59.709114 
L 249.965345 -61.157141 
L 251.363341 -61.011396 
L 252.761336 -63.060347 
L 254.159332 -66.777668 
L 255.557328 -66.630963 
L 256.955323 -66.847021 
L 258.353319 -66.999061 
L 259.751315 -67.155474 
L 261.149311 -69.284919 
L 262.547306 -71.086459 
L 263.945302 -81.187929 
L 265.343298 -83.905707 
L 266.741293 -86.179307 
L 268.139289 -86.685654 
L 269.537285 -87.443904 
L 270.935281 -88.01593 
L 272.333276 -88.119842 
L 273.731272 -88.0438 
L 275.129268 -87.95992 
L 276.527263 -90.578145 
L 277.925259 -91.076972 
L 279.323255 -90.552068 
L 280.72125 -89.795348 
L 282.119246 -90.929081 
L 283.517242 -88.574261 
L 284.915238 -88.849636 
L 286.313233 -89.223695 
L 287.711229 -88.603977 
L 289.109225 -88.882677 
L 290.50722 -92.803282 
L 291.905216 -92.026592 
L 293.303212 -91.742996 
L 294.701207 -92.539005 
L 296.099203 -92.848001 
L 297.497199 -92.652968 
L 298.895195 -93.448413 
L 300.29319 -93.893408 
L 301.691186 -93.743455 
L 303.089182 -95.567657 
L 304.487177 -95.009459 
L 305.885173 -98.016264 
L 307.283169 -97.436439 
L 308.681165 -96.004963 
L 310.07916 -95.525347 
L 311.477156 -97.882572 
L 312.875152 -98.512285 
L 314.273147 -98.212471 
L 315.671143 -98.54841 
L 317.069139 -98.184375 
L 318.467134 -99.264908 
L 319.86513 -98.156703 
L 321.263126 -99.725092 
L 322.661122 -101.577157 
L 324.059117 -100.499495 
L 325.457113 -100.91172 
L 326.855109 -100.038114 
L 328.253104 -101.877746 
L 329.6511 -100.990917 
L 331.049096 -101.194378 
L 332.447092 -101.062275 
L 333.845087 -101.614894 
L 335.243083 -101.821106 
L 336.641079 -101.260449 
L 338.039074 -102.438752 
L 339.43707 -100.515543 
L 340.835066 -98.159187 
L 342.233061 -96.234123 
L 343.631057 -96.185515 
L 345.029053 -97.718269 
L 346.427049 -97.706431 
L 347.825044 -97.306629 
L 349.22304 -97.82508 
L 350.621036 -96.32034 
L 352.019031 -95.365644 
L 353.417027 -92.323359 
L 354.815023 -88.78468 
L 356.213019 -88.182132 
L 357.611014 -85.092962 
L 359.00901 -87.276617 
L 360.407006 -84.531211 
L 361.805001 -80.174808 
L 363.202997 -70.632793 
L 364.600993 -70.151804 
L 365.998988 -70.89117 
L 367.396984 -67.688856 
L 368.79498 -67.550926 
L 370.192976 -65.667665 
L 371.590971 -65.184037 
L 372.988967 -61.743551 
L 374.386963 -56.426053 
L 375.784958 -56.669362 
L 377.182954 -54.695558 
L 378.58095 -53.580214 
L 379.978946 -53.530669 
L 381.376941 -50.9647 
L 382.774937 -49.695559 
L 384.172933 -49.588841 
L 385.570928 -49.888911 
L 386.968924 -49.824934 
L 388.36692 -49.732173 
L 389.764915 -47.049633 
L 391.162911 -46.929398 
L 392.560907 -47.175323 
L 393.958903 -46.980088 
L 395.356898 -46.956937 
L 396.754894 -47.136349 
L 398.15289 -46.630179 
L 399.550885 -43.442875 
L 400.948881 -43.467741 
L 402.346877 -43.113676 
L 403.744872 -43.025047 
L 405.142868 -42.988242 
L 406.540864 -43.077802 
L 407.93886 -43.364368 
L 409.336855 -43.137635 
L 410.734851 -42.989967 
L 412.132847 -42.933967 
L 413.530842 -43.436262 
L 414.928838 -42.896445 
L 416.326834 -43.500231 
L 417.72483 -43.266955 
L 417.72483 -41.082707 
L 417.72483 -41.082707 
L 416.326834 -40.940468 
L 414.928838 -40.937535 
L 413.530842 -41.032983 
L 412.132847 -41.000054 
L 410.734851 -40.917214 
L 409.336855 -40.767185 
L 407.93886 -40.937971 
L 406.540864 -40.725325 
L 405.142868 -41.139974 
L 403.744872 -40.779267 
L 402.346877 -40.98733 
L 400.948881 -41.502511 
L 399.550885 -40.924952 
L 398.15289 -43.690112 
L 396.754894 -44.021124 
L 395.356898 -44.193899 
L 393.958903 -44.097023 
L 392.560907 -44.233297 
L 391.162911 -44.137578 
L 389.764915 -44.365522 
L 388.36692 -46.516582 
L 386.968924 -46.788836 
L 385.570928 -46.750683 
L 384.172933 -46.73139 
L 382.774937 -46.931207 
L 381.376941 -47.64945 
L 379.978946 -50.308955 
L 378.58095 -50.216628 
L 377.182954 -51.630057 
L 375.784958 -53.155584 
L 374.386963 -53.277364 
L 372.988967 -57.382514 
L 371.590971 -60.493341 
L 370.192976 -61.055771 
L 368.79498 -62.753295 
L 367.396984 -63.037225 
L 365.998988 -65.618051 
L 364.600993 -65.342222 
L 363.202997 -65.857837 
L 361.805001 -74.347863 
L 360.407006 -77.855777 
L 359.00901 -80.1358 
L 357.611014 -78.721408 
L 356.213019 -82.013611 
L 354.815023 -80.914487 
L 353.417027 -85.327757 
L 352.019031 -87.69708 
L 350.621036 -88.655882 
L 349.22304 -89.339958 
L 347.825044 -90.163705 
L 346.427049 -90.084969 
L 345.029053 -90.220829 
L 343.631057 -87.662115 
L 342.233061 -88.364455 
L 340.835066 -90.191489 
L 339.43707 -93.222788 
L 338.039074 -95.029641 
L 336.641079 -93.390126 
L 335.243083 -93.567373 
L 333.845087 -93.363499 
L 332.447092 -93.44695 
L 331.049096 -93.259468 
L 329.6511 -92.914066 
L 328.253104 -93.278951 
L 326.855109 -93.02334 
L 325.457113 -92.117375 
L 324.059117 -92.644457 
L 322.661122 -93.670696 
L 321.263126 -91.925686 
L 319.86513 -90.520537 
L 318.467134 -92.518279 
L 317.069139 -90.836255 
L 315.671143 -90.856781 
L 314.273147 -91.269994 
L 312.875152 -90.638174 
L 311.477156 -90.181345 
L 310.07916 -88.348096 
L 308.681165 -88.335383 
L 307.283169 -90.584015 
L 305.885173 -90.095271 
L 304.487177 -87.932538 
L 303.089182 -87.711392 
L 301.691186 -86.285472 
L 300.29319 -86.995558 
L 298.895195 -86.078745 
L 297.497199 -85.220519 
L 296.099203 -85.673712 
L 294.701207 -85.213214 
L 293.303212 -84.705943 
L 291.905216 -85.061038 
L 290.50722 -84.854376 
L 289.109225 -81.7227 
L 287.711229 -82.085069 
L 286.313233 -82.070147 
L 284.915238 -81.857794 
L 283.517242 -82.181464 
L 282.119246 -83.412855 
L 280.72125 -82.672172 
L 279.323255 -82.491409 
L 277.925259 -83.807518 
L 276.527263 -84.032375 
L 275.129268 -80.987062 
L 273.731272 -81.059072 
L 272.333276 -80.741265 
L 270.935281 -81.879855 
L 269.537285 -80.363089 
L 268.139289 -80.221432 
L 266.741293 -79.143289 
L 265.343298 -77.092307 
L 263.945302 -74.954889 
L 262.547306 -66.416896 
L 261.149311 -64.17164 
L 259.751315 -62.955698 
L 258.353319 -62.363451 
L 256.955323 -62.723991 
L 255.557328 -62.699309 
L 254.159332 -62.345797 
L 252.761336 -59.228525 
L 251.363341 -57.39802 
L 249.965345 -58.001119 
L 248.567349 -56.192929 
L 247.169354 -56.305228 
L 245.771358 -56.461732 
L 244.373362 -56.345418 
L 242.975366 -53.972493 
L 241.577371 -54.909187 
L 240.179375 -54.529325 
L 238.781379 -54.045666 
L 237.383384 -54.28401 
L 235.985388 -54.393957 
L 234.587392 -50.71358 
L 233.189396 -50.81072 
L 231.791401 -50.582772 
L 230.393405 -50.412323 
L 228.995409 -50.51633 
L 227.597414 -50.398955 
L 226.199418 -49.418921 
L 224.801422 -49.786366 
L 223.403427 -49.385713 
L 222.005431 -49.478794 
L 220.607435 -48.202753 
L 219.209439 -48.094256 
L 217.811444 -48.441946 
L 216.413448 -49.529471 
L 215.015452 -50.738483 
L 213.617457 -51.060301 
L 212.219461 -48.681722 
L 210.821465 -48.530359 
L 209.423469 -48.423226 
L 208.025474 -48.476998 
L 206.627478 -48.78281 
L 205.229482 -48.702104 
L 203.831487 -47.666477 
L 202.433491 -47.631478 
L 201.035495 -47.441589 
L 199.6375 -50.990605 
L 198.239504 -49.275854 
L 196.841508 -49.569903 
L 195.443512 -50.676483 
L 194.045517 -51.074959 
L 192.647521 -50.829216 
L 191.249525 -56.329306 
L 189.85153 -57.981019 
L 188.453534 -57.87095 
L 187.055538 -58.041045 
L 185.657543 -58.018043 
L 184.259547 -58.307968 
L 182.861551 -59.60561 
L 181.463555 -59.405653 
L 180.06556 -59.808004 
L 178.667564 -60.101097 
L 177.269568 -61.54227 
L 175.871573 -59.815207 
L 174.473577 -62.635053 
L 173.075581 -61.990295 
L 171.677585 -62.629221 
L 170.27959 -62.931426 
L 168.881594 -65.224366 
L 167.483598 -65.802476 
L 166.085603 -63.544908 
L 164.687607 -64.325434 
L 163.289611 -65.660494 
L 161.891616 -65.815339 
L 160.49362 -66.775152 
L 159.095624 -65.954791 
L 157.697628 -66.849848 
L 156.299633 -65.874854 
L 154.901637 -66.11309 
L 153.503641 -66.810128 
L 152.105646 -66.866575 
L 150.70765 -66.931574 
L 149.309654 -64.753016 
L 147.911658 -65.603896 
L 146.513663 -65.354928 
L 145.115667 -65.650895 
L 143.717671 -65.886828 
L 142.319676 -65.537052 
L 140.92168 -66.454449 
L 139.523684 -67.626889 
L 138.125689 -67.315308 
L 136.727693 -68.131736 
L 135.329697 -69.181439 
L 133.931701 -73.232553 
L 132.533706 -70.613373 
L 131.13571 -72.958442 
L 129.737714 -72.595712 
L 128.339719 -73.110211 
L 126.941723 -72.18571 
L 125.543727 -72.041324 
L 124.145731 -70.378816 
L 122.747736 -71.281435 
L 121.34974 -70.142176 
L 119.951744 -69.982589 
L 118.553749 -69.652821 
L 117.155753 -68.393183 
L 115.757757 -68.978031 
L 114.359762 -69.940946 
L 112.961766 -77.688588 
L 111.56377 -80.642015 
L 110.165774 -77.448776 
L 108.767779 -81.144851 
L 107.369783 -82.830497 
L 105.971787 -91.685315 
L 104.573792 -89.764282 
L 103.175796 -89.984598 
L 101.7778 -90.561887 
L 100.379804 -90.736997 
L 98.981809 -88.383237 
L 97.583813 -95.275571 
L 96.185817 -100.727549 
L 94.787822 -101.234013 
L 93.389826 -96.040551 
L 91.99183 -96.724595 
L 90.593835 -105.127878 
L 89.195839 -105.20865 
L 87.797843 -105.359108 
L 86.399847 -107.33171 
L 85.001852 -111.095598 
L 83.603856 -115.750909 
L 82.20586 -123.845255 
L 80.807865 -131.163472 
L 79.409869 -143.975058 
L 78.011873 -140.917879 
L 76.613878 -141.707106 
L 75.215882 -144.858581 
L 73.817886 -143.910753 
L 72.41989 -139.261706 
L 71.021895 -150.464071 
L 69.623899 -154.212098 
L 68.225903 -162.115802 
L 66.827908 -169.700123 
L 65.429912 -164.693038 
L 64.031916 -172.909817 
L 62.63392 -177.354535 
z
" style="stroke: #134a8e; stroke-opacity: 0.5; stroke-width: 0.5"/>
    </defs>
    <g clip-path="url(#p91a75a1797)">
     <use xlink:href="#m83b1723625" x="0" y="201.063776" style="fill: #134a8e; fill-opacity: 0.5; stroke: #134a8e; stroke-opacity: 0.5; stroke-width: 0.5"/>
    </g>
   </g>
   <g id="line2d_29">
    <path d="M 62.63392 16.86057 
L 64.031916 21.514684 
L 65.429912 29.920843 
L 66.827908 25.370404 
L 68.225903 33.140829 
L 69.623899 40.017749 
L 71.021895 44.138684 
L 72.41989 56.635889 
L 73.817886 51.873972 
L 75.215882 49.823996 
L 76.613878 53.926205 
L 78.011873 54.302375 
L 79.409869 51.273418 
L 80.807865 64.5526 
L 83.603856 80.72452 
L 85.001852 85.552864 
L 86.399847 89.599754 
L 87.797843 90.991213 
L 89.195839 91.771571 
L 90.593835 91.373417 
L 91.99183 100.602315 
L 93.389826 100.165627 
L 94.787822 95.586968 
L 96.185817 96.154906 
L 97.583813 101.538462 
L 98.981809 109.03673 
L 100.379804 106.623026 
L 101.7778 106.521861 
L 103.175796 107.306085 
L 104.573792 107.750139 
L 105.971787 105.409528 
L 107.369783 114.115574 
L 108.767779 116.804931 
L 110.165774 120.567526 
L 111.56377 117.599372 
L 112.961766 120.704849 
L 114.359762 128.483164 
L 115.757757 129.809487 
L 117.155753 130.221486 
L 118.553749 129.017986 
L 119.951744 128.811678 
L 121.34974 128.445491 
L 122.747736 127.331134 
L 124.145731 127.991586 
L 125.543727 126.524743 
L 126.941723 126.335048 
L 128.339719 125.548544 
L 131.13571 125.673983 
L 132.533706 127.389099 
L 133.931701 125.079958 
L 135.329697 129.590515 
L 136.727693 130.734899 
L 138.125689 131.14123 
L 139.523684 131.265569 
L 140.92168 132.094627 
L 142.319676 133.147477 
L 143.717671 132.607635 
L 145.115667 133.224447 
L 146.513663 133.372601 
L 147.911658 133.128783 
L 149.309654 133.885951 
L 150.70765 131.777178 
L 152.105646 131.63146 
L 153.503641 131.818557 
L 154.901637 132.753233 
L 156.299633 132.878683 
L 157.697628 131.744242 
L 159.095624 132.568909 
L 160.49362 131.757589 
L 161.891616 132.846756 
L 163.289611 132.765624 
L 164.687607 134.513565 
L 166.085603 135.502455 
L 167.483598 133.012352 
L 168.881594 133.500752 
L 170.27959 136.212834 
L 171.677585 136.342623 
L 173.075581 136.667605 
L 174.473577 136.225304 
L 175.871573 138.756845 
L 177.269568 137.467111 
L 178.667564 139.037891 
L 180.06556 139.199482 
L 181.463555 139.696566 
L 182.861551 139.632062 
L 184.259547 141.022719 
L 185.657543 141.053663 
L 187.055538 141.220382 
L 188.453534 141.237492 
L 189.85153 141.102864 
L 191.249525 142.677022 
L 192.647521 148.682669 
L 194.045517 148.499909 
L 195.443512 148.745636 
L 196.841508 149.888335 
L 198.239504 150.273378 
L 199.6375 148.645752 
L 201.035495 152.084812 
L 203.831487 151.924136 
L 205.229482 150.760499 
L 206.627478 150.688744 
L 208.025474 151.224467 
L 210.821465 150.851215 
L 212.219461 150.869486 
L 213.617457 148.511437 
L 215.015452 148.821745 
L 217.811444 151.095806 
L 219.209439 151.366219 
L 220.607435 151.343195 
L 222.005431 150.129949 
L 224.801422 149.821015 
L 226.199418 150.250615 
L 227.597414 149.322859 
L 228.995409 148.996203 
L 230.393405 149.029665 
L 233.189396 148.900346 
L 234.587392 148.896503 
L 235.985388 144.87242 
L 237.383384 145.149425 
L 238.781379 145.194554 
L 240.179375 144.910222 
L 241.577371 144.427359 
L 242.975366 145.270211 
L 244.373362 142.891338 
L 245.771358 142.70804 
L 247.169354 142.827698 
L 248.567349 143.112754 
L 249.965345 141.484645 
L 251.363341 141.859068 
L 252.761336 139.91934 
L 254.159332 136.502043 
L 256.955323 136.27827 
L 258.353319 136.38252 
L 259.751315 136.00819 
L 261.149311 134.335496 
L 262.547306 132.312098 
L 263.945302 122.992367 
L 265.343298 120.564768 
L 266.741293 118.402477 
L 268.139289 117.610233 
L 269.537285 117.160279 
L 270.935281 116.115883 
L 272.333276 116.633222 
L 273.731272 116.51234 
L 275.129268 116.590285 
L 276.527263 113.758516 
L 277.925259 113.621531 
L 279.323255 114.542037 
L 280.72125 114.830015 
L 282.119246 113.892808 
L 283.517242 115.685913 
L 284.915238 115.710061 
L 286.313233 115.416855 
L 287.711229 115.719252 
L 289.109225 115.761087 
L 290.50722 112.234947 
L 293.303212 112.839306 
L 294.701207 112.187666 
L 296.099203 111.802919 
L 297.497199 112.127032 
L 298.895195 111.300196 
L 300.29319 110.619293 
L 301.691186 111.049312 
L 303.089182 109.424251 
L 304.487177 109.592778 
L 305.885173 107.008008 
L 307.283169 107.053549 
L 308.681165 108.893603 
L 310.07916 109.127054 
L 311.477156 107.031817 
L 312.875152 106.488546 
L 314.273147 106.322543 
L 315.671143 106.36118 
L 317.069139 106.55346 
L 318.467134 105.172182 
L 319.86513 106.725156 
L 321.263126 105.238387 
L 322.661122 103.439849 
L 324.059117 104.4918 
L 326.855109 104.533049 
L 328.253104 103.485427 
L 329.6511 104.111284 
L 331.049096 103.836853 
L 332.447092 103.809163 
L 335.243083 103.369536 
L 336.641079 103.738488 
L 338.039074 102.329579 
L 339.43707 104.19461 
L 340.835066 106.888438 
L 342.233061 108.764487 
L 343.631057 109.139961 
L 345.029053 107.094227 
L 347.825044 107.328609 
L 349.22304 107.481257 
L 352.019031 109.532414 
L 353.417027 112.238217 
L 354.815023 116.214192 
L 356.213019 115.965904 
L 357.611014 119.156591 
L 359.00901 117.357567 
L 360.407006 119.870282 
L 361.805001 123.80244 
L 363.202997 132.818461 
L 364.600993 133.316763 
L 365.998988 132.809165 
L 367.396984 135.700735 
L 368.79498 135.911665 
L 370.192976 137.702058 
L 371.590971 138.225086 
L 372.988967 141.500744 
L 374.386963 146.212067 
L 375.784958 146.151303 
L 377.182954 147.900968 
L 378.58095 149.165355 
L 379.978946 149.143964 
L 381.376941 151.756701 
L 382.774937 152.750392 
L 384.172933 152.90366 
L 385.570928 152.743979 
L 386.968924 152.75689 
L 388.36692 152.939398 
L 389.764915 155.356199 
L 391.162911 155.530288 
L 392.560907 155.359466 
L 393.958903 155.52522 
L 396.754894 155.485039 
L 398.15289 155.90363 
L 399.550885 158.879862 
L 400.948881 158.57865 
L 402.346877 159.013273 
L 403.744872 159.161619 
L 405.142868 158.999667 
L 406.540864 159.162212 
L 407.93886 158.912606 
L 409.336855 159.111366 
L 412.132847 159.096766 
L 413.530842 158.829153 
L 414.928838 159.146786 
L 416.326834 158.843426 
L 417.72483 158.888945 
L 417.72483 158.888945 
" clip-path="url(#p91a75a1797)" style="fill: none; stroke: #134a8e; stroke-width: 3; stroke-linecap: square"/>
    <defs>
     <path id="m20d6e1e2ab" d="M 0 1.5 
C 0.397805 1.5 0.77937 1.341951 1.06066 1.06066 
C 1.341951 0.77937 1.5 0.397805 1.5 0 
C 1.5 -0.397805 1.341951 -0.77937 1.06066 -1.06066 
C 0.77937 -1.341951 0.397805 -1.5 0 -1.5 
C -0.397805 -1.5 -0.77937 -1.341951 -1.06066 -1.06066 
C -1.341951 -0.77937 -1.5 -0.397805 -1.5 0 
C -1.5 0.397805 -1.341951 0.77937 -1.06066 1.06066 
C -0.77937 1.341951 -0.397805 1.5 0 1.5 
z
" style="stroke: #134a8e"/>
    </defs>
    <g clip-path="url(#p91a75a1797)">
     <use xlink:href="#m20d6e1e2ab" x="62.63392" y="16.86057" style="fill: #134a8e; stroke: #134a8e"/>
     <use xlink:href="#m20d6e1e2ab" x="64.031916" y="21.514684" style="fill: #134a8e; stroke: #134a8e"/>
     <use xlink:href="#m20d6e1e2ab" x="65.429912" y="29.920843" style="fill: #134a8e; stroke: #134a8e"/>
     <use xlink:href="#m20d6e1e2ab" x="66.827908" y="25.370404" style="fill: #134a8e; stroke: #134a8e"/>
     <use xlink:href="#m20d6e1e2ab" x="68.225903" y="33.140829" style="fill: #134a8e; stroke: #134a8e"/>
     <use xlink:href="#m20d6e1e2ab" x="69.623899" y="40.017749" style="fill: #134a8e; stroke: #134a8e"/>
     <use xlink:href="#m20d6e1e2ab" x="71.021895" y="44.138684" style="fill: #134a8e; stroke: #134a8e"/>
     <use xlink:href="#m20d6e1e2ab" x="72.41989" y="56.635889" style="fill: #134a8e; stroke: #134a8e"/>
     <use xlink:href="#m20d6e1e2ab" x="73.817886" y="51.873972" style="fill: #134a8e; stroke: #134a8e"/>
     <use xlink:href="#m20d6e1e2ab" x="75.215882" y="49.823996" style="fill: #134a8e; stroke: #134a8e"/>
     <use xlink:href="#m20d6e1e2ab" x="76.613878" y="53.926205" style="fill: #134a8e; stroke: #134a8e"/>
     <use xlink:href="#m20d6e1e2ab" x="78.011873" y="54.302375" style="fill: #134a8e; stroke: #134a8e"/>
     <use xlink:href="#m20d6e1e2ab" x="79.409869" y="51.273418" style="fill: #134a8e; stroke: #134a8e"/>
     <use xlink:href="#m20d6e1e2ab" x="80.807865" y="64.5526" style="fill: #134a8e; stroke: #134a8e"/>
     <use xlink:href="#m20d6e1e2ab" x="82.20586" y="72.354296" style="fill: #134a8e; stroke: #134a8e"/>
     <use xlink:href="#m20d6e1e2ab" x="83.603856" y="80.72452" style="fill: #134a8e; stroke: #134a8e"/>
     <use xlink:href="#m20d6e1e2ab" x="85.001852" y="85.552864" style="fill: #134a8e; stroke: #134a8e"/>
     <use xlink:href="#m20d6e1e2ab" x="86.399847" y="89.599754" style="fill: #134a8e; stroke: #134a8e"/>
     <use xlink:href="#m20d6e1e2ab" x="87.797843" y="90.991213" style="fill: #134a8e; stroke: #134a8e"/>
     <use xlink:href="#m20d6e1e2ab" x="89.195839" y="91.771571" style="fill: #134a8e; stroke: #134a8e"/>
     <use xlink:href="#m20d6e1e2ab" x="90.593835" y="91.373417" style="fill: #134a8e; stroke: #134a8e"/>
     <use xlink:href="#m20d6e1e2ab" x="91.99183" y="100.602315" style="fill: #134a8e; stroke: #134a8e"/>
     <use xlink:href="#m20d6e1e2ab" x="93.389826" y="100.165627" style="fill: #134a8e; stroke: #134a8e"/>
     <use xlink:href="#m20d6e1e2ab" x="94.787822" y="95.586968" style="fill: #134a8e; stroke: #134a8e"/>
     <use xlink:href="#m20d6e1e2ab" x="96.185817" y="96.154906" style="fill: #134a8e; stroke: #134a8e"/>
     <use xlink:href="#m20d6e1e2ab" x="97.583813" y="101.538462" style="fill: #134a8e; stroke: #134a8e"/>
     <use xlink:href="#m20d6e1e2ab" x="98.981809" y="109.03673" style="fill: #134a8e; stroke: #134a8e"/>
     <use xlink:href="#m20d6e1e2ab" x="100.379804" y="106.623026" style="fill: #134a8e; stroke: #134a8e"/>
     <use xlink:href="#m20d6e1e2ab" x="101.7778" y="106.521861" style="fill: #134a8e; stroke: #134a8e"/>
     <use xlink:href="#m20d6e1e2ab" x="103.175796" y="107.306085" style="fill: #134a8e; stroke: #134a8e"/>
     <use xlink:href="#m20d6e1e2ab" x="104.573792" y="107.750139" style="fill: #134a8e; stroke: #134a8e"/>
     <use xlink:href="#m20d6e1e2ab" x="105.971787" y="105.409528" style="fill: #134a8e; stroke: #134a8e"/>
     <use xlink:href="#m20d6e1e2ab" x="107.369783" y="114.115574" style="fill: #134a8e; stroke: #134a8e"/>
     <use xlink:href="#m20d6e1e2ab" x="108.767779" y="116.804931" style="fill: #134a8e; stroke: #134a8e"/>
     <use xlink:href="#m20d6e1e2ab" x="110.165774" y="120.567526" style="fill: #134a8e; stroke: #134a8e"/>
     <use xlink:href="#m20d6e1e2ab" x="111.56377" y="117.599372" style="fill: #134a8e; stroke: #134a8e"/>
     <use xlink:href="#m20d6e1e2ab" x="112.961766" y="120.704849" style="fill: #134a8e; stroke: #134a8e"/>
     <use xlink:href="#m20d6e1e2ab" x="114.359762" y="128.483164" style="fill: #134a8e; stroke: #134a8e"/>
     <use xlink:href="#m20d6e1e2ab" x="115.757757" y="129.809487" style="fill: #134a8e; stroke: #134a8e"/>
     <use xlink:href="#m20d6e1e2ab" x="117.155753" y="130.221486" style="fill: #134a8e; stroke: #134a8e"/>
     <use xlink:href="#m20d6e1e2ab" x="118.553749" y="129.017986" style="fill: #134a8e; stroke: #134a8e"/>
     <use xlink:href="#m20d6e1e2ab" x="119.951744" y="128.811678" style="fill: #134a8e; stroke: #134a8e"/>
     <use xlink:href="#m20d6e1e2ab" x="121.34974" y="128.445491" style="fill: #134a8e; stroke: #134a8e"/>
     <use xlink:href="#m20d6e1e2ab" x="122.747736" y="127.331134" style="fill: #134a8e; stroke: #134a8e"/>
     <use xlink:href="#m20d6e1e2ab" x="124.145731" y="127.991586" style="fill: #134a8e; stroke: #134a8e"/>
     <use xlink:href="#m20d6e1e2ab" x="125.543727" y="126.524743" style="fill: #134a8e; stroke: #134a8e"/>
     <use xlink:href="#m20d6e1e2ab" x="126.941723" y="126.335048" style="fill: #134a8e; stroke: #134a8e"/>
     <use xlink:href="#m20d6e1e2ab" x="128.339719" y="125.548544" style="fill: #134a8e; stroke: #134a8e"/>
     <use xlink:href="#m20d6e1e2ab" x="129.737714" y="125.632444" style="fill: #134a8e; stroke: #134a8e"/>
     <use xlink:href="#m20d6e1e2ab" x="131.13571" y="125.673983" style="fill: #134a8e; stroke: #134a8e"/>
     <use xlink:href="#m20d6e1e2ab" x="132.533706" y="127.389099" style="fill: #134a8e; stroke: #134a8e"/>
     <use xlink:href="#m20d6e1e2ab" x="133.931701" y="125.079958" style="fill: #134a8e; stroke: #134a8e"/>
     <use xlink:href="#m20d6e1e2ab" x="135.329697" y="129.590515" style="fill: #134a8e; stroke: #134a8e"/>
     <use xlink:href="#m20d6e1e2ab" x="136.727693" y="130.734899" style="fill: #134a8e; stroke: #134a8e"/>
     <use xlink:href="#m20d6e1e2ab" x="138.125689" y="131.14123" style="fill: #134a8e; stroke: #134a8e"/>
     <use xlink:href="#m20d6e1e2ab" x="139.523684" y="131.265569" style="fill: #134a8e; stroke: #134a8e"/>
     <use xlink:href="#m20d6e1e2ab" x="140.92168" y="132.094627" style="fill: #134a8e; stroke: #134a8e"/>
     <use xlink:href="#m20d6e1e2ab" x="142.319676" y="133.147477" style="fill: #134a8e; stroke: #134a8e"/>
     <use xlink:href="#m20d6e1e2ab" x="143.717671" y="132.607635" style="fill: #134a8e; stroke: #134a8e"/>
     <use xlink:href="#m20d6e1e2ab" x="145.115667" y="133.224447" style="fill: #134a8e; stroke: #134a8e"/>
     <use xlink:href="#m20d6e1e2ab" x="146.513663" y="133.372601" style="fill: #134a8e; stroke: #134a8e"/>
     <use xlink:href="#m20d6e1e2ab" x="147.911658" y="133.128783" style="fill: #134a8e; stroke: #134a8e"/>
     <use xlink:href="#m20d6e1e2ab" x="149.309654" y="133.885951" style="fill: #134a8e; stroke: #134a8e"/>
     <use xlink:href="#m20d6e1e2ab" x="150.70765" y="131.777178" style="fill: #134a8e; stroke: #134a8e"/>
     <use xlink:href="#m20d6e1e2ab" x="152.105646" y="131.63146" style="fill: #134a8e; stroke: #134a8e"/>
     <use xlink:href="#m20d6e1e2ab" x="153.503641" y="131.818557" style="fill: #134a8e; stroke: #134a8e"/>
     <use xlink:href="#m20d6e1e2ab" x="154.901637" y="132.753233" style="fill: #134a8e; stroke: #134a8e"/>
     <use xlink:href="#m20d6e1e2ab" x="156.299633" y="132.878683" style="fill: #134a8e; stroke: #134a8e"/>
     <use xlink:href="#m20d6e1e2ab" x="157.697628" y="131.744242" style="fill: #134a8e; stroke: #134a8e"/>
     <use xlink:href="#m20d6e1e2ab" x="159.095624" y="132.568909" style="fill: #134a8e; stroke: #134a8e"/>
     <use xlink:href="#m20d6e1e2ab" x="160.49362" y="131.757589" style="fill: #134a8e; stroke: #134a8e"/>
     <use xlink:href="#m20d6e1e2ab" x="161.891616" y="132.846756" style="fill: #134a8e; stroke: #134a8e"/>
     <use xlink:href="#m20d6e1e2ab" x="163.289611" y="132.765624" style="fill: #134a8e; stroke: #134a8e"/>
     <use xlink:href="#m20d6e1e2ab" x="164.687607" y="134.513565" style="fill: #134a8e; stroke: #134a8e"/>
     <use xlink:href="#m20d6e1e2ab" x="166.085603" y="135.502455" style="fill: #134a8e; stroke: #134a8e"/>
     <use xlink:href="#m20d6e1e2ab" x="167.483598" y="133.012352" style="fill: #134a8e; stroke: #134a8e"/>
     <use xlink:href="#m20d6e1e2ab" x="168.881594" y="133.500752" style="fill: #134a8e; stroke: #134a8e"/>
     <use xlink:href="#m20d6e1e2ab" x="170.27959" y="136.212834" style="fill: #134a8e; stroke: #134a8e"/>
     <use xlink:href="#m20d6e1e2ab" x="171.677585" y="136.342623" style="fill: #134a8e; stroke: #134a8e"/>
     <use xlink:href="#m20d6e1e2ab" x="173.075581" y="136.667605" style="fill: #134a8e; stroke: #134a8e"/>
     <use xlink:href="#m20d6e1e2ab" x="174.473577" y="136.225304" style="fill: #134a8e; stroke: #134a8e"/>
     <use xlink:href="#m20d6e1e2ab" x="175.871573" y="138.756845" style="fill: #134a8e; stroke: #134a8e"/>
     <use xlink:href="#m20d6e1e2ab" x="177.269568" y="137.467111" style="fill: #134a8e; stroke: #134a8e"/>
     <use xlink:href="#m20d6e1e2ab" x="178.667564" y="139.037891" style="fill: #134a8e; stroke: #134a8e"/>
     <use xlink:href="#m20d6e1e2ab" x="180.06556" y="139.199482" style="fill: #134a8e; stroke: #134a8e"/>
     <use xlink:href="#m20d6e1e2ab" x="181.463555" y="139.696566" style="fill: #134a8e; stroke: #134a8e"/>
     <use xlink:href="#m20d6e1e2ab" x="182.861551" y="139.632062" style="fill: #134a8e; stroke: #134a8e"/>
     <use xlink:href="#m20d6e1e2ab" x="184.259547" y="141.022719" style="fill: #134a8e; stroke: #134a8e"/>
     <use xlink:href="#m20d6e1e2ab" x="185.657543" y="141.053663" style="fill: #134a8e; stroke: #134a8e"/>
     <use xlink:href="#m20d6e1e2ab" x="187.055538" y="141.220382" style="fill: #134a8e; stroke: #134a8e"/>
     <use xlink:href="#m20d6e1e2ab" x="188.453534" y="141.237492" style="fill: #134a8e; stroke: #134a8e"/>
     <use xlink:href="#m20d6e1e2ab" x="189.85153" y="141.102864" style="fill: #134a8e; stroke: #134a8e"/>
     <use xlink:href="#m20d6e1e2ab" x="191.249525" y="142.677022" style="fill: #134a8e; stroke: #134a8e"/>
     <use xlink:href="#m20d6e1e2ab" x="192.647521" y="148.682669" style="fill: #134a8e; stroke: #134a8e"/>
     <use xlink:href="#m20d6e1e2ab" x="194.045517" y="148.499909" style="fill: #134a8e; stroke: #134a8e"/>
     <use xlink:href="#m20d6e1e2ab" x="195.443512" y="148.745636" style="fill: #134a8e; stroke: #134a8e"/>
     <use xlink:href="#m20d6e1e2ab" x="196.841508" y="149.888335" style="fill: #134a8e; stroke: #134a8e"/>
     <use xlink:href="#m20d6e1e2ab" x="198.239504" y="150.273378" style="fill: #134a8e; stroke: #134a8e"/>
     <use xlink:href="#m20d6e1e2ab" x="199.6375" y="148.645752" style="fill: #134a8e; stroke: #134a8e"/>
     <use xlink:href="#m20d6e1e2ab" x="201.035495" y="152.084812" style="fill: #134a8e; stroke: #134a8e"/>
     <use xlink:href="#m20d6e1e2ab" x="202.433491" y="151.993304" style="fill: #134a8e; stroke: #134a8e"/>
     <use xlink:href="#m20d6e1e2ab" x="203.831487" y="151.924136" style="fill: #134a8e; stroke: #134a8e"/>
     <use xlink:href="#m20d6e1e2ab" x="205.229482" y="150.760499" style="fill: #134a8e; stroke: #134a8e"/>
     <use xlink:href="#m20d6e1e2ab" x="206.627478" y="150.688744" style="fill: #134a8e; stroke: #134a8e"/>
     <use xlink:href="#m20d6e1e2ab" x="208.025474" y="151.224467" style="fill: #134a8e; stroke: #134a8e"/>
     <use xlink:href="#m20d6e1e2ab" x="209.423469" y="151.025391" style="fill: #134a8e; stroke: #134a8e"/>
     <use xlink:href="#m20d6e1e2ab" x="210.821465" y="150.851215" style="fill: #134a8e; stroke: #134a8e"/>
     <use xlink:href="#m20d6e1e2ab" x="212.219461" y="150.869486" style="fill: #134a8e; stroke: #134a8e"/>
     <use xlink:href="#m20d6e1e2ab" x="213.617457" y="148.511437" style="fill: #134a8e; stroke: #134a8e"/>
     <use xlink:href="#m20d6e1e2ab" x="215.015452" y="148.821745" style="fill: #134a8e; stroke: #134a8e"/>
     <use xlink:href="#m20d6e1e2ab" x="216.413448" y="149.913689" style="fill: #134a8e; stroke: #134a8e"/>
     <use xlink:href="#m20d6e1e2ab" x="217.811444" y="151.095806" style="fill: #134a8e; stroke: #134a8e"/>
     <use xlink:href="#m20d6e1e2ab" x="219.209439" y="151.366219" style="fill: #134a8e; stroke: #134a8e"/>
     <use xlink:href="#m20d6e1e2ab" x="220.607435" y="151.343195" style="fill: #134a8e; stroke: #134a8e"/>
     <use xlink:href="#m20d6e1e2ab" x="222.005431" y="150.129949" style="fill: #134a8e; stroke: #134a8e"/>
     <use xlink:href="#m20d6e1e2ab" x="223.403427" y="150.019605" style="fill: #134a8e; stroke: #134a8e"/>
     <use xlink:href="#m20d6e1e2ab" x="224.801422" y="149.821015" style="fill: #134a8e; stroke: #134a8e"/>
     <use xlink:href="#m20d6e1e2ab" x="226.199418" y="150.250615" style="fill: #134a8e; stroke: #134a8e"/>
     <use xlink:href="#m20d6e1e2ab" x="227.597414" y="149.322859" style="fill: #134a8e; stroke: #134a8e"/>
     <use xlink:href="#m20d6e1e2ab" x="228.995409" y="148.996203" style="fill: #134a8e; stroke: #134a8e"/>
     <use xlink:href="#m20d6e1e2ab" x="230.393405" y="149.029665" style="fill: #134a8e; stroke: #134a8e"/>
     <use xlink:href="#m20d6e1e2ab" x="231.791401" y="148.92545" style="fill: #134a8e; stroke: #134a8e"/>
     <use xlink:href="#m20d6e1e2ab" x="233.189396" y="148.900346" style="fill: #134a8e; stroke: #134a8e"/>
     <use xlink:href="#m20d6e1e2ab" x="234.587392" y="148.896503" style="fill: #134a8e; stroke: #134a8e"/>
     <use xlink:href="#m20d6e1e2ab" x="235.985388" y="144.87242" style="fill: #134a8e; stroke: #134a8e"/>
     <use xlink:href="#m20d6e1e2ab" x="237.383384" y="145.149425" style="fill: #134a8e; stroke: #134a8e"/>
     <use xlink:href="#m20d6e1e2ab" x="238.781379" y="145.194554" style="fill: #134a8e; stroke: #134a8e"/>
     <use xlink:href="#m20d6e1e2ab" x="240.179375" y="144.910222" style="fill: #134a8e; stroke: #134a8e"/>
     <use xlink:href="#m20d6e1e2ab" x="241.577371" y="144.427359" style="fill: #134a8e; stroke: #134a8e"/>
     <use xlink:href="#m20d6e1e2ab" x="242.975366" y="145.270211" style="fill: #134a8e; stroke: #134a8e"/>
     <use xlink:href="#m20d6e1e2ab" x="244.373362" y="142.891338" style="fill: #134a8e; stroke: #134a8e"/>
     <use xlink:href="#m20d6e1e2ab" x="245.771358" y="142.70804" style="fill: #134a8e; stroke: #134a8e"/>
     <use xlink:href="#m20d6e1e2ab" x="247.169354" y="142.827698" style="fill: #134a8e; stroke: #134a8e"/>
     <use xlink:href="#m20d6e1e2ab" x="248.567349" y="143.112754" style="fill: #134a8e; stroke: #134a8e"/>
     <use xlink:href="#m20d6e1e2ab" x="249.965345" y="141.484645" style="fill: #134a8e; stroke: #134a8e"/>
     <use xlink:href="#m20d6e1e2ab" x="251.363341" y="141.859068" style="fill: #134a8e; stroke: #134a8e"/>
     <use xlink:href="#m20d6e1e2ab" x="252.761336" y="139.91934" style="fill: #134a8e; stroke: #134a8e"/>
     <use xlink:href="#m20d6e1e2ab" x="254.159332" y="136.502043" style="fill: #134a8e; stroke: #134a8e"/>
     <use xlink:href="#m20d6e1e2ab" x="255.557328" y="136.39864" style="fill: #134a8e; stroke: #134a8e"/>
     <use xlink:href="#m20d6e1e2ab" x="256.955323" y="136.27827" style="fill: #134a8e; stroke: #134a8e"/>
     <use xlink:href="#m20d6e1e2ab" x="258.353319" y="136.38252" style="fill: #134a8e; stroke: #134a8e"/>
     <use xlink:href="#m20d6e1e2ab" x="259.751315" y="136.00819" style="fill: #134a8e; stroke: #134a8e"/>
     <use xlink:href="#m20d6e1e2ab" x="261.149311" y="134.335496" style="fill: #134a8e; stroke: #134a8e"/>
     <use xlink:href="#m20d6e1e2ab" x="262.547306" y="132.312098" style="fill: #134a8e; stroke: #134a8e"/>
     <use xlink:href="#m20d6e1e2ab" x="263.945302" y="122.992367" style="fill: #134a8e; stroke: #134a8e"/>
     <use xlink:href="#m20d6e1e2ab" x="265.343298" y="120.564768" style="fill: #134a8e; stroke: #134a8e"/>
     <use xlink:href="#m20d6e1e2ab" x="266.741293" y="118.402477" style="fill: #134a8e; stroke: #134a8e"/>
     <use xlink:href="#m20d6e1e2ab" x="268.139289" y="117.610233" style="fill: #134a8e; stroke: #134a8e"/>
     <use xlink:href="#m20d6e1e2ab" x="269.537285" y="117.160279" style="fill: #134a8e; stroke: #134a8e"/>
     <use xlink:href="#m20d6e1e2ab" x="270.935281" y="116.115883" style="fill: #134a8e; stroke: #134a8e"/>
     <use xlink:href="#m20d6e1e2ab" x="272.333276" y="116.633222" style="fill: #134a8e; stroke: #134a8e"/>
     <use xlink:href="#m20d6e1e2ab" x="273.731272" y="116.51234" style="fill: #134a8e; stroke: #134a8e"/>
     <use xlink:href="#m20d6e1e2ab" x="275.129268" y="116.590285" style="fill: #134a8e; stroke: #134a8e"/>
     <use xlink:href="#m20d6e1e2ab" x="276.527263" y="113.758516" style="fill: #134a8e; stroke: #134a8e"/>
     <use xlink:href="#m20d6e1e2ab" x="277.925259" y="113.621531" style="fill: #134a8e; stroke: #134a8e"/>
     <use xlink:href="#m20d6e1e2ab" x="279.323255" y="114.542037" style="fill: #134a8e; stroke: #134a8e"/>
     <use xlink:href="#m20d6e1e2ab" x="280.72125" y="114.830015" style="fill: #134a8e; stroke: #134a8e"/>
     <use xlink:href="#m20d6e1e2ab" x="282.119246" y="113.892808" style="fill: #134a8e; stroke: #134a8e"/>
     <use xlink:href="#m20d6e1e2ab" x="283.517242" y="115.685913" style="fill: #134a8e; stroke: #134a8e"/>
     <use xlink:href="#m20d6e1e2ab" x="284.915238" y="115.710061" style="fill: #134a8e; stroke: #134a8e"/>
     <use xlink:href="#m20d6e1e2ab" x="286.313233" y="115.416855" style="fill: #134a8e; stroke: #134a8e"/>
     <use xlink:href="#m20d6e1e2ab" x="287.711229" y="115.719252" style="fill: #134a8e; stroke: #134a8e"/>
     <use xlink:href="#m20d6e1e2ab" x="289.109225" y="115.761087" style="fill: #134a8e; stroke: #134a8e"/>
     <use xlink:href="#m20d6e1e2ab" x="290.50722" y="112.234947" style="fill: #134a8e; stroke: #134a8e"/>
     <use xlink:href="#m20d6e1e2ab" x="291.905216" y="112.519961" style="fill: #134a8e; stroke: #134a8e"/>
     <use xlink:href="#m20d6e1e2ab" x="293.303212" y="112.839306" style="fill: #134a8e; stroke: #134a8e"/>
     <use xlink:href="#m20d6e1e2ab" x="294.701207" y="112.187666" style="fill: #134a8e; stroke: #134a8e"/>
     <use xlink:href="#m20d6e1e2ab" x="296.099203" y="111.802919" style="fill: #134a8e; stroke: #134a8e"/>
     <use xlink:href="#m20d6e1e2ab" x="297.497199" y="112.127032" style="fill: #134a8e; stroke: #134a8e"/>
     <use xlink:href="#m20d6e1e2ab" x="298.895195" y="111.300196" style="fill: #134a8e; stroke: #134a8e"/>
     <use xlink:href="#m20d6e1e2ab" x="300.29319" y="110.619293" style="fill: #134a8e; stroke: #134a8e"/>
     <use xlink:href="#m20d6e1e2ab" x="301.691186" y="111.049312" style="fill: #134a8e; stroke: #134a8e"/>
     <use xlink:href="#m20d6e1e2ab" x="303.089182" y="109.424251" style="fill: #134a8e; stroke: #134a8e"/>
     <use xlink:href="#m20d6e1e2ab" x="304.487177" y="109.592778" style="fill: #134a8e; stroke: #134a8e"/>
     <use xlink:href="#m20d6e1e2ab" x="305.885173" y="107.008008" style="fill: #134a8e; stroke: #134a8e"/>
     <use xlink:href="#m20d6e1e2ab" x="307.283169" y="107.053549" style="fill: #134a8e; stroke: #134a8e"/>
     <use xlink:href="#m20d6e1e2ab" x="308.681165" y="108.893603" style="fill: #134a8e; stroke: #134a8e"/>
     <use xlink:href="#m20d6e1e2ab" x="310.07916" y="109.127054" style="fill: #134a8e; stroke: #134a8e"/>
     <use xlink:href="#m20d6e1e2ab" x="311.477156" y="107.031817" style="fill: #134a8e; stroke: #134a8e"/>
     <use xlink:href="#m20d6e1e2ab" x="312.875152" y="106.488546" style="fill: #134a8e; stroke: #134a8e"/>
     <use xlink:href="#m20d6e1e2ab" x="314.273147" y="106.322543" style="fill: #134a8e; stroke: #134a8e"/>
     <use xlink:href="#m20d6e1e2ab" x="315.671143" y="106.36118" style="fill: #134a8e; stroke: #134a8e"/>
     <use xlink:href="#m20d6e1e2ab" x="317.069139" y="106.55346" style="fill: #134a8e; stroke: #134a8e"/>
     <use xlink:href="#m20d6e1e2ab" x="318.467134" y="105.172182" style="fill: #134a8e; stroke: #134a8e"/>
     <use xlink:href="#m20d6e1e2ab" x="319.86513" y="106.725156" style="fill: #134a8e; stroke: #134a8e"/>
     <use xlink:href="#m20d6e1e2ab" x="321.263126" y="105.238387" style="fill: #134a8e; stroke: #134a8e"/>
     <use xlink:href="#m20d6e1e2ab" x="322.661122" y="103.439849" style="fill: #134a8e; stroke: #134a8e"/>
     <use xlink:href="#m20d6e1e2ab" x="324.059117" y="104.4918" style="fill: #134a8e; stroke: #134a8e"/>
     <use xlink:href="#m20d6e1e2ab" x="325.457113" y="104.549228" style="fill: #134a8e; stroke: #134a8e"/>
     <use xlink:href="#m20d6e1e2ab" x="326.855109" y="104.533049" style="fill: #134a8e; stroke: #134a8e"/>
     <use xlink:href="#m20d6e1e2ab" x="328.253104" y="103.485427" style="fill: #134a8e; stroke: #134a8e"/>
     <use xlink:href="#m20d6e1e2ab" x="329.6511" y="104.111284" style="fill: #134a8e; stroke: #134a8e"/>
     <use xlink:href="#m20d6e1e2ab" x="331.049096" y="103.836853" style="fill: #134a8e; stroke: #134a8e"/>
     <use xlink:href="#m20d6e1e2ab" x="332.447092" y="103.809163" style="fill: #134a8e; stroke: #134a8e"/>
     <use xlink:href="#m20d6e1e2ab" x="333.845087" y="103.574579" style="fill: #134a8e; stroke: #134a8e"/>
     <use xlink:href="#m20d6e1e2ab" x="335.243083" y="103.369536" style="fill: #134a8e; stroke: #134a8e"/>
     <use xlink:href="#m20d6e1e2ab" x="336.641079" y="103.738488" style="fill: #134a8e; stroke: #134a8e"/>
     <use xlink:href="#m20d6e1e2ab" x="338.039074" y="102.329579" style="fill: #134a8e; stroke: #134a8e"/>
     <use xlink:href="#m20d6e1e2ab" x="339.43707" y="104.19461" style="fill: #134a8e; stroke: #134a8e"/>
     <use xlink:href="#m20d6e1e2ab" x="340.835066" y="106.888438" style="fill: #134a8e; stroke: #134a8e"/>
     <use xlink:href="#m20d6e1e2ab" x="342.233061" y="108.764487" style="fill: #134a8e; stroke: #134a8e"/>
     <use xlink:href="#m20d6e1e2ab" x="343.631057" y="109.139961" style="fill: #134a8e; stroke: #134a8e"/>
     <use xlink:href="#m20d6e1e2ab" x="345.029053" y="107.094227" style="fill: #134a8e; stroke: #134a8e"/>
     <use xlink:href="#m20d6e1e2ab" x="346.427049" y="107.168076" style="fill: #134a8e; stroke: #134a8e"/>
     <use xlink:href="#m20d6e1e2ab" x="347.825044" y="107.328609" style="fill: #134a8e; stroke: #134a8e"/>
     <use xlink:href="#m20d6e1e2ab" x="349.22304" y="107.481257" style="fill: #134a8e; stroke: #134a8e"/>
     <use xlink:href="#m20d6e1e2ab" x="350.621036" y="108.575665" style="fill: #134a8e; stroke: #134a8e"/>
     <use xlink:href="#m20d6e1e2ab" x="352.019031" y="109.532414" style="fill: #134a8e; stroke: #134a8e"/>
     <use xlink:href="#m20d6e1e2ab" x="353.417027" y="112.238217" style="fill: #134a8e; stroke: #134a8e"/>
     <use xlink:href="#m20d6e1e2ab" x="354.815023" y="116.214192" style="fill: #134a8e; stroke: #134a8e"/>
     <use xlink:href="#m20d6e1e2ab" x="356.213019" y="115.965904" style="fill: #134a8e; stroke: #134a8e"/>
     <use xlink:href="#m20d6e1e2ab" x="357.611014" y="119.156591" style="fill: #134a8e; stroke: #134a8e"/>
     <use xlink:href="#m20d6e1e2ab" x="359.00901" y="117.357567" style="fill: #134a8e; stroke: #134a8e"/>
     <use xlink:href="#m20d6e1e2ab" x="360.407006" y="119.870282" style="fill: #134a8e; stroke: #134a8e"/>
     <use xlink:href="#m20d6e1e2ab" x="361.805001" y="123.80244" style="fill: #134a8e; stroke: #134a8e"/>
     <use xlink:href="#m20d6e1e2ab" x="363.202997" y="132.818461" style="fill: #134a8e; stroke: #134a8e"/>
     <use xlink:href="#m20d6e1e2ab" x="364.600993" y="133.316763" style="fill: #134a8e; stroke: #134a8e"/>
     <use xlink:href="#m20d6e1e2ab" x="365.998988" y="132.809165" style="fill: #134a8e; stroke: #134a8e"/>
     <use xlink:href="#m20d6e1e2ab" x="367.396984" y="135.700735" style="fill: #134a8e; stroke: #134a8e"/>
     <use xlink:href="#m20d6e1e2ab" x="368.79498" y="135.911665" style="fill: #134a8e; stroke: #134a8e"/>
     <use xlink:href="#m20d6e1e2ab" x="370.192976" y="137.702058" style="fill: #134a8e; stroke: #134a8e"/>
     <use xlink:href="#m20d6e1e2ab" x="371.590971" y="138.225086" style="fill: #134a8e; stroke: #134a8e"/>
     <use xlink:href="#m20d6e1e2ab" x="372.988967" y="141.500744" style="fill: #134a8e; stroke: #134a8e"/>
     <use xlink:href="#m20d6e1e2ab" x="374.386963" y="146.212067" style="fill: #134a8e; stroke: #134a8e"/>
     <use xlink:href="#m20d6e1e2ab" x="375.784958" y="146.151303" style="fill: #134a8e; stroke: #134a8e"/>
     <use xlink:href="#m20d6e1e2ab" x="377.182954" y="147.900968" style="fill: #134a8e; stroke: #134a8e"/>
     <use xlink:href="#m20d6e1e2ab" x="378.58095" y="149.165355" style="fill: #134a8e; stroke: #134a8e"/>
     <use xlink:href="#m20d6e1e2ab" x="379.978946" y="149.143964" style="fill: #134a8e; stroke: #134a8e"/>
     <use xlink:href="#m20d6e1e2ab" x="381.376941" y="151.756701" style="fill: #134a8e; stroke: #134a8e"/>
     <use xlink:href="#m20d6e1e2ab" x="382.774937" y="152.750392" style="fill: #134a8e; stroke: #134a8e"/>
     <use xlink:href="#m20d6e1e2ab" x="384.172933" y="152.90366" style="fill: #134a8e; stroke: #134a8e"/>
     <use xlink:href="#m20d6e1e2ab" x="385.570928" y="152.743979" style="fill: #134a8e; stroke: #134a8e"/>
     <use xlink:href="#m20d6e1e2ab" x="386.968924" y="152.75689" style="fill: #134a8e; stroke: #134a8e"/>
     <use xlink:href="#m20d6e1e2ab" x="388.36692" y="152.939398" style="fill: #134a8e; stroke: #134a8e"/>
     <use xlink:href="#m20d6e1e2ab" x="389.764915" y="155.356199" style="fill: #134a8e; stroke: #134a8e"/>
     <use xlink:href="#m20d6e1e2ab" x="391.162911" y="155.530288" style="fill: #134a8e; stroke: #134a8e"/>
     <use xlink:href="#m20d6e1e2ab" x="392.560907" y="155.359466" style="fill: #134a8e; stroke: #134a8e"/>
     <use xlink:href="#m20d6e1e2ab" x="393.958903" y="155.52522" style="fill: #134a8e; stroke: #134a8e"/>
     <use xlink:href="#m20d6e1e2ab" x="395.356898" y="155.488357" style="fill: #134a8e; stroke: #134a8e"/>
     <use xlink:href="#m20d6e1e2ab" x="396.754894" y="155.485039" style="fill: #134a8e; stroke: #134a8e"/>
     <use xlink:href="#m20d6e1e2ab" x="398.15289" y="155.90363" style="fill: #134a8e; stroke: #134a8e"/>
     <use xlink:href="#m20d6e1e2ab" x="399.550885" y="158.879862" style="fill: #134a8e; stroke: #134a8e"/>
     <use xlink:href="#m20d6e1e2ab" x="400.948881" y="158.57865" style="fill: #134a8e; stroke: #134a8e"/>
     <use xlink:href="#m20d6e1e2ab" x="402.346877" y="159.013273" style="fill: #134a8e; stroke: #134a8e"/>
     <use xlink:href="#m20d6e1e2ab" x="403.744872" y="159.161619" style="fill: #134a8e; stroke: #134a8e"/>
     <use xlink:href="#m20d6e1e2ab" x="405.142868" y="158.999667" style="fill: #134a8e; stroke: #134a8e"/>
     <use xlink:href="#m20d6e1e2ab" x="406.540864" y="159.162212" style="fill: #134a8e; stroke: #134a8e"/>
     <use xlink:href="#m20d6e1e2ab" x="407.93886" y="158.912606" style="fill: #134a8e; stroke: #134a8e"/>
     <use xlink:href="#m20d6e1e2ab" x="409.336855" y="159.111366" style="fill: #134a8e; stroke: #134a8e"/>
     <use xlink:href="#m20d6e1e2ab" x="410.734851" y="159.110185" style="fill: #134a8e; stroke: #134a8e"/>
     <use xlink:href="#m20d6e1e2ab" x="412.132847" y="159.096766" style="fill: #134a8e; stroke: #134a8e"/>
     <use xlink:href="#m20d6e1e2ab" x="413.530842" y="158.829153" style="fill: #134a8e; stroke: #134a8e"/>
     <use xlink:href="#m20d6e1e2ab" x="414.928838" y="159.146786" style="fill: #134a8e; stroke: #134a8e"/>
     <use xlink:href="#m20d6e1e2ab" x="416.326834" y="158.843426" style="fill: #134a8e; stroke: #134a8e"/>
     <use xlink:href="#m20d6e1e2ab" x="417.72483" y="158.888945" style="fill: #134a8e; stroke: #134a8e"/>
    </g>
   </g>
   <g id="line2d_30">
    <path d="M 62.63392 22.853741 
L 64.031916 28.013046 
L 65.429912 32.499557 
L 66.827908 26.821425 
L 68.225903 34.409044 
L 69.623899 43.252306 
L 71.021895 46.895028 
L 72.41989 52.13221 
L 73.817886 54.116167 
L 75.215882 54.175353 
L 76.613878 56.468994 
L 78.011873 58.394338 
L 79.409869 53.67415 
L 80.807865 70.106432 
L 82.20586 75.232083 
L 83.603856 81.468371 
L 85.001852 85.077855 
L 86.399847 93.595635 
L 89.195839 98.263827 
L 90.593835 97.524865 
L 91.99183 104.423453 
L 93.389826 105.554436 
L 94.787822 100.271764 
L 96.185817 103.179683 
L 97.583813 107.115144 
L 98.981809 114.435635 
L 101.7778 108.989731 
L 103.175796 111.118783 
L 104.573792 111.432897 
L 105.971787 112.93243 
L 107.369783 115.813757 
L 108.767779 119.413719 
L 110.165774 123.644281 
L 111.56377 119.579496 
L 112.961766 123.23224 
L 114.359762 130.971016 
L 115.757757 131.060822 
L 117.155753 130.94328 
L 118.553749 129.871863 
L 119.951744 129.031273 
L 121.34974 128.470283 
L 122.747736 129.055496 
L 124.145731 128.940077 
L 125.543727 126.983015 
L 126.941723 126.520129 
L 129.737714 125.958086 
L 131.13571 126.713406 
L 132.533706 128.223937 
L 133.931701 128.824288 
L 135.329697 130.071917 
L 136.727693 130.939182 
L 138.125689 132.503343 
L 139.523684 134.656022 
L 140.92168 135.083566 
L 142.319676 134.6414 
L 143.717671 135.766962 
L 145.115667 135.892941 
L 146.513663 134.41561 
L 147.911658 134.568574 
L 149.309654 138.903264 
L 150.70765 133.376199 
L 152.105646 133.991688 
L 153.503641 133.873488 
L 154.901637 133.927674 
L 156.299633 135.164559 
L 159.095624 134.895923 
L 160.49362 134.56589 
L 161.891616 135.468278 
L 163.289611 135.337508 
L 164.687607 137.213653 
L 166.085603 137.013854 
L 167.483598 136.992442 
L 168.881594 136.156125 
L 170.27959 138.411041 
L 173.075581 139.25462 
L 175.871573 140.62874 
L 177.269568 140.623911 
L 178.667564 142.70367 
L 180.06556 141.596136 
L 181.463555 143.500853 
L 182.861551 143.797766 
L 184.259547 143.883215 
L 185.657543 145.218904 
L 187.055538 145.588389 
L 188.453534 147.04319 
L 189.85153 146.022501 
L 191.249525 147.93099 
L 192.647521 149.568354 
L 195.443512 150.608447 
L 196.841508 151.481968 
L 198.239504 151.91948 
L 199.6375 150.858541 
L 201.035495 152.143627 
L 202.433491 152.794023 
L 203.831487 152.483626 
L 205.229482 151.981088 
L 206.627478 152.058691 
L 208.025474 151.734094 
L 209.423469 151.720793 
L 210.821465 152.125961 
L 212.219461 151.61106 
L 213.617457 150.934392 
L 215.015452 150.691801 
L 216.413448 151.391511 
L 217.811444 151.347805 
L 219.209439 151.919197 
L 220.607435 151.496554 
L 222.005431 151.402146 
L 223.403427 151.574917 
L 226.199418 152.091373 
L 228.995409 151.590798 
L 230.393405 151.039361 
L 233.189396 151.57799 
L 234.587392 151.270847 
L 235.985388 149.983702 
L 237.383384 149.117397 
L 238.781379 149.065782 
L 240.179375 148.495372 
L 241.577371 148.191671 
L 242.975366 147.727427 
L 244.373362 147.060737 
L 245.771358 146.072719 
L 247.169354 145.253508 
L 248.567349 145.707248 
L 249.965345 144.043246 
L 251.363341 142.563844 
L 252.761336 141.828833 
L 254.159332 139.221517 
L 255.557328 138.458595 
L 256.955323 139.421023 
L 258.353319 139.262515 
L 259.751315 136.50767 
L 261.149311 135.157364 
L 262.547306 134.531423 
L 263.945302 130.78967 
L 265.343298 129.576212 
L 266.741293 128.576435 
L 268.139289 127.409125 
L 269.537285 127.471758 
L 270.935281 126.09744 
L 272.333276 125.9126 
L 273.731272 127.519638 
L 275.129268 126.24688 
L 276.527263 121.441069 
L 277.925259 120.256291 
L 279.323255 122.577761 
L 280.72125 121.192575 
L 282.119246 119.53258 
L 283.517242 122.54355 
L 284.915238 121.871913 
L 286.313233 120.104355 
L 287.711229 120.192354 
L 289.109225 119.080953 
L 290.50722 117.799684 
L 291.905216 116.926484 
L 294.701207 117.124786 
L 296.099203 116.733107 
L 297.497199 117.938884 
L 298.895195 115.018415 
L 300.29319 115.076947 
L 301.691186 115.962282 
L 303.089182 114.636318 
L 304.487177 115.513234 
L 305.885173 114.221662 
L 307.283169 114.688691 
L 308.681165 114.142563 
L 310.07916 113.835595 
L 311.477156 111.907253 
L 312.875152 112.145226 
L 314.273147 111.75606 
L 315.671143 112.126005 
L 317.069139 113.078735 
L 318.467134 112.363815 
L 319.86513 110.955115 
L 321.263126 108.639584 
L 322.661122 108.441443 
L 324.059117 108.124092 
L 326.855109 110.545313 
L 328.253104 106.527325 
L 329.6511 108.202024 
L 331.049096 106.451753 
L 332.447092 104.408214 
L 333.845087 105.947913 
L 335.243083 104.399982 
L 336.641079 105.160579 
L 338.039074 104.685368 
L 339.43707 105.437378 
L 340.835066 107.02076 
L 342.233061 108.369629 
L 343.631057 107.408254 
L 345.029053 109.931646 
L 346.427049 109.463776 
L 347.825044 113.239773 
L 349.22304 113.61483 
L 350.621036 116.117704 
L 352.019031 116.739692 
L 353.417027 117.876194 
L 354.815023 121.486128 
L 356.213019 121.757625 
L 357.611014 122.879914 
L 359.00901 123.581961 
L 360.407006 127.174981 
L 361.805001 129.007942 
L 363.202997 132.252962 
L 365.998988 134.505777 
L 367.396984 136.72045 
L 370.192976 141.893626 
L 371.590971 143.209447 
L 372.988967 145.735771 
L 374.386963 146.30586 
L 375.784958 146.441626 
L 377.182954 148.876467 
L 378.58095 150.317419 
L 379.978946 151.142327 
L 381.376941 152.486373 
L 382.774937 153.428332 
L 384.172933 154.11311 
L 385.570928 153.715905 
L 386.968924 154.870004 
L 388.36692 155.672965 
L 391.162911 156.872716 
L 392.560907 156.798565 
L 393.958903 157.651892 
L 395.356898 157.334603 
L 396.754894 158.130013 
L 398.15289 158.412366 
L 399.550885 158.9425 
L 400.948881 158.962575 
L 402.346877 159.175384 
L 405.142868 159.263646 
L 406.540864 159.829399 
L 407.93886 159.726266 
L 410.734851 159.848581 
L 412.132847 160.136252 
L 413.530842 159.838931 
L 414.928838 161.211901 
L 416.326834 159.364726 
L 417.72483 159.418284 
L 417.72483 159.418284 
" clip-path="url(#p91a75a1797)" style="fill: none; stroke-dasharray: 5.55,2.4; stroke-dashoffset: 0; stroke: #000000; stroke-width: 1.5"/>
   </g>
   <g id="patch_3">
    <path d="M 44.879375 168.771901 
L 44.879375 2.451901 
" style="fill: none; stroke: #ffffff; stroke-linejoin: miter; stroke-linecap: square"/>
   </g>
   <g id="patch_4">
    <path d="M 435.479375 168.771901 
L 435.479375 2.451901 
" style="fill: none; stroke: #ffffff; stroke-linejoin: miter; stroke-linecap: square"/>
   </g>
   <g id="patch_5">
    <path d="M 44.879375 168.771901 
L 435.479375 168.771901 
" style="fill: none; stroke: #ffffff; stroke-linejoin: miter; stroke-linecap: square"/>
   </g>
   <g id="patch_6">
    <path d="M 44.879375 2.451901 
L 435.479375 2.451901 
" style="fill: none; stroke: #ffffff; stroke-linejoin: miter; stroke-linecap: square"/>
   </g>
   <g id="legend_1">
    <g id="patch_7">
     <path d="M 276.4325 62.830026 
L 428.479375 62.830026 
Q 430.479375 62.830026 430.479375 60.830026 
L 430.479375 9.451901 
Q 430.479375 7.451901 428.479375 7.451901 
L 276.4325 7.451901 
Q 274.4325 7.451901 274.4325 9.451901 
L 274.4325 60.830026 
Q 274.4325 62.830026 276.4325 62.830026 
z
" style="fill: #e5e5e5; opacity: 0.8; stroke: #cccccc; stroke-width: 0.5; stroke-linejoin: miter"/>
    </g>
    <g id="line2d_31">
     <path d="M 278.4325 17.951901 
L 288.4325 17.951901 
L 298.4325 17.951901 
" style="fill: none; stroke: #134a8e; stroke-width: 3; stroke-linecap: square"/>
     <g>
      <use xlink:href="#m20d6e1e2ab" x="288.4325" y="17.951901" style="fill: #134a8e; stroke: #134a8e"/>
     </g>
    </g>
    <g id="text_17">
     <!-- Private Value $\tilde{R}_{\chi_1,\chi_2}^t$ -->
     <g transform="translate(306.4325 21.451901) scale(0.1 -0.1)">
      <defs>
       <path id="DejaVuSans-50" d="M 1259 4147 
L 1259 2394 
L 2053 2394 
Q 2494 2394 2734 2622 
Q 2975 2850 2975 3272 
Q 2975 3691 2734 3919 
Q 2494 4147 2053 4147 
L 1259 4147 
z
M 628 4666 
L 2053 4666 
Q 2838 4666 3239 4311 
Q 3641 3956 3641 3272 
Q 3641 2581 3239 2228 
Q 2838 1875 2053 1875 
L 1259 1875 
L 1259 0 
L 628 0 
L 628 4666 
z
" transform="scale(0.015625)"/>
       <path id="DejaVuSans-72" d="M 2631 2963 
Q 2534 3019 2420 3045 
Q 2306 3072 2169 3072 
Q 1681 3072 1420 2755 
Q 1159 2438 1159 1844 
L 1159 0 
L 581 0 
L 581 3500 
L 1159 3500 
L 1159 2956 
Q 1341 3275 1631 3429 
Q 1922 3584 2338 3584 
Q 2397 3584 2469 3576 
Q 2541 3569 2628 3553 
L 2631 2963 
z
" transform="scale(0.015625)"/>
       <path id="DejaVuSans-69" d="M 603 3500 
L 1178 3500 
L 1178 0 
L 603 0 
L 603 3500 
z
M 603 4863 
L 1178 4863 
L 1178 4134 
L 603 4134 
L 603 4863 
z
" transform="scale(0.015625)"/>
       <path id="DejaVuSans-76" d="M 191 3500 
L 800 3500 
L 1894 563 
L 2988 3500 
L 3597 3500 
L 2284 0 
L 1503 0 
L 191 3500 
z
" transform="scale(0.015625)"/>
       <path id="DejaVuSans-20" transform="scale(0.015625)"/>
       <path id="DejaVuSans-303" d="M -1621 4281 
L -1799 4453 
Q -1867 4516 -1919 4545 
Q -1971 4575 -2011 4575 
Q -2130 4575 -2186 4461 
Q -2242 4347 -2249 4091 
L -2639 4091 
Q -2633 4513 -2473 4742 
Q -2314 4972 -2030 4972 
Q -1911 4972 -1811 4928 
Q -1711 4884 -1596 4781 
L -1417 4609 
Q -1349 4547 -1297 4517 
Q -1246 4488 -1205 4488 
Q -1086 4488 -1030 4602 
Q -974 4716 -967 4972 
L -577 4972 
Q -583 4550 -742 4320 
Q -902 4091 -1186 4091 
Q -1305 4091 -1405 4134 
Q -1505 4178 -1621 4281 
z
" transform="scale(0.015625)"/>
       <path id="DejaVuSans-Oblique-52" d="M 1613 4147 
L 1294 2491 
L 2106 2491 
Q 2584 2491 2879 2755 
Q 3175 3019 3175 3444 
Q 3175 3784 2976 3965 
Q 2778 4147 2406 4147 
L 1613 4147 
z
M 2772 2241 
Q 2972 2194 3105 2009 
Q 3238 1825 3413 1275 
L 3809 0 
L 3144 0 
L 2778 1197 
Q 2638 1659 2453 1815 
Q 2269 1972 1888 1972 
L 1191 1972 
L 806 0 
L 172 0 
L 1081 4666 
L 2503 4666 
Q 3150 4666 3495 4373 
Q 3841 4081 3841 3531 
Q 3841 3044 3547 2687 
Q 3253 2331 2772 2241 
z
" transform="scale(0.015625)"/>
       <path id="DejaVuSans-Oblique-74" d="M 2706 3500 
L 2619 3053 
L 1472 3053 
L 1100 1153 
Q 1081 1047 1072 975 
Q 1063 903 1063 863 
Q 1063 663 1183 572 
Q 1303 481 1569 481 
L 2150 481 
L 2053 0 
L 1503 0 
Q 991 0 739 200 
Q 488 400 488 806 
Q 488 878 497 964 
Q 506 1050 525 1153 
L 897 3053 
L 409 3053 
L 500 3500 
L 978 3500 
L 1172 4494 
L 1747 4494 
L 1556 3500 
L 2706 3500 
z
" transform="scale(0.015625)"/>
       <path id="DejaVuSans-Oblique-3c7" d="M 1922 -781 
L 1691 416 
L 394 -1334 
L -284 -1334 
L 1553 1141 
L 1269 2613 
Q 1194 3006 713 3006 
L 559 3006 
L 653 3500 
L 872 3494 
Q 1675 3472 1775 2950 
L 2006 1753 
L 3303 3503 
L 3981 3503 
L 2144 1028 
L 2428 -444 
Q 2503 -838 2984 -838 
L 3138 -838 
L 3044 -1331 
L 2825 -1325 
Q 2022 -1303 1922 -781 
z
" transform="scale(0.015625)"/>
       <path id="DejaVuSans-2c" d="M 750 794 
L 1409 794 
L 1409 256 
L 897 -744 
L 494 -744 
L 750 256 
L 750 794 
z
" transform="scale(0.015625)"/>
      </defs>
      <use xlink:href="#DejaVuSans-50" transform="translate(0 0.828125)"/>
      <use xlink:href="#DejaVuSans-72" transform="translate(60.302734 0.828125)"/>
      <use xlink:href="#DejaVuSans-69" transform="translate(101.416016 0.828125)"/>
      <use xlink:href="#DejaVuSans-76" transform="translate(129.199219 0.828125)"/>
      <use xlink:href="#DejaVuSans-61" transform="translate(188.378906 0.828125)"/>
      <use xlink:href="#DejaVuSans-74" transform="translate(249.658203 0.828125)"/>
      <use xlink:href="#DejaVuSans-65" transform="translate(288.867188 0.828125)"/>
      <use xlink:href="#DejaVuSans-20" transform="translate(350.390625 0.828125)"/>
      <use xlink:href="#DejaVuSans-56" transform="translate(382.177734 0.828125)"/>
      <use xlink:href="#DejaVuSans-61" transform="translate(450.585938 0.828125)"/>
      <use xlink:href="#DejaVuSans-6c" transform="translate(511.865234 0.828125)"/>
      <use xlink:href="#DejaVuSans-75" transform="translate(539.648438 0.828125)"/>
      <use xlink:href="#DejaVuSans-65" transform="translate(603.027344 0.828125)"/>
      <use xlink:href="#DejaVuSans-20" transform="translate(664.550781 0.828125)"/>
      <use xlink:href="#DejaVuSans-303" transform="translate(764.942871 22.3125)"/>
      <use xlink:href="#DejaVuSans-Oblique-52" transform="translate(696.337891 0.828125)"/>
      <use xlink:href="#DejaVuSans-Oblique-74" transform="translate(766.777344 39.109375) scale(0.7)"/>
      <use xlink:href="#DejaVuSans-Oblique-3c7" transform="translate(766.777344 -26.515625) scale(0.7)"/>
      <use xlink:href="#DejaVuSans-31" transform="translate(808.203125 -38) scale(0.49)"/>
      <use xlink:href="#DejaVuSans-2c" transform="translate(841.29248 -26.515625) scale(0.7)"/>
      <use xlink:href="#DejaVuSans-Oblique-3c7" transform="translate(877.181152 -26.515625) scale(0.7)"/>
      <use xlink:href="#DejaVuSans-32" transform="translate(918.606934 -38) scale(0.49)"/>
     </g>
    </g>
    <g id="line2d_32">
     <path d="M 278.4325 36.451901 
L 288.4325 36.451901 
L 298.4325 36.451901 
" style="fill: none; stroke-dasharray: 5.55,2.4; stroke-dashoffset: 0; stroke: #000000; stroke-width: 1.5"/>
    </g>
    <g id="text_18">
     <!-- Original Value $\bar{R}_{\chi_1,\chi_2}^t$ -->
     <g transform="translate(306.4325 39.951901) scale(0.1 -0.1)">
      <defs>
       <path id="DejaVuSans-4f" d="M 2522 4238 
Q 1834 4238 1429 3725 
Q 1025 3213 1025 2328 
Q 1025 1447 1429 934 
Q 1834 422 2522 422 
Q 3209 422 3611 934 
Q 4013 1447 4013 2328 
Q 4013 3213 3611 3725 
Q 3209 4238 2522 4238 
z
M 2522 4750 
Q 3503 4750 4090 4092 
Q 4678 3434 4678 2328 
Q 4678 1225 4090 567 
Q 3503 -91 2522 -91 
Q 1538 -91 948 565 
Q 359 1222 359 2328 
Q 359 3434 948 4092 
Q 1538 4750 2522 4750 
z
" transform="scale(0.015625)"/>
       <path id="DejaVuSans-67" d="M 2906 1791 
Q 2906 2416 2648 2759 
Q 2391 3103 1925 3103 
Q 1463 3103 1205 2759 
Q 947 2416 947 1791 
Q 947 1169 1205 825 
Q 1463 481 1925 481 
Q 2391 481 2648 825 
Q 2906 1169 2906 1791 
z
M 3481 434 
Q 3481 -459 3084 -895 
Q 2688 -1331 1869 -1331 
Q 1566 -1331 1297 -1286 
Q 1028 -1241 775 -1147 
L 775 -588 
Q 1028 -725 1275 -790 
Q 1522 -856 1778 -856 
Q 2344 -856 2625 -561 
Q 2906 -266 2906 331 
L 2906 616 
Q 2728 306 2450 153 
Q 2172 0 1784 0 
Q 1141 0 747 490 
Q 353 981 353 1791 
Q 353 2603 747 3093 
Q 1141 3584 1784 3584 
Q 2172 3584 2450 3431 
Q 2728 3278 2906 2969 
L 2906 3500 
L 3481 3500 
L 3481 434 
z
" transform="scale(0.015625)"/>
       <path id="DejaVuSans-6e" d="M 3513 2113 
L 3513 0 
L 2938 0 
L 2938 2094 
Q 2938 2591 2744 2837 
Q 2550 3084 2163 3084 
Q 1697 3084 1428 2787 
Q 1159 2491 1159 1978 
L 1159 0 
L 581 0 
L 581 3500 
L 1159 3500 
L 1159 2956 
Q 1366 3272 1645 3428 
Q 1925 3584 2291 3584 
Q 2894 3584 3203 3211 
Q 3513 2838 3513 2113 
z
" transform="scale(0.015625)"/>
       <path id="DejaVuSans-304" d="M -2518 4769 
L -650 4769 
L -650 4306 
L -2518 4306 
L -2518 4769 
z
" transform="scale(0.015625)"/>
      </defs>
      <use xlink:href="#DejaVuSans-4f" transform="translate(0 0.359375)"/>
      <use xlink:href="#DejaVuSans-72" transform="translate(78.710938 0.359375)"/>
      <use xlink:href="#DejaVuSans-69" transform="translate(119.824219 0.359375)"/>
      <use xlink:href="#DejaVuSans-67" transform="translate(147.607422 0.359375)"/>
      <use xlink:href="#DejaVuSans-69" transform="translate(211.083984 0.359375)"/>
      <use xlink:href="#DejaVuSans-6e" transform="translate(238.867188 0.359375)"/>
      <use xlink:href="#DejaVuSans-61" transform="translate(302.246094 0.359375)"/>
      <use xlink:href="#DejaVuSans-6c" transform="translate(363.525391 0.359375)"/>
      <use xlink:href="#DejaVuSans-20" transform="translate(391.308594 0.359375)"/>
      <use xlink:href="#DejaVuSans-56" transform="translate(423.095703 0.359375)"/>
      <use xlink:href="#DejaVuSans-61" transform="translate(491.503906 0.359375)"/>
      <use xlink:href="#DejaVuSans-6c" transform="translate(552.783203 0.359375)"/>
      <use xlink:href="#DejaVuSans-75" transform="translate(580.566406 0.359375)"/>
      <use xlink:href="#DejaVuSans-65" transform="translate(643.945312 0.359375)"/>
      <use xlink:href="#DejaVuSans-20" transform="translate(705.46875 0.359375)"/>
      <use xlink:href="#DejaVuSans-304" transform="translate(804.970215 18.484375)"/>
      <use xlink:href="#DejaVuSans-Oblique-52" transform="translate(737.255859 0.359375)"/>
      <use xlink:href="#DejaVuSans-Oblique-74" transform="translate(807.695312 38.640625) scale(0.7)"/>
      <use xlink:href="#DejaVuSans-Oblique-3c7" transform="translate(807.695312 -26.984375) scale(0.7)"/>
      <use xlink:href="#DejaVuSans-31" transform="translate(849.121094 -38.46875) scale(0.49)"/>
      <use xlink:href="#DejaVuSans-2c" transform="translate(882.210449 -26.984375) scale(0.7)"/>
      <use xlink:href="#DejaVuSans-Oblique-3c7" transform="translate(918.099121 -26.984375) scale(0.7)"/>
      <use xlink:href="#DejaVuSans-32" transform="translate(959.524902 -38.46875) scale(0.49)"/>
     </g>
    </g>
    <g id="patch_8">
     <path d="M 278.4325 56.750338 
L 298.4325 56.750338 
L 298.4325 49.750338 
L 278.4325 49.750338 
z
" style="fill: #134a8e; fill-opacity: 0.5; stroke: #134a8e; stroke-opacity: 0.5; stroke-width: 0.5; stroke-linejoin: miter"/>
    </g>
    <g id="text_19">
     <!-- One Standard Deviation -->
     <g transform="translate(306.4325 56.750338) scale(0.1 -0.1)">
      <defs>
       <path id="DejaVuSans-53" d="M 3425 4513 
L 3425 3897 
Q 3066 4069 2747 4153 
Q 2428 4238 2131 4238 
Q 1616 4238 1336 4038 
Q 1056 3838 1056 3469 
Q 1056 3159 1242 3001 
Q 1428 2844 1947 2747 
L 2328 2669 
Q 3034 2534 3370 2195 
Q 3706 1856 3706 1288 
Q 3706 609 3251 259 
Q 2797 -91 1919 -91 
Q 1588 -91 1214 -16 
Q 841 59 441 206 
L 441 856 
Q 825 641 1194 531 
Q 1563 422 1919 422 
Q 2459 422 2753 634 
Q 3047 847 3047 1241 
Q 3047 1584 2836 1778 
Q 2625 1972 2144 2069 
L 1759 2144 
Q 1053 2284 737 2584 
Q 422 2884 422 3419 
Q 422 4038 858 4394 
Q 1294 4750 2059 4750 
Q 2388 4750 2728 4690 
Q 3069 4631 3425 4513 
z
" transform="scale(0.015625)"/>
       <path id="DejaVuSans-64" d="M 2906 2969 
L 2906 4863 
L 3481 4863 
L 3481 0 
L 2906 0 
L 2906 525 
Q 2725 213 2448 61 
Q 2172 -91 1784 -91 
Q 1150 -91 751 415 
Q 353 922 353 1747 
Q 353 2572 751 3078 
Q 1150 3584 1784 3584 
Q 2172 3584 2448 3432 
Q 2725 3281 2906 2969 
z
M 947 1747 
Q 947 1113 1208 752 
Q 1469 391 1925 391 
Q 2381 391 2643 752 
Q 2906 1113 2906 1747 
Q 2906 2381 2643 2742 
Q 2381 3103 1925 3103 
Q 1469 3103 1208 2742 
Q 947 2381 947 1747 
z
" transform="scale(0.015625)"/>
       <path id="DejaVuSans-6f" d="M 1959 3097 
Q 1497 3097 1228 2736 
Q 959 2375 959 1747 
Q 959 1119 1226 758 
Q 1494 397 1959 397 
Q 2419 397 2687 759 
Q 2956 1122 2956 1747 
Q 2956 2369 2687 2733 
Q 2419 3097 1959 3097 
z
M 1959 3584 
Q 2709 3584 3137 3096 
Q 3566 2609 3566 1747 
Q 3566 888 3137 398 
Q 2709 -91 1959 -91 
Q 1206 -91 779 398 
Q 353 888 353 1747 
Q 353 2609 779 3096 
Q 1206 3584 1959 3584 
z
" transform="scale(0.015625)"/>
      </defs>
      <use xlink:href="#DejaVuSans-4f"/>
      <use xlink:href="#DejaVuSans-6e" x="78.710938"/>
      <use xlink:href="#DejaVuSans-65" x="142.089844"/>
      <use xlink:href="#DejaVuSans-20" x="203.613281"/>
      <use xlink:href="#DejaVuSans-53" x="235.400391"/>
      <use xlink:href="#DejaVuSans-74" x="298.876953"/>
      <use xlink:href="#DejaVuSans-61" x="338.085938"/>
      <use xlink:href="#DejaVuSans-6e" x="399.365234"/>
      <use xlink:href="#DejaVuSans-64" x="462.744141"/>
      <use xlink:href="#DejaVuSans-61" x="526.220703"/>
      <use xlink:href="#DejaVuSans-72" x="587.5"/>
      <use xlink:href="#DejaVuSans-64" x="626.863281"/>
      <use xlink:href="#DejaVuSans-20" x="690.339844"/>
      <use xlink:href="#DejaVuSans-44" x="722.126953"/>
      <use xlink:href="#DejaVuSans-65" x="799.128906"/>
      <use xlink:href="#DejaVuSans-76" x="860.652344"/>
      <use xlink:href="#DejaVuSans-69" x="919.832031"/>
      <use xlink:href="#DejaVuSans-61" x="947.615234"/>
      <use xlink:href="#DejaVuSans-74" x="1008.894531"/>
      <use xlink:href="#DejaVuSans-69" x="1048.103516"/>
      <use xlink:href="#DejaVuSans-6f" x="1075.886719"/>
      <use xlink:href="#DejaVuSans-6e" x="1137.068359"/>
     </g>
    </g>
   </g>
  </g>
 </g>
 <defs>
  <clipPath id="p91a75a1797">
   <rect x="44.879375" y="2.451901" width="390.6" height="166.32"/>
  </clipPath>
 </defs>
</svg>
