<?xml version="1.0" encoding="utf-8" standalone="no"?>
<!DOCTYPE svg PUBLIC "-//W3C//DTD SVG 1.1//EN"
  "http://www.w3.org/Graphics/SVG/1.1/DTD/svg11.dtd">
<svg xmlns:xlink="http://www.w3.org/1999/xlink" width="444.375067pt" height="198.611875pt" viewBox="0 0 444.375067 198.611875" xmlns="http://www.w3.org/2000/svg" version="1.1">
 <metadata>
  <rdf:RDF xmlns:dc="http://purl.org/dc/elements/1.1/" xmlns:cc="http://creativecommons.org/ns#" xmlns:rdf="http://www.w3.org/1999/02/22-rdf-syntax-ns#">
   <cc:Work>
    <dc:type rdf:resource="http://purl.org/dc/dcmitype/StillImage"/>
    <dc:date>2024-09-18T15:47:41.838402</dc:date>
    <dc:format>image/svg+xml</dc:format>
    <dc:creator>
     <cc:Agent>
      <dc:title>Matplotlib v3.7.5, https://matplotlib.org/</dc:title>
     </cc:Agent>
    </dc:creator>
   </cc:Work>
  </rdf:RDF>
 </metadata>
 <defs>
  <style type="text/css">*{stroke-linejoin: round; stroke-linecap: butt}</style>
 </defs>
 <g id="figure_1">
  <g id="patch_1">
   <path d="M 0 198.611875 
L 444.375067 198.611875 
L 444.375067 0 
L 0 0 
z
" style="fill: #ffffff"/>
  </g>
  <g id="axes_1">
   <g id="patch_2">
    <path d="M 44.879375 166.32 
L 435.479375 166.32 
L 435.479375 0 
L 44.879375 0 
z
" style="fill: #e5e5e5"/>
   </g>
   <g id="matplotlib.axis_1">
    <g id="xtick_1">
     <g id="line2d_1">
      <path d="M 72.41989 166.32 
L 72.41989 0 
" clip-path="url(#pae968ce082)" style="fill: none; stroke: #ffffff; stroke-width: 0.8; stroke-linecap: square"/>
     </g>
     <g id="line2d_2">
      <defs>
       <path id="m1c6cf230c5" d="M 0 0 
L 0 3.5 
" style="stroke: #555555; stroke-width: 0.8"/>
      </defs>
      <g>
       <use xlink:href="#m1c6cf230c5" x="72.41989" y="166.32" style="fill: #555555; stroke: #555555; stroke-width: 0.8"/>
      </g>
     </g>
     <g id="text_1">
      <!-- 08/16/20 -->
      <g style="fill: #555555" transform="translate(49.96364 180.918438) scale(0.1 -0.1)">
       <defs>
        <path id="DejaVuSans-30" d="M 2034 4250 
Q 1547 4250 1301 3770 
Q 1056 3291 1056 2328 
Q 1056 1369 1301 889 
Q 1547 409 2034 409 
Q 2525 409 2770 889 
Q 3016 1369 3016 2328 
Q 3016 3291 2770 3770 
Q 2525 4250 2034 4250 
z
M 2034 4750 
Q 2819 4750 3233 4129 
Q 3647 3509 3647 2328 
Q 3647 1150 3233 529 
Q 2819 -91 2034 -91 
Q 1250 -91 836 529 
Q 422 1150 422 2328 
Q 422 3509 836 4129 
Q 1250 4750 2034 4750 
z
" transform="scale(0.015625)"/>
        <path id="DejaVuSans-38" d="M 2034 2216 
Q 1584 2216 1326 1975 
Q 1069 1734 1069 1313 
Q 1069 891 1326 650 
Q 1584 409 2034 409 
Q 2484 409 2743 651 
Q 3003 894 3003 1313 
Q 3003 1734 2745 1975 
Q 2488 2216 2034 2216 
z
M 1403 2484 
Q 997 2584 770 2862 
Q 544 3141 544 3541 
Q 544 4100 942 4425 
Q 1341 4750 2034 4750 
Q 2731 4750 3128 4425 
Q 3525 4100 3525 3541 
Q 3525 3141 3298 2862 
Q 3072 2584 2669 2484 
Q 3125 2378 3379 2068 
Q 3634 1759 3634 1313 
Q 3634 634 3220 271 
Q 2806 -91 2034 -91 
Q 1263 -91 848 271 
Q 434 634 434 1313 
Q 434 1759 690 2068 
Q 947 2378 1403 2484 
z
M 1172 3481 
Q 1172 3119 1398 2916 
Q 1625 2713 2034 2713 
Q 2441 2713 2670 2916 
Q 2900 3119 2900 3481 
Q 2900 3844 2670 4047 
Q 2441 4250 2034 4250 
Q 1625 4250 1398 4047 
Q 1172 3844 1172 3481 
z
" transform="scale(0.015625)"/>
        <path id="DejaVuSans-2f" d="M 1625 4666 
L 2156 4666 
L 531 -594 
L 0 -594 
L 1625 4666 
z
" transform="scale(0.015625)"/>
        <path id="DejaVuSans-31" d="M 794 531 
L 1825 531 
L 1825 4091 
L 703 3866 
L 703 4441 
L 1819 4666 
L 2450 4666 
L 2450 531 
L 3481 531 
L 3481 0 
L 794 0 
L 794 531 
z
" transform="scale(0.015625)"/>
        <path id="DejaVuSans-36" d="M 2113 2584 
Q 1688 2584 1439 2293 
Q 1191 2003 1191 1497 
Q 1191 994 1439 701 
Q 1688 409 2113 409 
Q 2538 409 2786 701 
Q 3034 994 3034 1497 
Q 3034 2003 2786 2293 
Q 2538 2584 2113 2584 
z
M 3366 4563 
L 3366 3988 
Q 3128 4100 2886 4159 
Q 2644 4219 2406 4219 
Q 1781 4219 1451 3797 
Q 1122 3375 1075 2522 
Q 1259 2794 1537 2939 
Q 1816 3084 2150 3084 
Q 2853 3084 3261 2657 
Q 3669 2231 3669 1497 
Q 3669 778 3244 343 
Q 2819 -91 2113 -91 
Q 1303 -91 875 529 
Q 447 1150 447 2328 
Q 447 3434 972 4092 
Q 1497 4750 2381 4750 
Q 2619 4750 2861 4703 
Q 3103 4656 3366 4563 
z
" transform="scale(0.015625)"/>
        <path id="DejaVuSans-32" d="M 1228 531 
L 3431 531 
L 3431 0 
L 469 0 
L 469 531 
Q 828 903 1448 1529 
Q 2069 2156 2228 2338 
Q 2531 2678 2651 2914 
Q 2772 3150 2772 3378 
Q 2772 3750 2511 3984 
Q 2250 4219 1831 4219 
Q 1534 4219 1204 4116 
Q 875 4013 500 3803 
L 500 4441 
Q 881 4594 1212 4672 
Q 1544 4750 1819 4750 
Q 2544 4750 2975 4387 
Q 3406 4025 3406 3419 
Q 3406 3131 3298 2873 
Q 3191 2616 2906 2266 
Q 2828 2175 2409 1742 
Q 1991 1309 1228 531 
z
" transform="scale(0.015625)"/>
       </defs>
       <use xlink:href="#DejaVuSans-30"/>
       <use xlink:href="#DejaVuSans-38" x="63.623047"/>
       <use xlink:href="#DejaVuSans-2f" x="127.246094"/>
       <use xlink:href="#DejaVuSans-31" x="160.9375"/>
       <use xlink:href="#DejaVuSans-36" x="224.560547"/>
       <use xlink:href="#DejaVuSans-2f" x="288.183594"/>
       <use xlink:href="#DejaVuSans-32" x="321.875"/>
       <use xlink:href="#DejaVuSans-30" x="385.498047"/>
      </g>
     </g>
    </g>
    <g id="xtick_2">
     <g id="line2d_3">
      <path d="M 142.319676 166.32 
L 142.319676 0 
" clip-path="url(#pae968ce082)" style="fill: none; stroke: #ffffff; stroke-width: 0.8; stroke-linecap: square"/>
     </g>
     <g id="line2d_4">
      <g>
       <use xlink:href="#m1c6cf230c5" x="142.319676" y="166.32" style="fill: #555555; stroke: #555555; stroke-width: 0.8"/>
      </g>
     </g>
     <g id="text_2">
      <!-- 10/05/20 -->
      <g style="fill: #555555" transform="translate(119.863426 180.918438) scale(0.1 -0.1)">
       <defs>
        <path id="DejaVuSans-35" d="M 691 4666 
L 3169 4666 
L 3169 4134 
L 1269 4134 
L 1269 2991 
Q 1406 3038 1543 3061 
Q 1681 3084 1819 3084 
Q 2600 3084 3056 2656 
Q 3513 2228 3513 1497 
Q 3513 744 3044 326 
Q 2575 -91 1722 -91 
Q 1428 -91 1123 -41 
Q 819 9 494 109 
L 494 744 
Q 775 591 1075 516 
Q 1375 441 1709 441 
Q 2250 441 2565 725 
Q 2881 1009 2881 1497 
Q 2881 1984 2565 2268 
Q 2250 2553 1709 2553 
Q 1456 2553 1204 2497 
Q 953 2441 691 2322 
L 691 4666 
z
" transform="scale(0.015625)"/>
       </defs>
       <use xlink:href="#DejaVuSans-31"/>
       <use xlink:href="#DejaVuSans-30" x="63.623047"/>
       <use xlink:href="#DejaVuSans-2f" x="127.246094"/>
       <use xlink:href="#DejaVuSans-30" x="160.9375"/>
       <use xlink:href="#DejaVuSans-35" x="224.560547"/>
       <use xlink:href="#DejaVuSans-2f" x="288.183594"/>
       <use xlink:href="#DejaVuSans-32" x="321.875"/>
       <use xlink:href="#DejaVuSans-30" x="385.498047"/>
      </g>
     </g>
    </g>
    <g id="xtick_3">
     <g id="line2d_5">
      <path d="M 212.219461 166.32 
L 212.219461 0 
" clip-path="url(#pae968ce082)" style="fill: none; stroke: #ffffff; stroke-width: 0.8; stroke-linecap: square"/>
     </g>
     <g id="line2d_6">
      <g>
       <use xlink:href="#m1c6cf230c5" x="212.219461" y="166.32" style="fill: #555555; stroke: #555555; stroke-width: 0.8"/>
      </g>
     </g>
     <g id="text_3">
      <!-- 11/24/20 -->
      <g style="fill: #555555" transform="translate(189.763211 180.918438) scale(0.1 -0.1)">
       <defs>
        <path id="DejaVuSans-34" d="M 2419 4116 
L 825 1625 
L 2419 1625 
L 2419 4116 
z
M 2253 4666 
L 3047 4666 
L 3047 1625 
L 3713 1625 
L 3713 1100 
L 3047 1100 
L 3047 0 
L 2419 0 
L 2419 1100 
L 313 1100 
L 313 1709 
L 2253 4666 
z
" transform="scale(0.015625)"/>
       </defs>
       <use xlink:href="#DejaVuSans-31"/>
       <use xlink:href="#DejaVuSans-31" x="63.623047"/>
       <use xlink:href="#DejaVuSans-2f" x="127.246094"/>
       <use xlink:href="#DejaVuSans-32" x="160.9375"/>
       <use xlink:href="#DejaVuSans-34" x="224.560547"/>
       <use xlink:href="#DejaVuSans-2f" x="288.183594"/>
       <use xlink:href="#DejaVuSans-32" x="321.875"/>
       <use xlink:href="#DejaVuSans-30" x="385.498047"/>
      </g>
     </g>
    </g>
    <g id="xtick_4">
     <g id="line2d_7">
      <path d="M 282.119246 166.32 
L 282.119246 0 
" clip-path="url(#pae968ce082)" style="fill: none; stroke: #ffffff; stroke-width: 0.8; stroke-linecap: square"/>
     </g>
     <g id="line2d_8">
      <g>
       <use xlink:href="#m1c6cf230c5" x="282.119246" y="166.32" style="fill: #555555; stroke: #555555; stroke-width: 0.8"/>
      </g>
     </g>
     <g id="text_4">
      <!-- 01/13/21 -->
      <g style="fill: #555555" transform="translate(259.662996 180.918438) scale(0.1 -0.1)">
       <defs>
        <path id="DejaVuSans-33" d="M 2597 2516 
Q 3050 2419 3304 2112 
Q 3559 1806 3559 1356 
Q 3559 666 3084 287 
Q 2609 -91 1734 -91 
Q 1441 -91 1130 -33 
Q 819 25 488 141 
L 488 750 
Q 750 597 1062 519 
Q 1375 441 1716 441 
Q 2309 441 2620 675 
Q 2931 909 2931 1356 
Q 2931 1769 2642 2001 
Q 2353 2234 1838 2234 
L 1294 2234 
L 1294 2753 
L 1863 2753 
Q 2328 2753 2575 2939 
Q 2822 3125 2822 3475 
Q 2822 3834 2567 4026 
Q 2313 4219 1838 4219 
Q 1578 4219 1281 4162 
Q 984 4106 628 3988 
L 628 4550 
Q 988 4650 1302 4700 
Q 1616 4750 1894 4750 
Q 2613 4750 3031 4423 
Q 3450 4097 3450 3541 
Q 3450 3153 3228 2886 
Q 3006 2619 2597 2516 
z
" transform="scale(0.015625)"/>
       </defs>
       <use xlink:href="#DejaVuSans-30"/>
       <use xlink:href="#DejaVuSans-31" x="63.623047"/>
       <use xlink:href="#DejaVuSans-2f" x="127.246094"/>
       <use xlink:href="#DejaVuSans-31" x="160.9375"/>
       <use xlink:href="#DejaVuSans-33" x="224.560547"/>
       <use xlink:href="#DejaVuSans-2f" x="288.183594"/>
       <use xlink:href="#DejaVuSans-32" x="321.875"/>
       <use xlink:href="#DejaVuSans-31" x="385.498047"/>
      </g>
     </g>
    </g>
    <g id="xtick_5">
     <g id="line2d_9">
      <path d="M 352.019031 166.32 
L 352.019031 0 
" clip-path="url(#pae968ce082)" style="fill: none; stroke: #ffffff; stroke-width: 0.8; stroke-linecap: square"/>
     </g>
     <g id="line2d_10">
      <g>
       <use xlink:href="#m1c6cf230c5" x="352.019031" y="166.32" style="fill: #555555; stroke: #555555; stroke-width: 0.8"/>
      </g>
     </g>
     <g id="text_5">
      <!-- 03/04/21 -->
      <g style="fill: #555555" transform="translate(329.562781 180.918438) scale(0.1 -0.1)">
       <use xlink:href="#DejaVuSans-30"/>
       <use xlink:href="#DejaVuSans-33" x="63.623047"/>
       <use xlink:href="#DejaVuSans-2f" x="127.246094"/>
       <use xlink:href="#DejaVuSans-30" x="160.9375"/>
       <use xlink:href="#DejaVuSans-34" x="224.560547"/>
       <use xlink:href="#DejaVuSans-2f" x="288.183594"/>
       <use xlink:href="#DejaVuSans-32" x="321.875"/>
       <use xlink:href="#DejaVuSans-31" x="385.498047"/>
      </g>
     </g>
    </g>
    <g id="xtick_6">
     <g id="line2d_11">
      <path d="M 421.918817 166.32 
L 421.918817 0 
" clip-path="url(#pae968ce082)" style="fill: none; stroke: #ffffff; stroke-width: 0.8; stroke-linecap: square"/>
     </g>
     <g id="line2d_12">
      <g>
       <use xlink:href="#m1c6cf230c5" x="421.918817" y="166.32" style="fill: #555555; stroke: #555555; stroke-width: 0.8"/>
      </g>
     </g>
     <g id="text_6">
      <!-- 04/23/21 -->
      <g style="fill: #555555" transform="translate(399.462567 180.918438) scale(0.1 -0.1)">
       <use xlink:href="#DejaVuSans-30"/>
       <use xlink:href="#DejaVuSans-34" x="63.623047"/>
       <use xlink:href="#DejaVuSans-2f" x="127.246094"/>
       <use xlink:href="#DejaVuSans-32" x="160.9375"/>
       <use xlink:href="#DejaVuSans-33" x="224.560547"/>
       <use xlink:href="#DejaVuSans-2f" x="288.183594"/>
       <use xlink:href="#DejaVuSans-32" x="321.875"/>
       <use xlink:href="#DejaVuSans-31" x="385.498047"/>
      </g>
     </g>
    </g>
    <g id="text_7">
     <!-- Date -->
     <g style="fill: #555555" transform="translate(225.838438 196.11625) scale(0.12 -0.12)">
      <defs>
       <path id="DejaVuSans-44" d="M 1259 4147 
L 1259 519 
L 2022 519 
Q 2988 519 3436 956 
Q 3884 1394 3884 2338 
Q 3884 3275 3436 3711 
Q 2988 4147 2022 4147 
L 1259 4147 
z
M 628 4666 
L 1925 4666 
Q 3281 4666 3915 4102 
Q 4550 3538 4550 2338 
Q 4550 1131 3912 565 
Q 3275 0 1925 0 
L 628 0 
L 628 4666 
z
" transform="scale(0.015625)"/>
       <path id="DejaVuSans-61" d="M 2194 1759 
Q 1497 1759 1228 1600 
Q 959 1441 959 1056 
Q 959 750 1161 570 
Q 1363 391 1709 391 
Q 2188 391 2477 730 
Q 2766 1069 2766 1631 
L 2766 1759 
L 2194 1759 
z
M 3341 1997 
L 3341 0 
L 2766 0 
L 2766 531 
Q 2569 213 2275 61 
Q 1981 -91 1556 -91 
Q 1019 -91 701 211 
Q 384 513 384 1019 
Q 384 1609 779 1909 
Q 1175 2209 1959 2209 
L 2766 2209 
L 2766 2266 
Q 2766 2663 2505 2880 
Q 2244 3097 1772 3097 
Q 1472 3097 1187 3025 
Q 903 2953 641 2809 
L 641 3341 
Q 956 3463 1253 3523 
Q 1550 3584 1831 3584 
Q 2591 3584 2966 3190 
Q 3341 2797 3341 1997 
z
" transform="scale(0.015625)"/>
       <path id="DejaVuSans-74" d="M 1172 4494 
L 1172 3500 
L 2356 3500 
L 2356 3053 
L 1172 3053 
L 1172 1153 
Q 1172 725 1289 603 
Q 1406 481 1766 481 
L 2356 481 
L 2356 0 
L 1766 0 
Q 1100 0 847 248 
Q 594 497 594 1153 
L 594 3053 
L 172 3053 
L 172 3500 
L 594 3500 
L 594 4494 
L 1172 4494 
z
" transform="scale(0.015625)"/>
       <path id="DejaVuSans-65" d="M 3597 1894 
L 3597 1613 
L 953 1613 
Q 991 1019 1311 708 
Q 1631 397 2203 397 
Q 2534 397 2845 478 
Q 3156 559 3463 722 
L 3463 178 
Q 3153 47 2828 -22 
Q 2503 -91 2169 -91 
Q 1331 -91 842 396 
Q 353 884 353 1716 
Q 353 2575 817 3079 
Q 1281 3584 2069 3584 
Q 2775 3584 3186 3129 
Q 3597 2675 3597 1894 
z
M 3022 2063 
Q 3016 2534 2758 2815 
Q 2500 3097 2075 3097 
Q 1594 3097 1305 2825 
Q 1016 2553 972 2059 
L 3022 2063 
z
" transform="scale(0.015625)"/>
      </defs>
      <use xlink:href="#DejaVuSans-44"/>
      <use xlink:href="#DejaVuSans-61" x="77.001953"/>
      <use xlink:href="#DejaVuSans-74" x="138.28125"/>
      <use xlink:href="#DejaVuSans-65" x="177.490234"/>
     </g>
    </g>
   </g>
   <g id="matplotlib.axis_2">
    <g id="ytick_1">
     <g id="line2d_13">
      <path d="M 44.879375 146.998163 
L 435.479375 146.998163 
" clip-path="url(#pae968ce082)" style="fill: none; stroke: #ffffff; stroke-width: 0.8; stroke-linecap: square"/>
     </g>
     <g id="line2d_14">
      <defs>
       <path id="m06bf5e1006" d="M 0 0 
L -3.5 0 
" style="stroke: #555555; stroke-width: 0.8"/>
      </defs>
      <g>
       <use xlink:href="#m06bf5e1006" x="44.879375" y="146.998163" style="fill: #555555; stroke: #555555; stroke-width: 0.8"/>
      </g>
     </g>
     <g id="text_8">
      <!-- 0.05 -->
      <g style="fill: #555555" transform="translate(15.61375 150.797381) scale(0.1 -0.1)">
       <defs>
        <path id="DejaVuSans-2e" d="M 684 794 
L 1344 794 
L 1344 0 
L 684 0 
L 684 794 
z
" transform="scale(0.015625)"/>
       </defs>
       <use xlink:href="#DejaVuSans-30"/>
       <use xlink:href="#DejaVuSans-2e" x="63.623047"/>
       <use xlink:href="#DejaVuSans-30" x="95.410156"/>
       <use xlink:href="#DejaVuSans-35" x="159.033203"/>
      </g>
     </g>
    </g>
    <g id="ytick_2">
     <g id="line2d_15">
      <path d="M 44.879375 125.90233 
L 435.479375 125.90233 
" clip-path="url(#pae968ce082)" style="fill: none; stroke: #ffffff; stroke-width: 0.8; stroke-linecap: square"/>
     </g>
     <g id="line2d_16">
      <g>
       <use xlink:href="#m06bf5e1006" x="44.879375" y="125.90233" style="fill: #555555; stroke: #555555; stroke-width: 0.8"/>
      </g>
     </g>
     <g id="text_9">
      <!-- 0.10 -->
      <g style="fill: #555555" transform="translate(15.61375 129.701548) scale(0.1 -0.1)">
       <use xlink:href="#DejaVuSans-30"/>
       <use xlink:href="#DejaVuSans-2e" x="63.623047"/>
       <use xlink:href="#DejaVuSans-31" x="95.410156"/>
       <use xlink:href="#DejaVuSans-30" x="159.033203"/>
      </g>
     </g>
    </g>
    <g id="ytick_3">
     <g id="line2d_17">
      <path d="M 44.879375 104.806497 
L 435.479375 104.806497 
" clip-path="url(#pae968ce082)" style="fill: none; stroke: #ffffff; stroke-width: 0.8; stroke-linecap: square"/>
     </g>
     <g id="line2d_18">
      <g>
       <use xlink:href="#m06bf5e1006" x="44.879375" y="104.806497" style="fill: #555555; stroke: #555555; stroke-width: 0.8"/>
      </g>
     </g>
     <g id="text_10">
      <!-- 0.15 -->
      <g style="fill: #555555" transform="translate(15.61375 108.605716) scale(0.1 -0.1)">
       <use xlink:href="#DejaVuSans-30"/>
       <use xlink:href="#DejaVuSans-2e" x="63.623047"/>
       <use xlink:href="#DejaVuSans-31" x="95.410156"/>
       <use xlink:href="#DejaVuSans-35" x="159.033203"/>
      </g>
     </g>
    </g>
    <g id="ytick_4">
     <g id="line2d_19">
      <path d="M 44.879375 83.710664 
L 435.479375 83.710664 
" clip-path="url(#pae968ce082)" style="fill: none; stroke: #ffffff; stroke-width: 0.8; stroke-linecap: square"/>
     </g>
     <g id="line2d_20">
      <g>
       <use xlink:href="#m06bf5e1006" x="44.879375" y="83.710664" style="fill: #555555; stroke: #555555; stroke-width: 0.8"/>
      </g>
     </g>
     <g id="text_11">
      <!-- 0.20 -->
      <g style="fill: #555555" transform="translate(15.61375 87.509883) scale(0.1 -0.1)">
       <use xlink:href="#DejaVuSans-30"/>
       <use xlink:href="#DejaVuSans-2e" x="63.623047"/>
       <use xlink:href="#DejaVuSans-32" x="95.410156"/>
       <use xlink:href="#DejaVuSans-30" x="159.033203"/>
      </g>
     </g>
    </g>
    <g id="ytick_5">
     <g id="line2d_21">
      <path d="M 44.879375 62.614831 
L 435.479375 62.614831 
" clip-path="url(#pae968ce082)" style="fill: none; stroke: #ffffff; stroke-width: 0.8; stroke-linecap: square"/>
     </g>
     <g id="line2d_22">
      <g>
       <use xlink:href="#m06bf5e1006" x="44.879375" y="62.614831" style="fill: #555555; stroke: #555555; stroke-width: 0.8"/>
      </g>
     </g>
     <g id="text_12">
      <!-- 0.25 -->
      <g style="fill: #555555" transform="translate(15.61375 66.41405) scale(0.1 -0.1)">
       <use xlink:href="#DejaVuSans-30"/>
       <use xlink:href="#DejaVuSans-2e" x="63.623047"/>
       <use xlink:href="#DejaVuSans-32" x="95.410156"/>
       <use xlink:href="#DejaVuSans-35" x="159.033203"/>
      </g>
     </g>
    </g>
    <g id="ytick_6">
     <g id="line2d_23">
      <path d="M 44.879375 41.518998 
L 435.479375 41.518998 
" clip-path="url(#pae968ce082)" style="fill: none; stroke: #ffffff; stroke-width: 0.8; stroke-linecap: square"/>
     </g>
     <g id="line2d_24">
      <g>
       <use xlink:href="#m06bf5e1006" x="44.879375" y="41.518998" style="fill: #555555; stroke: #555555; stroke-width: 0.8"/>
      </g>
     </g>
     <g id="text_13">
      <!-- 0.30 -->
      <g style="fill: #555555" transform="translate(15.61375 45.318217) scale(0.1 -0.1)">
       <use xlink:href="#DejaVuSans-30"/>
       <use xlink:href="#DejaVuSans-2e" x="63.623047"/>
       <use xlink:href="#DejaVuSans-33" x="95.410156"/>
       <use xlink:href="#DejaVuSans-30" x="159.033203"/>
      </g>
     </g>
    </g>
    <g id="ytick_7">
     <g id="line2d_25">
      <path d="M 44.879375 20.423165 
L 435.479375 20.423165 
" clip-path="url(#pae968ce082)" style="fill: none; stroke: #ffffff; stroke-width: 0.8; stroke-linecap: square"/>
     </g>
     <g id="line2d_26">
      <g>
       <use xlink:href="#m06bf5e1006" x="44.879375" y="20.423165" style="fill: #555555; stroke: #555555; stroke-width: 0.8"/>
      </g>
     </g>
     <g id="text_14">
      <!-- 0.35 -->
      <g style="fill: #555555" transform="translate(15.61375 24.222384) scale(0.1 -0.1)">
       <use xlink:href="#DejaVuSans-30"/>
       <use xlink:href="#DejaVuSans-2e" x="63.623047"/>
       <use xlink:href="#DejaVuSans-33" x="95.410156"/>
       <use xlink:href="#DejaVuSans-35" x="159.033203"/>
      </g>
     </g>
    </g>
    <g id="text_15">
     <!-- Value -->
     <g style="fill: #555555" transform="translate(9.118125 99.6375) rotate(-90) scale(0.12 -0.12)">
      <defs>
       <path id="DejaVuSans-56" d="M 1831 0 
L 50 4666 
L 709 4666 
L 2188 738 
L 3669 4666 
L 4325 4666 
L 2547 0 
L 1831 0 
z
" transform="scale(0.015625)"/>
       <path id="DejaVuSans-6c" d="M 603 4863 
L 1178 4863 
L 1178 0 
L 603 0 
L 603 4863 
z
" transform="scale(0.015625)"/>
       <path id="DejaVuSans-75" d="M 544 1381 
L 544 3500 
L 1119 3500 
L 1119 1403 
Q 1119 906 1312 657 
Q 1506 409 1894 409 
Q 2359 409 2629 706 
Q 2900 1003 2900 1516 
L 2900 3500 
L 3475 3500 
L 3475 0 
L 2900 0 
L 2900 538 
Q 2691 219 2414 64 
Q 2138 -91 1772 -91 
Q 1169 -91 856 284 
Q 544 659 544 1381 
z
M 1991 3584 
L 1991 3584 
z
" transform="scale(0.015625)"/>
      </defs>
      <use xlink:href="#DejaVuSans-56"/>
      <use xlink:href="#DejaVuSans-61" x="60.658203"/>
      <use xlink:href="#DejaVuSans-6c" x="121.9375"/>
      <use xlink:href="#DejaVuSans-75" x="149.720703"/>
      <use xlink:href="#DejaVuSans-65" x="213.099609"/>
     </g>
    </g>
   </g>
   <g id="PolyCollection_1">
    <defs>
     <path id="mbb1670704f" d="M 62.63392 -177.645299 
L 62.63392 -191.051875 
L 64.031916 -189.192327 
L 65.429912 -178.637052 
L 66.827908 -183.289333 
L 68.225903 -175.556642 
L 69.623899 -169.679128 
L 71.021895 -163.277482 
L 72.41989 -152.687552 
L 73.817886 -156.363248 
L 75.215882 -159.113808 
L 76.613878 -154.585066 
L 78.011873 -153.964596 
L 79.409869 -154.953901 
L 80.807865 -144.526151 
L 82.20586 -136.064019 
L 83.603856 -125.554442 
L 85.001852 -121.4707 
L 86.399847 -116.539686 
L 87.797843 -117.332037 
L 89.195839 -115.531785 
L 90.593835 -115.040958 
L 91.99183 -106.106914 
L 93.389826 -105.849696 
L 94.787822 -111.647543 
L 96.185817 -110.496984 
L 97.583813 -106.592958 
L 98.981809 -95.873506 
L 100.379804 -100.571932 
L 101.7778 -98.568882 
L 103.175796 -99.017984 
L 104.573792 -99.239049 
L 105.971787 -100.715633 
L 107.369783 -91.607324 
L 108.767779 -87.680529 
L 110.165774 -83.917088 
L 111.56377 -88.490839 
L 112.961766 -84.817302 
L 114.359762 -75.907049 
L 115.757757 -74.640167 
L 117.155753 -74.104394 
L 118.553749 -75.157154 
L 119.951744 -75.457782 
L 121.34974 -76.006081 
L 122.747736 -76.084914 
L 124.145731 -76.937991 
L 125.543727 -76.606851 
L 126.941723 -78.345046 
L 128.339719 -78.385348 
L 129.737714 -78.694225 
L 131.13571 -78.314029 
L 132.533706 -77.213686 
L 133.931701 -79.996672 
L 135.329697 -74.876816 
L 136.727693 -73.531229 
L 138.125689 -73.287847 
L 139.523684 -72.471852 
L 140.92168 -72.632586 
L 142.319676 -71.029692 
L 143.717671 -70.391183 
L 145.115667 -70.98712 
L 146.513663 -71.02614 
L 147.911658 -70.867602 
L 149.309654 -69.998686 
L 150.70765 -72.198628 
L 152.105646 -71.724963 
L 153.503641 -71.986721 
L 154.901637 -71.340594 
L 156.299633 -70.487437 
L 157.697628 -72.176846 
L 159.095624 -70.870644 
L 160.49362 -72.625845 
L 161.891616 -71.442905 
L 163.289611 -71.502653 
L 164.687607 -68.390789 
L 166.085603 -67.962601 
L 167.483598 -71.059521 
L 168.881594 -70.603868 
L 170.27959 -67.3696 
L 171.677585 -67.590954 
L 173.075581 -67.105319 
L 174.473577 -66.554473 
L 175.871573 -65.343982 
L 177.269568 -66.105119 
L 178.667564 -64.501562 
L 180.06556 -64.224661 
L 181.463555 -63.927565 
L 182.861551 -63.809434 
L 184.259547 -61.983872 
L 185.657543 -62.552335 
L 187.055538 -62.447252 
L 188.453534 -62.207398 
L 189.85153 -62.07697 
L 191.249525 -60.761921 
L 192.647521 -54.457298 
L 194.045517 -54.376156 
L 195.443512 -54.230309 
L 196.841508 -53.155022 
L 198.239504 -52.850707 
L 199.6375 -54.285988 
L 201.035495 -50.636696 
L 202.433491 -50.489929 
L 203.831487 -50.485499 
L 205.229482 -51.819693 
L 206.627478 -52.026067 
L 208.025474 -51.648549 
L 209.423469 -51.64179 
L 210.821465 -51.631993 
L 212.219461 -51.583666 
L 213.617457 -54.119336 
L 215.015452 -54.389264 
L 216.413448 -52.972383 
L 217.811444 -51.638659 
L 219.209439 -51.605339 
L 220.607435 -51.873374 
L 222.005431 -52.640879 
L 223.403427 -52.727394 
L 224.801422 -52.411082 
L 226.199418 -52.509017 
L 227.597414 -53.817689 
L 228.995409 -53.736815 
L 230.393405 -53.780131 
L 231.791401 -53.617902 
L 233.189396 -53.607042 
L 234.587392 -53.702322 
L 235.985388 -57.990386 
L 237.383384 -57.880403 
L 238.781379 -58.057239 
L 240.179375 -57.792184 
L 241.577371 -58.577878 
L 242.975366 -57.960848 
L 244.373362 -59.465904 
L 245.771358 -60.074419 
L 247.169354 -60.813304 
L 248.567349 -60.2516 
L 249.965345 -61.593146 
L 251.363341 -61.608448 
L 252.761336 -63.75588 
L 254.159332 -67.01476 
L 255.557328 -67.163527 
L 256.955323 -66.797875 
L 258.353319 -67.513123 
L 259.751315 -67.375202 
L 261.149311 -69.997326 
L 262.547306 -71.977364 
L 263.945302 -81.986099 
L 265.343298 -83.774192 
L 266.741293 -87.620241 
L 268.139289 -87.551535 
L 269.537285 -87.914504 
L 270.935281 -90.055433 
L 272.333276 -88.742956 
L 273.731272 -88.668424 
L 275.129268 -89.227133 
L 276.527263 -91.059626 
L 277.925259 -92.027641 
L 279.323255 -92.086108 
L 280.72125 -91.548344 
L 282.119246 -92.139578 
L 283.517242 -89.393646 
L 284.915238 -89.893246 
L 286.313233 -90.358198 
L 287.711229 -89.796565 
L 289.109225 -89.709667 
L 290.50722 -93.429323 
L 291.905216 -93.179319 
L 293.303212 -93.952232 
L 294.701207 -93.56557 
L 296.099203 -94.608884 
L 297.497199 -94.420509 
L 298.895195 -94.118171 
L 300.29319 -94.608041 
L 301.691186 -95.786986 
L 303.089182 -97.09131 
L 304.487177 -96.529679 
L 305.885173 -99.940989 
L 307.283169 -100.081635 
L 308.681165 -97.05067 
L 310.07916 -97.878001 
L 311.477156 -99.852625 
L 312.875152 -100.03326 
L 314.273147 -99.465892 
L 315.671143 -100.611034 
L 317.069139 -100.116632 
L 318.467134 -99.989875 
L 319.86513 -100.882961 
L 321.263126 -100.417635 
L 322.661122 -102.380256 
L 324.059117 -101.189947 
L 325.457113 -101.300045 
L 326.855109 -101.251026 
L 328.253104 -103.235735 
L 329.6511 -101.784403 
L 331.049096 -101.167666 
L 332.447092 -102.08115 
L 333.845087 -103.196903 
L 335.243083 -103.315993 
L 336.641079 -102.451075 
L 338.039074 -104.732834 
L 339.43707 -101.478331 
L 340.835066 -99.680962 
L 342.233061 -96.710129 
L 343.631057 -96.211285 
L 345.029053 -98.55508 
L 346.427049 -98.997164 
L 347.825044 -99.188563 
L 349.22304 -97.811265 
L 350.621036 -97.583145 
L 352.019031 -97.874703 
L 353.417027 -94.00528 
L 354.815023 -89.660324 
L 356.213019 -89.468665 
L 357.611014 -86.512717 
L 359.00901 -88.979931 
L 360.407006 -85.547123 
L 361.805001 -80.568867 
L 363.202997 -71.382519 
L 364.600993 -70.735404 
L 365.998988 -70.836607 
L 367.396984 -67.732402 
L 368.79498 -67.458408 
L 370.192976 -65.428068 
L 371.590971 -65.796911 
L 372.988967 -61.879152 
L 374.386963 -56.419635 
L 375.784958 -56.537143 
L 377.182954 -54.865552 
L 378.58095 -53.813722 
L 379.978946 -53.433086 
L 381.376941 -50.865434 
L 382.774937 -49.57566 
L 384.172933 -50.132548 
L 385.570928 -50.196566 
L 386.968924 -50.290397 
L 388.36692 -49.962875 
L 389.764915 -47.114198 
L 391.162911 -46.89705 
L 392.560907 -47.158513 
L 393.958903 -46.885525 
L 395.356898 -46.740772 
L 396.754894 -47.283237 
L 398.15289 -46.941548 
L 399.550885 -43.605567 
L 400.948881 -43.523072 
L 402.346877 -43.53805 
L 403.744872 -43.338703 
L 405.142868 -43.422105 
L 406.540864 -43.191565 
L 407.93886 -42.787767 
L 409.336855 -43.107242 
L 410.734851 -43.142624 
L 412.132847 -43.346696 
L 413.530842 -43.111533 
L 414.928838 -43.106771 
L 416.326834 -43.358937 
L 417.72483 -43.1513 
L 417.72483 -40.886363 
L 417.72483 -40.886363 
L 416.326834 -41.399711 
L 414.928838 -40.785773 
L 413.530842 -41.006502 
L 412.132847 -41.310891 
L 410.734851 -41.001402 
L 409.336855 -40.674857 
L 407.93886 -40.8085 
L 406.540864 -41.12375 
L 405.142868 -41.037248 
L 403.744872 -40.961359 
L 402.346877 -41.078119 
L 400.948881 -41.169166 
L 399.550885 -41.1497 
L 398.15289 -44.049439 
L 396.754894 -44.370678 
L 395.356898 -43.798218 
L 393.958903 -44.034457 
L 392.560907 -44.342908 
L 391.162911 -43.998313 
L 389.764915 -44.25825 
L 388.36692 -46.62785 
L 386.968924 -46.736773 
L 385.570928 -47.187516 
L 384.172933 -46.895895 
L 382.774937 -46.697371 
L 381.376941 -48.124753 
L 379.978946 -50.578665 
L 378.58095 -50.713685 
L 377.182954 -51.439338 
L 375.784958 -53.182791 
L 374.386963 -52.7174 
L 372.988967 -58.022785 
L 371.590971 -60.904865 
L 370.192976 -61.324866 
L 368.79498 -63.417441 
L 367.396984 -63.654338 
L 365.998988 -65.265288 
L 364.600993 -66.046849 
L 363.202997 -66.675192 
L 361.805001 -75.009423 
L 360.407006 -78.065829 
L 359.00901 -81.275986 
L 357.611014 -79.048948 
L 356.213019 -82.060766 
L 354.815023 -82.7301 
L 353.417027 -86.748 
L 352.019031 -89.739165 
L 350.621036 -89.986158 
L 349.22304 -90.428887 
L 347.825044 -91.171891 
L 346.427049 -91.382571 
L 345.029053 -90.562441 
L 343.631057 -89.091891 
L 342.233061 -88.896927 
L 340.835066 -91.792672 
L 339.43707 -93.00503 
L 338.039074 -96.430714 
L 336.641079 -94.629272 
L 335.243083 -95.432274 
L 333.845087 -94.038457 
L 332.447092 -94.702132 
L 331.049096 -93.826223 
L 329.6511 -93.179632 
L 328.253104 -94.665693 
L 326.855109 -93.97393 
L 325.457113 -93.5788 
L 324.059117 -94.020281 
L 322.661122 -94.447774 
L 321.263126 -93.43413 
L 319.86513 -91.591992 
L 318.467134 -92.738285 
L 317.069139 -92.343041 
L 315.671143 -92.276366 
L 314.273147 -92.051955 
L 312.875152 -92.482512 
L 311.477156 -91.933942 
L 310.07916 -89.788043 
L 308.681165 -89.37225 
L 307.283169 -91.640093 
L 305.885173 -91.493063 
L 304.487177 -89.439364 
L 303.089182 -89.503631 
L 301.691186 -87.840952 
L 300.29319 -88.019312 
L 298.895195 -86.214472 
L 297.497199 -87.055611 
L 296.099203 -86.912719 
L 294.701207 -86.869933 
L 293.303212 -86.152121 
L 291.905216 -85.146757 
L 290.50722 -85.439862 
L 289.109225 -82.613509 
L 287.711229 -81.913947 
L 286.313233 -82.777174 
L 284.915238 -82.555157 
L 283.517242 -82.059501 
L 282.119246 -83.957112 
L 280.72125 -83.107211 
L 279.323255 -84.229987 
L 277.925259 -85.148289 
L 276.527263 -84.534789 
L 275.129268 -81.717782 
L 273.731272 -80.940399 
L 272.333276 -81.740384 
L 270.935281 -83.159867 
L 269.537285 -81.297049 
L 268.139289 -80.698116 
L 266.741293 -80.238535 
L 265.343298 -76.969452 
L 263.945302 -75.268128 
L 262.547306 -67.235324 
L 261.149311 -65.175877 
L 259.751315 -62.92003 
L 258.353319 -63.106993 
L 256.955323 -62.706982 
L 255.557328 -62.830499 
L 254.159332 -62.618358 
L 252.761336 -60.018946 
L 251.363341 -58.01839 
L 249.965345 -57.879668 
L 248.567349 -56.528047 
L 247.169354 -56.667813 
L 245.771358 -56.496461 
L 244.373362 -56.087767 
L 242.975366 -54.245359 
L 241.577371 -55.171165 
L 240.179375 -54.029423 
L 238.781379 -54.427654 
L 237.383384 -54.380087 
L 235.985388 -54.735154 
L 234.587392 -50.85352 
L 233.189396 -50.406541 
L 231.791401 -50.995275 
L 230.393405 -50.74617 
L 228.995409 -50.630694 
L 227.597414 -50.911086 
L 226.199418 -49.406232 
L 224.801422 -49.478921 
L 223.403427 -49.940061 
L 222.005431 -49.780439 
L 220.607435 -48.293961 
L 219.209439 -48.465631 
L 217.811444 -48.721611 
L 216.413448 -49.85555 
L 215.015452 -51.15621 
L 213.617457 -51.23755 
L 212.219461 -48.843526 
L 210.821465 -48.426111 
L 209.423469 -48.593709 
L 208.025474 -48.249435 
L 206.627478 -48.8989 
L 205.229482 -48.72587 
L 203.831487 -47.86456 
L 202.433491 -47.560695 
L 201.035495 -47.9563 
L 199.6375 -51.071392 
L 198.239504 -50.021961 
L 196.841508 -50.085157 
L 195.443512 -51.140538 
L 194.045517 -51.341965 
L 192.647521 -51.315443 
L 191.249525 -56.903175 
L 189.85153 -58.175129 
L 188.453534 -58.258731 
L 187.055538 -58.272003 
L 185.657543 -58.091845 
L 184.259547 -58.135955 
L 182.861551 -60.008304 
L 181.463555 -59.750711 
L 180.06556 -60.2933 
L 178.667564 -60.63282 
L 177.269568 -61.990539 
L 175.871573 -60.72505 
L 174.473577 -62.825349 
L 173.075581 -62.971907 
L 171.677585 -63.288221 
L 170.27959 -63.099778 
L 168.881594 -66.216538 
L 167.483598 -66.372075 
L 166.085603 -63.459915 
L 164.687607 -63.846815 
L 163.289611 -66.294737 
L 161.891616 -66.109044 
L 160.49362 -68.364827 
L 159.095624 -66.07617 
L 157.697628 -67.004942 
L 156.299633 -66.020725 
L 154.901637 -66.123091 
L 153.503641 -67.27039 
L 152.105646 -66.837569 
L 150.70765 -67.778504 
L 149.309654 -64.745189 
L 147.911658 -66.306819 
L 146.513663 -66.217152 
L 145.115667 -66.401364 
L 143.717671 -66.029468 
L 142.319676 -66.03481 
L 140.92168 -67.499348 
L 139.523684 -67.83749 
L 138.125689 -67.888626 
L 136.727693 -68.276969 
L 135.329697 -69.573478 
L 133.931701 -74.464353 
L 132.533706 -71.967692 
L 131.13571 -72.9657 
L 129.737714 -73.179966 
L 128.339719 -73.294254 
L 126.941723 -73.120324 
L 125.543727 -71.688809 
L 124.145731 -71.271166 
L 122.747736 -71.600101 
L 121.34974 -70.596085 
L 119.951744 -70.080008 
L 118.553749 -69.900267 
L 117.155753 -69.034444 
L 115.757757 -69.042991 
L 114.359762 -70.291889 
L 112.961766 -79.100772 
L 111.56377 -81.474404 
L 110.165774 -78.584216 
L 108.767779 -81.885355 
L 107.369783 -84.617421 
L 105.971787 -92.706783 
L 104.573792 -90.980107 
L 103.175796 -90.628316 
L 101.7778 -90.740287 
L 100.379804 -92.765656 
L 98.981809 -88.728507 
L 97.583813 -97.378937 
L 96.185817 -101.947291 
L 94.787822 -102.841522 
L 93.389826 -96.577948 
L 91.99183 -96.734243 
L 90.593835 -106.849472 
L 89.195839 -106.055732 
L 87.797843 -108.82582 
L 86.399847 -108.705058 
L 85.001852 -111.49048 
L 83.603856 -116.291508 
L 82.20586 -125.61492 
L 80.807865 -133.271791 
L 79.409869 -144.244827 
L 78.011873 -143.059165 
L 76.613878 -143.501646 
L 75.215882 -147.365609 
L 73.817886 -146.003643 
L 72.41989 -140.799075 
L 71.021895 -150.823791 
L 69.623899 -155.46768 
L 68.225903 -162.314403 
L 66.827908 -169.415447 
L 65.429912 -164.891839 
L 64.031916 -176.756021 
L 62.63392 -177.645299 
z
" style="stroke: #134a8e; stroke-opacity: 0.5; stroke-width: 0.5"/>
    </defs>
    <g clip-path="url(#pae968ce082)">
     <use xlink:href="#mbb1670704f" x="0" y="198.611875" style="fill: #134a8e; fill-opacity: 0.5; stroke: #134a8e; stroke-opacity: 0.5; stroke-width: 0.5"/>
    </g>
   </g>
   <g id="line2d_27">
    <path d="M 62.63392 14.263288 
L 64.031916 15.637701 
L 65.429912 26.847429 
L 66.827908 22.259485 
L 68.225903 29.676353 
L 69.623899 36.038471 
L 71.021895 41.561239 
L 72.41989 51.868561 
L 73.817886 47.42843 
L 75.215882 45.372167 
L 76.613878 49.568519 
L 78.011873 50.099994 
L 79.409869 49.012511 
L 80.807865 59.712904 
L 82.20586 67.772406 
L 83.603856 77.6889 
L 85.001852 82.131285 
L 86.399847 85.989503 
L 87.797843 85.532947 
L 89.195839 87.818117 
L 90.593835 87.66666 
L 91.99183 97.191297 
L 93.389826 97.398053 
L 94.787822 91.367342 
L 96.185817 92.389738 
L 97.583813 96.625928 
L 98.981809 106.310869 
L 100.379804 101.943081 
L 101.7778 103.95729 
L 103.175796 103.788725 
L 104.573792 103.502297 
L 105.971787 101.900667 
L 107.369783 110.499503 
L 110.165774 117.361223 
L 111.56377 113.629253 
L 112.961766 116.652838 
L 114.359762 125.512406 
L 115.757757 126.770296 
L 117.155753 127.042456 
L 118.553749 126.083165 
L 119.951744 125.84298 
L 122.747736 124.769368 
L 124.145731 124.507297 
L 125.543727 124.464045 
L 126.941723 122.87919 
L 129.737714 122.674779 
L 131.13571 122.972011 
L 132.533706 124.021186 
L 133.931701 121.381362 
L 135.329697 126.386728 
L 136.727693 127.707776 
L 138.125689 128.023639 
L 139.523684 128.457204 
L 140.92168 128.545908 
L 142.319676 130.079624 
L 143.717671 130.401549 
L 145.115667 129.917633 
L 147.911658 130.024664 
L 149.309654 131.239938 
L 150.70765 128.623309 
L 152.105646 129.330609 
L 153.503641 128.983319 
L 154.901637 129.880033 
L 156.299633 130.357794 
L 157.697628 129.020981 
L 159.095624 130.138468 
L 160.49362 128.116539 
L 161.891616 129.835901 
L 163.289611 129.71318 
L 164.687607 132.493073 
L 166.085603 132.900617 
L 167.483598 129.896077 
L 168.881594 130.201672 
L 170.27959 133.377186 
L 171.677585 133.172288 
L 174.473577 133.921964 
L 175.871573 135.577359 
L 177.269568 134.564046 
L 178.667564 136.044684 
L 181.463555 136.772737 
L 182.861551 136.703006 
L 184.259547 138.551961 
L 185.657543 138.289785 
L 187.055538 138.252248 
L 189.85153 138.485825 
L 191.249525 139.779327 
L 192.647521 145.725504 
L 194.045517 145.752814 
L 195.443512 145.926452 
L 196.841508 146.991785 
L 198.239504 147.175541 
L 199.6375 145.933185 
L 201.035495 149.315377 
L 202.433491 149.586563 
L 203.831487 149.436846 
L 205.229482 148.339093 
L 206.627478 148.149391 
L 208.025474 148.662883 
L 209.423469 148.494125 
L 210.821465 148.582823 
L 212.219461 148.398279 
L 213.617457 145.933432 
L 215.015452 145.839138 
L 217.811444 148.43174 
L 219.209439 148.57639 
L 220.607435 148.528208 
L 222.005431 147.401216 
L 223.403427 147.278148 
L 224.801422 147.666873 
L 226.199418 147.65425 
L 227.597414 146.247487 
L 228.995409 146.42812 
L 231.791401 146.305286 
L 233.189396 146.605083 
L 234.587392 146.333954 
L 235.985388 142.249105 
L 237.383384 142.48163 
L 238.781379 142.369428 
L 240.179375 142.701071 
L 241.577371 141.737353 
L 242.975366 142.508772 
L 244.373362 140.83504 
L 247.169354 139.871316 
L 248.567349 140.222051 
L 249.965345 138.875468 
L 251.363341 138.798456 
L 252.761336 136.724462 
L 254.159332 133.795316 
L 255.557328 133.614862 
L 256.955323 133.859446 
L 258.353319 133.301817 
L 259.751315 133.464259 
L 261.149311 131.025274 
L 262.547306 129.005531 
L 263.945302 119.984761 
L 265.343298 118.240053 
L 266.741293 114.682487 
L 268.139289 114.487049 
L 269.537285 114.006099 
L 270.935281 112.004225 
L 272.333276 113.370205 
L 273.731272 113.807463 
L 275.129268 113.139418 
L 276.527263 110.814667 
L 277.925259 110.02391 
L 279.323255 110.453828 
L 280.72125 111.284097 
L 282.119246 110.56353 
L 283.517242 112.885301 
L 284.915238 112.387673 
L 286.313233 112.044189 
L 287.711229 112.756619 
L 289.109225 112.450287 
L 290.50722 109.177283 
L 291.905216 109.448837 
L 293.303212 108.559699 
L 294.701207 108.394123 
L 296.099203 107.851074 
L 297.497199 107.873815 
L 298.895195 108.445554 
L 300.29319 107.298198 
L 301.691186 106.797906 
L 303.089182 105.314404 
L 304.487177 105.627353 
L 305.885173 102.894849 
L 307.283169 102.751011 
L 308.681165 105.400415 
L 310.07916 104.778853 
L 311.477156 102.718592 
L 312.875152 102.353989 
L 314.273147 102.852951 
L 315.671143 102.168175 
L 317.069139 102.382038 
L 318.467134 102.247795 
L 319.86513 102.374398 
L 321.263126 101.685993 
L 322.661122 100.19786 
L 324.059117 101.006761 
L 325.457113 101.172452 
L 326.855109 100.999397 
L 328.253104 99.661161 
L 329.6511 101.129858 
L 331.049096 101.11493 
L 332.447092 100.220234 
L 333.845087 99.994195 
L 335.243083 99.237741 
L 336.641079 100.071701 
L 338.039074 98.030101 
L 339.43707 101.370195 
L 340.835066 102.875058 
L 342.233061 105.808347 
L 343.631057 105.960287 
L 345.029053 104.053114 
L 346.427049 103.422007 
L 347.825044 103.431648 
L 349.22304 104.491799 
L 350.621036 104.827224 
L 352.019031 104.804941 
L 353.417027 108.235235 
L 354.815023 112.416663 
L 356.213019 112.84716 
L 357.611014 115.831042 
L 359.00901 113.483917 
L 360.407006 116.805399 
L 361.805001 120.82273 
L 363.202997 129.583019 
L 364.600993 130.220748 
L 365.998988 130.560928 
L 367.396984 132.918505 
L 368.79498 133.17395 
L 370.192976 135.235408 
L 371.590971 135.260987 
L 372.988967 138.660906 
L 374.386963 144.043358 
L 375.784958 143.751908 
L 377.182954 145.45943 
L 378.58095 146.348172 
L 379.978946 146.606 
L 381.376941 149.116781 
L 382.774937 150.475359 
L 384.172933 150.097654 
L 385.570928 149.919834 
L 388.36692 150.316513 
L 389.764915 152.925651 
L 391.162911 153.164193 
L 392.560907 152.861165 
L 395.356898 153.34238 
L 396.754894 152.784918 
L 398.15289 153.116382 
L 399.550885 156.234241 
L 402.346877 156.30379 
L 403.744872 156.461844 
L 405.142868 156.382198 
L 406.540864 156.454218 
L 407.93886 156.813741 
L 410.734851 156.539862 
L 412.132847 156.283081 
L 413.530842 156.552858 
L 414.928838 156.665603 
L 416.326834 156.232551 
L 417.72483 156.593044 
L 417.72483 156.593044 
" clip-path="url(#pae968ce082)" style="fill: none; stroke: #134a8e; stroke-width: 3; stroke-linecap: square"/>
    <defs>
     <path id="mfa2d1ed12d" d="M 0 1.5 
C 0.397805 1.5 0.77937 1.341951 1.06066 1.06066 
C 1.341951 0.77937 1.5 0.397805 1.5 0 
C 1.5 -0.397805 1.341951 -0.77937 1.06066 -1.06066 
C 0.77937 -1.341951 0.397805 -1.5 0 -1.5 
C -0.397805 -1.5 -0.77937 -1.341951 -1.06066 -1.06066 
C -1.341951 -0.77937 -1.5 -0.397805 -1.5 0 
C -1.5 0.397805 -1.341951 0.77937 -1.06066 1.06066 
C -0.77937 1.341951 -0.397805 1.5 0 1.5 
z
" style="stroke: #134a8e"/>
    </defs>
    <g clip-path="url(#pae968ce082)">
     <use xlink:href="#mfa2d1ed12d" x="62.63392" y="14.263288" style="fill: #134a8e; stroke: #134a8e"/>
     <use xlink:href="#mfa2d1ed12d" x="64.031916" y="15.637701" style="fill: #134a8e; stroke: #134a8e"/>
     <use xlink:href="#mfa2d1ed12d" x="65.429912" y="26.847429" style="fill: #134a8e; stroke: #134a8e"/>
     <use xlink:href="#mfa2d1ed12d" x="66.827908" y="22.259485" style="fill: #134a8e; stroke: #134a8e"/>
     <use xlink:href="#mfa2d1ed12d" x="68.225903" y="29.676353" style="fill: #134a8e; stroke: #134a8e"/>
     <use xlink:href="#mfa2d1ed12d" x="69.623899" y="36.038471" style="fill: #134a8e; stroke: #134a8e"/>
     <use xlink:href="#mfa2d1ed12d" x="71.021895" y="41.561239" style="fill: #134a8e; stroke: #134a8e"/>
     <use xlink:href="#mfa2d1ed12d" x="72.41989" y="51.868561" style="fill: #134a8e; stroke: #134a8e"/>
     <use xlink:href="#mfa2d1ed12d" x="73.817886" y="47.42843" style="fill: #134a8e; stroke: #134a8e"/>
     <use xlink:href="#mfa2d1ed12d" x="75.215882" y="45.372167" style="fill: #134a8e; stroke: #134a8e"/>
     <use xlink:href="#mfa2d1ed12d" x="76.613878" y="49.568519" style="fill: #134a8e; stroke: #134a8e"/>
     <use xlink:href="#mfa2d1ed12d" x="78.011873" y="50.099994" style="fill: #134a8e; stroke: #134a8e"/>
     <use xlink:href="#mfa2d1ed12d" x="79.409869" y="49.012511" style="fill: #134a8e; stroke: #134a8e"/>
     <use xlink:href="#mfa2d1ed12d" x="80.807865" y="59.712904" style="fill: #134a8e; stroke: #134a8e"/>
     <use xlink:href="#mfa2d1ed12d" x="82.20586" y="67.772406" style="fill: #134a8e; stroke: #134a8e"/>
     <use xlink:href="#mfa2d1ed12d" x="83.603856" y="77.6889" style="fill: #134a8e; stroke: #134a8e"/>
     <use xlink:href="#mfa2d1ed12d" x="85.001852" y="82.131285" style="fill: #134a8e; stroke: #134a8e"/>
     <use xlink:href="#mfa2d1ed12d" x="86.399847" y="85.989503" style="fill: #134a8e; stroke: #134a8e"/>
     <use xlink:href="#mfa2d1ed12d" x="87.797843" y="85.532947" style="fill: #134a8e; stroke: #134a8e"/>
     <use xlink:href="#mfa2d1ed12d" x="89.195839" y="87.818117" style="fill: #134a8e; stroke: #134a8e"/>
     <use xlink:href="#mfa2d1ed12d" x="90.593835" y="87.66666" style="fill: #134a8e; stroke: #134a8e"/>
     <use xlink:href="#mfa2d1ed12d" x="91.99183" y="97.191297" style="fill: #134a8e; stroke: #134a8e"/>
     <use xlink:href="#mfa2d1ed12d" x="93.389826" y="97.398053" style="fill: #134a8e; stroke: #134a8e"/>
     <use xlink:href="#mfa2d1ed12d" x="94.787822" y="91.367342" style="fill: #134a8e; stroke: #134a8e"/>
     <use xlink:href="#mfa2d1ed12d" x="96.185817" y="92.389738" style="fill: #134a8e; stroke: #134a8e"/>
     <use xlink:href="#mfa2d1ed12d" x="97.583813" y="96.625928" style="fill: #134a8e; stroke: #134a8e"/>
     <use xlink:href="#mfa2d1ed12d" x="98.981809" y="106.310869" style="fill: #134a8e; stroke: #134a8e"/>
     <use xlink:href="#mfa2d1ed12d" x="100.379804" y="101.943081" style="fill: #134a8e; stroke: #134a8e"/>
     <use xlink:href="#mfa2d1ed12d" x="101.7778" y="103.95729" style="fill: #134a8e; stroke: #134a8e"/>
     <use xlink:href="#mfa2d1ed12d" x="103.175796" y="103.788725" style="fill: #134a8e; stroke: #134a8e"/>
     <use xlink:href="#mfa2d1ed12d" x="104.573792" y="103.502297" style="fill: #134a8e; stroke: #134a8e"/>
     <use xlink:href="#mfa2d1ed12d" x="105.971787" y="101.900667" style="fill: #134a8e; stroke: #134a8e"/>
     <use xlink:href="#mfa2d1ed12d" x="107.369783" y="110.499503" style="fill: #134a8e; stroke: #134a8e"/>
     <use xlink:href="#mfa2d1ed12d" x="108.767779" y="113.828933" style="fill: #134a8e; stroke: #134a8e"/>
     <use xlink:href="#mfa2d1ed12d" x="110.165774" y="117.361223" style="fill: #134a8e; stroke: #134a8e"/>
     <use xlink:href="#mfa2d1ed12d" x="111.56377" y="113.629253" style="fill: #134a8e; stroke: #134a8e"/>
     <use xlink:href="#mfa2d1ed12d" x="112.961766" y="116.652838" style="fill: #134a8e; stroke: #134a8e"/>
     <use xlink:href="#mfa2d1ed12d" x="114.359762" y="125.512406" style="fill: #134a8e; stroke: #134a8e"/>
     <use xlink:href="#mfa2d1ed12d" x="115.757757" y="126.770296" style="fill: #134a8e; stroke: #134a8e"/>
     <use xlink:href="#mfa2d1ed12d" x="117.155753" y="127.042456" style="fill: #134a8e; stroke: #134a8e"/>
     <use xlink:href="#mfa2d1ed12d" x="118.553749" y="126.083165" style="fill: #134a8e; stroke: #134a8e"/>
     <use xlink:href="#mfa2d1ed12d" x="119.951744" y="125.84298" style="fill: #134a8e; stroke: #134a8e"/>
     <use xlink:href="#mfa2d1ed12d" x="121.34974" y="125.310792" style="fill: #134a8e; stroke: #134a8e"/>
     <use xlink:href="#mfa2d1ed12d" x="122.747736" y="124.769368" style="fill: #134a8e; stroke: #134a8e"/>
     <use xlink:href="#mfa2d1ed12d" x="124.145731" y="124.507297" style="fill: #134a8e; stroke: #134a8e"/>
     <use xlink:href="#mfa2d1ed12d" x="125.543727" y="124.464045" style="fill: #134a8e; stroke: #134a8e"/>
     <use xlink:href="#mfa2d1ed12d" x="126.941723" y="122.87919" style="fill: #134a8e; stroke: #134a8e"/>
     <use xlink:href="#mfa2d1ed12d" x="128.339719" y="122.772074" style="fill: #134a8e; stroke: #134a8e"/>
     <use xlink:href="#mfa2d1ed12d" x="129.737714" y="122.674779" style="fill: #134a8e; stroke: #134a8e"/>
     <use xlink:href="#mfa2d1ed12d" x="131.13571" y="122.972011" style="fill: #134a8e; stroke: #134a8e"/>
     <use xlink:href="#mfa2d1ed12d" x="132.533706" y="124.021186" style="fill: #134a8e; stroke: #134a8e"/>
     <use xlink:href="#mfa2d1ed12d" x="133.931701" y="121.381362" style="fill: #134a8e; stroke: #134a8e"/>
     <use xlink:href="#mfa2d1ed12d" x="135.329697" y="126.386728" style="fill: #134a8e; stroke: #134a8e"/>
     <use xlink:href="#mfa2d1ed12d" x="136.727693" y="127.707776" style="fill: #134a8e; stroke: #134a8e"/>
     <use xlink:href="#mfa2d1ed12d" x="138.125689" y="128.023639" style="fill: #134a8e; stroke: #134a8e"/>
     <use xlink:href="#mfa2d1ed12d" x="139.523684" y="128.457204" style="fill: #134a8e; stroke: #134a8e"/>
     <use xlink:href="#mfa2d1ed12d" x="140.92168" y="128.545908" style="fill: #134a8e; stroke: #134a8e"/>
     <use xlink:href="#mfa2d1ed12d" x="142.319676" y="130.079624" style="fill: #134a8e; stroke: #134a8e"/>
     <use xlink:href="#mfa2d1ed12d" x="143.717671" y="130.401549" style="fill: #134a8e; stroke: #134a8e"/>
     <use xlink:href="#mfa2d1ed12d" x="145.115667" y="129.917633" style="fill: #134a8e; stroke: #134a8e"/>
     <use xlink:href="#mfa2d1ed12d" x="146.513663" y="129.990229" style="fill: #134a8e; stroke: #134a8e"/>
     <use xlink:href="#mfa2d1ed12d" x="147.911658" y="130.024664" style="fill: #134a8e; stroke: #134a8e"/>
     <use xlink:href="#mfa2d1ed12d" x="149.309654" y="131.239938" style="fill: #134a8e; stroke: #134a8e"/>
     <use xlink:href="#mfa2d1ed12d" x="150.70765" y="128.623309" style="fill: #134a8e; stroke: #134a8e"/>
     <use xlink:href="#mfa2d1ed12d" x="152.105646" y="129.330609" style="fill: #134a8e; stroke: #134a8e"/>
     <use xlink:href="#mfa2d1ed12d" x="153.503641" y="128.983319" style="fill: #134a8e; stroke: #134a8e"/>
     <use xlink:href="#mfa2d1ed12d" x="154.901637" y="129.880033" style="fill: #134a8e; stroke: #134a8e"/>
     <use xlink:href="#mfa2d1ed12d" x="156.299633" y="130.357794" style="fill: #134a8e; stroke: #134a8e"/>
     <use xlink:href="#mfa2d1ed12d" x="157.697628" y="129.020981" style="fill: #134a8e; stroke: #134a8e"/>
     <use xlink:href="#mfa2d1ed12d" x="159.095624" y="130.138468" style="fill: #134a8e; stroke: #134a8e"/>
     <use xlink:href="#mfa2d1ed12d" x="160.49362" y="128.116539" style="fill: #134a8e; stroke: #134a8e"/>
     <use xlink:href="#mfa2d1ed12d" x="161.891616" y="129.835901" style="fill: #134a8e; stroke: #134a8e"/>
     <use xlink:href="#mfa2d1ed12d" x="163.289611" y="129.71318" style="fill: #134a8e; stroke: #134a8e"/>
     <use xlink:href="#mfa2d1ed12d" x="164.687607" y="132.493073" style="fill: #134a8e; stroke: #134a8e"/>
     <use xlink:href="#mfa2d1ed12d" x="166.085603" y="132.900617" style="fill: #134a8e; stroke: #134a8e"/>
     <use xlink:href="#mfa2d1ed12d" x="167.483598" y="129.896077" style="fill: #134a8e; stroke: #134a8e"/>
     <use xlink:href="#mfa2d1ed12d" x="168.881594" y="130.201672" style="fill: #134a8e; stroke: #134a8e"/>
     <use xlink:href="#mfa2d1ed12d" x="170.27959" y="133.377186" style="fill: #134a8e; stroke: #134a8e"/>
     <use xlink:href="#mfa2d1ed12d" x="171.677585" y="133.172288" style="fill: #134a8e; stroke: #134a8e"/>
     <use xlink:href="#mfa2d1ed12d" x="173.075581" y="133.573262" style="fill: #134a8e; stroke: #134a8e"/>
     <use xlink:href="#mfa2d1ed12d" x="174.473577" y="133.921964" style="fill: #134a8e; stroke: #134a8e"/>
     <use xlink:href="#mfa2d1ed12d" x="175.871573" y="135.577359" style="fill: #134a8e; stroke: #134a8e"/>
     <use xlink:href="#mfa2d1ed12d" x="177.269568" y="134.564046" style="fill: #134a8e; stroke: #134a8e"/>
     <use xlink:href="#mfa2d1ed12d" x="178.667564" y="136.044684" style="fill: #134a8e; stroke: #134a8e"/>
     <use xlink:href="#mfa2d1ed12d" x="180.06556" y="136.352894" style="fill: #134a8e; stroke: #134a8e"/>
     <use xlink:href="#mfa2d1ed12d" x="181.463555" y="136.772737" style="fill: #134a8e; stroke: #134a8e"/>
     <use xlink:href="#mfa2d1ed12d" x="182.861551" y="136.703006" style="fill: #134a8e; stroke: #134a8e"/>
     <use xlink:href="#mfa2d1ed12d" x="184.259547" y="138.551961" style="fill: #134a8e; stroke: #134a8e"/>
     <use xlink:href="#mfa2d1ed12d" x="185.657543" y="138.289785" style="fill: #134a8e; stroke: #134a8e"/>
     <use xlink:href="#mfa2d1ed12d" x="187.055538" y="138.252248" style="fill: #134a8e; stroke: #134a8e"/>
     <use xlink:href="#mfa2d1ed12d" x="188.453534" y="138.378811" style="fill: #134a8e; stroke: #134a8e"/>
     <use xlink:href="#mfa2d1ed12d" x="189.85153" y="138.485825" style="fill: #134a8e; stroke: #134a8e"/>
     <use xlink:href="#mfa2d1ed12d" x="191.249525" y="139.779327" style="fill: #134a8e; stroke: #134a8e"/>
     <use xlink:href="#mfa2d1ed12d" x="192.647521" y="145.725504" style="fill: #134a8e; stroke: #134a8e"/>
     <use xlink:href="#mfa2d1ed12d" x="194.045517" y="145.752814" style="fill: #134a8e; stroke: #134a8e"/>
     <use xlink:href="#mfa2d1ed12d" x="195.443512" y="145.926452" style="fill: #134a8e; stroke: #134a8e"/>
     <use xlink:href="#mfa2d1ed12d" x="196.841508" y="146.991785" style="fill: #134a8e; stroke: #134a8e"/>
     <use xlink:href="#mfa2d1ed12d" x="198.239504" y="147.175541" style="fill: #134a8e; stroke: #134a8e"/>
     <use xlink:href="#mfa2d1ed12d" x="199.6375" y="145.933185" style="fill: #134a8e; stroke: #134a8e"/>
     <use xlink:href="#mfa2d1ed12d" x="201.035495" y="149.315377" style="fill: #134a8e; stroke: #134a8e"/>
     <use xlink:href="#mfa2d1ed12d" x="202.433491" y="149.586563" style="fill: #134a8e; stroke: #134a8e"/>
     <use xlink:href="#mfa2d1ed12d" x="203.831487" y="149.436846" style="fill: #134a8e; stroke: #134a8e"/>
     <use xlink:href="#mfa2d1ed12d" x="205.229482" y="148.339093" style="fill: #134a8e; stroke: #134a8e"/>
     <use xlink:href="#mfa2d1ed12d" x="206.627478" y="148.149391" style="fill: #134a8e; stroke: #134a8e"/>
     <use xlink:href="#mfa2d1ed12d" x="208.025474" y="148.662883" style="fill: #134a8e; stroke: #134a8e"/>
     <use xlink:href="#mfa2d1ed12d" x="209.423469" y="148.494125" style="fill: #134a8e; stroke: #134a8e"/>
     <use xlink:href="#mfa2d1ed12d" x="210.821465" y="148.582823" style="fill: #134a8e; stroke: #134a8e"/>
     <use xlink:href="#mfa2d1ed12d" x="212.219461" y="148.398279" style="fill: #134a8e; stroke: #134a8e"/>
     <use xlink:href="#mfa2d1ed12d" x="213.617457" y="145.933432" style="fill: #134a8e; stroke: #134a8e"/>
     <use xlink:href="#mfa2d1ed12d" x="215.015452" y="145.839138" style="fill: #134a8e; stroke: #134a8e"/>
     <use xlink:href="#mfa2d1ed12d" x="216.413448" y="147.197909" style="fill: #134a8e; stroke: #134a8e"/>
     <use xlink:href="#mfa2d1ed12d" x="217.811444" y="148.43174" style="fill: #134a8e; stroke: #134a8e"/>
     <use xlink:href="#mfa2d1ed12d" x="219.209439" y="148.57639" style="fill: #134a8e; stroke: #134a8e"/>
     <use xlink:href="#mfa2d1ed12d" x="220.607435" y="148.528208" style="fill: #134a8e; stroke: #134a8e"/>
     <use xlink:href="#mfa2d1ed12d" x="222.005431" y="147.401216" style="fill: #134a8e; stroke: #134a8e"/>
     <use xlink:href="#mfa2d1ed12d" x="223.403427" y="147.278148" style="fill: #134a8e; stroke: #134a8e"/>
     <use xlink:href="#mfa2d1ed12d" x="224.801422" y="147.666873" style="fill: #134a8e; stroke: #134a8e"/>
     <use xlink:href="#mfa2d1ed12d" x="226.199418" y="147.65425" style="fill: #134a8e; stroke: #134a8e"/>
     <use xlink:href="#mfa2d1ed12d" x="227.597414" y="146.247487" style="fill: #134a8e; stroke: #134a8e"/>
     <use xlink:href="#mfa2d1ed12d" x="228.995409" y="146.42812" style="fill: #134a8e; stroke: #134a8e"/>
     <use xlink:href="#mfa2d1ed12d" x="230.393405" y="146.348725" style="fill: #134a8e; stroke: #134a8e"/>
     <use xlink:href="#mfa2d1ed12d" x="231.791401" y="146.305286" style="fill: #134a8e; stroke: #134a8e"/>
     <use xlink:href="#mfa2d1ed12d" x="233.189396" y="146.605083" style="fill: #134a8e; stroke: #134a8e"/>
     <use xlink:href="#mfa2d1ed12d" x="234.587392" y="146.333954" style="fill: #134a8e; stroke: #134a8e"/>
     <use xlink:href="#mfa2d1ed12d" x="235.985388" y="142.249105" style="fill: #134a8e; stroke: #134a8e"/>
     <use xlink:href="#mfa2d1ed12d" x="237.383384" y="142.48163" style="fill: #134a8e; stroke: #134a8e"/>
     <use xlink:href="#mfa2d1ed12d" x="238.781379" y="142.369428" style="fill: #134a8e; stroke: #134a8e"/>
     <use xlink:href="#mfa2d1ed12d" x="240.179375" y="142.701071" style="fill: #134a8e; stroke: #134a8e"/>
     <use xlink:href="#mfa2d1ed12d" x="241.577371" y="141.737353" style="fill: #134a8e; stroke: #134a8e"/>
     <use xlink:href="#mfa2d1ed12d" x="242.975366" y="142.508772" style="fill: #134a8e; stroke: #134a8e"/>
     <use xlink:href="#mfa2d1ed12d" x="244.373362" y="140.83504" style="fill: #134a8e; stroke: #134a8e"/>
     <use xlink:href="#mfa2d1ed12d" x="245.771358" y="140.326435" style="fill: #134a8e; stroke: #134a8e"/>
     <use xlink:href="#mfa2d1ed12d" x="247.169354" y="139.871316" style="fill: #134a8e; stroke: #134a8e"/>
     <use xlink:href="#mfa2d1ed12d" x="248.567349" y="140.222051" style="fill: #134a8e; stroke: #134a8e"/>
     <use xlink:href="#mfa2d1ed12d" x="249.965345" y="138.875468" style="fill: #134a8e; stroke: #134a8e"/>
     <use xlink:href="#mfa2d1ed12d" x="251.363341" y="138.798456" style="fill: #134a8e; stroke: #134a8e"/>
     <use xlink:href="#mfa2d1ed12d" x="252.761336" y="136.724462" style="fill: #134a8e; stroke: #134a8e"/>
     <use xlink:href="#mfa2d1ed12d" x="254.159332" y="133.795316" style="fill: #134a8e; stroke: #134a8e"/>
     <use xlink:href="#mfa2d1ed12d" x="255.557328" y="133.614862" style="fill: #134a8e; stroke: #134a8e"/>
     <use xlink:href="#mfa2d1ed12d" x="256.955323" y="133.859446" style="fill: #134a8e; stroke: #134a8e"/>
     <use xlink:href="#mfa2d1ed12d" x="258.353319" y="133.301817" style="fill: #134a8e; stroke: #134a8e"/>
     <use xlink:href="#mfa2d1ed12d" x="259.751315" y="133.464259" style="fill: #134a8e; stroke: #134a8e"/>
     <use xlink:href="#mfa2d1ed12d" x="261.149311" y="131.025274" style="fill: #134a8e; stroke: #134a8e"/>
     <use xlink:href="#mfa2d1ed12d" x="262.547306" y="129.005531" style="fill: #134a8e; stroke: #134a8e"/>
     <use xlink:href="#mfa2d1ed12d" x="263.945302" y="119.984761" style="fill: #134a8e; stroke: #134a8e"/>
     <use xlink:href="#mfa2d1ed12d" x="265.343298" y="118.240053" style="fill: #134a8e; stroke: #134a8e"/>
     <use xlink:href="#mfa2d1ed12d" x="266.741293" y="114.682487" style="fill: #134a8e; stroke: #134a8e"/>
     <use xlink:href="#mfa2d1ed12d" x="268.139289" y="114.487049" style="fill: #134a8e; stroke: #134a8e"/>
     <use xlink:href="#mfa2d1ed12d" x="269.537285" y="114.006099" style="fill: #134a8e; stroke: #134a8e"/>
     <use xlink:href="#mfa2d1ed12d" x="270.935281" y="112.004225" style="fill: #134a8e; stroke: #134a8e"/>
     <use xlink:href="#mfa2d1ed12d" x="272.333276" y="113.370205" style="fill: #134a8e; stroke: #134a8e"/>
     <use xlink:href="#mfa2d1ed12d" x="273.731272" y="113.807463" style="fill: #134a8e; stroke: #134a8e"/>
     <use xlink:href="#mfa2d1ed12d" x="275.129268" y="113.139418" style="fill: #134a8e; stroke: #134a8e"/>
     <use xlink:href="#mfa2d1ed12d" x="276.527263" y="110.814667" style="fill: #134a8e; stroke: #134a8e"/>
     <use xlink:href="#mfa2d1ed12d" x="277.925259" y="110.02391" style="fill: #134a8e; stroke: #134a8e"/>
     <use xlink:href="#mfa2d1ed12d" x="279.323255" y="110.453828" style="fill: #134a8e; stroke: #134a8e"/>
     <use xlink:href="#mfa2d1ed12d" x="280.72125" y="111.284097" style="fill: #134a8e; stroke: #134a8e"/>
     <use xlink:href="#mfa2d1ed12d" x="282.119246" y="110.56353" style="fill: #134a8e; stroke: #134a8e"/>
     <use xlink:href="#mfa2d1ed12d" x="283.517242" y="112.885301" style="fill: #134a8e; stroke: #134a8e"/>
     <use xlink:href="#mfa2d1ed12d" x="284.915238" y="112.387673" style="fill: #134a8e; stroke: #134a8e"/>
     <use xlink:href="#mfa2d1ed12d" x="286.313233" y="112.044189" style="fill: #134a8e; stroke: #134a8e"/>
     <use xlink:href="#mfa2d1ed12d" x="287.711229" y="112.756619" style="fill: #134a8e; stroke: #134a8e"/>
     <use xlink:href="#mfa2d1ed12d" x="289.109225" y="112.450287" style="fill: #134a8e; stroke: #134a8e"/>
     <use xlink:href="#mfa2d1ed12d" x="290.50722" y="109.177283" style="fill: #134a8e; stroke: #134a8e"/>
     <use xlink:href="#mfa2d1ed12d" x="291.905216" y="109.448837" style="fill: #134a8e; stroke: #134a8e"/>
     <use xlink:href="#mfa2d1ed12d" x="293.303212" y="108.559699" style="fill: #134a8e; stroke: #134a8e"/>
     <use xlink:href="#mfa2d1ed12d" x="294.701207" y="108.394123" style="fill: #134a8e; stroke: #134a8e"/>
     <use xlink:href="#mfa2d1ed12d" x="296.099203" y="107.851074" style="fill: #134a8e; stroke: #134a8e"/>
     <use xlink:href="#mfa2d1ed12d" x="297.497199" y="107.873815" style="fill: #134a8e; stroke: #134a8e"/>
     <use xlink:href="#mfa2d1ed12d" x="298.895195" y="108.445554" style="fill: #134a8e; stroke: #134a8e"/>
     <use xlink:href="#mfa2d1ed12d" x="300.29319" y="107.298198" style="fill: #134a8e; stroke: #134a8e"/>
     <use xlink:href="#mfa2d1ed12d" x="301.691186" y="106.797906" style="fill: #134a8e; stroke: #134a8e"/>
     <use xlink:href="#mfa2d1ed12d" x="303.089182" y="105.314404" style="fill: #134a8e; stroke: #134a8e"/>
     <use xlink:href="#mfa2d1ed12d" x="304.487177" y="105.627353" style="fill: #134a8e; stroke: #134a8e"/>
     <use xlink:href="#mfa2d1ed12d" x="305.885173" y="102.894849" style="fill: #134a8e; stroke: #134a8e"/>
     <use xlink:href="#mfa2d1ed12d" x="307.283169" y="102.751011" style="fill: #134a8e; stroke: #134a8e"/>
     <use xlink:href="#mfa2d1ed12d" x="308.681165" y="105.400415" style="fill: #134a8e; stroke: #134a8e"/>
     <use xlink:href="#mfa2d1ed12d" x="310.07916" y="104.778853" style="fill: #134a8e; stroke: #134a8e"/>
     <use xlink:href="#mfa2d1ed12d" x="311.477156" y="102.718592" style="fill: #134a8e; stroke: #134a8e"/>
     <use xlink:href="#mfa2d1ed12d" x="312.875152" y="102.353989" style="fill: #134a8e; stroke: #134a8e"/>
     <use xlink:href="#mfa2d1ed12d" x="314.273147" y="102.852951" style="fill: #134a8e; stroke: #134a8e"/>
     <use xlink:href="#mfa2d1ed12d" x="315.671143" y="102.168175" style="fill: #134a8e; stroke: #134a8e"/>
     <use xlink:href="#mfa2d1ed12d" x="317.069139" y="102.382038" style="fill: #134a8e; stroke: #134a8e"/>
     <use xlink:href="#mfa2d1ed12d" x="318.467134" y="102.247795" style="fill: #134a8e; stroke: #134a8e"/>
     <use xlink:href="#mfa2d1ed12d" x="319.86513" y="102.374398" style="fill: #134a8e; stroke: #134a8e"/>
     <use xlink:href="#mfa2d1ed12d" x="321.263126" y="101.685993" style="fill: #134a8e; stroke: #134a8e"/>
     <use xlink:href="#mfa2d1ed12d" x="322.661122" y="100.19786" style="fill: #134a8e; stroke: #134a8e"/>
     <use xlink:href="#mfa2d1ed12d" x="324.059117" y="101.006761" style="fill: #134a8e; stroke: #134a8e"/>
     <use xlink:href="#mfa2d1ed12d" x="325.457113" y="101.172452" style="fill: #134a8e; stroke: #134a8e"/>
     <use xlink:href="#mfa2d1ed12d" x="326.855109" y="100.999397" style="fill: #134a8e; stroke: #134a8e"/>
     <use xlink:href="#mfa2d1ed12d" x="328.253104" y="99.661161" style="fill: #134a8e; stroke: #134a8e"/>
     <use xlink:href="#mfa2d1ed12d" x="329.6511" y="101.129858" style="fill: #134a8e; stroke: #134a8e"/>
     <use xlink:href="#mfa2d1ed12d" x="331.049096" y="101.11493" style="fill: #134a8e; stroke: #134a8e"/>
     <use xlink:href="#mfa2d1ed12d" x="332.447092" y="100.220234" style="fill: #134a8e; stroke: #134a8e"/>
     <use xlink:href="#mfa2d1ed12d" x="333.845087" y="99.994195" style="fill: #134a8e; stroke: #134a8e"/>
     <use xlink:href="#mfa2d1ed12d" x="335.243083" y="99.237741" style="fill: #134a8e; stroke: #134a8e"/>
     <use xlink:href="#mfa2d1ed12d" x="336.641079" y="100.071701" style="fill: #134a8e; stroke: #134a8e"/>
     <use xlink:href="#mfa2d1ed12d" x="338.039074" y="98.030101" style="fill: #134a8e; stroke: #134a8e"/>
     <use xlink:href="#mfa2d1ed12d" x="339.43707" y="101.370195" style="fill: #134a8e; stroke: #134a8e"/>
     <use xlink:href="#mfa2d1ed12d" x="340.835066" y="102.875058" style="fill: #134a8e; stroke: #134a8e"/>
     <use xlink:href="#mfa2d1ed12d" x="342.233061" y="105.808347" style="fill: #134a8e; stroke: #134a8e"/>
     <use xlink:href="#mfa2d1ed12d" x="343.631057" y="105.960287" style="fill: #134a8e; stroke: #134a8e"/>
     <use xlink:href="#mfa2d1ed12d" x="345.029053" y="104.053114" style="fill: #134a8e; stroke: #134a8e"/>
     <use xlink:href="#mfa2d1ed12d" x="346.427049" y="103.422007" style="fill: #134a8e; stroke: #134a8e"/>
     <use xlink:href="#mfa2d1ed12d" x="347.825044" y="103.431648" style="fill: #134a8e; stroke: #134a8e"/>
     <use xlink:href="#mfa2d1ed12d" x="349.22304" y="104.491799" style="fill: #134a8e; stroke: #134a8e"/>
     <use xlink:href="#mfa2d1ed12d" x="350.621036" y="104.827224" style="fill: #134a8e; stroke: #134a8e"/>
     <use xlink:href="#mfa2d1ed12d" x="352.019031" y="104.804941" style="fill: #134a8e; stroke: #134a8e"/>
     <use xlink:href="#mfa2d1ed12d" x="353.417027" y="108.235235" style="fill: #134a8e; stroke: #134a8e"/>
     <use xlink:href="#mfa2d1ed12d" x="354.815023" y="112.416663" style="fill: #134a8e; stroke: #134a8e"/>
     <use xlink:href="#mfa2d1ed12d" x="356.213019" y="112.84716" style="fill: #134a8e; stroke: #134a8e"/>
     <use xlink:href="#mfa2d1ed12d" x="357.611014" y="115.831042" style="fill: #134a8e; stroke: #134a8e"/>
     <use xlink:href="#mfa2d1ed12d" x="359.00901" y="113.483917" style="fill: #134a8e; stroke: #134a8e"/>
     <use xlink:href="#mfa2d1ed12d" x="360.407006" y="116.805399" style="fill: #134a8e; stroke: #134a8e"/>
     <use xlink:href="#mfa2d1ed12d" x="361.805001" y="120.82273" style="fill: #134a8e; stroke: #134a8e"/>
     <use xlink:href="#mfa2d1ed12d" x="363.202997" y="129.583019" style="fill: #134a8e; stroke: #134a8e"/>
     <use xlink:href="#mfa2d1ed12d" x="364.600993" y="130.220748" style="fill: #134a8e; stroke: #134a8e"/>
     <use xlink:href="#mfa2d1ed12d" x="365.998988" y="130.560928" style="fill: #134a8e; stroke: #134a8e"/>
     <use xlink:href="#mfa2d1ed12d" x="367.396984" y="132.918505" style="fill: #134a8e; stroke: #134a8e"/>
     <use xlink:href="#mfa2d1ed12d" x="368.79498" y="133.17395" style="fill: #134a8e; stroke: #134a8e"/>
     <use xlink:href="#mfa2d1ed12d" x="370.192976" y="135.235408" style="fill: #134a8e; stroke: #134a8e"/>
     <use xlink:href="#mfa2d1ed12d" x="371.590971" y="135.260987" style="fill: #134a8e; stroke: #134a8e"/>
     <use xlink:href="#mfa2d1ed12d" x="372.988967" y="138.660906" style="fill: #134a8e; stroke: #134a8e"/>
     <use xlink:href="#mfa2d1ed12d" x="374.386963" y="144.043358" style="fill: #134a8e; stroke: #134a8e"/>
     <use xlink:href="#mfa2d1ed12d" x="375.784958" y="143.751908" style="fill: #134a8e; stroke: #134a8e"/>
     <use xlink:href="#mfa2d1ed12d" x="377.182954" y="145.45943" style="fill: #134a8e; stroke: #134a8e"/>
     <use xlink:href="#mfa2d1ed12d" x="378.58095" y="146.348172" style="fill: #134a8e; stroke: #134a8e"/>
     <use xlink:href="#mfa2d1ed12d" x="379.978946" y="146.606" style="fill: #134a8e; stroke: #134a8e"/>
     <use xlink:href="#mfa2d1ed12d" x="381.376941" y="149.116781" style="fill: #134a8e; stroke: #134a8e"/>
     <use xlink:href="#mfa2d1ed12d" x="382.774937" y="150.475359" style="fill: #134a8e; stroke: #134a8e"/>
     <use xlink:href="#mfa2d1ed12d" x="384.172933" y="150.097654" style="fill: #134a8e; stroke: #134a8e"/>
     <use xlink:href="#mfa2d1ed12d" x="385.570928" y="149.919834" style="fill: #134a8e; stroke: #134a8e"/>
     <use xlink:href="#mfa2d1ed12d" x="386.968924" y="150.09829" style="fill: #134a8e; stroke: #134a8e"/>
     <use xlink:href="#mfa2d1ed12d" x="388.36692" y="150.316513" style="fill: #134a8e; stroke: #134a8e"/>
     <use xlink:href="#mfa2d1ed12d" x="389.764915" y="152.925651" style="fill: #134a8e; stroke: #134a8e"/>
     <use xlink:href="#mfa2d1ed12d" x="391.162911" y="153.164193" style="fill: #134a8e; stroke: #134a8e"/>
     <use xlink:href="#mfa2d1ed12d" x="392.560907" y="152.861165" style="fill: #134a8e; stroke: #134a8e"/>
     <use xlink:href="#mfa2d1ed12d" x="393.958903" y="153.151884" style="fill: #134a8e; stroke: #134a8e"/>
     <use xlink:href="#mfa2d1ed12d" x="395.356898" y="153.34238" style="fill: #134a8e; stroke: #134a8e"/>
     <use xlink:href="#mfa2d1ed12d" x="396.754894" y="152.784918" style="fill: #134a8e; stroke: #134a8e"/>
     <use xlink:href="#mfa2d1ed12d" x="398.15289" y="153.116382" style="fill: #134a8e; stroke: #134a8e"/>
     <use xlink:href="#mfa2d1ed12d" x="399.550885" y="156.234241" style="fill: #134a8e; stroke: #134a8e"/>
     <use xlink:href="#mfa2d1ed12d" x="400.948881" y="156.265756" style="fill: #134a8e; stroke: #134a8e"/>
     <use xlink:href="#mfa2d1ed12d" x="402.346877" y="156.30379" style="fill: #134a8e; stroke: #134a8e"/>
     <use xlink:href="#mfa2d1ed12d" x="403.744872" y="156.461844" style="fill: #134a8e; stroke: #134a8e"/>
     <use xlink:href="#mfa2d1ed12d" x="405.142868" y="156.382198" style="fill: #134a8e; stroke: #134a8e"/>
     <use xlink:href="#mfa2d1ed12d" x="406.540864" y="156.454218" style="fill: #134a8e; stroke: #134a8e"/>
     <use xlink:href="#mfa2d1ed12d" x="407.93886" y="156.813741" style="fill: #134a8e; stroke: #134a8e"/>
     <use xlink:href="#mfa2d1ed12d" x="409.336855" y="156.720826" style="fill: #134a8e; stroke: #134a8e"/>
     <use xlink:href="#mfa2d1ed12d" x="410.734851" y="156.539862" style="fill: #134a8e; stroke: #134a8e"/>
     <use xlink:href="#mfa2d1ed12d" x="412.132847" y="156.283081" style="fill: #134a8e; stroke: #134a8e"/>
     <use xlink:href="#mfa2d1ed12d" x="413.530842" y="156.552858" style="fill: #134a8e; stroke: #134a8e"/>
     <use xlink:href="#mfa2d1ed12d" x="414.928838" y="156.665603" style="fill: #134a8e; stroke: #134a8e"/>
     <use xlink:href="#mfa2d1ed12d" x="416.326834" y="156.232551" style="fill: #134a8e; stroke: #134a8e"/>
     <use xlink:href="#mfa2d1ed12d" x="417.72483" y="156.593044" style="fill: #134a8e; stroke: #134a8e"/>
    </g>
   </g>
   <g id="line2d_28">
    <path d="M 62.63392 18.626371 
L 64.031916 23.851882 
L 65.429912 28.395965 
L 66.827908 22.644969 
L 68.225903 30.329956 
L 69.623899 39.286698 
L 71.021895 42.976165 
L 72.41989 48.280553 
L 73.817886 50.289969 
L 75.215882 50.349914 
L 76.613878 52.672988 
L 78.011873 54.623039 
L 79.409869 49.84228 
L 80.807865 66.485428 
L 82.20586 71.676853 
L 83.603856 77.993168 
L 85.001852 81.64897 
L 86.399847 90.276054 
L 89.195839 95.00415 
L 90.593835 94.255706 
L 91.99183 101.242819 
L 93.389826 102.388315 
L 94.787822 97.037854 
L 96.185817 99.983089 
L 97.583813 103.969051 
L 98.981809 111.383481 
L 101.7778 105.867694 
L 103.175796 108.024066 
L 104.573792 108.342211 
L 105.971787 109.860987 
L 107.369783 112.779288 
L 108.767779 116.425447 
L 110.165774 120.710297 
L 111.56377 116.593351 
L 112.961766 120.292968 
L 114.359762 128.131051 
L 115.757757 128.22201 
L 117.155753 128.10296 
L 118.553749 127.017793 
L 119.951744 126.166416 
L 121.34974 125.598228 
L 122.747736 126.190951 
L 124.145731 126.074051 
L 125.543727 124.091875 
L 126.941723 123.623049 
L 129.737714 123.053793 
L 131.13571 123.818806 
L 132.533706 125.34872 
L 133.931701 125.956776 
L 135.329697 127.220415 
L 136.727693 128.098809 
L 138.125689 129.683042 
L 139.523684 131.863345 
L 140.92168 132.296375 
L 142.319676 131.848535 
L 143.717671 132.988541 
L 145.115667 133.116137 
L 146.513663 131.619848 
L 147.911658 131.774775 
L 149.309654 136.165089 
L 150.70765 130.567098 
L 152.105646 131.190486 
L 153.503641 131.070769 
L 154.901637 131.12565 
L 156.299633 132.378408 
L 159.095624 132.106325 
L 160.49362 131.772057 
L 161.891616 132.686024 
L 163.289611 132.553576 
L 164.687607 134.453797 
L 166.085603 134.251433 
L 167.483598 134.229747 
L 168.881594 133.382698 
L 170.27959 135.66655 
L 173.075581 136.520954 
L 175.871573 137.912708 
L 177.269568 137.907817 
L 178.667564 140.014264 
L 180.06556 138.892518 
L 181.463555 140.821677 
L 182.861551 141.1224 
L 184.259547 141.208945 
L 185.657543 142.561774 
L 187.055538 142.936001 
L 188.453534 144.40947 
L 189.85153 143.375683 
L 191.249525 145.308663 
L 192.647521 146.967039 
L 195.443512 148.020478 
L 196.841508 148.905209 
L 198.239504 149.348335 
L 199.6375 148.273782 
L 201.035495 149.575358 
L 202.433491 150.234101 
L 203.831487 149.919721 
L 205.229482 149.410733 
L 206.627478 149.489333 
L 208.025474 149.16057 
L 209.423469 149.147099 
L 210.821465 149.557466 
L 212.219461 149.035958 
L 213.617457 148.350606 
L 215.015452 148.104902 
L 216.413448 148.81359 
L 217.811444 148.769324 
L 219.209439 149.348049 
L 220.607435 148.919982 
L 222.005431 148.824362 
L 223.403427 148.99935 
L 226.199418 149.522434 
L 228.995409 149.015435 
L 230.393405 148.456922 
L 233.189396 149.002463 
L 234.587392 148.691379 
L 235.985388 147.387716 
L 237.383384 146.510294 
L 238.781379 146.458017 
L 240.179375 145.880288 
L 241.577371 145.572689 
L 242.975366 145.102488 
L 244.373362 144.427242 
L 245.771358 143.426546 
L 247.169354 142.596823 
L 248.567349 143.056385 
L 249.965345 141.371029 
L 251.363341 139.872644 
L 252.761336 139.128201 
L 254.159332 136.487427 
L 255.557328 135.714715 
L 256.955323 136.689493 
L 258.353319 136.52895 
L 259.751315 133.738755 
L 261.149311 132.371121 
L 262.547306 131.737148 
L 263.945302 127.947378 
L 265.343298 126.718349 
L 266.741293 125.705742 
L 268.139289 124.523452 
L 269.537285 124.586889 
L 270.935281 123.194935 
L 272.333276 123.007724 
L 273.731272 124.635384 
L 275.129268 123.346293 
L 276.527263 118.478812 
L 277.925259 117.27883 
L 279.323255 119.630091 
L 280.72125 118.227129 
L 282.119246 116.545833 
L 283.517242 119.595441 
L 284.915238 118.915185 
L 286.313233 117.124945 
L 287.711229 117.214073 
L 289.109225 116.08841 
L 290.50722 114.7907 
L 291.905216 113.906294 
L 294.701207 114.107141 
L 296.099203 113.710435 
L 297.497199 114.931685 
L 298.895195 111.97374 
L 300.29319 112.033023 
L 301.691186 112.929719 
L 303.089182 111.58674 
L 304.487177 112.474909 
L 305.885173 111.166763 
L 307.283169 111.639785 
L 308.681165 111.086649 
L 310.07916 110.775742 
L 311.477156 108.822655 
L 312.875152 109.063681 
L 314.273147 108.669521 
L 315.671143 109.044214 
L 317.069139 110.009169 
L 318.467134 109.285075 
L 319.86513 107.858298 
L 321.263126 105.513054 
L 322.661122 105.312369 
L 324.059117 104.990946 
L 326.855109 107.443237 
L 328.253104 103.373689 
L 329.6511 105.069878 
L 331.049096 103.297147 
L 332.447092 101.227384 
L 333.845087 102.786841 
L 335.243083 101.219047 
L 336.641079 101.989404 
L 338.039074 101.508095 
L 339.43707 102.269756 
L 340.835066 103.873456 
L 342.233061 105.239634 
L 343.631057 104.265923 
L 345.029053 106.821695 
L 346.427049 106.347821 
L 347.825044 110.172274 
L 349.22304 110.552143 
L 350.621036 113.087136 
L 352.019031 113.717105 
L 353.417027 114.868191 
L 354.815023 118.524449 
L 356.213019 118.79943 
L 357.611014 119.936121 
L 359.00901 120.647177 
L 360.407006 124.286304 
L 361.805001 126.142787 
L 363.202997 129.429448 
L 365.998988 131.711172 
L 367.396984 133.954265 
L 370.192976 139.193825 
L 371.590971 140.526532 
L 372.988967 143.085274 
L 374.386963 143.662679 
L 375.784958 143.800187 
L 377.182954 146.266273 
L 378.58095 147.725715 
L 379.978946 148.561209 
L 381.376941 149.922503 
L 382.774937 150.876549 
L 384.172933 151.570114 
L 385.570928 151.167812 
L 386.968924 152.336721 
L 388.36692 153.149987 
L 391.162911 154.365134 
L 392.560907 154.29003 
L 393.958903 155.154308 
L 395.356898 154.832947 
L 396.754894 155.638565 
L 398.15289 155.924541 
L 399.550885 156.461478 
L 400.948881 156.48181 
L 402.346877 156.69735 
L 405.142868 156.786745 
L 406.540864 157.359758 
L 407.93886 157.255301 
L 410.734851 157.379186 
L 412.132847 157.670548 
L 413.530842 157.369412 
L 414.928838 158.76 
L 416.326834 156.889122 
L 417.72483 156.943367 
L 417.72483 156.943367 
" clip-path="url(#pae968ce082)" style="fill: none; stroke-dasharray: 5.55,2.4; stroke-dashoffset: 0; stroke: #000000; stroke-width: 1.5"/>
   </g>
   <g id="patch_3">
    <path d="M 44.879375 166.32 
L 44.879375 0 
" style="fill: none; stroke: #ffffff; stroke-linejoin: miter; stroke-linecap: square"/>
   </g>
   <g id="patch_4">
    <path d="M 435.479375 166.32 
L 435.479375 0 
" style="fill: none; stroke: #ffffff; stroke-linejoin: miter; stroke-linecap: square"/>
   </g>
   <g id="patch_5">
    <path d="M 44.879375 166.32 
L 435.479375 166.32 
" style="fill: none; stroke: #ffffff; stroke-linejoin: miter; stroke-linecap: square"/>
   </g>
   <g id="patch_6">
    <path d="M 44.879375 0 
L 435.479375 0 
" style="fill: none; stroke: #ffffff; stroke-linejoin: miter; stroke-linecap: square"/>
   </g>
   <g id="legend_1">
    <g id="patch_7">
     <path d="M 276.4325 60.378125 
L 428.479375 60.378125 
Q 430.479375 60.378125 430.479375 58.378125 
L 430.479375 7 
Q 430.479375 5 428.479375 5 
L 276.4325 5 
Q 274.4325 5 274.4325 7 
L 274.4325 58.378125 
Q 274.4325 60.378125 276.4325 60.378125 
z
" style="fill: #e5e5e5; opacity: 0.8; stroke: #cccccc; stroke-width: 0.5; stroke-linejoin: miter"/>
    </g>
    <g id="line2d_29">
     <path d="M 278.4325 15.5 
L 288.4325 15.5 
L 298.4325 15.5 
" style="fill: none; stroke: #134a8e; stroke-width: 3; stroke-linecap: square"/>
     <g>
      <use xlink:href="#mfa2d1ed12d" x="288.4325" y="15.5" style="fill: #134a8e; stroke: #134a8e"/>
     </g>
    </g>
    <g id="text_16">
     <!-- Private Value $\tilde{R}_{\chi_1,\chi_2}^t$ -->
     <g transform="translate(306.4325 19) scale(0.1 -0.1)">
      <defs>
       <path id="DejaVuSans-50" d="M 1259 4147 
L 1259 2394 
L 2053 2394 
Q 2494 2394 2734 2622 
Q 2975 2850 2975 3272 
Q 2975 3691 2734 3919 
Q 2494 4147 2053 4147 
L 1259 4147 
z
M 628 4666 
L 2053 4666 
Q 2838 4666 3239 4311 
Q 3641 3956 3641 3272 
Q 3641 2581 3239 2228 
Q 2838 1875 2053 1875 
L 1259 1875 
L 1259 0 
L 628 0 
L 628 4666 
z
" transform="scale(0.015625)"/>
       <path id="DejaVuSans-72" d="M 2631 2963 
Q 2534 3019 2420 3045 
Q 2306 3072 2169 3072 
Q 1681 3072 1420 2755 
Q 1159 2438 1159 1844 
L 1159 0 
L 581 0 
L 581 3500 
L 1159 3500 
L 1159 2956 
Q 1341 3275 1631 3429 
Q 1922 3584 2338 3584 
Q 2397 3584 2469 3576 
Q 2541 3569 2628 3553 
L 2631 2963 
z
" transform="scale(0.015625)"/>
       <path id="DejaVuSans-69" d="M 603 3500 
L 1178 3500 
L 1178 0 
L 603 0 
L 603 3500 
z
M 603 4863 
L 1178 4863 
L 1178 4134 
L 603 4134 
L 603 4863 
z
" transform="scale(0.015625)"/>
       <path id="DejaVuSans-76" d="M 191 3500 
L 800 3500 
L 1894 563 
L 2988 3500 
L 3597 3500 
L 2284 0 
L 1503 0 
L 191 3500 
z
" transform="scale(0.015625)"/>
       <path id="DejaVuSans-20" transform="scale(0.015625)"/>
       <path id="DejaVuSans-303" d="M -1621 4281 
L -1799 4453 
Q -1867 4516 -1919 4545 
Q -1971 4575 -2011 4575 
Q -2130 4575 -2186 4461 
Q -2242 4347 -2249 4091 
L -2639 4091 
Q -2633 4513 -2473 4742 
Q -2314 4972 -2030 4972 
Q -1911 4972 -1811 4928 
Q -1711 4884 -1596 4781 
L -1417 4609 
Q -1349 4547 -1297 4517 
Q -1246 4488 -1205 4488 
Q -1086 4488 -1030 4602 
Q -974 4716 -967 4972 
L -577 4972 
Q -583 4550 -742 4320 
Q -902 4091 -1186 4091 
Q -1305 4091 -1405 4134 
Q -1505 4178 -1621 4281 
z
" transform="scale(0.015625)"/>
       <path id="DejaVuSans-Oblique-52" d="M 1613 4147 
L 1294 2491 
L 2106 2491 
Q 2584 2491 2879 2755 
Q 3175 3019 3175 3444 
Q 3175 3784 2976 3965 
Q 2778 4147 2406 4147 
L 1613 4147 
z
M 2772 2241 
Q 2972 2194 3105 2009 
Q 3238 1825 3413 1275 
L 3809 0 
L 3144 0 
L 2778 1197 
Q 2638 1659 2453 1815 
Q 2269 1972 1888 1972 
L 1191 1972 
L 806 0 
L 172 0 
L 1081 4666 
L 2503 4666 
Q 3150 4666 3495 4373 
Q 3841 4081 3841 3531 
Q 3841 3044 3547 2687 
Q 3253 2331 2772 2241 
z
" transform="scale(0.015625)"/>
       <path id="DejaVuSans-Oblique-74" d="M 2706 3500 
L 2619 3053 
L 1472 3053 
L 1100 1153 
Q 1081 1047 1072 975 
Q 1063 903 1063 863 
Q 1063 663 1183 572 
Q 1303 481 1569 481 
L 2150 481 
L 2053 0 
L 1503 0 
Q 991 0 739 200 
Q 488 400 488 806 
Q 488 878 497 964 
Q 506 1050 525 1153 
L 897 3053 
L 409 3053 
L 500 3500 
L 978 3500 
L 1172 4494 
L 1747 4494 
L 1556 3500 
L 2706 3500 
z
" transform="scale(0.015625)"/>
       <path id="DejaVuSans-Oblique-3c7" d="M 1922 -781 
L 1691 416 
L 394 -1334 
L -284 -1334 
L 1553 1141 
L 1269 2613 
Q 1194 3006 713 3006 
L 559 3006 
L 653 3500 
L 872 3494 
Q 1675 3472 1775 2950 
L 2006 1753 
L 3303 3503 
L 3981 3503 
L 2144 1028 
L 2428 -444 
Q 2503 -838 2984 -838 
L 3138 -838 
L 3044 -1331 
L 2825 -1325 
Q 2022 -1303 1922 -781 
z
" transform="scale(0.015625)"/>
       <path id="DejaVuSans-2c" d="M 750 794 
L 1409 794 
L 1409 256 
L 897 -744 
L 494 -744 
L 750 256 
L 750 794 
z
" transform="scale(0.015625)"/>
      </defs>
      <use xlink:href="#DejaVuSans-50" transform="translate(0 0.828125)"/>
      <use xlink:href="#DejaVuSans-72" transform="translate(60.302734 0.828125)"/>
      <use xlink:href="#DejaVuSans-69" transform="translate(101.416016 0.828125)"/>
      <use xlink:href="#DejaVuSans-76" transform="translate(129.199219 0.828125)"/>
      <use xlink:href="#DejaVuSans-61" transform="translate(188.378906 0.828125)"/>
      <use xlink:href="#DejaVuSans-74" transform="translate(249.658203 0.828125)"/>
      <use xlink:href="#DejaVuSans-65" transform="translate(288.867188 0.828125)"/>
      <use xlink:href="#DejaVuSans-20" transform="translate(350.390625 0.828125)"/>
      <use xlink:href="#DejaVuSans-56" transform="translate(382.177734 0.828125)"/>
      <use xlink:href="#DejaVuSans-61" transform="translate(450.585938 0.828125)"/>
      <use xlink:href="#DejaVuSans-6c" transform="translate(511.865234 0.828125)"/>
      <use xlink:href="#DejaVuSans-75" transform="translate(539.648438 0.828125)"/>
      <use xlink:href="#DejaVuSans-65" transform="translate(603.027344 0.828125)"/>
      <use xlink:href="#DejaVuSans-20" transform="translate(664.550781 0.828125)"/>
      <use xlink:href="#DejaVuSans-303" transform="translate(764.942871 22.3125)"/>
      <use xlink:href="#DejaVuSans-Oblique-52" transform="translate(696.337891 0.828125)"/>
      <use xlink:href="#DejaVuSans-Oblique-74" transform="translate(766.777344 39.109375) scale(0.7)"/>
      <use xlink:href="#DejaVuSans-Oblique-3c7" transform="translate(766.777344 -26.515625) scale(0.7)"/>
      <use xlink:href="#DejaVuSans-31" transform="translate(808.203125 -38) scale(0.49)"/>
      <use xlink:href="#DejaVuSans-2c" transform="translate(841.29248 -26.515625) scale(0.7)"/>
      <use xlink:href="#DejaVuSans-Oblique-3c7" transform="translate(877.181152 -26.515625) scale(0.7)"/>
      <use xlink:href="#DejaVuSans-32" transform="translate(918.606934 -38) scale(0.49)"/>
     </g>
    </g>
    <g id="line2d_30">
     <path d="M 278.4325 34 
L 288.4325 34 
L 298.4325 34 
" style="fill: none; stroke-dasharray: 5.55,2.4; stroke-dashoffset: 0; stroke: #000000; stroke-width: 1.5"/>
    </g>
    <g id="text_17">
     <!-- Original Value $\bar{R}_{\chi_1,\chi_2}^t$ -->
     <g transform="translate(306.4325 37.5) scale(0.1 -0.1)">
      <defs>
       <path id="DejaVuSans-4f" d="M 2522 4238 
Q 1834 4238 1429 3725 
Q 1025 3213 1025 2328 
Q 1025 1447 1429 934 
Q 1834 422 2522 422 
Q 3209 422 3611 934 
Q 4013 1447 4013 2328 
Q 4013 3213 3611 3725 
Q 3209 4238 2522 4238 
z
M 2522 4750 
Q 3503 4750 4090 4092 
Q 4678 3434 4678 2328 
Q 4678 1225 4090 567 
Q 3503 -91 2522 -91 
Q 1538 -91 948 565 
Q 359 1222 359 2328 
Q 359 3434 948 4092 
Q 1538 4750 2522 4750 
z
" transform="scale(0.015625)"/>
       <path id="DejaVuSans-67" d="M 2906 1791 
Q 2906 2416 2648 2759 
Q 2391 3103 1925 3103 
Q 1463 3103 1205 2759 
Q 947 2416 947 1791 
Q 947 1169 1205 825 
Q 1463 481 1925 481 
Q 2391 481 2648 825 
Q 2906 1169 2906 1791 
z
M 3481 434 
Q 3481 -459 3084 -895 
Q 2688 -1331 1869 -1331 
Q 1566 -1331 1297 -1286 
Q 1028 -1241 775 -1147 
L 775 -588 
Q 1028 -725 1275 -790 
Q 1522 -856 1778 -856 
Q 2344 -856 2625 -561 
Q 2906 -266 2906 331 
L 2906 616 
Q 2728 306 2450 153 
Q 2172 0 1784 0 
Q 1141 0 747 490 
Q 353 981 353 1791 
Q 353 2603 747 3093 
Q 1141 3584 1784 3584 
Q 2172 3584 2450 3431 
Q 2728 3278 2906 2969 
L 2906 3500 
L 3481 3500 
L 3481 434 
z
" transform="scale(0.015625)"/>
       <path id="DejaVuSans-6e" d="M 3513 2113 
L 3513 0 
L 2938 0 
L 2938 2094 
Q 2938 2591 2744 2837 
Q 2550 3084 2163 3084 
Q 1697 3084 1428 2787 
Q 1159 2491 1159 1978 
L 1159 0 
L 581 0 
L 581 3500 
L 1159 3500 
L 1159 2956 
Q 1366 3272 1645 3428 
Q 1925 3584 2291 3584 
Q 2894 3584 3203 3211 
Q 3513 2838 3513 2113 
z
" transform="scale(0.015625)"/>
       <path id="DejaVuSans-304" d="M -2518 4769 
L -650 4769 
L -650 4306 
L -2518 4306 
L -2518 4769 
z
" transform="scale(0.015625)"/>
      </defs>
      <use xlink:href="#DejaVuSans-4f" transform="translate(0 0.359375)"/>
      <use xlink:href="#DejaVuSans-72" transform="translate(78.710938 0.359375)"/>
      <use xlink:href="#DejaVuSans-69" transform="translate(119.824219 0.359375)"/>
      <use xlink:href="#DejaVuSans-67" transform="translate(147.607422 0.359375)"/>
      <use xlink:href="#DejaVuSans-69" transform="translate(211.083984 0.359375)"/>
      <use xlink:href="#DejaVuSans-6e" transform="translate(238.867188 0.359375)"/>
      <use xlink:href="#DejaVuSans-61" transform="translate(302.246094 0.359375)"/>
      <use xlink:href="#DejaVuSans-6c" transform="translate(363.525391 0.359375)"/>
      <use xlink:href="#DejaVuSans-20" transform="translate(391.308594 0.359375)"/>
      <use xlink:href="#DejaVuSans-56" transform="translate(423.095703 0.359375)"/>
      <use xlink:href="#DejaVuSans-61" transform="translate(491.503906 0.359375)"/>
      <use xlink:href="#DejaVuSans-6c" transform="translate(552.783203 0.359375)"/>
      <use xlink:href="#DejaVuSans-75" transform="translate(580.566406 0.359375)"/>
      <use xlink:href="#DejaVuSans-65" transform="translate(643.945312 0.359375)"/>
      <use xlink:href="#DejaVuSans-20" transform="translate(705.46875 0.359375)"/>
      <use xlink:href="#DejaVuSans-304" transform="translate(804.970215 18.484375)"/>
      <use xlink:href="#DejaVuSans-Oblique-52" transform="translate(737.255859 0.359375)"/>
      <use xlink:href="#DejaVuSans-Oblique-74" transform="translate(807.695312 38.640625) scale(0.7)"/>
      <use xlink:href="#DejaVuSans-Oblique-3c7" transform="translate(807.695312 -26.984375) scale(0.7)"/>
      <use xlink:href="#DejaVuSans-31" transform="translate(849.121094 -38.46875) scale(0.49)"/>
      <use xlink:href="#DejaVuSans-2c" transform="translate(882.210449 -26.984375) scale(0.7)"/>
      <use xlink:href="#DejaVuSans-Oblique-3c7" transform="translate(918.099121 -26.984375) scale(0.7)"/>
      <use xlink:href="#DejaVuSans-32" transform="translate(959.524902 -38.46875) scale(0.49)"/>
     </g>
    </g>
    <g id="patch_8">
     <path d="M 278.4325 54.298438 
L 298.4325 54.298438 
L 298.4325 47.298438 
L 278.4325 47.298438 
z
" style="fill: #134a8e; fill-opacity: 0.5; stroke: #134a8e; stroke-opacity: 0.5; stroke-width: 0.5; stroke-linejoin: miter"/>
    </g>
    <g id="text_18">
     <!-- One Standard Deviation -->
     <g transform="translate(306.4325 54.298438) scale(0.1 -0.1)">
      <defs>
       <path id="DejaVuSans-53" d="M 3425 4513 
L 3425 3897 
Q 3066 4069 2747 4153 
Q 2428 4238 2131 4238 
Q 1616 4238 1336 4038 
Q 1056 3838 1056 3469 
Q 1056 3159 1242 3001 
Q 1428 2844 1947 2747 
L 2328 2669 
Q 3034 2534 3370 2195 
Q 3706 1856 3706 1288 
Q 3706 609 3251 259 
Q 2797 -91 1919 -91 
Q 1588 -91 1214 -16 
Q 841 59 441 206 
L 441 856 
Q 825 641 1194 531 
Q 1563 422 1919 422 
Q 2459 422 2753 634 
Q 3047 847 3047 1241 
Q 3047 1584 2836 1778 
Q 2625 1972 2144 2069 
L 1759 2144 
Q 1053 2284 737 2584 
Q 422 2884 422 3419 
Q 422 4038 858 4394 
Q 1294 4750 2059 4750 
Q 2388 4750 2728 4690 
Q 3069 4631 3425 4513 
z
" transform="scale(0.015625)"/>
       <path id="DejaVuSans-64" d="M 2906 2969 
L 2906 4863 
L 3481 4863 
L 3481 0 
L 2906 0 
L 2906 525 
Q 2725 213 2448 61 
Q 2172 -91 1784 -91 
Q 1150 -91 751 415 
Q 353 922 353 1747 
Q 353 2572 751 3078 
Q 1150 3584 1784 3584 
Q 2172 3584 2448 3432 
Q 2725 3281 2906 2969 
z
M 947 1747 
Q 947 1113 1208 752 
Q 1469 391 1925 391 
Q 2381 391 2643 752 
Q 2906 1113 2906 1747 
Q 2906 2381 2643 2742 
Q 2381 3103 1925 3103 
Q 1469 3103 1208 2742 
Q 947 2381 947 1747 
z
" transform="scale(0.015625)"/>
       <path id="DejaVuSans-6f" d="M 1959 3097 
Q 1497 3097 1228 2736 
Q 959 2375 959 1747 
Q 959 1119 1226 758 
Q 1494 397 1959 397 
Q 2419 397 2687 759 
Q 2956 1122 2956 1747 
Q 2956 2369 2687 2733 
Q 2419 3097 1959 3097 
z
M 1959 3584 
Q 2709 3584 3137 3096 
Q 3566 2609 3566 1747 
Q 3566 888 3137 398 
Q 2709 -91 1959 -91 
Q 1206 -91 779 398 
Q 353 888 353 1747 
Q 353 2609 779 3096 
Q 1206 3584 1959 3584 
z
" transform="scale(0.015625)"/>
      </defs>
      <use xlink:href="#DejaVuSans-4f"/>
      <use xlink:href="#DejaVuSans-6e" x="78.710938"/>
      <use xlink:href="#DejaVuSans-65" x="142.089844"/>
      <use xlink:href="#DejaVuSans-20" x="203.613281"/>
      <use xlink:href="#DejaVuSans-53" x="235.400391"/>
      <use xlink:href="#DejaVuSans-74" x="298.876953"/>
      <use xlink:href="#DejaVuSans-61" x="338.085938"/>
      <use xlink:href="#DejaVuSans-6e" x="399.365234"/>
      <use xlink:href="#DejaVuSans-64" x="462.744141"/>
      <use xlink:href="#DejaVuSans-61" x="526.220703"/>
      <use xlink:href="#DejaVuSans-72" x="587.5"/>
      <use xlink:href="#DejaVuSans-64" x="626.863281"/>
      <use xlink:href="#DejaVuSans-20" x="690.339844"/>
      <use xlink:href="#DejaVuSans-44" x="722.126953"/>
      <use xlink:href="#DejaVuSans-65" x="799.128906"/>
      <use xlink:href="#DejaVuSans-76" x="860.652344"/>
      <use xlink:href="#DejaVuSans-69" x="919.832031"/>
      <use xlink:href="#DejaVuSans-61" x="947.615234"/>
      <use xlink:href="#DejaVuSans-74" x="1008.894531"/>
      <use xlink:href="#DejaVuSans-69" x="1048.103516"/>
      <use xlink:href="#DejaVuSans-6f" x="1075.886719"/>
      <use xlink:href="#DejaVuSans-6e" x="1137.068359"/>
     </g>
    </g>
   </g>
  </g>
 </g>
 <defs>
  <clipPath id="pae968ce082">
   <rect x="44.879375" y="0" width="390.6" height="166.32"/>
  </clipPath>
 </defs>
</svg>
