<?xml version="1.0" encoding="utf-8" standalone="no"?>
<!DOCTYPE svg PUBLIC "-//W3C//DTD SVG 1.1//EN"
  "http://www.w3.org/Graphics/SVG/1.1/DTD/svg11.dtd">
<svg xmlns:xlink="http://www.w3.org/1999/xlink" width="438.012567pt" height="200.522379pt" viewBox="0 0 438.012567 200.522379" xmlns="http://www.w3.org/2000/svg" version="1.1">
 <metadata>
  <rdf:RDF xmlns:dc="http://purl.org/dc/elements/1.1/" xmlns:cc="http://creativecommons.org/ns#" xmlns:rdf="http://www.w3.org/1999/02/22-rdf-syntax-ns#">
   <cc:Work>
    <dc:type rdf:resource="http://purl.org/dc/dcmitype/StillImage"/>
    <dc:date>2024-09-18T15:47:40.597383</dc:date>
    <dc:format>image/svg+xml</dc:format>
    <dc:creator>
     <cc:Agent>
      <dc:title>Matplotlib v3.7.5, https://matplotlib.org/</dc:title>
     </cc:Agent>
    </dc:creator>
   </cc:Work>
  </rdf:RDF>
 </metadata>
 <defs>
  <style type="text/css">*{stroke-linejoin: round; stroke-linecap: butt}</style>
 </defs>
 <g id="figure_1">
  <g id="patch_1">
   <path d="M 0 200.522379 
L 438.012567 200.522379 
L 438.012567 0 
L 0 0 
z
" style="fill: #ffffff"/>
  </g>
  <g id="axes_1">
   <g id="patch_2">
    <path d="M 38.516875 168.230504 
L 429.116875 168.230504 
L 429.116875 1.910504 
L 38.516875 1.910504 
z
" style="fill: #e5e5e5"/>
   </g>
   <g id="matplotlib.axis_1">
    <g id="xtick_1">
     <g id="line2d_1">
      <path d="M 66.05739 168.230504 
L 66.05739 1.910504 
" clip-path="url(#p9ec661cf92)" style="fill: none; stroke: #ffffff; stroke-width: 0.8; stroke-linecap: square"/>
     </g>
     <g id="line2d_2">
      <defs>
       <path id="m1115dcb25b" d="M 0 0 
L 0 3.5 
" style="stroke: #555555; stroke-width: 0.8"/>
      </defs>
      <g>
       <use xlink:href="#m1115dcb25b" x="66.05739" y="168.230504" style="fill: #555555; stroke: #555555; stroke-width: 0.8"/>
      </g>
     </g>
     <g id="text_1">
      <!-- 08/16/20 -->
      <g style="fill: #555555" transform="translate(43.60114 182.828942) scale(0.1 -0.1)">
       <defs>
        <path id="DejaVuSans-30" d="M 2034 4250 
Q 1547 4250 1301 3770 
Q 1056 3291 1056 2328 
Q 1056 1369 1301 889 
Q 1547 409 2034 409 
Q 2525 409 2770 889 
Q 3016 1369 3016 2328 
Q 3016 3291 2770 3770 
Q 2525 4250 2034 4250 
z
M 2034 4750 
Q 2819 4750 3233 4129 
Q 3647 3509 3647 2328 
Q 3647 1150 3233 529 
Q 2819 -91 2034 -91 
Q 1250 -91 836 529 
Q 422 1150 422 2328 
Q 422 3509 836 4129 
Q 1250 4750 2034 4750 
z
" transform="scale(0.015625)"/>
        <path id="DejaVuSans-38" d="M 2034 2216 
Q 1584 2216 1326 1975 
Q 1069 1734 1069 1313 
Q 1069 891 1326 650 
Q 1584 409 2034 409 
Q 2484 409 2743 651 
Q 3003 894 3003 1313 
Q 3003 1734 2745 1975 
Q 2488 2216 2034 2216 
z
M 1403 2484 
Q 997 2584 770 2862 
Q 544 3141 544 3541 
Q 544 4100 942 4425 
Q 1341 4750 2034 4750 
Q 2731 4750 3128 4425 
Q 3525 4100 3525 3541 
Q 3525 3141 3298 2862 
Q 3072 2584 2669 2484 
Q 3125 2378 3379 2068 
Q 3634 1759 3634 1313 
Q 3634 634 3220 271 
Q 2806 -91 2034 -91 
Q 1263 -91 848 271 
Q 434 634 434 1313 
Q 434 1759 690 2068 
Q 947 2378 1403 2484 
z
M 1172 3481 
Q 1172 3119 1398 2916 
Q 1625 2713 2034 2713 
Q 2441 2713 2670 2916 
Q 2900 3119 2900 3481 
Q 2900 3844 2670 4047 
Q 2441 4250 2034 4250 
Q 1625 4250 1398 4047 
Q 1172 3844 1172 3481 
z
" transform="scale(0.015625)"/>
        <path id="DejaVuSans-2f" d="M 1625 4666 
L 2156 4666 
L 531 -594 
L 0 -594 
L 1625 4666 
z
" transform="scale(0.015625)"/>
        <path id="DejaVuSans-31" d="M 794 531 
L 1825 531 
L 1825 4091 
L 703 3866 
L 703 4441 
L 1819 4666 
L 2450 4666 
L 2450 531 
L 3481 531 
L 3481 0 
L 794 0 
L 794 531 
z
" transform="scale(0.015625)"/>
        <path id="DejaVuSans-36" d="M 2113 2584 
Q 1688 2584 1439 2293 
Q 1191 2003 1191 1497 
Q 1191 994 1439 701 
Q 1688 409 2113 409 
Q 2538 409 2786 701 
Q 3034 994 3034 1497 
Q 3034 2003 2786 2293 
Q 2538 2584 2113 2584 
z
M 3366 4563 
L 3366 3988 
Q 3128 4100 2886 4159 
Q 2644 4219 2406 4219 
Q 1781 4219 1451 3797 
Q 1122 3375 1075 2522 
Q 1259 2794 1537 2939 
Q 1816 3084 2150 3084 
Q 2853 3084 3261 2657 
Q 3669 2231 3669 1497 
Q 3669 778 3244 343 
Q 2819 -91 2113 -91 
Q 1303 -91 875 529 
Q 447 1150 447 2328 
Q 447 3434 972 4092 
Q 1497 4750 2381 4750 
Q 2619 4750 2861 4703 
Q 3103 4656 3366 4563 
z
" transform="scale(0.015625)"/>
        <path id="DejaVuSans-32" d="M 1228 531 
L 3431 531 
L 3431 0 
L 469 0 
L 469 531 
Q 828 903 1448 1529 
Q 2069 2156 2228 2338 
Q 2531 2678 2651 2914 
Q 2772 3150 2772 3378 
Q 2772 3750 2511 3984 
Q 2250 4219 1831 4219 
Q 1534 4219 1204 4116 
Q 875 4013 500 3803 
L 500 4441 
Q 881 4594 1212 4672 
Q 1544 4750 1819 4750 
Q 2544 4750 2975 4387 
Q 3406 4025 3406 3419 
Q 3406 3131 3298 2873 
Q 3191 2616 2906 2266 
Q 2828 2175 2409 1742 
Q 1991 1309 1228 531 
z
" transform="scale(0.015625)"/>
       </defs>
       <use xlink:href="#DejaVuSans-30"/>
       <use xlink:href="#DejaVuSans-38" x="63.623047"/>
       <use xlink:href="#DejaVuSans-2f" x="127.246094"/>
       <use xlink:href="#DejaVuSans-31" x="160.9375"/>
       <use xlink:href="#DejaVuSans-36" x="224.560547"/>
       <use xlink:href="#DejaVuSans-2f" x="288.183594"/>
       <use xlink:href="#DejaVuSans-32" x="321.875"/>
       <use xlink:href="#DejaVuSans-30" x="385.498047"/>
      </g>
     </g>
    </g>
    <g id="xtick_2">
     <g id="line2d_3">
      <path d="M 135.957176 168.230504 
L 135.957176 1.910504 
" clip-path="url(#p9ec661cf92)" style="fill: none; stroke: #ffffff; stroke-width: 0.8; stroke-linecap: square"/>
     </g>
     <g id="line2d_4">
      <g>
       <use xlink:href="#m1115dcb25b" x="135.957176" y="168.230504" style="fill: #555555; stroke: #555555; stroke-width: 0.8"/>
      </g>
     </g>
     <g id="text_2">
      <!-- 10/05/20 -->
      <g style="fill: #555555" transform="translate(113.500926 182.828942) scale(0.1 -0.1)">
       <defs>
        <path id="DejaVuSans-35" d="M 691 4666 
L 3169 4666 
L 3169 4134 
L 1269 4134 
L 1269 2991 
Q 1406 3038 1543 3061 
Q 1681 3084 1819 3084 
Q 2600 3084 3056 2656 
Q 3513 2228 3513 1497 
Q 3513 744 3044 326 
Q 2575 -91 1722 -91 
Q 1428 -91 1123 -41 
Q 819 9 494 109 
L 494 744 
Q 775 591 1075 516 
Q 1375 441 1709 441 
Q 2250 441 2565 725 
Q 2881 1009 2881 1497 
Q 2881 1984 2565 2268 
Q 2250 2553 1709 2553 
Q 1456 2553 1204 2497 
Q 953 2441 691 2322 
L 691 4666 
z
" transform="scale(0.015625)"/>
       </defs>
       <use xlink:href="#DejaVuSans-31"/>
       <use xlink:href="#DejaVuSans-30" x="63.623047"/>
       <use xlink:href="#DejaVuSans-2f" x="127.246094"/>
       <use xlink:href="#DejaVuSans-30" x="160.9375"/>
       <use xlink:href="#DejaVuSans-35" x="224.560547"/>
       <use xlink:href="#DejaVuSans-2f" x="288.183594"/>
       <use xlink:href="#DejaVuSans-32" x="321.875"/>
       <use xlink:href="#DejaVuSans-30" x="385.498047"/>
      </g>
     </g>
    </g>
    <g id="xtick_3">
     <g id="line2d_5">
      <path d="M 205.856961 168.230504 
L 205.856961 1.910504 
" clip-path="url(#p9ec661cf92)" style="fill: none; stroke: #ffffff; stroke-width: 0.8; stroke-linecap: square"/>
     </g>
     <g id="line2d_6">
      <g>
       <use xlink:href="#m1115dcb25b" x="205.856961" y="168.230504" style="fill: #555555; stroke: #555555; stroke-width: 0.8"/>
      </g>
     </g>
     <g id="text_3">
      <!-- 11/24/20 -->
      <g style="fill: #555555" transform="translate(183.400711 182.828942) scale(0.1 -0.1)">
       <defs>
        <path id="DejaVuSans-34" d="M 2419 4116 
L 825 1625 
L 2419 1625 
L 2419 4116 
z
M 2253 4666 
L 3047 4666 
L 3047 1625 
L 3713 1625 
L 3713 1100 
L 3047 1100 
L 3047 0 
L 2419 0 
L 2419 1100 
L 313 1100 
L 313 1709 
L 2253 4666 
z
" transform="scale(0.015625)"/>
       </defs>
       <use xlink:href="#DejaVuSans-31"/>
       <use xlink:href="#DejaVuSans-31" x="63.623047"/>
       <use xlink:href="#DejaVuSans-2f" x="127.246094"/>
       <use xlink:href="#DejaVuSans-32" x="160.9375"/>
       <use xlink:href="#DejaVuSans-34" x="224.560547"/>
       <use xlink:href="#DejaVuSans-2f" x="288.183594"/>
       <use xlink:href="#DejaVuSans-32" x="321.875"/>
       <use xlink:href="#DejaVuSans-30" x="385.498047"/>
      </g>
     </g>
    </g>
    <g id="xtick_4">
     <g id="line2d_7">
      <path d="M 275.756746 168.230504 
L 275.756746 1.910504 
" clip-path="url(#p9ec661cf92)" style="fill: none; stroke: #ffffff; stroke-width: 0.8; stroke-linecap: square"/>
     </g>
     <g id="line2d_8">
      <g>
       <use xlink:href="#m1115dcb25b" x="275.756746" y="168.230504" style="fill: #555555; stroke: #555555; stroke-width: 0.8"/>
      </g>
     </g>
     <g id="text_4">
      <!-- 01/13/21 -->
      <g style="fill: #555555" transform="translate(253.300496 182.828942) scale(0.1 -0.1)">
       <defs>
        <path id="DejaVuSans-33" d="M 2597 2516 
Q 3050 2419 3304 2112 
Q 3559 1806 3559 1356 
Q 3559 666 3084 287 
Q 2609 -91 1734 -91 
Q 1441 -91 1130 -33 
Q 819 25 488 141 
L 488 750 
Q 750 597 1062 519 
Q 1375 441 1716 441 
Q 2309 441 2620 675 
Q 2931 909 2931 1356 
Q 2931 1769 2642 2001 
Q 2353 2234 1838 2234 
L 1294 2234 
L 1294 2753 
L 1863 2753 
Q 2328 2753 2575 2939 
Q 2822 3125 2822 3475 
Q 2822 3834 2567 4026 
Q 2313 4219 1838 4219 
Q 1578 4219 1281 4162 
Q 984 4106 628 3988 
L 628 4550 
Q 988 4650 1302 4700 
Q 1616 4750 1894 4750 
Q 2613 4750 3031 4423 
Q 3450 4097 3450 3541 
Q 3450 3153 3228 2886 
Q 3006 2619 2597 2516 
z
" transform="scale(0.015625)"/>
       </defs>
       <use xlink:href="#DejaVuSans-30"/>
       <use xlink:href="#DejaVuSans-31" x="63.623047"/>
       <use xlink:href="#DejaVuSans-2f" x="127.246094"/>
       <use xlink:href="#DejaVuSans-31" x="160.9375"/>
       <use xlink:href="#DejaVuSans-33" x="224.560547"/>
       <use xlink:href="#DejaVuSans-2f" x="288.183594"/>
       <use xlink:href="#DejaVuSans-32" x="321.875"/>
       <use xlink:href="#DejaVuSans-31" x="385.498047"/>
      </g>
     </g>
    </g>
    <g id="xtick_5">
     <g id="line2d_9">
      <path d="M 345.656531 168.230504 
L 345.656531 1.910504 
" clip-path="url(#p9ec661cf92)" style="fill: none; stroke: #ffffff; stroke-width: 0.8; stroke-linecap: square"/>
     </g>
     <g id="line2d_10">
      <g>
       <use xlink:href="#m1115dcb25b" x="345.656531" y="168.230504" style="fill: #555555; stroke: #555555; stroke-width: 0.8"/>
      </g>
     </g>
     <g id="text_5">
      <!-- 03/04/21 -->
      <g style="fill: #555555" transform="translate(323.200281 182.828942) scale(0.1 -0.1)">
       <use xlink:href="#DejaVuSans-30"/>
       <use xlink:href="#DejaVuSans-33" x="63.623047"/>
       <use xlink:href="#DejaVuSans-2f" x="127.246094"/>
       <use xlink:href="#DejaVuSans-30" x="160.9375"/>
       <use xlink:href="#DejaVuSans-34" x="224.560547"/>
       <use xlink:href="#DejaVuSans-2f" x="288.183594"/>
       <use xlink:href="#DejaVuSans-32" x="321.875"/>
       <use xlink:href="#DejaVuSans-31" x="385.498047"/>
      </g>
     </g>
    </g>
    <g id="xtick_6">
     <g id="line2d_11">
      <path d="M 415.556317 168.230504 
L 415.556317 1.910504 
" clip-path="url(#p9ec661cf92)" style="fill: none; stroke: #ffffff; stroke-width: 0.8; stroke-linecap: square"/>
     </g>
     <g id="line2d_12">
      <g>
       <use xlink:href="#m1115dcb25b" x="415.556317" y="168.230504" style="fill: #555555; stroke: #555555; stroke-width: 0.8"/>
      </g>
     </g>
     <g id="text_6">
      <!-- 04/23/21 -->
      <g style="fill: #555555" transform="translate(393.100067 182.828942) scale(0.1 -0.1)">
       <use xlink:href="#DejaVuSans-30"/>
       <use xlink:href="#DejaVuSans-34" x="63.623047"/>
       <use xlink:href="#DejaVuSans-2f" x="127.246094"/>
       <use xlink:href="#DejaVuSans-32" x="160.9375"/>
       <use xlink:href="#DejaVuSans-33" x="224.560547"/>
       <use xlink:href="#DejaVuSans-2f" x="288.183594"/>
       <use xlink:href="#DejaVuSans-32" x="321.875"/>
       <use xlink:href="#DejaVuSans-31" x="385.498047"/>
      </g>
     </g>
    </g>
    <g id="text_7">
     <!-- Date -->
     <g style="fill: #555555" transform="translate(219.475938 198.026754) scale(0.12 -0.12)">
      <defs>
       <path id="DejaVuSans-44" d="M 1259 4147 
L 1259 519 
L 2022 519 
Q 2988 519 3436 956 
Q 3884 1394 3884 2338 
Q 3884 3275 3436 3711 
Q 2988 4147 2022 4147 
L 1259 4147 
z
M 628 4666 
L 1925 4666 
Q 3281 4666 3915 4102 
Q 4550 3538 4550 2338 
Q 4550 1131 3912 565 
Q 3275 0 1925 0 
L 628 0 
L 628 4666 
z
" transform="scale(0.015625)"/>
       <path id="DejaVuSans-61" d="M 2194 1759 
Q 1497 1759 1228 1600 
Q 959 1441 959 1056 
Q 959 750 1161 570 
Q 1363 391 1709 391 
Q 2188 391 2477 730 
Q 2766 1069 2766 1631 
L 2766 1759 
L 2194 1759 
z
M 3341 1997 
L 3341 0 
L 2766 0 
L 2766 531 
Q 2569 213 2275 61 
Q 1981 -91 1556 -91 
Q 1019 -91 701 211 
Q 384 513 384 1019 
Q 384 1609 779 1909 
Q 1175 2209 1959 2209 
L 2766 2209 
L 2766 2266 
Q 2766 2663 2505 2880 
Q 2244 3097 1772 3097 
Q 1472 3097 1187 3025 
Q 903 2953 641 2809 
L 641 3341 
Q 956 3463 1253 3523 
Q 1550 3584 1831 3584 
Q 2591 3584 2966 3190 
Q 3341 2797 3341 1997 
z
" transform="scale(0.015625)"/>
       <path id="DejaVuSans-74" d="M 1172 4494 
L 1172 3500 
L 2356 3500 
L 2356 3053 
L 1172 3053 
L 1172 1153 
Q 1172 725 1289 603 
Q 1406 481 1766 481 
L 2356 481 
L 2356 0 
L 1766 0 
Q 1100 0 847 248 
Q 594 497 594 1153 
L 594 3053 
L 172 3053 
L 172 3500 
L 594 3500 
L 594 4494 
L 1172 4494 
z
" transform="scale(0.015625)"/>
       <path id="DejaVuSans-65" d="M 3597 1894 
L 3597 1613 
L 953 1613 
Q 991 1019 1311 708 
Q 1631 397 2203 397 
Q 2534 397 2845 478 
Q 3156 559 3463 722 
L 3463 178 
Q 3153 47 2828 -22 
Q 2503 -91 2169 -91 
Q 1331 -91 842 396 
Q 353 884 353 1716 
Q 353 2575 817 3079 
Q 1281 3584 2069 3584 
Q 2775 3584 3186 3129 
Q 3597 2675 3597 1894 
z
M 3022 2063 
Q 3016 2534 2758 2815 
Q 2500 3097 2075 3097 
Q 1594 3097 1305 2825 
Q 1016 2553 972 2059 
L 3022 2063 
z
" transform="scale(0.015625)"/>
      </defs>
      <use xlink:href="#DejaVuSans-44"/>
      <use xlink:href="#DejaVuSans-61" x="77.001953"/>
      <use xlink:href="#DejaVuSans-74" x="138.28125"/>
      <use xlink:href="#DejaVuSans-65" x="177.490234"/>
     </g>
    </g>
   </g>
   <g id="matplotlib.axis_2">
    <g id="ytick_1">
     <g id="line2d_13">
      <path d="M 38.516875 128.340712 
L 429.116875 128.340712 
" clip-path="url(#p9ec661cf92)" style="fill: none; stroke: #ffffff; stroke-width: 0.8; stroke-linecap: square"/>
     </g>
     <g id="line2d_14">
      <defs>
       <path id="m57d61ce0b6" d="M 0 0 
L -3.5 0 
" style="stroke: #555555; stroke-width: 0.8"/>
      </defs>
      <g>
       <use xlink:href="#m57d61ce0b6" x="38.516875" y="128.340712" style="fill: #555555; stroke: #555555; stroke-width: 0.8"/>
      </g>
     </g>
     <g id="text_8">
      <!-- 0.1 -->
      <g style="fill: #555555" transform="translate(15.61375 132.139931) scale(0.1 -0.1)">
       <defs>
        <path id="DejaVuSans-2e" d="M 684 794 
L 1344 794 
L 1344 0 
L 684 0 
L 684 794 
z
" transform="scale(0.015625)"/>
       </defs>
       <use xlink:href="#DejaVuSans-30"/>
       <use xlink:href="#DejaVuSans-2e" x="63.623047"/>
       <use xlink:href="#DejaVuSans-31" x="95.410156"/>
      </g>
     </g>
    </g>
    <g id="ytick_2">
     <g id="line2d_15">
      <path d="M 38.516875 86.826881 
L 429.116875 86.826881 
" clip-path="url(#p9ec661cf92)" style="fill: none; stroke: #ffffff; stroke-width: 0.8; stroke-linecap: square"/>
     </g>
     <g id="line2d_16">
      <g>
       <use xlink:href="#m57d61ce0b6" x="38.516875" y="86.826881" style="fill: #555555; stroke: #555555; stroke-width: 0.8"/>
      </g>
     </g>
     <g id="text_9">
      <!-- 0.2 -->
      <g style="fill: #555555" transform="translate(15.61375 90.6261) scale(0.1 -0.1)">
       <use xlink:href="#DejaVuSans-30"/>
       <use xlink:href="#DejaVuSans-2e" x="63.623047"/>
       <use xlink:href="#DejaVuSans-32" x="95.410156"/>
      </g>
     </g>
    </g>
    <g id="ytick_3">
     <g id="line2d_17">
      <path d="M 38.516875 45.31305 
L 429.116875 45.31305 
" clip-path="url(#p9ec661cf92)" style="fill: none; stroke: #ffffff; stroke-width: 0.8; stroke-linecap: square"/>
     </g>
     <g id="line2d_18">
      <g>
       <use xlink:href="#m57d61ce0b6" x="38.516875" y="45.31305" style="fill: #555555; stroke: #555555; stroke-width: 0.8"/>
      </g>
     </g>
     <g id="text_10">
      <!-- 0.3 -->
      <g style="fill: #555555" transform="translate(15.61375 49.112269) scale(0.1 -0.1)">
       <use xlink:href="#DejaVuSans-30"/>
       <use xlink:href="#DejaVuSans-2e" x="63.623047"/>
       <use xlink:href="#DejaVuSans-33" x="95.410156"/>
      </g>
     </g>
    </g>
    <g id="ytick_4">
     <g id="line2d_19">
      <path d="M 38.516875 3.799219 
L 429.116875 3.799219 
" clip-path="url(#p9ec661cf92)" style="fill: none; stroke: #ffffff; stroke-width: 0.8; stroke-linecap: square"/>
     </g>
     <g id="line2d_20">
      <g>
       <use xlink:href="#m57d61ce0b6" x="38.516875" y="3.799219" style="fill: #555555; stroke: #555555; stroke-width: 0.8"/>
      </g>
     </g>
     <g id="text_11">
      <!-- 0.4 -->
      <g style="fill: #555555" transform="translate(15.61375 7.598437) scale(0.1 -0.1)">
       <use xlink:href="#DejaVuSans-30"/>
       <use xlink:href="#DejaVuSans-2e" x="63.623047"/>
       <use xlink:href="#DejaVuSans-34" x="95.410156"/>
      </g>
     </g>
    </g>
    <g id="text_12">
     <!-- Value -->
     <g style="fill: #555555" transform="translate(9.118125 101.548004) rotate(-90) scale(0.12 -0.12)">
      <defs>
       <path id="DejaVuSans-56" d="M 1831 0 
L 50 4666 
L 709 4666 
L 2188 738 
L 3669 4666 
L 4325 4666 
L 2547 0 
L 1831 0 
z
" transform="scale(0.015625)"/>
       <path id="DejaVuSans-6c" d="M 603 4863 
L 1178 4863 
L 1178 0 
L 603 0 
L 603 4863 
z
" transform="scale(0.015625)"/>
       <path id="DejaVuSans-75" d="M 544 1381 
L 544 3500 
L 1119 3500 
L 1119 1403 
Q 1119 906 1312 657 
Q 1506 409 1894 409 
Q 2359 409 2629 706 
Q 2900 1003 2900 1516 
L 2900 3500 
L 3475 3500 
L 3475 0 
L 2900 0 
L 2900 538 
Q 2691 219 2414 64 
Q 2138 -91 1772 -91 
Q 1169 -91 856 284 
Q 544 659 544 1381 
z
M 1991 3584 
L 1991 3584 
z
" transform="scale(0.015625)"/>
      </defs>
      <use xlink:href="#DejaVuSans-56"/>
      <use xlink:href="#DejaVuSans-61" x="60.658203"/>
      <use xlink:href="#DejaVuSans-6c" x="121.9375"/>
      <use xlink:href="#DejaVuSans-75" x="149.720703"/>
      <use xlink:href="#DejaVuSans-65" x="213.099609"/>
     </g>
    </g>
   </g>
   <g id="PolyCollection_1">
    <defs>
     <path id="m88fe4b2ef5" d="M 56.27142 -177.043557 
L 56.27142 -191.051875 
L 57.669416 -188.022769 
L 59.067412 -176.765712 
L 60.465408 -180.720281 
L 61.863403 -173.526751 
L 63.261399 -167.425087 
L 64.659395 -162.723023 
L 66.05739 -149.892451 
L 67.455386 -154.796665 
L 68.853382 -157.973333 
L 70.251378 -152.133806 
L 71.649373 -153.151865 
L 73.047369 -154.249382 
L 74.445365 -141.653143 
L 75.84336 -135.0127 
L 77.241356 -124.41832 
L 78.639352 -119.698936 
L 80.037347 -115.671264 
L 81.435343 -115.980521 
L 82.833339 -114.988553 
L 84.231335 -114.731296 
L 85.62933 -103.86557 
L 87.027326 -104.728324 
L 88.425322 -110.46072 
L 89.823317 -109.197979 
L 91.221313 -104.0533 
L 92.619309 -95.891562 
L 94.017304 -99.101721 
L 95.4153 -98.279061 
L 96.813296 -98.248838 
L 98.211292 -98.092138 
L 99.609287 -99.574727 
L 101.007283 -91.737539 
L 102.405279 -87.345506 
L 103.803274 -83.728974 
L 105.20127 -86.493521 
L 106.599266 -83.868732 
L 107.997262 -75.114172 
L 109.395257 -74.022402 
L 110.793253 -73.602751 
L 112.191249 -74.972328 
L 113.589244 -74.631615 
L 114.98724 -75.263944 
L 116.385236 -75.876567 
L 117.783231 -75.728879 
L 119.181227 -76.685771 
L 120.579223 -77.979739 
L 121.977219 -77.887364 
L 123.375214 -78.614587 
L 124.77321 -78.170751 
L 126.171206 -76.12729 
L 127.569201 -79.639354 
L 128.967197 -73.976114 
L 130.365193 -72.156307 
L 131.763189 -72.810403 
L 133.161184 -71.965896 
L 134.55918 -71.778972 
L 135.957176 -70.395693 
L 137.355171 -70.208467 
L 138.753167 -70.123127 
L 140.151163 -70.056886 
L 141.549158 -70.879387 
L 142.947154 -69.3165 
L 144.34515 -71.851585 
L 145.743146 -72.050034 
L 147.141141 -72.184786 
L 148.539137 -70.472591 
L 149.937133 -70.857892 
L 151.335128 -71.963603 
L 152.733124 -71.114196 
L 154.13112 -71.832634 
L 155.529116 -70.844646 
L 156.927111 -70.304461 
L 158.325107 -67.556801 
L 159.723103 -68.057611 
L 161.121098 -70.580477 
L 162.519094 -70.719095 
L 163.91709 -67.185798 
L 165.315085 -67.193643 
L 166.713081 -66.78299 
L 168.111077 -66.476682 
L 169.509073 -64.367787 
L 170.907068 -66.001128 
L 172.305064 -63.691218 
L 173.70306 -63.660993 
L 175.101055 -63.078462 
L 176.499051 -63.395457 
L 177.897047 -62.217054 
L 179.295043 -61.809304 
L 180.693038 -61.755353 
L 182.091034 -61.913185 
L 183.48903 -62.249661 
L 184.887025 -60.888218 
L 186.285021 -53.754314 
L 187.683017 -53.852941 
L 189.081012 -53.809142 
L 190.479008 -52.585742 
L 191.877004 -52.830118 
L 193.275 -53.550213 
L 194.672995 -50.435019 
L 196.070991 -50.555459 
L 197.468987 -50.38656 
L 198.866982 -51.488899 
L 200.264978 -51.676921 
L 201.662974 -51.880302 
L 203.060969 -51.616976 
L 204.458965 -51.436896 
L 205.856961 -52.102867 
L 207.254957 -53.925039 
L 208.652952 -53.866942 
L 210.050948 -52.421611 
L 211.448944 -51.243383 
L 212.846939 -51.422481 
L 214.244935 -51.245278 
L 215.642931 -52.362969 
L 217.040927 -52.599341 
L 218.438922 -52.250166 
L 219.836918 -52.218351 
L 221.234914 -53.548036 
L 222.632909 -53.547923 
L 224.030905 -53.691705 
L 225.428901 -53.731745 
L 226.826896 -53.649183 
L 228.224892 -53.770055 
L 229.622888 -58.114421 
L 231.020884 -57.883786 
L 232.418879 -57.978376 
L 233.816875 -57.459838 
L 235.214871 -58.396654 
L 236.612866 -57.660354 
L 238.010862 -59.741099 
L 239.408858 -59.779372 
L 240.806854 -59.875069 
L 242.204849 -59.929048 
L 243.602845 -61.187503 
L 245.000841 -61.039334 
L 246.398836 -62.978218 
L 247.796832 -66.833805 
L 249.194828 -66.742166 
L 250.592823 -66.838815 
L 251.990819 -66.831386 
L 253.388815 -67.208195 
L 254.786811 -69.914331 
L 256.184806 -71.675772 
L 257.582802 -81.536061 
L 258.980798 -84.257759 
L 260.378793 -86.348609 
L 261.776789 -87.004322 
L 263.174785 -87.840558 
L 264.572781 -90.446356 
L 265.970776 -88.37056 
L 267.368772 -87.927825 
L 268.766768 -87.796589 
L 270.164763 -90.922493 
L 271.562759 -90.690651 
L 272.960755 -91.25276 
L 274.35875 -90.221205 
L 275.756746 -90.87619 
L 277.154742 -88.875172 
L 278.552738 -89.716154 
L 279.950733 -89.643696 
L 281.348729 -89.431168 
L 282.746725 -89.792024 
L 284.14472 -92.868565 
L 285.542716 -92.809629 
L 286.940712 -93.218243 
L 288.338707 -92.887916 
L 289.736703 -93.61806 
L 291.134699 -93.611687 
L 292.532695 -93.56652 
L 293.93069 -93.59865 
L 295.328686 -94.577672 
L 296.726682 -95.597656 
L 298.124677 -96.458516 
L 299.522673 -98.788026 
L 300.920669 -99.127272 
L 302.318665 -96.192499 
L 303.71666 -96.020156 
L 305.114656 -98.931369 
L 306.512652 -99.149363 
L 307.910647 -99.066662 
L 309.308643 -99.490779 
L 310.706639 -100.180862 
L 312.104634 -100.047629 
L 313.50263 -98.934062 
L 314.900626 -100.237278 
L 316.298622 -101.160941 
L 317.696617 -101.003478 
L 319.094613 -99.96681 
L 320.492609 -101.01012 
L 321.890604 -101.509684 
L 323.2886 -100.96347 
L 324.686596 -100.343102 
L 326.084592 -101.402878 
L 327.482587 -101.314953 
L 328.880583 -102.317584 
L 330.278579 -102.744871 
L 331.676574 -103.320706 
L 333.07457 -99.860745 
L 334.472566 -98.481784 
L 335.870561 -96.101861 
L 337.268557 -96.507026 
L 338.666553 -97.873811 
L 340.064549 -98.853596 
L 341.462544 -98.300287 
L 342.86054 -97.134516 
L 344.258536 -96.442837 
L 345.656531 -96.364235 
L 347.054527 -93.349725 
L 348.452523 -89.984981 
L 349.850519 -89.197426 
L 351.248514 -85.793298 
L 352.64651 -87.412807 
L 354.044506 -84.588846 
L 355.442501 -79.900094 
L 356.840497 -71.558725 
L 358.238493 -70.338909 
L 359.636488 -70.219026 
L 361.034484 -68.088252 
L 362.43248 -67.660283 
L 363.830476 -65.141714 
L 365.228471 -65.022963 
L 366.626467 -61.704122 
L 368.024463 -56.322184 
L 369.422458 -56.411316 
L 370.820454 -54.5854 
L 372.21845 -53.547701 
L 373.616446 -53.206099 
L 375.014441 -50.746855 
L 376.412437 -50.066687 
L 377.810433 -50.06114 
L 379.208428 -49.830724 
L 380.606424 -49.673592 
L 382.00442 -49.683987 
L 383.402415 -46.855943 
L 384.800411 -47.103789 
L 386.198407 -46.966314 
L 387.596403 -47.16814 
L 388.994398 -46.76525 
L 390.392394 -47.037123 
L 391.79039 -46.901621 
L 393.188385 -43.627448 
L 394.586381 -43.251681 
L 395.984377 -43.204555 
L 397.382372 -43.109039 
L 398.780368 -42.97845 
L 400.178364 -43.226208 
L 401.57636 -43.097869 
L 402.974355 -43.386372 
L 404.372351 -43.376561 
L 405.770347 -43.008797 
L 407.168342 -43.107002 
L 408.566338 -43.222271 
L 409.964334 -43.250047 
L 411.36233 -43.088608 
L 411.36233 -41.122279 
L 411.36233 -41.122279 
L 409.964334 -41.13493 
L 408.566338 -40.918019 
L 407.168342 -41.011691 
L 405.770347 -40.898603 
L 404.372351 -41.238723 
L 402.974355 -40.95951 
L 401.57636 -40.956746 
L 400.178364 -41.062559 
L 398.780368 -40.911953 
L 397.382372 -40.825769 
L 395.984377 -41.158892 
L 394.586381 -41.085897 
L 393.188385 -41.389303 
L 391.79039 -43.806743 
L 390.392394 -44.231053 
L 388.994398 -44.069636 
L 387.596403 -44.344559 
L 386.198407 -44.252736 
L 384.800411 -44.320901 
L 383.402415 -44.216073 
L 382.00442 -46.360757 
L 380.606424 -46.43087 
L 379.208428 -46.917859 
L 377.810433 -46.803388 
L 376.412437 -46.90526 
L 375.014441 -48.126885 
L 373.616446 -50.059147 
L 372.21845 -50.592126 
L 370.820454 -51.167306 
L 369.422458 -52.991678 
L 368.024463 -52.87585 
L 366.626467 -57.805345 
L 365.228471 -60.179403 
L 363.830476 -60.486115 
L 362.43248 -63.152014 
L 361.034484 -63.647703 
L 359.636488 -65.727021 
L 358.238493 -65.780447 
L 356.840497 -66.531125 
L 355.442501 -73.879072 
L 354.044506 -77.825718 
L 352.64651 -80.143552 
L 351.248514 -78.911728 
L 349.850519 -82.880845 
L 348.452523 -82.449561 
L 347.054527 -87.112598 
L 345.656531 -88.5147 
L 344.258536 -89.213031 
L 342.86054 -89.997882 
L 341.462544 -89.251696 
L 340.064549 -91.167909 
L 338.666553 -90.134401 
L 337.268557 -88.145282 
L 335.870561 -88.194741 
L 334.472566 -90.56026 
L 333.07457 -92.275541 
L 331.676574 -95.425265 
L 330.278579 -94.129775 
L 328.880583 -94.50279 
L 327.482587 -93.55461 
L 326.084592 -93.542517 
L 324.686596 -93.891821 
L 323.2886 -92.828455 
L 321.890604 -93.977866 
L 320.492609 -92.911217 
L 319.094613 -92.775869 
L 317.696617 -93.041407 
L 316.298622 -92.342605 
L 314.900626 -91.996183 
L 313.50263 -91.384878 
L 312.104634 -91.830534 
L 310.706639 -91.014111 
L 309.308643 -91.719977 
L 307.910647 -91.749183 
L 306.512652 -90.861016 
L 305.114656 -90.954694 
L 303.71666 -88.157226 
L 302.318665 -88.25801 
L 300.920669 -91.777231 
L 299.522673 -91.671815 
L 298.124677 -88.517887 
L 296.726682 -88.76032 
L 295.328686 -86.459367 
L 293.93069 -86.753329 
L 292.532695 -86.774272 
L 291.134699 -85.59 
L 289.736703 -85.81866 
L 288.338707 -85.242865 
L 286.940712 -85.733009 
L 285.542716 -85.540443 
L 284.14472 -85.047942 
L 282.746725 -83.293057 
L 281.348729 -81.637994 
L 279.950733 -81.938704 
L 278.552738 -82.466652 
L 277.154742 -81.325756 
L 275.756746 -83.851292 
L 274.35875 -83.787373 
L 272.960755 -83.819306 
L 271.562759 -83.565293 
L 270.164763 -83.636773 
L 268.766768 -81.330945 
L 267.368772 -80.675491 
L 265.970776 -81.61709 
L 264.572781 -82.890118 
L 263.174785 -81.185817 
L 261.776789 -80.085984 
L 260.378793 -79.881364 
L 258.980798 -77.053863 
L 257.582802 -74.915569 
L 256.184806 -66.867253 
L 254.786811 -65.100084 
L 253.388815 -62.565188 
L 251.990819 -62.512268 
L 250.592823 -62.112328 
L 249.194828 -62.441367 
L 247.796832 -62.847955 
L 246.398836 -59.357313 
L 245.000841 -57.339325 
L 243.602845 -57.736941 
L 242.204849 -56.402465 
L 240.806854 -56.049804 
L 239.408858 -56.626502 
L 238.010862 -55.980026 
L 236.612866 -54.270004 
L 235.214871 -55.008651 
L 233.816875 -54.142686 
L 232.418879 -54.311351 
L 231.020884 -54.057337 
L 229.622888 -54.57191 
L 228.224892 -50.636759 
L 226.826896 -50.388121 
L 225.428901 -50.435328 
L 224.030905 -50.726035 
L 222.632909 -50.417264 
L 221.234914 -50.380785 
L 219.836918 -49.267273 
L 218.438922 -49.154651 
L 217.040927 -49.47759 
L 215.642931 -49.351184 
L 214.244935 -48.068157 
L 212.846939 -48.431004 
L 211.448944 -48.493557 
L 210.050948 -49.599466 
L 208.652952 -50.728818 
L 207.254957 -50.961056 
L 205.856961 -48.692104 
L 204.458965 -48.432225 
L 203.060969 -48.725827 
L 201.662974 -48.292295 
L 200.264978 -48.424917 
L 198.866982 -48.381357 
L 197.468987 -47.668163 
L 196.070991 -47.399255 
L 194.672995 -47.489713 
L 193.275 -50.907909 
L 191.877004 -49.712585 
L 190.479008 -49.541372 
L 189.081012 -51.034515 
L 187.683017 -50.838076 
L 186.285021 -50.473311 
L 184.887025 -56.70013 
L 183.48903 -57.881152 
L 182.091034 -58.18462 
L 180.693038 -58.061438 
L 179.295043 -57.688873 
L 177.897047 -58.211978 
L 176.499051 -59.407717 
L 175.101055 -59.584972 
L 173.70306 -59.74522 
L 172.305064 -60.167533 
L 170.907068 -61.514074 
L 169.509073 -60.530472 
L 168.111077 -62.00749 
L 166.713081 -61.927444 
L 165.315085 -62.649139 
L 163.91709 -62.572859 
L 162.519094 -65.823238 
L 161.121098 -65.733751 
L 159.723103 -64.131855 
L 158.325107 -63.544246 
L 156.927111 -65.876549 
L 155.529116 -66.057498 
L 154.13112 -67.072096 
L 152.733124 -65.802973 
L 151.335128 -67.446466 
L 149.937133 -65.910337 
L 148.539137 -65.786971 
L 147.141141 -67.252691 
L 145.743146 -67.330316 
L 144.34515 -67.079441 
L 142.947154 -64.792876 
L 141.549158 -65.971674 
L 140.151163 -65.755 
L 138.753167 -65.842807 
L 137.355171 -65.763829 
L 135.957176 -66.062949 
L 134.55918 -66.990002 
L 133.161184 -67.335286 
L 131.763189 -68.328187 
L 130.365193 -68.101806 
L 128.967197 -68.909219 
L 127.569201 -74.315378 
L 126.171206 -71.320083 
L 124.77321 -72.98019 
L 123.375214 -73.248262 
L 121.977219 -72.699073 
L 120.579223 -72.416334 
L 119.181227 -71.90044 
L 117.783231 -70.774512 
L 116.385236 -70.641656 
L 114.98724 -69.483941 
L 113.589244 -70.120514 
L 112.191249 -69.520721 
L 110.793253 -68.652569 
L 109.395257 -68.952023 
L 107.997262 -70.078159 
L 106.599266 -78.326145 
L 105.20127 -80.705167 
L 103.803274 -77.775714 
L 102.405279 -81.634748 
L 101.007283 -83.979226 
L 99.609287 -91.690977 
L 98.211292 -90.412447 
L 96.813296 -90.357815 
L 95.4153 -90.259417 
L 94.017304 -90.768848 
L 92.619309 -88.539817 
L 91.221313 -96.121981 
L 89.823317 -100.554226 
L 88.425322 -102.501748 
L 87.027326 -96.263051 
L 85.62933 -96.29068 
L 84.231335 -104.748879 
L 82.833339 -104.724558 
L 81.435343 -107.038241 
L 80.037347 -107.124559 
L 78.639352 -111.181142 
L 77.241356 -114.431243 
L 75.84336 -124.305719 
L 74.445365 -132.204367 
L 73.047369 -143.111043 
L 71.649373 -141.956156 
L 70.251378 -141.592402 
L 68.853382 -145.641757 
L 67.455386 -142.871818 
L 66.05739 -138.889443 
L 64.659395 -149.28513 
L 63.261399 -155.159779 
L 61.863403 -161.61904 
L 60.465408 -167.776409 
L 59.067412 -164.092402 
L 57.669416 -174.528803 
L 56.27142 -177.043557 
z
" style="stroke: #134a8e; stroke-opacity: 0.5; stroke-width: 0.5"/>
    </defs>
    <g clip-path="url(#p9ec661cf92)">
     <use xlink:href="#m88fe4b2ef5" x="0" y="200.522379" style="fill: #134a8e; fill-opacity: 0.5; stroke: #134a8e; stroke-opacity: 0.5; stroke-width: 0.5"/>
    </g>
   </g>
   <g id="line2d_21">
    <path d="M 56.27142 16.474663 
L 57.669416 19.246593 
L 59.067412 30.093322 
L 60.465408 26.274034 
L 63.261399 39.229946 
L 64.659395 44.518303 
L 66.05739 56.131432 
L 67.455386 51.688138 
L 68.853382 48.714834 
L 70.251378 53.659275 
L 71.649373 52.968369 
L 73.047369 51.842167 
L 74.445365 63.593624 
L 75.84336 70.86317 
L 77.241356 81.097598 
L 80.037347 89.124468 
L 81.435343 89.012998 
L 82.833339 90.665824 
L 84.231335 90.782291 
L 85.62933 100.444254 
L 87.027326 100.026691 
L 88.425322 94.041145 
L 89.823317 95.646276 
L 91.221313 100.434739 
L 92.619309 108.306689 
L 94.017304 105.587094 
L 95.4153 106.25314 
L 98.211292 106.270087 
L 99.609287 104.889527 
L 101.007283 112.663996 
L 102.405279 116.032252 
L 103.803274 119.770035 
L 105.20127 116.923035 
L 106.599266 119.42494 
L 107.997262 127.926214 
L 109.395257 129.035166 
L 110.793253 129.394719 
L 112.191249 128.275855 
L 113.589244 128.146314 
L 114.98724 128.148436 
L 116.385236 127.263267 
L 117.783231 127.270683 
L 120.579223 125.324343 
L 121.977219 125.229161 
L 123.375214 124.590955 
L 124.77321 124.946909 
L 126.171206 126.798692 
L 127.569201 123.545013 
L 128.967197 129.079712 
L 130.365193 130.393322 
L 131.763189 129.953084 
L 133.161184 130.871788 
L 134.55918 131.137892 
L 135.957176 132.293058 
L 137.355171 132.536231 
L 140.151163 132.616436 
L 141.549158 132.096848 
L 142.947154 133.467691 
L 144.34515 131.056866 
L 145.743146 130.832204 
L 147.141141 130.80364 
L 148.539137 132.392598 
L 149.937133 132.138264 
L 151.335128 130.817345 
L 152.733124 132.063795 
L 154.13112 131.070014 
L 155.529116 132.071307 
L 156.927111 132.431874 
L 158.325107 134.971855 
L 159.723103 134.427646 
L 161.121098 132.365265 
L 162.519094 132.251212 
L 163.91709 135.643051 
L 165.315085 135.600988 
L 166.713081 136.167162 
L 168.111077 136.280293 
L 169.509073 138.073249 
L 170.907068 136.764778 
L 172.305064 138.593003 
L 173.70306 138.819272 
L 175.101055 139.190662 
L 176.499051 139.120792 
L 177.897047 140.307863 
L 179.295043 140.773291 
L 182.091034 140.473477 
L 183.48903 140.456972 
L 184.887025 141.728205 
L 186.285021 148.408566 
L 187.683017 148.176871 
L 189.081012 148.10055 
L 190.479008 149.458822 
L 191.877004 149.251028 
L 193.275 148.293318 
L 194.672995 151.560013 
L 197.468987 151.495017 
L 198.866982 150.587251 
L 203.060969 150.350977 
L 204.458965 150.587819 
L 205.856961 150.124894 
L 207.254957 148.079331 
L 208.652952 148.224499 
L 211.448944 150.653909 
L 212.846939 150.595636 
L 214.244935 150.865662 
L 215.642931 149.665302 
L 217.040927 149.483914 
L 218.438922 149.81997 
L 219.836918 149.779567 
L 221.234914 148.557969 
L 222.632909 148.539785 
L 224.030905 148.313509 
L 226.826896 148.503727 
L 228.224892 148.318972 
L 229.622888 144.179213 
L 231.020884 144.551817 
L 232.418879 144.377515 
L 233.816875 144.721117 
L 235.214871 143.819726 
L 236.612866 144.5572 
L 238.010862 142.661817 
L 239.408858 142.319442 
L 240.806854 142.559943 
L 242.204849 142.356622 
L 243.602845 141.060157 
L 245.000841 141.33305 
L 246.398836 139.354614 
L 247.796832 135.681499 
L 249.194828 135.930613 
L 250.592823 136.046808 
L 253.388815 135.635688 
L 254.786811 133.015171 
L 256.184806 131.250867 
L 257.582802 122.296564 
L 260.378793 117.407392 
L 261.776789 116.977226 
L 263.174785 116.009192 
L 264.572781 113.854142 
L 265.970776 115.528554 
L 267.368772 116.220721 
L 268.766768 115.958612 
L 270.164763 113.242746 
L 271.562759 113.394407 
L 272.960755 112.986346 
L 274.35875 113.51809 
L 275.756746 113.158638 
L 277.154742 115.421915 
L 278.552738 114.430976 
L 281.348729 114.987798 
L 282.746725 113.979838 
L 284.14472 111.564125 
L 286.940712 111.046753 
L 288.338707 111.456988 
L 289.736703 110.804019 
L 291.134699 110.921535 
L 292.532695 110.351983 
L 293.93069 110.34639 
L 295.328686 110.003859 
L 296.726682 108.343391 
L 298.124677 108.034177 
L 299.522673 105.292459 
L 300.920669 105.070127 
L 302.318665 108.297125 
L 303.71666 108.433688 
L 305.114656 105.579347 
L 306.512652 105.51719 
L 307.910647 105.114456 
L 309.308643 104.917001 
L 310.706639 104.924893 
L 312.104634 104.583298 
L 313.50263 105.362909 
L 314.900626 104.405648 
L 316.298622 103.770606 
L 317.696617 103.499937 
L 319.094613 104.15104 
L 320.492609 103.56171 
L 321.890604 102.778604 
L 323.2886 103.626417 
L 324.686596 103.404917 
L 326.084592 103.049681 
L 327.482587 103.087598 
L 328.880583 102.112192 
L 330.278579 102.085056 
L 331.676574 101.149394 
L 333.07457 104.454236 
L 334.472566 106.001357 
L 335.870561 108.374078 
L 337.268557 108.196225 
L 338.666553 106.518273 
L 340.064549 105.511626 
L 341.462544 106.746387 
L 342.86054 106.95618 
L 344.258536 107.694445 
L 345.656531 108.082911 
L 347.054527 110.291217 
L 348.452523 114.305108 
L 349.850519 114.483243 
L 351.248514 118.169866 
L 352.64651 116.7442 
L 354.044506 119.315097 
L 355.442501 123.632796 
L 356.840497 131.477454 
L 358.238493 132.462701 
L 359.636488 132.549356 
L 361.034484 134.654401 
L 362.43248 135.11623 
L 363.830476 137.708465 
L 365.228471 137.921196 
L 366.626467 140.767645 
L 368.024463 145.923362 
L 369.422458 145.820882 
L 370.820454 147.646026 
L 372.21845 148.452466 
L 373.616446 148.889756 
L 375.014441 151.085509 
L 376.412437 152.036406 
L 379.208428 152.148087 
L 380.606424 152.470148 
L 382.00442 152.500007 
L 383.402415 154.986371 
L 384.800411 154.810034 
L 386.198407 154.912854 
L 387.596403 154.766029 
L 388.994398 155.104936 
L 390.392394 154.888291 
L 391.79039 155.168197 
L 393.188385 158.014004 
L 394.586381 158.35359 
L 395.984377 158.340656 
L 397.382372 158.554975 
L 398.780368 158.577177 
L 400.178364 158.377995 
L 401.57636 158.495071 
L 404.372351 158.214737 
L 405.770347 158.568679 
L 409.964334 158.32989 
L 411.36233 158.416936 
L 411.36233 158.416936 
" clip-path="url(#p9ec661cf92)" style="fill: none; stroke: #134a8e; stroke-width: 3; stroke-linecap: square"/>
    <defs>
     <path id="m2c51acf4ac" d="M 0 1.5 
C 0.397805 1.5 0.77937 1.341951 1.06066 1.06066 
C 1.341951 0.77937 1.5 0.397805 1.5 0 
C 1.5 -0.397805 1.341951 -0.77937 1.06066 -1.06066 
C 0.77937 -1.341951 0.397805 -1.5 0 -1.5 
C -0.397805 -1.5 -0.77937 -1.341951 -1.06066 -1.06066 
C -1.341951 -0.77937 -1.5 -0.397805 -1.5 0 
C -1.5 0.397805 -1.341951 0.77937 -1.06066 1.06066 
C -0.77937 1.341951 -0.397805 1.5 0 1.5 
z
" style="stroke: #134a8e"/>
    </defs>
    <g clip-path="url(#p9ec661cf92)">
     <use xlink:href="#m2c51acf4ac" x="56.27142" y="16.474663" style="fill: #134a8e; stroke: #134a8e"/>
     <use xlink:href="#m2c51acf4ac" x="57.669416" y="19.246593" style="fill: #134a8e; stroke: #134a8e"/>
     <use xlink:href="#m2c51acf4ac" x="59.067412" y="30.093322" style="fill: #134a8e; stroke: #134a8e"/>
     <use xlink:href="#m2c51acf4ac" x="60.465408" y="26.274034" style="fill: #134a8e; stroke: #134a8e"/>
     <use xlink:href="#m2c51acf4ac" x="61.863403" y="32.949483" style="fill: #134a8e; stroke: #134a8e"/>
     <use xlink:href="#m2c51acf4ac" x="63.261399" y="39.229946" style="fill: #134a8e; stroke: #134a8e"/>
     <use xlink:href="#m2c51acf4ac" x="64.659395" y="44.518303" style="fill: #134a8e; stroke: #134a8e"/>
     <use xlink:href="#m2c51acf4ac" x="66.05739" y="56.131432" style="fill: #134a8e; stroke: #134a8e"/>
     <use xlink:href="#m2c51acf4ac" x="67.455386" y="51.688138" style="fill: #134a8e; stroke: #134a8e"/>
     <use xlink:href="#m2c51acf4ac" x="68.853382" y="48.714834" style="fill: #134a8e; stroke: #134a8e"/>
     <use xlink:href="#m2c51acf4ac" x="70.251378" y="53.659275" style="fill: #134a8e; stroke: #134a8e"/>
     <use xlink:href="#m2c51acf4ac" x="71.649373" y="52.968369" style="fill: #134a8e; stroke: #134a8e"/>
     <use xlink:href="#m2c51acf4ac" x="73.047369" y="51.842167" style="fill: #134a8e; stroke: #134a8e"/>
     <use xlink:href="#m2c51acf4ac" x="74.445365" y="63.593624" style="fill: #134a8e; stroke: #134a8e"/>
     <use xlink:href="#m2c51acf4ac" x="75.84336" y="70.86317" style="fill: #134a8e; stroke: #134a8e"/>
     <use xlink:href="#m2c51acf4ac" x="77.241356" y="81.097598" style="fill: #134a8e; stroke: #134a8e"/>
     <use xlink:href="#m2c51acf4ac" x="78.639352" y="85.08234" style="fill: #134a8e; stroke: #134a8e"/>
     <use xlink:href="#m2c51acf4ac" x="80.037347" y="89.124468" style="fill: #134a8e; stroke: #134a8e"/>
     <use xlink:href="#m2c51acf4ac" x="81.435343" y="89.012998" style="fill: #134a8e; stroke: #134a8e"/>
     <use xlink:href="#m2c51acf4ac" x="82.833339" y="90.665824" style="fill: #134a8e; stroke: #134a8e"/>
     <use xlink:href="#m2c51acf4ac" x="84.231335" y="90.782291" style="fill: #134a8e; stroke: #134a8e"/>
     <use xlink:href="#m2c51acf4ac" x="85.62933" y="100.444254" style="fill: #134a8e; stroke: #134a8e"/>
     <use xlink:href="#m2c51acf4ac" x="87.027326" y="100.026691" style="fill: #134a8e; stroke: #134a8e"/>
     <use xlink:href="#m2c51acf4ac" x="88.425322" y="94.041145" style="fill: #134a8e; stroke: #134a8e"/>
     <use xlink:href="#m2c51acf4ac" x="89.823317" y="95.646276" style="fill: #134a8e; stroke: #134a8e"/>
     <use xlink:href="#m2c51acf4ac" x="91.221313" y="100.434739" style="fill: #134a8e; stroke: #134a8e"/>
     <use xlink:href="#m2c51acf4ac" x="92.619309" y="108.306689" style="fill: #134a8e; stroke: #134a8e"/>
     <use xlink:href="#m2c51acf4ac" x="94.017304" y="105.587094" style="fill: #134a8e; stroke: #134a8e"/>
     <use xlink:href="#m2c51acf4ac" x="95.4153" y="106.25314" style="fill: #134a8e; stroke: #134a8e"/>
     <use xlink:href="#m2c51acf4ac" x="96.813296" y="106.219053" style="fill: #134a8e; stroke: #134a8e"/>
     <use xlink:href="#m2c51acf4ac" x="98.211292" y="106.270087" style="fill: #134a8e; stroke: #134a8e"/>
     <use xlink:href="#m2c51acf4ac" x="99.609287" y="104.889527" style="fill: #134a8e; stroke: #134a8e"/>
     <use xlink:href="#m2c51acf4ac" x="101.007283" y="112.663996" style="fill: #134a8e; stroke: #134a8e"/>
     <use xlink:href="#m2c51acf4ac" x="102.405279" y="116.032252" style="fill: #134a8e; stroke: #134a8e"/>
     <use xlink:href="#m2c51acf4ac" x="103.803274" y="119.770035" style="fill: #134a8e; stroke: #134a8e"/>
     <use xlink:href="#m2c51acf4ac" x="105.20127" y="116.923035" style="fill: #134a8e; stroke: #134a8e"/>
     <use xlink:href="#m2c51acf4ac" x="106.599266" y="119.42494" style="fill: #134a8e; stroke: #134a8e"/>
     <use xlink:href="#m2c51acf4ac" x="107.997262" y="127.926214" style="fill: #134a8e; stroke: #134a8e"/>
     <use xlink:href="#m2c51acf4ac" x="109.395257" y="129.035166" style="fill: #134a8e; stroke: #134a8e"/>
     <use xlink:href="#m2c51acf4ac" x="110.793253" y="129.394719" style="fill: #134a8e; stroke: #134a8e"/>
     <use xlink:href="#m2c51acf4ac" x="112.191249" y="128.275855" style="fill: #134a8e; stroke: #134a8e"/>
     <use xlink:href="#m2c51acf4ac" x="113.589244" y="128.146314" style="fill: #134a8e; stroke: #134a8e"/>
     <use xlink:href="#m2c51acf4ac" x="114.98724" y="128.148436" style="fill: #134a8e; stroke: #134a8e"/>
     <use xlink:href="#m2c51acf4ac" x="116.385236" y="127.263267" style="fill: #134a8e; stroke: #134a8e"/>
     <use xlink:href="#m2c51acf4ac" x="117.783231" y="127.270683" style="fill: #134a8e; stroke: #134a8e"/>
     <use xlink:href="#m2c51acf4ac" x="119.181227" y="126.229273" style="fill: #134a8e; stroke: #134a8e"/>
     <use xlink:href="#m2c51acf4ac" x="120.579223" y="125.324343" style="fill: #134a8e; stroke: #134a8e"/>
     <use xlink:href="#m2c51acf4ac" x="121.977219" y="125.229161" style="fill: #134a8e; stroke: #134a8e"/>
     <use xlink:href="#m2c51acf4ac" x="123.375214" y="124.590955" style="fill: #134a8e; stroke: #134a8e"/>
     <use xlink:href="#m2c51acf4ac" x="124.77321" y="124.946909" style="fill: #134a8e; stroke: #134a8e"/>
     <use xlink:href="#m2c51acf4ac" x="126.171206" y="126.798692" style="fill: #134a8e; stroke: #134a8e"/>
     <use xlink:href="#m2c51acf4ac" x="127.569201" y="123.545013" style="fill: #134a8e; stroke: #134a8e"/>
     <use xlink:href="#m2c51acf4ac" x="128.967197" y="129.079712" style="fill: #134a8e; stroke: #134a8e"/>
     <use xlink:href="#m2c51acf4ac" x="130.365193" y="130.393322" style="fill: #134a8e; stroke: #134a8e"/>
     <use xlink:href="#m2c51acf4ac" x="131.763189" y="129.953084" style="fill: #134a8e; stroke: #134a8e"/>
     <use xlink:href="#m2c51acf4ac" x="133.161184" y="130.871788" style="fill: #134a8e; stroke: #134a8e"/>
     <use xlink:href="#m2c51acf4ac" x="134.55918" y="131.137892" style="fill: #134a8e; stroke: #134a8e"/>
     <use xlink:href="#m2c51acf4ac" x="135.957176" y="132.293058" style="fill: #134a8e; stroke: #134a8e"/>
     <use xlink:href="#m2c51acf4ac" x="137.355171" y="132.536231" style="fill: #134a8e; stroke: #134a8e"/>
     <use xlink:href="#m2c51acf4ac" x="138.753167" y="132.539412" style="fill: #134a8e; stroke: #134a8e"/>
     <use xlink:href="#m2c51acf4ac" x="140.151163" y="132.616436" style="fill: #134a8e; stroke: #134a8e"/>
     <use xlink:href="#m2c51acf4ac" x="141.549158" y="132.096848" style="fill: #134a8e; stroke: #134a8e"/>
     <use xlink:href="#m2c51acf4ac" x="142.947154" y="133.467691" style="fill: #134a8e; stroke: #134a8e"/>
     <use xlink:href="#m2c51acf4ac" x="144.34515" y="131.056866" style="fill: #134a8e; stroke: #134a8e"/>
     <use xlink:href="#m2c51acf4ac" x="145.743146" y="130.832204" style="fill: #134a8e; stroke: #134a8e"/>
     <use xlink:href="#m2c51acf4ac" x="147.141141" y="130.80364" style="fill: #134a8e; stroke: #134a8e"/>
     <use xlink:href="#m2c51acf4ac" x="148.539137" y="132.392598" style="fill: #134a8e; stroke: #134a8e"/>
     <use xlink:href="#m2c51acf4ac" x="149.937133" y="132.138264" style="fill: #134a8e; stroke: #134a8e"/>
     <use xlink:href="#m2c51acf4ac" x="151.335128" y="130.817345" style="fill: #134a8e; stroke: #134a8e"/>
     <use xlink:href="#m2c51acf4ac" x="152.733124" y="132.063795" style="fill: #134a8e; stroke: #134a8e"/>
     <use xlink:href="#m2c51acf4ac" x="154.13112" y="131.070014" style="fill: #134a8e; stroke: #134a8e"/>
     <use xlink:href="#m2c51acf4ac" x="155.529116" y="132.071307" style="fill: #134a8e; stroke: #134a8e"/>
     <use xlink:href="#m2c51acf4ac" x="156.927111" y="132.431874" style="fill: #134a8e; stroke: #134a8e"/>
     <use xlink:href="#m2c51acf4ac" x="158.325107" y="134.971855" style="fill: #134a8e; stroke: #134a8e"/>
     <use xlink:href="#m2c51acf4ac" x="159.723103" y="134.427646" style="fill: #134a8e; stroke: #134a8e"/>
     <use xlink:href="#m2c51acf4ac" x="161.121098" y="132.365265" style="fill: #134a8e; stroke: #134a8e"/>
     <use xlink:href="#m2c51acf4ac" x="162.519094" y="132.251212" style="fill: #134a8e; stroke: #134a8e"/>
     <use xlink:href="#m2c51acf4ac" x="163.91709" y="135.643051" style="fill: #134a8e; stroke: #134a8e"/>
     <use xlink:href="#m2c51acf4ac" x="165.315085" y="135.600988" style="fill: #134a8e; stroke: #134a8e"/>
     <use xlink:href="#m2c51acf4ac" x="166.713081" y="136.167162" style="fill: #134a8e; stroke: #134a8e"/>
     <use xlink:href="#m2c51acf4ac" x="168.111077" y="136.280293" style="fill: #134a8e; stroke: #134a8e"/>
     <use xlink:href="#m2c51acf4ac" x="169.509073" y="138.073249" style="fill: #134a8e; stroke: #134a8e"/>
     <use xlink:href="#m2c51acf4ac" x="170.907068" y="136.764778" style="fill: #134a8e; stroke: #134a8e"/>
     <use xlink:href="#m2c51acf4ac" x="172.305064" y="138.593003" style="fill: #134a8e; stroke: #134a8e"/>
     <use xlink:href="#m2c51acf4ac" x="173.70306" y="138.819272" style="fill: #134a8e; stroke: #134a8e"/>
     <use xlink:href="#m2c51acf4ac" x="175.101055" y="139.190662" style="fill: #134a8e; stroke: #134a8e"/>
     <use xlink:href="#m2c51acf4ac" x="176.499051" y="139.120792" style="fill: #134a8e; stroke: #134a8e"/>
     <use xlink:href="#m2c51acf4ac" x="177.897047" y="140.307863" style="fill: #134a8e; stroke: #134a8e"/>
     <use xlink:href="#m2c51acf4ac" x="179.295043" y="140.773291" style="fill: #134a8e; stroke: #134a8e"/>
     <use xlink:href="#m2c51acf4ac" x="180.693038" y="140.613984" style="fill: #134a8e; stroke: #134a8e"/>
     <use xlink:href="#m2c51acf4ac" x="182.091034" y="140.473477" style="fill: #134a8e; stroke: #134a8e"/>
     <use xlink:href="#m2c51acf4ac" x="183.48903" y="140.456972" style="fill: #134a8e; stroke: #134a8e"/>
     <use xlink:href="#m2c51acf4ac" x="184.887025" y="141.728205" style="fill: #134a8e; stroke: #134a8e"/>
     <use xlink:href="#m2c51acf4ac" x="186.285021" y="148.408566" style="fill: #134a8e; stroke: #134a8e"/>
     <use xlink:href="#m2c51acf4ac" x="187.683017" y="148.176871" style="fill: #134a8e; stroke: #134a8e"/>
     <use xlink:href="#m2c51acf4ac" x="189.081012" y="148.10055" style="fill: #134a8e; stroke: #134a8e"/>
     <use xlink:href="#m2c51acf4ac" x="190.479008" y="149.458822" style="fill: #134a8e; stroke: #134a8e"/>
     <use xlink:href="#m2c51acf4ac" x="191.877004" y="149.251028" style="fill: #134a8e; stroke: #134a8e"/>
     <use xlink:href="#m2c51acf4ac" x="193.275" y="148.293318" style="fill: #134a8e; stroke: #134a8e"/>
     <use xlink:href="#m2c51acf4ac" x="194.672995" y="151.560013" style="fill: #134a8e; stroke: #134a8e"/>
     <use xlink:href="#m2c51acf4ac" x="196.070991" y="151.545022" style="fill: #134a8e; stroke: #134a8e"/>
     <use xlink:href="#m2c51acf4ac" x="197.468987" y="151.495017" style="fill: #134a8e; stroke: #134a8e"/>
     <use xlink:href="#m2c51acf4ac" x="198.866982" y="150.587251" style="fill: #134a8e; stroke: #134a8e"/>
     <use xlink:href="#m2c51acf4ac" x="200.264978" y="150.47146" style="fill: #134a8e; stroke: #134a8e"/>
     <use xlink:href="#m2c51acf4ac" x="201.662974" y="150.436081" style="fill: #134a8e; stroke: #134a8e"/>
     <use xlink:href="#m2c51acf4ac" x="203.060969" y="150.350977" style="fill: #134a8e; stroke: #134a8e"/>
     <use xlink:href="#m2c51acf4ac" x="204.458965" y="150.587819" style="fill: #134a8e; stroke: #134a8e"/>
     <use xlink:href="#m2c51acf4ac" x="205.856961" y="150.124894" style="fill: #134a8e; stroke: #134a8e"/>
     <use xlink:href="#m2c51acf4ac" x="207.254957" y="148.079331" style="fill: #134a8e; stroke: #134a8e"/>
     <use xlink:href="#m2c51acf4ac" x="208.652952" y="148.224499" style="fill: #134a8e; stroke: #134a8e"/>
     <use xlink:href="#m2c51acf4ac" x="210.050948" y="149.511841" style="fill: #134a8e; stroke: #134a8e"/>
     <use xlink:href="#m2c51acf4ac" x="211.448944" y="150.653909" style="fill: #134a8e; stroke: #134a8e"/>
     <use xlink:href="#m2c51acf4ac" x="212.846939" y="150.595636" style="fill: #134a8e; stroke: #134a8e"/>
     <use xlink:href="#m2c51acf4ac" x="214.244935" y="150.865662" style="fill: #134a8e; stroke: #134a8e"/>
     <use xlink:href="#m2c51acf4ac" x="215.642931" y="149.665302" style="fill: #134a8e; stroke: #134a8e"/>
     <use xlink:href="#m2c51acf4ac" x="217.040927" y="149.483914" style="fill: #134a8e; stroke: #134a8e"/>
     <use xlink:href="#m2c51acf4ac" x="218.438922" y="149.81997" style="fill: #134a8e; stroke: #134a8e"/>
     <use xlink:href="#m2c51acf4ac" x="219.836918" y="149.779567" style="fill: #134a8e; stroke: #134a8e"/>
     <use xlink:href="#m2c51acf4ac" x="221.234914" y="148.557969" style="fill: #134a8e; stroke: #134a8e"/>
     <use xlink:href="#m2c51acf4ac" x="222.632909" y="148.539785" style="fill: #134a8e; stroke: #134a8e"/>
     <use xlink:href="#m2c51acf4ac" x="224.030905" y="148.313509" style="fill: #134a8e; stroke: #134a8e"/>
     <use xlink:href="#m2c51acf4ac" x="225.428901" y="148.438843" style="fill: #134a8e; stroke: #134a8e"/>
     <use xlink:href="#m2c51acf4ac" x="226.826896" y="148.503727" style="fill: #134a8e; stroke: #134a8e"/>
     <use xlink:href="#m2c51acf4ac" x="228.224892" y="148.318972" style="fill: #134a8e; stroke: #134a8e"/>
     <use xlink:href="#m2c51acf4ac" x="229.622888" y="144.179213" style="fill: #134a8e; stroke: #134a8e"/>
     <use xlink:href="#m2c51acf4ac" x="231.020884" y="144.551817" style="fill: #134a8e; stroke: #134a8e"/>
     <use xlink:href="#m2c51acf4ac" x="232.418879" y="144.377515" style="fill: #134a8e; stroke: #134a8e"/>
     <use xlink:href="#m2c51acf4ac" x="233.816875" y="144.721117" style="fill: #134a8e; stroke: #134a8e"/>
     <use xlink:href="#m2c51acf4ac" x="235.214871" y="143.819726" style="fill: #134a8e; stroke: #134a8e"/>
     <use xlink:href="#m2c51acf4ac" x="236.612866" y="144.5572" style="fill: #134a8e; stroke: #134a8e"/>
     <use xlink:href="#m2c51acf4ac" x="238.010862" y="142.661817" style="fill: #134a8e; stroke: #134a8e"/>
     <use xlink:href="#m2c51acf4ac" x="239.408858" y="142.319442" style="fill: #134a8e; stroke: #134a8e"/>
     <use xlink:href="#m2c51acf4ac" x="240.806854" y="142.559943" style="fill: #134a8e; stroke: #134a8e"/>
     <use xlink:href="#m2c51acf4ac" x="242.204849" y="142.356622" style="fill: #134a8e; stroke: #134a8e"/>
     <use xlink:href="#m2c51acf4ac" x="243.602845" y="141.060157" style="fill: #134a8e; stroke: #134a8e"/>
     <use xlink:href="#m2c51acf4ac" x="245.000841" y="141.33305" style="fill: #134a8e; stroke: #134a8e"/>
     <use xlink:href="#m2c51acf4ac" x="246.398836" y="139.354614" style="fill: #134a8e; stroke: #134a8e"/>
     <use xlink:href="#m2c51acf4ac" x="247.796832" y="135.681499" style="fill: #134a8e; stroke: #134a8e"/>
     <use xlink:href="#m2c51acf4ac" x="249.194828" y="135.930613" style="fill: #134a8e; stroke: #134a8e"/>
     <use xlink:href="#m2c51acf4ac" x="250.592823" y="136.046808" style="fill: #134a8e; stroke: #134a8e"/>
     <use xlink:href="#m2c51acf4ac" x="251.990819" y="135.850552" style="fill: #134a8e; stroke: #134a8e"/>
     <use xlink:href="#m2c51acf4ac" x="253.388815" y="135.635688" style="fill: #134a8e; stroke: #134a8e"/>
     <use xlink:href="#m2c51acf4ac" x="254.786811" y="133.015171" style="fill: #134a8e; stroke: #134a8e"/>
     <use xlink:href="#m2c51acf4ac" x="256.184806" y="131.250867" style="fill: #134a8e; stroke: #134a8e"/>
     <use xlink:href="#m2c51acf4ac" x="257.582802" y="122.296564" style="fill: #134a8e; stroke: #134a8e"/>
     <use xlink:href="#m2c51acf4ac" x="258.980798" y="119.866568" style="fill: #134a8e; stroke: #134a8e"/>
     <use xlink:href="#m2c51acf4ac" x="260.378793" y="117.407392" style="fill: #134a8e; stroke: #134a8e"/>
     <use xlink:href="#m2c51acf4ac" x="261.776789" y="116.977226" style="fill: #134a8e; stroke: #134a8e"/>
     <use xlink:href="#m2c51acf4ac" x="263.174785" y="116.009192" style="fill: #134a8e; stroke: #134a8e"/>
     <use xlink:href="#m2c51acf4ac" x="264.572781" y="113.854142" style="fill: #134a8e; stroke: #134a8e"/>
     <use xlink:href="#m2c51acf4ac" x="265.970776" y="115.528554" style="fill: #134a8e; stroke: #134a8e"/>
     <use xlink:href="#m2c51acf4ac" x="267.368772" y="116.220721" style="fill: #134a8e; stroke: #134a8e"/>
     <use xlink:href="#m2c51acf4ac" x="268.766768" y="115.958612" style="fill: #134a8e; stroke: #134a8e"/>
     <use xlink:href="#m2c51acf4ac" x="270.164763" y="113.242746" style="fill: #134a8e; stroke: #134a8e"/>
     <use xlink:href="#m2c51acf4ac" x="271.562759" y="113.394407" style="fill: #134a8e; stroke: #134a8e"/>
     <use xlink:href="#m2c51acf4ac" x="272.960755" y="112.986346" style="fill: #134a8e; stroke: #134a8e"/>
     <use xlink:href="#m2c51acf4ac" x="274.35875" y="113.51809" style="fill: #134a8e; stroke: #134a8e"/>
     <use xlink:href="#m2c51acf4ac" x="275.756746" y="113.158638" style="fill: #134a8e; stroke: #134a8e"/>
     <use xlink:href="#m2c51acf4ac" x="277.154742" y="115.421915" style="fill: #134a8e; stroke: #134a8e"/>
     <use xlink:href="#m2c51acf4ac" x="278.552738" y="114.430976" style="fill: #134a8e; stroke: #134a8e"/>
     <use xlink:href="#m2c51acf4ac" x="279.950733" y="114.731179" style="fill: #134a8e; stroke: #134a8e"/>
     <use xlink:href="#m2c51acf4ac" x="281.348729" y="114.987798" style="fill: #134a8e; stroke: #134a8e"/>
     <use xlink:href="#m2c51acf4ac" x="282.746725" y="113.979838" style="fill: #134a8e; stroke: #134a8e"/>
     <use xlink:href="#m2c51acf4ac" x="284.14472" y="111.564125" style="fill: #134a8e; stroke: #134a8e"/>
     <use xlink:href="#m2c51acf4ac" x="285.542716" y="111.347343" style="fill: #134a8e; stroke: #134a8e"/>
     <use xlink:href="#m2c51acf4ac" x="286.940712" y="111.046753" style="fill: #134a8e; stroke: #134a8e"/>
     <use xlink:href="#m2c51acf4ac" x="288.338707" y="111.456988" style="fill: #134a8e; stroke: #134a8e"/>
     <use xlink:href="#m2c51acf4ac" x="289.736703" y="110.804019" style="fill: #134a8e; stroke: #134a8e"/>
     <use xlink:href="#m2c51acf4ac" x="291.134699" y="110.921535" style="fill: #134a8e; stroke: #134a8e"/>
     <use xlink:href="#m2c51acf4ac" x="292.532695" y="110.351983" style="fill: #134a8e; stroke: #134a8e"/>
     <use xlink:href="#m2c51acf4ac" x="293.93069" y="110.34639" style="fill: #134a8e; stroke: #134a8e"/>
     <use xlink:href="#m2c51acf4ac" x="295.328686" y="110.003859" style="fill: #134a8e; stroke: #134a8e"/>
     <use xlink:href="#m2c51acf4ac" x="296.726682" y="108.343391" style="fill: #134a8e; stroke: #134a8e"/>
     <use xlink:href="#m2c51acf4ac" x="298.124677" y="108.034177" style="fill: #134a8e; stroke: #134a8e"/>
     <use xlink:href="#m2c51acf4ac" x="299.522673" y="105.292459" style="fill: #134a8e; stroke: #134a8e"/>
     <use xlink:href="#m2c51acf4ac" x="300.920669" y="105.070127" style="fill: #134a8e; stroke: #134a8e"/>
     <use xlink:href="#m2c51acf4ac" x="302.318665" y="108.297125" style="fill: #134a8e; stroke: #134a8e"/>
     <use xlink:href="#m2c51acf4ac" x="303.71666" y="108.433688" style="fill: #134a8e; stroke: #134a8e"/>
     <use xlink:href="#m2c51acf4ac" x="305.114656" y="105.579347" style="fill: #134a8e; stroke: #134a8e"/>
     <use xlink:href="#m2c51acf4ac" x="306.512652" y="105.51719" style="fill: #134a8e; stroke: #134a8e"/>
     <use xlink:href="#m2c51acf4ac" x="307.910647" y="105.114456" style="fill: #134a8e; stroke: #134a8e"/>
     <use xlink:href="#m2c51acf4ac" x="309.308643" y="104.917001" style="fill: #134a8e; stroke: #134a8e"/>
     <use xlink:href="#m2c51acf4ac" x="310.706639" y="104.924893" style="fill: #134a8e; stroke: #134a8e"/>
     <use xlink:href="#m2c51acf4ac" x="312.104634" y="104.583298" style="fill: #134a8e; stroke: #134a8e"/>
     <use xlink:href="#m2c51acf4ac" x="313.50263" y="105.362909" style="fill: #134a8e; stroke: #134a8e"/>
     <use xlink:href="#m2c51acf4ac" x="314.900626" y="104.405648" style="fill: #134a8e; stroke: #134a8e"/>
     <use xlink:href="#m2c51acf4ac" x="316.298622" y="103.770606" style="fill: #134a8e; stroke: #134a8e"/>
     <use xlink:href="#m2c51acf4ac" x="317.696617" y="103.499937" style="fill: #134a8e; stroke: #134a8e"/>
     <use xlink:href="#m2c51acf4ac" x="319.094613" y="104.15104" style="fill: #134a8e; stroke: #134a8e"/>
     <use xlink:href="#m2c51acf4ac" x="320.492609" y="103.56171" style="fill: #134a8e; stroke: #134a8e"/>
     <use xlink:href="#m2c51acf4ac" x="321.890604" y="102.778604" style="fill: #134a8e; stroke: #134a8e"/>
     <use xlink:href="#m2c51acf4ac" x="323.2886" y="103.626417" style="fill: #134a8e; stroke: #134a8e"/>
     <use xlink:href="#m2c51acf4ac" x="324.686596" y="103.404917" style="fill: #134a8e; stroke: #134a8e"/>
     <use xlink:href="#m2c51acf4ac" x="326.084592" y="103.049681" style="fill: #134a8e; stroke: #134a8e"/>
     <use xlink:href="#m2c51acf4ac" x="327.482587" y="103.087598" style="fill: #134a8e; stroke: #134a8e"/>
     <use xlink:href="#m2c51acf4ac" x="328.880583" y="102.112192" style="fill: #134a8e; stroke: #134a8e"/>
     <use xlink:href="#m2c51acf4ac" x="330.278579" y="102.085056" style="fill: #134a8e; stroke: #134a8e"/>
     <use xlink:href="#m2c51acf4ac" x="331.676574" y="101.149394" style="fill: #134a8e; stroke: #134a8e"/>
     <use xlink:href="#m2c51acf4ac" x="333.07457" y="104.454236" style="fill: #134a8e; stroke: #134a8e"/>
     <use xlink:href="#m2c51acf4ac" x="334.472566" y="106.001357" style="fill: #134a8e; stroke: #134a8e"/>
     <use xlink:href="#m2c51acf4ac" x="335.870561" y="108.374078" style="fill: #134a8e; stroke: #134a8e"/>
     <use xlink:href="#m2c51acf4ac" x="337.268557" y="108.196225" style="fill: #134a8e; stroke: #134a8e"/>
     <use xlink:href="#m2c51acf4ac" x="338.666553" y="106.518273" style="fill: #134a8e; stroke: #134a8e"/>
     <use xlink:href="#m2c51acf4ac" x="340.064549" y="105.511626" style="fill: #134a8e; stroke: #134a8e"/>
     <use xlink:href="#m2c51acf4ac" x="341.462544" y="106.746387" style="fill: #134a8e; stroke: #134a8e"/>
     <use xlink:href="#m2c51acf4ac" x="342.86054" y="106.95618" style="fill: #134a8e; stroke: #134a8e"/>
     <use xlink:href="#m2c51acf4ac" x="344.258536" y="107.694445" style="fill: #134a8e; stroke: #134a8e"/>
     <use xlink:href="#m2c51acf4ac" x="345.656531" y="108.082911" style="fill: #134a8e; stroke: #134a8e"/>
     <use xlink:href="#m2c51acf4ac" x="347.054527" y="110.291217" style="fill: #134a8e; stroke: #134a8e"/>
     <use xlink:href="#m2c51acf4ac" x="348.452523" y="114.305108" style="fill: #134a8e; stroke: #134a8e"/>
     <use xlink:href="#m2c51acf4ac" x="349.850519" y="114.483243" style="fill: #134a8e; stroke: #134a8e"/>
     <use xlink:href="#m2c51acf4ac" x="351.248514" y="118.169866" style="fill: #134a8e; stroke: #134a8e"/>
     <use xlink:href="#m2c51acf4ac" x="352.64651" y="116.7442" style="fill: #134a8e; stroke: #134a8e"/>
     <use xlink:href="#m2c51acf4ac" x="354.044506" y="119.315097" style="fill: #134a8e; stroke: #134a8e"/>
     <use xlink:href="#m2c51acf4ac" x="355.442501" y="123.632796" style="fill: #134a8e; stroke: #134a8e"/>
     <use xlink:href="#m2c51acf4ac" x="356.840497" y="131.477454" style="fill: #134a8e; stroke: #134a8e"/>
     <use xlink:href="#m2c51acf4ac" x="358.238493" y="132.462701" style="fill: #134a8e; stroke: #134a8e"/>
     <use xlink:href="#m2c51acf4ac" x="359.636488" y="132.549356" style="fill: #134a8e; stroke: #134a8e"/>
     <use xlink:href="#m2c51acf4ac" x="361.034484" y="134.654401" style="fill: #134a8e; stroke: #134a8e"/>
     <use xlink:href="#m2c51acf4ac" x="362.43248" y="135.11623" style="fill: #134a8e; stroke: #134a8e"/>
     <use xlink:href="#m2c51acf4ac" x="363.830476" y="137.708465" style="fill: #134a8e; stroke: #134a8e"/>
     <use xlink:href="#m2c51acf4ac" x="365.228471" y="137.921196" style="fill: #134a8e; stroke: #134a8e"/>
     <use xlink:href="#m2c51acf4ac" x="366.626467" y="140.767645" style="fill: #134a8e; stroke: #134a8e"/>
     <use xlink:href="#m2c51acf4ac" x="368.024463" y="145.923362" style="fill: #134a8e; stroke: #134a8e"/>
     <use xlink:href="#m2c51acf4ac" x="369.422458" y="145.820882" style="fill: #134a8e; stroke: #134a8e"/>
     <use xlink:href="#m2c51acf4ac" x="370.820454" y="147.646026" style="fill: #134a8e; stroke: #134a8e"/>
     <use xlink:href="#m2c51acf4ac" x="372.21845" y="148.452466" style="fill: #134a8e; stroke: #134a8e"/>
     <use xlink:href="#m2c51acf4ac" x="373.616446" y="148.889756" style="fill: #134a8e; stroke: #134a8e"/>
     <use xlink:href="#m2c51acf4ac" x="375.014441" y="151.085509" style="fill: #134a8e; stroke: #134a8e"/>
     <use xlink:href="#m2c51acf4ac" x="376.412437" y="152.036406" style="fill: #134a8e; stroke: #134a8e"/>
     <use xlink:href="#m2c51acf4ac" x="377.810433" y="152.090115" style="fill: #134a8e; stroke: #134a8e"/>
     <use xlink:href="#m2c51acf4ac" x="379.208428" y="152.148087" style="fill: #134a8e; stroke: #134a8e"/>
     <use xlink:href="#m2c51acf4ac" x="380.606424" y="152.470148" style="fill: #134a8e; stroke: #134a8e"/>
     <use xlink:href="#m2c51acf4ac" x="382.00442" y="152.500007" style="fill: #134a8e; stroke: #134a8e"/>
     <use xlink:href="#m2c51acf4ac" x="383.402415" y="154.986371" style="fill: #134a8e; stroke: #134a8e"/>
     <use xlink:href="#m2c51acf4ac" x="384.800411" y="154.810034" style="fill: #134a8e; stroke: #134a8e"/>
     <use xlink:href="#m2c51acf4ac" x="386.198407" y="154.912854" style="fill: #134a8e; stroke: #134a8e"/>
     <use xlink:href="#m2c51acf4ac" x="387.596403" y="154.766029" style="fill: #134a8e; stroke: #134a8e"/>
     <use xlink:href="#m2c51acf4ac" x="388.994398" y="155.104936" style="fill: #134a8e; stroke: #134a8e"/>
     <use xlink:href="#m2c51acf4ac" x="390.392394" y="154.888291" style="fill: #134a8e; stroke: #134a8e"/>
     <use xlink:href="#m2c51acf4ac" x="391.79039" y="155.168197" style="fill: #134a8e; stroke: #134a8e"/>
     <use xlink:href="#m2c51acf4ac" x="393.188385" y="158.014004" style="fill: #134a8e; stroke: #134a8e"/>
     <use xlink:href="#m2c51acf4ac" x="394.586381" y="158.35359" style="fill: #134a8e; stroke: #134a8e"/>
     <use xlink:href="#m2c51acf4ac" x="395.984377" y="158.340656" style="fill: #134a8e; stroke: #134a8e"/>
     <use xlink:href="#m2c51acf4ac" x="397.382372" y="158.554975" style="fill: #134a8e; stroke: #134a8e"/>
     <use xlink:href="#m2c51acf4ac" x="398.780368" y="158.577177" style="fill: #134a8e; stroke: #134a8e"/>
     <use xlink:href="#m2c51acf4ac" x="400.178364" y="158.377995" style="fill: #134a8e; stroke: #134a8e"/>
     <use xlink:href="#m2c51acf4ac" x="401.57636" y="158.495071" style="fill: #134a8e; stroke: #134a8e"/>
     <use xlink:href="#m2c51acf4ac" x="402.974355" y="158.349438" style="fill: #134a8e; stroke: #134a8e"/>
     <use xlink:href="#m2c51acf4ac" x="404.372351" y="158.214737" style="fill: #134a8e; stroke: #134a8e"/>
     <use xlink:href="#m2c51acf4ac" x="405.770347" y="158.568679" style="fill: #134a8e; stroke: #134a8e"/>
     <use xlink:href="#m2c51acf4ac" x="407.168342" y="158.463032" style="fill: #134a8e; stroke: #134a8e"/>
     <use xlink:href="#m2c51acf4ac" x="408.566338" y="158.452234" style="fill: #134a8e; stroke: #134a8e"/>
     <use xlink:href="#m2c51acf4ac" x="409.964334" y="158.32989" style="fill: #134a8e; stroke: #134a8e"/>
     <use xlink:href="#m2c51acf4ac" x="411.36233" y="158.416936" style="fill: #134a8e; stroke: #134a8e"/>
    </g>
   </g>
   <g id="line2d_22">
    <path d="M 56.27142 22.788206 
L 57.669416 27.929767 
L 59.067412 32.400847 
L 60.465408 26.742244 
L 61.863403 34.303766 
L 63.261399 43.116613 
L 64.659395 46.746807 
L 66.05739 51.965976 
L 67.455386 53.943109 
L 68.853382 54.002092 
L 70.251378 56.287844 
L 71.649373 58.206567 
L 73.047369 53.502613 
L 74.445365 69.878379 
L 75.84336 74.9864 
L 77.241356 81.20124 
L 78.639352 84.79831 
L 80.037347 93.286794 
L 82.833339 97.93893 
L 84.231335 97.202511 
L 85.62933 104.077371 
L 87.027326 105.204464 
L 88.425322 99.939962 
L 89.823317 102.837879 
L 91.221313 106.759805 
L 92.619309 114.055118 
L 95.4153 108.627945 
L 96.813296 110.749674 
L 98.211292 111.062708 
L 99.609287 112.557083 
L 101.007283 115.4285 
L 102.405279 119.016081 
L 103.803274 123.232093 
L 105.20127 119.181288 
L 106.599266 122.821468 
L 107.997262 130.533628 
L 109.395257 130.623125 
L 110.793253 130.505988 
L 112.191249 129.438255 
L 113.589244 128.600556 
L 114.98724 128.041496 
L 116.385236 128.624697 
L 117.783231 128.509674 
L 119.181227 126.559343 
L 120.579223 126.09805 
L 123.375214 125.537939 
L 124.77321 126.290661 
L 126.171206 127.795997 
L 127.569201 128.394284 
L 128.967197 129.637621 
L 130.365193 130.501904 
L 131.763189 132.060685 
L 133.161184 134.20596 
L 134.55918 134.632033 
L 135.957176 134.191388 
L 137.355171 135.313079 
L 138.753167 135.438625 
L 140.151163 133.966375 
L 141.549158 134.118813 
L 142.947154 138.438594 
L 144.34515 132.930538 
L 145.743146 133.543911 
L 147.141141 133.426117 
L 148.539137 133.480117 
L 149.937133 134.712749 
L 152.733124 134.445036 
L 154.13112 134.116138 
L 155.529116 135.015422 
L 156.927111 134.885102 
L 158.325107 136.754794 
L 159.723103 136.555682 
L 161.121098 136.534344 
L 162.519094 135.700904 
L 163.91709 137.948064 
L 166.713081 138.788742 
L 169.509073 140.158136 
L 170.907068 140.153324 
L 172.305064 142.22593 
L 173.70306 141.122205 
L 175.101055 143.020371 
L 176.499051 143.316262 
L 177.897047 143.401417 
L 179.295043 144.732513 
L 180.693038 145.100727 
L 182.091034 146.550524 
L 183.48903 145.533346 
L 184.887025 147.435271 
L 186.285021 149.067004 
L 189.081012 150.103519 
L 190.479008 150.974036 
L 191.877004 151.410043 
L 193.275 150.352753 
L 194.672995 151.633419 
L 196.070991 152.281578 
L 197.468987 151.972249 
L 198.866982 151.471439 
L 200.264978 151.548775 
L 201.662974 151.225294 
L 203.060969 151.21204 
L 204.458965 151.615814 
L 205.856961 151.102684 
L 207.254957 150.428343 
L 208.652952 150.186586 
L 210.050948 150.88389 
L 211.448944 150.840334 
L 212.846939 151.409761 
L 214.244935 150.988572 
L 215.642931 150.894489 
L 217.040927 151.066665 
L 219.836918 151.581345 
L 222.632909 151.082491 
L 224.030905 150.532951 
L 226.826896 151.069728 
L 228.224892 150.763641 
L 229.622888 149.480923 
L 231.020884 148.617597 
L 232.418879 148.56616 
L 233.816875 147.997712 
L 235.214871 147.695055 
L 236.612866 147.232408 
L 238.010862 146.568011 
L 239.408858 145.583391 
L 240.806854 144.766998 
L 242.204849 145.219177 
L 243.602845 143.560898 
L 245.000841 142.086585 
L 246.398836 141.354102 
L 247.796832 138.755753 
L 249.194828 137.995455 
L 250.592823 138.954573 
L 251.990819 138.79661 
L 253.388815 136.05124 
L 254.786811 134.705578 
L 256.184806 134.08179 
L 257.582802 130.352906 
L 258.980798 129.143622 
L 260.378793 128.147283 
L 261.776789 126.983987 
L 263.174785 127.046405 
L 264.572781 125.676814 
L 265.970776 125.49261 
L 267.368772 127.09412 
L 268.766768 125.82574 
L 270.164763 121.036458 
L 271.562759 119.855755 
L 272.960755 122.16924 
L 274.35875 120.788818 
L 275.756746 119.134533 
L 277.154742 122.135147 
L 278.552738 121.46582 
L 279.950733 119.704341 
L 281.348729 119.792038 
L 282.746725 118.684459 
L 284.14472 117.407597 
L 285.542716 116.5374 
L 288.338707 116.73502 
L 289.736703 116.344688 
L 291.134699 117.546318 
L 292.532695 114.635894 
L 293.93069 114.694224 
L 295.328686 115.576514 
L 296.726682 114.255111 
L 298.124677 115.129011 
L 299.522673 113.841881 
L 300.920669 114.307304 
L 302.318665 113.763055 
L 303.71666 113.457142 
L 305.114656 111.535433 
L 306.512652 111.772587 
L 307.910647 111.384759 
L 309.308643 111.753432 
L 310.706639 112.702885 
L 312.104634 111.990424 
L 313.50263 110.586569 
L 314.900626 108.279002 
L 316.298622 108.081542 
L 317.696617 107.765283 
L 320.492609 110.178176 
L 321.890604 106.174008 
L 323.2886 107.842947 
L 324.686596 106.098695 
L 326.084592 104.062184 
L 327.482587 105.596588 
L 328.880583 104.053981 
L 330.278579 104.811962 
L 331.676574 104.338385 
L 333.07457 105.08781 
L 334.472566 106.665746 
L 335.870561 108.009975 
L 337.268557 107.051907 
L 338.666553 109.56662 
L 340.064549 109.100359 
L 341.462544 112.863369 
L 342.86054 113.237136 
L 344.258536 115.731402 
L 345.656531 116.35125 
L 347.054527 117.483844 
L 348.452523 121.081362 
L 349.850519 121.351925 
L 351.248514 122.470354 
L 352.64651 123.169987 
L 354.044506 126.750649 
L 355.442501 128.577306 
L 356.840497 131.811165 
L 359.636488 134.056232 
L 361.034484 136.263288 
L 363.830476 141.418671 
L 365.228471 142.729967 
L 366.626467 145.247602 
L 368.024463 145.815731 
L 369.422458 145.951029 
L 370.820454 148.377496 
L 372.21845 149.813492 
L 373.616446 150.635563 
L 375.014441 151.974987 
L 376.412437 152.913705 
L 377.810433 153.596128 
L 379.208428 153.200289 
L 380.606424 154.350419 
L 382.00442 155.150619 
L 384.800411 156.346244 
L 386.198407 156.272347 
L 387.596403 157.122739 
L 388.994398 156.806542 
L 390.392394 157.599216 
L 391.79039 157.880598 
L 393.188385 158.408909 
L 394.586381 158.428915 
L 395.984377 158.640992 
L 398.780368 158.72895 
L 400.178364 159.292758 
L 401.57636 159.189979 
L 404.372351 159.311873 
L 405.770347 159.598555 
L 407.168342 159.302256 
L 408.566338 160.670504 
L 409.964334 158.829682 
L 411.36233 158.883056 
L 411.36233 158.883056 
" clip-path="url(#p9ec661cf92)" style="fill: none; stroke-dasharray: 5.55,2.4; stroke-dashoffset: 0; stroke: #000000; stroke-width: 1.5"/>
   </g>
   <g id="patch_3">
    <path d="M 38.516875 168.230504 
L 38.516875 1.910504 
" style="fill: none; stroke: #ffffff; stroke-linejoin: miter; stroke-linecap: square"/>
   </g>
   <g id="patch_4">
    <path d="M 429.116875 168.230504 
L 429.116875 1.910504 
" style="fill: none; stroke: #ffffff; stroke-linejoin: miter; stroke-linecap: square"/>
   </g>
   <g id="patch_5">
    <path d="M 38.516875 168.230504 
L 429.116875 168.230504 
" style="fill: none; stroke: #ffffff; stroke-linejoin: miter; stroke-linecap: square"/>
   </g>
   <g id="patch_6">
    <path d="M 38.516875 1.910504 
L 429.116875 1.910504 
" style="fill: none; stroke: #ffffff; stroke-linejoin: miter; stroke-linecap: square"/>
   </g>
   <g id="legend_1">
    <g id="patch_7">
     <path d="M 270.07 62.288629 
L 422.116875 62.288629 
Q 424.116875 62.288629 424.116875 60.288629 
L 424.116875 8.910504 
Q 424.116875 6.910504 422.116875 6.910504 
L 270.07 6.910504 
Q 268.07 6.910504 268.07 8.910504 
L 268.07 60.288629 
Q 268.07 62.288629 270.07 62.288629 
z
" style="fill: #e5e5e5; opacity: 0.8; stroke: #cccccc; stroke-width: 0.5; stroke-linejoin: miter"/>
    </g>
    <g id="line2d_23">
     <path d="M 272.07 17.410504 
L 282.07 17.410504 
L 292.07 17.410504 
" style="fill: none; stroke: #134a8e; stroke-width: 3; stroke-linecap: square"/>
     <g>
      <use xlink:href="#m2c51acf4ac" x="282.07" y="17.410504" style="fill: #134a8e; stroke: #134a8e"/>
     </g>
    </g>
    <g id="text_13">
     <!-- Private Value $\tilde{R}_{\chi_1,\chi_2}^t$ -->
     <g transform="translate(300.07 20.910504) scale(0.1 -0.1)">
      <defs>
       <path id="DejaVuSans-50" d="M 1259 4147 
L 1259 2394 
L 2053 2394 
Q 2494 2394 2734 2622 
Q 2975 2850 2975 3272 
Q 2975 3691 2734 3919 
Q 2494 4147 2053 4147 
L 1259 4147 
z
M 628 4666 
L 2053 4666 
Q 2838 4666 3239 4311 
Q 3641 3956 3641 3272 
Q 3641 2581 3239 2228 
Q 2838 1875 2053 1875 
L 1259 1875 
L 1259 0 
L 628 0 
L 628 4666 
z
" transform="scale(0.015625)"/>
       <path id="DejaVuSans-72" d="M 2631 2963 
Q 2534 3019 2420 3045 
Q 2306 3072 2169 3072 
Q 1681 3072 1420 2755 
Q 1159 2438 1159 1844 
L 1159 0 
L 581 0 
L 581 3500 
L 1159 3500 
L 1159 2956 
Q 1341 3275 1631 3429 
Q 1922 3584 2338 3584 
Q 2397 3584 2469 3576 
Q 2541 3569 2628 3553 
L 2631 2963 
z
" transform="scale(0.015625)"/>
       <path id="DejaVuSans-69" d="M 603 3500 
L 1178 3500 
L 1178 0 
L 603 0 
L 603 3500 
z
M 603 4863 
L 1178 4863 
L 1178 4134 
L 603 4134 
L 603 4863 
z
" transform="scale(0.015625)"/>
       <path id="DejaVuSans-76" d="M 191 3500 
L 800 3500 
L 1894 563 
L 2988 3500 
L 3597 3500 
L 2284 0 
L 1503 0 
L 191 3500 
z
" transform="scale(0.015625)"/>
       <path id="DejaVuSans-20" transform="scale(0.015625)"/>
       <path id="DejaVuSans-303" d="M -1621 4281 
L -1799 4453 
Q -1867 4516 -1919 4545 
Q -1971 4575 -2011 4575 
Q -2130 4575 -2186 4461 
Q -2242 4347 -2249 4091 
L -2639 4091 
Q -2633 4513 -2473 4742 
Q -2314 4972 -2030 4972 
Q -1911 4972 -1811 4928 
Q -1711 4884 -1596 4781 
L -1417 4609 
Q -1349 4547 -1297 4517 
Q -1246 4488 -1205 4488 
Q -1086 4488 -1030 4602 
Q -974 4716 -967 4972 
L -577 4972 
Q -583 4550 -742 4320 
Q -902 4091 -1186 4091 
Q -1305 4091 -1405 4134 
Q -1505 4178 -1621 4281 
z
" transform="scale(0.015625)"/>
       <path id="DejaVuSans-Oblique-52" d="M 1613 4147 
L 1294 2491 
L 2106 2491 
Q 2584 2491 2879 2755 
Q 3175 3019 3175 3444 
Q 3175 3784 2976 3965 
Q 2778 4147 2406 4147 
L 1613 4147 
z
M 2772 2241 
Q 2972 2194 3105 2009 
Q 3238 1825 3413 1275 
L 3809 0 
L 3144 0 
L 2778 1197 
Q 2638 1659 2453 1815 
Q 2269 1972 1888 1972 
L 1191 1972 
L 806 0 
L 172 0 
L 1081 4666 
L 2503 4666 
Q 3150 4666 3495 4373 
Q 3841 4081 3841 3531 
Q 3841 3044 3547 2687 
Q 3253 2331 2772 2241 
z
" transform="scale(0.015625)"/>
       <path id="DejaVuSans-Oblique-74" d="M 2706 3500 
L 2619 3053 
L 1472 3053 
L 1100 1153 
Q 1081 1047 1072 975 
Q 1063 903 1063 863 
Q 1063 663 1183 572 
Q 1303 481 1569 481 
L 2150 481 
L 2053 0 
L 1503 0 
Q 991 0 739 200 
Q 488 400 488 806 
Q 488 878 497 964 
Q 506 1050 525 1153 
L 897 3053 
L 409 3053 
L 500 3500 
L 978 3500 
L 1172 4494 
L 1747 4494 
L 1556 3500 
L 2706 3500 
z
" transform="scale(0.015625)"/>
       <path id="DejaVuSans-Oblique-3c7" d="M 1922 -781 
L 1691 416 
L 394 -1334 
L -284 -1334 
L 1553 1141 
L 1269 2613 
Q 1194 3006 713 3006 
L 559 3006 
L 653 3500 
L 872 3494 
Q 1675 3472 1775 2950 
L 2006 1753 
L 3303 3503 
L 3981 3503 
L 2144 1028 
L 2428 -444 
Q 2503 -838 2984 -838 
L 3138 -838 
L 3044 -1331 
L 2825 -1325 
Q 2022 -1303 1922 -781 
z
" transform="scale(0.015625)"/>
       <path id="DejaVuSans-2c" d="M 750 794 
L 1409 794 
L 1409 256 
L 897 -744 
L 494 -744 
L 750 256 
L 750 794 
z
" transform="scale(0.015625)"/>
      </defs>
      <use xlink:href="#DejaVuSans-50" transform="translate(0 0.828125)"/>
      <use xlink:href="#DejaVuSans-72" transform="translate(60.302734 0.828125)"/>
      <use xlink:href="#DejaVuSans-69" transform="translate(101.416016 0.828125)"/>
      <use xlink:href="#DejaVuSans-76" transform="translate(129.199219 0.828125)"/>
      <use xlink:href="#DejaVuSans-61" transform="translate(188.378906 0.828125)"/>
      <use xlink:href="#DejaVuSans-74" transform="translate(249.658203 0.828125)"/>
      <use xlink:href="#DejaVuSans-65" transform="translate(288.867188 0.828125)"/>
      <use xlink:href="#DejaVuSans-20" transform="translate(350.390625 0.828125)"/>
      <use xlink:href="#DejaVuSans-56" transform="translate(382.177734 0.828125)"/>
      <use xlink:href="#DejaVuSans-61" transform="translate(450.585938 0.828125)"/>
      <use xlink:href="#DejaVuSans-6c" transform="translate(511.865234 0.828125)"/>
      <use xlink:href="#DejaVuSans-75" transform="translate(539.648438 0.828125)"/>
      <use xlink:href="#DejaVuSans-65" transform="translate(603.027344 0.828125)"/>
      <use xlink:href="#DejaVuSans-20" transform="translate(664.550781 0.828125)"/>
      <use xlink:href="#DejaVuSans-303" transform="translate(764.942871 22.3125)"/>
      <use xlink:href="#DejaVuSans-Oblique-52" transform="translate(696.337891 0.828125)"/>
      <use xlink:href="#DejaVuSans-Oblique-74" transform="translate(766.777344 39.109375) scale(0.7)"/>
      <use xlink:href="#DejaVuSans-Oblique-3c7" transform="translate(766.777344 -26.515625) scale(0.7)"/>
      <use xlink:href="#DejaVuSans-31" transform="translate(808.203125 -38) scale(0.49)"/>
      <use xlink:href="#DejaVuSans-2c" transform="translate(841.29248 -26.515625) scale(0.7)"/>
      <use xlink:href="#DejaVuSans-Oblique-3c7" transform="translate(877.181152 -26.515625) scale(0.7)"/>
      <use xlink:href="#DejaVuSans-32" transform="translate(918.606934 -38) scale(0.49)"/>
     </g>
    </g>
    <g id="line2d_24">
     <path d="M 272.07 35.910504 
L 282.07 35.910504 
L 292.07 35.910504 
" style="fill: none; stroke-dasharray: 5.55,2.4; stroke-dashoffset: 0; stroke: #000000; stroke-width: 1.5"/>
    </g>
    <g id="text_14">
     <!-- Original Value $\bar{R}_{\chi_1,\chi_2}^t$ -->
     <g transform="translate(300.07 39.410504) scale(0.1 -0.1)">
      <defs>
       <path id="DejaVuSans-4f" d="M 2522 4238 
Q 1834 4238 1429 3725 
Q 1025 3213 1025 2328 
Q 1025 1447 1429 934 
Q 1834 422 2522 422 
Q 3209 422 3611 934 
Q 4013 1447 4013 2328 
Q 4013 3213 3611 3725 
Q 3209 4238 2522 4238 
z
M 2522 4750 
Q 3503 4750 4090 4092 
Q 4678 3434 4678 2328 
Q 4678 1225 4090 567 
Q 3503 -91 2522 -91 
Q 1538 -91 948 565 
Q 359 1222 359 2328 
Q 359 3434 948 4092 
Q 1538 4750 2522 4750 
z
" transform="scale(0.015625)"/>
       <path id="DejaVuSans-67" d="M 2906 1791 
Q 2906 2416 2648 2759 
Q 2391 3103 1925 3103 
Q 1463 3103 1205 2759 
Q 947 2416 947 1791 
Q 947 1169 1205 825 
Q 1463 481 1925 481 
Q 2391 481 2648 825 
Q 2906 1169 2906 1791 
z
M 3481 434 
Q 3481 -459 3084 -895 
Q 2688 -1331 1869 -1331 
Q 1566 -1331 1297 -1286 
Q 1028 -1241 775 -1147 
L 775 -588 
Q 1028 -725 1275 -790 
Q 1522 -856 1778 -856 
Q 2344 -856 2625 -561 
Q 2906 -266 2906 331 
L 2906 616 
Q 2728 306 2450 153 
Q 2172 0 1784 0 
Q 1141 0 747 490 
Q 353 981 353 1791 
Q 353 2603 747 3093 
Q 1141 3584 1784 3584 
Q 2172 3584 2450 3431 
Q 2728 3278 2906 2969 
L 2906 3500 
L 3481 3500 
L 3481 434 
z
" transform="scale(0.015625)"/>
       <path id="DejaVuSans-6e" d="M 3513 2113 
L 3513 0 
L 2938 0 
L 2938 2094 
Q 2938 2591 2744 2837 
Q 2550 3084 2163 3084 
Q 1697 3084 1428 2787 
Q 1159 2491 1159 1978 
L 1159 0 
L 581 0 
L 581 3500 
L 1159 3500 
L 1159 2956 
Q 1366 3272 1645 3428 
Q 1925 3584 2291 3584 
Q 2894 3584 3203 3211 
Q 3513 2838 3513 2113 
z
" transform="scale(0.015625)"/>
       <path id="DejaVuSans-304" d="M -2518 4769 
L -650 4769 
L -650 4306 
L -2518 4306 
L -2518 4769 
z
" transform="scale(0.015625)"/>
      </defs>
      <use xlink:href="#DejaVuSans-4f" transform="translate(0 0.359375)"/>
      <use xlink:href="#DejaVuSans-72" transform="translate(78.710938 0.359375)"/>
      <use xlink:href="#DejaVuSans-69" transform="translate(119.824219 0.359375)"/>
      <use xlink:href="#DejaVuSans-67" transform="translate(147.607422 0.359375)"/>
      <use xlink:href="#DejaVuSans-69" transform="translate(211.083984 0.359375)"/>
      <use xlink:href="#DejaVuSans-6e" transform="translate(238.867188 0.359375)"/>
      <use xlink:href="#DejaVuSans-61" transform="translate(302.246094 0.359375)"/>
      <use xlink:href="#DejaVuSans-6c" transform="translate(363.525391 0.359375)"/>
      <use xlink:href="#DejaVuSans-20" transform="translate(391.308594 0.359375)"/>
      <use xlink:href="#DejaVuSans-56" transform="translate(423.095703 0.359375)"/>
      <use xlink:href="#DejaVuSans-61" transform="translate(491.503906 0.359375)"/>
      <use xlink:href="#DejaVuSans-6c" transform="translate(552.783203 0.359375)"/>
      <use xlink:href="#DejaVuSans-75" transform="translate(580.566406 0.359375)"/>
      <use xlink:href="#DejaVuSans-65" transform="translate(643.945312 0.359375)"/>
      <use xlink:href="#DejaVuSans-20" transform="translate(705.46875 0.359375)"/>
      <use xlink:href="#DejaVuSans-304" transform="translate(804.970215 18.484375)"/>
      <use xlink:href="#DejaVuSans-Oblique-52" transform="translate(737.255859 0.359375)"/>
      <use xlink:href="#DejaVuSans-Oblique-74" transform="translate(807.695312 38.640625) scale(0.7)"/>
      <use xlink:href="#DejaVuSans-Oblique-3c7" transform="translate(807.695312 -26.984375) scale(0.7)"/>
      <use xlink:href="#DejaVuSans-31" transform="translate(849.121094 -38.46875) scale(0.49)"/>
      <use xlink:href="#DejaVuSans-2c" transform="translate(882.210449 -26.984375) scale(0.7)"/>
      <use xlink:href="#DejaVuSans-Oblique-3c7" transform="translate(918.099121 -26.984375) scale(0.7)"/>
      <use xlink:href="#DejaVuSans-32" transform="translate(959.524902 -38.46875) scale(0.49)"/>
     </g>
    </g>
    <g id="patch_8">
     <path d="M 272.07 56.208942 
L 292.07 56.208942 
L 292.07 49.208942 
L 272.07 49.208942 
z
" style="fill: #134a8e; fill-opacity: 0.5; stroke: #134a8e; stroke-opacity: 0.5; stroke-width: 0.5; stroke-linejoin: miter"/>
    </g>
    <g id="text_15">
     <!-- One Standard Deviation -->
     <g transform="translate(300.07 56.208942) scale(0.1 -0.1)">
      <defs>
       <path id="DejaVuSans-53" d="M 3425 4513 
L 3425 3897 
Q 3066 4069 2747 4153 
Q 2428 4238 2131 4238 
Q 1616 4238 1336 4038 
Q 1056 3838 1056 3469 
Q 1056 3159 1242 3001 
Q 1428 2844 1947 2747 
L 2328 2669 
Q 3034 2534 3370 2195 
Q 3706 1856 3706 1288 
Q 3706 609 3251 259 
Q 2797 -91 1919 -91 
Q 1588 -91 1214 -16 
Q 841 59 441 206 
L 441 856 
Q 825 641 1194 531 
Q 1563 422 1919 422 
Q 2459 422 2753 634 
Q 3047 847 3047 1241 
Q 3047 1584 2836 1778 
Q 2625 1972 2144 2069 
L 1759 2144 
Q 1053 2284 737 2584 
Q 422 2884 422 3419 
Q 422 4038 858 4394 
Q 1294 4750 2059 4750 
Q 2388 4750 2728 4690 
Q 3069 4631 3425 4513 
z
" transform="scale(0.015625)"/>
       <path id="DejaVuSans-64" d="M 2906 2969 
L 2906 4863 
L 3481 4863 
L 3481 0 
L 2906 0 
L 2906 525 
Q 2725 213 2448 61 
Q 2172 -91 1784 -91 
Q 1150 -91 751 415 
Q 353 922 353 1747 
Q 353 2572 751 3078 
Q 1150 3584 1784 3584 
Q 2172 3584 2448 3432 
Q 2725 3281 2906 2969 
z
M 947 1747 
Q 947 1113 1208 752 
Q 1469 391 1925 391 
Q 2381 391 2643 752 
Q 2906 1113 2906 1747 
Q 2906 2381 2643 2742 
Q 2381 3103 1925 3103 
Q 1469 3103 1208 2742 
Q 947 2381 947 1747 
z
" transform="scale(0.015625)"/>
       <path id="DejaVuSans-6f" d="M 1959 3097 
Q 1497 3097 1228 2736 
Q 959 2375 959 1747 
Q 959 1119 1226 758 
Q 1494 397 1959 397 
Q 2419 397 2687 759 
Q 2956 1122 2956 1747 
Q 2956 2369 2687 2733 
Q 2419 3097 1959 3097 
z
M 1959 3584 
Q 2709 3584 3137 3096 
Q 3566 2609 3566 1747 
Q 3566 888 3137 398 
Q 2709 -91 1959 -91 
Q 1206 -91 779 398 
Q 353 888 353 1747 
Q 353 2609 779 3096 
Q 1206 3584 1959 3584 
z
" transform="scale(0.015625)"/>
      </defs>
      <use xlink:href="#DejaVuSans-4f"/>
      <use xlink:href="#DejaVuSans-6e" x="78.710938"/>
      <use xlink:href="#DejaVuSans-65" x="142.089844"/>
      <use xlink:href="#DejaVuSans-20" x="203.613281"/>
      <use xlink:href="#DejaVuSans-53" x="235.400391"/>
      <use xlink:href="#DejaVuSans-74" x="298.876953"/>
      <use xlink:href="#DejaVuSans-61" x="338.085938"/>
      <use xlink:href="#DejaVuSans-6e" x="399.365234"/>
      <use xlink:href="#DejaVuSans-64" x="462.744141"/>
      <use xlink:href="#DejaVuSans-61" x="526.220703"/>
      <use xlink:href="#DejaVuSans-72" x="587.5"/>
      <use xlink:href="#DejaVuSans-64" x="626.863281"/>
      <use xlink:href="#DejaVuSans-20" x="690.339844"/>
      <use xlink:href="#DejaVuSans-44" x="722.126953"/>
      <use xlink:href="#DejaVuSans-65" x="799.128906"/>
      <use xlink:href="#DejaVuSans-76" x="860.652344"/>
      <use xlink:href="#DejaVuSans-69" x="919.832031"/>
      <use xlink:href="#DejaVuSans-61" x="947.615234"/>
      <use xlink:href="#DejaVuSans-74" x="1008.894531"/>
      <use xlink:href="#DejaVuSans-69" x="1048.103516"/>
      <use xlink:href="#DejaVuSans-6f" x="1075.886719"/>
      <use xlink:href="#DejaVuSans-6e" x="1137.068359"/>
     </g>
    </g>
   </g>
  </g>
 </g>
 <defs>
  <clipPath id="p9ec661cf92">
   <rect x="38.516875" y="1.910504" width="390.6" height="166.32"/>
  </clipPath>
 </defs>
</svg>
