<?xml version="1.0" encoding="utf-8" standalone="no"?>
<!DOCTYPE svg PUBLIC "-//W3C//DTD SVG 1.1//EN"
  "http://www.w3.org/Graphics/SVG/1.1/DTD/svg11.dtd">
<svg xmlns:xlink="http://www.w3.org/1999/xlink" width="444.375067pt" height="198.611875pt" viewBox="0 0 444.375067 198.611875" xmlns="http://www.w3.org/2000/svg" version="1.1">
 <metadata>
  <rdf:RDF xmlns:dc="http://purl.org/dc/elements/1.1/" xmlns:cc="http://creativecommons.org/ns#" xmlns:rdf="http://www.w3.org/1999/02/22-rdf-syntax-ns#">
   <cc:Work>
    <dc:type rdf:resource="http://purl.org/dc/dcmitype/StillImage"/>
    <dc:date>2024-09-18T15:47:51.023046</dc:date>
    <dc:format>image/svg+xml</dc:format>
    <dc:creator>
     <cc:Agent>
      <dc:title>Matplotlib v3.7.5, https://matplotlib.org/</dc:title>
     </cc:Agent>
    </dc:creator>
   </cc:Work>
  </rdf:RDF>
 </metadata>
 <defs>
  <style type="text/css">*{stroke-linejoin: round; stroke-linecap: butt}</style>
 </defs>
 <g id="figure_1">
  <g id="patch_1">
   <path d="M 0 198.611875 
L 444.375067 198.611875 
L 444.375067 0 
L 0 0 
z
" style="fill: #ffffff"/>
  </g>
  <g id="axes_1">
   <g id="patch_2">
    <path d="M 44.879375 166.32 
L 435.479375 166.32 
L 435.479375 -0 
L 44.879375 -0 
z
" style="fill: #e5e5e5"/>
   </g>
   <g id="matplotlib.axis_1">
    <g id="xtick_1">
     <g id="line2d_1">
      <path d="M 72.41989 166.32 
L 72.41989 -0 
" clip-path="url(#p3440052f1a)" style="fill: none; stroke: #ffffff; stroke-width: 0.8; stroke-linecap: square"/>
     </g>
     <g id="line2d_2">
      <defs>
       <path id="m34c7eb24a5" d="M 0 0 
L 0 3.5 
" style="stroke: #555555; stroke-width: 0.8"/>
      </defs>
      <g>
       <use xlink:href="#m34c7eb24a5" x="72.41989" y="166.32" style="fill: #555555; stroke: #555555; stroke-width: 0.8"/>
      </g>
     </g>
     <g id="text_1">
      <!-- 08/16/20 -->
      <g style="fill: #555555" transform="translate(49.96364 180.918437) scale(0.1 -0.1)">
       <defs>
        <path id="DejaVuSans-30" d="M 2034 4250 
Q 1547 4250 1301 3770 
Q 1056 3291 1056 2328 
Q 1056 1369 1301 889 
Q 1547 409 2034 409 
Q 2525 409 2770 889 
Q 3016 1369 3016 2328 
Q 3016 3291 2770 3770 
Q 2525 4250 2034 4250 
z
M 2034 4750 
Q 2819 4750 3233 4129 
Q 3647 3509 3647 2328 
Q 3647 1150 3233 529 
Q 2819 -91 2034 -91 
Q 1250 -91 836 529 
Q 422 1150 422 2328 
Q 422 3509 836 4129 
Q 1250 4750 2034 4750 
z
" transform="scale(0.015625)"/>
        <path id="DejaVuSans-38" d="M 2034 2216 
Q 1584 2216 1326 1975 
Q 1069 1734 1069 1313 
Q 1069 891 1326 650 
Q 1584 409 2034 409 
Q 2484 409 2743 651 
Q 3003 894 3003 1313 
Q 3003 1734 2745 1975 
Q 2488 2216 2034 2216 
z
M 1403 2484 
Q 997 2584 770 2862 
Q 544 3141 544 3541 
Q 544 4100 942 4425 
Q 1341 4750 2034 4750 
Q 2731 4750 3128 4425 
Q 3525 4100 3525 3541 
Q 3525 3141 3298 2862 
Q 3072 2584 2669 2484 
Q 3125 2378 3379 2068 
Q 3634 1759 3634 1313 
Q 3634 634 3220 271 
Q 2806 -91 2034 -91 
Q 1263 -91 848 271 
Q 434 634 434 1313 
Q 434 1759 690 2068 
Q 947 2378 1403 2484 
z
M 1172 3481 
Q 1172 3119 1398 2916 
Q 1625 2713 2034 2713 
Q 2441 2713 2670 2916 
Q 2900 3119 2900 3481 
Q 2900 3844 2670 4047 
Q 2441 4250 2034 4250 
Q 1625 4250 1398 4047 
Q 1172 3844 1172 3481 
z
" transform="scale(0.015625)"/>
        <path id="DejaVuSans-2f" d="M 1625 4666 
L 2156 4666 
L 531 -594 
L 0 -594 
L 1625 4666 
z
" transform="scale(0.015625)"/>
        <path id="DejaVuSans-31" d="M 794 531 
L 1825 531 
L 1825 4091 
L 703 3866 
L 703 4441 
L 1819 4666 
L 2450 4666 
L 2450 531 
L 3481 531 
L 3481 0 
L 794 0 
L 794 531 
z
" transform="scale(0.015625)"/>
        <path id="DejaVuSans-36" d="M 2113 2584 
Q 1688 2584 1439 2293 
Q 1191 2003 1191 1497 
Q 1191 994 1439 701 
Q 1688 409 2113 409 
Q 2538 409 2786 701 
Q 3034 994 3034 1497 
Q 3034 2003 2786 2293 
Q 2538 2584 2113 2584 
z
M 3366 4563 
L 3366 3988 
Q 3128 4100 2886 4159 
Q 2644 4219 2406 4219 
Q 1781 4219 1451 3797 
Q 1122 3375 1075 2522 
Q 1259 2794 1537 2939 
Q 1816 3084 2150 3084 
Q 2853 3084 3261 2657 
Q 3669 2231 3669 1497 
Q 3669 778 3244 343 
Q 2819 -91 2113 -91 
Q 1303 -91 875 529 
Q 447 1150 447 2328 
Q 447 3434 972 4092 
Q 1497 4750 2381 4750 
Q 2619 4750 2861 4703 
Q 3103 4656 3366 4563 
z
" transform="scale(0.015625)"/>
        <path id="DejaVuSans-32" d="M 1228 531 
L 3431 531 
L 3431 0 
L 469 0 
L 469 531 
Q 828 903 1448 1529 
Q 2069 2156 2228 2338 
Q 2531 2678 2651 2914 
Q 2772 3150 2772 3378 
Q 2772 3750 2511 3984 
Q 2250 4219 1831 4219 
Q 1534 4219 1204 4116 
Q 875 4013 500 3803 
L 500 4441 
Q 881 4594 1212 4672 
Q 1544 4750 1819 4750 
Q 2544 4750 2975 4387 
Q 3406 4025 3406 3419 
Q 3406 3131 3298 2873 
Q 3191 2616 2906 2266 
Q 2828 2175 2409 1742 
Q 1991 1309 1228 531 
z
" transform="scale(0.015625)"/>
       </defs>
       <use xlink:href="#DejaVuSans-30"/>
       <use xlink:href="#DejaVuSans-38" x="63.623047"/>
       <use xlink:href="#DejaVuSans-2f" x="127.246094"/>
       <use xlink:href="#DejaVuSans-31" x="160.9375"/>
       <use xlink:href="#DejaVuSans-36" x="224.560547"/>
       <use xlink:href="#DejaVuSans-2f" x="288.183594"/>
       <use xlink:href="#DejaVuSans-32" x="321.875"/>
       <use xlink:href="#DejaVuSans-30" x="385.498047"/>
      </g>
     </g>
    </g>
    <g id="xtick_2">
     <g id="line2d_3">
      <path d="M 142.319676 166.32 
L 142.319676 -0 
" clip-path="url(#p3440052f1a)" style="fill: none; stroke: #ffffff; stroke-width: 0.8; stroke-linecap: square"/>
     </g>
     <g id="line2d_4">
      <g>
       <use xlink:href="#m34c7eb24a5" x="142.319676" y="166.32" style="fill: #555555; stroke: #555555; stroke-width: 0.8"/>
      </g>
     </g>
     <g id="text_2">
      <!-- 10/05/20 -->
      <g style="fill: #555555" transform="translate(119.863426 180.918437) scale(0.1 -0.1)">
       <defs>
        <path id="DejaVuSans-35" d="M 691 4666 
L 3169 4666 
L 3169 4134 
L 1269 4134 
L 1269 2991 
Q 1406 3038 1543 3061 
Q 1681 3084 1819 3084 
Q 2600 3084 3056 2656 
Q 3513 2228 3513 1497 
Q 3513 744 3044 326 
Q 2575 -91 1722 -91 
Q 1428 -91 1123 -41 
Q 819 9 494 109 
L 494 744 
Q 775 591 1075 516 
Q 1375 441 1709 441 
Q 2250 441 2565 725 
Q 2881 1009 2881 1497 
Q 2881 1984 2565 2268 
Q 2250 2553 1709 2553 
Q 1456 2553 1204 2497 
Q 953 2441 691 2322 
L 691 4666 
z
" transform="scale(0.015625)"/>
       </defs>
       <use xlink:href="#DejaVuSans-31"/>
       <use xlink:href="#DejaVuSans-30" x="63.623047"/>
       <use xlink:href="#DejaVuSans-2f" x="127.246094"/>
       <use xlink:href="#DejaVuSans-30" x="160.9375"/>
       <use xlink:href="#DejaVuSans-35" x="224.560547"/>
       <use xlink:href="#DejaVuSans-2f" x="288.183594"/>
       <use xlink:href="#DejaVuSans-32" x="321.875"/>
       <use xlink:href="#DejaVuSans-30" x="385.498047"/>
      </g>
     </g>
    </g>
    <g id="xtick_3">
     <g id="line2d_5">
      <path d="M 212.219461 166.32 
L 212.219461 -0 
" clip-path="url(#p3440052f1a)" style="fill: none; stroke: #ffffff; stroke-width: 0.8; stroke-linecap: square"/>
     </g>
     <g id="line2d_6">
      <g>
       <use xlink:href="#m34c7eb24a5" x="212.219461" y="166.32" style="fill: #555555; stroke: #555555; stroke-width: 0.8"/>
      </g>
     </g>
     <g id="text_3">
      <!-- 11/24/20 -->
      <g style="fill: #555555" transform="translate(189.763211 180.918437) scale(0.1 -0.1)">
       <defs>
        <path id="DejaVuSans-34" d="M 2419 4116 
L 825 1625 
L 2419 1625 
L 2419 4116 
z
M 2253 4666 
L 3047 4666 
L 3047 1625 
L 3713 1625 
L 3713 1100 
L 3047 1100 
L 3047 0 
L 2419 0 
L 2419 1100 
L 313 1100 
L 313 1709 
L 2253 4666 
z
" transform="scale(0.015625)"/>
       </defs>
       <use xlink:href="#DejaVuSans-31"/>
       <use xlink:href="#DejaVuSans-31" x="63.623047"/>
       <use xlink:href="#DejaVuSans-2f" x="127.246094"/>
       <use xlink:href="#DejaVuSans-32" x="160.9375"/>
       <use xlink:href="#DejaVuSans-34" x="224.560547"/>
       <use xlink:href="#DejaVuSans-2f" x="288.183594"/>
       <use xlink:href="#DejaVuSans-32" x="321.875"/>
       <use xlink:href="#DejaVuSans-30" x="385.498047"/>
      </g>
     </g>
    </g>
    <g id="xtick_4">
     <g id="line2d_7">
      <path d="M 282.119246 166.32 
L 282.119246 -0 
" clip-path="url(#p3440052f1a)" style="fill: none; stroke: #ffffff; stroke-width: 0.8; stroke-linecap: square"/>
     </g>
     <g id="line2d_8">
      <g>
       <use xlink:href="#m34c7eb24a5" x="282.119246" y="166.32" style="fill: #555555; stroke: #555555; stroke-width: 0.8"/>
      </g>
     </g>
     <g id="text_4">
      <!-- 01/13/21 -->
      <g style="fill: #555555" transform="translate(259.662996 180.918437) scale(0.1 -0.1)">
       <defs>
        <path id="DejaVuSans-33" d="M 2597 2516 
Q 3050 2419 3304 2112 
Q 3559 1806 3559 1356 
Q 3559 666 3084 287 
Q 2609 -91 1734 -91 
Q 1441 -91 1130 -33 
Q 819 25 488 141 
L 488 750 
Q 750 597 1062 519 
Q 1375 441 1716 441 
Q 2309 441 2620 675 
Q 2931 909 2931 1356 
Q 2931 1769 2642 2001 
Q 2353 2234 1838 2234 
L 1294 2234 
L 1294 2753 
L 1863 2753 
Q 2328 2753 2575 2939 
Q 2822 3125 2822 3475 
Q 2822 3834 2567 4026 
Q 2313 4219 1838 4219 
Q 1578 4219 1281 4162 
Q 984 4106 628 3988 
L 628 4550 
Q 988 4650 1302 4700 
Q 1616 4750 1894 4750 
Q 2613 4750 3031 4423 
Q 3450 4097 3450 3541 
Q 3450 3153 3228 2886 
Q 3006 2619 2597 2516 
z
" transform="scale(0.015625)"/>
       </defs>
       <use xlink:href="#DejaVuSans-30"/>
       <use xlink:href="#DejaVuSans-31" x="63.623047"/>
       <use xlink:href="#DejaVuSans-2f" x="127.246094"/>
       <use xlink:href="#DejaVuSans-31" x="160.9375"/>
       <use xlink:href="#DejaVuSans-33" x="224.560547"/>
       <use xlink:href="#DejaVuSans-2f" x="288.183594"/>
       <use xlink:href="#DejaVuSans-32" x="321.875"/>
       <use xlink:href="#DejaVuSans-31" x="385.498047"/>
      </g>
     </g>
    </g>
    <g id="xtick_5">
     <g id="line2d_9">
      <path d="M 352.019031 166.32 
L 352.019031 -0 
" clip-path="url(#p3440052f1a)" style="fill: none; stroke: #ffffff; stroke-width: 0.8; stroke-linecap: square"/>
     </g>
     <g id="line2d_10">
      <g>
       <use xlink:href="#m34c7eb24a5" x="352.019031" y="166.32" style="fill: #555555; stroke: #555555; stroke-width: 0.8"/>
      </g>
     </g>
     <g id="text_5">
      <!-- 03/04/21 -->
      <g style="fill: #555555" transform="translate(329.562781 180.918437) scale(0.1 -0.1)">
       <use xlink:href="#DejaVuSans-30"/>
       <use xlink:href="#DejaVuSans-33" x="63.623047"/>
       <use xlink:href="#DejaVuSans-2f" x="127.246094"/>
       <use xlink:href="#DejaVuSans-30" x="160.9375"/>
       <use xlink:href="#DejaVuSans-34" x="224.560547"/>
       <use xlink:href="#DejaVuSans-2f" x="288.183594"/>
       <use xlink:href="#DejaVuSans-32" x="321.875"/>
       <use xlink:href="#DejaVuSans-31" x="385.498047"/>
      </g>
     </g>
    </g>
    <g id="xtick_6">
     <g id="line2d_11">
      <path d="M 421.918817 166.32 
L 421.918817 -0 
" clip-path="url(#p3440052f1a)" style="fill: none; stroke: #ffffff; stroke-width: 0.8; stroke-linecap: square"/>
     </g>
     <g id="line2d_12">
      <g>
       <use xlink:href="#m34c7eb24a5" x="421.918817" y="166.32" style="fill: #555555; stroke: #555555; stroke-width: 0.8"/>
      </g>
     </g>
     <g id="text_6">
      <!-- 04/23/21 -->
      <g style="fill: #555555" transform="translate(399.462567 180.918437) scale(0.1 -0.1)">
       <use xlink:href="#DejaVuSans-30"/>
       <use xlink:href="#DejaVuSans-34" x="63.623047"/>
       <use xlink:href="#DejaVuSans-2f" x="127.246094"/>
       <use xlink:href="#DejaVuSans-32" x="160.9375"/>
       <use xlink:href="#DejaVuSans-33" x="224.560547"/>
       <use xlink:href="#DejaVuSans-2f" x="288.183594"/>
       <use xlink:href="#DejaVuSans-32" x="321.875"/>
       <use xlink:href="#DejaVuSans-31" x="385.498047"/>
      </g>
     </g>
    </g>
    <g id="text_7">
     <!-- Date -->
     <g style="fill: #555555" transform="translate(225.838438 196.11625) scale(0.12 -0.12)">
      <defs>
       <path id="DejaVuSans-44" d="M 1259 4147 
L 1259 519 
L 2022 519 
Q 2988 519 3436 956 
Q 3884 1394 3884 2338 
Q 3884 3275 3436 3711 
Q 2988 4147 2022 4147 
L 1259 4147 
z
M 628 4666 
L 1925 4666 
Q 3281 4666 3915 4102 
Q 4550 3538 4550 2338 
Q 4550 1131 3912 565 
Q 3275 0 1925 0 
L 628 0 
L 628 4666 
z
" transform="scale(0.015625)"/>
       <path id="DejaVuSans-61" d="M 2194 1759 
Q 1497 1759 1228 1600 
Q 959 1441 959 1056 
Q 959 750 1161 570 
Q 1363 391 1709 391 
Q 2188 391 2477 730 
Q 2766 1069 2766 1631 
L 2766 1759 
L 2194 1759 
z
M 3341 1997 
L 3341 0 
L 2766 0 
L 2766 531 
Q 2569 213 2275 61 
Q 1981 -91 1556 -91 
Q 1019 -91 701 211 
Q 384 513 384 1019 
Q 384 1609 779 1909 
Q 1175 2209 1959 2209 
L 2766 2209 
L 2766 2266 
Q 2766 2663 2505 2880 
Q 2244 3097 1772 3097 
Q 1472 3097 1187 3025 
Q 903 2953 641 2809 
L 641 3341 
Q 956 3463 1253 3523 
Q 1550 3584 1831 3584 
Q 2591 3584 2966 3190 
Q 3341 2797 3341 1997 
z
" transform="scale(0.015625)"/>
       <path id="DejaVuSans-74" d="M 1172 4494 
L 1172 3500 
L 2356 3500 
L 2356 3053 
L 1172 3053 
L 1172 1153 
Q 1172 725 1289 603 
Q 1406 481 1766 481 
L 2356 481 
L 2356 0 
L 1766 0 
Q 1100 0 847 248 
Q 594 497 594 1153 
L 594 3053 
L 172 3053 
L 172 3500 
L 594 3500 
L 594 4494 
L 1172 4494 
z
" transform="scale(0.015625)"/>
       <path id="DejaVuSans-65" d="M 3597 1894 
L 3597 1613 
L 953 1613 
Q 991 1019 1311 708 
Q 1631 397 2203 397 
Q 2534 397 2845 478 
Q 3156 559 3463 722 
L 3463 178 
Q 3153 47 2828 -22 
Q 2503 -91 2169 -91 
Q 1331 -91 842 396 
Q 353 884 353 1716 
Q 353 2575 817 3079 
Q 1281 3584 2069 3584 
Q 2775 3584 3186 3129 
Q 3597 2675 3597 1894 
z
M 3022 2063 
Q 3016 2534 2758 2815 
Q 2500 3097 2075 3097 
Q 1594 3097 1305 2825 
Q 1016 2553 972 2059 
L 3022 2063 
z
" transform="scale(0.015625)"/>
      </defs>
      <use xlink:href="#DejaVuSans-44"/>
      <use xlink:href="#DejaVuSans-61" x="77.001953"/>
      <use xlink:href="#DejaVuSans-74" x="138.28125"/>
      <use xlink:href="#DejaVuSans-65" x="177.490234"/>
     </g>
    </g>
   </g>
   <g id="matplotlib.axis_2">
    <g id="ytick_1">
     <g id="line2d_13">
      <path d="M 44.879375 146.970279 
L 435.479375 146.970279 
" clip-path="url(#p3440052f1a)" style="fill: none; stroke: #ffffff; stroke-width: 0.8; stroke-linecap: square"/>
     </g>
     <g id="line2d_14">
      <defs>
       <path id="m843bce824d" d="M 0 0 
L -3.5 0 
" style="stroke: #555555; stroke-width: 0.8"/>
      </defs>
      <g>
       <use xlink:href="#m843bce824d" x="44.879375" y="146.970279" style="fill: #555555; stroke: #555555; stroke-width: 0.8"/>
      </g>
     </g>
     <g id="text_8">
      <!-- 0.05 -->
      <g style="fill: #555555" transform="translate(15.61375 150.769498) scale(0.1 -0.1)">
       <defs>
        <path id="DejaVuSans-2e" d="M 684 794 
L 1344 794 
L 1344 0 
L 684 0 
L 684 794 
z
" transform="scale(0.015625)"/>
       </defs>
       <use xlink:href="#DejaVuSans-30"/>
       <use xlink:href="#DejaVuSans-2e" x="63.623047"/>
       <use xlink:href="#DejaVuSans-30" x="95.410156"/>
       <use xlink:href="#DejaVuSans-35" x="159.033203"/>
      </g>
     </g>
    </g>
    <g id="ytick_2">
     <g id="line2d_15">
      <path d="M 44.879375 125.824435 
L 435.479375 125.824435 
" clip-path="url(#p3440052f1a)" style="fill: none; stroke: #ffffff; stroke-width: 0.8; stroke-linecap: square"/>
     </g>
     <g id="line2d_16">
      <g>
       <use xlink:href="#m843bce824d" x="44.879375" y="125.824435" style="fill: #555555; stroke: #555555; stroke-width: 0.8"/>
      </g>
     </g>
     <g id="text_9">
      <!-- 0.10 -->
      <g style="fill: #555555" transform="translate(15.61375 129.623654) scale(0.1 -0.1)">
       <use xlink:href="#DejaVuSans-30"/>
       <use xlink:href="#DejaVuSans-2e" x="63.623047"/>
       <use xlink:href="#DejaVuSans-31" x="95.410156"/>
       <use xlink:href="#DejaVuSans-30" x="159.033203"/>
      </g>
     </g>
    </g>
    <g id="ytick_3">
     <g id="line2d_17">
      <path d="M 44.879375 104.678591 
L 435.479375 104.678591 
" clip-path="url(#p3440052f1a)" style="fill: none; stroke: #ffffff; stroke-width: 0.8; stroke-linecap: square"/>
     </g>
     <g id="line2d_18">
      <g>
       <use xlink:href="#m843bce824d" x="44.879375" y="104.678591" style="fill: #555555; stroke: #555555; stroke-width: 0.8"/>
      </g>
     </g>
     <g id="text_10">
      <!-- 0.15 -->
      <g style="fill: #555555" transform="translate(15.61375 108.47781) scale(0.1 -0.1)">
       <use xlink:href="#DejaVuSans-30"/>
       <use xlink:href="#DejaVuSans-2e" x="63.623047"/>
       <use xlink:href="#DejaVuSans-31" x="95.410156"/>
       <use xlink:href="#DejaVuSans-35" x="159.033203"/>
      </g>
     </g>
    </g>
    <g id="ytick_4">
     <g id="line2d_19">
      <path d="M 44.879375 83.532747 
L 435.479375 83.532747 
" clip-path="url(#p3440052f1a)" style="fill: none; stroke: #ffffff; stroke-width: 0.8; stroke-linecap: square"/>
     </g>
     <g id="line2d_20">
      <g>
       <use xlink:href="#m843bce824d" x="44.879375" y="83.532747" style="fill: #555555; stroke: #555555; stroke-width: 0.8"/>
      </g>
     </g>
     <g id="text_11">
      <!-- 0.20 -->
      <g style="fill: #555555" transform="translate(15.61375 87.331966) scale(0.1 -0.1)">
       <use xlink:href="#DejaVuSans-30"/>
       <use xlink:href="#DejaVuSans-2e" x="63.623047"/>
       <use xlink:href="#DejaVuSans-32" x="95.410156"/>
       <use xlink:href="#DejaVuSans-30" x="159.033203"/>
      </g>
     </g>
    </g>
    <g id="ytick_5">
     <g id="line2d_21">
      <path d="M 44.879375 62.386903 
L 435.479375 62.386903 
" clip-path="url(#p3440052f1a)" style="fill: none; stroke: #ffffff; stroke-width: 0.8; stroke-linecap: square"/>
     </g>
     <g id="line2d_22">
      <g>
       <use xlink:href="#m843bce824d" x="44.879375" y="62.386903" style="fill: #555555; stroke: #555555; stroke-width: 0.8"/>
      </g>
     </g>
     <g id="text_12">
      <!-- 0.25 -->
      <g style="fill: #555555" transform="translate(15.61375 66.186122) scale(0.1 -0.1)">
       <use xlink:href="#DejaVuSans-30"/>
       <use xlink:href="#DejaVuSans-2e" x="63.623047"/>
       <use xlink:href="#DejaVuSans-32" x="95.410156"/>
       <use xlink:href="#DejaVuSans-35" x="159.033203"/>
      </g>
     </g>
    </g>
    <g id="ytick_6">
     <g id="line2d_23">
      <path d="M 44.879375 41.241059 
L 435.479375 41.241059 
" clip-path="url(#p3440052f1a)" style="fill: none; stroke: #ffffff; stroke-width: 0.8; stroke-linecap: square"/>
     </g>
     <g id="line2d_24">
      <g>
       <use xlink:href="#m843bce824d" x="44.879375" y="41.241059" style="fill: #555555; stroke: #555555; stroke-width: 0.8"/>
      </g>
     </g>
     <g id="text_13">
      <!-- 0.30 -->
      <g style="fill: #555555" transform="translate(15.61375 45.040277) scale(0.1 -0.1)">
       <use xlink:href="#DejaVuSans-30"/>
       <use xlink:href="#DejaVuSans-2e" x="63.623047"/>
       <use xlink:href="#DejaVuSans-33" x="95.410156"/>
       <use xlink:href="#DejaVuSans-30" x="159.033203"/>
      </g>
     </g>
    </g>
    <g id="ytick_7">
     <g id="line2d_25">
      <path d="M 44.879375 20.095215 
L 435.479375 20.095215 
" clip-path="url(#p3440052f1a)" style="fill: none; stroke: #ffffff; stroke-width: 0.8; stroke-linecap: square"/>
     </g>
     <g id="line2d_26">
      <g>
       <use xlink:href="#m843bce824d" x="44.879375" y="20.095215" style="fill: #555555; stroke: #555555; stroke-width: 0.8"/>
      </g>
     </g>
     <g id="text_14">
      <!-- 0.35 -->
      <g style="fill: #555555" transform="translate(15.61375 23.894433) scale(0.1 -0.1)">
       <use xlink:href="#DejaVuSans-30"/>
       <use xlink:href="#DejaVuSans-2e" x="63.623047"/>
       <use xlink:href="#DejaVuSans-33" x="95.410156"/>
       <use xlink:href="#DejaVuSans-35" x="159.033203"/>
      </g>
     </g>
    </g>
    <g id="text_15">
     <!-- Value -->
     <g style="fill: #555555" transform="translate(9.118125 99.6375) rotate(-90) scale(0.12 -0.12)">
      <defs>
       <path id="DejaVuSans-56" d="M 1831 0 
L 50 4666 
L 709 4666 
L 2188 738 
L 3669 4666 
L 4325 4666 
L 2547 0 
L 1831 0 
z
" transform="scale(0.015625)"/>
       <path id="DejaVuSans-6c" d="M 603 4863 
L 1178 4863 
L 1178 0 
L 603 0 
L 603 4863 
z
" transform="scale(0.015625)"/>
       <path id="DejaVuSans-75" d="M 544 1381 
L 544 3500 
L 1119 3500 
L 1119 1403 
Q 1119 906 1312 657 
Q 1506 409 1894 409 
Q 2359 409 2629 706 
Q 2900 1003 2900 1516 
L 2900 3500 
L 3475 3500 
L 3475 0 
L 2900 0 
L 2900 538 
Q 2691 219 2414 64 
Q 2138 -91 1772 -91 
Q 1169 -91 856 284 
Q 544 659 544 1381 
z
M 1991 3584 
L 1991 3584 
z
" transform="scale(0.015625)"/>
      </defs>
      <use xlink:href="#DejaVuSans-56"/>
      <use xlink:href="#DejaVuSans-61" x="60.658203"/>
      <use xlink:href="#DejaVuSans-6c" x="121.9375"/>
      <use xlink:href="#DejaVuSans-75" x="149.720703"/>
      <use xlink:href="#DejaVuSans-65" x="213.099609"/>
     </g>
    </g>
   </g>
   <g id="PolyCollection_1">
    <defs>
     <path id="m9b2b260b7f" d="M 62.63392 -177.510321 
L 62.63392 -191.051875 
L 64.031916 -187.272178 
L 65.429912 -178.554671 
L 66.827908 -180.805259 
L 68.225903 -176.13059 
L 69.623899 -168.314048 
L 71.021895 -165.386903 
L 72.41989 -151.662948 
L 73.817886 -154.478616 
L 75.215882 -157.202379 
L 76.613878 -154.318479 
L 78.011873 -152.729428 
L 79.409869 -154.92952 
L 80.807865 -142.854746 
L 82.20586 -134.442738 
L 83.603856 -125.807078 
L 85.001852 -121.75419 
L 86.399847 -117.292721 
L 87.797843 -116.21701 
L 89.195839 -114.511084 
L 90.593835 -115.648175 
L 91.99183 -104.709873 
L 93.389826 -105.121977 
L 94.787822 -111.333915 
L 96.185817 -110.37377 
L 97.583813 -105.092222 
L 98.981809 -96.523121 
L 100.379804 -99.598842 
L 101.7778 -98.04921 
L 103.175796 -99.063968 
L 104.573792 -99.043659 
L 105.971787 -100.663518 
L 107.369783 -91.030348 
L 108.767779 -88.562199 
L 110.165774 -83.699321 
L 111.56377 -86.41265 
L 112.961766 -83.976459 
L 114.359762 -75.872881 
L 115.757757 -74.246446 
L 117.155753 -74.094523 
L 118.553749 -74.899066 
L 119.951744 -75.281742 
L 121.34974 -75.76102 
L 122.747736 -76.254303 
L 124.145731 -75.825822 
L 125.543727 -77.187319 
L 126.941723 -78.445644 
L 128.339719 -78.485602 
L 129.737714 -78.433221 
L 131.13571 -78.806321 
L 132.533706 -75.957739 
L 133.931701 -79.445377 
L 135.329697 -73.927985 
L 136.727693 -73.170721 
L 138.125689 -73.129638 
L 139.523684 -72.285621 
L 140.92168 -72.031214 
L 142.319676 -71.0854 
L 143.717671 -70.729382 
L 145.115667 -70.341223 
L 146.513663 -70.712235 
L 147.911658 -70.894773 
L 149.309654 -69.438302 
L 150.70765 -71.882827 
L 152.105646 -71.886467 
L 153.503641 -71.728698 
L 154.901637 -71.143665 
L 156.299633 -70.094173 
L 157.697628 -71.792485 
L 159.095624 -70.617459 
L 160.49362 -72.449444 
L 161.891616 -70.971047 
L 163.289611 -71.080301 
L 164.687607 -68.676441 
L 166.085603 -68.803735 
L 167.483598 -70.506887 
L 168.881594 -70.024938 
L 170.27959 -67.245898 
L 171.677585 -67.409248 
L 173.075581 -66.829153 
L 174.473577 -66.545776 
L 175.871573 -64.416096 
L 177.269568 -66.300139 
L 178.667564 -64.417374 
L 180.06556 -64.426891 
L 181.463555 -63.815032 
L 182.861551 -63.949995 
L 184.259547 -62.196621 
L 185.657543 -62.499324 
L 187.055538 -62.139111 
L 188.453534 -62.267157 
L 189.85153 -62.819726 
L 191.249525 -61.128524 
L 192.647521 -54.341625 
L 194.045517 -54.128333 
L 195.443512 -53.924607 
L 196.841508 -53.12838 
L 198.239504 -52.955835 
L 199.6375 -54.31254 
L 201.035495 -50.536624 
L 202.433491 -50.786033 
L 203.831487 -50.59207 
L 205.229482 -52.152836 
L 206.627478 -51.826435 
L 208.025474 -51.930209 
L 209.423469 -51.797167 
L 210.821465 -52.029268 
L 212.219461 -51.897285 
L 213.617457 -53.89742 
L 215.015452 -54.283477 
L 216.413448 -52.725713 
L 217.811444 -51.561536 
L 219.209439 -51.826266 
L 220.607435 -51.673848 
L 222.005431 -52.787862 
L 223.403427 -52.911382 
L 224.801422 -52.54702 
L 226.199418 -52.632373 
L 227.597414 -54.094397 
L 228.995409 -54.01048 
L 230.393405 -53.78968 
L 231.791401 -54.06558 
L 233.189396 -53.755706 
L 234.587392 -53.787951 
L 235.985388 -58.002828 
L 237.383384 -58.052756 
L 238.781379 -57.943628 
L 240.179375 -58.336388 
L 241.577371 -58.536161 
L 242.975366 -58.077072 
L 244.373362 -60.191244 
L 245.771358 -59.903923 
L 247.169354 -60.96825 
L 248.567349 -60.402716 
L 249.965345 -61.29595 
L 251.363341 -61.486266 
L 252.761336 -63.14792 
L 254.159332 -66.9699 
L 255.557328 -67.000726 
L 256.955323 -66.863439 
L 258.353319 -67.42853 
L 259.751315 -67.365992 
L 261.149311 -70.199255 
L 262.547306 -71.872539 
L 263.945302 -81.64609 
L 265.343298 -83.283554 
L 266.741293 -85.770994 
L 268.139289 -87.28501 
L 269.537285 -87.102411 
L 270.935281 -88.246104 
L 272.333276 -87.555729 
L 273.731272 -87.851406 
L 275.129268 -87.872264 
L 276.527263 -91.050497 
L 277.925259 -91.513338 
L 279.323255 -90.005415 
L 280.72125 -90.895476 
L 282.119246 -90.135867 
L 283.517242 -88.990942 
L 284.915238 -88.814405 
L 286.313233 -89.068944 
L 287.711229 -89.378146 
L 289.109225 -89.148247 
L 290.50722 -92.828357 
L 291.905216 -92.872921 
L 293.303212 -93.701026 
L 294.701207 -93.992825 
L 296.099203 -93.413883 
L 297.497199 -92.863441 
L 298.895195 -93.904525 
L 300.29319 -94.576187 
L 301.691186 -94.837574 
L 303.089182 -95.884008 
L 304.487177 -96.151442 
L 305.885173 -97.823798 
L 307.283169 -98.786306 
L 308.681165 -96.630808 
L 310.07916 -97.115621 
L 311.477156 -98.773546 
L 312.875152 -98.521735 
L 314.273147 -98.523175 
L 315.671143 -98.997444 
L 317.069139 -98.636492 
L 318.467134 -99.900047 
L 319.86513 -99.919078 
L 321.263126 -100.574213 
L 322.661122 -101.412611 
L 324.059117 -100.620928 
L 325.457113 -101.172854 
L 326.855109 -101.000946 
L 328.253104 -101.779885 
L 329.6511 -100.741161 
L 331.049096 -101.981704 
L 332.447092 -102.879511 
L 333.845087 -102.098284 
L 335.243083 -104.157774 
L 336.641079 -102.903468 
L 338.039074 -104.150857 
L 339.43707 -100.527694 
L 340.835066 -99.38806 
L 342.233061 -96.252524 
L 343.631057 -96.685892 
L 345.029053 -98.58222 
L 346.427049 -99.169671 
L 347.825044 -98.439758 
L 349.22304 -97.121955 
L 350.621036 -96.380518 
L 352.019031 -97.154434 
L 353.417027 -93.263018 
L 354.815023 -89.358755 
L 356.213019 -88.911705 
L 357.611014 -85.980127 
L 359.00901 -87.365338 
L 360.407006 -84.453317 
L 361.805001 -79.73934 
L 363.202997 -71.962135 
L 364.600993 -71.302777 
L 365.998988 -70.875853 
L 367.396984 -67.802544 
L 368.79498 -67.849821 
L 370.192976 -65.253108 
L 371.590971 -64.643085 
L 372.988967 -61.616369 
L 374.386963 -57.013727 
L 375.784958 -56.684164 
L 377.182954 -54.945913 
L 378.58095 -53.73587 
L 379.978946 -53.338347 
L 381.376941 -50.822196 
L 382.774937 -49.859177 
L 384.172933 -49.841625 
L 385.570928 -49.810132 
L 386.968924 -49.860207 
L 388.36692 -49.882086 
L 389.764915 -47.165725 
L 391.162911 -47.141353 
L 392.560907 -47.182943 
L 393.958903 -46.755318 
L 395.356898 -46.950387 
L 396.754894 -47.058033 
L 398.15289 -47.177211 
L 399.550885 -43.456025 
L 400.948881 -43.479457 
L 402.346877 -43.518009 
L 403.744872 -43.204415 
L 405.142868 -43.232732 
L 406.540864 -43.16792 
L 407.93886 -43.368916 
L 409.336855 -43.252881 
L 410.734851 -43.251232 
L 412.132847 -43.143202 
L 413.530842 -43.126248 
L 414.928838 -43.033288 
L 416.326834 -43.210153 
L 417.72483 -43.34218 
L 417.72483 -41.214863 
L 417.72483 -41.214863 
L 416.326834 -41.071123 
L 414.928838 -40.809625 
L 413.530842 -40.775683 
L 412.132847 -40.742289 
L 410.734851 -41.266477 
L 409.336855 -40.984514 
L 407.93886 -40.981208 
L 406.540864 -40.625171 
L 405.142868 -40.993757 
L 403.744872 -40.887239 
L 402.346877 -41.269673 
L 400.948881 -41.299546 
L 399.550885 -41.244578 
L 398.15289 -43.763523 
L 396.754894 -44.077054 
L 395.356898 -44.193726 
L 393.958903 -43.771298 
L 392.560907 -44.594669 
L 391.162911 -44.037024 
L 389.764915 -44.015365 
L 388.36692 -46.807906 
L 386.968924 -46.693473 
L 385.570928 -46.691344 
L 384.172933 -47.035347 
L 382.774937 -46.669031 
L 381.376941 -47.95103 
L 379.978946 -50.283931 
L 378.58095 -50.615967 
L 377.182954 -51.773661 
L 375.784958 -53.186999 
L 374.386963 -53.346606 
L 372.988967 -58.167894 
L 371.590971 -60.78121 
L 370.192976 -60.449011 
L 368.79498 -63.299032 
L 367.396984 -63.155686 
L 365.998988 -66.174972 
L 364.600993 -66.080606 
L 363.202997 -66.971122 
L 361.805001 -74.290142 
L 360.407006 -78.13965 
L 359.00901 -80.12872 
L 357.611014 -79.4502 
L 356.213019 -82.82857 
L 354.815023 -82.27943 
L 353.417027 -86.28031 
L 352.019031 -89.313861 
L 350.621036 -89.170102 
L 349.22304 -89.693919 
L 347.825044 -90.786164 
L 346.427049 -91.200708 
L 345.029053 -91.22253 
L 343.631057 -89.247469 
L 342.233061 -89.362979 
L 340.835066 -91.119647 
L 339.43707 -93.277406 
L 338.039074 -95.746777 
L 336.641079 -94.984064 
L 335.243083 -95.532479 
L 333.845087 -94.261987 
L 332.447092 -94.886328 
L 331.049096 -93.829197 
L 329.6511 -94.04113 
L 328.253104 -94.424998 
L 326.855109 -92.429337 
L 325.457113 -93.606814 
L 324.059117 -93.942259 
L 322.661122 -92.840085 
L 321.263126 -93.370792 
L 319.86513 -91.381119 
L 318.467134 -92.613589 
L 317.069139 -91.556785 
L 315.671143 -90.721596 
L 314.273147 -90.951595 
L 312.875152 -90.618662 
L 311.477156 -91.161826 
L 310.07916 -88.927161 
L 308.681165 -88.623172 
L 307.283169 -91.770585 
L 305.885173 -90.833143 
L 304.487177 -89.241811 
L 303.089182 -88.219084 
L 301.691186 -87.482368 
L 300.29319 -87.387734 
L 298.895195 -86.599879 
L 297.497199 -85.884073 
L 296.099203 -85.963992 
L 294.701207 -86.191207 
L 293.303212 -86.495187 
L 291.905216 -85.365477 
L 290.50722 -85.444809 
L 289.109225 -82.731935 
L 287.711229 -82.768177 
L 286.313233 -82.404972 
L 284.915238 -82.198939 
L 283.517242 -81.881498 
L 282.119246 -82.845308 
L 280.72125 -83.621871 
L 279.323255 -83.005451 
L 277.925259 -84.768853 
L 276.527263 -83.669511 
L 275.129268 -81.371541 
L 273.731272 -80.602623 
L 272.333276 -80.959614 
L 270.935281 -81.525309 
L 269.537285 -81.02886 
L 268.139289 -79.632692 
L 266.741293 -79.541911 
L 265.343298 -76.779856 
L 263.945302 -75.090984 
L 262.547306 -67.118922 
L 261.149311 -64.972774 
L 259.751315 -63.065187 
L 258.353319 -62.042302 
L 256.955323 -62.591271 
L 255.557328 -62.957854 
L 254.159332 -62.964238 
L 252.761336 -59.704598 
L 251.363341 -57.85564 
L 249.965345 -57.544062 
L 248.567349 -56.453599 
L 247.169354 -57.356987 
L 245.771358 -56.440519 
L 244.373362 -56.521449 
L 242.975366 -54.536219 
L 241.577371 -55.44821 
L 240.179375 -54.312951 
L 238.781379 -54.624319 
L 237.383384 -54.434214 
L 235.985388 -54.459973 
L 234.587392 -50.434064 
L 233.189396 -50.731802 
L 231.791401 -51.113242 
L 230.393405 -50.681828 
L 228.995409 -50.787568 
L 227.597414 -51.072235 
L 226.199418 -49.544608 
L 224.801422 -49.654323 
L 223.403427 -49.701775 
L 222.005431 -49.613598 
L 220.607435 -48.464207 
L 219.209439 -48.713187 
L 217.811444 -48.499505 
L 216.413448 -49.586358 
L 215.015452 -51.243164 
L 213.617457 -50.710632 
L 212.219461 -48.800556 
L 210.821465 -48.820749 
L 209.423469 -48.446726 
L 208.025474 -48.846903 
L 206.627478 -48.663291 
L 205.229482 -49.262354 
L 203.831487 -47.627316 
L 202.433491 -47.287505 
L 201.035495 -47.642845 
L 199.6375 -51.000337 
L 198.239504 -50.064851 
L 196.841508 -49.911353 
L 195.443512 -51.060088 
L 194.045517 -51.203219 
L 192.647521 -51.283856 
L 191.249525 -56.753274 
L 189.85153 -58.291958 
L 188.453534 -58.129425 
L 187.055538 -57.9572 
L 185.657543 -58.250579 
L 184.259547 -58.287498 
L 182.861551 -60.080672 
L 181.463555 -59.920956 
L 180.06556 -59.999216 
L 178.667564 -59.809397 
L 177.269568 -62.149954 
L 175.871573 -60.815266 
L 174.473577 -62.088783 
L 173.075581 -62.581091 
L 171.677585 -62.601072 
L 170.27959 -62.796837 
L 168.881594 -65.480186 
L 167.483598 -66.17073 
L 166.085603 -64.313335 
L 164.687607 -64.310298 
L 163.289611 -66.364448 
L 161.891616 -66.312332 
L 160.49362 -67.137704 
L 159.095624 -66.090694 
L 157.697628 -66.924902 
L 156.299633 -65.93633 
L 154.901637 -66.453889 
L 153.503641 -67.298054 
L 152.105646 -67.125035 
L 150.70765 -67.346097 
L 149.309654 -64.486495 
L 147.911658 -66.143214 
L 146.513663 -66.375187 
L 145.115667 -65.86241 
L 143.717671 -65.603507 
L 142.319676 -66.46873 
L 140.92168 -67.187233 
L 139.523684 -67.657461 
L 138.125689 -68.385045 
L 136.727693 -68.159325 
L 135.329697 -69.308057 
L 133.931701 -74.036037 
L 132.533706 -71.133577 
L 131.13571 -73.706443 
L 129.737714 -73.009742 
L 128.339719 -72.672918 
L 126.941723 -72.669277 
L 125.543727 -71.560981 
L 124.145731 -70.712573 
L 122.747736 -71.472967 
L 121.34974 -71.21193 
L 119.951744 -70.351509 
L 118.553749 -69.995965 
L 117.155753 -68.908744 
L 115.757757 -69.375749 
L 114.359762 -70.454574 
L 112.961766 -78.486402 
L 111.56377 -81.280677 
L 110.165774 -78.118784 
L 108.767779 -81.922122 
L 107.369783 -83.781595 
L 105.971787 -92.317638 
L 104.573792 -91.502181 
L 103.175796 -90.421423 
L 101.7778 -89.869149 
L 100.379804 -91.102269 
L 98.981809 -88.792089 
L 97.583813 -96.454486 
L 96.185817 -101.708159 
L 94.787822 -102.806128 
L 93.389826 -96.217187 
L 91.99183 -97.203095 
L 90.593835 -105.941938 
L 89.195839 -105.954146 
L 87.797843 -107.239997 
L 86.399847 -107.942021 
L 85.001852 -111.914413 
L 83.603856 -116.087601 
L 82.20586 -125.174521 
L 80.807865 -132.2093 
L 79.409869 -145.207124 
L 78.011873 -141.87154 
L 76.613878 -143.487606 
L 75.215882 -146.100333 
L 73.817886 -144.343534 
L 72.41989 -140.966154 
L 71.021895 -153.828152 
L 69.623899 -156.745993 
L 68.225903 -162.848884 
L 66.827908 -169.609456 
L 65.429912 -167.135061 
L 64.031916 -175.825099 
L 62.63392 -177.510321 
z
" style="stroke: #134a8e; stroke-opacity: 0.5; stroke-width: 0.5"/>
    </defs>
    <g clip-path="url(#p3440052f1a)">
     <use xlink:href="#m9b2b260b7f" x="0" y="198.611875" style="fill: #134a8e; fill-opacity: 0.5; stroke: #134a8e; stroke-opacity: 0.5; stroke-width: 0.5"/>
    </g>
   </g>
   <g id="line2d_27">
    <path d="M 62.63392 14.330777 
L 64.031916 17.063237 
L 65.429912 25.767009 
L 66.827908 23.404518 
L 68.225903 29.122138 
L 69.623899 36.081855 
L 71.021895 39.004348 
L 72.41989 52.297324 
L 73.817886 49.2008 
L 75.215882 46.960519 
L 76.613878 49.708832 
L 78.011873 51.311391 
L 79.409869 48.543553 
L 80.807865 61.079852 
L 82.20586 68.803246 
L 83.603856 77.664536 
L 86.399847 85.994504 
L 87.797843 86.883372 
L 89.195839 88.37926 
L 90.593835 87.816819 
L 91.99183 97.655391 
L 93.389826 97.942293 
L 94.787822 91.541853 
L 96.185817 92.570911 
L 97.583813 97.838521 
L 98.981809 105.95427 
L 100.379804 103.261319 
L 101.7778 104.652696 
L 103.175796 103.86918 
L 104.573792 103.338955 
L 105.971787 102.121297 
L 107.369783 111.205904 
L 108.767779 113.369714 
L 110.165774 117.702822 
L 111.56377 114.765211 
L 112.961766 117.380445 
L 114.359762 125.448147 
L 115.757757 126.800777 
L 117.155753 127.110242 
L 118.553749 126.16436 
L 119.951744 125.795249 
L 121.34974 125.1254 
L 122.747736 124.74824 
L 124.145731 125.342677 
L 126.941723 123.054415 
L 128.339719 123.032615 
L 129.737714 122.890393 
L 131.13571 122.355493 
L 132.533706 125.066217 
L 133.931701 121.871168 
L 135.329697 126.993854 
L 136.727693 127.946852 
L 138.125689 127.854534 
L 139.523684 128.640334 
L 140.92168 129.002651 
L 142.319676 129.83481 
L 143.717671 130.44543 
L 145.115667 130.510058 
L 146.513663 130.068164 
L 147.911658 130.092882 
L 149.309654 131.649476 
L 150.70765 128.997413 
L 152.105646 129.106124 
L 153.503641 129.098499 
L 156.299633 130.596623 
L 157.697628 129.253181 
L 159.095624 130.257798 
L 160.49362 128.818301 
L 161.891616 129.970186 
L 163.289611 129.889501 
L 164.687607 132.118505 
L 166.085603 132.05334 
L 167.483598 130.273067 
L 168.881594 130.859313 
L 170.27959 133.590507 
L 171.677585 133.606715 
L 174.473577 134.294596 
L 175.871573 135.996194 
L 177.269568 134.386829 
L 178.667564 136.498489 
L 180.06556 136.398821 
L 181.463555 136.743881 
L 182.861551 136.596542 
L 184.259547 138.369815 
L 185.657543 138.236923 
L 187.055538 138.563719 
L 188.453534 138.413584 
L 189.85153 138.056033 
L 191.249525 139.670976 
L 192.647521 145.799135 
L 195.443512 146.119527 
L 196.841508 147.092008 
L 198.239504 147.101532 
L 199.6375 145.955436 
L 201.035495 149.52214 
L 202.433491 149.575106 
L 203.831487 149.502182 
L 205.229482 147.90428 
L 206.627478 148.367012 
L 208.025474 148.223319 
L 209.423469 148.489928 
L 210.821465 148.186867 
L 212.219461 148.262954 
L 213.617457 146.307849 
L 215.015452 145.848554 
L 216.413448 147.45584 
L 217.811444 148.581354 
L 219.209439 148.342148 
L 220.607435 148.542848 
L 222.005431 147.411145 
L 223.403427 147.305297 
L 224.801422 147.511203 
L 226.199418 147.523385 
L 227.597414 146.028559 
L 230.393405 146.376121 
L 231.791401 146.022464 
L 233.189396 146.368121 
L 234.587392 146.500867 
L 235.985388 142.380475 
L 240.179375 142.287206 
L 241.577371 141.619689 
L 242.975366 142.305229 
L 244.373362 140.255528 
L 245.771358 140.439654 
L 247.169354 139.449257 
L 248.567349 140.183718 
L 249.965345 139.191869 
L 251.363341 138.940922 
L 252.761336 137.185616 
L 254.159332 133.644806 
L 255.557328 133.632585 
L 256.955323 133.88452 
L 258.353319 133.876459 
L 259.751315 133.396285 
L 261.149311 131.02586 
L 262.547306 129.116145 
L 263.945302 120.243338 
L 265.343298 118.58017 
L 266.741293 115.955423 
L 268.139289 115.153024 
L 269.537285 114.546239 
L 270.935281 113.726169 
L 272.333276 114.354203 
L 273.731272 114.384861 
L 275.129268 113.989973 
L 276.527263 111.251871 
L 277.925259 110.47078 
L 279.323255 112.106442 
L 280.72125 111.353201 
L 282.119246 112.121287 
L 283.517242 113.175655 
L 284.915238 113.105203 
L 287.711229 112.538714 
L 289.109225 112.671784 
L 290.50722 109.475292 
L 291.905216 109.492676 
L 293.303212 108.513769 
L 294.701207 108.519859 
L 297.497199 109.238118 
L 298.895195 108.359673 
L 300.29319 107.629915 
L 301.691186 107.451904 
L 303.089182 106.560329 
L 304.487177 105.915249 
L 305.885173 104.283404 
L 307.283169 103.33343 
L 308.681165 105.984885 
L 310.07916 105.590484 
L 311.477156 103.644189 
L 312.875152 104.041676 
L 317.069139 103.515236 
L 318.467134 102.355057 
L 319.86513 102.961777 
L 321.263126 101.639372 
L 325.457113 101.222041 
L 326.855109 101.896733 
L 328.253104 100.509433 
L 329.6511 101.22073 
L 331.049096 100.706424 
L 332.447092 99.728956 
L 333.845087 100.43174 
L 335.243083 98.766748 
L 336.641079 99.668109 
L 338.039074 98.663058 
L 339.43707 101.709325 
L 340.835066 103.358021 
L 342.233061 105.804124 
L 343.631057 105.645194 
L 345.029053 103.7095 
L 346.427049 103.426686 
L 347.825044 103.998914 
L 349.22304 105.203938 
L 350.621036 105.836565 
L 352.019031 105.377728 
L 353.417027 108.840211 
L 354.815023 112.792782 
L 356.213019 112.741737 
L 357.611014 115.896712 
L 359.00901 114.864846 
L 360.407006 117.315392 
L 361.805001 121.597134 
L 363.202997 129.145246 
L 364.600993 129.920184 
L 365.998988 130.086463 
L 367.396984 133.13276 
L 368.79498 133.037449 
L 370.192976 135.760815 
L 371.590971 135.899728 
L 372.988967 138.719744 
L 374.386963 143.431708 
L 375.784958 143.676294 
L 377.182954 145.252088 
L 378.58095 146.435957 
L 379.978946 146.800736 
L 381.376941 149.225262 
L 382.774937 150.347771 
L 384.172933 150.173389 
L 385.570928 150.361137 
L 388.36692 150.266879 
L 389.764915 153.02133 
L 391.162911 153.022687 
L 392.560907 152.723069 
L 393.958903 153.348567 
L 395.356898 153.039819 
L 398.15289 153.141508 
L 399.550885 156.261573 
L 402.346877 156.218034 
L 403.744872 156.566048 
L 405.142868 156.49863 
L 406.540864 156.715329 
L 407.93886 156.436813 
L 409.336855 156.493178 
L 410.734851 156.353021 
L 412.132847 156.669129 
L 414.928838 156.690418 
L 417.72483 156.333353 
L 417.72483 156.333353 
" clip-path="url(#p3440052f1a)" style="fill: none; stroke: #134a8e; stroke-width: 3; stroke-linecap: square"/>
    <defs>
     <path id="mbd347bfc20" d="M 0 1.5 
C 0.397805 1.5 0.77937 1.341951 1.06066 1.06066 
C 1.341951 0.77937 1.5 0.397805 1.5 0 
C 1.5 -0.397805 1.341951 -0.77937 1.06066 -1.06066 
C 0.77937 -1.341951 0.397805 -1.5 0 -1.5 
C -0.397805 -1.5 -0.77937 -1.341951 -1.06066 -1.06066 
C -1.341951 -0.77937 -1.5 -0.397805 -1.5 0 
C -1.5 0.397805 -1.341951 0.77937 -1.06066 1.06066 
C -0.77937 1.341951 -0.397805 1.5 0 1.5 
z
" style="stroke: #134a8e"/>
    </defs>
    <g clip-path="url(#p3440052f1a)">
     <use xlink:href="#mbd347bfc20" x="62.63392" y="14.330777" style="fill: #134a8e; stroke: #134a8e"/>
     <use xlink:href="#mbd347bfc20" x="64.031916" y="17.063237" style="fill: #134a8e; stroke: #134a8e"/>
     <use xlink:href="#mbd347bfc20" x="65.429912" y="25.767009" style="fill: #134a8e; stroke: #134a8e"/>
     <use xlink:href="#mbd347bfc20" x="66.827908" y="23.404518" style="fill: #134a8e; stroke: #134a8e"/>
     <use xlink:href="#mbd347bfc20" x="68.225903" y="29.122138" style="fill: #134a8e; stroke: #134a8e"/>
     <use xlink:href="#mbd347bfc20" x="69.623899" y="36.081855" style="fill: #134a8e; stroke: #134a8e"/>
     <use xlink:href="#mbd347bfc20" x="71.021895" y="39.004348" style="fill: #134a8e; stroke: #134a8e"/>
     <use xlink:href="#mbd347bfc20" x="72.41989" y="52.297324" style="fill: #134a8e; stroke: #134a8e"/>
     <use xlink:href="#mbd347bfc20" x="73.817886" y="49.2008" style="fill: #134a8e; stroke: #134a8e"/>
     <use xlink:href="#mbd347bfc20" x="75.215882" y="46.960519" style="fill: #134a8e; stroke: #134a8e"/>
     <use xlink:href="#mbd347bfc20" x="76.613878" y="49.708832" style="fill: #134a8e; stroke: #134a8e"/>
     <use xlink:href="#mbd347bfc20" x="78.011873" y="51.311391" style="fill: #134a8e; stroke: #134a8e"/>
     <use xlink:href="#mbd347bfc20" x="79.409869" y="48.543553" style="fill: #134a8e; stroke: #134a8e"/>
     <use xlink:href="#mbd347bfc20" x="80.807865" y="61.079852" style="fill: #134a8e; stroke: #134a8e"/>
     <use xlink:href="#mbd347bfc20" x="82.20586" y="68.803246" style="fill: #134a8e; stroke: #134a8e"/>
     <use xlink:href="#mbd347bfc20" x="83.603856" y="77.664536" style="fill: #134a8e; stroke: #134a8e"/>
     <use xlink:href="#mbd347bfc20" x="85.001852" y="81.777573" style="fill: #134a8e; stroke: #134a8e"/>
     <use xlink:href="#mbd347bfc20" x="86.399847" y="85.994504" style="fill: #134a8e; stroke: #134a8e"/>
     <use xlink:href="#mbd347bfc20" x="87.797843" y="86.883372" style="fill: #134a8e; stroke: #134a8e"/>
     <use xlink:href="#mbd347bfc20" x="89.195839" y="88.37926" style="fill: #134a8e; stroke: #134a8e"/>
     <use xlink:href="#mbd347bfc20" x="90.593835" y="87.816819" style="fill: #134a8e; stroke: #134a8e"/>
     <use xlink:href="#mbd347bfc20" x="91.99183" y="97.655391" style="fill: #134a8e; stroke: #134a8e"/>
     <use xlink:href="#mbd347bfc20" x="93.389826" y="97.942293" style="fill: #134a8e; stroke: #134a8e"/>
     <use xlink:href="#mbd347bfc20" x="94.787822" y="91.541853" style="fill: #134a8e; stroke: #134a8e"/>
     <use xlink:href="#mbd347bfc20" x="96.185817" y="92.570911" style="fill: #134a8e; stroke: #134a8e"/>
     <use xlink:href="#mbd347bfc20" x="97.583813" y="97.838521" style="fill: #134a8e; stroke: #134a8e"/>
     <use xlink:href="#mbd347bfc20" x="98.981809" y="105.95427" style="fill: #134a8e; stroke: #134a8e"/>
     <use xlink:href="#mbd347bfc20" x="100.379804" y="103.261319" style="fill: #134a8e; stroke: #134a8e"/>
     <use xlink:href="#mbd347bfc20" x="101.7778" y="104.652696" style="fill: #134a8e; stroke: #134a8e"/>
     <use xlink:href="#mbd347bfc20" x="103.175796" y="103.86918" style="fill: #134a8e; stroke: #134a8e"/>
     <use xlink:href="#mbd347bfc20" x="104.573792" y="103.338955" style="fill: #134a8e; stroke: #134a8e"/>
     <use xlink:href="#mbd347bfc20" x="105.971787" y="102.121297" style="fill: #134a8e; stroke: #134a8e"/>
     <use xlink:href="#mbd347bfc20" x="107.369783" y="111.205904" style="fill: #134a8e; stroke: #134a8e"/>
     <use xlink:href="#mbd347bfc20" x="108.767779" y="113.369714" style="fill: #134a8e; stroke: #134a8e"/>
     <use xlink:href="#mbd347bfc20" x="110.165774" y="117.702822" style="fill: #134a8e; stroke: #134a8e"/>
     <use xlink:href="#mbd347bfc20" x="111.56377" y="114.765211" style="fill: #134a8e; stroke: #134a8e"/>
     <use xlink:href="#mbd347bfc20" x="112.961766" y="117.380445" style="fill: #134a8e; stroke: #134a8e"/>
     <use xlink:href="#mbd347bfc20" x="114.359762" y="125.448147" style="fill: #134a8e; stroke: #134a8e"/>
     <use xlink:href="#mbd347bfc20" x="115.757757" y="126.800777" style="fill: #134a8e; stroke: #134a8e"/>
     <use xlink:href="#mbd347bfc20" x="117.155753" y="127.110242" style="fill: #134a8e; stroke: #134a8e"/>
     <use xlink:href="#mbd347bfc20" x="118.553749" y="126.16436" style="fill: #134a8e; stroke: #134a8e"/>
     <use xlink:href="#mbd347bfc20" x="119.951744" y="125.795249" style="fill: #134a8e; stroke: #134a8e"/>
     <use xlink:href="#mbd347bfc20" x="121.34974" y="125.1254" style="fill: #134a8e; stroke: #134a8e"/>
     <use xlink:href="#mbd347bfc20" x="122.747736" y="124.74824" style="fill: #134a8e; stroke: #134a8e"/>
     <use xlink:href="#mbd347bfc20" x="124.145731" y="125.342677" style="fill: #134a8e; stroke: #134a8e"/>
     <use xlink:href="#mbd347bfc20" x="125.543727" y="124.237725" style="fill: #134a8e; stroke: #134a8e"/>
     <use xlink:href="#mbd347bfc20" x="126.941723" y="123.054415" style="fill: #134a8e; stroke: #134a8e"/>
     <use xlink:href="#mbd347bfc20" x="128.339719" y="123.032615" style="fill: #134a8e; stroke: #134a8e"/>
     <use xlink:href="#mbd347bfc20" x="129.737714" y="122.890393" style="fill: #134a8e; stroke: #134a8e"/>
     <use xlink:href="#mbd347bfc20" x="131.13571" y="122.355493" style="fill: #134a8e; stroke: #134a8e"/>
     <use xlink:href="#mbd347bfc20" x="132.533706" y="125.066217" style="fill: #134a8e; stroke: #134a8e"/>
     <use xlink:href="#mbd347bfc20" x="133.931701" y="121.871168" style="fill: #134a8e; stroke: #134a8e"/>
     <use xlink:href="#mbd347bfc20" x="135.329697" y="126.993854" style="fill: #134a8e; stroke: #134a8e"/>
     <use xlink:href="#mbd347bfc20" x="136.727693" y="127.946852" style="fill: #134a8e; stroke: #134a8e"/>
     <use xlink:href="#mbd347bfc20" x="138.125689" y="127.854534" style="fill: #134a8e; stroke: #134a8e"/>
     <use xlink:href="#mbd347bfc20" x="139.523684" y="128.640334" style="fill: #134a8e; stroke: #134a8e"/>
     <use xlink:href="#mbd347bfc20" x="140.92168" y="129.002651" style="fill: #134a8e; stroke: #134a8e"/>
     <use xlink:href="#mbd347bfc20" x="142.319676" y="129.83481" style="fill: #134a8e; stroke: #134a8e"/>
     <use xlink:href="#mbd347bfc20" x="143.717671" y="130.44543" style="fill: #134a8e; stroke: #134a8e"/>
     <use xlink:href="#mbd347bfc20" x="145.115667" y="130.510058" style="fill: #134a8e; stroke: #134a8e"/>
     <use xlink:href="#mbd347bfc20" x="146.513663" y="130.068164" style="fill: #134a8e; stroke: #134a8e"/>
     <use xlink:href="#mbd347bfc20" x="147.911658" y="130.092882" style="fill: #134a8e; stroke: #134a8e"/>
     <use xlink:href="#mbd347bfc20" x="149.309654" y="131.649476" style="fill: #134a8e; stroke: #134a8e"/>
     <use xlink:href="#mbd347bfc20" x="150.70765" y="128.997413" style="fill: #134a8e; stroke: #134a8e"/>
     <use xlink:href="#mbd347bfc20" x="152.105646" y="129.106124" style="fill: #134a8e; stroke: #134a8e"/>
     <use xlink:href="#mbd347bfc20" x="153.503641" y="129.098499" style="fill: #134a8e; stroke: #134a8e"/>
     <use xlink:href="#mbd347bfc20" x="154.901637" y="129.813098" style="fill: #134a8e; stroke: #134a8e"/>
     <use xlink:href="#mbd347bfc20" x="156.299633" y="130.596623" style="fill: #134a8e; stroke: #134a8e"/>
     <use xlink:href="#mbd347bfc20" x="157.697628" y="129.253181" style="fill: #134a8e; stroke: #134a8e"/>
     <use xlink:href="#mbd347bfc20" x="159.095624" y="130.257798" style="fill: #134a8e; stroke: #134a8e"/>
     <use xlink:href="#mbd347bfc20" x="160.49362" y="128.818301" style="fill: #134a8e; stroke: #134a8e"/>
     <use xlink:href="#mbd347bfc20" x="161.891616" y="129.970186" style="fill: #134a8e; stroke: #134a8e"/>
     <use xlink:href="#mbd347bfc20" x="163.289611" y="129.889501" style="fill: #134a8e; stroke: #134a8e"/>
     <use xlink:href="#mbd347bfc20" x="164.687607" y="132.118505" style="fill: #134a8e; stroke: #134a8e"/>
     <use xlink:href="#mbd347bfc20" x="166.085603" y="132.05334" style="fill: #134a8e; stroke: #134a8e"/>
     <use xlink:href="#mbd347bfc20" x="167.483598" y="130.273067" style="fill: #134a8e; stroke: #134a8e"/>
     <use xlink:href="#mbd347bfc20" x="168.881594" y="130.859313" style="fill: #134a8e; stroke: #134a8e"/>
     <use xlink:href="#mbd347bfc20" x="170.27959" y="133.590507" style="fill: #134a8e; stroke: #134a8e"/>
     <use xlink:href="#mbd347bfc20" x="171.677585" y="133.606715" style="fill: #134a8e; stroke: #134a8e"/>
     <use xlink:href="#mbd347bfc20" x="173.075581" y="133.906753" style="fill: #134a8e; stroke: #134a8e"/>
     <use xlink:href="#mbd347bfc20" x="174.473577" y="134.294596" style="fill: #134a8e; stroke: #134a8e"/>
     <use xlink:href="#mbd347bfc20" x="175.871573" y="135.996194" style="fill: #134a8e; stroke: #134a8e"/>
     <use xlink:href="#mbd347bfc20" x="177.269568" y="134.386829" style="fill: #134a8e; stroke: #134a8e"/>
     <use xlink:href="#mbd347bfc20" x="178.667564" y="136.498489" style="fill: #134a8e; stroke: #134a8e"/>
     <use xlink:href="#mbd347bfc20" x="180.06556" y="136.398821" style="fill: #134a8e; stroke: #134a8e"/>
     <use xlink:href="#mbd347bfc20" x="181.463555" y="136.743881" style="fill: #134a8e; stroke: #134a8e"/>
     <use xlink:href="#mbd347bfc20" x="182.861551" y="136.596542" style="fill: #134a8e; stroke: #134a8e"/>
     <use xlink:href="#mbd347bfc20" x="184.259547" y="138.369815" style="fill: #134a8e; stroke: #134a8e"/>
     <use xlink:href="#mbd347bfc20" x="185.657543" y="138.236923" style="fill: #134a8e; stroke: #134a8e"/>
     <use xlink:href="#mbd347bfc20" x="187.055538" y="138.563719" style="fill: #134a8e; stroke: #134a8e"/>
     <use xlink:href="#mbd347bfc20" x="188.453534" y="138.413584" style="fill: #134a8e; stroke: #134a8e"/>
     <use xlink:href="#mbd347bfc20" x="189.85153" y="138.056033" style="fill: #134a8e; stroke: #134a8e"/>
     <use xlink:href="#mbd347bfc20" x="191.249525" y="139.670976" style="fill: #134a8e; stroke: #134a8e"/>
     <use xlink:href="#mbd347bfc20" x="192.647521" y="145.799135" style="fill: #134a8e; stroke: #134a8e"/>
     <use xlink:href="#mbd347bfc20" x="194.045517" y="145.946099" style="fill: #134a8e; stroke: #134a8e"/>
     <use xlink:href="#mbd347bfc20" x="195.443512" y="146.119527" style="fill: #134a8e; stroke: #134a8e"/>
     <use xlink:href="#mbd347bfc20" x="196.841508" y="147.092008" style="fill: #134a8e; stroke: #134a8e"/>
     <use xlink:href="#mbd347bfc20" x="198.239504" y="147.101532" style="fill: #134a8e; stroke: #134a8e"/>
     <use xlink:href="#mbd347bfc20" x="199.6375" y="145.955436" style="fill: #134a8e; stroke: #134a8e"/>
     <use xlink:href="#mbd347bfc20" x="201.035495" y="149.52214" style="fill: #134a8e; stroke: #134a8e"/>
     <use xlink:href="#mbd347bfc20" x="202.433491" y="149.575106" style="fill: #134a8e; stroke: #134a8e"/>
     <use xlink:href="#mbd347bfc20" x="203.831487" y="149.502182" style="fill: #134a8e; stroke: #134a8e"/>
     <use xlink:href="#mbd347bfc20" x="205.229482" y="147.90428" style="fill: #134a8e; stroke: #134a8e"/>
     <use xlink:href="#mbd347bfc20" x="206.627478" y="148.367012" style="fill: #134a8e; stroke: #134a8e"/>
     <use xlink:href="#mbd347bfc20" x="208.025474" y="148.223319" style="fill: #134a8e; stroke: #134a8e"/>
     <use xlink:href="#mbd347bfc20" x="209.423469" y="148.489928" style="fill: #134a8e; stroke: #134a8e"/>
     <use xlink:href="#mbd347bfc20" x="210.821465" y="148.186867" style="fill: #134a8e; stroke: #134a8e"/>
     <use xlink:href="#mbd347bfc20" x="212.219461" y="148.262954" style="fill: #134a8e; stroke: #134a8e"/>
     <use xlink:href="#mbd347bfc20" x="213.617457" y="146.307849" style="fill: #134a8e; stroke: #134a8e"/>
     <use xlink:href="#mbd347bfc20" x="215.015452" y="145.848554" style="fill: #134a8e; stroke: #134a8e"/>
     <use xlink:href="#mbd347bfc20" x="216.413448" y="147.45584" style="fill: #134a8e; stroke: #134a8e"/>
     <use xlink:href="#mbd347bfc20" x="217.811444" y="148.581354" style="fill: #134a8e; stroke: #134a8e"/>
     <use xlink:href="#mbd347bfc20" x="219.209439" y="148.342148" style="fill: #134a8e; stroke: #134a8e"/>
     <use xlink:href="#mbd347bfc20" x="220.607435" y="148.542848" style="fill: #134a8e; stroke: #134a8e"/>
     <use xlink:href="#mbd347bfc20" x="222.005431" y="147.411145" style="fill: #134a8e; stroke: #134a8e"/>
     <use xlink:href="#mbd347bfc20" x="223.403427" y="147.305297" style="fill: #134a8e; stroke: #134a8e"/>
     <use xlink:href="#mbd347bfc20" x="224.801422" y="147.511203" style="fill: #134a8e; stroke: #134a8e"/>
     <use xlink:href="#mbd347bfc20" x="226.199418" y="147.523385" style="fill: #134a8e; stroke: #134a8e"/>
     <use xlink:href="#mbd347bfc20" x="227.597414" y="146.028559" style="fill: #134a8e; stroke: #134a8e"/>
     <use xlink:href="#mbd347bfc20" x="228.995409" y="146.212851" style="fill: #134a8e; stroke: #134a8e"/>
     <use xlink:href="#mbd347bfc20" x="230.393405" y="146.376121" style="fill: #134a8e; stroke: #134a8e"/>
     <use xlink:href="#mbd347bfc20" x="231.791401" y="146.022464" style="fill: #134a8e; stroke: #134a8e"/>
     <use xlink:href="#mbd347bfc20" x="233.189396" y="146.368121" style="fill: #134a8e; stroke: #134a8e"/>
     <use xlink:href="#mbd347bfc20" x="234.587392" y="146.500867" style="fill: #134a8e; stroke: #134a8e"/>
     <use xlink:href="#mbd347bfc20" x="235.985388" y="142.380475" style="fill: #134a8e; stroke: #134a8e"/>
     <use xlink:href="#mbd347bfc20" x="237.383384" y="142.36839" style="fill: #134a8e; stroke: #134a8e"/>
     <use xlink:href="#mbd347bfc20" x="238.781379" y="142.327901" style="fill: #134a8e; stroke: #134a8e"/>
     <use xlink:href="#mbd347bfc20" x="240.179375" y="142.287206" style="fill: #134a8e; stroke: #134a8e"/>
     <use xlink:href="#mbd347bfc20" x="241.577371" y="141.619689" style="fill: #134a8e; stroke: #134a8e"/>
     <use xlink:href="#mbd347bfc20" x="242.975366" y="142.305229" style="fill: #134a8e; stroke: #134a8e"/>
     <use xlink:href="#mbd347bfc20" x="244.373362" y="140.255528" style="fill: #134a8e; stroke: #134a8e"/>
     <use xlink:href="#mbd347bfc20" x="245.771358" y="140.439654" style="fill: #134a8e; stroke: #134a8e"/>
     <use xlink:href="#mbd347bfc20" x="247.169354" y="139.449257" style="fill: #134a8e; stroke: #134a8e"/>
     <use xlink:href="#mbd347bfc20" x="248.567349" y="140.183718" style="fill: #134a8e; stroke: #134a8e"/>
     <use xlink:href="#mbd347bfc20" x="249.965345" y="139.191869" style="fill: #134a8e; stroke: #134a8e"/>
     <use xlink:href="#mbd347bfc20" x="251.363341" y="138.940922" style="fill: #134a8e; stroke: #134a8e"/>
     <use xlink:href="#mbd347bfc20" x="252.761336" y="137.185616" style="fill: #134a8e; stroke: #134a8e"/>
     <use xlink:href="#mbd347bfc20" x="254.159332" y="133.644806" style="fill: #134a8e; stroke: #134a8e"/>
     <use xlink:href="#mbd347bfc20" x="255.557328" y="133.632585" style="fill: #134a8e; stroke: #134a8e"/>
     <use xlink:href="#mbd347bfc20" x="256.955323" y="133.88452" style="fill: #134a8e; stroke: #134a8e"/>
     <use xlink:href="#mbd347bfc20" x="258.353319" y="133.876459" style="fill: #134a8e; stroke: #134a8e"/>
     <use xlink:href="#mbd347bfc20" x="259.751315" y="133.396285" style="fill: #134a8e; stroke: #134a8e"/>
     <use xlink:href="#mbd347bfc20" x="261.149311" y="131.02586" style="fill: #134a8e; stroke: #134a8e"/>
     <use xlink:href="#mbd347bfc20" x="262.547306" y="129.116145" style="fill: #134a8e; stroke: #134a8e"/>
     <use xlink:href="#mbd347bfc20" x="263.945302" y="120.243338" style="fill: #134a8e; stroke: #134a8e"/>
     <use xlink:href="#mbd347bfc20" x="265.343298" y="118.58017" style="fill: #134a8e; stroke: #134a8e"/>
     <use xlink:href="#mbd347bfc20" x="266.741293" y="115.955423" style="fill: #134a8e; stroke: #134a8e"/>
     <use xlink:href="#mbd347bfc20" x="268.139289" y="115.153024" style="fill: #134a8e; stroke: #134a8e"/>
     <use xlink:href="#mbd347bfc20" x="269.537285" y="114.546239" style="fill: #134a8e; stroke: #134a8e"/>
     <use xlink:href="#mbd347bfc20" x="270.935281" y="113.726169" style="fill: #134a8e; stroke: #134a8e"/>
     <use xlink:href="#mbd347bfc20" x="272.333276" y="114.354203" style="fill: #134a8e; stroke: #134a8e"/>
     <use xlink:href="#mbd347bfc20" x="273.731272" y="114.384861" style="fill: #134a8e; stroke: #134a8e"/>
     <use xlink:href="#mbd347bfc20" x="275.129268" y="113.989973" style="fill: #134a8e; stroke: #134a8e"/>
     <use xlink:href="#mbd347bfc20" x="276.527263" y="111.251871" style="fill: #134a8e; stroke: #134a8e"/>
     <use xlink:href="#mbd347bfc20" x="277.925259" y="110.47078" style="fill: #134a8e; stroke: #134a8e"/>
     <use xlink:href="#mbd347bfc20" x="279.323255" y="112.106442" style="fill: #134a8e; stroke: #134a8e"/>
     <use xlink:href="#mbd347bfc20" x="280.72125" y="111.353201" style="fill: #134a8e; stroke: #134a8e"/>
     <use xlink:href="#mbd347bfc20" x="282.119246" y="112.121287" style="fill: #134a8e; stroke: #134a8e"/>
     <use xlink:href="#mbd347bfc20" x="283.517242" y="113.175655" style="fill: #134a8e; stroke: #134a8e"/>
     <use xlink:href="#mbd347bfc20" x="284.915238" y="113.105203" style="fill: #134a8e; stroke: #134a8e"/>
     <use xlink:href="#mbd347bfc20" x="286.313233" y="112.874917" style="fill: #134a8e; stroke: #134a8e"/>
     <use xlink:href="#mbd347bfc20" x="287.711229" y="112.538714" style="fill: #134a8e; stroke: #134a8e"/>
     <use xlink:href="#mbd347bfc20" x="289.109225" y="112.671784" style="fill: #134a8e; stroke: #134a8e"/>
     <use xlink:href="#mbd347bfc20" x="290.50722" y="109.475292" style="fill: #134a8e; stroke: #134a8e"/>
     <use xlink:href="#mbd347bfc20" x="291.905216" y="109.492676" style="fill: #134a8e; stroke: #134a8e"/>
     <use xlink:href="#mbd347bfc20" x="293.303212" y="108.513769" style="fill: #134a8e; stroke: #134a8e"/>
     <use xlink:href="#mbd347bfc20" x="294.701207" y="108.519859" style="fill: #134a8e; stroke: #134a8e"/>
     <use xlink:href="#mbd347bfc20" x="296.099203" y="108.922937" style="fill: #134a8e; stroke: #134a8e"/>
     <use xlink:href="#mbd347bfc20" x="297.497199" y="109.238118" style="fill: #134a8e; stroke: #134a8e"/>
     <use xlink:href="#mbd347bfc20" x="298.895195" y="108.359673" style="fill: #134a8e; stroke: #134a8e"/>
     <use xlink:href="#mbd347bfc20" x="300.29319" y="107.629915" style="fill: #134a8e; stroke: #134a8e"/>
     <use xlink:href="#mbd347bfc20" x="301.691186" y="107.451904" style="fill: #134a8e; stroke: #134a8e"/>
     <use xlink:href="#mbd347bfc20" x="303.089182" y="106.560329" style="fill: #134a8e; stroke: #134a8e"/>
     <use xlink:href="#mbd347bfc20" x="304.487177" y="105.915249" style="fill: #134a8e; stroke: #134a8e"/>
     <use xlink:href="#mbd347bfc20" x="305.885173" y="104.283404" style="fill: #134a8e; stroke: #134a8e"/>
     <use xlink:href="#mbd347bfc20" x="307.283169" y="103.33343" style="fill: #134a8e; stroke: #134a8e"/>
     <use xlink:href="#mbd347bfc20" x="308.681165" y="105.984885" style="fill: #134a8e; stroke: #134a8e"/>
     <use xlink:href="#mbd347bfc20" x="310.07916" y="105.590484" style="fill: #134a8e; stroke: #134a8e"/>
     <use xlink:href="#mbd347bfc20" x="311.477156" y="103.644189" style="fill: #134a8e; stroke: #134a8e"/>
     <use xlink:href="#mbd347bfc20" x="312.875152" y="104.041676" style="fill: #134a8e; stroke: #134a8e"/>
     <use xlink:href="#mbd347bfc20" x="314.273147" y="103.87449" style="fill: #134a8e; stroke: #134a8e"/>
     <use xlink:href="#mbd347bfc20" x="315.671143" y="103.752355" style="fill: #134a8e; stroke: #134a8e"/>
     <use xlink:href="#mbd347bfc20" x="317.069139" y="103.515236" style="fill: #134a8e; stroke: #134a8e"/>
     <use xlink:href="#mbd347bfc20" x="318.467134" y="102.355057" style="fill: #134a8e; stroke: #134a8e"/>
     <use xlink:href="#mbd347bfc20" x="319.86513" y="102.961777" style="fill: #134a8e; stroke: #134a8e"/>
     <use xlink:href="#mbd347bfc20" x="321.263126" y="101.639372" style="fill: #134a8e; stroke: #134a8e"/>
     <use xlink:href="#mbd347bfc20" x="322.661122" y="101.485527" style="fill: #134a8e; stroke: #134a8e"/>
     <use xlink:href="#mbd347bfc20" x="324.059117" y="101.330281" style="fill: #134a8e; stroke: #134a8e"/>
     <use xlink:href="#mbd347bfc20" x="325.457113" y="101.222041" style="fill: #134a8e; stroke: #134a8e"/>
     <use xlink:href="#mbd347bfc20" x="326.855109" y="101.896733" style="fill: #134a8e; stroke: #134a8e"/>
     <use xlink:href="#mbd347bfc20" x="328.253104" y="100.509433" style="fill: #134a8e; stroke: #134a8e"/>
     <use xlink:href="#mbd347bfc20" x="329.6511" y="101.22073" style="fill: #134a8e; stroke: #134a8e"/>
     <use xlink:href="#mbd347bfc20" x="331.049096" y="100.706424" style="fill: #134a8e; stroke: #134a8e"/>
     <use xlink:href="#mbd347bfc20" x="332.447092" y="99.728956" style="fill: #134a8e; stroke: #134a8e"/>
     <use xlink:href="#mbd347bfc20" x="333.845087" y="100.43174" style="fill: #134a8e; stroke: #134a8e"/>
     <use xlink:href="#mbd347bfc20" x="335.243083" y="98.766748" style="fill: #134a8e; stroke: #134a8e"/>
     <use xlink:href="#mbd347bfc20" x="336.641079" y="99.668109" style="fill: #134a8e; stroke: #134a8e"/>
     <use xlink:href="#mbd347bfc20" x="338.039074" y="98.663058" style="fill: #134a8e; stroke: #134a8e"/>
     <use xlink:href="#mbd347bfc20" x="339.43707" y="101.709325" style="fill: #134a8e; stroke: #134a8e"/>
     <use xlink:href="#mbd347bfc20" x="340.835066" y="103.358021" style="fill: #134a8e; stroke: #134a8e"/>
     <use xlink:href="#mbd347bfc20" x="342.233061" y="105.804124" style="fill: #134a8e; stroke: #134a8e"/>
     <use xlink:href="#mbd347bfc20" x="343.631057" y="105.645194" style="fill: #134a8e; stroke: #134a8e"/>
     <use xlink:href="#mbd347bfc20" x="345.029053" y="103.7095" style="fill: #134a8e; stroke: #134a8e"/>
     <use xlink:href="#mbd347bfc20" x="346.427049" y="103.426686" style="fill: #134a8e; stroke: #134a8e"/>
     <use xlink:href="#mbd347bfc20" x="347.825044" y="103.998914" style="fill: #134a8e; stroke: #134a8e"/>
     <use xlink:href="#mbd347bfc20" x="349.22304" y="105.203938" style="fill: #134a8e; stroke: #134a8e"/>
     <use xlink:href="#mbd347bfc20" x="350.621036" y="105.836565" style="fill: #134a8e; stroke: #134a8e"/>
     <use xlink:href="#mbd347bfc20" x="352.019031" y="105.377728" style="fill: #134a8e; stroke: #134a8e"/>
     <use xlink:href="#mbd347bfc20" x="353.417027" y="108.840211" style="fill: #134a8e; stroke: #134a8e"/>
     <use xlink:href="#mbd347bfc20" x="354.815023" y="112.792782" style="fill: #134a8e; stroke: #134a8e"/>
     <use xlink:href="#mbd347bfc20" x="356.213019" y="112.741737" style="fill: #134a8e; stroke: #134a8e"/>
     <use xlink:href="#mbd347bfc20" x="357.611014" y="115.896712" style="fill: #134a8e; stroke: #134a8e"/>
     <use xlink:href="#mbd347bfc20" x="359.00901" y="114.864846" style="fill: #134a8e; stroke: #134a8e"/>
     <use xlink:href="#mbd347bfc20" x="360.407006" y="117.315392" style="fill: #134a8e; stroke: #134a8e"/>
     <use xlink:href="#mbd347bfc20" x="361.805001" y="121.597134" style="fill: #134a8e; stroke: #134a8e"/>
     <use xlink:href="#mbd347bfc20" x="363.202997" y="129.145246" style="fill: #134a8e; stroke: #134a8e"/>
     <use xlink:href="#mbd347bfc20" x="364.600993" y="129.920184" style="fill: #134a8e; stroke: #134a8e"/>
     <use xlink:href="#mbd347bfc20" x="365.998988" y="130.086463" style="fill: #134a8e; stroke: #134a8e"/>
     <use xlink:href="#mbd347bfc20" x="367.396984" y="133.13276" style="fill: #134a8e; stroke: #134a8e"/>
     <use xlink:href="#mbd347bfc20" x="368.79498" y="133.037449" style="fill: #134a8e; stroke: #134a8e"/>
     <use xlink:href="#mbd347bfc20" x="370.192976" y="135.760815" style="fill: #134a8e; stroke: #134a8e"/>
     <use xlink:href="#mbd347bfc20" x="371.590971" y="135.899728" style="fill: #134a8e; stroke: #134a8e"/>
     <use xlink:href="#mbd347bfc20" x="372.988967" y="138.719744" style="fill: #134a8e; stroke: #134a8e"/>
     <use xlink:href="#mbd347bfc20" x="374.386963" y="143.431708" style="fill: #134a8e; stroke: #134a8e"/>
     <use xlink:href="#mbd347bfc20" x="375.784958" y="143.676294" style="fill: #134a8e; stroke: #134a8e"/>
     <use xlink:href="#mbd347bfc20" x="377.182954" y="145.252088" style="fill: #134a8e; stroke: #134a8e"/>
     <use xlink:href="#mbd347bfc20" x="378.58095" y="146.435957" style="fill: #134a8e; stroke: #134a8e"/>
     <use xlink:href="#mbd347bfc20" x="379.978946" y="146.800736" style="fill: #134a8e; stroke: #134a8e"/>
     <use xlink:href="#mbd347bfc20" x="381.376941" y="149.225262" style="fill: #134a8e; stroke: #134a8e"/>
     <use xlink:href="#mbd347bfc20" x="382.774937" y="150.347771" style="fill: #134a8e; stroke: #134a8e"/>
     <use xlink:href="#mbd347bfc20" x="384.172933" y="150.173389" style="fill: #134a8e; stroke: #134a8e"/>
     <use xlink:href="#mbd347bfc20" x="385.570928" y="150.361137" style="fill: #134a8e; stroke: #134a8e"/>
     <use xlink:href="#mbd347bfc20" x="386.968924" y="150.335035" style="fill: #134a8e; stroke: #134a8e"/>
     <use xlink:href="#mbd347bfc20" x="388.36692" y="150.266879" style="fill: #134a8e; stroke: #134a8e"/>
     <use xlink:href="#mbd347bfc20" x="389.764915" y="153.02133" style="fill: #134a8e; stroke: #134a8e"/>
     <use xlink:href="#mbd347bfc20" x="391.162911" y="153.022687" style="fill: #134a8e; stroke: #134a8e"/>
     <use xlink:href="#mbd347bfc20" x="392.560907" y="152.723069" style="fill: #134a8e; stroke: #134a8e"/>
     <use xlink:href="#mbd347bfc20" x="393.958903" y="153.348567" style="fill: #134a8e; stroke: #134a8e"/>
     <use xlink:href="#mbd347bfc20" x="395.356898" y="153.039819" style="fill: #134a8e; stroke: #134a8e"/>
     <use xlink:href="#mbd347bfc20" x="396.754894" y="153.044332" style="fill: #134a8e; stroke: #134a8e"/>
     <use xlink:href="#mbd347bfc20" x="398.15289" y="153.141508" style="fill: #134a8e; stroke: #134a8e"/>
     <use xlink:href="#mbd347bfc20" x="399.550885" y="156.261573" style="fill: #134a8e; stroke: #134a8e"/>
     <use xlink:href="#mbd347bfc20" x="400.948881" y="156.222374" style="fill: #134a8e; stroke: #134a8e"/>
     <use xlink:href="#mbd347bfc20" x="402.346877" y="156.218034" style="fill: #134a8e; stroke: #134a8e"/>
     <use xlink:href="#mbd347bfc20" x="403.744872" y="156.566048" style="fill: #134a8e; stroke: #134a8e"/>
     <use xlink:href="#mbd347bfc20" x="405.142868" y="156.49863" style="fill: #134a8e; stroke: #134a8e"/>
     <use xlink:href="#mbd347bfc20" x="406.540864" y="156.715329" style="fill: #134a8e; stroke: #134a8e"/>
     <use xlink:href="#mbd347bfc20" x="407.93886" y="156.436813" style="fill: #134a8e; stroke: #134a8e"/>
     <use xlink:href="#mbd347bfc20" x="409.336855" y="156.493178" style="fill: #134a8e; stroke: #134a8e"/>
     <use xlink:href="#mbd347bfc20" x="410.734851" y="156.353021" style="fill: #134a8e; stroke: #134a8e"/>
     <use xlink:href="#mbd347bfc20" x="412.132847" y="156.669129" style="fill: #134a8e; stroke: #134a8e"/>
     <use xlink:href="#mbd347bfc20" x="413.530842" y="156.660909" style="fill: #134a8e; stroke: #134a8e"/>
     <use xlink:href="#mbd347bfc20" x="414.928838" y="156.690418" style="fill: #134a8e; stroke: #134a8e"/>
     <use xlink:href="#mbd347bfc20" x="416.326834" y="156.471237" style="fill: #134a8e; stroke: #134a8e"/>
     <use xlink:href="#mbd347bfc20" x="417.72483" y="156.333353" style="fill: #134a8e; stroke: #134a8e"/>
    </g>
   </g>
   <g id="line2d_28">
    <path d="M 62.63392 18.29416 
L 64.031916 23.53206 
L 65.429912 28.086916 
L 66.827908 22.322286 
L 68.225903 30.025491 
L 69.623899 39.003467 
L 71.021895 42.701681 
L 72.41989 48.018643 
L 73.817886 50.032822 
L 75.215882 50.09291 
L 76.613878 52.421491 
L 78.011873 54.376165 
L 79.409869 49.584072 
L 80.807865 66.266675 
L 82.20586 71.470408 
L 83.603856 77.801697 
L 85.001852 81.466166 
L 86.399847 90.113701 
L 89.195839 94.853006 
L 90.593835 94.102788 
L 91.99183 101.106465 
L 93.389826 102.254676 
L 94.787822 96.891531 
L 96.185817 99.843748 
L 97.583813 103.83916 
L 98.981809 111.271167 
L 101.7778 105.742304 
L 103.175796 107.903788 
L 104.573792 108.222688 
L 105.971787 109.745064 
L 107.369783 112.670283 
L 108.767779 116.325086 
L 110.165774 120.620094 
L 111.56377 116.493388 
L 112.961766 120.201775 
L 114.359762 128.05844 
L 115.757757 128.149614 
L 117.155753 128.030282 
L 118.553749 126.942543 
L 119.951744 126.089148 
L 121.34974 125.519612 
L 122.747736 126.113741 
L 124.145731 125.996563 
L 125.543727 124.009688 
L 126.941723 123.539751 
L 129.737714 122.969146 
L 131.13571 123.735972 
L 132.533706 125.269513 
L 133.931701 125.879011 
L 135.329697 127.145645 
L 136.727693 128.026122 
L 138.125689 129.61411 
L 139.523684 131.799582 
L 140.92168 132.233639 
L 142.319676 131.784737 
L 143.717671 132.927446 
L 145.115667 133.055344 
L 146.513663 131.555508 
L 147.911658 131.710802 
L 149.309654 136.111524 
L 150.70765 130.500262 
L 152.105646 131.125128 
L 153.503641 131.005127 
L 154.901637 131.060139 
L 156.299633 132.315866 
L 159.095624 132.043138 
L 160.49362 131.708077 
L 161.891616 132.624212 
L 163.289611 132.491449 
L 164.687607 134.396175 
L 166.085603 134.193332 
L 167.483598 134.171594 
L 168.881594 133.322537 
L 170.27959 135.611803 
L 173.075581 136.468233 
L 175.871573 137.863286 
L 177.269568 137.858383 
L 178.667564 139.969824 
L 180.06556 138.845419 
L 181.463555 140.779151 
L 182.861551 141.080587 
L 184.259547 141.167337 
L 185.657543 142.523374 
L 187.055538 142.898487 
L 188.453534 144.37545 
L 189.85153 143.339212 
L 191.249525 145.276774 
L 192.647521 146.939082 
L 195.443512 147.995018 
L 196.841508 148.881846 
L 198.239504 149.326023 
L 199.6375 148.248922 
L 201.035495 149.553584 
L 202.433491 150.213889 
L 203.831487 149.898764 
L 205.229482 149.388569 
L 206.627478 149.467355 
L 208.025474 149.137813 
L 209.423469 149.12431 
L 210.821465 149.53565 
L 212.219461 149.012905 
L 213.617457 148.325929 
L 215.015452 148.079642 
L 216.413448 148.790011 
L 217.811444 148.745639 
L 219.209439 149.325736 
L 220.607435 148.896655 
L 222.005431 148.800808 
L 223.403427 148.976211 
L 226.199418 149.500535 
L 228.995409 148.992334 
L 230.393405 148.432497 
L 233.189396 148.979332 
L 234.587392 148.667509 
L 235.985388 147.360756 
L 237.383384 146.481254 
L 238.781379 146.428853 
L 240.179375 145.849754 
L 241.577371 145.541426 
L 242.975366 145.070111 
L 244.373362 144.393264 
L 245.771358 143.390196 
L 247.169354 142.558505 
L 248.567349 143.019157 
L 249.965345 141.329806 
L 251.363341 139.827868 
L 252.761336 139.08166 
L 254.159332 136.434626 
L 255.557328 135.660082 
L 256.955323 136.637171 
L 258.353319 136.476248 
L 259.751315 133.679438 
L 261.149311 132.308561 
L 262.547306 131.673085 
L 263.945302 127.874332 
L 265.343298 126.642389 
L 266.741293 125.627382 
L 268.139289 124.442289 
L 269.537285 124.505876 
L 270.935281 123.110622 
L 272.333276 122.922967 
L 273.731272 124.554486 
L 275.129268 123.262339 
L 276.527263 118.383319 
L 277.925259 117.180492 
L 279.323255 119.537327 
L 280.72125 118.131039 
L 282.119246 116.445757 
L 283.517242 119.502595 
L 284.915238 118.820726 
L 286.313233 117.026242 
L 287.711229 117.115582 
L 289.109225 115.98725 
L 290.50722 114.686463 
L 291.905216 113.799961 
L 294.701207 114.001284 
L 296.099203 113.603638 
L 297.497199 114.827783 
L 298.895195 111.862825 
L 300.29319 111.922249 
L 301.691186 112.821071 
L 303.089182 111.474908 
L 304.487177 112.365182 
L 305.885173 111.053935 
L 307.283169 111.528079 
L 308.681165 110.973632 
L 310.07916 110.661987 
L 311.477156 108.70427 
L 312.875152 108.945868 
L 314.273147 108.550774 
L 315.671143 108.926354 
L 317.069139 109.893597 
L 318.467134 109.167786 
L 319.86513 107.737627 
L 321.263126 105.386823 
L 322.661122 105.185663 
L 324.059117 104.863478 
L 326.855109 107.321582 
L 328.253104 103.242387 
L 329.6511 104.942597 
L 331.049096 103.165663 
L 332.447092 101.090993 
L 333.845087 102.654148 
L 335.243083 101.082636 
L 336.641079 101.85482 
L 338.039074 101.37237 
L 339.43707 102.135836 
L 340.835066 103.743338 
L 342.233061 105.112755 
L 343.631057 104.136735 
L 345.029053 106.698567 
L 346.427049 106.223569 
L 347.825044 110.057089 
L 349.22304 110.437858 
L 350.621036 112.978861 
L 352.019031 113.610323 
L 353.417027 114.764138 
L 354.815023 118.429064 
L 356.213019 118.704697 
L 357.611014 119.844083 
L 359.00901 120.556824 
L 360.407006 124.204578 
L 361.805001 126.065463 
L 363.202997 129.359915 
L 365.998988 131.647048 
L 367.396984 133.895459 
L 370.192976 139.14744 
L 371.590971 140.483306 
L 372.988967 143.048114 
L 374.386963 143.626888 
L 375.784958 143.764722 
L 377.182954 146.236655 
L 378.58095 147.699557 
L 379.978946 148.537031 
L 381.376941 149.901552 
L 382.774937 150.85786 
L 384.172933 151.553069 
L 385.570928 151.149814 
L 386.968924 152.321494 
L 388.36692 153.136687 
L 391.162911 154.354715 
L 392.560907 154.279433 
L 393.958903 155.14576 
L 395.356898 154.823637 
L 396.754894 155.631165 
L 398.15289 155.917819 
L 399.550885 156.456029 
L 400.948881 156.476409 
L 402.346877 156.69246 
L 405.142868 156.782067 
L 406.540864 157.356438 
L 407.93886 157.251734 
L 410.734851 157.375912 
L 412.132847 157.667965 
L 413.530842 157.366115 
L 414.928838 158.76 
L 416.326834 156.884686 
L 417.72483 156.93906 
L 417.72483 156.93906 
" clip-path="url(#p3440052f1a)" style="fill: none; stroke-dasharray: 5.55,2.4; stroke-dashoffset: 0; stroke: #000000; stroke-width: 1.5"/>
   </g>
   <g id="patch_3">
    <path d="M 44.879375 166.32 
L 44.879375 0 
" style="fill: none; stroke: #ffffff; stroke-linejoin: miter; stroke-linecap: square"/>
   </g>
   <g id="patch_4">
    <path d="M 435.479375 166.32 
L 435.479375 0 
" style="fill: none; stroke: #ffffff; stroke-linejoin: miter; stroke-linecap: square"/>
   </g>
   <g id="patch_5">
    <path d="M 44.879375 166.32 
L 435.479375 166.32 
" style="fill: none; stroke: #ffffff; stroke-linejoin: miter; stroke-linecap: square"/>
   </g>
   <g id="patch_6">
    <path d="M 44.879375 -0 
L 435.479375 -0 
" style="fill: none; stroke: #ffffff; stroke-linejoin: miter; stroke-linecap: square"/>
   </g>
   <g id="legend_1">
    <g id="patch_7">
     <path d="M 276.4325 60.378125 
L 428.479375 60.378125 
Q 430.479375 60.378125 430.479375 58.378125 
L 430.479375 7 
Q 430.479375 5 428.479375 5 
L 276.4325 5 
Q 274.4325 5 274.4325 7 
L 274.4325 58.378125 
Q 274.4325 60.378125 276.4325 60.378125 
z
" style="fill: #e5e5e5; opacity: 0.8; stroke: #cccccc; stroke-width: 0.5; stroke-linejoin: miter"/>
    </g>
    <g id="line2d_29">
     <path d="M 278.4325 15.5 
L 288.4325 15.5 
L 298.4325 15.5 
" style="fill: none; stroke: #134a8e; stroke-width: 3; stroke-linecap: square"/>
     <g>
      <use xlink:href="#mbd347bfc20" x="288.4325" y="15.5" style="fill: #134a8e; stroke: #134a8e"/>
     </g>
    </g>
    <g id="text_16">
     <!-- Private Value $\tilde{R}_{\chi_1,\chi_2}^t$ -->
     <g transform="translate(306.4325 19) scale(0.1 -0.1)">
      <defs>
       <path id="DejaVuSans-50" d="M 1259 4147 
L 1259 2394 
L 2053 2394 
Q 2494 2394 2734 2622 
Q 2975 2850 2975 3272 
Q 2975 3691 2734 3919 
Q 2494 4147 2053 4147 
L 1259 4147 
z
M 628 4666 
L 2053 4666 
Q 2838 4666 3239 4311 
Q 3641 3956 3641 3272 
Q 3641 2581 3239 2228 
Q 2838 1875 2053 1875 
L 1259 1875 
L 1259 0 
L 628 0 
L 628 4666 
z
" transform="scale(0.015625)"/>
       <path id="DejaVuSans-72" d="M 2631 2963 
Q 2534 3019 2420 3045 
Q 2306 3072 2169 3072 
Q 1681 3072 1420 2755 
Q 1159 2438 1159 1844 
L 1159 0 
L 581 0 
L 581 3500 
L 1159 3500 
L 1159 2956 
Q 1341 3275 1631 3429 
Q 1922 3584 2338 3584 
Q 2397 3584 2469 3576 
Q 2541 3569 2628 3553 
L 2631 2963 
z
" transform="scale(0.015625)"/>
       <path id="DejaVuSans-69" d="M 603 3500 
L 1178 3500 
L 1178 0 
L 603 0 
L 603 3500 
z
M 603 4863 
L 1178 4863 
L 1178 4134 
L 603 4134 
L 603 4863 
z
" transform="scale(0.015625)"/>
       <path id="DejaVuSans-76" d="M 191 3500 
L 800 3500 
L 1894 563 
L 2988 3500 
L 3597 3500 
L 2284 0 
L 1503 0 
L 191 3500 
z
" transform="scale(0.015625)"/>
       <path id="DejaVuSans-20" transform="scale(0.015625)"/>
       <path id="DejaVuSans-303" d="M -1621 4281 
L -1799 4453 
Q -1867 4516 -1919 4545 
Q -1971 4575 -2011 4575 
Q -2130 4575 -2186 4461 
Q -2242 4347 -2249 4091 
L -2639 4091 
Q -2633 4513 -2473 4742 
Q -2314 4972 -2030 4972 
Q -1911 4972 -1811 4928 
Q -1711 4884 -1596 4781 
L -1417 4609 
Q -1349 4547 -1297 4517 
Q -1246 4488 -1205 4488 
Q -1086 4488 -1030 4602 
Q -974 4716 -967 4972 
L -577 4972 
Q -583 4550 -742 4320 
Q -902 4091 -1186 4091 
Q -1305 4091 -1405 4134 
Q -1505 4178 -1621 4281 
z
" transform="scale(0.015625)"/>
       <path id="DejaVuSans-Oblique-52" d="M 1613 4147 
L 1294 2491 
L 2106 2491 
Q 2584 2491 2879 2755 
Q 3175 3019 3175 3444 
Q 3175 3784 2976 3965 
Q 2778 4147 2406 4147 
L 1613 4147 
z
M 2772 2241 
Q 2972 2194 3105 2009 
Q 3238 1825 3413 1275 
L 3809 0 
L 3144 0 
L 2778 1197 
Q 2638 1659 2453 1815 
Q 2269 1972 1888 1972 
L 1191 1972 
L 806 0 
L 172 0 
L 1081 4666 
L 2503 4666 
Q 3150 4666 3495 4373 
Q 3841 4081 3841 3531 
Q 3841 3044 3547 2687 
Q 3253 2331 2772 2241 
z
" transform="scale(0.015625)"/>
       <path id="DejaVuSans-Oblique-74" d="M 2706 3500 
L 2619 3053 
L 1472 3053 
L 1100 1153 
Q 1081 1047 1072 975 
Q 1063 903 1063 863 
Q 1063 663 1183 572 
Q 1303 481 1569 481 
L 2150 481 
L 2053 0 
L 1503 0 
Q 991 0 739 200 
Q 488 400 488 806 
Q 488 878 497 964 
Q 506 1050 525 1153 
L 897 3053 
L 409 3053 
L 500 3500 
L 978 3500 
L 1172 4494 
L 1747 4494 
L 1556 3500 
L 2706 3500 
z
" transform="scale(0.015625)"/>
       <path id="DejaVuSans-Oblique-3c7" d="M 1922 -781 
L 1691 416 
L 394 -1334 
L -284 -1334 
L 1553 1141 
L 1269 2613 
Q 1194 3006 713 3006 
L 559 3006 
L 653 3500 
L 872 3494 
Q 1675 3472 1775 2950 
L 2006 1753 
L 3303 3503 
L 3981 3503 
L 2144 1028 
L 2428 -444 
Q 2503 -838 2984 -838 
L 3138 -838 
L 3044 -1331 
L 2825 -1325 
Q 2022 -1303 1922 -781 
z
" transform="scale(0.015625)"/>
       <path id="DejaVuSans-2c" d="M 750 794 
L 1409 794 
L 1409 256 
L 897 -744 
L 494 -744 
L 750 256 
L 750 794 
z
" transform="scale(0.015625)"/>
      </defs>
      <use xlink:href="#DejaVuSans-50" transform="translate(0 0.828125)"/>
      <use xlink:href="#DejaVuSans-72" transform="translate(60.302734 0.828125)"/>
      <use xlink:href="#DejaVuSans-69" transform="translate(101.416016 0.828125)"/>
      <use xlink:href="#DejaVuSans-76" transform="translate(129.199219 0.828125)"/>
      <use xlink:href="#DejaVuSans-61" transform="translate(188.378906 0.828125)"/>
      <use xlink:href="#DejaVuSans-74" transform="translate(249.658203 0.828125)"/>
      <use xlink:href="#DejaVuSans-65" transform="translate(288.867188 0.828125)"/>
      <use xlink:href="#DejaVuSans-20" transform="translate(350.390625 0.828125)"/>
      <use xlink:href="#DejaVuSans-56" transform="translate(382.177734 0.828125)"/>
      <use xlink:href="#DejaVuSans-61" transform="translate(450.585938 0.828125)"/>
      <use xlink:href="#DejaVuSans-6c" transform="translate(511.865234 0.828125)"/>
      <use xlink:href="#DejaVuSans-75" transform="translate(539.648438 0.828125)"/>
      <use xlink:href="#DejaVuSans-65" transform="translate(603.027344 0.828125)"/>
      <use xlink:href="#DejaVuSans-20" transform="translate(664.550781 0.828125)"/>
      <use xlink:href="#DejaVuSans-303" transform="translate(764.942871 22.3125)"/>
      <use xlink:href="#DejaVuSans-Oblique-52" transform="translate(696.337891 0.828125)"/>
      <use xlink:href="#DejaVuSans-Oblique-74" transform="translate(766.777344 39.109375) scale(0.7)"/>
      <use xlink:href="#DejaVuSans-Oblique-3c7" transform="translate(766.777344 -26.515625) scale(0.7)"/>
      <use xlink:href="#DejaVuSans-31" transform="translate(808.203125 -38) scale(0.49)"/>
      <use xlink:href="#DejaVuSans-2c" transform="translate(841.29248 -26.515625) scale(0.7)"/>
      <use xlink:href="#DejaVuSans-Oblique-3c7" transform="translate(877.181152 -26.515625) scale(0.7)"/>
      <use xlink:href="#DejaVuSans-32" transform="translate(918.606934 -38) scale(0.49)"/>
     </g>
    </g>
    <g id="line2d_30">
     <path d="M 278.4325 34 
L 288.4325 34 
L 298.4325 34 
" style="fill: none; stroke-dasharray: 5.55,2.4; stroke-dashoffset: 0; stroke: #000000; stroke-width: 1.5"/>
    </g>
    <g id="text_17">
     <!-- Original Value $\bar{R}_{\chi_1,\chi_2}^t$ -->
     <g transform="translate(306.4325 37.5) scale(0.1 -0.1)">
      <defs>
       <path id="DejaVuSans-4f" d="M 2522 4238 
Q 1834 4238 1429 3725 
Q 1025 3213 1025 2328 
Q 1025 1447 1429 934 
Q 1834 422 2522 422 
Q 3209 422 3611 934 
Q 4013 1447 4013 2328 
Q 4013 3213 3611 3725 
Q 3209 4238 2522 4238 
z
M 2522 4750 
Q 3503 4750 4090 4092 
Q 4678 3434 4678 2328 
Q 4678 1225 4090 567 
Q 3503 -91 2522 -91 
Q 1538 -91 948 565 
Q 359 1222 359 2328 
Q 359 3434 948 4092 
Q 1538 4750 2522 4750 
z
" transform="scale(0.015625)"/>
       <path id="DejaVuSans-67" d="M 2906 1791 
Q 2906 2416 2648 2759 
Q 2391 3103 1925 3103 
Q 1463 3103 1205 2759 
Q 947 2416 947 1791 
Q 947 1169 1205 825 
Q 1463 481 1925 481 
Q 2391 481 2648 825 
Q 2906 1169 2906 1791 
z
M 3481 434 
Q 3481 -459 3084 -895 
Q 2688 -1331 1869 -1331 
Q 1566 -1331 1297 -1286 
Q 1028 -1241 775 -1147 
L 775 -588 
Q 1028 -725 1275 -790 
Q 1522 -856 1778 -856 
Q 2344 -856 2625 -561 
Q 2906 -266 2906 331 
L 2906 616 
Q 2728 306 2450 153 
Q 2172 0 1784 0 
Q 1141 0 747 490 
Q 353 981 353 1791 
Q 353 2603 747 3093 
Q 1141 3584 1784 3584 
Q 2172 3584 2450 3431 
Q 2728 3278 2906 2969 
L 2906 3500 
L 3481 3500 
L 3481 434 
z
" transform="scale(0.015625)"/>
       <path id="DejaVuSans-6e" d="M 3513 2113 
L 3513 0 
L 2938 0 
L 2938 2094 
Q 2938 2591 2744 2837 
Q 2550 3084 2163 3084 
Q 1697 3084 1428 2787 
Q 1159 2491 1159 1978 
L 1159 0 
L 581 0 
L 581 3500 
L 1159 3500 
L 1159 2956 
Q 1366 3272 1645 3428 
Q 1925 3584 2291 3584 
Q 2894 3584 3203 3211 
Q 3513 2838 3513 2113 
z
" transform="scale(0.015625)"/>
       <path id="DejaVuSans-304" d="M -2518 4769 
L -650 4769 
L -650 4306 
L -2518 4306 
L -2518 4769 
z
" transform="scale(0.015625)"/>
      </defs>
      <use xlink:href="#DejaVuSans-4f" transform="translate(0 0.359375)"/>
      <use xlink:href="#DejaVuSans-72" transform="translate(78.710938 0.359375)"/>
      <use xlink:href="#DejaVuSans-69" transform="translate(119.824219 0.359375)"/>
      <use xlink:href="#DejaVuSans-67" transform="translate(147.607422 0.359375)"/>
      <use xlink:href="#DejaVuSans-69" transform="translate(211.083984 0.359375)"/>
      <use xlink:href="#DejaVuSans-6e" transform="translate(238.867188 0.359375)"/>
      <use xlink:href="#DejaVuSans-61" transform="translate(302.246094 0.359375)"/>
      <use xlink:href="#DejaVuSans-6c" transform="translate(363.525391 0.359375)"/>
      <use xlink:href="#DejaVuSans-20" transform="translate(391.308594 0.359375)"/>
      <use xlink:href="#DejaVuSans-56" transform="translate(423.095703 0.359375)"/>
      <use xlink:href="#DejaVuSans-61" transform="translate(491.503906 0.359375)"/>
      <use xlink:href="#DejaVuSans-6c" transform="translate(552.783203 0.359375)"/>
      <use xlink:href="#DejaVuSans-75" transform="translate(580.566406 0.359375)"/>
      <use xlink:href="#DejaVuSans-65" transform="translate(643.945312 0.359375)"/>
      <use xlink:href="#DejaVuSans-20" transform="translate(705.46875 0.359375)"/>
      <use xlink:href="#DejaVuSans-304" transform="translate(804.970215 18.484375)"/>
      <use xlink:href="#DejaVuSans-Oblique-52" transform="translate(737.255859 0.359375)"/>
      <use xlink:href="#DejaVuSans-Oblique-74" transform="translate(807.695312 38.640625) scale(0.7)"/>
      <use xlink:href="#DejaVuSans-Oblique-3c7" transform="translate(807.695312 -26.984375) scale(0.7)"/>
      <use xlink:href="#DejaVuSans-31" transform="translate(849.121094 -38.46875) scale(0.49)"/>
      <use xlink:href="#DejaVuSans-2c" transform="translate(882.210449 -26.984375) scale(0.7)"/>
      <use xlink:href="#DejaVuSans-Oblique-3c7" transform="translate(918.099121 -26.984375) scale(0.7)"/>
      <use xlink:href="#DejaVuSans-32" transform="translate(959.524902 -38.46875) scale(0.49)"/>
     </g>
    </g>
    <g id="patch_8">
     <path d="M 278.4325 54.298437 
L 298.4325 54.298437 
L 298.4325 47.298437 
L 278.4325 47.298437 
z
" style="fill: #134a8e; fill-opacity: 0.5; stroke: #134a8e; stroke-opacity: 0.5; stroke-width: 0.5; stroke-linejoin: miter"/>
    </g>
    <g id="text_18">
     <!-- One Standard Deviation -->
     <g transform="translate(306.4325 54.298437) scale(0.1 -0.1)">
      <defs>
       <path id="DejaVuSans-53" d="M 3425 4513 
L 3425 3897 
Q 3066 4069 2747 4153 
Q 2428 4238 2131 4238 
Q 1616 4238 1336 4038 
Q 1056 3838 1056 3469 
Q 1056 3159 1242 3001 
Q 1428 2844 1947 2747 
L 2328 2669 
Q 3034 2534 3370 2195 
Q 3706 1856 3706 1288 
Q 3706 609 3251 259 
Q 2797 -91 1919 -91 
Q 1588 -91 1214 -16 
Q 841 59 441 206 
L 441 856 
Q 825 641 1194 531 
Q 1563 422 1919 422 
Q 2459 422 2753 634 
Q 3047 847 3047 1241 
Q 3047 1584 2836 1778 
Q 2625 1972 2144 2069 
L 1759 2144 
Q 1053 2284 737 2584 
Q 422 2884 422 3419 
Q 422 4038 858 4394 
Q 1294 4750 2059 4750 
Q 2388 4750 2728 4690 
Q 3069 4631 3425 4513 
z
" transform="scale(0.015625)"/>
       <path id="DejaVuSans-64" d="M 2906 2969 
L 2906 4863 
L 3481 4863 
L 3481 0 
L 2906 0 
L 2906 525 
Q 2725 213 2448 61 
Q 2172 -91 1784 -91 
Q 1150 -91 751 415 
Q 353 922 353 1747 
Q 353 2572 751 3078 
Q 1150 3584 1784 3584 
Q 2172 3584 2448 3432 
Q 2725 3281 2906 2969 
z
M 947 1747 
Q 947 1113 1208 752 
Q 1469 391 1925 391 
Q 2381 391 2643 752 
Q 2906 1113 2906 1747 
Q 2906 2381 2643 2742 
Q 2381 3103 1925 3103 
Q 1469 3103 1208 2742 
Q 947 2381 947 1747 
z
" transform="scale(0.015625)"/>
       <path id="DejaVuSans-6f" d="M 1959 3097 
Q 1497 3097 1228 2736 
Q 959 2375 959 1747 
Q 959 1119 1226 758 
Q 1494 397 1959 397 
Q 2419 397 2687 759 
Q 2956 1122 2956 1747 
Q 2956 2369 2687 2733 
Q 2419 3097 1959 3097 
z
M 1959 3584 
Q 2709 3584 3137 3096 
Q 3566 2609 3566 1747 
Q 3566 888 3137 398 
Q 2709 -91 1959 -91 
Q 1206 -91 779 398 
Q 353 888 353 1747 
Q 353 2609 779 3096 
Q 1206 3584 1959 3584 
z
" transform="scale(0.015625)"/>
      </defs>
      <use xlink:href="#DejaVuSans-4f"/>
      <use xlink:href="#DejaVuSans-6e" x="78.710938"/>
      <use xlink:href="#DejaVuSans-65" x="142.089844"/>
      <use xlink:href="#DejaVuSans-20" x="203.613281"/>
      <use xlink:href="#DejaVuSans-53" x="235.400391"/>
      <use xlink:href="#DejaVuSans-74" x="298.876953"/>
      <use xlink:href="#DejaVuSans-61" x="338.085938"/>
      <use xlink:href="#DejaVuSans-6e" x="399.365234"/>
      <use xlink:href="#DejaVuSans-64" x="462.744141"/>
      <use xlink:href="#DejaVuSans-61" x="526.220703"/>
      <use xlink:href="#DejaVuSans-72" x="587.5"/>
      <use xlink:href="#DejaVuSans-64" x="626.863281"/>
      <use xlink:href="#DejaVuSans-20" x="690.339844"/>
      <use xlink:href="#DejaVuSans-44" x="722.126953"/>
      <use xlink:href="#DejaVuSans-65" x="799.128906"/>
      <use xlink:href="#DejaVuSans-76" x="860.652344"/>
      <use xlink:href="#DejaVuSans-69" x="919.832031"/>
      <use xlink:href="#DejaVuSans-61" x="947.615234"/>
      <use xlink:href="#DejaVuSans-74" x="1008.894531"/>
      <use xlink:href="#DejaVuSans-69" x="1048.103516"/>
      <use xlink:href="#DejaVuSans-6f" x="1075.886719"/>
      <use xlink:href="#DejaVuSans-6e" x="1137.068359"/>
     </g>
    </g>
   </g>
  </g>
 </g>
 <defs>
  <clipPath id="p3440052f1a">
   <rect x="44.879375" y="-0" width="390.6" height="166.32"/>
  </clipPath>
 </defs>
</svg>
