<?xml version="1.0" encoding="utf-8" standalone="no"?>
<!DOCTYPE svg PUBLIC "-//W3C//DTD SVG 1.1//EN"
  "http://www.w3.org/Graphics/SVG/1.1/DTD/svg11.dtd">
<svg xmlns:xlink="http://www.w3.org/1999/xlink" width="444.375067pt" height="198.611875pt" viewBox="0 0 444.375067 198.611875" xmlns="http://www.w3.org/2000/svg" version="1.1">
 <metadata>
  <rdf:RDF xmlns:dc="http://purl.org/dc/elements/1.1/" xmlns:cc="http://creativecommons.org/ns#" xmlns:rdf="http://www.w3.org/1999/02/22-rdf-syntax-ns#">
   <cc:Work>
    <dc:type rdf:resource="http://purl.org/dc/dcmitype/StillImage"/>
    <dc:date>2024-09-18T15:47:44.903117</dc:date>
    <dc:format>image/svg+xml</dc:format>
    <dc:creator>
     <cc:Agent>
      <dc:title>Matplotlib v3.7.5, https://matplotlib.org/</dc:title>
     </cc:Agent>
    </dc:creator>
   </cc:Work>
  </rdf:RDF>
 </metadata>
 <defs>
  <style type="text/css">*{stroke-linejoin: round; stroke-linecap: butt}</style>
 </defs>
 <g id="figure_1">
  <g id="patch_1">
   <path d="M 0 198.611875 
L 444.375067 198.611875 
L 444.375067 0 
L 0 0 
z
" style="fill: #ffffff"/>
  </g>
  <g id="axes_1">
   <g id="patch_2">
    <path d="M 44.879375 166.32 
L 435.479375 166.32 
L 435.479375 -0 
L 44.879375 -0 
z
" style="fill: #e5e5e5"/>
   </g>
   <g id="matplotlib.axis_1">
    <g id="xtick_1">
     <g id="line2d_1">
      <path d="M 72.41989 166.32 
L 72.41989 -0 
" clip-path="url(#p0f8ade51ec)" style="fill: none; stroke: #ffffff; stroke-width: 0.8; stroke-linecap: square"/>
     </g>
     <g id="line2d_2">
      <defs>
       <path id="m8f0e10c181" d="M 0 0 
L 0 3.5 
" style="stroke: #555555; stroke-width: 0.8"/>
      </defs>
      <g>
       <use xlink:href="#m8f0e10c181" x="72.41989" y="166.32" style="fill: #555555; stroke: #555555; stroke-width: 0.8"/>
      </g>
     </g>
     <g id="text_1">
      <!-- 08/16/20 -->
      <g style="fill: #555555" transform="translate(49.96364 180.918437) scale(0.1 -0.1)">
       <defs>
        <path id="DejaVuSans-30" d="M 2034 4250 
Q 1547 4250 1301 3770 
Q 1056 3291 1056 2328 
Q 1056 1369 1301 889 
Q 1547 409 2034 409 
Q 2525 409 2770 889 
Q 3016 1369 3016 2328 
Q 3016 3291 2770 3770 
Q 2525 4250 2034 4250 
z
M 2034 4750 
Q 2819 4750 3233 4129 
Q 3647 3509 3647 2328 
Q 3647 1150 3233 529 
Q 2819 -91 2034 -91 
Q 1250 -91 836 529 
Q 422 1150 422 2328 
Q 422 3509 836 4129 
Q 1250 4750 2034 4750 
z
" transform="scale(0.015625)"/>
        <path id="DejaVuSans-38" d="M 2034 2216 
Q 1584 2216 1326 1975 
Q 1069 1734 1069 1313 
Q 1069 891 1326 650 
Q 1584 409 2034 409 
Q 2484 409 2743 651 
Q 3003 894 3003 1313 
Q 3003 1734 2745 1975 
Q 2488 2216 2034 2216 
z
M 1403 2484 
Q 997 2584 770 2862 
Q 544 3141 544 3541 
Q 544 4100 942 4425 
Q 1341 4750 2034 4750 
Q 2731 4750 3128 4425 
Q 3525 4100 3525 3541 
Q 3525 3141 3298 2862 
Q 3072 2584 2669 2484 
Q 3125 2378 3379 2068 
Q 3634 1759 3634 1313 
Q 3634 634 3220 271 
Q 2806 -91 2034 -91 
Q 1263 -91 848 271 
Q 434 634 434 1313 
Q 434 1759 690 2068 
Q 947 2378 1403 2484 
z
M 1172 3481 
Q 1172 3119 1398 2916 
Q 1625 2713 2034 2713 
Q 2441 2713 2670 2916 
Q 2900 3119 2900 3481 
Q 2900 3844 2670 4047 
Q 2441 4250 2034 4250 
Q 1625 4250 1398 4047 
Q 1172 3844 1172 3481 
z
" transform="scale(0.015625)"/>
        <path id="DejaVuSans-2f" d="M 1625 4666 
L 2156 4666 
L 531 -594 
L 0 -594 
L 1625 4666 
z
" transform="scale(0.015625)"/>
        <path id="DejaVuSans-31" d="M 794 531 
L 1825 531 
L 1825 4091 
L 703 3866 
L 703 4441 
L 1819 4666 
L 2450 4666 
L 2450 531 
L 3481 531 
L 3481 0 
L 794 0 
L 794 531 
z
" transform="scale(0.015625)"/>
        <path id="DejaVuSans-36" d="M 2113 2584 
Q 1688 2584 1439 2293 
Q 1191 2003 1191 1497 
Q 1191 994 1439 701 
Q 1688 409 2113 409 
Q 2538 409 2786 701 
Q 3034 994 3034 1497 
Q 3034 2003 2786 2293 
Q 2538 2584 2113 2584 
z
M 3366 4563 
L 3366 3988 
Q 3128 4100 2886 4159 
Q 2644 4219 2406 4219 
Q 1781 4219 1451 3797 
Q 1122 3375 1075 2522 
Q 1259 2794 1537 2939 
Q 1816 3084 2150 3084 
Q 2853 3084 3261 2657 
Q 3669 2231 3669 1497 
Q 3669 778 3244 343 
Q 2819 -91 2113 -91 
Q 1303 -91 875 529 
Q 447 1150 447 2328 
Q 447 3434 972 4092 
Q 1497 4750 2381 4750 
Q 2619 4750 2861 4703 
Q 3103 4656 3366 4563 
z
" transform="scale(0.015625)"/>
        <path id="DejaVuSans-32" d="M 1228 531 
L 3431 531 
L 3431 0 
L 469 0 
L 469 531 
Q 828 903 1448 1529 
Q 2069 2156 2228 2338 
Q 2531 2678 2651 2914 
Q 2772 3150 2772 3378 
Q 2772 3750 2511 3984 
Q 2250 4219 1831 4219 
Q 1534 4219 1204 4116 
Q 875 4013 500 3803 
L 500 4441 
Q 881 4594 1212 4672 
Q 1544 4750 1819 4750 
Q 2544 4750 2975 4387 
Q 3406 4025 3406 3419 
Q 3406 3131 3298 2873 
Q 3191 2616 2906 2266 
Q 2828 2175 2409 1742 
Q 1991 1309 1228 531 
z
" transform="scale(0.015625)"/>
       </defs>
       <use xlink:href="#DejaVuSans-30"/>
       <use xlink:href="#DejaVuSans-38" x="63.623047"/>
       <use xlink:href="#DejaVuSans-2f" x="127.246094"/>
       <use xlink:href="#DejaVuSans-31" x="160.9375"/>
       <use xlink:href="#DejaVuSans-36" x="224.560547"/>
       <use xlink:href="#DejaVuSans-2f" x="288.183594"/>
       <use xlink:href="#DejaVuSans-32" x="321.875"/>
       <use xlink:href="#DejaVuSans-30" x="385.498047"/>
      </g>
     </g>
    </g>
    <g id="xtick_2">
     <g id="line2d_3">
      <path d="M 142.319676 166.32 
L 142.319676 -0 
" clip-path="url(#p0f8ade51ec)" style="fill: none; stroke: #ffffff; stroke-width: 0.8; stroke-linecap: square"/>
     </g>
     <g id="line2d_4">
      <g>
       <use xlink:href="#m8f0e10c181" x="142.319676" y="166.32" style="fill: #555555; stroke: #555555; stroke-width: 0.8"/>
      </g>
     </g>
     <g id="text_2">
      <!-- 10/05/20 -->
      <g style="fill: #555555" transform="translate(119.863426 180.918437) scale(0.1 -0.1)">
       <defs>
        <path id="DejaVuSans-35" d="M 691 4666 
L 3169 4666 
L 3169 4134 
L 1269 4134 
L 1269 2991 
Q 1406 3038 1543 3061 
Q 1681 3084 1819 3084 
Q 2600 3084 3056 2656 
Q 3513 2228 3513 1497 
Q 3513 744 3044 326 
Q 2575 -91 1722 -91 
Q 1428 -91 1123 -41 
Q 819 9 494 109 
L 494 744 
Q 775 591 1075 516 
Q 1375 441 1709 441 
Q 2250 441 2565 725 
Q 2881 1009 2881 1497 
Q 2881 1984 2565 2268 
Q 2250 2553 1709 2553 
Q 1456 2553 1204 2497 
Q 953 2441 691 2322 
L 691 4666 
z
" transform="scale(0.015625)"/>
       </defs>
       <use xlink:href="#DejaVuSans-31"/>
       <use xlink:href="#DejaVuSans-30" x="63.623047"/>
       <use xlink:href="#DejaVuSans-2f" x="127.246094"/>
       <use xlink:href="#DejaVuSans-30" x="160.9375"/>
       <use xlink:href="#DejaVuSans-35" x="224.560547"/>
       <use xlink:href="#DejaVuSans-2f" x="288.183594"/>
       <use xlink:href="#DejaVuSans-32" x="321.875"/>
       <use xlink:href="#DejaVuSans-30" x="385.498047"/>
      </g>
     </g>
    </g>
    <g id="xtick_3">
     <g id="line2d_5">
      <path d="M 212.219461 166.32 
L 212.219461 -0 
" clip-path="url(#p0f8ade51ec)" style="fill: none; stroke: #ffffff; stroke-width: 0.8; stroke-linecap: square"/>
     </g>
     <g id="line2d_6">
      <g>
       <use xlink:href="#m8f0e10c181" x="212.219461" y="166.32" style="fill: #555555; stroke: #555555; stroke-width: 0.8"/>
      </g>
     </g>
     <g id="text_3">
      <!-- 11/24/20 -->
      <g style="fill: #555555" transform="translate(189.763211 180.918437) scale(0.1 -0.1)">
       <defs>
        <path id="DejaVuSans-34" d="M 2419 4116 
L 825 1625 
L 2419 1625 
L 2419 4116 
z
M 2253 4666 
L 3047 4666 
L 3047 1625 
L 3713 1625 
L 3713 1100 
L 3047 1100 
L 3047 0 
L 2419 0 
L 2419 1100 
L 313 1100 
L 313 1709 
L 2253 4666 
z
" transform="scale(0.015625)"/>
       </defs>
       <use xlink:href="#DejaVuSans-31"/>
       <use xlink:href="#DejaVuSans-31" x="63.623047"/>
       <use xlink:href="#DejaVuSans-2f" x="127.246094"/>
       <use xlink:href="#DejaVuSans-32" x="160.9375"/>
       <use xlink:href="#DejaVuSans-34" x="224.560547"/>
       <use xlink:href="#DejaVuSans-2f" x="288.183594"/>
       <use xlink:href="#DejaVuSans-32" x="321.875"/>
       <use xlink:href="#DejaVuSans-30" x="385.498047"/>
      </g>
     </g>
    </g>
    <g id="xtick_4">
     <g id="line2d_7">
      <path d="M 282.119246 166.32 
L 282.119246 -0 
" clip-path="url(#p0f8ade51ec)" style="fill: none; stroke: #ffffff; stroke-width: 0.8; stroke-linecap: square"/>
     </g>
     <g id="line2d_8">
      <g>
       <use xlink:href="#m8f0e10c181" x="282.119246" y="166.32" style="fill: #555555; stroke: #555555; stroke-width: 0.8"/>
      </g>
     </g>
     <g id="text_4">
      <!-- 01/13/21 -->
      <g style="fill: #555555" transform="translate(259.662996 180.918437) scale(0.1 -0.1)">
       <defs>
        <path id="DejaVuSans-33" d="M 2597 2516 
Q 3050 2419 3304 2112 
Q 3559 1806 3559 1356 
Q 3559 666 3084 287 
Q 2609 -91 1734 -91 
Q 1441 -91 1130 -33 
Q 819 25 488 141 
L 488 750 
Q 750 597 1062 519 
Q 1375 441 1716 441 
Q 2309 441 2620 675 
Q 2931 909 2931 1356 
Q 2931 1769 2642 2001 
Q 2353 2234 1838 2234 
L 1294 2234 
L 1294 2753 
L 1863 2753 
Q 2328 2753 2575 2939 
Q 2822 3125 2822 3475 
Q 2822 3834 2567 4026 
Q 2313 4219 1838 4219 
Q 1578 4219 1281 4162 
Q 984 4106 628 3988 
L 628 4550 
Q 988 4650 1302 4700 
Q 1616 4750 1894 4750 
Q 2613 4750 3031 4423 
Q 3450 4097 3450 3541 
Q 3450 3153 3228 2886 
Q 3006 2619 2597 2516 
z
" transform="scale(0.015625)"/>
       </defs>
       <use xlink:href="#DejaVuSans-30"/>
       <use xlink:href="#DejaVuSans-31" x="63.623047"/>
       <use xlink:href="#DejaVuSans-2f" x="127.246094"/>
       <use xlink:href="#DejaVuSans-31" x="160.9375"/>
       <use xlink:href="#DejaVuSans-33" x="224.560547"/>
       <use xlink:href="#DejaVuSans-2f" x="288.183594"/>
       <use xlink:href="#DejaVuSans-32" x="321.875"/>
       <use xlink:href="#DejaVuSans-31" x="385.498047"/>
      </g>
     </g>
    </g>
    <g id="xtick_5">
     <g id="line2d_9">
      <path d="M 352.019031 166.32 
L 352.019031 -0 
" clip-path="url(#p0f8ade51ec)" style="fill: none; stroke: #ffffff; stroke-width: 0.8; stroke-linecap: square"/>
     </g>
     <g id="line2d_10">
      <g>
       <use xlink:href="#m8f0e10c181" x="352.019031" y="166.32" style="fill: #555555; stroke: #555555; stroke-width: 0.8"/>
      </g>
     </g>
     <g id="text_5">
      <!-- 03/04/21 -->
      <g style="fill: #555555" transform="translate(329.562781 180.918437) scale(0.1 -0.1)">
       <use xlink:href="#DejaVuSans-30"/>
       <use xlink:href="#DejaVuSans-33" x="63.623047"/>
       <use xlink:href="#DejaVuSans-2f" x="127.246094"/>
       <use xlink:href="#DejaVuSans-30" x="160.9375"/>
       <use xlink:href="#DejaVuSans-34" x="224.560547"/>
       <use xlink:href="#DejaVuSans-2f" x="288.183594"/>
       <use xlink:href="#DejaVuSans-32" x="321.875"/>
       <use xlink:href="#DejaVuSans-31" x="385.498047"/>
      </g>
     </g>
    </g>
    <g id="xtick_6">
     <g id="line2d_11">
      <path d="M 421.918817 166.32 
L 421.918817 -0 
" clip-path="url(#p0f8ade51ec)" style="fill: none; stroke: #ffffff; stroke-width: 0.8; stroke-linecap: square"/>
     </g>
     <g id="line2d_12">
      <g>
       <use xlink:href="#m8f0e10c181" x="421.918817" y="166.32" style="fill: #555555; stroke: #555555; stroke-width: 0.8"/>
      </g>
     </g>
     <g id="text_6">
      <!-- 04/23/21 -->
      <g style="fill: #555555" transform="translate(399.462567 180.918437) scale(0.1 -0.1)">
       <use xlink:href="#DejaVuSans-30"/>
       <use xlink:href="#DejaVuSans-34" x="63.623047"/>
       <use xlink:href="#DejaVuSans-2f" x="127.246094"/>
       <use xlink:href="#DejaVuSans-32" x="160.9375"/>
       <use xlink:href="#DejaVuSans-33" x="224.560547"/>
       <use xlink:href="#DejaVuSans-2f" x="288.183594"/>
       <use xlink:href="#DejaVuSans-32" x="321.875"/>
       <use xlink:href="#DejaVuSans-31" x="385.498047"/>
      </g>
     </g>
    </g>
    <g id="text_7">
     <!-- Date -->
     <g style="fill: #555555" transform="translate(225.838438 196.11625) scale(0.12 -0.12)">
      <defs>
       <path id="DejaVuSans-44" d="M 1259 4147 
L 1259 519 
L 2022 519 
Q 2988 519 3436 956 
Q 3884 1394 3884 2338 
Q 3884 3275 3436 3711 
Q 2988 4147 2022 4147 
L 1259 4147 
z
M 628 4666 
L 1925 4666 
Q 3281 4666 3915 4102 
Q 4550 3538 4550 2338 
Q 4550 1131 3912 565 
Q 3275 0 1925 0 
L 628 0 
L 628 4666 
z
" transform="scale(0.015625)"/>
       <path id="DejaVuSans-61" d="M 2194 1759 
Q 1497 1759 1228 1600 
Q 959 1441 959 1056 
Q 959 750 1161 570 
Q 1363 391 1709 391 
Q 2188 391 2477 730 
Q 2766 1069 2766 1631 
L 2766 1759 
L 2194 1759 
z
M 3341 1997 
L 3341 0 
L 2766 0 
L 2766 531 
Q 2569 213 2275 61 
Q 1981 -91 1556 -91 
Q 1019 -91 701 211 
Q 384 513 384 1019 
Q 384 1609 779 1909 
Q 1175 2209 1959 2209 
L 2766 2209 
L 2766 2266 
Q 2766 2663 2505 2880 
Q 2244 3097 1772 3097 
Q 1472 3097 1187 3025 
Q 903 2953 641 2809 
L 641 3341 
Q 956 3463 1253 3523 
Q 1550 3584 1831 3584 
Q 2591 3584 2966 3190 
Q 3341 2797 3341 1997 
z
" transform="scale(0.015625)"/>
       <path id="DejaVuSans-74" d="M 1172 4494 
L 1172 3500 
L 2356 3500 
L 2356 3053 
L 1172 3053 
L 1172 1153 
Q 1172 725 1289 603 
Q 1406 481 1766 481 
L 2356 481 
L 2356 0 
L 1766 0 
Q 1100 0 847 248 
Q 594 497 594 1153 
L 594 3053 
L 172 3053 
L 172 3500 
L 594 3500 
L 594 4494 
L 1172 4494 
z
" transform="scale(0.015625)"/>
       <path id="DejaVuSans-65" d="M 3597 1894 
L 3597 1613 
L 953 1613 
Q 991 1019 1311 708 
Q 1631 397 2203 397 
Q 2534 397 2845 478 
Q 3156 559 3463 722 
L 3463 178 
Q 3153 47 2828 -22 
Q 2503 -91 2169 -91 
Q 1331 -91 842 396 
Q 353 884 353 1716 
Q 353 2575 817 3079 
Q 1281 3584 2069 3584 
Q 2775 3584 3186 3129 
Q 3597 2675 3597 1894 
z
M 3022 2063 
Q 3016 2534 2758 2815 
Q 2500 3097 2075 3097 
Q 1594 3097 1305 2825 
Q 1016 2553 972 2059 
L 3022 2063 
z
" transform="scale(0.015625)"/>
      </defs>
      <use xlink:href="#DejaVuSans-44"/>
      <use xlink:href="#DejaVuSans-61" x="77.001953"/>
      <use xlink:href="#DejaVuSans-74" x="138.28125"/>
      <use xlink:href="#DejaVuSans-65" x="177.490234"/>
     </g>
    </g>
   </g>
   <g id="matplotlib.axis_2">
    <g id="ytick_1">
     <g id="line2d_13">
      <path d="M 44.879375 147.037694 
L 435.479375 147.037694 
" clip-path="url(#p0f8ade51ec)" style="fill: none; stroke: #ffffff; stroke-width: 0.8; stroke-linecap: square"/>
     </g>
     <g id="line2d_14">
      <defs>
       <path id="m01e7120ea6" d="M 0 0 
L -3.5 0 
" style="stroke: #555555; stroke-width: 0.8"/>
      </defs>
      <g>
       <use xlink:href="#m01e7120ea6" x="44.879375" y="147.037694" style="fill: #555555; stroke: #555555; stroke-width: 0.8"/>
      </g>
     </g>
     <g id="text_8">
      <!-- 0.05 -->
      <g style="fill: #555555" transform="translate(15.61375 150.836913) scale(0.1 -0.1)">
       <defs>
        <path id="DejaVuSans-2e" d="M 684 794 
L 1344 794 
L 1344 0 
L 684 0 
L 684 794 
z
" transform="scale(0.015625)"/>
       </defs>
       <use xlink:href="#DejaVuSans-30"/>
       <use xlink:href="#DejaVuSans-2e" x="63.623047"/>
       <use xlink:href="#DejaVuSans-30" x="95.410156"/>
       <use xlink:href="#DejaVuSans-35" x="159.033203"/>
      </g>
     </g>
    </g>
    <g id="ytick_2">
     <g id="line2d_15">
      <path d="M 44.879375 126.012764 
L 435.479375 126.012764 
" clip-path="url(#p0f8ade51ec)" style="fill: none; stroke: #ffffff; stroke-width: 0.8; stroke-linecap: square"/>
     </g>
     <g id="line2d_16">
      <g>
       <use xlink:href="#m01e7120ea6" x="44.879375" y="126.012764" style="fill: #555555; stroke: #555555; stroke-width: 0.8"/>
      </g>
     </g>
     <g id="text_9">
      <!-- 0.10 -->
      <g style="fill: #555555" transform="translate(15.61375 129.811983) scale(0.1 -0.1)">
       <use xlink:href="#DejaVuSans-30"/>
       <use xlink:href="#DejaVuSans-2e" x="63.623047"/>
       <use xlink:href="#DejaVuSans-31" x="95.410156"/>
       <use xlink:href="#DejaVuSans-30" x="159.033203"/>
      </g>
     </g>
    </g>
    <g id="ytick_3">
     <g id="line2d_17">
      <path d="M 44.879375 104.987834 
L 435.479375 104.987834 
" clip-path="url(#p0f8ade51ec)" style="fill: none; stroke: #ffffff; stroke-width: 0.8; stroke-linecap: square"/>
     </g>
     <g id="line2d_18">
      <g>
       <use xlink:href="#m01e7120ea6" x="44.879375" y="104.987834" style="fill: #555555; stroke: #555555; stroke-width: 0.8"/>
      </g>
     </g>
     <g id="text_10">
      <!-- 0.15 -->
      <g style="fill: #555555" transform="translate(15.61375 108.787053) scale(0.1 -0.1)">
       <use xlink:href="#DejaVuSans-30"/>
       <use xlink:href="#DejaVuSans-2e" x="63.623047"/>
       <use xlink:href="#DejaVuSans-31" x="95.410156"/>
       <use xlink:href="#DejaVuSans-35" x="159.033203"/>
      </g>
     </g>
    </g>
    <g id="ytick_4">
     <g id="line2d_19">
      <path d="M 44.879375 83.962904 
L 435.479375 83.962904 
" clip-path="url(#p0f8ade51ec)" style="fill: none; stroke: #ffffff; stroke-width: 0.8; stroke-linecap: square"/>
     </g>
     <g id="line2d_20">
      <g>
       <use xlink:href="#m01e7120ea6" x="44.879375" y="83.962904" style="fill: #555555; stroke: #555555; stroke-width: 0.8"/>
      </g>
     </g>
     <g id="text_11">
      <!-- 0.20 -->
      <g style="fill: #555555" transform="translate(15.61375 87.762123) scale(0.1 -0.1)">
       <use xlink:href="#DejaVuSans-30"/>
       <use xlink:href="#DejaVuSans-2e" x="63.623047"/>
       <use xlink:href="#DejaVuSans-32" x="95.410156"/>
       <use xlink:href="#DejaVuSans-30" x="159.033203"/>
      </g>
     </g>
    </g>
    <g id="ytick_5">
     <g id="line2d_21">
      <path d="M 44.879375 62.937974 
L 435.479375 62.937974 
" clip-path="url(#p0f8ade51ec)" style="fill: none; stroke: #ffffff; stroke-width: 0.8; stroke-linecap: square"/>
     </g>
     <g id="line2d_22">
      <g>
       <use xlink:href="#m01e7120ea6" x="44.879375" y="62.937974" style="fill: #555555; stroke: #555555; stroke-width: 0.8"/>
      </g>
     </g>
     <g id="text_12">
      <!-- 0.25 -->
      <g style="fill: #555555" transform="translate(15.61375 66.737193) scale(0.1 -0.1)">
       <use xlink:href="#DejaVuSans-30"/>
       <use xlink:href="#DejaVuSans-2e" x="63.623047"/>
       <use xlink:href="#DejaVuSans-32" x="95.410156"/>
       <use xlink:href="#DejaVuSans-35" x="159.033203"/>
      </g>
     </g>
    </g>
    <g id="ytick_6">
     <g id="line2d_23">
      <path d="M 44.879375 41.913044 
L 435.479375 41.913044 
" clip-path="url(#p0f8ade51ec)" style="fill: none; stroke: #ffffff; stroke-width: 0.8; stroke-linecap: square"/>
     </g>
     <g id="line2d_24">
      <g>
       <use xlink:href="#m01e7120ea6" x="44.879375" y="41.913044" style="fill: #555555; stroke: #555555; stroke-width: 0.8"/>
      </g>
     </g>
     <g id="text_13">
      <!-- 0.30 -->
      <g style="fill: #555555" transform="translate(15.61375 45.712263) scale(0.1 -0.1)">
       <use xlink:href="#DejaVuSans-30"/>
       <use xlink:href="#DejaVuSans-2e" x="63.623047"/>
       <use xlink:href="#DejaVuSans-33" x="95.410156"/>
       <use xlink:href="#DejaVuSans-30" x="159.033203"/>
      </g>
     </g>
    </g>
    <g id="ytick_7">
     <g id="line2d_25">
      <path d="M 44.879375 20.888115 
L 435.479375 20.888115 
" clip-path="url(#p0f8ade51ec)" style="fill: none; stroke: #ffffff; stroke-width: 0.8; stroke-linecap: square"/>
     </g>
     <g id="line2d_26">
      <g>
       <use xlink:href="#m01e7120ea6" x="44.879375" y="20.888115" style="fill: #555555; stroke: #555555; stroke-width: 0.8"/>
      </g>
     </g>
     <g id="text_14">
      <!-- 0.35 -->
      <g style="fill: #555555" transform="translate(15.61375 24.687333) scale(0.1 -0.1)">
       <use xlink:href="#DejaVuSans-30"/>
       <use xlink:href="#DejaVuSans-2e" x="63.623047"/>
       <use xlink:href="#DejaVuSans-33" x="95.410156"/>
       <use xlink:href="#DejaVuSans-35" x="159.033203"/>
      </g>
     </g>
    </g>
    <g id="text_15">
     <!-- Value -->
     <g style="fill: #555555" transform="translate(9.118125 99.6375) rotate(-90) scale(0.12 -0.12)">
      <defs>
       <path id="DejaVuSans-56" d="M 1831 0 
L 50 4666 
L 709 4666 
L 2188 738 
L 3669 4666 
L 4325 4666 
L 2547 0 
L 1831 0 
z
" transform="scale(0.015625)"/>
       <path id="DejaVuSans-6c" d="M 603 4863 
L 1178 4863 
L 1178 0 
L 603 0 
L 603 4863 
z
" transform="scale(0.015625)"/>
       <path id="DejaVuSans-75" d="M 544 1381 
L 544 3500 
L 1119 3500 
L 1119 1403 
Q 1119 906 1312 657 
Q 1506 409 1894 409 
Q 2359 409 2629 706 
Q 2900 1003 2900 1516 
L 2900 3500 
L 3475 3500 
L 3475 0 
L 2900 0 
L 2900 538 
Q 2691 219 2414 64 
Q 2138 -91 1772 -91 
Q 1169 -91 856 284 
Q 544 659 544 1381 
z
M 1991 3584 
L 1991 3584 
z
" transform="scale(0.015625)"/>
      </defs>
      <use xlink:href="#DejaVuSans-56"/>
      <use xlink:href="#DejaVuSans-61" x="60.658203"/>
      <use xlink:href="#DejaVuSans-6c" x="121.9375"/>
      <use xlink:href="#DejaVuSans-75" x="149.720703"/>
      <use xlink:href="#DejaVuSans-65" x="213.099609"/>
     </g>
    </g>
   </g>
   <g id="PolyCollection_1">
    <defs>
     <path id="m78ec953080" d="M 62.63392 -177.927317 
L 62.63392 -191.051875 
L 64.031916 -188.091995 
L 65.429912 -178.603338 
L 66.827908 -182.887447 
L 68.225903 -174.757407 
L 69.623899 -168.785369 
L 71.021895 -165.150466 
L 72.41989 -151.399164 
L 73.817886 -155.095406 
L 75.215882 -157.83326 
L 76.613878 -154.615537 
L 78.011873 -152.103367 
L 79.409869 -156.389457 
L 80.807865 -142.038203 
L 82.20586 -134.29015 
L 83.603856 -126.017347 
L 85.001852 -121.075187 
L 86.399847 -117.410316 
L 87.797843 -117.682228 
L 89.195839 -114.833525 
L 90.593835 -114.63712 
L 91.99183 -105.091545 
L 93.389826 -105.819632 
L 94.787822 -110.395031 
L 96.185817 -110.385798 
L 97.583813 -104.912045 
L 98.981809 -95.708623 
L 100.379804 -97.756463 
L 101.7778 -99.042265 
L 103.175796 -98.787529 
L 104.573792 -99.241227 
L 105.971787 -99.541521 
L 107.369783 -90.809946 
L 108.767779 -88.011593 
L 110.165774 -83.757953 
L 111.56377 -87.218859 
L 112.961766 -84.137702 
L 114.359762 -75.301142 
L 115.757757 -73.081996 
L 117.155753 -73.93468 
L 118.553749 -75.167859 
L 119.951744 -74.89185 
L 121.34974 -75.646709 
L 122.747736 -76.693667 
L 124.145731 -76.475846 
L 125.543727 -77.394594 
L 126.941723 -78.114351 
L 128.339719 -78.362236 
L 129.737714 -79.226714 
L 131.13571 -78.427178 
L 132.533706 -77.303171 
L 133.931701 -79.170193 
L 135.329697 -74.330671 
L 136.727693 -73.408206 
L 138.125689 -72.93127 
L 139.523684 -72.454928 
L 140.92168 -71.610127 
L 142.319676 -71.143201 
L 143.717671 -70.641432 
L 145.115667 -70.19611 
L 146.513663 -70.42025 
L 147.911658 -70.533832 
L 149.309654 -69.408642 
L 150.70765 -72.572532 
L 152.105646 -72.244034 
L 153.503641 -71.584589 
L 154.901637 -70.752333 
L 156.299633 -70.621142 
L 157.697628 -71.796333 
L 159.095624 -70.936176 
L 160.49362 -72.35744 
L 161.891616 -71.003313 
L 163.289611 -71.047753 
L 164.687607 -68.134048 
L 166.085603 -68.454264 
L 167.483598 -71.19889 
L 168.881594 -70.128185 
L 170.27959 -67.097744 
L 171.677585 -67.4175 
L 173.075581 -67.343092 
L 174.473577 -66.97666 
L 175.871573 -64.409805 
L 177.269568 -65.973697 
L 178.667564 -63.953624 
L 180.06556 -64.215964 
L 181.463555 -63.41656 
L 182.861551 -63.626144 
L 184.259547 -62.33159 
L 185.657543 -62.422944 
L 187.055538 -62.22646 
L 188.453534 -61.94941 
L 189.85153 -62.34098 
L 191.249525 -60.736612 
L 192.647521 -54.175604 
L 194.045517 -54.198955 
L 195.443512 -54.197582 
L 196.841508 -52.605442 
L 198.239504 -52.953008 
L 199.6375 -54.057312 
L 201.035495 -51.237719 
L 202.433491 -50.722462 
L 203.831487 -49.989205 
L 205.229482 -51.73663 
L 206.627478 -51.644092 
L 208.025474 -51.69584 
L 209.423469 -52.053143 
L 210.821465 -51.65913 
L 212.219461 -51.865721 
L 213.617457 -54.00761 
L 215.015452 -54.500305 
L 216.413448 -52.681818 
L 217.811444 -51.35584 
L 219.209439 -51.185659 
L 220.607435 -51.448972 
L 222.005431 -52.7401 
L 223.403427 -52.745868 
L 224.801422 -52.964129 
L 226.199418 -52.593141 
L 227.597414 -53.731722 
L 228.995409 -53.912487 
L 230.393405 -53.54616 
L 231.791401 -53.708652 
L 233.189396 -53.65323 
L 234.587392 -54.075392 
L 235.985388 -58.223897 
L 237.383384 -58.092325 
L 238.781379 -57.801984 
L 240.179375 -57.973303 
L 241.577371 -58.493592 
L 242.975366 -57.70081 
L 244.373362 -59.960874 
L 245.771358 -60.139905 
L 247.169354 -60.412066 
L 248.567349 -60.266243 
L 249.965345 -61.579979 
L 251.363341 -61.863921 
L 252.761336 -62.990861 
L 254.159332 -66.840529 
L 255.557328 -66.703915 
L 256.955323 -67.22789 
L 258.353319 -67.061306 
L 259.751315 -67.887768 
L 261.149311 -69.86819 
L 262.547306 -71.98872 
L 263.945302 -81.448772 
L 265.343298 -83.147078 
L 266.741293 -86.456936 
L 268.139289 -87.107454 
L 269.537285 -86.963481 
L 270.935281 -89.549476 
L 272.333276 -88.426878 
L 273.731272 -88.372385 
L 275.129268 -88.173114 
L 276.527263 -90.710225 
L 277.925259 -91.316813 
L 279.323255 -90.806604 
L 280.72125 -91.085001 
L 282.119246 -91.167221 
L 283.517242 -89.132473 
L 284.915238 -89.781482 
L 286.313233 -89.631868 
L 287.711229 -89.358186 
L 289.109225 -88.244757 
L 290.50722 -92.848712 
L 291.905216 -93.44817 
L 293.303212 -93.618555 
L 294.701207 -93.900621 
L 296.099203 -93.561324 
L 297.497199 -93.750151 
L 298.895195 -94.495739 
L 300.29319 -95.009213 
L 301.691186 -94.701135 
L 303.089182 -96.247887 
L 304.487177 -95.981177 
L 305.885173 -98.949655 
L 307.283169 -99.787428 
L 308.681165 -96.048792 
L 310.07916 -96.091789 
L 311.477156 -98.519428 
L 312.875152 -100.526973 
L 314.273147 -99.300095 
L 315.671143 -100.118665 
L 317.069139 -99.556447 
L 318.467134 -99.821376 
L 319.86513 -99.722803 
L 321.263126 -99.677845 
L 322.661122 -102.035859 
L 324.059117 -100.604973 
L 325.457113 -100.617338 
L 326.855109 -100.632998 
L 328.253104 -101.887779 
L 329.6511 -101.711242 
L 331.049096 -102.189753 
L 332.447092 -101.773209 
L 333.845087 -101.635172 
L 335.243083 -102.624123 
L 336.641079 -101.854213 
L 338.039074 -102.921154 
L 339.43707 -101.005711 
L 340.835066 -98.918223 
L 342.233061 -96.66577 
L 343.631057 -95.500725 
L 345.029053 -98.596349 
L 346.427049 -98.987589 
L 347.825044 -97.951887 
L 349.22304 -98.087267 
L 350.621036 -97.987378 
L 352.019031 -96.966831 
L 353.417027 -92.977955 
L 354.815023 -89.151348 
L 356.213019 -88.883842 
L 357.611014 -85.512886 
L 359.00901 -88.483593 
L 360.407006 -85.092901 
L 361.805001 -79.806019 
L 363.202997 -71.441864 
L 364.600993 -71.041286 
L 365.998988 -71.056292 
L 367.396984 -67.779533 
L 368.79498 -67.231889 
L 370.192976 -65.870852 
L 371.590971 -65.067307 
L 372.988967 -61.889159 
L 374.386963 -56.838581 
L 375.784958 -56.795407 
L 377.182954 -54.491994 
L 378.58095 -53.763327 
L 379.978946 -52.948 
L 381.376941 -51.092137 
L 382.774937 -49.791147 
L 384.172933 -50.128417 
L 385.570928 -49.940739 
L 386.968924 -50.036844 
L 388.36692 -49.942296 
L 389.764915 -47.06294 
L 391.162911 -47.088573 
L 392.560907 -46.977198 
L 393.958903 -47.264964 
L 395.356898 -46.959827 
L 396.754894 -46.985865 
L 398.15289 -46.779188 
L 399.550885 -43.223537 
L 400.948881 -43.281105 
L 402.346877 -43.573075 
L 403.744872 -43.170436 
L 405.142868 -43.152318 
L 406.540864 -42.914757 
L 407.93886 -42.974434 
L 409.336855 -43.26424 
L 410.734851 -43.264397 
L 412.132847 -43.101538 
L 413.530842 -43.162782 
L 414.928838 -43.141484 
L 416.326834 -43.080244 
L 417.72483 -43.370068 
L 417.72483 -40.964001 
L 417.72483 -40.964001 
L 416.326834 -40.946628 
L 414.928838 -41.008237 
L 413.530842 -41.048125 
L 412.132847 -41.022752 
L 410.734851 -40.928356 
L 409.336855 -41.173693 
L 407.93886 -40.939768 
L 406.540864 -40.923252 
L 405.142868 -41.232822 
L 403.744872 -40.952575 
L 402.346877 -41.283567 
L 400.948881 -41.3035 
L 399.550885 -41.375361 
L 398.15289 -43.719481 
L 396.754894 -44.193364 
L 395.356898 -44.192276 
L 393.958903 -43.935038 
L 392.560907 -44.308517 
L 391.162911 -44.344534 
L 389.764915 -44.131723 
L 388.36692 -46.710576 
L 386.968924 -46.931858 
L 385.570928 -46.598011 
L 384.172933 -46.883419 
L 382.774937 -46.609292 
L 381.376941 -47.740472 
L 379.978946 -50.212884 
L 378.58095 -50.704292 
L 377.182954 -51.523995 
L 375.784958 -53.155455 
L 374.386963 -52.893983 
L 372.988967 -57.859606 
L 371.590971 -60.351257 
L 370.192976 -61.091388 
L 368.79498 -62.684817 
L 367.396984 -63.377933 
L 365.998988 -66.237238 
L 364.600993 -66.184672 
L 363.202997 -66.960322 
L 361.805001 -74.204856 
L 360.407006 -78.32327 
L 359.00901 -81.184661 
L 357.611014 -79.493417 
L 356.213019 -82.115365 
L 354.815023 -82.229505 
L 353.417027 -86.260128 
L 352.019031 -88.96705 
L 350.621036 -89.355258 
L 349.22304 -89.842195 
L 347.825044 -90.987585 
L 346.427049 -91.594145 
L 345.029053 -90.989633 
L 343.631057 -88.253192 
L 342.233061 -88.91678 
L 340.835066 -90.229294 
L 339.43707 -92.686531 
L 338.039074 -95.526304 
L 336.641079 -94.553847 
L 335.243083 -95.296712 
L 333.845087 -94.086385 
L 332.447092 -95.075245 
L 331.049096 -93.726318 
L 329.6511 -93.006889 
L 328.253104 -93.392866 
L 326.855109 -92.957386 
L 325.457113 -93.317138 
L 324.059117 -92.940563 
L 322.661122 -93.613745 
L 321.263126 -92.568713 
L 319.86513 -92.246095 
L 318.467134 -92.323257 
L 317.069139 -91.820588 
L 315.671143 -91.677432 
L 314.273147 -91.373948 
L 312.875152 -92.266512 
L 311.477156 -91.141434 
L 310.07916 -89.307441 
L 308.681165 -87.804694 
L 307.283169 -91.288031 
L 305.885173 -90.983787 
L 304.487177 -89.98152 
L 303.089182 -88.63445 
L 301.691186 -86.658463 
L 300.29319 -87.718117 
L 298.895195 -86.191078 
L 297.497199 -85.63838 
L 296.099203 -86.155614 
L 294.701207 -85.716864 
L 293.303212 -85.726701 
L 291.905216 -85.334844 
L 290.50722 -85.699973 
L 289.109225 -82.034542 
L 287.711229 -83.201478 
L 286.313233 -82.726637 
L 284.915238 -82.07838 
L 283.517242 -81.957793 
L 282.119246 -83.454753 
L 280.72125 -83.741372 
L 279.323255 -82.944495 
L 277.925259 -84.476831 
L 276.527263 -83.460152 
L 275.129268 -80.961025 
L 273.731272 -81.920764 
L 272.333276 -80.929842 
L 270.935281 -82.341633 
L 269.537285 -80.931179 
L 268.139289 -80.33569 
L 266.741293 -80.477087 
L 265.343298 -77.05368 
L 263.945302 -74.790392 
L 262.547306 -66.968176 
L 261.149311 -65.29569 
L 259.751315 -63.151018 
L 258.353319 -63.15249 
L 256.955323 -62.72688 
L 255.557328 -62.629013 
L 254.159332 -62.306048 
L 252.761336 -59.239602 
L 251.363341 -57.701267 
L 249.965345 -57.595395 
L 248.567349 -56.738208 
L 247.169354 -56.862283 
L 245.771358 -56.300257 
L 244.373362 -56.571792 
L 242.975366 -54.558971 
L 241.577371 -54.871114 
L 240.179375 -54.417492 
L 238.781379 -54.633445 
L 237.383384 -54.674399 
L 235.985388 -54.391707 
L 234.587392 -50.753003 
L 233.189396 -50.546749 
L 231.791401 -50.592541 
L 230.393405 -50.409922 
L 228.995409 -50.629885 
L 227.597414 -50.391581 
L 226.199418 -49.516284 
L 224.801422 -49.683233 
L 223.403427 -49.713341 
L 222.005431 -49.618673 
L 220.607435 -48.561357 
L 219.209439 -48.310289 
L 217.811444 -48.769383 
L 216.413448 -49.522708 
L 215.015452 -51.072048 
L 213.617457 -50.78832 
L 212.219461 -48.411317 
L 210.821465 -48.765979 
L 209.423469 -48.85293 
L 208.025474 -48.456561 
L 206.627478 -48.98099 
L 205.229482 -48.51393 
L 203.831487 -47.455411 
L 202.433491 -47.730963 
L 201.035495 -47.771075 
L 199.6375 -51.066974 
L 198.239504 -49.943839 
L 196.841508 -49.633249 
L 195.443512 -50.93921 
L 194.045517 -50.879152 
L 192.647521 -51.123697 
L 191.249525 -57.17588 
L 189.85153 -58.470089 
L 188.453534 -57.551228 
L 187.055538 -58.276458 
L 185.657543 -58.590674 
L 184.259547 -58.493725 
L 182.861551 -59.380005 
L 181.463555 -59.686859 
L 180.06556 -60.245972 
L 178.667564 -60.180197 
L 177.269568 -61.853766 
L 175.871573 -60.545035 
L 174.473577 -63.096009 
L 173.075581 -63.00573 
L 171.677585 -63.087226 
L 170.27959 -62.974293 
L 168.881594 -65.385698 
L 167.483598 -65.484146 
L 166.085603 -63.522893 
L 164.687607 -64.222777 
L 163.289611 -66.353011 
L 161.891616 -65.887286 
L 160.49362 -67.432086 
L 159.095624 -66.251953 
L 157.697628 -67.068569 
L 156.299633 -65.457445 
L 154.901637 -65.747578 
L 153.503641 -67.002484 
L 152.105646 -67.214015 
L 150.70765 -67.147292 
L 149.309654 -65.025141 
L 147.911658 -65.83093 
L 146.513663 -65.764534 
L 145.115667 -65.676938 
L 143.717671 -66.156917 
L 142.319676 -66.417373 
L 140.92168 -67.342442 
L 139.523684 -67.844172 
L 138.125689 -67.84889 
L 136.727693 -69.038811 
L 135.329697 -69.241796 
L 133.931701 -73.778881 
L 132.533706 -71.442516 
L 131.13571 -72.601356 
L 129.737714 -73.361559 
L 128.339719 -72.802244 
L 126.941723 -72.905109 
L 125.543727 -72.655641 
L 124.145731 -70.733851 
L 122.747736 -71.660639 
L 121.34974 -70.425437 
L 119.951744 -69.785206 
L 118.553749 -70.099763 
L 117.155753 -68.540176 
L 115.757757 -68.800829 
L 114.359762 -70.506507 
L 112.961766 -78.759834 
L 111.56377 -80.837817 
L 110.165774 -78.615989 
L 108.767779 -81.581846 
L 107.369783 -83.83948 
L 105.971787 -90.84436 
L 104.573792 -90.614452 
L 103.175796 -90.81542 
L 101.7778 -91.36917 
L 100.379804 -90.885189 
L 98.981809 -88.270188 
L 97.583813 -96.406712 
L 96.185817 -100.803665 
L 94.787822 -102.067193 
L 93.389826 -96.261952 
L 91.99183 -96.184162 
L 90.593835 -106.03792 
L 89.195839 -106.433367 
L 87.797843 -107.577176 
L 86.399847 -108.084398 
L 85.001852 -111.60744 
L 83.603856 -115.374583 
L 82.20586 -126.198495 
L 80.807865 -132.370871 
L 79.409869 -144.797621 
L 78.011873 -141.659451 
L 76.613878 -142.867397 
L 75.215882 -145.802052 
L 73.817886 -144.284353 
L 72.41989 -140.662423 
L 71.021895 -151.882888 
L 69.623899 -156.553872 
L 68.225903 -162.049556 
L 66.827908 -169.368756 
L 65.429912 -165.620162 
L 64.031916 -176.136546 
L 62.63392 -177.927317 
z
" style="stroke: #134a8e; stroke-opacity: 0.5; stroke-width: 0.5"/>
    </defs>
    <g clip-path="url(#p0f8ade51ec)">
     <use xlink:href="#m78ec953080" x="0" y="198.611875" style="fill: #134a8e; fill-opacity: 0.5; stroke: #134a8e; stroke-opacity: 0.5; stroke-width: 0.5"/>
    </g>
   </g>
   <g id="line2d_27">
    <path d="M 62.63392 14.122279 
L 64.031916 16.497604 
L 65.429912 26.500125 
L 66.827908 22.483774 
L 68.225903 30.208394 
L 69.623899 35.942254 
L 71.021895 40.095198 
L 72.41989 52.581082 
L 73.817886 48.921996 
L 75.215882 46.794219 
L 76.613878 49.870408 
L 78.011873 51.730466 
L 79.409869 48.018336 
L 80.807865 61.407338 
L 82.20586 68.367553 
L 83.603856 77.91591 
L 85.001852 82.270561 
L 86.399847 85.864518 
L 87.797843 85.982173 
L 89.195839 87.978429 
L 90.593835 88.274355 
L 91.99183 97.974021 
L 93.389826 97.571083 
L 94.787822 92.380763 
L 96.185817 93.017143 
L 97.583813 97.952496 
L 98.981809 106.62247 
L 100.379804 104.291049 
L 101.7778 103.406157 
L 103.175796 103.810401 
L 104.573792 103.684036 
L 105.971787 103.418934 
L 107.369783 111.287162 
L 108.767779 113.815156 
L 110.165774 117.424904 
L 111.56377 114.583537 
L 112.961766 117.163107 
L 114.359762 125.70805 
L 115.757757 127.670463 
L 117.155753 127.374447 
L 118.553749 125.978064 
L 119.951744 126.273347 
L 121.34974 125.575802 
L 122.747736 124.434722 
L 124.145731 125.007026 
L 125.543727 123.586758 
L 126.941723 123.102145 
L 128.339719 123.029635 
L 129.737714 122.317739 
L 131.13571 123.097608 
L 132.533706 124.239031 
L 133.931701 122.137338 
L 135.329697 126.825641 
L 136.727693 127.388367 
L 138.125689 128.221795 
L 139.523684 128.462325 
L 142.319676 129.831588 
L 145.115667 130.675351 
L 147.911658 130.429494 
L 149.309654 131.394983 
L 150.70765 128.751963 
L 152.105646 128.88285 
L 153.503641 129.318339 
L 154.901637 130.36192 
L 156.299633 130.572582 
L 157.697628 129.179424 
L 159.095624 130.01781 
L 160.49362 128.717112 
L 161.891616 130.166576 
L 163.289611 129.911493 
L 164.687607 132.433462 
L 166.085603 132.623296 
L 167.483598 130.270357 
L 168.881594 130.854933 
L 170.27959 133.575857 
L 171.677585 133.359512 
L 174.473577 133.57554 
L 175.871573 136.134455 
L 177.269568 134.698143 
L 178.667564 136.544965 
L 180.06556 136.380907 
L 181.463555 137.060165 
L 182.861551 137.108801 
L 184.259547 138.199217 
L 185.657543 138.105066 
L 187.055538 138.360416 
L 188.453534 138.861556 
L 189.85153 138.20634 
L 191.249525 139.655629 
L 192.647521 145.962224 
L 194.045517 146.072822 
L 195.443512 146.043479 
L 196.841508 147.49253 
L 198.239504 147.163451 
L 199.6375 146.049732 
L 201.035495 149.107478 
L 202.433491 149.385162 
L 203.831487 149.889567 
L 205.229482 148.486595 
L 206.627478 148.299334 
L 208.025474 148.535675 
L 209.423469 148.158839 
L 210.821465 148.39932 
L 212.219461 148.473356 
L 213.617457 146.21391 
L 215.015452 145.825699 
L 216.413448 147.509612 
L 217.811444 148.549264 
L 219.209439 148.863901 
L 220.607435 148.606711 
L 222.005431 147.432489 
L 224.801422 147.288194 
L 226.199418 147.557163 
L 227.597414 146.550224 
L 228.995409 146.340689 
L 230.393405 146.633834 
L 231.791401 146.461279 
L 233.189396 146.511886 
L 234.587392 146.197678 
L 235.985388 142.304073 
L 237.383384 142.228513 
L 238.781379 142.394161 
L 240.179375 142.416478 
L 241.577371 141.929522 
L 242.975366 142.481985 
L 244.373362 140.345542 
L 245.771358 140.391794 
L 247.169354 139.9747 
L 248.567349 140.109649 
L 249.965345 139.024188 
L 251.363341 138.829281 
L 252.761336 137.496643 
L 254.159332 134.038586 
L 255.557328 133.945411 
L 256.955323 133.63449 
L 258.353319 133.504977 
L 259.751315 133.092482 
L 262.547306 129.133427 
L 263.945302 120.492293 
L 265.343298 118.511496 
L 266.741293 115.144864 
L 269.537285 114.664545 
L 270.935281 112.66632 
L 272.333276 113.933515 
L 273.731272 113.4653 
L 275.129268 114.044806 
L 276.527263 111.526686 
L 277.925259 110.715053 
L 279.323255 111.736325 
L 280.72125 111.198689 
L 282.119246 111.300888 
L 283.517242 113.066742 
L 284.915238 112.681944 
L 286.313233 112.432623 
L 287.711229 112.332043 
L 289.109225 113.472226 
L 290.50722 109.337532 
L 291.905216 109.220368 
L 293.303212 108.939247 
L 296.099203 108.753406 
L 297.497199 108.917609 
L 298.895195 108.268466 
L 300.29319 107.24821 
L 301.691186 107.932076 
L 303.089182 106.170707 
L 304.487177 105.630527 
L 305.885173 103.645154 
L 307.283169 103.074145 
L 308.681165 106.685132 
L 310.07916 105.91226 
L 311.477156 103.781444 
L 312.875152 102.215133 
L 314.273147 103.274853 
L 315.671143 102.713826 
L 317.069139 102.923357 
L 318.467134 102.539559 
L 319.86513 102.627426 
L 321.263126 102.488596 
L 322.661122 100.787073 
L 324.059117 101.839107 
L 325.457113 101.644637 
L 326.855109 101.816683 
L 328.253104 100.971553 
L 329.6511 101.25281 
L 331.049096 100.653839 
L 332.447092 100.187648 
L 333.845087 100.751096 
L 335.243083 99.651458 
L 336.641079 100.407845 
L 338.039074 99.388146 
L 340.835066 104.038116 
L 342.233061 105.8206 
L 343.631057 106.734917 
L 345.029053 103.818884 
L 346.427049 103.321008 
L 347.825044 104.142139 
L 349.22304 104.647144 
L 350.621036 104.940557 
L 352.019031 105.644935 
L 353.417027 108.992834 
L 354.815023 112.921449 
L 356.213019 113.112271 
L 357.611014 116.108724 
L 359.00901 113.777748 
L 360.407006 116.90379 
L 361.805001 121.606437 
L 363.202997 129.410782 
L 364.600993 129.998896 
L 365.998988 129.96511 
L 367.396984 133.033142 
L 368.79498 133.653522 
L 370.192976 135.130755 
L 371.590971 135.902593 
L 372.988967 138.737493 
L 374.386963 143.745593 
L 375.784958 143.636444 
L 377.182954 145.60388 
L 379.978946 147.031433 
L 381.376941 149.195571 
L 382.774937 150.411655 
L 384.172933 150.105957 
L 385.570928 150.3425 
L 386.968924 150.127524 
L 388.36692 150.285439 
L 389.764915 153.014544 
L 391.162911 152.895321 
L 395.356898 153.035824 
L 396.754894 153.022261 
L 398.15289 153.362541 
L 399.550885 156.312426 
L 400.948881 156.319572 
L 402.346877 156.183554 
L 403.744872 156.55037 
L 405.142868 156.419305 
L 406.540864 156.69287 
L 407.93886 156.654774 
L 409.336855 156.392909 
L 412.132847 156.54973 
L 414.928838 156.537015 
L 416.326834 156.598439 
L 417.72483 156.44484 
L 417.72483 156.44484 
" clip-path="url(#p0f8ade51ec)" style="fill: none; stroke: #134a8e; stroke-width: 3; stroke-linecap: square"/>
    <defs>
     <path id="m862b86af42" d="M 0 1.5 
C 0.397805 1.5 0.77937 1.341951 1.06066 1.06066 
C 1.341951 0.77937 1.5 0.397805 1.5 0 
C 1.5 -0.397805 1.341951 -0.77937 1.06066 -1.06066 
C 0.77937 -1.341951 0.397805 -1.5 0 -1.5 
C -0.397805 -1.5 -0.77937 -1.341951 -1.06066 -1.06066 
C -1.341951 -0.77937 -1.5 -0.397805 -1.5 0 
C -1.5 0.397805 -1.341951 0.77937 -1.06066 1.06066 
C -0.77937 1.341951 -0.397805 1.5 0 1.5 
z
" style="stroke: #134a8e"/>
    </defs>
    <g clip-path="url(#p0f8ade51ec)">
     <use xlink:href="#m862b86af42" x="62.63392" y="14.122279" style="fill: #134a8e; stroke: #134a8e"/>
     <use xlink:href="#m862b86af42" x="64.031916" y="16.497604" style="fill: #134a8e; stroke: #134a8e"/>
     <use xlink:href="#m862b86af42" x="65.429912" y="26.500125" style="fill: #134a8e; stroke: #134a8e"/>
     <use xlink:href="#m862b86af42" x="66.827908" y="22.483774" style="fill: #134a8e; stroke: #134a8e"/>
     <use xlink:href="#m862b86af42" x="68.225903" y="30.208394" style="fill: #134a8e; stroke: #134a8e"/>
     <use xlink:href="#m862b86af42" x="69.623899" y="35.942254" style="fill: #134a8e; stroke: #134a8e"/>
     <use xlink:href="#m862b86af42" x="71.021895" y="40.095198" style="fill: #134a8e; stroke: #134a8e"/>
     <use xlink:href="#m862b86af42" x="72.41989" y="52.581082" style="fill: #134a8e; stroke: #134a8e"/>
     <use xlink:href="#m862b86af42" x="73.817886" y="48.921996" style="fill: #134a8e; stroke: #134a8e"/>
     <use xlink:href="#m862b86af42" x="75.215882" y="46.794219" style="fill: #134a8e; stroke: #134a8e"/>
     <use xlink:href="#m862b86af42" x="76.613878" y="49.870408" style="fill: #134a8e; stroke: #134a8e"/>
     <use xlink:href="#m862b86af42" x="78.011873" y="51.730466" style="fill: #134a8e; stroke: #134a8e"/>
     <use xlink:href="#m862b86af42" x="79.409869" y="48.018336" style="fill: #134a8e; stroke: #134a8e"/>
     <use xlink:href="#m862b86af42" x="80.807865" y="61.407338" style="fill: #134a8e; stroke: #134a8e"/>
     <use xlink:href="#m862b86af42" x="82.20586" y="68.367553" style="fill: #134a8e; stroke: #134a8e"/>
     <use xlink:href="#m862b86af42" x="83.603856" y="77.91591" style="fill: #134a8e; stroke: #134a8e"/>
     <use xlink:href="#m862b86af42" x="85.001852" y="82.270561" style="fill: #134a8e; stroke: #134a8e"/>
     <use xlink:href="#m862b86af42" x="86.399847" y="85.864518" style="fill: #134a8e; stroke: #134a8e"/>
     <use xlink:href="#m862b86af42" x="87.797843" y="85.982173" style="fill: #134a8e; stroke: #134a8e"/>
     <use xlink:href="#m862b86af42" x="89.195839" y="87.978429" style="fill: #134a8e; stroke: #134a8e"/>
     <use xlink:href="#m862b86af42" x="90.593835" y="88.274355" style="fill: #134a8e; stroke: #134a8e"/>
     <use xlink:href="#m862b86af42" x="91.99183" y="97.974021" style="fill: #134a8e; stroke: #134a8e"/>
     <use xlink:href="#m862b86af42" x="93.389826" y="97.571083" style="fill: #134a8e; stroke: #134a8e"/>
     <use xlink:href="#m862b86af42" x="94.787822" y="92.380763" style="fill: #134a8e; stroke: #134a8e"/>
     <use xlink:href="#m862b86af42" x="96.185817" y="93.017143" style="fill: #134a8e; stroke: #134a8e"/>
     <use xlink:href="#m862b86af42" x="97.583813" y="97.952496" style="fill: #134a8e; stroke: #134a8e"/>
     <use xlink:href="#m862b86af42" x="98.981809" y="106.62247" style="fill: #134a8e; stroke: #134a8e"/>
     <use xlink:href="#m862b86af42" x="100.379804" y="104.291049" style="fill: #134a8e; stroke: #134a8e"/>
     <use xlink:href="#m862b86af42" x="101.7778" y="103.406157" style="fill: #134a8e; stroke: #134a8e"/>
     <use xlink:href="#m862b86af42" x="103.175796" y="103.810401" style="fill: #134a8e; stroke: #134a8e"/>
     <use xlink:href="#m862b86af42" x="104.573792" y="103.684036" style="fill: #134a8e; stroke: #134a8e"/>
     <use xlink:href="#m862b86af42" x="105.971787" y="103.418934" style="fill: #134a8e; stroke: #134a8e"/>
     <use xlink:href="#m862b86af42" x="107.369783" y="111.287162" style="fill: #134a8e; stroke: #134a8e"/>
     <use xlink:href="#m862b86af42" x="108.767779" y="113.815156" style="fill: #134a8e; stroke: #134a8e"/>
     <use xlink:href="#m862b86af42" x="110.165774" y="117.424904" style="fill: #134a8e; stroke: #134a8e"/>
     <use xlink:href="#m862b86af42" x="111.56377" y="114.583537" style="fill: #134a8e; stroke: #134a8e"/>
     <use xlink:href="#m862b86af42" x="112.961766" y="117.163107" style="fill: #134a8e; stroke: #134a8e"/>
     <use xlink:href="#m862b86af42" x="114.359762" y="125.70805" style="fill: #134a8e; stroke: #134a8e"/>
     <use xlink:href="#m862b86af42" x="115.757757" y="127.670463" style="fill: #134a8e; stroke: #134a8e"/>
     <use xlink:href="#m862b86af42" x="117.155753" y="127.374447" style="fill: #134a8e; stroke: #134a8e"/>
     <use xlink:href="#m862b86af42" x="118.553749" y="125.978064" style="fill: #134a8e; stroke: #134a8e"/>
     <use xlink:href="#m862b86af42" x="119.951744" y="126.273347" style="fill: #134a8e; stroke: #134a8e"/>
     <use xlink:href="#m862b86af42" x="121.34974" y="125.575802" style="fill: #134a8e; stroke: #134a8e"/>
     <use xlink:href="#m862b86af42" x="122.747736" y="124.434722" style="fill: #134a8e; stroke: #134a8e"/>
     <use xlink:href="#m862b86af42" x="124.145731" y="125.007026" style="fill: #134a8e; stroke: #134a8e"/>
     <use xlink:href="#m862b86af42" x="125.543727" y="123.586758" style="fill: #134a8e; stroke: #134a8e"/>
     <use xlink:href="#m862b86af42" x="126.941723" y="123.102145" style="fill: #134a8e; stroke: #134a8e"/>
     <use xlink:href="#m862b86af42" x="128.339719" y="123.029635" style="fill: #134a8e; stroke: #134a8e"/>
     <use xlink:href="#m862b86af42" x="129.737714" y="122.317739" style="fill: #134a8e; stroke: #134a8e"/>
     <use xlink:href="#m862b86af42" x="131.13571" y="123.097608" style="fill: #134a8e; stroke: #134a8e"/>
     <use xlink:href="#m862b86af42" x="132.533706" y="124.239031" style="fill: #134a8e; stroke: #134a8e"/>
     <use xlink:href="#m862b86af42" x="133.931701" y="122.137338" style="fill: #134a8e; stroke: #134a8e"/>
     <use xlink:href="#m862b86af42" x="135.329697" y="126.825641" style="fill: #134a8e; stroke: #134a8e"/>
     <use xlink:href="#m862b86af42" x="136.727693" y="127.388367" style="fill: #134a8e; stroke: #134a8e"/>
     <use xlink:href="#m862b86af42" x="138.125689" y="128.221795" style="fill: #134a8e; stroke: #134a8e"/>
     <use xlink:href="#m862b86af42" x="139.523684" y="128.462325" style="fill: #134a8e; stroke: #134a8e"/>
     <use xlink:href="#m862b86af42" x="140.92168" y="129.135591" style="fill: #134a8e; stroke: #134a8e"/>
     <use xlink:href="#m862b86af42" x="142.319676" y="129.831588" style="fill: #134a8e; stroke: #134a8e"/>
     <use xlink:href="#m862b86af42" x="143.717671" y="130.2127" style="fill: #134a8e; stroke: #134a8e"/>
     <use xlink:href="#m862b86af42" x="145.115667" y="130.675351" style="fill: #134a8e; stroke: #134a8e"/>
     <use xlink:href="#m862b86af42" x="146.513663" y="130.519483" style="fill: #134a8e; stroke: #134a8e"/>
     <use xlink:href="#m862b86af42" x="147.911658" y="130.429494" style="fill: #134a8e; stroke: #134a8e"/>
     <use xlink:href="#m862b86af42" x="149.309654" y="131.394983" style="fill: #134a8e; stroke: #134a8e"/>
     <use xlink:href="#m862b86af42" x="150.70765" y="128.751963" style="fill: #134a8e; stroke: #134a8e"/>
     <use xlink:href="#m862b86af42" x="152.105646" y="128.88285" style="fill: #134a8e; stroke: #134a8e"/>
     <use xlink:href="#m862b86af42" x="153.503641" y="129.318339" style="fill: #134a8e; stroke: #134a8e"/>
     <use xlink:href="#m862b86af42" x="154.901637" y="130.36192" style="fill: #134a8e; stroke: #134a8e"/>
     <use xlink:href="#m862b86af42" x="156.299633" y="130.572582" style="fill: #134a8e; stroke: #134a8e"/>
     <use xlink:href="#m862b86af42" x="157.697628" y="129.179424" style="fill: #134a8e; stroke: #134a8e"/>
     <use xlink:href="#m862b86af42" x="159.095624" y="130.01781" style="fill: #134a8e; stroke: #134a8e"/>
     <use xlink:href="#m862b86af42" x="160.49362" y="128.717112" style="fill: #134a8e; stroke: #134a8e"/>
     <use xlink:href="#m862b86af42" x="161.891616" y="130.166576" style="fill: #134a8e; stroke: #134a8e"/>
     <use xlink:href="#m862b86af42" x="163.289611" y="129.911493" style="fill: #134a8e; stroke: #134a8e"/>
     <use xlink:href="#m862b86af42" x="164.687607" y="132.433462" style="fill: #134a8e; stroke: #134a8e"/>
     <use xlink:href="#m862b86af42" x="166.085603" y="132.623296" style="fill: #134a8e; stroke: #134a8e"/>
     <use xlink:href="#m862b86af42" x="167.483598" y="130.270357" style="fill: #134a8e; stroke: #134a8e"/>
     <use xlink:href="#m862b86af42" x="168.881594" y="130.854933" style="fill: #134a8e; stroke: #134a8e"/>
     <use xlink:href="#m862b86af42" x="170.27959" y="133.575857" style="fill: #134a8e; stroke: #134a8e"/>
     <use xlink:href="#m862b86af42" x="171.677585" y="133.359512" style="fill: #134a8e; stroke: #134a8e"/>
     <use xlink:href="#m862b86af42" x="173.075581" y="133.437464" style="fill: #134a8e; stroke: #134a8e"/>
     <use xlink:href="#m862b86af42" x="174.473577" y="133.57554" style="fill: #134a8e; stroke: #134a8e"/>
     <use xlink:href="#m862b86af42" x="175.871573" y="136.134455" style="fill: #134a8e; stroke: #134a8e"/>
     <use xlink:href="#m862b86af42" x="177.269568" y="134.698143" style="fill: #134a8e; stroke: #134a8e"/>
     <use xlink:href="#m862b86af42" x="178.667564" y="136.544965" style="fill: #134a8e; stroke: #134a8e"/>
     <use xlink:href="#m862b86af42" x="180.06556" y="136.380907" style="fill: #134a8e; stroke: #134a8e"/>
     <use xlink:href="#m862b86af42" x="181.463555" y="137.060165" style="fill: #134a8e; stroke: #134a8e"/>
     <use xlink:href="#m862b86af42" x="182.861551" y="137.108801" style="fill: #134a8e; stroke: #134a8e"/>
     <use xlink:href="#m862b86af42" x="184.259547" y="138.199217" style="fill: #134a8e; stroke: #134a8e"/>
     <use xlink:href="#m862b86af42" x="185.657543" y="138.105066" style="fill: #134a8e; stroke: #134a8e"/>
     <use xlink:href="#m862b86af42" x="187.055538" y="138.360416" style="fill: #134a8e; stroke: #134a8e"/>
     <use xlink:href="#m862b86af42" x="188.453534" y="138.861556" style="fill: #134a8e; stroke: #134a8e"/>
     <use xlink:href="#m862b86af42" x="189.85153" y="138.20634" style="fill: #134a8e; stroke: #134a8e"/>
     <use xlink:href="#m862b86af42" x="191.249525" y="139.655629" style="fill: #134a8e; stroke: #134a8e"/>
     <use xlink:href="#m862b86af42" x="192.647521" y="145.962224" style="fill: #134a8e; stroke: #134a8e"/>
     <use xlink:href="#m862b86af42" x="194.045517" y="146.072822" style="fill: #134a8e; stroke: #134a8e"/>
     <use xlink:href="#m862b86af42" x="195.443512" y="146.043479" style="fill: #134a8e; stroke: #134a8e"/>
     <use xlink:href="#m862b86af42" x="196.841508" y="147.49253" style="fill: #134a8e; stroke: #134a8e"/>
     <use xlink:href="#m862b86af42" x="198.239504" y="147.163451" style="fill: #134a8e; stroke: #134a8e"/>
     <use xlink:href="#m862b86af42" x="199.6375" y="146.049732" style="fill: #134a8e; stroke: #134a8e"/>
     <use xlink:href="#m862b86af42" x="201.035495" y="149.107478" style="fill: #134a8e; stroke: #134a8e"/>
     <use xlink:href="#m862b86af42" x="202.433491" y="149.385162" style="fill: #134a8e; stroke: #134a8e"/>
     <use xlink:href="#m862b86af42" x="203.831487" y="149.889567" style="fill: #134a8e; stroke: #134a8e"/>
     <use xlink:href="#m862b86af42" x="205.229482" y="148.486595" style="fill: #134a8e; stroke: #134a8e"/>
     <use xlink:href="#m862b86af42" x="206.627478" y="148.299334" style="fill: #134a8e; stroke: #134a8e"/>
     <use xlink:href="#m862b86af42" x="208.025474" y="148.535675" style="fill: #134a8e; stroke: #134a8e"/>
     <use xlink:href="#m862b86af42" x="209.423469" y="148.158839" style="fill: #134a8e; stroke: #134a8e"/>
     <use xlink:href="#m862b86af42" x="210.821465" y="148.39932" style="fill: #134a8e; stroke: #134a8e"/>
     <use xlink:href="#m862b86af42" x="212.219461" y="148.473356" style="fill: #134a8e; stroke: #134a8e"/>
     <use xlink:href="#m862b86af42" x="213.617457" y="146.21391" style="fill: #134a8e; stroke: #134a8e"/>
     <use xlink:href="#m862b86af42" x="215.015452" y="145.825699" style="fill: #134a8e; stroke: #134a8e"/>
     <use xlink:href="#m862b86af42" x="216.413448" y="147.509612" style="fill: #134a8e; stroke: #134a8e"/>
     <use xlink:href="#m862b86af42" x="217.811444" y="148.549264" style="fill: #134a8e; stroke: #134a8e"/>
     <use xlink:href="#m862b86af42" x="219.209439" y="148.863901" style="fill: #134a8e; stroke: #134a8e"/>
     <use xlink:href="#m862b86af42" x="220.607435" y="148.606711" style="fill: #134a8e; stroke: #134a8e"/>
     <use xlink:href="#m862b86af42" x="222.005431" y="147.432489" style="fill: #134a8e; stroke: #134a8e"/>
     <use xlink:href="#m862b86af42" x="223.403427" y="147.38227" style="fill: #134a8e; stroke: #134a8e"/>
     <use xlink:href="#m862b86af42" x="224.801422" y="147.288194" style="fill: #134a8e; stroke: #134a8e"/>
     <use xlink:href="#m862b86af42" x="226.199418" y="147.557163" style="fill: #134a8e; stroke: #134a8e"/>
     <use xlink:href="#m862b86af42" x="227.597414" y="146.550224" style="fill: #134a8e; stroke: #134a8e"/>
     <use xlink:href="#m862b86af42" x="228.995409" y="146.340689" style="fill: #134a8e; stroke: #134a8e"/>
     <use xlink:href="#m862b86af42" x="230.393405" y="146.633834" style="fill: #134a8e; stroke: #134a8e"/>
     <use xlink:href="#m862b86af42" x="231.791401" y="146.461279" style="fill: #134a8e; stroke: #134a8e"/>
     <use xlink:href="#m862b86af42" x="233.189396" y="146.511886" style="fill: #134a8e; stroke: #134a8e"/>
     <use xlink:href="#m862b86af42" x="234.587392" y="146.197678" style="fill: #134a8e; stroke: #134a8e"/>
     <use xlink:href="#m862b86af42" x="235.985388" y="142.304073" style="fill: #134a8e; stroke: #134a8e"/>
     <use xlink:href="#m862b86af42" x="237.383384" y="142.228513" style="fill: #134a8e; stroke: #134a8e"/>
     <use xlink:href="#m862b86af42" x="238.781379" y="142.394161" style="fill: #134a8e; stroke: #134a8e"/>
     <use xlink:href="#m862b86af42" x="240.179375" y="142.416478" style="fill: #134a8e; stroke: #134a8e"/>
     <use xlink:href="#m862b86af42" x="241.577371" y="141.929522" style="fill: #134a8e; stroke: #134a8e"/>
     <use xlink:href="#m862b86af42" x="242.975366" y="142.481985" style="fill: #134a8e; stroke: #134a8e"/>
     <use xlink:href="#m862b86af42" x="244.373362" y="140.345542" style="fill: #134a8e; stroke: #134a8e"/>
     <use xlink:href="#m862b86af42" x="245.771358" y="140.391794" style="fill: #134a8e; stroke: #134a8e"/>
     <use xlink:href="#m862b86af42" x="247.169354" y="139.9747" style="fill: #134a8e; stroke: #134a8e"/>
     <use xlink:href="#m862b86af42" x="248.567349" y="140.109649" style="fill: #134a8e; stroke: #134a8e"/>
     <use xlink:href="#m862b86af42" x="249.965345" y="139.024188" style="fill: #134a8e; stroke: #134a8e"/>
     <use xlink:href="#m862b86af42" x="251.363341" y="138.829281" style="fill: #134a8e; stroke: #134a8e"/>
     <use xlink:href="#m862b86af42" x="252.761336" y="137.496643" style="fill: #134a8e; stroke: #134a8e"/>
     <use xlink:href="#m862b86af42" x="254.159332" y="134.038586" style="fill: #134a8e; stroke: #134a8e"/>
     <use xlink:href="#m862b86af42" x="255.557328" y="133.945411" style="fill: #134a8e; stroke: #134a8e"/>
     <use xlink:href="#m862b86af42" x="256.955323" y="133.63449" style="fill: #134a8e; stroke: #134a8e"/>
     <use xlink:href="#m862b86af42" x="258.353319" y="133.504977" style="fill: #134a8e; stroke: #134a8e"/>
     <use xlink:href="#m862b86af42" x="259.751315" y="133.092482" style="fill: #134a8e; stroke: #134a8e"/>
     <use xlink:href="#m862b86af42" x="261.149311" y="131.029935" style="fill: #134a8e; stroke: #134a8e"/>
     <use xlink:href="#m862b86af42" x="262.547306" y="129.133427" style="fill: #134a8e; stroke: #134a8e"/>
     <use xlink:href="#m862b86af42" x="263.945302" y="120.492293" style="fill: #134a8e; stroke: #134a8e"/>
     <use xlink:href="#m862b86af42" x="265.343298" y="118.511496" style="fill: #134a8e; stroke: #134a8e"/>
     <use xlink:href="#m862b86af42" x="266.741293" y="115.144864" style="fill: #134a8e; stroke: #134a8e"/>
     <use xlink:href="#m862b86af42" x="268.139289" y="114.890303" style="fill: #134a8e; stroke: #134a8e"/>
     <use xlink:href="#m862b86af42" x="269.537285" y="114.664545" style="fill: #134a8e; stroke: #134a8e"/>
     <use xlink:href="#m862b86af42" x="270.935281" y="112.66632" style="fill: #134a8e; stroke: #134a8e"/>
     <use xlink:href="#m862b86af42" x="272.333276" y="113.933515" style="fill: #134a8e; stroke: #134a8e"/>
     <use xlink:href="#m862b86af42" x="273.731272" y="113.4653" style="fill: #134a8e; stroke: #134a8e"/>
     <use xlink:href="#m862b86af42" x="275.129268" y="114.044806" style="fill: #134a8e; stroke: #134a8e"/>
     <use xlink:href="#m862b86af42" x="276.527263" y="111.526686" style="fill: #134a8e; stroke: #134a8e"/>
     <use xlink:href="#m862b86af42" x="277.925259" y="110.715053" style="fill: #134a8e; stroke: #134a8e"/>
     <use xlink:href="#m862b86af42" x="279.323255" y="111.736325" style="fill: #134a8e; stroke: #134a8e"/>
     <use xlink:href="#m862b86af42" x="280.72125" y="111.198689" style="fill: #134a8e; stroke: #134a8e"/>
     <use xlink:href="#m862b86af42" x="282.119246" y="111.300888" style="fill: #134a8e; stroke: #134a8e"/>
     <use xlink:href="#m862b86af42" x="283.517242" y="113.066742" style="fill: #134a8e; stroke: #134a8e"/>
     <use xlink:href="#m862b86af42" x="284.915238" y="112.681944" style="fill: #134a8e; stroke: #134a8e"/>
     <use xlink:href="#m862b86af42" x="286.313233" y="112.432623" style="fill: #134a8e; stroke: #134a8e"/>
     <use xlink:href="#m862b86af42" x="287.711229" y="112.332043" style="fill: #134a8e; stroke: #134a8e"/>
     <use xlink:href="#m862b86af42" x="289.109225" y="113.472226" style="fill: #134a8e; stroke: #134a8e"/>
     <use xlink:href="#m862b86af42" x="290.50722" y="109.337532" style="fill: #134a8e; stroke: #134a8e"/>
     <use xlink:href="#m862b86af42" x="291.905216" y="109.220368" style="fill: #134a8e; stroke: #134a8e"/>
     <use xlink:href="#m862b86af42" x="293.303212" y="108.939247" style="fill: #134a8e; stroke: #134a8e"/>
     <use xlink:href="#m862b86af42" x="294.701207" y="108.803132" style="fill: #134a8e; stroke: #134a8e"/>
     <use xlink:href="#m862b86af42" x="296.099203" y="108.753406" style="fill: #134a8e; stroke: #134a8e"/>
     <use xlink:href="#m862b86af42" x="297.497199" y="108.917609" style="fill: #134a8e; stroke: #134a8e"/>
     <use xlink:href="#m862b86af42" x="298.895195" y="108.268466" style="fill: #134a8e; stroke: #134a8e"/>
     <use xlink:href="#m862b86af42" x="300.29319" y="107.24821" style="fill: #134a8e; stroke: #134a8e"/>
     <use xlink:href="#m862b86af42" x="301.691186" y="107.932076" style="fill: #134a8e; stroke: #134a8e"/>
     <use xlink:href="#m862b86af42" x="303.089182" y="106.170707" style="fill: #134a8e; stroke: #134a8e"/>
     <use xlink:href="#m862b86af42" x="304.487177" y="105.630527" style="fill: #134a8e; stroke: #134a8e"/>
     <use xlink:href="#m862b86af42" x="305.885173" y="103.645154" style="fill: #134a8e; stroke: #134a8e"/>
     <use xlink:href="#m862b86af42" x="307.283169" y="103.074145" style="fill: #134a8e; stroke: #134a8e"/>
     <use xlink:href="#m862b86af42" x="308.681165" y="106.685132" style="fill: #134a8e; stroke: #134a8e"/>
     <use xlink:href="#m862b86af42" x="310.07916" y="105.91226" style="fill: #134a8e; stroke: #134a8e"/>
     <use xlink:href="#m862b86af42" x="311.477156" y="103.781444" style="fill: #134a8e; stroke: #134a8e"/>
     <use xlink:href="#m862b86af42" x="312.875152" y="102.215133" style="fill: #134a8e; stroke: #134a8e"/>
     <use xlink:href="#m862b86af42" x="314.273147" y="103.274853" style="fill: #134a8e; stroke: #134a8e"/>
     <use xlink:href="#m862b86af42" x="315.671143" y="102.713826" style="fill: #134a8e; stroke: #134a8e"/>
     <use xlink:href="#m862b86af42" x="317.069139" y="102.923357" style="fill: #134a8e; stroke: #134a8e"/>
     <use xlink:href="#m862b86af42" x="318.467134" y="102.539559" style="fill: #134a8e; stroke: #134a8e"/>
     <use xlink:href="#m862b86af42" x="319.86513" y="102.627426" style="fill: #134a8e; stroke: #134a8e"/>
     <use xlink:href="#m862b86af42" x="321.263126" y="102.488596" style="fill: #134a8e; stroke: #134a8e"/>
     <use xlink:href="#m862b86af42" x="322.661122" y="100.787073" style="fill: #134a8e; stroke: #134a8e"/>
     <use xlink:href="#m862b86af42" x="324.059117" y="101.839107" style="fill: #134a8e; stroke: #134a8e"/>
     <use xlink:href="#m862b86af42" x="325.457113" y="101.644637" style="fill: #134a8e; stroke: #134a8e"/>
     <use xlink:href="#m862b86af42" x="326.855109" y="101.816683" style="fill: #134a8e; stroke: #134a8e"/>
     <use xlink:href="#m862b86af42" x="328.253104" y="100.971553" style="fill: #134a8e; stroke: #134a8e"/>
     <use xlink:href="#m862b86af42" x="329.6511" y="101.25281" style="fill: #134a8e; stroke: #134a8e"/>
     <use xlink:href="#m862b86af42" x="331.049096" y="100.653839" style="fill: #134a8e; stroke: #134a8e"/>
     <use xlink:href="#m862b86af42" x="332.447092" y="100.187648" style="fill: #134a8e; stroke: #134a8e"/>
     <use xlink:href="#m862b86af42" x="333.845087" y="100.751096" style="fill: #134a8e; stroke: #134a8e"/>
     <use xlink:href="#m862b86af42" x="335.243083" y="99.651458" style="fill: #134a8e; stroke: #134a8e"/>
     <use xlink:href="#m862b86af42" x="336.641079" y="100.407845" style="fill: #134a8e; stroke: #134a8e"/>
     <use xlink:href="#m862b86af42" x="338.039074" y="99.388146" style="fill: #134a8e; stroke: #134a8e"/>
     <use xlink:href="#m862b86af42" x="339.43707" y="101.765754" style="fill: #134a8e; stroke: #134a8e"/>
     <use xlink:href="#m862b86af42" x="340.835066" y="104.038116" style="fill: #134a8e; stroke: #134a8e"/>
     <use xlink:href="#m862b86af42" x="342.233061" y="105.8206" style="fill: #134a8e; stroke: #134a8e"/>
     <use xlink:href="#m862b86af42" x="343.631057" y="106.734917" style="fill: #134a8e; stroke: #134a8e"/>
     <use xlink:href="#m862b86af42" x="345.029053" y="103.818884" style="fill: #134a8e; stroke: #134a8e"/>
     <use xlink:href="#m862b86af42" x="346.427049" y="103.321008" style="fill: #134a8e; stroke: #134a8e"/>
     <use xlink:href="#m862b86af42" x="347.825044" y="104.142139" style="fill: #134a8e; stroke: #134a8e"/>
     <use xlink:href="#m862b86af42" x="349.22304" y="104.647144" style="fill: #134a8e; stroke: #134a8e"/>
     <use xlink:href="#m862b86af42" x="350.621036" y="104.940557" style="fill: #134a8e; stroke: #134a8e"/>
     <use xlink:href="#m862b86af42" x="352.019031" y="105.644935" style="fill: #134a8e; stroke: #134a8e"/>
     <use xlink:href="#m862b86af42" x="353.417027" y="108.992834" style="fill: #134a8e; stroke: #134a8e"/>
     <use xlink:href="#m862b86af42" x="354.815023" y="112.921449" style="fill: #134a8e; stroke: #134a8e"/>
     <use xlink:href="#m862b86af42" x="356.213019" y="113.112271" style="fill: #134a8e; stroke: #134a8e"/>
     <use xlink:href="#m862b86af42" x="357.611014" y="116.108724" style="fill: #134a8e; stroke: #134a8e"/>
     <use xlink:href="#m862b86af42" x="359.00901" y="113.777748" style="fill: #134a8e; stroke: #134a8e"/>
     <use xlink:href="#m862b86af42" x="360.407006" y="116.90379" style="fill: #134a8e; stroke: #134a8e"/>
     <use xlink:href="#m862b86af42" x="361.805001" y="121.606437" style="fill: #134a8e; stroke: #134a8e"/>
     <use xlink:href="#m862b86af42" x="363.202997" y="129.410782" style="fill: #134a8e; stroke: #134a8e"/>
     <use xlink:href="#m862b86af42" x="364.600993" y="129.998896" style="fill: #134a8e; stroke: #134a8e"/>
     <use xlink:href="#m862b86af42" x="365.998988" y="129.96511" style="fill: #134a8e; stroke: #134a8e"/>
     <use xlink:href="#m862b86af42" x="367.396984" y="133.033142" style="fill: #134a8e; stroke: #134a8e"/>
     <use xlink:href="#m862b86af42" x="368.79498" y="133.653522" style="fill: #134a8e; stroke: #134a8e"/>
     <use xlink:href="#m862b86af42" x="370.192976" y="135.130755" style="fill: #134a8e; stroke: #134a8e"/>
     <use xlink:href="#m862b86af42" x="371.590971" y="135.902593" style="fill: #134a8e; stroke: #134a8e"/>
     <use xlink:href="#m862b86af42" x="372.988967" y="138.737493" style="fill: #134a8e; stroke: #134a8e"/>
     <use xlink:href="#m862b86af42" x="374.386963" y="143.745593" style="fill: #134a8e; stroke: #134a8e"/>
     <use xlink:href="#m862b86af42" x="375.784958" y="143.636444" style="fill: #134a8e; stroke: #134a8e"/>
     <use xlink:href="#m862b86af42" x="377.182954" y="145.60388" style="fill: #134a8e; stroke: #134a8e"/>
     <use xlink:href="#m862b86af42" x="378.58095" y="146.378065" style="fill: #134a8e; stroke: #134a8e"/>
     <use xlink:href="#m862b86af42" x="379.978946" y="147.031433" style="fill: #134a8e; stroke: #134a8e"/>
     <use xlink:href="#m862b86af42" x="381.376941" y="149.195571" style="fill: #134a8e; stroke: #134a8e"/>
     <use xlink:href="#m862b86af42" x="382.774937" y="150.411655" style="fill: #134a8e; stroke: #134a8e"/>
     <use xlink:href="#m862b86af42" x="384.172933" y="150.105957" style="fill: #134a8e; stroke: #134a8e"/>
     <use xlink:href="#m862b86af42" x="385.570928" y="150.3425" style="fill: #134a8e; stroke: #134a8e"/>
     <use xlink:href="#m862b86af42" x="386.968924" y="150.127524" style="fill: #134a8e; stroke: #134a8e"/>
     <use xlink:href="#m862b86af42" x="388.36692" y="150.285439" style="fill: #134a8e; stroke: #134a8e"/>
     <use xlink:href="#m862b86af42" x="389.764915" y="153.014544" style="fill: #134a8e; stroke: #134a8e"/>
     <use xlink:href="#m862b86af42" x="391.162911" y="152.895321" style="fill: #134a8e; stroke: #134a8e"/>
     <use xlink:href="#m862b86af42" x="392.560907" y="152.969017" style="fill: #134a8e; stroke: #134a8e"/>
     <use xlink:href="#m862b86af42" x="393.958903" y="153.011874" style="fill: #134a8e; stroke: #134a8e"/>
     <use xlink:href="#m862b86af42" x="395.356898" y="153.035824" style="fill: #134a8e; stroke: #134a8e"/>
     <use xlink:href="#m862b86af42" x="396.754894" y="153.022261" style="fill: #134a8e; stroke: #134a8e"/>
     <use xlink:href="#m862b86af42" x="398.15289" y="153.362541" style="fill: #134a8e; stroke: #134a8e"/>
     <use xlink:href="#m862b86af42" x="399.550885" y="156.312426" style="fill: #134a8e; stroke: #134a8e"/>
     <use xlink:href="#m862b86af42" x="400.948881" y="156.319572" style="fill: #134a8e; stroke: #134a8e"/>
     <use xlink:href="#m862b86af42" x="402.346877" y="156.183554" style="fill: #134a8e; stroke: #134a8e"/>
     <use xlink:href="#m862b86af42" x="403.744872" y="156.55037" style="fill: #134a8e; stroke: #134a8e"/>
     <use xlink:href="#m862b86af42" x="405.142868" y="156.419305" style="fill: #134a8e; stroke: #134a8e"/>
     <use xlink:href="#m862b86af42" x="406.540864" y="156.69287" style="fill: #134a8e; stroke: #134a8e"/>
     <use xlink:href="#m862b86af42" x="407.93886" y="156.654774" style="fill: #134a8e; stroke: #134a8e"/>
     <use xlink:href="#m862b86af42" x="409.336855" y="156.392909" style="fill: #134a8e; stroke: #134a8e"/>
     <use xlink:href="#m862b86af42" x="410.734851" y="156.515498" style="fill: #134a8e; stroke: #134a8e"/>
     <use xlink:href="#m862b86af42" x="412.132847" y="156.54973" style="fill: #134a8e; stroke: #134a8e"/>
     <use xlink:href="#m862b86af42" x="413.530842" y="156.506422" style="fill: #134a8e; stroke: #134a8e"/>
     <use xlink:href="#m862b86af42" x="414.928838" y="156.537015" style="fill: #134a8e; stroke: #134a8e"/>
     <use xlink:href="#m862b86af42" x="416.326834" y="156.598439" style="fill: #134a8e; stroke: #134a8e"/>
     <use xlink:href="#m862b86af42" x="417.72483" y="156.44484" style="fill: #134a8e; stroke: #134a8e"/>
    </g>
   </g>
   <g id="line2d_28">
    <path d="M 62.63392 19.097359 
L 64.031916 24.305307 
L 65.429912 28.834118 
L 66.827908 23.102451 
L 68.225903 30.761608 
L 69.623899 39.688247 
L 71.021895 43.365314 
L 72.41989 48.651873 
L 73.817886 50.654536 
L 75.215882 50.71428 
L 76.613878 53.029546 
L 78.011873 54.973043 
L 79.409869 50.208352 
L 80.807865 66.795562 
L 82.20586 71.969539 
L 83.603856 78.264625 
L 85.001852 81.90814 
L 86.399847 90.506228 
L 89.195839 95.218433 
L 90.593835 94.472505 
L 91.99183 101.436134 
L 93.389826 102.57778 
L 94.787822 97.245302 
L 96.185817 100.180638 
L 97.583813 104.153203 
L 98.981809 111.542713 
L 101.7778 106.045464 
L 103.175796 108.194589 
L 104.573792 108.511665 
L 105.971787 110.025336 
L 107.369783 112.933829 
L 108.767779 116.567733 
L 110.165774 120.838182 
L 111.56377 116.735073 
L 112.961766 120.422255 
L 114.359762 128.233995 
L 115.757757 128.324648 
L 117.155753 128.205998 
L 118.553749 127.124479 
L 119.951744 126.275963 
L 121.34974 125.709685 
L 122.747736 126.300416 
L 124.145731 126.183908 
L 125.543727 124.208394 
L 126.941723 123.741144 
L 129.737714 123.173802 
L 131.13571 123.936243 
L 132.533706 125.461016 
L 133.931701 126.067028 
L 135.329697 127.326419 
L 136.727693 128.201861 
L 138.125689 129.78077 
L 139.523684 131.953745 
L 140.92168 132.385319 
L 142.319676 131.938985 
L 143.717671 133.075159 
L 145.115667 133.202326 
L 146.513663 131.711066 
L 147.911658 131.865472 
L 149.309654 136.241031 
L 150.70765 130.661855 
L 152.105646 131.283147 
L 153.503641 131.163832 
L 154.901637 131.218529 
L 156.299633 132.467077 
L 159.095624 132.195908 
L 160.49362 131.862763 
L 161.891616 132.773659 
L 163.289611 132.641655 
L 164.687607 134.53549 
L 166.085603 134.333807 
L 167.483598 134.312193 
L 168.881594 133.467991 
L 170.27959 135.744167 
L 173.075581 136.595699 
L 175.871573 137.982775 
L 177.269568 137.977901 
L 178.667564 140.077269 
L 180.06556 138.959292 
L 181.463555 140.881967 
L 182.861551 141.18168 
L 184.259547 141.267934 
L 185.657543 142.616216 
L 187.055538 142.989185 
L 188.453534 144.457702 
L 189.85153 143.42739 
L 191.249525 145.353873 
L 192.647521 147.006675 
L 195.443512 148.056573 
L 196.841508 148.938331 
L 198.239504 149.379967 
L 199.6375 148.309026 
L 201.035495 149.606228 
L 202.433491 150.262756 
L 203.831487 149.949433 
L 205.229482 149.442156 
L 206.627478 149.520491 
L 208.025474 149.192833 
L 209.423469 149.179408 
L 210.821465 149.588395 
L 212.219461 149.06864 
L 213.617457 148.385592 
L 215.015452 148.140714 
L 216.413448 148.84702 
L 217.811444 148.802903 
L 219.209439 149.379682 
L 220.607435 148.953054 
L 222.005431 148.857756 
L 223.403427 149.032156 
L 226.199418 149.553482 
L 228.995409 149.048187 
L 230.393405 148.491551 
L 233.189396 149.035258 
L 234.587392 148.725219 
L 235.985388 147.425938 
L 237.383384 146.551465 
L 238.781379 146.499364 
L 240.179375 145.923576 
L 241.577371 145.617012 
L 242.975366 145.148391 
L 244.373362 144.475415 
L 245.771358 143.478082 
L 247.169354 142.651147 
L 248.567349 143.109164 
L 249.965345 141.429474 
L 251.363341 139.936124 
L 252.761336 139.194183 
L 254.159332 136.562285 
L 255.557328 135.79217 
L 256.955323 136.763672 
L 258.353319 136.603669 
L 259.751315 133.822851 
L 261.149311 132.459814 
L 262.547306 131.827971 
L 263.945302 128.050939 
L 265.343298 126.826041 
L 266.741293 125.816837 
L 268.139289 124.638521 
L 269.537285 124.701745 
L 270.935281 123.314469 
L 272.333276 123.127887 
L 273.731272 124.750076 
L 275.129268 123.465318 
L 276.527263 118.614197 
L 277.925259 117.418248 
L 279.323255 119.761606 
L 280.72125 118.36336 
L 282.119246 116.687715 
L 283.517242 119.727073 
L 284.915238 119.049103 
L 286.313233 117.26488 
L 287.711229 117.353709 
L 289.109225 116.231829 
L 290.50722 114.93848 
L 291.905216 114.057047 
L 294.701207 114.257219 
L 296.099203 113.861847 
L 297.497199 115.078992 
L 298.895195 112.130988 
L 300.29319 112.190072 
L 301.691186 113.083754 
L 303.089182 111.745289 
L 304.487177 112.630473 
L 305.885173 111.326724 
L 307.283169 111.798156 
L 308.681165 111.246879 
L 310.07916 110.937017 
L 311.477156 108.990494 
L 312.875152 109.23071 
L 314.273147 108.837875 
L 315.671143 109.211308 
L 317.069139 110.17302 
L 318.467134 109.45136 
L 319.86513 108.029379 
L 321.263126 105.692016 
L 322.661122 105.492007 
L 324.059117 105.171664 
L 326.855109 107.615712 
L 328.253104 103.559842 
L 329.6511 105.25033 
L 331.049096 103.483557 
L 332.447092 101.420751 
L 333.845087 102.974967 
L 335.243083 101.412442 
L 336.641079 102.18021 
L 338.039074 101.700518 
L 339.43707 102.459619 
L 340.835066 104.05793 
L 342.233061 105.419516 
L 343.631057 104.449077 
L 345.029053 106.99626 
L 346.427049 106.523978 
L 347.825044 110.335577 
L 349.22304 110.71417 
L 350.621036 113.240642 
L 352.019031 113.868494 
L 353.417027 115.015711 
L 354.815023 118.659681 
L 356.213019 118.933737 
L 357.611014 120.066608 
L 359.00901 120.775274 
L 360.407006 124.40217 
L 361.805001 126.252413 
L 363.202997 129.528028 
L 365.998988 131.802083 
L 367.396984 134.037637 
L 370.192976 139.259587 
L 371.590971 140.587814 
L 372.988967 143.137957 
L 374.386963 143.713421 
L 375.784958 143.850467 
L 377.182954 146.308264 
L 378.58095 147.762802 
L 379.978946 148.595488 
L 381.376941 149.952206 
L 382.774937 150.903045 
L 384.172933 151.594279 
L 385.570928 151.19333 
L 386.968924 152.35831 
L 388.36692 153.168842 
L 391.162911 154.379905 
L 392.560907 154.305054 
L 393.958903 155.166426 
L 395.356898 154.846146 
L 396.754894 155.649056 
L 398.15289 155.934071 
L 399.550885 156.469203 
L 400.948881 156.489467 
L 402.346877 156.704283 
L 405.142868 156.793377 
L 406.540864 157.364464 
L 407.93886 157.260358 
L 410.734851 157.383827 
L 412.132847 157.67421 
L 413.530842 157.374085 
L 414.928838 158.76 
L 416.326834 156.89541 
L 417.72483 156.949473 
L 417.72483 156.949473 
" clip-path="url(#p0f8ade51ec)" style="fill: none; stroke-dasharray: 5.55,2.4; stroke-dashoffset: 0; stroke: #000000; stroke-width: 1.5"/>
   </g>
   <g id="patch_3">
    <path d="M 44.879375 166.32 
L 44.879375 -0 
" style="fill: none; stroke: #ffffff; stroke-linejoin: miter; stroke-linecap: square"/>
   </g>
   <g id="patch_4">
    <path d="M 435.479375 166.32 
L 435.479375 -0 
" style="fill: none; stroke: #ffffff; stroke-linejoin: miter; stroke-linecap: square"/>
   </g>
   <g id="patch_5">
    <path d="M 44.879375 166.32 
L 435.479375 166.32 
" style="fill: none; stroke: #ffffff; stroke-linejoin: miter; stroke-linecap: square"/>
   </g>
   <g id="patch_6">
    <path d="M 44.879375 -0 
L 435.479375 -0 
" style="fill: none; stroke: #ffffff; stroke-linejoin: miter; stroke-linecap: square"/>
   </g>
   <g id="legend_1">
    <g id="patch_7">
     <path d="M 276.4325 60.378125 
L 428.479375 60.378125 
Q 430.479375 60.378125 430.479375 58.378125 
L 430.479375 7 
Q 430.479375 5 428.479375 5 
L 276.4325 5 
Q 274.4325 5 274.4325 7 
L 274.4325 58.378125 
Q 274.4325 60.378125 276.4325 60.378125 
z
" style="fill: #e5e5e5; opacity: 0.8; stroke: #cccccc; stroke-width: 0.5; stroke-linejoin: miter"/>
    </g>
    <g id="line2d_29">
     <path d="M 278.4325 15.5 
L 288.4325 15.5 
L 298.4325 15.5 
" style="fill: none; stroke: #134a8e; stroke-width: 3; stroke-linecap: square"/>
     <g>
      <use xlink:href="#m862b86af42" x="288.4325" y="15.5" style="fill: #134a8e; stroke: #134a8e"/>
     </g>
    </g>
    <g id="text_16">
     <!-- Private Value $\tilde{R}_{\chi_1,\chi_2}^t$ -->
     <g transform="translate(306.4325 19) scale(0.1 -0.1)">
      <defs>
       <path id="DejaVuSans-50" d="M 1259 4147 
L 1259 2394 
L 2053 2394 
Q 2494 2394 2734 2622 
Q 2975 2850 2975 3272 
Q 2975 3691 2734 3919 
Q 2494 4147 2053 4147 
L 1259 4147 
z
M 628 4666 
L 2053 4666 
Q 2838 4666 3239 4311 
Q 3641 3956 3641 3272 
Q 3641 2581 3239 2228 
Q 2838 1875 2053 1875 
L 1259 1875 
L 1259 0 
L 628 0 
L 628 4666 
z
" transform="scale(0.015625)"/>
       <path id="DejaVuSans-72" d="M 2631 2963 
Q 2534 3019 2420 3045 
Q 2306 3072 2169 3072 
Q 1681 3072 1420 2755 
Q 1159 2438 1159 1844 
L 1159 0 
L 581 0 
L 581 3500 
L 1159 3500 
L 1159 2956 
Q 1341 3275 1631 3429 
Q 1922 3584 2338 3584 
Q 2397 3584 2469 3576 
Q 2541 3569 2628 3553 
L 2631 2963 
z
" transform="scale(0.015625)"/>
       <path id="DejaVuSans-69" d="M 603 3500 
L 1178 3500 
L 1178 0 
L 603 0 
L 603 3500 
z
M 603 4863 
L 1178 4863 
L 1178 4134 
L 603 4134 
L 603 4863 
z
" transform="scale(0.015625)"/>
       <path id="DejaVuSans-76" d="M 191 3500 
L 800 3500 
L 1894 563 
L 2988 3500 
L 3597 3500 
L 2284 0 
L 1503 0 
L 191 3500 
z
" transform="scale(0.015625)"/>
       <path id="DejaVuSans-20" transform="scale(0.015625)"/>
       <path id="DejaVuSans-303" d="M -1621 4281 
L -1799 4453 
Q -1867 4516 -1919 4545 
Q -1971 4575 -2011 4575 
Q -2130 4575 -2186 4461 
Q -2242 4347 -2249 4091 
L -2639 4091 
Q -2633 4513 -2473 4742 
Q -2314 4972 -2030 4972 
Q -1911 4972 -1811 4928 
Q -1711 4884 -1596 4781 
L -1417 4609 
Q -1349 4547 -1297 4517 
Q -1246 4488 -1205 4488 
Q -1086 4488 -1030 4602 
Q -974 4716 -967 4972 
L -577 4972 
Q -583 4550 -742 4320 
Q -902 4091 -1186 4091 
Q -1305 4091 -1405 4134 
Q -1505 4178 -1621 4281 
z
" transform="scale(0.015625)"/>
       <path id="DejaVuSans-Oblique-52" d="M 1613 4147 
L 1294 2491 
L 2106 2491 
Q 2584 2491 2879 2755 
Q 3175 3019 3175 3444 
Q 3175 3784 2976 3965 
Q 2778 4147 2406 4147 
L 1613 4147 
z
M 2772 2241 
Q 2972 2194 3105 2009 
Q 3238 1825 3413 1275 
L 3809 0 
L 3144 0 
L 2778 1197 
Q 2638 1659 2453 1815 
Q 2269 1972 1888 1972 
L 1191 1972 
L 806 0 
L 172 0 
L 1081 4666 
L 2503 4666 
Q 3150 4666 3495 4373 
Q 3841 4081 3841 3531 
Q 3841 3044 3547 2687 
Q 3253 2331 2772 2241 
z
" transform="scale(0.015625)"/>
       <path id="DejaVuSans-Oblique-74" d="M 2706 3500 
L 2619 3053 
L 1472 3053 
L 1100 1153 
Q 1081 1047 1072 975 
Q 1063 903 1063 863 
Q 1063 663 1183 572 
Q 1303 481 1569 481 
L 2150 481 
L 2053 0 
L 1503 0 
Q 991 0 739 200 
Q 488 400 488 806 
Q 488 878 497 964 
Q 506 1050 525 1153 
L 897 3053 
L 409 3053 
L 500 3500 
L 978 3500 
L 1172 4494 
L 1747 4494 
L 1556 3500 
L 2706 3500 
z
" transform="scale(0.015625)"/>
       <path id="DejaVuSans-Oblique-3c7" d="M 1922 -781 
L 1691 416 
L 394 -1334 
L -284 -1334 
L 1553 1141 
L 1269 2613 
Q 1194 3006 713 3006 
L 559 3006 
L 653 3500 
L 872 3494 
Q 1675 3472 1775 2950 
L 2006 1753 
L 3303 3503 
L 3981 3503 
L 2144 1028 
L 2428 -444 
Q 2503 -838 2984 -838 
L 3138 -838 
L 3044 -1331 
L 2825 -1325 
Q 2022 -1303 1922 -781 
z
" transform="scale(0.015625)"/>
       <path id="DejaVuSans-2c" d="M 750 794 
L 1409 794 
L 1409 256 
L 897 -744 
L 494 -744 
L 750 256 
L 750 794 
z
" transform="scale(0.015625)"/>
      </defs>
      <use xlink:href="#DejaVuSans-50" transform="translate(0 0.828125)"/>
      <use xlink:href="#DejaVuSans-72" transform="translate(60.302734 0.828125)"/>
      <use xlink:href="#DejaVuSans-69" transform="translate(101.416016 0.828125)"/>
      <use xlink:href="#DejaVuSans-76" transform="translate(129.199219 0.828125)"/>
      <use xlink:href="#DejaVuSans-61" transform="translate(188.378906 0.828125)"/>
      <use xlink:href="#DejaVuSans-74" transform="translate(249.658203 0.828125)"/>
      <use xlink:href="#DejaVuSans-65" transform="translate(288.867188 0.828125)"/>
      <use xlink:href="#DejaVuSans-20" transform="translate(350.390625 0.828125)"/>
      <use xlink:href="#DejaVuSans-56" transform="translate(382.177734 0.828125)"/>
      <use xlink:href="#DejaVuSans-61" transform="translate(450.585938 0.828125)"/>
      <use xlink:href="#DejaVuSans-6c" transform="translate(511.865234 0.828125)"/>
      <use xlink:href="#DejaVuSans-75" transform="translate(539.648438 0.828125)"/>
      <use xlink:href="#DejaVuSans-65" transform="translate(603.027344 0.828125)"/>
      <use xlink:href="#DejaVuSans-20" transform="translate(664.550781 0.828125)"/>
      <use xlink:href="#DejaVuSans-303" transform="translate(764.942871 22.3125)"/>
      <use xlink:href="#DejaVuSans-Oblique-52" transform="translate(696.337891 0.828125)"/>
      <use xlink:href="#DejaVuSans-Oblique-74" transform="translate(766.777344 39.109375) scale(0.7)"/>
      <use xlink:href="#DejaVuSans-Oblique-3c7" transform="translate(766.777344 -26.515625) scale(0.7)"/>
      <use xlink:href="#DejaVuSans-31" transform="translate(808.203125 -38) scale(0.49)"/>
      <use xlink:href="#DejaVuSans-2c" transform="translate(841.29248 -26.515625) scale(0.7)"/>
      <use xlink:href="#DejaVuSans-Oblique-3c7" transform="translate(877.181152 -26.515625) scale(0.7)"/>
      <use xlink:href="#DejaVuSans-32" transform="translate(918.606934 -38) scale(0.49)"/>
     </g>
    </g>
    <g id="line2d_30">
     <path d="M 278.4325 34 
L 288.4325 34 
L 298.4325 34 
" style="fill: none; stroke-dasharray: 5.55,2.4; stroke-dashoffset: 0; stroke: #000000; stroke-width: 1.5"/>
    </g>
    <g id="text_17">
     <!-- Original Value $\bar{R}_{\chi_1,\chi_2}^t$ -->
     <g transform="translate(306.4325 37.5) scale(0.1 -0.1)">
      <defs>
       <path id="DejaVuSans-4f" d="M 2522 4238 
Q 1834 4238 1429 3725 
Q 1025 3213 1025 2328 
Q 1025 1447 1429 934 
Q 1834 422 2522 422 
Q 3209 422 3611 934 
Q 4013 1447 4013 2328 
Q 4013 3213 3611 3725 
Q 3209 4238 2522 4238 
z
M 2522 4750 
Q 3503 4750 4090 4092 
Q 4678 3434 4678 2328 
Q 4678 1225 4090 567 
Q 3503 -91 2522 -91 
Q 1538 -91 948 565 
Q 359 1222 359 2328 
Q 359 3434 948 4092 
Q 1538 4750 2522 4750 
z
" transform="scale(0.015625)"/>
       <path id="DejaVuSans-67" d="M 2906 1791 
Q 2906 2416 2648 2759 
Q 2391 3103 1925 3103 
Q 1463 3103 1205 2759 
Q 947 2416 947 1791 
Q 947 1169 1205 825 
Q 1463 481 1925 481 
Q 2391 481 2648 825 
Q 2906 1169 2906 1791 
z
M 3481 434 
Q 3481 -459 3084 -895 
Q 2688 -1331 1869 -1331 
Q 1566 -1331 1297 -1286 
Q 1028 -1241 775 -1147 
L 775 -588 
Q 1028 -725 1275 -790 
Q 1522 -856 1778 -856 
Q 2344 -856 2625 -561 
Q 2906 -266 2906 331 
L 2906 616 
Q 2728 306 2450 153 
Q 2172 0 1784 0 
Q 1141 0 747 490 
Q 353 981 353 1791 
Q 353 2603 747 3093 
Q 1141 3584 1784 3584 
Q 2172 3584 2450 3431 
Q 2728 3278 2906 2969 
L 2906 3500 
L 3481 3500 
L 3481 434 
z
" transform="scale(0.015625)"/>
       <path id="DejaVuSans-6e" d="M 3513 2113 
L 3513 0 
L 2938 0 
L 2938 2094 
Q 2938 2591 2744 2837 
Q 2550 3084 2163 3084 
Q 1697 3084 1428 2787 
Q 1159 2491 1159 1978 
L 1159 0 
L 581 0 
L 581 3500 
L 1159 3500 
L 1159 2956 
Q 1366 3272 1645 3428 
Q 1925 3584 2291 3584 
Q 2894 3584 3203 3211 
Q 3513 2838 3513 2113 
z
" transform="scale(0.015625)"/>
       <path id="DejaVuSans-304" d="M -2518 4769 
L -650 4769 
L -650 4306 
L -2518 4306 
L -2518 4769 
z
" transform="scale(0.015625)"/>
      </defs>
      <use xlink:href="#DejaVuSans-4f" transform="translate(0 0.359375)"/>
      <use xlink:href="#DejaVuSans-72" transform="translate(78.710938 0.359375)"/>
      <use xlink:href="#DejaVuSans-69" transform="translate(119.824219 0.359375)"/>
      <use xlink:href="#DejaVuSans-67" transform="translate(147.607422 0.359375)"/>
      <use xlink:href="#DejaVuSans-69" transform="translate(211.083984 0.359375)"/>
      <use xlink:href="#DejaVuSans-6e" transform="translate(238.867188 0.359375)"/>
      <use xlink:href="#DejaVuSans-61" transform="translate(302.246094 0.359375)"/>
      <use xlink:href="#DejaVuSans-6c" transform="translate(363.525391 0.359375)"/>
      <use xlink:href="#DejaVuSans-20" transform="translate(391.308594 0.359375)"/>
      <use xlink:href="#DejaVuSans-56" transform="translate(423.095703 0.359375)"/>
      <use xlink:href="#DejaVuSans-61" transform="translate(491.503906 0.359375)"/>
      <use xlink:href="#DejaVuSans-6c" transform="translate(552.783203 0.359375)"/>
      <use xlink:href="#DejaVuSans-75" transform="translate(580.566406 0.359375)"/>
      <use xlink:href="#DejaVuSans-65" transform="translate(643.945312 0.359375)"/>
      <use xlink:href="#DejaVuSans-20" transform="translate(705.46875 0.359375)"/>
      <use xlink:href="#DejaVuSans-304" transform="translate(804.970215 18.484375)"/>
      <use xlink:href="#DejaVuSans-Oblique-52" transform="translate(737.255859 0.359375)"/>
      <use xlink:href="#DejaVuSans-Oblique-74" transform="translate(807.695312 38.640625) scale(0.7)"/>
      <use xlink:href="#DejaVuSans-Oblique-3c7" transform="translate(807.695312 -26.984375) scale(0.7)"/>
      <use xlink:href="#DejaVuSans-31" transform="translate(849.121094 -38.46875) scale(0.49)"/>
      <use xlink:href="#DejaVuSans-2c" transform="translate(882.210449 -26.984375) scale(0.7)"/>
      <use xlink:href="#DejaVuSans-Oblique-3c7" transform="translate(918.099121 -26.984375) scale(0.7)"/>
      <use xlink:href="#DejaVuSans-32" transform="translate(959.524902 -38.46875) scale(0.49)"/>
     </g>
    </g>
    <g id="patch_8">
     <path d="M 278.4325 54.298437 
L 298.4325 54.298437 
L 298.4325 47.298437 
L 278.4325 47.298437 
z
" style="fill: #134a8e; fill-opacity: 0.5; stroke: #134a8e; stroke-opacity: 0.5; stroke-width: 0.5; stroke-linejoin: miter"/>
    </g>
    <g id="text_18">
     <!-- One Standard Deviation -->
     <g transform="translate(306.4325 54.298437) scale(0.1 -0.1)">
      <defs>
       <path id="DejaVuSans-53" d="M 3425 4513 
L 3425 3897 
Q 3066 4069 2747 4153 
Q 2428 4238 2131 4238 
Q 1616 4238 1336 4038 
Q 1056 3838 1056 3469 
Q 1056 3159 1242 3001 
Q 1428 2844 1947 2747 
L 2328 2669 
Q 3034 2534 3370 2195 
Q 3706 1856 3706 1288 
Q 3706 609 3251 259 
Q 2797 -91 1919 -91 
Q 1588 -91 1214 -16 
Q 841 59 441 206 
L 441 856 
Q 825 641 1194 531 
Q 1563 422 1919 422 
Q 2459 422 2753 634 
Q 3047 847 3047 1241 
Q 3047 1584 2836 1778 
Q 2625 1972 2144 2069 
L 1759 2144 
Q 1053 2284 737 2584 
Q 422 2884 422 3419 
Q 422 4038 858 4394 
Q 1294 4750 2059 4750 
Q 2388 4750 2728 4690 
Q 3069 4631 3425 4513 
z
" transform="scale(0.015625)"/>
       <path id="DejaVuSans-64" d="M 2906 2969 
L 2906 4863 
L 3481 4863 
L 3481 0 
L 2906 0 
L 2906 525 
Q 2725 213 2448 61 
Q 2172 -91 1784 -91 
Q 1150 -91 751 415 
Q 353 922 353 1747 
Q 353 2572 751 3078 
Q 1150 3584 1784 3584 
Q 2172 3584 2448 3432 
Q 2725 3281 2906 2969 
z
M 947 1747 
Q 947 1113 1208 752 
Q 1469 391 1925 391 
Q 2381 391 2643 752 
Q 2906 1113 2906 1747 
Q 2906 2381 2643 2742 
Q 2381 3103 1925 3103 
Q 1469 3103 1208 2742 
Q 947 2381 947 1747 
z
" transform="scale(0.015625)"/>
       <path id="DejaVuSans-6f" d="M 1959 3097 
Q 1497 3097 1228 2736 
Q 959 2375 959 1747 
Q 959 1119 1226 758 
Q 1494 397 1959 397 
Q 2419 397 2687 759 
Q 2956 1122 2956 1747 
Q 2956 2369 2687 2733 
Q 2419 3097 1959 3097 
z
M 1959 3584 
Q 2709 3584 3137 3096 
Q 3566 2609 3566 1747 
Q 3566 888 3137 398 
Q 2709 -91 1959 -91 
Q 1206 -91 779 398 
Q 353 888 353 1747 
Q 353 2609 779 3096 
Q 1206 3584 1959 3584 
z
" transform="scale(0.015625)"/>
      </defs>
      <use xlink:href="#DejaVuSans-4f"/>
      <use xlink:href="#DejaVuSans-6e" x="78.710938"/>
      <use xlink:href="#DejaVuSans-65" x="142.089844"/>
      <use xlink:href="#DejaVuSans-20" x="203.613281"/>
      <use xlink:href="#DejaVuSans-53" x="235.400391"/>
      <use xlink:href="#DejaVuSans-74" x="298.876953"/>
      <use xlink:href="#DejaVuSans-61" x="338.085938"/>
      <use xlink:href="#DejaVuSans-6e" x="399.365234"/>
      <use xlink:href="#DejaVuSans-64" x="462.744141"/>
      <use xlink:href="#DejaVuSans-61" x="526.220703"/>
      <use xlink:href="#DejaVuSans-72" x="587.5"/>
      <use xlink:href="#DejaVuSans-64" x="626.863281"/>
      <use xlink:href="#DejaVuSans-20" x="690.339844"/>
      <use xlink:href="#DejaVuSans-44" x="722.126953"/>
      <use xlink:href="#DejaVuSans-65" x="799.128906"/>
      <use xlink:href="#DejaVuSans-76" x="860.652344"/>
      <use xlink:href="#DejaVuSans-69" x="919.832031"/>
      <use xlink:href="#DejaVuSans-61" x="947.615234"/>
      <use xlink:href="#DejaVuSans-74" x="1008.894531"/>
      <use xlink:href="#DejaVuSans-69" x="1048.103516"/>
      <use xlink:href="#DejaVuSans-6f" x="1075.886719"/>
      <use xlink:href="#DejaVuSans-6e" x="1137.068359"/>
     </g>
    </g>
   </g>
  </g>
 </g>
 <defs>
  <clipPath id="p0f8ade51ec">
   <rect x="44.879375" y="-0" width="390.6" height="166.32"/>
  </clipPath>
 </defs>
</svg>
