<?xml version="1.0" encoding="utf-8" standalone="no"?>
<!DOCTYPE svg PUBLIC "-//W3C//DTD SVG 1.1//EN"
  "http://www.w3.org/Graphics/SVG/1.1/DTD/svg11.dtd">
<svg xmlns:xlink="http://www.w3.org/1999/xlink" width="450.737567pt" height="201.450944pt" viewBox="0 0 450.737567 201.450944" xmlns="http://www.w3.org/2000/svg" version="1.1">
 <metadata>
  <rdf:RDF xmlns:dc="http://purl.org/dc/elements/1.1/" xmlns:cc="http://creativecommons.org/ns#" xmlns:rdf="http://www.w3.org/1999/02/22-rdf-syntax-ns#">
   <cc:Work>
    <dc:type rdf:resource="http://purl.org/dc/dcmitype/StillImage"/>
    <dc:date>2024-09-17T17:34:42.325942</dc:date>
    <dc:format>image/svg+xml</dc:format>
    <dc:creator>
     <cc:Agent>
      <dc:title>Matplotlib v3.7.5, https://matplotlib.org/</dc:title>
     </cc:Agent>
    </dc:creator>
   </cc:Work>
  </rdf:RDF>
 </metadata>
 <defs>
  <style type="text/css">*{stroke-linejoin: round; stroke-linecap: butt}</style>
 </defs>
 <g id="figure_1">
  <g id="patch_1">
   <path d="M 0 201.450944 
L 450.737567 201.450944 
L 450.737567 0 
L 0 0 
z
" style="fill: #ffffff"/>
  </g>
  <g id="axes_1">
   <g id="patch_2">
    <path d="M 51.241875 169.159069 
L 441.841875 169.159069 
L 441.841875 2.839069 
L 51.241875 2.839069 
z
" style="fill: #e5e5e5"/>
   </g>
   <g id="matplotlib.axis_1">
    <g id="xtick_1">
     <g id="line2d_1">
      <path d="M 78.78239 169.159069 
L 78.78239 2.839069 
" clip-path="url(#p289021c4a8)" style="fill: none; stroke: #ffffff; stroke-width: 0.8; stroke-linecap: square"/>
     </g>
     <g id="line2d_2">
      <defs>
       <path id="m9d198b6cd1" d="M 0 0 
L 0 3.5 
" style="stroke: #555555; stroke-width: 0.8"/>
      </defs>
      <g>
       <use xlink:href="#m9d198b6cd1" x="78.78239" y="169.159069" style="fill: #555555; stroke: #555555; stroke-width: 0.8"/>
      </g>
     </g>
     <g id="text_1">
      <!-- 08/16/20 -->
      <g style="fill: #555555" transform="translate(56.32614 183.757506) scale(0.1 -0.1)">
       <defs>
        <path id="DejaVuSans-30" d="M 2034 4250 
Q 1547 4250 1301 3770 
Q 1056 3291 1056 2328 
Q 1056 1369 1301 889 
Q 1547 409 2034 409 
Q 2525 409 2770 889 
Q 3016 1369 3016 2328 
Q 3016 3291 2770 3770 
Q 2525 4250 2034 4250 
z
M 2034 4750 
Q 2819 4750 3233 4129 
Q 3647 3509 3647 2328 
Q 3647 1150 3233 529 
Q 2819 -91 2034 -91 
Q 1250 -91 836 529 
Q 422 1150 422 2328 
Q 422 3509 836 4129 
Q 1250 4750 2034 4750 
z
" transform="scale(0.015625)"/>
        <path id="DejaVuSans-38" d="M 2034 2216 
Q 1584 2216 1326 1975 
Q 1069 1734 1069 1313 
Q 1069 891 1326 650 
Q 1584 409 2034 409 
Q 2484 409 2743 651 
Q 3003 894 3003 1313 
Q 3003 1734 2745 1975 
Q 2488 2216 2034 2216 
z
M 1403 2484 
Q 997 2584 770 2862 
Q 544 3141 544 3541 
Q 544 4100 942 4425 
Q 1341 4750 2034 4750 
Q 2731 4750 3128 4425 
Q 3525 4100 3525 3541 
Q 3525 3141 3298 2862 
Q 3072 2584 2669 2484 
Q 3125 2378 3379 2068 
Q 3634 1759 3634 1313 
Q 3634 634 3220 271 
Q 2806 -91 2034 -91 
Q 1263 -91 848 271 
Q 434 634 434 1313 
Q 434 1759 690 2068 
Q 947 2378 1403 2484 
z
M 1172 3481 
Q 1172 3119 1398 2916 
Q 1625 2713 2034 2713 
Q 2441 2713 2670 2916 
Q 2900 3119 2900 3481 
Q 2900 3844 2670 4047 
Q 2441 4250 2034 4250 
Q 1625 4250 1398 4047 
Q 1172 3844 1172 3481 
z
" transform="scale(0.015625)"/>
        <path id="DejaVuSans-2f" d="M 1625 4666 
L 2156 4666 
L 531 -594 
L 0 -594 
L 1625 4666 
z
" transform="scale(0.015625)"/>
        <path id="DejaVuSans-31" d="M 794 531 
L 1825 531 
L 1825 4091 
L 703 3866 
L 703 4441 
L 1819 4666 
L 2450 4666 
L 2450 531 
L 3481 531 
L 3481 0 
L 794 0 
L 794 531 
z
" transform="scale(0.015625)"/>
        <path id="DejaVuSans-36" d="M 2113 2584 
Q 1688 2584 1439 2293 
Q 1191 2003 1191 1497 
Q 1191 994 1439 701 
Q 1688 409 2113 409 
Q 2538 409 2786 701 
Q 3034 994 3034 1497 
Q 3034 2003 2786 2293 
Q 2538 2584 2113 2584 
z
M 3366 4563 
L 3366 3988 
Q 3128 4100 2886 4159 
Q 2644 4219 2406 4219 
Q 1781 4219 1451 3797 
Q 1122 3375 1075 2522 
Q 1259 2794 1537 2939 
Q 1816 3084 2150 3084 
Q 2853 3084 3261 2657 
Q 3669 2231 3669 1497 
Q 3669 778 3244 343 
Q 2819 -91 2113 -91 
Q 1303 -91 875 529 
Q 447 1150 447 2328 
Q 447 3434 972 4092 
Q 1497 4750 2381 4750 
Q 2619 4750 2861 4703 
Q 3103 4656 3366 4563 
z
" transform="scale(0.015625)"/>
        <path id="DejaVuSans-32" d="M 1228 531 
L 3431 531 
L 3431 0 
L 469 0 
L 469 531 
Q 828 903 1448 1529 
Q 2069 2156 2228 2338 
Q 2531 2678 2651 2914 
Q 2772 3150 2772 3378 
Q 2772 3750 2511 3984 
Q 2250 4219 1831 4219 
Q 1534 4219 1204 4116 
Q 875 4013 500 3803 
L 500 4441 
Q 881 4594 1212 4672 
Q 1544 4750 1819 4750 
Q 2544 4750 2975 4387 
Q 3406 4025 3406 3419 
Q 3406 3131 3298 2873 
Q 3191 2616 2906 2266 
Q 2828 2175 2409 1742 
Q 1991 1309 1228 531 
z
" transform="scale(0.015625)"/>
       </defs>
       <use xlink:href="#DejaVuSans-30"/>
       <use xlink:href="#DejaVuSans-38" x="63.623047"/>
       <use xlink:href="#DejaVuSans-2f" x="127.246094"/>
       <use xlink:href="#DejaVuSans-31" x="160.9375"/>
       <use xlink:href="#DejaVuSans-36" x="224.560547"/>
       <use xlink:href="#DejaVuSans-2f" x="288.183594"/>
       <use xlink:href="#DejaVuSans-32" x="321.875"/>
       <use xlink:href="#DejaVuSans-30" x="385.498047"/>
      </g>
     </g>
    </g>
    <g id="xtick_2">
     <g id="line2d_3">
      <path d="M 148.682176 169.159069 
L 148.682176 2.839069 
" clip-path="url(#p289021c4a8)" style="fill: none; stroke: #ffffff; stroke-width: 0.8; stroke-linecap: square"/>
     </g>
     <g id="line2d_4">
      <g>
       <use xlink:href="#m9d198b6cd1" x="148.682176" y="169.159069" style="fill: #555555; stroke: #555555; stroke-width: 0.8"/>
      </g>
     </g>
     <g id="text_2">
      <!-- 10/05/20 -->
      <g style="fill: #555555" transform="translate(126.225926 183.757506) scale(0.1 -0.1)">
       <defs>
        <path id="DejaVuSans-35" d="M 691 4666 
L 3169 4666 
L 3169 4134 
L 1269 4134 
L 1269 2991 
Q 1406 3038 1543 3061 
Q 1681 3084 1819 3084 
Q 2600 3084 3056 2656 
Q 3513 2228 3513 1497 
Q 3513 744 3044 326 
Q 2575 -91 1722 -91 
Q 1428 -91 1123 -41 
Q 819 9 494 109 
L 494 744 
Q 775 591 1075 516 
Q 1375 441 1709 441 
Q 2250 441 2565 725 
Q 2881 1009 2881 1497 
Q 2881 1984 2565 2268 
Q 2250 2553 1709 2553 
Q 1456 2553 1204 2497 
Q 953 2441 691 2322 
L 691 4666 
z
" transform="scale(0.015625)"/>
       </defs>
       <use xlink:href="#DejaVuSans-31"/>
       <use xlink:href="#DejaVuSans-30" x="63.623047"/>
       <use xlink:href="#DejaVuSans-2f" x="127.246094"/>
       <use xlink:href="#DejaVuSans-30" x="160.9375"/>
       <use xlink:href="#DejaVuSans-35" x="224.560547"/>
       <use xlink:href="#DejaVuSans-2f" x="288.183594"/>
       <use xlink:href="#DejaVuSans-32" x="321.875"/>
       <use xlink:href="#DejaVuSans-30" x="385.498047"/>
      </g>
     </g>
    </g>
    <g id="xtick_3">
     <g id="line2d_5">
      <path d="M 218.581961 169.159069 
L 218.581961 2.839069 
" clip-path="url(#p289021c4a8)" style="fill: none; stroke: #ffffff; stroke-width: 0.8; stroke-linecap: square"/>
     </g>
     <g id="line2d_6">
      <g>
       <use xlink:href="#m9d198b6cd1" x="218.581961" y="169.159069" style="fill: #555555; stroke: #555555; stroke-width: 0.8"/>
      </g>
     </g>
     <g id="text_3">
      <!-- 11/24/20 -->
      <g style="fill: #555555" transform="translate(196.125711 183.757506) scale(0.1 -0.1)">
       <defs>
        <path id="DejaVuSans-34" d="M 2419 4116 
L 825 1625 
L 2419 1625 
L 2419 4116 
z
M 2253 4666 
L 3047 4666 
L 3047 1625 
L 3713 1625 
L 3713 1100 
L 3047 1100 
L 3047 0 
L 2419 0 
L 2419 1100 
L 313 1100 
L 313 1709 
L 2253 4666 
z
" transform="scale(0.015625)"/>
       </defs>
       <use xlink:href="#DejaVuSans-31"/>
       <use xlink:href="#DejaVuSans-31" x="63.623047"/>
       <use xlink:href="#DejaVuSans-2f" x="127.246094"/>
       <use xlink:href="#DejaVuSans-32" x="160.9375"/>
       <use xlink:href="#DejaVuSans-34" x="224.560547"/>
       <use xlink:href="#DejaVuSans-2f" x="288.183594"/>
       <use xlink:href="#DejaVuSans-32" x="321.875"/>
       <use xlink:href="#DejaVuSans-30" x="385.498047"/>
      </g>
     </g>
    </g>
    <g id="xtick_4">
     <g id="line2d_7">
      <path d="M 288.481746 169.159069 
L 288.481746 2.839069 
" clip-path="url(#p289021c4a8)" style="fill: none; stroke: #ffffff; stroke-width: 0.8; stroke-linecap: square"/>
     </g>
     <g id="line2d_8">
      <g>
       <use xlink:href="#m9d198b6cd1" x="288.481746" y="169.159069" style="fill: #555555; stroke: #555555; stroke-width: 0.8"/>
      </g>
     </g>
     <g id="text_4">
      <!-- 01/13/21 -->
      <g style="fill: #555555" transform="translate(266.025496 183.757506) scale(0.1 -0.1)">
       <defs>
        <path id="DejaVuSans-33" d="M 2597 2516 
Q 3050 2419 3304 2112 
Q 3559 1806 3559 1356 
Q 3559 666 3084 287 
Q 2609 -91 1734 -91 
Q 1441 -91 1130 -33 
Q 819 25 488 141 
L 488 750 
Q 750 597 1062 519 
Q 1375 441 1716 441 
Q 2309 441 2620 675 
Q 2931 909 2931 1356 
Q 2931 1769 2642 2001 
Q 2353 2234 1838 2234 
L 1294 2234 
L 1294 2753 
L 1863 2753 
Q 2328 2753 2575 2939 
Q 2822 3125 2822 3475 
Q 2822 3834 2567 4026 
Q 2313 4219 1838 4219 
Q 1578 4219 1281 4162 
Q 984 4106 628 3988 
L 628 4550 
Q 988 4650 1302 4700 
Q 1616 4750 1894 4750 
Q 2613 4750 3031 4423 
Q 3450 4097 3450 3541 
Q 3450 3153 3228 2886 
Q 3006 2619 2597 2516 
z
" transform="scale(0.015625)"/>
       </defs>
       <use xlink:href="#DejaVuSans-30"/>
       <use xlink:href="#DejaVuSans-31" x="63.623047"/>
       <use xlink:href="#DejaVuSans-2f" x="127.246094"/>
       <use xlink:href="#DejaVuSans-31" x="160.9375"/>
       <use xlink:href="#DejaVuSans-33" x="224.560547"/>
       <use xlink:href="#DejaVuSans-2f" x="288.183594"/>
       <use xlink:href="#DejaVuSans-32" x="321.875"/>
       <use xlink:href="#DejaVuSans-31" x="385.498047"/>
      </g>
     </g>
    </g>
    <g id="xtick_5">
     <g id="line2d_9">
      <path d="M 358.381531 169.159069 
L 358.381531 2.839069 
" clip-path="url(#p289021c4a8)" style="fill: none; stroke: #ffffff; stroke-width: 0.8; stroke-linecap: square"/>
     </g>
     <g id="line2d_10">
      <g>
       <use xlink:href="#m9d198b6cd1" x="358.381531" y="169.159069" style="fill: #555555; stroke: #555555; stroke-width: 0.8"/>
      </g>
     </g>
     <g id="text_5">
      <!-- 03/04/21 -->
      <g style="fill: #555555" transform="translate(335.925281 183.757506) scale(0.1 -0.1)">
       <use xlink:href="#DejaVuSans-30"/>
       <use xlink:href="#DejaVuSans-33" x="63.623047"/>
       <use xlink:href="#DejaVuSans-2f" x="127.246094"/>
       <use xlink:href="#DejaVuSans-30" x="160.9375"/>
       <use xlink:href="#DejaVuSans-34" x="224.560547"/>
       <use xlink:href="#DejaVuSans-2f" x="288.183594"/>
       <use xlink:href="#DejaVuSans-32" x="321.875"/>
       <use xlink:href="#DejaVuSans-31" x="385.498047"/>
      </g>
     </g>
    </g>
    <g id="xtick_6">
     <g id="line2d_11">
      <path d="M 428.281317 169.159069 
L 428.281317 2.839069 
" clip-path="url(#p289021c4a8)" style="fill: none; stroke: #ffffff; stroke-width: 0.8; stroke-linecap: square"/>
     </g>
     <g id="line2d_12">
      <g>
       <use xlink:href="#m9d198b6cd1" x="428.281317" y="169.159069" style="fill: #555555; stroke: #555555; stroke-width: 0.8"/>
      </g>
     </g>
     <g id="text_6">
      <!-- 04/23/21 -->
      <g style="fill: #555555" transform="translate(405.825067 183.757506) scale(0.1 -0.1)">
       <use xlink:href="#DejaVuSans-30"/>
       <use xlink:href="#DejaVuSans-34" x="63.623047"/>
       <use xlink:href="#DejaVuSans-2f" x="127.246094"/>
       <use xlink:href="#DejaVuSans-32" x="160.9375"/>
       <use xlink:href="#DejaVuSans-33" x="224.560547"/>
       <use xlink:href="#DejaVuSans-2f" x="288.183594"/>
       <use xlink:href="#DejaVuSans-32" x="321.875"/>
       <use xlink:href="#DejaVuSans-31" x="385.498047"/>
      </g>
     </g>
    </g>
    <g id="text_7">
     <!-- Date -->
     <g style="fill: #555555" transform="translate(232.200938 198.955319) scale(0.12 -0.12)">
      <defs>
       <path id="DejaVuSans-44" d="M 1259 4147 
L 1259 519 
L 2022 519 
Q 2988 519 3436 956 
Q 3884 1394 3884 2338 
Q 3884 3275 3436 3711 
Q 2988 4147 2022 4147 
L 1259 4147 
z
M 628 4666 
L 1925 4666 
Q 3281 4666 3915 4102 
Q 4550 3538 4550 2338 
Q 4550 1131 3912 565 
Q 3275 0 1925 0 
L 628 0 
L 628 4666 
z
" transform="scale(0.015625)"/>
       <path id="DejaVuSans-61" d="M 2194 1759 
Q 1497 1759 1228 1600 
Q 959 1441 959 1056 
Q 959 750 1161 570 
Q 1363 391 1709 391 
Q 2188 391 2477 730 
Q 2766 1069 2766 1631 
L 2766 1759 
L 2194 1759 
z
M 3341 1997 
L 3341 0 
L 2766 0 
L 2766 531 
Q 2569 213 2275 61 
Q 1981 -91 1556 -91 
Q 1019 -91 701 211 
Q 384 513 384 1019 
Q 384 1609 779 1909 
Q 1175 2209 1959 2209 
L 2766 2209 
L 2766 2266 
Q 2766 2663 2505 2880 
Q 2244 3097 1772 3097 
Q 1472 3097 1187 3025 
Q 903 2953 641 2809 
L 641 3341 
Q 956 3463 1253 3523 
Q 1550 3584 1831 3584 
Q 2591 3584 2966 3190 
Q 3341 2797 3341 1997 
z
" transform="scale(0.015625)"/>
       <path id="DejaVuSans-74" d="M 1172 4494 
L 1172 3500 
L 2356 3500 
L 2356 3053 
L 1172 3053 
L 1172 1153 
Q 1172 725 1289 603 
Q 1406 481 1766 481 
L 2356 481 
L 2356 0 
L 1766 0 
Q 1100 0 847 248 
Q 594 497 594 1153 
L 594 3053 
L 172 3053 
L 172 3500 
L 594 3500 
L 594 4494 
L 1172 4494 
z
" transform="scale(0.015625)"/>
       <path id="DejaVuSans-65" d="M 3597 1894 
L 3597 1613 
L 953 1613 
Q 991 1019 1311 708 
Q 1631 397 2203 397 
Q 2534 397 2845 478 
Q 3156 559 3463 722 
L 3463 178 
Q 3153 47 2828 -22 
Q 2503 -91 2169 -91 
Q 1331 -91 842 396 
Q 353 884 353 1716 
Q 353 2575 817 3079 
Q 1281 3584 2069 3584 
Q 2775 3584 3186 3129 
Q 3597 2675 3597 1894 
z
M 3022 2063 
Q 3016 2534 2758 2815 
Q 2500 3097 2075 3097 
Q 1594 3097 1305 2825 
Q 1016 2553 972 2059 
L 3022 2063 
z
" transform="scale(0.015625)"/>
      </defs>
      <use xlink:href="#DejaVuSans-44"/>
      <use xlink:href="#DejaVuSans-61" x="77.001953"/>
      <use xlink:href="#DejaVuSans-74" x="138.28125"/>
      <use xlink:href="#DejaVuSans-65" x="177.490234"/>
     </g>
    </g>
   </g>
   <g id="matplotlib.axis_2">
    <g id="ytick_1">
     <g id="line2d_13">
      <path d="M 51.241875 162.297991 
L 441.841875 162.297991 
" clip-path="url(#p289021c4a8)" style="fill: none; stroke: #ffffff; stroke-width: 0.8; stroke-linecap: square"/>
     </g>
     <g id="line2d_14">
      <defs>
       <path id="maf9ecde2a8" d="M 0 0 
L -3.5 0 
" style="stroke: #555555; stroke-width: 0.8"/>
      </defs>
      <g>
       <use xlink:href="#maf9ecde2a8" x="51.241875" y="162.297991" style="fill: #555555; stroke: #555555; stroke-width: 0.8"/>
      </g>
     </g>
     <g id="text_8">
      <!-- 0.000 -->
      <g style="fill: #555555" transform="translate(15.61375 166.09721) scale(0.1 -0.1)">
       <defs>
        <path id="DejaVuSans-2e" d="M 684 794 
L 1344 794 
L 1344 0 
L 684 0 
L 684 794 
z
" transform="scale(0.015625)"/>
       </defs>
       <use xlink:href="#DejaVuSans-30"/>
       <use xlink:href="#DejaVuSans-2e" x="63.623047"/>
       <use xlink:href="#DejaVuSans-30" x="95.410156"/>
       <use xlink:href="#DejaVuSans-30" x="159.033203"/>
       <use xlink:href="#DejaVuSans-30" x="222.65625"/>
      </g>
     </g>
    </g>
    <g id="ytick_2">
     <g id="line2d_15">
      <path d="M 51.241875 135.881529 
L 441.841875 135.881529 
" clip-path="url(#p289021c4a8)" style="fill: none; stroke: #ffffff; stroke-width: 0.8; stroke-linecap: square"/>
     </g>
     <g id="line2d_16">
      <g>
       <use xlink:href="#maf9ecde2a8" x="51.241875" y="135.881529" style="fill: #555555; stroke: #555555; stroke-width: 0.8"/>
      </g>
     </g>
     <g id="text_9">
      <!-- 0.002 -->
      <g style="fill: #555555" transform="translate(15.61375 139.680748) scale(0.1 -0.1)">
       <use xlink:href="#DejaVuSans-30"/>
       <use xlink:href="#DejaVuSans-2e" x="63.623047"/>
       <use xlink:href="#DejaVuSans-30" x="95.410156"/>
       <use xlink:href="#DejaVuSans-30" x="159.033203"/>
       <use xlink:href="#DejaVuSans-32" x="222.65625"/>
      </g>
     </g>
    </g>
    <g id="ytick_3">
     <g id="line2d_17">
      <path d="M 51.241875 109.465067 
L 441.841875 109.465067 
" clip-path="url(#p289021c4a8)" style="fill: none; stroke: #ffffff; stroke-width: 0.8; stroke-linecap: square"/>
     </g>
     <g id="line2d_18">
      <g>
       <use xlink:href="#maf9ecde2a8" x="51.241875" y="109.465067" style="fill: #555555; stroke: #555555; stroke-width: 0.8"/>
      </g>
     </g>
     <g id="text_10">
      <!-- 0.004 -->
      <g style="fill: #555555" transform="translate(15.61375 113.264286) scale(0.1 -0.1)">
       <use xlink:href="#DejaVuSans-30"/>
       <use xlink:href="#DejaVuSans-2e" x="63.623047"/>
       <use xlink:href="#DejaVuSans-30" x="95.410156"/>
       <use xlink:href="#DejaVuSans-30" x="159.033203"/>
       <use xlink:href="#DejaVuSans-34" x="222.65625"/>
      </g>
     </g>
    </g>
    <g id="ytick_4">
     <g id="line2d_19">
      <path d="M 51.241875 83.048605 
L 441.841875 83.048605 
" clip-path="url(#p289021c4a8)" style="fill: none; stroke: #ffffff; stroke-width: 0.8; stroke-linecap: square"/>
     </g>
     <g id="line2d_20">
      <g>
       <use xlink:href="#maf9ecde2a8" x="51.241875" y="83.048605" style="fill: #555555; stroke: #555555; stroke-width: 0.8"/>
      </g>
     </g>
     <g id="text_11">
      <!-- 0.006 -->
      <g style="fill: #555555" transform="translate(15.61375 86.847824) scale(0.1 -0.1)">
       <use xlink:href="#DejaVuSans-30"/>
       <use xlink:href="#DejaVuSans-2e" x="63.623047"/>
       <use xlink:href="#DejaVuSans-30" x="95.410156"/>
       <use xlink:href="#DejaVuSans-30" x="159.033203"/>
       <use xlink:href="#DejaVuSans-36" x="222.65625"/>
      </g>
     </g>
    </g>
    <g id="ytick_5">
     <g id="line2d_21">
      <path d="M 51.241875 56.632143 
L 441.841875 56.632143 
" clip-path="url(#p289021c4a8)" style="fill: none; stroke: #ffffff; stroke-width: 0.8; stroke-linecap: square"/>
     </g>
     <g id="line2d_22">
      <g>
       <use xlink:href="#maf9ecde2a8" x="51.241875" y="56.632143" style="fill: #555555; stroke: #555555; stroke-width: 0.8"/>
      </g>
     </g>
     <g id="text_12">
      <!-- 0.008 -->
      <g style="fill: #555555" transform="translate(15.61375 60.431362) scale(0.1 -0.1)">
       <use xlink:href="#DejaVuSans-30"/>
       <use xlink:href="#DejaVuSans-2e" x="63.623047"/>
       <use xlink:href="#DejaVuSans-30" x="95.410156"/>
       <use xlink:href="#DejaVuSans-30" x="159.033203"/>
       <use xlink:href="#DejaVuSans-38" x="222.65625"/>
      </g>
     </g>
    </g>
    <g id="ytick_6">
     <g id="line2d_23">
      <path d="M 51.241875 30.215681 
L 441.841875 30.215681 
" clip-path="url(#p289021c4a8)" style="fill: none; stroke: #ffffff; stroke-width: 0.8; stroke-linecap: square"/>
     </g>
     <g id="line2d_24">
      <g>
       <use xlink:href="#maf9ecde2a8" x="51.241875" y="30.215681" style="fill: #555555; stroke: #555555; stroke-width: 0.8"/>
      </g>
     </g>
     <g id="text_13">
      <!-- 0.010 -->
      <g style="fill: #555555" transform="translate(15.61375 34.0149) scale(0.1 -0.1)">
       <use xlink:href="#DejaVuSans-30"/>
       <use xlink:href="#DejaVuSans-2e" x="63.623047"/>
       <use xlink:href="#DejaVuSans-30" x="95.410156"/>
       <use xlink:href="#DejaVuSans-31" x="159.033203"/>
       <use xlink:href="#DejaVuSans-30" x="222.65625"/>
      </g>
     </g>
    </g>
    <g id="ytick_7">
     <g id="line2d_25">
      <path d="M 51.241875 3.799219 
L 441.841875 3.799219 
" clip-path="url(#p289021c4a8)" style="fill: none; stroke: #ffffff; stroke-width: 0.8; stroke-linecap: square"/>
     </g>
     <g id="line2d_26">
      <g>
       <use xlink:href="#maf9ecde2a8" x="51.241875" y="3.799219" style="fill: #555555; stroke: #555555; stroke-width: 0.8"/>
      </g>
     </g>
     <g id="text_14">
      <!-- 0.012 -->
      <g style="fill: #555555" transform="translate(15.61375 7.598437) scale(0.1 -0.1)">
       <use xlink:href="#DejaVuSans-30"/>
       <use xlink:href="#DejaVuSans-2e" x="63.623047"/>
       <use xlink:href="#DejaVuSans-30" x="95.410156"/>
       <use xlink:href="#DejaVuSans-31" x="159.033203"/>
       <use xlink:href="#DejaVuSans-32" x="222.65625"/>
      </g>
     </g>
    </g>
    <g id="text_15">
     <!-- Infected Portion -->
     <g style="fill: #555555" transform="translate(9.118125 133.465631) rotate(-90) scale(0.12 -0.12)">
      <defs>
       <path id="DejaVuSans-49" d="M 628 4666 
L 1259 4666 
L 1259 0 
L 628 0 
L 628 4666 
z
" transform="scale(0.015625)"/>
       <path id="DejaVuSans-6e" d="M 3513 2113 
L 3513 0 
L 2938 0 
L 2938 2094 
Q 2938 2591 2744 2837 
Q 2550 3084 2163 3084 
Q 1697 3084 1428 2787 
Q 1159 2491 1159 1978 
L 1159 0 
L 581 0 
L 581 3500 
L 1159 3500 
L 1159 2956 
Q 1366 3272 1645 3428 
Q 1925 3584 2291 3584 
Q 2894 3584 3203 3211 
Q 3513 2838 3513 2113 
z
" transform="scale(0.015625)"/>
       <path id="DejaVuSans-66" d="M 2375 4863 
L 2375 4384 
L 1825 4384 
Q 1516 4384 1395 4259 
Q 1275 4134 1275 3809 
L 1275 3500 
L 2222 3500 
L 2222 3053 
L 1275 3053 
L 1275 0 
L 697 0 
L 697 3053 
L 147 3053 
L 147 3500 
L 697 3500 
L 697 3744 
Q 697 4328 969 4595 
Q 1241 4863 1831 4863 
L 2375 4863 
z
" transform="scale(0.015625)"/>
       <path id="DejaVuSans-63" d="M 3122 3366 
L 3122 2828 
Q 2878 2963 2633 3030 
Q 2388 3097 2138 3097 
Q 1578 3097 1268 2742 
Q 959 2388 959 1747 
Q 959 1106 1268 751 
Q 1578 397 2138 397 
Q 2388 397 2633 464 
Q 2878 531 3122 666 
L 3122 134 
Q 2881 22 2623 -34 
Q 2366 -91 2075 -91 
Q 1284 -91 818 406 
Q 353 903 353 1747 
Q 353 2603 823 3093 
Q 1294 3584 2113 3584 
Q 2378 3584 2631 3529 
Q 2884 3475 3122 3366 
z
" transform="scale(0.015625)"/>
       <path id="DejaVuSans-64" d="M 2906 2969 
L 2906 4863 
L 3481 4863 
L 3481 0 
L 2906 0 
L 2906 525 
Q 2725 213 2448 61 
Q 2172 -91 1784 -91 
Q 1150 -91 751 415 
Q 353 922 353 1747 
Q 353 2572 751 3078 
Q 1150 3584 1784 3584 
Q 2172 3584 2448 3432 
Q 2725 3281 2906 2969 
z
M 947 1747 
Q 947 1113 1208 752 
Q 1469 391 1925 391 
Q 2381 391 2643 752 
Q 2906 1113 2906 1747 
Q 2906 2381 2643 2742 
Q 2381 3103 1925 3103 
Q 1469 3103 1208 2742 
Q 947 2381 947 1747 
z
" transform="scale(0.015625)"/>
       <path id="DejaVuSans-20" transform="scale(0.015625)"/>
       <path id="DejaVuSans-50" d="M 1259 4147 
L 1259 2394 
L 2053 2394 
Q 2494 2394 2734 2622 
Q 2975 2850 2975 3272 
Q 2975 3691 2734 3919 
Q 2494 4147 2053 4147 
L 1259 4147 
z
M 628 4666 
L 2053 4666 
Q 2838 4666 3239 4311 
Q 3641 3956 3641 3272 
Q 3641 2581 3239 2228 
Q 2838 1875 2053 1875 
L 1259 1875 
L 1259 0 
L 628 0 
L 628 4666 
z
" transform="scale(0.015625)"/>
       <path id="DejaVuSans-6f" d="M 1959 3097 
Q 1497 3097 1228 2736 
Q 959 2375 959 1747 
Q 959 1119 1226 758 
Q 1494 397 1959 397 
Q 2419 397 2687 759 
Q 2956 1122 2956 1747 
Q 2956 2369 2687 2733 
Q 2419 3097 1959 3097 
z
M 1959 3584 
Q 2709 3584 3137 3096 
Q 3566 2609 3566 1747 
Q 3566 888 3137 398 
Q 2709 -91 1959 -91 
Q 1206 -91 779 398 
Q 353 888 353 1747 
Q 353 2609 779 3096 
Q 1206 3584 1959 3584 
z
" transform="scale(0.015625)"/>
       <path id="DejaVuSans-72" d="M 2631 2963 
Q 2534 3019 2420 3045 
Q 2306 3072 2169 3072 
Q 1681 3072 1420 2755 
Q 1159 2438 1159 1844 
L 1159 0 
L 581 0 
L 581 3500 
L 1159 3500 
L 1159 2956 
Q 1341 3275 1631 3429 
Q 1922 3584 2338 3584 
Q 2397 3584 2469 3576 
Q 2541 3569 2628 3553 
L 2631 2963 
z
" transform="scale(0.015625)"/>
       <path id="DejaVuSans-69" d="M 603 3500 
L 1178 3500 
L 1178 0 
L 603 0 
L 603 3500 
z
M 603 4863 
L 1178 4863 
L 1178 4134 
L 603 4134 
L 603 4863 
z
" transform="scale(0.015625)"/>
      </defs>
      <use xlink:href="#DejaVuSans-49"/>
      <use xlink:href="#DejaVuSans-6e" x="29.492188"/>
      <use xlink:href="#DejaVuSans-66" x="92.871094"/>
      <use xlink:href="#DejaVuSans-65" x="128.076172"/>
      <use xlink:href="#DejaVuSans-63" x="189.599609"/>
      <use xlink:href="#DejaVuSans-74" x="244.580078"/>
      <use xlink:href="#DejaVuSans-65" x="283.789062"/>
      <use xlink:href="#DejaVuSans-64" x="345.3125"/>
      <use xlink:href="#DejaVuSans-20" x="408.789062"/>
      <use xlink:href="#DejaVuSans-50" x="440.576172"/>
      <use xlink:href="#DejaVuSans-6f" x="497.253906"/>
      <use xlink:href="#DejaVuSans-72" x="558.435547"/>
      <use xlink:href="#DejaVuSans-74" x="599.548828"/>
      <use xlink:href="#DejaVuSans-69" x="638.757812"/>
      <use xlink:href="#DejaVuSans-6f" x="666.541016"/>
      <use xlink:href="#DejaVuSans-6e" x="727.722656"/>
     </g>
    </g>
   </g>
   <g id="line2d_27">
    <path d="M 68.99642 146.773565 
L 70.394416 146.71951 
L 71.792412 146.827619 
L 73.190408 147.764562 
L 74.588403 147.616813 
L 75.986399 147.674471 
L 78.78239 147.551948 
L 81.578382 148.061861 
L 82.976378 147.950149 
L 84.374373 148.173574 
L 85.772369 149.139346 
L 87.170365 148.364566 
L 89.966356 147.760958 
L 91.364352 147.795193 
L 92.762347 147.222216 
L 94.160343 147.665462 
L 95.558339 147.96096 
L 96.956335 149.027633 
L 98.35433 148.02042 
L 99.752326 148.202403 
L 101.150322 148.072672 
L 102.548317 148.296097 
L 103.946313 148.097898 
L 105.344309 147.031224 
L 108.1403 148.872677 
L 109.538296 148.456458 
L 110.936292 148.887092 
L 113.732283 148.822227 
L 115.130279 148.076276 
L 116.528274 147.16636 
L 117.92627 148.771776 
L 119.324266 147.744742 
L 120.722262 147.874473 
L 122.120257 147.795193 
L 123.518253 147.600597 
L 126.314244 148.252854 
L 127.71224 148.272673 
L 129.110236 148.160961 
L 130.508231 147.932131 
L 131.906227 148.278079 
L 133.304223 148.272673 
L 134.702219 148.818623 
L 137.49821 148.670874 
L 138.896206 148.818623 
L 140.294201 148.32853 
L 141.692197 148.061861 
L 143.090193 148.180781 
L 144.488189 147.935734 
L 145.886184 147.220414 
L 147.28418 147.196991 
L 148.682176 147.303298 
L 151.478167 146.497887 
L 154.274158 145.887072 
L 155.672154 145.205987 
L 157.07015 145.242023 
L 158.468146 144.75193 
L 159.866141 144.604181 
L 161.264137 143.991564 
L 162.662133 142.314076 
L 164.060128 141.148302 
L 165.458124 140.505055 
L 166.85612 140.472622 
L 168.254116 139.213154 
L 169.652111 138.449185 
L 171.050107 137.422152 
L 172.448103 136.659985 
L 173.846098 136.050971 
L 175.244094 134.130238 
L 176.64209 134.063571 
L 178.040085 131.964458 
L 179.438081 130.339222 
L 180.836077 128.355425 
L 183.632068 125.656309 
L 185.030064 123.715755 
L 186.42806 123.549988 
L 187.826055 119.059869 
L 189.224051 117.290488 
L 190.622047 115.212997 
L 192.020043 110.935491 
L 193.418038 108.429168 
L 194.816034 105.14266 
L 196.21403 104.793108 
L 197.612025 99.409289 
L 199.010021 94.966017 
L 200.408017 90.993017 
L 201.806012 87.477679 
L 203.204008 81.821786 
L 204.602004 77.508244 
L 206 76.978511 
L 207.397995 70.627118 
L 208.795991 65.513571 
L 210.193987 63.127969 
L 211.591982 61.34057 
L 212.989978 53.902683 
L 214.387974 52.436007 
L 215.785969 52.48826 
L 217.183965 48.581928 
L 218.581961 47.634174 
L 219.979957 49.808963 
L 221.377952 57.558563 
L 222.775948 45.962091 
L 224.173944 43.290001 
L 225.571939 43.544057 
L 226.969935 44.895417 
L 228.367931 45.708035 
L 229.765927 43.124234 
L 231.163922 42.679186 
L 232.561918 44.56028 
L 233.959914 45.030553 
L 235.357909 44.945868 
L 236.755905 47.090026 
L 239.551896 44.005321 
L 240.949892 35.583644 
L 242.347888 49.340491 
L 243.745884 53.756737 
L 245.143879 53.576555 
L 246.541875 57.517122 
L 247.939871 57.918926 
L 249.337866 61.778411 
L 250.735862 64.183832 
L 252.133858 68.45413 
L 253.531854 71.522619 
L 254.929849 71.528025 
L 256.327845 76.11364 
L 257.725841 81.755119 
L 259.123836 84.086666 
L 261.919828 98.735411 
L 263.317823 95.533588 
L 264.715819 95.861518 
L 266.113815 100.000284 
L 267.511811 102.425525 
L 268.909806 102.951655 
L 271.705798 114.445424 
L 273.103793 108.998541 
L 274.501789 109.076019 
L 275.899785 108.533673 
L 277.297781 109.113857 
L 278.695776 107.571505 
L 281.491768 98.030902 
L 282.889763 103.897607 
L 284.287759 103.63274 
L 285.685755 100.848938 
L 287.08375 102.389489 
L 288.481746 103.360666 
L 289.879742 99.967851 
L 291.277738 95.639895 
L 292.675733 102.899402 
L 294.073729 102.989493 
L 295.471725 105.551672 
L 296.86972 106.993123 
L 299.665712 111.171529 
L 302.461703 113.948123 
L 303.859699 114.254432 
L 305.257695 117.396795 
L 306.65569 117.901303 
L 310.849677 121.566192 
L 312.247673 122.407639 
L 313.645669 122.512144 
L 315.043665 123.721161 
L 316.44166 124.258101 
L 317.839656 126.231087 
L 319.237652 127.0383 
L 320.635647 128.031099 
L 322.033643 128.825699 
L 323.431639 129.013087 
L 324.829634 130.097779 
L 326.22763 131.724817 
L 329.023622 134.027535 
L 331.819613 135.960881 
L 333.217609 136.045566 
L 334.615604 137.685216 
L 337.411596 138.847386 
L 338.809592 139.964511 
L 340.207587 140.263612 
L 341.605583 140.717669 
L 343.003579 140.759111 
L 344.401574 141.3447 
L 345.79957 140.596947 
L 347.197566 140.128476 
L 348.595561 139.843789 
L 349.993557 140.173521 
L 351.391553 139.436579 
L 352.789549 139.449192 
L 354.187544 138.650989 
L 355.58554 137.661793 
L 356.983536 136.843769 
L 358.381531 136.160882 
L 359.779527 135.775294 
L 361.177523 134.591502 
L 362.575519 134.679791 
L 363.973514 133.937444 
L 365.37151 134.105013 
L 366.769506 132.495993 
L 368.167501 131.386076 
L 369.565497 129.018493 
L 370.963493 128.312182 
L 372.361488 128.378849 
L 373.759484 125.465316 
L 375.15748 124.151794 
L 376.555476 121.510335 
L 377.953471 119.739152 
L 379.351467 116.05084 
L 380.749463 113.993169 
L 382.147458 113.969745 
L 383.545454 108.863405 
L 384.94345 104.688603 
L 386.341446 101.616511 
L 390.535433 87.751555 
L 391.933428 87.645248 
L 393.331424 80.19655 
L 394.72942 74.60372 
L 396.127415 70.077565 
L 397.525411 64.632484 
L 398.923407 62.436073 
L 400.321403 54.288272 
L 401.719398 54.367551 
L 403.117394 46.830565 
L 404.51539 44.817939 
L 405.913385 39.059343 
L 408.709377 32.372812 
L 410.107372 30.178203 
L 411.505368 30.077301 
L 412.903364 28.817834 
L 414.30136 24.2142 
L 415.699355 22.428603 
L 417.097351 22.406981 
L 418.495347 18.165511 
L 419.893342 22.821398 
L 421.291338 22.650226 
L 422.689334 26.794397 
L 424.08733 26.378178 
L 424.08733 26.378178 
" clip-path="url(#p289021c4a8)" style="fill: none; stroke: #134a8e; stroke-width: 3; stroke-linecap: square"/>
   </g>
   <g id="line2d_28">
    <path d="M 68.99642 71.313715 
L 70.394416 75.89883 
L 71.792412 79.8856 
L 73.190408 79.828225 
L 74.588403 83.588773 
L 78.78239 92.991782 
L 80.180386 94.327809 
L 81.578382 95.214669 
L 82.976378 95.903174 
L 85.772369 99.616182 
L 87.170365 102.796419 
L 89.966356 107.014331 
L 91.364352 109.543766 
L 92.762347 115.735392 
L 94.160343 118.482854 
L 95.558339 120.627055 
L 96.956335 123.576151 
L 98.35433 124.903981 
L 99.752326 125.95641 
L 101.150322 121.754891 
L 102.548317 123.769588 
L 103.946313 125.510521 
L 105.344309 127.461285 
L 108.1403 129.413688 
L 109.538296 130.248091 
L 110.936292 131.264455 
L 112.334287 132.457863 
L 115.130279 134.561082 
L 116.528274 135.198768 
L 119.324266 136.023335 
L 120.722262 141.554324 
L 122.120257 141.239579 
L 124.916249 141.157614 
L 127.71224 140.757625 
L 129.110236 140.847786 
L 130.508231 140.687135 
L 131.906227 140.380587 
L 133.304223 140.283868 
L 134.702219 140.405176 
L 136.100214 140.377308 
L 137.49821 140.516648 
L 138.896206 141.203514 
L 140.294201 140.624842 
L 141.692197 141.042863 
L 144.488189 141.416623 
L 145.886184 141.969066 
L 148.682176 142.482166 
L 150.080171 142.573966 
L 151.478167 142.359219 
L 152.876163 141.892019 
L 154.274158 142.088735 
L 155.672154 143.773932 
L 157.07015 141.057617 
L 158.468146 140.421569 
L 159.866141 140.824836 
L 161.264137 140.131414 
L 162.662133 139.770768 
L 164.060128 139.174064 
L 165.458124 138.385562 
L 168.254116 137.38723 
L 169.652111 136.480699 
L 171.050107 136.859376 
L 172.448103 135.151229 
L 173.846098 134.157814 
L 175.244094 131.107082 
L 176.64209 133.154565 
L 178.040085 131.110361 
L 180.836077 128.044875 
L 182.234073 126.95966 
L 183.632068 125.195776 
L 185.030064 126.059686 
L 186.42806 124.025318 
L 187.826055 121.636862 
L 189.224051 120.28936 
L 190.622047 118.514001 
L 193.418038 115.409172 
L 194.816034 115.037051 
L 196.21403 111.14536 
L 197.612025 111.343715 
L 199.010021 112.168281 
L 200.408017 112.017466 
L 201.806012 110.930612 
L 204.602004 106.45697 
L 206 101.529242 
L 207.397995 101.332526 
L 208.795991 98.603096 
L 210.193987 95.540889 
L 211.591982 93.454064 
L 214.387974 86.690323 
L 215.785969 86.552622 
L 217.183965 83.970729 
L 218.581961 79.810193 
L 219.979957 76.48078 
L 221.377952 80.760985 
L 222.775948 73.913641 
L 224.173944 72.418602 
L 225.571939 75.146392 
L 226.969935 72.905473 
L 228.367931 72.231722 
L 229.765927 70.502263 
L 233.959914 67.256455 
L 236.755905 64.881113 
L 238.153901 64.648333 
L 239.551896 64.018842 
L 240.949892 55.948582 
L 242.347888 61.104172 
L 243.745884 59.094394 
L 245.143879 58.178026 
L 246.541875 57.886231 
L 247.939871 58.132126 
L 249.337866 57.625583 
L 250.735862 56.619055 
L 252.133858 55.786292 
L 253.531854 55.60269 
L 254.929849 56.114151 
L 256.327845 54.681405 
L 257.725841 54.033883 
L 259.123836 53.733892 
L 260.521832 53.242102 
L 261.919828 61.228759 
L 263.317823 57.507554 
L 264.715819 58.445232 
L 266.113815 57.874756 
L 267.511811 55.942025 
L 268.909806 54.681405 
L 270.307802 52.735559 
L 271.705798 62.054964 
L 273.103793 49.586469 
L 274.501789 49.278282 
L 275.899785 48.425847 
L 277.297781 45.64232 
L 278.695776 42.080127 
L 280.093772 37.722875 
L 281.491768 24.329817 
L 282.889763 25.015043 
L 284.287759 22.251188 
L 287.08375 19.487333 
L 288.481746 19.980761 
L 289.879742 21.518422 
L 291.277738 10.399069 
L 292.675733 22.336431 
L 294.073729 20.552876 
L 295.471725 22.692159 
L 296.86972 26.013375 
L 298.267716 28.924767 
L 301.063707 37.78189 
L 302.461703 39.43758 
L 303.859699 41.453916 
L 305.257695 42.734207 
L 306.65569 46.053784 
L 308.053686 49.824168 
L 309.451682 51.484776 
L 310.849677 54.969922 
L 312.247673 53.702745 
L 313.645669 56.632169 
L 315.043665 58.440314 
L 316.44166 58.225566 
L 317.839656 61.83202 
L 319.237652 64.487681 
L 320.635647 64.279491 
L 322.033643 67.371205 
L 323.431639 68.976077 
L 324.829634 71.210439 
L 326.22763 72.731707 
L 327.625626 72.284179 
L 330.421617 75.861126 
L 331.819613 79.708556 
L 333.217609 80.98229 
L 334.615604 82.810107 
L 336.0136 85.014962 
L 337.411596 84.213345 
L 338.809592 86.223124 
L 340.207587 89.868921 
L 341.605583 89.606633 
L 343.003579 90.550868 
L 344.401574 91.875421 
L 345.79957 92.486878 
L 347.197566 92.916374 
L 348.595561 93.958967 
L 349.993557 94.824516 
L 351.391553 96.645776 
L 352.789549 96.024482 
L 354.187544 97.780169 
L 355.58554 96.368734 
L 356.983536 96.347423 
L 358.381531 95.075329 
L 359.779527 95.321223 
L 361.177523 97.465424 
L 363.973514 98.40802 
L 365.37151 99.134229 
L 366.769506 100.491567 
L 368.167501 101.212858 
L 369.565497 101.688254 
L 370.963493 101.442359 
L 372.361488 103.289847 
L 373.759484 101.935788 
L 375.15748 103.993106 
L 376.555476 105.806169 
L 377.953471 106.448773 
L 379.351467 107.227439 
L 380.749463 106.519263 
L 382.147458 106.896301 
L 383.545454 107.427434 
L 384.94345 106.801222 
L 387.739441 106.597949 
L 390.535433 105.878298 
L 391.933428 104.860294 
L 393.331424 104.293097 
L 396.127415 103.535742 
L 397.525411 102.198075 
L 398.923407 101.334166 
L 400.321403 100.637464 
L 401.719398 99.665361 
L 403.117394 99.352255 
L 405.913385 98.17524 
L 407.311381 96.253984 
L 408.709377 95.291716 
L 410.107372 94.480264 
L 411.505368 94.18519 
L 412.903364 96.039236 
L 414.30136 92.742609 
L 415.699355 91.988532 
L 417.097351 92.545893 
L 418.495347 91.978696 
L 419.893342 91.934435 
L 421.291338 90.418085 
L 422.689334 89.778759 
L 424.08733 90.518082 
L 424.08733 90.518082 
" clip-path="url(#p289021c4a8)" style="fill: none; stroke: #0db14b; stroke-width: 3; stroke-linecap: square"/>
   </g>
   <g id="line2d_29">
    <path d="M 68.99642 159.502302 
L 70.394416 159.502302 
L 71.792412 160.201224 
L 75.986399 160.201224 
L 77.384395 159.502302 
L 81.578382 159.502302 
L 82.976378 158.80338 
L 84.374373 158.80338 
L 85.772369 159.502302 
L 87.170365 159.502302 
L 88.56836 160.201224 
L 95.558339 160.201224 
L 96.956335 160.900147 
L 101.150322 160.900147 
L 102.548317 161.599069 
L 112.334287 161.599069 
L 115.130279 160.201224 
L 120.722262 160.201224 
L 122.120257 160.900147 
L 124.916249 159.502302 
L 130.508231 159.502302 
L 131.906227 158.104458 
L 133.304223 158.80338 
L 136.100214 158.80338 
L 137.49821 158.104458 
L 140.294201 158.104458 
L 141.692197 157.405536 
L 144.488189 158.80338 
L 145.886184 158.104458 
L 147.28418 155.308769 
L 148.682176 154.609847 
L 150.080171 154.609847 
L 151.478167 156.007692 
L 152.876163 156.007692 
L 154.274158 156.706614 
L 155.672154 156.706614 
L 157.07015 157.405536 
L 159.866141 157.405536 
L 161.264137 158.104458 
L 162.662133 156.706614 
L 164.060128 156.007692 
L 165.458124 151.814159 
L 166.85612 151.814159 
L 168.254116 152.513081 
L 169.652111 152.513081 
L 171.050107 151.115236 
L 172.448103 150.416314 
L 175.244094 150.416314 
L 176.64209 146.921703 
L 178.040085 144.824937 
L 179.438081 144.126015 
L 180.836077 141.330326 
L 182.234073 139.23356 
L 183.632068 138.534637 
L 185.030064 142.029248 
L 186.42806 142.72817 
L 187.826055 142.72817 
L 189.224051 141.330326 
L 192.020043 141.330326 
L 193.418038 139.932482 
L 194.816034 137.136793 
L 196.21403 137.835715 
L 197.612025 137.136793 
L 199.010021 135.738949 
L 200.408017 129.448649 
L 201.806012 131.545416 
L 203.204008 123.15835 
L 204.602004 117.566973 
L 206 116.169128 
L 207.397995 110.577751 
L 208.795991 112.674517 
L 210.193987 107.782062 
L 211.591982 95.201463 
L 212.989978 86.115475 
L 215.785969 70.739188 
L 217.183965 73.534876 
L 218.581961 71.43811 
L 219.979957 72.137032 
L 221.377952 63.749966 
L 224.173944 72.137032 
L 225.571939 72.835954 
L 226.969935 78.427332 
L 228.367931 74.932721 
L 229.765927 74.233799 
L 231.163922 82.620864 
L 232.561918 86.115475 
L 233.959914 88.212242 
L 235.357909 97.997152 
L 236.755905 93.803619 
L 238.153901 94.502541 
L 239.551896 97.997152 
L 240.949892 104.287452 
L 242.347888 105.685296 
L 243.745884 108.480984 
L 245.143879 110.577751 
L 246.541875 104.287452 
L 247.939871 104.986374 
L 249.337866 109.878829 
L 250.735862 115.470206 
L 252.133858 120.362661 
L 253.531854 124.556194 
L 254.929849 125.255116 
L 257.725841 130.846494 
L 259.123836 126.652961 
L 260.521832 128.749727 
L 261.919828 132.94326 
L 264.715819 131.545416 
L 266.113815 137.835715 
L 268.909806 139.23356 
L 270.307802 137.136793 
L 271.705798 139.23356 
L 273.103793 144.126015 
L 274.501789 144.126015 
L 275.899785 145.523859 
L 277.297781 145.523859 
L 278.695776 153.212003 
L 280.093772 154.609847 
L 281.491768 152.513081 
L 282.889763 152.513081 
L 284.287759 153.910925 
L 285.685755 153.910925 
L 287.08375 156.007692 
L 288.481746 158.80338 
L 289.879742 160.201224 
L 291.277738 160.201224 
L 294.073729 158.80338 
L 295.471725 157.405536 
L 296.86972 158.104458 
L 299.665712 156.706614 
L 301.063707 156.706614 
L 302.461703 156.007692 
L 305.257695 156.007692 
L 306.65569 155.308769 
L 308.053686 151.814159 
L 309.451682 150.416314 
L 310.849677 150.416314 
L 312.247673 146.921703 
L 313.645669 146.222781 
L 315.043665 146.921703 
L 316.44166 146.921703 
L 317.839656 144.126015 
L 319.237652 144.824937 
L 322.033643 147.620626 
L 324.829634 147.620626 
L 326.22763 146.921703 
L 327.625626 149.01847 
L 329.023622 150.416314 
L 330.421617 150.416314 
L 331.819613 153.910925 
L 333.217609 155.308769 
L 334.615604 156.007692 
L 336.0136 156.007692 
L 337.411596 160.900147 
L 338.809592 159.502302 
L 340.207587 160.201224 
L 344.401574 160.201224 
L 345.79957 160.900147 
L 347.197566 160.201224 
L 349.993557 157.405536 
L 352.789549 157.405536 
L 354.187544 151.115236 
L 355.58554 153.212003 
L 356.983536 151.115236 
L 358.381531 132.94326 
L 359.779527 130.147572 
L 362.575519 130.147572 
L 363.973514 126.652961 
L 365.37151 125.954039 
L 366.769506 121.760506 
L 368.167501 121.760506 
L 369.565497 118.265895 
L 372.361488 118.265895 
L 373.759484 107.782062 
L 375.15748 104.287452 
L 376.555476 100.093919 
L 377.953471 113.37344 
L 379.351467 106.384218 
L 382.147458 106.384218 
L 383.545454 102.889607 
L 384.94345 100.792841 
L 386.341446 103.588529 
L 387.739441 100.792841 
L 389.137437 101.491763 
L 391.933428 101.491763 
L 393.331424 118.265895 
L 394.72942 112.674517 
L 396.127415 118.964817 
L 397.525411 119.663739 
L 398.923407 127.351883 
L 401.719398 127.351883 
L 403.117394 132.244338 
L 404.51539 135.040027 
L 405.913385 135.738949 
L 407.311381 139.23356 
L 408.709377 142.029248 
L 411.505368 142.029248 
L 412.903364 141.330326 
L 414.30136 147.620626 
L 415.699355 145.523859 
L 417.097351 150.416314 
L 421.291338 150.416314 
L 422.689334 148.319548 
L 424.08733 148.319548 
L 424.08733 148.319548 
" clip-path="url(#p289021c4a8)" style="fill: none; stroke: #ffb612; stroke-width: 3; stroke-linecap: square"/>
   </g>
   <g id="patch_3">
    <path d="M 51.241875 169.159069 
L 51.241875 2.839069 
" style="fill: none; stroke: #ffffff; stroke-linejoin: miter; stroke-linecap: square"/>
   </g>
   <g id="patch_4">
    <path d="M 441.841875 169.159069 
L 441.841875 2.839069 
" style="fill: none; stroke: #ffffff; stroke-linejoin: miter; stroke-linecap: square"/>
   </g>
   <g id="patch_5">
    <path d="M 51.241875 169.159069 
L 441.841875 169.159069 
" style="fill: none; stroke: #ffffff; stroke-linejoin: miter; stroke-linecap: square"/>
   </g>
   <g id="patch_6">
    <path d="M 51.241875 2.839069 
L 441.841875 2.839069 
" style="fill: none; stroke: #ffffff; stroke-linejoin: miter; stroke-linecap: square"/>
   </g>
   <g id="legend_1">
    <g id="patch_7">
     <path d="M 58.241875 54.939069 
L 196.741875 54.939069 
Q 198.741875 54.939069 198.741875 52.939069 
L 198.741875 9.839069 
Q 198.741875 7.839069 196.741875 7.839069 
L 58.241875 7.839069 
Q 56.241875 7.839069 56.241875 9.839069 
L 56.241875 52.939069 
Q 56.241875 54.939069 58.241875 54.939069 
z
" style="fill: #e5e5e5; opacity: 0.8; stroke: #cccccc; stroke-width: 0.5; stroke-linejoin: miter"/>
    </g>
    <g id="line2d_30">
     <path d="M 60.241875 15.939069 
L 70.241875 15.939069 
L 80.241875 15.939069 
" style="fill: none; stroke: #134a8e; stroke-width: 3; stroke-linecap: square"/>
    </g>
    <g id="text_16">
     <!-- Infected portion of $\chi_1$ -->
     <g transform="translate(88.241875 19.439069) scale(0.1 -0.1)">
      <defs>
       <path id="DejaVuSans-70" d="M 1159 525 
L 1159 -1331 
L 581 -1331 
L 581 3500 
L 1159 3500 
L 1159 2969 
Q 1341 3281 1617 3432 
Q 1894 3584 2278 3584 
Q 2916 3584 3314 3078 
Q 3713 2572 3713 1747 
Q 3713 922 3314 415 
Q 2916 -91 2278 -91 
Q 1894 -91 1617 61 
Q 1341 213 1159 525 
z
M 3116 1747 
Q 3116 2381 2855 2742 
Q 2594 3103 2138 3103 
Q 1681 3103 1420 2742 
Q 1159 2381 1159 1747 
Q 1159 1113 1420 752 
Q 1681 391 2138 391 
Q 2594 391 2855 752 
Q 3116 1113 3116 1747 
z
" transform="scale(0.015625)"/>
       <path id="DejaVuSans-Oblique-3c7" d="M 1922 -781 
L 1691 416 
L 394 -1334 
L -284 -1334 
L 1553 1141 
L 1269 2613 
Q 1194 3006 713 3006 
L 559 3006 
L 653 3500 
L 872 3494 
Q 1675 3472 1775 2950 
L 2006 1753 
L 3303 3503 
L 3981 3503 
L 2144 1028 
L 2428 -444 
Q 2503 -838 2984 -838 
L 3138 -838 
L 3044 -1331 
L 2825 -1325 
Q 2022 -1303 1922 -781 
z
" transform="scale(0.015625)"/>
      </defs>
      <use xlink:href="#DejaVuSans-49" transform="translate(0 0.015625)"/>
      <use xlink:href="#DejaVuSans-6e" transform="translate(29.492188 0.015625)"/>
      <use xlink:href="#DejaVuSans-66" transform="translate(92.871094 0.015625)"/>
      <use xlink:href="#DejaVuSans-65" transform="translate(128.076172 0.015625)"/>
      <use xlink:href="#DejaVuSans-63" transform="translate(189.599609 0.015625)"/>
      <use xlink:href="#DejaVuSans-74" transform="translate(244.580078 0.015625)"/>
      <use xlink:href="#DejaVuSans-65" transform="translate(283.789062 0.015625)"/>
      <use xlink:href="#DejaVuSans-64" transform="translate(345.3125 0.015625)"/>
      <use xlink:href="#DejaVuSans-20" transform="translate(408.789062 0.015625)"/>
      <use xlink:href="#DejaVuSans-70" transform="translate(440.576172 0.015625)"/>
      <use xlink:href="#DejaVuSans-6f" transform="translate(504.052734 0.015625)"/>
      <use xlink:href="#DejaVuSans-72" transform="translate(565.234375 0.015625)"/>
      <use xlink:href="#DejaVuSans-74" transform="translate(606.347656 0.015625)"/>
      <use xlink:href="#DejaVuSans-69" transform="translate(645.556641 0.015625)"/>
      <use xlink:href="#DejaVuSans-6f" transform="translate(673.339844 0.015625)"/>
      <use xlink:href="#DejaVuSans-6e" transform="translate(734.521484 0.015625)"/>
      <use xlink:href="#DejaVuSans-20" transform="translate(797.900391 0.015625)"/>
      <use xlink:href="#DejaVuSans-6f" transform="translate(829.6875 0.015625)"/>
      <use xlink:href="#DejaVuSans-66" transform="translate(890.869141 0.015625)"/>
      <use xlink:href="#DejaVuSans-20" transform="translate(926.074219 0.015625)"/>
      <use xlink:href="#DejaVuSans-Oblique-3c7" transform="translate(957.861328 0.015625)"/>
      <use xlink:href="#DejaVuSans-31" transform="translate(1017.041016 -16.390625) scale(0.7)"/>
     </g>
    </g>
    <g id="line2d_31">
     <path d="M 60.241875 30.639069 
L 70.241875 30.639069 
L 80.241875 30.639069 
" style="fill: none; stroke: #0db14b; stroke-width: 3; stroke-linecap: square"/>
    </g>
    <g id="text_17">
     <!-- Infected portion of $\chi_2$ -->
     <g transform="translate(88.241875 34.139069) scale(0.1 -0.1)">
      <use xlink:href="#DejaVuSans-49" transform="translate(0 0.015625)"/>
      <use xlink:href="#DejaVuSans-6e" transform="translate(29.492188 0.015625)"/>
      <use xlink:href="#DejaVuSans-66" transform="translate(92.871094 0.015625)"/>
      <use xlink:href="#DejaVuSans-65" transform="translate(128.076172 0.015625)"/>
      <use xlink:href="#DejaVuSans-63" transform="translate(189.599609 0.015625)"/>
      <use xlink:href="#DejaVuSans-74" transform="translate(244.580078 0.015625)"/>
      <use xlink:href="#DejaVuSans-65" transform="translate(283.789062 0.015625)"/>
      <use xlink:href="#DejaVuSans-64" transform="translate(345.3125 0.015625)"/>
      <use xlink:href="#DejaVuSans-20" transform="translate(408.789062 0.015625)"/>
      <use xlink:href="#DejaVuSans-70" transform="translate(440.576172 0.015625)"/>
      <use xlink:href="#DejaVuSans-6f" transform="translate(504.052734 0.015625)"/>
      <use xlink:href="#DejaVuSans-72" transform="translate(565.234375 0.015625)"/>
      <use xlink:href="#DejaVuSans-74" transform="translate(606.347656 0.015625)"/>
      <use xlink:href="#DejaVuSans-69" transform="translate(645.556641 0.015625)"/>
      <use xlink:href="#DejaVuSans-6f" transform="translate(673.339844 0.015625)"/>
      <use xlink:href="#DejaVuSans-6e" transform="translate(734.521484 0.015625)"/>
      <use xlink:href="#DejaVuSans-20" transform="translate(797.900391 0.015625)"/>
      <use xlink:href="#DejaVuSans-6f" transform="translate(829.6875 0.015625)"/>
      <use xlink:href="#DejaVuSans-66" transform="translate(890.869141 0.015625)"/>
      <use xlink:href="#DejaVuSans-20" transform="translate(926.074219 0.015625)"/>
      <use xlink:href="#DejaVuSans-Oblique-3c7" transform="translate(957.861328 0.015625)"/>
      <use xlink:href="#DejaVuSans-32" transform="translate(1017.041016 -16.390625) scale(0.7)"/>
     </g>
    </g>
    <g id="line2d_32">
     <path d="M 60.241875 45.339069 
L 70.241875 45.339069 
L 80.241875 45.339069 
" style="fill: none; stroke: #ffb612; stroke-width: 3; stroke-linecap: square"/>
    </g>
    <g id="text_18">
     <!-- Infected portion of $\chi_3$ -->
     <g transform="translate(88.241875 48.839069) scale(0.1 -0.1)">
      <use xlink:href="#DejaVuSans-49" transform="translate(0 0.015625)"/>
      <use xlink:href="#DejaVuSans-6e" transform="translate(29.492188 0.015625)"/>
      <use xlink:href="#DejaVuSans-66" transform="translate(92.871094 0.015625)"/>
      <use xlink:href="#DejaVuSans-65" transform="translate(128.076172 0.015625)"/>
      <use xlink:href="#DejaVuSans-63" transform="translate(189.599609 0.015625)"/>
      <use xlink:href="#DejaVuSans-74" transform="translate(244.580078 0.015625)"/>
      <use xlink:href="#DejaVuSans-65" transform="translate(283.789062 0.015625)"/>
      <use xlink:href="#DejaVuSans-64" transform="translate(345.3125 0.015625)"/>
      <use xlink:href="#DejaVuSans-20" transform="translate(408.789062 0.015625)"/>
      <use xlink:href="#DejaVuSans-70" transform="translate(440.576172 0.015625)"/>
      <use xlink:href="#DejaVuSans-6f" transform="translate(504.052734 0.015625)"/>
      <use xlink:href="#DejaVuSans-72" transform="translate(565.234375 0.015625)"/>
      <use xlink:href="#DejaVuSans-74" transform="translate(606.347656 0.015625)"/>
      <use xlink:href="#DejaVuSans-69" transform="translate(645.556641 0.015625)"/>
      <use xlink:href="#DejaVuSans-6f" transform="translate(673.339844 0.015625)"/>
      <use xlink:href="#DejaVuSans-6e" transform="translate(734.521484 0.015625)"/>
      <use xlink:href="#DejaVuSans-20" transform="translate(797.900391 0.015625)"/>
      <use xlink:href="#DejaVuSans-6f" transform="translate(829.6875 0.015625)"/>
      <use xlink:href="#DejaVuSans-66" transform="translate(890.869141 0.015625)"/>
      <use xlink:href="#DejaVuSans-20" transform="translate(926.074219 0.015625)"/>
      <use xlink:href="#DejaVuSans-Oblique-3c7" transform="translate(957.861328 0.015625)"/>
      <use xlink:href="#DejaVuSans-33" transform="translate(1017.041016 -16.390625) scale(0.7)"/>
     </g>
    </g>
   </g>
  </g>
 </g>
 <defs>
  <clipPath id="p289021c4a8">
   <rect x="51.241875" y="2.839069" width="390.6" height="166.32"/>
  </clipPath>
 </defs>
</svg>
